<?xml version="1.0" standalone="no"?>
<!DOCTYPE svg PUBLIC "-//W3C//DTD SVG 1.1//EN" "http://www.w3.org/Graphics/SVG/1.1/DTD/svg11.dtd">
<!--Generator: Xara Designer (www.xara.com), SVG filter version: 6.7.0.0-->
<svg fill="none" fill-rule="evenodd" stroke="black" stroke-width="0.501" stroke-linejoin="bevel" stroke-miterlimit="10" font-family="Times New Roman" font-size="16" style="font-variant-ligatures:none" xmlns:xlink="http://www.w3.org/1999/xlink" xmlns="http://www.w3.org/2000/svg" version="1.1" overflow="visible" width="430.866pt" height="430.87pt" viewBox="66.766 -498.899 430.866 430.87">
 <defs>
	</defs>
 <g id="Layer 1" transform="scale(1 -1)">
  <g id="Group" stroke="none">
   <path d="M 66.766,83.243 L 66.766,483.685 C 66.766,492.083 73.582,498.899 81.978,498.899 L 482.42,498.899 C 490.818,498.899 497.632,492.083 497.632,483.685 L 497.632,83.243 C 497.632,81.143 497.206,79.143 496.436,77.323 C 494.896,73.683 491.978,70.765 488.34,69.225 C 486.52,68.455 484.52,68.029 482.42,68.029 L 81.978,68.029 C 73.582,68.029 66.766,74.845 66.766,83.243 Z M 496.78,83.977 L 496.78,482.951 C 496.78,491.283 490.018,498.045 481.688,498.045 L 82.71,498.045 C 74.38,498.045 67.618,491.283 67.618,482.951 L 67.618,83.977 C 67.618,75.645 74.38,68.883 82.71,68.883 L 481.688,68.883 C 490.018,68.883 496.78,75.645 496.78,83.977 Z" stroke-width="0.802" fill="#4c4c4c" stroke-linejoin="miter" marker-start="none" marker-end="none"/>
   <g id="Group_1">
    <g id="Group_2" stroke-linejoin="miter" stroke-linecap="round" stroke-width="0.17">
     <path d="M 296.067,166.18 L 296.067,179.948 L 339.976,179.948 L 339.976,179.924 C 351.012,179.924 362.096,183.894 370.868,191.907 C 380.755,200.931 385.779,213.321 385.779,225.723 L 385.695,275.714 L 399.541,275.714 L 399.541,225.723 L 399.529,225.723 C 399.529,209.617 392.997,193.483 380.144,181.732 C 368.73,171.324 354.326,166.18 339.976,166.196 L 296.069,166.18 L 296.067,166.18 Z" fill="#c9ebc6" marker-start="none" marker-end="none"/>
     <path d="M 342.812,129.578 L 342.812,143.316 C 361.72,143.962 380.513,151.072 395.563,164.826 C 413.401,181.08 422.457,203.381 422.457,225.723 L 422.351,275.714 L 436.199,275.714 L 436.199,225.723 L 436.185,225.723 C 436.185,199.661 425.631,173.64 404.837,154.666 C 387.141,138.528 365.038,130.218 342.812,129.578 Z" fill="#788c76" marker-start="none" marker-end="none"/>
     <path d="M 302.649,111.219 L 302.647,125.026 L 339.976,124.958 C 364.256,124.958 388.599,133.626 407.923,151.294 C 429.689,171.164 440.765,198.385 440.765,225.723 L 440.675,275.714 L 454.514,275.714 L 454.514,225.723 C 454.492,194.689 441.957,163.724 417.211,141.136 C 395.235,121.108 367.576,111.219 339.976,111.219 L 302.649,111.219 Z" fill="#505d4f" marker-start="none" marker-end="none"/>
     <path d="M 342.812,147.9 L 342.812,161.66 C 357.306,162.296 371.668,167.818 383.213,178.364 C 397.081,190.995 404.095,208.367 404.137,225.723 L 404.033,275.714 L 417.865,275.714 L 417.865,225.723 C 417.849,204.629 409.329,183.55 392.493,168.212 C 378.306,155.262 360.612,148.544 342.812,147.9 Z" fill="#9fbb9e" marker-start="none" marker-end="none"/>
     <path d="M 180.405,185.583 C 169.981,197.007 164.841,211.423 164.853,225.763 L 164.841,275.726 L 178.619,275.726 L 178.597,225.763 C 178.597,214.729 182.537,203.655 190.566,194.871 C 199.594,184.972 211.984,179.948 224.398,179.948 L 268.249,180.018 L 268.249,166.196 L 224.398,166.196 C 208.274,166.196 192.138,172.726 180.405,185.583 Z" fill="#c9ebc6" marker-start="none" marker-end="none"/>
     <path d="M 153.325,160.902 C 136.517,179.336 128.191,202.575 128.201,225.763 L 128.201,275.726 L 142.035,275.726 L 141.931,225.763 C 141.931,205.905 149.043,185.973 163.501,170.164 C 178.763,153.406 199.41,144.4 220.416,143.378 L 220.418,129.65 L 220.416,129.63 C 195.678,130.65 171.333,141.164 153.325,160.902 Z" fill="#788c76" marker-start="none" marker-end="none"/>
     <path d="M 139.781,148.54 C 119.759,170.504 109.872,198.165 109.884,225.763 L 109.884,275.726 L 123.713,275.726 L 123.621,225.763 C 123.621,201.481 132.301,177.14 149.957,157.814 C 169.829,136.036 197.06,124.972 224.398,124.972 L 261.099,125.028 L 261.099,111.219 L 224.398,111.219 C 193.352,111.249 162.383,123.802 139.781,148.54 Z" fill="#505d4f" marker-start="none" marker-end="none"/>
     <path d="M 166.871,173.246 C 153.233,188.183 146.511,207.003 146.511,225.763 L 146.431,275.726 L 160.273,275.726 L 160.273,225.763 C 160.249,210.315 165.793,194.823 177.033,182.512 C 188.698,169.71 204.41,162.744 220.416,161.742 L 220.416,147.978 C 200.652,148.994 181.261,157.482 166.871,173.246 Z" fill="#9fbb9e" marker-start="none" marker-end="none"/>
    </g>
    <g id="Group_3" stroke-linejoin="miter" stroke-linecap="round" stroke-width="0.17">
     <path d="M 385.713,291.374 L 385.789,341.345 C 385.789,353.755 380.769,366.143 370.88,375.173 C 362.07,383.188 351.012,387.144 339.964,387.144 L 289.999,387.128 L 289.999,400.898 L 339.964,400.884 C 354.33,400.898 368.72,395.758 380.144,385.35 C 392.997,373.599 399.529,357.479 399.529,341.345 L 399.541,341.345 L 399.541,291.374 L 385.713,291.374 Z" fill="#c9ebc6" marker-start="none" marker-end="none"/>
     <path d="M 422.365,291.374 L 422.457,341.345 C 422.443,363.681 413.389,386.002 395.575,402.248 C 379.754,416.68 359.848,423.81 339.964,423.81 L 289.999,423.706 L 289.999,437.536 L 339.964,437.536 C 363.15,437.55 386.389,429.236 404.837,412.394 C 425.619,393.436 436.185,367.417 436.185,341.345 L 436.199,291.374 L 422.365,291.374 Z" fill="#788c76" marker-start="none" marker-end="none"/>
     <path d="M 440.691,291.374 L 440.765,341.345 C 440.765,368.679 429.705,395.91 407.923,415.794 C 388.599,433.44 364.256,442.116 339.964,442.116 L 289.999,442.026 L 289.999,455.843 L 339.964,455.843 C 367.576,455.855 395.251,445.978 417.213,425.942 C 441.949,403.356 454.492,372.401 454.514,341.345 L 454.514,291.374 L 440.691,291.374 Z" fill="#505d4f" marker-start="none" marker-end="none"/>
     <path d="M 404.033,291.374 L 404.127,341.345 C 404.109,358.715 397.087,376.085 383.225,388.718 C 370.932,399.948 355.422,405.488 339.964,405.478 L 289.999,405.478 L 289.999,419.306 L 339.964,419.214 C 358.74,419.214 377.554,412.486 392.493,398.866 C 409.329,383.512 417.849,362.445 417.865,341.345 L 417.865,291.374 L 404.033,291.374 Z" fill="#9fbb9e" marker-start="none" marker-end="none"/>
    </g>
    <g id="Group_4" stroke-linejoin="miter" stroke-linecap="round" stroke-width="0.17">
     <path d="M 164.841,291.352 L 164.841,341.315 L 164.857,341.315 C 164.841,355.655 169.981,370.061 180.377,381.493 C 192.154,394.34 208.274,400.87 224.398,400.87 L 224.398,400.884 L 274.361,400.884 L 274.361,387.052 L 224.398,387.128 C 211.984,387.128 199.594,382.106 190.566,372.205 C 182.551,363.411 178.583,352.351 178.583,341.315 L 178.619,341.315 L 178.619,291.352 L 164.841,291.352 Z" fill="#c9ebc6" marker-start="none" marker-end="none"/>
     <path d="M 128.201,291.352 L 128.201,341.315 C 128.191,364.501 136.517,387.726 153.325,406.178 C 172.299,426.954 198.322,437.524 224.398,437.524 L 274.361,437.536 L 274.361,423.706 L 224.398,423.796 C 202.042,423.782 179.739,414.726 163.501,396.914 C 149.047,381.105 141.931,361.171 141.931,341.315 L 142.047,291.352 L 128.201,291.352 Z" fill="#788c76" marker-start="none" marker-end="none"/>
     <path d="M 109.884,291.352 L 109.884,341.315 C 109.872,368.917 119.759,396.572 139.793,418.54 C 162.383,443.286 193.352,455.817 224.398,455.843 L 274.361,455.843 L 274.361,442.026 L 224.398,442.104 C 197.06,442.104 169.829,431.048 149.957,409.26 C 132.301,389.94 123.621,365.609 123.621,341.315 L 123.727,291.352 L 109.884,291.352 Z" fill="#505d4f" marker-start="none" marker-end="none"/>
     <path d="M 146.431,291.352 L 146.525,341.315 C 146.525,360.067 153.235,378.879 166.871,393.83 C 182.213,410.654 203.29,419.194 224.398,419.202 L 274.361,419.202 L 274.361,405.374 L 224.398,405.466 C 207.022,405.45 189.67,398.422 177.023,384.562 C 165.793,372.257 160.249,356.763 160.261,341.315 L 160.261,291.352 L 146.431,291.352 Z" fill="#9fbb9e" marker-start="none" marker-end="none"/>
    </g>
    <g id="Group_5" fill-rule="nonzero" stroke-linejoin="round" stroke-linecap="round" stroke-width="0.614" fill="#000000">
     <g id="Group_6">
      <path d="M 273.571,166.204 L 273.571,177.356 L 271.931,177.356 L 271.931,180.004 L 277.973,180.004 L 277.973,177.356 L 276.333,177.356 L 276.333,166.204 L 273.571,166.204 Z" marker-start="none" marker-end="none"/>
      <path d="M 278.743,166.204 L 278.743,180.004 L 281.491,180.004 L 281.491,175.074 L 282.791,175.074 L 282.791,180.004 L 285.541,180.004 L 285.541,166.204 L 282.791,166.204 L 282.791,172.47 L 281.491,172.47 L 281.491,166.204 L 278.743,166.204 Z" marker-start="none" marker-end="none"/>
      <path d="M 286.761,166.204 L 286.761,180.004 L 292.289,180.004 L 292.289,177.34 L 289.575,177.34 L 289.575,174.654 L 292.177,174.654 L 292.177,172.052 L 289.575,172.052 L 289.575,168.886 L 292.465,168.886 L 292.465,166.204 L 286.761,166.204 Z" marker-start="none" marker-end="none"/>
     </g>
    </g>
    <g id="Group_7" fill-rule="nonzero" stroke-linejoin="round" stroke-linecap="round" stroke-width="0.88" fill="#000000">
     <g id="Group_8">
      <path d="M 226.288,129.584 L 226.288,161.826 L 232.604,161.826 L 235.424,146.4 L 235.424,161.826 L 241.346,161.826 L 241.346,129.584 L 235.354,129.584 L 232.288,145.726 L 232.288,129.584 L 226.288,129.584 Z" marker-start="none" marker-end="none"/>
      <path d="M 244.06,129.584 L 244.06,161.826 L 256.335,161.826 L 256.335,155.592 L 250.303,155.592 L 250.303,149.324 L 256.087,149.324 L 256.087,143.248 L 250.303,143.248 L 250.303,135.854 L 256.727,135.854 L 256.727,129.584 L 244.06,129.584 Z" marker-start="none" marker-end="none"/>
      <path d="M 261.405,129.584 L 261.405,155.632 L 257.767,155.632 L 257.767,161.826 L 271.183,161.826 L 271.183,155.632 L 267.545,155.632 L 267.545,129.584 L 261.405,129.584 Z" marker-start="none" marker-end="none"/>
      <path d="M 275.455,129.584 L 275.455,135.442 L 282.451,155.892 L 276.139,155.892 L 276.139,161.826 L 288.951,161.826 L 288.951,156.19 L 281.771,135.516 L 288.625,135.516 L 288.625,129.584 L 275.455,129.584 Z" marker-start="none" marker-end="none"/>
      <path d="M 290.879,129.584 L 290.879,161.826 L 303.157,161.826 L 303.157,155.592 L 297.123,155.592 L 297.123,149.324 L 302.901,149.324 L 302.901,143.248 L 297.123,143.248 L 297.123,135.854 L 303.547,135.854 L 303.547,129.584 L 290.879,129.584 Z" marker-start="none" marker-end="none"/>
      <path d="M 305.583,129.584 L 305.583,161.826 L 315.006,161.826 C 316.502,161.826 317.66,161.468 318.482,160.75 C 319.302,160.038 319.856,159.036 320.142,157.75 C 320.428,156.458 320.576,154.816 320.576,152.816 C 320.576,150.99 320.342,149.562 319.892,148.54 C 319.442,147.508 318.654,146.8 317.536,146.4 C 318.464,146.196 319.134,145.714 319.554,144.934 C 319.97,144.162 320.178,143.11 320.178,141.78 L 320.11,129.584 L 314.113,129.584 L 314.113,142.196 C 314.113,143.098 313.945,143.672 313.615,143.922 C 313.277,144.168 312.673,144.298 311.793,144.298 L 311.793,129.584 L 305.583,129.584 Z M 314.579,152.816 C 314.579,153.666 314.543,154.302 314.469,154.726 C 314.395,155.15 314.269,155.448 314.075,155.616 C 313.887,155.772 313.615,155.856 313.253,155.856 L 311.827,155.856 L 311.827,149.886 L 313.293,149.886 C 314.149,149.886 314.579,150.86 314.579,152.816 Z" marker-start="none" marker-end="none"/>
      <path d="M 324.286,131.67 C 322.994,133.256 322.358,135.492 322.358,138.368 L 322.358,153.718 C 322.358,156.494 322.994,158.586 324.286,160.002 C 325.568,161.418 327.448,162.12 329.922,162.12 C 332.398,162.12 334.276,161.418 335.558,160.002 C 336.846,158.586 337.486,156.494 337.486,153.718 L 337.486,138.368 C 337.486,135.466 336.846,133.232 335.558,131.652 C 334.276,130.074 332.398,129.282 329.922,129.282 C 327.448,129.282 325.568,130.082 324.286,131.67 Z M 331.03,135.966 C 331.22,136.468 331.31,137.168 331.31,138.066 L 331.31,153.828 C 331.31,154.532 331.228,155.096 331.046,155.536 C 330.864,155.974 330.504,156.19 329.956,156.19 C 328.932,156.19 328.422,155.382 328.422,153.75 L 328.422,138.032 C 328.422,137.104 328.526,136.402 328.744,135.93 C 328.958,135.452 329.354,135.218 329.922,135.218 C 330.47,135.218 330.838,135.466 331.03,135.966 Z" marker-start="none" marker-end="none"/>
     </g>
    </g>
    <g id="Group_9" fill-rule="nonzero" stroke-linejoin="round" stroke-linecap="round" stroke-width="0.608" fill="#000000">
     <g id="Group_10">
      <path d="M 266.213,112.141 C 265.723,112.843 265.481,113.907 265.481,115.335 L 265.481,121.288 C 265.481,122.562 265.767,123.528 266.333,124.184 C 266.905,124.838 267.751,125.164 268.875,125.164 C 269.789,125.164 270.495,124.984 271.001,124.62 C 271.505,124.254 271.853,123.722 272.047,123.026 C 272.239,122.328 272.337,121.43 272.337,120.338 L 269.633,120.338 L 269.633,121.578 C 269.633,121.908 269.587,122.168 269.495,122.35 C 269.405,122.532 269.241,122.624 269.005,122.624 C 268.481,122.624 268.215,122.28 268.215,121.594 L 268.215,114.901 C 268.215,114.483 268.271,114.165 268.377,113.951 C 268.485,113.735 268.673,113.627 268.939,113.627 C 269.211,113.627 269.395,113.735 269.507,113.951 C 269.613,114.165 269.665,114.483 269.665,114.901 L 269.665,116.879 L 268.925,116.879 L 268.925,119.261 L 272.305,119.261 L 272.305,111.213 L 271.195,111.213 L 270.727,112.371 C 270.235,111.515 269.469,111.085 268.443,111.085 C 267.445,111.085 266.703,111.435 266.213,112.141 Z" marker-start="none" marker-end="none"/>
      <path d="M 273.025,111.213 L 274.359,125.036 L 279.043,125.036 L 280.363,111.213 L 277.741,111.213 L 277.549,113.453 L 275.875,113.453 L 275.711,111.213 L 273.025,111.213 Z M 277.339,115.657 L 276.727,122.688 L 276.599,122.688 L 276.083,115.657 L 277.339,115.657 Z" marker-start="none" marker-end="none"/>
      <path d="M 281.197,111.213 L 281.197,125.036 L 285.413,125.036 L 286.573,116.605 L 287.731,125.036 L 291.977,125.036 L 291.977,111.213 L 289.451,111.213 L 289.451,121.176 L 287.859,111.213 L 285.381,111.213 L 283.691,121.176 L 283.691,111.213 L 281.197,111.213 Z" marker-start="none" marker-end="none"/>
      <path d="M 293.205,111.213 L 293.205,125.036 L 298.737,125.036 L 298.737,122.364 L 296.021,122.364 L 296.021,119.678 L 298.627,119.678 L 298.627,117.073 L 296.021,117.073 L 296.021,113.903 L 298.915,113.903 L 298.915,111.213 L 293.205,111.213 Z" marker-start="none" marker-end="none"/>
     </g>
    </g>
    <path d="M 243.392,173.79 L 243.392,245.723 L 166.495,245.723 L 166.495,443.468 L 340.104,443.468 C 367.964,444.07 395.917,432.956 415.957,410.584 C 432.189,392.458 440.499,369.975 441.123,347.399 L 441.139,347.399 L 441.139,173.79 L 243.392,173.79 Z" stroke-opacity="0.607843" stroke-width="1.804" stroke-linejoin="miter" marker-start="none" marker-end="none" fill-opacity="0.607843"/>
    <g id="Group_11" fill-rule="nonzero" stroke-linejoin="round" stroke-linecap="round" stroke-width="0.844" fill="#000000">
     <g id="Group_12">
      <path d="M 238.247,307.153 C 238.359,307.153 238.472,307.131 238.584,307.088 C 238.696,307.045 238.804,306.971 238.907,306.866 L 240.788,304.844 C 239.964,303.785 238.932,302.985 237.692,302.446 C 236.452,301.907 234.986,301.638 233.292,301.638 C 231.738,301.638 230.346,301.902 229.116,302.431 C 227.885,302.96 226.842,303.69 225.985,304.621 C 225.129,305.553 224.472,306.657 224.013,307.935 C 223.555,309.212 223.325,310.6 223.325,312.098 C 223.325,313.623 223.587,315.025 224.111,316.302 C 224.635,317.58 225.368,318.682 226.308,319.609 C 227.249,320.535 228.374,321.256 229.684,321.771 C 230.994,322.285 232.44,322.543 234.022,322.543 C 234.789,322.543 235.512,322.475 236.19,322.339 C 236.869,322.203 237.503,322.016 238.093,321.777 C 238.682,321.538 239.225,321.252 239.721,320.919 C 240.217,320.587 240.657,320.218 241.04,319.816 L 239.44,317.668 C 239.337,317.537 239.215,317.417 239.075,317.31 C 238.935,317.202 238.738,317.148 238.486,317.148 C 238.317,317.148 238.158,317.186 238.008,317.261 C 237.859,317.335 237.699,317.427 237.531,317.534 C 237.363,317.642 237.178,317.759 236.977,317.885 C 236.775,318.011 236.537,318.128 236.261,318.236 C 235.985,318.344 235.662,318.435 235.292,318.51 C 234.922,318.585 234.49,318.622 233.994,318.623 C 233.133,318.622 232.347,318.47 231.635,318.166 C 230.924,317.862 230.314,317.427 229.804,316.86 C 229.294,316.294 228.896,315.609 228.61,314.804 C 228.325,313.999 228.182,313.095 228.182,312.094 C 228.182,311.046 228.325,310.114 228.61,309.3 C 228.896,308.486 229.284,307.801 229.775,307.243 C 230.267,306.687 230.84,306.264 231.495,305.973 C 232.15,305.683 232.852,305.538 233.601,305.538 C 234.031,305.538 234.424,305.559 234.78,305.601 C 235.135,305.643 235.465,305.716 235.769,305.819 C 236.073,305.922 236.364,306.055 236.64,306.219 C 236.916,306.382 237.194,306.586 237.475,306.83 C 237.587,306.923 237.709,307 237.84,307.061 C 237.971,307.122 238.107,307.153 238.247,307.153 Z" marker-start="none" marker-end="none"/>
      <path d="M 261.99,301.864 L 258.312,301.864 C 257.9,301.864 257.561,301.96 257.294,302.152 C 257.028,302.344 256.843,302.589 256.74,302.889 L 255.533,306.456 L 247.756,306.456 L 246.549,302.889 C 246.455,302.627 246.273,302.391 246.002,302.18 C 245.73,301.969 245.398,301.864 245.005,301.864 L 241.299,301.864 L 249.216,322.32 L 254.073,322.32 L 261.99,301.864 Z M 248.851,309.685 L 254.438,309.685 L 252.557,315.2 C 252.435,315.55 252.293,315.962 252.129,316.437 C 251.965,316.912 251.804,317.425 251.645,317.978 C 251.495,317.416 251.34,316.895 251.181,316.416 C 251.022,315.937 250.872,315.523 250.732,315.172 L 248.851,309.685 Z" marker-start="none" marker-end="none"/>
      <path d="M 268.385,309.431 L 268.385,301.864 L 263.64,301.864 L 263.64,322.317 L 270.294,322.317 C 271.773,322.317 273.034,322.165 274.077,321.86 C 275.121,321.556 275.972,321.132 276.632,320.588 C 277.292,320.045 277.771,319.402 278.071,318.662 C 278.37,317.922 278.52,317.117 278.52,316.245 C 278.52,315.58 278.431,314.952 278.253,314.362 C 278.075,313.771 277.811,313.226 277.46,312.724 C 277.109,312.223 276.679,311.775 276.169,311.382 C 275.659,310.989 275.071,310.665 274.407,310.412 C 274.725,310.254 275.022,310.057 275.298,309.824 C 275.574,309.59 275.815,309.305 276.021,308.969 L 280.373,301.864 L 276.077,301.864 C 275.282,301.864 274.711,302.163 274.365,302.762 L 270.968,308.701 C 270.818,308.963 270.643,309.15 270.442,309.262 C 270.24,309.375 269.957,309.431 269.592,309.431 L 268.385,309.431 Z M 268.385,312.7 L 270.294,312.7 C 270.94,312.7 271.49,312.782 271.943,312.946 C 272.397,313.11 272.769,313.337 273.059,313.627 C 273.35,313.917 273.56,314.257 273.691,314.645 C 273.822,315.034 273.888,315.452 273.888,315.902 C 273.888,316.8 273.595,317.503 273.01,318.008 C 272.425,318.513 271.52,318.766 270.294,318.766 L 268.385,318.766 L 268.385,312.7 Z" marker-start="none" marker-end="none"/>
      <path d="M 282.31,301.864 L 282.31,322.317 L 289.834,322.317 C 291.248,322.317 292.45,322.186 293.442,321.924 C 294.434,321.662 295.243,321.292 295.87,320.815 C 296.497,320.338 296.954,319.758 297.239,319.075 C 297.524,318.392 297.667,317.629 297.667,316.787 C 297.667,316.329 297.602,315.887 297.471,315.461 C 297.34,315.036 297.134,314.636 296.853,314.261 C 296.572,313.887 296.212,313.548 295.772,313.244 C 295.332,312.939 294.804,312.675 294.186,312.451 C 295.534,312.123 296.53,311.592 297.176,310.857 C 297.822,310.122 298.144,309.179 298.144,308.028 C 298.144,307.157 297.976,306.348 297.639,305.599 C 297.302,304.85 296.809,304.197 296.158,303.64 C 295.508,303.083 294.705,302.648 293.751,302.334 C 292.796,302.021 291.706,301.864 290.48,301.864 L 282.31,301.864 Z M 287.055,310.541 L 287.055,305.442 L 290.396,305.442 C 291.023,305.442 291.535,305.521 291.933,305.681 C 292.331,305.84 292.642,306.046 292.866,306.299 C 293.091,306.552 293.245,306.837 293.33,307.156 C 293.414,307.474 293.456,307.797 293.456,308.125 C 293.456,308.499 293.407,308.837 293.309,309.136 C 293.21,309.436 293.042,309.689 292.803,309.895 C 292.565,310.102 292.249,310.261 291.856,310.373 C 291.463,310.485 290.967,310.541 290.368,310.541 L 287.055,310.541 Z M 287.055,313.715 L 289.526,313.715 C 290.05,313.715 290.522,313.752 290.943,313.827 C 291.364,313.902 291.722,314.033 292.017,314.22 C 292.312,314.407 292.537,314.664 292.691,314.992 C 292.845,315.319 292.923,315.731 292.923,316.226 C 292.923,316.713 292.862,317.118 292.74,317.44 C 292.618,317.763 292.431,318.022 292.179,318.219 C 291.926,318.415 291.605,318.556 291.217,318.64 C 290.829,318.724 290.368,318.766 289.834,318.766 L 287.055,318.766 L 287.055,313.715 Z" marker-start="none" marker-end="none"/>
      <path d="M 320.906,312.098 C 320.906,310.619 320.651,309.243 320.141,307.97 C 319.631,306.697 318.913,305.59 317.986,304.649 C 317.06,303.709 315.944,302.972 314.638,302.438 C 313.333,301.905 311.885,301.638 310.294,301.638 C 308.703,301.638 307.252,301.905 305.942,302.438 C 304.632,302.972 303.512,303.709 302.58,304.649 C 301.649,305.59 300.929,306.697 300.419,307.97 C 299.909,309.243 299.654,310.619 299.654,312.098 C 299.654,313.576 299.909,314.952 300.419,316.225 C 300.929,317.498 301.649,318.602 302.58,319.538 C 303.512,320.474 304.632,321.209 305.942,321.743 C 307.252,322.276 308.703,322.543 310.294,322.543 C 311.885,322.543 313.333,322.274 314.638,321.736 C 315.944,321.198 317.06,320.46 317.986,319.524 C 318.913,318.588 319.631,317.484 320.141,316.211 C 320.651,314.938 320.906,313.567 320.906,312.098 Z M 316.049,312.097 C 316.049,313.107 315.918,314.017 315.656,314.827 C 315.394,315.636 315.017,316.321 314.526,316.882 C 314.035,317.444 313.434,317.874 312.722,318.173 C 312.011,318.472 311.202,318.622 310.294,318.623 C 309.377,318.622 308.56,318.472 307.844,318.173 C 307.128,317.874 306.525,317.444 306.034,316.882 C 305.542,316.321 305.166,315.636 304.904,314.827 C 304.642,314.017 304.511,313.107 304.511,312.097 C 304.511,311.077 304.642,310.163 304.904,309.354 C 305.166,308.545 305.542,307.859 306.034,307.298 C 306.525,306.736 307.128,306.309 307.844,306.014 C 308.56,305.72 309.377,305.572 310.294,305.572 C 311.202,305.572 312.011,305.72 312.722,306.014 C 313.434,306.309 314.035,306.736 314.526,307.298 C 315.017,307.859 315.394,308.545 315.656,309.354 C 315.918,310.163 316.049,311.077 316.049,312.097 Z" marker-start="none" marker-end="none"/>
      <path d="M 325.673,322.324 C 325.879,322.323 326.052,322.314 326.192,322.296 C 326.333,322.277 326.459,322.242 326.571,322.19 C 326.684,322.138 326.791,322.066 326.894,321.973 C 326.997,321.879 327.114,321.752 327.245,321.594 L 336.959,309.311 C 336.922,309.704 336.894,310.085 336.875,310.455 C 336.856,310.824 336.847,311.173 336.847,311.501 L 336.847,322.324 L 341.03,322.324 L 341.03,301.864 L 338.559,301.864 C 338.194,301.864 337.885,301.92 337.633,302.032 C 337.38,302.145 337.137,302.351 336.903,302.65 L 327.259,314.834 C 327.287,314.479 327.311,314.13 327.329,313.789 C 327.348,313.447 327.358,313.127 327.358,312.827 L 327.358,301.864 L 323.174,301.864 L 323.174,322.324 L 325.673,322.324 Z" marker-start="none" marker-end="none"/>
     </g>
     <g id="Group_13">
      <path d="M 252.394,293.695 L 252.394,290.041 L 244,290.041 L 244,285.264 L 250.429,285.264 L 250.429,281.755 L 244,281.755 L 244,276.888 L 252.394,276.888 L 252.394,273.235 L 239.227,273.235 L 239.227,293.695 L 252.394,293.695 Z" marker-start="none" marker-end="none"/>
      <path d="M 253.403,293.691 L 257.221,293.691 C 257.633,293.691 257.97,293.597 258.232,293.409 C 258.494,293.221 258.681,292.971 258.793,292.661 L 262.752,281.652 C 262.93,281.172 263.11,280.65 263.292,280.086 C 263.475,279.521 263.645,278.928 263.805,278.307 C 263.936,278.928 264.088,279.521 264.261,280.086 C 264.434,280.65 264.605,281.172 264.773,281.652 L 268.704,292.661 C 268.797,292.925 268.98,293.162 269.251,293.374 C 269.522,293.585 269.855,293.691 270.248,293.691 L 274.094,293.691 L 265.896,273.235 L 261.601,273.235 L 253.403,293.691 Z" marker-start="none" marker-end="none"/>
      <path d="M 288.939,293.695 L 288.939,290.041 L 280.545,290.041 L 280.545,285.264 L 286.974,285.264 L 286.974,281.755 L 280.545,281.755 L 280.545,276.888 L 288.939,276.888 L 288.939,273.235 L 275.772,273.235 L 275.772,293.695 L 288.939,293.695 Z" marker-start="none" marker-end="none"/>
      <path d="M 294.131,293.695 C 294.337,293.694 294.51,293.685 294.65,293.667 C 294.791,293.648 294.917,293.613 295.029,293.561 C 295.142,293.509 295.249,293.437 295.352,293.344 C 295.455,293.25 295.572,293.123 295.703,292.965 L 305.417,280.682 C 305.38,281.075 305.352,281.456 305.333,281.826 C 305.314,282.195 305.305,282.544 305.305,282.872 L 305.305,293.695 L 309.488,293.695 L 309.488,273.235 L 307.017,273.235 C 306.652,273.235 306.343,273.291 306.091,273.403 C 305.838,273.516 305.595,273.722 305.361,274.021 L 295.717,286.205 C 295.745,285.85 295.769,285.501 295.787,285.16 C 295.806,284.818 295.816,284.498 295.816,284.198 L 295.816,273.235 L 291.632,273.235 L 291.632,293.695 L 294.131,293.695 Z" marker-start="none" marker-end="none"/>
      <path d="M 327.704,293.695 L 327.704,289.932 L 321.949,289.932 L 321.949,273.239 L 317.204,273.239 L 317.204,289.932 L 311.449,289.932 L 311.449,293.695 L 327.704,293.695 Z" marker-start="none" marker-end="none"/>
     </g>
     <g id="Group_14">
      <path d="M 258.871,249.895 C 258.983,249.895 259.096,249.873 259.208,249.83 C 259.32,249.787 259.428,249.713 259.531,249.608 L 261.412,247.586 C 260.588,246.527 259.556,245.727 258.316,245.188 C 257.076,244.649 255.61,244.38 253.916,244.38 C 252.362,244.38 250.97,244.644 249.74,245.173 C 248.509,245.702 247.466,246.432 246.609,247.363 C 245.753,248.295 245.096,249.399 244.637,250.677 C 244.179,251.954 243.949,253.342 243.949,254.84 C 243.949,256.365 244.211,257.767 244.735,259.044 C 245.259,260.322 245.992,261.424 246.932,262.351 C 247.873,263.277 248.998,263.998 250.308,264.513 C 251.618,265.027 253.064,265.285 254.646,265.285 C 255.413,265.285 256.136,265.217 256.814,265.081 C 257.493,264.945 258.127,264.758 258.717,264.519 C 259.306,264.28 259.849,263.994 260.345,263.661 C 260.841,263.329 261.281,262.96 261.664,262.558 L 260.064,260.41 C 259.961,260.279 259.839,260.159 259.699,260.052 C 259.559,259.944 259.362,259.89 259.11,259.89 C 258.941,259.89 258.782,259.928 258.632,260.003 C 258.483,260.077 258.323,260.169 258.155,260.276 C 257.987,260.384 257.802,260.501 257.601,260.627 C 257.399,260.753 257.161,260.87 256.885,260.978 C 256.609,261.086 256.286,261.177 255.916,261.252 C 255.546,261.327 255.114,261.364 254.618,261.365 C 253.757,261.364 252.971,261.212 252.259,260.908 C 251.548,260.604 250.938,260.169 250.428,259.602 C 249.918,259.036 249.52,258.351 249.234,257.546 C 248.949,256.741 248.806,255.837 248.806,254.836 C 248.806,253.788 248.949,252.856 249.234,252.042 C 249.52,251.228 249.908,250.543 250.399,249.985 C 250.891,249.429 251.464,249.006 252.119,248.715 C 252.774,248.425 253.476,248.28 254.225,248.28 C 254.655,248.28 255.048,248.301 255.404,248.343 C 255.759,248.385 256.089,248.458 256.393,248.561 C 256.697,248.664 256.988,248.797 257.264,248.961 C 257.54,249.124 257.818,249.328 258.099,249.572 C 258.211,249.665 258.333,249.742 258.464,249.803 C 258.595,249.864 258.731,249.895 258.871,249.895 Z" marker-start="none" marker-end="none"/>
      <path d="M 282.614,244.606 L 278.936,244.606 C 278.524,244.606 278.185,244.702 277.918,244.894 C 277.652,245.086 277.467,245.331 277.364,245.631 L 276.157,249.198 L 268.38,249.198 L 267.173,245.631 C 267.079,245.369 266.897,245.133 266.626,244.922 C 266.354,244.711 266.022,244.606 265.629,244.606 L 261.923,244.606 L 269.84,265.062 L 274.697,265.062 L 282.614,244.606 Z M 269.475,252.427 L 275.062,252.427 L 273.181,257.942 C 273.059,258.292 272.917,258.704 272.753,259.179 C 272.589,259.654 272.428,260.167 272.269,260.72 C 272.119,260.158 271.964,259.637 271.805,259.158 C 271.646,258.679 271.496,258.265 271.356,257.914 L 269.475,252.427 Z" marker-start="none" marker-end="none"/>
      <path d="M 289.009,252.173 L 289.009,244.606 L 284.264,244.606 L 284.264,265.059 L 290.918,265.059 C 292.397,265.059 293.658,264.907 294.701,264.602 C 295.745,264.298 296.596,263.874 297.256,263.33 C 297.916,262.787 298.395,262.144 298.695,261.404 C 298.994,260.664 299.144,259.859 299.144,258.987 C 299.144,258.322 299.055,257.694 298.877,257.104 C 298.699,256.513 298.435,255.968 298.084,255.466 C 297.733,254.965 297.303,254.517 296.793,254.124 C 296.283,253.731 295.695,253.407 295.031,253.154 C 295.349,252.996 295.646,252.799 295.922,252.566 C 296.198,252.332 296.439,252.047 296.645,251.711 L 300.997,244.606 L 296.701,244.606 C 295.906,244.606 295.335,244.905 294.989,245.504 L 291.592,251.443 C 291.442,251.705 291.267,251.892 291.066,252.004 C 290.864,252.117 290.581,252.173 290.216,252.173 L 289.009,252.173 Z M 289.009,255.442 L 290.918,255.442 C 291.564,255.442 292.114,255.524 292.567,255.688 C 293.021,255.852 293.393,256.079 293.683,256.369 C 293.974,256.659 294.184,256.999 294.315,257.387 C 294.446,257.776 294.512,258.194 294.512,258.644 C 294.512,259.542 294.219,260.245 293.634,260.75 C 293.049,261.255 292.144,261.508 290.918,261.508 L 289.009,261.508 L 289.009,255.442 Z" marker-start="none" marker-end="none"/>
      <path d="M 321.492,254.843 C 321.492,253.364 321.237,251.999 320.727,250.75 C 320.217,249.5 319.498,248.419 318.572,247.506 C 317.645,246.593 316.53,245.881 315.224,245.371 C 313.919,244.861 312.47,244.606 310.88,244.606 L 302.934,244.606 L 302.934,265.066 L 310.88,265.066 C 312.47,265.065 313.919,264.808 315.224,264.293 C 316.53,263.779 317.645,263.067 318.572,262.159 C 319.498,261.251 320.217,260.172 320.727,258.922 C 321.237,257.672 321.492,256.313 321.492,254.843 Z M 316.635,254.843 C 316.635,255.853 316.504,256.766 316.242,257.58 C 315.98,258.394 315.603,259.084 315.112,259.65 C 314.62,260.217 314.019,260.652 313.308,260.956 C 312.597,261.26 311.787,261.412 310.88,261.412 L 307.707,261.412 L 307.707,248.259 L 310.88,248.259 C 311.787,248.259 312.597,248.411 313.308,248.715 C 314.019,249.02 314.62,249.455 315.112,250.021 C 315.603,250.587 315.98,251.277 316.242,252.091 C 316.504,252.906 316.635,253.823 316.635,254.843 Z" marker-start="none" marker-end="none"/>
     </g>
    </g>
   </g>
  </g>
 </g>
</svg>
