<?xml version="1.0" standalone="no"?>
<!DOCTYPE svg PUBLIC "-//W3C//DTD SVG 1.1//EN" "http://www.w3.org/Graphics/SVG/1.1/DTD/svg11.dtd">
<!--Generator: Xara Designer (www.xara.com), SVG filter version: 6.6.0.0-->
<svg fill="none" fill-rule="evenodd" stroke="black" stroke-width="0.501" stroke-linejoin="bevel" stroke-miterlimit="10" font-family="Times New Roman" font-size="16" style="font-variant-ligatures:none" xmlns:xlink="http://www.w3.org/1999/xlink" xmlns="http://www.w3.org/2000/svg" version="1.1" overflow="visible" width="107.72pt" height="215.438pt" viewBox="3694.92 -1601.13 107.72 215.438">
 <defs>
	</defs>
 <g id="Grid 36x36mm" transform="scale(1 -1)"/>
 <g id="Layer 2 - grids" transform="scale(1 -1)"/>
 <g id="Layer 1" transform="scale(1 -1)">
  <path d="M 3695.81,1401.64 L 3695.81,1585.19 C 3695.81,1593.52 3702.57,1600.28 3710.9,1600.28 L 3786.66,1600.28 C 3794.99,1600.28 3801.75,1593.52 3801.75,1585.19 L 3801.75,1401.64 C 3801.75,1393.31 3794.99,1386.55 3786.66,1386.55 L 3710.9,1386.55 C 3702.57,1386.55 3695.81,1393.31 3695.81,1401.64 Z" fill="#ffffff" stroke-linejoin="miter" stroke-width="0.801" stroke="none" marker-start="none" marker-end="none"/>
  <path d="M 3694.92,1400.91 L 3694.92,1585.92 C 3694.92,1594.32 3701.73,1601.13 3710.13,1601.13 L 3787.43,1601.13 C 3795.82,1601.13 3802.64,1594.32 3802.64,1585.92 L 3802.64,1400.91 C 3802.64,1399.86 3802.53,1398.83 3802.33,1397.84 C 3801.11,1391.9 3796.43,1387.22 3790.49,1386 C 3789.5,1385.8 3788.48,1385.69 3787.43,1385.69 L 3710.13,1385.69 C 3701.73,1385.69 3694.92,1392.51 3694.92,1400.91 Z M 3801.75,1401.64 L 3801.75,1585.19 C 3801.75,1593.52 3794.99,1600.28 3786.66,1600.28 L 3710.9,1600.28 C 3702.57,1600.28 3695.81,1593.52 3695.81,1585.19 L 3695.81,1401.64 C 3695.81,1393.31 3702.57,1386.55 3710.9,1386.55 L 3786.66,1386.55 C 3794.99,1386.55 3801.75,1393.31 3801.75,1401.64 Z" stroke-linejoin="miter" stroke-width="0.802" stroke="none" fill="#4c4c4c" marker-start="none" marker-end="none"/>
  <g id="Group" stroke-linejoin="miter" stroke-linecap="round" stroke="none" stroke-width="0.034">
   <path d="M 3769.92,1491.79 L 3769.92,1481.61 L 3769.93,1481.61 C 3769.93,1479.08 3768.91,1476.56 3766.9,1474.72 C 3765.11,1473.09 3762.85,1472.28 3760.61,1472.28 L 3760.61,1472.29 L 3750.43,1472.29 L 3750.43,1469.49 L 3760.61,1469.49 L 3760.61,1469.49 C 3763.53,1469.49 3766.46,1470.53 3768.78,1472.65 C 3771.4,1475.04 3772.73,1478.33 3772.73,1481.61 L 3772.73,1481.61 L 3772.73,1491.79 L 3769.92,1491.79 Z" fill="#11a7e0" marker-start="none" marker-end="none"/>
   <path d="M 3777.38,1491.75 L 3777.38,1481.57 L 3777.4,1481.57 C 3777.4,1477.02 3775.56,1472.48 3771.92,1469.17 C 3768.71,1466.23 3764.65,1464.79 3760.61,1464.79 L 3760.61,1464.81 L 3750.43,1464.81 L 3750.43,1461.99 L 3760.61,1461.99 C 3765.33,1461.99 3770.06,1463.68 3773.81,1467.11 C 3778.05,1470.97 3780.19,1476.27 3780.19,1481.57 L 3780.2,1481.57 L 3780.2,1491.75 L 3777.38,1491.75 Z" fill="#ffcd36" marker-start="none" marker-end="none"/>
   <path d="M 3781.11,1491.75 L 3781.11,1481.57 L 3781.13,1481.57 C 3781.13,1476 3778.87,1470.46 3774.44,1466.42 C 3770.51,1462.82 3765.55,1461.06 3760.61,1461.06 L 3760.61,1461.07 L 3750.43,1461.07 L 3750.43,1458.26 L 3760.61,1458.26 C 3766.22,1458.26 3771.86,1460.27 3776.33,1464.35 C 3781.37,1468.95 3783.92,1475.25 3783.93,1481.57 L 3783.93,1491.75 L 3781.11,1491.75 Z" fill="#ff3718" marker-start="none" marker-end="none"/>
   <path d="M 3773.65,1491.77 L 3773.65,1481.6 L 3773.67,1481.6 C 3773.66,1478.06 3772.23,1474.53 3769.41,1471.95 C 3766.91,1469.67 3763.75,1468.54 3760.61,1468.54 L 3750.43,1468.54 L 3750.43,1465.73 L 3760.61,1465.73 L 3760.61,1465.74 C 3764.42,1465.74 3768.26,1467.11 3771.3,1469.89 C 3774.72,1473.01 3776.46,1477.3 3776.46,1481.6 L 3776.46,1491.77 L 3773.65,1491.77 Z" fill="#00d702" marker-start="none" marker-end="none"/>
   <path d="M 3769.92,1495.09 L 3769.92,1505.26 L 3769.93,1505.26 C 3769.93,1507.78 3768.91,1510.31 3766.9,1512.14 C 3765.11,1513.78 3762.85,1514.58 3760.6,1514.58 L 3760.6,1514.58 L 3750.43,1514.58 L 3750.43,1517.38 L 3760.6,1517.38 L 3760.6,1517.38 C 3763.53,1517.38 3766.46,1516.34 3768.78,1514.22 C 3771.4,1511.82 3772.73,1508.54 3772.73,1505.26 L 3772.73,1505.26 L 3772.73,1495.09 L 3769.92,1495.09 Z" fill="#11a7e0" marker-start="none" marker-end="none"/>
   <path d="M 3777.38,1495.09 L 3777.38,1505.26 L 3777.4,1505.26 C 3777.4,1509.81 3775.55,1514.35 3771.93,1517.66 C 3768.7,1520.59 3764.65,1522.05 3760.6,1522.05 L 3760.6,1522.03 L 3750.43,1522.03 L 3750.43,1524.84 L 3760.6,1524.84 C 3765.33,1524.84 3770.06,1523.15 3773.81,1519.72 C 3778.04,1515.86 3780.19,1510.57 3780.19,1505.26 L 3780.2,1505.26 L 3780.2,1495.09 L 3777.38,1495.09 Z" fill="#ffcd36" marker-start="none" marker-end="none"/>
   <path d="M 3781.11,1495.09 L 3781.11,1505.26 L 3781.13,1505.26 C 3781.13,1510.82 3778.87,1516.37 3774.44,1520.41 C 3770.51,1524.01 3765.55,1525.77 3760.6,1525.77 L 3760.6,1525.75 L 3750.43,1525.75 L 3750.43,1528.57 L 3760.6,1528.57 C 3766.22,1528.57 3771.86,1526.56 3776.33,1522.48 C 3781.37,1517.88 3783.92,1511.58 3783.93,1505.26 L 3783.93,1495.09 L 3781.11,1495.09 Z" fill="#ff3718" marker-start="none" marker-end="none"/>
   <path d="M 3773.65,1495.09 L 3773.65,1505.26 L 3773.67,1505.26 C 3773.66,1508.79 3772.23,1512.33 3769.41,1514.9 C 3766.91,1517.19 3763.75,1518.32 3760.6,1518.31 L 3750.43,1518.31 L 3750.43,1521.13 L 3760.6,1521.13 L 3760.6,1521.11 C 3764.43,1521.11 3768.26,1519.74 3771.3,1516.97 C 3774.72,1513.84 3776.46,1509.55 3776.46,1505.26 L 3776.46,1495.09 L 3773.65,1495.09 Z" fill="#00d702" marker-start="none" marker-end="none"/>
   <path d="M 3747.12,1514.5 L 3736.94,1514.5 L 3736.94,1514.52 C 3734.42,1514.52 3731.9,1513.5 3730.06,1511.48 C 3728.43,1509.69 3727.62,1507.44 3727.62,1505.19 L 3727.63,1505.19 L 3727.63,1495.02 L 3724.82,1495.02 L 3724.82,1505.19 L 3724.82,1505.19 C 3724.82,1508.11 3725.87,1511.04 3727.98,1513.37 C 3730.38,1515.99 3733.66,1517.32 3736.94,1517.32 L 3736.94,1517.32 L 3747.12,1517.32 L 3747.12,1514.5 Z" fill="#11a7e0" marker-start="none" marker-end="none"/>
   <path d="M 3747.12,1521.96 L 3736.94,1521.96 L 3736.94,1521.98 C 3732.39,1521.98 3727.85,1520.14 3724.55,1516.51 C 3721.61,1513.29 3720.16,1509.23 3720.16,1505.19 L 3720.18,1505.19 L 3720.18,1495.02 L 3717.36,1495.02 L 3717.36,1505.19 C 3717.36,1509.91 3719.05,1514.64 3722.48,1518.4 C 3726.34,1522.63 3731.64,1524.78 3736.94,1524.78 L 3736.94,1524.78 L 3747.12,1524.78 L 3747.12,1521.96 Z" fill="#ffcd36" marker-start="none" marker-end="none"/>
   <path d="M 3747.12,1525.69 L 3736.94,1525.69 L 3736.94,1525.71 C 3731.38,1525.71 3725.84,1523.46 3721.79,1519.02 C 3718.2,1515.09 3716.43,1510.14 3716.43,1505.19 L 3716.45,1505.19 L 3716.45,1495.02 L 3713.63,1495.02 L 3713.63,1505.19 C 3713.63,1510.81 3715.64,1516.44 3719.72,1520.91 C 3724.32,1525.95 3730.62,1528.5 3736.94,1528.51 L 3747.12,1528.51 L 3747.12,1525.69 Z" fill="#ff3718" marker-start="none" marker-end="none"/>
   <path d="M 3747.12,1518.23 L 3736.94,1518.23 L 3736.94,1518.25 C 3733.41,1518.25 3729.88,1516.82 3727.3,1514 C 3725.01,1511.49 3723.89,1508.34 3723.89,1505.19 L 3723.89,1495.02 L 3721.07,1495.02 L 3721.07,1505.19 L 3721.09,1505.19 C 3721.09,1509.01 3722.46,1512.84 3725.23,1515.88 C 3728.36,1519.31 3732.65,1521.05 3736.94,1521.05 L 3747.12,1521.05 L 3747.12,1518.23 Z" fill="#00d702" marker-start="none" marker-end="none"/>
   <path d="M 3747.12,1472.3 L 3736.94,1472.3 L 3736.94,1472.29 C 3734.42,1472.29 3731.9,1473.31 3730.06,1475.33 C 3728.43,1477.12 3727.62,1479.37 3727.62,1481.61 L 3727.63,1481.61 L 3727.63,1491.79 L 3724.82,1491.79 L 3724.82,1481.61 L 3724.82,1481.61 C 3724.82,1478.69 3725.87,1475.76 3727.98,1473.43 C 3730.38,1470.82 3733.66,1469.49 3736.94,1469.49 L 3736.94,1469.49 L 3747.12,1469.49 L 3747.12,1472.3 Z" fill="#11a7e0" marker-start="none" marker-end="none"/>
   <path d="M 3747.12,1464.84 L 3736.94,1464.84 L 3736.94,1464.82 C 3732.39,1464.82 3727.85,1466.67 3724.55,1470.29 C 3721.61,1473.51 3720.16,1477.57 3720.16,1481.61 L 3720.18,1481.61 L 3720.18,1491.79 L 3717.36,1491.79 L 3717.36,1481.61 C 3717.36,1476.89 3719.05,1472.16 3722.48,1468.41 C 3726.34,1464.18 3731.64,1462.03 3736.94,1462.03 L 3736.94,1462.02 L 3747.12,1462.02 L 3747.12,1464.84 Z" fill="#ffcd36" marker-start="none" marker-end="none"/>
   <path d="M 3747.12,1461.11 L 3736.94,1461.11 L 3736.94,1461.1 C 3731.38,1461.1 3725.84,1463.35 3721.79,1467.78 C 3718.2,1471.71 3716.43,1476.67 3716.43,1481.61 L 3716.45,1481.61 L 3716.45,1491.79 L 3713.63,1491.79 L 3713.63,1481.61 C 3713.63,1476 3715.64,1470.36 3719.72,1465.89 C 3724.32,1460.85 3730.62,1458.3 3736.94,1458.3 L 3747.12,1458.3 L 3747.12,1461.11 Z" fill="#ff3718" marker-start="none" marker-end="none"/>
   <path d="M 3747.12,1468.57 L 3736.94,1468.57 L 3736.94,1468.55 C 3733.41,1468.56 3729.88,1469.99 3727.3,1472.81 C 3725.01,1475.31 3723.89,1478.47 3723.89,1481.61 L 3723.89,1491.79 L 3721.07,1491.79 L 3721.07,1481.61 L 3721.09,1481.61 C 3721.09,1477.8 3722.46,1473.97 3725.23,1470.92 C 3728.36,1467.5 3732.65,1465.76 3736.94,1465.76 L 3747.12,1465.76 L 3747.12,1468.57 Z" fill="#00d702" marker-start="none" marker-end="none"/>
  </g>
  <g id="Group_1" fill="#000000" fill-rule="nonzero" stroke-linejoin="round" stroke-linecap="round" stroke="none" stroke-width="0.669">
   <g id="Group_2">
    <path d="M 3741.23,1483.66 L 3741.23,1503.17 L 3748.4,1503.17 C 3749.75,1503.17 3750.9,1503.04 3751.85,1502.79 C 3752.79,1502.54 3753.56,1502.19 3754.16,1501.73 C 3754.76,1501.28 3755.19,1500.73 3755.47,1500.07 C 3755.74,1499.42 3755.87,1498.69 3755.87,1497.89 C 3755.87,1497.45 3755.81,1497.03 3755.69,1496.63 C 3755.56,1496.22 3755.37,1495.84 3755.1,1495.48 C 3754.83,1495.13 3754.49,1494.8 3754.07,1494.51 C 3753.65,1494.22 3753.14,1493.97 3752.55,1493.76 C 3753.84,1493.44 3754.79,1492.94 3755.41,1492.24 C 3756.02,1491.54 3756.33,1490.64 3756.33,1489.54 C 3756.33,1488.71 3756.17,1487.94 3755.85,1487.22 C 3755.53,1486.51 3755.06,1485.89 3754.43,1485.35 C 3753.82,1484.82 3753.05,1484.41 3752.14,1484.11 C 3751.23,1483.81 3750.19,1483.66 3749.02,1483.66 L 3741.23,1483.66 Z M 3745.75,1491.94 L 3745.75,1487.07 L 3748.94,1487.07 C 3749.54,1487.07 3750.03,1487.15 3750.41,1487.3 C 3750.78,1487.45 3751.08,1487.65 3751.3,1487.89 C 3751.51,1488.13 3751.66,1488.4 3751.74,1488.71 C 3751.82,1489.01 3751.86,1489.32 3751.86,1489.63 C 3751.86,1489.99 3751.81,1490.31 3751.72,1490.6 C 3751.62,1490.88 3751.46,1491.12 3751.24,1491.32 C 3751.01,1491.52 3750.71,1491.67 3750.33,1491.78 C 3749.96,1491.88 3749.48,1491.94 3748.91,1491.94 L 3745.75,1491.94 Z M 3745.75,1494.96 L 3748.11,1494.96 C 3748.61,1494.96 3749.06,1495 3749.46,1495.07 C 3749.86,1495.14 3750.2,1495.27 3750.49,1495.44 C 3750.77,1495.62 3750.98,1495.87 3751.13,1496.18 C 3751.28,1496.49 3751.35,1496.89 3751.35,1497.36 C 3751.35,1497.82 3751.29,1498.21 3751.18,1498.52 C 3751.06,1498.82 3750.88,1499.07 3750.64,1499.26 C 3750.4,1499.44 3750.09,1499.58 3749.72,1499.66 C 3749.35,1499.74 3748.91,1499.78 3748.4,1499.78 L 3745.75,1499.78 L 3745.75,1494.96 Z" marker-start="none" marker-end="none"/>
   </g>
  </g>
 </g>
</svg>
