<?xml version="1.0" standalone="no"?>
<!DOCTYPE svg PUBLIC "-//W3C//DTD SVG 1.1//EN" "http://www.w3.org/Graphics/SVG/1.1/DTD/svg11.dtd">
<!--Generator: Xara Designer (www.xara.com), SVG filter version: 6.6.0.0-->
<svg fill="none" fill-rule="evenodd" stroke="black" stroke-width="0.501" stroke-linejoin="bevel" stroke-miterlimit="10" font-family="Times New Roman" font-size="16" style="font-variant-ligatures:none" xmlns:xlink="http://www.w3.org/1999/xlink" xmlns="http://www.w3.org/2000/svg" version="1.1" overflow="visible" width="107.72pt" height="215.438pt" viewBox="3856.43 -1855.09 107.72 215.438">
 <defs>
	</defs>
 <g id="Grid 36x36mm" transform="scale(1 -1)"/>
 <g id="Layer 2 - grids" transform="scale(1 -1)"/>
 <g id="Layer 1" transform="scale(1 -1)">
  <path d="M 3857.32,1655.6 L 3857.32,1839.15 C 3857.32,1847.48 3864.08,1854.24 3872.41,1854.24 L 3948.16,1854.24 C 3956.49,1854.24 3963.26,1847.48 3963.26,1839.15 L 3963.26,1655.6 C 3963.26,1647.27 3956.49,1640.51 3948.16,1640.51 L 3872.41,1640.51 C 3864.08,1640.51 3857.32,1647.27 3857.32,1655.6 Z" fill="#00bf02" stroke-linejoin="miter" stroke-width="0.801" stroke="none" marker-start="none" marker-end="none"/>
  <path d="M 3856.43,1654.87 L 3856.43,1839.88 C 3856.43,1848.28 3863.24,1855.09 3871.64,1855.09 L 3948.93,1855.09 C 3957.33,1855.09 3964.15,1848.28 3964.15,1839.88 L 3964.15,1654.87 C 3964.15,1653.82 3964.04,1652.79 3963.84,1651.8 C 3962.62,1645.86 3957.94,1641.18 3952,1639.96 C 3951.01,1639.76 3949.98,1639.66 3948.93,1639.66 L 3871.64,1639.66 C 3863.24,1639.66 3856.43,1646.47 3856.43,1654.87 Z M 3963.26,1655.6 L 3963.26,1839.15 C 3963.26,1847.48 3956.49,1854.24 3948.16,1854.24 L 3872.41,1854.24 C 3864.08,1854.24 3857.32,1847.48 3857.32,1839.15 L 3857.32,1655.6 C 3857.32,1647.27 3864.08,1640.51 3872.41,1640.51 L 3948.16,1640.51 C 3956.49,1640.51 3963.26,1647.27 3963.26,1655.6 Z" stroke-linejoin="miter" stroke-width="0.802" stroke="none" fill="#4c4c4c" marker-start="none" marker-end="none"/>
  <g id="Group" fill="#ffffff" fill-rule="nonzero" stroke-linejoin="round" stroke-linecap="round" stroke="none" stroke-width="0.669">
   <path d="M 3920.15,1737.62 L 3916.65,1737.62 C 3916.25,1737.62 3915.93,1737.71 3915.68,1737.89 C 3915.42,1738.08 3915.24,1738.31 3915.15,1738.6 L 3913.99,1742 L 3906.58,1742 L 3905.43,1738.6 C 3905.34,1738.35 3905.16,1738.12 3904.91,1737.92 C 3904.65,1737.72 3904.33,1737.62 3903.95,1737.62 L 3900.42,1737.62 L 3907.97,1757.13 L 3912.6,1757.13 L 3920.15,1737.62 Z M 3907.62,1745.08 L 3912.95,1745.08 L 3911.16,1750.34 C 3911.04,1750.67 3910.9,1751.07 3910.75,1751.52 C 3910.59,1751.97 3910.44,1752.46 3910.29,1752.99 C 3910.14,1752.45 3910,1751.95 3909.84,1751.5 C 3909.69,1751.04 3909.55,1750.65 3909.42,1750.31 L 3907.62,1745.08 Z" marker-start="none" marker-end="none"/>
  </g>
  <g id="Group_1" stroke-linejoin="miter" stroke-linecap="round" stroke="none" stroke-width="0.034">
   <path d="M 3931.42,1745.75 L 3931.42,1735.57 L 3931.44,1735.57 C 3931.44,1733.05 3930.42,1730.52 3928.4,1728.68 C 3926.62,1727.05 3924.36,1726.25 3922.12,1726.25 L 3922.12,1726.25 L 3911.94,1726.25 L 3911.94,1723.45 L 3922.12,1723.45 L 3922.12,1723.45 C 3925.04,1723.45 3927.97,1724.49 3930.29,1726.61 C 3932.91,1729.01 3934.24,1732.29 3934.24,1735.57 L 3934.24,1735.57 L 3934.24,1745.75 L 3931.42,1745.75 Z" fill="#11a7e0" marker-start="none" marker-end="none"/>
   <path d="M 3938.89,1745.71 L 3938.89,1735.53 L 3938.91,1735.53 C 3938.91,1730.98 3937.06,1726.44 3933.43,1723.14 C 3930.22,1720.19 3926.16,1718.75 3922.12,1718.75 L 3922.12,1718.77 L 3911.94,1718.77 L 3911.94,1715.95 L 3922.12,1715.95 C 3926.83,1715.95 3931.56,1717.64 3935.32,1721.07 C 3939.55,1724.93 3941.7,1730.23 3941.7,1735.53 L 3941.7,1735.53 L 3941.7,1745.71 L 3938.89,1745.71 Z" fill="#ffcd36" marker-start="none" marker-end="none"/>
   <path d="M 3942.62,1745.71 L 3942.62,1735.53 L 3942.63,1735.53 C 3942.63,1729.96 3940.38,1724.42 3935.95,1720.38 C 3932.01,1716.78 3927.06,1715.02 3922.12,1715.02 L 3922.12,1715.04 L 3911.94,1715.04 L 3911.94,1712.22 L 3922.12,1712.22 C 3927.73,1712.22 3933.37,1714.23 3937.84,1718.31 C 3942.88,1722.91 3945.43,1729.21 3945.43,1735.53 L 3945.43,1745.71 L 3942.62,1745.71 Z" fill="#ff3718" marker-start="none" marker-end="none"/>
   <path d="M 3935.16,1745.74 L 3935.16,1735.56 L 3935.18,1735.56 C 3935.17,1732.03 3933.74,1728.49 3930.92,1725.92 C 3928.41,1723.63 3925.26,1722.51 3922.12,1722.51 L 3911.94,1722.51 L 3911.94,1719.69 L 3922.12,1719.69 L 3922.12,1719.7 C 3925.93,1719.7 3929.76,1721.07 3932.81,1723.85 C 3936.23,1726.97 3937.97,1731.27 3937.97,1735.56 L 3937.97,1745.74 L 3935.16,1745.74 Z" fill="#00d702" marker-start="none" marker-end="none"/>
   <path d="M 3931.43,1749.05 L 3931.43,1759.22 L 3931.44,1759.22 C 3931.44,1761.75 3930.42,1764.27 3928.41,1766.11 C 3926.61,1767.74 3924.36,1768.54 3922.11,1768.54 L 3922.11,1768.54 L 3911.94,1768.54 L 3911.94,1771.34 L 3922.11,1771.34 L 3922.11,1771.34 C 3925.04,1771.34 3927.97,1770.3 3930.29,1768.18 C 3932.91,1765.79 3934.24,1762.5 3934.24,1759.22 L 3934.24,1759.22 L 3934.24,1749.05 L 3931.43,1749.05 Z" fill="#11a7e0" marker-start="none" marker-end="none"/>
   <path d="M 3938.89,1749.05 L 3938.89,1759.22 L 3938.91,1759.22 C 3938.9,1763.77 3937.06,1768.31 3933.43,1771.62 C 3930.21,1774.56 3926.16,1776.01 3922.11,1776.01 L 3922.11,1775.99 L 3911.94,1775.99 L 3911.94,1778.8 L 3922.11,1778.8 C 3926.83,1778.8 3931.56,1777.11 3935.32,1773.68 C 3939.55,1769.82 3941.7,1764.53 3941.7,1759.22 L 3941.7,1759.22 L 3941.7,1749.05 L 3938.89,1749.05 Z" fill="#ffcd36" marker-start="none" marker-end="none"/>
   <path d="M 3942.62,1749.05 L 3942.62,1759.22 L 3942.63,1759.22 C 3942.63,1764.78 3940.38,1770.33 3935.95,1774.38 C 3932.01,1777.97 3927.06,1779.73 3922.11,1779.73 L 3922.11,1779.72 L 3911.94,1779.72 L 3911.94,1782.53 L 3922.11,1782.53 C 3927.73,1782.53 3933.37,1780.52 3937.84,1776.44 C 3942.87,1771.84 3945.43,1765.54 3945.43,1759.22 L 3945.43,1749.05 L 3942.62,1749.05 Z" fill="#ff3718" marker-start="none" marker-end="none"/>
   <path d="M 3935.16,1749.05 L 3935.16,1759.22 L 3935.17,1759.22 C 3935.17,1762.75 3933.74,1766.29 3930.92,1768.86 C 3928.42,1771.15 3925.26,1772.28 3922.11,1772.28 L 3911.94,1772.28 L 3911.94,1775.09 L 3922.11,1775.09 L 3922.11,1775.07 C 3925.93,1775.07 3929.76,1773.7 3932.81,1770.93 C 3936.23,1767.8 3937.97,1763.52 3937.97,1759.22 L 3937.97,1749.05 L 3935.16,1749.05 Z" fill="#00d702" marker-start="none" marker-end="none"/>
   <path d="M 3908.62,1768.46 L 3898.45,1768.46 L 3898.45,1768.48 C 3895.93,1768.48 3893.4,1767.46 3891.57,1765.44 C 3889.93,1763.65 3889.13,1761.4 3889.13,1759.15 L 3889.13,1759.15 L 3889.13,1748.98 L 3886.33,1748.98 L 3886.33,1759.15 L 3886.33,1759.15 C 3886.33,1762.07 3887.38,1765 3889.49,1767.33 C 3891.89,1769.95 3895.17,1771.28 3898.45,1771.28 L 3898.45,1771.28 L 3908.62,1771.28 L 3908.62,1768.46 Z" fill="#11a7e0" marker-start="none" marker-end="none"/>
   <path d="M 3908.62,1775.93 L 3898.45,1775.93 L 3898.45,1775.94 C 3893.9,1775.94 3889.36,1774.1 3886.06,1770.47 C 3883.11,1767.25 3881.66,1763.19 3881.66,1759.15 L 3881.69,1759.15 L 3881.69,1748.98 L 3878.87,1748.98 L 3878.87,1759.15 C 3878.87,1763.87 3880.56,1768.6 3883.98,1772.36 C 3887.85,1776.59 3893.14,1778.74 3898.45,1778.74 L 3898.45,1778.74 L 3908.62,1778.74 L 3908.62,1775.93 Z" fill="#ffcd36" marker-start="none" marker-end="none"/>
   <path d="M 3908.62,1779.65 L 3898.45,1779.65 L 3898.45,1779.67 C 3892.89,1779.67 3887.34,1777.42 3883.3,1772.98 C 3879.7,1769.05 3877.94,1764.1 3877.94,1759.15 L 3877.96,1759.15 L 3877.96,1748.98 L 3875.14,1748.98 L 3875.14,1759.15 C 3875.14,1764.77 3877.15,1770.4 3881.23,1774.87 C 3885.83,1779.91 3892.13,1782.46 3898.45,1782.47 L 3908.62,1782.47 L 3908.62,1779.65 Z" fill="#ff3718" marker-start="none" marker-end="none"/>
   <path d="M 3908.62,1772.19 L 3898.45,1772.19 L 3898.45,1772.21 C 3894.92,1772.21 3891.38,1770.78 3888.81,1767.96 C 3886.52,1765.45 3885.39,1762.3 3885.4,1759.15 L 3885.4,1748.98 L 3882.58,1748.98 L 3882.58,1759.15 L 3882.6,1759.15 C 3882.6,1762.97 3883.97,1766.8 3886.74,1769.84 C 3889.87,1773.27 3894.16,1775.01 3898.45,1775.01 L 3908.62,1775.01 L 3908.62,1772.19 Z" fill="#00d702" marker-start="none" marker-end="none"/>
   <path d="M 3908.62,1726.26 L 3898.45,1726.26 L 3898.45,1726.25 C 3895.93,1726.25 3893.4,1727.27 3891.57,1729.29 C 3889.93,1731.08 3889.13,1733.33 3889.13,1735.57 L 3889.13,1735.57 L 3889.13,1745.75 L 3886.33,1745.75 L 3886.33,1735.57 L 3886.33,1735.57 C 3886.33,1732.66 3887.38,1729.72 3889.49,1727.39 C 3891.89,1724.78 3895.17,1723.45 3898.45,1723.45 L 3898.45,1723.45 L 3908.62,1723.45 L 3908.62,1726.26 Z" fill="#11a7e0" marker-start="none" marker-end="none"/>
   <path d="M 3908.62,1718.8 L 3898.45,1718.8 L 3898.45,1718.78 C 3893.9,1718.79 3889.36,1720.63 3886.06,1724.26 C 3883.11,1727.47 3881.66,1731.53 3881.66,1735.57 L 3881.69,1735.57 L 3881.69,1745.75 L 3878.87,1745.75 L 3878.87,1735.57 C 3878.87,1730.85 3880.56,1726.13 3883.98,1722.37 C 3887.85,1718.14 3893.14,1715.99 3898.45,1715.99 L 3898.45,1715.99 L 3908.62,1715.99 L 3908.62,1718.8 Z" fill="#ffcd36" marker-start="none" marker-end="none"/>
   <path d="M 3908.62,1715.07 L 3898.45,1715.07 L 3898.45,1715.06 C 3892.89,1715.06 3887.34,1717.31 3883.3,1721.74 C 3879.7,1725.68 3877.94,1730.63 3877.94,1735.57 L 3877.96,1735.57 L 3877.96,1745.75 L 3875.14,1745.75 L 3875.14,1735.57 C 3875.14,1729.96 3877.15,1724.32 3881.23,1719.85 C 3885.83,1714.82 3892.13,1712.26 3898.45,1712.26 L 3908.62,1712.26 L 3908.62,1715.07 Z" fill="#ff3718" marker-start="none" marker-end="none"/>
   <path d="M 3908.62,1722.53 L 3898.45,1722.53 L 3898.45,1722.52 C 3894.92,1722.52 3891.38,1723.95 3888.81,1726.77 C 3886.52,1729.28 3885.39,1732.43 3885.4,1735.57 L 3885.4,1745.75 L 3882.58,1745.75 L 3882.58,1735.57 L 3882.6,1735.57 C 3882.6,1731.76 3883.97,1727.93 3886.74,1724.88 C 3889.87,1721.46 3894.16,1719.72 3898.45,1719.72 L 3908.62,1719.72 L 3908.62,1722.53 Z" fill="#00d702" marker-start="none" marker-end="none"/>
  </g>
 </g>
</svg>
