<?xml version="1.0" standalone="no"?>
<!DOCTYPE svg PUBLIC "-//W3C//DTD SVG 1.1//EN" "http://www.w3.org/Graphics/SVG/1.1/DTD/svg11.dtd">
<!--Generator: Xara Designer (www.xara.com), SVG filter version: 6.6.0.0-->
<svg fill="none" fill-rule="evenodd" stroke="black" stroke-width="0.501" stroke-linejoin="bevel" stroke-miterlimit="10" font-family="Times New Roman" font-size="16" style="font-variant-ligatures:none" xmlns:xlink="http://www.w3.org/1999/xlink" xmlns="http://www.w3.org/2000/svg" version="1.1" overflow="visible" width="107.72pt" height="215.438pt" viewBox="3996.68 -1854.24 107.72 215.438">
 <defs>
	</defs>
 <g id="Grid 36x36mm" transform="scale(1 -1)"/>
 <g id="Layer 2 - grids" transform="scale(1 -1)"/>
 <g id="Layer 1" transform="scale(1 -1)">
  <path d="M 3996.68,1654.02 L 3996.68,1839.03 C 3996.68,1847.43 4003.49,1854.24 4011.89,1854.24 L 4089.18,1854.24 C 4097.58,1854.24 4104.4,1847.43 4104.4,1839.03 L 4104.4,1654.02 C 4104.4,1652.97 4104.29,1651.94 4104.09,1650.95 C 4102.87,1645.01 4098.19,1640.33 4092.25,1639.11 C 4091.26,1638.91 4090.23,1638.8 4089.18,1638.8 L 4011.89,1638.8 C 4003.49,1638.8 3996.68,1645.62 3996.68,1654.02 Z M 4103.51,1654.75 L 4103.51,1838.3 C 4103.51,1846.63 4096.74,1853.39 4088.41,1853.39 L 4012.66,1853.39 C 4004.33,1853.39 3997.57,1846.63 3997.57,1838.3 L 3997.57,1654.75 C 3997.57,1646.42 4004.33,1639.66 4012.66,1639.66 L 4088.41,1639.66 C 4096.74,1639.66 4103.51,1646.42 4103.51,1654.75 Z" stroke-linejoin="miter" stroke-width="0.802" stroke="none" fill="#4c4c4c" marker-start="none" marker-end="none"/>
  <g id="Group" fill="#000000" fill-rule="nonzero" stroke-linejoin="round" stroke-linecap="round" stroke="none" stroke-width="0.669">
   <path d="M 4060.4,1736.77 L 4056.9,1736.77 C 4056.5,1736.77 4056.18,1736.86 4055.93,1737.04 C 4055.67,1737.22 4055.49,1737.46 4055.4,1737.75 L 4054.24,1741.15 L 4046.83,1741.15 L 4045.68,1737.75 C 4045.59,1737.5 4045.41,1737.27 4045.16,1737.07 C 4044.9,1736.87 4044.58,1736.77 4044.2,1736.77 L 4040.67,1736.77 L 4048.22,1756.28 L 4052.85,1756.28 L 4060.4,1736.77 Z M 4047.87,1744.23 L 4053.2,1744.23 L 4051.41,1749.49 C 4051.29,1749.82 4051.15,1750.21 4051,1750.67 C 4050.84,1751.12 4050.69,1751.61 4050.54,1752.14 C 4050.39,1751.6 4050.25,1751.1 4050.09,1750.65 C 4049.94,1750.19 4049.8,1749.79 4049.67,1749.46 L 4047.87,1744.23 Z" marker-start="none" marker-end="none"/>
  </g>
  <g id="Group_1" stroke-linejoin="miter" stroke-linecap="round" stroke="none" stroke-width="0.034">
   <path d="M 4071.67,1744.89 L 4071.67,1734.72 L 4071.69,1734.72 C 4071.69,1732.19 4070.67,1729.67 4068.65,1727.83 C 4066.87,1726.2 4064.61,1725.39 4062.37,1725.39 L 4062.37,1725.4 L 4052.19,1725.4 L 4052.19,1722.6 L 4062.37,1722.6 L 4062.37,1722.6 C 4065.29,1722.6 4068.22,1723.64 4070.54,1725.76 C 4073.16,1728.15 4074.49,1731.44 4074.49,1734.72 L 4074.49,1734.72 L 4074.49,1744.89 L 4071.67,1744.89 Z" fill="#11a7e0" marker-start="none" marker-end="none"/>
   <path d="M 4079.14,1744.86 L 4079.14,1734.68 L 4079.16,1734.68 C 4079.16,1730.13 4077.31,1725.59 4073.68,1722.28 C 4070.47,1719.34 4066.41,1717.89 4062.37,1717.89 L 4062.37,1717.92 L 4052.19,1717.92 L 4052.19,1715.1 L 4062.37,1715.1 C 4067.08,1715.1 4071.81,1716.79 4075.57,1720.21 C 4079.8,1724.08 4081.95,1729.37 4081.95,1734.68 L 4081.95,1734.68 L 4081.95,1744.86 L 4079.14,1744.86 Z" fill="#ffcd36" marker-start="none" marker-end="none"/>
   <path d="M 4082.87,1744.85 L 4082.87,1734.68 L 4082.88,1734.68 C 4082.88,1729.11 4080.63,1723.57 4076.2,1719.53 C 4072.26,1715.93 4067.31,1714.16 4062.37,1714.16 L 4062.37,1714.18 L 4052.19,1714.18 L 4052.19,1711.37 L 4062.37,1711.37 C 4067.98,1711.37 4073.62,1713.38 4078.09,1717.46 C 4083.13,1722.06 4085.68,1728.36 4085.68,1734.68 L 4085.68,1744.85 L 4082.87,1744.85 Z" fill="#ff3718" marker-start="none" marker-end="none"/>
   <path d="M 4075.41,1744.88 L 4075.41,1734.71 L 4075.43,1734.71 C 4075.42,1731.17 4073.99,1727.64 4071.17,1725.06 C 4068.66,1722.78 4065.51,1721.65 4062.37,1721.65 L 4052.19,1721.65 L 4052.19,1718.84 L 4062.37,1718.84 L 4062.37,1718.85 C 4066.18,1718.85 4070.01,1720.22 4073.06,1723 C 4076.48,1726.12 4078.22,1730.41 4078.22,1734.71 L 4078.22,1744.88 L 4075.41,1744.88 Z" fill="#00d702" marker-start="none" marker-end="none"/>
   <path d="M 4071.68,1748.19 L 4071.68,1758.37 L 4071.69,1758.37 C 4071.69,1760.89 4070.67,1763.42 4068.66,1765.25 C 4066.86,1766.89 4064.61,1767.69 4062.36,1767.69 L 4062.36,1767.69 L 4052.19,1767.69 L 4052.19,1770.49 L 4062.36,1770.49 L 4062.36,1770.49 C 4065.29,1770.49 4068.22,1769.44 4070.54,1767.33 C 4073.16,1764.93 4074.49,1761.65 4074.49,1758.37 L 4074.49,1758.37 L 4074.49,1748.19 L 4071.68,1748.19 Z" fill="#11a7e0" marker-start="none" marker-end="none"/>
   <path d="M 4079.14,1748.19 L 4079.14,1758.37 L 4079.16,1758.37 C 4079.15,1762.91 4077.31,1767.46 4073.68,1770.77 C 4070.46,1773.7 4066.41,1775.16 4062.36,1775.16 L 4062.36,1775.13 L 4052.19,1775.13 L 4052.19,1777.95 L 4062.36,1777.95 C 4067.08,1777.95 4071.81,1776.26 4075.57,1772.83 C 4079.8,1768.97 4081.95,1763.68 4081.95,1758.37 L 4081.95,1758.37 L 4081.95,1748.19 L 4079.14,1748.19 Z" fill="#ffcd36" marker-start="none" marker-end="none"/>
   <path d="M 4082.87,1748.19 L 4082.87,1758.37 L 4082.88,1758.37 C 4082.88,1763.93 4080.63,1769.48 4076.2,1773.52 C 4072.26,1777.12 4067.31,1778.88 4062.36,1778.88 L 4062.36,1778.86 L 4052.19,1778.86 L 4052.19,1781.68 L 4062.36,1781.68 C 4067.98,1781.68 4073.62,1779.67 4078.09,1775.59 C 4083.12,1770.99 4085.68,1764.69 4085.68,1758.37 L 4085.68,1748.19 L 4082.87,1748.19 Z" fill="#ff3718" marker-start="none" marker-end="none"/>
   <path d="M 4075.41,1748.19 L 4075.41,1758.37 L 4075.42,1758.37 C 4075.42,1761.9 4073.99,1765.44 4071.17,1768.01 C 4068.67,1770.3 4065.51,1771.43 4062.36,1771.42 L 4052.19,1771.42 L 4052.19,1774.24 L 4062.36,1774.24 L 4062.36,1774.22 C 4066.18,1774.22 4070.01,1772.85 4073.06,1770.08 C 4076.48,1766.95 4078.22,1762.66 4078.22,1758.37 L 4078.22,1748.19 L 4075.41,1748.19 Z" fill="#00d702" marker-start="none" marker-end="none"/>
   <path d="M 4048.87,1767.61 L 4038.7,1767.61 L 4038.7,1767.63 C 4036.18,1767.63 4033.65,1766.6 4031.82,1764.59 C 4030.18,1762.8 4029.38,1760.55 4029.38,1758.3 L 4029.38,1758.3 L 4029.38,1748.13 L 4026.58,1748.13 L 4026.58,1758.3 L 4026.58,1758.3 C 4026.58,1761.22 4027.63,1764.15 4029.74,1766.48 C 4032.14,1769.09 4035.42,1770.42 4038.7,1770.42 L 4038.7,1770.43 L 4048.87,1770.43 L 4048.87,1767.61 Z" fill="#11a7e0" marker-start="none" marker-end="none"/>
   <path d="M 4048.87,1775.07 L 4038.7,1775.07 L 4038.7,1775.09 C 4034.15,1775.09 4029.61,1773.25 4026.31,1769.62 C 4023.36,1766.4 4021.91,1762.34 4021.91,1758.3 L 4021.94,1758.3 L 4021.94,1748.13 L 4019.12,1748.13 L 4019.12,1758.3 C 4019.12,1763.02 4020.81,1767.75 4024.23,1771.51 C 4028.1,1775.74 4033.39,1777.89 4038.7,1777.89 L 4038.7,1777.89 L 4048.87,1777.89 L 4048.87,1775.07 Z" fill="#ffcd36" marker-start="none" marker-end="none"/>
   <path d="M 4048.87,1778.8 L 4038.7,1778.8 L 4038.7,1778.82 C 4033.14,1778.82 4027.59,1776.57 4023.55,1772.13 C 4019.95,1768.2 4018.19,1763.25 4018.19,1758.3 L 4018.21,1758.3 L 4018.21,1748.13 L 4015.39,1748.13 L 4015.39,1758.3 C 4015.39,1763.92 4017.4,1769.55 4021.48,1774.02 C 4026.08,1779.06 4032.38,1781.61 4038.7,1781.62 L 4048.87,1781.62 L 4048.87,1778.8 Z" fill="#ff3718" marker-start="none" marker-end="none"/>
   <path d="M 4048.87,1771.34 L 4038.7,1771.34 L 4038.7,1771.36 C 4035.17,1771.36 4031.63,1769.93 4029.06,1767.11 C 4026.77,1764.6 4025.64,1761.44 4025.65,1758.3 L 4025.65,1748.13 L 4022.83,1748.13 L 4022.83,1758.3 L 4022.85,1758.3 C 4022.85,1762.12 4024.22,1765.95 4026.99,1768.99 C 4030.12,1772.42 4034.41,1774.15 4038.7,1774.16 L 4048.87,1774.16 L 4048.87,1771.34 Z" fill="#00d702" marker-start="none" marker-end="none"/>
   <path d="M 4048.87,1725.41 L 4038.7,1725.41 L 4038.7,1725.4 C 4036.18,1725.4 4033.65,1726.42 4031.82,1728.43 C 4030.18,1730.22 4029.38,1732.48 4029.38,1734.72 L 4029.38,1734.72 L 4029.38,1744.89 L 4026.58,1744.89 L 4026.58,1734.72 L 4026.58,1734.72 C 4026.58,1731.8 4027.63,1728.87 4029.74,1726.54 C 4032.14,1723.93 4035.42,1722.6 4038.7,1722.6 L 4038.7,1722.6 L 4048.87,1722.6 L 4048.87,1725.41 Z" fill="#11a7e0" marker-start="none" marker-end="none"/>
   <path d="M 4048.87,1717.95 L 4038.7,1717.95 L 4038.7,1717.93 C 4034.15,1717.93 4029.61,1719.78 4026.31,1723.4 C 4023.36,1726.62 4021.91,1730.68 4021.91,1734.72 L 4021.94,1734.72 L 4021.94,1744.89 L 4019.12,1744.89 L 4019.12,1734.72 C 4019.12,1730 4020.81,1725.27 4024.23,1721.52 C 4028.1,1717.29 4033.39,1715.14 4038.7,1715.14 L 4038.7,1715.13 L 4048.87,1715.13 L 4048.87,1717.95 Z" fill="#ffcd36" marker-start="none" marker-end="none"/>
   <path d="M 4048.87,1714.22 L 4038.7,1714.22 L 4038.7,1714.2 C 4033.14,1714.2 4027.59,1716.45 4023.55,1720.89 C 4019.95,1724.82 4018.19,1729.78 4018.19,1734.72 L 4018.21,1734.72 L 4018.21,1744.89 L 4015.39,1744.89 L 4015.39,1734.72 C 4015.39,1729.1 4017.4,1723.47 4021.48,1719 C 4026.08,1713.96 4032.38,1711.41 4038.7,1711.41 L 4048.87,1711.41 L 4048.87,1714.22 Z" fill="#ff3718" marker-start="none" marker-end="none"/>
   <path d="M 4048.87,1721.68 L 4038.7,1721.68 L 4038.7,1721.66 C 4035.17,1721.67 4031.63,1723.1 4029.06,1725.92 C 4026.77,1728.42 4025.64,1731.58 4025.65,1734.72 L 4025.65,1744.89 L 4022.83,1744.89 L 4022.83,1734.72 L 4022.85,1734.72 C 4022.85,1730.91 4024.22,1727.08 4026.99,1724.03 C 4030.12,1720.61 4034.41,1718.87 4038.7,1718.87 L 4048.87,1718.87 L 4048.87,1721.68 Z" fill="#00d702" marker-start="none" marker-end="none"/>
  </g>
 </g>
</svg>
