<?xml version="1.0" standalone="no"?>
<!DOCTYPE svg PUBLIC "-//W3C//DTD SVG 1.1//EN" "http://www.w3.org/Graphics/SVG/1.1/DTD/svg11.dtd">
<!--Generator: Xara Designer (www.xara.com), SVG filter version: 6.6.0.0-->
<svg fill="none" fill-rule="evenodd" stroke="black" stroke-width="0.501" stroke-linejoin="bevel" stroke-miterlimit="10" font-family="Times New Roman" font-size="16" style="font-variant-ligatures:none" xmlns:xlink="http://www.w3.org/1999/xlink" xmlns="http://www.w3.org/2000/svg" version="1.1" overflow="visible" width="107.718pt" height="215.435pt" viewBox="247.756 -784.567 107.718 215.435">
 <defs>
	</defs>
 <g id="Page background" transform="scale(1 -1)"/>
 <g id="Layer 1" transform="scale(1 -1)">
  <g id="Group">
   <g id="Group_1" stroke-linejoin="miter" stroke="none">
    <path d="M 279.415,569.132 L 279.415,569.134 L 261.26,569.134 C 253.806,569.134 247.756,575.949 247.756,584.346 L 247.756,769.355 C 247.756,777.752 253.806,784.567 261.26,784.567 L 341.97,784.567 C 349.424,784.567 355.474,777.752 355.474,769.355 L 355.474,584.346 C 355.474,575.949 349.424,569.134 341.97,569.134 L 331.696,569.134 L 331.696,569.132 L 279.415,569.132 Z" fill="#7f7f7f" marker-start="none" marker-end="none"/>
    <path d="M 279.707,569.842 L 279.707,569.844 L 261.791,569.844 C 254.436,569.844 248.465,576.614 248.465,584.955 L 248.465,768.746 C 248.465,777.087 254.436,783.857 261.791,783.857 L 341.439,783.857 C 348.794,783.857 354.765,777.087 354.765,768.746 L 354.765,584.955 C 354.765,576.614 348.794,569.844 341.439,569.844 L 331.3,569.844 L 331.3,569.842 L 279.707,569.842 Z" fill="#ffffff" marker-start="none" marker-end="none"/>
   </g>
   <g id="Group_2" fill-rule="nonzero" stroke-linejoin="round" stroke-linecap="round" stroke="none" stroke-width="0.406" fill="#000000">
    <g id="Group_3">
     <path d="M 263.739,774.962 L 263.734,773.388 L 261.328,773.396 L 261.306,766.417 L 259.323,766.423 L 259.344,773.402 L 256.938,773.409 L 256.943,774.983 L 263.739,774.962 Z" marker-start="none" marker-end="none"/>
     <path d="M 270.068,774.942 L 270.063,773.415 L 266.553,773.426 L 266.547,771.428 L 269.235,771.42 L 269.231,769.953 L 266.543,769.961 L 266.536,767.926 L 270.046,767.915 L 270.041,766.388 L 264.536,766.405 L 264.563,774.959 L 270.068,774.942 Z" marker-start="none" marker-end="none"/>
     <path d="M 279.125,766.36 L 277.588,766.365 C 277.416,766.365 277.274,766.406 277.163,766.486 C 277.051,766.567 276.974,766.67 276.932,766.795 L 276.432,768.288 L 273.18,768.298 L 272.671,766.808 C 272.632,766.699 272.555,766.6 272.441,766.513 C 272.327,766.425 272.188,766.381 272.024,766.382 L 270.475,766.387 L 273.811,774.929 L 275.842,774.923 L 279.125,766.36 Z M 273.642,769.647 L 275.978,769.64 L 275.199,771.948 C 275.148,772.094 275.089,772.267 275.021,772.466 C 274.953,772.664 274.887,772.879 274.821,773.11 C 274.757,772.876 274.692,772.658 274.625,772.458 C 274.558,772.258 274.495,772.085 274.436,771.938 L 273.642,769.647 Z" marker-start="none" marker-end="none"/>
     <path d="M 284.201,770.227 C 284.278,770.078 284.353,769.922 284.425,769.76 C 284.497,769.598 284.566,769.433 284.632,769.263 C 284.699,769.436 284.77,769.604 284.845,769.767 C 284.92,769.931 284.996,770.089 285.075,770.242 L 287.283,774.585 C 287.323,774.659 287.363,774.717 287.404,774.759 C 287.445,774.8 287.491,774.83 287.542,774.85 C 287.593,774.869 287.651,774.879 287.716,774.879 C 287.78,774.879 287.855,774.878 287.942,774.878 L 289.456,774.873 L 289.43,766.328 L 287.681,766.333 L 287.695,771.187 C 287.696,771.423 287.709,771.678 287.733,771.952 L 285.454,767.631 C 285.384,767.496 285.288,767.395 285.169,767.325 C 285.049,767.257 284.913,767.222 284.761,767.223 L 284.491,767.224 C 284.338,767.224 284.202,767.259 284.083,767.329 C 283.964,767.399 283.869,767.501 283.799,767.636 L 281.535,771.977 C 281.551,771.842 281.562,771.707 281.569,771.574 C 281.577,771.441 281.58,771.318 281.58,771.206 L 281.565,766.352 L 279.816,766.358 L 279.842,774.903 L 281.357,774.898 C 281.443,774.898 281.518,774.898 281.583,774.898 C 281.647,774.898 281.705,774.887 281.756,774.868 C 281.806,774.848 281.852,774.817 281.893,774.776 C 281.934,774.734 281.974,774.676 282.013,774.601 L 284.201,770.227 Z" marker-start="none" marker-end="none"/>
    </g>
   </g>
   <path d="M 305.504,752.855 C 305.372,752.815 305.107,752.713 304.914,752.621 C 304.713,752.53 304.458,752.469 304.336,752.469 C 304.185,752.469 304.053,752.408 304.012,752.336 C 303.992,752.285 303.87,752.237 303.758,752.237 C 303.626,752.237 303.455,752.135 303.332,752.013 C 303.221,751.88 303.037,751.779 302.936,751.779 C 302.724,751.779 301.729,751.282 301.201,750.938 C 301.008,750.816 300.878,750.633 300.878,750.521 C 300.878,750.419 300.796,750.297 300.674,750.258 C 300.46,750.207 300.249,749.912 299.954,749.242 C 299.862,749.049 299.781,748.929 299.73,748.929 C 299.679,748.929 299.62,748.787 299.569,748.614 C 299.538,748.451 299.426,748.27 299.365,748.208 C 299.284,748.158 299.213,747.679 299.203,746.9 C 299.172,746.23 299.101,745.632 299.04,745.571 C 298.909,745.418 298.909,744.504 299.05,744.402 C 299.243,744.313 299.203,742.851 298.981,742.587 C 298.859,742.416 298.828,742.181 298.889,741.502 C 298.93,741.046 299.009,740.608 299.05,740.527 C 299.101,740.478 299.172,740.132 299.213,739.788 C 299.243,739.432 299.335,739.027 299.426,738.874 C 299.679,738.408 300.239,737.86 300.46,737.86 C 300.613,737.86 300.654,737.769 300.654,737.484 C 300.654,737.26 300.684,737.079 300.725,737.038 C 300.756,736.997 300.806,736.48 300.827,735.902 C 300.868,734.825 301.008,734.044 301.222,733.913 C 301.385,733.832 301.385,731.153 301.222,731.062 C 301.171,731.031 301.11,730.797 301.11,730.545 C 301.11,730.066 301.008,729.763 300.878,729.763 C 300.766,729.763 300.796,729.987 300.918,730.189 C 301.14,730.535 300.725,730.26 300.116,729.661 C 299.498,729.053 298.859,728.648 298.138,728.444 C 297.985,728.393 297.731,728.261 297.58,728.149 C 297.438,728.019 297.163,727.927 297.002,727.927 C 296.809,727.927 296.656,727.876 296.656,727.825 C 296.656,727.764 296.453,727.683 296.2,727.652 C 295.946,727.591 295.724,727.53 295.693,727.469 C 295.653,727.418 295.459,727.339 295.246,727.308 C 295.014,727.268 294.708,727.166 294.525,727.074 C 294.354,726.973 294.12,726.901 294.008,726.901 C 293.896,726.901 293.794,726.861 293.794,726.779 C 293.794,726.73 293.623,726.649 293.41,726.608 C 293.196,726.568 292.994,726.486 292.954,726.445 C 292.913,726.384 292.689,726.323 292.447,726.272 C 292.182,726.232 291.958,726.15 291.918,726.091 C 291.877,726.04 291.808,726 291.747,726.051 C 291.686,726.091 291.574,726.071 291.492,726 C 291.411,725.939 291.167,725.867 290.924,725.827 C 290.69,725.766 290.499,725.694 290.499,725.643 C 290.499,725.582 290.336,725.521 290.163,725.47 C 289.98,725.422 289.809,725.361 289.809,725.289 C 289.809,725.238 289.707,725.188 289.595,725.188 C 289.463,725.188 289.038,725.004 288.62,724.791 C 288.215,724.579 287.759,724.386 287.617,724.386 C 287.09,724.386 286.601,723.594 286.522,722.57 C 286.501,722.155 286.43,721.778 286.389,721.697 C 286.349,721.656 286.257,721.383 286.216,721.139 C 286.176,720.885 286.115,720.632 286.043,720.571 C 286.003,720.51 285.913,720.044 285.883,719.537 C 285.832,719.038 285.76,718.582 285.71,718.521 C 285.659,718.45 285.587,718.127 285.557,717.781 C 285.506,717.447 285.445,717.121 285.384,717.04 C 285.313,716.968 285.233,716.736 285.193,716.512 C 285.152,716.299 285.07,716.077 285.02,715.995 C 284.969,715.945 284.887,715.631 284.857,715.326 C 284.796,715.01 284.714,714.676 284.663,714.615 C 284.584,714.534 284.564,714.402 284.604,714.292 C 284.643,714.2 284.623,714.088 284.584,714.058 C 284.523,714.027 284.441,713.632 284.391,713.184 C 284.34,712.729 284.279,712.313 284.207,712.232 C 284.177,712.181 284.085,711.481 284.055,710.689 C 284.004,709.897 283.924,709.207 283.884,709.156 C 283.823,709.087 283.741,708.578 283.69,708.01 C 283.66,707.442 283.578,706.936 283.538,706.875 C 283.487,706.814 283.416,706.246 283.365,705.617 C 283.324,704.988 283.245,704.43 283.184,704.359 C 283.153,704.308 283.082,703.842 283.041,703.343 C 283,702.867 282.919,702.38 282.868,702.319 C 282.807,702.248 282.726,701.863 282.675,701.446 C 282.636,701.041 282.555,700.654 282.514,700.603 C 282.473,700.544 282.371,700.107 282.31,699.651 C 282.209,699.042 282.097,698.716 281.854,698.393 C 281.185,697.53 281.114,697.237 281.164,696.16 C 281.205,695.623 281.276,695.106 281.337,695.034 C 281.407,694.953 281.488,694.538 281.529,694.09 C 281.59,693.654 281.671,693.229 281.742,693.137 C 281.824,693.036 281.895,692.234 281.915,691.016 C 281.956,689.942 281.997,688.967 282.046,688.845 C 282.107,688.714 282.209,687.892 282.27,687.019 C 282.331,686.148 282.402,685.346 282.402,685.244 C 282.422,685.152 282.565,684.89 282.756,684.656 C 282.939,684.432 283.082,684.189 283.082,684.128 C 283.082,684.067 283.163,683.955 283.255,683.874 C 283.334,683.803 283.426,683.64 283.426,683.52 C 283.426,683.398 283.487,683.306 283.548,683.306 C 283.762,683.306 283.599,682.809 283.334,682.667 C 283.173,682.596 282.97,682.351 282.838,682.109 C 282.575,681.613 282.616,681.287 283,680.76 C 283.334,680.273 283.629,679.693 283.711,679.308 C 283.751,679.115 283.823,678.975 283.884,678.975 C 283.935,678.975 284.004,678.802 284.055,678.629 C 284.085,678.445 284.279,678 284.472,677.656 C 284.643,677.31 284.796,676.976 284.796,676.894 C 284.796,676.813 284.989,676.388 285.203,675.95 C 285.445,675.484 285.587,675.048 285.557,674.896 C 285.537,674.743 285.577,674.58 285.659,674.509 C 285.781,674.399 285.832,673.972 285.832,672.683 C 285.832,671.112 285.791,670.969 285.537,670.473 C 285.384,670.177 285.213,669.772 285.193,669.538 C 285.152,669.325 285.07,669.143 285.02,669.103 C 284.969,669.062 284.887,668.818 284.857,668.555 C 284.796,668.291 284.735,668.026 284.694,667.965 C 284.604,667.814 284.584,667.753 284.441,666.961 C 284.37,666.597 284.279,666.312 284.207,666.312 C 284.177,666.312 284.085,666.027 284.065,665.714 C 284.014,665.388 283.914,665.044 283.843,664.952 C 283.68,664.759 283.721,658.915 283.884,658.714 C 283.924,658.663 284.004,657.344 284.055,655.801 C 284.085,654.258 284.187,652.949 284.248,652.878 C 284.411,652.666 284.421,644.712 284.279,644.498 C 284.187,644.396 284.085,643.778 284.055,643.088 C 284.004,642.389 283.924,641.779 283.884,641.71 C 283.833,641.649 283.751,641.009 283.721,640.279 C 283.68,639.558 283.599,638.96 283.538,638.919 C 283.487,638.889 283.416,638.371 283.365,637.783 C 283.324,637.175 283.245,636.645 283.184,636.574 C 283.153,636.523 283.072,635.966 283.031,635.347 C 282.97,634.748 282.899,634.211 282.858,634.181 C 282.807,634.14 282.726,633.602 282.675,632.963 C 282.636,632.314 282.555,631.736 282.514,631.675 C 282.473,631.624 282.371,630.791 282.28,629.849 C 282.198,628.915 282.097,628.082 282.046,628.013 C 282.015,627.962 281.956,627.364 281.895,626.704 C 281.844,626.055 281.783,625.465 281.722,625.385 C 281.661,625.334 281.59,624.795 281.529,624.197 C 281.488,623.598 281.417,623.04 281.356,623 C 281.317,622.929 281.236,622.412 281.185,621.854 C 281.154,621.286 281.073,620.779 281.032,620.718 C 280.991,620.657 280.9,620.13 280.859,619.55 C 280.808,618.972 280.727,618.495 280.678,618.495 C 280.647,618.495 280.556,618.07 280.515,617.561 C 280.474,617.054 280.383,616.547 280.332,616.446 C 280.21,616.214 279.998,613.736 279.998,612.448 C 280.018,611.261 280.077,610.785 280.301,610.612 C 280.383,610.531 280.464,610.408 280.464,610.349 C 280.464,610.258 280.617,610.166 280.818,610.105 L 281.205,609.993 L 281.175,609.201 C 281.154,608.776 281.093,608.371 281.042,608.29 C 280.991,608.218 280.9,607.954 280.859,607.701 C 280.808,607.457 280.727,607.203 280.678,607.131 C 280.647,607.083 280.556,606.818 280.515,606.564 C 280.464,606.311 280.383,606.047 280.342,605.996 C 280.281,605.914 280.22,605.692 280.21,605.479 C 280.189,605.173 280.108,605.084 279.896,605.033 C 279.571,604.941 279.288,604.575 279.51,604.483 C 279.611,604.465 279.571,604.343 279.369,604.129 C 278.699,603.388 278.282,602.881 278.282,602.759 C 278.282,602.708 278.211,602.627 278.109,602.576 C 278.03,602.546 277.938,602.425 277.938,602.293 C 277.938,602.049 277.146,601.308 276.731,601.127 C 276.579,601.076 276.467,600.984 276.467,600.923 C 276.467,600.872 276.324,600.791 276.151,600.75 C 275.98,600.71 275.807,600.638 275.777,600.598 C 275.746,600.549 275.471,600.386 275.178,600.233 C 274.103,599.676 273.91,599.553 273.584,599.24 C 273.281,598.955 273.179,598.914 272.166,598.894 C 271.545,598.874 270.987,598.813 270.916,598.741 C 270.826,598.67 270.714,598.357 270.694,598.041 C 270.633,597.748 270.572,597.494 270.511,597.494 C 270.45,597.494 270.419,597.392 270.419,597.262 C 270.419,597.017 270.714,596.804 271.13,596.804 C 271.272,596.793 271.586,596.712 271.84,596.582 C 272.094,596.46 272.398,596.368 272.489,596.358 C 272.581,596.358 272.703,596.317 272.744,596.256 C 272.795,596.175 273.047,596.103 273.322,596.063 C 273.605,596.022 273.859,595.932 273.9,595.902 C 273.93,595.841 274.631,595.77 275.433,595.719 C 276.263,595.668 276.923,595.607 276.923,595.535 C 276.923,595.403 277.34,595.403 277.421,595.535 C 277.46,595.607 277.836,595.668 278.282,595.719 C 278.73,595.77 279.115,595.861 279.135,595.902 C 279.166,595.932 279.55,596.022 279.998,596.063 C 280.424,596.114 280.798,596.195 280.798,596.236 C 280.798,596.287 280.951,596.358 281.164,596.398 C 281.356,596.429 281.732,596.651 282.015,596.854 C 282.27,597.089 282.534,597.262 282.575,597.262 C 282.626,597.262 283.041,597.606 283.497,598.031 C 284.533,598.955 285.121,599.299 285.832,599.401 C 286.288,599.462 286.42,599.411 286.825,599.128 L 287.291,598.782 L 288.174,598.955 C 288.671,599.016 289.149,599.138 289.239,599.199 C 289.341,599.25 289.595,599.34 289.809,599.37 C 290.031,599.411 290.285,599.503 290.377,599.543 C 290.468,599.594 290.792,599.737 291.097,599.879 L 291.635,600.132 L 291.635,601.247 C 291.635,602.1 291.594,602.405 291.472,602.517 C 291.248,602.708 291.248,603.966 291.472,604.272 C 291.645,604.514 291.696,605.153 291.553,605.295 C 291.513,605.336 291.472,605.57 291.452,605.802 C 291.441,606.036 291.37,606.502 291.299,606.848 C 291.167,607.569 291.228,608.147 291.533,608.756 C 291.645,608.99 291.757,609.252 291.757,609.313 C 291.757,609.405 291.798,609.476 291.836,609.497 C 291.887,609.507 292.04,609.78 292.182,610.054 C 292.457,610.622 292.536,611.799 292.325,611.931 C 292.264,611.962 292.081,612.277 291.908,612.621 L 291.604,613.24 L 292.142,613.747 C 292.427,614.042 292.669,614.286 292.669,614.325 C 292.669,614.406 293.145,615.096 293.257,615.178 C 293.298,615.218 293.379,615.381 293.41,615.554 C 293.461,615.725 293.522,615.868 293.583,615.868 C 293.644,615.868 293.916,616.466 293.967,616.72 C 293.978,616.792 294.049,616.993 294.12,617.156 C 294.201,617.339 294.263,617.571 294.263,617.693 C 294.263,617.805 294.313,617.927 294.374,617.968 C 294.423,618.009 294.505,618.434 294.545,618.931 C 294.586,619.409 294.657,619.875 294.708,619.967 C 294.78,620.079 294.841,620.586 294.891,621.113 C 294.942,621.66 295.014,622.137 295.064,622.198 C 295.103,622.259 295.195,622.788 295.235,623.346 C 295.286,623.914 295.347,624.421 295.408,624.471 C 295.459,624.553 295.531,625.1 295.561,625.729 C 295.622,626.368 295.693,626.916 295.752,626.997 C 295.793,627.048 295.875,627.596 295.915,628.184 C 295.966,628.782 296.048,629.35 296.088,629.442 C 296.139,629.534 296.241,630.509 296.322,631.624 C 296.383,632.709 296.483,633.684 296.544,633.796 C 296.605,633.898 296.677,634.547 296.727,635.225 C 296.758,635.905 296.839,636.523 296.89,636.574 C 296.931,636.645 297.002,637.305 297.061,638.036 C 297.102,638.766 297.183,639.395 297.234,639.426 C 297.275,639.477 297.346,640.055 297.397,640.745 C 297.448,641.435 297.529,642.013 297.58,642.054 C 297.631,642.094 297.692,642.642 297.741,643.301 C 297.792,643.971 297.863,644.539 297.924,644.559 C 297.975,644.6 298.046,645.066 298.087,645.636 C 298.138,646.173 298.209,646.67 298.25,646.731 C 298.311,646.792 298.38,647.299 298.431,647.826 C 298.472,648.404 298.543,648.872 298.594,648.893 C 298.635,648.933 298.655,649.165 298.645,649.44 C 298.635,649.703 298.665,649.988 298.716,650.039 C 298.767,650.11 298.859,650.566 298.889,651.073 C 298.95,651.569 299.009,652.038 299.05,652.088 C 299.101,652.17 299.172,652.595 299.223,653.072 C 299.284,653.527 299.345,653.975 299.396,654.046 C 299.447,654.108 299.528,654.543 299.569,655.03 C 299.62,655.516 299.679,655.944 299.75,655.974 C 299.791,656.015 299.862,656.349 299.913,656.715 C 299.954,657.1 300.035,657.425 300.086,657.464 C 300.137,657.495 300.208,657.79 300.249,658.124 C 300.308,658.439 300.379,658.763 300.42,658.834 C 300.481,658.905 300.542,659.149 300.603,659.394 C 300.633,659.656 300.725,659.921 300.786,659.982 C 300.837,660.061 300.878,660.163 300.878,660.214 C 300.847,660.326 300.939,660.631 301.171,661.118 C 301.262,661.311 301.364,661.604 301.405,661.787 C 301.456,661.971 301.558,662.253 301.637,662.416 C 301.729,662.569 301.79,662.801 301.79,662.913 C 301.79,663.015 301.841,663.106 301.902,663.106 C 301.952,663.106 302.034,663.3 302.075,663.511 C 302.166,664.028 302.307,664.008 302.531,663.481 C 302.642,663.249 302.826,662.862 302.946,662.63 C 303.048,662.396 303.17,662.141 303.17,662.06 C 303.17,661.94 303.605,660.955 304.438,659.302 C 304.489,659.21 304.56,658.854 304.621,658.561 C 304.641,658.266 304.713,657.993 304.763,657.912 C 304.814,657.861 304.894,657.464 304.914,657.069 C 304.965,656.644 305.046,656.226 305.107,656.096 C 305.199,655.862 305.464,654.207 305.494,653.578 C 305.504,653.397 305.535,653.183 305.584,653.122 C 305.624,653.072 305.685,652.351 305.726,651.521 C 305.777,650.708 305.858,649.988 305.93,649.906 C 305.991,649.845 306.062,649.125 306.103,648.302 C 306.123,647.503 306.213,646.792 306.253,646.721 C 306.304,646.65 306.396,645.117 306.426,643.301 C 306.467,641.486 306.549,639.953 306.579,639.892 C 306.63,639.831 306.701,639.031 306.752,638.117 C 306.793,637.213 306.872,636.413 306.923,636.342 C 306.974,636.291 307.055,635.874 307.106,635.428 C 307.147,635.003 307.239,634.575 307.31,634.476 C 307.381,634.384 307.462,633.511 307.473,632.202 C 307.501,631.026 307.562,630.01 307.633,629.951 C 307.725,629.819 307.694,629.625 307.542,629.281 C 307.371,628.894 307.432,623.659 307.593,623.486 C 307.674,623.417 307.725,623.03 307.725,622.483 C 307.725,621.64 307.715,621.62 307.249,621.052 C 306.579,620.28 306.477,620.089 306.406,619.348 C 306.365,618.992 306.274,618.679 306.233,618.648 C 306.103,618.577 306.103,615.178 306.233,615.178 C 306.294,615.178 306.375,614.895 306.406,614.559 C 306.447,614.215 306.528,613.909 306.579,613.869 C 306.63,613.828 306.722,613.616 306.752,613.382 C 306.803,613.148 306.892,612.886 306.964,612.804 C 307.055,612.692 306.793,612.367 305.818,611.383 C 304.621,610.197 304.529,610.064 304.529,609.659 C 304.529,609.212 304.713,608.796 305.219,608.117 C 305.372,607.882 305.574,607.569 305.665,607.416 C 305.869,606.991 306.062,606.665 306.243,606.452 C 306.335,606.342 306.426,606.047 306.467,605.784 C 306.508,605.479 306.62,605.275 306.772,605.204 C 306.974,605.094 307.004,604.951 307.035,603.926 C 307.055,603.174 307.025,602.729 306.943,602.688 C 306.62,602.487 308.091,601.117 308.619,601.117 C 308.963,601.117 309.329,600.862 309.329,600.608 C 309.329,600.528 309.37,600.457 309.431,600.457 C 309.48,600.457 309.561,600.06 309.612,599.584 C 309.693,598.66 309.948,597.97 310.251,597.86 C 310.332,597.819 310.597,597.646 310.809,597.473 C 311.022,597.29 311.267,597.109 311.338,597.048 C 311.409,596.997 311.651,596.885 311.906,596.793 C 312.138,596.712 312.402,596.612 312.464,596.561 C 312.606,596.429 314.646,596.449 314.745,596.571 C 314.766,596.612 314.928,596.651 315.091,596.633 C 315.254,596.612 315.395,596.633 315.435,596.692 C 315.466,596.742 315.802,596.824 316.197,596.854 C 316.593,596.905 316.968,596.997 317.029,597.038 C 317.1,597.089 317.332,597.15 317.577,597.2 C 317.811,597.241 318.002,597.341 318.002,597.422 C 318.002,597.514 318.083,597.646 318.185,597.738 C 318.348,597.86 318.368,598.041 318.307,598.935 C 318.277,599.503 318.195,600.07 318.124,600.193 C 318.083,600.315 317.923,600.649 317.78,600.954 C 317.638,601.247 317.475,601.491 317.424,601.491 C 317.373,601.491 317.312,601.562 317.312,601.634 C 317.312,601.705 317.1,601.988 316.856,602.232 C 316.604,602.466 316.4,602.708 316.4,602.759 C 316.4,602.82 316.359,602.922 316.288,603.004 C 315.384,604.088 315.061,604.575 314.473,605.733 C 314.126,606.462 314.076,606.625 314.208,606.798 C 314.279,606.92 314.35,607.162 314.35,607.365 C 314.35,607.549 314.391,607.76 314.432,607.832 C 314.493,607.882 314.605,608.31 314.694,608.756 C 314.766,609.212 314.888,609.629 314.939,609.659 C 314.979,609.7 315.04,609.912 315.04,610.136 C 315.04,610.368 315.112,610.704 315.203,610.897 C 315.295,611.078 315.415,611.506 315.456,611.86 C 315.496,612.206 315.588,612.621 315.68,612.774 C 315.761,612.947 315.832,613.158 315.832,613.26 C 315.832,613.372 315.883,613.474 315.934,613.515 C 315.985,613.545 316.064,613.747 316.095,613.971 C 316.146,614.205 316.258,614.508 316.359,614.691 C 316.431,614.854 316.512,615.137 316.512,615.31 C 316.512,615.473 316.583,615.654 316.634,615.705 C 316.693,615.786 316.775,616.364 316.825,616.993 C 316.856,617.632 316.927,618.182 316.968,618.202 C 317.019,618.241 317.029,618.74 316.999,619.348 C 316.968,619.987 316.988,620.494 317.06,620.576 C 317.121,620.657 317.212,621.62 317.263,622.717 C 317.304,623.802 317.393,624.765 317.434,624.826 C 317.485,624.897 317.566,625.923 317.607,627.109 C 317.648,628.296 317.729,629.34 317.79,629.391 C 317.831,629.462 317.892,630.57 317.912,631.858 C 317.933,633.582 317.971,634.252 318.083,634.384 C 318.185,634.486 318.521,634.586 318.987,634.636 C 319.382,634.677 319.748,634.769 319.769,634.83 C 319.82,634.891 319.94,634.901 320.052,634.871 C 320.174,634.83 320.286,634.85 320.337,634.911 C 320.367,634.972 320.681,635.064 321.016,635.094 C 321.381,635.135 321.676,635.225 321.706,635.265 C 321.747,635.326 322.04,635.388 322.386,635.428 C 322.69,635.489 323.025,635.561 323.087,635.611 C 323.148,635.652 323.481,635.734 323.827,635.774 C 324.161,635.825 324.505,635.905 324.556,635.955 C 324.688,636.037 325.44,636.169 325.845,636.169 C 325.977,636.169 326.13,636.21 326.16,636.281 C 326.201,636.342 326.545,636.424 326.952,636.464 C 327.377,636.505 327.703,636.595 327.703,636.635 C 327.703,636.686 328.027,636.757 328.432,636.808 C 328.849,636.839 329.213,636.92 329.234,636.971 C 329.264,637.012 329.641,637.093 330.097,637.134 C 330.522,637.175 330.899,637.264 330.899,637.315 C 330.899,637.356 331.263,637.458 331.69,637.498 C 332.136,637.539 332.521,637.62 332.551,637.661 C 332.582,637.712 332.948,637.783 333.374,637.832 C 333.809,637.883 334.206,637.944 334.267,638.005 C 334.326,638.056 334.56,638.117 334.774,638.168 C 335.189,638.249 335.686,638.634 335.686,638.889 C 335.686,638.96 335.767,639.133 335.839,639.263 C 335.93,639.426 335.94,639.517 335.849,639.568 C 335.727,639.67 335.454,641.71 335.454,642.389 C 335.454,642.55 335.413,642.754 335.362,642.835 C 335.301,642.906 335.22,643.393 335.169,643.92 C 335.128,644.427 335.047,644.875 334.996,644.915 C 334.957,644.946 334.876,645.565 334.835,646.296 C 334.794,647.034 334.703,647.704 334.652,647.765 C 334.611,647.826 334.55,648.384 334.509,649.003 L 334.418,650.13 L 334.794,650.515 L 335.169,650.91 L 335.149,652.351 C 335.138,653.143 335.067,653.833 335.016,653.914 C 334.957,653.975 334.876,654.969 334.835,656.096 C 334.794,657.212 334.703,658.205 334.652,658.266 C 334.611,658.327 334.55,659.048 334.53,659.86 C 334.459,661.311 334.398,661.604 333.992,662.101 C 333.901,662.223 333.657,662.335 333.445,662.376 C 333.231,662.416 333.028,662.498 332.999,662.549 C 332.918,662.679 332.299,662.679 332.228,662.549 C 332.187,662.508 331.629,662.416 330.98,662.376 C 330.331,662.325 329.74,662.223 329.671,662.152 C 329.569,662.091 328.93,662.05 328.047,662.06 L 326.565,662.06 L 326.221,662.447 C 326.028,662.65 325.875,662.882 325.875,662.954 C 325.875,663.015 325.775,663.178 325.633,663.3 C 325.419,663.471 325.409,663.603 325.45,664.028 C 325.48,664.303 325.602,664.698 325.684,664.881 C 325.806,665.085 325.875,665.51 325.875,665.927 C 325.875,666.475 325.936,666.758 326.099,666.982 C 326.221,667.155 326.333,667.489 326.333,667.743 C 326.353,667.975 326.414,668.25 326.445,668.301 C 326.494,668.372 326.555,669.031 326.606,669.783 C 326.657,670.521 326.718,671.191 326.779,671.262 C 326.84,671.323 326.901,672.591 326.942,674.073 C 326.993,675.545 327.064,676.772 327.123,676.793 C 327.164,676.833 327.245,677.523 327.296,678.346 C 327.337,679.156 327.408,679.887 327.479,679.948 C 327.54,680.029 327.622,680.556 327.652,681.155 C 327.703,681.743 327.764,682.272 327.813,682.331 C 327.874,682.402 327.935,683.53 327.976,684.859 C 328.027,686.178 328.108,687.294 328.139,687.365 C 328.169,687.426 328.281,687.912 328.362,688.45 C 328.432,688.977 328.533,689.616 328.564,689.87 C 328.605,690.115 328.676,692.152 328.737,694.375 C 328.829,698.291 328.737,701.527 328.493,701.853 C 328.442,701.922 328.373,702.279 328.332,702.653 C 328.281,703.03 328.21,703.394 328.149,703.455 C 328.108,703.516 328.047,705.362 328.016,707.534 C 327.976,709.726 327.894,711.583 327.833,711.644 C 327.772,711.723 327.693,712.372 327.652,713.083 C 327.611,713.813 327.53,714.442 327.469,714.524 C 327.428,714.575 327.347,715 327.296,715.417 C 327.255,715.863 327.164,716.299 327.105,716.38 C 327.023,716.472 326.972,717.406 326.972,718.806 C 326.952,721.037 326.952,721.078 326.687,721.363 C 326.524,721.505 326.353,721.656 326.292,721.656 C 326.231,721.656 325.997,721.819 325.765,721.992 C 325.521,722.183 325.287,722.336 325.246,722.336 C 325.205,722.336 324.973,722.489 324.739,722.662 C 324.515,722.824 324.131,723.077 323.876,723.199 C 323.634,723.311 323.42,723.453 323.38,723.502 C 323.359,723.563 323.288,723.594 323.217,723.594 C 323.046,723.594 321.928,724.151 321.483,724.447 C 321.279,724.579 321.016,724.742 320.854,724.821 C 320.561,724.964 320.337,725.096 319.769,725.47 C 319.596,725.603 319.331,725.755 319.201,725.827 C 318.144,726.415 317.841,726.557 317.546,726.618 C 317.373,726.659 317.202,726.749 317.202,726.8 C 317.202,726.861 317.121,726.901 317.019,726.901 C 316.754,726.901 315.853,727.339 315.354,727.724 C 315.142,727.897 314.898,728.049 314.837,728.049 C 314.705,728.049 313.327,729.448 313.327,729.59 C 313.327,729.804 312.555,730.433 312.219,730.504 C 311.926,730.565 311.845,730.545 311.804,730.372 C 311.763,730.189 311.743,730.189 311.733,730.402 C 311.733,730.545 311.682,730.695 311.6,730.716 C 311.478,730.818 311.458,733.254 311.59,733.333 C 311.641,733.374 311.712,734.003 311.763,734.734 C 311.804,735.464 311.885,736.124 311.957,736.195 C 312.018,736.266 312.097,736.712 312.138,737.211 C 312.219,738.052 312.341,738.306 312.341,737.606 C 312.341,737.402 312.413,737.229 312.494,737.211 C 312.667,737.129 313.548,737.95 313.548,738.184 C 313.548,738.286 313.63,738.499 313.732,738.63 C 313.854,738.803 313.864,738.884 313.762,738.884 C 313.671,738.884 313.671,738.925 313.742,739.037 C 313.803,739.088 313.894,739.452 313.935,739.798 C 313.986,740.132 314.086,740.478 314.147,740.588 C 314.35,740.801 314.32,742.202 314.126,742.587 C 314.006,742.8 313.996,742.912 314.086,743.014 C 314.188,743.085 314.238,743.226 314.238,743.338 C 314.238,743.429 314.31,743.643 314.391,743.814 C 314.493,743.987 314.523,744.16 314.452,744.18 C 314.31,744.272 314.31,744.921 314.462,744.921 C 314.646,744.921 314.595,746.686 314.381,747.122 C 314.037,747.822 314.006,747.903 314.006,748.127 C 314.006,748.239 313.915,748.42 313.803,748.542 C 313.548,748.787 313.327,749.242 313.327,749.497 C 313.327,749.588 313.174,749.841 312.991,750.004 C 312.808,750.177 312.616,750.439 312.596,750.592 C 312.555,750.765 312.433,750.877 312.26,750.877 C 312.128,750.877 311.896,750.987 311.743,751.15 C 311.6,751.302 311.328,751.455 311.114,751.496 C 310.921,751.547 310.607,751.687 310.414,751.84 C 310.231,751.972 309.907,752.135 309.714,752.186 C 309.5,752.206 309.329,752.285 309.329,752.336 C 309.329,752.397 309.156,752.53 308.963,752.642 C 308.68,752.794 308.252,752.855 307.157,752.876 C 306.375,752.886 305.624,752.876 305.504,752.855 Z" stroke="none" fill="#df56fe" stroke-width="0.01" fill-rule="evenodd" stroke-linejoin="miter" marker-start="none" marker-end="none"/>
   <path d="M 311.206,614.082 C 318.165,619.947 328.564,619.073 334.418,612.114 C 340.292,605.135 339.421,594.693 332.46,588.829 C 325.531,582.944 315.112,583.817 309.248,590.787 C 303.383,597.748 304.265,608.188 311.206,614.082 Z" stroke="none" fill="#ffffff" stroke-width="0.68" stroke-linejoin="miter" marker-start="none" marker-end="none"/>
   <path d="M 311.987,614.691 C 318.936,620.586 329.346,619.692 335.21,612.723 C 341.084,605.774 340.201,595.324 333.262,589.439 C 326.292,583.563 315.893,584.436 310.039,591.406 C 304.165,598.377 305.046,608.796 311.987,614.691 Z" stroke="#539bc5" stroke-width="3.743" stroke-linejoin="miter" marker-start="none" marker-end="none"/>
   <g id="Group_4" fill-rule="nonzero" stroke-linejoin="round" stroke-linecap="round" stroke="none" stroke-width="0.782" fill="#000000">
    <g id="Group_5">
     <path d="M 319.05,596.959 L 321.881,596.959 L 321.881,604.39 C 321.881,604.754 321.891,605.135 321.911,605.533 L 320.243,604.147 C 320.135,604.06 320.027,603.997 319.919,603.96 C 319.811,603.923 319.707,603.905 319.606,603.905 C 319.431,603.905 319.274,603.944 319.136,604.021 C 318.998,604.099 318.895,604.181 318.827,604.269 L 317.837,605.583 L 322.427,609.436 L 325.015,609.436 L 325.015,596.959 L 327.441,596.959 L 327.441,594.693 L 319.05,594.693 L 319.05,596.959 Z" marker-start="none" marker-end="none"/>
    </g>
   </g>
   <g id="Group_6" fill-rule="nonzero" stroke-linejoin="round" stroke-linecap="round" stroke="none" stroke-width="0.375" fill="#df56fe">
    <g id="Group_7">
     <path d="M 260.7,630.988 C 260.7,631.234 260.679,631.452 260.638,631.642 C 260.596,631.832 260.541,632.011 260.471,632.18 L 259.304,632.18 L 259.304,631.42 C 259.304,631.308 259.274,631.22 259.214,631.156 C 259.154,631.093 259.078,631.061 258.987,631.061 L 258.005,631.061 L 258.005,633.795 L 261.25,633.795 C 261.394,633.598 261.518,633.393 261.622,633.18 C 261.726,632.967 261.811,632.74 261.878,632.499 C 261.945,632.258 261.994,632.002 262.026,631.729 C 262.057,631.456 262.073,631.163 262.073,630.85 C 262.073,630.288 261.974,629.767 261.775,629.289 C 261.576,628.81 261.302,628.396 260.952,628.046 C 260.602,627.696 260.186,627.422 259.706,627.223 C 259.226,627.024 258.704,626.925 258.142,626.925 C 257.568,626.925 257.041,627.02 256.561,627.21 C 256.081,627.4 255.667,627.672 255.318,628.025 C 254.97,628.379 254.699,628.806 254.506,629.307 C 254.312,629.808 254.215,630.369 254.215,630.988 C 254.215,631.308 254.242,631.608 254.295,631.89 C 254.348,632.171 254.42,632.431 254.511,632.668 C 254.603,632.905 254.712,633.123 254.839,633.32 C 254.966,633.517 255.103,633.693 255.251,633.847 L 256.037,633.33 C 256.111,633.281 256.169,633.222 256.211,633.153 C 256.254,633.085 256.275,633.01 256.275,632.929 C 256.275,632.824 256.239,632.715 256.169,632.602 C 256.085,632.461 256.012,632.329 255.95,632.204 C 255.889,632.079 255.839,631.951 255.8,631.821 C 255.761,631.691 255.733,631.554 255.715,631.41 C 255.698,631.265 255.689,631.104 255.689,630.924 C 255.689,630.59 255.748,630.289 255.866,630.022 C 255.984,629.755 256.15,629.527 256.364,629.339 C 256.579,629.151 256.836,629.006 257.137,628.904 C 257.438,628.802 257.772,628.751 258.142,628.751 C 258.55,628.751 258.912,628.807 259.228,628.919 C 259.545,629.032 259.812,629.188 260.03,629.386 C 260.248,629.585 260.414,629.821 260.528,630.093 C 260.643,630.366 260.7,630.664 260.7,630.988 Z" marker-start="none" marker-end="none"/>
     <path d="M 259.144,636.663 L 261.988,636.663 L 261.988,634.88 L 254.3,634.88 L 254.3,637.381 C 254.3,637.937 254.358,638.411 254.472,638.803 C 254.587,639.195 254.746,639.515 254.95,639.763 C 255.154,640.011 255.396,640.192 255.674,640.304 C 255.952,640.417 256.255,640.473 256.583,640.473 C 256.833,640.473 257.069,640.439 257.29,640.373 C 257.512,640.306 257.718,640.206 257.906,640.075 C 258.094,639.943 258.263,639.781 258.41,639.589 C 258.558,639.397 258.68,639.177 258.775,638.927 C 258.835,639.047 258.908,639.158 258.996,639.262 C 259.084,639.366 259.191,639.456 259.318,639.534 L 261.988,641.169 L 261.988,639.555 C 261.988,639.256 261.875,639.041 261.65,638.911 L 259.418,637.634 C 259.32,637.578 259.249,637.512 259.207,637.436 C 259.165,637.361 259.144,637.254 259.144,637.117 L 259.144,636.663 Z M 257.915,636.663 L 257.915,637.381 C 257.915,637.624 257.884,637.83 257.823,638.001 C 257.761,638.172 257.676,638.311 257.567,638.42 C 257.458,638.53 257.33,638.609 257.184,638.658 C 257.038,638.707 256.881,638.732 256.712,638.732 C 256.374,638.732 256.11,638.622 255.92,638.402 C 255.73,638.182 255.635,637.842 255.635,637.381 L 255.635,636.663 L 257.915,636.663 Z" marker-start="none" marker-end="none"/>
     <path d="M 254.298,646.847 L 255.671,646.847 L 255.671,643.692 L 257.467,643.692 L 257.467,646.109 L 258.786,646.109 L 258.786,643.692 L 260.615,643.692 L 260.615,646.847 L 261.988,646.847 L 261.988,641.898 L 254.298,641.898 L 254.298,646.847 Z" marker-start="none" marker-end="none"/>
     <path d="M 254.298,652.808 L 255.671,652.808 L 255.671,649.653 L 257.467,649.653 L 257.467,652.07 L 258.786,652.07 L 258.786,649.653 L 260.615,649.653 L 260.615,652.808 L 261.988,652.808 L 261.988,647.859 L 254.298,647.859 L 254.298,652.808 Z" marker-start="none" marker-end="none"/>
     <path d="M 254.298,654.759 C 254.298,654.837 254.301,654.902 254.308,654.955 C 254.315,655.007 254.329,655.055 254.348,655.097 C 254.367,655.139 254.395,655.18 254.43,655.218 C 254.465,655.257 254.513,655.301 254.572,655.35 L 259.189,659.001 C 259.041,658.987 258.898,658.977 258.759,658.97 C 258.62,658.963 258.489,658.959 258.366,658.959 L 254.298,658.959 L 254.298,660.531 L 261.988,660.531 L 261.988,659.603 C 261.988,659.466 261.967,659.35 261.925,659.255 C 261.882,659.16 261.805,659.068 261.693,658.98 L 257.113,655.356 C 257.246,655.366 257.377,655.375 257.506,655.382 C 257.634,655.389 257.755,655.392 257.867,655.392 L 261.988,655.392 L 261.988,653.82 L 254.298,653.82 L 254.298,654.759 Z" marker-start="none" marker-end="none"/>
     <path d="M 259.144,665.614 L 261.988,665.614 L 261.988,663.831 L 254.3,663.831 L 254.3,666.332 C 254.3,666.888 254.358,667.362 254.472,667.754 C 254.587,668.146 254.746,668.466 254.95,668.714 C 255.154,668.962 255.396,669.143 255.674,669.255 C 255.952,669.368 256.255,669.424 256.583,669.424 C 256.833,669.424 257.069,669.39 257.29,669.324 C 257.512,669.257 257.718,669.157 257.906,669.026 C 258.094,668.894 258.263,668.732 258.41,668.54 C 258.558,668.348 258.68,668.128 258.775,667.878 C 258.835,667.998 258.908,668.109 258.996,668.213 C 259.084,668.317 259.191,668.407 259.318,668.485 L 261.988,670.12 L 261.988,668.506 C 261.988,668.207 261.875,667.992 261.65,667.862 L 259.418,666.585 C 259.32,666.529 259.249,666.463 259.207,666.387 C 259.165,666.312 259.144,666.205 259.144,666.068 L 259.144,665.614 Z M 257.915,665.614 L 257.915,666.332 C 257.915,666.575 257.884,666.781 257.823,666.952 C 257.761,667.123 257.676,667.262 257.567,667.371 C 257.458,667.481 257.33,667.56 257.184,667.609 C 257.038,667.658 256.881,667.683 256.712,667.683 C 256.374,667.683 256.11,667.573 255.92,667.353 C 255.73,667.133 255.635,666.793 255.635,666.332 L 255.635,665.614 L 257.915,665.614 Z" marker-start="none" marker-end="none"/>
     <path d="M 261.988,672.801 L 261.988,671.007 L 254.298,671.007 L 254.298,672.801 L 261.988,672.801 Z" marker-start="none" marker-end="none"/>
     <path d="M 255.862,678.508 C 255.947,678.456 256.01,678.4 256.052,678.342 C 256.094,678.284 256.115,678.209 256.115,678.118 C 256.115,678.037 256.09,677.95 256.039,677.857 C 255.988,677.764 255.931,677.658 255.867,677.54 C 255.804,677.422 255.747,677.288 255.696,677.137 C 255.645,676.985 255.619,676.813 255.619,676.62 C 255.619,676.285 255.691,676.037 255.833,675.873 C 255.976,675.709 256.168,675.628 256.411,675.628 C 256.566,675.628 256.694,675.677 256.796,675.775 C 256.898,675.874 256.986,676.003 257.06,676.163 C 257.134,676.323 257.202,676.506 257.263,676.712 C 257.325,676.918 257.393,677.128 257.469,677.342 C 257.545,677.557 257.633,677.767 257.736,677.973 C 257.838,678.179 257.968,678.362 258.126,678.522 C 258.284,678.682 258.477,678.811 258.704,678.909 C 258.931,679.008 259.204,679.057 259.524,679.057 C 259.88,679.057 260.212,678.996 260.522,678.872 C 260.831,678.749 261.101,678.571 261.332,678.337 C 261.562,678.103 261.743,677.815 261.875,677.472 C 262.007,677.129 262.073,676.739 262.073,676.303 C 262.073,676.064 262.048,675.82 261.999,675.572 C 261.95,675.324 261.88,675.084 261.791,674.852 C 261.701,674.62 261.594,674.402 261.471,674.198 C 261.348,673.994 261.211,673.816 261.06,673.665 L 260.226,674.192 C 260.163,674.231 260.112,674.286 260.073,674.356 C 260.034,674.426 260.015,674.502 260.015,674.583 C 260.015,674.688 260.048,674.795 260.115,674.902 C 260.182,675.009 260.256,675.131 260.337,675.266 C 260.418,675.402 260.492,675.557 260.558,675.733 C 260.625,675.909 260.659,676.117 260.659,676.356 C 260.659,676.679 260.587,676.931 260.445,677.11 C 260.303,677.29 260.076,677.379 259.767,677.379 C 259.587,677.379 259.441,677.33 259.329,677.232 C 259.216,677.133 259.123,677.004 259.049,676.844 C 258.975,676.684 258.91,676.502 258.854,676.298 C 258.798,676.094 258.735,675.884 258.667,675.67 C 258.598,675.455 258.514,675.246 258.413,675.042 C 258.313,674.838 258.181,674.656 258.018,674.496 C 257.854,674.336 257.65,674.207 257.405,674.108 C 257.161,674.01 256.859,673.96 256.5,673.96 C 256.212,673.96 255.931,674.018 255.656,674.134 C 255.382,674.251 255.137,674.421 254.923,674.646 C 254.708,674.871 254.536,675.147 254.408,675.475 C 254.28,675.802 254.215,676.176 254.215,676.598 C 254.215,676.834 254.234,677.064 254.271,677.287 C 254.308,677.51 254.362,677.722 254.435,677.923 C 254.507,678.123 254.593,678.311 254.693,678.485 C 254.793,678.659 254.907,678.814 255.034,678.952 L 255.862,678.508 Z" marker-start="none" marker-end="none"/>
     <path d="M 257.413,681.726 L 257.413,682.011 C 257.413,682.275 257.33,682.465 257.164,682.581 L 254.652,684.312 C 254.514,684.407 254.421,684.515 254.372,684.636 C 254.323,684.758 254.298,684.906 254.298,685.082 L 254.298,686.633 L 257.407,684.354 C 257.52,684.273 257.613,684.189 257.687,684.101 C 257.761,684.013 257.822,683.923 257.872,683.832 C 257.921,683.965 257.989,684.088 258.075,684.198 C 258.161,684.309 258.276,684.41 258.421,684.502 L 261.988,686.823 L 261.988,685.23 C 261.988,685.128 261.981,685.041 261.967,684.969 C 261.953,684.897 261.932,684.834 261.904,684.781 C 261.875,684.729 261.841,684.683 261.801,684.644 C 261.76,684.606 261.714,684.569 261.661,684.533 L 258.985,682.792 C 258.887,682.729 258.817,682.649 258.777,682.552 C 258.736,682.455 258.716,682.324 258.716,682.159 L 258.716,681.726 L 261.988,681.726 L 261.988,679.943 L 254.298,679.943 L 254.298,681.726 L 257.413,681.726 Z" marker-start="none" marker-end="none"/>
     <path d="M 258.142,697.098 C 258.697,697.098 259.214,697.002 259.693,696.811 C 260.171,696.619 260.587,696.349 260.941,696.001 C 261.295,695.653 261.572,695.233 261.772,694.742 C 261.973,694.252 262.073,693.707 262.073,693.109 C 262.073,692.512 261.973,691.966 261.772,691.474 C 261.572,690.981 261.295,690.56 260.941,690.21 C 260.587,689.86 260.171,689.589 259.693,689.398 C 259.214,689.206 258.697,689.11 258.142,689.11 C 257.586,689.11 257.069,689.206 256.59,689.398 C 256.112,689.589 255.697,689.86 255.345,690.21 C 254.993,690.56 254.717,690.981 254.516,691.474 C 254.316,691.966 254.215,692.512 254.215,693.109 C 254.215,693.707 254.317,694.252 254.519,694.742 C 254.721,695.233 254.998,695.653 255.35,696.001 C 255.702,696.349 256.117,696.619 256.595,696.811 C 257.074,697.002 257.589,697.098 258.142,697.098 Z M 258.142,695.273 C 257.762,695.273 257.42,695.223 257.116,695.125 C 256.812,695.027 256.554,694.885 256.343,694.7 C 256.132,694.516 255.97,694.29 255.858,694.022 C 255.745,693.755 255.689,693.451 255.689,693.109 C 255.689,692.765 255.745,692.458 255.858,692.189 C 255.97,691.92 256.132,691.693 256.343,691.508 C 256.554,691.324 256.812,691.182 257.116,691.083 C 257.42,690.985 257.762,690.936 258.142,690.936 C 258.525,690.936 258.869,690.985 259.173,691.083 C 259.477,691.182 259.735,691.324 259.946,691.508 C 260.157,691.693 260.317,691.92 260.428,692.189 C 260.539,692.458 260.594,692.765 260.594,693.109 C 260.594,693.451 260.539,693.755 260.428,694.022 C 260.317,694.29 260.157,694.516 259.946,694.7 C 259.735,694.885 259.477,695.027 259.173,695.125 C 258.869,695.223 258.525,695.273 258.142,695.273 Z" marker-start="none" marker-end="none"/>
     <path d="M 254.3,702.9 L 255.674,702.9 L 255.674,699.745 L 257.619,699.745 L 257.619,702.373 L 258.997,702.373 L 258.997,699.745 L 261.989,699.745 L 261.989,697.951 L 254.3,697.951 L 254.3,702.9 Z" marker-start="none" marker-end="none"/>
     <path d="M 254.3,708.779 L 255.674,708.779 L 255.674,705.624 L 257.619,705.624 L 257.619,708.252 L 258.997,708.252 L 258.997,705.624 L 261.989,705.624 L 261.989,703.83 L 254.3,703.83 L 254.3,708.779 Z" marker-start="none" marker-end="none"/>
     <path d="M 261.988,711.661 L 261.988,709.867 L 254.298,709.867 L 254.298,711.661 L 261.988,711.661 Z" marker-start="none" marker-end="none"/>
     <path d="M 260,718.25 C 260,718.292 260.008,718.334 260.025,718.376 C 260.041,718.418 260.068,718.459 260.108,718.498 L 260.868,719.205 C 261.266,718.895 261.566,718.507 261.769,718.041 C 261.972,717.575 262.073,717.024 262.073,716.387 C 262.073,715.803 261.974,715.28 261.775,714.817 C 261.576,714.355 261.302,713.963 260.952,713.641 C 260.602,713.319 260.186,713.072 259.706,712.899 C 259.226,712.727 258.704,712.641 258.142,712.641 C 257.568,712.641 257.041,712.739 256.561,712.936 C 256.081,713.133 255.667,713.409 255.318,713.762 C 254.97,714.116 254.699,714.539 254.506,715.031 C 254.312,715.523 254.215,716.067 254.215,716.661 C 254.215,716.95 254.241,717.222 254.292,717.477 C 254.343,717.732 254.414,717.97 254.503,718.191 C 254.593,718.413 254.701,718.617 254.826,718.804 C 254.951,718.99 255.089,719.155 255.24,719.299 L 256.048,718.698 C 256.097,718.659 256.142,718.614 256.182,718.561 C 256.223,718.508 256.243,718.434 256.243,718.339 C 256.243,718.276 256.229,718.216 256.201,718.16 C 256.173,718.104 256.138,718.044 256.098,717.98 C 256.058,717.917 256.014,717.848 255.966,717.772 C 255.919,717.696 255.875,717.607 255.834,717.503 C 255.794,717.399 255.759,717.278 255.731,717.139 C 255.703,717 255.689,716.837 255.689,716.651 C 255.689,716.327 255.746,716.032 255.861,715.764 C 255.975,715.497 256.138,715.268 256.351,715.076 C 256.564,714.884 256.822,714.735 257.124,714.627 C 257.427,714.52 257.766,714.467 258.143,714.467 C 258.537,714.467 258.887,714.52 259.193,714.627 C 259.499,714.735 259.757,714.881 259.966,715.065 C 260.175,715.25 260.334,715.465 260.444,715.712 C 260.553,715.958 260.607,716.222 260.607,716.503 C 260.607,716.665 260.599,716.813 260.583,716.946 C 260.568,717.08 260.54,717.204 260.502,717.318 C 260.463,717.433 260.413,717.542 260.351,717.645 C 260.29,717.749 260.213,717.854 260.122,717.959 C 260.086,718.002 260.057,718.047 260.034,718.097 C 260.012,718.146 260,718.197 260,718.25 Z" marker-start="none" marker-end="none"/>
     <path d="M 254.298,724.968 L 255.671,724.968 L 255.671,721.813 L 257.467,721.813 L 257.467,724.23 L 258.786,724.23 L 258.786,721.813 L 260.615,721.813 L 260.615,724.968 L 261.988,724.968 L 261.988,720.019 L 254.298,720.019 L 254.298,724.968 Z" marker-start="none" marker-end="none"/>
     <path d="M 259.144,727.763 L 261.988,727.763 L 261.988,725.98 L 254.3,725.98 L 254.3,728.481 C 254.3,729.037 254.358,729.511 254.472,729.903 C 254.587,730.295 254.746,730.615 254.95,730.863 C 255.154,731.111 255.396,731.292 255.674,731.404 C 255.952,731.517 256.255,731.573 256.583,731.573 C 256.833,731.573 257.069,731.539 257.29,731.473 C 257.512,731.406 257.718,731.306 257.906,731.175 C 258.094,731.043 258.263,730.881 258.41,730.689 C 258.558,730.497 258.68,730.277 258.775,730.027 C 258.835,730.147 258.908,730.258 258.996,730.362 C 259.084,730.466 259.191,730.556 259.318,730.634 L 261.988,732.269 L 261.988,730.655 C 261.988,730.356 261.875,730.141 261.65,730.011 L 259.418,728.734 C 259.32,728.678 259.249,728.612 259.207,728.536 C 259.165,728.461 259.144,728.354 259.144,728.217 L 259.144,727.763 Z M 257.915,727.763 L 257.915,728.481 C 257.915,728.724 257.884,728.93 257.823,729.101 C 257.761,729.272 257.676,729.411 257.567,729.52 C 257.458,729.63 257.33,729.709 257.184,729.758 C 257.038,729.807 256.881,729.832 256.712,729.832 C 256.374,729.832 256.11,729.722 255.92,729.502 C 255.73,729.282 255.635,728.942 255.635,728.481 L 255.635,727.763 L 257.915,727.763 Z" marker-start="none" marker-end="none"/>
    </g>
   </g>
   <g id="Group_8" fill-rule="nonzero" stroke-linejoin="round" stroke-linecap="round" stroke="none" stroke-width="0.405" fill="#df56fe">
    <g id="Group_9">
     <path d="M 321.026,767.839 C 321.297,767.839 321.538,767.862 321.747,767.908 C 321.956,767.953 322.154,768.015 322.34,768.091 L 322.34,769.377 L 321.503,769.377 C 321.379,769.377 321.282,769.411 321.212,769.476 C 321.142,769.542 321.108,769.626 321.108,769.726 L 321.108,770.808 L 324.119,770.808 L 324.119,767.233 C 323.902,767.074 323.676,766.938 323.441,766.823 C 323.207,766.709 322.957,766.615 322.692,766.541 C 322.426,766.468 322.143,766.414 321.843,766.379 C 321.543,766.344 321.22,766.326 320.875,766.326 C 320.255,766.326 319.681,766.436 319.154,766.655 C 318.627,766.874 318.171,767.176 317.785,767.562 C 317.4,767.947 317.098,768.405 316.879,768.934 C 316.66,769.463 316.55,770.038 316.55,770.658 C 316.55,771.289 316.655,771.87 316.864,772.399 C 317.073,772.928 317.373,773.384 317.762,773.768 C 318.152,774.152 318.623,774.45 319.175,774.663 C 319.727,774.877 320.344,774.983 321.026,774.983 C 321.379,774.983 321.71,774.954 322.02,774.896 C 322.33,774.838 322.616,774.758 322.878,774.657 C 323.139,774.556 323.378,774.436 323.595,774.296 C 323.812,774.157 324.006,774.005 324.177,773.842 L 323.607,772.976 C 323.553,772.895 323.488,772.831 323.412,772.784 C 323.337,772.738 323.254,772.715 323.165,772.715 C 323.049,772.715 322.929,772.753 322.805,772.831 C 322.65,772.924 322.504,773.004 322.366,773.072 C 322.228,773.14 322.088,773.195 321.945,773.238 C 321.801,773.28 321.65,773.311 321.491,773.331 C 321.332,773.35 321.154,773.36 320.956,773.36 C 320.588,773.36 320.257,773.295 319.962,773.165 C 319.668,773.035 319.417,772.852 319.21,772.616 C 319.002,772.38 318.842,772.096 318.73,771.765 C 318.618,771.433 318.562,771.064 318.562,770.658 C 318.562,770.208 318.624,769.809 318.748,769.46 C 318.872,769.112 319.043,768.817 319.262,768.577 C 319.481,768.337 319.741,768.154 320.041,768.028 C 320.341,767.902 320.67,767.839 321.026,767.839 Z" marker-start="none" marker-end="none"/>
     <path d="M 327.28,769.553 L 327.28,766.42 L 325.316,766.42 L 325.316,774.89 L 328.071,774.89 C 328.683,774.89 329.205,774.827 329.637,774.7 C 330.069,774.574 330.422,774.399 330.695,774.174 C 330.969,773.949 331.167,773.683 331.291,773.376 C 331.415,773.07 331.477,772.736 331.477,772.375 C 331.477,772.1 331.44,771.84 331.367,771.595 C 331.293,771.351 331.184,771.125 331.038,770.917 C 330.893,770.71 330.715,770.524 330.504,770.361 C 330.292,770.199 330.049,770.065 329.774,769.96 C 329.906,769.894 330.029,769.813 330.143,769.716 C 330.257,769.619 330.357,769.501 330.442,769.362 L 332.244,766.42 L 330.466,766.42 C 330.136,766.42 329.9,766.544 329.757,766.792 L 328.35,769.251 C 328.288,769.36 328.215,769.437 328.132,769.484 C 328.049,769.53 327.931,769.554 327.78,769.553 L 327.28,769.553 Z M 327.28,770.907 L 328.071,770.907 C 328.338,770.907 328.566,770.941 328.754,771.009 C 328.942,771.077 329.096,771.171 329.216,771.291 C 329.336,771.411 329.423,771.552 329.478,771.713 C 329.532,771.874 329.559,772.047 329.559,772.233 C 329.559,772.605 329.438,772.896 329.196,773.105 C 328.953,773.315 328.578,773.419 328.071,773.419 L 327.28,773.419 L 327.28,770.907 Z" marker-start="none" marker-end="none"/>
     <path d="M 341.116,770.658 C 341.116,770.045 341.011,769.476 340.8,768.948 C 340.588,768.421 340.291,767.963 339.907,767.573 C 339.524,767.184 339.062,766.879 338.521,766.658 C 337.98,766.437 337.381,766.326 336.722,766.326 C 336.063,766.326 335.462,766.437 334.92,766.658 C 334.377,766.879 333.913,767.184 333.528,767.573 C 333.142,767.963 332.844,768.421 332.633,768.948 C 332.421,769.476 332.316,770.045 332.316,770.658 C 332.316,771.27 332.421,771.84 332.633,772.367 C 332.844,772.894 333.142,773.351 333.528,773.739 C 333.913,774.127 334.377,774.431 334.92,774.652 C 335.462,774.873 336.063,774.983 336.722,774.983 C 337.381,774.983 337.98,774.872 338.521,774.649 C 339.062,774.426 339.524,774.121 339.907,773.733 C 340.291,773.346 340.588,772.888 340.8,772.361 C 341.011,771.834 341.116,771.266 341.116,770.658 Z M 339.105,770.658 C 339.105,771.076 339.051,771.453 338.942,771.788 C 338.834,772.123 338.678,772.407 338.474,772.639 C 338.271,772.872 338.022,773.05 337.728,773.174 C 337.433,773.298 337.098,773.36 336.722,773.36 C 336.342,773.36 336.004,773.298 335.708,773.174 C 335.411,773.05 335.161,772.872 334.958,772.639 C 334.754,772.407 334.598,772.123 334.49,771.788 C 334.381,771.453 334.327,771.076 334.327,770.658 C 334.327,770.235 334.381,769.857 334.49,769.522 C 334.598,769.186 334.754,768.903 334.958,768.67 C 335.161,768.438 335.411,768.261 335.708,768.139 C 336.004,768.017 336.342,767.956 336.722,767.956 C 337.098,767.956 337.433,768.017 337.728,768.139 C 338.022,768.261 338.271,768.438 338.474,768.67 C 338.678,768.903 338.834,769.186 338.942,769.522 C 339.051,769.857 339.105,770.235 339.105,770.658 Z" marker-start="none" marker-end="none"/>
    </g>
   </g>
  </g>
 </g>
</svg>
