<?xml version="1.0" standalone="no"?>
<!DOCTYPE svg PUBLIC "-//W3C//DTD SVG 1.1//EN" "http://www.w3.org/Graphics/SVG/1.1/DTD/svg11.dtd">
<!--Generator: Xara Designer (www.xara.com), SVG filter version: 6.6.0.0-->
<svg fill="none" fill-rule="evenodd" stroke="black" stroke-width="0.501" stroke-linejoin="bevel" stroke-miterlimit="10" font-family="Times New Roman" font-size="16" style="font-variant-ligatures:none" xmlns:xlink="http://www.w3.org/1999/xlink" xmlns="http://www.w3.org/2000/svg" version="1.1" overflow="visible" width="107.718pt" height="215.435pt" viewBox="426.804 -537.953 107.718 215.435">
 <defs>
	</defs>
 <g id="Page background" transform="scale(1 -1)"/>
 <g id="Layer 1" transform="scale(1 -1)">
  <g id="Group">
   <g id="Group_1" stroke-linejoin="miter" stroke="none">
    <path d="M 458.463,322.518 L 458.463,322.52 L 440.308,322.52 C 432.854,322.52 426.804,329.335 426.804,337.732 L 426.804,522.741 C 426.804,531.138 432.854,537.953 440.308,537.953 L 521.018,537.953 C 528.472,537.953 534.522,531.138 534.522,522.741 L 534.522,337.732 C 534.522,329.335 528.472,322.52 521.018,322.52 L 510.744,322.52 L 510.744,322.518 L 458.463,322.518 Z" fill="#7f7f7f" marker-start="none" marker-end="none"/>
    <path d="M 458.755,323.228 L 458.755,323.23 L 440.839,323.23 C 433.484,323.23 427.513,330 427.513,338.341 L 427.513,522.132 C 427.513,530.473 433.484,537.243 440.839,537.243 L 520.487,537.243 C 527.842,537.243 533.813,530.473 533.813,522.132 L 533.813,338.341 C 533.813,330 527.842,323.23 520.487,323.23 L 510.348,323.23 L 510.348,323.228 L 458.755,323.228 Z" fill="#ffffff" marker-start="none" marker-end="none"/>
   </g>
   <g id="Group_2" fill-rule="nonzero" stroke-linejoin="round" stroke-linecap="round" stroke="none" stroke-width="0.406" fill="#000000">
    <g id="Group_3">
     <path d="M 442.787,528.348 L 442.782,526.774 L 440.376,526.782 L 440.354,519.803 L 438.371,519.809 L 438.392,526.788 L 435.986,526.795 L 435.991,528.369 L 442.787,528.348 Z" marker-start="none" marker-end="none"/>
     <path d="M 449.116,528.328 L 449.111,526.801 L 445.601,526.812 L 445.595,524.814 L 448.283,524.806 L 448.279,523.339 L 445.591,523.347 L 445.584,521.312 L 449.094,521.301 L 449.089,519.774 L 443.584,519.791 L 443.611,528.345 L 449.116,528.328 Z" marker-start="none" marker-end="none"/>
     <path d="M 458.173,519.746 L 456.636,519.751 C 456.464,519.751 456.322,519.792 456.211,519.872 C 456.099,519.953 456.022,520.056 455.98,520.181 L 455.48,521.674 L 452.228,521.684 L 451.719,520.194 C 451.68,520.085 451.603,519.986 451.489,519.899 C 451.375,519.811 451.236,519.767 451.072,519.768 L 449.523,519.773 L 452.859,528.315 L 454.89,528.309 L 458.173,519.746 Z M 452.69,523.033 L 455.026,523.026 L 454.247,525.334 C 454.196,525.48 454.137,525.653 454.069,525.852 C 454.001,526.05 453.935,526.265 453.869,526.496 C 453.805,526.262 453.74,526.044 453.673,525.844 C 453.606,525.644 453.543,525.471 453.484,525.324 L 452.69,523.033 Z" marker-start="none" marker-end="none"/>
     <path d="M 463.249,523.613 C 463.326,523.464 463.401,523.308 463.473,523.146 C 463.545,522.984 463.614,522.819 463.68,522.649 C 463.747,522.822 463.818,522.99 463.893,523.153 C 463.968,523.317 464.044,523.475 464.123,523.628 L 466.331,527.971 C 466.371,528.045 466.411,528.103 466.452,528.145 C 466.493,528.186 466.539,528.216 466.59,528.236 C 466.641,528.255 466.699,528.265 466.764,528.265 C 466.828,528.265 466.903,528.264 466.99,528.264 L 468.504,528.259 L 468.478,519.714 L 466.729,519.719 L 466.743,524.573 C 466.744,524.809 466.757,525.064 466.781,525.338 L 464.502,521.017 C 464.432,520.882 464.336,520.781 464.217,520.711 C 464.097,520.643 463.961,520.608 463.809,520.609 L 463.539,520.61 C 463.386,520.61 463.25,520.645 463.131,520.715 C 463.012,520.785 462.917,520.887 462.847,521.022 L 460.583,525.363 C 460.599,525.228 460.61,525.093 460.617,524.96 C 460.625,524.827 460.628,524.704 460.628,524.592 L 460.613,519.738 L 458.864,519.744 L 458.89,528.289 L 460.405,528.284 C 460.491,528.284 460.566,528.284 460.631,528.284 C 460.695,528.284 460.753,528.273 460.804,528.254 C 460.854,528.234 460.9,528.203 460.941,528.162 C 460.982,528.12 461.022,528.062 461.061,527.987 L 463.249,523.613 Z" marker-start="none" marker-end="none"/>
    </g>
   </g>
   <path d="M 485.057,344.977 C 485.177,345.068 485.432,345.29 485.676,345.422 C 486.091,345.697 486.537,346.143 486.975,346.782 C 487.196,347.128 487.227,347.167 487.115,348.7 C 487.074,349.298 487.105,349.603 487.186,349.795 C 487.359,350.09 487.319,352.717 487.135,352.891 C 487.074,352.941 487.025,353.184 487.015,353.438 C 487.015,353.68 486.954,354.067 486.883,354.291 C 486.802,354.513 486.71,355.213 486.649,355.822 C 486.598,356.42 486.486,357.11 486.394,357.344 C 486.325,357.568 486.264,357.892 486.264,358.065 C 486.244,358.227 486.213,358.47 486.162,358.592 C 486.101,358.724 486.061,359.068 486.05,359.373 C 486.04,359.667 485.969,360.104 485.898,360.326 C 485.827,360.54 485.766,360.914 485.766,361.108 C 485.766,361.331 485.696,361.594 485.615,361.696 C 485.523,361.818 485.483,362.123 485.483,362.793 C 485.483,363.33 485.401,364.01 485.31,364.446 C 485.187,364.983 485.147,365.541 485.157,366.719 C 485.177,367.916 485.137,368.382 485.016,368.688 C 484.925,368.971 484.864,369.518 484.864,370.715 C 484.843,371.619 484.803,372.826 484.742,373.383 C 484.691,373.961 484.62,374.865 484.558,375.403 C 484.477,376.579 484.447,376.51 485.584,377.696 C 486.517,378.69 486.74,378.914 487.268,379.573 C 488.434,380.963 489.012,381.602 490.596,383.235 C 491.275,383.966 492.108,384.737 492.411,384.981 C 493.386,385.72 496.49,388.816 497.099,389.636 C 497.534,390.237 497.84,391.2 497.84,392.144 C 497.85,392.427 497.88,392.854 497.942,393.076 C 498.255,394.507 498.306,394.922 498.397,396.07 C 498.438,396.771 498.53,397.733 498.601,398.23 C 498.784,399.347 498.723,410.111 498.55,412.545 C 498.397,414.373 498.336,418.076 498.438,418.208 C 498.591,418.399 498.611,418.867 498.611,421.434 C 498.611,423.392 498.652,424.164 498.733,424.335 C 498.853,424.569 498.805,425.371 498.611,426.7 C 498.57,426.983 498.581,427.237 498.672,427.431 C 498.744,427.632 498.764,427.744 498.682,427.815 C 498.621,427.866 498.611,427.978 498.672,428.07 C 498.805,428.332 498.976,430.423 498.965,431.691 C 498.976,432.857 498.864,433.407 498.632,433.557 C 498.57,433.578 498.54,433.669 498.54,433.74 C 498.53,433.913 497.819,434.654 497.514,434.805 C 497.333,434.897 497.323,434.937 497.425,435.059 C 497.475,435.141 497.616,435.243 497.748,435.283 C 497.962,435.375 498.003,435.505 497.952,436.073 C 497.942,436.368 497.88,436.49 497.425,437.353 C 497.262,437.626 497.028,438.082 496.916,438.367 C 496.806,438.662 496.653,439.006 496.592,439.159 C 496.287,439.828 495.973,442.131 496.156,442.344 C 496.195,442.405 496.439,442.568 496.653,442.668 C 497.19,442.922 497.534,443.378 497.534,443.785 C 497.534,443.956 497.425,444.363 497.272,444.677 C 497.119,444.972 496.926,445.479 496.816,445.784 C 496.714,446.087 496.592,446.393 496.521,446.464 C 496.46,446.523 496.399,446.635 496.399,446.716 C 496.399,446.788 496.358,446.889 496.307,446.95 C 496.177,447.062 495.973,447.376 495.831,447.712 C 495.78,447.832 495.678,447.964 495.617,448.005 C 495.566,448.035 495.517,448.219 495.507,448.422 C 495.497,448.756 495.507,448.776 495.912,448.868 C 496.195,448.929 496.46,448.929 496.745,448.847 C 496.956,448.797 497.486,448.756 497.911,448.756 C 498.703,448.756 499.088,448.888 499.594,449.283 C 499.808,449.466 500.223,450.126 500.203,450.289 C 500.203,450.329 500.284,450.439 500.356,450.51 C 500.437,450.602 500.498,450.734 500.498,450.856 C 500.498,450.968 500.559,451.15 500.63,451.241 C 500.702,451.343 500.771,451.526 500.771,451.638 C 500.771,451.748 500.842,451.962 500.893,452.114 C 500.974,452.257 501.046,452.55 501.046,452.753 C 501.035,452.957 501.107,453.209 501.188,453.291 C 501.249,453.413 501.32,453.678 501.32,453.899 C 501.32,454.113 501.361,454.478 501.44,454.691 C 501.664,455.341 501.878,458.465 501.817,459.967 C 501.756,461.235 501.512,463.792 501.392,464.248 C 501.361,464.36 501.3,464.917 501.239,465.485 C 501.198,466.045 501.117,466.674 501.066,466.875 C 500.964,467.242 500.852,467.962 500.671,469.625 C 500.62,470.043 500.529,470.468 500.478,470.57 C 500.417,470.661 500.376,471.087 500.356,471.482 C 500.356,471.889 500.305,472.446 500.264,472.729 C 500.203,473.004 500.132,473.623 500.062,474.079 C 500.012,474.547 499.93,474.972 499.879,475.013 C 499.849,475.074 499.778,475.459 499.727,475.907 C 499.706,476.342 499.605,476.788 499.533,476.88 C 499.454,476.992 499.403,477.154 499.403,477.285 C 499.403,477.661 499.026,478.127 498.57,478.341 C 498.326,478.473 498.003,478.624 497.85,478.746 C 497.363,479.092 496.785,479.345 496.48,479.345 C 496.307,479.345 496.106,479.395 495.983,479.467 C 495.882,479.528 495.314,479.589 494.756,479.64 C 493.152,479.711 491.874,479.882 491.56,480.055 C 491.275,480.177 491.214,480.177 490.84,480.045 L 490.412,479.892 L 490.15,480.167 C 489.936,480.381 489.824,480.431 489.45,480.431 C 489.063,480.431 488.79,480.511 488.253,480.816 C 488.171,480.857 487.846,481.03 487.542,481.17 C 486.669,481.598 486.547,481.7 485.888,482.267 C 485.645,482.479 485.411,482.754 485.36,482.876 C 485.35,482.968 485.187,483.271 485.027,483.515 C 484.884,483.759 484.752,484.042 484.752,484.134 C 484.752,484.215 484.691,484.388 484.62,484.559 C 484.418,484.926 484.436,485.331 484.67,485.807 C 484.864,486.214 484.894,486.214 485.187,486.173 C 485.432,486.133 485.523,486.153 485.595,486.306 C 485.676,486.477 485.766,486.497 486.234,486.456 C 486.73,486.416 486.802,486.426 487.166,486.69 C 487.38,486.863 487.553,487.026 487.553,487.075 C 487.553,487.116 487.703,487.34 487.917,487.574 C 488.253,487.928 488.304,488.05 488.344,488.547 C 488.393,489.054 488.434,489.145 488.861,489.562 L 489.328,490.008 L 489.287,490.688 L 489.256,491.378 L 489.572,491.378 C 489.936,491.388 490.048,491.592 489.824,491.844 C 489.623,492.068 489.633,492.211 489.906,492.331 C 490.048,492.392 490.15,492.514 490.16,492.585 C 490.18,492.89 490.201,493.122 490.221,493.357 C 490.221,493.499 490.321,493.701 490.412,493.833 C 490.84,494.289 490.901,494.472 490.891,495.009 C 490.891,495.335 490.84,495.557 490.779,495.587 C 490.718,495.598 490.596,495.699 490.494,495.801 C 490.321,495.994 490.321,495.994 490.596,496.216 C 490.738,496.349 490.86,496.501 490.86,496.542 C 490.86,496.623 490.952,496.746 491.225,497.059 C 491.286,497.13 491.357,497.405 491.357,497.637 C 491.367,497.983 491.316,498.146 491.143,498.337 C 490.881,498.643 490.565,498.673 490.402,498.388 C 490.331,498.266 490.241,498.225 490.109,498.266 C 489.987,498.307 489.936,498.266 489.895,498.126 C 489.865,498.014 489.794,497.942 489.743,497.932 C 489.643,497.932 489.643,498.034 489.682,498.337 C 489.722,498.551 489.743,499.149 489.743,499.666 C 489.722,500.56 489.712,500.631 489.338,501.342 C 489.114,501.757 488.912,502.111 488.882,502.142 C 488.729,502.223 488.393,502.964 488.393,503.178 C 488.393,503.552 488.283,503.603 487.431,503.644 C 486.598,503.684 486.325,503.807 485.635,504.405 C 485.513,504.517 485.35,504.649 485.279,504.69 C 485.187,504.749 484.864,504.973 484.528,505.197 C 484.215,505.429 483.807,505.632 483.647,505.673 C 483.494,505.724 482.59,505.775 481.648,505.795 C 480.013,505.826 479.912,505.836 479.588,506.058 C 479.262,506.271 478.857,506.404 478.035,506.556 C 477.436,506.687 477.072,506.676 476.706,506.516 C 476.525,506.424 476.27,506.363 476.158,506.363 C 476.016,506.363 475.855,506.251 475.712,506.068 C 475.56,505.846 475.387,505.775 475.195,505.744 C 475.043,505.734 474.88,505.693 474.819,505.653 C 474.758,505.632 474.717,505.653 474.717,505.734 C 474.717,505.887 474.505,505.999 474.312,505.948 C 474.21,505.887 474.007,505.602 473.714,505.064 C 473.632,504.963 473.561,504.851 473.5,504.851 C 473.449,504.851 473.408,504.718 473.408,504.568 C 473.408,504.293 473.398,504.283 473.136,504.334 C 472.759,504.415 472.385,504.02 472.385,503.572 C 472.385,503.31 472.344,503.228 472.069,503.127 C 471.888,503.055 471.745,502.943 471.735,502.893 C 471.745,502.852 471.623,502.77 471.471,502.732 C 471.259,502.691 471.218,502.64 471.239,502.467 C 471.279,502.345 471.228,502.121 471.137,501.96 C 471.055,501.798 471.004,501.543 471.004,501.382 C 471.004,501.148 471.035,501.108 471.239,501.108 C 471.43,501.108 471.471,501.046 471.471,500.812 C 471.471,500.529 471.42,500.499 471.025,500.529 C 470.791,500.55 470.64,500.295 470.801,500.143 C 470.933,500.012 470.66,499.554 470.335,499.363 C 470.021,499.19 469.991,499.058 470.274,499.017 C 470.549,498.976 470.589,498.834 470.386,498.561 C 470.223,498.378 470.172,498.368 469.869,498.459 C 469.553,498.541 469.512,498.51 469.372,498.307 C 469.24,498.095 469.179,498.085 468.792,498.136 C 467.9,498.246 467.829,497.769 468.611,497.1 C 469.189,496.583 469.209,496.542 468.833,496.318 C 468.641,496.206 468.509,496.056 468.499,495.984 C 468.509,495.923 468.285,495.437 468.043,494.928 C 467.473,493.772 467.432,493.377 467.88,492.901 C 468.023,492.728 468.265,492.565 468.397,492.524 C 468.641,492.463 469.006,492.231 469.431,491.844 C 469.635,491.651 469.665,491.561 469.604,491.276 C 469.584,491.093 469.533,490.678 469.512,490.352 C 469.472,489.825 469.472,489.774 469.686,489.664 C 469.797,489.603 470.223,489.512 470.65,489.491 C 471.3,489.451 471.399,489.43 471.42,489.267 C 471.45,489.125 471.42,489.104 471.198,489.145 C 470.801,489.227 470.518,489.054 470.518,488.801 C 470.518,488.537 470.65,488.414 471.045,488.325 C 471.218,488.305 471.348,488.223 471.348,488.182 C 471.348,488.121 471.43,488.091 471.521,488.091 C 471.705,488.091 471.939,487.877 472.038,487.604 C 472.089,487.472 472.181,487.462 472.568,487.503 C 473.003,487.564 473.044,487.553 473.044,487.391 C 473.044,487.289 473.115,487.106 473.197,486.996 C 473.337,486.813 473.337,486.802 473.166,486.802 C 472.881,486.802 472.739,486.548 472.8,486.184 C 472.881,485.827 473.278,485.382 473.541,485.382 C 473.714,485.392 474.088,484.977 474.088,484.783 C 474.088,484.712 474.261,484.559 474.465,484.429 C 475.012,484.073 475.59,483.536 475.59,483.383 C 475.601,483.322 475.438,483.169 475.216,483.059 C 474.961,482.896 474.829,482.744 474.748,482.499 C 474.656,482.196 474.241,481.486 474.098,481.374 C 474.078,481.354 473.907,481.221 473.734,481.091 C 473.571,480.959 473.298,480.735 473.136,480.582 C 472.851,480.34 472.769,480.33 472.374,480.381 C 472.038,480.421 471.796,480.391 471.491,480.279 C 471.259,480.187 470.974,480.096 470.842,480.075 C 470.72,480.045 470.549,479.973 470.467,479.892 C 470.396,479.833 470.243,479.762 470.141,479.731 C 470.04,479.701 469.726,479.589 469.441,479.467 C 469.158,479.355 468.741,479.222 468.509,479.184 C 468.285,479.123 468.063,479.051 468.002,479.011 C 467.951,478.95 467.343,478.899 466.683,478.878 C 465.525,478.838 465.435,478.828 464.815,478.514 C 464.461,478.341 463.974,478.117 463.771,478.015 C 463.396,477.844 462.999,477.458 462.999,477.264 C 462.999,477.215 462.887,477.032 462.767,476.88 C 462.279,476.22 462.067,475.135 461.904,472.406 C 461.863,471.614 461.792,470.661 461.731,470.295 C 461.68,469.951 461.619,469.22 461.599,468.713 C 461.558,468.194 461.499,467.708 461.438,467.647 C 461.387,467.586 461.336,467.16 461.316,466.704 C 461.285,466.096 461.214,465.78 461.051,465.416 C 460.829,464.999 460.809,464.767 460.768,463.598 C 460.758,462.857 460.697,462.208 460.636,462.139 C 460.524,461.996 460.504,460.525 460.605,460.049 C 460.646,459.876 460.717,459.216 460.758,458.587 C 460.809,457.968 460.888,457.38 460.939,457.278 C 460.99,457.187 461.051,456.843 461.102,456.548 C 461.143,456.244 461.194,455.959 461.255,455.888 C 461.295,455.837 461.346,455.564 461.377,455.29 C 461.407,455.007 461.489,454.742 461.54,454.681 C 461.578,454.63 461.639,454.508 461.639,454.396 C 461.639,454.134 461.935,453.515 462.35,452.876 C 463.04,451.85 463.213,451.779 464.876,451.709 C 466.225,451.658 466.956,451.587 467.363,451.516 C 467.534,451.485 467.565,451.424 467.524,451.17 C 467.504,450.999 467.432,450.724 467.383,450.582 C 467.078,449.68 466.875,449.01 466.714,448.198 C 466.673,447.964 466.581,447.712 466.551,447.62 C 466.5,447.529 466.439,447.244 466.388,446.971 C 466.358,446.686 466.276,446.372 466.215,446.24 C 466.134,446.108 466.075,445.935 466.075,445.874 C 466.075,445.804 466.044,445.682 466.003,445.591 C 465.425,444.506 465.374,443.956 465.79,443.561 C 465.932,443.429 466.123,443.327 466.215,443.327 C 466.307,443.327 466.52,443.246 466.724,443.167 L 467.048,442.994 L 466.997,442.456 C 466.976,442.151 466.895,441.817 466.844,441.725 C 466.803,441.644 466.765,441.41 466.765,441.208 C 466.765,441.005 466.632,440.59 466.449,440.193 C 466.276,439.839 466.075,439.391 466.014,439.23 C 465.952,439.057 465.769,438.782 465.606,438.601 C 464.937,437.952 464.42,436.551 464.42,435.475 C 464.42,434.815 464.42,434.774 464.725,434.522 C 464.786,434.461 464.845,434.41 464.896,434.38 C 464.695,433.812 464.654,433.183 464.815,432.594 C 464.807,432.584 464.796,432.574 464.786,432.564 C 464.593,432.472 464.42,431.082 464.399,429.773 L 464.399,429.012 L 464.379,429.002 C 464.369,428.79 464.379,428.576 464.42,428.373 L 464.389,428.292 C 464.349,428.161 464.349,427.876 464.369,427.713 C 464.42,427.522 464.44,427.441 464.562,427.42 C 464.552,427.084 464.593,426.73 464.715,426.394 C 464.695,426.333 464.695,426.234 464.695,426.061 C 464.695,425.796 464.684,425.086 464.654,424.487 C 464.613,423.586 464.634,423.341 464.745,423.219 C 464.766,423.199 464.796,423.148 464.825,423.107 C 464.745,422.631 464.766,422.134 464.916,421.666 C 464.916,421.139 464.957,420.398 465.059,419.83 C 465.273,418.542 465.303,418.249 465.191,418.208 C 465.11,418.198 465.212,418.015 465.385,417.75 C 465.718,417.274 466.064,416.543 466.075,416.28 C 466.075,416.209 466.144,415.975 466.256,415.774 C 466.358,415.57 466.5,415.254 466.561,415.084 C 466.683,414.676 466.976,413.854 467.18,413.419 C 467.241,413.266 467.302,413.064 467.302,412.952 C 467.302,412.871 467.394,412.576 467.483,412.313 C 467.595,412.059 467.727,411.593 467.778,411.277 C 467.86,410.974 467.961,410.538 468.023,410.304 C 468.092,410.07 468.183,409.655 468.224,409.35 C 468.244,409.057 468.316,408.792 468.356,408.761 C 468.407,408.741 468.468,408.468 468.509,408.173 C 468.529,407.89 468.611,407.554 468.631,407.453 C 468.945,406.681 469.128,405.981 469.128,405.545 C 469.148,405.222 469.25,404.723 469.411,404.226 C 469.655,403.557 469.706,403.294 469.706,402.492 C 469.716,401.589 469.818,401.072 470.152,400.341 C 470.253,400.088 470.386,399.307 470.518,397.957 C 470.549,397.713 470.681,397.247 470.852,396.921 C 471.106,396.404 471.147,396.211 471.157,395.572 C 471.167,395.177 471.239,394.507 471.31,394.092 C 471.389,393.675 471.491,392.631 471.511,391.747 C 471.562,390.489 471.623,390.043 471.766,389.557 C 471.969,388.898 471.969,388.338 471.715,388.065 C 471.481,387.79 471.521,387.011 471.817,386.675 C 472.059,386.38 472.1,385.985 471.969,385.386 C 471.908,385.112 472.069,384.393 472.222,384.19 C 472.273,384.118 472.354,383.449 472.385,382.677 C 472.466,381.246 472.486,381.024 472.649,380.334 C 472.779,379.797 472.759,379.349 472.619,379.176 C 472.374,378.893 471.817,378.04 471.817,377.959 C 471.817,377.898 471.633,377.605 471.399,377.269 C 470.569,376.062 469.777,374.865 469.767,374.804 C 469.777,374.763 469.645,374.542 469.512,374.307 C 469.087,373.689 468.509,372.441 468.163,371.344 C 468.122,371.214 468.053,371.183 467.819,371.234 C 467.646,371.264 467.453,371.334 467.404,371.374 C 467.363,371.415 467.119,371.476 466.895,371.517 C 466.663,371.558 466.388,371.629 466.276,371.69 C 466.185,371.771 466.014,371.832 465.932,371.832 C 465.841,371.832 465.535,371.893 465.293,371.975 C 464.916,372.095 464.603,372.125 463.933,372.064 C 463.427,372.054 462.999,371.975 462.928,371.924 C 462.867,371.853 462.655,371.802 462.462,371.802 C 462.228,371.792 461.996,371.741 461.884,371.629 C 461.619,371.405 461.275,370.674 461.275,370.33 C 461.285,370.178 461.234,370.007 461.163,369.956 C 461.082,369.854 461.061,369.276 461.061,367.743 C 461.082,365.39 461.143,364.942 461.479,364.446 C 461.721,364.102 461.721,364.061 461.67,363.015 C 461.599,361.158 461.346,358.297 461.214,357.8 C 461.051,357.222 461.051,353.53 461.214,352.941 C 461.275,352.748 461.346,352.382 461.387,352.15 C 461.468,351.732 461.599,351.348 461.985,350.556 C 462.197,350.08 463.101,349.176 463.577,348.954 C 464.096,348.72 464.684,348.761 465.089,349.046 C 465.374,349.237 465.435,349.339 465.374,349.471 C 465.344,349.583 465.303,349.968 465.273,350.344 C 465.262,350.709 465.191,351.185 465.14,351.419 C 465.039,351.804 465.059,351.926 465.324,352.748 C 465.474,353.234 465.688,353.772 465.759,353.965 C 466.075,354.655 467.007,355.781 468.092,356.817 C 470.314,358.936 471.055,359.85 471.969,361.645 C 472.161,361.991 472.456,362.508 472.619,362.803 C 472.8,363.086 472.942,363.371 472.942,363.412 C 472.942,363.442 473.064,363.634 473.227,363.796 C 473.459,364.041 473.602,364.112 473.866,364.112 C 474.21,364.112 474.982,364.568 474.982,364.771 C 474.982,364.82 475.185,365.075 475.438,365.349 C 475.692,365.632 475.975,365.958 476.087,366.09 C 476.229,366.282 476.291,366.302 476.423,366.19 C 476.494,366.129 476.575,365.968 476.575,365.846 C 476.575,365.734 476.604,365.622 476.655,365.571 C 476.706,365.541 476.808,365.39 476.838,365.217 C 477.031,364.619 477.253,364.061 477.609,363.33 C 478.137,362.233 478.817,360.58 478.908,360.165 C 479.03,359.516 479.091,358.795 479.03,358.683 C 478.979,358.602 478.99,358.358 479.051,358.126 C 479.101,357.902 479.142,357.588 479.142,357.395 C 479.142,356.937 479.313,356.776 479.901,356.634 C 480.298,356.512 480.431,356.461 480.39,356.318 C 480.39,356.229 480.431,356.066 480.482,355.974 C 480.581,355.791 480.683,354.808 480.693,353.601 C 480.703,353.092 480.683,352.891 480.551,352.758 C 480.471,352.656 480.39,352.544 480.39,352.463 C 480.39,352.422 480.278,352.251 480.135,352.099 C 479.993,351.926 479.781,351.673 479.649,351.47 C 479.507,351.287 479.323,351.093 479.193,351.024 C 479.091,350.963 478.99,350.851 478.99,350.8 C 478.99,350.739 478.786,350.474 478.534,350.192 C 477.538,349.135 477.294,347.969 477.844,346.914 C 477.974,346.609 478.086,346.285 478.086,346.143 C 478.086,345.748 478.513,345.484 480.034,344.916 C 481.151,344.5 484.579,344.549 485.057,344.977 Z M 482.712,392.144 C 482.987,393.239 482.987,393.382 482.865,394.273 C 482.784,394.892 482.753,395.796 482.784,396.962 C 482.814,397.937 482.845,400.361 482.855,402.319 C 482.885,404.288 482.926,405.912 482.957,405.912 C 483.048,405.912 483.443,404.835 483.443,404.603 C 483.443,404.491 483.504,404.247 483.586,404.064 C 484.276,402.167 484.558,400.239 484.67,396.822 C 484.742,394.813 484.732,394.599 484.589,394.466 C 484.467,394.334 484.436,394.204 484.477,393.98 C 484.569,393.392 484.235,392.671 483.586,392.042 C 482.814,391.291 482.509,391.322 482.712,392.144 Z" fill="#a08b20" stroke="none" stroke-linejoin="miter" marker-start="none" marker-end="none"/>
   <path d="M 490.412,367.845 C 497.363,373.709 507.773,372.836 513.627,365.877 C 519.501,358.897 518.618,348.455 511.669,342.591 C 504.738,336.707 494.329,337.58 488.444,344.549 C 482.59,351.51 483.474,361.95 490.412,367.845 Z" stroke="none" fill="#ffffff" stroke-width="0.68" stroke-linejoin="miter" marker-start="none" marker-end="none"/>
   <path d="M 491.184,368.454 C 498.153,374.348 508.554,373.455 514.408,366.485 C 520.283,359.536 519.399,349.086 512.46,343.202 C 505.499,337.325 495.1,338.199 489.236,345.168 C 483.372,352.139 484.245,362.559 491.184,368.454 Z" stroke="#539bc5" stroke-width="3.743" stroke-linejoin="miter" marker-start="none" marker-end="none"/>
   <g id="Group_4" fill-rule="nonzero" stroke-linejoin="round" stroke-linecap="round" stroke="none" stroke-width="0.782" fill="#000000">
    <g id="Group_5">
     <path d="M 498.257,350.721 L 501.088,350.721 L 501.088,358.152 C 501.088,358.516 501.098,358.897 501.118,359.295 L 499.45,357.909 C 499.342,357.822 499.234,357.759 499.126,357.722 C 499.018,357.685 498.914,357.667 498.813,357.667 C 498.638,357.667 498.481,357.706 498.343,357.783 C 498.205,357.861 498.102,357.943 498.034,358.031 L 497.044,359.345 L 501.634,363.198 L 504.222,363.198 L 504.222,350.721 L 506.648,350.721 L 506.648,348.455 L 498.257,348.455 L 498.257,350.721 Z" marker-start="none" marker-end="none"/>
    </g>
   </g>
   <g id="Group_6" fill-rule="nonzero" stroke-linejoin="round" stroke-linecap="round" stroke="none" stroke-width="0.405" fill="#a08b20">
    <g id="Group_7">
     <path d="M 441.121,359.274 C 441.12,359.543 441.096,359.781 441.049,359.988 C 441.002,360.195 440.941,360.39 440.864,360.574 L 439.59,360.567 L 439.595,359.738 C 439.595,359.615 439.563,359.519 439.498,359.449 C 439.434,359.38 439.351,359.345 439.251,359.344 L 438.18,359.338 L 438.163,362.32 L 441.703,362.341 C 441.862,362.127 441.998,361.904 442.113,361.673 C 442.228,361.441 442.322,361.194 442.397,360.931 C 442.471,360.669 442.527,360.389 442.563,360.092 C 442.599,359.795 442.618,359.475 442.62,359.134 C 442.624,358.519 442.519,357.951 442.305,357.427 C 442.091,356.904 441.794,356.451 441.415,356.066 C 441.035,355.682 440.584,355.38 440.061,355.16 C 439.538,354.94 438.97,354.829 438.356,354.825 C 437.73,354.821 437.154,354.922 436.629,355.126 C 436.104,355.33 435.65,355.624 435.268,356.007 C 434.886,356.391 434.587,356.855 434.373,357.401 C 434.159,357.947 434.049,358.557 434.045,359.233 C 434.043,359.582 434.07,359.91 434.126,360.218 C 434.182,360.525 434.259,360.809 434.358,361.068 C 434.456,361.328 434.574,361.566 434.711,361.782 C 434.848,361.997 434.997,362.19 435.157,362.36 L 436.018,361.801 C 436.099,361.748 436.163,361.684 436.209,361.609 C 436.256,361.534 436.279,361.453 436.28,361.365 C 436.281,361.25 436.243,361.13 436.167,361.007 C 436.076,360.853 435.997,360.708 435.93,360.571 C 435.864,360.434 435.81,360.295 435.769,360.153 C 435.728,360.01 435.698,359.861 435.68,359.703 C 435.661,359.546 435.653,359.369 435.654,359.173 C 435.656,358.809 435.722,358.481 435.852,358.19 C 435.983,357.899 436.165,357.651 436.401,357.447 C 436.636,357.244 436.918,357.087 437.247,356.977 C 437.575,356.868 437.941,356.815 438.344,356.817 C 438.789,356.82 439.184,356.883 439.529,357.008 C 439.873,357.133 440.164,357.305 440.4,357.523 C 440.637,357.741 440.817,357.999 440.94,358.297 C 441.063,358.596 441.123,358.921 441.121,359.274 Z" marker-start="none" marker-end="none"/>
     <path d="M 439.387,365.459 L 442.49,365.477 L 442.502,363.531 L 434.113,363.482 L 434.097,366.211 C 434.094,366.817 434.153,367.335 434.275,367.763 C 434.398,368.192 434.57,368.542 434.791,368.814 C 435.012,369.086 435.274,369.284 435.577,369.409 C 435.88,369.534 436.21,369.597 436.568,369.599 C 436.84,369.601 437.098,369.566 437.341,369.494 C 437.583,369.423 437.808,369.316 438.014,369.173 C 438.221,369.03 438.405,368.855 438.568,368.647 C 438.73,368.438 438.864,368.198 438.97,367.926 C 439.034,368.057 439.114,368.18 439.209,368.293 C 439.304,368.407 439.42,368.507 439.558,368.592 L 442.461,370.394 L 442.472,368.632 C 442.474,368.306 442.352,368.071 442.107,367.927 L 439.68,366.52 C 439.573,366.458 439.497,366.385 439.451,366.303 C 439.405,366.22 439.383,366.104 439.384,365.954 L 439.387,365.459 Z M 438.046,365.451 L 438.041,366.234 C 438.04,366.499 438.005,366.724 437.937,366.91 C 437.868,367.096 437.774,367.248 437.654,367.366 C 437.535,367.484 437.395,367.57 437.235,367.623 C 437.076,367.675 436.904,367.701 436.72,367.7 C 436.351,367.698 436.064,367.576 435.858,367.335 C 435.652,367.094 435.55,366.722 435.553,366.219 L 435.558,365.436 L 438.046,365.451 Z" marker-start="none" marker-end="none"/>
     <path d="M 434.034,376.54 L 435.532,376.549 L 435.552,373.106 L 437.512,373.117 L 437.496,375.754 L 438.935,375.763 L 438.951,373.126 L 440.947,373.138 L 440.927,376.58 L 442.425,376.589 L 442.457,371.189 L 434.065,371.14 L 434.034,376.54 Z" marker-start="none" marker-end="none"/>
     <path d="M 433.995,383.045 L 435.494,383.054 L 435.514,379.611 L 437.473,379.622 L 437.458,382.259 L 438.897,382.268 L 438.913,379.631 L 440.909,379.643 L 440.888,383.085 L 442.387,383.094 L 442.419,377.694 L 434.027,377.645 L 433.995,383.045 Z" marker-start="none" marker-end="none"/>
     <path d="M 433.983,385.174 C 433.983,385.259 433.986,385.33 433.993,385.387 C 434,385.445 434.015,385.497 434.035,385.543 C 434.056,385.589 434.086,385.634 434.124,385.676 C 434.162,385.718 434.214,385.767 434.278,385.821 L 439.293,389.834 C 439.132,389.818 438.975,389.806 438.824,389.797 C 438.672,389.789 438.529,389.784 438.395,389.783 L 433.956,389.757 L 433.946,391.473 L 442.337,391.522 L 442.343,390.509 C 442.344,390.359 442.322,390.232 442.276,390.128 C 442.231,390.024 442.147,389.924 442.025,389.828 L 437.051,385.843 C 437.197,385.855 437.339,385.866 437.479,385.874 C 437.62,385.883 437.751,385.887 437.874,385.888 L 442.37,385.914 L 442.38,384.199 L 433.989,384.149 L 433.983,385.174 Z" marker-start="none" marker-end="none"/>
     <path d="M 433.893,400.475 L 435.391,400.483 L 435.412,397.041 L 437.371,397.052 L 437.355,399.689 L 438.795,399.697 L 438.81,397.061 L 440.806,397.072 L 440.786,400.515 L 442.284,400.524 L 442.316,395.124 L 433.925,395.074 L 433.893,400.475 Z" marker-start="none" marker-end="none"/>
     <path d="M 437.953,403.67 L 433.89,401.05 L 433.878,402.995 C 433.878,403.122 433.893,403.215 433.925,403.275 C 433.958,403.335 434.012,403.388 434.089,403.434 L 436.906,405.121 C 436.856,405.139 436.808,405.161 436.761,405.186 C 436.715,405.211 436.667,405.238 436.617,405.269 L 434.098,406.716 C 433.937,406.811 433.855,406.941 433.854,407.106 L 433.843,408.972 L 437.851,406.364 L 442.234,409.078 L 442.246,407.132 C 442.246,407.006 442.216,406.903 442.155,406.824 C 442.094,406.745 442.022,406.682 441.938,406.636 L 439.011,404.937 C 439.096,404.907 439.169,404.873 439.231,404.835 L 441.957,403.285 C 442.038,403.239 442.111,403.178 442.174,403.102 C 442.238,403.025 442.27,402.93 442.271,402.814 L 442.282,400.995 L 437.953,403.67 Z" marker-start="none" marker-end="none"/>
     <path d="M 433.807,415.177 L 435.305,415.186 L 435.325,411.743 L 437.285,411.755 L 437.269,414.392 L 438.708,414.4 L 438.724,411.763 L 440.72,411.775 L 440.7,415.218 L 442.198,415.227 L 442.23,409.826 L 433.838,409.777 L 433.807,415.177 Z" marker-start="none" marker-end="none"/>
     <path d="M 439.989,421.955 C 439.989,422.001 439.998,422.047 440.015,422.093 C 440.032,422.139 440.063,422.184 440.106,422.226 L 440.93,423.003 C 441.367,422.667 441.697,422.246 441.921,421.739 C 442.145,421.232 442.259,420.631 442.263,419.936 C 442.267,419.299 442.162,418.727 441.948,418.221 C 441.734,417.715 441.437,417.285 441.057,416.932 C 440.677,416.579 440.226,416.306 439.703,416.115 C 439.18,415.924 438.611,415.827 437.997,415.823 C 437.372,415.819 436.796,415.923 436.271,416.135 C 435.745,416.347 435.292,416.645 434.909,417.028 C 434.527,417.412 434.229,417.872 434.014,418.408 C 433.8,418.944 433.691,419.536 433.687,420.185 C 433.685,420.5 433.712,420.796 433.766,421.075 C 433.82,421.353 433.895,421.614 433.992,421.856 C 434.088,422.099 434.204,422.322 434.34,422.526 C 434.475,422.73 434.625,422.912 434.789,423.07 L 435.674,422.419 C 435.728,422.377 435.777,422.327 435.822,422.27 C 435.866,422.213 435.889,422.132 435.889,422.029 C 435.89,421.96 435.875,421.894 435.844,421.833 C 435.814,421.771 435.777,421.706 435.733,421.636 C 435.689,421.567 435.642,421.491 435.591,421.408 C 435.539,421.325 435.492,421.227 435.448,421.114 C 435.405,421 435.368,420.867 435.338,420.716 C 435.309,420.564 435.294,420.386 435.295,420.183 C 435.298,419.83 435.362,419.508 435.488,419.217 C 435.615,418.926 435.795,418.676 436.028,418.469 C 436.262,418.261 436.544,418.099 436.875,417.984 C 437.205,417.869 437.576,417.813 437.987,417.815 C 438.417,417.818 438.799,417.878 439.132,417.997 C 439.465,418.116 439.745,418.277 439.973,418.48 C 440.2,418.683 440.372,418.919 440.489,419.189 C 440.607,419.458 440.665,419.746 440.663,420.053 C 440.662,420.23 440.652,420.391 440.634,420.537 C 440.616,420.682 440.585,420.817 440.542,420.942 C 440.5,421.066 440.444,421.185 440.376,421.298 C 440.308,421.411 440.224,421.524 440.124,421.639 C 440.085,421.685 440.053,421.735 440.028,421.788 C 440.003,421.842 439.99,421.897 439.989,421.955 Z" marker-start="none" marker-end="none"/>
     <path d="M 440.589,427.379 C 440.587,427.64 440.543,427.873 440.455,428.078 C 440.368,428.283 440.243,428.456 440.081,428.597 C 439.919,428.738 439.721,428.845 439.489,428.918 C 439.256,428.992 438.992,429.028 438.696,429.026 L 433.727,428.997 L 433.715,430.943 L 438.685,430.972 C 439.2,430.975 439.673,430.894 440.104,430.73 C 440.534,430.565 440.906,430.329 441.219,430.02 C 441.532,429.711 441.776,429.334 441.951,428.89 C 442.127,428.446 442.216,427.945 442.219,427.389 C 442.223,426.828 442.139,426.325 441.969,425.879 C 441.799,425.432 441.559,425.053 441.25,424.74 C 440.941,424.428 440.572,424.187 440.143,424.02 C 439.714,423.852 439.242,423.767 438.728,423.764 L 433.758,423.735 L 433.746,425.681 L 438.71,425.71 C 439.005,425.712 439.269,425.751 439.501,425.827 C 439.733,425.903 439.93,426.013 440.092,426.156 C 440.255,426.299 440.378,426.473 440.463,426.679 C 440.549,426.885 440.59,427.118 440.589,427.379 Z" marker-start="none" marker-end="none"/>
     <path d="M 433.671,438.302 L 435.214,438.311 L 435.228,435.951 L 442.075,435.991 L 442.086,434.045 L 435.24,434.005 L 435.253,431.644 L 433.71,431.635 L 433.671,438.302 Z" marker-start="none" marker-end="none"/>
     <path d="M 442.045,441.289 L 442.056,439.332 L 433.665,439.282 L 433.654,441.24 L 442.045,441.289 Z" marker-start="none" marker-end="none"/>
     <path d="M 433.65,442.102 L 433.641,443.668 C 433.64,443.837 433.677,443.975 433.754,444.083 C 433.831,444.191 433.932,444.268 434.059,444.315 L 438.565,445.965 C 438.761,446.039 438.975,446.114 439.206,446.19 C 439.437,446.267 439.68,446.338 439.935,446.405 C 439.679,446.457 439.436,446.518 439.204,446.588 C 438.972,446.657 438.757,446.726 438.56,446.794 L 434.036,448.38 C 433.927,448.417 433.829,448.492 433.742,448.602 C 433.654,448.713 433.61,448.849 433.609,449.01 L 433.6,450.588 L 442.01,447.275 L 442.02,445.513 L 433.65,442.102 Z" marker-start="none" marker-end="none"/>
     <path d="M 433.563,456.677 L 435.061,456.686 L 435.081,453.243 L 437.041,453.254 L 437.025,455.891 L 438.465,455.9 L 438.48,453.263 L 440.476,453.274 L 440.456,456.717 L 441.954,456.726 L 441.986,451.326 L 433.595,451.276 L 433.563,456.677 Z" marker-start="none" marker-end="none"/>
     <path d="M 437.689,468.306 C 438.295,468.309 438.86,468.208 439.384,468.002 C 439.907,467.796 440.363,467.504 440.751,467.126 C 441.139,466.749 441.444,466.293 441.666,465.759 C 441.888,465.224 442.001,464.631 442.004,463.979 C 442.008,463.326 441.902,462.731 441.687,462.192 C 441.471,461.653 441.171,461.192 440.788,460.808 C 440.404,460.424 439.952,460.125 439.431,459.913 C 438.91,459.701 438.347,459.593 437.74,459.589 C 437.134,459.586 436.569,459.687 436.045,459.893 C 435.522,460.099 435.067,460.392 434.681,460.772 C 434.295,461.152 433.991,461.609 433.769,462.145 C 433.547,462.681 433.434,463.276 433.43,463.928 C 433.427,464.581 433.533,465.175 433.751,465.712 C 433.968,466.249 434.268,466.708 434.65,467.091 C 435.032,467.473 435.483,467.77 436.004,467.982 C 436.524,468.195 437.086,468.302 437.689,468.306 Z M 437.701,466.314 C 437.286,466.311 436.914,466.256 436.582,466.146 C 436.251,466.037 435.971,465.881 435.742,465.678 C 435.513,465.475 435.338,465.227 435.217,464.935 C 435.096,464.642 435.036,464.31 435.038,463.938 C 435.041,463.562 435.104,463.227 435.228,462.934 C 435.353,462.641 435.531,462.395 435.762,462.195 C 435.994,461.994 436.276,461.842 436.608,461.736 C 436.941,461.631 437.314,461.579 437.729,461.581 C 438.147,461.584 438.521,461.64 438.853,461.749 C 439.184,461.859 439.464,462.015 439.693,462.218 C 439.922,462.421 440.096,462.669 440.215,462.963 C 440.334,463.258 440.393,463.593 440.391,463.969 C 440.389,464.341 440.326,464.673 440.204,464.964 C 440.081,465.255 439.904,465.501 439.673,465.701 C 439.441,465.901 439.159,466.054 438.827,466.159 C 438.494,466.265 438.119,466.316 437.701,466.314 Z" marker-start="none" marker-end="none"/>
     <path d="M 433.46,474.613 L 434.959,474.621 L 434.979,471.178 L 437.101,471.191 L 437.084,474.058 L 438.589,474.067 L 438.605,471.2 L 441.871,471.219 L 441.882,469.261 L 433.492,469.212 L 433.46,474.613 Z" marker-start="none" marker-end="none"/>
     <path d="M 433.423,481.027 L 434.921,481.036 L 434.941,477.593 L 437.064,477.606 L 437.047,480.473 L 438.551,480.482 L 438.568,477.615 L 441.833,477.634 L 441.844,475.676 L 433.454,475.627 L 433.423,481.027 Z" marker-start="none" marker-end="none"/>
     <path d="M 441.793,484.221 L 441.804,482.264 L 433.413,482.215 L 433.401,484.172 L 441.793,484.221 Z" marker-start="none" marker-end="none"/>
     <path d="M 439.581,491.398 C 439.581,491.444 439.59,491.49 439.607,491.536 C 439.624,491.582 439.655,491.627 439.698,491.669 L 440.522,492.445 C 440.959,492.11 441.289,491.689 441.513,491.182 C 441.737,490.675 441.851,490.074 441.855,489.379 C 441.859,488.742 441.754,488.17 441.54,487.664 C 441.326,487.158 441.029,486.728 440.649,486.375 C 440.269,486.022 439.818,485.749 439.295,485.558 C 438.772,485.367 438.203,485.27 437.589,485.266 C 436.964,485.262 436.388,485.366 435.863,485.578 C 435.338,485.79 434.884,486.088 434.501,486.471 C 434.119,486.855 433.821,487.315 433.606,487.851 C 433.392,488.387 433.283,488.979 433.279,489.628 C 433.278,489.943 433.304,490.239 433.358,490.518 C 433.412,490.796 433.487,491.057 433.584,491.299 C 433.68,491.542 433.796,491.765 433.932,491.969 C 434.067,492.173 434.217,492.355 434.381,492.513 L 435.266,491.862 C 435.32,491.82 435.369,491.77 435.414,491.713 C 435.458,491.656 435.481,491.575 435.481,491.472 C 435.482,491.403 435.467,491.337 435.436,491.276 C 435.406,491.214 435.369,491.149 435.325,491.079 C 435.281,491.01 435.234,490.934 435.183,490.851 C 435.131,490.768 435.084,490.67 435.04,490.556 C 434.997,490.443 434.96,490.31 434.93,490.159 C 434.901,490.007 434.886,489.829 434.887,489.626 C 434.89,489.273 434.954,488.951 435.08,488.66 C 435.207,488.369 435.387,488.119 435.62,487.911 C 435.854,487.704 436.136,487.542 436.467,487.427 C 436.797,487.312 437.168,487.256 437.579,487.258 C 438.009,487.26 438.391,487.321 438.724,487.44 C 439.057,487.559 439.337,487.72 439.565,487.923 C 439.792,488.126 439.964,488.362 440.081,488.631 C 440.199,488.901 440.257,489.189 440.255,489.496 C 440.254,489.673 440.244,489.834 440.226,489.98 C 440.208,490.125 440.177,490.26 440.135,490.385 C 440.092,490.509 440.036,490.628 439.968,490.741 C 439.9,490.854 439.816,490.967 439.716,491.082 C 439.677,491.128 439.645,491.178 439.62,491.231 C 439.595,491.285 439.582,491.34 439.581,491.398 Z" marker-start="none" marker-end="none"/>
     <path d="M 433.316,498.693 L 434.814,498.702 L 434.835,495.259 L 436.794,495.271 L 436.778,497.907 L 438.218,497.916 L 438.233,495.279 L 440.229,495.291 L 440.209,498.734 L 441.707,498.742 L 441.739,493.342 L 433.348,493.293 L 433.316,498.693 Z" marker-start="none" marker-end="none"/>
     <path d="M 438.586,501.775 L 441.689,501.793 L 441.701,499.847 L 433.312,499.798 L 433.296,502.527 C 433.293,503.133 433.352,503.651 433.475,504.079 C 433.597,504.508 433.769,504.858 433.99,505.13 C 434.211,505.402 434.474,505.6 434.776,505.725 C 435.079,505.85 435.409,505.913 435.767,505.915 C 436.04,505.917 436.297,505.882 436.54,505.81 C 436.782,505.739 437.007,505.632 437.213,505.489 C 437.42,505.346 437.604,505.171 437.767,504.962 C 437.93,504.754 438.064,504.514 438.169,504.242 C 438.233,504.373 438.313,504.495 438.408,504.609 C 438.503,504.723 438.62,504.823 438.757,504.908 L 441.661,506.71 L 441.671,504.948 C 441.673,504.622 441.551,504.387 441.307,504.243 L 438.879,502.836 C 438.772,502.774 438.696,502.701 438.65,502.619 C 438.604,502.536 438.582,502.42 438.583,502.27 L 438.586,501.775 Z M 437.245,501.767 L 437.24,502.55 C 437.239,502.815 437.204,503.04 437.136,503.226 C 437.067,503.411 436.973,503.564 436.854,503.682 C 436.734,503.8 436.594,503.886 436.435,503.938 C 436.275,503.991 436.103,504.017 435.919,504.016 C 435.55,504.014 435.263,503.892 435.057,503.651 C 434.851,503.41 434.75,503.038 434.752,502.535 L 434.757,501.752 L 437.245,501.767 Z" marker-start="none" marker-end="none"/>
    </g>
   </g>
   <g id="Group_8" fill-rule="nonzero" stroke-linejoin="round" stroke-linecap="round" stroke="none" stroke-width="0.405" fill="#a08b20">
    <g id="Group_9">
     <path d="M 501.764,521.231 C 502.031,521.233 502.267,521.257 502.473,521.303 C 502.678,521.349 502.872,521.41 503.055,521.487 L 503.047,522.752 L 502.224,522.747 C 502.102,522.746 502.007,522.778 501.938,522.843 C 501.869,522.907 501.834,522.989 501.833,523.088 L 501.827,524.152 L 504.789,524.169 L 504.809,520.653 C 504.597,520.496 504.376,520.36 504.146,520.246 C 503.916,520.132 503.67,520.039 503.41,519.965 C 503.149,519.891 502.871,519.836 502.576,519.8 C 502.281,519.764 501.964,519.745 501.624,519.743 C 501.014,519.739 500.45,519.843 499.93,520.056 C 499.411,520.268 498.96,520.563 498.578,520.94 C 498.197,521.317 497.897,521.765 497.679,522.284 C 497.46,522.803 497.349,523.368 497.346,523.978 C 497.342,524.599 497.442,525.17 497.644,525.692 C 497.847,526.214 498.139,526.664 498.52,527.044 C 498.901,527.423 499.362,527.72 499.904,527.933 C 500.446,528.145 501.052,528.254 501.723,528.258 C 502.07,528.26 502.396,528.233 502.701,528.178 C 503.006,528.122 503.288,528.046 503.546,527.948 C 503.804,527.85 504.04,527.733 504.254,527.597 C 504.468,527.461 504.66,527.313 504.828,527.154 L 504.273,526.299 C 504.22,526.218 504.157,526.155 504.083,526.109 C 504.009,526.063 503.928,526.039 503.84,526.039 C 503.726,526.038 503.607,526.076 503.485,526.151 C 503.332,526.242 503.188,526.32 503.052,526.386 C 502.916,526.452 502.778,526.505 502.636,526.546 C 502.495,526.587 502.346,526.617 502.19,526.635 C 502.033,526.653 501.858,526.662 501.664,526.661 C 501.302,526.658 500.976,526.593 500.687,526.463 C 500.398,526.334 500.153,526.153 499.95,525.919 C 499.747,525.685 499.592,525.405 499.483,525.079 C 499.375,524.752 499.321,524.389 499.324,523.989 C 499.326,523.547 499.39,523.155 499.514,522.813 C 499.638,522.471 499.808,522.182 500.025,521.947 C 500.242,521.712 500.498,521.534 500.794,521.411 C 501.09,521.289 501.414,521.229 501.764,521.231 Z" marker-start="none" marker-end="none"/>
     <path d="M 511.305,528.225 L 511.314,526.737 L 507.895,526.717 L 507.906,524.771 L 510.525,524.786 L 510.533,523.357 L 507.915,523.342 L 507.926,521.36 L 511.345,521.38 L 511.354,519.892 L 505.991,519.86 L 505.942,528.193 L 511.305,528.225 Z" marker-start="none" marker-end="none"/>
     <path d="M 520.648,524.115 C 520.652,523.512 520.551,522.951 520.346,522.432 C 520.142,521.912 519.852,521.459 519.477,521.074 C 519.102,520.689 518.649,520.386 518.118,520.165 C 517.588,519.945 516.999,519.833 516.351,519.829 C 515.703,519.825 515.112,519.93 514.577,520.145 C 514.042,520.359 513.584,520.656 513.202,521.037 C 512.821,521.418 512.524,521.867 512.314,522.384 C 512.103,522.902 511.996,523.461 511.992,524.064 C 511.989,524.666 512.089,525.227 512.294,525.747 C 512.499,526.266 512.789,526.718 513.166,527.101 C 513.543,527.485 513.998,527.787 514.53,528.007 C 515.063,528.228 515.653,528.34 516.301,528.343 C 516.949,528.347 517.539,528.241 518.072,528.025 C 518.605,527.809 519.062,527.511 519.441,527.132 C 519.821,526.753 520.116,526.305 520.327,525.788 C 520.537,525.271 520.645,524.713 520.648,524.115 Z M 518.67,524.103 C 518.667,524.514 518.612,524.884 518.503,525.214 C 518.395,525.542 518.24,525.821 518.038,526.048 C 517.837,526.276 517.591,526.449 517.3,526.57 C 517.01,526.69 516.68,526.749 516.31,526.747 C 515.937,526.744 515.605,526.681 515.314,526.558 C 515.023,526.434 514.778,526.258 514.579,526.028 C 514.38,525.798 514.229,525.518 514.124,525.188 C 514.019,524.858 513.968,524.487 513.97,524.075 C 513.973,523.66 514.028,523.288 514.137,522.959 C 514.246,522.63 514.401,522.352 514.602,522.124 C 514.804,521.897 515.05,521.724 515.343,521.606 C 515.635,521.487 515.968,521.429 516.341,521.432 C 516.711,521.434 517.041,521.496 517.329,521.617 C 517.618,521.739 517.862,521.915 518.061,522.145 C 518.26,522.374 518.412,522.654 518.516,522.985 C 518.621,523.315 518.672,523.688 518.67,524.103 Z" marker-start="none" marker-end="none"/>
    </g>
   </g>
  </g>
 </g>
</svg>
