<?xml version="1.0" standalone="no"?>
<!DOCTYPE svg PUBLIC "-//W3C//DTD SVG 1.1//EN" "http://www.w3.org/Graphics/SVG/1.1/DTD/svg11.dtd">
<!--Generator: Xara Designer (www.xara.com), SVG filter version: 6.6.0.0-->
<svg fill="none" fill-rule="evenodd" stroke="black" stroke-width="0.501" stroke-linejoin="bevel" stroke-miterlimit="10" font-family="Times New Roman" font-size="16" style="font-variant-ligatures:none" xmlns:xlink="http://www.w3.org/1999/xlink" xmlns="http://www.w3.org/2000/svg" version="1.1" overflow="visible" width="107.718pt" height="215.435pt" viewBox="616.522 -537.953 107.718 215.435">
 <defs>
	</defs>
 <g id="Page background" transform="scale(1 -1)"/>
 <g id="Layer 1" transform="scale(1 -1)">
  <g id="Group" stroke="none">
   <g id="Group_1" stroke-linejoin="miter">
    <path d="M 648.181,322.518 L 648.181,322.52 L 630.026,322.52 C 622.572,322.52 616.522,329.335 616.522,337.732 L 616.522,522.741 C 616.522,531.138 622.572,537.953 630.026,537.953 L 710.736,537.953 C 718.19,537.953 724.24,531.138 724.24,522.741 L 724.24,337.732 C 724.24,329.335 718.19,322.52 710.736,322.52 L 700.462,322.52 L 700.462,322.518 L 648.181,322.518 Z" fill="#7f7f7f" marker-start="none" marker-end="none"/>
    <path d="M 648.473,323.228 L 648.473,323.23 L 630.557,323.23 C 623.202,323.23 617.231,330 617.231,338.341 L 617.231,522.132 C 617.231,530.473 623.202,537.243 630.557,537.243 L 710.205,537.243 C 717.56,537.243 723.531,530.473 723.531,522.132 L 723.531,338.341 C 723.531,330 717.56,323.23 710.205,323.23 L 700.066,323.23 L 700.066,323.228 L 648.473,323.228 Z" fill="#ffffff" marker-start="none" marker-end="none"/>
   </g>
   <g id="Group_2">
    <g id="Group_3" stroke-linejoin="miter" stroke-linecap="round" stroke-width="0.046">
     <path d="M 672.449,399.368 L 672.449,402.979 L 685.573,402.979 L 685.573,402.972 C 688.471,402.972 691.379,404.015 693.682,406.118 C 696.28,408.484 697.598,411.734 697.598,414.985 L 697.576,428.102 L 701.212,428.102 L 701.212,414.985 L 701.21,414.985 C 701.21,410.761 699.494,406.531 696.117,403.449 C 693.122,400.717 689.341,399.368 685.573,399.372 L 672.449,399.368 Z" fill="#e5e5e5" marker-start="none" marker-end="none"/>
     <path d="M 672.449,389.758 L 672.449,393.387 L 685.573,393.359 C 690.785,393.359 696.018,395.225 700.167,399.013 C 704.851,403.278 707.227,409.127 707.227,414.985 L 707.199,428.102 L 710.835,428.102 L 710.835,414.985 L 710.831,414.985 C 710.831,408.151 708.062,401.324 702.603,396.347 C 697.759,391.934 691.657,389.754 685.573,389.758 L 672.449,389.758 Z" fill="#f7e68d" marker-start="none" marker-end="none"/>
     <path d="M 672.449,384.953 L 672.449,388.581 L 685.573,388.556 C 691.947,388.556 698.339,390.829 703.411,395.466 C 709.126,400.674 712.036,407.817 712.036,414.985 L 712.011,428.102 L 715.645,428.102 L 715.645,414.985 C 715.64,406.846 712.349,398.727 705.851,392.8 C 700.08,387.545 692.819,384.953 685.573,384.953 L 672.449,384.953 Z" fill="#df56fe" marker-start="none" marker-end="none"/>
     <path d="M 672.449,394.543 L 672.449,398.166 L 685.573,398.166 C 689.626,398.166 693.695,399.619 696.924,402.562 C 700.566,405.878 702.408,410.435 702.419,414.985 L 702.39,428.102 L 706.022,428.102 L 706.022,414.985 C 706.019,409.454 703.781,403.923 699.362,399.901 C 695.439,396.324 690.494,394.559 685.573,394.559 L 672.449,394.543 Z" fill="#7ed6df" marker-start="none" marker-end="none"/>
     <path d="M 643.675,404.46 C 640.936,407.457 639.587,411.237 639.59,414.996 L 639.587,428.106 L 643.206,428.106 L 643.201,414.996 C 643.201,412.101 644.234,409.199 646.343,406.896 C 648.714,404.296 651.965,402.979 655.226,402.979 L 668.351,403.001 L 668.351,399.372 L 655.226,399.372 C 650.994,399.372 646.757,401.085 643.675,404.46 Z" fill="#e5e5e5" marker-start="none" marker-end="none"/>
     <path d="M 655.226,389.758 L 655.226,389.762 C 648.374,389.762 641.547,392.53 636.565,397.983 C 632.151,402.818 629.966,408.914 629.969,414.996 L 629.969,428.106 L 633.601,428.106 L 633.573,414.996 C 633.573,409.791 635.44,404.561 639.236,400.414 C 643.496,395.74 649.354,393.368 655.226,393.362 L 668.351,393.387 L 668.351,389.758 L 655.226,389.758 Z" fill="#f7e68d" marker-start="none" marker-end="none"/>
     <path d="M 633.009,394.74 C 627.751,400.501 625.155,407.758 625.159,414.996 L 625.159,428.106 L 628.789,428.106 L 628.766,414.996 C 628.766,408.629 631.045,402.243 635.68,397.174 C 640.897,391.463 648.048,388.56 655.226,388.56 L 668.351,388.581 L 668.351,384.953 L 655.226,384.953 C 647.074,384.96 638.944,388.251 633.009,394.74 Z" fill="#df56fe" marker-start="none" marker-end="none"/>
     <path d="M 640.121,401.22 C 636.54,405.141 634.776,410.077 634.776,414.996 L 634.755,428.106 L 638.391,428.106 L 638.391,414.996 C 638.383,410.947 639.838,406.882 642.789,403.652 C 646.106,400.017 650.667,398.173 655.226,398.17 L 668.351,398.193 L 668.351,394.566 L 655.226,394.566 C 649.68,394.57 644.153,396.811 640.121,401.22 Z" fill="#7ed6df" marker-start="none" marker-end="none"/>
    </g>
    <g id="Group_4" stroke-linejoin="miter" stroke-linecap="round" stroke-width="0.046">
     <g id="Group_5">
      <path d="M 697.582,432.208 L 697.601,445.316 C 697.601,448.57 696.283,451.821 693.686,454.19 C 691.372,456.294 688.471,457.329 685.569,457.329 L 672.449,457.324 L 672.449,460.941 L 685.569,460.936 C 689.341,460.941 693.118,459.592 696.117,456.86 C 699.494,453.777 701.21,449.548 701.21,445.316 L 701.212,445.316 L 701.212,432.208 L 697.582,432.208 Z" fill="#e5e5e5" marker-start="none" marker-end="none"/>
      <path d="M 707.202,432.208 L 707.227,445.316 C 707.224,451.177 704.849,457.031 700.17,461.295 C 696.016,465.078 690.788,466.948 685.569,466.948 L 672.449,466.92 L 672.449,470.549 L 685.569,470.549 C 691.657,470.553 697.759,468.373 702.603,463.954 C 708.059,458.983 710.831,452.158 710.831,445.316 L 710.835,432.208 L 707.202,432.208 Z" fill="#f7e68d" marker-start="none" marker-end="none"/>
      <path d="M 712.015,432.208 L 712.036,445.316 C 712.036,452.487 709.131,459.629 703.411,464.845 C 698.339,469.474 691.947,471.751 685.569,471.751 L 672.449,471.726 L 672.449,475.351 L 685.569,475.351 C 692.819,475.354 700.085,472.766 705.853,467.507 C 712.347,461.582 715.64,453.464 715.645,445.316 L 715.645,432.208 L 712.015,432.208 Z" fill="#df56fe" marker-start="none" marker-end="none"/>
      <path d="M 702.39,432.208 L 702.417,445.316 C 702.412,449.874 700.566,454.431 696.927,457.742 C 693.7,460.69 689.626,462.141 685.569,462.139 L 672.449,462.139 L 672.449,465.766 L 685.569,465.741 C 690.5,465.741 695.439,463.979 699.362,460.403 C 703.781,456.377 706.019,450.85 706.022,445.316 L 706.022,432.208 L 702.39,432.208 Z" fill="#7ed6df" marker-start="none" marker-end="none"/>
     </g>
     <g id="Group_6">
      <path d="M 639.587,432.203 L 639.587,445.308 L 639.592,445.308 C 639.587,449.072 640.936,452.85 643.668,455.847 C 646.761,459.22 650.994,460.932 655.226,460.932 L 655.226,460.936 L 668.344,460.936 L 668.344,457.308 L 655.226,457.324 C 651.965,457.324 648.714,456.008 646.343,453.411 C 644.238,451.104 643.196,448.202 643.196,445.308 L 643.206,445.308 L 643.206,432.203 L 639.587,432.203 Z" fill="#e5e5e5" marker-start="none" marker-end="none"/>
      <path d="M 629.969,432.203 L 629.969,445.308 C 629.966,451.393 632.151,457.485 636.565,462.323 C 641.547,467.773 648.378,470.546 655.226,470.546 L 668.344,470.549 L 668.344,466.92 L 655.226,466.945 C 649.356,466.941 643.5,464.567 639.236,459.893 C 635.441,455.748 633.573,450.516 633.573,445.308 L 633.605,432.203 L 629.969,432.203 Z" fill="#f7e68d" marker-start="none" marker-end="none"/>
      <path d="M 625.159,432.203 L 625.159,445.308 C 625.155,452.549 627.751,459.803 633.012,465.565 C 638.944,472.056 647.074,475.344 655.226,475.351 L 668.344,475.351 L 668.344,471.726 L 655.226,471.748 C 648.048,471.748 640.897,468.846 635.68,463.133 C 631.045,458.065 628.766,451.681 628.766,445.308 L 628.795,432.203 L 625.159,432.203 Z" fill="#df56fe" marker-start="none" marker-end="none"/>
      <path d="M 634.755,432.203 L 634.78,445.308 C 634.78,450.23 636.54,455.162 640.121,459.083 C 644.149,463.497 649.683,465.736 655.226,465.737 L 668.344,465.737 L 668.344,462.111 L 655.226,462.136 C 650.662,462.132 646.106,460.289 642.787,456.653 C 639.838,453.425 638.383,449.36 638.387,445.308 L 638.387,432.203 L 634.755,432.203 Z" fill="#7ed6df" marker-start="none" marker-end="none"/>
     </g>
    </g>
    <path d="M 666.738,398.969 L 666.738,403.277 L 670.4,403.277 L 670.4,398.969 L 666.738,398.969 Z" fill="#ffffff" stroke-width="0.246" stroke-linejoin="miter" marker-start="none" marker-end="none"/>
    <path d="M 670.4,398.969 L 670.4,403.277 L 674.043,403.277 L 674.043,398.969 L 670.4,398.969 Z" fill="#ffffff" stroke-width="0.246" stroke-linejoin="miter" marker-start="none" marker-end="none"/>
    <g id="Group_7" fill-rule="nonzero" stroke-linejoin="round" stroke-linecap="round" stroke-width="0.161" fill="#000000">
     <g id="Group_8">
      <path d="M 668.137,399.373 L 668.137,402.3 L 667.706,402.3 L 667.706,402.994 L 669.293,402.994 L 669.293,402.3 L 668.861,402.3 L 668.861,399.373 L 668.137,399.373 Z" marker-start="none" marker-end="none"/>
      <path d="M 669.496,399.373 L 669.496,402.994 L 670.216,402.994 L 670.216,401.701 L 670.558,401.701 L 670.558,402.994 L 671.279,402.994 L 671.279,399.373 L 670.558,399.373 L 670.558,401.021 L 670.216,401.021 L 670.216,399.373 L 669.496,399.373 Z" marker-start="none" marker-end="none"/>
      <path d="M 671.601,399.373 L 671.601,402.994 L 673.05,402.994 L 673.05,402.297 L 672.339,402.297 L 672.339,401.593 L 673.02,401.593 L 673.02,400.908 L 672.339,400.908 L 672.339,400.077 L 673.098,400.077 L 673.098,399.373 L 671.601,399.373 Z" marker-start="none" marker-end="none"/>
     </g>
    </g>
    <path d="M 654.18,389.689 L 654.18,398.304 L 668.571,398.304 L 668.571,389.689 L 654.18,389.689 Z" fill="#ffffff" stroke-width="0.246" stroke-linejoin="miter" marker-start="none" marker-end="none"/>
    <path d="M 672.369,389.479 L 672.369,398.969 L 686.317,398.969 L 686.317,389.479 L 672.369,389.479 Z" fill="#ffffff" stroke-width="0.246" stroke-linejoin="miter" marker-start="none" marker-end="none"/>
    <g id="Group_9" fill-rule="nonzero" stroke-linejoin="round" stroke-linecap="round" stroke-width="0.232" fill="#000000">
     <g id="Group_10">
      <path d="M 655.723,389.769 L 655.723,398.226 L 657.379,398.226 L 658.12,394.179 L 658.12,398.226 L 659.675,398.226 L 659.675,389.769 L 658.103,389.769 L 657.298,394.002 L 657.298,389.769 L 655.723,389.769 Z" marker-start="none" marker-end="none"/>
      <path d="M 660.388,389.769 L 660.388,398.226 L 663.612,398.226 L 663.612,396.592 L 662.028,396.592 L 662.028,394.946 L 663.546,394.946 L 663.546,393.354 L 662.028,393.354 L 662.028,391.415 L 663.714,391.415 L 663.714,389.769 L 660.388,389.769 Z" marker-start="none" marker-end="none"/>
      <path d="M 664.942,389.769 L 664.942,396.602 L 663.987,396.602 L 663.987,398.226 L 667.509,398.226 L 667.509,396.602 L 666.554,396.602 L 666.554,389.769 L 664.942,389.769 Z" marker-start="none" marker-end="none"/>
      <path d="M 668.631,389.769 L 668.631,391.303 L 670.469,396.669 L 668.81,396.669 L 668.81,398.226 L 672.176,398.226 L 672.176,396.749 L 670.289,391.325 L 672.088,391.325 L 672.088,389.769 L 668.631,389.769 Z" marker-start="none" marker-end="none"/>
      <path d="M 672.681,389.769 L 672.681,398.226 L 675.904,398.226 L 675.904,396.592 L 674.321,396.592 L 674.321,394.946 L 675.837,394.946 L 675.837,393.354 L 674.321,393.354 L 674.321,391.415 L 676.008,391.415 L 676.008,389.769 L 672.681,389.769 Z" marker-start="none" marker-end="none"/>
      <path d="M 676.543,389.769 L 676.543,398.226 L 679.016,398.226 C 679.409,398.226 679.711,398.132 679.929,397.946 C 680.145,397.758 680.288,397.495 680.366,397.157 C 680.44,396.82 680.477,396.388 680.477,395.866 C 680.477,395.384 680.417,395.009 680.299,394.74 C 680.182,394.471 679.975,394.285 679.681,394.179 C 679.924,394.127 680.099,393.998 680.212,393.794 C 680.32,393.592 680.375,393.318 680.375,392.97 L 680.357,389.769 L 678.781,389.769 L 678.781,393.076 C 678.781,393.315 678.737,393.465 678.652,393.53 C 678.561,393.592 678.402,393.628 678.17,393.628 L 678.17,389.769 L 676.543,389.769 Z M 678.903,395.866 C 678.903,396.084 678.894,396.254 678.876,396.363 C 678.857,396.473 678.823,396.554 678.77,396.599 C 678.722,396.639 678.652,396.659 678.554,396.659 L 678.179,396.659 L 678.179,395.096 L 678.565,395.096 C 678.79,395.096 678.903,395.349 678.903,395.866 Z" marker-start="none" marker-end="none"/>
      <path d="M 681.452,390.317 C 681.114,390.73 680.946,391.317 680.946,392.072 L 680.946,396.098 C 680.946,396.829 681.114,397.378 681.452,397.749 C 681.79,398.12 682.284,398.304 682.933,398.304 C 683.582,398.304 684.076,398.12 684.414,397.749 C 684.75,397.378 684.918,396.829 684.918,396.098 L 684.918,392.072 C 684.918,391.31 684.75,390.725 684.414,390.314 C 684.076,389.898 683.582,389.689 682.933,389.689 C 682.284,389.689 681.79,389.9 681.452,390.317 Z M 683.223,391.445 C 683.273,391.576 683.297,391.757 683.297,391.994 L 683.297,396.128 C 683.297,396.312 683.274,396.459 683.228,396.577 C 683.179,396.691 683.085,396.749 682.94,396.749 C 682.673,396.749 682.538,396.537 682.538,396.107 L 682.538,391.985 C 682.538,391.741 682.565,391.558 682.623,391.434 C 682.68,391.307 682.783,391.248 682.933,391.248 C 683.078,391.248 683.172,391.31 683.223,391.445 Z" marker-start="none" marker-end="none"/>
     </g>
    </g>
    <path d="M 664.863,384.917 L 664.863,388.611 L 670.4,388.611 L 670.4,384.917 L 664.863,384.917 Z" fill="#ffffff" stroke-width="0.246" stroke-linejoin="miter" marker-start="none" marker-end="none"/>
    <path d="M 670.4,384.917 L 670.4,388.611 L 675.771,388.611 L 675.771,384.917 L 670.4,384.917 Z" fill="#ffffff" stroke-width="0.246" stroke-linejoin="miter" marker-start="none" marker-end="none"/>
    <g id="Group_11" fill-rule="nonzero" stroke-linejoin="round" stroke-linecap="round" stroke-width="0.159" fill="#000000">
     <g id="Group_12">
      <path d="M 666.205,385.193 C 666.078,385.376 666.013,385.656 666.013,386.031 L 666.013,387.593 C 666.013,387.927 666.087,388.182 666.237,388.354 C 666.386,388.524 666.609,388.611 666.903,388.611 C 667.143,388.611 667.329,388.563 667.462,388.467 C 667.596,388.371 667.685,388.233 667.736,388.049 C 667.787,387.863 667.812,387.63 667.812,387.343 L 667.102,387.343 L 667.102,387.669 C 667.102,387.756 667.09,387.825 667.067,387.871 C 667.042,387.918 667,387.943 666.938,387.943 C 666.8,387.943 666.729,387.855 666.729,387.672 L 666.729,385.918 C 666.729,385.806 666.745,385.725 666.773,385.668 C 666.802,385.61 666.849,385.581 666.92,385.581 C 666.993,385.581 667.041,385.61 667.071,385.668 C 667.097,385.725 667.11,385.806 667.11,385.918 L 667.11,386.435 L 666.917,386.435 L 666.917,387.061 L 667.803,387.061 L 667.803,384.951 L 667.513,384.951 L 667.391,385.253 C 667.262,385.029 667.06,384.917 666.791,384.917 C 666.527,384.917 666.333,385.007 666.205,385.193 Z" marker-start="none" marker-end="none"/>
      <path d="M 667.994,384.951 L 668.344,388.577 L 669.572,388.577 L 669.919,384.951 L 669.231,384.951 L 669.181,385.539 L 668.742,385.539 L 668.698,384.951 L 667.994,384.951 Z M 669.126,386.118 L 668.965,387.961 L 668.934,387.961 L 668.797,386.118 L 669.126,386.118 Z" marker-start="none" marker-end="none"/>
      <path d="M 670.14,384.951 L 670.14,388.577 L 671.246,388.577 L 671.55,386.363 L 671.854,388.577 L 672.969,388.577 L 672.969,384.951 L 672.306,384.951 L 672.306,387.563 L 671.888,384.951 L 671.239,384.951 L 670.795,387.563 L 670.795,384.951 L 670.14,384.951 Z" marker-start="none" marker-end="none"/>
      <path d="M 673.293,384.951 L 673.293,388.577 L 674.744,388.577 L 674.744,387.874 L 674.031,387.874 L 674.031,387.171 L 674.715,387.171 L 674.715,386.488 L 674.031,386.488 L 674.031,385.656 L 674.791,385.656 L 674.791,384.951 L 673.293,384.951 Z" marker-start="none" marker-end="none"/>
     </g>
    </g>
    <path d="M 660.212,401.365 L 660.212,420.233 L 640.022,420.233 L 640.022,472.104 L 685.606,472.104 C 692.92,472.261 700.262,469.345 705.522,463.479 C 709.784,458.724 711.965,452.827 712.13,446.905 L 712.133,446.905 L 712.133,401.365 L 660.212,401.365 Z" stroke-opacity="0.607843" stroke-width="0.476" stroke-linejoin="miter" marker-start="none" marker-end="none" fill-opacity="0.607843"/>
    <text xml:space="preserve" transform="matrix(1 0 0 -0.999054 670.616 431.387)" kerning="auto" font-size="13.994" fill="#000000" font-family="Lato Black" stroke-width="0.423" stroke-linejoin="round" stroke-linecap="round"><tspan x="-19.87" y="0">TEAM</tspan><tspan x="-19.6" y="14.27">CARD</tspan></text>
   </g>
  </g>
 </g>
</svg>
