<?xml version="1.0" standalone="no"?>
<!DOCTYPE svg PUBLIC "-//W3C//DTD SVG 1.1//EN" "http://www.w3.org/Graphics/SVG/1.1/DTD/svg11.dtd">
<!--Generator: Xara Designer (www.xara.com), SVG filter version: 6.6.0.0-->
<svg fill="none" fill-rule="evenodd" stroke="black" stroke-width="0.501" stroke-linejoin="bevel" stroke-miterlimit="10" font-family="Times New Roman" font-size="16" style="font-variant-ligatures:none" xmlns:xlink="http://www.w3.org/1999/xlink" xmlns="http://www.w3.org/2000/svg" version="1.1" overflow="visible" width="215.435pt" height="215.436pt" viewBox="21 -583.089 215.435 215.436">
 <defs>
	</defs>
 <g id="Page background" transform="scale(1 -1)"/>
 <g id="Layer 1" transform="scale(1 -1)">
  <g id="Group">
   <g id="Group_1">
    <path d="M 21,567.876 L 21,382.866 C 21,374.469 27.815,367.653 36.212,367.653 L 221.223,367.653 C 229.62,367.653 236.435,374.469 236.435,382.866 L 236.435,567.876 C 236.435,576.273 229.62,583.089 221.223,583.089 L 36.212,583.089 C 27.815,583.089 21,576.273 21,567.876 Z" stroke-linejoin="miter" stroke="none" stroke-width="0.802" fill="#7f7f7f" marker-start="none" marker-end="none"/>
    <path d="M 21.709,567.267 L 21.709,383.475 C 21.709,375.133 28.479,368.362 36.821,368.362 L 220.614,368.362 C 228.956,368.362 235.726,375.133 235.726,383.475 L 235.726,567.267 C 235.726,575.609 228.956,582.38 220.614,582.38 L 36.821,582.38 C 28.479,582.38 21.709,575.609 21.709,567.267 Z" stroke-linejoin="miter" stroke="none" stroke-width="0.802" marker-start="none" marker-end="none"/>
    <path d="M 21.709,567.267 L 21.709,383.475 C 21.709,375.133 28.479,368.362 36.821,368.362 L 220.614,368.362 C 228.956,368.362 235.726,375.133 235.726,383.475 L 235.726,567.267 C 235.726,575.609 228.956,582.38 220.614,582.38 L 36.821,582.38 C 28.479,582.38 21.709,575.609 21.709,567.267 Z" stroke-linejoin="miter" stroke="none" stroke-width="0.802" fill="#ffffff" marker-start="none" marker-end="none"/>
    <path d="M 36.03,513.794 L 36.03,547.686 L 139.618,547.686 L 139.618,513.794 L 36.03,513.794 Z" stroke-linejoin="miter" stroke-linecap="round" stroke="#ff7979" fill="#ff7979" stroke-width="1.738" marker-start="none" marker-end="none"/>
    <path d="M 36.03,512.451 L 36.03,522.261 C 36.03,524.832 38.114,526.909 40.676,526.909 L 134.968,526.909 C 137.53,526.909 139.618,524.832 139.618,522.261 L 139.618,512.451 C 139.618,509.875 137.53,507.797 134.968,507.797 L 40.676,507.797 C 38.114,507.797 36.03,509.875 36.03,512.451 Z" stroke-linejoin="miter" stroke-linecap="round" stroke="#ff7979" fill="#ff7979" stroke-width="1.738" marker-start="none" marker-end="none"/>
    <path d="M 36.727,541.344 L 36.727,558.989 C 36.727,563.602 40.471,567.348 45.089,567.348 L 212.135,567.348 C 216.748,567.348 220.496,563.602 220.496,558.989 L 220.496,541.344 C 220.496,536.726 216.748,532.978 212.135,532.978 L 45.089,532.978 C 40.471,532.978 36.727,536.726 36.727,541.344 Z" stroke-linejoin="miter" stroke-linecap="round" stroke="#ff7979" fill="#ffffff" stroke-width="3.13" marker-start="none" marker-end="none"/>
    <path d="M 21.53,482.404 L 21.53,490.938 L 70.693,490.938 L 70.693,482.404 L 21.53,482.404 Z" stroke-linecap="round" stroke="none" fill="#e5e5e5" stroke-width="0.103" stroke-linejoin="miter" marker-start="none" marker-end="none"/>
    <path d="M 121.135,462.172 C 108.867,475.611 92.054,482.44 75.181,482.443 L 75.181,490.922 C 94.353,490.917 113.466,483.167 127.4,467.898 C 139.774,454.337 145.875,437.26 145.87,420.237 L 137.384,420.237 C 137.391,435.219 132.022,450.246 121.135,462.172 Z" stroke-linecap="round" stroke="none" fill="#e5e5e5" stroke-width="0.541" stroke-linejoin="round" marker-start="none" marker-end="none"/>
    <path d="M 141.643,382.284 L 139.525,385.329 L 137.403,388.382 L 137.35,388.382 L 137.35,415.659 L 145.886,415.659 L 145.886,388.382 L 143.766,385.329 L 141.643,382.284 Z" stroke-linecap="round" stroke="none" fill="#e5e5e5" stroke-width="0.103" stroke-linejoin="miter" marker-start="none" marker-end="none"/>
    <path d="M 130.093,382.28 L 127.973,385.326 L 125.852,388.382 L 130.093,388.382 L 134.334,388.378 L 132.211,385.326 L 130.093,382.28 Z M 125.829,388.382 L 125.829,415.659 L 134.363,415.659 L 134.363,388.382 L 125.829,388.382 Z" fill="#ffcd36" stroke-linecap="round" stroke="none" stroke-width="0.103" stroke-linejoin="miter" marker-start="none" marker-end="none"/>
    <path d="M 112.781,454.55 C 102.741,465.541 88.986,471.128 75.181,471.133 L 75.181,479.614 C 91.288,479.61 107.338,473.095 119.047,460.267 C 129.441,448.88 134.561,434.537 134.558,420.237 L 126.072,420.237 C 126.082,432.494 121.687,444.786 112.781,454.55 Z" fill="#ffcd36" stroke-linecap="round" stroke="none" stroke-width="0.453" stroke-linejoin="round" marker-start="none" marker-end="none"/>
    <path d="M 21.53,471.101 L 21.53,479.633 L 70.693,479.633 L 70.693,471.101 L 21.53,471.101 Z" fill="#ffcd36" stroke-linecap="round" stroke="none" stroke-width="0.103" stroke-linejoin="miter" marker-start="none" marker-end="none"/>
    <path d="M 118.777,382.28 L 116.661,385.326 L 114.54,388.382 L 118.781,388.382 L 123.024,388.378 L 120.904,385.326 L 118.777,382.28 Z M 114.531,388.382 L 114.531,415.659 L 123.066,415.659 L 123.066,388.382 L 114.531,388.382 Z" stroke-linecap="round" stroke="none" fill="#e5e5e5" stroke-width="0.103" stroke-linejoin="miter" marker-start="none" marker-end="none"/>
    <path d="M 21.53,459.803 L 21.53,468.334 L 70.693,468.334 L 70.693,459.803 L 21.53,459.803 Z" stroke-linecap="round" stroke="none" fill="#e5e5e5" stroke-width="0.103" stroke-linejoin="miter" marker-start="none" marker-end="none"/>
    <path d="M 104.426,446.923 C 96.619,455.475 85.914,459.815 75.181,459.821 L 75.181,468.305 C 88.223,468.302 101.213,463.029 110.692,452.64 C 119.103,443.425 123.251,431.809 123.249,420.237 L 114.767,420.237 C 114.767,429.769 111.353,439.334 104.426,446.923 Z" stroke-linecap="round" stroke="none" fill="#e5e5e5" stroke-width="0.368" stroke-linejoin="round" marker-start="none" marker-end="none"/>
    <path d="M 21.53,448.507 L 21.53,457.041 L 70.693,457.041 L 70.693,448.507 L 21.53,448.507 Z" fill="#e5e5e5" stroke-linecap="round" stroke="none" stroke-width="0.103" stroke-linejoin="miter" marker-start="none" marker-end="none"/>
    <path d="M 96.071,439.302 C 90.493,445.409 82.855,448.509 75.181,448.512 L 75.181,456.999 C 85.151,456.99 95.09,452.957 102.333,445.019 C 108.772,437.97 111.943,429.093 111.939,420.237 L 103.451,420.237 C 103.458,427.044 101.016,433.876 96.071,439.302 Z" fill="#e5e5e5" stroke-linecap="round" stroke="none" stroke-width="0.281" stroke-linejoin="round" marker-start="none" marker-end="none"/>
    <path d="M 107.724,382.284 L 105.592,385.329 L 103.451,388.382 L 103.451,388.382 L 103.451,415.659 L 111.99,415.659 L 111.99,388.382 L 111.99,388.382 L 109.86,385.326 L 107.724,382.284 Z" fill="#e5e5e5" stroke-linecap="round" stroke="none" stroke-width="0.103" stroke-linejoin="miter" marker-start="none" marker-end="none"/>
    <path d="M 42.38,392.579 C 33.483,403.119 34.808,418.905 45.36,427.789 C 55.891,436.703 71.656,435.371 80.557,424.833 C 89.471,414.293 88.135,398.519 77.581,389.616 C 67.05,380.72 51.278,382.051 42.38,392.579 Z" stroke-linejoin="miter" stroke="none" fill="#000000" stroke-width="1.039" marker-start="none" marker-end="none"/>
    <path d="M 43.557,393.536 C 34.67,404.081 35.986,419.834 46.53,428.751 C 57.073,437.624 72.84,436.309 81.757,425.771 C 90.651,415.234 89.318,399.451 78.771,390.554 C 68.243,381.658 52.462,382.982 43.557,393.536 Z" stroke-linejoin="miter" stroke="#b2b2b2" stroke-width="5.658" marker-start="none" marker-end="none"/>
    <path d="M 189.751,468.376 C 183.851,475.354 184.73,485.814 191.725,491.723 C 198.707,497.615 209.16,496.736 215.064,489.749 C 220.973,482.757 220.087,472.303 213.09,466.398 C 206.108,460.503 195.651,461.382 189.751,468.376 Z" stroke-linejoin="miter" stroke="none" stroke-width="0.686" fill="#000000" marker-start="none" marker-end="none"/>
    <path d="M 190.529,468.985 C 184.638,475.983 185.51,486.442 192.503,492.335 C 199.492,498.244 209.944,497.361 215.86,490.368 C 221.757,483.386 220.872,472.934 213.878,467.029 C 206.899,461.123 196.435,462.002 190.529,468.985 Z" stroke-linejoin="miter" stroke="#b2b2b2" stroke-width="3.752" marker-start="none" marker-end="none"/>
    <path d="M 40.254,461.183 C 35.729,466.539 36.405,474.555 41.763,479.079 C 47.119,483.602 55.14,482.93 59.659,477.572 C 64.184,472.216 63.509,464.197 58.15,459.677 C 52.796,455.149 44.776,455.832 40.254,461.183 Z" stroke-linejoin="miter" stroke="none" fill="#ffffff" stroke-width="0.526" marker-start="none" marker-end="none"/>
    <path d="M 40.857,461.665 C 36.333,467.014 37.009,475.036 42.365,479.557 C 47.724,484.085 55.74,483.407 60.264,478.048 C 64.792,472.697 64.115,464.674 58.755,460.15 C 53.395,455.629 45.38,456.303 40.857,461.665 Z" fill="none" stroke-linejoin="miter" stroke="#539bc5" stroke-width="2.872" marker-start="none" marker-end="none"/>
    <path d="M 97.562,449.234 C 93.041,454.585 93.716,462.604 99.073,467.132 C 104.43,471.648 112.449,470.975 116.973,465.617 C 121.496,460.263 120.816,452.246 115.462,447.723 C 110.106,443.199 102.087,443.875 97.562,449.234 Z" stroke-linejoin="miter" stroke="none" fill="#ffffff" stroke-width="0.526" marker-start="none" marker-end="none"/>
    <path d="M 98.171,449.712 C 93.643,455.066 94.317,463.082 99.677,467.606 C 105.035,472.131 113.05,471.457 117.575,466.095 C 122.103,460.739 121.418,452.722 116.067,448.196 C 110.707,443.671 102.692,444.352 98.171,449.712 Z" fill="none" stroke-linejoin="miter" stroke="#539bc5" stroke-width="2.872" marker-start="none" marker-end="none"/>
    <path d="M 114.35,391.604 C 109.826,396.96 110.505,404.977 115.86,409.505 C 121.221,414.026 129.24,413.348 133.763,407.99 C 138.291,402.638 137.609,394.615 132.252,390.096 C 126.892,385.577 118.876,386.251 114.35,391.604 Z" stroke-linejoin="miter" stroke="none" fill="#ffffff" stroke-width="0.526" marker-start="none" marker-end="none"/>
    <path d="M 114.957,392.088 C 110.433,397.439 111.11,405.458 116.468,409.983 C 121.828,414.504 129.843,413.83 134.366,408.47 C 138.892,403.117 138.215,395.097 132.859,390.576 C 127.497,386.051 119.48,386.727 114.957,392.088 Z" fill="none" stroke-linejoin="miter" stroke="#539bc5" stroke-width="2.872" marker-start="none" marker-end="none"/>
    <path d="M 149.066,468.363 C 143.166,475.352 144.045,485.82 151.042,491.711 C 158.025,497.622 168.479,496.739 174.381,489.751 C 180.292,482.762 179.406,472.302 172.408,466.398 C 165.425,460.499 154.966,461.382 149.066,468.363 Z" stroke-linejoin="miter" stroke="none" fill="#ffffff" stroke-width="0.689" marker-start="none" marker-end="none"/>
    <path d="M 149.846,468.998 C 143.953,475.99 144.826,486.436 151.818,492.349 C 158.809,498.233 169.264,497.361 175.177,490.373 C 181.075,483.386 180.191,472.92 173.197,467.02 C 166.216,461.121 155.751,461.999 149.846,468.998 Z" stroke-linejoin="miter" stroke="#539bc5" stroke-width="3.752" marker-start="none" marker-end="none"/>
    <path d="M 173.091,392.568 C 164.194,403.108 165.519,418.894 176.071,427.778 C 186.602,436.692 202.367,435.36 211.268,424.822 C 220.182,414.282 218.846,398.508 208.292,389.605 C 197.761,380.709 181.989,382.04 173.091,392.568 Z" stroke-linejoin="miter" stroke="none" fill="#ffffff" stroke-width="1.039" marker-start="none" marker-end="none"/>
    <path d="M 174.268,393.525 C 165.381,404.07 166.697,419.823 177.241,428.74 C 187.784,437.613 203.551,436.298 212.468,425.76 C 221.362,415.223 220.029,399.44 209.482,390.543 C 198.954,381.647 183.173,382.971 174.268,393.525 Z" stroke-linejoin="miter" stroke="#539bc5" stroke-width="5.658" marker-start="none" marker-end="none"/>
    <g id="Group_2" fill-rule="nonzero" stroke-linejoin="round" stroke-linecap="round" stroke="none" stroke-width="0.485" fill="#b2b2b2">
     <path d="M 202.374,486.937 C 203.075,486.937 203.707,486.835 204.269,486.63 C 204.831,486.426 205.31,486.141 205.707,485.778 C 206.103,485.414 206.407,484.98 206.618,484.477 C 206.829,483.973 206.935,483.419 206.935,482.815 C 206.935,482.295 206.862,481.814 206.715,481.372 C 206.569,480.93 206.369,480.51 206.116,480.11 C 205.863,479.711 205.569,479.324 205.234,478.95 C 204.899,478.577 204.544,478.198 204.167,477.815 L 201.389,474.969 C 201.747,475.074 202.099,475.157 202.447,475.219 C 202.794,475.282 203.121,475.312 203.426,475.312 L 206.077,475.312 C 206.402,475.312 206.658,475.223 206.847,475.044 C 207.035,474.865 207.13,474.629 207.13,474.337 L 207.13,472.581 L 197.15,472.581 L 197.15,473.556 C 197.15,473.744 197.189,473.945 197.267,474.16 C 197.345,474.374 197.482,474.569 197.676,474.745 L 201.77,478.868 C 202.12,479.219 202.426,479.554 202.686,479.872 C 202.945,480.19 203.16,480.504 203.329,480.812 C 203.498,481.121 203.624,481.43 203.709,481.738 C 203.793,482.047 203.836,482.374 203.836,482.718 C 203.836,483.283 203.701,483.717 203.431,484.019 C 203.161,484.321 202.751,484.473 202.198,484.473 C 201.971,484.473 201.763,484.44 201.575,484.375 C 201.386,484.31 201.217,484.222 201.068,484.112 C 200.918,484.002 200.79,483.872 200.683,483.722 C 200.576,483.573 200.49,483.41 200.425,483.235 C 200.321,482.943 200.189,482.732 200.03,482.602 C 199.871,482.472 199.655,482.407 199.382,482.407 C 199.317,482.407 199.247,482.41 199.172,482.416 C 199.098,482.423 199.021,482.432 198.943,482.445 L 197.345,482.723 C 197.449,483.432 197.649,484.05 197.944,484.577 C 198.24,485.104 198.607,485.542 199.046,485.894 C 199.484,486.245 199.986,486.506 200.551,486.679 C 201.117,486.851 201.724,486.937 202.374,486.937 Z" marker-start="none" marker-end="none"/>
    </g>
    <g id="Group_3" fill-rule="nonzero" stroke-linejoin="round" stroke-linecap="round" stroke="none" stroke-width="0.387" fill="#000000">
     <path d="M 54.764,469.859 C 54.764,468.868 54.658,468.009 54.445,467.283 C 54.232,466.556 53.938,465.954 53.562,465.477 C 53.186,465 52.739,464.644 52.223,464.411 C 51.707,464.177 51.148,464.061 50.546,464.061 C 49.944,464.061 49.388,464.177 48.877,464.411 C 48.366,464.644 47.924,465 47.55,465.477 C 47.176,465.954 46.885,466.556 46.674,467.283 C 46.464,468.009 46.359,468.868 46.359,469.859 C 46.359,470.85 46.464,471.709 46.674,472.436 C 46.885,473.162 47.176,473.764 47.55,474.241 C 47.924,474.719 48.366,475.073 48.877,475.304 C 49.388,475.535 49.944,475.65 50.546,475.65 C 51.148,475.65 51.707,475.535 52.223,475.304 C 52.739,475.073 53.186,474.719 53.562,474.241 C 53.938,473.764 54.232,473.162 54.445,472.436 C 54.658,471.709 54.764,470.85 54.764,469.859 Z M 52.274,469.859 C 52.274,470.643 52.224,471.285 52.126,471.786 C 52.027,472.287 51.896,472.68 51.733,472.965 C 51.569,473.25 51.384,473.446 51.176,473.553 C 50.969,473.659 50.759,473.712 50.546,473.712 C 50.333,473.712 50.125,473.659 49.92,473.553 C 49.715,473.446 49.533,473.25 49.375,472.965 C 49.217,472.68 49.09,472.287 48.994,471.786 C 48.898,471.285 48.85,470.643 48.85,469.859 C 48.85,469.071 48.898,468.427 48.994,467.929 C 49.09,467.431 49.217,467.038 49.375,466.75 C 49.533,466.462 49.715,466.264 49.92,466.158 C 50.125,466.052 50.333,465.999 50.546,465.999 C 50.759,465.999 50.969,466.052 51.176,466.158 C 51.384,466.264 51.569,466.462 51.733,466.75 C 51.896,467.038 52.027,467.431 52.126,467.929 C 52.224,468.427 52.274,469.071 52.274,469.859 Z" marker-start="none" marker-end="none"/>
    </g>
    <g id="Group_4" fill-rule="nonzero" stroke-linejoin="round" stroke-linecap="round" stroke="none" stroke-width="0.485" fill="#000000">
     <path d="M 162.619,486.937 C 163.32,486.937 163.952,486.835 164.514,486.63 C 165.076,486.426 165.555,486.141 165.952,485.778 C 166.348,485.414 166.652,484.98 166.863,484.477 C 167.074,483.973 167.18,483.419 167.18,482.815 C 167.18,482.295 167.107,481.814 166.96,481.372 C 166.814,480.93 166.614,480.51 166.361,480.11 C 166.108,479.711 165.814,479.324 165.479,478.95 C 165.144,478.577 164.789,478.198 164.412,477.815 L 161.634,474.969 C 161.992,475.074 162.344,475.157 162.692,475.219 C 163.039,475.282 163.366,475.312 163.671,475.312 L 166.322,475.312 C 166.647,475.312 166.903,475.223 167.092,475.044 C 167.28,474.865 167.375,474.629 167.375,474.337 L 167.375,472.581 L 157.395,472.581 L 157.395,473.556 C 157.395,473.744 157.434,473.945 157.512,474.16 C 157.59,474.374 157.727,474.569 157.921,474.745 L 162.015,478.868 C 162.365,479.219 162.671,479.554 162.931,479.872 C 163.19,480.19 163.405,480.504 163.574,480.812 C 163.743,481.121 163.869,481.43 163.954,481.738 C 164.038,482.047 164.081,482.374 164.081,482.718 C 164.081,483.283 163.946,483.717 163.676,484.019 C 163.406,484.321 162.996,484.473 162.443,484.473 C 162.216,484.473 162.008,484.44 161.82,484.375 C 161.631,484.31 161.462,484.222 161.313,484.112 C 161.163,484.002 161.035,483.872 160.928,483.722 C 160.821,483.573 160.735,483.41 160.67,483.235 C 160.566,482.943 160.434,482.732 160.275,482.602 C 160.116,482.472 159.9,482.407 159.627,482.407 C 159.562,482.407 159.492,482.41 159.417,482.416 C 159.343,482.423 159.266,482.432 159.188,482.445 L 157.59,482.723 C 157.694,483.432 157.894,484.05 158.189,484.577 C 158.485,485.104 158.852,485.542 159.291,485.894 C 159.729,486.245 160.231,486.506 160.796,486.679 C 161.362,486.851 161.969,486.937 162.619,486.937 Z" marker-start="none" marker-end="none"/>
    </g>
    <g id="Group_5" fill-rule="nonzero" stroke-linejoin="round" stroke-linecap="round" stroke="none" stroke-width="0.387" fill="#000000">
     <path d="M 103.695,462.155 L 103.695,459.073 L 106.574,459.073 L 106.574,457.344 L 103.695,457.344 L 103.695,454.247 L 101.734,454.247 L 101.734,457.344 L 98.87,457.344 L 98.87,459.073 L 101.734,459.073 L 101.734,462.155 L 103.695,462.155 Z" marker-start="none" marker-end="none"/>
     <path d="M 109.205,454.722 L 111.384,454.722 L 111.384,460.442 C 111.384,460.723 111.392,461.016 111.407,461.322 L 110.123,460.255 C 110.04,460.188 109.957,460.14 109.874,460.111 C 109.791,460.083 109.711,460.069 109.633,460.069 C 109.498,460.069 109.378,460.098 109.271,460.158 C 109.165,460.218 109.086,460.281 109.034,460.349 L 108.271,461.361 L 111.804,464.326 L 113.797,464.326 L 113.797,454.722 L 115.664,454.722 L 115.664,452.978 L 109.205,452.978 L 109.205,454.722 Z" marker-start="none" marker-end="none"/>
    </g>
    <g id="Group_6" fill-rule="nonzero" stroke-linejoin="round" stroke-linecap="round" stroke="none" stroke-width="0.387" fill="#000000">
     <path d="M 121.09,403.781 L 121.09,400.699 L 123.969,400.699 L 123.969,398.97 L 121.09,398.97 L 121.09,395.873 L 119.129,395.873 L 119.129,398.97 L 116.265,398.97 L 116.265,400.699 L 119.129,400.699 L 119.129,403.781 L 121.09,403.781 Z" marker-start="none" marker-end="none"/>
     <path d="M 126.6,396.348 L 128.779,396.348 L 128.779,402.068 C 128.779,402.349 128.787,402.642 128.802,402.948 L 127.518,401.881 C 127.435,401.814 127.352,401.766 127.269,401.737 C 127.186,401.709 127.106,401.695 127.028,401.695 C 126.893,401.695 126.773,401.724 126.666,401.784 C 126.56,401.844 126.481,401.907 126.429,401.975 L 125.666,402.987 L 129.199,405.952 L 131.192,405.952 L 131.192,396.348 L 133.059,396.348 L 133.059,394.604 L 126.6,394.604 L 126.6,396.348 Z" marker-start="none" marker-end="none"/>
    </g>
    <g id="Group_7" fill-rule="nonzero" stroke-linejoin="round" stroke-linecap="round" stroke="none" stroke-width="0.319" fill="#ffffff">
     <path d="M 55.365,518.748 C 55.416,518.748 55.468,518.739 55.519,518.719 C 55.57,518.699 55.619,518.666 55.666,518.618 L 56.522,517.697 C 56.147,517.215 55.677,516.851 55.113,516.605 C 54.548,516.36 53.88,516.237 53.109,516.237 C 52.401,516.237 51.767,516.357 51.207,516.598 C 50.647,516.839 50.171,517.172 49.781,517.596 C 49.392,518.02 49.092,518.523 48.883,519.105 C 48.675,519.686 48.57,520.318 48.57,521 C 48.57,521.695 48.689,522.333 48.928,522.915 C 49.167,523.497 49.5,523.999 49.929,524.421 C 50.357,524.843 50.869,525.171 51.466,525.405 C 52.063,525.64 52.721,525.757 53.441,525.757 C 53.791,525.757 54.12,525.726 54.429,525.664 C 54.738,525.602 55.026,525.517 55.295,525.408 C 55.563,525.299 55.811,525.169 56.036,525.017 C 56.262,524.866 56.463,524.698 56.637,524.515 L 55.909,523.537 C 55.862,523.477 55.806,523.423 55.742,523.374 C 55.678,523.325 55.589,523.3 55.474,523.3 C 55.397,523.3 55.325,523.317 55.257,523.351 C 55.188,523.385 55.116,523.427 55.039,523.476 C 54.963,523.525 54.878,523.578 54.787,523.636 C 54.695,523.693 54.586,523.747 54.461,523.796 C 54.335,523.845 54.188,523.886 54.02,523.92 C 53.851,523.954 53.654,523.971 53.428,523.972 C 53.036,523.971 52.678,523.902 52.354,523.764 C 52.031,523.625 51.752,523.427 51.52,523.169 C 51.288,522.911 51.107,522.599 50.977,522.233 C 50.847,521.866 50.782,521.455 50.782,520.999 C 50.782,520.521 50.847,520.097 50.977,519.726 C 51.107,519.356 51.284,519.043 51.507,518.79 C 51.731,518.536 51.992,518.343 52.291,518.211 C 52.589,518.079 52.908,518.013 53.249,518.013 C 53.445,518.013 53.624,518.023 53.786,518.042 C 53.948,518.061 54.098,518.094 54.237,518.141 C 54.375,518.188 54.508,518.248 54.633,518.323 C 54.759,518.398 54.886,518.49 55.014,518.601 C 55.065,518.644 55.12,518.679 55.18,518.707 C 55.24,518.734 55.301,518.748 55.365,518.748 Z" marker-start="none" marker-end="none"/>
     <path d="M 66.702,521 C 66.702,520.327 66.586,519.7 66.354,519.121 C 66.122,518.541 65.795,518.037 65.373,517.608 C 64.951,517.18 64.443,516.844 63.848,516.601 C 63.254,516.358 62.594,516.237 61.87,516.237 C 61.145,516.237 60.485,516.358 59.888,516.601 C 59.291,516.844 58.781,517.18 58.357,517.608 C 57.933,518.037 57.605,518.541 57.373,519.121 C 57.14,519.7 57.024,520.327 57.024,521 C 57.024,521.674 57.14,522.3 57.373,522.88 C 57.605,523.46 57.933,523.962 58.357,524.389 C 58.781,524.815 59.291,525.15 59.888,525.393 C 60.485,525.635 61.145,525.757 61.87,525.757 C 62.594,525.757 63.254,525.634 63.848,525.389 C 64.443,525.144 64.951,524.809 65.373,524.382 C 65.795,523.956 66.122,523.453 66.354,522.873 C 66.586,522.294 66.702,521.669 66.702,521 Z M 64.491,521 C 64.491,521.46 64.431,521.874 64.312,522.243 C 64.192,522.611 64.021,522.924 63.797,523.179 C 63.573,523.435 63.299,523.631 62.976,523.767 C 62.652,523.903 62.283,523.971 61.87,523.972 C 61.452,523.971 61.08,523.903 60.754,523.767 C 60.428,523.631 60.153,523.435 59.93,523.179 C 59.706,522.924 59.534,522.611 59.415,522.243 C 59.296,521.874 59.236,521.46 59.236,521 C 59.236,520.536 59.296,520.119 59.415,519.751 C 59.534,519.382 59.706,519.07 59.93,518.815 C 60.153,518.559 60.428,518.364 60.754,518.23 C 61.08,518.096 61.452,518.029 61.87,518.029 C 62.283,518.029 62.652,518.096 62.976,518.23 C 63.299,518.364 63.573,518.559 63.797,518.815 C 64.021,519.07 64.192,519.382 64.312,519.751 C 64.431,520.119 64.491,520.536 64.491,521 Z" marker-start="none" marker-end="none"/>
     <path d="M 68.874,525.657 C 68.968,525.657 69.047,525.653 69.11,525.644 C 69.174,525.636 69.232,525.62 69.283,525.596 C 69.334,525.573 69.383,525.54 69.43,525.497 C 69.477,525.454 69.53,525.397 69.59,525.325 L 74.013,519.731 C 73.996,519.91 73.984,520.084 73.975,520.252 C 73.967,520.42 73.962,520.579 73.962,520.729 L 73.962,525.657 L 75.867,525.657 L 75.867,516.34 L 74.742,516.34 C 74.576,516.34 74.435,516.366 74.32,516.417 C 74.205,516.468 74.094,516.562 73.988,516.698 L 69.596,522.247 C 69.609,522.085 69.62,521.926 69.628,521.77 C 69.637,521.615 69.641,521.469 69.641,521.332 L 69.641,516.34 L 67.736,516.34 L 67.736,525.657 L 68.874,525.657 Z" marker-start="none" marker-end="none"/>
     <path d="M 82.591,523.762 C 82.527,523.659 82.46,523.583 82.389,523.532 C 82.319,523.48 82.228,523.455 82.118,523.455 C 82.02,523.455 81.914,523.486 81.801,523.548 C 81.688,523.609 81.56,523.679 81.418,523.755 C 81.275,523.832 81.112,523.901 80.929,523.963 C 80.745,524.025 80.537,524.056 80.302,524.056 C 79.897,524.056 79.596,523.97 79.398,523.797 C 79.2,523.624 79.1,523.391 79.1,523.097 C 79.1,522.909 79.16,522.754 79.279,522.63 C 79.399,522.507 79.555,522.4 79.749,522.31 C 79.943,522.221 80.165,522.139 80.414,522.064 C 80.663,521.99 80.918,521.907 81.178,521.815 C 81.438,521.723 81.693,521.616 81.942,521.492 C 82.191,521.369 82.413,521.211 82.607,521.019 C 82.801,520.827 82.957,520.594 83.077,520.319 C 83.196,520.044 83.256,519.713 83.256,519.325 C 83.256,518.894 83.181,518.492 83.032,518.117 C 82.883,517.742 82.666,517.414 82.383,517.135 C 82.1,516.856 81.75,516.637 81.335,516.477 C 80.919,516.317 80.447,516.237 79.919,516.237 C 79.629,516.237 79.334,516.267 79.033,516.327 C 78.733,516.386 78.442,516.47 78.161,516.579 C 77.88,516.688 77.615,516.817 77.368,516.966 C 77.121,517.115 76.906,517.281 76.722,517.465 L 77.362,518.475 C 77.409,518.552 77.475,518.613 77.56,518.66 C 77.645,518.707 77.737,518.731 77.835,518.731 C 77.963,518.731 78.092,518.69 78.222,518.609 C 78.351,518.528 78.499,518.439 78.663,518.341 C 78.827,518.243 79.015,518.153 79.228,518.072 C 79.441,517.991 79.693,517.951 79.983,517.951 C 80.375,517.951 80.679,518.037 80.897,518.209 C 81.114,518.382 81.223,518.656 81.223,519.031 C 81.223,519.249 81.163,519.425 81.044,519.562 C 80.924,519.698 80.768,519.811 80.574,519.901 C 80.38,519.99 80.159,520.069 79.912,520.137 C 79.665,520.205 79.412,520.281 79.152,520.364 C 78.892,520.447 78.638,520.549 78.391,520.671 C 78.144,520.792 77.923,520.952 77.729,521.15 C 77.535,521.349 77.379,521.596 77.259,521.892 C 77.14,522.188 77.08,522.554 77.08,522.989 C 77.08,523.338 77.151,523.679 77.291,524.012 C 77.432,524.344 77.639,524.64 77.911,524.9 C 78.184,525.16 78.519,525.368 78.915,525.524 C 79.311,525.679 79.765,525.757 80.277,525.757 C 80.562,525.757 80.84,525.735 81.111,525.69 C 81.381,525.645 81.638,525.579 81.881,525.491 C 82.124,525.404 82.351,525.3 82.562,525.178 C 82.773,525.057 82.961,524.919 83.128,524.766 L 82.591,523.762 Z" marker-start="none" marker-end="none"/>
     <path d="M 88.203,518.047 C 88.493,518.047 88.752,518.095 88.98,518.191 C 89.208,518.287 89.4,518.424 89.558,518.604 C 89.716,518.783 89.836,519.001 89.919,519.259 C 90.002,519.517 90.044,519.81 90.044,520.138 L 90.044,525.655 L 92.205,525.655 L 92.205,520.137 C 92.205,519.566 92.112,519.042 91.926,518.564 C 91.741,518.087 91.476,517.676 91.131,517.33 C 90.785,516.985 90.366,516.717 89.871,516.525 C 89.377,516.333 88.821,516.237 88.203,516.237 C 87.581,516.237 87.022,516.333 86.528,516.525 C 86.034,516.717 85.614,516.985 85.269,517.33 C 84.924,517.676 84.659,518.087 84.476,518.564 C 84.293,519.042 84.201,519.566 84.201,520.137 L 84.201,525.655 L 86.362,525.655 L 86.362,520.144 C 86.362,519.816 86.403,519.523 86.487,519.265 C 86.57,519.007 86.69,518.788 86.848,518.607 C 87.005,518.426 87.198,518.287 87.426,518.191 C 87.654,518.095 87.913,518.047 88.203,518.047 Z" marker-start="none" marker-end="none"/>
     <path d="M 98.374,520.57 C 98.46,520.407 98.542,520.237 98.621,520.061 C 98.699,519.885 98.775,519.705 98.847,519.521 C 98.92,519.71 98.997,519.893 99.078,520.071 C 99.159,520.249 99.242,520.422 99.327,520.589 L 101.718,525.326 C 101.76,525.407 101.804,525.471 101.849,525.516 C 101.893,525.561 101.944,525.594 101.999,525.616 C 102.054,525.637 102.117,525.648 102.187,525.648 C 102.258,525.648 102.34,525.648 102.434,525.648 L 104.083,525.648 L 104.083,516.34 L 102.178,516.34 L 102.178,521.627 C 102.178,521.884 102.191,522.161 102.216,522.46 L 99.749,517.746 C 99.672,517.599 99.569,517.488 99.439,517.412 C 99.309,517.337 99.161,517.299 98.994,517.299 L 98.7,517.299 C 98.534,517.299 98.386,517.337 98.256,517.412 C 98.126,517.488 98.023,517.599 97.946,517.746 L 95.466,522.466 C 95.483,522.319 95.496,522.173 95.504,522.028 C 95.513,521.883 95.517,521.749 95.517,521.627 L 95.517,516.34 L 93.612,516.34 L 93.612,525.648 L 95.261,525.648 C 95.355,525.648 95.437,525.648 95.507,525.648 C 95.578,525.648 95.641,525.637 95.696,525.616 C 95.751,525.594 95.801,525.561 95.846,525.516 C 95.891,525.471 95.935,525.407 95.977,525.326 L 98.374,520.57 Z" marker-start="none" marker-end="none"/>
     <path d="M 111.613,525.657 L 111.613,523.993 L 107.791,523.993 L 107.791,521.818 L 110.718,521.818 L 110.718,520.22 L 107.791,520.22 L 107.791,518.004 L 111.613,518.004 L 111.613,516.34 L 105.617,516.34 L 105.617,525.657 L 111.613,525.657 Z" marker-start="none" marker-end="none"/>
     <path d="M 115.001,519.786 L 115.001,516.34 L 112.84,516.34 L 112.84,525.654 L 115.87,525.654 C 116.543,525.654 117.118,525.585 117.593,525.446 C 118.068,525.307 118.456,525.114 118.756,524.867 C 119.057,524.619 119.275,524.327 119.411,523.99 C 119.548,523.653 119.616,523.286 119.616,522.889 C 119.616,522.586 119.576,522.3 119.495,522.031 C 119.414,521.763 119.293,521.514 119.133,521.286 C 118.974,521.057 118.778,520.854 118.545,520.674 C 118.313,520.495 118.046,520.348 117.743,520.233 C 117.888,520.161 118.023,520.071 118.149,519.965 C 118.275,519.858 118.384,519.729 118.478,519.575 L 120.46,516.34 L 118.504,516.34 C 118.142,516.34 117.882,516.476 117.724,516.749 L 116.177,519.453 C 116.109,519.573 116.029,519.658 115.937,519.709 C 115.846,519.76 115.717,519.786 115.55,519.786 L 115.001,519.786 Z M 115.001,521.275 L 115.87,521.275 C 116.164,521.275 116.415,521.312 116.621,521.387 C 116.828,521.461 116.997,521.565 117.129,521.697 C 117.261,521.829 117.357,521.983 117.417,522.16 C 117.477,522.337 117.507,522.528 117.507,522.733 C 117.507,523.142 117.373,523.462 117.107,523.692 C 116.841,523.922 116.428,524.037 115.87,524.037 L 115.001,524.037 L 115.001,521.275 Z" marker-start="none" marker-end="none"/>
    </g>
    <g id="Group_8" fill-rule="nonzero" stroke-linejoin="round" stroke-linecap="round" stroke="none" stroke-width="0.365" fill="#000000">
     <path d="M 79.731,550.27 C 79.731,549.498 79.598,548.786 79.332,548.134 C 79.066,547.481 78.691,546.917 78.207,546.441 C 77.724,545.964 77.141,545.593 76.46,545.327 C 75.778,545.06 75.023,544.927 74.192,544.927 L 70.045,544.927 L 70.045,555.606 L 74.192,555.606 C 75.023,555.606 75.778,555.471 76.46,555.203 C 77.141,554.934 77.724,554.563 78.207,554.089 C 78.691,553.615 79.066,553.052 79.332,552.399 C 79.598,551.747 79.731,551.037 79.731,550.27 Z M 77.196,550.27 C 77.196,550.798 77.128,551.274 76.991,551.699 C 76.854,552.124 76.658,552.484 76.401,552.779 C 76.145,553.075 75.831,553.302 75.46,553.461 C 75.088,553.62 74.666,553.699 74.192,553.699 L 72.536,553.699 L 72.536,546.834 L 74.192,546.834 C 74.666,546.834 75.088,546.913 75.46,547.072 C 75.831,547.231 76.145,547.458 76.401,547.753 C 76.658,548.049 76.854,548.409 76.991,548.834 C 77.128,549.259 77.196,549.738 77.196,550.27 Z" marker-start="none" marker-end="none"/>
     <path d="M 80.115,555.604 L 82.196,555.604 C 82.411,555.604 82.59,555.555 82.735,555.457 C 82.879,555.358 82.973,555.228 83.017,555.065 L 84.482,549.456 C 84.531,549.274 84.58,549.08 84.629,548.873 C 84.677,548.667 84.714,548.45 84.738,548.224 C 84.787,548.455 84.841,548.673 84.9,548.877 C 84.958,549.081 85.014,549.274 85.068,549.456 L 86.797,555.065 C 86.841,555.203 86.935,555.327 87.079,555.438 C 87.223,555.549 87.398,555.604 87.603,555.604 L 88.336,555.604 C 88.551,555.604 88.728,555.556 88.867,555.46 C 89.006,555.364 89.103,555.233 89.157,555.065 L 90.871,549.455 C 90.925,549.283 90.981,549.1 91.04,548.905 C 91.098,548.711 91.149,548.503 91.193,548.281 C 91.232,548.498 91.273,548.705 91.314,548.901 C 91.356,549.098 91.399,549.283 91.442,549.455 L 92.908,555.065 C 92.947,555.208 93.04,555.333 93.186,555.442 C 93.333,555.55 93.509,555.604 93.714,555.604 L 95.663,555.604 L 92.366,544.927 L 90.124,544.927 L 88.116,551.441 C 88.082,551.542 88.047,551.653 88.01,551.773 C 87.973,551.893 87.938,552.02 87.904,552.155 C 87.869,552.02 87.834,551.893 87.797,551.773 C 87.761,551.653 87.725,551.542 87.691,551.441 L 85.654,544.927 L 83.412,544.927 L 80.115,555.604 Z" marker-start="none" marker-end="none"/>
     <path d="M 103.486,555.606 L 103.486,553.699 L 99.104,553.699 L 99.104,551.206 L 102.46,551.206 L 102.46,549.374 L 99.104,549.374 L 99.104,546.834 L 103.486,546.834 L 103.486,544.927 L 96.613,544.927 L 96.613,555.606 L 103.486,555.606 Z" marker-start="none" marker-end="none"/>
     <path d="M 107.369,546.905 L 111.325,546.905 L 111.325,544.927 L 104.892,544.927 L 104.892,555.604 L 107.369,555.604 L 107.369,546.905 Z" marker-start="none" marker-end="none"/>
     <path d="M 114.975,546.905 L 118.931,546.905 L 118.931,544.927 L 112.498,544.927 L 112.498,555.604 L 114.975,555.604 L 114.975,546.905 Z" marker-start="none" marker-end="none"/>
     <path d="M 122.815,544.927 L 120.324,544.927 L 120.324,555.606 L 122.815,555.606 L 122.815,544.927 Z" marker-start="none" marker-end="none"/>
     <path d="M 126.095,555.606 C 126.203,555.606 126.293,555.601 126.366,555.591 C 126.44,555.582 126.506,555.563 126.564,555.536 C 126.623,555.509 126.679,555.471 126.733,555.423 C 126.787,555.374 126.848,555.308 126.916,555.225 L 131.986,548.814 C 131.967,549.019 131.952,549.218 131.942,549.411 C 131.932,549.604 131.927,549.786 131.927,549.957 L 131.927,555.606 L 134.111,555.606 L 134.111,544.927 L 132.821,544.927 C 132.631,544.927 132.47,544.956 132.338,545.015 C 132.206,545.074 132.079,545.181 131.957,545.337 L 126.923,551.697 C 126.938,551.511 126.95,551.329 126.96,551.151 C 126.97,550.973 126.975,550.806 126.975,550.649 L 126.975,544.927 L 124.791,544.927 L 124.791,555.606 L 126.095,555.606 Z" marker-start="none" marker-end="none"/>
     <path d="M 140.893,546.716 C 141.235,546.716 141.538,546.744 141.802,546.802 C 142.066,546.86 142.315,546.937 142.549,547.033 L 142.549,548.655 L 141.494,548.655 C 141.338,548.655 141.216,548.696 141.128,548.779 C 141.04,548.862 140.996,548.968 140.996,549.095 L 140.996,550.458 L 144.791,550.458 L 144.791,545.952 C 144.518,545.752 144.233,545.58 143.938,545.435 C 143.642,545.291 143.327,545.173 142.993,545.08 C 142.658,544.987 142.301,544.919 141.923,544.875 C 141.544,544.831 141.138,544.809 140.703,544.809 C 139.921,544.809 139.198,544.947 138.534,545.223 C 137.87,545.499 137.295,545.88 136.809,546.366 C 136.323,546.852 135.942,547.429 135.666,548.096 C 135.39,548.763 135.252,549.487 135.252,550.268 C 135.252,551.065 135.384,551.796 135.647,552.463 C 135.911,553.13 136.289,553.705 136.779,554.189 C 137.27,554.672 137.864,555.049 138.56,555.317 C 139.256,555.586 140.034,555.72 140.893,555.72 C 141.338,555.72 141.756,555.684 142.146,555.61 C 142.537,555.537 142.897,555.437 143.227,555.309 C 143.557,555.182 143.858,555.031 144.132,554.855 C 144.405,554.679 144.65,554.488 144.865,554.282 L 144.146,553.191 C 144.078,553.088 143.996,553.007 143.901,552.949 C 143.806,552.89 143.702,552.861 143.59,552.861 C 143.443,552.861 143.292,552.91 143.135,553.007 C 142.94,553.124 142.756,553.226 142.582,553.311 C 142.409,553.397 142.232,553.466 142.051,553.52 C 141.87,553.574 141.68,553.613 141.48,553.637 C 141.279,553.662 141.055,553.674 140.805,553.674 C 140.341,553.674 139.924,553.592 139.553,553.429 C 139.181,553.265 138.865,553.034 138.604,552.737 C 138.342,552.439 138.141,552.081 137.999,551.664 C 137.858,551.246 137.787,550.781 137.787,550.268 C 137.787,549.702 137.865,549.199 138.021,548.759 C 138.178,548.32 138.394,547.949 138.67,547.646 C 138.946,547.343 139.273,547.113 139.651,546.954 C 140.03,546.795 140.444,546.716 140.893,546.716 Z" marker-start="none" marker-end="none"/>
     <path d="M 152.249,553.434 C 152.175,553.316 152.098,553.228 152.018,553.17 C 151.937,553.111 151.833,553.082 151.706,553.082 C 151.594,553.082 151.473,553.117 151.344,553.188 C 151.214,553.259 151.068,553.338 150.904,553.426 C 150.74,553.514 150.554,553.594 150.344,553.664 C 150.134,553.735 149.894,553.771 149.626,553.771 C 149.162,553.771 148.816,553.672 148.589,553.474 C 148.362,553.276 148.248,553.009 148.248,552.672 C 148.248,552.456 148.317,552.278 148.453,552.137 C 148.59,551.995 148.77,551.873 148.992,551.77 C 149.214,551.668 149.468,551.574 149.754,551.488 C 150.04,551.403 150.331,551.307 150.629,551.202 C 150.927,551.097 151.219,550.974 151.505,550.832 C 151.791,550.691 152.045,550.51 152.267,550.29 C 152.489,550.07 152.669,549.803 152.805,549.488 C 152.942,549.173 153.011,548.793 153.011,548.348 C 153.011,547.855 152.925,547.393 152.754,546.963 C 152.583,546.533 152.335,546.159 152.01,545.839 C 151.686,545.519 151.285,545.267 150.809,545.084 C 150.333,544.901 149.792,544.809 149.186,544.809 C 148.854,544.809 148.516,544.843 148.171,544.912 C 147.827,544.98 147.493,545.076 147.171,545.201 C 146.849,545.326 146.546,545.473 146.263,545.644 C 145.979,545.815 145.733,546.006 145.523,546.216 L 146.255,547.374 C 146.309,547.462 146.385,547.533 146.482,547.586 C 146.58,547.64 146.685,547.667 146.797,547.667 C 146.944,547.667 147.092,547.621 147.241,547.528 C 147.39,547.435 147.558,547.332 147.746,547.22 C 147.934,547.108 148.15,547.005 148.395,546.912 C 148.639,546.819 148.927,546.773 149.259,546.773 C 149.709,546.773 150.058,546.872 150.307,547.07 C 150.556,547.267 150.681,547.582 150.681,548.011 C 150.681,548.261 150.612,548.463 150.475,548.62 C 150.339,548.776 150.159,548.905 149.937,549.008 C 149.715,549.111 149.462,549.201 149.179,549.279 C 148.895,549.357 148.605,549.444 148.307,549.539 C 148.009,549.634 147.718,549.752 147.435,549.891 C 147.152,550.03 146.899,550.213 146.677,550.441 C 146.454,550.668 146.275,550.951 146.138,551.291 C 146.001,551.63 145.933,552.049 145.933,552.547 C 145.933,552.948 146.013,553.339 146.175,553.72 C 146.336,554.101 146.573,554.44 146.885,554.738 C 147.198,555.036 147.581,555.275 148.036,555.453 C 148.49,555.631 149.01,555.72 149.596,555.72 C 149.924,555.72 150.242,555.695 150.552,555.643 C 150.863,555.592 151.157,555.516 151.435,555.416 C 151.714,555.316 151.974,555.196 152.216,555.057 C 152.457,554.918 152.674,554.76 152.864,554.584 L 152.249,553.434 Z" marker-start="none" marker-end="none"/>
     <path d="M 153.86,546.217 C 153.86,546.373 153.89,546.519 153.948,546.653 C 154.007,546.788 154.091,546.905 154.201,547.005 C 154.311,547.105 154.44,547.184 154.589,547.243 C 154.738,547.302 154.906,547.331 155.091,547.331 C 155.311,547.331 155.501,547.293 155.663,547.217 C 155.824,547.142 155.958,547.039 156.066,546.91 C 156.173,546.78 156.252,546.631 156.304,546.463 C 156.355,546.294 156.381,546.117 156.381,545.931 C 156.381,545.687 156.342,545.427 156.263,545.151 C 156.185,544.875 156.069,544.598 155.915,544.319 C 155.762,544.041 155.57,543.767 155.34,543.498 C 155.111,543.23 154.847,542.985 154.549,542.766 L 154.153,543.117 C 154.1,543.171 154.059,543.221 154.032,543.268 C 154.006,543.314 153.992,543.371 153.992,543.44 C 153.992,543.489 154.009,543.541 154.043,543.597 C 154.078,543.654 154.119,543.704 154.168,543.748 C 154.227,543.806 154.295,543.877 154.373,543.96 C 154.451,544.043 154.529,544.136 154.608,544.239 C 154.686,544.341 154.758,544.454 154.824,544.576 C 154.89,544.698 154.94,544.827 154.974,544.964 C 154.803,544.979 154.649,545.02 154.512,545.089 C 154.376,545.157 154.26,545.248 154.164,545.36 C 154.069,545.472 153.995,545.6 153.941,545.745 C 153.887,545.889 153.86,546.046 153.86,546.217 Z" marker-start="none" marker-end="none"/>
     <path d="M 163.234,544.927 L 160.743,544.927 L 160.743,555.606 L 163.234,555.606 L 163.234,544.927 Z" marker-start="none" marker-end="none"/>
     <path d="M 166.514,555.606 C 166.622,555.606 166.712,555.601 166.785,555.591 C 166.859,555.582 166.925,555.563 166.983,555.536 C 167.042,555.509 167.098,555.471 167.152,555.423 C 167.206,555.374 167.267,555.308 167.335,555.225 L 172.405,548.814 C 172.386,549.019 172.371,549.218 172.361,549.411 C 172.351,549.604 172.346,549.786 172.346,549.957 L 172.346,555.606 L 174.53,555.606 L 174.53,544.927 L 173.24,544.927 C 173.05,544.927 172.889,544.956 172.757,545.015 C 172.625,545.074 172.498,545.181 172.376,545.337 L 167.342,551.697 C 167.357,551.511 167.369,551.329 167.379,551.151 C 167.389,550.973 167.394,550.806 167.394,550.649 L 167.394,544.927 L 165.21,544.927 L 165.21,555.606 L 166.514,555.606 Z" marker-start="none" marker-end="none"/>
     <path d="M 183.459,547.687 C 183.518,547.687 183.576,547.676 183.635,547.654 C 183.694,547.631 183.75,547.593 183.803,547.538 L 184.785,546.483 C 184.355,545.93 183.817,545.512 183.17,545.231 C 182.523,544.95 181.757,544.809 180.873,544.809 C 180.062,544.809 179.335,544.947 178.693,545.223 C 178.051,545.499 177.506,545.88 177.059,546.366 C 176.612,546.852 176.269,547.429 176.03,548.096 C 175.79,548.763 175.671,549.487 175.671,550.268 C 175.671,551.065 175.808,551.796 176.081,552.463 C 176.355,553.13 176.737,553.705 177.228,554.189 C 177.719,554.672 178.306,555.049 178.99,555.317 C 179.674,555.586 180.428,555.72 181.254,555.72 C 181.654,555.72 182.032,555.685 182.386,555.614 C 182.74,555.543 183.071,555.445 183.379,555.32 C 183.686,555.196 183.97,555.047 184.228,554.873 C 184.487,554.699 184.717,554.507 184.917,554.297 L 184.082,553.176 C 184.028,553.107 183.965,553.045 183.891,552.989 C 183.818,552.933 183.716,552.905 183.584,552.905 C 183.496,552.905 183.413,552.924 183.335,552.963 C 183.256,553.002 183.173,553.05 183.085,553.106 C 182.998,553.162 182.901,553.223 182.796,553.289 C 182.691,553.355 182.566,553.416 182.422,553.473 C 182.278,553.529 182.11,553.576 181.917,553.616 C 181.724,553.654 181.498,553.674 181.239,553.674 C 180.79,553.674 180.379,553.595 180.008,553.436 C 179.637,553.277 179.318,553.05 179.052,552.754 C 178.786,552.459 178.578,552.101 178.429,551.681 C 178.28,551.261 178.206,550.789 178.206,550.267 C 178.206,549.719 178.28,549.233 178.429,548.808 C 178.578,548.383 178.781,548.026 179.037,547.735 C 179.294,547.444 179.593,547.223 179.935,547.072 C 180.277,546.92 180.643,546.845 181.034,546.845 C 181.259,546.845 181.464,546.856 181.649,546.878 C 181.835,546.9 182.007,546.937 182.166,546.991 C 182.325,547.045 182.476,547.114 182.62,547.2 C 182.764,547.285 182.91,547.392 183.056,547.519 C 183.115,547.568 183.178,547.608 183.247,547.64 C 183.315,547.671 183.386,547.687 183.459,547.687 Z" marker-start="none" marker-end="none"/>
     <path d="M 185.478,546.077 C 185.478,546.253 185.511,546.417 185.577,546.568 C 185.642,546.72 185.733,546.852 185.848,546.964 C 185.962,547.077 186.098,547.166 186.254,547.232 C 186.411,547.298 186.582,547.331 186.767,547.331 C 186.948,547.331 187.116,547.298 187.273,547.232 C 187.429,547.166 187.566,547.077 187.683,546.964 C 187.8,546.852 187.892,546.72 187.958,546.568 C 188.024,546.417 188.057,546.253 188.057,546.077 C 188.057,545.901 188.024,545.736 187.958,545.582 C 187.892,545.428 187.8,545.295 187.683,545.183 C 187.566,545.07 187.429,544.982 187.273,544.919 C 187.116,544.855 186.948,544.823 186.767,544.823 C 186.582,544.823 186.411,544.855 186.254,544.919 C 186.098,544.982 185.962,545.07 185.848,545.183 C 185.733,545.295 185.642,545.428 185.577,545.582 C 185.511,545.736 185.478,545.901 185.478,546.077 Z" marker-start="none" marker-end="none"/>
    </g>
   </g>
   <path d="M 21,382.866 L 21,567.876 C 21,576.273 27.815,583.089 36.212,583.089 L 221.223,583.089 C 229.62,583.089 236.435,576.273 236.435,567.876 L 236.435,382.866 C 236.435,374.469 229.62,367.653 221.223,367.653 L 36.212,367.653 C 27.815,367.653 21,374.469 21,382.866 Z M 235.726,383.475 L 235.726,567.267 C 235.726,575.609 228.956,582.38 220.614,582.38 L 36.821,582.38 C 28.479,582.38 21.709,575.609 21.709,567.267 L 21.709,383.475 C 21.709,375.133 28.479,368.362 36.821,368.362 L 220.614,368.362 C 228.956,368.362 235.726,375.133 235.726,383.475 Z" stroke-linejoin="miter" stroke-width="0.802" fill="#7f7f7f" stroke="none" marker-start="none" marker-end="none"/>
  </g>
 </g>
</svg>
