<?xml version="1.0" standalone="no"?>
<!DOCTYPE svg PUBLIC "-//W3C//DTD SVG 1.1//EN" "http://www.w3.org/Graphics/SVG/1.1/DTD/svg11.dtd">
<!--Generator: Xara Designer (www.xara.com), SVG filter version: 6.2.0.0-->
<svg stroke-width="0.501" stroke-linejoin="bevel" fill-rule="evenodd" xmlns:xlink="http://www.w3.org/1999/xlink" xmlns="http://www.w3.org/2000/svg" version="1.1" overflow="visible" width="215.434pt" height="215.434pt" viewBox="0 0 215.434 215.434">
 <defs>
	</defs>
 <g id="Document" fill="none" stroke="black" font-family="Times New Roman" font-size="16" transform="scale(1 -1)">
  <g id="Spread" transform="translate(0 -215.434)">
   <g id="Layer 1">
    <g id="Group" stroke-linejoin="miter" stroke="#999999" fill="#ffffff">
     <path d="M 199.757,214.933 L 15.176,214.933 C 6.799,214.933 0,208.134 0,199.757 L 0,15.176 C 0,6.799 6.799,0 15.176,0 L 199.757,0 C 208.134,0 214.933,6.799 214.933,15.176 L 214.933,199.757 C 214.933,208.134 208.134,214.933 199.757,214.933 Z" marker-start="none" marker-end="none"/>
    </g>
    <g id="Group_1">
     <g id="Group_2" stroke-linejoin="miter" stroke-linecap="round" stroke="#ff7979">
      <path d="M 15.03,146.14 L 15.03,180.032 L 118.618,180.032 L 118.618,146.14 L 15.03,146.14 Z" fill="#ff7979" stroke-width="1.738" marker-start="none" marker-end="none" stroke-miterlimit="79.8403193612775"/>
      <path d="M 15.03,144.797 L 15.03,154.607 C 15.03,157.178 17.114,159.255 19.676,159.255 L 113.968,159.255 C 116.53,159.255 118.618,157.178 118.618,154.607 L 118.618,144.797 C 118.618,142.221 116.53,140.143 113.968,140.143 L 19.676,140.143 C 17.114,140.143 15.03,142.221 15.03,144.797 Z" fill="#ff7979" stroke-width="1.738" marker-start="none" marker-end="none" stroke-miterlimit="79.8403193612775"/>
      <path d="M 15.727,173.69 L 15.727,191.335 C 15.727,195.948 19.471,199.694 24.089,199.694 L 191.135,199.694 C 195.748,199.694 199.496,195.948 199.496,191.335 L 199.496,173.69 C 199.496,169.072 195.748,165.324 191.135,165.324 L 24.089,165.324 C 19.471,165.324 15.727,169.072 15.727,173.69 Z" fill="#ffffff" stroke-width="3.13" marker-start="none" marker-end="none" stroke-miterlimit="79.8403193612775"/>
     </g>
     <g id="Group_3" stroke-linecap="round" stroke="none" fill="#e5e5e5">
      <path d="M 0.53,114.75 L 0.53,123.284 L 49.693,123.284 L 49.693,114.75 L 0.53,114.75 Z" stroke-width="0.103" stroke-linejoin="miter" marker-start="none" marker-end="none" stroke-miterlimit="79.8403193612775"/>
      <path d="M 100.135,94.518 C 87.867,107.957 71.054,114.786 54.181,114.789 L 54.181,123.268 C 73.353,123.263 92.466,115.513 106.4,100.244 C 118.774,86.683 124.875,69.606 124.87,52.583 L 116.384,52.583 C 116.391,67.565 111.022,82.592 100.135,94.518 Z" stroke-width="0.541" stroke-linejoin="round" marker-start="none" marker-end="none" stroke-miterlimit="79.8403193612775"/>
      <path d="M 120.643,14.63 L 118.525,17.675 L 116.403,20.728 L 116.35,20.728 L 116.35,48.005 L 124.886,48.005 L 124.886,20.728 L 122.766,17.675 L 120.643,14.63 Z" stroke-width="0.103" stroke-linejoin="miter" marker-start="none" marker-end="none" stroke-miterlimit="79.8403193612775"/>
     </g>
     <g id="Group_4" fill="#ffcd36" stroke-linecap="round" stroke="none">
      <path d="M 109.093,14.626 L 106.973,17.672 L 104.852,20.728 L 109.093,20.728 L 113.334,20.724 L 111.211,17.672 L 109.093,14.626 Z M 104.829,20.728 L 104.829,48.005 L 113.363,48.005 L 113.363,20.728 L 104.829,20.728 Z" stroke-width="0.103" stroke-linejoin="miter" marker-start="none" marker-end="none" stroke-miterlimit="79.8403193612775"/>
      <path d="M 91.781,86.896 C 81.741,97.887 67.986,103.474 54.181,103.479 L 54.181,111.96 C 70.288,111.956 86.338,105.441 98.047,92.613 C 108.441,81.226 113.561,66.883 113.558,52.583 L 105.072,52.583 C 105.082,64.84 100.687,77.132 91.781,86.896 Z" stroke-width="0.453" stroke-linejoin="round" marker-start="none" marker-end="none" stroke-miterlimit="79.8403193612775"/>
      <path d="M 0.53,103.447 L 0.53,111.979 L 49.693,111.979 L 49.693,103.447 L 0.53,103.447 Z" stroke-width="0.103" stroke-linejoin="miter" marker-start="none" marker-end="none" stroke-miterlimit="79.8403193612775"/>
     </g>
     <g id="Group_5" stroke-linecap="round" stroke="none" fill="#e5e5e5">
      <path d="M 97.777,14.626 L 95.661,17.672 L 93.54,20.728 L 97.781,20.728 L 102.024,20.724 L 99.904,17.672 L 97.777,14.626 Z M 93.531,20.728 L 93.531,48.005 L 102.066,48.005 L 102.066,20.728 L 93.531,20.728 Z" stroke-width="0.103" stroke-linejoin="miter" marker-start="none" marker-end="none" stroke-miterlimit="79.8403193612775"/>
      <path d="M 0.53,92.149 L 0.53,100.68 L 49.693,100.68 L 49.693,92.149 L 0.53,92.149 Z" stroke-width="0.103" stroke-linejoin="miter" marker-start="none" marker-end="none" stroke-miterlimit="79.8403193612775"/>
      <path d="M 83.426,79.269 C 75.619,87.821 64.914,92.161 54.181,92.167 L 54.181,100.651 C 67.223,100.648 80.213,95.375 89.692,84.986 C 98.103,75.771 102.251,64.155 102.249,52.583 L 93.767,52.583 C 93.767,62.115 90.353,71.68 83.426,79.269 Z" stroke-width="0.368" stroke-linejoin="round" marker-start="none" marker-end="none" stroke-miterlimit="79.8403193612775"/>
     </g>
     <g id="Group_6" fill="#e5e5e5" stroke-linecap="round" stroke="none">
      <path d="M 0.53,80.853 L 0.53,89.387 L 49.693,89.387 L 49.693,80.853 L 0.53,80.853 Z" stroke-width="0.103" stroke-linejoin="miter" marker-start="none" marker-end="none" stroke-miterlimit="79.8403193612775"/>
      <path d="M 75.071,71.648 C 69.493,77.755 61.855,80.855 54.181,80.858 L 54.181,89.345 C 64.151,89.336 74.09,85.303 81.333,77.365 C 87.772,70.316 90.943,61.439 90.939,52.583 L 82.451,52.583 C 82.458,59.39 80.016,66.222 75.071,71.648 Z" stroke-width="0.281" stroke-linejoin="round" marker-start="none" marker-end="none" stroke-miterlimit="79.8403193612775"/>
      <path d="M 86.724,14.63 L 84.592,17.675 L 82.451,20.728 L 82.451,20.728 L 82.451,48.005 L 90.99,48.005 L 90.99,20.728 L 90.99,20.728 L 88.86,17.672 L 86.724,14.63 Z" stroke-width="0.103" stroke-linejoin="miter" marker-start="none" marker-end="none" stroke-miterlimit="79.8403193612775"/>
     </g>
     <g id="Group_7" stroke-linejoin="miter" stroke-miterlimit="79.8403193612775">
      <path d="M 21.38,24.925 C 12.483,35.465 13.808,51.251 24.36,60.135 C 34.891,69.049 50.656,67.717 59.557,57.179 C 68.471,46.639 67.135,30.865 56.581,21.962 C 46.05,13.066 30.278,14.397 21.38,24.925 Z" stroke="none" fill="#000000" stroke-width="1.039" marker-start="none" marker-end="none" stroke-miterlimit="19.9600798403194"/>
      <path d="M 22.557,25.882 C 13.67,36.427 14.986,52.18 25.53,61.097 C 36.073,69.97 51.84,68.655 60.757,58.117 C 69.651,47.58 68.318,31.797 57.771,22.9 C 47.243,14.004 31.462,15.328 22.557,25.882 Z" stroke="#b2b2b2" stroke-width="5.658" marker-start="none" marker-end="none" stroke-miterlimit="19.9600798403194"/>
     </g>
     <g id="Group_8" stroke-linejoin="miter" stroke-miterlimit="79.8403193612775">
      <path d="M 168.751,100.722 C 162.851,107.7 163.73,118.16 170.725,124.069 C 177.707,129.961 188.16,129.082 194.064,122.095 C 199.973,115.103 199.087,104.649 192.09,98.744 C 185.108,92.849 174.651,93.728 168.751,100.722 Z" stroke="none" fill="#000000" stroke-width="0.686" marker-start="none" marker-end="none" stroke-miterlimit="19.9600798403194"/>
      <path d="M 169.529,101.331 C 163.638,108.329 164.51,118.788 171.503,124.681 C 178.492,130.59 188.944,129.707 194.86,122.714 C 200.757,115.732 199.872,105.28 192.878,99.375 C 185.899,93.469 175.435,94.348 169.529,101.331 Z" stroke="#b2b2b2" stroke-width="3.752" marker-start="none" marker-end="none" stroke-miterlimit="19.9600798403194"/>
     </g>
     <g id="Group_9" stroke-linejoin="miter" stroke-miterlimit="79.8403193612775">
      <path d="M 19.254,93.529 C 14.729,98.885 15.405,106.901 20.763,111.425 C 26.119,115.948 34.14,115.276 38.659,109.918 C 43.184,104.562 42.509,96.543 37.15,92.023 C 31.796,87.495 23.776,88.178 19.254,93.529 Z" stroke="none" fill="#ffffff" stroke-width="0.526" marker-start="none" marker-end="none" stroke-miterlimit="19.9600798403194"/>
      <path d="M 19.857,94.011 C 15.333,99.36 16.009,107.382 21.365,111.903 C 26.724,116.431 34.74,115.753 39.264,110.394 C 43.792,105.043 43.115,97.02 37.755,92.496 C 32.395,87.975 24.38,88.649 19.857,94.011 Z" fill="none" stroke="#55bae6" stroke-width="2.872" marker-start="none" marker-end="none" stroke-miterlimit="19.9600798403194"/>
     </g>
     <g id="Group_10" stroke-linejoin="miter" stroke-miterlimit="79.8403193612775">
      <path d="M 76.562,81.58 C 72.041,86.931 72.716,94.95 78.073,99.478 C 83.43,103.994 91.449,103.321 95.973,97.963 C 100.496,92.609 99.816,84.592 94.462,80.069 C 89.106,75.545 81.087,76.221 76.562,81.58 Z" stroke="none" fill="#ffffff" stroke-width="0.526" marker-start="none" marker-end="none" stroke-miterlimit="19.9600798403194"/>
      <path d="M 77.171,82.058 C 72.643,87.412 73.317,95.428 78.677,99.952 C 84.035,104.477 92.05,103.803 96.575,98.441 C 101.103,93.085 100.418,85.068 95.067,80.542 C 89.707,76.017 81.692,76.698 77.171,82.058 Z" fill="none" stroke="#55bae6" stroke-width="2.872" marker-start="none" marker-end="none" stroke-miterlimit="19.9600798403194"/>
     </g>
     <g id="Group_11" stroke-linejoin="miter" stroke-miterlimit="79.8403193612775">
      <path d="M 93.35,23.95 C 88.826,29.306 89.505,37.323 94.86,41.851 C 100.221,46.372 108.24,45.694 112.763,40.336 C 117.291,34.984 116.609,26.961 111.252,22.442 C 105.892,17.923 97.876,18.597 93.35,23.95 Z" stroke="none" fill="#ffffff" stroke-width="0.526" marker-start="none" marker-end="none" stroke-miterlimit="19.9600798403194"/>
      <path d="M 93.957,24.434 C 89.433,29.785 90.11,37.804 95.468,42.329 C 100.828,46.85 108.843,46.176 113.366,40.816 C 117.892,35.463 117.215,27.443 111.859,22.922 C 106.497,18.397 98.48,19.073 93.957,24.434 Z" fill="none" stroke="#55bae6" stroke-width="2.872" marker-start="none" marker-end="none" stroke-miterlimit="19.9600798403194"/>
     </g>
     <g id="Group_12" stroke-linejoin="miter" stroke-miterlimit="79.8403193612775">
      <path d="M 128.066,100.709 C 122.166,107.698 123.045,118.166 130.042,124.057 C 137.025,129.968 147.479,129.085 153.381,122.097 C 159.292,115.108 158.406,104.648 151.408,98.744 C 144.425,92.845 133.966,93.728 128.066,100.709 Z" stroke="none" fill="#ffffff" stroke-width="0.689" marker-start="none" marker-end="none" stroke-miterlimit="19.9600798403194"/>
      <path d="M 128.846,101.344 C 122.953,108.336 123.826,118.782 130.818,124.695 C 137.809,130.579 148.264,129.707 154.177,122.719 C 160.075,115.732 159.191,105.266 152.197,99.366 C 145.216,93.467 134.751,94.345 128.846,101.344 Z" stroke="#55bae6" stroke-width="3.752" marker-start="none" marker-end="none" stroke-miterlimit="19.9600798403194"/>
     </g>
     <g id="Group_13" stroke-linejoin="miter" stroke-miterlimit="79.8403193612775">
      <path d="M 152.091,24.914 C 143.194,35.454 144.519,51.24 155.071,60.124 C 165.602,69.038 181.367,67.706 190.268,57.168 C 199.182,46.628 197.846,30.854 187.292,21.951 C 176.761,13.055 160.989,14.386 152.091,24.914 Z" stroke="none" fill="#ffffff" stroke-width="1.039" marker-start="none" marker-end="none" stroke-miterlimit="19.9600798403194"/>
      <path d="M 153.268,25.871 C 144.381,36.416 145.697,52.169 156.241,61.086 C 166.784,69.959 182.551,68.644 191.468,58.106 C 200.362,47.569 199.029,31.786 188.482,22.889 C 177.954,13.993 162.173,15.317 153.268,25.871 Z" stroke="#55bae6" stroke-width="5.658" marker-start="none" marker-end="none" stroke-miterlimit="19.9600798403194"/>
     </g>
     <g id="Group_14" fill-rule="nonzero" stroke-linejoin="round" stroke-linecap="round" stroke="none" stroke-width="0.773" fill="#b2b2b2" stroke-miterlimit="79.8403193612775">
      <g id="Group_15">
       <path d="M 36.661,34.562 L 40.995,34.562 L 40.995,45.94 C 40.995,46.498 41.011,47.081 41.042,47.69 L 38.488,45.569 C 38.322,45.435 38.157,45.339 37.992,45.282 C 37.827,45.226 37.667,45.197 37.512,45.197 C 37.244,45.197 37.004,45.257 36.792,45.375 C 36.581,45.494 36.424,45.62 36.32,45.754 L 34.803,47.767 L 41.831,53.666 L 45.794,53.666 L 45.794,34.562 L 49.509,34.562 L 49.509,31.093 L 36.661,31.093 L 36.661,34.562 Z" marker-start="none" marker-end="none"/>
      </g>
     </g>
     <g id="Group_16" fill-rule="nonzero" stroke-linejoin="round" stroke-linecap="round" stroke="none" stroke-width="0.485" fill="#b2b2b2" stroke-miterlimit="79.8403193612775">
      <g id="Group_17">
       <path d="M 181.374,119.283 C 182.075,119.283 182.707,119.181 183.269,118.976 C 183.831,118.772 184.31,118.487 184.707,118.124 C 185.103,117.76 185.407,117.326 185.618,116.823 C 185.829,116.319 185.935,115.765 185.935,115.161 C 185.935,114.641 185.862,114.16 185.715,113.718 C 185.569,113.276 185.369,112.856 185.116,112.456 C 184.863,112.057 184.569,111.67 184.234,111.296 C 183.899,110.923 183.544,110.544 183.167,110.161 L 180.389,107.315 C 180.747,107.42 181.099,107.503 181.447,107.565 C 181.794,107.628 182.121,107.658 182.426,107.658 L 185.077,107.658 C 185.402,107.658 185.658,107.569 185.847,107.39 C 186.035,107.211 186.13,106.975 186.13,106.683 L 186.13,104.927 L 176.15,104.927 L 176.15,105.902 C 176.15,106.09 176.189,106.291 176.267,106.506 C 176.345,106.72 176.482,106.915 176.676,107.091 L 180.77,111.214 C 181.12,111.565 181.426,111.9 181.686,112.218 C 181.945,112.536 182.16,112.85 182.329,113.158 C 182.498,113.467 182.624,113.776 182.709,114.084 C 182.793,114.393 182.836,114.72 182.836,115.064 C 182.836,115.629 182.701,116.063 182.431,116.365 C 182.161,116.667 181.751,116.819 181.198,116.819 C 180.971,116.819 180.763,116.786 180.575,116.721 C 180.386,116.656 180.217,116.568 180.068,116.458 C 179.918,116.348 179.79,116.218 179.683,116.068 C 179.576,115.919 179.49,115.756 179.425,115.581 C 179.321,115.289 179.189,115.078 179.03,114.948 C 178.871,114.818 178.655,114.753 178.382,114.753 C 178.317,114.753 178.247,114.756 178.172,114.762 C 178.098,114.769 178.021,114.778 177.943,114.791 L 176.345,115.069 C 176.449,115.778 176.649,116.396 176.944,116.923 C 177.24,117.45 177.607,117.888 178.046,118.24 C 178.484,118.591 178.986,118.852 179.551,119.025 C 180.117,119.197 180.724,119.283 181.374,119.283 Z" marker-start="none" marker-end="none"/>
      </g>
     </g>
     <g id="Group_18" fill-rule="nonzero" stroke-linejoin="round" stroke-linecap="round" stroke="none" stroke-width="0.387" fill="#000000" stroke-miterlimit="79.8403193612775">
      <g id="Group_19">
       <path d="M 33.764,102.205 C 33.764,101.214 33.658,100.355 33.445,99.629 C 33.232,98.902 32.938,98.3 32.562,97.823 C 32.186,97.346 31.739,96.99 31.223,96.757 C 30.707,96.523 30.148,96.407 29.546,96.407 C 28.944,96.407 28.388,96.523 27.877,96.757 C 27.366,96.99 26.924,97.346 26.55,97.823 C 26.176,98.3 25.885,98.902 25.674,99.629 C 25.464,100.355 25.359,101.214 25.359,102.205 C 25.359,103.196 25.464,104.055 25.674,104.782 C 25.885,105.508 26.176,106.11 26.55,106.587 C 26.924,107.065 27.366,107.419 27.877,107.65 C 28.388,107.881 28.944,107.996 29.546,107.996 C 30.148,107.996 30.707,107.881 31.223,107.65 C 31.739,107.419 32.186,107.065 32.562,106.587 C 32.938,106.11 33.232,105.508 33.445,104.782 C 33.658,104.055 33.764,103.196 33.764,102.205 Z M 31.274,102.205 C 31.274,102.989 31.224,103.631 31.126,104.132 C 31.027,104.633 30.896,105.026 30.733,105.311 C 30.569,105.596 30.384,105.792 30.176,105.899 C 29.969,106.005 29.759,106.058 29.546,106.058 C 29.333,106.058 29.125,106.005 28.92,105.899 C 28.715,105.792 28.533,105.596 28.375,105.311 C 28.217,105.026 28.09,104.633 27.994,104.132 C 27.898,103.631 27.85,102.989 27.85,102.205 C 27.85,101.417 27.898,100.773 27.994,100.275 C 28.09,99.777 28.217,99.384 28.375,99.096 C 28.533,98.808 28.715,98.61 28.92,98.504 C 29.125,98.398 29.333,98.345 29.546,98.345 C 29.759,98.345 29.969,98.398 30.176,98.504 C 30.384,98.61 30.569,98.808 30.733,99.096 C 30.896,99.384 31.027,99.777 31.126,100.275 C 31.224,100.773 31.274,101.417 31.274,102.205 Z" marker-start="none" marker-end="none"/>
      </g>
     </g>
     <g id="Group_20" fill-rule="nonzero" stroke-linejoin="round" stroke-linecap="round" stroke="none" stroke-width="0.485" fill="#000000" stroke-miterlimit="79.8403193612775">
      <g id="Group_21">
       <path d="M 141.619,119.283 C 142.32,119.283 142.952,119.181 143.514,118.976 C 144.076,118.772 144.555,118.487 144.952,118.124 C 145.348,117.76 145.652,117.326 145.863,116.823 C 146.074,116.319 146.18,115.765 146.18,115.161 C 146.18,114.641 146.107,114.16 145.96,113.718 C 145.814,113.276 145.614,112.856 145.361,112.456 C 145.108,112.057 144.814,111.67 144.479,111.296 C 144.144,110.923 143.789,110.544 143.412,110.161 L 140.634,107.315 C 140.992,107.42 141.344,107.503 141.692,107.565 C 142.039,107.628 142.366,107.658 142.671,107.658 L 145.322,107.658 C 145.647,107.658 145.903,107.569 146.092,107.39 C 146.28,107.211 146.375,106.975 146.375,106.683 L 146.375,104.927 L 136.395,104.927 L 136.395,105.902 C 136.395,106.09 136.434,106.291 136.512,106.506 C 136.59,106.72 136.727,106.915 136.921,107.091 L 141.015,111.214 C 141.365,111.565 141.671,111.9 141.931,112.218 C 142.19,112.536 142.405,112.85 142.574,113.158 C 142.743,113.467 142.869,113.776 142.954,114.084 C 143.038,114.393 143.081,114.72 143.081,115.064 C 143.081,115.629 142.946,116.063 142.676,116.365 C 142.406,116.667 141.996,116.819 141.443,116.819 C 141.216,116.819 141.008,116.786 140.82,116.721 C 140.631,116.656 140.462,116.568 140.313,116.458 C 140.163,116.348 140.035,116.218 139.928,116.068 C 139.821,115.919 139.735,115.756 139.67,115.581 C 139.566,115.289 139.434,115.078 139.275,114.948 C 139.116,114.818 138.9,114.753 138.627,114.753 C 138.562,114.753 138.492,114.756 138.417,114.762 C 138.343,114.769 138.266,114.778 138.188,114.791 L 136.59,115.069 C 136.694,115.778 136.894,116.396 137.189,116.923 C 137.485,117.45 137.852,117.888 138.291,118.24 C 138.729,118.591 139.231,118.852 139.796,119.025 C 140.362,119.197 140.969,119.283 141.619,119.283 Z" marker-start="none" marker-end="none"/>
      </g>
     </g>
     <g id="Group_22" fill-rule="nonzero" stroke-linejoin="round" stroke-linecap="round" stroke="none" stroke-width="0.387" fill="#000000" stroke-miterlimit="79.8403193612775">
      <g id="Group_23">
       <path d="M 82.695,94.501 L 82.695,91.419 L 85.574,91.419 L 85.574,89.69 L 82.695,89.69 L 82.695,86.593 L 80.734,86.593 L 80.734,89.69 L 77.87,89.69 L 77.87,91.419 L 80.734,91.419 L 80.734,94.501 L 82.695,94.501 Z" marker-start="none" marker-end="none"/>
       <path d="M 88.205,87.068 L 90.384,87.068 L 90.384,92.788 C 90.384,93.069 90.392,93.362 90.407,93.668 L 89.123,92.601 C 89.04,92.534 88.957,92.486 88.874,92.457 C 88.791,92.429 88.711,92.415 88.633,92.415 C 88.498,92.415 88.378,92.444 88.271,92.504 C 88.165,92.564 88.086,92.627 88.034,92.695 L 87.271,93.707 L 90.804,96.672 L 92.797,96.672 L 92.797,87.068 L 94.664,87.068 L 94.664,85.324 L 88.205,85.324 L 88.205,87.068 Z" marker-start="none" marker-end="none"/>
      </g>
     </g>
     <g id="Group_24" fill-rule="nonzero" stroke-linejoin="round" stroke-linecap="round" stroke="none" stroke-width="0.387" fill="#000000" stroke-miterlimit="79.8403193612775">
      <g id="Group_25">
       <path d="M 100.09,36.127 L 100.09,33.045 L 102.969,33.045 L 102.969,31.316 L 100.09,31.316 L 100.09,28.219 L 98.129,28.219 L 98.129,31.316 L 95.265,31.316 L 95.265,33.045 L 98.129,33.045 L 98.129,36.127 L 100.09,36.127 Z" marker-start="none" marker-end="none"/>
       <path d="M 105.6,28.694 L 107.779,28.694 L 107.779,34.414 C 107.779,34.695 107.787,34.988 107.802,35.294 L 106.518,34.227 C 106.435,34.16 106.352,34.112 106.269,34.083 C 106.186,34.055 106.106,34.041 106.028,34.041 C 105.893,34.041 105.773,34.07 105.666,34.13 C 105.56,34.19 105.481,34.253 105.429,34.321 L 104.666,35.333 L 108.199,38.298 L 110.192,38.298 L 110.192,28.694 L 112.059,28.694 L 112.059,26.95 L 105.6,26.95 L 105.6,28.694 Z" marker-start="none" marker-end="none"/>
      </g>
     </g>
     <g id="Group_26" fill-rule="nonzero" stroke-linejoin="round" stroke-linecap="round" stroke="none" stroke-width="0.319" fill="#ffffff" stroke-miterlimit="79.8403193612775">
      <g id="Group_27">
       <path d="M 34.365,151.094 C 34.416,151.094 34.468,151.085 34.519,151.065 C 34.57,151.045 34.619,151.012 34.666,150.964 L 35.522,150.043 C 35.147,149.561 34.677,149.197 34.113,148.951 C 33.548,148.706 32.88,148.583 32.109,148.583 C 31.401,148.583 30.767,148.703 30.207,148.944 C 29.647,149.185 29.171,149.518 28.781,149.942 C 28.392,150.366 28.092,150.869 27.883,151.451 C 27.675,152.032 27.57,152.664 27.57,153.346 C 27.57,154.041 27.689,154.679 27.928,155.261 C 28.167,155.843 28.5,156.345 28.929,156.767 C 29.357,157.189 29.869,157.517 30.466,157.751 C 31.063,157.986 31.721,158.103 32.441,158.103 C 32.791,158.103 33.12,158.072 33.429,158.01 C 33.738,157.948 34.026,157.863 34.295,157.754 C 34.563,157.645 34.811,157.515 35.036,157.363 C 35.262,157.212 35.463,157.044 35.637,156.861 L 34.909,155.883 C 34.862,155.823 34.806,155.769 34.742,155.72 C 34.678,155.671 34.589,155.646 34.474,155.646 C 34.397,155.646 34.325,155.663 34.257,155.697 C 34.188,155.731 34.116,155.773 34.039,155.822 C 33.963,155.871 33.878,155.924 33.787,155.982 C 33.695,156.039 33.586,156.093 33.461,156.142 C 33.335,156.191 33.188,156.232 33.02,156.266 C 32.851,156.3 32.654,156.317 32.428,156.318 C 32.036,156.317 31.678,156.248 31.354,156.11 C 31.031,155.971 30.752,155.773 30.52,155.515 C 30.288,155.257 30.107,154.945 29.977,154.579 C 29.847,154.212 29.782,153.801 29.782,153.345 C 29.782,152.867 29.847,152.443 29.977,152.072 C 30.107,151.702 30.284,151.389 30.507,151.136 C 30.731,150.882 30.992,150.689 31.291,150.557 C 31.589,150.425 31.908,150.359 32.249,150.359 C 32.445,150.359 32.624,150.369 32.786,150.388 C 32.948,150.407 33.098,150.44 33.237,150.487 C 33.375,150.534 33.508,150.594 33.633,150.669 C 33.759,150.744 33.886,150.836 34.014,150.947 C 34.065,150.99 34.12,151.025 34.18,151.053 C 34.24,151.08 34.301,151.094 34.365,151.094 Z" marker-start="none" marker-end="none"/>
       <path d="M 45.702,153.346 C 45.702,152.673 45.586,152.046 45.354,151.467 C 45.122,150.887 44.795,150.383 44.373,149.954 C 43.951,149.526 43.443,149.19 42.848,148.947 C 42.254,148.704 41.594,148.583 40.87,148.583 C 40.145,148.583 39.485,148.704 38.888,148.947 C 38.291,149.19 37.781,149.526 37.357,149.954 C 36.933,150.383 36.605,150.887 36.373,151.467 C 36.14,152.046 36.024,152.673 36.024,153.346 C 36.024,154.02 36.14,154.646 36.373,155.226 C 36.605,155.806 36.933,156.308 37.357,156.735 C 37.781,157.161 38.291,157.496 38.888,157.739 C 39.485,157.981 40.145,158.103 40.87,158.103 C 41.594,158.103 42.254,157.98 42.848,157.735 C 43.443,157.49 43.951,157.155 44.373,156.728 C 44.795,156.302 45.122,155.799 45.354,155.219 C 45.586,154.64 45.702,154.015 45.702,153.346 Z M 43.491,153.346 C 43.491,153.806 43.431,154.22 43.312,154.589 C 43.192,154.957 43.021,155.27 42.797,155.525 C 42.573,155.781 42.299,155.977 41.976,156.113 C 41.652,156.249 41.283,156.317 40.87,156.318 C 40.452,156.317 40.08,156.249 39.754,156.113 C 39.428,155.977 39.153,155.781 38.93,155.525 C 38.706,155.27 38.534,154.957 38.415,154.589 C 38.296,154.22 38.236,153.806 38.236,153.346 C 38.236,152.882 38.296,152.465 38.415,152.097 C 38.534,151.728 38.706,151.416 38.93,151.161 C 39.153,150.905 39.428,150.71 39.754,150.576 C 40.08,150.442 40.452,150.375 40.87,150.375 C 41.283,150.375 41.652,150.442 41.976,150.576 C 42.299,150.71 42.573,150.905 42.797,151.161 C 43.021,151.416 43.192,151.728 43.312,152.097 C 43.431,152.465 43.491,152.882 43.491,153.346 Z" marker-start="none" marker-end="none"/>
       <path d="M 47.874,158.003 C 47.968,158.003 48.047,157.999 48.11,157.99 C 48.174,157.982 48.232,157.966 48.283,157.942 C 48.334,157.919 48.383,157.886 48.43,157.843 C 48.477,157.8 48.53,157.743 48.59,157.671 L 53.013,152.077 C 52.996,152.256 52.984,152.43 52.975,152.598 C 52.967,152.766 52.962,152.925 52.962,153.075 L 52.962,158.003 L 54.867,158.003 L 54.867,148.686 L 53.742,148.686 C 53.576,148.686 53.435,148.712 53.32,148.763 C 53.205,148.814 53.094,148.908 52.988,149.044 L 48.596,154.593 C 48.609,154.431 48.62,154.272 48.628,154.116 C 48.637,153.961 48.641,153.815 48.641,153.678 L 48.641,148.686 L 46.736,148.686 L 46.736,158.003 L 47.874,158.003 Z" marker-start="none" marker-end="none"/>
       <path d="M 61.591,156.108 C 61.527,156.005 61.46,155.929 61.389,155.878 C 61.319,155.826 61.228,155.801 61.118,155.801 C 61.02,155.801 60.914,155.832 60.801,155.894 C 60.688,155.955 60.56,156.025 60.418,156.101 C 60.275,156.178 60.112,156.247 59.929,156.309 C 59.745,156.371 59.537,156.402 59.302,156.402 C 58.897,156.402 58.596,156.316 58.398,156.143 C 58.2,155.97 58.1,155.737 58.1,155.443 C 58.1,155.255 58.16,155.1 58.279,154.976 C 58.399,154.853 58.555,154.746 58.749,154.656 C 58.943,154.567 59.165,154.485 59.414,154.41 C 59.663,154.336 59.918,154.253 60.178,154.161 C 60.438,154.069 60.693,153.962 60.942,153.838 C 61.191,153.715 61.413,153.557 61.607,153.365 C 61.801,153.173 61.957,152.94 62.077,152.665 C 62.196,152.39 62.256,152.059 62.256,151.671 C 62.256,151.24 62.181,150.838 62.032,150.463 C 61.883,150.088 61.666,149.76 61.383,149.481 C 61.1,149.202 60.75,148.983 60.335,148.823 C 59.919,148.663 59.447,148.583 58.919,148.583 C 58.629,148.583 58.334,148.613 58.033,148.673 C 57.733,148.732 57.442,148.816 57.161,148.925 C 56.88,149.034 56.615,149.163 56.368,149.312 C 56.121,149.461 55.906,149.627 55.722,149.811 L 56.362,150.821 C 56.409,150.898 56.475,150.959 56.56,151.006 C 56.645,151.053 56.737,151.077 56.835,151.077 C 56.963,151.077 57.092,151.036 57.222,150.955 C 57.351,150.874 57.499,150.785 57.663,150.687 C 57.827,150.589 58.015,150.499 58.228,150.418 C 58.441,150.337 58.693,150.297 58.983,150.297 C 59.375,150.297 59.679,150.383 59.897,150.555 C 60.114,150.728 60.223,151.002 60.223,151.377 C 60.223,151.595 60.163,151.771 60.044,151.908 C 59.924,152.044 59.768,152.157 59.574,152.247 C 59.38,152.336 59.159,152.415 58.912,152.483 C 58.665,152.551 58.412,152.627 58.152,152.71 C 57.892,152.793 57.638,152.895 57.391,153.017 C 57.144,153.138 56.923,153.298 56.729,153.496 C 56.535,153.695 56.379,153.942 56.259,154.238 C 56.14,154.534 56.08,154.9 56.08,155.335 C 56.08,155.684 56.151,156.025 56.291,156.358 C 56.432,156.69 56.639,156.986 56.911,157.246 C 57.184,157.506 57.519,157.714 57.915,157.87 C 58.311,158.025 58.765,158.103 59.277,158.103 C 59.562,158.103 59.84,158.081 60.111,158.036 C 60.381,157.991 60.638,157.925 60.881,157.837 C 61.124,157.75 61.351,157.646 61.562,157.524 C 61.773,157.403 61.961,157.265 62.128,157.112 L 61.591,156.108 Z" marker-start="none" marker-end="none"/>
       <path d="M 67.203,150.393 C 67.493,150.393 67.752,150.441 67.98,150.537 C 68.208,150.633 68.4,150.77 68.558,150.95 C 68.716,151.129 68.836,151.347 68.919,151.605 C 69.002,151.863 69.044,152.156 69.044,152.484 L 69.044,158.001 L 71.205,158.001 L 71.205,152.483 C 71.205,151.912 71.112,151.388 70.926,150.91 C 70.741,150.433 70.476,150.022 70.131,149.676 C 69.785,149.331 69.366,149.063 68.871,148.871 C 68.377,148.679 67.821,148.583 67.203,148.583 C 66.581,148.583 66.022,148.679 65.528,148.871 C 65.034,149.063 64.614,149.331 64.269,149.676 C 63.924,150.022 63.659,150.433 63.476,150.91 C 63.293,151.388 63.201,151.912 63.201,152.483 L 63.201,158.001 L 65.362,158.001 L 65.362,152.49 C 65.362,152.162 65.403,151.869 65.487,151.611 C 65.57,151.353 65.69,151.134 65.848,150.953 C 66.005,150.772 66.198,150.633 66.426,150.537 C 66.654,150.441 66.913,150.393 67.203,150.393 Z" marker-start="none" marker-end="none"/>
       <path d="M 77.374,152.916 C 77.46,152.753 77.542,152.583 77.621,152.407 C 77.699,152.231 77.775,152.051 77.847,151.867 C 77.92,152.056 77.997,152.239 78.078,152.417 C 78.159,152.595 78.242,152.768 78.327,152.935 L 80.718,157.672 C 80.76,157.753 80.804,157.817 80.849,157.862 C 80.893,157.907 80.944,157.94 80.999,157.962 C 81.054,157.983 81.117,157.994 81.187,157.994 C 81.258,157.994 81.34,157.994 81.434,157.994 L 83.083,157.994 L 83.083,148.686 L 81.178,148.686 L 81.178,153.973 C 81.178,154.23 81.191,154.507 81.216,154.806 L 78.749,150.092 C 78.672,149.945 78.569,149.834 78.439,149.758 C 78.309,149.683 78.161,149.645 77.994,149.645 L 77.7,149.645 C 77.534,149.645 77.386,149.683 77.256,149.758 C 77.126,149.834 77.023,149.945 76.946,150.092 L 74.466,154.812 C 74.483,154.665 74.496,154.519 74.504,154.374 C 74.513,154.229 74.517,154.095 74.517,153.973 L 74.517,148.686 L 72.612,148.686 L 72.612,157.994 L 74.261,157.994 C 74.355,157.994 74.437,157.994 74.507,157.994 C 74.578,157.994 74.641,157.983 74.696,157.962 C 74.751,157.94 74.801,157.907 74.846,157.862 C 74.891,157.817 74.935,157.753 74.977,157.672 L 77.374,152.916 Z" marker-start="none" marker-end="none"/>
       <path d="M 90.613,158.003 L 90.613,156.339 L 86.791,156.339 L 86.791,154.164 L 89.718,154.164 L 89.718,152.566 L 86.791,152.566 L 86.791,150.35 L 90.613,150.35 L 90.613,148.686 L 84.617,148.686 L 84.617,158.003 L 90.613,158.003 Z" marker-start="none" marker-end="none"/>
       <path d="M 94.001,152.132 L 94.001,148.686 L 91.84,148.686 L 91.84,158 L 94.87,158 C 95.543,158 96.118,157.931 96.593,157.792 C 97.068,157.653 97.456,157.46 97.756,157.213 C 98.057,156.965 98.275,156.673 98.411,156.336 C 98.548,155.999 98.616,155.632 98.616,155.235 C 98.616,154.932 98.576,154.646 98.495,154.377 C 98.414,154.109 98.293,153.86 98.133,153.632 C 97.974,153.403 97.778,153.2 97.545,153.02 C 97.313,152.841 97.046,152.694 96.743,152.579 C 96.888,152.507 97.023,152.417 97.149,152.311 C 97.275,152.204 97.384,152.075 97.478,151.921 L 99.46,148.686 L 97.504,148.686 C 97.142,148.686 96.882,148.822 96.724,149.095 L 95.177,151.799 C 95.109,151.919 95.029,152.004 94.937,152.055 C 94.846,152.106 94.717,152.132 94.55,152.132 L 94.001,152.132 Z M 94.001,153.621 L 94.87,153.621 C 95.164,153.621 95.415,153.658 95.621,153.733 C 95.828,153.807 95.997,153.911 96.129,154.043 C 96.261,154.175 96.357,154.329 96.417,154.506 C 96.477,154.683 96.507,154.874 96.507,155.079 C 96.507,155.488 96.373,155.808 96.107,156.038 C 95.841,156.268 95.428,156.383 94.87,156.383 L 94.001,156.383 L 94.001,153.621 Z" marker-start="none" marker-end="none"/>
      </g>
     </g>
     <g id="Group_28" fill-rule="nonzero" stroke-linejoin="round" stroke-linecap="round" stroke="none" stroke-width="0.773" fill="#000000" stroke-miterlimit="79.8403193612775">
      <g id="Group_29">
       <path d="M 178.972,51.51 C 178.972,51.18 178.92,50.881 178.817,50.613 C 178.714,50.344 178.551,50.11 178.329,49.908 C 178.107,49.707 177.816,49.552 177.455,49.444 C 177.094,49.336 176.66,49.281 176.154,49.281 L 170.768,49.281 L 170.133,45.549 C 170.556,45.621 170.964,45.676 171.356,45.712 C 171.748,45.749 172.13,45.767 172.501,45.767 C 173.688,45.767 174.735,45.586 175.644,45.225 C 176.552,44.864 177.315,44.371 177.935,43.746 C 178.554,43.122 179.021,42.389 179.336,41.548 C 179.65,40.707 179.808,39.806 179.808,38.846 C 179.808,37.638 179.594,36.537 179.165,35.541 C 178.737,34.545 178.141,33.686 177.377,32.964 C 176.614,32.241 175.703,31.681 174.645,31.284 C 173.587,30.886 172.429,30.688 171.17,30.688 C 170.437,30.688 169.738,30.764 169.072,30.916 C 168.407,31.069 167.783,31.274 167.199,31.533 C 166.616,31.792 166.077,32.092 165.582,32.433 C 165.086,32.773 164.638,33.136 164.235,33.522 L 165.721,35.537 C 165.876,35.747 166.057,35.907 166.263,36.017 C 166.469,36.127 166.691,36.182 166.929,36.182 C 167.238,36.182 167.53,36.097 167.803,35.927 C 168.077,35.757 168.376,35.571 168.701,35.37 C 169.026,35.169 169.405,34.985 169.839,34.82 C 170.272,34.655 170.809,34.573 171.449,34.573 C 172.088,34.573 172.635,34.678 173.089,34.89 C 173.544,35.101 173.912,35.39 174.196,35.757 C 174.48,36.123 174.686,36.551 174.815,37.042 C 174.944,37.532 175.009,38.056 175.009,38.613 C 175.009,39.707 174.699,40.54 174.08,41.113 C 173.461,41.686 172.584,41.972 171.449,41.972 C 170.437,41.972 169.447,41.754 168.477,41.319 L 165.504,42.205 L 167.424,53.491 L 178.972,53.491 L 178.972,51.51 Z" marker-start="none" marker-end="none"/>
      </g>
     </g>
     <g id="Group_30" fill-rule="nonzero" stroke-linejoin="round" stroke-linecap="round" stroke="none" stroke-width="0.365" fill="#000000" stroke-miterlimit="79.8403193612775">
      <g id="Group_31">
       <path d="M 58.731,182.616 C 58.731,181.844 58.598,181.132 58.332,180.48 C 58.066,179.827 57.691,179.263 57.207,178.787 C 56.724,178.31 56.141,177.939 55.46,177.673 C 54.778,177.406 54.023,177.273 53.192,177.273 L 49.045,177.273 L 49.045,187.952 L 53.192,187.952 C 54.023,187.952 54.778,187.817 55.46,187.549 C 56.141,187.28 56.724,186.909 57.207,186.435 C 57.691,185.961 58.066,185.398 58.332,184.745 C 58.598,184.093 58.731,183.383 58.731,182.616 Z M 56.196,182.616 C 56.196,183.144 56.128,183.62 55.991,184.045 C 55.854,184.47 55.658,184.83 55.401,185.125 C 55.145,185.421 54.831,185.648 54.46,185.807 C 54.088,185.966 53.666,186.045 53.192,186.045 L 51.536,186.045 L 51.536,179.18 L 53.192,179.18 C 53.666,179.18 54.088,179.259 54.46,179.418 C 54.831,179.577 55.145,179.804 55.401,180.099 C 55.658,180.395 55.854,180.755 55.991,181.18 C 56.128,181.605 56.196,182.084 56.196,182.616 Z" marker-start="none" marker-end="none"/>
       <path d="M 59.115,187.95 L 61.196,187.95 C 61.411,187.95 61.59,187.901 61.735,187.803 C 61.879,187.704 61.973,187.574 62.017,187.411 L 63.482,181.802 C 63.531,181.62 63.58,181.426 63.629,181.219 C 63.677,181.013 63.714,180.796 63.738,180.57 C 63.787,180.801 63.841,181.019 63.9,181.223 C 63.958,181.427 64.014,181.62 64.068,181.802 L 65.797,187.411 C 65.841,187.549 65.935,187.673 66.079,187.784 C 66.223,187.895 66.398,187.95 66.603,187.95 L 67.336,187.95 C 67.551,187.95 67.728,187.902 67.867,187.806 C 68.006,187.71 68.103,187.579 68.157,187.411 L 69.871,181.801 C 69.925,181.629 69.981,181.446 70.04,181.251 C 70.098,181.057 70.149,180.849 70.193,180.627 C 70.232,180.844 70.273,181.051 70.314,181.247 C 70.356,181.444 70.399,181.629 70.442,181.801 L 71.908,187.411 C 71.947,187.554 72.04,187.679 72.186,187.788 C 72.333,187.896 72.509,187.95 72.714,187.95 L 74.663,187.95 L 71.366,177.273 L 69.124,177.273 L 67.116,183.787 C 67.082,183.888 67.047,183.999 67.01,184.119 C 66.973,184.239 66.938,184.366 66.904,184.501 C 66.869,184.366 66.834,184.239 66.797,184.119 C 66.761,183.999 66.725,183.888 66.691,183.787 L 64.654,177.273 L 62.412,177.273 L 59.115,187.95 Z" marker-start="none" marker-end="none"/>
       <path d="M 82.486,187.952 L 82.486,186.045 L 78.104,186.045 L 78.104,183.552 L 81.46,183.552 L 81.46,181.72 L 78.104,181.72 L 78.104,179.18 L 82.486,179.18 L 82.486,177.273 L 75.613,177.273 L 75.613,187.952 L 82.486,187.952 Z" marker-start="none" marker-end="none"/>
       <path d="M 86.369,179.251 L 90.325,179.251 L 90.325,177.273 L 83.892,177.273 L 83.892,187.95 L 86.369,187.95 L 86.369,179.251 Z" marker-start="none" marker-end="none"/>
       <path d="M 93.975,179.251 L 97.931,179.251 L 97.931,177.273 L 91.498,177.273 L 91.498,187.95 L 93.975,187.95 L 93.975,179.251 Z" marker-start="none" marker-end="none"/>
       <path d="M 101.815,177.273 L 99.324,177.273 L 99.324,187.952 L 101.815,187.952 L 101.815,177.273 Z" marker-start="none" marker-end="none"/>
       <path d="M 105.095,187.952 C 105.203,187.952 105.293,187.947 105.366,187.937 C 105.44,187.928 105.506,187.909 105.564,187.882 C 105.623,187.855 105.679,187.817 105.733,187.769 C 105.787,187.72 105.848,187.654 105.916,187.571 L 110.986,181.16 C 110.967,181.365 110.952,181.564 110.942,181.757 C 110.932,181.95 110.927,182.132 110.927,182.303 L 110.927,187.952 L 113.111,187.952 L 113.111,177.273 L 111.821,177.273 C 111.631,177.273 111.47,177.302 111.338,177.361 C 111.206,177.42 111.079,177.527 110.957,177.683 L 105.923,184.043 C 105.938,183.857 105.95,183.675 105.96,183.497 C 105.97,183.319 105.975,183.152 105.975,182.995 L 105.975,177.273 L 103.791,177.273 L 103.791,187.952 L 105.095,187.952 Z" marker-start="none" marker-end="none"/>
       <path d="M 119.893,179.062 C 120.235,179.062 120.538,179.09 120.802,179.148 C 121.066,179.206 121.315,179.283 121.549,179.379 L 121.549,181.001 L 120.494,181.001 C 120.338,181.001 120.216,181.042 120.128,181.125 C 120.04,181.208 119.996,181.314 119.996,181.441 L 119.996,182.804 L 123.791,182.804 L 123.791,178.298 C 123.518,178.098 123.233,177.926 122.938,177.781 C 122.642,177.637 122.327,177.519 121.993,177.426 C 121.658,177.333 121.301,177.265 120.923,177.221 C 120.544,177.177 120.138,177.155 119.703,177.155 C 118.921,177.155 118.198,177.293 117.534,177.569 C 116.87,177.845 116.295,178.226 115.809,178.712 C 115.323,179.198 114.942,179.775 114.666,180.442 C 114.39,181.109 114.252,181.833 114.252,182.614 C 114.252,183.411 114.384,184.142 114.647,184.809 C 114.911,185.476 115.289,186.051 115.779,186.535 C 116.27,187.018 116.864,187.395 117.56,187.663 C 118.256,187.932 119.034,188.066 119.893,188.066 C 120.338,188.066 120.756,188.03 121.146,187.956 C 121.537,187.883 121.897,187.783 122.227,187.655 C 122.557,187.528 122.858,187.377 123.132,187.201 C 123.405,187.025 123.65,186.834 123.865,186.628 L 123.146,185.537 C 123.078,185.434 122.996,185.353 122.901,185.295 C 122.806,185.236 122.702,185.207 122.59,185.207 C 122.443,185.207 122.292,185.256 122.135,185.353 C 121.94,185.47 121.756,185.572 121.582,185.657 C 121.409,185.743 121.232,185.812 121.051,185.866 C 120.87,185.92 120.68,185.959 120.48,185.983 C 120.279,186.008 120.055,186.02 119.805,186.02 C 119.341,186.02 118.924,185.938 118.553,185.775 C 118.181,185.611 117.865,185.38 117.604,185.083 C 117.342,184.785 117.141,184.427 116.999,184.01 C 116.858,183.592 116.787,183.127 116.787,182.614 C 116.787,182.048 116.865,181.545 117.021,181.105 C 117.178,180.666 117.394,180.295 117.67,179.992 C 117.946,179.689 118.273,179.459 118.651,179.3 C 119.03,179.141 119.444,179.062 119.893,179.062 Z" marker-start="none" marker-end="none"/>
       <path d="M 131.249,185.78 C 131.175,185.662 131.098,185.574 131.018,185.516 C 130.937,185.457 130.833,185.428 130.706,185.428 C 130.594,185.428 130.473,185.463 130.344,185.534 C 130.214,185.605 130.068,185.684 129.904,185.772 C 129.74,185.86 129.554,185.94 129.344,186.01 C 129.134,186.081 128.894,186.117 128.626,186.117 C 128.162,186.117 127.816,186.018 127.589,185.82 C 127.362,185.622 127.248,185.355 127.248,185.018 C 127.248,184.802 127.317,184.624 127.453,184.483 C 127.59,184.341 127.77,184.219 127.992,184.116 C 128.214,184.014 128.468,183.92 128.754,183.834 C 129.04,183.749 129.331,183.653 129.629,183.548 C 129.927,183.443 130.219,183.32 130.505,183.178 C 130.791,183.037 131.045,182.856 131.267,182.636 C 131.489,182.416 131.669,182.149 131.805,181.834 C 131.942,181.519 132.011,181.139 132.011,180.694 C 132.011,180.201 131.925,179.739 131.754,179.309 C 131.583,178.879 131.335,178.505 131.01,178.185 C 130.686,177.865 130.285,177.613 129.809,177.43 C 129.333,177.247 128.792,177.155 128.186,177.155 C 127.854,177.155 127.516,177.189 127.171,177.258 C 126.827,177.326 126.493,177.422 126.171,177.547 C 125.849,177.672 125.546,177.819 125.263,177.99 C 124.979,178.161 124.733,178.352 124.523,178.562 L 125.255,179.72 C 125.309,179.808 125.385,179.879 125.482,179.932 C 125.58,179.986 125.685,180.013 125.797,180.013 C 125.944,180.013 126.092,179.967 126.241,179.874 C 126.39,179.781 126.558,179.678 126.746,179.566 C 126.934,179.454 127.15,179.351 127.395,179.258 C 127.639,179.165 127.927,179.119 128.259,179.119 C 128.709,179.119 129.058,179.218 129.307,179.416 C 129.556,179.613 129.681,179.928 129.681,180.357 C 129.681,180.607 129.612,180.809 129.475,180.966 C 129.339,181.122 129.159,181.251 128.937,181.354 C 128.715,181.457 128.462,181.547 128.179,181.625 C 127.895,181.703 127.605,181.79 127.307,181.885 C 127.009,181.98 126.718,182.098 126.435,182.237 C 126.152,182.376 125.899,182.559 125.677,182.787 C 125.454,183.014 125.275,183.297 125.138,183.637 C 125.001,183.976 124.933,184.395 124.933,184.893 C 124.933,185.294 125.013,185.685 125.175,186.066 C 125.336,186.447 125.573,186.786 125.885,187.084 C 126.198,187.382 126.581,187.621 127.036,187.799 C 127.49,187.977 128.01,188.066 128.596,188.066 C 128.924,188.066 129.242,188.041 129.552,187.989 C 129.863,187.938 130.157,187.862 130.435,187.762 C 130.714,187.662 130.974,187.542 131.216,187.403 C 131.457,187.264 131.674,187.106 131.864,186.93 L 131.249,185.78 Z" marker-start="none" marker-end="none"/>
       <path d="M 132.86,178.563 C 132.86,178.719 132.89,178.865 132.948,178.999 C 133.007,179.134 133.091,179.251 133.201,179.351 C 133.311,179.451 133.44,179.53 133.589,179.589 C 133.738,179.648 133.906,179.677 134.091,179.677 C 134.311,179.677 134.501,179.639 134.663,179.563 C 134.824,179.488 134.958,179.385 135.066,179.256 C 135.173,179.126 135.252,178.977 135.304,178.809 C 135.355,178.64 135.381,178.463 135.381,178.277 C 135.381,178.033 135.342,177.773 135.263,177.497 C 135.185,177.221 135.069,176.944 134.915,176.665 C 134.762,176.387 134.57,176.113 134.34,175.844 C 134.111,175.576 133.847,175.331 133.549,175.112 L 133.153,175.463 C 133.1,175.517 133.059,175.567 133.032,175.614 C 133.006,175.66 132.992,175.717 132.992,175.786 C 132.992,175.835 133.009,175.887 133.043,175.943 C 133.078,176 133.119,176.05 133.168,176.094 C 133.227,176.152 133.295,176.223 133.373,176.306 C 133.451,176.389 133.529,176.482 133.608,176.585 C 133.686,176.687 133.758,176.8 133.824,176.922 C 133.89,177.044 133.94,177.173 133.974,177.31 C 133.803,177.325 133.649,177.366 133.512,177.435 C 133.376,177.503 133.26,177.594 133.164,177.706 C 133.069,177.818 132.995,177.946 132.941,178.091 C 132.887,178.235 132.86,178.392 132.86,178.563 Z" marker-start="none" marker-end="none"/>
       <path d="M 142.234,177.273 L 139.743,177.273 L 139.743,187.952 L 142.234,187.952 L 142.234,177.273 Z" marker-start="none" marker-end="none"/>
       <path d="M 145.514,187.952 C 145.622,187.952 145.712,187.947 145.785,187.937 C 145.859,187.928 145.925,187.909 145.983,187.882 C 146.042,187.855 146.098,187.817 146.152,187.769 C 146.206,187.72 146.267,187.654 146.335,187.571 L 151.405,181.16 C 151.386,181.365 151.371,181.564 151.361,181.757 C 151.351,181.95 151.346,182.132 151.346,182.303 L 151.346,187.952 L 153.53,187.952 L 153.53,177.273 L 152.24,177.273 C 152.05,177.273 151.889,177.302 151.757,177.361 C 151.625,177.42 151.498,177.527 151.376,177.683 L 146.342,184.043 C 146.357,183.857 146.369,183.675 146.379,183.497 C 146.389,183.319 146.394,183.152 146.394,182.995 L 146.394,177.273 L 144.21,177.273 L 144.21,187.952 L 145.514,187.952 Z" marker-start="none" marker-end="none"/>
       <path d="M 162.459,180.033 C 162.518,180.033 162.576,180.022 162.635,180 C 162.694,179.977 162.75,179.939 162.803,179.884 L 163.785,178.829 C 163.355,178.276 162.817,177.858 162.17,177.577 C 161.523,177.296 160.757,177.155 159.873,177.155 C 159.062,177.155 158.335,177.293 157.693,177.569 C 157.051,177.845 156.506,178.226 156.059,178.712 C 155.612,179.198 155.269,179.775 155.03,180.442 C 154.79,181.109 154.671,181.833 154.671,182.614 C 154.671,183.411 154.808,184.142 155.081,184.809 C 155.355,185.476 155.737,186.051 156.228,186.535 C 156.719,187.018 157.306,187.395 157.99,187.663 C 158.674,187.932 159.428,188.066 160.254,188.066 C 160.654,188.066 161.032,188.031 161.386,187.96 C 161.74,187.889 162.071,187.791 162.379,187.666 C 162.686,187.542 162.97,187.393 163.228,187.219 C 163.487,187.045 163.717,186.853 163.917,186.643 L 163.082,185.522 C 163.028,185.453 162.965,185.391 162.891,185.335 C 162.818,185.279 162.716,185.251 162.584,185.251 C 162.496,185.251 162.413,185.27 162.335,185.309 C 162.256,185.348 162.173,185.396 162.085,185.452 C 161.998,185.508 161.901,185.569 161.796,185.635 C 161.691,185.701 161.566,185.762 161.422,185.819 C 161.278,185.875 161.11,185.922 160.917,185.962 C 160.724,186 160.498,186.02 160.239,186.02 C 159.79,186.02 159.379,185.941 159.008,185.782 C 158.637,185.623 158.318,185.396 158.052,185.1 C 157.786,184.805 157.578,184.447 157.429,184.027 C 157.28,183.607 157.206,183.135 157.206,182.613 C 157.206,182.065 157.28,181.579 157.429,181.154 C 157.578,180.729 157.781,180.372 158.037,180.081 C 158.294,179.79 158.593,179.569 158.935,179.418 C 159.277,179.266 159.643,179.191 160.034,179.191 C 160.259,179.191 160.464,179.202 160.649,179.224 C 160.835,179.246 161.007,179.283 161.166,179.337 C 161.325,179.391 161.476,179.46 161.62,179.546 C 161.764,179.631 161.91,179.738 162.056,179.865 C 162.115,179.914 162.178,179.954 162.247,179.986 C 162.315,180.017 162.386,180.033 162.459,180.033 Z" marker-start="none" marker-end="none"/>
       <path d="M 164.478,178.423 C 164.478,178.599 164.511,178.763 164.577,178.914 C 164.642,179.066 164.733,179.198 164.848,179.31 C 164.962,179.423 165.098,179.512 165.254,179.578 C 165.411,179.644 165.582,179.677 165.767,179.677 C 165.948,179.677 166.116,179.644 166.273,179.578 C 166.429,179.512 166.566,179.423 166.683,179.31 C 166.8,179.198 166.892,179.066 166.958,178.914 C 167.024,178.763 167.057,178.599 167.057,178.423 C 167.057,178.247 167.024,178.082 166.958,177.928 C 166.892,177.774 166.8,177.641 166.683,177.529 C 166.566,177.416 166.429,177.328 166.273,177.265 C 166.116,177.201 165.948,177.169 165.767,177.169 C 165.582,177.169 165.411,177.201 165.254,177.265 C 165.098,177.328 164.962,177.416 164.848,177.529 C 164.733,177.641 164.642,177.774 164.577,177.928 C 164.511,178.082 164.478,178.247 164.478,178.423 Z" marker-start="none" marker-end="none"/>
      </g>
     </g>
    </g>
   </g>
  </g>
 </g>
</svg>
