<?xml version="1.0" standalone="no"?>
<!DOCTYPE svg PUBLIC "-//W3C//DTD SVG 1.1//EN" "http://www.w3.org/Graphics/SVG/1.1/DTD/svg11.dtd">
<!--Generator: Xara Designer (www.xara.com), SVG filter version: 6.6.0.0-->
<svg fill="none" fill-rule="evenodd" stroke="black" stroke-width="0.501" stroke-linejoin="bevel" stroke-miterlimit="10" font-family="Times New Roman" font-size="16" style="font-variant-ligatures:none" xmlns:xlink="http://www.w3.org/1999/xlink" xmlns="http://www.w3.org/2000/svg" version="1.1" overflow="visible" width="215.435pt" height="215.436pt" viewBox="282.069 -574.755 215.435 215.436">
 <defs>
	</defs>
 <g id="Page background" transform="scale(1 -1)"/>
 <g id="Layer 1" transform="scale(1 -1)">
  <g id="Group">
   <g id="Group_1">
    <g id="Group_2" stroke-linejoin="miter" stroke="none" stroke-width="0.802">
     <path d="M 282.069,559.542 L 282.069,374.532 C 282.069,366.135 288.884,359.319 297.281,359.319 L 482.292,359.319 C 490.689,359.319 497.504,366.135 497.504,374.532 L 497.504,559.542 C 497.504,567.939 490.689,574.755 482.292,574.755 L 297.281,574.755 C 288.884,574.755 282.069,567.939 282.069,559.542 Z" fill="#7f7f7f" marker-start="none" marker-end="none"/>
     <path d="M 282.778,558.933 L 282.778,375.141 C 282.778,366.799 289.548,360.028 297.89,360.028 L 481.683,360.028 C 490.025,360.028 496.795,366.799 496.795,375.141 L 496.795,558.933 C 496.795,567.275 490.025,574.046 481.683,574.046 L 297.89,574.046 C 289.548,574.046 282.778,567.275 282.778,558.933 Z" marker-start="none" marker-end="none"/>
     <path d="M 282.778,558.933 L 282.778,375.141 C 282.778,366.799 289.548,360.028 297.89,360.028 L 481.683,360.028 C 490.025,360.028 496.795,366.799 496.795,375.141 L 496.795,558.933 C 496.795,567.275 490.025,574.046 481.683,574.046 L 297.89,574.046 C 289.548,574.046 282.778,567.275 282.778,558.933 Z" fill="#ffffff" marker-start="none" marker-end="none"/>
    </g>
    <g id="Group_3" stroke="#30336b" stroke-linejoin="miter" stroke-linecap="round">
     <path d="M 297.618,427.682 L 297.618,393.79 L 401.206,393.79 L 401.206,427.682 L 297.618,427.682 Z" fill="#30336b" stroke-width="1.738" marker-start="none" marker-end="none"/>
     <path d="M 297.618,429.025 L 297.618,419.215 C 297.618,416.644 299.702,414.567 302.264,414.567 L 396.556,414.567 C 399.118,414.567 401.206,416.644 401.206,419.215 L 401.206,429.025 C 401.206,431.601 399.118,433.679 396.556,433.679 L 302.264,433.679 C 299.702,433.679 297.618,431.601 297.618,429.025 Z" fill="#30336b" stroke-width="1.738" marker-start="none" marker-end="none"/>
     <path d="M 298.315,400.132 L 298.315,382.487 C 298.315,377.874 302.059,374.128 306.677,374.128 L 473.723,374.128 C 478.336,374.128 482.084,377.874 482.084,382.487 L 482.084,400.132 C 482.084,404.75 478.336,408.498 473.723,408.498 L 306.677,408.498 C 302.059,408.498 298.315,404.75 298.315,400.132 Z" fill="#ffffff" stroke-width="3.13" marker-start="none" marker-end="none"/>
    </g>
    <g id="Group_4" stroke-linejoin="miter">
     <path d="M 341.569,460.716 C 335.669,467.694 336.548,478.154 343.543,484.063 C 350.525,489.955 360.978,489.076 366.882,482.089 C 372.791,475.097 371.905,464.643 364.908,458.738 C 357.926,452.843 347.469,453.722 341.569,460.716 Z" stroke="none" fill="#000000" stroke-width="0.686" marker-start="none" marker-end="none"/>
     <path d="M 342.347,461.325 C 336.456,468.323 337.328,478.782 344.321,484.675 C 351.31,490.584 361.762,489.701 367.678,482.708 C 373.575,475.726 372.69,465.274 365.696,459.369 C 358.717,453.463 348.253,454.342 342.347,461.325 Z" stroke="#b2b2b2" stroke-width="3.752" marker-start="none" marker-end="none"/>
    </g>
    <g id="Group_5" stroke-linejoin="miter">
     <path d="M 300.884,460.703 C 294.984,467.692 295.863,478.16 302.86,484.051 C 309.843,489.962 320.297,489.079 326.199,482.091 C 332.11,475.102 331.224,464.642 324.226,458.738 C 317.243,452.839 306.784,453.722 300.884,460.703 Z" stroke="none" fill="#ffffff" stroke-width="0.689" marker-start="none" marker-end="none"/>
     <path d="M 301.664,461.338 C 295.771,468.33 296.644,478.776 303.636,484.689 C 310.627,490.573 321.082,489.701 326.995,482.713 C 332.893,475.726 332.009,465.26 325.015,459.36 C 318.034,453.461 307.569,454.339 301.664,461.338 Z" stroke="#539bc5" stroke-width="3.752" marker-start="none" marker-end="none"/>
    </g>
    <g id="Group_6" stroke-linejoin="miter">
     <path d="M 303.424,517.353 C 294.527,527.893 295.852,543.679 306.404,552.563 C 316.935,561.477 332.7,560.145 341.601,549.607 C 350.515,539.067 349.179,523.293 338.625,514.39 C 328.094,505.494 312.322,506.825 303.424,517.353 Z" stroke="none" fill="#ffffff" stroke-width="1.039" marker-start="none" marker-end="none"/>
     <path d="M 304.601,518.31 C 295.714,528.855 297.03,544.608 307.574,553.525 C 318.117,562.398 333.884,561.083 342.801,550.545 C 351.695,540.008 350.362,524.225 339.815,515.328 C 329.287,506.432 313.506,507.756 304.601,518.31 Z" stroke="#539bc5" stroke-width="5.658" marker-start="none" marker-end="none"/>
    </g>
    <g id="Group_7" fill-rule="nonzero" stroke-linejoin="round" stroke-linecap="round" stroke="none" stroke-width="0.485" fill="#b2b2b2">
     <g id="Group_8">
      <path d="M 354.465,479.277 C 355.166,479.277 355.79,479.178 356.336,478.979 C 356.881,478.781 357.343,478.512 357.72,478.173 C 358.096,477.834 358.382,477.442 358.577,476.995 C 358.772,476.549 358.87,476.078 358.87,475.583 C 358.87,475.134 358.824,474.738 358.733,474.395 C 358.642,474.053 358.507,473.757 358.329,473.506 C 358.15,473.255 357.929,473.042 357.666,472.866 C 357.403,472.69 357.102,472.544 356.765,472.426 C 358.337,471.882 359.123,470.815 359.123,469.227 C 359.123,468.475 358.986,467.821 358.714,467.263 C 358.441,466.705 358.075,466.242 357.617,465.873 C 357.159,465.503 356.628,465.226 356.024,465.041 C 355.42,464.856 354.789,464.764 354.133,464.764 C 353.458,464.764 352.857,464.837 352.33,464.983 C 351.804,465.129 351.336,465.357 350.927,465.665 C 350.518,465.974 350.159,466.368 349.85,466.849 C 349.542,467.33 349.274,467.901 349.046,468.564 L 350.391,469.111 C 350.508,469.164 350.623,469.199 350.737,469.219 C 350.851,469.238 350.963,469.248 351.073,469.248 C 351.281,469.248 351.468,469.207 351.634,469.126 C 351.799,469.045 351.924,468.926 352.009,468.77 C 352.301,468.23 352.611,467.838 352.939,467.595 C 353.268,467.351 353.652,467.229 354.094,467.229 C 354.432,467.229 354.726,467.286 354.976,467.4 C 355.226,467.513 355.434,467.659 355.6,467.838 C 355.766,468.017 355.891,468.221 355.975,468.448 C 356.06,468.676 356.102,468.907 356.102,469.141 C 356.102,469.446 356.081,469.721 356.039,469.965 C 355.996,470.209 355.878,470.419 355.683,470.594 C 355.488,470.77 355.194,470.905 354.801,470.999 C 354.408,471.093 353.86,471.14 353.159,471.14 L 353.159,473.225 C 353.75,473.225 354.227,473.27 354.591,473.361 C 354.955,473.452 355.236,473.577 355.434,473.737 C 355.632,473.896 355.764,474.089 355.829,474.317 C 355.894,474.544 355.926,474.794 355.926,475.067 C 355.926,475.626 355.792,476.057 355.522,476.359 C 355.252,476.661 354.841,476.813 354.289,476.813 C 354.062,476.813 353.854,476.78 353.665,476.715 C 353.477,476.65 353.308,476.562 353.159,476.452 C 353.009,476.341 352.881,476.211 352.774,476.062 C 352.667,475.912 352.581,475.75 352.516,475.574 C 352.412,475.282 352.28,475.071 352.121,474.941 C 351.962,474.811 351.746,474.745 351.473,474.745 C 351.408,474.745 351.338,474.749 351.263,474.755 C 351.189,474.762 351.112,474.771 351.034,474.784 L 349.436,475.067 C 349.54,475.775 349.74,476.393 350.035,476.919 C 350.331,477.445 350.698,477.884 351.137,478.235 C 351.575,478.585 352.077,478.847 352.642,479.019 C 353.207,479.191 353.815,479.277 354.465,479.277 Z" marker-start="none" marker-end="none"/>
     </g>
    </g>
    <g id="Group_9" fill-rule="nonzero" stroke-linejoin="round" stroke-linecap="round" stroke="none" stroke-width="0.485" fill="#000000">
     <g id="Group_10">
      <path d="M 318.296,477.873 C 318.296,477.665 318.263,477.477 318.198,477.308 C 318.134,477.139 318.031,476.991 317.891,476.865 C 317.752,476.738 317.568,476.64 317.341,476.572 C 317.113,476.504 316.841,476.47 316.522,476.47 L 313.131,476.47 L 312.731,474.12 C 312.998,474.166 313.254,474.2 313.501,474.223 C 313.748,474.246 313.988,474.257 314.222,474.257 C 314.969,474.257 315.629,474.143 316.201,473.916 C 316.772,473.689 317.253,473.378 317.643,472.985 C 318.033,472.592 318.327,472.131 318.525,471.601 C 318.723,471.072 318.822,470.505 318.822,469.9 C 318.822,469.14 318.687,468.446 318.418,467.819 C 318.148,467.192 317.773,466.652 317.292,466.197 C 316.811,465.742 316.238,465.39 315.572,465.139 C 314.906,464.889 314.177,464.764 313.384,464.764 C 312.923,464.764 312.483,464.812 312.064,464.908 C 311.645,465.004 311.252,465.133 310.885,465.296 C 310.517,465.459 310.178,465.648 309.866,465.863 C 309.554,466.077 309.272,466.305 309.018,466.548 L 309.954,467.817 C 310.051,467.949 310.165,468.05 310.295,468.119 C 310.425,468.189 310.565,468.223 310.714,468.223 C 310.909,468.223 311.092,468.17 311.265,468.063 C 311.437,467.955 311.625,467.838 311.83,467.712 C 312.034,467.585 312.273,467.47 312.546,467.366 C 312.819,467.262 313.157,467.21 313.56,467.21 C 313.962,467.21 314.307,467.276 314.593,467.41 C 314.879,467.543 315.111,467.725 315.289,467.955 C 315.468,468.186 315.598,468.456 315.679,468.764 C 315.76,469.073 315.801,469.403 315.801,469.754 C 315.801,470.442 315.606,470.967 315.216,471.328 C 314.827,471.688 314.274,471.868 313.56,471.868 C 312.923,471.868 312.299,471.731 311.689,471.457 L 309.817,472.015 L 311.026,479.12 L 318.296,479.12 L 318.296,477.873 Z" marker-start="none" marker-end="none"/>
     </g>
    </g>
    <g id="Group_11" fill="#ff3718" stroke-linecap="round" stroke="none">
     <path d="M 496.986,462.11 L 496.986,453.576 L 447.823,453.576 L 447.823,462.111 L 496.986,462.11 Z" stroke-width="0.103" stroke-linejoin="miter" marker-start="none" marker-end="none"/>
     <path d="M 397.381,482.342 C 409.648,468.903 426.462,462.074 443.335,462.071 L 443.335,453.591 C 424.163,453.597 405.05,461.347 391.116,476.616 C 378.743,490.177 372.641,507.254 372.646,524.277 L 381.132,524.277 C 381.125,509.295 386.494,494.268 397.381,482.342 Z" stroke-width="0.541" stroke-linejoin="round" marker-start="none" marker-end="none"/>
     <path d="M 376.873,562.23 L 378.991,559.185 L 381.113,556.133 L 381.166,556.132 L 381.166,528.855 L 372.63,528.856 L 372.63,556.132 L 374.75,559.185 L 376.873,562.23 Z" stroke-width="0.103" stroke-linejoin="miter" marker-start="none" marker-end="none"/>
    </g>
    <g id="Group_12" fill="#ffcd36" stroke-linecap="round" stroke="none">
     <path d="M 388.423,562.234 L 390.543,559.187 L 392.664,556.132 L 388.423,556.132 L 384.182,556.136 L 386.304,559.188 L 388.423,562.234 Z M 392.687,556.132 L 392.688,528.855 L 384.153,528.855 L 384.153,556.132 L 392.687,556.132 Z" stroke-width="0.103" stroke-linejoin="miter" marker-start="none" marker-end="none"/>
     <path d="M 405.735,489.964 C 415.775,478.973 429.53,473.386 443.335,473.38 L 443.335,464.9 C 427.227,464.905 411.178,471.419 399.469,484.247 C 389.075,495.633 383.955,509.976 383.958,524.276 L 392.444,524.277 C 392.434,512.02 396.829,499.728 405.735,489.964 Z" stroke-width="0.453" stroke-linejoin="round" marker-start="none" marker-end="none"/>
     <path d="M 496.986,473.412 L 496.986,464.881 L 447.823,464.881 L 447.823,473.413 L 496.986,473.412 Z" stroke-width="0.103" stroke-linejoin="miter" marker-start="none" marker-end="none"/>
    </g>
    <g id="Group_13" fill="#00d702" stroke-linecap="round" stroke="none">
     <path d="M 399.739,562.234 L 401.854,559.188 L 403.976,556.132 L 399.735,556.132 L 395.492,556.136 L 397.612,559.188 L 399.739,562.234 Z M 403.986,556.132 L 403.985,528.855 L 395.45,528.855 L 395.45,556.132 L 403.986,556.132 Z" stroke-width="0.103" stroke-linejoin="miter" marker-start="none" marker-end="none"/>
     <path d="M 496.986,484.71 L 496.986,476.18 L 447.824,476.18 L 447.823,484.711 L 496.986,484.71 Z" stroke-width="0.103" stroke-linejoin="miter" marker-start="none" marker-end="none"/>
     <path d="M 414.09,497.591 C 421.897,489.039 432.602,484.7 443.335,484.693 L 443.334,476.208 C 430.293,476.212 417.303,481.485 407.824,491.874 C 399.413,501.089 395.265,512.705 395.267,524.277 L 403.749,524.277 C 403.749,514.744 407.163,505.18 414.09,497.591 Z" stroke-width="0.368" stroke-linejoin="round" marker-start="none" marker-end="none"/>
    </g>
    <g id="Group_14" fill="#11a7e0" stroke-linecap="round" stroke="none">
     <path d="M 496.986,496.007 L 496.986,487.473 L 447.822,487.473 L 447.823,496.007 L 496.986,496.007 Z" stroke-width="0.103" stroke-linejoin="miter" marker-start="none" marker-end="none"/>
     <path d="M 422.445,505.212 C 428.023,499.105 435.661,496.005 443.334,496.002 L 443.335,487.515 C 433.365,487.525 423.426,491.557 416.183,499.495 C 409.744,506.545 406.573,515.421 406.577,524.277 L 415.065,524.277 C 415.058,517.47 417.5,510.638 422.445,505.212 Z" stroke-width="0.281" stroke-linejoin="round" marker-start="none" marker-end="none"/>
     <path d="M 410.792,562.23 L 412.924,559.186 L 415.065,556.133 L 415.065,556.133 L 415.065,528.856 L 406.526,528.855 L 406.526,556.132 L 406.526,556.132 L 408.656,559.187 L 410.792,562.23 Z" stroke-width="0.103" stroke-linejoin="miter" marker-start="none" marker-end="none"/>
    </g>
    <g id="Group_15" stroke-linejoin="miter">
     <path d="M 435.583,517.8 C 426.686,528.34 428.011,544.126 438.563,553.009 C 449.094,561.924 464.859,560.592 473.76,550.055 C 482.674,539.514 481.338,523.74 470.785,514.837 C 460.253,505.941 444.481,507.272 435.583,517.8 Z" stroke="none" fill="#000000" stroke-width="1.039" marker-start="none" marker-end="none"/>
     <path d="M 436.76,518.757 C 427.873,529.302 429.189,545.054 439.733,553.972 C 450.277,562.844 466.043,561.53 474.96,550.993 C 483.854,540.455 482.521,524.672 471.974,515.775 C 461.446,506.879 445.665,508.203 436.76,518.757 Z" stroke="#b2b2b2" stroke-width="5.658" marker-start="none" marker-end="none"/>
    </g>
    <g id="Group_16" stroke-linejoin="miter">
     <path d="M 457.648,465.985 C 453.123,471.341 453.8,479.357 459.157,483.88 C 464.513,488.405 472.533,487.733 477.053,482.375 C 481.578,477.018 480.903,468.998 475.544,464.479 C 470.19,459.951 462.17,460.634 457.648,465.985 Z" stroke="none" fill="#ffffff" stroke-width="0.526" marker-start="none" marker-end="none"/>
     <path d="M 458.251,466.467 C 453.727,471.816 454.403,479.838 459.759,484.359 C 465.118,488.887 473.134,488.209 477.657,482.85 C 482.186,477.499 481.509,469.476 476.149,464.952 C 470.79,460.431 462.774,461.105 458.251,466.467 Z" fill="none" stroke="#539bc5" stroke-width="2.872" marker-start="none" marker-end="none"/>
    </g>
    <g id="Group_17" stroke-linejoin="miter">
     <path d="M 419.314,476.302 C 413.963,471.78 405.943,472.457 401.416,477.813 C 396.9,483.17 397.573,491.189 402.93,495.713 C 408.285,500.236 416.302,499.556 420.825,494.202 C 425.349,488.845 424.673,480.827 419.314,476.302 Z" stroke="none" fill="#ffffff" stroke-width="0.526" marker-start="none" marker-end="none"/>
     <path d="M 418.836,476.91 C 413.482,472.383 405.466,473.057 400.942,478.417 C 396.418,483.775 397.091,491.79 402.454,496.315 C 407.809,500.842 415.826,500.158 420.352,494.807 C 424.877,489.447 424.196,481.432 418.836,476.91 Z" fill="none" stroke="#539bc5" stroke-width="2.872" marker-start="none" marker-end="none"/>
    </g>
    <g id="Group_18" stroke-linejoin="miter">
     <path d="M 383.542,535.56 C 379.018,540.916 379.697,548.933 385.052,553.461 C 390.412,557.982 398.432,557.304 402.955,551.946 C 407.483,546.593 406.8,538.571 401.444,534.052 C 396.085,529.533 388.069,530.207 383.542,535.56 Z" stroke="none" fill="#ffffff" stroke-width="0.526" marker-start="none" marker-end="none"/>
     <path d="M 384.149,536.044 C 379.625,541.395 380.301,549.415 385.661,553.939 C 391.02,558.46 399.035,557.786 403.558,552.426 C 408.085,547.073 407.407,539.053 402.051,534.532 C 396.688,530.007 388.672,530.683 384.149,536.044 Z" fill="none" stroke="#539bc5" stroke-width="2.872" marker-start="none" marker-end="none"/>
    </g>
    <g id="Group_19" fill-rule="nonzero" stroke-linejoin="round" stroke-linecap="round" stroke="none" stroke-width="0.387" fill="#000000">
     <g id="Group_20">
      <path d="M 464.353,478.103 L 464.353,475.021 L 467.232,475.021 L 467.232,473.292 L 464.353,473.292 L 464.353,470.195 L 462.392,470.195 L 462.392,473.292 L 459.528,473.292 L 459.528,475.021 L 462.392,475.021 L 462.392,478.103 L 464.353,478.103 Z" marker-start="none" marker-end="none"/>
      <path d="M 469.863,470.67 L 472.042,470.67 L 472.042,476.39 C 472.042,476.671 472.05,476.964 472.065,477.27 L 470.781,476.203 C 470.698,476.136 470.615,476.088 470.532,476.059 C 470.449,476.031 470.369,476.017 470.291,476.017 C 470.156,476.017 470.036,476.046 469.929,476.106 C 469.823,476.166 469.744,476.229 469.692,476.297 L 468.929,477.309 L 472.462,480.274 L 474.455,480.274 L 474.455,470.67 L 476.322,470.67 L 476.322,468.926 L 469.863,468.926 L 469.863,470.67 Z" marker-start="none" marker-end="none"/>
     </g>
    </g>
    <g id="Group_21" fill-rule="nonzero" stroke-linejoin="round" stroke-linecap="round" stroke="none" stroke-width="0.387" fill="#000000">
     <g id="Group_22">
      <path d="M 406.324,489.51 L 406.324,486.428 L 409.203,486.428 L 409.203,484.699 L 406.324,484.699 L 406.324,481.602 L 404.363,481.602 L 404.363,484.699 L 401.499,484.699 L 401.499,486.428 L 404.363,486.428 L 404.363,489.51 L 406.324,489.51 Z" marker-start="none" marker-end="none"/>
      <path d="M 414.558,491.797 C 415.118,491.797 415.623,491.715 416.071,491.552 C 416.52,491.389 416.903,491.162 417.219,490.871 C 417.536,490.581 417.778,490.234 417.947,489.832 C 418.116,489.43 418.2,488.988 418.2,488.505 C 418.2,488.09 418.142,487.706 418.025,487.353 C 417.908,487 417.749,486.664 417.546,486.345 C 417.344,486.026 417.109,485.718 416.842,485.419 C 416.575,485.121 416.291,484.819 415.99,484.513 L 413.772,482.24 C 414.057,482.324 414.339,482.39 414.616,482.44 C 414.894,482.49 415.154,482.514 415.398,482.514 L 417.515,482.514 C 417.774,482.514 417.979,482.443 418.13,482.3 C 418.28,482.157 418.356,481.969 418.356,481.735 L 418.356,480.333 L 410.387,480.333 L 410.387,481.111 C 410.387,481.262 410.418,481.423 410.48,481.594 C 410.542,481.765 410.651,481.921 410.807,482.061 L 414.075,485.353 C 414.356,485.634 414.599,485.901 414.807,486.155 C 415.014,486.409 415.186,486.66 415.321,486.906 C 415.455,487.153 415.557,487.399 415.624,487.646 C 415.691,487.892 415.725,488.153 415.725,488.428 C 415.725,488.879 415.618,489.226 415.402,489.467 C 415.187,489.708 414.859,489.829 414.418,489.829 C 414.236,489.829 414.07,489.803 413.92,489.751 C 413.769,489.699 413.634,489.629 413.515,489.541 C 413.396,489.453 413.293,489.349 413.208,489.23 C 413.122,489.11 413.053,488.981 413.001,488.841 C 412.918,488.607 412.813,488.439 412.686,488.335 C 412.559,488.231 412.387,488.179 412.169,488.179 C 412.117,488.179 412.061,488.182 412.001,488.187 C 411.942,488.192 411.881,488.2 411.819,488.21 L 410.542,488.432 C 410.625,488.998 410.785,489.492 411.021,489.912 C 411.257,490.333 411.55,490.683 411.9,490.964 C 412.25,491.244 412.651,491.453 413.103,491.591 C 413.554,491.728 414.039,491.797 414.558,491.797 Z" marker-start="none" marker-end="none"/>
     </g>
    </g>
    <g id="Group_23" fill-rule="nonzero" stroke-linejoin="round" stroke-linecap="round" stroke="none" stroke-width="0.387" fill="#000000">
     <g id="Group_24">
      <path d="M 390.282,547.737 L 390.282,544.655 L 393.161,544.655 L 393.161,542.926 L 390.282,542.926 L 390.282,539.829 L 388.321,539.829 L 388.321,542.926 L 385.457,542.926 L 385.457,544.655 L 388.321,544.655 L 388.321,547.737 L 390.282,547.737 Z" marker-start="none" marker-end="none"/>
      <path d="M 395.792,540.304 L 397.971,540.304 L 397.971,546.024 C 397.971,546.305 397.979,546.598 397.994,546.904 L 396.71,545.837 C 396.627,545.77 396.544,545.722 396.461,545.693 C 396.378,545.665 396.298,545.651 396.22,545.651 C 396.085,545.651 395.965,545.68 395.858,545.74 C 395.752,545.8 395.673,545.863 395.621,545.931 L 394.858,546.943 L 398.391,549.908 L 400.384,549.908 L 400.384,540.304 L 402.251,540.304 L 402.251,538.56 L 395.792,538.56 L 395.792,540.304 Z" marker-start="none" marker-end="none"/>
     </g>
    </g>
    <g id="Group_25" fill-rule="nonzero" stroke-linejoin="round" stroke-linecap="round" stroke="none" stroke-width="0.319" fill="#ffffff">
     <g id="Group_26">
      <path d="M 312.816,420.484 C 312.816,419.81 312.7,419.189 312.467,418.62 C 312.235,418.051 311.908,417.558 311.486,417.143 C 311.064,416.727 310.556,416.403 309.962,416.171 C 309.367,415.938 308.708,415.822 307.983,415.822 L 304.365,415.822 L 304.365,425.139 L 307.983,425.139 C 308.708,425.139 309.367,425.022 309.962,424.787 C 310.556,424.553 311.064,424.229 311.486,423.815 C 311.908,423.402 312.235,422.91 312.467,422.341 C 312.7,421.772 312.816,421.153 312.816,420.484 Z M 310.604,420.484 C 310.604,420.944 310.544,421.359 310.425,421.73 C 310.306,422.101 310.134,422.415 309.91,422.673 C 309.687,422.931 309.413,423.129 309.089,423.268 C 308.765,423.406 308.397,423.475 307.983,423.475 L 306.539,423.475 L 306.539,417.486 L 307.983,417.486 C 308.397,417.486 308.765,417.555 309.089,417.693 C 309.413,417.832 309.687,418.03 309.91,418.288 C 310.134,418.546 310.306,418.86 310.425,419.231 C 310.544,419.602 310.604,420.019 310.604,420.484 Z" marker-start="none" marker-end="none"/>
      <path d="M 316.219,415.822 L 314.046,415.822 L 314.046,425.139 L 316.219,425.139 L 316.219,415.822 Z" marker-start="none" marker-end="none"/>
      <path d="M 323.134,423.244 C 323.07,423.141 323.003,423.065 322.932,423.014 C 322.862,422.962 322.771,422.937 322.661,422.937 C 322.563,422.937 322.457,422.968 322.344,423.03 C 322.231,423.091 322.103,423.161 321.961,423.237 C 321.818,423.314 321.655,423.383 321.472,423.445 C 321.288,423.507 321.08,423.538 320.845,423.538 C 320.44,423.538 320.139,423.452 319.941,423.279 C 319.743,423.106 319.643,422.873 319.643,422.579 C 319.643,422.391 319.703,422.236 319.822,422.112 C 319.942,421.989 320.098,421.882 320.292,421.792 C 320.486,421.703 320.708,421.621 320.957,421.546 C 321.206,421.472 321.461,421.389 321.721,421.297 C 321.981,421.205 322.236,421.098 322.485,420.974 C 322.734,420.851 322.956,420.693 323.15,420.501 C 323.344,420.309 323.5,420.076 323.62,419.801 C 323.739,419.526 323.799,419.195 323.799,418.807 C 323.799,418.376 323.724,417.974 323.575,417.599 C 323.426,417.224 323.209,416.896 322.926,416.617 C 322.643,416.338 322.293,416.119 321.878,415.959 C 321.462,415.799 320.99,415.719 320.462,415.719 C 320.172,415.719 319.877,415.749 319.576,415.809 C 319.276,415.868 318.985,415.952 318.704,416.061 C 318.423,416.17 318.158,416.299 317.911,416.448 C 317.664,416.597 317.449,416.763 317.265,416.947 L 317.905,417.957 C 317.952,418.034 318.018,418.095 318.103,418.142 C 318.188,418.189 318.28,418.213 318.378,418.213 C 318.506,418.213 318.635,418.172 318.765,418.091 C 318.894,418.01 319.042,417.921 319.206,417.823 C 319.37,417.725 319.558,417.635 319.771,417.554 C 319.984,417.473 320.236,417.433 320.526,417.433 C 320.918,417.433 321.222,417.519 321.44,417.691 C 321.657,417.864 321.766,418.138 321.766,418.513 C 321.766,418.731 321.706,418.907 321.587,419.044 C 321.467,419.18 321.311,419.293 321.117,419.383 C 320.923,419.472 320.702,419.551 320.455,419.619 C 320.208,419.687 319.955,419.763 319.695,419.846 C 319.435,419.929 319.181,420.031 318.934,420.153 C 318.687,420.274 318.466,420.434 318.272,420.632 C 318.078,420.831 317.922,421.078 317.802,421.374 C 317.683,421.67 317.623,422.036 317.623,422.471 C 317.623,422.82 317.694,423.161 317.834,423.494 C 317.975,423.826 318.182,424.122 318.454,424.382 C 318.727,424.642 319.062,424.85 319.458,425.006 C 319.854,425.161 320.308,425.239 320.82,425.239 C 321.105,425.239 321.383,425.217 321.654,425.172 C 321.924,425.127 322.181,425.061 322.424,424.973 C 322.667,424.886 322.894,424.782 323.105,424.66 C 323.316,424.539 323.504,424.401 323.671,424.248 L 323.134,423.244 Z" marker-start="none" marker-end="none"/>
      <path d="M 331.635,425.139 L 331.635,423.425 L 329.014,423.425 L 329.014,415.824 L 326.854,415.824 L 326.854,423.425 L 324.233,423.425 L 324.233,425.139 L 331.635,425.139 Z" marker-start="none" marker-end="none"/>
      <path d="M 334.693,419.268 L 334.693,415.822 L 332.532,415.822 L 332.532,425.136 L 335.562,425.136 C 336.235,425.136 336.81,425.067 337.285,424.928 C 337.76,424.789 338.148,424.596 338.448,424.349 C 338.749,424.101 338.967,423.809 339.103,423.472 C 339.24,423.135 339.308,422.768 339.308,422.371 C 339.308,422.068 339.268,421.782 339.187,421.513 C 339.106,421.245 338.985,420.996 338.825,420.768 C 338.666,420.539 338.47,420.336 338.237,420.156 C 338.005,419.977 337.738,419.83 337.435,419.715 C 337.58,419.643 337.715,419.553 337.841,419.447 C 337.967,419.34 338.076,419.211 338.17,419.057 L 340.152,415.822 L 338.196,415.822 C 337.834,415.822 337.574,415.958 337.416,416.231 L 335.869,418.935 C 335.801,419.055 335.721,419.14 335.629,419.191 C 335.538,419.242 335.409,419.268 335.242,419.268 L 334.693,419.268 Z M 334.693,420.757 L 335.562,420.757 C 335.856,420.757 336.107,420.794 336.313,420.869 C 336.52,420.943 336.689,421.047 336.821,421.179 C 336.953,421.311 337.049,421.465 337.109,421.642 C 337.169,421.819 337.199,422.01 337.199,422.215 C 337.199,422.624 337.065,422.944 336.799,423.174 C 336.533,423.404 336.12,423.519 335.562,423.519 L 334.693,423.519 L 334.693,420.757 Z" marker-start="none" marker-end="none"/>
      <path d="M 343.4,415.822 L 341.227,415.822 L 341.227,425.139 L 343.4,425.139 L 343.4,415.822 Z" marker-start="none" marker-end="none"/>
      <path d="M 345.124,415.822 L 345.124,425.136 L 348.55,425.136 C 349.194,425.136 349.742,425.076 350.193,424.957 C 350.645,424.838 351.014,424.669 351.299,424.452 C 351.585,424.235 351.792,423.971 351.922,423.66 C 352.052,423.349 352.117,423.001 352.117,422.618 C 352.117,422.409 352.088,422.208 352.028,422.014 C 351.968,421.82 351.874,421.638 351.747,421.468 C 351.619,421.297 351.455,421.143 351.254,421.004 C 351.054,420.866 350.813,420.745 350.532,420.643 C 351.146,420.494 351.6,420.252 351.894,419.917 C 352.188,419.583 352.335,419.153 352.335,418.629 C 352.335,418.232 352.258,417.864 352.105,417.523 C 351.951,417.182 351.726,416.884 351.43,416.631 C 351.134,416.377 350.769,416.179 350.334,416.036 C 349.899,415.893 349.403,415.822 348.844,415.822 L 345.124,415.822 Z M 347.285,419.774 L 347.285,417.451 L 348.806,417.451 C 349.092,417.451 349.325,417.488 349.506,417.56 C 349.687,417.633 349.829,417.726 349.931,417.841 C 350.033,417.957 350.104,418.087 350.142,418.232 C 350.18,418.377 350.2,418.524 350.2,418.673 C 350.2,418.844 350.177,418.997 350.133,419.134 C 350.088,419.27 350.011,419.386 349.902,419.479 C 349.794,419.573 349.65,419.646 349.471,419.697 C 349.292,419.748 349.066,419.774 348.793,419.774 L 347.285,419.774 Z M 347.285,421.219 L 348.41,421.219 C 348.648,421.219 348.864,421.236 349.055,421.27 C 349.247,421.304 349.41,421.364 349.544,421.449 C 349.679,421.534 349.781,421.651 349.851,421.8 C 349.922,421.949 349.957,422.137 349.957,422.362 C 349.957,422.584 349.929,422.768 349.874,422.915 C 349.818,423.062 349.733,423.18 349.618,423.27 C 349.503,423.359 349.357,423.423 349.18,423.462 C 349.003,423.5 348.793,423.519 348.55,423.519 L 347.285,423.519 L 347.285,421.219 Z" marker-start="none" marker-end="none"/>
      <path d="M 357.382,417.529 C 357.672,417.529 357.931,417.577 358.159,417.673 C 358.387,417.769 358.579,417.906 358.737,418.086 C 358.895,418.265 359.015,418.483 359.098,418.741 C 359.181,418.999 359.223,419.292 359.223,419.62 L 359.223,425.137 L 361.384,425.137 L 361.384,419.619 C 361.384,419.048 361.291,418.524 361.105,418.046 C 360.92,417.569 360.655,417.158 360.31,416.812 C 359.964,416.467 359.545,416.199 359.05,416.007 C 358.556,415.815 358,415.719 357.382,415.719 C 356.76,415.719 356.201,415.815 355.707,416.007 C 355.213,416.199 354.793,416.467 354.448,416.812 C 354.103,417.158 353.838,417.569 353.655,418.046 C 353.472,418.524 353.38,419.048 353.38,419.619 L 353.38,425.137 L 355.541,425.137 L 355.541,419.626 C 355.541,419.298 355.582,419.005 355.666,418.747 C 355.749,418.489 355.869,418.27 356.027,418.089 C 356.184,417.908 356.377,417.769 356.605,417.673 C 356.833,417.577 357.092,417.529 357.382,417.529 Z" marker-start="none" marker-end="none"/>
      <path d="M 369.554,425.139 L 369.554,423.425 L 366.933,423.425 L 366.933,415.824 L 364.773,415.824 L 364.773,423.425 L 362.152,423.425 L 362.152,425.139 L 369.554,425.139 Z" marker-start="none" marker-end="none"/>
      <path d="M 372.816,415.822 L 370.643,415.822 L 370.643,425.139 L 372.816,425.139 L 372.816,415.822 Z" marker-start="none" marker-end="none"/>
      <path d="M 383.732,420.482 C 383.732,419.809 383.616,419.182 383.384,418.603 C 383.152,418.023 382.825,417.519 382.403,417.09 C 381.981,416.662 381.473,416.326 380.878,416.083 C 380.284,415.84 379.624,415.719 378.9,415.719 C 378.175,415.719 377.515,415.84 376.918,416.083 C 376.321,416.326 375.811,416.662 375.387,417.09 C 374.963,417.519 374.635,418.023 374.403,418.603 C 374.17,419.182 374.054,419.809 374.054,420.482 C 374.054,421.156 374.17,421.782 374.403,422.362 C 374.635,422.942 374.963,423.444 375.387,423.871 C 375.811,424.297 376.321,424.632 376.918,424.875 C 377.515,425.117 378.175,425.239 378.9,425.239 C 379.624,425.239 380.284,425.116 380.878,424.871 C 381.473,424.626 381.981,424.291 382.403,423.864 C 382.825,423.438 383.152,422.935 383.384,422.355 C 383.616,421.776 383.732,421.151 383.732,420.482 Z M 381.521,420.482 C 381.521,420.942 381.461,421.356 381.342,421.725 C 381.222,422.093 381.051,422.406 380.827,422.661 C 380.603,422.917 380.329,423.113 380.006,423.249 C 379.682,423.385 379.313,423.453 378.9,423.454 C 378.482,423.453 378.11,423.385 377.784,423.249 C 377.458,423.113 377.183,422.917 376.96,422.661 C 376.736,422.406 376.564,422.093 376.445,421.725 C 376.326,421.356 376.266,420.942 376.266,420.482 C 376.266,420.018 376.326,419.601 376.445,419.233 C 376.564,418.864 376.736,418.552 376.96,418.297 C 377.183,418.041 377.458,417.846 377.784,417.712 C 378.11,417.578 378.482,417.511 378.9,417.511 C 379.313,417.511 379.682,417.578 380.006,417.712 C 380.329,417.846 380.603,418.041 380.827,418.297 C 381.051,418.552 381.222,418.864 381.342,419.233 C 381.461,419.601 381.521,420.018 381.521,420.482 Z" marker-start="none" marker-end="none"/>
      <path d="M 385.904,425.139 C 385.998,425.139 386.077,425.135 386.14,425.126 C 386.204,425.118 386.262,425.102 386.313,425.078 C 386.364,425.055 386.413,425.022 386.46,424.979 C 386.507,424.936 386.56,424.879 386.62,424.807 L 391.043,419.213 C 391.026,419.392 391.014,419.566 391.005,419.734 C 390.997,419.902 390.992,420.061 390.992,420.211 L 390.992,425.139 L 392.897,425.139 L 392.897,415.822 L 391.772,415.822 C 391.606,415.822 391.465,415.848 391.35,415.899 C 391.235,415.95 391.124,416.044 391.018,416.18 L 386.626,421.729 C 386.639,421.567 386.65,421.408 386.658,421.252 C 386.667,421.097 386.671,420.951 386.671,420.814 L 386.671,415.822 L 384.766,415.822 L 384.766,425.139 L 385.904,425.139 Z" marker-start="none" marker-end="none"/>
     </g>
    </g>
    <g id="Group_27" fill-rule="nonzero" stroke-linejoin="round" stroke-linecap="round" stroke="none" stroke-width="0.365" fill="#000000">
     <g id="Group_28">
      <path d="M 311.105,390.316 L 311.105,386.366 L 308.628,386.366 L 308.628,397.041 L 312.101,397.041 C 312.873,397.041 313.531,396.962 314.076,396.803 C 314.62,396.644 315.065,396.423 315.409,396.139 C 315.754,395.855 316.004,395.52 316.16,395.134 C 316.316,394.748 316.395,394.327 316.395,393.872 C 316.395,393.525 316.348,393.197 316.255,392.889 C 316.163,392.581 316.025,392.296 315.841,392.034 C 315.658,391.773 315.434,391.539 315.167,391.334 C 314.901,391.129 314.595,390.96 314.248,390.828 C 314.414,390.745 314.569,390.642 314.713,390.52 C 314.857,390.399 314.983,390.25 315.09,390.074 L 317.362,386.366 L 315.12,386.366 C 314.705,386.366 314.407,386.522 314.226,386.835 L 312.453,389.935 C 312.375,390.071 312.283,390.169 312.178,390.228 C 312.073,390.286 311.925,390.316 311.735,390.316 L 311.105,390.316 Z M 311.105,392.022 L 312.101,392.022 C 312.438,392.022 312.725,392.065 312.962,392.15 C 313.199,392.236 313.393,392.354 313.544,392.506 C 313.696,392.657 313.806,392.834 313.874,393.037 C 313.943,393.24 313.977,393.459 313.977,393.693 C 313.977,394.162 313.824,394.529 313.519,394.792 C 313.214,395.056 312.741,395.188 312.101,395.188 L 311.105,395.188 L 311.105,392.022 Z" marker-start="none" marker-end="none"/>
      <path d="M 328.545,391.707 C 328.545,390.935 328.412,390.217 328.146,389.553 C 327.88,388.889 327.505,388.311 327.021,387.82 C 326.538,387.329 325.955,386.944 325.274,386.666 C 324.592,386.387 323.836,386.248 323.006,386.248 C 322.176,386.248 321.419,386.387 320.735,386.666 C 320.051,386.944 319.466,387.329 318.98,387.82 C 318.494,388.311 318.118,388.889 317.852,389.553 C 317.585,390.217 317.452,390.935 317.452,391.707 C 317.452,392.479 317.585,393.197 317.852,393.862 C 318.118,394.526 318.494,395.103 318.98,395.591 C 319.466,396.08 320.051,396.463 320.735,396.742 C 321.419,397.02 322.176,397.159 323.006,397.159 C 323.836,397.159 324.592,397.019 325.274,396.738 C 325.955,396.457 326.538,396.072 327.021,395.584 C 327.505,395.095 327.88,394.519 328.146,393.854 C 328.412,393.19 328.545,392.474 328.545,391.707 Z M 326.01,391.707 C 326.01,392.235 325.942,392.709 325.805,393.132 C 325.668,393.554 325.472,393.912 325.215,394.205 C 324.959,394.498 324.645,394.722 324.274,394.879 C 323.902,395.035 323.48,395.113 323.006,395.113 C 322.527,395.113 322.101,395.035 321.728,394.879 C 321.354,394.722 321.039,394.498 320.782,394.205 C 320.526,393.912 320.329,393.554 320.193,393.132 C 320.056,392.709 319.987,392.235 319.987,391.707 C 319.987,391.175 320.056,390.698 320.193,390.275 C 320.329,389.853 320.526,389.495 320.782,389.202 C 321.039,388.909 321.354,388.686 321.728,388.532 C 322.101,388.378 322.527,388.301 323.006,388.301 C 323.48,388.301 323.902,388.378 324.274,388.532 C 324.645,388.686 324.959,388.909 325.215,389.202 C 325.472,389.495 325.668,389.853 325.805,390.275 C 325.942,390.698 326.01,391.175 326.01,391.707 Z" marker-start="none" marker-end="none"/>
      <path d="M 339.225,386.366 L 337.306,386.366 C 337.091,386.366 336.914,386.416 336.775,386.516 C 336.635,386.616 336.539,386.745 336.485,386.901 L 335.855,388.763 L 331.796,388.763 L 331.166,386.901 C 331.117,386.764 331.022,386.641 330.88,386.531 C 330.738,386.421 330.565,386.366 330.36,386.366 L 328.426,386.366 L 332.558,397.043 L 335.093,397.043 L 339.225,386.366 Z M 332.367,390.448 L 335.284,390.448 L 334.302,393.327 C 334.238,393.509 334.164,393.725 334.078,393.972 C 333.993,394.22 333.909,394.488 333.825,394.777 C 333.747,394.483 333.667,394.212 333.584,393.961 C 333.501,393.712 333.423,393.495 333.349,393.312 L 332.367,390.448 Z" marker-start="none" marker-end="none"/>
      <path d="M 349.773,391.709 C 349.773,390.937 349.64,390.225 349.374,389.573 C 349.108,388.92 348.733,388.356 348.249,387.88 C 347.766,387.403 347.183,387.032 346.502,386.766 C 345.82,386.499 345.065,386.366 344.234,386.366 L 340.087,386.366 L 340.087,397.045 L 344.234,397.045 C 345.065,397.045 345.82,396.91 346.502,396.642 C 347.183,396.373 347.766,396.002 348.249,395.528 C 348.733,395.054 349.108,394.491 349.374,393.838 C 349.64,393.186 349.773,392.476 349.773,391.709 Z M 347.238,391.709 C 347.238,392.237 347.17,392.713 347.033,393.138 C 346.896,393.563 346.7,393.923 346.443,394.218 C 346.187,394.514 345.873,394.741 345.502,394.9 C 345.13,395.059 344.708,395.138 344.234,395.138 L 342.578,395.138 L 342.578,388.273 L 344.234,388.273 C 344.708,388.273 345.13,388.352 345.502,388.511 C 345.873,388.67 346.187,388.897 346.443,389.192 C 346.7,389.488 346.896,389.848 347.033,390.273 C 347.17,390.698 347.238,391.177 347.238,391.709 Z" marker-start="none" marker-end="none"/>
      <path d="M 361.541,397.045 L 361.541,395.081 L 358.537,395.081 L 358.537,386.368 L 356.061,386.368 L 356.061,395.081 L 353.057,395.081 L 353.057,397.045 L 361.541,397.045 Z" marker-start="none" marker-end="none"/>
      <path d="M 365.046,390.316 L 365.046,386.366 L 362.569,386.366 L 362.569,397.041 L 366.042,397.041 C 366.814,397.041 367.472,396.962 368.017,396.803 C 368.561,396.644 369.006,396.423 369.35,396.139 C 369.695,395.855 369.945,395.52 370.101,395.134 C 370.257,394.748 370.336,394.327 370.336,393.872 C 370.336,393.525 370.289,393.197 370.196,392.889 C 370.104,392.581 369.966,392.296 369.782,392.034 C 369.599,391.773 369.375,391.539 369.108,391.334 C 368.842,391.129 368.536,390.96 368.189,390.828 C 368.355,390.745 368.51,390.642 368.654,390.52 C 368.798,390.399 368.924,390.25 369.031,390.074 L 371.303,386.366 L 369.061,386.366 C 368.646,386.366 368.348,386.522 368.167,386.835 L 366.394,389.935 C 366.316,390.071 366.224,390.169 366.119,390.228 C 366.014,390.286 365.866,390.316 365.676,390.316 L 365.046,390.316 Z M 365.046,392.022 L 366.042,392.022 C 366.379,392.022 366.666,392.065 366.903,392.15 C 367.14,392.236 367.334,392.354 367.485,392.506 C 367.637,392.657 367.747,392.834 367.815,393.037 C 367.884,393.24 367.918,393.459 367.918,393.693 C 367.918,394.162 367.765,394.529 367.46,394.792 C 367.155,395.056 366.682,395.188 366.042,395.188 L 365.046,395.188 L 365.046,392.022 Z" marker-start="none" marker-end="none"/>
      <path d="M 382.25,386.366 L 380.331,386.366 C 380.116,386.366 379.939,386.416 379.8,386.516 C 379.66,386.616 379.564,386.745 379.51,386.901 L 378.88,388.763 L 374.821,388.763 L 374.191,386.901 C 374.142,386.764 374.047,386.641 373.905,386.531 C 373.763,386.421 373.59,386.366 373.385,386.366 L 371.451,386.366 L 375.583,397.043 L 378.118,397.043 L 382.25,386.366 Z M 375.392,390.448 L 378.309,390.448 L 377.327,393.327 C 377.263,393.509 377.189,393.725 377.103,393.972 C 377.018,394.22 376.934,394.488 376.85,394.777 C 376.772,394.483 376.692,394.212 376.609,393.961 C 376.526,393.712 376.448,393.495 376.374,393.312 L 375.392,390.448 Z" marker-start="none" marker-end="none"/>
      <path d="M 384.416,397.045 C 384.524,397.045 384.614,397.04 384.687,397.03 C 384.761,397.021 384.827,397.002 384.885,396.975 C 384.944,396.948 385,396.91 385.054,396.862 C 385.108,396.813 385.169,396.747 385.237,396.664 L 390.307,390.253 C 390.288,390.458 390.273,390.657 390.263,390.85 C 390.253,391.043 390.248,391.225 390.248,391.396 L 390.248,397.045 L 392.432,397.045 L 392.432,386.366 L 391.142,386.366 C 390.952,386.366 390.791,386.395 390.659,386.454 C 390.527,386.513 390.4,386.62 390.278,386.776 L 385.244,393.136 C 385.259,392.95 385.271,392.768 385.281,392.59 C 385.291,392.412 385.296,392.245 385.296,392.088 L 385.296,386.366 L 383.112,386.366 L 383.112,397.045 L 384.416,397.045 Z" marker-start="none" marker-end="none"/>
      <path d="M 400.138,394.873 C 400.064,394.755 399.987,394.667 399.907,394.609 C 399.826,394.55 399.722,394.521 399.595,394.521 C 399.483,394.521 399.362,394.556 399.233,394.627 C 399.103,394.698 398.957,394.777 398.793,394.865 C 398.629,394.953 398.443,395.033 398.233,395.103 C 398.023,395.174 397.783,395.21 397.515,395.21 C 397.051,395.21 396.705,395.111 396.478,394.913 C 396.251,394.715 396.137,394.448 396.137,394.111 C 396.137,393.895 396.206,393.717 396.342,393.576 C 396.479,393.434 396.659,393.312 396.881,393.209 C 397.103,393.107 397.357,393.013 397.643,392.927 C 397.929,392.842 398.22,392.746 398.518,392.641 C 398.816,392.536 399.108,392.413 399.394,392.271 C 399.68,392.13 399.934,391.949 400.156,391.729 C 400.378,391.509 400.558,391.242 400.694,390.927 C 400.831,390.612 400.9,390.232 400.9,389.787 C 400.9,389.294 400.814,388.832 400.643,388.402 C 400.472,387.972 400.224,387.598 399.899,387.278 C 399.575,386.958 399.174,386.706 398.698,386.523 C 398.222,386.34 397.681,386.248 397.075,386.248 C 396.743,386.248 396.405,386.282 396.06,386.351 C 395.716,386.419 395.382,386.515 395.06,386.64 C 394.738,386.765 394.435,386.912 394.152,387.083 C 393.868,387.254 393.622,387.445 393.412,387.655 L 394.144,388.813 C 394.198,388.901 394.274,388.972 394.371,389.025 C 394.469,389.079 394.574,389.106 394.686,389.106 C 394.833,389.106 394.981,389.06 395.13,388.967 C 395.279,388.874 395.447,388.771 395.635,388.659 C 395.823,388.547 396.039,388.444 396.284,388.351 C 396.528,388.258 396.816,388.212 397.148,388.212 C 397.598,388.212 397.947,388.311 398.196,388.509 C 398.445,388.706 398.57,389.021 398.57,389.45 C 398.57,389.7 398.501,389.902 398.364,390.059 C 398.228,390.215 398.048,390.344 397.826,390.447 C 397.604,390.55 397.351,390.64 397.068,390.718 C 396.784,390.796 396.494,390.883 396.196,390.978 C 395.898,391.073 395.607,391.191 395.324,391.33 C 395.041,391.469 394.788,391.652 394.566,391.88 C 394.343,392.107 394.164,392.39 394.027,392.73 C 393.89,393.069 393.822,393.488 393.822,393.986 C 393.822,394.387 393.902,394.778 394.064,395.159 C 394.225,395.54 394.462,395.879 394.774,396.177 C 395.087,396.475 395.47,396.714 395.925,396.892 C 396.379,397.07 396.899,397.159 397.485,397.159 C 397.813,397.159 398.131,397.134 398.441,397.082 C 398.752,397.031 399.046,396.955 399.324,396.855 C 399.603,396.755 399.863,396.635 400.105,396.496 C 400.346,396.357 400.563,396.199 400.753,396.023 L 400.138,394.873 Z" marker-start="none" marker-end="none"/>
      <path d="M 404.607,389.936 L 404.607,386.368 L 402.13,386.368 L 402.13,397.045 L 405.896,397.045 C 406.648,397.045 407.294,396.956 407.834,396.777 C 408.374,396.599 408.818,396.354 409.168,396.041 C 409.517,395.728 409.774,395.359 409.941,394.934 C 410.107,394.509 410.19,394.05 410.19,393.557 C 410.19,393.024 410.104,392.535 409.933,392.091 C 409.762,391.646 409.501,391.265 409.149,390.948 C 408.798,390.63 408.352,390.382 407.812,390.204 C 407.272,390.026 406.634,389.936 405.896,389.936 L 404.607,389.936 Z M 404.607,391.804 L 405.896,391.804 C 406.541,391.804 407.005,391.958 407.288,392.266 C 407.572,392.574 407.713,393.004 407.713,393.556 C 407.713,393.801 407.677,394.024 407.603,394.224 C 407.53,394.424 407.419,394.596 407.27,394.741 C 407.121,394.885 406.933,394.996 406.706,395.074 C 406.479,395.153 406.209,395.192 405.896,395.192 L 404.607,395.192 L 404.607,391.804 Z" marker-start="none" marker-end="none"/>
      <path d="M 422.018,391.707 C 422.018,390.935 421.885,390.217 421.619,389.553 C 421.353,388.889 420.978,388.311 420.494,387.82 C 420.011,387.329 419.428,386.944 418.747,386.666 C 418.065,386.387 417.309,386.248 416.479,386.248 C 415.649,386.248 414.892,386.387 414.208,386.666 C 413.524,386.944 412.939,387.329 412.453,387.82 C 411.967,388.311 411.591,388.889 411.325,389.553 C 411.058,390.217 410.925,390.935 410.925,391.707 C 410.925,392.479 411.058,393.197 411.325,393.862 C 411.591,394.526 411.967,395.103 412.453,395.591 C 412.939,396.08 413.524,396.463 414.208,396.742 C 414.892,397.02 415.649,397.159 416.479,397.159 C 417.309,397.159 418.065,397.019 418.747,396.738 C 419.428,396.457 420.011,396.072 420.494,395.584 C 420.978,395.095 421.353,394.519 421.619,393.854 C 421.885,393.19 422.018,392.474 422.018,391.707 Z M 419.483,391.707 C 419.483,392.235 419.415,392.709 419.278,393.132 C 419.141,393.554 418.945,393.912 418.688,394.205 C 418.432,394.498 418.118,394.722 417.747,394.879 C 417.375,395.035 416.953,395.113 416.479,395.113 C 416,395.113 415.574,395.035 415.201,394.879 C 414.827,394.722 414.512,394.498 414.255,394.205 C 413.999,393.912 413.802,393.554 413.666,393.132 C 413.529,392.709 413.46,392.235 413.46,391.707 C 413.46,391.175 413.529,390.698 413.666,390.275 C 413.802,389.853 413.999,389.495 414.255,389.202 C 414.512,388.909 414.827,388.686 415.201,388.532 C 415.574,388.378 416,388.301 416.479,388.301 C 416.953,388.301 417.375,388.378 417.747,388.532 C 418.118,388.686 418.432,388.909 418.688,389.202 C 418.945,389.495 419.141,389.853 419.278,390.275 C 419.415,390.698 419.483,391.175 419.483,391.707 Z" marker-start="none" marker-end="none"/>
      <path d="M 425.679,390.316 L 425.679,386.366 L 423.202,386.366 L 423.202,397.041 L 426.675,397.041 C 427.447,397.041 428.105,396.962 428.65,396.803 C 429.194,396.644 429.639,396.423 429.983,396.139 C 430.328,395.855 430.578,395.52 430.734,395.134 C 430.89,394.748 430.969,394.327 430.969,393.872 C 430.969,393.525 430.922,393.197 430.829,392.889 C 430.737,392.581 430.599,392.296 430.415,392.034 C 430.232,391.773 430.008,391.539 429.741,391.334 C 429.475,391.129 429.169,390.96 428.822,390.828 C 428.988,390.745 429.143,390.642 429.287,390.52 C 429.431,390.399 429.557,390.25 429.664,390.074 L 431.936,386.366 L 429.694,386.366 C 429.279,386.366 428.981,386.522 428.8,386.835 L 427.027,389.935 C 426.949,390.071 426.857,390.169 426.752,390.228 C 426.647,390.286 426.499,390.316 426.309,390.316 L 425.679,390.316 Z M 425.679,392.022 L 426.675,392.022 C 427.012,392.022 427.299,392.065 427.536,392.15 C 427.773,392.236 427.967,392.354 428.118,392.506 C 428.27,392.657 428.38,392.834 428.448,393.037 C 428.517,393.24 428.551,393.459 428.551,393.693 C 428.551,394.162 428.398,394.529 428.093,394.792 C 427.788,395.056 427.315,395.188 426.675,395.188 L 425.679,395.188 L 425.679,392.022 Z" marker-start="none" marker-end="none"/>
      <path d="M 440.261,397.045 L 440.261,395.081 L 437.257,395.081 L 437.257,386.368 L 434.781,386.368 L 434.781,395.081 L 431.777,395.081 L 431.777,397.045 L 440.261,397.045 Z" marker-start="none" marker-end="none"/>
      <path d="M 439.59,387.656 C 439.59,387.812 439.62,387.958 439.678,388.092 C 439.737,388.227 439.821,388.344 439.931,388.444 C 440.041,388.544 440.17,388.623 440.319,388.682 C 440.468,388.741 440.636,388.77 440.821,388.77 C 441.041,388.77 441.231,388.732 441.393,388.656 C 441.554,388.581 441.688,388.478 441.796,388.349 C 441.903,388.219 441.982,388.07 442.034,387.902 C 442.085,387.733 442.111,387.556 442.111,387.37 C 442.111,387.126 442.072,386.866 441.993,386.59 C 441.915,386.314 441.799,386.037 441.645,385.758 C 441.492,385.48 441.3,385.206 441.07,384.937 C 440.841,384.669 440.577,384.424 440.279,384.205 L 439.883,384.556 C 439.83,384.61 439.789,384.66 439.762,384.707 C 439.736,384.753 439.722,384.81 439.722,384.879 C 439.722,384.928 439.739,384.98 439.773,385.036 C 439.808,385.093 439.849,385.143 439.898,385.187 C 439.957,385.245 440.025,385.316 440.103,385.399 C 440.181,385.482 440.259,385.575 440.338,385.678 C 440.416,385.78 440.488,385.893 440.554,386.015 C 440.62,386.137 440.67,386.266 440.704,386.403 C 440.533,386.418 440.379,386.459 440.242,386.528 C 440.106,386.596 439.99,386.687 439.894,386.799 C 439.799,386.911 439.725,387.039 439.671,387.184 C 439.617,387.328 439.59,387.485 439.59,387.656 Z" marker-start="none" marker-end="none"/>
      <path d="M 448.964,386.366 L 446.473,386.366 L 446.473,397.045 L 448.964,397.045 L 448.964,386.366 Z" marker-start="none" marker-end="none"/>
      <path d="M 452.244,397.045 C 452.352,397.045 452.442,397.04 452.515,397.03 C 452.589,397.021 452.655,397.002 452.713,396.975 C 452.772,396.948 452.828,396.91 452.882,396.862 C 452.936,396.813 452.997,396.747 453.065,396.664 L 458.135,390.253 C 458.116,390.458 458.101,390.657 458.091,390.85 C 458.081,391.043 458.076,391.225 458.076,391.396 L 458.076,397.045 L 460.26,397.045 L 460.26,386.366 L 458.97,386.366 C 458.78,386.366 458.619,386.395 458.487,386.454 C 458.355,386.513 458.228,386.62 458.106,386.776 L 453.072,393.136 C 453.087,392.95 453.099,392.768 453.109,392.59 C 453.119,392.412 453.124,392.245 453.124,392.088 L 453.124,386.366 L 450.94,386.366 L 450.94,397.045 L 452.244,397.045 Z" marker-start="none" marker-end="none"/>
      <path d="M 469.189,389.126 C 469.248,389.126 469.306,389.115 469.365,389.093 C 469.424,389.07 469.48,389.032 469.533,388.977 L 470.515,387.922 C 470.085,387.369 469.547,386.951 468.9,386.67 C 468.253,386.389 467.487,386.248 466.603,386.248 C 465.792,386.248 465.065,386.386 464.423,386.662 C 463.781,386.938 463.236,387.319 462.789,387.805 C 462.342,388.291 461.999,388.868 461.76,389.535 C 461.52,390.202 461.401,390.926 461.401,391.707 C 461.401,392.504 461.538,393.235 461.811,393.902 C 462.085,394.569 462.467,395.144 462.958,395.628 C 463.449,396.111 464.036,396.488 464.72,396.756 C 465.404,397.025 466.158,397.159 466.984,397.159 C 467.384,397.159 467.762,397.124 468.116,397.053 C 468.47,396.982 468.801,396.884 469.109,396.759 C 469.416,396.635 469.7,396.486 469.958,396.312 C 470.217,396.138 470.447,395.946 470.647,395.736 L 469.812,394.615 C 469.758,394.546 469.695,394.484 469.621,394.428 C 469.548,394.372 469.446,394.344 469.314,394.344 C 469.226,394.344 469.143,394.363 469.065,394.402 C 468.986,394.441 468.903,394.489 468.815,394.545 C 468.728,394.601 468.631,394.662 468.526,394.728 C 468.421,394.794 468.296,394.855 468.152,394.912 C 468.008,394.968 467.84,395.015 467.647,395.055 C 467.454,395.093 467.228,395.113 466.969,395.113 C 466.52,395.113 466.109,395.034 465.738,394.875 C 465.367,394.716 465.048,394.489 464.782,394.193 C 464.516,393.898 464.308,393.54 464.159,393.12 C 464.01,392.7 463.936,392.228 463.936,391.706 C 463.936,391.158 464.01,390.672 464.159,390.247 C 464.308,389.822 464.511,389.465 464.767,389.174 C 465.024,388.883 465.323,388.662 465.665,388.511 C 466.007,388.359 466.373,388.284 466.764,388.284 C 466.989,388.284 467.194,388.295 467.379,388.317 C 467.565,388.339 467.737,388.376 467.896,388.43 C 468.055,388.484 468.206,388.553 468.35,388.639 C 468.494,388.724 468.64,388.831 468.786,388.958 C 468.845,389.007 468.908,389.047 468.977,389.079 C 469.045,389.11 469.116,389.126 469.189,389.126 Z" marker-start="none" marker-end="none"/>
      <path d="M 471.208,387.516 C 471.208,387.692 471.241,387.856 471.307,388.007 C 471.372,388.159 471.463,388.291 471.578,388.403 C 471.692,388.516 471.828,388.605 471.984,388.671 C 472.141,388.737 472.312,388.77 472.497,388.77 C 472.678,388.77 472.846,388.737 473.003,388.671 C 473.159,388.605 473.296,388.516 473.413,388.403 C 473.53,388.291 473.622,388.159 473.688,388.007 C 473.754,387.856 473.787,387.692 473.787,387.516 C 473.787,387.34 473.754,387.175 473.688,387.021 C 473.622,386.867 473.53,386.734 473.413,386.622 C 473.296,386.509 473.159,386.421 473.003,386.358 C 472.846,386.294 472.678,386.262 472.497,386.262 C 472.312,386.262 472.141,386.294 471.984,386.358 C 471.828,386.421 471.692,386.509 471.578,386.622 C 471.463,386.734 471.372,386.867 471.307,387.021 C 471.241,387.175 471.208,387.34 471.208,387.516 Z" marker-start="none" marker-end="none"/>
     </g>
    </g>
   </g>
   <path d="M 282.069,374.532 L 282.069,559.542 C 282.069,567.939 288.884,574.755 297.281,574.755 L 482.292,574.755 C 490.689,574.755 497.504,567.939 497.504,559.542 L 497.504,374.532 C 497.504,366.135 490.689,359.319 482.292,359.319 L 297.281,359.319 C 288.884,359.319 282.069,366.135 282.069,374.532 Z M 496.795,375.141 L 496.795,558.933 C 496.795,567.275 490.025,574.046 481.683,574.046 L 297.89,574.046 C 289.548,574.046 282.778,567.275 282.778,558.933 L 282.778,375.141 C 282.778,366.799 289.548,360.028 297.89,360.028 L 481.683,360.028 C 490.025,360.028 496.795,366.799 496.795,375.141 Z" stroke-linejoin="miter" stroke-width="0.802" fill="#7f7f7f" stroke="none" marker-start="none" marker-end="none"/>
  </g>
 </g>
</svg>
