<?xml version="1.0" standalone="no"?>
<!DOCTYPE svg PUBLIC "-//W3C//DTD SVG 1.1//EN" "http://www.w3.org/Graphics/SVG/1.1/DTD/svg11.dtd">
<!--Generator: Xara Designer (www.xara.com), SVG filter version: 6.6.0.0-->
<svg fill="none" fill-rule="evenodd" stroke="black" stroke-width="0.501" stroke-linejoin="bevel" stroke-miterlimit="10" font-family="Times New Roman" font-size="16" style="font-variant-ligatures:none" xmlns:xlink="http://www.w3.org/1999/xlink" xmlns="http://www.w3.org/2000/svg" version="1.1" overflow="visible" width="215.435pt" height="215.436pt" viewBox="48.82 -297.638 215.435 215.436">
 <defs>
	</defs>
 <g id="Page background" transform="scale(1 -1)"/>
 <g id="Layer 1" transform="scale(1 -1)">
  <g id="Group" stroke-linejoin="miter">
   <g id="Group_1">
    <path d="M 48.82,282.425 L 48.82,97.415 C 48.82,89.018 55.635,82.202 64.032,82.202 L 249.043,82.202 C 257.44,82.202 264.255,89.018 264.255,97.415 L 264.255,282.425 C 264.255,290.822 257.44,297.638 249.043,297.638 L 64.032,297.638 C 55.635,297.638 48.82,290.822 48.82,282.425 Z" stroke="none" stroke-width="0.802" fill="#7f7f7f" marker-start="none" marker-end="none"/>
    <path d="M 49.529,281.816 L 49.529,98.024 C 49.529,89.682 56.299,82.911 64.641,82.911 L 248.434,82.911 C 256.776,82.911 263.546,89.682 263.546,98.024 L 263.546,281.816 C 263.546,290.158 256.776,296.929 248.434,296.929 L 64.641,296.929 C 56.299,296.929 49.529,290.158 49.529,281.816 Z" stroke="none" stroke-width="0.802" marker-start="none" marker-end="none"/>
    <path d="M 49.529,281.816 L 49.529,98.024 C 49.529,89.682 56.299,82.911 64.641,82.911 L 248.434,82.911 C 256.776,82.911 263.546,89.682 263.546,98.024 L 263.546,281.816 C 263.546,290.158 256.776,296.929 248.434,296.929 L 64.641,296.929 C 56.299,296.929 49.529,290.158 49.529,281.816 Z" stroke="none" stroke-width="0.802" fill="#ffffff" marker-start="none" marker-end="none"/>
    <g id="Group_2" stroke-linecap="round" stroke="#30336b">
     <rect x="-51.794" y="-16.946" width="103.588" height="33.892" rx="0" ry="0" transform="matrix(1 0 0 1 112.413 132.867)" fill="#30336b" stroke-width="1.737"/>
     <rect x="-51.794" y="-9.556" width="103.588" height="19.112" rx="4.648" ry="4.648" transform="matrix(1 0 0 1 112.413 146.254)" fill="#30336b" stroke-width="1.737"/>
     <rect x="-91.8845" y="-17.185" width="183.769" height="34.37" rx="8.3615" ry="8.3615" transform="matrix(1 0 0 1 153.2 113.444)" fill="#ffffff" stroke-width="3.13"/>
    </g>
    <g id="Group_6">
     <path d="M 104.57,182.848 C 98.67,189.825 99.549,200.285 106.544,206.194 C 113.526,212.086 123.979,211.207 129.883,204.22 C 135.792,197.228 134.906,186.774 127.909,180.869 C 120.927,174.975 110.47,175.853 104.57,182.848 Z" fill="#000000" stroke="none" stroke-width="0.686" marker-start="none" marker-end="none"/>
     <path d="M 105.348,183.456 C 99.457,190.454 100.329,200.913 107.322,206.807 C 114.311,212.716 124.763,211.832 130.679,204.839 C 136.576,197.857 135.691,187.406 128.697,181.501 C 121.718,175.594 111.254,176.474 105.348,183.456 Z" fill="none" stroke="#b2b2b2" stroke-width="3.752" marker-start="none" marker-end="none"/>
    </g>
    <g id="Group_7">
     <path d="M 63.885,182.835 C 57.985,189.823 58.864,200.291 65.861,206.183 C 72.844,212.093 83.298,211.211 89.2,204.223 C 95.111,197.233 94.225,186.773 87.227,180.869 C 80.244,174.97 69.785,175.853 63.885,182.835 Z" fill="#ffffff" stroke="none" stroke-width="0.688" marker-start="none" marker-end="none"/>
     <path d="M 64.665,183.469 C 58.772,190.462 59.645,200.907 66.637,206.821 C 73.628,212.705 84.083,211.832 89.996,204.844 C 95.894,197.857 95.01,187.392 88.016,181.491 C 81.035,175.592 70.57,176.47 64.665,183.469 Z" fill="none" stroke="#55bae6" stroke-width="3.752" marker-start="none" marker-end="none"/>
    </g>
    <g id="Group_8">
     <path d="M 66.425,239.485 C 57.528,250.025 58.853,265.81 69.405,274.694 C 79.936,283.608 95.701,282.276 104.602,271.739 C 113.516,261.198 112.18,245.425 101.626,236.522 C 91.095,227.625 75.323,228.957 66.425,239.485 Z" fill="#ffffff" stroke="none" stroke-width="1.038" marker-start="none" marker-end="none"/>
     <path d="M 67.602,240.442 C 58.715,250.987 60.031,266.739 70.575,275.657 C 81.118,284.53 96.885,283.215 105.802,272.677 C 114.696,262.14 113.363,246.357 102.816,237.459 C 92.288,228.564 76.507,229.888 67.602,240.442 Z" fill="none" stroke="#55bae6" stroke-width="5.657" marker-start="none" marker-end="none"/>
    </g>
    <g id="Group_9" fill="#b2b2b2" fill-rule="nonzero" stroke-linecap="round" stroke="none" stroke-width="0.484">
     <g id="Group_10">
      <path d="M 113.782,189.237 L 116.511,189.237 L 116.511,196.399 C 116.511,196.751 116.52,197.117 116.54,197.502 L 114.932,196.165 C 114.828,196.081 114.724,196.021 114.62,195.985 C 114.516,195.949 114.415,195.932 114.318,195.932 C 114.149,195.932 113.998,195.969 113.865,196.045 C 113.731,196.118 113.632,196.198 113.567,196.282 L 112.612,197.549 L 117.037,201.263 L 119.532,201.263 L 119.532,189.237 L 121.871,189.237 L 121.871,187.052 L 113.782,187.052 L 113.782,189.237 Z" marker-start="none" marker-end="none"/>
     </g>
    </g>
    <g id="Group_11" fill="#000000" fill-rule="nonzero" stroke-linecap="round" stroke="none" stroke-width="0.484">
     <g id="Group_12">
      <path d="M 77.71,201.408 C 78.412,201.408 79.036,201.309 79.582,201.11 C 80.127,200.912 80.589,200.643 80.966,200.304 C 81.342,199.965 81.628,199.573 81.823,199.127 C 82.018,198.68 82.116,198.21 82.116,197.714 C 82.116,197.266 82.07,196.869 81.979,196.526 C 81.888,196.184 81.753,195.888 81.575,195.637 C 81.396,195.386 81.175,195.173 80.912,194.997 C 80.649,194.822 80.348,194.675 80.011,194.558 C 81.583,194.013 82.369,192.947 82.369,191.358 C 82.369,190.606 82.232,189.952 81.96,189.394 C 81.687,188.837 81.321,188.373 80.863,188.004 C 80.405,187.634 79.874,187.357 79.27,187.172 C 78.666,186.988 78.035,186.895 77.378,186.895 C 76.704,186.895 76.103,186.968 75.576,187.115 C 75.05,187.26 74.582,187.489 74.173,187.796 C 73.764,188.105 73.405,188.499 73.096,188.98 C 72.788,189.462 72.52,190.032 72.292,190.696 L 73.637,191.242 C 73.754,191.295 73.869,191.33 73.983,191.351 C 74.097,191.369 74.209,191.379 74.319,191.379 C 74.527,191.379 74.714,191.338 74.88,191.257 C 75.045,191.176 75.17,191.058 75.255,190.901 C 75.547,190.362 75.857,189.969 76.185,189.726 C 76.514,189.482 76.898,189.36 77.34,189.36 C 77.678,189.36 77.972,189.418 78.222,189.532 C 78.472,189.644 78.68,189.79 78.846,189.969 C 79.012,190.148 79.137,190.352 79.221,190.579 C 79.306,190.808 79.348,191.038 79.348,191.272 C 79.348,191.577 79.327,191.852 79.285,192.096 C 79.242,192.34 79.124,192.55 78.929,192.726 C 78.734,192.901 78.44,193.036 78.047,193.13 C 77.654,193.225 77.106,193.271 76.405,193.271 L 76.405,195.356 C 76.996,195.356 77.473,195.401 77.836,195.492 C 78.201,195.584 78.482,195.709 78.68,195.868 C 78.878,196.027 79.01,196.22 79.075,196.448 C 79.14,196.675 79.172,196.925 79.172,197.198 C 79.172,197.757 79.038,198.188 78.768,198.49 C 78.498,198.793 78.087,198.944 77.535,198.944 C 77.307,198.944 77.099,198.911 76.911,198.846 C 76.723,198.782 76.554,198.693 76.405,198.584 C 76.255,198.473 76.127,198.342 76.02,198.193 C 75.913,198.044 75.827,197.881 75.762,197.705 C 75.658,197.413 75.526,197.202 75.367,197.073 C 75.208,196.942 74.992,196.877 74.719,196.877 C 74.654,196.877 74.584,196.88 74.509,196.886 C 74.435,196.893 74.358,196.902 74.28,196.915 L 72.682,197.198 C 72.786,197.907 72.986,198.524 73.281,199.05 C 73.577,199.576 73.944,200.016 74.383,200.366 C 74.821,200.716 75.323,200.978 75.888,201.15 C 76.453,201.323 77.061,201.408 77.71,201.408 Z" marker-start="none" marker-end="none"/>
     </g>
    </g>
    <path d="M 263.546,184.241 L 263.546,175.707 L 210.824,175.707 L 210.824,184.242 L 263.546,184.241 Z" fill="#e5e5e5" stroke="none" stroke-width="0.103" stroke-linecap="round" marker-start="none" marker-end="none"/>
    <path d="M 160.382,204.474 C 172.649,191.034 189.463,184.205 206.336,184.202 L 206.336,175.723 C 187.164,175.728 168.051,183.478 154.117,198.747 C 141.744,212.308 135.642,229.386 135.647,246.409 L 144.133,246.409 C 144.126,231.427 149.495,216.4 160.382,204.474 Z" fill="#e5e5e5" stroke="none" stroke-width="0.54" stroke-linecap="round" marker-start="none" marker-end="none"/>
    <path d="M 139.874,284.362 L 141.992,281.317 L 144.114,278.265 L 144.167,278.263 L 144.167,250.987 L 135.631,250.987 L 135.631,278.263 L 137.751,281.317 L 139.874,284.362 Z" fill="#e5e5e5" stroke="none" stroke-width="0.103" stroke-linecap="round" marker-start="none" marker-end="none"/>
    <path d="M 151.424,284.366 L 153.544,281.319 L 155.665,278.263 L 151.424,278.263 L 147.183,278.267 L 149.305,281.319 L 151.424,284.366 Z M 155.688,278.263 L 155.689,250.987 L 147.154,250.987 L 147.154,278.263 L 155.688,278.263 Z" fill="#ffcd36" stroke-linecap="round" stroke="none" stroke-width="0.103" marker-start="none" marker-end="none"/>
    <path d="M 168.736,212.095 C 178.776,201.104 192.531,195.518 206.336,195.511 L 206.336,187.032 C 190.228,187.036 174.178,193.55 162.47,206.379 C 152.076,217.765 146.956,232.108 146.959,246.407 L 155.445,246.409 C 155.435,234.151 159.83,221.86 168.736,212.095 Z" fill="#ffcd36" stroke-linecap="round" stroke="none" stroke-width="0.452" marker-start="none" marker-end="none"/>
    <path d="M 263.546,195.544 L 263.546,187.012 L 210.824,187.012 L 210.824,195.545 L 263.546,195.544 Z" fill="#ffcd36" stroke-linecap="round" stroke="none" stroke-width="0.103" marker-start="none" marker-end="none"/>
    <path d="M 162.74,284.366 L 164.855,281.319 L 166.977,278.263 L 162.736,278.263 L 158.493,278.267 L 160.613,281.319 L 162.74,284.366 Z M 166.987,278.263 L 166.986,250.987 L 158.451,250.987 L 158.451,278.263 L 166.987,278.263 Z" fill="#00d702" stroke-linecap="round" stroke="none" stroke-width="0.103" marker-start="none" marker-end="none"/>
    <path d="M 263.546,206.841 L 263.546,198.311 L 210.825,198.311 L 210.824,206.842 L 263.546,206.841 Z" fill="#00d702" stroke-linecap="round" stroke="none" stroke-width="0.103" marker-start="none" marker-end="none"/>
    <path d="M 177.091,219.722 C 184.898,211.17 195.603,206.831 206.336,206.824 L 206.335,198.339 C 193.294,198.343 180.304,203.616 170.825,214.006 C 162.414,223.22 158.266,234.836 158.268,246.409 L 166.75,246.409 C 166.75,236.875 170.164,227.312 177.091,219.722 Z" fill="#00d702" stroke-linecap="round" stroke="none" stroke-width="0.367" marker-start="none" marker-end="none"/>
    <path d="M 264.255,218.138 L 264.255,209.604 L 210.823,209.604 L 210.824,218.138 L 264.255,218.138 Z" fill="#11a1e0" stroke-linecap="round" stroke="none" stroke-width="0.103" marker-start="none" marker-end="none"/>
    <path d="M 185.446,227.344 C 191.024,221.237 198.662,218.136 206.335,218.134 L 206.336,209.647 C 196.366,209.657 186.427,213.689 179.184,221.627 C 172.745,228.677 169.574,237.553 169.578,246.409 L 178.066,246.409 C 178.059,239.601 180.501,232.769 185.446,227.344 Z" fill="#11a1e0" stroke-linecap="round" stroke="none" stroke-width="0.28" marker-start="none" marker-end="none"/>
    <path d="M 173.793,284.362 L 175.924,281.317 L 178.066,278.265 L 178.066,278.265 L 178.066,250.987 L 169.527,250.987 L 169.527,278.263 L 169.527,278.263 L 171.657,281.319 L 173.793,284.362 Z" fill="#11a1e0" stroke-linecap="round" stroke="none" stroke-width="0.103" marker-start="none" marker-end="none"/>
    <g id="Group_13">
     <path d="M 198.584,239.931 C 189.687,250.472 191.012,266.258 201.564,275.14 C 212.095,284.056 227.86,282.724 236.761,272.187 C 245.675,261.646 244.339,245.872 233.786,236.969 C 223.254,228.073 207.482,229.403 198.584,239.931 Z" fill="#000000" stroke="none" stroke-width="1.038" marker-start="none" marker-end="none"/>
     <path d="M 199.761,240.888 C 190.874,251.433 192.19,267.185 202.734,276.103 C 213.278,284.976 229.044,283.662 237.961,273.125 C 246.855,262.586 245.522,246.804 234.975,237.907 C 224.447,229.011 208.666,230.334 199.761,240.888 Z" fill="none" stroke="#b2b2b2" stroke-width="5.657" marker-start="none" marker-end="none"/>
    </g>
    <g id="Group_14">
     <path d="M 220.649,188.116 C 216.124,193.473 216.801,201.489 222.158,206.011 C 227.514,210.537 235.534,209.864 240.054,204.506 C 244.579,199.149 243.904,191.129 238.545,186.61 C 233.191,182.082 225.171,182.766 220.649,188.116 Z" fill="#ffffff" stroke="none" stroke-width="0.525" marker-start="none" marker-end="none"/>
     <path d="M 221.252,188.599 C 216.728,193.948 217.404,201.969 222.76,206.49 C 228.119,211.018 236.135,210.341 240.658,204.981 C 245.187,199.63 244.51,191.607 239.15,187.084 C 233.791,182.562 225.775,183.237 221.252,188.599 Z" fill="none" stroke="#55bae6" stroke-width="2.871" marker-start="none" marker-end="none"/>
    </g>
    <g id="Group_15">
     <path d="M 182.315,198.434 C 176.964,193.911 168.944,194.588 164.417,199.944 C 159.901,205.301 160.574,213.321 165.931,217.845 C 171.286,222.368 179.303,221.687 183.826,216.334 C 188.35,210.976 187.674,202.959 182.315,198.434 Z" fill="#ffffff" stroke="none" stroke-width="0.525" marker-start="none" marker-end="none"/>
     <path d="M 181.837,199.041 C 176.483,194.515 168.467,195.188 163.943,200.548 C 159.419,205.907 160.092,213.922 165.455,218.446 C 170.81,222.974 178.827,222.289 183.353,216.939 C 187.878,211.578 187.197,203.563 181.837,199.041 Z" fill="none" stroke="#55bae6" stroke-width="2.871" marker-start="none" marker-end="none"/>
    </g>
    <g id="Group_16">
     <path d="M 146.543,257.692 C 142.019,263.047 142.698,271.065 148.053,275.593 C 153.413,280.114 161.433,279.435 165.956,274.078 C 170.484,268.724 169.801,260.703 164.445,256.183 C 159.086,251.664 151.07,252.338 146.543,257.692 Z" fill="#ffffff" stroke="none" stroke-width="0.525" marker-start="none" marker-end="none"/>
     <path d="M 147.15,258.176 C 142.626,263.526 143.302,271.547 148.662,276.071 C 154.021,280.592 162.036,279.918 166.559,274.558 C 171.086,269.205 170.408,261.185 165.052,256.664 C 159.689,252.138 151.673,252.815 147.15,258.176 Z" fill="none" stroke="#55bae6" stroke-width="2.871" marker-start="none" marker-end="none"/>
    </g>
    <g id="Group_17" fill="#000000" fill-rule="nonzero" stroke-linecap="round" stroke="none" stroke-width="0.387">
     <g id="Group_18">
      <path d="M 227.354,200.234 L 227.354,197.152 L 230.233,197.152 L 230.233,195.423 L 227.354,195.423 L 227.354,192.326 L 225.393,192.326 L 225.393,195.423 L 222.529,195.423 L 222.529,197.152 L 225.393,197.152 L 225.393,200.234 L 227.354,200.234 Z" marker-start="none" marker-end="none"/>
      <path d="M 232.864,192.801 L 235.043,192.801 L 235.043,198.521 C 235.043,198.802 235.051,199.095 235.066,199.401 L 233.782,198.335 C 233.699,198.268 233.616,198.219 233.533,198.19 C 233.45,198.162 233.37,198.148 233.292,198.148 C 233.157,198.148 233.037,198.177 232.93,198.238 C 232.824,198.297 232.745,198.36 232.693,198.428 L 231.93,199.44 L 235.463,202.406 L 237.456,202.406 L 237.456,192.801 L 239.323,192.801 L 239.323,191.058 L 232.864,191.058 L 232.864,192.801 Z" marker-start="none" marker-end="none"/>
     </g>
    </g>
    <g id="Group_19" fill="#000000" fill-rule="nonzero" stroke-linecap="round" stroke="none" stroke-width="0.387">
     <g id="Group_20">
      <path d="M 169.325,211.642 L 169.325,208.559 L 172.204,208.559 L 172.204,206.83 L 169.325,206.83 L 169.325,203.733 L 167.364,203.733 L 167.364,206.83 L 164.5,206.83 L 164.5,208.559 L 167.364,208.559 L 167.364,211.642 L 169.325,211.642 Z" marker-start="none" marker-end="none"/>
      <path d="M 174.835,204.209 L 177.014,204.209 L 177.014,209.929 C 177.014,210.209 177.022,210.502 177.037,210.808 L 175.753,209.741 C 175.67,209.675 175.587,209.627 175.504,209.597 C 175.421,209.569 175.341,209.556 175.262,209.556 C 175.128,209.556 175.008,209.584 174.9,209.644 C 174.795,209.705 174.716,209.767 174.663,209.836 L 173.9,210.847 L 177.434,213.812 L 179.427,213.812 L 179.427,204.209 L 181.294,204.209 L 181.294,202.464 L 174.835,202.464 L 174.835,204.209 Z" marker-start="none" marker-end="none"/>
     </g>
    </g>
    <g id="Group_21" fill="#000000" fill-rule="nonzero" stroke-linecap="round" stroke="none" stroke-width="0.387">
     <g id="Group_22">
      <path d="M 153.283,269.869 L 153.283,266.787 L 156.162,266.787 L 156.162,265.058 L 153.283,265.058 L 153.283,261.961 L 151.322,261.961 L 151.322,265.058 L 148.458,265.058 L 148.458,266.787 L 151.322,266.787 L 151.322,269.869 L 153.283,269.869 Z" marker-start="none" marker-end="none"/>
      <path d="M 158.793,262.435 L 160.972,262.435 L 160.972,268.155 C 160.972,268.437 160.98,268.73 160.995,269.036 L 159.711,267.969 C 159.628,267.901 159.545,267.853 159.462,267.825 C 159.379,267.797 159.299,267.782 159.221,267.782 C 159.086,267.782 158.966,267.812 158.859,267.872 C 158.753,267.931 158.674,267.995 158.622,268.062 L 157.859,269.075 L 161.392,272.039 L 163.385,272.039 L 163.385,262.435 L 165.252,262.435 L 165.252,260.692 L 158.793,260.692 L 158.793,262.435 Z" marker-start="none" marker-end="none"/>
     </g>
    </g>
    <g id="Group_23" fill="#ffffff" fill-rule="nonzero" stroke-linecap="round" stroke="none" stroke-width="0.318">
     <g id="Group_24">
      <path d="M 75.817,142.615 C 75.817,141.941 75.701,141.32 75.468,140.751 C 75.236,140.182 74.909,139.689 74.487,139.274 C 74.065,138.858 73.557,138.534 72.963,138.302 C 72.368,138.069 71.709,137.953 70.984,137.953 L 67.366,137.953 L 67.366,147.27 L 70.984,147.27 C 71.709,147.27 72.368,147.154 72.963,146.918 C 73.557,146.684 74.065,146.36 74.487,145.946 C 74.909,145.533 75.236,145.041 75.468,144.472 C 75.701,143.903 75.817,143.284 75.817,142.615 Z M 73.605,142.615 C 73.605,143.075 73.545,143.49 73.426,143.861 C 73.307,144.232 73.135,144.546 72.911,144.804 C 72.688,145.062 72.414,145.26 72.09,145.399 C 71.766,145.537 71.398,145.606 70.984,145.606 L 69.54,145.606 L 69.54,139.617 L 70.984,139.617 C 71.398,139.617 71.766,139.686 72.09,139.824 C 72.414,139.963 72.688,140.161 72.911,140.419 C 73.135,140.677 73.307,140.991 73.426,141.362 C 73.545,141.733 73.605,142.15 73.605,142.615 Z" marker-start="none" marker-end="none"/>
      <path d="M 79.22,137.953 L 77.047,137.953 L 77.047,147.27 L 79.22,147.27 L 79.22,137.953 Z" marker-start="none" marker-end="none"/>
      <path d="M 86.135,145.375 C 86.071,145.272 86.004,145.196 85.933,145.145 C 85.863,145.093 85.772,145.068 85.662,145.068 C 85.564,145.068 85.458,145.099 85.345,145.161 C 85.232,145.222 85.104,145.292 84.962,145.368 C 84.819,145.445 84.656,145.514 84.473,145.576 C 84.289,145.638 84.081,145.669 83.846,145.669 C 83.441,145.669 83.14,145.584 82.942,145.41 C 82.744,145.237 82.644,145.004 82.644,144.71 C 82.644,144.522 82.704,144.367 82.823,144.243 C 82.943,144.12 83.099,144.013 83.293,143.923 C 83.487,143.834 83.709,143.752 83.958,143.677 C 84.207,143.603 84.462,143.52 84.722,143.428 C 84.982,143.336 85.237,143.229 85.486,143.105 C 85.735,142.982 85.957,142.824 86.151,142.632 C 86.345,142.44 86.501,142.207 86.621,141.932 C 86.74,141.657 86.8,141.326 86.8,140.938 C 86.8,140.507 86.725,140.105 86.576,139.73 C 86.427,139.355 86.21,139.027 85.927,138.748 C 85.644,138.469 85.294,138.25 84.879,138.09 C 84.463,137.93 83.991,137.85 83.463,137.85 C 83.173,137.85 82.878,137.88 82.577,137.94 C 82.277,137.999 81.986,138.083 81.705,138.192 C 81.424,138.301 81.159,138.43 80.912,138.579 C 80.665,138.728 80.45,138.894 80.266,139.078 L 80.906,140.088 C 80.953,140.165 81.019,140.226 81.104,140.273 C 81.189,140.32 81.281,140.344 81.379,140.344 C 81.507,140.344 81.636,140.303 81.766,140.222 C 81.895,140.141 82.043,140.052 82.207,139.954 C 82.371,139.856 82.559,139.766 82.772,139.685 C 82.985,139.604 83.237,139.564 83.527,139.564 C 83.919,139.564 84.223,139.65 84.441,139.822 C 84.658,139.995 84.767,140.269 84.767,140.644 C 84.767,140.862 84.707,141.038 84.588,141.175 C 84.468,141.311 84.312,141.424 84.118,141.514 C 83.924,141.603 83.703,141.682 83.456,141.75 C 83.209,141.818 82.956,141.894 82.696,141.977 C 82.436,142.06 82.182,142.162 81.935,142.284 C 81.688,142.405 81.467,142.565 81.273,142.763 C 81.079,142.962 80.923,143.209 80.803,143.505 C 80.684,143.801 80.624,144.167 80.624,144.602 C 80.624,144.951 80.695,145.292 80.835,145.625 C 80.976,145.957 81.183,146.253 81.455,146.513 C 81.728,146.773 82.063,146.981 82.459,147.137 C 82.855,147.293 83.309,147.37 83.821,147.37 C 84.106,147.37 84.384,147.349 84.655,147.303 C 84.925,147.258 85.182,147.192 85.425,147.104 C 85.668,147.018 85.895,146.913 86.106,146.791 C 86.317,146.67 86.505,146.532 86.672,146.379 L 86.135,145.375 Z" marker-start="none" marker-end="none"/>
      <path d="M 94.636,147.27 L 94.636,145.556 L 92.015,145.556 L 92.015,137.955 L 89.855,137.955 L 89.855,145.556 L 87.234,145.556 L 87.234,147.27 L 94.636,147.27 Z" marker-start="none" marker-end="none"/>
      <path d="M 97.694,141.399 L 97.694,137.953 L 95.533,137.953 L 95.533,147.268 L 98.563,147.268 C 99.236,147.268 99.811,147.198 100.286,147.059 C 100.761,146.92 101.149,146.727 101.449,146.48 C 101.75,146.232 101.968,145.94 102.104,145.603 C 102.241,145.266 102.309,144.899 102.309,144.502 C 102.309,144.199 102.269,143.913 102.188,143.644 C 102.107,143.376 101.986,143.127 101.826,142.899 C 101.667,142.67 101.471,142.467 101.238,142.287 C 101.006,142.108 100.739,141.961 100.436,141.846 C 100.581,141.774 100.716,141.684 100.842,141.578 C 100.968,141.471 101.077,141.342 101.171,141.188 L 103.153,137.953 L 101.197,137.953 C 100.835,137.953 100.575,138.089 100.417,138.362 L 98.87,141.066 C 98.802,141.186 98.722,141.271 98.63,141.322 C 98.539,141.373 98.41,141.399 98.243,141.399 L 97.694,141.399 Z M 97.694,142.888 L 98.563,142.888 C 98.857,142.888 99.108,142.925 99.314,143 C 99.521,143.074 99.69,143.178 99.822,143.31 C 99.954,143.442 100.05,143.596 100.11,143.773 C 100.17,143.95 100.2,144.141 100.2,144.346 C 100.2,144.755 100.066,145.075 99.8,145.305 C 99.534,145.535 99.121,145.65 98.563,145.65 L 97.694,145.65 L 97.694,142.888 Z" marker-start="none" marker-end="none"/>
      <path d="M 106.401,137.953 L 104.228,137.953 L 104.228,147.27 L 106.401,147.27 L 106.401,137.953 Z" marker-start="none" marker-end="none"/>
      <path d="M 108.125,137.953 L 108.125,147.268 L 111.551,147.268 C 112.195,147.268 112.743,147.207 113.194,147.088 C 113.646,146.969 114.015,146.8 114.3,146.584 C 114.586,146.366 114.793,146.102 114.923,145.791 C 115.053,145.48 115.118,145.132 115.118,144.749 C 115.118,144.54 115.089,144.339 115.029,144.145 C 114.969,143.951 114.875,143.769 114.748,143.599 C 114.62,143.428 114.456,143.274 114.255,143.135 C 114.055,142.997 113.814,142.876 113.533,142.774 C 114.147,142.625 114.601,142.383 114.895,142.048 C 115.189,141.714 115.336,141.284 115.336,140.76 C 115.336,140.363 115.259,139.995 115.106,139.654 C 114.952,139.313 114.727,139.015 114.431,138.762 C 114.135,138.508 113.77,138.31 113.335,138.167 C 112.9,138.024 112.404,137.953 111.845,137.953 L 108.125,137.953 Z M 110.286,141.905 L 110.286,139.582 L 111.807,139.582 C 112.093,139.582 112.326,139.619 112.507,139.691 C 112.688,139.764 112.83,139.857 112.932,139.972 C 113.034,140.088 113.105,140.218 113.143,140.363 C 113.181,140.508 113.201,140.655 113.201,140.804 C 113.201,140.975 113.178,141.128 113.134,141.265 C 113.089,141.401 113.012,141.517 112.903,141.61 C 112.795,141.704 112.651,141.777 112.472,141.828 C 112.293,141.879 112.067,141.905 111.794,141.905 L 110.286,141.905 Z M 110.286,143.35 L 111.411,143.35 C 111.649,143.35 111.865,143.367 112.056,143.401 C 112.248,143.435 112.411,143.495 112.545,143.58 C 112.68,143.665 112.782,143.782 112.852,143.931 C 112.923,144.08 112.958,144.268 112.958,144.493 C 112.958,144.715 112.93,144.899 112.875,145.046 C 112.819,145.193 112.734,145.311 112.619,145.401 C 112.504,145.49 112.358,145.554 112.181,145.593 C 112.004,145.631 111.794,145.65 111.551,145.65 L 110.286,145.65 L 110.286,143.35 Z" marker-start="none" marker-end="none"/>
      <path d="M 120.383,139.66 C 120.673,139.66 120.932,139.708 121.16,139.804 C 121.388,139.9 121.58,140.037 121.738,140.217 C 121.896,140.396 122.016,140.614 122.099,140.872 C 122.182,141.13 122.224,141.423 122.224,141.751 L 122.224,147.268 L 124.385,147.268 L 124.385,141.75 C 124.385,141.179 124.292,140.655 124.106,140.177 C 123.921,139.7 123.656,139.289 123.311,138.943 C 122.965,138.598 122.546,138.33 122.051,138.138 C 121.557,137.946 121.001,137.85 120.383,137.85 C 119.761,137.85 119.202,137.946 118.708,138.138 C 118.214,138.33 117.794,138.598 117.449,138.943 C 117.104,139.289 116.839,139.7 116.656,140.177 C 116.473,140.655 116.381,141.179 116.381,141.75 L 116.381,147.268 L 118.542,147.268 L 118.542,141.757 C 118.542,141.429 118.583,141.136 118.667,140.878 C 118.75,140.62 118.87,140.401 119.028,140.22 C 119.185,140.039 119.378,139.9 119.606,139.804 C 119.834,139.708 120.093,139.66 120.383,139.66 Z" marker-start="none" marker-end="none"/>
      <path d="M 132.555,147.27 L 132.555,145.556 L 129.934,145.556 L 129.934,137.955 L 127.774,137.955 L 127.774,145.556 L 125.153,145.556 L 125.153,147.27 L 132.555,147.27 Z" marker-start="none" marker-end="none"/>
      <path d="M 135.817,137.953 L 133.644,137.953 L 133.644,147.27 L 135.817,147.27 L 135.817,137.953 Z" marker-start="none" marker-end="none"/>
      <path d="M 146.733,142.613 C 146.733,141.94 146.617,141.313 146.385,140.734 C 146.153,140.154 145.826,139.65 145.404,139.221 C 144.982,138.793 144.474,138.457 143.879,138.214 C 143.285,137.971 142.625,137.85 141.901,137.85 C 141.176,137.85 140.516,137.971 139.919,138.214 C 139.322,138.457 138.812,138.793 138.388,139.221 C 137.964,139.65 137.636,140.154 137.404,140.734 C 137.171,141.313 137.055,141.94 137.055,142.613 C 137.055,143.287 137.171,143.913 137.404,144.493 C 137.636,145.073 137.964,145.575 138.388,146.002 C 138.812,146.428 139.322,146.763 139.919,147.006 C 140.516,147.248 141.176,147.37 141.901,147.37 C 142.625,147.37 143.285,147.247 143.879,147.003 C 144.474,146.757 144.982,146.422 145.404,145.995 C 145.826,145.569 146.153,145.066 146.385,144.486 C 146.617,143.907 146.733,143.282 146.733,142.613 Z M 144.522,142.613 C 144.522,143.073 144.462,143.487 144.343,143.856 C 144.223,144.224 144.052,144.537 143.828,144.792 C 143.604,145.048 143.33,145.244 143.007,145.38 C 142.683,145.516 142.314,145.584 141.901,145.585 C 141.483,145.584 141.111,145.516 140.785,145.38 C 140.459,145.244 140.184,145.048 139.961,144.792 C 139.737,144.537 139.565,144.224 139.446,143.856 C 139.327,143.487 139.267,143.073 139.267,142.613 C 139.267,142.149 139.327,141.732 139.446,141.364 C 139.565,140.995 139.737,140.683 139.961,140.428 C 140.184,140.172 140.459,139.977 140.785,139.843 C 141.111,139.709 141.483,139.642 141.901,139.642 C 142.314,139.642 142.683,139.709 143.007,139.843 C 143.33,139.977 143.604,140.172 143.828,140.428 C 144.052,140.683 144.223,140.995 144.343,141.364 C 144.462,141.732 144.522,142.149 144.522,142.613 Z" marker-start="none" marker-end="none"/>
      <path d="M 148.905,147.27 C 148.999,147.27 149.078,147.267 149.141,147.257 C 149.205,147.249 149.263,147.233 149.314,147.21 C 149.365,147.186 149.414,147.154 149.461,147.11 C 149.508,147.067 149.561,147.01 149.621,146.938 L 154.044,141.344 C 154.027,141.523 154.015,141.697 154.006,141.865 C 153.998,142.033 153.993,142.192 153.993,142.342 L 153.993,147.27 L 155.898,147.27 L 155.898,137.953 L 154.773,137.953 C 154.607,137.953 154.466,137.979 154.351,138.03 C 154.236,138.081 154.125,138.175 154.019,138.311 L 149.627,143.86 C 149.64,143.698 149.651,143.539 149.659,143.383 C 149.668,143.228 149.672,143.082 149.672,142.945 L 149.672,137.953 L 147.767,137.953 L 147.767,147.27 L 148.905,147.27 Z" marker-start="none" marker-end="none"/>
     </g>
    </g>
    <g id="Group_25" fill="#000000" fill-rule="nonzero" stroke-linecap="round" stroke="none" stroke-width="0.364">
     <g id="Group_26">
      <path d="M 83.3,110.286 C 83.642,110.286 83.945,110.314 84.209,110.372 C 84.473,110.43 84.722,110.507 84.956,110.603 L 84.956,112.225 L 83.901,112.225 C 83.745,112.225 83.623,112.266 83.535,112.349 C 83.447,112.432 83.403,112.538 83.403,112.665 L 83.403,114.028 L 87.198,114.028 L 87.198,109.522 C 86.925,109.322 86.64,109.15 86.345,109.005 C 86.049,108.861 85.734,108.743 85.4,108.65 C 85.065,108.557 84.708,108.489 84.33,108.445 C 83.951,108.401 83.545,108.379 83.11,108.379 C 82.328,108.379 81.605,108.517 80.941,108.793 C 80.277,109.069 79.702,109.45 79.216,109.936 C 78.73,110.422 78.349,110.999 78.073,111.666 C 77.797,112.333 77.659,113.057 77.659,113.838 C 77.659,114.635 77.791,115.366 78.054,116.033 C 78.318,116.7 78.696,117.275 79.186,117.759 C 79.677,118.242 80.271,118.619 80.967,118.887 C 81.663,119.156 82.441,119.29 83.3,119.29 C 83.745,119.29 84.163,119.254 84.553,119.18 C 84.944,119.107 85.304,119.007 85.634,118.879 C 85.964,118.752 86.265,118.601 86.539,118.425 C 86.812,118.249 87.057,118.058 87.272,117.852 L 86.553,116.761 C 86.485,116.658 86.403,116.577 86.308,116.519 C 86.213,116.46 86.109,116.431 85.997,116.431 C 85.85,116.431 85.699,116.48 85.542,116.577 C 85.347,116.694 85.163,116.796 84.989,116.881 C 84.816,116.967 84.639,117.036 84.458,117.09 C 84.277,117.144 84.087,117.183 83.887,117.207 C 83.686,117.232 83.462,117.244 83.212,117.244 C 82.748,117.244 82.331,117.162 81.96,116.999 C 81.588,116.835 81.272,116.604 81.011,116.307 C 80.749,116.009 80.548,115.651 80.406,115.234 C 80.265,114.816 80.194,114.351 80.194,113.838 C 80.194,113.272 80.272,112.769 80.428,112.329 C 80.585,111.89 80.801,111.519 81.077,111.216 C 81.353,110.913 81.68,110.683 82.058,110.524 C 82.437,110.365 82.851,110.286 83.3,110.286 Z" marker-start="none" marker-end="none"/>
      <path d="M 91.183,112.447 L 91.183,108.497 L 88.706,108.497 L 88.706,119.172 L 92.179,119.172 C 92.951,119.172 93.609,119.093 94.154,118.934 C 94.698,118.775 95.143,118.554 95.487,118.27 C 95.832,117.986 96.082,117.651 96.238,117.265 C 96.394,116.879 96.473,116.458 96.473,116.003 C 96.473,115.656 96.426,115.328 96.333,115.02 C 96.241,114.712 96.103,114.427 95.919,114.165 C 95.736,113.904 95.512,113.67 95.245,113.465 C 94.979,113.26 94.673,113.091 94.326,112.959 C 94.492,112.876 94.647,112.773 94.791,112.651 C 94.935,112.53 95.061,112.381 95.168,112.205 L 97.44,108.497 L 95.198,108.497 C 94.783,108.497 94.485,108.653 94.304,108.966 L 92.531,112.066 C 92.453,112.202 92.361,112.3 92.256,112.359 C 92.151,112.417 92.003,112.447 91.813,112.447 L 91.183,112.447 Z M 91.183,114.153 L 92.179,114.153 C 92.516,114.153 92.803,114.196 93.04,114.281 C 93.277,114.367 93.471,114.485 93.622,114.637 C 93.774,114.788 93.884,114.965 93.952,115.168 C 94.021,115.371 94.055,115.59 94.055,115.824 C 94.055,116.293 93.902,116.66 93.597,116.923 C 93.292,117.187 92.819,117.319 92.179,117.319 L 91.183,117.319 L 91.183,114.153 Z" marker-start="none" marker-end="none"/>
      <path d="M 101.163,108.497 L 98.672,108.497 L 98.672,119.176 L 101.163,119.176 L 101.163,108.497 Z" marker-start="none" marker-end="none"/>
      <path d="M 112.825,113.84 C 112.825,113.068 112.692,112.356 112.426,111.704 C 112.16,111.051 111.785,110.487 111.301,110.011 C 110.818,109.534 110.235,109.163 109.554,108.897 C 108.872,108.63 108.117,108.497 107.286,108.497 L 103.139,108.497 L 103.139,119.176 L 107.286,119.176 C 108.117,119.176 108.872,119.041 109.554,118.773 C 110.235,118.504 110.818,118.133 111.301,117.659 C 111.785,117.185 112.16,116.622 112.426,115.969 C 112.692,115.317 112.825,114.607 112.825,113.84 Z M 110.29,113.84 C 110.29,114.368 110.222,114.844 110.085,115.269 C 109.948,115.694 109.752,116.054 109.495,116.349 C 109.239,116.645 108.925,116.872 108.554,117.031 C 108.182,117.19 107.76,117.269 107.286,117.269 L 105.63,117.269 L 105.63,110.404 L 107.286,110.404 C 107.76,110.404 108.182,110.483 108.554,110.642 C 108.925,110.801 109.239,111.028 109.495,111.323 C 109.752,111.619 109.948,111.979 110.085,112.404 C 110.222,112.829 110.29,113.308 110.29,113.84 Z" marker-start="none" marker-end="none"/>
      <path d="M 120.827,119.29 C 121.301,119.29 121.718,119.221 122.08,119.082 C 122.441,118.942 122.747,118.759 122.996,118.532 C 123.245,118.305 123.44,118.042 123.582,117.744 C 123.724,117.447 123.811,117.141 123.846,116.829 L 122.38,116.535 C 122.356,116.531 122.335,116.527 122.318,116.525 C 122.301,116.522 122.283,116.521 122.263,116.521 C 122.058,116.521 121.906,116.629 121.809,116.843 C 121.696,117.097 121.566,117.29 121.417,117.422 C 121.268,117.554 121.071,117.62 120.827,117.62 C 120.656,117.62 120.507,117.588 120.38,117.524 C 120.253,117.46 120.147,117.376 120.061,117.273 C 119.976,117.17 119.911,117.05 119.867,116.912 C 119.823,116.775 119.801,116.632 119.801,116.485 C 119.801,116.357 119.812,116.234 119.834,116.116 C 119.856,115.998 119.893,115.879 119.944,115.759 C 119.995,115.639 120.066,115.514 120.157,115.387 C 120.247,115.259 120.363,115.121 120.505,114.974 L 123.142,112.173 C 123.274,112.47 123.379,112.78 123.457,113.102 C 123.535,113.424 123.592,113.758 123.626,114.105 C 123.636,114.243 123.681,114.352 123.761,114.431 C 123.842,114.51 123.948,114.55 124.08,114.55 L 125.516,114.55 C 125.516,113.835 125.421,113.167 125.23,112.547 C 125.04,111.928 124.769,111.361 124.417,110.846 L 126.659,108.497 L 124.417,108.497 C 124.305,108.497 124.205,108.503 124.117,108.515 C 124.029,108.528 123.947,108.548 123.871,108.578 C 123.796,108.607 123.724,108.648 123.655,108.702 C 123.587,108.756 123.513,108.824 123.435,108.908 L 122.974,109.391 C 122.51,109.068 122.003,108.819 121.453,108.643 C 120.904,108.467 120.319,108.379 119.699,108.379 C 119.274,108.379 118.857,108.451 118.449,108.596 C 118.042,108.741 117.679,108.948 117.361,109.216 C 117.044,109.484 116.787,109.81 116.592,110.191 C 116.397,110.573 116.299,111.001 116.299,111.474 C 116.299,111.793 116.349,112.095 116.449,112.38 C 116.549,112.665 116.69,112.93 116.871,113.174 C 117.051,113.418 117.267,113.64 117.519,113.841 C 117.77,114.041 118.045,114.217 118.343,114.366 C 118.114,114.728 117.948,115.082 117.845,115.429 C 117.742,115.775 117.691,116.112 117.691,116.438 C 117.691,116.825 117.761,117.19 117.9,117.534 C 118.039,117.878 118.242,118.18 118.508,118.44 C 118.774,118.7 119.102,118.907 119.49,119.06 C 119.878,119.214 120.324,119.29 120.827,119.29 Z M 118.614,111.668 C 118.614,111.437 118.65,111.228 118.721,111.041 C 118.791,110.853 118.893,110.692 119.025,110.557 C 119.156,110.423 119.314,110.318 119.497,110.244 C 119.68,110.169 119.884,110.132 120.109,110.132 C 120.436,110.132 120.74,110.174 121.021,110.258 C 121.302,110.343 121.565,110.461 121.809,110.615 L 119.354,113.176 C 119.086,112.96 118.895,112.724 118.783,112.469 C 118.67,112.214 118.614,111.947 118.614,111.668 Z" marker-start="none" marker-end="none"/>
      <path d="M 132.741,112.067 L 132.741,108.499 L 130.264,108.499 L 130.264,119.176 L 134.03,119.176 C 134.782,119.176 135.428,119.087 135.968,118.908 C 136.508,118.73 136.952,118.485 137.302,118.172 C 137.651,117.859 137.908,117.49 138.075,117.065 C 138.241,116.64 138.324,116.181 138.324,115.688 C 138.324,115.155 138.238,114.666 138.067,114.222 C 137.896,113.777 137.635,113.396 137.283,113.079 C 136.932,112.761 136.486,112.513 135.946,112.335 C 135.406,112.157 134.768,112.067 134.03,112.067 L 132.741,112.067 Z M 132.741,113.935 L 134.03,113.935 C 134.675,113.935 135.139,114.089 135.422,114.397 C 135.706,114.705 135.847,115.135 135.847,115.687 C 135.847,115.932 135.811,116.155 135.737,116.355 C 135.664,116.555 135.553,116.727 135.404,116.872 C 135.255,117.016 135.067,117.127 134.84,117.205 C 134.613,117.284 134.343,117.323 134.03,117.323 L 132.741,117.323 L 132.741,113.935 Z" marker-start="none" marker-end="none"/>
      <path d="M 142.327,108.497 L 139.836,108.497 L 139.836,119.176 L 142.327,119.176 L 142.327,108.497 Z" marker-start="none" marker-end="none"/>
      <path d="M 146.78,112.067 L 146.78,108.499 L 144.303,108.499 L 144.303,119.176 L 148.069,119.176 C 148.821,119.176 149.467,119.087 150.007,118.908 C 150.547,118.73 150.991,118.485 151.341,118.172 C 151.69,117.859 151.947,117.49 152.114,117.065 C 152.28,116.64 152.363,116.181 152.363,115.688 C 152.363,115.155 152.277,114.666 152.106,114.222 C 151.935,113.777 151.674,113.396 151.322,113.079 C 150.971,112.761 150.525,112.513 149.985,112.335 C 149.445,112.157 148.807,112.067 148.069,112.067 L 146.78,112.067 Z M 146.78,113.935 L 148.069,113.935 C 148.714,113.935 149.178,114.089 149.461,114.397 C 149.745,114.705 149.886,115.135 149.886,115.687 C 149.886,115.932 149.85,116.155 149.776,116.355 C 149.703,116.555 149.592,116.727 149.443,116.872 C 149.294,117.016 149.106,117.127 148.879,117.205 C 148.652,117.284 148.382,117.323 148.069,117.323 L 146.78,117.323 L 146.78,113.935 Z" marker-start="none" marker-end="none"/>
      <path d="M 160.528,119.176 L 160.528,117.269 L 156.146,117.269 L 156.146,114.776 L 159.502,114.776 L 159.502,112.944 L 156.146,112.944 L 156.146,110.404 L 160.528,110.404 L 160.528,108.497 L 153.655,108.497 L 153.655,119.176 L 160.528,119.176 Z" marker-start="none" marker-end="none"/>
      <path d="M 164.411,110.475 L 168.367,110.475 L 168.367,108.497 L 161.934,108.497 L 161.934,119.174 L 164.411,119.174 L 164.411,110.475 Z" marker-start="none" marker-end="none"/>
      <path d="M 172.251,108.497 L 169.76,108.497 L 169.76,119.176 L 172.251,119.176 L 172.251,108.497 Z" marker-start="none" marker-end="none"/>
      <path d="M 175.531,119.176 C 175.639,119.176 175.729,119.171 175.801,119.161 C 175.876,119.152 175.941,119.133 175.999,119.106 C 176.059,119.079 176.115,119.041 176.169,118.993 C 176.223,118.944 176.284,118.878 176.352,118.795 L 181.422,112.384 C 181.403,112.589 181.388,112.788 181.378,112.981 C 181.368,113.174 181.363,113.356 181.363,113.527 L 181.363,119.176 L 183.547,119.176 L 183.547,108.497 L 182.257,108.497 C 182.067,108.497 181.906,108.526 181.774,108.585 C 181.642,108.644 181.515,108.751 181.393,108.907 L 176.359,115.267 C 176.374,115.081 176.386,114.899 176.396,114.721 C 176.406,114.543 176.411,114.376 176.411,114.219 L 176.411,108.497 L 174.227,108.497 L 174.227,119.176 L 175.531,119.176 Z" marker-start="none" marker-end="none"/>
      <path d="M 192.176,119.176 L 192.176,117.269 L 187.794,117.269 L 187.794,114.776 L 191.15,114.776 L 191.15,112.944 L 187.794,112.944 L 187.794,110.404 L 192.176,110.404 L 192.176,108.497 L 185.303,108.497 L 185.303,119.176 L 192.176,119.176 Z" marker-start="none" marker-end="none"/>
      <path d="M 193.201,109.787 C 193.201,109.943 193.231,110.089 193.289,110.223 C 193.348,110.358 193.432,110.475 193.542,110.575 C 193.652,110.675 193.781,110.754 193.93,110.813 C 194.079,110.872 194.247,110.901 194.432,110.901 C 194.652,110.901 194.842,110.863 195.004,110.787 C 195.165,110.712 195.299,110.609 195.407,110.48 C 195.514,110.35 195.593,110.201 195.645,110.033 C 195.696,109.864 195.722,109.687 195.722,109.501 C 195.722,109.257 195.683,108.997 195.604,108.721 C 195.526,108.445 195.41,108.168 195.256,107.889 C 195.103,107.611 194.911,107.337 194.681,107.068 C 194.452,106.8 194.188,106.555 193.89,106.336 L 193.494,106.687 C 193.441,106.741 193.4,106.791 193.373,106.838 C 193.347,106.884 193.333,106.941 193.333,107.01 C 193.333,107.059 193.35,107.111 193.384,107.167 C 193.419,107.224 193.46,107.274 193.509,107.318 C 193.568,107.376 193.636,107.447 193.714,107.53 C 193.792,107.613 193.87,107.706 193.949,107.809 C 194.027,107.911 194.099,108.024 194.165,108.146 C 194.231,108.268 194.281,108.397 194.315,108.534 C 194.144,108.549 193.99,108.59 193.853,108.659 C 193.717,108.727 193.601,108.818 193.505,108.93 C 193.41,109.042 193.336,109.17 193.282,109.315 C 193.228,109.459 193.201,109.616 193.201,109.787 Z" marker-start="none" marker-end="none"/>
      <path d="M 202.575,108.497 L 200.084,108.497 L 200.084,119.176 L 202.575,119.176 L 202.575,108.497 Z" marker-start="none" marker-end="none"/>
      <path d="M 205.855,119.176 C 205.963,119.176 206.053,119.171 206.126,119.161 C 206.2,119.152 206.266,119.133 206.324,119.106 C 206.383,119.079 206.439,119.041 206.493,118.993 C 206.547,118.944 206.608,118.878 206.676,118.795 L 211.746,112.384 C 211.727,112.589 211.712,112.788 211.702,112.981 C 211.692,113.174 211.687,113.356 211.687,113.527 L 211.687,119.176 L 213.871,119.176 L 213.871,108.497 L 212.581,108.497 C 212.391,108.497 212.23,108.526 212.098,108.585 C 211.966,108.644 211.839,108.751 211.717,108.907 L 206.683,115.267 C 206.698,115.081 206.71,114.899 206.72,114.721 C 206.73,114.543 206.735,114.376 206.735,114.219 L 206.735,108.497 L 204.551,108.497 L 204.551,119.176 L 205.855,119.176 Z" marker-start="none" marker-end="none"/>
      <path d="M 222.8,111.257 C 222.859,111.257 222.917,111.246 222.976,111.224 C 223.035,111.201 223.091,111.163 223.144,111.108 L 224.126,110.053 C 223.696,109.5 223.158,109.082 222.511,108.801 C 221.864,108.52 221.098,108.379 220.214,108.379 C 219.403,108.379 218.676,108.517 218.034,108.793 C 217.392,109.069 216.847,109.45 216.4,109.936 C 215.953,110.422 215.61,110.999 215.371,111.666 C 215.131,112.333 215.012,113.057 215.012,113.838 C 215.012,114.635 215.149,115.366 215.422,116.033 C 215.696,116.7 216.078,117.275 216.569,117.759 C 217.06,118.242 217.647,118.619 218.331,118.887 C 219.015,119.156 219.769,119.29 220.595,119.29 C 220.995,119.29 221.373,119.255 221.727,119.184 C 222.081,119.113 222.412,119.015 222.72,118.89 C 223.027,118.766 223.311,118.617 223.569,118.443 C 223.828,118.269 224.058,118.077 224.258,117.867 L 223.423,116.746 C 223.369,116.677 223.306,116.615 223.232,116.559 C 223.159,116.503 223.057,116.475 222.925,116.475 C 222.837,116.475 222.754,116.494 222.676,116.533 C 222.597,116.572 222.514,116.62 222.426,116.676 C 222.339,116.732 222.242,116.793 222.137,116.859 C 222.032,116.925 221.907,116.986 221.763,117.043 C 221.619,117.099 221.451,117.146 221.258,117.186 C 221.065,117.224 220.839,117.244 220.58,117.244 C 220.131,117.244 219.72,117.165 219.349,117.006 C 218.978,116.847 218.659,116.62 218.393,116.324 C 218.127,116.029 217.919,115.671 217.77,115.251 C 217.621,114.831 217.547,114.359 217.547,113.837 C 217.547,113.289 217.621,112.803 217.77,112.378 C 217.919,111.953 218.122,111.596 218.378,111.305 C 218.635,111.014 218.934,110.793 219.276,110.642 C 219.618,110.49 219.984,110.415 220.375,110.415 C 220.6,110.415 220.805,110.426 220.99,110.448 C 221.176,110.47 221.348,110.507 221.507,110.561 C 221.666,110.615 221.817,110.684 221.961,110.77 C 222.105,110.855 222.251,110.962 222.397,111.089 C 222.456,111.138 222.519,111.178 222.588,111.21 C 222.656,111.241 222.727,111.257 222.8,111.257 Z" marker-start="none" marker-end="none"/>
      <path d="M 224.819,109.647 C 224.819,109.823 224.852,109.987 224.918,110.138 C 224.983,110.29 225.074,110.422 225.189,110.534 C 225.303,110.647 225.439,110.736 225.595,110.802 C 225.752,110.868 225.923,110.901 226.108,110.901 C 226.289,110.901 226.457,110.868 226.614,110.802 C 226.77,110.736 226.907,110.647 227.024,110.534 C 227.141,110.422 227.233,110.29 227.299,110.138 C 227.365,109.987 227.398,109.823 227.398,109.647 C 227.398,109.471 227.365,109.306 227.299,109.152 C 227.233,108.998 227.141,108.865 227.024,108.753 C 226.907,108.64 226.77,108.552 226.614,108.489 C 226.457,108.425 226.289,108.393 226.108,108.393 C 225.923,108.393 225.752,108.425 225.595,108.489 C 225.439,108.552 225.303,108.64 225.189,108.753 C 225.074,108.865 224.983,108.998 224.918,109.152 C 224.852,109.306 224.819,109.471 224.819,109.647 Z" marker-start="none" marker-end="none"/>
     </g>
    </g>
   </g>
   <path d="M 48.82,97.415 L 48.82,282.425 C 48.82,290.822 55.635,297.638 64.032,297.638 L 249.043,297.638 C 257.44,297.638 264.255,290.822 264.255,282.425 L 264.255,97.415 C 264.255,89.018 257.44,82.202 249.043,82.202 L 64.032,82.202 C 55.635,82.202 48.82,89.018 48.82,97.415 Z M 263.546,98.024 L 263.546,281.816 C 263.546,290.158 256.776,296.929 248.434,296.929 L 64.641,296.929 C 56.299,296.929 49.529,290.158 49.529,281.816 L 49.529,98.024 C 49.529,89.682 56.299,82.911 64.641,82.911 L 248.434,82.911 C 256.776,82.911 263.546,89.682 263.546,98.024 Z" stroke-width="0.802" fill="#7f7f7f" stroke="none" marker-start="none" marker-end="none"/>
  </g>
 </g>
</svg>
