<?xml version="1.0" standalone="no"?>
<!DOCTYPE svg PUBLIC "-//W3C//DTD SVG 1.1//EN" "http://www.w3.org/Graphics/SVG/1.1/DTD/svg11.dtd">
<!--Generator: Xara Designer (www.xara.com), SVG filter version: 6.6.0.0-->
<svg fill="none" fill-rule="evenodd" stroke="black" stroke-width="0.501" stroke-linejoin="bevel" stroke-miterlimit="10" font-family="Times New Roman" font-size="16" style="font-variant-ligatures:none" xmlns:xlink="http://www.w3.org/1999/xlink" xmlns="http://www.w3.org/2000/svg" version="1.1" overflow="visible" width="215.435pt" height="215.436pt" viewBox="30.069 -568.755 215.435 215.436">
 <defs>
	</defs>
 <g id="Page background" transform="scale(1 -1)"/>
 <g id="Layer 1" transform="scale(1 -1)">
  <g id="Group">
   <path d="M 30.069,553.542 L 30.069,368.532 C 30.069,360.135 36.884,353.319 45.281,353.319 L 230.292,353.319 C 238.689,353.319 245.504,360.135 245.504,368.532 L 245.504,553.542 C 245.504,561.939 238.689,568.755 230.292,568.755 L 45.281,568.755 C 36.884,568.755 30.069,561.939 30.069,553.542 Z" stroke-linejoin="miter" stroke="none" stroke-width="0.802" fill="#7f7f7f" marker-start="none" marker-end="none"/>
   <path d="M 30.778,552.933 L 30.778,369.141 C 30.778,360.799 37.548,354.028 45.89,354.028 L 229.683,354.028 C 238.025,354.028 244.795,360.799 244.795,369.141 L 244.795,552.933 C 244.795,561.275 238.025,568.046 229.683,568.046 L 45.89,568.046 C 37.548,568.046 30.778,561.275 30.778,552.933 Z" stroke-linejoin="miter" stroke="none" stroke-width="0.802" marker-start="none" marker-end="none"/>
   <path d="M 30.778,552.933 L 30.778,369.141 C 30.778,360.799 37.548,354.028 45.89,354.028 L 229.683,354.028 C 238.025,354.028 244.795,360.799 244.795,369.141 L 244.795,552.933 C 244.795,561.275 238.025,568.046 229.683,568.046 L 45.89,568.046 C 37.548,568.046 30.778,561.275 30.778,552.933 Z" stroke-linejoin="miter" stroke="none" stroke-width="0.802" fill="#ffffff" marker-start="none" marker-end="none"/>
   <path d="M 51.453,511.382 C 42.556,521.922 43.881,537.708 54.433,546.591 C 64.964,555.506 80.729,554.174 89.63,543.637 C 98.544,533.096 97.208,517.322 86.655,508.419 C 76.123,499.523 60.351,500.854 51.453,511.382 Z" stroke-linejoin="miter" stroke="none" fill="#000000" stroke-width="1.039" marker-start="none" marker-end="none"/>
   <path d="M 52.63,512.339 C 43.743,522.884 45.059,538.636 55.603,547.554 C 66.147,556.426 81.913,555.112 90.83,544.575 C 99.724,534.037 98.391,518.254 87.844,509.357 C 77.316,500.461 61.535,501.785 52.63,512.339 Z" stroke-linejoin="miter" stroke="#b2b2b2" stroke-width="5.658" marker-start="none" marker-end="none"/>
   <path d="M 183.583,511.828 C 174.686,522.368 176.011,538.154 186.563,547.037 C 197.094,555.952 212.859,554.62 221.76,544.083 C 230.674,533.542 229.338,517.768 218.785,508.865 C 208.253,499.969 192.481,501.3 183.583,511.828 Z" stroke-linejoin="miter" stroke="none" fill="#000000" stroke-width="1.039" marker-start="none" marker-end="none"/>
   <path d="M 184.76,512.785 C 175.873,523.33 177.189,539.082 187.733,548 C 198.277,556.872 214.043,555.558 222.96,545.021 C 231.854,534.483 230.521,518.7 219.974,509.803 C 209.446,500.907 193.665,502.231 184.76,512.785 Z" stroke-linejoin="miter" stroke="#b2b2b2" stroke-width="5.658" marker-start="none" marker-end="none"/>
   <path d="M 124.249,469.127 C 137.688,481.394 144.517,498.208 144.52,515.081 L 153,515.081 C 152.994,495.909 145.244,476.796 129.975,462.862 C 116.414,450.489 99.337,444.387 82.314,444.392 L 82.314,452.878 C 97.296,452.871 112.323,458.24 124.249,469.127 Z" fill="#ff3718" stroke-linecap="round" stroke="none" stroke-width="0.541" stroke-linejoin="round" marker-start="none" marker-end="none"/>
   <path d="M 44.361,448.619 L 47.406,450.737 L 50.458,452.859 L 50.459,452.912 L 77.736,452.912 L 77.735,444.376 L 50.459,444.376 L 47.406,446.496 L 44.361,448.619 Z" fill="#ff3718" stroke-linecap="round" stroke="none" stroke-width="0.103" stroke-linejoin="miter" marker-start="none" marker-end="none"/>
   <path d="M 44.357,460.169 L 47.404,462.289 L 50.459,464.41 L 50.459,460.169 L 50.455,455.928 L 47.403,458.05 L 44.357,460.169 Z M 50.459,464.433 L 77.736,464.434 L 77.736,455.899 L 50.459,455.899 L 50.459,464.433 Z" fill="#ffcd36" stroke-linecap="round" stroke="none" stroke-width="0.103" stroke-linejoin="miter" marker-start="none" marker-end="none"/>
   <path d="M 116.627,477.481 C 127.618,487.521 133.205,501.276 133.211,515.081 L 141.691,515.081 C 141.686,498.973 135.172,482.924 122.344,471.215 C 110.958,460.821 96.615,455.701 82.315,455.704 L 82.314,464.19 C 94.571,464.18 106.863,468.575 116.627,477.481 Z" fill="#ffcd36" stroke-linecap="round" stroke="none" stroke-width="0.453" stroke-linejoin="round" marker-start="none" marker-end="none"/>
   <path d="M 44.357,471.485 L 47.403,473.6 L 50.459,475.722 L 50.459,471.481 L 50.455,467.238 L 47.403,469.358 L 44.357,471.485 Z M 50.459,475.732 L 77.736,475.731 L 77.736,467.196 L 50.459,467.196 L 50.459,475.732 Z" stroke-linecap="round" stroke="none" fill="#00d702" stroke-width="0.103" stroke-linejoin="miter" marker-start="none" marker-end="none"/>
   <path d="M 109,485.836 C 117.552,493.643 121.891,504.348 121.898,515.081 L 130.383,515.08 C 130.379,502.039 125.106,489.049 114.717,479.57 C 105.502,471.159 93.886,467.011 82.314,467.013 L 82.314,475.495 C 91.847,475.495 101.411,478.909 109,485.836 Z" stroke-linecap="round" stroke="none" fill="#00d702" stroke-width="0.368" stroke-linejoin="round" marker-start="none" marker-end="none"/>
   <path d="M 101.379,494.191 C 107.486,499.769 110.586,507.407 110.589,515.08 L 119.076,515.081 C 119.066,505.111 115.034,495.172 107.096,487.929 C 100.046,481.49 91.17,478.319 82.314,478.323 L 82.314,486.811 C 89.121,486.804 95.953,489.246 101.379,494.191 Z" fill="#11a7e0" stroke-linecap="round" stroke="none" stroke-width="0.281" stroke-linejoin="round" marker-start="none" marker-end="none"/>
   <path d="M 44.361,482.538 L 47.405,484.67 L 50.458,486.811 L 50.458,486.811 L 77.735,486.811 L 77.736,478.272 L 50.459,478.272 L 50.459,478.272 L 47.404,480.402 L 44.361,482.538 Z" fill="#11a7e0" stroke-linecap="round" stroke="none" stroke-width="0.103" stroke-linejoin="miter" marker-start="none" marker-end="none"/>
   <path d="M 109.671,473.722 C 105.149,479.073 105.826,487.093 111.182,491.62 C 116.539,496.136 124.558,495.463 129.082,490.106 C 133.605,484.751 132.925,476.734 127.571,472.211 C 122.214,467.687 114.196,468.363 109.671,473.722 Z" stroke-linejoin="miter" stroke="none" fill="#ffffff" stroke-width="0.526" marker-start="none" marker-end="none"/>
   <path d="M 110.279,474.2 C 105.752,479.554 106.426,487.57 111.786,492.094 C 117.144,496.618 125.159,495.945 129.684,490.582 C 134.211,485.227 133.527,477.21 128.176,472.684 C 122.816,468.159 114.801,468.84 110.279,474.2 Z" fill="none" stroke-linejoin="miter" stroke="#539bc5" stroke-width="2.872" marker-start="none" marker-end="none"/>
   <path d="M 52.044,456.925 C 47.52,462.281 48.199,470.298 53.554,474.826 C 58.914,479.347 66.934,478.669 71.457,473.311 C 75.985,467.958 75.302,459.936 69.946,455.417 C 64.587,450.898 56.571,451.572 52.044,456.925 Z" stroke-linejoin="miter" stroke="none" fill="#ffffff" stroke-width="0.526" marker-start="none" marker-end="none"/>
   <path d="M 52.651,457.409 C 48.127,462.76 48.803,470.78 54.163,475.304 C 59.522,479.825 67.537,479.151 72.06,473.791 C 76.587,468.438 75.909,460.418 70.553,455.897 C 65.19,451.372 57.174,452.048 52.651,457.409 Z" fill="none" stroke-linejoin="miter" stroke="#539bc5" stroke-width="2.872" marker-start="none" marker-end="none"/>
   <g id="Group_1" fill-rule="nonzero" stroke-linejoin="round" stroke-linecap="round" stroke="none" stroke-width="0.387" fill="#000000">
    <path d="M 116.408,485.893 L 116.408,482.811 L 119.287,482.811 L 119.287,481.082 L 116.408,481.082 L 116.408,477.985 L 114.447,477.985 L 114.447,481.082 L 111.583,481.082 L 111.583,482.811 L 114.447,482.811 L 114.447,485.893 L 116.408,485.893 Z" marker-start="none" marker-end="none"/>
    <path d="M 124.86,488.18 C 125.42,488.18 125.918,488.101 126.354,487.942 C 126.79,487.784 127.158,487.569 127.459,487.298 C 127.76,487.028 127.988,486.714 128.144,486.358 C 128.299,486.002 128.377,485.626 128.377,485.23 C 128.377,484.871 128.341,484.555 128.268,484.282 C 128.196,484.009 128.088,483.772 127.945,483.572 C 127.803,483.371 127.626,483.201 127.416,483.06 C 127.206,482.92 126.966,482.803 126.696,482.709 C 127.952,482.275 128.58,481.423 128.58,480.155 C 128.58,479.554 128.471,479.031 128.253,478.586 C 128.035,478.141 127.743,477.771 127.377,477.476 C 127.012,477.181 126.587,476.959 126.105,476.812 C 125.622,476.664 125.119,476.591 124.595,476.591 C 124.056,476.591 123.576,476.649 123.155,476.766 C 122.735,476.882 122.362,477.064 122.035,477.31 C 121.708,477.557 121.421,477.872 121.175,478.256 C 120.928,478.639 120.714,479.096 120.533,479.625 L 121.607,480.062 C 121.7,480.104 121.792,480.132 121.883,480.148 C 121.974,480.163 122.063,480.171 122.152,480.171 C 122.318,480.171 122.467,480.139 122.599,480.074 C 122.731,480.009 122.831,479.914 122.899,479.79 C 123.132,479.359 123.38,479.046 123.642,478.851 C 123.904,478.656 124.211,478.559 124.564,478.559 C 124.834,478.559 125.069,478.604 125.268,478.695 C 125.468,478.786 125.634,478.903 125.766,479.046 C 125.899,479.189 125.999,479.351 126.066,479.533 C 126.133,479.714 126.167,479.899 126.167,480.086 C 126.167,480.33 126.15,480.549 126.117,480.744 C 126.083,480.939 125.988,481.106 125.833,481.246 C 125.677,481.387 125.442,481.494 125.128,481.569 C 124.814,481.645 124.377,481.682 123.817,481.683 L 123.817,483.347 C 124.289,483.347 124.67,483.383 124.961,483.456 C 125.251,483.529 125.476,483.629 125.634,483.756 C 125.792,483.883 125.897,484.037 125.949,484.219 C 126.001,484.4 126.027,484.6 126.027,484.818 C 126.027,485.265 125.919,485.608 125.704,485.85 C 125.489,486.091 125.161,486.212 124.72,486.212 C 124.538,486.212 124.372,486.186 124.222,486.134 C 124.071,486.082 123.936,486.012 123.817,485.924 C 123.698,485.836 123.595,485.732 123.51,485.613 C 123.424,485.493 123.355,485.363 123.303,485.223 C 123.22,484.99 123.115,484.821 122.988,484.717 C 122.861,484.613 122.689,484.561 122.471,484.561 C 122.419,484.561 122.363,484.564 122.303,484.569 C 122.244,484.574 122.183,484.582 122.12,484.592 L 120.844,484.818 C 120.927,485.384 121.087,485.877 121.323,486.297 C 121.559,486.717 121.852,487.067 122.202,487.348 C 122.552,487.628 122.953,487.836 123.404,487.974 C 123.856,488.111 124.341,488.18 124.86,488.18 Z" marker-start="none" marker-end="none"/>
   </g>
   <g id="Group_2" fill-rule="nonzero" stroke-linejoin="round" stroke-linecap="round" stroke="none" stroke-width="0.387" fill="#000000">
    <path d="M 58.784,469.102 L 58.784,466.02 L 61.663,466.02 L 61.663,464.291 L 58.784,464.291 L 58.784,461.194 L 56.823,461.194 L 56.823,464.291 L 53.959,464.291 L 53.959,466.02 L 56.823,466.02 L 56.823,469.102 L 58.784,469.102 Z" marker-start="none" marker-end="none"/>
    <path d="M 67.236,471.389 C 67.796,471.389 68.294,471.31 68.73,471.151 C 69.166,470.993 69.534,470.778 69.835,470.507 C 70.136,470.237 70.364,469.923 70.52,469.567 C 70.675,469.211 70.753,468.835 70.753,468.439 C 70.753,468.08 70.717,467.764 70.644,467.491 C 70.572,467.218 70.464,466.981 70.321,466.781 C 70.179,466.58 70.002,466.41 69.792,466.269 C 69.582,466.129 69.342,466.012 69.072,465.918 C 70.328,465.484 70.956,464.632 70.956,463.364 C 70.956,462.763 70.847,462.24 70.629,461.795 C 70.411,461.35 70.119,460.98 69.753,460.685 C 69.388,460.39 68.963,460.168 68.481,460.021 C 67.998,459.873 67.495,459.8 66.971,459.8 C 66.432,459.8 65.952,459.858 65.531,459.975 C 65.111,460.091 64.738,460.273 64.411,460.519 C 64.084,460.766 63.797,461.081 63.551,461.465 C 63.304,461.848 63.09,462.305 62.909,462.834 L 63.983,463.271 C 64.076,463.313 64.168,463.341 64.259,463.357 C 64.35,463.372 64.439,463.38 64.528,463.38 C 64.694,463.38 64.843,463.348 64.975,463.283 C 65.107,463.218 65.207,463.123 65.275,462.999 C 65.508,462.568 65.756,462.255 66.018,462.06 C 66.28,461.865 66.587,461.768 66.94,461.768 C 67.21,461.768 67.445,461.813 67.644,461.904 C 67.844,461.995 68.01,462.112 68.142,462.255 C 68.275,462.398 68.375,462.56 68.442,462.742 C 68.509,462.923 68.543,463.108 68.543,463.295 C 68.543,463.539 68.526,463.758 68.493,463.953 C 68.459,464.148 68.364,464.315 68.209,464.455 C 68.053,464.596 67.818,464.703 67.504,464.778 C 67.19,464.854 66.753,464.891 66.193,464.892 L 66.193,466.556 C 66.665,466.556 67.046,466.592 67.337,466.665 C 67.627,466.738 67.852,466.838 68.01,466.965 C 68.168,467.092 68.273,467.246 68.325,467.428 C 68.377,467.609 68.403,467.809 68.403,468.027 C 68.403,468.474 68.295,468.817 68.08,469.059 C 67.865,469.3 67.537,469.421 67.096,469.421 C 66.914,469.421 66.748,469.395 66.598,469.343 C 66.447,469.291 66.312,469.221 66.193,469.133 C 66.074,469.045 65.971,468.941 65.886,468.822 C 65.8,468.702 65.731,468.572 65.679,468.432 C 65.596,468.199 65.491,468.03 65.364,467.926 C 65.237,467.822 65.065,467.77 64.847,467.77 C 64.795,467.77 64.739,467.773 64.679,467.778 C 64.62,467.783 64.559,467.791 64.496,467.801 L 63.22,468.027 C 63.303,468.593 63.463,469.086 63.699,469.506 C 63.935,469.926 64.228,470.276 64.578,470.557 C 64.928,470.837 65.329,471.045 65.78,471.183 C 66.232,471.32 66.717,471.389 67.236,471.389 Z" marker-start="none" marker-end="none"/>
   </g>
   <path d="M 120.291,553.92 C 128.143,560.547 139.89,559.556 146.517,551.707 C 153.148,543.861 152.156,532.109 144.307,525.482 C 136.457,518.852 124.708,519.843 118.081,527.698 C 111.451,535.542 112.442,547.29 120.291,553.92 Z" stroke="#ff0000" fill="#ffffff" stroke-width="4.212" stroke-linejoin="miter" marker-start="none" marker-end="none"/>
   <g id="Group_3" fill-rule="nonzero" stroke-linejoin="round" stroke-linecap="round" stroke="none" stroke-width="0.248" fill="#000000">
    <path d="M 125.125,550.255 C 125.184,550.255 125.233,550.253 125.273,550.247 C 125.313,550.242 125.349,550.232 125.381,550.217 C 125.413,550.203 125.444,550.182 125.473,550.155 C 125.502,550.129 125.536,550.093 125.573,550.047 L 128.339,546.55 C 128.328,546.662 128.32,546.77 128.315,546.876 C 128.31,546.981 128.307,547.08 128.307,547.173 L 128.307,550.255 L 129.498,550.255 L 129.498,544.429 L 128.795,544.429 C 128.691,544.429 128.603,544.445 128.531,544.477 C 128.459,544.509 128.39,544.568 128.323,544.653 L 125.577,548.123 C 125.585,548.021 125.592,547.922 125.597,547.825 C 125.602,547.728 125.605,547.636 125.605,547.551 L 125.605,544.429 L 124.414,544.429 L 124.414,550.255 L 125.125,550.255 Z" marker-start="none" marker-end="none"/>
    <path d="M 136.205,547.343 C 136.205,546.922 136.132,546.53 135.987,546.168 C 135.842,545.805 135.637,545.49 135.373,545.222 C 135.11,544.954 134.792,544.744 134.42,544.592 C 134.048,544.441 133.636,544.365 133.183,544.365 C 132.73,544.365 132.317,544.441 131.944,544.592 C 131.571,544.744 131.251,544.954 130.986,545.222 C 130.721,545.49 130.516,545.805 130.371,546.168 C 130.226,546.53 130.153,546.922 130.153,547.343 C 130.153,547.764 130.226,548.156 130.371,548.519 C 130.516,548.881 130.721,549.196 130.986,549.462 C 131.251,549.729 131.571,549.938 131.944,550.09 C 132.317,550.242 132.73,550.318 133.183,550.318 C 133.636,550.318 134.048,550.241 134.42,550.088 C 134.792,549.935 135.11,549.725 135.373,549.458 C 135.637,549.192 135.842,548.877 135.987,548.515 C 136.132,548.152 136.205,547.762 136.205,547.343 Z M 134.822,547.343 C 134.822,547.631 134.785,547.89 134.71,548.12 C 134.635,548.351 134.528,548.546 134.388,548.706 C 134.248,548.866 134.077,548.988 133.874,549.073 C 133.672,549.159 133.441,549.201 133.183,549.201 C 132.922,549.201 132.689,549.159 132.485,549.073 C 132.281,548.988 132.11,548.866 131.97,548.706 C 131.83,548.546 131.723,548.351 131.648,548.12 C 131.573,547.89 131.536,547.631 131.536,547.343 C 131.536,547.053 131.573,546.792 131.648,546.562 C 131.723,546.331 131.83,546.136 131.97,545.976 C 132.11,545.817 132.281,545.695 132.485,545.611 C 132.689,545.527 132.922,545.485 133.183,545.485 C 133.441,545.485 133.672,545.527 133.874,545.611 C 134.077,545.695 134.248,545.817 134.388,545.976 C 134.528,546.136 134.635,546.331 134.71,546.562 C 134.785,546.792 134.822,547.053 134.822,547.343 Z" marker-start="none" marker-end="none"/>
    <path d="M 140.841,550.255 L 140.841,549.184 L 139.202,549.184 L 139.202,544.43 L 137.851,544.43 L 137.851,549.184 L 136.212,549.184 L 136.212,550.255 L 140.841,550.255 Z" marker-start="none" marker-end="none"/>
   </g>
   <g id="Group_4" fill-rule="nonzero" stroke-linejoin="round" stroke-linecap="round" stroke="none" stroke-width="0.248" fill="#000000">
    <path d="M 123.348,538.262 C 123.38,538.262 123.412,538.256 123.444,538.244 C 123.476,538.231 123.507,538.21 123.536,538.18 L 124.072,537.605 C 123.837,537.303 123.543,537.075 123.19,536.922 C 122.837,536.768 122.419,536.692 121.937,536.692 C 121.495,536.692 121.098,536.767 120.748,536.917 C 120.397,537.068 120.1,537.276 119.856,537.541 C 119.613,537.806 119.425,538.121 119.295,538.485 C 119.164,538.849 119.099,539.244 119.099,539.67 C 119.099,540.105 119.174,540.504 119.323,540.868 C 119.472,541.231 119.681,541.545 119.948,541.809 C 120.216,542.073 120.537,542.278 120.91,542.425 C 121.283,542.571 121.695,542.645 122.145,542.645 C 122.363,542.645 122.569,542.625 122.763,542.587 C 122.956,542.548 123.136,542.495 123.304,542.426 C 123.472,542.359 123.627,542.277 123.768,542.182 C 123.909,542.088 124.034,541.983 124.144,541.868 L 123.688,541.256 C 123.659,541.219 123.624,541.185 123.584,541.154 C 123.544,541.124 123.488,541.108 123.416,541.108 C 123.368,541.108 123.323,541.119 123.28,541.14 C 123.238,541.162 123.192,541.188 123.144,541.218 C 123.096,541.249 123.044,541.282 122.986,541.318 C 122.929,541.354 122.861,541.388 122.782,541.418 C 122.704,541.449 122.612,541.475 122.507,541.496 C 122.401,541.518 122.278,541.528 122.137,541.528 C 121.892,541.528 121.668,541.485 121.465,541.398 C 121.263,541.312 121.089,541.188 120.944,541.027 C 120.798,540.865 120.685,540.67 120.604,540.441 C 120.523,540.212 120.482,539.954 120.482,539.669 C 120.482,539.371 120.523,539.105 120.604,538.874 C 120.685,538.642 120.796,538.447 120.936,538.288 C 121.076,538.129 121.239,538.009 121.425,537.926 C 121.612,537.844 121.812,537.802 122.025,537.802 C 122.148,537.802 122.259,537.808 122.361,537.82 C 122.462,537.832 122.556,537.853 122.643,537.882 C 122.729,537.911 122.812,537.949 122.89,537.996 C 122.969,538.043 123.048,538.101 123.128,538.17 C 123.16,538.197 123.195,538.219 123.232,538.236 C 123.27,538.253 123.308,538.262 123.348,538.262 Z" marker-start="none" marker-end="none"/>
    <path d="M 126.168,536.756 L 124.809,536.756 L 124.809,542.582 L 126.168,542.582 L 126.168,536.756 Z" marker-start="none" marker-end="none"/>
    <path d="M 128.597,538.911 L 128.597,536.756 L 127.246,536.756 L 127.246,542.58 L 129.14,542.58 C 129.561,542.58 129.921,542.537 130.218,542.45 C 130.515,542.364 130.757,542.243 130.945,542.088 C 131.133,541.933 131.27,541.75 131.355,541.54 C 131.44,541.329 131.483,541.099 131.483,540.851 C 131.483,540.662 131.458,540.483 131.407,540.315 C 131.356,540.147 131.281,539.991 131.181,539.849 C 131.081,539.706 130.959,539.578 130.813,539.466 C 130.668,539.354 130.501,539.262 130.312,539.19 C 130.402,539.145 130.487,539.089 130.566,539.023 C 130.644,538.956 130.713,538.875 130.771,538.779 L 132.011,536.756 L 130.787,536.756 C 130.561,536.756 130.398,536.841 130.3,537.012 L 129.332,538.703 C 129.29,538.778 129.24,538.831 129.182,538.863 C 129.125,538.895 129.045,538.911 128.941,538.911 L 128.597,538.911 Z M 128.597,539.842 L 129.14,539.842 C 129.324,539.842 129.481,539.865 129.61,539.912 C 129.739,539.959 129.845,540.023 129.928,540.106 C 130.011,540.188 130.07,540.285 130.108,540.396 C 130.145,540.506 130.164,540.626 130.164,540.753 C 130.164,541.009 130.08,541.209 129.914,541.353 C 129.747,541.497 129.49,541.569 129.14,541.569 L 128.597,541.569 L 128.597,539.842 Z" marker-start="none" marker-end="none"/>
    <path d="M 136.277,538.262 C 136.309,538.262 136.341,538.256 136.373,538.244 C 136.405,538.231 136.436,538.21 136.465,538.18 L 137.001,537.605 C 136.766,537.303 136.472,537.075 136.119,536.922 C 135.766,536.768 135.348,536.692 134.866,536.692 C 134.424,536.692 134.027,536.767 133.677,536.917 C 133.326,537.068 133.029,537.276 132.785,537.541 C 132.542,537.806 132.354,538.121 132.224,538.485 C 132.093,538.849 132.028,539.244 132.028,539.67 C 132.028,540.105 132.103,540.504 132.252,540.868 C 132.401,541.231 132.61,541.545 132.877,541.809 C 133.145,542.073 133.466,542.278 133.839,542.425 C 134.212,542.571 134.624,542.645 135.074,542.645 C 135.292,542.645 135.498,542.625 135.692,542.587 C 135.885,542.548 136.065,542.495 136.233,542.426 C 136.401,542.359 136.556,542.277 136.697,542.182 C 136.838,542.088 136.963,541.983 137.073,541.868 L 136.617,541.256 C 136.588,541.219 136.553,541.185 136.513,541.154 C 136.473,541.124 136.417,541.108 136.345,541.108 C 136.297,541.108 136.252,541.119 136.209,541.14 C 136.167,541.162 136.121,541.188 136.073,541.218 C 136.025,541.249 135.973,541.282 135.915,541.318 C 135.858,541.354 135.79,541.388 135.711,541.418 C 135.633,541.449 135.541,541.475 135.436,541.496 C 135.33,541.518 135.207,541.528 135.066,541.528 C 134.821,541.528 134.597,541.485 134.394,541.398 C 134.192,541.312 134.018,541.188 133.873,541.027 C 133.727,540.865 133.614,540.67 133.533,540.441 C 133.452,540.212 133.411,539.954 133.411,539.669 C 133.411,539.371 133.452,539.105 133.533,538.874 C 133.614,538.642 133.725,538.447 133.865,538.288 C 134.005,538.129 134.168,538.009 134.354,537.926 C 134.541,537.844 134.741,537.802 134.954,537.802 C 135.077,537.802 135.188,537.808 135.29,537.82 C 135.391,537.832 135.485,537.853 135.572,537.882 C 135.658,537.911 135.741,537.949 135.819,537.996 C 135.898,538.043 135.977,538.101 136.057,538.17 C 136.089,538.197 136.124,538.219 136.161,538.236 C 136.199,538.253 136.237,538.262 136.277,538.262 Z" marker-start="none" marker-end="none"/>
    <path d="M 140.04,537.824 C 140.221,537.824 140.383,537.854 140.526,537.914 C 140.668,537.974 140.789,538.059 140.888,538.172 C 140.986,538.283 141.061,538.42 141.113,538.581 C 141.165,538.742 141.191,538.926 141.191,539.131 L 141.191,542.581 L 142.542,542.581 L 142.542,539.131 C 142.542,538.773 142.484,538.446 142.369,538.147 C 142.253,537.849 142.087,537.591 141.871,537.375 C 141.655,537.159 141.393,536.992 141.083,536.871 C 140.774,536.752 140.427,536.692 140.04,536.692 C 139.651,536.692 139.302,536.752 138.993,536.871 C 138.684,536.992 138.421,537.159 138.205,537.375 C 137.989,537.591 137.824,537.849 137.71,538.147 C 137.595,538.446 137.538,538.773 137.538,539.131 L 137.538,542.581 L 138.889,542.581 L 138.889,539.135 C 138.889,538.93 138.915,538.746 138.967,538.585 C 139.019,538.424 139.094,538.287 139.193,538.174 C 139.291,538.06 139.412,537.974 139.554,537.914 C 139.697,537.854 139.859,537.824 140.04,537.824 Z" marker-start="none" marker-end="none"/>
    <path d="M 143.343,539.686 L 145.501,539.686 L 145.501,538.686 L 143.343,538.686 L 143.343,539.686 Z" marker-start="none" marker-end="none"/>
   </g>
   <g id="Group_5" fill-rule="nonzero" stroke-linejoin="round" stroke-linecap="round" stroke="none" stroke-width="0.248" fill="#000000">
    <path d="M 126.58,530.162 L 128.738,530.162 L 128.738,529.083 L 125.229,529.083 L 125.229,534.908 L 126.58,534.908 L 126.58,530.162 Z" marker-start="none" marker-end="none"/>
    <path d="M 134.799,529.083 L 133.752,529.083 C 133.635,529.083 133.538,529.11 133.462,529.165 C 133.386,529.22 133.333,529.29 133.304,529.375 L 132.96,530.391 L 130.746,530.391 L 130.402,529.375 C 130.375,529.3 130.323,529.233 130.246,529.173 C 130.169,529.113 130.074,529.083 129.962,529.083 L 128.907,529.083 L 131.162,534.908 L 132.545,534.908 L 134.799,529.083 Z M 131.058,531.31 L 132.649,531.31 L 132.113,532.881 C 132.078,532.98 132.038,533.098 131.991,533.233 C 131.944,533.368 131.898,533.514 131.853,533.672 C 131.81,533.512 131.766,533.363 131.721,533.227 C 131.676,533.091 131.633,532.973 131.593,532.873 L 131.058,531.31 Z" marker-start="none" marker-end="none"/>
    <path d="M 136.621,531.238 L 136.621,529.083 L 135.27,529.083 L 135.27,534.907 L 137.164,534.907 C 137.585,534.907 137.945,534.864 138.242,534.777 C 138.539,534.691 138.781,534.57 138.969,534.415 C 139.157,534.26 139.294,534.077 139.379,533.867 C 139.464,533.656 139.507,533.426 139.507,533.178 C 139.507,532.989 139.482,532.81 139.431,532.642 C 139.38,532.474 139.305,532.318 139.205,532.176 C 139.105,532.033 138.983,531.905 138.837,531.793 C 138.692,531.681 138.525,531.589 138.336,531.517 C 138.426,531.472 138.511,531.416 138.59,531.35 C 138.668,531.283 138.737,531.202 138.795,531.106 L 140.035,529.083 L 138.811,529.083 C 138.585,529.083 138.422,529.168 138.324,529.339 L 137.356,531.03 C 137.314,531.105 137.264,531.158 137.206,531.19 C 137.149,531.222 137.069,531.238 136.965,531.238 L 136.621,531.238 Z M 136.621,532.169 L 137.164,532.169 C 137.348,532.169 137.505,532.192 137.634,532.239 C 137.763,532.286 137.869,532.35 137.952,532.433 C 138.035,532.515 138.094,532.612 138.132,532.723 C 138.169,532.833 138.188,532.953 138.188,533.08 C 138.188,533.336 138.104,533.536 137.938,533.68 C 137.771,533.824 137.514,533.896 137.164,533.896 L 136.621,533.896 L 136.621,532.169 Z" marker-start="none" marker-end="none"/>
   </g>
   <path d="M 45.647,421.71 L 45.647,387.818 L 149.235,387.818 L 149.235,421.71 L 45.647,421.71 Z" stroke="#f0942b" stroke-linejoin="miter" stroke-linecap="round" fill="#f0942b" stroke-width="1.738" marker-start="none" marker-end="none"/>
   <path d="M 45.647,423.053 L 45.647,413.243 C 45.647,410.672 47.731,408.595 50.293,408.595 L 144.585,408.595 C 147.147,408.595 149.235,410.672 149.235,413.243 L 149.235,423.053 C 149.235,425.629 147.147,427.707 144.585,427.707 L 50.293,427.707 C 47.731,427.707 45.647,425.629 45.647,423.053 Z" stroke="#f0942b" stroke-linejoin="miter" stroke-linecap="round" fill="#f0942b" stroke-width="1.738" marker-start="none" marker-end="none"/>
   <path d="M 46.344,394.16 L 46.344,376.515 C 46.344,371.902 50.088,368.156 54.706,368.156 L 221.752,368.156 C 226.365,368.156 230.113,371.902 230.113,376.515 L 230.113,394.16 C 230.113,398.778 226.365,402.526 221.752,402.526 L 54.706,402.526 C 50.088,402.526 46.344,398.778 46.344,394.16 Z" stroke="#f0942b" stroke-linejoin="miter" stroke-linecap="round" fill="#ffffff" stroke-width="3.13" marker-start="none" marker-end="none"/>
   <path d="M 199.789,447.059 C 193.889,454.037 194.768,464.497 201.763,470.406 C 208.745,476.298 219.198,475.419 225.102,468.432 C 231.011,461.44 230.125,450.986 223.128,445.081 C 216.146,439.186 205.689,440.065 199.789,447.059 Z" stroke-linejoin="miter" stroke="none" fill="#000000" stroke-width="0.686" marker-start="none" marker-end="none"/>
   <path d="M 200.567,447.668 C 194.676,454.666 195.548,465.125 202.541,471.018 C 209.53,476.927 219.982,476.044 225.898,469.051 C 231.795,462.069 230.91,451.617 223.916,445.712 C 216.937,439.806 206.473,440.685 200.567,447.668 Z" stroke-linejoin="miter" stroke="#b2b2b2" stroke-width="3.752" marker-start="none" marker-end="none"/>
   <path d="M 159.104,447.046 C 153.204,454.035 154.083,464.503 161.08,470.394 C 168.063,476.305 178.517,475.422 184.419,468.434 C 190.33,461.445 189.444,450.985 182.446,445.081 C 175.463,439.182 165.004,440.065 159.104,447.046 Z" stroke-linejoin="miter" stroke="none" fill="#ffffff" stroke-width="0.689" marker-start="none" marker-end="none"/>
   <path d="M 159.884,447.681 C 153.991,454.673 154.864,465.119 161.856,471.032 C 168.847,476.916 179.302,476.044 185.215,469.056 C 191.113,462.069 190.229,451.603 183.235,445.703 C 176.254,439.804 165.789,440.682 159.884,447.681 Z" stroke-linejoin="miter" stroke="#539bc5" stroke-width="3.752" marker-start="none" marker-end="none"/>
   <path d="M 183.583,511.827 C 174.686,522.367 176.011,538.153 186.563,547.037 C 197.094,555.951 212.859,554.619 221.76,544.081 C 230.674,533.541 229.338,517.767 218.784,508.864 C 208.253,499.968 192.481,501.299 183.583,511.827 Z" stroke-linejoin="miter" stroke="none" fill="#ffffff" stroke-width="1.039" marker-start="none" marker-end="none"/>
   <path d="M 184.76,512.784 C 175.873,523.329 177.189,539.082 187.733,547.999 C 198.276,556.872 214.043,555.557 222.96,545.019 C 231.854,534.482 230.521,518.699 219.974,509.802 C 209.446,500.906 193.665,502.23 184.76,512.784 Z" stroke-linejoin="miter" stroke="#539bc5" stroke-width="5.658" marker-start="none" marker-end="none"/>
   <g id="Group_6" fill-rule="nonzero" stroke-linejoin="round" stroke-linecap="round" stroke="none" stroke-width="0.485" fill="#b2b2b2">
    <path d="M 212.685,465.62 C 213.386,465.62 214.01,465.521 214.556,465.322 C 215.101,465.124 215.563,464.855 215.94,464.516 C 216.316,464.177 216.602,463.785 216.797,463.338 C 216.992,462.892 217.09,462.421 217.09,461.926 C 217.09,461.477 217.044,461.081 216.953,460.738 C 216.862,460.396 216.727,460.1 216.549,459.849 C 216.37,459.598 216.149,459.385 215.886,459.209 C 215.623,459.033 215.322,458.887 214.985,458.769 C 216.557,458.225 217.343,457.158 217.343,455.57 C 217.343,454.818 217.206,454.164 216.934,453.606 C 216.661,453.048 216.295,452.585 215.837,452.216 C 215.379,451.846 214.848,451.569 214.244,451.384 C 213.64,451.199 213.009,451.107 212.353,451.107 C 211.678,451.107 211.077,451.18 210.55,451.326 C 210.024,451.472 209.556,451.7 209.147,452.008 C 208.738,452.317 208.379,452.711 208.07,453.192 C 207.762,453.673 207.494,454.244 207.266,454.907 L 208.611,455.454 C 208.728,455.507 208.843,455.542 208.957,455.562 C 209.071,455.581 209.183,455.591 209.293,455.591 C 209.501,455.591 209.688,455.55 209.854,455.469 C 210.019,455.388 210.144,455.269 210.229,455.113 C 210.521,454.573 210.831,454.181 211.159,453.938 C 211.488,453.694 211.872,453.572 212.314,453.572 C 212.652,453.572 212.946,453.629 213.196,453.743 C 213.446,453.856 213.654,454.002 213.82,454.181 C 213.986,454.36 214.111,454.564 214.195,454.791 C 214.28,455.019 214.322,455.25 214.322,455.484 C 214.322,455.789 214.301,456.064 214.259,456.308 C 214.216,456.552 214.098,456.762 213.903,456.937 C 213.708,457.113 213.414,457.248 213.021,457.342 C 212.628,457.436 212.08,457.483 211.379,457.483 L 211.379,459.568 C 211.97,459.568 212.447,459.613 212.811,459.704 C 213.175,459.795 213.456,459.92 213.654,460.08 C 213.852,460.239 213.984,460.432 214.049,460.66 C 214.114,460.887 214.146,461.137 214.146,461.41 C 214.146,461.969 214.012,462.4 213.742,462.702 C 213.472,463.004 213.061,463.156 212.509,463.156 C 212.282,463.156 212.074,463.123 211.885,463.058 C 211.697,462.993 211.528,462.905 211.379,462.795 C 211.229,462.684 211.101,462.554 210.994,462.405 C 210.887,462.255 210.801,462.093 210.736,461.917 C 210.632,461.625 210.5,461.414 210.341,461.284 C 210.182,461.154 209.966,461.088 209.693,461.088 C 209.628,461.088 209.558,461.092 209.483,461.098 C 209.409,461.105 209.332,461.114 209.254,461.127 L 207.656,461.41 C 207.76,462.118 207.96,462.736 208.255,463.262 C 208.551,463.788 208.918,464.227 209.357,464.578 C 209.795,464.928 210.297,465.19 210.862,465.362 C 211.427,465.534 212.035,465.62 212.685,465.62 Z" marker-start="none" marker-end="none"/>
   </g>
   <g id="Group_7" fill-rule="nonzero" stroke-linejoin="round" stroke-linecap="round" stroke="none" stroke-width="0.485" fill="#000000">
    <path d="M 173.495,460.26 C 174.008,460.26 174.515,460.175 175.015,460.006 C 175.515,459.838 175.964,459.578 176.36,459.227 C 176.756,458.876 177.076,458.432 177.32,457.896 C 177.564,457.36 177.685,456.728 177.685,456 C 177.685,455.337 177.562,454.708 177.315,454.114 C 177.068,453.519 176.719,452.999 176.267,452.554 C 175.816,452.109 175.272,451.757 174.635,451.497 C 173.998,451.237 173.293,451.107 172.52,451.107 C 171.728,451.107 171.016,451.232 170.386,451.482 C 169.756,451.733 169.221,452.082 168.783,452.53 C 168.344,452.979 168.01,453.515 167.779,454.139 C 167.549,454.763 167.433,455.448 167.433,456.195 C 167.433,456.904 167.57,457.609 167.843,458.311 C 168.115,459.013 168.518,459.728 169.051,460.455 L 172.247,464.774 C 172.39,464.969 172.605,465.133 172.891,465.266 C 173.177,465.399 173.501,465.466 173.865,465.466 L 176.555,465.466 L 172.345,460.435 C 172.28,460.363 172.217,460.29 172.155,460.215 C 172.093,460.14 172.033,460.067 171.975,459.996 C 172.202,460.081 172.441,460.146 172.691,460.192 C 172.941,460.237 173.209,460.26 173.495,460.26 Z M 170.337,455.786 C 170.337,455.435 170.38,455.12 170.464,454.841 C 170.548,454.561 170.678,454.321 170.854,454.119 C 171.029,453.918 171.25,453.764 171.517,453.657 C 171.783,453.549 172.098,453.496 172.462,453.496 C 172.774,453.496 173.064,453.554 173.334,453.671 C 173.604,453.788 173.836,453.949 174.031,454.154 C 174.226,454.358 174.38,454.599 174.494,454.875 C 174.607,455.151 174.664,455.451 174.664,455.776 C 174.664,456.14 174.611,456.465 174.504,456.75 C 174.396,457.037 174.245,457.277 174.05,457.472 C 173.855,457.666 173.62,457.816 173.344,457.92 C 173.068,458.024 172.761,458.076 172.423,458.076 C 172.117,458.076 171.838,458.022 171.585,457.915 C 171.331,457.808 171.112,457.653 170.927,457.452 C 170.742,457.251 170.597,457.011 170.493,456.731 C 170.389,456.452 170.337,456.137 170.337,455.786 Z" marker-start="none" marker-end="none"/>
   </g>
   <g id="Group_8" fill-rule="nonzero" stroke-linejoin="round" stroke-linecap="round" stroke="none" stroke-width="0.319" fill="#ffffff">
    <path d="M 67.825,413.296 L 67.825,409.85 L 65.664,409.85 L 65.664,419.164 L 68.694,419.164 C 69.367,419.164 69.942,419.095 70.417,418.956 C 70.892,418.817 71.28,418.624 71.58,418.377 C 71.881,418.129 72.099,417.837 72.235,417.5 C 72.372,417.163 72.44,416.796 72.44,416.399 C 72.44,416.096 72.4,415.81 72.319,415.541 C 72.238,415.273 72.117,415.024 71.957,414.796 C 71.798,414.567 71.602,414.364 71.369,414.184 C 71.137,414.005 70.87,413.858 70.567,413.743 C 70.712,413.671 70.847,413.581 70.973,413.475 C 71.099,413.368 71.208,413.239 71.302,413.085 L 73.284,409.85 L 71.328,409.85 C 70.966,409.85 70.706,409.986 70.548,410.259 L 69.001,412.963 C 68.933,413.083 68.853,413.168 68.761,413.219 C 68.67,413.27 68.541,413.296 68.374,413.296 L 67.825,413.296 Z M 67.825,414.785 L 68.694,414.785 C 68.988,414.785 69.239,414.822 69.445,414.897 C 69.652,414.971 69.821,415.075 69.953,415.207 C 70.085,415.339 70.181,415.493 70.241,415.67 C 70.301,415.847 70.331,416.038 70.331,416.243 C 70.331,416.652 70.197,416.972 69.931,417.202 C 69.665,417.432 69.252,417.547 68.694,417.547 L 67.825,417.547 L 67.825,414.785 Z" marker-start="none" marker-end="none"/>
    <path d="M 80.163,419.167 L 80.163,417.503 L 76.341,417.503 L 76.341,415.328 L 79.268,415.328 L 79.268,413.73 L 76.341,413.73 L 76.341,411.514 L 80.163,411.514 L 80.163,409.85 L 74.167,409.85 L 74.167,419.167 L 80.163,419.167 Z" marker-start="none" marker-end="none"/>
    <path d="M 86.581,417.272 C 86.517,417.169 86.45,417.093 86.379,417.042 C 86.309,416.99 86.218,416.965 86.108,416.965 C 86.01,416.965 85.904,416.996 85.791,417.058 C 85.678,417.119 85.55,417.189 85.408,417.265 C 85.265,417.342 85.102,417.411 84.919,417.473 C 84.735,417.535 84.527,417.566 84.292,417.566 C 83.887,417.566 83.586,417.48 83.388,417.307 C 83.19,417.134 83.09,416.901 83.09,416.607 C 83.09,416.419 83.15,416.264 83.269,416.14 C 83.389,416.017 83.545,415.91 83.739,415.82 C 83.933,415.731 84.155,415.649 84.404,415.574 C 84.653,415.5 84.908,415.417 85.168,415.325 C 85.428,415.233 85.683,415.126 85.932,415.002 C 86.181,414.879 86.403,414.721 86.597,414.529 C 86.791,414.337 86.947,414.104 87.067,413.829 C 87.186,413.554 87.246,413.223 87.246,412.835 C 87.246,412.404 87.171,412.002 87.022,411.627 C 86.873,411.252 86.656,410.924 86.373,410.645 C 86.09,410.366 85.74,410.147 85.325,409.987 C 84.909,409.827 84.437,409.747 83.909,409.747 C 83.619,409.747 83.324,409.777 83.023,409.837 C 82.723,409.896 82.432,409.98 82.151,410.089 C 81.87,410.198 81.605,410.327 81.358,410.476 C 81.111,410.625 80.896,410.791 80.712,410.975 L 81.352,411.985 C 81.399,412.062 81.465,412.123 81.55,412.17 C 81.635,412.217 81.727,412.241 81.825,412.241 C 81.953,412.241 82.082,412.2 82.212,412.119 C 82.341,412.038 82.489,411.949 82.653,411.851 C 82.817,411.753 83.005,411.663 83.218,411.582 C 83.431,411.501 83.683,411.461 83.973,411.461 C 84.365,411.461 84.669,411.547 84.887,411.719 C 85.104,411.892 85.213,412.166 85.213,412.541 C 85.213,412.759 85.153,412.935 85.034,413.072 C 84.914,413.208 84.758,413.321 84.564,413.411 C 84.37,413.5 84.149,413.579 83.902,413.647 C 83.655,413.715 83.402,413.791 83.142,413.874 C 82.882,413.957 82.628,414.059 82.381,414.181 C 82.134,414.302 81.913,414.462 81.719,414.66 C 81.525,414.859 81.369,415.106 81.249,415.402 C 81.13,415.698 81.07,416.064 81.07,416.499 C 81.07,416.848 81.141,417.189 81.281,417.522 C 81.422,417.854 81.629,418.15 81.901,418.41 C 82.174,418.67 82.509,418.878 82.905,419.034 C 83.301,419.189 83.755,419.267 84.267,419.267 C 84.552,419.267 84.83,419.245 85.101,419.2 C 85.371,419.155 85.628,419.089 85.871,419.001 C 86.114,418.914 86.341,418.81 86.552,418.688 C 86.763,418.567 86.951,418.429 87.118,418.276 L 86.581,417.272 Z" marker-start="none" marker-end="none"/>
    <path d="M 97.511,414.51 C 97.511,413.837 97.395,413.21 97.163,412.631 C 96.931,412.051 96.604,411.547 96.182,411.118 C 95.76,410.69 95.252,410.354 94.657,410.111 C 94.063,409.868 93.403,409.747 92.679,409.747 C 91.954,409.747 91.294,409.868 90.697,410.111 C 90.1,410.354 89.59,410.69 89.166,411.118 C 88.742,411.547 88.414,412.051 88.182,412.631 C 87.949,413.21 87.833,413.837 87.833,414.51 C 87.833,415.184 87.949,415.81 88.182,416.39 C 88.414,416.97 88.742,417.472 89.166,417.899 C 89.59,418.325 90.1,418.66 90.697,418.903 C 91.294,419.145 91.954,419.267 92.679,419.267 C 93.403,419.267 94.063,419.144 94.657,418.899 C 95.252,418.654 95.76,418.319 96.182,417.892 C 96.604,417.466 96.931,416.963 97.163,416.383 C 97.395,415.804 97.511,415.179 97.511,414.51 Z M 95.3,414.51 C 95.3,414.97 95.24,415.384 95.121,415.753 C 95.001,416.121 94.83,416.434 94.606,416.689 C 94.382,416.945 94.108,417.141 93.785,417.277 C 93.461,417.413 93.092,417.481 92.679,417.482 C 92.261,417.481 91.889,417.413 91.563,417.277 C 91.237,417.141 90.962,416.945 90.739,416.689 C 90.515,416.434 90.343,416.121 90.224,415.753 C 90.105,415.384 90.045,414.97 90.045,414.51 C 90.045,414.046 90.105,413.629 90.224,413.261 C 90.343,412.892 90.515,412.58 90.739,412.325 C 90.962,412.069 91.237,411.874 91.563,411.74 C 91.889,411.606 92.261,411.539 92.679,411.539 C 93.092,411.539 93.461,411.606 93.785,411.74 C 94.108,411.874 94.382,412.069 94.606,412.325 C 94.83,412.58 95.001,412.892 95.121,413.261 C 95.24,413.629 95.3,414.046 95.3,414.51 Z" marker-start="none" marker-end="none"/>
    <path d="M 102.419,411.557 C 102.709,411.557 102.968,411.605 103.196,411.701 C 103.424,411.797 103.616,411.934 103.774,412.114 C 103.932,412.293 104.052,412.511 104.135,412.769 C 104.218,413.027 104.26,413.32 104.26,413.648 L 104.26,419.165 L 106.421,419.165 L 106.421,413.647 C 106.421,413.076 106.328,412.552 106.142,412.074 C 105.957,411.597 105.692,411.186 105.347,410.84 C 105.001,410.495 104.582,410.227 104.087,410.035 C 103.593,409.843 103.037,409.747 102.419,409.747 C 101.797,409.747 101.238,409.843 100.744,410.035 C 100.25,410.227 99.83,410.495 99.485,410.84 C 99.14,411.186 98.875,411.597 98.692,412.074 C 98.509,412.552 98.417,413.076 98.417,413.647 L 98.417,419.165 L 100.578,419.165 L 100.578,413.654 C 100.578,413.326 100.619,413.033 100.703,412.775 C 100.786,412.517 100.906,412.298 101.064,412.117 C 101.221,411.936 101.414,411.797 101.642,411.701 C 101.87,411.605 102.129,411.557 102.419,411.557 Z" marker-start="none" marker-end="none"/>
    <path d="M 109.989,413.296 L 109.989,409.85 L 107.828,409.85 L 107.828,419.164 L 110.858,419.164 C 111.531,419.164 112.106,419.095 112.581,418.956 C 113.056,418.817 113.444,418.624 113.744,418.377 C 114.045,418.129 114.263,417.837 114.399,417.5 C 114.536,417.163 114.604,416.796 114.604,416.399 C 114.604,416.096 114.564,415.81 114.483,415.541 C 114.402,415.273 114.281,415.024 114.121,414.796 C 113.962,414.567 113.766,414.364 113.533,414.184 C 113.301,414.005 113.034,413.858 112.731,413.743 C 112.876,413.671 113.011,413.581 113.137,413.475 C 113.263,413.368 113.372,413.239 113.466,413.085 L 115.448,409.85 L 113.492,409.85 C 113.13,409.85 112.87,409.986 112.712,410.259 L 111.165,412.963 C 111.097,413.083 111.017,413.168 110.925,413.219 C 110.834,413.27 110.705,413.296 110.538,413.296 L 109.989,413.296 Z M 109.989,414.785 L 110.858,414.785 C 111.152,414.785 111.403,414.822 111.609,414.897 C 111.816,414.971 111.985,415.075 112.117,415.207 C 112.249,415.339 112.345,415.493 112.405,415.67 C 112.465,415.847 112.495,416.038 112.495,416.243 C 112.495,416.652 112.361,416.972 112.095,417.202 C 111.829,417.432 111.416,417.547 110.858,417.547 L 109.989,417.547 L 109.989,414.785 Z" marker-start="none" marker-end="none"/>
    <path d="M 122.27,412.258 C 122.321,412.258 122.373,412.249 122.424,412.229 C 122.475,412.209 122.524,412.176 122.571,412.128 L 123.427,411.207 C 123.052,410.725 122.582,410.361 122.018,410.115 C 121.453,409.87 120.785,409.747 120.014,409.747 C 119.306,409.747 118.672,409.867 118.112,410.108 C 117.552,410.349 117.076,410.682 116.686,411.106 C 116.297,411.53 115.997,412.033 115.788,412.615 C 115.58,413.196 115.475,413.828 115.475,414.51 C 115.475,415.205 115.594,415.843 115.833,416.425 C 116.072,417.007 116.405,417.509 116.834,417.931 C 117.262,418.353 117.774,418.681 118.371,418.915 C 118.968,419.15 119.626,419.267 120.346,419.267 C 120.696,419.267 121.025,419.236 121.334,419.174 C 121.643,419.112 121.931,419.027 122.2,418.918 C 122.468,418.809 122.716,418.679 122.941,418.527 C 123.167,418.376 123.368,418.208 123.542,418.025 L 122.814,417.047 C 122.767,416.987 122.711,416.933 122.647,416.884 C 122.583,416.835 122.494,416.81 122.379,416.81 C 122.302,416.81 122.23,416.827 122.162,416.861 C 122.093,416.895 122.021,416.937 121.944,416.986 C 121.868,417.035 121.783,417.088 121.692,417.146 C 121.6,417.203 121.491,417.257 121.366,417.306 C 121.24,417.355 121.093,417.396 120.925,417.43 C 120.756,417.464 120.559,417.481 120.333,417.482 C 119.941,417.481 119.583,417.412 119.259,417.274 C 118.936,417.135 118.657,416.937 118.425,416.679 C 118.193,416.421 118.012,416.109 117.882,415.743 C 117.752,415.376 117.687,414.965 117.687,414.509 C 117.687,414.031 117.752,413.607 117.882,413.236 C 118.012,412.866 118.189,412.553 118.412,412.3 C 118.636,412.046 118.897,411.853 119.196,411.721 C 119.494,411.589 119.813,411.523 120.154,411.523 C 120.35,411.523 120.529,411.533 120.691,411.552 C 120.853,411.571 121.003,411.604 121.142,411.651 C 121.28,411.698 121.413,411.758 121.538,411.833 C 121.664,411.908 121.791,412 121.919,412.111 C 121.97,412.154 122.025,412.189 122.085,412.217 C 122.145,412.244 122.206,412.258 122.27,412.258 Z" marker-start="none" marker-end="none"/>
    <path d="M 130.411,419.167 L 130.411,417.503 L 126.589,417.503 L 126.589,415.328 L 129.516,415.328 L 129.516,413.73 L 126.589,413.73 L 126.589,411.514 L 130.411,411.514 L 130.411,409.85 L 124.415,409.85 L 124.415,419.167 L 130.411,419.167 Z" marker-start="none" marker-end="none"/>
   </g>
   <g id="Group_9" fill-rule="nonzero" stroke-linejoin="round" stroke-linecap="round" stroke="none" stroke-width="0.365" fill="#000000">
    <path d="M 102.074,385.541 C 102.074,384.769 101.941,384.051 101.675,383.387 C 101.409,382.723 101.034,382.145 100.55,381.654 C 100.067,381.163 99.484,380.778 98.803,380.5 C 98.121,380.221 97.365,380.082 96.535,380.082 C 95.705,380.082 94.948,380.221 94.264,380.5 C 93.58,380.778 92.995,381.163 92.509,381.654 C 92.023,382.145 91.647,382.723 91.381,383.387 C 91.114,384.051 90.981,384.769 90.981,385.541 C 90.981,386.313 91.114,387.031 91.381,387.696 C 91.647,388.36 92.023,388.937 92.509,389.425 C 92.995,389.914 93.58,390.297 94.264,390.576 C 94.948,390.854 95.705,390.993 96.535,390.993 C 97.365,390.993 98.121,390.853 98.803,390.572 C 99.484,390.291 100.067,389.906 100.55,389.418 C 101.034,388.929 101.409,388.353 101.675,387.688 C 101.941,387.024 102.074,386.308 102.074,385.541 Z M 99.539,385.541 C 99.539,386.069 99.471,386.543 99.334,386.966 C 99.197,387.388 99.001,387.746 98.744,388.039 C 98.488,388.332 98.174,388.556 97.803,388.713 C 97.431,388.869 97.009,388.947 96.535,388.947 C 96.056,388.947 95.63,388.869 95.257,388.713 C 94.883,388.556 94.568,388.332 94.311,388.039 C 94.055,387.746 93.858,387.388 93.722,386.966 C 93.585,386.543 93.516,386.069 93.516,385.541 C 93.516,385.009 93.585,384.532 93.722,384.109 C 93.858,383.687 94.055,383.329 94.311,383.036 C 94.568,382.743 94.883,382.52 95.257,382.366 C 95.63,382.212 96.056,382.135 96.535,382.135 C 97.009,382.135 97.431,382.212 97.803,382.366 C 98.174,382.52 98.488,382.743 98.744,383.036 C 99.001,383.329 99.197,383.687 99.334,384.109 C 99.471,384.532 99.539,385.009 99.539,385.541 Z" marker-start="none" marker-end="none"/>
    <path d="M 105.969,380.2 L 103.478,380.2 L 103.478,390.879 L 105.969,390.879 L 105.969,380.2 Z" marker-start="none" marker-end="none"/>
    <path d="M 110.422,382.178 L 114.378,382.178 L 114.378,380.2 L 107.945,380.2 L 107.945,390.877 L 110.422,390.877 L 110.422,382.178 Z" marker-start="none" marker-end="none"/>
    <path d="M 122.363,390.993 C 122.837,390.993 123.254,390.924 123.616,390.785 C 123.977,390.645 124.283,390.462 124.532,390.235 C 124.781,390.008 124.976,389.745 125.118,389.447 C 125.26,389.15 125.347,388.844 125.382,388.532 L 123.916,388.238 C 123.892,388.234 123.871,388.23 123.854,388.228 C 123.837,388.225 123.819,388.224 123.799,388.224 C 123.594,388.224 123.442,388.332 123.345,388.546 C 123.232,388.8 123.102,388.993 122.953,389.125 C 122.804,389.257 122.607,389.323 122.363,389.323 C 122.192,389.323 122.043,389.291 121.916,389.227 C 121.789,389.163 121.683,389.079 121.597,388.976 C 121.512,388.873 121.447,388.753 121.403,388.615 C 121.359,388.478 121.337,388.335 121.337,388.188 C 121.337,388.06 121.348,387.937 121.37,387.819 C 121.392,387.701 121.429,387.582 121.48,387.462 C 121.531,387.342 121.602,387.217 121.693,387.09 C 121.783,386.962 121.899,386.824 122.041,386.677 L 124.678,383.876 C 124.81,384.173 124.915,384.483 124.993,384.805 C 125.071,385.127 125.128,385.461 125.162,385.808 C 125.172,385.946 125.217,386.055 125.297,386.134 C 125.378,386.213 125.484,386.253 125.616,386.253 L 127.052,386.253 C 127.052,385.538 126.957,384.87 126.766,384.25 C 126.576,383.631 126.305,383.064 125.953,382.549 L 128.195,380.2 L 125.953,380.2 C 125.841,380.2 125.741,380.206 125.653,380.218 C 125.565,380.231 125.483,380.251 125.407,380.281 C 125.332,380.31 125.26,380.351 125.191,380.405 C 125.123,380.459 125.049,380.527 124.971,380.611 L 124.51,381.094 C 124.046,380.771 123.539,380.522 122.989,380.346 C 122.44,380.17 121.855,380.082 121.235,380.082 C 120.81,380.082 120.393,380.154 119.985,380.299 C 119.578,380.444 119.215,380.651 118.897,380.919 C 118.58,381.187 118.323,381.513 118.128,381.894 C 117.933,382.276 117.835,382.704 117.835,383.177 C 117.835,383.496 117.885,383.798 117.985,384.083 C 118.085,384.368 118.226,384.633 118.407,384.877 C 118.587,385.121 118.803,385.343 119.055,385.544 C 119.306,385.744 119.581,385.92 119.879,386.069 C 119.65,386.431 119.484,386.785 119.381,387.132 C 119.278,387.478 119.227,387.815 119.227,388.141 C 119.227,388.528 119.297,388.893 119.436,389.237 C 119.575,389.581 119.778,389.883 120.044,390.143 C 120.31,390.403 120.638,390.61 121.026,390.763 C 121.414,390.917 121.86,390.993 122.363,390.993 Z M 120.15,383.371 C 120.15,383.14 120.186,382.931 120.257,382.744 C 120.327,382.556 120.429,382.395 120.561,382.26 C 120.692,382.126 120.85,382.021 121.033,381.947 C 121.216,381.872 121.42,381.835 121.645,381.835 C 121.972,381.835 122.276,381.877 122.557,381.961 C 122.838,382.046 123.101,382.164 123.345,382.318 L 120.89,384.879 C 120.622,384.663 120.431,384.427 120.319,384.172 C 120.206,383.917 120.15,383.65 120.15,383.371 Z" marker-start="none" marker-end="none"/>
    <path d="M 136.826,381.989 C 137.168,381.989 137.471,382.017 137.735,382.075 C 137.999,382.133 138.248,382.21 138.482,382.306 L 138.482,383.928 L 137.427,383.928 C 137.271,383.928 137.149,383.969 137.061,384.052 C 136.973,384.135 136.929,384.241 136.929,384.368 L 136.929,385.731 L 140.724,385.731 L 140.724,381.225 C 140.451,381.025 140.166,380.853 139.871,380.708 C 139.575,380.564 139.26,380.446 138.926,380.353 C 138.591,380.26 138.234,380.192 137.856,380.148 C 137.477,380.104 137.071,380.082 136.636,380.082 C 135.854,380.082 135.131,380.22 134.467,380.496 C 133.803,380.772 133.228,381.153 132.742,381.639 C 132.256,382.125 131.875,382.702 131.599,383.369 C 131.323,384.036 131.185,384.76 131.185,385.541 C 131.185,386.338 131.317,387.069 131.58,387.736 C 131.844,388.403 132.222,388.978 132.712,389.462 C 133.203,389.945 133.797,390.322 134.493,390.59 C 135.189,390.859 135.967,390.993 136.826,390.993 C 137.271,390.993 137.689,390.957 138.079,390.883 C 138.47,390.81 138.83,390.71 139.16,390.582 C 139.49,390.455 139.791,390.304 140.065,390.128 C 140.338,389.952 140.583,389.761 140.798,389.555 L 140.079,388.464 C 140.011,388.361 139.929,388.28 139.834,388.222 C 139.739,388.163 139.635,388.134 139.523,388.134 C 139.376,388.134 139.225,388.183 139.068,388.28 C 138.873,388.397 138.689,388.499 138.515,388.584 C 138.342,388.67 138.165,388.739 137.984,388.793 C 137.803,388.847 137.613,388.886 137.413,388.91 C 137.212,388.935 136.988,388.947 136.738,388.947 C 136.274,388.947 135.857,388.865 135.486,388.702 C 135.114,388.538 134.798,388.307 134.537,388.01 C 134.275,387.712 134.074,387.354 133.932,386.937 C 133.791,386.519 133.72,386.054 133.72,385.541 C 133.72,384.975 133.798,384.472 133.954,384.032 C 134.111,383.593 134.327,383.222 134.603,382.919 C 134.879,382.616 135.206,382.386 135.584,382.227 C 135.963,382.068 136.377,381.989 136.826,381.989 Z" marker-start="none" marker-end="none"/>
    <path d="M 152.167,380.2 L 150.248,380.2 C 150.033,380.2 149.856,380.25 149.717,380.35 C 149.577,380.45 149.481,380.579 149.427,380.735 L 148.797,382.597 L 144.738,382.597 L 144.108,380.735 C 144.059,380.598 143.964,380.475 143.822,380.365 C 143.68,380.255 143.507,380.2 143.302,380.2 L 141.368,380.2 L 145.5,390.877 L 148.035,390.877 L 152.167,380.2 Z M 145.309,384.282 L 148.226,384.282 L 147.244,387.161 C 147.18,387.343 147.106,387.559 147.02,387.806 C 146.935,388.054 146.851,388.322 146.767,388.611 C 146.689,388.317 146.609,388.046 146.526,387.795 C 146.443,387.546 146.365,387.329 146.291,387.146 L 145.309,384.282 Z" marker-start="none" marker-end="none"/>
    <path d="M 158.979,388.707 C 158.905,388.589 158.828,388.501 158.748,388.443 C 158.667,388.384 158.563,388.355 158.436,388.355 C 158.324,388.355 158.203,388.39 158.074,388.461 C 157.944,388.532 157.798,388.611 157.634,388.699 C 157.47,388.787 157.284,388.867 157.074,388.937 C 156.864,389.008 156.624,389.044 156.356,389.044 C 155.892,389.044 155.546,388.945 155.319,388.747 C 155.092,388.549 154.978,388.282 154.978,387.945 C 154.978,387.729 155.047,387.551 155.183,387.41 C 155.32,387.268 155.5,387.146 155.722,387.043 C 155.944,386.941 156.198,386.847 156.484,386.761 C 156.77,386.676 157.061,386.58 157.359,386.475 C 157.657,386.37 157.949,386.247 158.235,386.105 C 158.521,385.964 158.775,385.783 158.997,385.563 C 159.219,385.343 159.399,385.076 159.535,384.761 C 159.672,384.446 159.741,384.066 159.741,383.621 C 159.741,383.128 159.655,382.666 159.484,382.236 C 159.313,381.806 159.065,381.432 158.74,381.112 C 158.416,380.792 158.015,380.54 157.539,380.357 C 157.063,380.174 156.522,380.082 155.916,380.082 C 155.584,380.082 155.246,380.116 154.901,380.185 C 154.557,380.253 154.223,380.349 153.901,380.474 C 153.579,380.599 153.276,380.746 152.993,380.917 C 152.709,381.088 152.463,381.279 152.253,381.489 L 152.985,382.647 C 153.039,382.735 153.115,382.806 153.212,382.859 C 153.31,382.913 153.415,382.94 153.527,382.94 C 153.674,382.94 153.822,382.894 153.971,382.801 C 154.12,382.708 154.288,382.605 154.476,382.493 C 154.664,382.381 154.88,382.278 155.125,382.185 C 155.369,382.092 155.657,382.046 155.989,382.046 C 156.439,382.046 156.788,382.145 157.037,382.343 C 157.286,382.54 157.411,382.855 157.411,383.284 C 157.411,383.534 157.342,383.736 157.205,383.893 C 157.069,384.049 156.889,384.178 156.667,384.281 C 156.445,384.384 156.192,384.474 155.909,384.552 C 155.625,384.63 155.335,384.717 155.037,384.812 C 154.739,384.907 154.448,385.025 154.165,385.164 C 153.882,385.303 153.629,385.486 153.407,385.714 C 153.184,385.941 153.005,386.224 152.868,386.564 C 152.731,386.903 152.663,387.322 152.663,387.82 C 152.663,388.221 152.743,388.612 152.905,388.993 C 153.066,389.374 153.303,389.713 153.615,390.011 C 153.928,390.309 154.311,390.548 154.766,390.726 C 155.22,390.904 155.74,390.993 156.326,390.993 C 156.654,390.993 156.972,390.968 157.282,390.916 C 157.593,390.865 157.887,390.789 158.165,390.689 C 158.444,390.589 158.704,390.469 158.946,390.33 C 159.187,390.191 159.404,390.033 159.594,389.857 L 158.979,388.707 Z" marker-start="none" marker-end="none"/>
    <path d="M 160.59,381.49 C 160.59,381.646 160.62,381.792 160.678,381.926 C 160.737,382.061 160.821,382.178 160.931,382.278 C 161.041,382.378 161.17,382.457 161.319,382.516 C 161.468,382.575 161.636,382.604 161.821,382.604 C 162.041,382.604 162.231,382.566 162.393,382.49 C 162.554,382.415 162.688,382.312 162.796,382.183 C 162.903,382.053 162.982,381.904 163.034,381.736 C 163.085,381.567 163.111,381.39 163.111,381.204 C 163.111,380.96 163.072,380.7 162.993,380.424 C 162.915,380.148 162.799,379.871 162.645,379.592 C 162.492,379.314 162.3,379.04 162.07,378.771 C 161.841,378.503 161.577,378.258 161.279,378.039 L 160.883,378.39 C 160.83,378.444 160.789,378.494 160.762,378.541 C 160.736,378.587 160.722,378.644 160.722,378.713 C 160.722,378.762 160.739,378.814 160.773,378.87 C 160.808,378.927 160.849,378.977 160.898,379.021 C 160.957,379.079 161.025,379.15 161.103,379.233 C 161.181,379.316 161.259,379.409 161.338,379.512 C 161.416,379.614 161.488,379.727 161.554,379.849 C 161.62,379.971 161.67,380.1 161.704,380.237 C 161.533,380.252 161.379,380.293 161.242,380.362 C 161.106,380.43 160.99,380.521 160.894,380.633 C 160.799,380.745 160.725,380.873 160.671,381.018 C 160.617,381.162 160.59,381.319 160.59,381.49 Z" marker-start="none" marker-end="none"/>
    <path d="M 169.964,380.2 L 167.473,380.2 L 167.473,390.879 L 169.964,390.879 L 169.964,380.2 Z" marker-start="none" marker-end="none"/>
    <path d="M 173.244,390.879 C 173.352,390.879 173.442,390.874 173.515,390.864 C 173.589,390.855 173.655,390.836 173.713,390.809 C 173.772,390.782 173.828,390.744 173.882,390.696 C 173.936,390.647 173.997,390.581 174.065,390.498 L 179.135,384.087 C 179.116,384.292 179.101,384.491 179.091,384.684 C 179.081,384.877 179.076,385.059 179.076,385.23 L 179.076,390.879 L 181.26,390.879 L 181.26,380.2 L 179.97,380.2 C 179.78,380.2 179.619,380.229 179.487,380.288 C 179.355,380.347 179.228,380.454 179.106,380.61 L 174.072,386.97 C 174.087,386.784 174.099,386.602 174.109,386.424 C 174.119,386.246 174.124,386.079 174.124,385.922 L 174.124,380.2 L 171.94,380.2 L 171.94,390.879 L 173.244,390.879 Z" marker-start="none" marker-end="none"/>
    <path d="M 190.189,382.96 C 190.248,382.96 190.306,382.949 190.365,382.927 C 190.424,382.904 190.48,382.866 190.533,382.811 L 191.515,381.756 C 191.085,381.203 190.547,380.785 189.9,380.504 C 189.253,380.223 188.487,380.082 187.603,380.082 C 186.792,380.082 186.065,380.22 185.423,380.496 C 184.781,380.772 184.236,381.153 183.789,381.639 C 183.342,382.125 182.999,382.702 182.76,383.369 C 182.52,384.036 182.401,384.76 182.401,385.541 C 182.401,386.338 182.538,387.069 182.811,387.736 C 183.085,388.403 183.467,388.978 183.958,389.462 C 184.449,389.945 185.036,390.322 185.72,390.59 C 186.404,390.859 187.158,390.993 187.984,390.993 C 188.384,390.993 188.762,390.958 189.116,390.887 C 189.47,390.816 189.801,390.718 190.109,390.593 C 190.416,390.469 190.7,390.32 190.958,390.146 C 191.217,389.972 191.447,389.78 191.647,389.57 L 190.812,388.449 C 190.758,388.38 190.695,388.318 190.621,388.262 C 190.548,388.206 190.446,388.178 190.314,388.178 C 190.226,388.178 190.143,388.197 190.065,388.236 C 189.986,388.275 189.903,388.323 189.815,388.379 C 189.728,388.435 189.631,388.496 189.526,388.562 C 189.421,388.628 189.296,388.689 189.152,388.746 C 189.008,388.802 188.84,388.849 188.647,388.889 C 188.454,388.927 188.228,388.947 187.969,388.947 C 187.52,388.947 187.109,388.868 186.738,388.709 C 186.367,388.55 186.048,388.323 185.782,388.027 C 185.516,387.732 185.308,387.374 185.159,386.954 C 185.01,386.534 184.936,386.062 184.936,385.54 C 184.936,384.992 185.01,384.506 185.159,384.081 C 185.308,383.656 185.511,383.299 185.767,383.008 C 186.024,382.717 186.323,382.496 186.665,382.345 C 187.007,382.193 187.373,382.118 187.764,382.118 C 187.989,382.118 188.194,382.129 188.379,382.151 C 188.565,382.173 188.737,382.21 188.896,382.264 C 189.055,382.318 189.206,382.387 189.35,382.473 C 189.494,382.558 189.64,382.665 189.786,382.792 C 189.845,382.841 189.908,382.881 189.977,382.913 C 190.045,382.944 190.116,382.96 190.189,382.96 Z" marker-start="none" marker-end="none"/>
    <path d="M 192.208,381.35 C 192.208,381.526 192.241,381.69 192.307,381.841 C 192.372,381.993 192.463,382.125 192.578,382.237 C 192.692,382.35 192.828,382.439 192.984,382.505 C 193.141,382.571 193.312,382.604 193.497,382.604 C 193.678,382.604 193.846,382.571 194.003,382.505 C 194.159,382.439 194.296,382.35 194.413,382.237 C 194.53,382.125 194.622,381.993 194.688,381.841 C 194.754,381.69 194.787,381.526 194.787,381.35 C 194.787,381.174 194.754,381.009 194.688,380.855 C 194.622,380.701 194.53,380.568 194.413,380.456 C 194.296,380.343 194.159,380.255 194.003,380.192 C 193.846,380.128 193.678,380.096 193.497,380.096 C 193.312,380.096 193.141,380.128 192.984,380.192 C 192.828,380.255 192.692,380.343 192.578,380.456 C 192.463,380.568 192.372,380.701 192.307,380.855 C 192.241,381.009 192.208,381.174 192.208,381.35 Z" marker-start="none" marker-end="none"/>
   </g>
  </g>
 </g>
</svg>
