<?xml version="1.0" standalone="no"?>
<!DOCTYPE svg PUBLIC "-//W3C//DTD SVG 1.1//EN" "http://www.w3.org/Graphics/SVG/1.1/DTD/svg11.dtd">
<!--Generator: Xara Designer (www.xara.com), SVG filter version: 6.2.0.0-->
<svg stroke-width="0.501" stroke-linejoin="bevel" fill-rule="evenodd" xmlns:xlink="http://www.w3.org/1999/xlink" xmlns="http://www.w3.org/2000/svg" version="1.1" overflow="visible" width="215.434pt" height="215.434pt" viewBox="0 0 215.434 215.434">
 <defs>
	</defs>
 <g id="Document" fill="none" stroke="black" font-family="Times New Roman" font-size="16" transform="scale(1 -1)">
  <g id="Spread" transform="translate(0 -215.434)">
   <g id="Layer 1">
    <path d="M 199.757,214.933 L 15.176,214.933 C 6.799,214.933 0,208.134 0,199.757 L 0,15.176 C 0,6.799 6.799,0 15.176,0 L 199.757,0 C 208.134,0 214.933,6.799 214.933,15.176 L 214.933,199.757 C 214.933,208.134 208.134,214.933 199.757,214.933 Z" stroke="#999999" fill="#ffffff" stroke-linejoin="miter" marker-start="none" marker-end="none"/>
    <g id="Group" stroke-linejoin="miter" stroke-miterlimit="79.8403193612775">
     <path d="M 21.384,158.062 C 12.487,168.602 13.812,184.388 24.364,193.271 C 34.895,202.186 50.66,200.854 59.561,190.317 C 68.475,179.776 67.139,164.002 56.586,155.099 C 46.054,146.203 30.282,147.534 21.384,158.062 Z" stroke="none" fill="#000000" stroke-width="1.039" marker-start="none" marker-end="none" stroke-miterlimit="19.9600798403194"/>
     <path d="M 22.561,159.019 C 13.674,169.564 14.99,185.316 25.534,194.234 C 36.078,203.106 51.844,201.792 60.761,191.255 C 69.655,180.717 68.322,164.934 57.775,156.037 C 47.247,147.141 31.466,148.465 22.561,159.019 Z" stroke="#b2b2b2" stroke-width="5.658" marker-start="none" marker-end="none" stroke-miterlimit="19.9600798403194"/>
    </g>
    <g id="Group_1" stroke-linejoin="miter" stroke-miterlimit="79.8403193612775">
     <path d="M 153.514,158.508 C 144.617,169.048 145.942,184.834 156.494,193.717 C 167.025,202.632 182.79,201.3 191.691,190.763 C 200.605,180.222 199.269,164.448 188.716,155.545 C 178.184,146.649 162.412,147.98 153.514,158.508 Z" stroke="none" fill="#000000" stroke-width="1.039" marker-start="none" marker-end="none" stroke-miterlimit="19.9600798403194"/>
     <path d="M 154.691,159.465 C 145.804,170.01 147.12,185.762 157.664,194.68 C 168.208,203.552 183.974,202.238 192.891,191.701 C 201.785,181.163 200.452,165.38 189.905,156.483 C 179.377,147.587 163.596,148.911 154.691,159.465 Z" stroke="#b2b2b2" stroke-width="5.658" marker-start="none" marker-end="none" stroke-miterlimit="19.9600798403194"/>
    </g>
    <text xml:space="preserve" transform="translate(164.894 164.676) scale(1 -1)" font-family="Lato Black" stroke="none" fill="#b2b2b2" stroke-width="0.773" stroke-linejoin="round" stroke-linecap="round" font-weight="bold" font-size="30.96" stroke-miterlimit="79.8403193612775"><tspan x="0" y="0">3</tspan></text>
    <path d="M 94.18,115.807 C 107.619,128.074 114.448,144.888 114.451,161.761 L 122.931,161.761 C 122.925,142.589 115.175,123.476 99.906,109.542 C 86.345,97.169 69.268,91.067 52.245,91.072 L 52.245,99.558 C 67.227,99.551 82.254,104.92 94.18,115.807 Z" fill="#ff3718" stroke-linecap="round" stroke="none" stroke-width="0.541" stroke-linejoin="round" marker-start="none" marker-end="none" stroke-miterlimit="79.8403193612775"/>
    <path d="M 14.292,95.299 L 17.337,97.417 L 20.389,99.539 L 20.39,99.592 L 47.667,99.592 L 47.666,91.056 L 20.39,91.056 L 17.337,93.176 L 14.292,95.299 Z" fill="#ff3718" stroke-linecap="round" stroke="none" stroke-width="0.103" stroke-linejoin="miter" marker-start="none" marker-end="none" stroke-miterlimit="79.8403193612775"/>
    <path d="M 14.288,106.849 L 17.335,108.969 L 20.39,111.09 L 20.39,106.849 L 20.386,102.608 L 17.334,104.73 L 14.288,106.849 Z M 20.39,111.113 L 47.667,111.114 L 47.667,102.579 L 20.39,102.579 L 20.39,111.113 Z" fill="#ffcd36" stroke-linecap="round" stroke="none" stroke-width="0.103" stroke-linejoin="miter" marker-start="none" marker-end="none" stroke-miterlimit="79.8403193612775"/>
    <path d="M 86.558,124.161 C 97.549,134.201 103.136,147.956 103.142,161.761 L 111.622,161.761 C 111.617,145.653 105.103,129.604 92.275,117.895 C 80.889,107.501 66.546,102.381 52.246,102.384 L 52.245,110.87 C 64.502,110.86 76.794,115.255 86.558,124.161 Z" fill="#ffcd36" stroke-linecap="round" stroke="none" stroke-width="0.453" stroke-linejoin="round" marker-start="none" marker-end="none" stroke-miterlimit="79.8403193612775"/>
    <g id="Group_2" stroke-linecap="round" stroke="none" fill="#00d702">
     <path d="M 14.288,118.165 L 17.334,120.28 L 20.39,122.402 L 20.39,118.161 L 20.386,113.918 L 17.334,116.038 L 14.288,118.165 Z M 20.39,122.412 L 47.667,122.411 L 47.667,113.876 L 20.39,113.876 L 20.39,122.412 Z" stroke-width="0.103" stroke-linejoin="miter" marker-start="none" marker-end="none" stroke-miterlimit="79.8403193612775"/>
     <path d="M 78.931,132.516 C 87.483,140.323 91.822,151.028 91.829,161.761 L 100.314,161.76 C 100.31,148.719 95.037,135.729 84.648,126.25 C 75.433,117.839 63.817,113.691 52.245,113.693 L 52.245,122.175 C 61.778,122.175 71.342,125.589 78.931,132.516 Z" stroke-width="0.368" stroke-linejoin="round" marker-start="none" marker-end="none" stroke-miterlimit="79.8403193612775"/>
    </g>
    <path d="M 71.31,140.871 C 77.417,146.449 80.517,154.087 80.52,161.76 L 89.007,161.761 C 88.997,151.791 84.965,141.852 77.027,134.609 C 69.977,128.17 61.101,124.999 52.245,125.003 L 52.245,133.491 C 59.052,133.484 65.884,135.926 71.31,140.871 Z" fill="#11a7e0" stroke-linecap="round" stroke="none" stroke-width="0.281" stroke-linejoin="round" marker-start="none" marker-end="none" stroke-miterlimit="79.8403193612775"/>
    <path d="M 14.292,129.218 L 17.336,131.35 L 20.389,133.491 L 20.389,133.491 L 47.666,133.491 L 47.667,124.952 L 20.39,124.952 L 20.39,124.952 L 17.335,127.082 L 14.292,129.218 Z" fill="#11a7e0" stroke-linecap="round" stroke="none" stroke-width="0.103" stroke-linejoin="miter" marker-start="none" marker-end="none" stroke-miterlimit="79.8403193612775"/>
    <g id="Group_3" stroke-linejoin="miter" stroke-miterlimit="79.8403193612775">
     <path d="M 79.602,120.402 C 75.08,125.753 75.757,133.773 81.113,138.3 C 86.47,142.816 94.489,142.143 99.013,136.786 C 103.536,131.431 102.856,123.414 97.502,118.891 C 92.145,114.367 84.127,115.043 79.602,120.402 Z" stroke="none" fill="#ffffff" stroke-width="0.526" marker-start="none" marker-end="none" stroke-miterlimit="19.9600798403194"/>
     <path d="M 80.21,120.88 C 75.683,126.234 76.357,134.25 81.717,138.774 C 87.075,143.298 95.09,142.625 99.615,137.262 C 104.142,131.907 103.458,123.89 98.107,119.364 C 92.747,114.839 84.732,115.52 80.21,120.88 Z" fill="none" stroke="#55bae6" stroke-width="2.872" marker-start="none" marker-end="none" stroke-miterlimit="19.9600798403194"/>
    </g>
    <g id="Group_4" stroke-linejoin="miter" stroke-miterlimit="79.8403193612775">
     <path d="M 21.975,103.605 C 17.451,108.961 18.13,116.978 23.485,121.506 C 28.845,126.027 36.865,125.349 41.388,119.991 C 45.916,114.638 45.233,106.616 39.877,102.097 C 34.518,97.578 26.502,98.252 21.975,103.605 Z" stroke="none" fill="#ffffff" stroke-width="0.526" marker-start="none" marker-end="none" stroke-miterlimit="19.9600798403194"/>
     <path d="M 22.582,104.089 C 18.058,109.44 18.734,117.46 24.094,121.984 C 29.453,126.505 37.468,125.831 41.991,120.471 C 46.518,115.118 45.84,107.098 40.484,102.577 C 35.121,98.052 27.105,98.728 22.582,104.089 Z" fill="none" stroke="#55bae6" stroke-width="2.872" marker-start="none" marker-end="none" stroke-miterlimit="19.9600798403194"/>
    </g>
    <text xml:space="preserve" transform="translate(80.86 123.396) scale(1 -1)" font-family="Lato Black" stroke="none" fill="#000000" stroke-width="0.387" stroke-linejoin="round" stroke-linecap="round" font-weight="bold" font-size="15.564" stroke-miterlimit="79.8403193612775"><tspan x="0" y="0">+3</tspan></text>
    <text xml:space="preserve" transform="translate(23.236 106.605) scale(1 -1)" font-family="Lato Black" stroke="none" fill="#000000" stroke-width="0.387" stroke-linejoin="round" stroke-linecap="round" font-weight="bold" font-size="15.564" stroke-miterlimit="79.8403193612775"><tspan x="0" y="0">+3</tspan></text>
    <g id="Group_5" font-size="7.995" font-family="Lato Black">
     <path d="M 90.222,200.6 C 98.074,207.227 109.821,206.236 116.448,198.387 C 123.079,190.541 122.087,178.789 114.238,172.162 C 106.388,165.532 94.639,166.523 88.012,174.378 C 81.382,182.222 82.373,193.97 90.222,200.6 Z" stroke="#ff0000" fill="#ffffff" stroke-width="4.212" stroke-linejoin="miter" marker-start="none" marker-end="none" stroke-miterlimit="79.8403193612775"/>
     <text xml:space="preserve" transform="translate(102.359 191.109) scale(1 -1)" stroke="none" fill="#000000" stroke-width="0.248" stroke-linejoin="round" stroke-linecap="round" stroke-miterlimit="79.8403193612775"><tspan x="-8.494" y="0">NO</tspan><tspan x="3.704" y="0">T</tspan><tspan x="-13.473" y="7.673">CIR</tspan><tspan x="-0.544" y="7.673">CU-</tspan><tspan x="-7.679" y="15.346">LAR</tspan></text>
    </g>
    <g id="Group_6" stroke="#f0942b" stroke-linejoin="miter" stroke-linecap="round">
     <path d="M 15.578,68.39 L 15.578,34.498 L 119.166,34.498 L 119.166,68.39 L 15.578,68.39 Z" fill="#f0942b" stroke-width="1.738" marker-start="none" marker-end="none" stroke-miterlimit="79.8403193612775"/>
     <path d="M 15.578,69.733 L 15.578,59.923 C 15.578,57.352 17.662,55.275 20.224,55.275 L 114.516,55.275 C 117.078,55.275 119.166,57.352 119.166,59.923 L 119.166,69.733 C 119.166,72.309 117.078,74.387 114.516,74.387 L 20.224,74.387 C 17.662,74.387 15.578,72.309 15.578,69.733 Z" fill="#f0942b" stroke-width="1.738" marker-start="none" marker-end="none" stroke-miterlimit="79.8403193612775"/>
     <path d="M 16.275,40.84 L 16.275,23.195 C 16.275,18.582 20.019,14.836 24.637,14.836 L 191.683,14.836 C 196.296,14.836 200.044,18.582 200.044,23.195 L 200.044,40.84 C 200.044,45.458 196.296,49.206 191.683,49.206 L 24.637,49.206 C 20.019,49.206 16.275,45.458 16.275,40.84 Z" fill="#ffffff" stroke-width="3.13" marker-start="none" marker-end="none" stroke-miterlimit="79.8403193612775"/>
    </g>
    <g id="Group_7" stroke-linejoin="miter" stroke-miterlimit="79.8403193612775">
     <path d="M 169.72,93.739 C 163.82,100.717 164.699,111.177 171.694,117.086 C 178.676,122.978 189.129,122.099 195.033,115.112 C 200.942,108.12 200.056,97.666 193.059,91.761 C 186.077,85.866 175.62,86.745 169.72,93.739 Z" stroke="none" fill="#000000" stroke-width="0.686" marker-start="none" marker-end="none" stroke-miterlimit="19.9600798403194"/>
     <path d="M 170.498,94.348 C 164.607,101.346 165.479,111.805 172.472,117.698 C 179.461,123.607 189.913,122.724 195.829,115.731 C 201.726,108.749 200.841,98.297 193.847,92.392 C 186.868,86.486 176.404,87.365 170.498,94.348 Z" stroke="#b2b2b2" stroke-width="3.752" marker-start="none" marker-end="none" stroke-miterlimit="19.9600798403194"/>
    </g>
    <g id="Group_8" stroke-linejoin="miter" stroke-miterlimit="79.8403193612775">
     <path d="M 129.035,93.726 C 123.135,100.715 124.014,111.183 131.011,117.074 C 137.994,122.985 148.448,122.102 154.35,115.114 C 160.261,108.125 159.375,97.665 152.377,91.761 C 145.394,85.862 134.935,86.745 129.035,93.726 Z" stroke="none" fill="#ffffff" stroke-width="0.689" marker-start="none" marker-end="none" stroke-miterlimit="19.9600798403194"/>
     <path d="M 129.815,94.361 C 123.922,101.353 124.795,111.799 131.787,117.712 C 138.778,123.596 149.233,122.724 155.146,115.736 C 161.044,108.749 160.16,98.283 153.166,92.383 C 146.185,86.484 135.72,87.362 129.815,94.361 Z" stroke="#55bae6" stroke-width="3.752" marker-start="none" marker-end="none" stroke-miterlimit="19.9600798403194"/>
    </g>
    <g id="Group_9" stroke-linejoin="miter" stroke-miterlimit="79.8403193612775">
     <path d="M 153.514,158.507 C 144.617,169.047 145.942,184.833 156.494,193.717 C 167.025,202.631 182.79,201.299 191.691,190.761 C 200.605,180.221 199.269,164.447 188.715,155.544 C 178.184,146.648 162.412,147.979 153.514,158.507 Z" stroke="none" fill="#ffffff" stroke-width="1.039" marker-start="none" marker-end="none" stroke-miterlimit="19.9600798403194"/>
     <path d="M 154.691,159.464 C 145.804,170.009 147.12,185.762 157.664,194.679 C 168.207,203.552 183.974,202.237 192.891,191.699 C 201.785,181.162 200.452,165.379 189.905,156.482 C 179.377,147.586 163.596,148.91 154.691,159.464 Z" stroke="#55bae6" stroke-width="5.658" marker-start="none" marker-end="none" stroke-miterlimit="19.9600798403194"/>
    </g>
    <text xml:space="preserve" transform="translate(176.476 97.944) scale(1 -1)" font-family="Lato Black" stroke="none" fill="#b2b2b2" stroke-width="0.485" stroke-linejoin="round" stroke-linecap="round" font-weight="bold" font-size="19.491" stroke-miterlimit="79.8403193612775"><tspan x="0" y="0">3</tspan></text>
    <text xml:space="preserve" transform="translate(136.721 97.944) scale(1 -1)" font-family="Lato Black" stroke="none" fill="#000000" stroke-width="0.485" stroke-linejoin="round" stroke-linecap="round" font-weight="bold" font-size="19.491" stroke-miterlimit="79.8403193612775"><tspan x="0" y="0">6</tspan></text>
    <text xml:space="preserve" transform="translate(34.828 56.53) scale(1 -1)" font-family="Lato Black" stroke="none" fill="#ffffff" stroke-width="0.319" stroke-linejoin="round" stroke-linecap="round" font-weight="bold" font-size="12.785" stroke-miterlimit="79.8403193612775"><tspan x="0" y="0">RESOUR</tspan><tspan x="50.348" y="0">CE</tspan></text>
    <text xml:space="preserve" transform="translate(60.59 26.88) scale(1 -1)" font-family="Lato Black" stroke="none" fill="#000000" stroke-width="0.365" stroke-linejoin="round" stroke-linecap="round" font-weight="bold" font-size="14.654" stroke-miterlimit="79.8403193612775"><tspan x="0" y="0">OIL &amp; GAS, INC.</tspan></text>
   </g>
  </g>
 </g>
</svg>
