<?xml version="1.0" standalone="no"?>
<!DOCTYPE svg PUBLIC "-//W3C//DTD SVG 1.1//EN" "http://www.w3.org/Graphics/SVG/1.1/DTD/svg11.dtd">
<!--Generator: Xara Designer (www.xara.com), SVG filter version: 6.6.0.0-->
<svg fill="none" fill-rule="evenodd" stroke="black" stroke-width="0.501" stroke-linejoin="bevel" stroke-miterlimit="10" font-family="Times New Roman" font-size="16" style="font-variant-ligatures:none" xmlns:xlink="http://www.w3.org/1999/xlink" xmlns="http://www.w3.org/2000/svg" version="1.1" overflow="visible" width="215.435pt" height="215.436pt" viewBox="526.569 -570.47 215.435 215.436">
 <defs>
	</defs>
 <g id="Page background" transform="scale(1 -1)"/>
 <g id="Layer 1" transform="scale(1 -1)">
  <g id="Group">
   <g id="Group_1" stroke-linejoin="miter" stroke="none" stroke-width="0.802">
    <path d="M 526.569,555.257 L 526.569,370.247 C 526.569,361.85 533.384,355.034 541.781,355.034 L 726.792,355.034 C 735.189,355.034 742.004,361.85 742.004,370.247 L 742.004,555.257 C 742.004,563.654 735.189,570.47 726.792,570.47 L 541.781,570.47 C 533.384,570.47 526.569,563.654 526.569,555.257 Z" fill="#7f7f7f" marker-start="none" marker-end="none"/>
    <path d="M 527.278,554.648 L 527.278,370.856 C 527.278,362.514 534.048,355.743 542.39,355.743 L 726.183,355.743 C 734.525,355.743 741.295,362.514 741.295,370.856 L 741.295,554.648 C 741.295,562.99 734.525,569.761 726.183,569.761 L 542.39,569.761 C 534.048,569.761 527.278,562.99 527.278,554.648 Z" marker-start="none" marker-end="none"/>
    <path d="M 527.278,554.648 L 527.278,370.856 C 527.278,362.514 534.048,355.743 542.39,355.743 L 726.183,355.743 C 734.525,355.743 741.295,362.514 741.295,370.856 L 741.295,554.648 C 741.295,562.99 734.525,569.761 726.183,569.761 L 542.39,569.761 C 534.048,569.761 527.278,562.99 527.278,554.648 Z" fill="#ffffff" marker-start="none" marker-end="none"/>
   </g>
   <g id="Group_2" stroke-linejoin="miter">
    <path d="M 680.054,511.8 C 671.157,522.34 672.482,538.126 683.034,547.009 C 693.565,555.924 709.33,554.592 718.231,544.055 C 727.145,533.514 725.809,517.74 715.256,508.837 C 704.724,499.941 688.952,501.272 680.054,511.8 Z" stroke="none" fill="#000000" stroke-width="1.039" marker-start="none" marker-end="none"/>
    <path d="M 681.231,512.757 C 672.344,523.302 673.66,539.054 684.204,547.972 C 694.748,556.844 710.514,555.53 719.431,544.993 C 728.325,534.455 726.992,518.672 716.445,509.775 C 705.917,500.879 690.136,502.203 681.231,512.757 Z" stroke="#b2b2b2" stroke-width="5.658" marker-start="none" marker-end="none"/>
   </g>
   <g id="Group_3" stroke-linejoin="miter">
    <path d="M 549.011,511.37 C 540.114,521.91 541.439,537.696 551.991,546.579 C 562.522,555.494 578.287,554.162 587.188,543.625 C 596.102,533.084 594.766,517.31 584.213,508.407 C 573.681,499.511 557.909,500.842 549.011,511.37 Z" stroke="none" fill="#000000" stroke-width="1.039" marker-start="none" marker-end="none"/>
    <path d="M 550.188,512.327 C 541.301,522.872 542.617,538.624 553.161,547.542 C 563.705,556.414 579.471,555.1 588.388,544.563 C 597.282,534.025 595.949,518.242 585.402,509.345 C 574.874,500.449 559.093,501.773 550.188,512.327 Z" stroke="#b2b2b2" stroke-width="5.658" marker-start="none" marker-end="none"/>
   </g>
   <path d="M 621.807,469.115 C 635.246,481.382 642.075,498.196 642.078,515.069 L 650.558,515.069 C 650.552,495.897 642.802,476.784 627.533,462.85 C 613.972,450.477 596.895,444.375 579.872,444.38 L 579.872,452.866 C 594.854,452.859 609.881,458.228 621.807,469.115 Z" fill="#e5e5e5" stroke-linecap="round" stroke="none" stroke-width="0.541" stroke-linejoin="round" marker-start="none" marker-end="none"/>
   <path d="M 541.919,448.607 L 544.964,450.725 L 548.016,452.847 L 548.017,452.9 L 575.294,452.9 L 575.293,444.364 L 548.017,444.364 L 544.964,446.484 L 541.919,448.607 Z" fill="#e5e5e5" stroke-linecap="round" stroke="none" stroke-width="0.103" stroke-linejoin="miter" marker-start="none" marker-end="none"/>
   <path d="M 541.915,460.157 L 544.962,462.277 L 548.017,464.398 L 548.017,460.157 L 548.013,455.916 L 544.961,458.038 L 541.915,460.157 Z M 548.017,464.421 L 575.294,464.422 L 575.294,455.887 L 548.017,455.887 L 548.017,464.421 Z" fill="#e5e5e5" stroke-linecap="round" stroke="none" stroke-width="0.103" stroke-linejoin="miter" marker-start="none" marker-end="none"/>
   <path d="M 614.185,477.469 C 625.176,487.509 630.763,501.264 630.769,515.069 L 639.249,515.069 C 639.244,498.961 632.73,482.912 619.902,471.203 C 608.516,460.809 594.173,455.689 579.873,455.692 L 579.872,464.178 C 592.129,464.168 604.421,468.563 614.185,477.469 Z" fill="#e5e5e5" stroke-linecap="round" stroke="none" stroke-width="0.453" stroke-linejoin="round" marker-start="none" marker-end="none"/>
   <g id="Group_4" fill="#00d702" stroke-linecap="round" stroke="none">
    <path d="M 541.915,471.473 L 544.961,473.588 L 548.017,475.71 L 548.017,471.469 L 548.013,467.226 L 544.961,469.346 L 541.915,471.473 Z M 548.017,475.72 L 575.294,475.719 L 575.294,467.184 L 548.017,467.184 L 548.017,475.72 Z" stroke-width="0.103" stroke-linejoin="miter" marker-start="none" marker-end="none"/>
    <path d="M 606.558,485.824 C 615.11,493.631 619.449,504.336 619.456,515.069 L 627.941,515.068 C 627.937,502.027 622.664,489.037 612.275,479.558 C 603.06,471.147 591.444,466.999 579.872,467.001 L 579.872,475.483 C 589.405,475.483 598.969,478.897 606.558,485.824 Z" stroke-width="0.368" stroke-linejoin="round" marker-start="none" marker-end="none"/>
   </g>
   <path d="M 598.937,494.179 C 605.044,499.757 608.144,507.395 608.147,515.068 L 616.634,515.069 C 616.624,505.099 612.592,495.16 604.654,487.917 C 597.604,481.478 588.728,478.307 579.872,478.311 L 579.872,486.799 C 586.679,486.792 593.511,489.234 598.937,494.179 Z" fill="#e5e5e5" stroke-linecap="round" stroke="none" stroke-width="0.281" stroke-linejoin="round" marker-start="none" marker-end="none"/>
   <path d="M 541.919,482.526 L 544.963,484.658 L 548.016,486.799 L 548.016,486.799 L 575.293,486.799 L 575.294,478.26 L 548.017,478.26 L 548.017,478.26 L 544.962,480.39 L 541.919,482.526 Z" fill="#e5e5e5" stroke-linecap="round" stroke="none" stroke-width="0.103" stroke-linejoin="miter" marker-start="none" marker-end="none"/>
   <g id="Group_5" stroke-linejoin="miter">
    <path d="M 607.229,473.71 C 602.707,479.061 603.384,487.081 608.74,491.608 C 614.097,496.124 622.116,495.451 626.64,490.094 C 631.163,484.739 630.483,476.722 625.129,472.199 C 619.772,467.675 611.754,468.351 607.229,473.71 Z" stroke="none" fill="#ffffff" stroke-width="0.526" marker-start="none" marker-end="none"/>
    <path d="M 607.837,474.188 C 603.31,479.542 603.984,487.558 609.344,492.082 C 614.702,496.606 622.717,495.933 627.242,490.57 C 631.769,485.215 631.085,477.198 625.734,472.672 C 620.374,468.147 612.359,468.828 607.837,474.188 Z" fill="none" stroke="#539bc5" stroke-width="2.872" marker-start="none" marker-end="none"/>
   </g>
   <g id="Group_6" stroke-linejoin="miter">
    <path d="M 549.602,456.913 C 545.078,462.269 545.757,470.286 551.112,474.814 C 556.472,479.335 564.492,478.657 569.015,473.299 C 573.543,467.946 572.86,459.924 567.504,455.405 C 562.145,450.886 554.129,451.56 549.602,456.913 Z" stroke="none" fill="#ffffff" stroke-width="0.526" marker-start="none" marker-end="none"/>
    <path d="M 550.209,457.397 C 545.685,462.748 546.361,470.768 551.721,475.292 C 557.08,479.813 565.095,479.139 569.618,473.779 C 574.145,468.426 573.467,460.406 568.111,455.885 C 562.748,451.36 554.732,452.036 550.209,457.397 Z" fill="none" stroke="#539bc5" stroke-width="2.872" marker-start="none" marker-end="none"/>
   </g>
   <g id="Group_7" fill-rule="nonzero" stroke-linejoin="round" stroke-linecap="round" stroke="none" stroke-width="0.387" fill="#000000">
    <g id="Group_8">
     <path d="M 613.966,485.881 L 613.966,482.799 L 616.845,482.799 L 616.845,481.07 L 613.966,481.07 L 613.966,477.973 L 612.005,477.973 L 612.005,481.07 L 609.141,481.07 L 609.141,482.799 L 612.005,482.799 L 612.005,485.881 L 613.966,485.881 Z" marker-start="none" marker-end="none"/>
     <path d="M 619.476,478.448 L 621.655,478.448 L 621.655,484.168 C 621.655,484.449 621.663,484.742 621.678,485.048 L 620.394,483.981 C 620.311,483.914 620.228,483.866 620.145,483.837 C 620.062,483.809 619.982,483.795 619.904,483.795 C 619.769,483.795 619.649,483.824 619.542,483.884 C 619.436,483.944 619.357,484.007 619.305,484.075 L 618.542,485.087 L 622.075,488.052 L 624.068,488.052 L 624.068,478.448 L 625.935,478.448 L 625.935,476.704 L 619.476,476.704 L 619.476,478.448 Z" marker-start="none" marker-end="none"/>
    </g>
   </g>
   <g id="Group_9" fill-rule="nonzero" stroke-linejoin="round" stroke-linecap="round" stroke="none" stroke-width="0.387" fill="#000000">
    <g id="Group_10">
     <path d="M 564.117,465.591 C 564.117,464.6 564.011,463.741 563.798,463.015 C 563.585,462.288 563.291,461.686 562.915,461.209 C 562.539,460.732 562.092,460.376 561.576,460.143 C 561.06,459.909 560.501,459.793 559.899,459.793 C 559.297,459.793 558.741,459.909 558.23,460.143 C 557.719,460.376 557.277,460.732 556.903,461.209 C 556.529,461.686 556.238,462.288 556.027,463.015 C 555.817,463.741 555.712,464.6 555.712,465.591 C 555.712,466.582 555.817,467.441 556.027,468.168 C 556.238,468.894 556.529,469.496 556.903,469.973 C 557.277,470.451 557.719,470.805 558.23,471.036 C 558.741,471.267 559.297,471.382 559.899,471.382 C 560.501,471.382 561.06,471.267 561.576,471.036 C 562.092,470.805 562.539,470.451 562.915,469.973 C 563.291,469.496 563.585,468.894 563.798,468.168 C 564.011,467.441 564.117,466.582 564.117,465.591 Z M 561.627,465.591 C 561.627,466.375 561.577,467.017 561.479,467.518 C 561.38,468.019 561.249,468.412 561.086,468.697 C 560.922,468.982 560.737,469.178 560.529,469.285 C 560.322,469.391 560.112,469.444 559.899,469.444 C 559.686,469.444 559.478,469.391 559.273,469.285 C 559.068,469.178 558.886,468.982 558.728,468.697 C 558.57,468.412 558.443,468.019 558.347,467.518 C 558.251,467.017 558.203,466.375 558.203,465.591 C 558.203,464.803 558.251,464.159 558.347,463.661 C 558.443,463.163 558.57,462.77 558.728,462.482 C 558.886,462.194 559.068,461.996 559.273,461.89 C 559.478,461.784 559.686,461.731 559.899,461.731 C 560.112,461.731 560.322,461.784 560.529,461.89 C 560.737,461.996 560.922,462.194 561.086,462.482 C 561.249,462.77 561.38,463.163 561.479,463.661 C 561.577,464.159 561.627,464.803 561.627,465.591 Z" marker-start="none" marker-end="none"/>
    </g>
   </g>
   <g id="Group_11" stroke="#f0942b" stroke-linejoin="miter" stroke-linecap="round">
    <path d="M 542.118,421.682 L 542.118,387.79 L 645.706,387.79 L 645.706,421.682 L 542.118,421.682 Z" fill="#f0942b" stroke-width="1.738" marker-start="none" marker-end="none"/>
    <path d="M 542.118,423.025 L 542.118,413.215 C 542.118,410.644 544.202,408.567 546.764,408.567 L 641.056,408.567 C 643.618,408.567 645.706,410.644 645.706,413.215 L 645.706,423.025 C 645.706,425.601 643.618,427.679 641.056,427.679 L 546.764,427.679 C 544.202,427.679 542.118,425.601 542.118,423.025 Z" fill="#f0942b" stroke-width="1.738" marker-start="none" marker-end="none"/>
    <path d="M 542.815,394.132 L 542.815,376.487 C 542.815,371.874 546.559,368.128 551.177,368.128 L 718.223,368.128 C 722.836,368.128 726.584,371.874 726.584,376.487 L 726.584,394.132 C 726.584,398.75 722.836,402.498 718.223,402.498 L 551.177,402.498 C 546.559,402.498 542.815,398.75 542.815,394.132 Z" fill="#ffffff" stroke-width="3.13" marker-start="none" marker-end="none"/>
   </g>
   <g id="Group_12" stroke-linejoin="miter">
    <path d="M 696.26,447.031 C 690.36,454.009 691.239,464.469 698.234,470.378 C 705.216,476.27 715.669,475.391 721.573,468.404 C 727.482,461.412 726.596,450.958 719.599,445.053 C 712.617,439.158 702.16,440.037 696.26,447.031 Z" stroke="none" fill="#000000" stroke-width="0.686" marker-start="none" marker-end="none"/>
    <path d="M 697.038,447.64 C 691.147,454.638 692.019,465.097 699.012,470.99 C 706.001,476.899 716.453,476.016 722.369,469.023 C 728.266,462.041 727.381,451.589 720.387,445.684 C 713.408,439.778 702.944,440.657 697.038,447.64 Z" stroke="#b2b2b2" stroke-width="3.752" marker-start="none" marker-end="none"/>
   </g>
   <g id="Group_13" stroke-linejoin="miter">
    <path d="M 655.575,447.018 C 649.675,454.007 650.554,464.475 657.551,470.366 C 664.534,476.277 674.988,475.394 680.89,468.406 C 686.801,461.417 685.915,450.957 678.917,445.053 C 671.934,439.154 661.475,440.037 655.575,447.018 Z" stroke="none" fill="#ffffff" stroke-width="0.689" marker-start="none" marker-end="none"/>
    <path d="M 656.355,447.653 C 650.462,454.645 651.335,465.091 658.327,471.004 C 665.318,476.888 675.773,476.016 681.686,469.028 C 687.584,462.041 686.7,451.575 679.706,445.675 C 672.725,439.776 662.26,440.654 656.355,447.653 Z" stroke="#539bc5" stroke-width="3.752" marker-start="none" marker-end="none"/>
   </g>
   <g id="Group_14" stroke-linejoin="miter">
    <path d="M 680.054,511.799 C 671.157,522.339 672.482,538.125 683.034,547.009 C 693.565,555.923 709.33,554.591 718.231,544.053 C 727.145,533.513 725.809,517.739 715.255,508.836 C 704.724,499.94 688.952,501.271 680.054,511.799 Z" stroke="none" fill="#ffffff" stroke-width="1.039" marker-start="none" marker-end="none"/>
    <path d="M 681.231,512.756 C 672.344,523.301 673.66,539.054 684.204,547.971 C 694.747,556.844 710.514,555.529 719.431,544.991 C 728.325,534.454 726.992,518.671 716.445,509.774 C 705.917,500.878 690.136,502.202 681.231,512.756 Z" stroke="#539bc5" stroke-width="5.658" marker-start="none" marker-end="none"/>
   </g>
   <g id="Group_15" fill-rule="nonzero" stroke-linejoin="round" stroke-linecap="round" stroke="none" stroke-width="0.485" fill="#b2b2b2">
    <g id="Group_16">
     <path d="M 708.883,465.592 C 709.584,465.592 710.216,465.49 710.778,465.285 C 711.34,465.081 711.819,464.796 712.216,464.433 C 712.612,464.069 712.916,463.635 713.127,463.132 C 713.338,462.628 713.444,462.074 713.444,461.47 C 713.444,460.95 713.371,460.469 713.224,460.027 C 713.078,459.585 712.878,459.165 712.625,458.765 C 712.372,458.366 712.078,457.979 711.743,457.605 C 711.408,457.232 711.053,456.853 710.676,456.47 L 707.898,453.624 C 708.256,453.729 708.608,453.812 708.956,453.874 C 709.303,453.937 709.63,453.967 709.935,453.967 L 712.586,453.967 C 712.911,453.967 713.167,453.878 713.356,453.699 C 713.544,453.52 713.639,453.284 713.639,452.992 L 713.639,451.236 L 703.659,451.236 L 703.659,452.211 C 703.659,452.399 703.698,452.6 703.776,452.815 C 703.854,453.029 703.991,453.224 704.185,453.4 L 708.279,457.523 C 708.629,457.874 708.935,458.209 709.195,458.527 C 709.454,458.845 709.669,459.159 709.838,459.467 C 710.007,459.776 710.133,460.085 710.218,460.393 C 710.302,460.702 710.345,461.029 710.345,461.373 C 710.345,461.938 710.21,462.372 709.94,462.674 C 709.67,462.976 709.26,463.128 708.707,463.128 C 708.48,463.128 708.272,463.095 708.084,463.03 C 707.895,462.965 707.726,462.877 707.577,462.767 C 707.427,462.657 707.299,462.527 707.192,462.377 C 707.085,462.228 706.999,462.065 706.934,461.89 C 706.83,461.598 706.698,461.387 706.539,461.257 C 706.38,461.127 706.164,461.062 705.891,461.062 C 705.826,461.062 705.756,461.065 705.681,461.071 C 705.607,461.078 705.53,461.087 705.452,461.1 L 703.854,461.378 C 703.958,462.087 704.158,462.705 704.453,463.232 C 704.749,463.759 705.116,464.197 705.555,464.549 C 705.993,464.9 706.495,465.161 707.06,465.334 C 707.626,465.506 708.233,465.592 708.883,465.592 Z" marker-start="none" marker-end="none"/>
    </g>
   </g>
   <g id="Group_17" fill-rule="nonzero" stroke-linejoin="round" stroke-linecap="round" stroke="none" stroke-width="0.485" fill="#000000">
    <g id="Group_18">
     <path d="M 669.401,465.592 C 670.102,465.592 670.726,465.493 671.272,465.294 C 671.817,465.096 672.279,464.827 672.656,464.488 C 673.032,464.149 673.318,463.757 673.513,463.31 C 673.708,462.864 673.806,462.393 673.806,461.898 C 673.806,461.449 673.76,461.053 673.669,460.71 C 673.578,460.368 673.443,460.072 673.265,459.821 C 673.086,459.57 672.865,459.357 672.602,459.181 C 672.339,459.005 672.038,458.859 671.701,458.741 C 673.273,458.197 674.059,457.13 674.059,455.542 C 674.059,454.79 673.922,454.136 673.65,453.578 C 673.377,453.02 673.011,452.557 672.553,452.188 C 672.095,451.818 671.564,451.541 670.96,451.356 C 670.356,451.171 669.725,451.079 669.069,451.079 C 668.394,451.079 667.793,451.152 667.266,451.298 C 666.74,451.444 666.272,451.672 665.863,451.98 C 665.454,452.289 665.095,452.683 664.786,453.164 C 664.478,453.645 664.21,454.216 663.982,454.879 L 665.327,455.426 C 665.444,455.479 665.559,455.514 665.673,455.534 C 665.787,455.553 665.899,455.563 666.009,455.563 C 666.217,455.563 666.404,455.522 666.57,455.441 C 666.735,455.36 666.86,455.241 666.945,455.085 C 667.237,454.545 667.547,454.153 667.875,453.91 C 668.204,453.666 668.588,453.544 669.03,453.544 C 669.368,453.544 669.662,453.601 669.912,453.715 C 670.162,453.828 670.37,453.974 670.536,454.153 C 670.702,454.332 670.827,454.536 670.911,454.763 C 670.996,454.991 671.038,455.222 671.038,455.456 C 671.038,455.761 671.017,456.036 670.975,456.28 C 670.932,456.524 670.814,456.734 670.619,456.909 C 670.424,457.085 670.13,457.22 669.737,457.314 C 669.344,457.408 668.796,457.455 668.095,457.455 L 668.095,459.54 C 668.686,459.54 669.163,459.585 669.527,459.676 C 669.891,459.767 670.172,459.892 670.37,460.052 C 670.568,460.211 670.7,460.404 670.765,460.632 C 670.83,460.859 670.862,461.109 670.862,461.382 C 670.862,461.941 670.728,462.372 670.458,462.674 C 670.188,462.976 669.777,463.128 669.225,463.128 C 668.998,463.128 668.79,463.095 668.601,463.03 C 668.413,462.965 668.244,462.877 668.095,462.767 C 667.945,462.656 667.817,462.526 667.71,462.377 C 667.603,462.227 667.517,462.065 667.452,461.889 C 667.348,461.597 667.216,461.386 667.057,461.256 C 666.898,461.126 666.682,461.06 666.409,461.06 C 666.344,461.06 666.274,461.064 666.199,461.07 C 666.125,461.077 666.048,461.086 665.97,461.099 L 664.372,461.382 C 664.476,462.09 664.676,462.708 664.971,463.234 C 665.267,463.76 665.634,464.199 666.073,464.55 C 666.511,464.9 667.013,465.162 667.578,465.334 C 668.143,465.506 668.751,465.592 669.401,465.592 Z" marker-start="none" marker-end="none"/>
    </g>
   </g>
   <g id="Group_19" fill-rule="nonzero" stroke-linejoin="round" stroke-linecap="round" stroke="none" stroke-width="0.319" fill="#ffffff">
    <g id="Group_20">
     <path d="M 564.296,413.268 L 564.296,409.822 L 562.135,409.822 L 562.135,419.136 L 565.165,419.136 C 565.838,419.136 566.413,419.067 566.888,418.928 C 567.363,418.789 567.751,418.596 568.051,418.349 C 568.352,418.101 568.57,417.809 568.706,417.472 C 568.843,417.135 568.911,416.768 568.911,416.371 C 568.911,416.068 568.871,415.782 568.79,415.513 C 568.709,415.245 568.588,414.996 568.428,414.768 C 568.269,414.539 568.073,414.336 567.84,414.156 C 567.608,413.977 567.341,413.83 567.038,413.715 C 567.183,413.643 567.318,413.553 567.444,413.447 C 567.57,413.34 567.679,413.211 567.773,413.057 L 569.755,409.822 L 567.799,409.822 C 567.437,409.822 567.177,409.958 567.019,410.231 L 565.472,412.935 C 565.404,413.055 565.324,413.14 565.232,413.191 C 565.141,413.242 565.012,413.268 564.845,413.268 L 564.296,413.268 Z M 564.296,414.757 L 565.165,414.757 C 565.459,414.757 565.71,414.794 565.916,414.869 C 566.123,414.943 566.292,415.047 566.424,415.179 C 566.556,415.311 566.652,415.465 566.712,415.642 C 566.772,415.819 566.802,416.01 566.802,416.215 C 566.802,416.624 566.668,416.944 566.402,417.174 C 566.136,417.404 565.723,417.519 565.165,417.519 L 564.296,417.519 L 564.296,414.757 Z" marker-start="none" marker-end="none"/>
     <path d="M 576.634,419.139 L 576.634,417.475 L 572.812,417.475 L 572.812,415.3 L 575.739,415.3 L 575.739,413.702 L 572.812,413.702 L 572.812,411.486 L 576.634,411.486 L 576.634,409.822 L 570.638,409.822 L 570.638,419.139 L 576.634,419.139 Z" marker-start="none" marker-end="none"/>
     <path d="M 583.052,417.244 C 582.988,417.141 582.921,417.065 582.85,417.014 C 582.78,416.962 582.689,416.937 582.579,416.937 C 582.481,416.937 582.375,416.968 582.262,417.03 C 582.149,417.091 582.021,417.161 581.879,417.237 C 581.736,417.314 581.573,417.383 581.39,417.445 C 581.206,417.507 580.998,417.538 580.763,417.538 C 580.358,417.538 580.057,417.452 579.859,417.279 C 579.661,417.106 579.561,416.873 579.561,416.579 C 579.561,416.391 579.621,416.236 579.74,416.112 C 579.86,415.989 580.016,415.882 580.21,415.792 C 580.404,415.703 580.626,415.621 580.875,415.546 C 581.124,415.472 581.379,415.389 581.639,415.297 C 581.899,415.205 582.154,415.098 582.403,414.974 C 582.652,414.851 582.874,414.693 583.068,414.501 C 583.262,414.309 583.418,414.076 583.538,413.801 C 583.657,413.526 583.717,413.195 583.717,412.807 C 583.717,412.376 583.642,411.974 583.493,411.599 C 583.344,411.224 583.127,410.896 582.844,410.617 C 582.561,410.338 582.211,410.119 581.796,409.959 C 581.38,409.799 580.908,409.719 580.38,409.719 C 580.09,409.719 579.795,409.749 579.494,409.809 C 579.194,409.868 578.903,409.952 578.622,410.061 C 578.341,410.17 578.076,410.299 577.829,410.448 C 577.582,410.597 577.367,410.763 577.183,410.947 L 577.823,411.957 C 577.87,412.034 577.936,412.095 578.021,412.142 C 578.106,412.189 578.198,412.213 578.296,412.213 C 578.424,412.213 578.553,412.172 578.683,412.091 C 578.812,412.01 578.96,411.921 579.124,411.823 C 579.288,411.725 579.476,411.635 579.689,411.554 C 579.902,411.473 580.154,411.433 580.444,411.433 C 580.836,411.433 581.14,411.519 581.358,411.691 C 581.575,411.864 581.684,412.138 581.684,412.513 C 581.684,412.731 581.624,412.907 581.505,413.044 C 581.385,413.18 581.229,413.293 581.035,413.383 C 580.841,413.472 580.62,413.551 580.373,413.619 C 580.126,413.687 579.873,413.763 579.613,413.846 C 579.353,413.929 579.099,414.031 578.852,414.153 C 578.605,414.274 578.384,414.434 578.19,414.632 C 577.996,414.831 577.84,415.078 577.72,415.374 C 577.601,415.67 577.541,416.036 577.541,416.471 C 577.541,416.82 577.612,417.161 577.752,417.494 C 577.893,417.826 578.1,418.122 578.372,418.382 C 578.645,418.642 578.98,418.85 579.376,419.006 C 579.772,419.161 580.226,419.239 580.738,419.239 C 581.023,419.239 581.301,419.217 581.572,419.172 C 581.842,419.127 582.099,419.061 582.342,418.973 C 582.585,418.886 582.812,418.782 583.023,418.66 C 583.234,418.539 583.422,418.401 583.589,418.248 L 583.052,417.244 Z" marker-start="none" marker-end="none"/>
     <path d="M 593.982,414.482 C 593.982,413.809 593.866,413.182 593.634,412.603 C 593.402,412.023 593.075,411.519 592.653,411.09 C 592.231,410.662 591.723,410.326 591.128,410.083 C 590.534,409.84 589.874,409.719 589.15,409.719 C 588.425,409.719 587.765,409.84 587.168,410.083 C 586.571,410.326 586.061,410.662 585.637,411.09 C 585.213,411.519 584.885,412.023 584.653,412.603 C 584.42,413.182 584.304,413.809 584.304,414.482 C 584.304,415.156 584.42,415.782 584.653,416.362 C 584.885,416.942 585.213,417.444 585.637,417.871 C 586.061,418.297 586.571,418.632 587.168,418.875 C 587.765,419.117 588.425,419.239 589.15,419.239 C 589.874,419.239 590.534,419.116 591.128,418.871 C 591.723,418.626 592.231,418.291 592.653,417.864 C 593.075,417.438 593.402,416.935 593.634,416.355 C 593.866,415.776 593.982,415.151 593.982,414.482 Z M 591.771,414.482 C 591.771,414.942 591.711,415.356 591.592,415.725 C 591.472,416.093 591.301,416.406 591.077,416.661 C 590.853,416.917 590.579,417.113 590.256,417.249 C 589.932,417.385 589.563,417.453 589.15,417.454 C 588.732,417.453 588.36,417.385 588.034,417.249 C 587.708,417.113 587.433,416.917 587.21,416.661 C 586.986,416.406 586.814,416.093 586.695,415.725 C 586.576,415.356 586.516,414.942 586.516,414.482 C 586.516,414.018 586.576,413.601 586.695,413.233 C 586.814,412.864 586.986,412.552 587.21,412.297 C 587.433,412.041 587.708,411.846 588.034,411.712 C 588.36,411.578 588.732,411.511 589.15,411.511 C 589.563,411.511 589.932,411.578 590.256,411.712 C 590.579,411.846 590.853,412.041 591.077,412.297 C 591.301,412.552 591.472,412.864 591.592,413.233 C 591.711,413.601 591.771,414.018 591.771,414.482 Z" marker-start="none" marker-end="none"/>
     <path d="M 598.89,411.529 C 599.18,411.529 599.439,411.577 599.667,411.673 C 599.895,411.769 600.087,411.906 600.245,412.086 C 600.403,412.265 600.523,412.483 600.606,412.741 C 600.689,412.999 600.731,413.292 600.731,413.62 L 600.731,419.137 L 602.892,419.137 L 602.892,413.619 C 602.892,413.048 602.799,412.524 602.613,412.046 C 602.428,411.569 602.163,411.158 601.818,410.812 C 601.472,410.467 601.053,410.199 600.558,410.007 C 600.064,409.815 599.508,409.719 598.89,409.719 C 598.268,409.719 597.709,409.815 597.215,410.007 C 596.721,410.199 596.301,410.467 595.956,410.812 C 595.611,411.158 595.346,411.569 595.163,412.046 C 594.98,412.524 594.888,413.048 594.888,413.619 L 594.888,419.137 L 597.049,419.137 L 597.049,413.626 C 597.049,413.298 597.09,413.005 597.174,412.747 C 597.257,412.489 597.377,412.27 597.535,412.089 C 597.692,411.908 597.885,411.769 598.113,411.673 C 598.341,411.577 598.6,411.529 598.89,411.529 Z" marker-start="none" marker-end="none"/>
     <path d="M 606.46,413.268 L 606.46,409.822 L 604.299,409.822 L 604.299,419.136 L 607.329,419.136 C 608.002,419.136 608.577,419.067 609.052,418.928 C 609.527,418.789 609.915,418.596 610.215,418.349 C 610.516,418.101 610.734,417.809 610.87,417.472 C 611.007,417.135 611.075,416.768 611.075,416.371 C 611.075,416.068 611.035,415.782 610.954,415.513 C 610.873,415.245 610.752,414.996 610.592,414.768 C 610.433,414.539 610.237,414.336 610.004,414.156 C 609.772,413.977 609.505,413.83 609.202,413.715 C 609.347,413.643 609.482,413.553 609.608,413.447 C 609.734,413.34 609.843,413.211 609.937,413.057 L 611.919,409.822 L 609.963,409.822 C 609.601,409.822 609.341,409.958 609.183,410.231 L 607.636,412.935 C 607.568,413.055 607.488,413.14 607.396,413.191 C 607.305,413.242 607.176,413.268 607.009,413.268 L 606.46,413.268 Z M 606.46,414.757 L 607.329,414.757 C 607.623,414.757 607.874,414.794 608.08,414.869 C 608.287,414.943 608.456,415.047 608.588,415.179 C 608.72,415.311 608.816,415.465 608.876,415.642 C 608.936,415.819 608.966,416.01 608.966,416.215 C 608.966,416.624 608.832,416.944 608.566,417.174 C 608.3,417.404 607.887,417.519 607.329,417.519 L 606.46,417.519 L 606.46,414.757 Z" marker-start="none" marker-end="none"/>
     <path d="M 618.741,412.23 C 618.792,412.23 618.844,412.221 618.895,412.201 C 618.946,412.181 618.995,412.148 619.042,412.1 L 619.898,411.179 C 619.523,410.697 619.053,410.333 618.489,410.087 C 617.924,409.842 617.256,409.719 616.485,409.719 C 615.777,409.719 615.143,409.839 614.583,410.08 C 614.023,410.321 613.547,410.654 613.157,411.078 C 612.768,411.502 612.468,412.005 612.259,412.587 C 612.051,413.168 611.946,413.8 611.946,414.482 C 611.946,415.177 612.065,415.815 612.304,416.397 C 612.543,416.979 612.876,417.481 613.305,417.903 C 613.733,418.325 614.245,418.653 614.842,418.887 C 615.439,419.122 616.097,419.239 616.817,419.239 C 617.167,419.239 617.496,419.208 617.805,419.146 C 618.114,419.084 618.402,418.999 618.671,418.89 C 618.939,418.781 619.187,418.651 619.412,418.499 C 619.638,418.348 619.839,418.18 620.013,417.997 L 619.285,417.019 C 619.238,416.959 619.182,416.905 619.118,416.856 C 619.054,416.807 618.965,416.782 618.85,416.782 C 618.773,416.782 618.701,416.799 618.633,416.833 C 618.564,416.867 618.492,416.909 618.415,416.958 C 618.339,417.007 618.254,417.06 618.163,417.118 C 618.071,417.175 617.962,417.229 617.837,417.278 C 617.711,417.327 617.564,417.368 617.396,417.402 C 617.227,417.436 617.03,417.453 616.804,417.454 C 616.412,417.453 616.054,417.384 615.73,417.246 C 615.407,417.107 615.128,416.909 614.896,416.651 C 614.664,416.393 614.483,416.081 614.353,415.715 C 614.223,415.348 614.158,414.937 614.158,414.481 C 614.158,414.003 614.223,413.579 614.353,413.208 C 614.483,412.838 614.66,412.525 614.883,412.272 C 615.107,412.018 615.368,411.825 615.667,411.693 C 615.965,411.561 616.284,411.495 616.625,411.495 C 616.821,411.495 617,411.505 617.162,411.524 C 617.324,411.543 617.474,411.576 617.613,411.623 C 617.751,411.67 617.884,411.73 618.009,411.805 C 618.135,411.88 618.262,411.972 618.39,412.083 C 618.441,412.126 618.496,412.161 618.556,412.189 C 618.616,412.216 618.677,412.23 618.741,412.23 Z" marker-start="none" marker-end="none"/>
     <path d="M 626.882,419.139 L 626.882,417.475 L 623.06,417.475 L 623.06,415.3 L 625.987,415.3 L 625.987,413.702 L 623.06,413.702 L 623.06,411.486 L 626.882,411.486 L 626.882,409.822 L 620.886,409.822 L 620.886,419.139 L 626.882,419.139 Z" marker-start="none" marker-end="none"/>
    </g>
   </g>
   <g id="Group_21" fill-rule="nonzero" stroke-linejoin="round" stroke-linecap="round" stroke="none" stroke-width="0.365" fill="#000000">
    <g id="Group_22">
     <path d="M 580.615,390.847 L 580.615,388.941 L 576.233,388.941 L 576.233,386.24 L 579.882,386.24 L 579.882,384.325 L 576.233,384.325 L 576.233,380.17 L 573.742,380.17 L 573.742,390.847 L 580.615,390.847 Z" marker-start="none" marker-end="none"/>
     <path d="M 590.67,380.172 L 588.751,380.172 C 588.536,380.172 588.359,380.222 588.22,380.322 C 588.08,380.422 587.984,380.551 587.93,380.707 L 587.3,382.569 L 583.241,382.569 L 582.611,380.707 C 582.562,380.57 582.467,380.447 582.325,380.337 C 582.183,380.227 582.01,380.172 581.805,380.172 L 579.871,380.172 L 584.003,390.849 L 586.538,390.849 L 590.67,380.172 Z M 583.812,384.254 L 586.729,384.254 L 585.747,387.133 C 585.683,387.315 585.609,387.531 585.523,387.778 C 585.438,388.026 585.354,388.294 585.27,388.583 C 585.192,388.289 585.112,388.018 585.029,387.767 C 584.946,387.518 584.868,387.301 584.794,387.118 L 583.812,384.254 Z" marker-start="none" marker-end="none"/>
     <path d="M 594.009,384.122 L 594.009,380.172 L 591.532,380.172 L 591.532,390.847 L 595.005,390.847 C 595.777,390.847 596.435,390.768 596.98,390.609 C 597.524,390.45 597.969,390.229 598.313,389.945 C 598.658,389.661 598.908,389.326 599.064,388.94 C 599.22,388.554 599.299,388.133 599.299,387.678 C 599.299,387.331 599.252,387.003 599.159,386.695 C 599.067,386.387 598.929,386.102 598.745,385.84 C 598.562,385.579 598.338,385.345 598.071,385.14 C 597.805,384.935 597.499,384.766 597.152,384.634 C 597.318,384.551 597.473,384.448 597.617,384.326 C 597.761,384.205 597.887,384.056 597.994,383.88 L 600.266,380.172 L 598.024,380.172 C 597.609,380.172 597.311,380.328 597.13,380.641 L 595.357,383.741 C 595.279,383.877 595.187,383.975 595.082,384.034 C 594.977,384.092 594.829,384.122 594.639,384.122 L 594.009,384.122 Z M 594.009,385.828 L 595.005,385.828 C 595.342,385.828 595.629,385.871 595.866,385.956 C 596.103,386.042 596.297,386.16 596.448,386.312 C 596.6,386.463 596.71,386.64 596.778,386.843 C 596.847,387.046 596.881,387.265 596.881,387.499 C 596.881,387.968 596.728,388.335 596.423,388.598 C 596.118,388.862 595.645,388.994 595.005,388.994 L 594.009,388.994 L 594.009,385.828 Z" marker-start="none" marker-end="none"/>
     <path d="M 606.737,385.02 C 606.834,384.833 606.928,384.639 607.019,384.437 C 607.109,384.236 607.196,384.029 607.279,383.817 C 607.362,384.034 607.45,384.244 607.543,384.448 C 607.635,384.652 607.731,384.85 607.828,385.042 L 610.569,390.471 C 610.617,390.565 610.667,390.637 610.719,390.689 C 610.77,390.741 610.827,390.779 610.891,390.803 C 610.954,390.828 611.026,390.84 611.107,390.84 C 611.188,390.84 611.282,390.84 611.389,390.84 L 613.279,390.84 L 613.279,380.172 L 611.096,380.172 L 611.096,386.232 C 611.096,386.526 611.111,386.844 611.14,387.186 L 608.312,381.783 C 608.224,381.615 608.106,381.488 607.957,381.401 C 607.808,381.314 607.638,381.271 607.447,381.271 L 607.11,381.271 C 606.92,381.271 606.75,381.314 606.601,381.401 C 606.452,381.488 606.334,381.615 606.246,381.783 L 603.403,387.193 C 603.423,387.025 603.437,386.857 603.447,386.691 C 603.457,386.525 603.462,386.372 603.462,386.232 L 603.462,380.172 L 601.278,380.172 L 601.278,390.84 L 603.169,390.84 C 603.276,390.84 603.37,390.84 603.451,390.84 C 603.531,390.84 603.603,390.828 603.667,390.803 C 603.73,390.779 603.788,390.741 603.839,390.689 C 603.89,390.637 603.94,390.565 603.989,390.471 L 606.737,385.02 Z" marker-start="none" marker-end="none"/>
     <path d="M 614.656,381.462 C 614.656,381.618 614.686,381.764 614.744,381.898 C 614.803,382.033 614.887,382.15 614.997,382.25 C 615.107,382.35 615.236,382.429 615.385,382.488 C 615.534,382.547 615.702,382.576 615.887,382.576 C 616.107,382.576 616.297,382.538 616.459,382.462 C 616.62,382.387 616.754,382.284 616.862,382.155 C 616.969,382.025 617.048,381.876 617.1,381.708 C 617.151,381.539 617.177,381.362 617.177,381.176 C 617.177,380.932 617.138,380.672 617.059,380.396 C 616.981,380.12 616.865,379.843 616.711,379.564 C 616.558,379.286 616.366,379.012 616.136,378.743 C 615.907,378.475 615.643,378.23 615.345,378.011 L 614.949,378.362 C 614.896,378.416 614.855,378.466 614.828,378.513 C 614.802,378.559 614.788,378.616 614.788,378.685 C 614.788,378.734 614.805,378.786 614.839,378.842 C 614.874,378.899 614.915,378.949 614.964,378.993 C 615.023,379.051 615.091,379.122 615.169,379.205 C 615.247,379.288 615.325,379.381 615.404,379.484 C 615.482,379.586 615.554,379.699 615.62,379.821 C 615.686,379.943 615.736,380.072 615.77,380.209 C 615.599,380.224 615.445,380.265 615.308,380.334 C 615.172,380.402 615.056,380.493 614.96,380.605 C 614.865,380.717 614.791,380.845 614.737,380.99 C 614.683,381.134 614.656,381.291 614.656,381.462 Z" marker-start="none" marker-end="none"/>
     <path d="M 624.03,380.172 L 621.539,380.172 L 621.539,390.851 L 624.03,390.851 L 624.03,380.172 Z" marker-start="none" marker-end="none"/>
     <path d="M 627.31,390.851 C 627.418,390.851 627.508,390.846 627.581,390.836 C 627.655,390.827 627.721,390.808 627.779,390.781 C 627.838,390.754 627.894,390.716 627.948,390.668 C 628.002,390.619 628.063,390.553 628.131,390.47 L 633.201,384.059 C 633.182,384.264 633.167,384.463 633.157,384.656 C 633.147,384.849 633.142,385.031 633.142,385.202 L 633.142,390.851 L 635.326,390.851 L 635.326,380.172 L 634.036,380.172 C 633.846,380.172 633.685,380.201 633.553,380.26 C 633.421,380.319 633.294,380.426 633.172,380.582 L 628.138,386.942 C 628.153,386.756 628.165,386.574 628.175,386.396 C 628.185,386.218 628.19,386.051 628.19,385.894 L 628.19,380.172 L 626.006,380.172 L 626.006,390.851 L 627.31,390.851 Z" marker-start="none" marker-end="none"/>
     <path d="M 644.255,382.932 C 644.314,382.932 644.372,382.921 644.431,382.899 C 644.49,382.876 644.546,382.838 644.599,382.783 L 645.581,381.728 C 645.151,381.175 644.613,380.757 643.966,380.476 C 643.319,380.195 642.553,380.054 641.669,380.054 C 640.858,380.054 640.131,380.192 639.489,380.468 C 638.847,380.744 638.302,381.125 637.855,381.611 C 637.408,382.097 637.065,382.674 636.826,383.341 C 636.586,384.008 636.467,384.732 636.467,385.513 C 636.467,386.31 636.604,387.041 636.877,387.708 C 637.151,388.375 637.533,388.95 638.024,389.434 C 638.515,389.917 639.102,390.294 639.786,390.562 C 640.47,390.831 641.224,390.965 642.05,390.965 C 642.45,390.965 642.828,390.93 643.182,390.859 C 643.536,390.788 643.867,390.69 644.175,390.565 C 644.482,390.441 644.766,390.292 645.024,390.118 C 645.283,389.944 645.513,389.752 645.713,389.542 L 644.878,388.421 C 644.824,388.352 644.761,388.29 644.687,388.234 C 644.614,388.178 644.512,388.15 644.38,388.15 C 644.292,388.15 644.209,388.169 644.131,388.208 C 644.052,388.247 643.969,388.295 643.881,388.351 C 643.794,388.407 643.697,388.468 643.592,388.534 C 643.487,388.6 643.362,388.661 643.218,388.718 C 643.074,388.774 642.906,388.821 642.713,388.861 C 642.52,388.899 642.294,388.919 642.035,388.919 C 641.586,388.919 641.175,388.84 640.804,388.681 C 640.433,388.522 640.114,388.295 639.848,387.999 C 639.582,387.704 639.374,387.346 639.225,386.926 C 639.076,386.506 639.002,386.034 639.002,385.512 C 639.002,384.964 639.076,384.478 639.225,384.053 C 639.374,383.628 639.577,383.271 639.833,382.98 C 640.09,382.689 640.389,382.468 640.731,382.317 C 641.073,382.165 641.439,382.09 641.83,382.09 C 642.055,382.09 642.26,382.101 642.445,382.123 C 642.631,382.145 642.803,382.182 642.962,382.236 C 643.121,382.29 643.272,382.359 643.416,382.445 C 643.56,382.53 643.706,382.637 643.852,382.764 C 643.911,382.813 643.974,382.853 644.043,382.885 C 644.111,382.916 644.182,382.932 644.255,382.932 Z" marker-start="none" marker-end="none"/>
     <path d="M 646.274,381.322 C 646.274,381.498 646.307,381.662 646.373,381.813 C 646.438,381.965 646.529,382.097 646.644,382.209 C 646.758,382.322 646.894,382.411 647.05,382.477 C 647.207,382.543 647.378,382.576 647.563,382.576 C 647.744,382.576 647.912,382.543 648.069,382.477 C 648.225,382.411 648.362,382.322 648.479,382.209 C 648.596,382.097 648.688,381.965 648.754,381.813 C 648.82,381.662 648.853,381.498 648.853,381.322 C 648.853,381.146 648.82,380.981 648.754,380.827 C 648.688,380.673 648.596,380.54 648.479,380.428 C 648.362,380.315 648.225,380.227 648.069,380.164 C 647.912,380.1 647.744,380.068 647.563,380.068 C 647.378,380.068 647.207,380.1 647.05,380.164 C 646.894,380.227 646.758,380.315 646.644,380.428 C 646.529,380.54 646.438,380.673 646.373,380.827 C 646.307,380.981 646.274,381.146 646.274,381.322 Z" marker-start="none" marker-end="none"/>
    </g>
   </g>
   <path d="M 642.024,568.754 L 650.558,568.754 L 650.558,519.591 L 642.023,519.591 L 642.024,568.754 Z" fill="#e5e5e5" stroke-linecap="round" stroke="none" stroke-width="0.103" stroke-linejoin="miter" marker-start="none" marker-end="none"/>
   <path d="M 619.424,568.754 L 627.954,568.754 L 627.954,519.592 L 619.423,519.591 L 619.424,568.754 Z" fill="#00d702" stroke-linecap="round" stroke="none" stroke-width="0.103" stroke-linejoin="miter" marker-start="none" marker-end="none"/>
   <path d="M 608.127,568.754 L 616.661,568.754 L 616.661,519.59 L 608.127,519.591 L 608.127,568.754 Z" fill="#e5e5e5" stroke-linecap="round" stroke="none" stroke-width="0.103" stroke-linejoin="miter" marker-start="none" marker-end="none"/>
   <path d="M 630.722,568.754 L 639.253,568.754 L 639.253,519.591 L 630.721,519.591 L 630.722,568.754 Z" fill="#e5e5e5" stroke-linecap="round" stroke="none" stroke-width="0.103" stroke-linejoin="miter" marker-start="none" marker-end="none"/>
   <path d="M 619.169,531.05 C 614.644,536.406 615.321,544.422 620.678,548.945 C 626.034,553.47 634.054,552.798 638.574,547.44 C 643.099,542.083 642.424,534.063 637.065,529.544 C 631.711,525.016 623.691,525.699 619.169,531.05 Z" stroke-linejoin="miter" stroke="none" fill="#ffffff" stroke-width="0.526" marker-start="none" marker-end="none"/>
   <path d="M 619.772,531.532 C 615.248,536.881 615.924,544.903 621.28,549.424 C 626.639,553.952 634.655,553.274 639.178,547.915 C 643.707,542.564 643.03,534.541 637.67,530.017 C 632.311,525.496 624.295,526.17 619.772,531.532 Z" fill="none" stroke-linejoin="miter" stroke="#539bc5" stroke-width="2.872" marker-start="none" marker-end="none"/>
   <g id="Group_23" fill-rule="nonzero" stroke-linejoin="round" stroke-linecap="round" stroke="none" stroke-width="0.387" fill="#000000">
    <g id="Group_24">
     <path d="M 625.874,543.168 L 625.874,540.086 L 628.753,540.086 L 628.753,538.357 L 625.874,538.357 L 625.874,535.26 L 623.913,535.26 L 623.913,538.357 L 621.049,538.357 L 621.049,540.086 L 623.913,540.086 L 623.913,543.168 L 625.874,543.168 Z" marker-start="none" marker-end="none"/>
     <path d="M 634.326,545.455 C 634.886,545.455 635.384,545.376 635.82,545.217 C 636.256,545.059 636.624,544.844 636.925,544.573 C 637.226,544.303 637.454,543.989 637.61,543.633 C 637.765,543.277 637.843,542.901 637.843,542.505 C 637.843,542.146 637.807,541.83 637.734,541.557 C 637.662,541.284 637.554,541.047 637.411,540.847 C 637.269,540.646 637.092,540.476 636.882,540.335 C 636.672,540.195 636.432,540.078 636.162,539.984 C 637.418,539.55 638.046,538.698 638.046,537.43 C 638.046,536.829 637.937,536.306 637.719,535.861 C 637.501,535.416 637.209,535.046 636.843,534.751 C 636.478,534.456 636.053,534.234 635.571,534.087 C 635.088,533.939 634.585,533.866 634.061,533.866 C 633.522,533.866 633.042,533.924 632.621,534.041 C 632.201,534.157 631.828,534.339 631.501,534.585 C 631.174,534.832 630.887,535.147 630.641,535.531 C 630.394,535.914 630.18,536.371 629.999,536.9 L 631.073,537.337 C 631.166,537.379 631.258,537.407 631.349,537.423 C 631.44,537.438 631.529,537.446 631.618,537.446 C 631.784,537.446 631.933,537.414 632.065,537.349 C 632.197,537.284 632.297,537.189 632.365,537.065 C 632.598,536.634 632.846,536.321 633.108,536.126 C 633.37,535.931 633.677,535.834 634.03,535.834 C 634.3,535.834 634.535,535.879 634.734,535.97 C 634.934,536.061 635.1,536.178 635.232,536.321 C 635.365,536.464 635.465,536.626 635.532,536.808 C 635.599,536.989 635.633,537.174 635.633,537.361 C 635.633,537.605 635.616,537.824 635.583,538.019 C 635.549,538.214 635.454,538.381 635.299,538.521 C 635.143,538.662 634.908,538.769 634.594,538.844 C 634.28,538.92 633.843,538.957 633.283,538.958 L 633.283,540.622 C 633.755,540.622 634.136,540.658 634.427,540.731 C 634.717,540.804 634.942,540.904 635.1,541.031 C 635.258,541.158 635.363,541.312 635.415,541.494 C 635.467,541.675 635.493,541.875 635.493,542.093 C 635.493,542.54 635.385,542.883 635.17,543.125 C 634.955,543.366 634.627,543.487 634.186,543.487 C 634.004,543.487 633.838,543.461 633.688,543.409 C 633.537,543.357 633.402,543.287 633.283,543.199 C 633.164,543.111 633.061,543.007 632.976,542.888 C 632.89,542.768 632.821,542.638 632.769,542.498 C 632.686,542.265 632.581,542.096 632.454,541.992 C 632.327,541.888 632.155,541.836 631.937,541.836 C 631.885,541.836 631.829,541.839 631.769,541.844 C 631.71,541.849 631.649,541.857 631.586,541.867 L 630.31,542.093 C 630.393,542.659 630.553,543.152 630.789,543.572 C 631.025,543.992 631.318,544.342 631.668,544.623 C 632.018,544.903 632.419,545.111 632.87,545.249 C 633.322,545.386 633.807,545.455 634.326,545.455 Z" marker-start="none" marker-end="none"/>
    </g>
   </g>
  </g>
 </g>
</svg>
