<?xml version="1.0" standalone="no"?>
<!DOCTYPE svg PUBLIC "-//W3C//DTD SVG 1.1//EN" "http://www.w3.org/Graphics/SVG/1.1/DTD/svg11.dtd">
<!--Generator: Xara Designer (www.xara.com), SVG filter version: 6.6.0.0-->
<svg fill="none" fill-rule="evenodd" stroke="black" stroke-width="0.501" stroke-linejoin="bevel" stroke-miterlimit="10" font-family="Times New Roman" font-size="16" style="font-variant-ligatures:none" xmlns:xlink="http://www.w3.org/1999/xlink" xmlns="http://www.w3.org/2000/svg" version="1.1" overflow="visible" width="215.435pt" height="215.436pt" viewBox="489.069 -583.089 215.435 215.436">
 <defs>
	</defs>
 <g id="Page background" transform="scale(1 -1)"/>
 <g id="Layer 1" transform="scale(1 -1)">
  <g id="Group">
   <g id="Group_1">
    <path d="M 489.069,567.876 L 489.069,382.866 C 489.069,374.469 495.884,367.653 504.281,367.653 L 689.292,367.653 C 697.689,367.653 704.504,374.469 704.504,382.866 L 704.504,567.876 C 704.504,576.273 697.689,583.089 689.292,583.089 L 504.281,583.089 C 495.884,583.089 489.069,576.273 489.069,567.876 Z" stroke-linejoin="miter" stroke="none" stroke-width="0.802" fill="#7f7f7f" marker-start="none" marker-end="none"/>
    <path d="M 489.778,567.267 L 489.778,383.475 C 489.778,375.133 496.548,368.362 504.89,368.362 L 688.683,368.362 C 697.025,368.362 703.795,375.133 703.795,383.475 L 703.795,567.267 C 703.795,575.609 697.025,582.38 688.683,582.38 L 504.89,582.38 C 496.548,582.38 489.778,575.609 489.778,567.267 Z" stroke-linejoin="miter" stroke="none" stroke-width="0.802" marker-start="none" marker-end="none"/>
    <path d="M 489.778,567.267 L 489.778,383.475 C 489.778,375.133 496.548,368.362 504.89,368.362 L 688.683,368.362 C 697.025,368.362 703.795,375.133 703.795,383.475 L 703.795,567.267 C 703.795,575.609 697.025,582.38 688.683,582.38 L 504.89,582.38 C 496.548,582.38 489.778,575.609 489.778,567.267 Z" stroke-linejoin="miter" stroke="none" stroke-width="0.802" fill="#ffffff" marker-start="none" marker-end="none"/>
    <path d="M 504.103,513.797 L 504.103,547.689 L 607.691,547.689 L 607.691,513.797 L 504.103,513.797 Z" stroke-linejoin="miter" stroke-linecap="round" stroke="#ff7979" fill="#ff7979" stroke-width="1.738" marker-start="none" marker-end="none"/>
    <path d="M 504.103,512.454 L 504.103,522.264 C 504.103,524.835 506.187,526.912 508.749,526.912 L 603.041,526.912 C 605.603,526.912 607.691,524.835 607.691,522.264 L 607.691,512.454 C 607.691,509.878 605.603,507.8 603.041,507.8 L 508.749,507.8 C 506.187,507.8 504.103,509.878 504.103,512.454 Z" stroke-linejoin="miter" stroke-linecap="round" stroke="#ff7979" fill="#ff7979" stroke-width="1.738" marker-start="none" marker-end="none"/>
    <path d="M 504.8,541.347 L 504.8,558.992 C 504.8,563.605 508.544,567.351 513.162,567.351 L 680.208,567.351 C 684.821,567.351 688.569,563.605 688.569,558.992 L 688.569,541.347 C 688.569,536.729 684.821,532.981 680.208,532.981 L 513.162,532.981 C 508.544,532.981 504.8,536.729 504.8,541.347 Z" stroke-linejoin="miter" stroke-linecap="round" stroke="#ff7979" fill="#ffffff" stroke-width="3.13" marker-start="none" marker-end="none"/>
    <path d="M 489.603,482.407 L 489.603,490.941 L 538.766,490.941 L 538.766,482.407 L 489.603,482.407 Z" fill="#ff3718" stroke-linecap="round" stroke="none" stroke-width="0.103" stroke-linejoin="miter" marker-start="none" marker-end="none"/>
    <path d="M 589.208,462.175 C 576.94,475.614 560.127,482.443 543.254,482.446 L 543.254,490.925 C 562.426,490.92 581.539,483.17 595.473,467.901 C 607.847,454.34 613.948,437.263 613.943,420.24 L 605.457,420.24 C 605.464,435.222 600.095,450.249 589.208,462.175 Z" fill="#ff3718" stroke-linecap="round" stroke="none" stroke-width="0.541" stroke-linejoin="round" marker-start="none" marker-end="none"/>
    <path d="M 609.716,382.287 L 607.598,385.332 L 605.476,388.385 L 605.423,388.385 L 605.423,415.662 L 613.959,415.662 L 613.959,388.385 L 611.839,385.332 L 609.716,382.287 Z" fill="#ff3718" stroke-linecap="round" stroke="none" stroke-width="0.103" stroke-linejoin="miter" marker-start="none" marker-end="none"/>
    <path d="M 598.166,382.283 L 596.046,385.329 L 593.925,388.385 L 598.166,388.385 L 602.407,388.381 L 600.284,385.329 L 598.166,382.283 Z M 593.902,388.385 L 593.902,415.662 L 602.436,415.662 L 602.436,388.385 L 593.902,388.385 Z" stroke-linecap="round" stroke="none" fill="#e5e5e5" stroke-width="0.103" stroke-linejoin="miter" marker-start="none" marker-end="none"/>
    <path d="M 580.854,454.553 C 570.814,465.544 557.059,471.131 543.254,471.136 L 543.254,479.617 C 559.361,479.613 575.411,473.098 587.12,460.27 C 597.514,448.883 602.634,434.54 602.631,420.24 L 594.145,420.24 C 594.155,432.497 589.76,444.789 580.854,454.553 Z" stroke-linecap="round" stroke="none" fill="#e5e5e5" stroke-width="0.453" stroke-linejoin="round" marker-start="none" marker-end="none"/>
    <path d="M 489.603,471.104 L 489.603,479.636 L 538.766,479.636 L 538.766,471.104 L 489.603,471.104 Z" stroke-linecap="round" stroke="none" fill="#e5e5e5" stroke-width="0.103" stroke-linejoin="miter" marker-start="none" marker-end="none"/>
    <path d="M 586.85,382.283 L 584.734,385.329 L 582.613,388.385 L 586.854,388.385 L 591.097,388.381 L 588.977,385.329 L 586.85,382.283 Z M 582.604,388.385 L 582.604,415.662 L 591.139,415.662 L 591.139,388.385 L 582.604,388.385 Z" stroke-linecap="round" stroke="none" fill="#e5e5e5" stroke-width="0.103" stroke-linejoin="miter" marker-start="none" marker-end="none"/>
    <path d="M 489.603,459.806 L 489.603,468.337 L 538.766,468.337 L 538.766,459.806 L 489.603,459.806 Z" stroke-linecap="round" stroke="none" fill="#e5e5e5" stroke-width="0.103" stroke-linejoin="miter" marker-start="none" marker-end="none"/>
    <path d="M 572.499,446.926 C 564.692,455.478 553.987,459.818 543.254,459.824 L 543.254,468.308 C 556.296,468.305 569.286,463.032 578.765,452.643 C 587.176,443.428 591.324,431.812 591.322,420.24 L 582.84,420.24 C 582.84,429.772 579.426,439.337 572.499,446.926 Z" stroke-linecap="round" stroke="none" fill="#e5e5e5" stroke-width="0.368" stroke-linejoin="round" marker-start="none" marker-end="none"/>
    <path d="M 489.603,448.51 L 489.603,457.044 L 538.766,457.044 L 538.766,448.51 L 489.603,448.51 Z" fill="#e5e5e5" stroke-linecap="round" stroke="none" stroke-width="0.103" stroke-linejoin="miter" marker-start="none" marker-end="none"/>
    <path d="M 564.144,439.305 C 558.566,445.412 550.928,448.512 543.254,448.515 L 543.254,457.002 C 553.224,456.993 563.163,452.96 570.406,445.022 C 576.845,437.973 580.016,429.096 580.012,420.24 L 571.524,420.24 C 571.531,427.047 569.089,433.879 564.144,439.305 Z" fill="#e5e5e5" stroke-linecap="round" stroke="none" stroke-width="0.281" stroke-linejoin="round" marker-start="none" marker-end="none"/>
    <path d="M 575.797,382.287 L 573.665,385.332 L 571.524,388.385 L 571.524,388.385 L 571.524,415.662 L 580.063,415.662 L 580.063,388.385 L 580.063,388.385 L 577.933,385.329 L 575.797,382.287 Z" fill="#e5e5e5" stroke-linecap="round" stroke="none" stroke-width="0.103" stroke-linejoin="miter" marker-start="none" marker-end="none"/>
    <path d="M 510.453,392.582 C 501.556,403.122 502.881,418.908 513.433,427.792 C 523.964,436.706 539.729,435.374 548.63,424.836 C 557.544,414.296 556.208,398.522 545.654,389.619 C 535.123,380.723 519.351,382.054 510.453,392.582 Z" stroke-linejoin="miter" stroke="none" fill="#000000" stroke-width="1.039" marker-start="none" marker-end="none"/>
    <path d="M 511.63,393.539 C 502.743,404.084 504.059,419.837 514.603,428.754 C 525.146,437.627 540.913,436.312 549.83,425.774 C 558.724,415.237 557.391,399.454 546.844,390.557 C 536.316,381.661 520.535,382.985 511.63,393.539 Z" stroke-linejoin="miter" stroke="#b2b2b2" stroke-width="5.658" marker-start="none" marker-end="none"/>
    <path d="M 657.824,468.379 C 651.924,475.357 652.803,485.817 659.798,491.726 C 666.78,497.618 677.233,496.739 683.137,489.752 C 689.046,482.76 688.16,472.306 681.163,466.401 C 674.181,460.506 663.724,461.385 657.824,468.379 Z" stroke-linejoin="miter" stroke="none" fill="#000000" stroke-width="0.686" marker-start="none" marker-end="none"/>
    <path d="M 658.602,468.988 C 652.711,475.986 653.583,486.445 660.576,492.338 C 667.565,498.247 678.017,497.364 683.933,490.371 C 689.83,483.389 688.945,472.937 681.951,467.032 C 674.972,461.126 664.508,462.005 658.602,468.988 Z" stroke-linejoin="miter" stroke="#b2b2b2" stroke-width="3.752" marker-start="none" marker-end="none"/>
    <path d="M 508.327,461.186 C 503.802,466.542 504.478,474.558 509.836,479.082 C 515.192,483.605 523.213,482.933 527.732,477.575 C 532.257,472.219 531.582,464.2 526.223,459.68 C 520.869,455.152 512.849,455.835 508.327,461.186 Z" stroke-linejoin="miter" stroke="none" fill="#ffffff" stroke-width="0.526" marker-start="none" marker-end="none"/>
    <path d="M 508.93,461.668 C 504.406,467.017 505.082,475.039 510.438,479.56 C 515.797,484.088 523.813,483.41 528.337,478.051 C 532.865,472.7 532.188,464.677 526.828,460.153 C 521.468,455.632 513.453,456.306 508.93,461.668 Z" fill="none" stroke-linejoin="miter" stroke="#539bc5" stroke-width="2.872" marker-start="none" marker-end="none"/>
    <path d="M 565.635,449.237 C 561.114,454.588 561.789,462.607 567.146,467.135 C 572.503,471.651 580.522,470.978 585.046,465.62 C 589.569,460.266 588.889,452.249 583.535,447.726 C 578.179,443.202 570.16,443.878 565.635,449.237 Z" stroke-linejoin="miter" stroke="none" fill="#ffffff" stroke-width="0.526" marker-start="none" marker-end="none"/>
    <path d="M 566.244,449.715 C 561.716,455.069 562.39,463.085 567.75,467.609 C 573.108,472.134 581.123,471.46 585.648,466.098 C 590.176,460.742 589.491,452.725 584.14,448.199 C 578.78,443.674 570.765,444.355 566.244,449.715 Z" fill="none" stroke-linejoin="miter" stroke="#539bc5" stroke-width="2.872" marker-start="none" marker-end="none"/>
    <path d="M 582.423,391.607 C 577.899,396.963 578.578,404.98 583.933,409.508 C 589.294,414.029 597.313,413.351 601.836,407.993 C 606.364,402.641 605.682,394.618 600.325,390.099 C 594.965,385.58 586.949,386.254 582.423,391.607 Z" stroke-linejoin="miter" stroke="none" fill="#ffffff" stroke-width="0.526" marker-start="none" marker-end="none"/>
    <path d="M 583.03,392.091 C 578.506,397.442 579.183,405.461 584.541,409.986 C 589.901,414.507 597.916,413.833 602.439,408.473 C 606.965,403.12 606.288,395.1 600.932,390.579 C 595.57,386.054 587.553,386.73 583.03,392.091 Z" fill="none" stroke-linejoin="miter" stroke="#539bc5" stroke-width="2.872" marker-start="none" marker-end="none"/>
    <path d="M 617.139,468.366 C 611.239,475.355 612.118,485.823 619.115,491.714 C 626.098,497.625 636.552,496.742 642.454,489.754 C 648.365,482.765 647.479,472.305 640.481,466.401 C 633.498,460.502 623.039,461.385 617.139,468.366 Z" stroke-linejoin="miter" stroke="none" fill="#ffffff" stroke-width="0.689" marker-start="none" marker-end="none"/>
    <path d="M 617.919,469.001 C 612.026,475.993 612.899,486.439 619.891,492.352 C 626.882,498.236 637.337,497.364 643.25,490.376 C 649.148,483.389 648.264,472.923 641.27,467.023 C 634.289,461.124 623.824,462.002 617.919,469.001 Z" stroke-linejoin="miter" stroke="#539bc5" stroke-width="3.752" marker-start="none" marker-end="none"/>
    <path d="M 641.164,392.571 C 632.267,403.111 633.592,418.897 644.144,427.781 C 654.675,436.695 670.44,435.363 679.341,424.825 C 688.255,414.285 686.919,398.511 676.365,389.608 C 665.834,380.712 650.062,382.043 641.164,392.571 Z" stroke-linejoin="miter" stroke="none" fill="#ffffff" stroke-width="1.039" marker-start="none" marker-end="none"/>
    <path d="M 642.341,393.528 C 633.454,404.073 634.77,419.826 645.314,428.743 C 655.857,437.616 671.624,436.301 680.541,425.763 C 689.435,415.226 688.102,399.443 677.555,390.546 C 667.027,381.65 651.246,382.974 642.341,393.528 Z" stroke-linejoin="miter" stroke="#539bc5" stroke-width="5.658" marker-start="none" marker-end="none"/>
    <g id="Group_2" fill-rule="nonzero" stroke-linejoin="round" stroke-linecap="round" stroke="none" stroke-width="0.485" fill="#b2b2b2">
     <path d="M 667.036,474.768 L 669.765,474.768 L 669.765,481.931 C 669.765,482.282 669.774,482.649 669.794,483.033 L 668.186,481.697 C 668.082,481.613 667.978,481.553 667.874,481.517 C 667.77,481.481 667.669,481.463 667.572,481.463 C 667.403,481.463 667.252,481.501 667.119,481.576 C 666.985,481.65 666.886,481.73 666.821,481.814 L 665.866,483.081 L 670.291,486.795 L 672.786,486.795 L 672.786,474.768 L 675.125,474.768 L 675.125,472.584 L 667.036,472.584 L 667.036,474.768 Z" marker-start="none" marker-end="none"/>
    </g>
    <g id="Group_3" fill-rule="nonzero" stroke-linejoin="round" stroke-linecap="round" stroke="none" stroke-width="0.387" fill="#000000">
     <path d="M 515.031,473.303 L 515.031,470.221 L 517.91,470.221 L 517.91,468.492 L 515.031,468.492 L 515.031,465.395 L 513.07,465.395 L 513.07,468.492 L 510.206,468.492 L 510.206,470.221 L 513.07,470.221 L 513.07,473.303 L 515.031,473.303 Z" marker-start="none" marker-end="none"/>
     <path d="M 520.541,465.87 L 522.72,465.87 L 522.72,471.59 C 522.72,471.871 522.728,472.164 522.743,472.47 L 521.459,471.403 C 521.376,471.336 521.293,471.288 521.21,471.259 C 521.127,471.231 521.047,471.217 520.969,471.217 C 520.834,471.217 520.714,471.246 520.607,471.306 C 520.501,471.366 520.422,471.429 520.37,471.497 L 519.607,472.509 L 523.14,475.474 L 525.133,475.474 L 525.133,465.87 L 527,465.87 L 527,464.126 L 520.541,464.126 L 520.541,465.87 Z" marker-start="none" marker-end="none"/>
    </g>
    <g id="Group_4" fill-rule="nonzero" stroke-linejoin="round" stroke-linecap="round" stroke="none" stroke-width="0.387" fill="#000000">
     <path d="M 571.768,462.158 L 571.768,459.076 L 574.647,459.076 L 574.647,457.347 L 571.768,457.347 L 571.768,454.25 L 569.807,454.25 L 569.807,457.347 L 566.943,457.347 L 566.943,459.076 L 569.807,459.076 L 569.807,462.158 L 571.768,462.158 Z" marker-start="none" marker-end="none"/>
     <path d="M 577.278,454.725 L 579.457,454.725 L 579.457,460.445 C 579.457,460.726 579.465,461.019 579.48,461.325 L 578.196,460.258 C 578.113,460.191 578.03,460.143 577.947,460.114 C 577.864,460.086 577.784,460.072 577.706,460.072 C 577.571,460.072 577.451,460.101 577.344,460.161 C 577.238,460.221 577.159,460.284 577.107,460.352 L 576.344,461.364 L 579.877,464.329 L 581.87,464.329 L 581.87,454.725 L 583.737,454.725 L 583.737,452.981 L 577.278,452.981 L 577.278,454.725 Z" marker-start="none" marker-end="none"/>
    </g>
    <g id="Group_5" fill-rule="nonzero" stroke-linejoin="round" stroke-linecap="round" stroke="none" stroke-width="0.387" fill="#000000">
     <path d="M 589.163,403.784 L 589.163,400.702 L 592.042,400.702 L 592.042,398.973 L 589.163,398.973 L 589.163,395.876 L 587.202,395.876 L 587.202,398.973 L 584.338,398.973 L 584.338,400.702 L 587.202,400.702 L 587.202,403.784 L 589.163,403.784 Z" marker-start="none" marker-end="none"/>
     <path d="M 594.673,396.351 L 596.852,396.351 L 596.852,402.071 C 596.852,402.352 596.86,402.645 596.875,402.951 L 595.591,401.884 C 595.508,401.817 595.425,401.769 595.342,401.74 C 595.259,401.712 595.179,401.698 595.101,401.698 C 594.966,401.698 594.846,401.727 594.739,401.787 C 594.633,401.847 594.554,401.91 594.502,401.978 L 593.739,402.99 L 597.272,405.955 L 599.265,405.955 L 599.265,396.351 L 601.132,396.351 L 601.132,394.607 L 594.673,394.607 L 594.673,396.351 Z" marker-start="none" marker-end="none"/>
    </g>
    <g id="Group_6" fill-rule="nonzero" stroke-linejoin="round" stroke-linecap="round" stroke="none" stroke-width="0.319" fill="#ffffff">
     <path d="M 523.438,518.751 C 523.489,518.751 523.541,518.742 523.592,518.722 C 523.643,518.702 523.692,518.669 523.739,518.621 L 524.595,517.7 C 524.22,517.218 523.75,516.854 523.186,516.608 C 522.621,516.363 521.953,516.24 521.182,516.24 C 520.474,516.24 519.84,516.36 519.28,516.601 C 518.72,516.842 518.244,517.175 517.854,517.599 C 517.465,518.023 517.165,518.526 516.956,519.108 C 516.748,519.689 516.643,520.321 516.643,521.003 C 516.643,521.698 516.762,522.336 517.001,522.918 C 517.24,523.5 517.573,524.002 518.002,524.424 C 518.43,524.846 518.942,525.174 519.539,525.408 C 520.136,525.643 520.794,525.76 521.514,525.76 C 521.864,525.76 522.193,525.729 522.502,525.667 C 522.811,525.605 523.099,525.52 523.368,525.411 C 523.636,525.302 523.884,525.172 524.109,525.02 C 524.335,524.869 524.536,524.701 524.71,524.518 L 523.982,523.54 C 523.935,523.48 523.879,523.426 523.815,523.377 C 523.751,523.328 523.662,523.303 523.547,523.303 C 523.47,523.303 523.398,523.32 523.33,523.354 C 523.261,523.388 523.189,523.43 523.112,523.479 C 523.036,523.528 522.951,523.581 522.86,523.639 C 522.768,523.696 522.659,523.75 522.534,523.799 C 522.408,523.848 522.261,523.889 522.093,523.923 C 521.924,523.957 521.727,523.974 521.501,523.975 C 521.109,523.974 520.751,523.905 520.427,523.767 C 520.104,523.628 519.825,523.43 519.593,523.172 C 519.361,522.914 519.18,522.602 519.05,522.236 C 518.92,521.869 518.855,521.458 518.855,521.002 C 518.855,520.524 518.92,520.1 519.05,519.729 C 519.18,519.359 519.357,519.046 519.58,518.793 C 519.804,518.539 520.065,518.346 520.364,518.214 C 520.662,518.082 520.981,518.016 521.322,518.016 C 521.518,518.016 521.697,518.026 521.859,518.045 C 522.021,518.064 522.171,518.097 522.31,518.144 C 522.448,518.191 522.581,518.251 522.706,518.326 C 522.832,518.401 522.959,518.493 523.087,518.604 C 523.138,518.647 523.193,518.682 523.253,518.71 C 523.313,518.737 523.374,518.751 523.438,518.751 Z" marker-start="none" marker-end="none"/>
     <path d="M 534.775,521.003 C 534.775,520.33 534.659,519.703 534.427,519.124 C 534.195,518.544 533.868,518.04 533.446,517.611 C 533.024,517.183 532.516,516.847 531.921,516.604 C 531.327,516.361 530.667,516.24 529.943,516.24 C 529.218,516.24 528.558,516.361 527.961,516.604 C 527.364,516.847 526.854,517.183 526.43,517.611 C 526.006,518.04 525.678,518.544 525.446,519.124 C 525.213,519.703 525.097,520.33 525.097,521.003 C 525.097,521.677 525.213,522.303 525.446,522.883 C 525.678,523.463 526.006,523.965 526.43,524.392 C 526.854,524.818 527.364,525.153 527.961,525.396 C 528.558,525.638 529.218,525.76 529.943,525.76 C 530.667,525.76 531.327,525.637 531.921,525.392 C 532.516,525.147 533.024,524.812 533.446,524.385 C 533.868,523.959 534.195,523.456 534.427,522.876 C 534.659,522.297 534.775,521.672 534.775,521.003 Z M 532.564,521.003 C 532.564,521.463 532.504,521.877 532.385,522.246 C 532.265,522.614 532.094,522.927 531.87,523.182 C 531.646,523.438 531.372,523.634 531.049,523.77 C 530.725,523.906 530.356,523.974 529.943,523.975 C 529.525,523.974 529.153,523.906 528.827,523.77 C 528.501,523.634 528.226,523.438 528.003,523.182 C 527.779,522.927 527.607,522.614 527.488,522.246 C 527.369,521.877 527.309,521.463 527.309,521.003 C 527.309,520.539 527.369,520.122 527.488,519.754 C 527.607,519.385 527.779,519.073 528.003,518.818 C 528.226,518.562 528.501,518.367 528.827,518.233 C 529.153,518.099 529.525,518.032 529.943,518.032 C 530.356,518.032 530.725,518.099 531.049,518.233 C 531.372,518.367 531.646,518.562 531.87,518.818 C 532.094,519.073 532.265,519.385 532.385,519.754 C 532.504,520.122 532.564,520.539 532.564,521.003 Z" marker-start="none" marker-end="none"/>
     <path d="M 536.947,525.66 C 537.041,525.66 537.12,525.656 537.183,525.647 C 537.247,525.639 537.305,525.623 537.356,525.599 C 537.407,525.576 537.456,525.543 537.503,525.5 C 537.55,525.457 537.603,525.4 537.663,525.328 L 542.086,519.734 C 542.069,519.913 542.057,520.087 542.048,520.255 C 542.04,520.423 542.035,520.582 542.035,520.732 L 542.035,525.66 L 543.94,525.66 L 543.94,516.343 L 542.815,516.343 C 542.649,516.343 542.508,516.369 542.393,516.42 C 542.278,516.471 542.167,516.565 542.061,516.701 L 537.669,522.25 C 537.682,522.088 537.693,521.929 537.701,521.773 C 537.71,521.618 537.714,521.472 537.714,521.335 L 537.714,516.343 L 535.809,516.343 L 535.809,525.66 L 536.947,525.66 Z" marker-start="none" marker-end="none"/>
     <path d="M 550.664,523.765 C 550.6,523.662 550.533,523.586 550.462,523.535 C 550.392,523.483 550.301,523.458 550.191,523.458 C 550.093,523.458 549.987,523.489 549.874,523.551 C 549.761,523.612 549.633,523.682 549.491,523.758 C 549.348,523.835 549.185,523.904 549.002,523.966 C 548.818,524.028 548.61,524.059 548.375,524.059 C 547.97,524.059 547.669,523.973 547.471,523.8 C 547.273,523.627 547.173,523.394 547.173,523.1 C 547.173,522.912 547.233,522.757 547.352,522.633 C 547.472,522.51 547.628,522.403 547.822,522.313 C 548.016,522.224 548.238,522.142 548.487,522.067 C 548.736,521.993 548.991,521.91 549.251,521.818 C 549.511,521.726 549.766,521.619 550.015,521.495 C 550.264,521.372 550.486,521.214 550.68,521.022 C 550.874,520.83 551.03,520.597 551.15,520.322 C 551.269,520.047 551.329,519.716 551.329,519.328 C 551.329,518.897 551.254,518.495 551.105,518.12 C 550.956,517.745 550.739,517.417 550.456,517.138 C 550.173,516.859 549.823,516.64 549.408,516.48 C 548.992,516.32 548.52,516.24 547.992,516.24 C 547.702,516.24 547.407,516.27 547.106,516.33 C 546.806,516.389 546.515,516.473 546.234,516.582 C 545.953,516.691 545.688,516.82 545.441,516.969 C 545.194,517.118 544.979,517.284 544.795,517.468 L 545.435,518.478 C 545.482,518.555 545.548,518.616 545.633,518.663 C 545.718,518.71 545.81,518.734 545.908,518.734 C 546.036,518.734 546.165,518.693 546.295,518.612 C 546.424,518.531 546.572,518.442 546.736,518.344 C 546.9,518.246 547.088,518.156 547.301,518.075 C 547.514,517.994 547.766,517.954 548.056,517.954 C 548.448,517.954 548.752,518.04 548.97,518.212 C 549.187,518.385 549.296,518.659 549.296,519.034 C 549.296,519.252 549.236,519.428 549.117,519.565 C 548.997,519.701 548.841,519.814 548.647,519.904 C 548.453,519.993 548.232,520.072 547.985,520.14 C 547.738,520.208 547.485,520.284 547.225,520.367 C 546.965,520.45 546.711,520.552 546.464,520.674 C 546.217,520.795 545.996,520.955 545.802,521.153 C 545.608,521.352 545.452,521.599 545.332,521.895 C 545.213,522.191 545.153,522.557 545.153,522.992 C 545.153,523.341 545.224,523.682 545.364,524.015 C 545.505,524.347 545.712,524.643 545.984,524.903 C 546.257,525.163 546.592,525.371 546.988,525.527 C 547.384,525.682 547.838,525.76 548.35,525.76 C 548.635,525.76 548.913,525.738 549.184,525.693 C 549.454,525.648 549.711,525.582 549.954,525.494 C 550.197,525.407 550.424,525.303 550.635,525.181 C 550.846,525.06 551.034,524.922 551.201,524.769 L 550.664,523.765 Z" marker-start="none" marker-end="none"/>
     <path d="M 556.276,518.05 C 556.566,518.05 556.825,518.098 557.053,518.194 C 557.281,518.29 557.473,518.427 557.631,518.607 C 557.789,518.786 557.909,519.004 557.992,519.262 C 558.075,519.52 558.117,519.813 558.117,520.141 L 558.117,525.658 L 560.278,525.658 L 560.278,520.14 C 560.278,519.569 560.185,519.045 559.999,518.567 C 559.814,518.09 559.549,517.679 559.204,517.333 C 558.858,516.988 558.439,516.72 557.944,516.528 C 557.45,516.336 556.894,516.24 556.276,516.24 C 555.654,516.24 555.095,516.336 554.601,516.528 C 554.107,516.72 553.687,516.988 553.342,517.333 C 552.997,517.679 552.732,518.09 552.549,518.567 C 552.366,519.045 552.274,519.569 552.274,520.14 L 552.274,525.658 L 554.435,525.658 L 554.435,520.147 C 554.435,519.819 554.476,519.526 554.56,519.268 C 554.643,519.01 554.763,518.791 554.921,518.61 C 555.078,518.429 555.271,518.29 555.499,518.194 C 555.727,518.098 555.986,518.05 556.276,518.05 Z" marker-start="none" marker-end="none"/>
     <path d="M 566.447,520.573 C 566.533,520.41 566.615,520.24 566.694,520.064 C 566.772,519.888 566.848,519.708 566.92,519.524 C 566.993,519.713 567.07,519.896 567.151,520.074 C 567.232,520.252 567.315,520.425 567.4,520.592 L 569.791,525.329 C 569.833,525.41 569.877,525.474 569.922,525.519 C 569.966,525.564 570.017,525.597 570.072,525.619 C 570.127,525.64 570.19,525.651 570.26,525.651 C 570.331,525.651 570.413,525.651 570.507,525.651 L 572.156,525.651 L 572.156,516.343 L 570.251,516.343 L 570.251,521.63 C 570.251,521.887 570.264,522.164 570.289,522.463 L 567.822,517.749 C 567.745,517.602 567.642,517.491 567.512,517.415 C 567.382,517.34 567.234,517.302 567.067,517.302 L 566.773,517.302 C 566.607,517.302 566.459,517.34 566.329,517.415 C 566.199,517.491 566.096,517.602 566.019,517.749 L 563.539,522.469 C 563.556,522.322 563.569,522.176 563.577,522.031 C 563.586,521.886 563.59,521.752 563.59,521.63 L 563.59,516.343 L 561.685,516.343 L 561.685,525.651 L 563.334,525.651 C 563.428,525.651 563.51,525.651 563.58,525.651 C 563.651,525.651 563.714,525.64 563.769,525.619 C 563.824,525.597 563.874,525.564 563.919,525.519 C 563.964,525.474 564.008,525.41 564.05,525.329 L 566.447,520.573 Z" marker-start="none" marker-end="none"/>
     <path d="M 579.686,525.66 L 579.686,523.996 L 575.864,523.996 L 575.864,521.821 L 578.791,521.821 L 578.791,520.223 L 575.864,520.223 L 575.864,518.007 L 579.686,518.007 L 579.686,516.343 L 573.69,516.343 L 573.69,525.66 L 579.686,525.66 Z" marker-start="none" marker-end="none"/>
     <path d="M 583.074,519.789 L 583.074,516.343 L 580.913,516.343 L 580.913,525.657 L 583.943,525.657 C 584.616,525.657 585.191,525.588 585.666,525.449 C 586.141,525.31 586.529,525.117 586.829,524.87 C 587.13,524.622 587.348,524.33 587.484,523.993 C 587.621,523.656 587.689,523.289 587.689,522.892 C 587.689,522.589 587.649,522.303 587.568,522.034 C 587.487,521.766 587.366,521.517 587.206,521.289 C 587.047,521.06 586.851,520.857 586.618,520.677 C 586.386,520.498 586.119,520.351 585.816,520.236 C 585.961,520.164 586.096,520.074 586.222,519.968 C 586.348,519.861 586.457,519.732 586.551,519.578 L 588.533,516.343 L 586.577,516.343 C 586.215,516.343 585.955,516.479 585.797,516.752 L 584.25,519.456 C 584.182,519.576 584.102,519.661 584.01,519.712 C 583.919,519.763 583.79,519.789 583.623,519.789 L 583.074,519.789 Z M 583.074,521.278 L 583.943,521.278 C 584.237,521.278 584.488,521.315 584.694,521.39 C 584.901,521.464 585.07,521.568 585.202,521.7 C 585.334,521.832 585.43,521.986 585.49,522.163 C 585.55,522.34 585.58,522.531 585.58,522.736 C 585.58,523.145 585.446,523.465 585.18,523.695 C 584.914,523.925 584.501,524.04 583.943,524.04 L 583.074,524.04 L 583.074,521.278 Z" marker-start="none" marker-end="none"/>
    </g>
    <g id="Group_7" fill-rule="nonzero" stroke-linejoin="round" stroke-linecap="round" stroke="none" stroke-width="0.365" fill="#000000">
     <path d="M 539.498,553.437 C 539.424,553.319 539.347,553.231 539.267,553.173 C 539.186,553.114 539.082,553.085 538.955,553.085 C 538.843,553.085 538.722,553.12 538.593,553.191 C 538.463,553.262 538.317,553.341 538.153,553.429 C 537.989,553.517 537.803,553.597 537.593,553.667 C 537.383,553.738 537.143,553.774 536.875,553.774 C 536.411,553.774 536.065,553.675 535.838,553.477 C 535.611,553.279 535.497,553.012 535.497,552.675 C 535.497,552.459 535.566,552.281 535.702,552.14 C 535.839,551.998 536.019,551.876 536.241,551.773 C 536.463,551.671 536.717,551.577 537.003,551.491 C 537.289,551.406 537.58,551.31 537.878,551.205 C 538.176,551.1 538.468,550.977 538.754,550.835 C 539.04,550.694 539.294,550.513 539.516,550.293 C 539.738,550.073 539.918,549.806 540.054,549.491 C 540.191,549.176 540.26,548.796 540.26,548.351 C 540.26,547.858 540.174,547.396 540.003,546.966 C 539.832,546.536 539.584,546.162 539.259,545.842 C 538.935,545.522 538.534,545.27 538.058,545.087 C 537.582,544.904 537.041,544.812 536.435,544.812 C 536.103,544.812 535.765,544.846 535.42,544.915 C 535.076,544.983 534.742,545.079 534.42,545.204 C 534.098,545.329 533.795,545.476 533.512,545.647 C 533.228,545.818 532.982,546.009 532.772,546.219 L 533.504,547.377 C 533.558,547.465 533.634,547.536 533.731,547.589 C 533.829,547.643 533.934,547.67 534.046,547.67 C 534.193,547.67 534.341,547.624 534.49,547.531 C 534.639,547.438 534.807,547.335 534.995,547.223 C 535.183,547.111 535.399,547.008 535.644,546.915 C 535.888,546.822 536.176,546.776 536.508,546.776 C 536.958,546.776 537.307,546.875 537.556,547.073 C 537.805,547.27 537.93,547.585 537.93,548.014 C 537.93,548.264 537.861,548.466 537.724,548.623 C 537.588,548.779 537.408,548.908 537.186,549.011 C 536.964,549.114 536.711,549.204 536.428,549.282 C 536.144,549.36 535.854,549.447 535.556,549.542 C 535.258,549.637 534.967,549.755 534.684,549.894 C 534.401,550.033 534.148,550.216 533.926,550.444 C 533.703,550.671 533.524,550.954 533.387,551.294 C 533.25,551.633 533.182,552.052 533.182,552.55 C 533.182,552.951 533.262,553.342 533.424,553.723 C 533.585,554.104 533.822,554.443 534.134,554.741 C 534.447,555.039 534.83,555.278 535.285,555.456 C 535.739,555.634 536.259,555.723 536.845,555.723 C 537.173,555.723 537.491,555.698 537.801,555.646 C 538.112,555.595 538.406,555.519 538.684,555.419 C 538.963,555.319 539.223,555.199 539.465,555.06 C 539.706,554.921 539.923,554.763 540.113,554.587 L 539.498,553.437 Z" marker-start="none" marker-end="none"/>
     <path d="M 546.949,549.778 C 547.046,549.591 547.14,549.397 547.231,549.195 C 547.321,548.994 547.408,548.787 547.491,548.575 C 547.574,548.792 547.662,549.002 547.755,549.206 C 547.847,549.41 547.943,549.608 548.04,549.8 L 550.781,555.229 C 550.829,555.323 550.879,555.395 550.931,555.447 C 550.982,555.499 551.039,555.537 551.103,555.561 C 551.166,555.586 551.238,555.598 551.319,555.598 C 551.4,555.598 551.494,555.598 551.601,555.598 L 553.491,555.598 L 553.491,544.93 L 551.308,544.93 L 551.308,550.99 C 551.308,551.284 551.323,551.602 551.352,551.944 L 548.524,546.541 C 548.436,546.373 548.318,546.246 548.169,546.159 C 548.02,546.072 547.85,546.029 547.659,546.029 L 547.322,546.029 C 547.132,546.029 546.962,546.072 546.813,546.159 C 546.664,546.246 546.546,546.373 546.458,546.541 L 543.615,551.951 C 543.635,551.783 543.649,551.615 543.659,551.449 C 543.669,551.283 543.674,551.13 543.674,550.99 L 543.674,544.93 L 541.49,544.93 L 541.49,555.598 L 543.381,555.598 C 543.488,555.598 543.582,555.598 543.663,555.598 C 543.743,555.598 543.815,555.586 543.879,555.561 C 543.942,555.537 544,555.499 544.051,555.447 C 544.102,555.395 544.152,555.323 544.201,555.229 L 546.949,549.778 Z" marker-start="none" marker-end="none"/>
     <path d="M 565.184,544.93 L 563.265,544.93 C 563.05,544.93 562.873,544.98 562.734,545.08 C 562.594,545.18 562.498,545.309 562.444,545.465 L 561.814,547.327 L 557.755,547.327 L 557.125,545.465 C 557.076,545.328 556.981,545.205 556.839,545.095 C 556.697,544.985 556.524,544.93 556.319,544.93 L 554.385,544.93 L 558.517,555.607 L 561.052,555.607 L 565.184,544.93 Z M 558.326,549.012 L 561.243,549.012 L 560.261,551.891 C 560.197,552.073 560.123,552.289 560.037,552.536 C 559.952,552.784 559.868,553.052 559.784,553.341 C 559.706,553.047 559.626,552.776 559.543,552.525 C 559.46,552.276 559.382,552.059 559.308,551.876 L 558.326,549.012 Z" marker-start="none" marker-end="none"/>
     <path d="M 568.523,548.88 L 568.523,544.93 L 566.046,544.93 L 566.046,555.605 L 569.519,555.605 C 570.291,555.605 570.949,555.526 571.494,555.367 C 572.038,555.208 572.483,554.987 572.827,554.703 C 573.172,554.419 573.422,554.084 573.578,553.698 C 573.734,553.312 573.813,552.891 573.813,552.436 C 573.813,552.089 573.766,551.761 573.673,551.453 C 573.581,551.145 573.443,550.86 573.259,550.598 C 573.076,550.337 572.852,550.103 572.585,549.898 C 572.319,549.693 572.013,549.524 571.666,549.392 C 571.832,549.309 571.987,549.206 572.131,549.084 C 572.275,548.963 572.401,548.814 572.508,548.638 L 574.78,544.93 L 572.538,544.93 C 572.123,544.93 571.825,545.086 571.644,545.399 L 569.871,548.499 C 569.793,548.635 569.701,548.733 569.596,548.792 C 569.491,548.85 569.343,548.88 569.153,548.88 L 568.523,548.88 Z M 568.523,550.586 L 569.519,550.586 C 569.856,550.586 570.143,550.629 570.38,550.714 C 570.617,550.8 570.811,550.918 570.962,551.07 C 571.114,551.221 571.224,551.398 571.292,551.601 C 571.361,551.804 571.395,552.023 571.395,552.257 C 571.395,552.726 571.242,553.093 570.937,553.356 C 570.632,553.62 570.159,553.752 569.519,553.752 L 568.523,553.752 L 568.523,550.586 Z" marker-start="none" marker-end="none"/>
     <path d="M 583.105,555.609 L 583.105,553.645 L 580.101,553.645 L 580.101,544.932 L 577.625,544.932 L 577.625,553.645 L 574.621,553.645 L 574.621,555.609 L 583.105,555.609 Z" marker-start="none" marker-end="none"/>
     <path d="M 586.61,548.5 L 586.61,544.932 L 584.133,544.932 L 584.133,555.609 L 587.899,555.609 C 588.651,555.609 589.297,555.52 589.837,555.341 C 590.377,555.163 590.821,554.918 591.171,554.605 C 591.52,554.292 591.777,553.923 591.944,553.498 C 592.11,553.073 592.193,552.614 592.193,552.121 C 592.193,551.588 592.107,551.099 591.936,550.655 C 591.765,550.21 591.504,549.829 591.152,549.512 C 590.801,549.194 590.355,548.946 589.815,548.768 C 589.275,548.59 588.637,548.5 587.899,548.5 L 586.61,548.5 Z M 586.61,550.368 L 587.899,550.368 C 588.544,550.368 589.008,550.522 589.291,550.83 C 589.575,551.138 589.716,551.568 589.716,552.12 C 589.716,552.365 589.68,552.588 589.606,552.788 C 589.533,552.988 589.422,553.16 589.273,553.305 C 589.124,553.449 588.936,553.56 588.709,553.638 C 588.482,553.717 588.212,553.756 587.899,553.756 L 586.61,553.756 L 586.61,550.368 Z" marker-start="none" marker-end="none"/>
     <path d="M 602.805,544.93 L 600.314,544.93 L 600.314,549.445 L 595.976,549.445 L 595.976,544.93 L 593.485,544.93 L 593.485,555.609 L 595.976,555.609 L 595.976,551.144 L 600.314,551.144 L 600.314,555.609 L 602.805,555.609 L 602.805,544.93 Z" marker-start="none" marker-end="none"/>
     <path d="M 615.097,550.271 C 615.097,549.499 614.964,548.781 614.698,548.117 C 614.432,547.453 614.057,546.875 613.573,546.384 C 613.09,545.893 612.507,545.508 611.826,545.23 C 611.144,544.951 610.388,544.812 609.558,544.812 C 608.728,544.812 607.971,544.951 607.287,545.23 C 606.603,545.508 606.018,545.893 605.532,546.384 C 605.046,546.875 604.67,547.453 604.404,548.117 C 604.137,548.781 604.004,549.499 604.004,550.271 C 604.004,551.043 604.137,551.761 604.404,552.426 C 604.67,553.09 605.046,553.667 605.532,554.155 C 606.018,554.644 606.603,555.027 607.287,555.306 C 607.971,555.584 608.728,555.723 609.558,555.723 C 610.388,555.723 611.144,555.583 611.826,555.302 C 612.507,555.021 613.09,554.636 613.573,554.148 C 614.057,553.659 614.432,553.083 614.698,552.418 C 614.964,551.754 615.097,551.038 615.097,550.271 Z M 612.562,550.271 C 612.562,550.799 612.494,551.273 612.357,551.696 C 612.22,552.118 612.024,552.476 611.767,552.769 C 611.511,553.062 611.197,553.286 610.826,553.443 C 610.454,553.599 610.032,553.677 609.558,553.677 C 609.079,553.677 608.653,553.599 608.28,553.443 C 607.906,553.286 607.591,553.062 607.334,552.769 C 607.078,552.476 606.881,552.118 606.745,551.696 C 606.608,551.273 606.539,550.799 606.539,550.271 C 606.539,549.739 606.608,549.262 606.745,548.839 C 606.881,548.417 607.078,548.059 607.334,547.766 C 607.591,547.473 607.906,547.25 608.28,547.096 C 608.653,546.942 609.079,546.865 609.558,546.865 C 610.032,546.865 610.454,546.942 610.826,547.096 C 611.197,547.25 611.511,547.473 611.767,547.766 C 612.024,548.059 612.22,548.417 612.357,548.839 C 612.494,549.262 612.562,549.739 612.562,550.271 Z" marker-start="none" marker-end="none"/>
     <path d="M 617.585,555.609 C 617.693,555.609 617.783,555.604 617.856,555.594 C 617.93,555.585 617.996,555.566 618.054,555.539 C 618.113,555.512 618.169,555.474 618.223,555.426 C 618.277,555.377 618.338,555.311 618.406,555.228 L 623.476,548.817 C 623.457,549.022 623.442,549.221 623.432,549.414 C 623.422,549.607 623.417,549.789 623.417,549.96 L 623.417,555.609 L 625.601,555.609 L 625.601,544.93 L 624.311,544.93 C 624.121,544.93 623.96,544.959 623.828,545.018 C 623.696,545.077 623.569,545.184 623.447,545.34 L 618.413,551.7 C 618.428,551.514 618.44,551.332 618.45,551.154 C 618.46,550.976 618.465,550.809 618.465,550.652 L 618.465,544.93 L 616.281,544.93 L 616.281,555.609 L 617.585,555.609 Z" marker-start="none" marker-end="none"/>
     <path d="M 634.23,555.609 L 634.23,553.702 L 629.848,553.702 L 629.848,551.209 L 633.204,551.209 L 633.204,549.377 L 629.848,549.377 L 629.848,546.837 L 634.23,546.837 L 634.23,544.93 L 627.357,544.93 L 627.357,555.609 L 634.23,555.609 Z" marker-start="none" marker-end="none"/>
     <path d="M 635.255,546.22 C 635.255,546.376 635.285,546.522 635.343,546.656 C 635.402,546.791 635.486,546.908 635.596,547.008 C 635.706,547.108 635.835,547.187 635.984,547.246 C 636.133,547.305 636.301,547.334 636.486,547.334 C 636.706,547.334 636.896,547.296 637.058,547.22 C 637.219,547.145 637.353,547.042 637.461,546.913 C 637.568,546.783 637.647,546.634 637.699,546.466 C 637.75,546.297 637.776,546.12 637.776,545.934 C 637.776,545.69 637.737,545.43 637.658,545.154 C 637.58,544.878 637.464,544.601 637.31,544.322 C 637.157,544.044 636.965,543.77 636.735,543.501 C 636.506,543.233 636.242,542.988 635.944,542.769 L 635.548,543.12 C 635.495,543.174 635.454,543.224 635.427,543.271 C 635.401,543.317 635.387,543.374 635.387,543.443 C 635.387,543.492 635.404,543.544 635.438,543.6 C 635.473,543.657 635.514,543.707 635.563,543.751 C 635.622,543.809 635.69,543.88 635.768,543.963 C 635.846,544.046 635.924,544.139 636.003,544.242 C 636.081,544.344 636.153,544.457 636.219,544.579 C 636.285,544.701 636.335,544.83 636.369,544.967 C 636.198,544.982 636.044,545.023 635.907,545.092 C 635.771,545.16 635.655,545.251 635.559,545.363 C 635.464,545.475 635.39,545.603 635.336,545.748 C 635.282,545.892 635.255,546.049 635.255,546.22 Z" marker-start="none" marker-end="none"/>
     <path d="M 644.629,544.93 L 642.138,544.93 L 642.138,555.609 L 644.629,555.609 L 644.629,544.93 Z" marker-start="none" marker-end="none"/>
     <path d="M 647.909,555.609 C 648.017,555.609 648.107,555.604 648.18,555.594 C 648.254,555.585 648.32,555.566 648.378,555.539 C 648.437,555.512 648.493,555.474 648.547,555.426 C 648.601,555.377 648.662,555.311 648.73,555.228 L 653.8,548.817 C 653.781,549.022 653.766,549.221 653.756,549.414 C 653.746,549.607 653.741,549.789 653.741,549.96 L 653.741,555.609 L 655.925,555.609 L 655.925,544.93 L 654.635,544.93 C 654.445,544.93 654.284,544.959 654.152,545.018 C 654.02,545.077 653.893,545.184 653.771,545.34 L 648.737,551.7 C 648.752,551.514 648.764,551.332 648.774,551.154 C 648.784,550.976 648.789,550.809 648.789,550.652 L 648.789,544.93 L 646.605,544.93 L 646.605,555.609 L 647.909,555.609 Z" marker-start="none" marker-end="none"/>
     <path d="M 664.854,547.69 C 664.913,547.69 664.971,547.679 665.03,547.657 C 665.089,547.634 665.145,547.596 665.198,547.541 L 666.18,546.486 C 665.75,545.933 665.212,545.515 664.565,545.234 C 663.918,544.953 663.152,544.812 662.268,544.812 C 661.457,544.812 660.73,544.95 660.088,545.226 C 659.446,545.502 658.901,545.883 658.454,546.369 C 658.007,546.855 657.664,547.432 657.425,548.099 C 657.185,548.766 657.066,549.49 657.066,550.271 C 657.066,551.068 657.203,551.799 657.476,552.466 C 657.75,553.133 658.132,553.708 658.623,554.192 C 659.114,554.675 659.701,555.052 660.385,555.32 C 661.069,555.589 661.823,555.723 662.649,555.723 C 663.049,555.723 663.427,555.688 663.781,555.617 C 664.135,555.546 664.466,555.448 664.774,555.323 C 665.081,555.199 665.365,555.05 665.623,554.876 C 665.882,554.702 666.112,554.51 666.312,554.3 L 665.477,553.179 C 665.423,553.11 665.36,553.048 665.286,552.992 C 665.213,552.936 665.111,552.908 664.979,552.908 C 664.891,552.908 664.808,552.927 664.73,552.966 C 664.651,553.005 664.568,553.053 664.48,553.109 C 664.393,553.165 664.296,553.226 664.191,553.292 C 664.086,553.358 663.961,553.419 663.817,553.476 C 663.673,553.532 663.505,553.579 663.312,553.619 C 663.119,553.657 662.893,553.677 662.634,553.677 C 662.185,553.677 661.774,553.598 661.403,553.439 C 661.032,553.28 660.713,553.053 660.447,552.757 C 660.181,552.462 659.973,552.104 659.824,551.684 C 659.675,551.264 659.601,550.792 659.601,550.27 C 659.601,549.722 659.675,549.236 659.824,548.811 C 659.973,548.386 660.176,548.029 660.432,547.738 C 660.689,547.447 660.988,547.226 661.33,547.075 C 661.672,546.923 662.038,546.848 662.429,546.848 C 662.654,546.848 662.859,546.859 663.044,546.881 C 663.23,546.903 663.402,546.94 663.561,546.994 C 663.72,547.048 663.871,547.117 664.015,547.203 C 664.159,547.288 664.305,547.395 664.451,547.522 C 664.51,547.571 664.573,547.611 664.642,547.643 C 664.71,547.674 664.781,547.69 664.854,547.69 Z" marker-start="none" marker-end="none"/>
     <path d="M 666.873,546.08 C 666.873,546.256 666.906,546.42 666.972,546.571 C 667.037,546.723 667.128,546.855 667.243,546.967 C 667.357,547.08 667.493,547.169 667.649,547.235 C 667.806,547.301 667.977,547.334 668.162,547.334 C 668.343,547.334 668.511,547.301 668.668,547.235 C 668.824,547.169 668.961,547.08 669.078,546.967 C 669.195,546.855 669.287,546.723 669.353,546.571 C 669.419,546.42 669.452,546.256 669.452,546.08 C 669.452,545.904 669.419,545.739 669.353,545.585 C 669.287,545.431 669.195,545.298 669.078,545.186 C 668.961,545.073 668.824,544.985 668.668,544.922 C 668.511,544.858 668.343,544.826 668.162,544.826 C 667.977,544.826 667.806,544.858 667.649,544.922 C 667.493,544.985 667.357,545.073 667.243,545.186 C 667.128,545.298 667.037,545.431 666.972,545.585 C 666.906,545.739 666.873,545.904 666.873,546.08 Z" marker-start="none" marker-end="none"/>
    </g>
    <path d="M 630.965,486.94 C 631.666,486.94 632.29,486.841 632.836,486.642 C 633.381,486.444 633.843,486.175 634.22,485.836 C 634.596,485.497 634.882,485.105 635.077,484.658 C 635.272,484.212 635.37,483.741 635.37,483.246 C 635.37,482.797 635.324,482.401 635.233,482.058 C 635.142,481.716 635.007,481.42 634.829,481.169 C 634.65,480.918 634.429,480.705 634.166,480.529 C 633.903,480.353 633.602,480.207 633.265,480.089 C 634.837,479.545 635.623,478.478 635.623,476.89 C 635.623,476.138 635.486,475.484 635.214,474.926 C 634.941,474.368 634.575,473.905 634.117,473.536 C 633.659,473.166 633.128,472.889 632.524,472.704 C 631.92,472.519 631.289,472.427 630.633,472.427 C 629.958,472.427 629.357,472.5 628.83,472.646 C 628.304,472.792 627.836,473.02 627.427,473.328 C 627.018,473.637 626.659,474.031 626.35,474.512 C 626.042,474.993 625.774,475.564 625.546,476.227 L 626.891,476.774 C 627.008,476.827 627.123,476.862 627.237,476.882 C 627.351,476.901 627.463,476.911 627.573,476.911 C 627.781,476.911 627.968,476.87 628.134,476.789 C 628.299,476.708 628.424,476.589 628.509,476.433 C 628.801,475.893 629.111,475.501 629.439,475.258 C 629.768,475.014 630.152,474.892 630.594,474.892 C 630.932,474.892 631.226,474.949 631.476,475.063 C 631.726,475.176 631.934,475.322 632.1,475.501 C 632.266,475.68 632.391,475.884 632.475,476.111 C 632.56,476.339 632.602,476.57 632.602,476.804 C 632.602,477.109 632.581,477.384 632.539,477.628 C 632.496,477.872 632.378,478.082 632.183,478.257 C 631.988,478.433 631.694,478.568 631.301,478.662 C 630.908,478.756 630.36,478.803 629.659,478.803 L 629.659,480.888 C 630.25,480.888 630.727,480.933 631.091,481.024 C 631.455,481.115 631.736,481.24 631.934,481.4 C 632.132,481.559 632.264,481.752 632.329,481.98 C 632.394,482.207 632.426,482.457 632.426,482.73 C 632.426,483.289 632.292,483.72 632.022,484.022 C 631.752,484.324 631.341,484.476 630.789,484.476 C 630.562,484.476 630.354,484.443 630.165,484.378 C 629.977,484.313 629.808,484.225 629.659,484.115 C 629.509,484.004 629.381,483.874 629.274,483.725 C 629.167,483.575 629.081,483.413 629.016,483.237 C 628.912,482.945 628.78,482.734 628.621,482.604 C 628.462,482.474 628.246,482.408 627.973,482.408 C 627.908,482.408 627.838,482.412 627.763,482.418 C 627.689,482.425 627.612,482.434 627.534,482.447 L 625.936,482.73 C 626.04,483.438 626.24,484.056 626.535,484.582 C 626.831,485.108 627.198,485.547 627.637,485.898 C 628.075,486.248 628.577,486.51 629.142,486.682 C 629.707,486.854 630.315,486.94 630.965,486.94 Z" fill-rule="nonzero" stroke-linejoin="round" stroke-linecap="round" stroke="none" stroke-width="0.485" fill="#000000" marker-start="none" marker-end="none"/>
   </g>
   <path d="M 489.069,382.866 L 489.069,567.876 C 489.069,576.273 495.884,583.089 504.281,583.089 L 689.292,583.089 C 697.689,583.089 704.504,576.273 704.504,567.876 L 704.504,382.866 C 704.504,374.469 697.689,367.653 689.292,367.653 L 504.281,367.653 C 495.884,367.653 489.069,374.469 489.069,382.866 Z M 703.795,383.475 L 703.795,567.267 C 703.795,575.609 697.025,582.38 688.683,582.38 L 504.89,582.38 C 496.548,582.38 489.778,575.609 489.778,567.267 L 489.778,383.475 C 489.778,375.133 496.548,368.362 504.89,368.362 L 688.683,368.362 C 697.025,368.362 703.795,375.133 703.795,383.475 Z" stroke-linejoin="miter" stroke-width="0.802" fill="#7f7f7f" stroke="none" marker-start="none" marker-end="none"/>
  </g>
 </g>
</svg>
