<?xml version="1.0" standalone="no"?>
<!DOCTYPE svg PUBLIC "-//W3C//DTD SVG 1.1//EN" "http://www.w3.org/Graphics/SVG/1.1/DTD/svg11.dtd">
<!--Generator: Xara Designer (www.xara.com), SVG filter version: 6.6.0.0-->
<svg fill="none" fill-rule="evenodd" stroke="black" stroke-width="0.501" stroke-linejoin="bevel" stroke-miterlimit="10" font-family="Times New Roman" font-size="16" style="font-variant-ligatures:none" xmlns:xlink="http://www.w3.org/1999/xlink" xmlns="http://www.w3.org/2000/svg" version="1.1" overflow="visible" width="215.435pt" height="215.436pt" viewBox="21.53 -321.255 215.435 215.436">
 <defs>
	</defs>
 <g id="Page background" transform="scale(1 -1)"/>
 <g id="Layer 1" transform="scale(1 -1)">
  <g id="Group">
   <g id="Group_1">
    <g id="Group_2" stroke-linejoin="miter" stroke="none" stroke-width="0.802">
     <path d="M 21.53,306.042 L 21.53,121.032 C 21.53,112.635 28.345,105.819 36.742,105.819 L 221.753,105.819 C 230.15,105.819 236.965,112.635 236.965,121.032 L 236.965,306.042 C 236.965,314.439 230.15,321.255 221.753,321.255 L 36.742,321.255 C 28.345,321.255 21.53,314.439 21.53,306.042 Z" fill="#7f7f7f" marker-start="none" marker-end="none"/>
     <path d="M 22.239,305.433 L 22.239,121.641 C 22.239,113.299 29.009,106.528 37.351,106.528 L 221.144,106.528 C 229.486,106.528 236.256,113.299 236.256,121.641 L 236.256,305.433 C 236.256,313.775 229.486,320.546 221.144,320.546 L 37.351,320.546 C 29.009,320.546 22.239,313.775 22.239,305.433 Z" marker-start="none" marker-end="none"/>
     <path d="M 22.239,305.433 L 22.239,121.641 C 22.239,113.299 29.009,106.528 37.351,106.528 L 221.144,106.528 C 229.486,106.528 236.256,113.299 236.256,121.641 L 236.256,305.433 C 236.256,313.775 229.486,320.546 221.144,320.546 L 37.351,320.546 C 29.009,320.546 22.239,313.775 22.239,305.433 Z" fill="#ffffff" marker-start="none" marker-end="none"/>
    </g>
    <g id="Group_3" stroke-linejoin="miter" stroke-linecap="round" stroke="#ff7979">
     <path d="M 36.535,251.935 L 36.535,285.827 L 140.123,285.827 L 140.123,251.935 L 36.535,251.935 Z" fill="#ff7979" stroke-width="1.738" marker-start="none" marker-end="none"/>
     <path d="M 36.535,250.592 L 36.535,260.402 C 36.535,262.973 38.619,265.05 41.181,265.05 L 135.473,265.05 C 138.035,265.05 140.123,262.973 140.123,260.402 L 140.123,250.592 C 140.123,248.016 138.035,245.938 135.473,245.938 L 41.181,245.938 C 38.619,245.938 36.535,248.016 36.535,250.592 Z" fill="#ff7979" stroke-width="1.738" marker-start="none" marker-end="none"/>
     <path d="M 37.232,279.485 L 37.232,297.13 C 37.232,301.743 40.976,305.489 45.594,305.489 L 212.64,305.489 C 217.253,305.489 221.001,301.743 221.001,297.13 L 221.001,279.485 C 221.001,274.867 217.253,271.119 212.64,271.119 L 45.594,271.119 C 40.976,271.119 37.232,274.867 37.232,279.485 Z" fill="#ffffff" stroke-width="3.13" marker-start="none" marker-end="none"/>
    </g>
    <g id="Group_4" stroke-linecap="round" stroke="none" fill="#e5e5e5">
     <path d="M 22.035,220.545 L 22.035,229.079 L 71.198,229.079 L 71.198,220.545 L 22.035,220.545 Z" stroke-width="0.103" stroke-linejoin="miter" marker-start="none" marker-end="none"/>
     <path d="M 121.64,200.313 C 109.372,213.752 92.559,220.581 75.686,220.584 L 75.686,229.063 C 94.858,229.058 113.971,221.308 127.905,206.039 C 140.279,192.478 146.38,175.401 146.375,158.378 L 137.889,158.378 C 137.896,173.36 132.527,188.387 121.64,200.313 Z" stroke-width="0.541" stroke-linejoin="round" marker-start="none" marker-end="none"/>
     <path d="M 142.148,120.425 L 140.03,123.47 L 137.908,126.523 L 137.855,126.523 L 137.855,153.8 L 146.391,153.8 L 146.391,126.523 L 144.271,123.47 L 142.148,120.425 Z" stroke-width="0.103" stroke-linejoin="miter" marker-start="none" marker-end="none"/>
    </g>
    <path d="M 130.598,120.421 L 128.478,123.467 L 126.357,126.523 L 130.598,126.523 L 134.839,126.519 L 132.716,123.467 L 130.598,120.421 Z M 126.334,126.523 L 126.334,153.8 L 134.868,153.8 L 134.868,126.523 L 126.334,126.523 Z" stroke-linecap="round" stroke="none" fill="#e5e5e5" stroke-width="0.103" stroke-linejoin="miter" marker-start="none" marker-end="none"/>
    <path d="M 113.286,192.691 C 103.246,203.682 89.491,209.269 75.686,209.274 L 75.686,217.755 C 91.793,217.751 107.843,211.236 119.552,198.408 C 129.946,187.021 135.066,172.678 135.063,158.378 L 126.577,158.378 C 126.587,170.635 122.192,182.927 113.286,192.691 Z" stroke-linecap="round" stroke="none" fill="#e5e5e5" stroke-width="0.453" stroke-linejoin="round" marker-start="none" marker-end="none"/>
    <path d="M 22.035,209.242 L 22.035,217.774 L 71.198,217.774 L 71.198,209.242 L 22.035,209.242 Z" stroke-linecap="round" stroke="none" fill="#e5e5e5" stroke-width="0.103" stroke-linejoin="miter" marker-start="none" marker-end="none"/>
    <g id="Group_5" stroke-linecap="round" stroke="none" fill="#e5e5e5">
     <path d="M 119.282,120.421 L 117.166,123.467 L 115.045,126.523 L 119.286,126.523 L 123.529,126.519 L 121.409,123.467 L 119.282,120.421 Z M 115.036,126.523 L 115.036,153.8 L 123.571,153.8 L 123.571,126.523 L 115.036,126.523 Z" stroke-width="0.103" stroke-linejoin="miter" marker-start="none" marker-end="none"/>
     <path d="M 22.035,197.944 L 22.035,206.475 L 71.198,206.475 L 71.198,197.944 L 22.035,197.944 Z" stroke-width="0.103" stroke-linejoin="miter" marker-start="none" marker-end="none"/>
     <path d="M 104.931,185.064 C 97.124,193.616 86.419,197.956 75.686,197.962 L 75.686,206.446 C 88.728,206.443 101.718,201.17 111.197,190.781 C 119.608,181.566 123.756,169.95 123.754,158.378 L 115.272,158.378 C 115.272,167.91 111.858,177.475 104.931,185.064 Z" stroke-width="0.368" stroke-linejoin="round" marker-start="none" marker-end="none"/>
    </g>
    <g id="Group_6" stroke-linecap="round" stroke="none" fill="#11a7e0">
     <path d="M 22.035,186.648 L 22.035,195.182 L 71.198,195.182 L 71.198,186.648 L 22.035,186.648 Z" stroke-width="0.103" stroke-linejoin="miter" marker-start="none" marker-end="none"/>
     <path d="M 96.576,177.443 C 90.998,183.55 83.36,186.65 75.686,186.653 L 75.686,195.14 C 85.656,195.131 95.595,191.098 102.838,183.16 C 109.277,176.111 112.448,167.234 112.444,158.378 L 103.956,158.378 C 103.963,165.185 101.521,172.017 96.576,177.443 Z" stroke-width="0.281" stroke-linejoin="round" marker-start="none" marker-end="none"/>
     <path d="M 108.229,120.425 L 106.097,123.47 L 103.956,126.523 L 103.956,126.523 L 103.956,153.8 L 112.495,153.8 L 112.495,126.523 L 112.495,126.523 L 110.365,123.467 L 108.229,120.425 Z" stroke-width="0.103" stroke-linejoin="miter" marker-start="none" marker-end="none"/>
    </g>
    <g id="Group_7" stroke-linejoin="miter">
     <path d="M 42.885,130.72 C 33.988,141.26 35.313,157.046 45.865,165.93 C 56.396,174.844 72.161,173.512 81.062,162.974 C 89.976,152.434 88.64,136.66 78.086,127.757 C 67.555,118.861 51.783,120.192 42.885,130.72 Z" stroke="none" fill="#000000" stroke-width="1.039" marker-start="none" marker-end="none"/>
     <path d="M 44.062,131.677 C 35.175,142.222 36.491,157.975 47.035,166.892 C 57.578,175.765 73.345,174.45 82.262,163.912 C 91.156,153.375 89.823,137.592 79.276,128.695 C 68.748,119.799 52.967,121.123 44.062,131.677 Z" stroke="#b2b2b2" stroke-width="5.658" marker-start="none" marker-end="none"/>
    </g>
    <g id="Group_8" stroke-linejoin="miter">
     <path d="M 190.256,206.517 C 184.356,213.495 185.235,223.955 192.23,229.864 C 199.212,235.756 209.665,234.877 215.569,227.89 C 221.478,220.898 220.592,210.444 213.595,204.539 C 206.613,198.644 196.156,199.523 190.256,206.517 Z" stroke="none" fill="#000000" stroke-width="0.686" marker-start="none" marker-end="none"/>
     <path d="M 191.034,207.126 C 185.143,214.124 186.015,224.583 193.008,230.476 C 199.997,236.385 210.449,235.502 216.365,228.509 C 222.262,221.527 221.377,211.075 214.383,205.17 C 207.404,199.264 196.94,200.143 191.034,207.126 Z" stroke="#b2b2b2" stroke-width="3.752" marker-start="none" marker-end="none"/>
    </g>
    <g id="Group_9" stroke-linejoin="miter">
     <path d="M 40.759,199.324 C 36.234,204.68 36.91,212.696 42.268,217.22 C 47.624,221.743 55.645,221.071 60.164,215.713 C 64.689,210.357 64.014,202.338 58.655,197.818 C 53.301,193.29 45.281,193.973 40.759,199.324 Z" stroke="none" fill="#ffffff" stroke-width="0.526" marker-start="none" marker-end="none"/>
     <path d="M 41.362,199.806 C 36.838,205.155 37.514,213.177 42.87,217.698 C 48.229,222.226 56.245,221.548 60.769,216.189 C 65.297,210.838 64.62,202.815 59.26,198.291 C 53.9,193.77 45.885,194.444 41.362,199.806 Z" fill="none" stroke="#539bc5" stroke-width="2.872" marker-start="none" marker-end="none"/>
    </g>
    <g id="Group_10" stroke-linejoin="miter">
     <path d="M 98.067,187.375 C 93.546,192.726 94.221,200.745 99.578,205.273 C 104.935,209.789 112.954,209.116 117.478,203.758 C 122.001,198.404 121.321,190.387 115.967,185.864 C 110.611,181.34 102.592,182.016 98.067,187.375 Z" stroke="none" fill="#ffffff" stroke-width="0.526" marker-start="none" marker-end="none"/>
     <path d="M 98.676,187.853 C 94.148,193.207 94.822,201.223 100.182,205.747 C 105.54,210.272 113.555,209.598 118.08,204.236 C 122.608,198.88 121.923,190.863 116.572,186.337 C 111.212,181.812 103.197,182.493 98.676,187.853 Z" fill="none" stroke="#539bc5" stroke-width="2.872" marker-start="none" marker-end="none"/>
    </g>
    <g id="Group_11" stroke-linejoin="miter">
     <path d="M 114.855,129.745 C 110.331,135.101 111.01,143.118 116.365,147.646 C 121.726,152.167 129.745,151.489 134.268,146.131 C 138.796,140.779 138.114,132.756 132.757,128.237 C 127.397,123.718 119.381,124.392 114.855,129.745 Z" stroke="none" fill="#ffffff" stroke-width="0.526" marker-start="none" marker-end="none"/>
     <path d="M 115.462,130.229 C 110.938,135.58 111.615,143.599 116.973,148.124 C 122.333,152.645 130.348,151.971 134.871,146.611 C 139.397,141.258 138.72,133.238 133.364,128.717 C 128.002,124.192 119.985,124.868 115.462,130.229 Z" fill="none" stroke="#539bc5" stroke-width="2.872" marker-start="none" marker-end="none"/>
    </g>
    <g id="Group_12" stroke-linejoin="miter">
     <path d="M 149.571,206.504 C 143.671,213.493 144.55,223.961 151.547,229.852 C 158.53,235.763 168.984,234.88 174.886,227.892 C 180.797,220.903 179.911,210.443 172.913,204.539 C 165.93,198.64 155.471,199.523 149.571,206.504 Z" stroke="none" fill="#ffffff" stroke-width="0.689" marker-start="none" marker-end="none"/>
     <path d="M 150.351,207.139 C 144.458,214.131 145.331,224.577 152.323,230.49 C 159.314,236.374 169.769,235.502 175.682,228.514 C 181.58,221.527 180.696,211.061 173.702,205.161 C 166.721,199.262 156.256,200.14 150.351,207.139 Z" stroke="#539bc5" stroke-width="3.752" marker-start="none" marker-end="none"/>
    </g>
    <g id="Group_13" stroke-linejoin="miter">
     <path d="M 173.596,130.709 C 164.699,141.249 166.024,157.035 176.576,165.919 C 187.107,174.833 202.872,173.501 211.773,162.963 C 220.687,152.423 219.351,136.649 208.797,127.746 C 198.266,118.85 182.494,120.181 173.596,130.709 Z" stroke="none" fill="#ffffff" stroke-width="1.039" marker-start="none" marker-end="none"/>
     <path d="M 174.773,131.666 C 165.886,142.211 167.202,157.964 177.746,166.881 C 188.289,175.754 204.056,174.439 212.973,163.901 C 221.867,153.364 220.534,137.581 209.987,128.684 C 199.459,119.788 183.678,121.112 174.773,131.666 Z" stroke="#539bc5" stroke-width="5.658" marker-start="none" marker-end="none"/>
    </g>
    <g id="Group_14" fill-rule="nonzero" stroke-linejoin="round" stroke-linecap="round" stroke="none" stroke-width="0.485" fill="#b2b2b2">
     <g id="Group_15">
      <path d="M 202.879,225.078 C 203.58,225.078 204.212,224.976 204.774,224.771 C 205.336,224.567 205.815,224.282 206.212,223.919 C 206.608,223.555 206.912,223.121 207.123,222.618 C 207.334,222.114 207.44,221.56 207.44,220.956 C 207.44,220.436 207.367,219.955 207.22,219.513 C 207.074,219.071 206.874,218.651 206.621,218.251 C 206.368,217.852 206.074,217.465 205.739,217.091 C 205.404,216.718 205.049,216.339 204.672,215.956 L 201.894,213.11 C 202.252,213.215 202.604,213.298 202.952,213.36 C 203.299,213.423 203.626,213.453 203.931,213.453 L 206.582,213.453 C 206.907,213.453 207.163,213.364 207.352,213.185 C 207.54,213.006 207.635,212.77 207.635,212.478 L 207.635,210.722 L 197.655,210.722 L 197.655,211.697 C 197.655,211.885 197.694,212.086 197.772,212.301 C 197.85,212.515 197.987,212.71 198.181,212.886 L 202.275,217.009 C 202.625,217.36 202.931,217.695 203.191,218.013 C 203.45,218.331 203.665,218.645 203.834,218.953 C 204.003,219.262 204.129,219.571 204.214,219.879 C 204.298,220.188 204.341,220.515 204.341,220.859 C 204.341,221.424 204.206,221.858 203.936,222.16 C 203.666,222.462 203.256,222.614 202.703,222.614 C 202.476,222.614 202.268,222.581 202.08,222.516 C 201.891,222.451 201.722,222.363 201.573,222.253 C 201.423,222.143 201.295,222.013 201.188,221.863 C 201.081,221.714 200.995,221.551 200.93,221.376 C 200.826,221.084 200.694,220.873 200.535,220.743 C 200.376,220.613 200.16,220.548 199.887,220.548 C 199.822,220.548 199.752,220.551 199.677,220.557 C 199.603,220.564 199.526,220.573 199.448,220.586 L 197.85,220.864 C 197.954,221.573 198.154,222.191 198.449,222.718 C 198.745,223.245 199.112,223.683 199.551,224.035 C 199.989,224.386 200.491,224.647 201.056,224.82 C 201.622,224.992 202.229,225.078 202.879,225.078 Z" marker-start="none" marker-end="none"/>
     </g>
    </g>
    <g id="Group_16" fill-rule="nonzero" stroke-linejoin="round" stroke-linecap="round" stroke="none" stroke-width="0.387" fill="#000000">
     <g id="Group_17">
      <path d="M 47.463,211.441 L 47.463,208.359 L 50.342,208.359 L 50.342,206.63 L 47.463,206.63 L 47.463,203.533 L 45.502,203.533 L 45.502,206.63 L 42.638,206.63 L 42.638,208.359 L 45.502,208.359 L 45.502,211.441 L 47.463,211.441 Z" marker-start="none" marker-end="none"/>
      <path d="M 52.973,204.008 L 55.152,204.008 L 55.152,209.728 C 55.152,210.009 55.16,210.302 55.175,210.608 L 53.891,209.541 C 53.808,209.474 53.725,209.426 53.642,209.397 C 53.559,209.369 53.479,209.355 53.401,209.355 C 53.266,209.355 53.146,209.384 53.039,209.444 C 52.933,209.504 52.854,209.567 52.802,209.635 L 52.039,210.647 L 55.572,213.612 L 57.565,213.612 L 57.565,204.008 L 59.432,204.008 L 59.432,202.264 L 52.973,202.264 L 52.973,204.008 Z" marker-start="none" marker-end="none"/>
     </g>
    </g>
    <g id="Group_18" fill-rule="nonzero" stroke-linejoin="round" stroke-linecap="round" stroke="none" stroke-width="0.485" fill="#000000">
     <g id="Group_19">
      <path d="M 166.769,216.237 L 168.23,216.237 L 168.23,214.542 C 168.23,214.392 168.18,214.263 168.079,214.152 C 167.979,214.042 167.834,213.986 167.646,213.986 L 166.769,213.986 L 166.769,210.722 L 164.137,210.722 L 164.137,213.986 L 158.426,213.986 C 158.238,213.986 158.067,214.045 157.915,214.162 C 157.762,214.279 157.666,214.425 157.627,214.6 L 157.315,216.092 L 163.884,224.924 L 166.769,224.924 L 166.769,216.237 Z M 164.137,219.941 C 164.137,220.169 164.145,220.414 164.162,220.677 C 164.178,220.94 164.202,221.211 164.235,221.491 L 160.483,216.237 L 164.137,216.237 L 164.137,219.941 Z" marker-start="none" marker-end="none"/>
     </g>
    </g>
    <g id="Group_20" fill-rule="nonzero" stroke-linejoin="round" stroke-linecap="round" stroke="none" stroke-width="0.387" fill="#000000">
     <g id="Group_21">
      <path d="M 104.2,200.296 L 104.2,197.214 L 107.079,197.214 L 107.079,195.485 L 104.2,195.485 L 104.2,192.388 L 102.239,192.388 L 102.239,195.485 L 99.375,195.485 L 99.375,197.214 L 102.239,197.214 L 102.239,200.296 L 104.2,200.296 Z" marker-start="none" marker-end="none"/>
      <path d="M 109.71,192.863 L 111.889,192.863 L 111.889,198.583 C 111.889,198.864 111.897,199.157 111.912,199.463 L 110.628,198.396 C 110.545,198.329 110.462,198.281 110.379,198.252 C 110.296,198.224 110.216,198.21 110.138,198.21 C 110.003,198.21 109.883,198.239 109.776,198.299 C 109.67,198.359 109.591,198.422 109.539,198.49 L 108.776,199.502 L 112.309,202.467 L 114.302,202.467 L 114.302,192.863 L 116.169,192.863 L 116.169,191.119 L 109.71,191.119 L 109.71,192.863 Z" marker-start="none" marker-end="none"/>
     </g>
    </g>
    <g id="Group_22" fill-rule="nonzero" stroke-linejoin="round" stroke-linecap="round" stroke="none" stroke-width="0.387" fill="#000000">
     <g id="Group_23">
      <path d="M 120.464,141.927 L 120.464,138.845 L 123.343,138.845 L 123.343,137.116 L 120.464,137.116 L 120.464,134.019 L 118.503,134.019 L 118.503,137.116 L 115.639,137.116 L 115.639,138.845 L 118.503,138.845 L 118.503,141.927 L 120.464,141.927 Z" marker-start="none" marker-end="none"/>
      <path d="M 125.974,134.494 L 128.153,134.494 L 128.153,140.214 C 128.153,140.495 128.161,140.788 128.176,141.094 L 126.892,140.027 C 126.809,139.96 126.726,139.912 126.643,139.883 C 126.56,139.855 126.48,139.841 126.402,139.841 C 126.267,139.841 126.147,139.87 126.04,139.93 C 125.934,139.99 125.855,140.053 125.803,140.121 L 125.04,141.133 L 128.573,144.098 L 130.566,144.098 L 130.566,134.494 L 132.433,134.494 L 132.433,132.75 L 125.974,132.75 L 125.974,134.494 Z" marker-start="none" marker-end="none"/>
     </g>
    </g>
    <g id="Group_24" fill-rule="nonzero" stroke-linejoin="round" stroke-linecap="round" stroke="none" stroke-width="0.319" fill="#ffffff">
     <g id="Group_25">
      <path d="M 55.87,256.889 C 55.921,256.889 55.973,256.88 56.024,256.86 C 56.075,256.84 56.124,256.807 56.171,256.759 L 57.027,255.838 C 56.652,255.356 56.182,254.992 55.618,254.746 C 55.053,254.501 54.385,254.378 53.614,254.378 C 52.906,254.378 52.272,254.498 51.712,254.739 C 51.152,254.98 50.676,255.313 50.286,255.737 C 49.897,256.161 49.597,256.664 49.388,257.246 C 49.18,257.827 49.075,258.459 49.075,259.141 C 49.075,259.836 49.194,260.474 49.433,261.056 C 49.672,261.638 50.005,262.14 50.434,262.562 C 50.862,262.984 51.374,263.312 51.971,263.546 C 52.568,263.781 53.226,263.898 53.946,263.898 C 54.296,263.898 54.625,263.867 54.934,263.805 C 55.243,263.743 55.531,263.658 55.8,263.549 C 56.068,263.44 56.316,263.31 56.541,263.158 C 56.767,263.007 56.968,262.839 57.142,262.656 L 56.414,261.678 C 56.367,261.618 56.311,261.564 56.247,261.515 C 56.183,261.466 56.094,261.441 55.979,261.441 C 55.902,261.441 55.83,261.458 55.762,261.492 C 55.693,261.526 55.621,261.568 55.544,261.617 C 55.468,261.666 55.383,261.719 55.292,261.777 C 55.2,261.834 55.091,261.888 54.966,261.937 C 54.84,261.986 54.693,262.027 54.525,262.061 C 54.356,262.095 54.159,262.112 53.933,262.113 C 53.541,262.112 53.183,262.043 52.859,261.905 C 52.536,261.766 52.257,261.568 52.025,261.31 C 51.793,261.052 51.612,260.74 51.482,260.374 C 51.352,260.007 51.287,259.596 51.287,259.14 C 51.287,258.662 51.352,258.238 51.482,257.867 C 51.612,257.497 51.789,257.184 52.012,256.931 C 52.236,256.677 52.497,256.484 52.796,256.352 C 53.094,256.22 53.413,256.154 53.754,256.154 C 53.95,256.154 54.129,256.164 54.291,256.183 C 54.453,256.202 54.603,256.235 54.742,256.282 C 54.88,256.329 55.013,256.389 55.138,256.464 C 55.264,256.539 55.391,256.631 55.519,256.742 C 55.57,256.785 55.625,256.82 55.685,256.848 C 55.745,256.875 55.806,256.889 55.87,256.889 Z" marker-start="none" marker-end="none"/>
      <path d="M 67.207,259.141 C 67.207,258.468 67.091,257.841 66.859,257.262 C 66.627,256.682 66.3,256.178 65.878,255.749 C 65.456,255.321 64.948,254.985 64.353,254.742 C 63.759,254.499 63.099,254.378 62.375,254.378 C 61.65,254.378 60.99,254.499 60.393,254.742 C 59.796,254.985 59.286,255.321 58.862,255.749 C 58.438,256.178 58.11,256.682 57.878,257.262 C 57.645,257.841 57.529,258.468 57.529,259.141 C 57.529,259.815 57.645,260.441 57.878,261.021 C 58.11,261.601 58.438,262.103 58.862,262.53 C 59.286,262.956 59.796,263.291 60.393,263.534 C 60.99,263.776 61.65,263.898 62.375,263.898 C 63.099,263.898 63.759,263.775 64.353,263.53 C 64.948,263.285 65.456,262.95 65.878,262.523 C 66.3,262.097 66.627,261.594 66.859,261.014 C 67.091,260.435 67.207,259.81 67.207,259.141 Z M 64.996,259.141 C 64.996,259.601 64.936,260.015 64.817,260.384 C 64.697,260.752 64.526,261.065 64.302,261.32 C 64.078,261.576 63.804,261.772 63.481,261.908 C 63.157,262.044 62.788,262.112 62.375,262.113 C 61.957,262.112 61.585,262.044 61.259,261.908 C 60.933,261.772 60.658,261.576 60.435,261.32 C 60.211,261.065 60.039,260.752 59.92,260.384 C 59.801,260.015 59.741,259.601 59.741,259.141 C 59.741,258.677 59.801,258.26 59.92,257.892 C 60.039,257.523 60.211,257.211 60.435,256.956 C 60.658,256.7 60.933,256.505 61.259,256.371 C 61.585,256.237 61.957,256.17 62.375,256.17 C 62.788,256.17 63.157,256.237 63.481,256.371 C 63.804,256.505 64.078,256.7 64.302,256.956 C 64.526,257.211 64.697,257.523 64.817,257.892 C 64.936,258.26 64.996,258.677 64.996,259.141 Z" marker-start="none" marker-end="none"/>
      <path d="M 69.379,263.798 C 69.473,263.798 69.552,263.794 69.615,263.785 C 69.679,263.777 69.737,263.761 69.788,263.737 C 69.839,263.714 69.888,263.681 69.935,263.638 C 69.982,263.595 70.035,263.538 70.095,263.466 L 74.518,257.872 C 74.501,258.051 74.489,258.225 74.48,258.393 C 74.472,258.561 74.467,258.72 74.467,258.87 L 74.467,263.798 L 76.372,263.798 L 76.372,254.481 L 75.247,254.481 C 75.081,254.481 74.94,254.507 74.825,254.558 C 74.71,254.609 74.599,254.703 74.493,254.839 L 70.101,260.388 C 70.114,260.226 70.125,260.067 70.133,259.911 C 70.142,259.756 70.146,259.61 70.146,259.473 L 70.146,254.481 L 68.241,254.481 L 68.241,263.798 L 69.379,263.798 Z" marker-start="none" marker-end="none"/>
      <path d="M 83.096,261.903 C 83.032,261.8 82.965,261.724 82.894,261.673 C 82.824,261.621 82.733,261.596 82.623,261.596 C 82.525,261.596 82.419,261.627 82.306,261.689 C 82.193,261.75 82.065,261.82 81.923,261.896 C 81.78,261.973 81.617,262.042 81.434,262.104 C 81.25,262.166 81.042,262.197 80.807,262.197 C 80.402,262.197 80.101,262.111 79.903,261.938 C 79.705,261.765 79.605,261.532 79.605,261.238 C 79.605,261.05 79.665,260.895 79.784,260.771 C 79.904,260.648 80.06,260.541 80.254,260.451 C 80.448,260.362 80.67,260.28 80.919,260.205 C 81.168,260.131 81.423,260.048 81.683,259.956 C 81.943,259.864 82.198,259.757 82.447,259.633 C 82.696,259.51 82.918,259.352 83.112,259.16 C 83.306,258.968 83.462,258.735 83.582,258.46 C 83.701,258.185 83.761,257.854 83.761,257.466 C 83.761,257.035 83.686,256.633 83.537,256.258 C 83.388,255.883 83.171,255.555 82.888,255.276 C 82.605,254.997 82.255,254.778 81.84,254.618 C 81.424,254.458 80.952,254.378 80.424,254.378 C 80.134,254.378 79.839,254.408 79.538,254.468 C 79.238,254.527 78.947,254.611 78.666,254.72 C 78.385,254.829 78.12,254.958 77.873,255.107 C 77.626,255.256 77.411,255.422 77.227,255.606 L 77.867,256.616 C 77.914,256.693 77.98,256.754 78.065,256.801 C 78.15,256.848 78.242,256.872 78.34,256.872 C 78.468,256.872 78.597,256.831 78.727,256.75 C 78.856,256.669 79.004,256.58 79.168,256.482 C 79.332,256.384 79.52,256.294 79.733,256.213 C 79.946,256.132 80.198,256.092 80.488,256.092 C 80.88,256.092 81.184,256.178 81.402,256.35 C 81.619,256.523 81.728,256.797 81.728,257.172 C 81.728,257.39 81.668,257.566 81.549,257.703 C 81.429,257.839 81.273,257.952 81.079,258.042 C 80.885,258.131 80.664,258.21 80.417,258.278 C 80.17,258.346 79.917,258.422 79.657,258.505 C 79.397,258.588 79.143,258.69 78.896,258.812 C 78.649,258.933 78.428,259.093 78.234,259.291 C 78.04,259.49 77.884,259.737 77.764,260.033 C 77.645,260.329 77.585,260.695 77.585,261.13 C 77.585,261.479 77.656,261.82 77.796,262.153 C 77.937,262.485 78.144,262.781 78.416,263.041 C 78.689,263.301 79.024,263.509 79.42,263.665 C 79.816,263.82 80.27,263.898 80.782,263.898 C 81.067,263.898 81.345,263.876 81.616,263.831 C 81.886,263.786 82.143,263.72 82.386,263.632 C 82.629,263.545 82.856,263.441 83.067,263.319 C 83.278,263.198 83.466,263.06 83.633,262.907 L 83.096,261.903 Z" marker-start="none" marker-end="none"/>
      <path d="M 88.708,256.188 C 88.998,256.188 89.257,256.236 89.485,256.332 C 89.713,256.428 89.905,256.565 90.063,256.745 C 90.221,256.924 90.341,257.142 90.424,257.4 C 90.507,257.658 90.549,257.951 90.549,258.279 L 90.549,263.796 L 92.71,263.796 L 92.71,258.278 C 92.71,257.707 92.617,257.183 92.431,256.705 C 92.246,256.228 91.981,255.817 91.636,255.471 C 91.29,255.126 90.871,254.858 90.376,254.666 C 89.882,254.474 89.326,254.378 88.708,254.378 C 88.086,254.378 87.527,254.474 87.033,254.666 C 86.539,254.858 86.119,255.126 85.774,255.471 C 85.429,255.817 85.164,256.228 84.981,256.705 C 84.798,257.183 84.706,257.707 84.706,258.278 L 84.706,263.796 L 86.867,263.796 L 86.867,258.285 C 86.867,257.957 86.908,257.664 86.992,257.406 C 87.075,257.148 87.195,256.929 87.353,256.748 C 87.51,256.567 87.703,256.428 87.931,256.332 C 88.159,256.236 88.418,256.188 88.708,256.188 Z" marker-start="none" marker-end="none"/>
      <path d="M 98.879,258.711 C 98.965,258.548 99.047,258.378 99.126,258.202 C 99.204,258.026 99.28,257.846 99.352,257.662 C 99.425,257.851 99.502,258.034 99.583,258.212 C 99.664,258.39 99.747,258.563 99.832,258.73 L 102.223,263.467 C 102.265,263.548 102.309,263.612 102.354,263.657 C 102.398,263.702 102.449,263.735 102.504,263.757 C 102.559,263.778 102.622,263.789 102.692,263.789 C 102.763,263.789 102.845,263.789 102.939,263.789 L 104.588,263.789 L 104.588,254.481 L 102.683,254.481 L 102.683,259.768 C 102.683,260.025 102.696,260.302 102.721,260.601 L 100.254,255.887 C 100.177,255.74 100.074,255.629 99.944,255.553 C 99.814,255.478 99.666,255.44 99.499,255.44 L 99.205,255.44 C 99.039,255.44 98.891,255.478 98.761,255.553 C 98.631,255.629 98.528,255.74 98.451,255.887 L 95.971,260.607 C 95.988,260.46 96.001,260.314 96.009,260.169 C 96.018,260.024 96.022,259.89 96.022,259.768 L 96.022,254.481 L 94.117,254.481 L 94.117,263.789 L 95.766,263.789 C 95.86,263.789 95.942,263.789 96.012,263.789 C 96.083,263.789 96.146,263.778 96.201,263.757 C 96.256,263.735 96.306,263.702 96.351,263.657 C 96.396,263.612 96.44,263.548 96.482,263.467 L 98.879,258.711 Z" marker-start="none" marker-end="none"/>
      <path d="M 112.118,263.798 L 112.118,262.134 L 108.296,262.134 L 108.296,259.959 L 111.223,259.959 L 111.223,258.361 L 108.296,258.361 L 108.296,256.145 L 112.118,256.145 L 112.118,254.481 L 106.122,254.481 L 106.122,263.798 L 112.118,263.798 Z" marker-start="none" marker-end="none"/>
      <path d="M 115.506,257.927 L 115.506,254.481 L 113.345,254.481 L 113.345,263.795 L 116.375,263.795 C 117.048,263.795 117.623,263.726 118.098,263.587 C 118.573,263.448 118.961,263.255 119.261,263.008 C 119.562,262.76 119.78,262.468 119.916,262.131 C 120.053,261.794 120.121,261.427 120.121,261.03 C 120.121,260.727 120.081,260.441 120,260.172 C 119.919,259.904 119.798,259.655 119.638,259.427 C 119.479,259.198 119.283,258.995 119.05,258.815 C 118.818,258.636 118.551,258.489 118.248,258.374 C 118.393,258.302 118.528,258.212 118.654,258.106 C 118.78,257.999 118.889,257.87 118.983,257.716 L 120.965,254.481 L 119.009,254.481 C 118.647,254.481 118.387,254.617 118.229,254.89 L 116.682,257.594 C 116.614,257.714 116.534,257.799 116.442,257.85 C 116.351,257.901 116.222,257.927 116.055,257.927 L 115.506,257.927 Z M 115.506,259.416 L 116.375,259.416 C 116.669,259.416 116.92,259.453 117.126,259.528 C 117.333,259.602 117.502,259.706 117.634,259.838 C 117.766,259.97 117.862,260.124 117.922,260.301 C 117.982,260.478 118.012,260.669 118.012,260.874 C 118.012,261.283 117.878,261.603 117.612,261.833 C 117.346,262.063 116.933,262.178 116.375,262.178 L 115.506,262.178 L 115.506,259.416 Z" marker-start="none" marker-end="none"/>
     </g>
    </g>
    <g id="Group_26" fill-rule="nonzero" stroke-linejoin="round" stroke-linecap="round" stroke="none" stroke-width="0.365" fill="#000000">
     <g id="Group_27">
      <path d="M 94.242,283.068 L 92.323,283.068 C 92.108,283.068 91.931,283.118 91.792,283.218 C 91.652,283.318 91.556,283.447 91.502,283.603 L 90.872,285.465 L 86.813,285.465 L 86.183,283.603 C 86.134,283.466 86.039,283.343 85.897,283.233 C 85.755,283.123 85.582,283.068 85.377,283.068 L 83.443,283.068 L 87.575,293.745 L 90.11,293.745 L 94.242,283.068 Z M 87.384,287.15 L 90.301,287.15 L 89.319,290.029 C 89.255,290.211 89.181,290.427 89.095,290.674 C 89.01,290.922 88.926,291.19 88.842,291.479 C 88.764,291.185 88.684,290.914 88.601,290.663 C 88.518,290.414 88.44,290.197 88.366,290.014 L 87.384,287.15 Z" marker-start="none" marker-end="none"/>
      <path d="M 97.815,283.068 L 95.324,283.068 L 95.324,293.747 L 97.815,293.747 L 97.815,283.068 Z" marker-start="none" marker-end="none"/>
      <path d="M 102.268,287.018 L 102.268,283.068 L 99.791,283.068 L 99.791,293.743 L 103.264,293.743 C 104.036,293.743 104.694,293.664 105.239,293.505 C 105.783,293.346 106.228,293.125 106.572,292.841 C 106.917,292.557 107.167,292.222 107.323,291.836 C 107.479,291.45 107.558,291.029 107.558,290.574 C 107.558,290.227 107.511,289.899 107.418,289.591 C 107.326,289.283 107.188,288.998 107.004,288.736 C 106.821,288.475 106.597,288.241 106.33,288.036 C 106.064,287.831 105.758,287.662 105.411,287.53 C 105.577,287.447 105.732,287.344 105.876,287.222 C 106.02,287.101 106.146,286.952 106.253,286.776 L 108.525,283.068 L 106.283,283.068 C 105.868,283.068 105.57,283.224 105.389,283.537 L 103.616,286.637 C 103.538,286.773 103.446,286.871 103.341,286.93 C 103.236,286.988 103.088,287.018 102.898,287.018 L 102.268,287.018 Z M 102.268,288.724 L 103.264,288.724 C 103.601,288.724 103.888,288.767 104.125,288.852 C 104.362,288.938 104.556,289.056 104.707,289.208 C 104.859,289.359 104.969,289.536 105.037,289.739 C 105.106,289.942 105.14,290.161 105.14,290.395 C 105.14,290.864 104.987,291.231 104.682,291.494 C 104.377,291.758 103.904,291.89 103.264,291.89 L 102.268,291.89 L 102.268,288.724 Z" marker-start="none" marker-end="none"/>
      <path d="M 112.014,285.046 L 115.97,285.046 L 115.97,283.068 L 109.537,283.068 L 109.537,293.745 L 112.014,293.745 L 112.014,285.046 Z" marker-start="none" marker-end="none"/>
      <path d="M 119.854,283.068 L 117.363,283.068 L 117.363,293.747 L 119.854,293.747 L 119.854,283.068 Z" marker-start="none" marker-end="none"/>
      <path d="M 123.134,293.747 C 123.242,293.747 123.332,293.742 123.405,293.732 C 123.479,293.723 123.545,293.704 123.603,293.677 C 123.662,293.65 123.718,293.612 123.772,293.564 C 123.826,293.515 123.887,293.449 123.955,293.366 L 129.025,286.955 C 129.006,287.16 128.991,287.359 128.981,287.552 C 128.971,287.745 128.966,287.927 128.966,288.098 L 128.966,293.747 L 131.15,293.747 L 131.15,283.068 L 129.86,283.068 C 129.67,283.068 129.509,283.097 129.377,283.156 C 129.245,283.215 129.118,283.322 128.996,283.478 L 123.962,289.838 C 123.977,289.652 123.989,289.47 123.999,289.292 C 124.009,289.114 124.014,288.947 124.014,288.79 L 124.014,283.068 L 121.83,283.068 L 121.83,293.747 L 123.134,293.747 Z" marker-start="none" marker-end="none"/>
      <path d="M 139.779,293.747 L 139.779,291.84 L 135.397,291.84 L 135.397,289.347 L 138.753,289.347 L 138.753,287.515 L 135.397,287.515 L 135.397,284.975 L 139.779,284.975 L 139.779,283.068 L 132.906,283.068 L 132.906,293.747 L 139.779,293.747 Z" marker-start="none" marker-end="none"/>
      <path d="M 140.804,284.358 C 140.804,284.514 140.834,284.66 140.892,284.794 C 140.951,284.929 141.035,285.046 141.145,285.146 C 141.255,285.246 141.384,285.325 141.533,285.384 C 141.682,285.443 141.85,285.472 142.035,285.472 C 142.255,285.472 142.445,285.434 142.607,285.358 C 142.768,285.283 142.902,285.18 143.01,285.051 C 143.117,284.921 143.196,284.772 143.248,284.604 C 143.299,284.435 143.325,284.258 143.325,284.072 C 143.325,283.828 143.286,283.568 143.207,283.292 C 143.129,283.016 143.013,282.739 142.859,282.46 C 142.706,282.182 142.514,281.908 142.284,281.639 C 142.055,281.371 141.791,281.126 141.493,280.907 L 141.097,281.258 C 141.044,281.312 141.003,281.362 140.976,281.409 C 140.95,281.455 140.936,281.512 140.936,281.581 C 140.936,281.63 140.953,281.682 140.987,281.738 C 141.022,281.795 141.063,281.845 141.112,281.889 C 141.171,281.947 141.239,282.018 141.317,282.101 C 141.395,282.184 141.473,282.277 141.552,282.38 C 141.63,282.482 141.702,282.595 141.768,282.717 C 141.834,282.839 141.884,282.968 141.918,283.105 C 141.747,283.12 141.593,283.161 141.456,283.23 C 141.32,283.298 141.204,283.389 141.108,283.501 C 141.013,283.613 140.939,283.741 140.885,283.886 C 140.831,284.03 140.804,284.187 140.804,284.358 Z" marker-start="none" marker-end="none"/>
      <path d="M 150.178,283.068 L 147.687,283.068 L 147.687,293.747 L 150.178,293.747 L 150.178,283.068 Z" marker-start="none" marker-end="none"/>
      <path d="M 153.458,293.747 C 153.566,293.747 153.656,293.742 153.729,293.732 C 153.803,293.723 153.869,293.704 153.927,293.677 C 153.986,293.65 154.042,293.612 154.096,293.564 C 154.15,293.515 154.211,293.449 154.279,293.366 L 159.349,286.955 C 159.33,287.16 159.315,287.359 159.305,287.552 C 159.295,287.745 159.29,287.927 159.29,288.098 L 159.29,293.747 L 161.474,293.747 L 161.474,283.068 L 160.184,283.068 C 159.994,283.068 159.833,283.097 159.701,283.156 C 159.569,283.215 159.442,283.322 159.32,283.478 L 154.286,289.838 C 154.301,289.652 154.313,289.47 154.323,289.292 C 154.333,289.114 154.338,288.947 154.338,288.79 L 154.338,283.068 L 152.154,283.068 L 152.154,293.747 L 153.458,293.747 Z" marker-start="none" marker-end="none"/>
      <path d="M 170.403,285.828 C 170.462,285.828 170.52,285.817 170.579,285.795 C 170.638,285.772 170.694,285.734 170.747,285.679 L 171.729,284.624 C 171.299,284.071 170.761,283.653 170.114,283.372 C 169.467,283.091 168.701,282.95 167.817,282.95 C 167.006,282.95 166.279,283.088 165.637,283.364 C 164.995,283.64 164.45,284.021 164.003,284.507 C 163.556,284.993 163.213,285.57 162.974,286.237 C 162.734,286.904 162.615,287.628 162.615,288.409 C 162.615,289.206 162.752,289.937 163.025,290.604 C 163.299,291.271 163.681,291.846 164.172,292.33 C 164.663,292.813 165.25,293.19 165.934,293.458 C 166.618,293.727 167.372,293.861 168.198,293.861 C 168.598,293.861 168.976,293.826 169.33,293.755 C 169.684,293.684 170.015,293.586 170.323,293.461 C 170.63,293.337 170.914,293.188 171.172,293.014 C 171.431,292.84 171.661,292.648 171.861,292.438 L 171.026,291.317 C 170.972,291.248 170.909,291.186 170.835,291.13 C 170.762,291.074 170.66,291.046 170.528,291.046 C 170.44,291.046 170.357,291.065 170.279,291.104 C 170.2,291.143 170.117,291.191 170.029,291.247 C 169.942,291.303 169.845,291.364 169.74,291.43 C 169.635,291.496 169.51,291.557 169.366,291.614 C 169.222,291.67 169.054,291.717 168.861,291.757 C 168.668,291.795 168.442,291.815 168.183,291.815 C 167.734,291.815 167.323,291.736 166.952,291.577 C 166.581,291.418 166.262,291.191 165.996,290.895 C 165.73,290.6 165.522,290.242 165.373,289.822 C 165.224,289.402 165.15,288.93 165.15,288.408 C 165.15,287.86 165.224,287.374 165.373,286.949 C 165.522,286.524 165.725,286.167 165.981,285.876 C 166.238,285.585 166.537,285.364 166.879,285.213 C 167.221,285.061 167.587,284.986 167.978,284.986 C 168.203,284.986 168.408,284.997 168.593,285.019 C 168.779,285.041 168.951,285.078 169.11,285.132 C 169.269,285.186 169.42,285.255 169.564,285.341 C 169.708,285.426 169.854,285.533 170,285.66 C 170.059,285.709 170.122,285.749 170.191,285.781 C 170.259,285.812 170.33,285.828 170.403,285.828 Z" marker-start="none" marker-end="none"/>
      <path d="M 172.422,284.218 C 172.422,284.394 172.455,284.558 172.521,284.709 C 172.586,284.861 172.677,284.993 172.792,285.105 C 172.906,285.218 173.042,285.307 173.198,285.373 C 173.355,285.439 173.526,285.472 173.711,285.472 C 173.892,285.472 174.06,285.439 174.217,285.373 C 174.373,285.307 174.51,285.218 174.627,285.105 C 174.744,284.993 174.836,284.861 174.902,284.709 C 174.968,284.558 175.001,284.394 175.001,284.218 C 175.001,284.042 174.968,283.877 174.902,283.723 C 174.836,283.569 174.744,283.436 174.627,283.324 C 174.51,283.211 174.373,283.123 174.217,283.06 C 174.06,282.996 173.892,282.964 173.711,282.964 C 173.526,282.964 173.355,282.996 173.198,283.06 C 173.042,283.123 172.906,283.211 172.792,283.324 C 172.677,283.436 172.586,283.569 172.521,283.723 C 172.455,283.877 172.422,284.042 172.422,284.218 Z" marker-start="none" marker-end="none"/>
     </g>
    </g>
   </g>
   <path d="M 21.53,121.032 L 21.53,306.042 C 21.53,314.439 28.345,321.255 36.742,321.255 L 221.753,321.255 C 230.15,321.255 236.965,314.439 236.965,306.042 L 236.965,121.032 C 236.965,112.635 230.15,105.819 221.753,105.819 L 36.742,105.819 C 28.345,105.819 21.53,112.635 21.53,121.032 Z M 236.256,121.641 L 236.256,305.433 C 236.256,313.775 229.486,320.546 221.144,320.546 L 37.351,320.546 C 29.009,320.546 22.239,313.775 22.239,305.433 L 22.239,121.641 C 22.239,113.299 29.009,106.528 37.351,106.528 L 221.144,106.528 C 229.486,106.528 236.256,113.299 236.256,121.641 Z" stroke-linejoin="miter" stroke-width="0.802" fill="#7f7f7f" stroke="none" marker-start="none" marker-end="none"/>
  </g>
 </g>
</svg>
