<?xml version="1.0" standalone="no"?>
<!DOCTYPE svg PUBLIC "-//W3C//DTD SVG 1.1//EN" "http://www.w3.org/Graphics/SVG/1.1/DTD/svg11.dtd">
<!--Generator: Xara Designer (www.xara.com), SVG filter version: 6.6.0.0-->
<svg fill="none" fill-rule="evenodd" stroke="black" stroke-width="0.501" stroke-linejoin="bevel" stroke-miterlimit="10" font-family="Times New Roman" font-size="16" style="font-variant-ligatures:none" xmlns:xlink="http://www.w3.org/1999/xlink" xmlns="http://www.w3.org/2000/svg" version="1.1" overflow="visible" width="215.435pt" height="215.436pt" viewBox="24.748 -297.638 215.435 215.436">
 <defs>
	</defs>
 <g id="Page background" transform="scale(1 -1)"/>
 <g id="Layer 1" transform="scale(1 -1)">
  <g id="Group">
   <path d="M 24.748,282.425 L 24.748,97.415 C 24.748,89.018 31.563,82.202 39.96,82.202 L 224.971,82.202 C 233.368,82.202 240.183,89.018 240.183,97.415 L 240.183,282.425 C 240.183,290.822 233.368,297.638 224.971,297.638 L 39.96,297.638 C 31.563,297.638 24.748,290.822 24.748,282.425 Z" stroke-linejoin="miter" stroke="none" stroke-width="0.802" fill="#7f7f7f" marker-start="none" marker-end="none"/>
   <path d="M 25.457,281.816 L 25.457,98.024 C 25.457,89.682 32.227,82.911 40.569,82.911 L 224.362,82.911 C 232.704,82.911 239.474,89.682 239.474,98.024 L 239.474,281.816 C 239.474,290.158 232.704,296.929 224.362,296.929 L 40.569,296.929 C 32.227,296.929 25.457,290.158 25.457,281.816 Z" stroke-linejoin="miter" stroke="none" stroke-width="0.802" marker-start="none" marker-end="none"/>
   <path d="M 25.457,281.816 L 25.457,98.024 C 25.457,89.682 32.227,82.911 40.569,82.911 L 224.362,82.911 C 232.704,82.911 239.474,89.682 239.474,98.024 L 239.474,281.816 C 239.474,290.158 232.704,296.929 224.362,296.929 L 40.569,296.929 C 32.227,296.929 25.457,290.158 25.457,281.816 Z" stroke-linejoin="miter" stroke="none" stroke-width="0.802" fill="#ffffff" marker-start="none" marker-end="none"/>
   <path d="M 39.753,228.318 L 39.753,262.21 L 143.341,262.21 L 143.341,228.318 L 39.753,228.318 Z" stroke-linejoin="miter" stroke-linecap="round" stroke="#95afc0" fill="#95afc0" stroke-width="1.738" marker-start="none" marker-end="none"/>
   <path d="M 39.753,226.975 L 39.753,236.785 C 39.753,239.356 41.837,241.433 44.399,241.433 L 138.691,241.433 C 141.253,241.433 143.341,239.356 143.341,236.785 L 143.341,226.975 C 143.341,224.399 141.253,222.321 138.691,222.321 L 44.399,222.321 C 41.837,222.321 39.753,224.399 39.753,226.975 Z" stroke-linejoin="miter" stroke-linecap="round" stroke="#95afc0" fill="#95afc0" stroke-width="1.738" marker-start="none" marker-end="none"/>
   <path d="M 40.45,255.868 L 40.45,273.513 C 40.45,278.126 44.194,281.872 48.812,281.872 L 215.858,281.872 C 220.471,281.872 224.219,278.126 224.219,273.513 L 224.219,255.868 C 224.219,251.25 220.471,247.502 215.858,247.502 L 48.812,247.502 C 44.194,247.502 40.45,251.25 40.45,255.868 Z" stroke-linejoin="miter" stroke-linecap="round" stroke="#95afc0" fill="#ffffff" stroke-width="3.13" marker-start="none" marker-end="none"/>
   <path d="M 125.212,82.641 L 116.678,82.641 L 116.678,131.804 L 125.212,131.804 L 125.212,82.641 Z" fill="#ff3718" stroke-linecap="round" stroke="none" stroke-width="0.103" stroke-linejoin="miter" marker-start="none" marker-end="none"/>
   <path d="M 145.444,182.246 C 132.005,169.978 125.176,153.165 125.173,136.292 L 116.694,136.292 C 116.699,155.464 124.449,174.577 139.718,188.511 C 153.279,200.885 170.356,206.986 187.379,206.981 L 187.379,198.495 C 172.397,198.502 157.37,193.133 145.444,182.246 Z" fill="#ff3718" stroke-linecap="round" stroke="none" stroke-width="0.541" stroke-linejoin="round" marker-start="none" marker-end="none"/>
   <path d="M 225.332,202.754 L 222.287,200.636 L 219.234,198.514 L 219.234,198.461 L 191.957,198.461 L 191.957,206.997 L 219.234,206.997 L 222.287,204.877 L 225.332,202.754 Z" fill="#ff3718" stroke-linecap="round" stroke="none" stroke-width="0.103" stroke-linejoin="miter" marker-start="none" marker-end="none"/>
   <path d="M 225.336,191.204 L 222.29,189.084 L 219.234,186.963 L 219.234,191.204 L 219.238,195.445 L 222.29,193.322 L 225.336,191.204 Z M 219.234,186.94 L 191.957,186.94 L 191.957,195.474 L 219.234,195.474 L 219.234,186.94 Z" stroke-linecap="round" stroke="none" fill="#e5e5e5" stroke-width="0.103" stroke-linejoin="miter" marker-start="none" marker-end="none"/>
   <path d="M 153.066,173.892 C 142.075,163.852 136.488,150.097 136.483,136.292 L 128.002,136.292 C 128.006,152.399 134.521,168.449 147.349,180.158 C 158.736,190.552 173.079,195.672 187.379,195.669 L 187.379,187.183 C 175.122,187.193 162.83,182.798 153.066,173.892 Z" stroke-linecap="round" stroke="none" fill="#e5e5e5" stroke-width="0.453" stroke-linejoin="round" marker-start="none" marker-end="none"/>
   <path d="M 136.515,82.641 L 127.983,82.641 L 127.983,131.804 L 136.515,131.804 L 136.515,82.641 Z" stroke-linecap="round" stroke="none" fill="#e5e5e5" stroke-width="0.103" stroke-linejoin="miter" marker-start="none" marker-end="none"/>
   <path d="M 225.336,179.888 L 222.29,177.772 L 219.234,175.651 L 219.234,179.892 L 219.238,184.135 L 222.29,182.015 L 225.336,179.888 Z M 219.234,175.642 L 191.957,175.642 L 191.957,184.177 L 219.234,184.177 L 219.234,175.642 Z" stroke-linecap="round" stroke="none" fill="#e5e5e5" stroke-width="0.103" stroke-linejoin="miter" marker-start="none" marker-end="none"/>
   <path d="M 147.813,82.641 L 139.282,82.641 L 139.282,131.804 L 147.813,131.804 L 147.813,82.641 Z" stroke-linecap="round" stroke="none" fill="#e5e5e5" stroke-width="0.103" stroke-linejoin="miter" marker-start="none" marker-end="none"/>
   <path d="M 160.693,165.537 C 152.141,157.73 147.801,147.025 147.795,136.292 L 139.311,136.292 C 139.314,149.334 144.587,162.324 154.976,171.803 C 164.191,180.214 175.807,184.362 187.379,184.36 L 187.379,175.878 C 177.847,175.878 168.282,172.464 160.693,165.537 Z" stroke-linecap="round" stroke="none" fill="#e5e5e5" stroke-width="0.368" stroke-linejoin="round" marker-start="none" marker-end="none"/>
   <path d="M 159.109,82.641 L 150.575,82.641 L 150.575,131.804 L 159.109,131.804 L 159.109,82.641 Z" stroke-linecap="round" stroke="none" fill="#11a7e0" stroke-width="0.103" stroke-linejoin="miter" marker-start="none" marker-end="none"/>
   <path d="M 168.314,157.182 C 162.207,151.604 159.107,143.966 159.104,136.292 L 150.617,136.292 C 150.626,146.262 154.659,156.201 162.597,163.444 C 169.646,169.883 178.523,173.054 187.379,173.05 L 187.379,164.562 C 180.572,164.569 173.74,162.127 168.314,157.182 Z" stroke-linecap="round" stroke="none" fill="#11a7e0" stroke-width="0.281" stroke-linejoin="round" marker-start="none" marker-end="none"/>
   <path d="M 225.332,168.835 L 222.287,166.703 L 219.234,164.562 L 219.234,164.562 L 191.957,164.562 L 191.957,173.101 L 219.234,173.101 L 219.234,173.101 L 222.29,170.971 L 225.332,168.835 Z" stroke-linecap="round" stroke="none" fill="#11a7e0" stroke-width="0.103" stroke-linejoin="miter" marker-start="none" marker-end="none"/>
   <path d="M 84.248,171.36 C 78.348,178.338 79.227,188.798 86.222,194.707 C 93.204,200.599 103.657,199.72 109.561,192.733 C 115.47,185.741 114.584,175.287 107.587,169.382 C 100.605,163.487 90.148,164.366 84.248,171.36 Z" stroke-linejoin="miter" stroke="none" fill="#000000" stroke-width="0.686" marker-start="none" marker-end="none"/>
   <path d="M 85.026,171.969 C 79.135,178.967 80.007,189.426 87,195.319 C 93.989,201.228 104.441,200.345 110.357,193.352 C 116.254,186.37 115.369,175.918 108.375,170.013 C 101.396,164.107 90.932,164.986 85.026,171.969 Z" stroke-linejoin="miter" stroke="#b2b2b2" stroke-width="3.752" marker-start="none" marker-end="none"/>
   <path d="M 43.563,171.347 C 37.663,178.336 38.542,188.804 45.539,194.695 C 52.522,200.606 62.976,199.723 68.878,192.735 C 74.789,185.746 73.903,175.286 66.905,169.382 C 59.922,163.483 49.463,164.366 43.563,171.347 Z" stroke-linejoin="miter" stroke="none" fill="#ffffff" stroke-width="0.689" marker-start="none" marker-end="none"/>
   <path d="M 44.343,171.982 C 38.45,178.974 39.323,189.42 46.315,195.333 C 53.306,201.217 63.761,200.345 69.674,193.357 C 75.572,186.37 74.688,175.904 67.694,170.004 C 60.713,164.105 50.248,164.983 44.343,171.982 Z" stroke-linejoin="miter" stroke="#539bc5" stroke-width="3.752" marker-start="none" marker-end="none"/>
   <path d="M 46.103,107.103 C 37.206,117.643 38.531,133.429 49.083,142.313 C 59.614,151.227 75.379,149.895 84.28,139.357 C 93.194,128.817 91.858,113.043 81.304,104.14 C 70.773,95.244 55.001,96.575 46.103,107.103 Z" stroke-linejoin="miter" stroke="none" fill="#ffffff" stroke-width="1.039" marker-start="none" marker-end="none"/>
   <path d="M 47.28,108.06 C 38.393,118.605 39.709,134.358 50.253,143.275 C 60.796,152.148 76.563,150.833 85.48,140.295 C 94.374,129.758 93.041,113.975 82.494,105.078 C 71.966,96.182 56.185,97.506 47.28,108.06 Z" stroke-linejoin="miter" stroke="#539bc5" stroke-width="5.658" marker-start="none" marker-end="none"/>
   <path d="M 177.693,106.699 C 168.796,117.239 170.121,133.025 180.673,141.909 C 191.204,150.823 206.969,149.491 215.87,138.953 C 224.784,128.413 223.448,112.639 212.894,103.736 C 202.363,94.84 186.591,96.171 177.693,106.699 Z" stroke-linejoin="miter" stroke="none" fill="#000000" stroke-width="1.039" marker-start="none" marker-end="none"/>
   <path d="M 178.87,107.656 C 169.983,118.201 171.299,133.954 181.843,142.871 C 192.386,151.744 208.153,150.429 217.07,139.891 C 225.964,129.354 224.631,113.571 214.084,104.674 C 203.556,95.778 187.775,97.102 178.87,107.656 Z" stroke-linejoin="miter" stroke="#b2b2b2" stroke-width="5.658" marker-start="none" marker-end="none"/>
   <path d="M 127.453,102.999 C 122.928,108.355 123.604,116.371 128.962,120.895 C 134.318,125.418 142.339,124.746 146.858,119.388 C 151.383,114.032 150.708,106.013 145.349,101.493 C 139.995,96.965 131.975,97.648 127.453,102.999 Z" stroke-linejoin="miter" stroke="none" fill="#ffffff" stroke-width="0.526" marker-start="none" marker-end="none"/>
   <path d="M 128.056,103.481 C 123.532,108.83 124.208,116.852 129.564,121.373 C 134.923,125.901 142.939,125.223 147.463,119.864 C 151.991,114.513 151.314,106.49 145.954,101.966 C 140.594,97.445 132.579,98.119 128.056,103.481 Z" fill="none" stroke-linejoin="miter" stroke="#539bc5" stroke-width="2.872" marker-start="none" marker-end="none"/>
   <path d="M 139.404,160.313 C 134.883,165.664 135.558,173.683 140.915,178.211 C 146.272,182.727 154.291,182.054 158.815,176.696 C 163.338,171.342 162.658,163.325 157.304,158.802 C 151.948,154.278 143.929,154.954 139.404,160.313 Z" stroke-linejoin="miter" stroke="none" fill="#ffffff" stroke-width="0.526" marker-start="none" marker-end="none"/>
   <path d="M 140.013,160.791 C 135.485,166.145 136.159,174.161 141.519,178.685 C 146.877,183.21 154.892,182.536 159.417,177.174 C 163.945,171.818 163.26,163.801 157.909,159.275 C 152.549,154.75 144.534,155.431 140.013,160.791 Z" fill="none" stroke-linejoin="miter" stroke="#539bc5" stroke-width="2.872" marker-start="none" marker-end="none"/>
   <path d="M 197.025,177.098 C 192.501,182.454 193.18,190.471 198.535,194.999 C 203.896,199.52 211.915,198.842 216.438,193.484 C 220.966,188.132 220.284,180.109 214.927,175.59 C 209.567,171.071 201.551,171.745 197.025,177.098 Z" stroke-linejoin="miter" stroke="none" fill="#ffffff" stroke-width="0.526" marker-start="none" marker-end="none"/>
   <path d="M 197.632,177.582 C 193.108,182.933 193.785,190.952 199.143,195.477 C 204.503,199.998 212.518,199.324 217.041,193.964 C 221.567,188.611 220.89,180.591 215.534,176.07 C 210.172,171.545 202.155,172.221 197.632,177.582 Z" fill="none" stroke-linejoin="miter" stroke="#539bc5" stroke-width="2.872" marker-start="none" marker-end="none"/>
   <path d="M 94.232,177.745 L 96.961,177.745 L 96.961,184.908 C 96.961,185.259 96.97,185.626 96.99,186.01 L 95.382,184.674 C 95.278,184.59 95.174,184.53 95.07,184.494 C 94.966,184.458 94.865,184.44 94.768,184.44 C 94.599,184.44 94.448,184.478 94.315,184.553 C 94.181,184.627 94.082,184.707 94.017,184.791 L 93.062,186.058 L 97.487,189.772 L 99.982,189.772 L 99.982,177.745 L 102.321,177.745 L 102.321,175.561 L 94.232,175.561 L 94.232,177.745 Z" fill-rule="nonzero" stroke-linejoin="round" stroke-linecap="round" stroke="none" stroke-width="0.485" fill="#b2b2b2" marker-start="none" marker-end="none"/>
   <path d="M 60.761,181.08 L 62.222,181.08 L 62.222,179.385 C 62.222,179.235 62.172,179.106 62.071,178.995 C 61.971,178.885 61.826,178.829 61.638,178.829 L 60.761,178.829 L 60.761,175.565 L 58.129,175.565 L 58.129,178.829 L 52.418,178.829 C 52.23,178.829 52.059,178.888 51.907,179.005 C 51.754,179.122 51.658,179.268 51.619,179.443 L 51.307,180.935 L 57.876,189.767 L 60.761,189.767 L 60.761,181.08 Z M 58.129,184.784 C 58.129,185.012 58.137,185.257 58.154,185.52 C 58.17,185.783 58.194,186.054 58.227,186.334 L 54.475,181.08 L 58.129,181.08 L 58.129,184.784 Z" fill-rule="nonzero" stroke-linejoin="round" stroke-linecap="round" stroke="none" stroke-width="0.485" fill="#000000" marker-start="none" marker-end="none"/>
   <path d="M 52.243,233.979 L 52.243,230.866 L 50.082,230.866 L 50.082,240.181 L 53.368,240.181 C 54.024,240.181 54.588,240.103 55.059,239.948 C 55.529,239.792 55.917,239.578 56.222,239.305 C 56.527,239.032 56.751,238.71 56.896,238.34 C 57.041,237.969 57.114,237.568 57.114,237.138 C 57.114,236.673 57.039,236.247 56.89,235.859 C 56.741,235.471 56.513,235.138 56.206,234.861 C 55.899,234.584 55.51,234.368 55.039,234.212 C 54.568,234.057 54.011,233.979 53.368,233.979 L 52.243,233.979 Z M 52.243,235.608 L 53.368,235.608 C 53.93,235.608 54.335,235.743 54.582,236.011 C 54.83,236.28 54.953,236.656 54.953,237.137 C 54.953,237.351 54.921,237.545 54.857,237.72 C 54.793,237.895 54.696,238.045 54.566,238.171 C 54.436,238.296 54.272,238.394 54.074,238.462 C 53.876,238.53 53.641,238.564 53.368,238.564 L 52.243,238.564 L 52.243,235.608 Z" fill-rule="nonzero" stroke-linejoin="round" stroke-linecap="round" stroke="none" stroke-width="0.319" fill="#ffffff" marker-start="none" marker-end="none"/>
   <path d="M 60.402,234.31 L 60.402,230.864 L 58.241,230.864 L 58.241,240.178 L 61.271,240.178 C 61.944,240.178 62.519,240.109 62.994,239.97 C 63.469,239.831 63.857,239.638 64.157,239.391 C 64.458,239.143 64.676,238.851 64.812,238.514 C 64.949,238.177 65.017,237.81 65.017,237.413 C 65.017,237.11 64.977,236.824 64.896,236.555 C 64.815,236.287 64.694,236.038 64.534,235.81 C 64.375,235.581 64.179,235.378 63.946,235.198 C 63.714,235.019 63.447,234.872 63.144,234.757 C 63.289,234.685 63.424,234.595 63.55,234.489 C 63.676,234.382 63.785,234.253 63.879,234.099 L 65.861,230.864 L 63.905,230.864 C 63.543,230.864 63.283,231 63.125,231.273 L 61.578,233.977 C 61.51,234.097 61.43,234.182 61.338,234.233 C 61.247,234.284 61.118,234.31 60.951,234.31 L 60.402,234.31 Z M 60.402,235.799 L 61.271,235.799 C 61.565,235.799 61.816,235.836 62.022,235.911 C 62.229,235.985 62.398,236.089 62.53,236.221 C 62.662,236.353 62.758,236.507 62.818,236.684 C 62.878,236.861 62.908,237.052 62.908,237.257 C 62.908,237.666 62.774,237.986 62.508,238.216 C 62.242,238.446 61.829,238.561 61.271,238.561 L 60.402,238.561 L 60.402,235.799 Z" fill-rule="nonzero" stroke-linejoin="round" stroke-linecap="round" stroke="none" stroke-width="0.319" fill="#ffffff" marker-start="none" marker-end="none"/>
   <path d="M 75.617,235.524 C 75.617,234.851 75.501,234.224 75.269,233.645 C 75.037,233.065 74.71,232.561 74.288,232.132 C 73.866,231.704 73.358,231.368 72.763,231.125 C 72.169,230.882 71.509,230.761 70.785,230.761 C 70.06,230.761 69.4,230.882 68.803,231.125 C 68.206,231.368 67.696,231.704 67.272,232.132 C 66.848,232.561 66.52,233.065 66.288,233.645 C 66.055,234.224 65.939,234.851 65.939,235.524 C 65.939,236.198 66.055,236.824 66.288,237.404 C 66.52,237.984 66.848,238.486 67.272,238.913 C 67.696,239.339 68.206,239.674 68.803,239.917 C 69.4,240.159 70.06,240.281 70.785,240.281 C 71.509,240.281 72.169,240.158 72.763,239.913 C 73.358,239.668 73.866,239.333 74.288,238.906 C 74.71,238.48 75.037,237.977 75.269,237.397 C 75.501,236.818 75.617,236.193 75.617,235.524 Z M 73.406,235.524 C 73.406,235.984 73.346,236.398 73.227,236.767 C 73.107,237.135 72.936,237.448 72.712,237.703 C 72.488,237.959 72.214,238.155 71.891,238.291 C 71.567,238.427 71.198,238.495 70.785,238.496 C 70.367,238.495 69.995,238.427 69.669,238.291 C 69.343,238.155 69.068,237.959 68.845,237.703 C 68.621,237.448 68.449,237.135 68.33,236.767 C 68.211,236.398 68.151,235.984 68.151,235.524 C 68.151,235.06 68.211,234.643 68.33,234.275 C 68.449,233.906 68.621,233.594 68.845,233.339 C 69.068,233.083 69.343,232.888 69.669,232.754 C 69.995,232.62 70.367,232.553 70.785,232.553 C 71.198,232.553 71.567,232.62 71.891,232.754 C 72.214,232.888 72.488,233.083 72.712,233.339 C 72.936,233.594 73.107,233.906 73.227,234.275 C 73.346,234.643 73.406,235.06 73.406,235.524 Z" fill-rule="nonzero" stroke-linejoin="round" stroke-linecap="round" stroke="none" stroke-width="0.319" fill="#ffffff" marker-start="none" marker-end="none"/>
   <path d="M 85.102,235.526 C 85.102,234.852 84.986,234.231 84.753,233.662 C 84.521,233.093 84.194,232.6 83.772,232.185 C 83.35,231.769 82.842,231.445 82.248,231.213 C 81.653,230.98 80.994,230.864 80.269,230.864 L 76.651,230.864 L 76.651,240.181 L 80.269,240.181 C 80.994,240.181 81.653,240.064 82.248,239.829 C 82.842,239.595 83.35,239.271 83.772,238.857 C 84.194,238.444 84.521,237.952 84.753,237.383 C 84.986,236.814 85.102,236.195 85.102,235.526 Z M 82.89,235.526 C 82.89,235.986 82.83,236.401 82.711,236.772 C 82.592,237.143 82.42,237.457 82.196,237.715 C 81.973,237.973 81.699,238.171 81.375,238.31 C 81.051,238.448 80.683,238.517 80.269,238.517 L 78.825,238.517 L 78.825,232.528 L 80.269,232.528 C 80.683,232.528 81.051,232.597 81.375,232.735 C 81.699,232.874 81.973,233.072 82.196,233.33 C 82.42,233.588 82.592,233.902 82.711,234.273 C 82.83,234.644 82.89,235.061 82.89,235.526 Z" fill-rule="nonzero" stroke-linejoin="round" stroke-linecap="round" stroke="none" stroke-width="0.319" fill="#ffffff" marker-start="none" marker-end="none"/>
   <path d="M 90.014,232.571 C 90.304,232.571 90.563,232.619 90.791,232.715 C 91.019,232.811 91.211,232.948 91.369,233.128 C 91.527,233.307 91.647,233.525 91.73,233.783 C 91.813,234.041 91.855,234.334 91.855,234.662 L 91.855,240.179 L 94.016,240.179 L 94.016,234.661 C 94.016,234.09 93.923,233.566 93.737,233.088 C 93.552,232.611 93.287,232.2 92.942,231.854 C 92.596,231.509 92.177,231.241 91.682,231.049 C 91.188,230.857 90.632,230.761 90.014,230.761 C 89.392,230.761 88.833,230.857 88.339,231.049 C 87.845,231.241 87.425,231.509 87.08,231.854 C 86.735,232.2 86.47,232.611 86.287,233.088 C 86.104,233.566 86.012,234.09 86.012,234.661 L 86.012,240.179 L 88.173,240.179 L 88.173,234.668 C 88.173,234.34 88.214,234.047 88.298,233.789 C 88.381,233.531 88.501,233.312 88.659,233.131 C 88.816,232.95 89.009,232.811 89.237,232.715 C 89.465,232.619 89.724,232.571 90.014,232.571 Z" fill-rule="nonzero" stroke-linejoin="round" stroke-linecap="round" stroke="none" stroke-width="0.319" fill="#ffffff" marker-start="none" marker-end="none"/>
   <path d="M 101.681,233.272 C 101.732,233.272 101.784,233.263 101.835,233.243 C 101.886,233.223 101.935,233.19 101.982,233.142 L 102.838,232.221 C 102.463,231.739 101.993,231.375 101.429,231.129 C 100.864,230.884 100.196,230.761 99.425,230.761 C 98.717,230.761 98.083,230.881 97.523,231.122 C 96.963,231.363 96.487,231.696 96.097,232.12 C 95.708,232.544 95.408,233.047 95.199,233.629 C 94.991,234.21 94.886,234.842 94.886,235.524 C 94.886,236.219 95.005,236.857 95.244,237.439 C 95.483,238.021 95.816,238.523 96.245,238.945 C 96.673,239.367 97.185,239.695 97.782,239.929 C 98.379,240.164 99.037,240.281 99.757,240.281 C 100.107,240.281 100.436,240.25 100.745,240.188 C 101.054,240.126 101.342,240.041 101.611,239.932 C 101.879,239.823 102.127,239.693 102.352,239.541 C 102.578,239.39 102.779,239.222 102.953,239.039 L 102.225,238.061 C 102.178,238.001 102.122,237.947 102.058,237.898 C 101.994,237.849 101.905,237.824 101.79,237.824 C 101.713,237.824 101.641,237.841 101.573,237.875 C 101.504,237.909 101.432,237.951 101.355,238 C 101.279,238.049 101.194,238.102 101.103,238.16 C 101.011,238.217 100.902,238.271 100.777,238.32 C 100.651,238.369 100.504,238.41 100.336,238.444 C 100.167,238.478 99.97,238.495 99.744,238.496 C 99.352,238.495 98.994,238.426 98.67,238.288 C 98.347,238.149 98.068,237.951 97.836,237.693 C 97.604,237.435 97.423,237.123 97.293,236.757 C 97.163,236.39 97.098,235.979 97.098,235.523 C 97.098,235.045 97.163,234.621 97.293,234.25 C 97.423,233.88 97.6,233.567 97.823,233.314 C 98.047,233.06 98.308,232.867 98.607,232.735 C 98.905,232.603 99.224,232.537 99.565,232.537 C 99.761,232.537 99.94,232.547 100.102,232.566 C 100.264,232.585 100.414,232.618 100.553,232.665 C 100.691,232.712 100.824,232.772 100.949,232.847 C 101.075,232.922 101.202,233.014 101.33,233.125 C 101.381,233.168 101.436,233.203 101.496,233.231 C 101.556,233.258 101.617,233.272 101.681,233.272 Z" fill-rule="nonzero" stroke-linejoin="round" stroke-linecap="round" stroke="none" stroke-width="0.319" fill="#ffffff" marker-start="none" marker-end="none"/>
   <path d="M 110.589,240.181 L 110.589,238.467 L 107.968,238.467 L 107.968,230.866 L 105.808,230.866 L 105.808,238.467 L 103.187,238.467 L 103.187,240.181 L 110.589,240.181 Z" fill-rule="nonzero" stroke-linejoin="round" stroke-linecap="round" stroke="none" stroke-width="0.319" fill="#ffffff" marker-start="none" marker-end="none"/>
   <path d="M 113.851,230.864 L 111.678,230.864 L 111.678,240.181 L 113.851,240.181 L 113.851,230.864 Z" fill-rule="nonzero" stroke-linejoin="round" stroke-linecap="round" stroke="none" stroke-width="0.319" fill="#ffffff" marker-start="none" marker-end="none"/>
   <path d="M 124.767,235.524 C 124.767,234.851 124.651,234.224 124.419,233.645 C 124.187,233.065 123.86,232.561 123.438,232.132 C 123.016,231.704 122.508,231.368 121.913,231.125 C 121.319,230.882 120.659,230.761 119.935,230.761 C 119.21,230.761 118.55,230.882 117.953,231.125 C 117.356,231.368 116.846,231.704 116.422,232.132 C 115.998,232.561 115.67,233.065 115.438,233.645 C 115.205,234.224 115.089,234.851 115.089,235.524 C 115.089,236.198 115.205,236.824 115.438,237.404 C 115.67,237.984 115.998,238.486 116.422,238.913 C 116.846,239.339 117.356,239.674 117.953,239.917 C 118.55,240.159 119.21,240.281 119.935,240.281 C 120.659,240.281 121.319,240.158 121.913,239.913 C 122.508,239.668 123.016,239.333 123.438,238.906 C 123.86,238.48 124.187,237.977 124.419,237.397 C 124.651,236.818 124.767,236.193 124.767,235.524 Z M 122.556,235.524 C 122.556,235.984 122.496,236.398 122.377,236.767 C 122.257,237.135 122.086,237.448 121.862,237.703 C 121.638,237.959 121.364,238.155 121.041,238.291 C 120.717,238.427 120.348,238.495 119.935,238.496 C 119.517,238.495 119.145,238.427 118.819,238.291 C 118.493,238.155 118.218,237.959 117.995,237.703 C 117.771,237.448 117.599,237.135 117.48,236.767 C 117.361,236.398 117.301,235.984 117.301,235.524 C 117.301,235.06 117.361,234.643 117.48,234.275 C 117.599,233.906 117.771,233.594 117.995,233.339 C 118.218,233.083 118.493,232.888 118.819,232.754 C 119.145,232.62 119.517,232.553 119.935,232.553 C 120.348,232.553 120.717,232.62 121.041,232.754 C 121.364,232.888 121.638,233.083 121.862,233.339 C 122.086,233.594 122.257,233.906 122.377,234.275 C 122.496,234.643 122.556,235.06 122.556,235.524 Z" fill-rule="nonzero" stroke-linejoin="round" stroke-linecap="round" stroke="none" stroke-width="0.319" fill="#ffffff" marker-start="none" marker-end="none"/>
   <path d="M 126.939,240.181 C 127.033,240.181 127.112,240.177 127.175,240.168 C 127.239,240.16 127.297,240.144 127.348,240.12 C 127.399,240.097 127.448,240.064 127.495,240.021 C 127.542,239.978 127.595,239.921 127.655,239.849 L 132.078,234.255 C 132.061,234.434 132.049,234.608 132.04,234.776 C 132.032,234.944 132.027,235.103 132.027,235.253 L 132.027,240.181 L 133.932,240.181 L 133.932,230.864 L 132.807,230.864 C 132.641,230.864 132.5,230.89 132.385,230.941 C 132.27,230.992 132.159,231.086 132.053,231.222 L 127.661,236.771 C 127.674,236.609 127.685,236.45 127.693,236.294 C 127.702,236.139 127.706,235.993 127.706,235.856 L 127.706,230.864 L 125.801,230.864 L 125.801,240.181 L 126.939,240.181 Z" fill-rule="nonzero" stroke-linejoin="round" stroke-linecap="round" stroke="none" stroke-width="0.319" fill="#ffffff" marker-start="none" marker-end="none"/>
   <path d="M 81.134,267.869 C 81.06,267.751 80.983,267.663 80.903,267.605 C 80.822,267.546 80.718,267.517 80.591,267.517 C 80.479,267.517 80.358,267.552 80.229,267.623 C 80.099,267.694 79.953,267.773 79.789,267.861 C 79.625,267.949 79.439,268.029 79.229,268.099 C 79.019,268.17 78.779,268.206 78.511,268.206 C 78.047,268.206 77.701,268.107 77.474,267.909 C 77.247,267.711 77.133,267.444 77.133,267.107 C 77.133,266.891 77.202,266.713 77.338,266.572 C 77.475,266.43 77.655,266.308 77.877,266.205 C 78.099,266.103 78.353,266.009 78.639,265.923 C 78.925,265.838 79.216,265.742 79.514,265.637 C 79.812,265.532 80.104,265.409 80.39,265.267 C 80.676,265.126 80.93,264.945 81.152,264.725 C 81.374,264.505 81.554,264.238 81.69,263.923 C 81.827,263.608 81.896,263.228 81.896,262.783 C 81.896,262.29 81.81,261.828 81.639,261.398 C 81.468,260.968 81.22,260.594 80.895,260.274 C 80.571,259.954 80.17,259.702 79.694,259.519 C 79.218,259.336 78.677,259.244 78.071,259.244 C 77.739,259.244 77.401,259.278 77.056,259.347 C 76.712,259.415 76.378,259.511 76.056,259.636 C 75.734,259.761 75.431,259.908 75.148,260.079 C 74.864,260.25 74.618,260.441 74.408,260.651 L 75.14,261.809 C 75.194,261.897 75.27,261.968 75.367,262.021 C 75.465,262.075 75.57,262.102 75.682,262.102 C 75.829,262.102 75.977,262.056 76.126,261.963 C 76.275,261.87 76.443,261.767 76.631,261.655 C 76.819,261.543 77.035,261.44 77.28,261.347 C 77.524,261.254 77.812,261.208 78.144,261.208 C 78.594,261.208 78.943,261.307 79.192,261.505 C 79.441,261.702 79.566,262.017 79.566,262.446 C 79.566,262.696 79.497,262.898 79.36,263.055 C 79.224,263.211 79.044,263.34 78.822,263.443 C 78.6,263.546 78.347,263.636 78.064,263.714 C 77.78,263.792 77.49,263.879 77.192,263.974 C 76.894,264.069 76.603,264.187 76.32,264.326 C 76.037,264.465 75.784,264.648 75.562,264.876 C 75.339,265.103 75.16,265.386 75.023,265.726 C 74.886,266.065 74.818,266.484 74.818,266.982 C 74.818,267.383 74.898,267.774 75.06,268.155 C 75.221,268.536 75.458,268.875 75.77,269.173 C 76.083,269.471 76.466,269.71 76.921,269.888 C 77.375,270.066 77.895,270.155 78.481,270.155 C 78.809,270.155 79.127,270.13 79.437,270.078 C 79.748,270.027 80.042,269.951 80.32,269.851 C 80.599,269.751 80.859,269.631 81.101,269.492 C 81.342,269.353 81.559,269.195 81.749,269.019 L 81.134,267.869 Z" fill-rule="nonzero" stroke-linejoin="round" stroke-linecap="round" stroke="none" stroke-width="0.365" fill="#000000" marker-start="none" marker-end="none"/>
   <path d="M 93.662,264.703 C 93.662,263.931 93.529,263.213 93.263,262.549 C 92.997,261.885 92.622,261.307 92.138,260.816 C 91.655,260.325 91.072,259.94 90.391,259.662 C 89.709,259.383 88.953,259.244 88.123,259.244 C 87.293,259.244 86.536,259.383 85.852,259.662 C 85.168,259.94 84.583,260.325 84.097,260.816 C 83.611,261.307 83.235,261.885 82.969,262.549 C 82.702,263.213 82.569,263.931 82.569,264.703 C 82.569,265.475 82.702,266.193 82.969,266.858 C 83.235,267.522 83.611,268.099 84.097,268.587 C 84.583,269.076 85.168,269.459 85.852,269.738 C 86.536,270.016 87.293,270.155 88.123,270.155 C 88.953,270.155 89.709,270.015 90.391,269.734 C 91.072,269.453 91.655,269.068 92.138,268.58 C 92.622,268.091 92.997,267.515 93.263,266.85 C 93.529,266.186 93.662,265.47 93.662,264.703 Z M 91.127,264.703 C 91.127,265.231 91.059,265.705 90.922,266.128 C 90.785,266.55 90.589,266.908 90.332,267.201 C 90.076,267.494 89.762,267.718 89.391,267.875 C 89.019,268.031 88.597,268.109 88.123,268.109 C 87.644,268.109 87.218,268.031 86.845,267.875 C 86.471,267.718 86.156,267.494 85.899,267.201 C 85.643,266.908 85.446,266.55 85.31,266.128 C 85.173,265.705 85.104,265.231 85.104,264.703 C 85.104,264.171 85.173,263.694 85.31,263.271 C 85.446,262.849 85.643,262.491 85.899,262.198 C 86.156,261.905 86.471,261.682 86.845,261.528 C 87.218,261.374 87.644,261.297 88.123,261.297 C 88.597,261.297 89.019,261.374 89.391,261.528 C 89.762,261.682 90.076,261.905 90.332,262.198 C 90.589,262.491 90.785,262.849 90.922,263.271 C 91.059,263.694 91.127,264.171 91.127,264.703 Z" fill-rule="nonzero" stroke-linejoin="round" stroke-linecap="round" stroke="none" stroke-width="0.365" fill="#000000" marker-start="none" marker-end="none"/>
   <path d="M 101.719,270.037 L 101.719,268.131 L 97.337,268.131 L 97.337,265.43 L 100.986,265.43 L 100.986,263.515 L 97.337,263.515 L 97.337,259.36 L 94.846,259.36 L 94.846,270.037 L 101.719,270.037 Z" fill-rule="nonzero" stroke-linejoin="round" stroke-linecap="round" stroke="none" stroke-width="0.365" fill="#000000" marker-start="none" marker-end="none"/>
   <path d="M 110.762,270.041 L 110.762,268.077 L 107.758,268.077 L 107.758,259.364 L 105.282,259.364 L 105.282,268.077 L 102.278,268.077 L 102.278,270.041 L 110.762,270.041 Z" fill-rule="nonzero" stroke-linejoin="round" stroke-linecap="round" stroke="none" stroke-width="0.365" fill="#000000" marker-start="none" marker-end="none"/>
   <path d="M 110.984,270.039 L 113.065,270.039 C 113.28,270.039 113.459,269.99 113.604,269.892 C 113.748,269.793 113.842,269.663 113.886,269.5 L 115.351,263.891 C 115.4,263.709 115.449,263.515 115.498,263.308 C 115.546,263.102 115.583,262.885 115.607,262.659 C 115.656,262.89 115.71,263.108 115.769,263.312 C 115.827,263.516 115.883,263.709 115.937,263.891 L 117.666,269.5 C 117.71,269.638 117.804,269.762 117.948,269.873 C 118.092,269.984 118.267,270.039 118.472,270.039 L 119.205,270.039 C 119.42,270.039 119.597,269.991 119.736,269.895 C 119.875,269.799 119.972,269.668 120.026,269.5 L 121.74,263.89 C 121.794,263.718 121.85,263.535 121.909,263.34 C 121.967,263.146 122.018,262.938 122.062,262.716 C 122.101,262.933 122.142,263.14 122.183,263.336 C 122.225,263.533 122.268,263.718 122.311,263.89 L 123.777,269.5 C 123.816,269.643 123.909,269.768 124.055,269.877 C 124.202,269.985 124.378,270.039 124.583,270.039 L 126.532,270.039 L 123.235,259.362 L 120.993,259.362 L 118.985,265.876 C 118.951,265.977 118.916,266.088 118.879,266.208 C 118.842,266.328 118.807,266.455 118.773,266.59 C 118.738,266.455 118.703,266.328 118.666,266.208 C 118.63,266.088 118.594,265.977 118.56,265.876 L 116.523,259.362 L 114.281,259.362 L 110.984,270.039 Z" fill-rule="nonzero" stroke-linejoin="round" stroke-linecap="round" stroke="none" stroke-width="0.365" fill="#000000" marker-start="none" marker-end="none"/>
   <path d="M 136.392,259.362 L 134.473,259.362 C 134.258,259.362 134.081,259.412 133.942,259.512 C 133.802,259.612 133.706,259.741 133.652,259.897 L 133.022,261.759 L 128.963,261.759 L 128.333,259.897 C 128.284,259.76 128.189,259.637 128.047,259.527 C 127.905,259.417 127.732,259.362 127.527,259.362 L 125.593,259.362 L 129.725,270.039 L 132.26,270.039 L 136.392,259.362 Z M 129.534,263.444 L 132.451,263.444 L 131.469,266.323 C 131.405,266.505 131.331,266.721 131.245,266.968 C 131.16,267.216 131.076,267.484 130.992,267.773 C 130.914,267.479 130.834,267.208 130.751,266.957 C 130.668,266.708 130.59,266.491 130.516,266.308 L 129.534,263.444 Z" fill-rule="nonzero" stroke-linejoin="round" stroke-linecap="round" stroke="none" stroke-width="0.365" fill="#000000" marker-start="none" marker-end="none"/>
   <path d="M 139.731,263.312 L 139.731,259.362 L 137.254,259.362 L 137.254,270.037 L 140.727,270.037 C 141.499,270.037 142.157,269.958 142.702,269.799 C 143.246,269.64 143.691,269.419 144.035,269.135 C 144.38,268.851 144.63,268.516 144.786,268.13 C 144.942,267.744 145.021,267.323 145.021,266.868 C 145.021,266.521 144.974,266.193 144.881,265.885 C 144.789,265.577 144.651,265.292 144.467,265.03 C 144.284,264.769 144.06,264.535 143.793,264.33 C 143.527,264.125 143.221,263.956 142.874,263.824 C 143.04,263.741 143.195,263.638 143.339,263.516 C 143.483,263.395 143.609,263.246 143.716,263.07 L 145.988,259.362 L 143.746,259.362 C 143.331,259.362 143.033,259.518 142.852,259.831 L 141.079,262.931 C 141.001,263.067 140.909,263.165 140.804,263.224 C 140.699,263.282 140.551,263.312 140.361,263.312 L 139.731,263.312 Z M 139.731,265.018 L 140.727,265.018 C 141.064,265.018 141.351,265.061 141.588,265.146 C 141.825,265.232 142.019,265.35 142.17,265.502 C 142.322,265.653 142.432,265.83 142.5,266.033 C 142.569,266.236 142.603,266.455 142.603,266.689 C 142.603,267.158 142.45,267.525 142.145,267.788 C 141.84,268.052 141.367,268.184 140.727,268.184 L 139.731,268.184 L 139.731,265.018 Z" fill-rule="nonzero" stroke-linejoin="round" stroke-linecap="round" stroke="none" stroke-width="0.365" fill="#000000" marker-start="none" marker-end="none"/>
   <path d="M 153.873,270.041 L 153.873,268.134 L 149.491,268.134 L 149.491,265.641 L 152.847,265.641 L 152.847,263.809 L 149.491,263.809 L 149.491,261.269 L 153.873,261.269 L 153.873,259.362 L 147,259.362 L 147,270.041 L 153.873,270.041 Z" fill-rule="nonzero" stroke-linejoin="round" stroke-linecap="round" stroke="none" stroke-width="0.365" fill="#000000" marker-start="none" marker-end="none"/>
   <path d="M 154.898,260.652 C 154.898,260.808 154.928,260.954 154.986,261.088 C 155.045,261.223 155.129,261.34 155.239,261.44 C 155.349,261.54 155.478,261.619 155.627,261.678 C 155.776,261.737 155.944,261.766 156.129,261.766 C 156.349,261.766 156.539,261.728 156.701,261.652 C 156.862,261.577 156.996,261.474 157.104,261.345 C 157.211,261.215 157.29,261.066 157.342,260.898 C 157.393,260.729 157.419,260.552 157.419,260.366 C 157.419,260.122 157.38,259.862 157.301,259.586 C 157.223,259.31 157.107,259.033 156.953,258.754 C 156.8,258.476 156.608,258.202 156.378,257.933 C 156.149,257.665 155.885,257.42 155.587,257.201 L 155.191,257.552 C 155.138,257.606 155.097,257.656 155.07,257.703 C 155.044,257.749 155.03,257.806 155.03,257.875 C 155.03,257.924 155.047,257.976 155.081,258.032 C 155.116,258.089 155.157,258.139 155.206,258.183 C 155.265,258.241 155.333,258.312 155.411,258.395 C 155.489,258.478 155.567,258.571 155.646,258.674 C 155.724,258.776 155.796,258.889 155.862,259.011 C 155.928,259.133 155.978,259.262 156.012,259.399 C 155.841,259.414 155.687,259.455 155.55,259.524 C 155.414,259.592 155.298,259.683 155.202,259.795 C 155.107,259.907 155.033,260.035 154.979,260.18 C 154.925,260.324 154.898,260.481 154.898,260.652 Z" fill-rule="nonzero" stroke-linejoin="round" stroke-linecap="round" stroke="none" stroke-width="0.365" fill="#000000" marker-start="none" marker-end="none"/>
   <path d="M 164.272,259.362 L 161.781,259.362 L 161.781,270.041 L 164.272,270.041 L 164.272,259.362 Z" fill-rule="nonzero" stroke-linejoin="round" stroke-linecap="round" stroke="none" stroke-width="0.365" fill="#000000" marker-start="none" marker-end="none"/>
   <path d="M 167.552,270.041 C 167.66,270.041 167.75,270.036 167.823,270.026 C 167.897,270.017 167.963,269.998 168.021,269.971 C 168.08,269.944 168.136,269.906 168.19,269.858 C 168.244,269.809 168.305,269.743 168.373,269.66 L 173.443,263.249 C 173.424,263.454 173.409,263.653 173.399,263.846 C 173.389,264.039 173.384,264.221 173.384,264.392 L 173.384,270.041 L 175.568,270.041 L 175.568,259.362 L 174.278,259.362 C 174.088,259.362 173.927,259.391 173.795,259.45 C 173.663,259.509 173.536,259.616 173.414,259.772 L 168.38,266.132 C 168.395,265.946 168.407,265.764 168.417,265.586 C 168.427,265.408 168.432,265.241 168.432,265.084 L 168.432,259.362 L 166.248,259.362 L 166.248,270.041 L 167.552,270.041 Z" fill-rule="nonzero" stroke-linejoin="round" stroke-linecap="round" stroke="none" stroke-width="0.365" fill="#000000" marker-start="none" marker-end="none"/>
   <path d="M 184.497,262.122 C 184.556,262.122 184.614,262.111 184.673,262.089 C 184.732,262.066 184.788,262.028 184.841,261.973 L 185.823,260.918 C 185.393,260.365 184.855,259.947 184.208,259.666 C 183.561,259.385 182.795,259.244 181.911,259.244 C 181.1,259.244 180.373,259.382 179.731,259.658 C 179.089,259.934 178.544,260.315 178.097,260.801 C 177.65,261.287 177.307,261.864 177.068,262.531 C 176.828,263.198 176.709,263.922 176.709,264.703 C 176.709,265.5 176.846,266.231 177.119,266.898 C 177.393,267.565 177.775,268.14 178.266,268.624 C 178.757,269.107 179.344,269.484 180.028,269.752 C 180.712,270.021 181.466,270.155 182.292,270.155 C 182.692,270.155 183.07,270.12 183.424,270.049 C 183.778,269.978 184.109,269.88 184.417,269.755 C 184.724,269.631 185.008,269.482 185.266,269.308 C 185.525,269.134 185.755,268.942 185.955,268.732 L 185.12,267.611 C 185.066,267.542 185.003,267.48 184.929,267.424 C 184.856,267.368 184.754,267.34 184.622,267.34 C 184.534,267.34 184.451,267.359 184.373,267.398 C 184.294,267.437 184.211,267.485 184.123,267.541 C 184.036,267.597 183.939,267.658 183.834,267.724 C 183.729,267.79 183.604,267.851 183.46,267.908 C 183.316,267.964 183.148,268.011 182.955,268.051 C 182.762,268.089 182.536,268.109 182.277,268.109 C 181.828,268.109 181.417,268.03 181.046,267.871 C 180.675,267.712 180.356,267.485 180.09,267.189 C 179.824,266.894 179.616,266.536 179.467,266.116 C 179.318,265.696 179.244,265.224 179.244,264.702 C 179.244,264.154 179.318,263.668 179.467,263.243 C 179.616,262.818 179.819,262.461 180.075,262.17 C 180.332,261.879 180.631,261.658 180.973,261.507 C 181.315,261.355 181.681,261.28 182.072,261.28 C 182.297,261.28 182.502,261.291 182.687,261.313 C 182.873,261.335 183.045,261.372 183.204,261.426 C 183.363,261.48 183.514,261.549 183.658,261.635 C 183.802,261.72 183.948,261.827 184.094,261.954 C 184.153,262.003 184.216,262.043 184.285,262.075 C 184.353,262.106 184.424,262.122 184.497,262.122 Z" fill-rule="nonzero" stroke-linejoin="round" stroke-linecap="round" stroke="none" stroke-width="0.365" fill="#000000" marker-start="none" marker-end="none"/>
   <path d="M 186.516,260.512 C 186.516,260.688 186.549,260.852 186.615,261.003 C 186.68,261.155 186.771,261.287 186.886,261.399 C 187,261.512 187.136,261.601 187.292,261.667 C 187.449,261.733 187.62,261.766 187.805,261.766 C 187.986,261.766 188.154,261.733 188.311,261.667 C 188.467,261.601 188.604,261.512 188.721,261.399 C 188.838,261.287 188.93,261.155 188.996,261.003 C 189.062,260.852 189.095,260.688 189.095,260.512 C 189.095,260.336 189.062,260.171 188.996,260.017 C 188.93,259.863 188.838,259.73 188.721,259.618 C 188.604,259.505 188.467,259.417 188.311,259.354 C 188.154,259.29 187.986,259.258 187.805,259.258 C 187.62,259.258 187.449,259.29 187.292,259.354 C 187.136,259.417 187,259.505 186.886,259.618 C 186.771,259.73 186.68,259.863 186.615,260.017 C 186.549,260.171 186.516,260.336 186.516,260.512 Z" fill-rule="nonzero" stroke-linejoin="round" stroke-linecap="round" stroke="none" stroke-width="0.365" fill="#000000" marker-start="none" marker-end="none"/>
   <path d="M 141.963,111.675 C 141.963,110.684 141.857,109.825 141.644,109.099 C 141.431,108.372 141.137,107.77 140.761,107.293 C 140.385,106.816 139.938,106.46 139.422,106.227 C 138.906,105.993 138.347,105.877 137.745,105.877 C 137.143,105.877 136.587,105.993 136.076,106.227 C 135.565,106.46 135.123,106.816 134.749,107.293 C 134.375,107.77 134.084,108.372 133.873,109.099 C 133.663,109.825 133.558,110.684 133.558,111.675 C 133.558,112.666 133.663,113.525 133.873,114.252 C 134.084,114.978 134.375,115.58 134.749,116.057 C 135.123,116.535 135.565,116.889 136.076,117.12 C 136.587,117.351 137.143,117.466 137.745,117.466 C 138.347,117.466 138.906,117.351 139.422,117.12 C 139.938,116.889 140.385,116.535 140.761,116.057 C 141.137,115.58 141.431,114.978 141.644,114.252 C 141.857,113.525 141.963,112.666 141.963,111.675 Z M 139.473,111.675 C 139.473,112.459 139.423,113.101 139.325,113.602 C 139.226,114.103 139.095,114.496 138.932,114.781 C 138.768,115.066 138.583,115.262 138.375,115.369 C 138.168,115.475 137.958,115.528 137.745,115.528 C 137.532,115.528 137.324,115.475 137.119,115.369 C 136.914,115.262 136.732,115.066 136.574,114.781 C 136.416,114.496 136.289,114.103 136.193,113.602 C 136.097,113.101 136.049,112.459 136.049,111.675 C 136.049,110.887 136.097,110.243 136.193,109.745 C 136.289,109.247 136.416,108.854 136.574,108.566 C 136.732,108.278 136.914,108.08 137.119,107.974 C 137.324,107.868 137.532,107.815 137.745,107.815 C 137.958,107.815 138.168,107.868 138.375,107.974 C 138.583,108.08 138.768,108.278 138.932,108.566 C 139.095,108.854 139.226,109.247 139.325,109.745 C 139.423,110.243 139.473,110.887 139.473,111.675 Z" fill-rule="nonzero" stroke-linejoin="round" stroke-linecap="round" stroke="none" stroke-width="0.387" fill="#000000" marker-start="none" marker-end="none"/>
   <path d="M 145.537,173.234 L 145.537,170.152 L 148.416,170.152 L 148.416,168.423 L 145.537,168.423 L 145.537,165.326 L 143.576,165.326 L 143.576,168.423 L 140.712,168.423 L 140.712,170.152 L 143.576,170.152 L 143.576,173.234 L 145.537,173.234 Z" fill-rule="nonzero" stroke-linejoin="round" stroke-linecap="round" stroke="none" stroke-width="0.387" fill="#000000" marker-start="none" marker-end="none"/>
   <path d="M 153.771,175.521 C 154.331,175.521 154.836,175.439 155.284,175.276 C 155.733,175.113 156.116,174.886 156.432,174.595 C 156.749,174.305 156.991,173.958 157.16,173.556 C 157.329,173.154 157.413,172.712 157.413,172.229 C 157.413,171.814 157.355,171.43 157.238,171.077 C 157.121,170.724 156.962,170.388 156.759,170.069 C 156.557,169.75 156.322,169.442 156.055,169.143 C 155.788,168.845 155.504,168.543 155.203,168.237 L 152.985,165.964 C 153.27,166.048 153.552,166.114 153.829,166.164 C 154.107,166.214 154.367,166.238 154.611,166.238 L 156.728,166.238 C 156.987,166.238 157.192,166.167 157.343,166.024 C 157.493,165.881 157.569,165.693 157.569,165.459 L 157.569,164.057 L 149.6,164.057 L 149.6,164.835 C 149.6,164.986 149.631,165.147 149.693,165.318 C 149.755,165.489 149.864,165.645 150.02,165.785 L 153.288,169.077 C 153.569,169.358 153.812,169.625 154.02,169.879 C 154.227,170.133 154.399,170.384 154.534,170.63 C 154.668,170.877 154.77,171.123 154.837,171.37 C 154.904,171.616 154.938,171.877 154.938,172.152 C 154.938,172.603 154.831,172.95 154.615,173.191 C 154.4,173.432 154.072,173.553 153.631,173.553 C 153.449,173.553 153.283,173.527 153.133,173.475 C 152.982,173.423 152.847,173.353 152.728,173.265 C 152.609,173.177 152.506,173.073 152.421,172.954 C 152.335,172.834 152.266,172.705 152.214,172.565 C 152.131,172.331 152.026,172.163 151.899,172.059 C 151.772,171.955 151.6,171.903 151.382,171.903 C 151.33,171.903 151.274,171.906 151.214,171.911 C 151.155,171.916 151.094,171.924 151.032,171.934 L 149.755,172.156 C 149.838,172.722 149.998,173.216 150.234,173.636 C 150.47,174.057 150.763,174.407 151.113,174.688 C 151.463,174.968 151.864,175.177 152.316,175.315 C 152.767,175.452 153.252,175.521 153.771,175.521 Z" fill-rule="nonzero" stroke-linejoin="round" stroke-linecap="round" stroke="none" stroke-width="0.387" fill="#000000" marker-start="none" marker-end="none"/>
   <path d="M 203.734,189.217 L 203.734,186.135 L 206.613,186.135 L 206.613,184.406 L 203.734,184.406 L 203.734,181.309 L 201.773,181.309 L 201.773,184.406 L 198.909,184.406 L 198.909,186.135 L 201.773,186.135 L 201.773,189.217 L 203.734,189.217 Z" fill-rule="nonzero" stroke-linejoin="round" stroke-linecap="round" stroke="none" stroke-width="0.387" fill="#000000" marker-start="none" marker-end="none"/>
   <path d="M 211.968,191.504 C 212.528,191.504 213.033,191.422 213.481,191.259 C 213.93,191.096 214.313,190.869 214.629,190.578 C 214.946,190.288 215.188,189.941 215.357,189.539 C 215.526,189.137 215.61,188.695 215.61,188.212 C 215.61,187.797 215.552,187.413 215.435,187.06 C 215.318,186.707 215.159,186.371 214.956,186.052 C 214.754,185.733 214.519,185.425 214.252,185.126 C 213.985,184.828 213.701,184.526 213.4,184.22 L 211.182,181.947 C 211.467,182.031 211.749,182.097 212.026,182.147 C 212.304,182.197 212.564,182.221 212.808,182.221 L 214.925,182.221 C 215.184,182.221 215.389,182.15 215.54,182.007 C 215.69,181.864 215.766,181.676 215.766,181.442 L 215.766,180.04 L 207.797,180.04 L 207.797,180.818 C 207.797,180.969 207.828,181.13 207.89,181.301 C 207.952,181.472 208.061,181.628 208.217,181.768 L 211.485,185.06 C 211.766,185.341 212.009,185.608 212.217,185.862 C 212.424,186.116 212.596,186.367 212.731,186.613 C 212.865,186.86 212.967,187.106 213.034,187.353 C 213.101,187.599 213.135,187.86 213.135,188.135 C 213.135,188.586 213.028,188.933 212.812,189.174 C 212.597,189.415 212.269,189.536 211.828,189.536 C 211.646,189.536 211.48,189.51 211.33,189.458 C 211.179,189.406 211.044,189.336 210.925,189.248 C 210.806,189.16 210.703,189.056 210.618,188.937 C 210.532,188.817 210.463,188.688 210.411,188.548 C 210.328,188.314 210.223,188.146 210.096,188.042 C 209.969,187.938 209.797,187.886 209.579,187.886 C 209.527,187.886 209.471,187.889 209.411,187.894 C 209.352,187.899 209.291,187.907 209.229,187.917 L 207.952,188.139 C 208.035,188.705 208.195,189.199 208.431,189.619 C 208.667,190.04 208.96,190.39 209.31,190.671 C 209.66,190.951 210.061,191.16 210.513,191.298 C 210.964,191.435 211.449,191.504 211.968,191.504 Z" fill-rule="nonzero" stroke-linejoin="round" stroke-linecap="round" stroke="none" stroke-width="0.387" fill="#000000" marker-start="none" marker-end="none"/>
   <path d="M 24.748,97.415 L 24.748,282.425 C 24.748,290.822 31.563,297.638 39.96,297.638 L 224.971,297.638 C 233.368,297.638 240.183,290.822 240.183,282.425 L 240.183,97.415 C 240.183,89.018 233.368,82.202 224.971,82.202 L 39.96,82.202 C 31.563,82.202 24.748,89.018 24.748,97.415 Z M 239.474,98.024 L 239.474,281.816 C 239.474,290.158 232.704,296.929 224.362,296.929 L 40.569,296.929 C 32.227,296.929 25.457,290.158 25.457,281.816 L 25.457,98.024 C 25.457,89.682 32.227,82.911 40.569,82.911 L 224.362,82.911 C 232.704,82.911 239.474,89.682 239.474,98.024 Z" stroke-linejoin="miter" stroke-width="0.802" fill="#7f7f7f" stroke="none" marker-start="none" marker-end="none"/>
  </g>
 </g>
</svg>
