<?xml version="1.0" standalone="no"?>
<!DOCTYPE svg PUBLIC "-//W3C//DTD SVG 1.1//EN" "http://www.w3.org/Graphics/SVG/1.1/DTD/svg11.dtd">
<!--Generator: Xara Designer (www.xara.com), SVG filter version: 6.6.0.0-->
<svg fill="none" fill-rule="evenodd" stroke="black" stroke-width="0.501" stroke-linejoin="bevel" stroke-miterlimit="10" font-family="Times New Roman" font-size="16" style="font-variant-ligatures:none" xmlns:xlink="http://www.w3.org/1999/xlink" xmlns="http://www.w3.org/2000/svg" version="1.1" overflow="visible" width="107.718pt" height="107.72pt" viewBox="1706.63 -492.845 107.718 107.72">
 <defs>
	</defs>
 <g id="Grid 36x36mm" transform="scale(1 -1)">
  <path d="M 1799.13,385.125 L 1760.49,385.127 L 1760.49,385.127 L 1760.49,385.974 L 1798.4,385.974 C 1806.73,385.974 1813.49,392.736 1813.49,401.067 L 1813.49,476.903 C 1813.49,485.234 1806.73,491.996 1798.4,491.996 L 1760.49,491.996 L 1760.49,492.843 L 1760.49,492.843 L 1799.13,492.845 C 1807.53,492.845 1814.34,486.029 1814.34,477.631 L 1814.34,400.339 C 1814.34,391.941 1807.53,385.125 1799.13,385.125 Z" fill="#ffffff" stroke-linejoin="miter" stroke-width="0.802" stroke="none" marker-start="none" marker-end="none"/>
  <path d="M 1813.49,401.067 C 1813.49,392.736 1806.73,385.974 1798.4,385.974 C 1806.73,385.974 1813.49,392.736 1813.49,401.067 Z M 1798.4,491.996 C 1806.73,491.996 1813.49,485.234 1813.49,476.903 C 1813.49,485.234 1806.73,491.996 1798.4,491.996 Z" fill="#ffffff" stroke-linejoin="miter" stroke-width="0.802" stroke="none" marker-start="none" marker-end="none"/>
  <path d="M 1706.63,400.339 L 1706.63,477.631 C 1706.63,486.029 1713.44,492.845 1721.84,492.845 L 1760.48,492.843 L 1760.47,492.843 L 1760.47,491.996 L 1722.57,491.996 C 1714.24,491.996 1707.47,485.234 1707.47,476.903 L 1707.47,401.067 C 1707.47,392.736 1714.24,385.974 1722.57,385.974 L 1760.47,385.974 L 1760.47,385.127 L 1760.48,385.127 L 1721.84,385.125 C 1713.44,385.125 1706.63,391.941 1706.63,400.339 Z" stroke="none" fill="#ffffff" stroke-width="0.802" stroke-linejoin="miter" marker-start="none" marker-end="none"/>
  <path d="M 1760.47,385.974 L 1760.48,438.985 L 1760.47,491.996 L 1760.49,491.996 L 1760.48,438.985 L 1760.49,385.974 L 1760.47,385.974 Z" stroke="none" fill="#e5e5e5" stroke-width="0.801" stroke-linejoin="miter" marker-start="none" marker-end="none"/>
  <g id="Group" fill="#000000" fill-rule="nonzero" stroke-linejoin="round" stroke-linecap="round" stroke="none" stroke-width="0.25">
   <path d="M 1737,477.884 L 1740.24,477.884 L 1740.24,476.264 L 1734.97,476.264 L 1734.97,485.008 L 1737,485.008 L 1737,477.884 Z" marker-start="none" marker-end="none"/>
   <path d="M 1746.83,485.009 L 1746.83,483.448 L 1743.24,483.448 L 1743.24,481.406 L 1745.99,481.406 L 1745.99,479.906 L 1743.24,479.906 L 1743.24,477.826 L 1746.83,477.826 L 1746.83,476.264 L 1741.2,476.264 L 1741.2,485.009 L 1746.83,485.009 Z" marker-start="none" marker-end="none"/>
   <path d="M 1756.11,476.264 L 1754.54,476.264 C 1754.36,476.264 1754.22,476.305 1754.11,476.387 C 1753.99,476.469 1753.91,476.574 1753.87,476.702 L 1753.35,478.227 L 1750.03,478.227 L 1749.51,476.702 C 1749.47,476.59 1749.39,476.489 1749.28,476.399 C 1749.16,476.309 1749.02,476.264 1748.85,476.264 L 1747.27,476.264 L 1750.65,485.008 L 1752.73,485.008 L 1756.11,476.264 Z M 1750.5,479.607 L 1752.88,479.607 L 1752.08,481.964 C 1752.03,482.114 1751.97,482.29 1751.9,482.493 C 1751.83,482.696 1751.76,482.916 1751.69,483.152 C 1751.63,482.912 1751.56,482.689 1751.49,482.484 C 1751.42,482.28 1751.36,482.102 1751.3,481.953 L 1750.5,479.607 Z" marker-start="none" marker-end="none"/>
   <path d="M 1764.75,480.64 C 1764.75,480.007 1764.64,479.424 1764.42,478.89 C 1764.2,478.356 1763.9,477.894 1763.5,477.504 C 1763.11,477.113 1762.63,476.809 1762.07,476.591 C 1761.51,476.373 1760.89,476.264 1760.21,476.264 L 1756.82,476.264 L 1756.82,485.009 L 1760.21,485.009 C 1760.89,485.009 1761.51,484.899 1762.07,484.679 C 1762.63,484.459 1763.11,484.155 1763.5,483.767 C 1763.9,483.379 1764.2,482.918 1764.42,482.383 C 1764.64,481.849 1764.75,481.268 1764.75,480.64 Z M 1762.67,480.64 C 1762.67,481.072 1762.62,481.462 1762.51,481.81 C 1762.39,482.158 1762.23,482.453 1762.02,482.695 C 1761.81,482.937 1761.56,483.123 1761.25,483.253 C 1760.95,483.383 1760.6,483.448 1760.21,483.448 L 1758.86,483.448 L 1758.86,477.826 L 1760.21,477.826 C 1760.6,477.826 1760.95,477.891 1761.25,478.021 C 1761.56,478.151 1761.81,478.337 1762.02,478.579 C 1762.23,478.821 1762.39,479.116 1762.51,479.464 C 1762.62,479.812 1762.67,480.204 1762.67,480.64 Z" marker-start="none" marker-end="none"/>
   <path d="M 1767.94,476.264 L 1765.9,476.264 L 1765.9,485.009 L 1767.94,485.009 L 1767.94,476.264 Z" marker-start="none" marker-end="none"/>
   <path d="M 1770.63,485.009 C 1770.72,485.009 1770.79,485.005 1770.85,484.997 C 1770.91,484.989 1770.97,484.974 1771.01,484.952 C 1771.06,484.93 1771.11,484.899 1771.15,484.859 C 1771.2,484.819 1771.25,484.765 1771.3,484.697 L 1775.45,479.447 C 1775.44,479.615 1775.43,479.778 1775.42,479.936 C 1775.41,480.094 1775.41,480.243 1775.41,480.383 L 1775.41,485.009 L 1777.19,485.009 L 1777.19,476.264 L 1776.14,476.264 C 1775.98,476.264 1775.85,476.288 1775.74,476.336 C 1775.63,476.384 1775.53,476.472 1775.43,476.6 L 1771.31,481.808 C 1771.32,481.656 1771.33,481.507 1771.34,481.361 C 1771.35,481.215 1771.35,481.078 1771.35,480.95 L 1771.35,476.264 L 1769.56,476.264 L 1769.56,485.009 L 1770.63,485.009 Z" marker-start="none" marker-end="none"/>
   <path d="M 1782.75,477.729 C 1783.03,477.729 1783.28,477.752 1783.49,477.8 C 1783.71,477.847 1783.91,477.91 1784.1,477.989 L 1784.1,479.317 L 1783.24,479.317 C 1783.11,479.317 1783.01,479.351 1782.94,479.419 C 1782.87,479.487 1782.83,479.573 1782.83,479.677 L 1782.83,480.793 L 1785.94,480.793 L 1785.94,477.104 C 1785.72,476.94 1785.48,476.799 1785.24,476.68 C 1785,476.562 1784.74,476.465 1784.47,476.389 C 1784.19,476.313 1783.9,476.257 1783.59,476.221 C 1783.28,476.185 1782.95,476.167 1782.59,476.167 C 1781.95,476.167 1781.36,476.28 1780.82,476.506 C 1780.27,476.733 1779.8,477.045 1779.4,477.443 C 1779.01,477.841 1778.69,478.313 1778.47,478.859 C 1778.24,479.405 1778.13,479.998 1778.13,480.638 C 1778.13,481.29 1778.24,481.89 1778.45,482.436 C 1778.67,482.982 1778.98,483.453 1779.38,483.849 C 1779.78,484.245 1780.27,484.553 1780.84,484.773 C 1781.41,484.993 1782.04,485.103 1782.75,485.103 C 1783.11,485.103 1783.45,485.073 1783.77,485.013 C 1784.09,484.953 1784.39,484.871 1784.66,484.767 C 1784.93,484.663 1785.18,484.538 1785.4,484.394 C 1785.62,484.25 1785.82,484.094 1786,483.925 L 1785.41,483.031 C 1785.36,482.947 1785.29,482.881 1785.21,482.833 C 1785.13,482.785 1785.05,482.761 1784.96,482.761 C 1784.84,482.761 1784.71,482.801 1784.58,482.881 C 1784.42,482.977 1784.27,483.06 1784.13,483.13 C 1783.99,483.2 1783.84,483.257 1783.7,483.301 C 1783.55,483.345 1783.39,483.377 1783.23,483.397 C 1783.06,483.417 1782.88,483.427 1782.68,483.427 C 1782.3,483.427 1781.95,483.36 1781.65,483.226 C 1781.35,483.092 1781.09,482.904 1780.87,482.66 C 1780.66,482.416 1780.49,482.123 1780.38,481.781 C 1780.26,481.439 1780.2,481.058 1780.2,480.638 C 1780.2,480.174 1780.27,479.762 1780.4,479.402 C 1780.52,479.043 1780.7,478.739 1780.93,478.491 C 1781.15,478.243 1781.42,478.054 1781.73,477.924 C 1782.04,477.794 1782.38,477.729 1782.75,477.729 Z" marker-start="none" marker-end="none"/>
  </g>
  <g id="Group_1" fill="#000000" fill-rule="nonzero" stroke-linejoin="round" stroke-linecap="round" stroke="none" stroke-width="0.25">
   <path d="M 1738.76,461.868 L 1738.76,470.61 L 1741.98,470.61 C 1742.58,470.61 1743.09,470.554 1743.52,470.442 C 1743.94,470.33 1744.29,470.173 1744.56,469.969 C 1744.82,469.765 1745.02,469.517 1745.14,469.225 C 1745.26,468.933 1745.32,468.607 1745.32,468.247 C 1745.32,468.051 1745.3,467.862 1745.24,467.68 C 1745.18,467.498 1745.1,467.327 1744.98,467.167 C 1744.86,467.007 1744.7,466.862 1744.51,466.732 C 1744.33,466.602 1744.1,466.489 1743.84,466.393 C 1744.41,466.253 1744.84,466.026 1745.11,465.712 C 1745.39,465.398 1745.53,464.995 1745.53,464.503 C 1745.53,464.131 1745.45,463.785 1745.31,463.464 C 1745.17,463.144 1744.96,462.865 1744.68,462.627 C 1744.4,462.389 1744.06,462.203 1743.65,462.069 C 1743.24,461.935 1742.78,461.868 1742.25,461.868 L 1738.76,461.868 Z M 1740.79,465.577 L 1740.79,463.397 L 1742.22,463.397 C 1742.48,463.397 1742.7,463.431 1742.87,463.499 C 1743.04,463.568 1743.18,463.656 1743.27,463.764 C 1743.37,463.872 1743.43,463.994 1743.47,464.13 C 1743.51,464.266 1743.52,464.404 1743.52,464.544 C 1743.52,464.704 1743.5,464.848 1743.46,464.977 C 1743.42,465.105 1743.35,465.213 1743.24,465.301 C 1743.14,465.389 1743.01,465.457 1742.84,465.505 C 1742.67,465.553 1742.46,465.577 1742.2,465.577 L 1740.79,465.577 Z M 1740.79,466.934 L 1741.84,466.934 C 1742.07,466.934 1742.27,466.95 1742.45,466.981 C 1742.63,467.014 1742.78,467.07 1742.91,467.149 C 1743.03,467.229 1743.13,467.339 1743.2,467.479 C 1743.26,467.619 1743.3,467.795 1743.3,468.007 C 1743.3,468.215 1743.27,468.388 1743.22,468.526 C 1743.17,468.664 1743.09,468.775 1742.98,468.859 C 1742.87,468.943 1742.73,469.003 1742.57,469.039 C 1742.4,469.075 1742.2,469.093 1741.98,469.093 L 1740.79,469.093 L 1740.79,466.934 Z" marker-start="none" marker-end="none"/>
   <path d="M 1748.85,461.868 L 1746.81,461.868 L 1746.81,470.613 L 1748.85,470.613 L 1748.85,461.868 Z" marker-start="none" marker-end="none"/>
   <path d="M 1758.4,466.244 C 1758.4,465.611 1758.29,465.028 1758.07,464.494 C 1757.85,463.96 1757.55,463.498 1757.15,463.108 C 1756.75,462.717 1756.28,462.413 1755.72,462.195 C 1755.16,461.977 1754.54,461.868 1753.86,461.868 L 1750.47,461.868 L 1750.47,470.613 L 1753.86,470.613 C 1754.54,470.613 1755.16,470.503 1755.72,470.283 C 1756.28,470.063 1756.75,469.759 1757.15,469.371 C 1757.55,468.983 1757.85,468.522 1758.07,467.987 C 1758.29,467.453 1758.4,466.872 1758.4,466.244 Z M 1756.32,466.244 C 1756.32,466.676 1756.27,467.066 1756.15,467.414 C 1756.04,467.762 1755.88,468.057 1755.67,468.299 C 1755.46,468.541 1755.2,468.727 1754.9,468.857 C 1754.6,468.987 1754.25,469.052 1753.86,469.052 L 1752.51,469.052 L 1752.51,463.43 L 1753.86,463.43 C 1754.25,463.43 1754.6,463.495 1754.9,463.625 C 1755.2,463.755 1755.46,463.941 1755.67,464.183 C 1755.88,464.425 1756.04,464.72 1756.15,465.068 C 1756.27,465.416 1756.32,465.808 1756.32,466.244 Z" marker-start="none" marker-end="none"/>
   <path d="M 1767.3,466.244 C 1767.3,465.611 1767.19,465.028 1766.98,464.494 C 1766.76,463.96 1766.45,463.498 1766.06,463.108 C 1765.66,462.717 1765.18,462.413 1764.63,462.195 C 1764.07,461.977 1763.45,461.868 1762.77,461.868 L 1759.37,461.868 L 1759.37,470.613 L 1762.77,470.613 C 1763.45,470.613 1764.07,470.503 1764.63,470.283 C 1765.18,470.063 1765.66,469.759 1766.06,469.371 C 1766.45,468.983 1766.76,468.522 1766.98,467.987 C 1767.19,467.453 1767.3,466.872 1767.3,466.244 Z M 1765.23,466.244 C 1765.23,466.676 1765.17,467.066 1765.06,467.414 C 1764.95,467.762 1764.79,468.057 1764.58,468.299 C 1764.37,468.541 1764.11,468.727 1763.81,468.857 C 1763.5,468.987 1763.16,469.052 1762.77,469.052 L 1761.41,469.052 L 1761.41,463.43 L 1762.77,463.43 C 1763.16,463.43 1763.5,463.495 1763.81,463.625 C 1764.11,463.755 1764.37,463.941 1764.58,464.183 C 1764.79,464.425 1764.95,464.72 1765.06,465.068 C 1765.17,465.416 1765.23,465.808 1765.23,466.244 Z" marker-start="none" marker-end="none"/>
   <path d="M 1773.91,470.613 L 1773.91,469.052 L 1770.32,469.052 L 1770.32,467.01 L 1773.07,467.01 L 1773.07,465.51 L 1770.32,465.51 L 1770.32,463.43 L 1773.91,463.43 L 1773.91,461.868 L 1768.28,461.868 L 1768.28,470.613 L 1773.91,470.613 Z" marker-start="none" marker-end="none"/>
   <path d="M 1777.09,465.102 L 1777.09,461.868 L 1775.06,461.868 L 1775.06,470.61 L 1777.9,470.61 C 1778.53,470.61 1779.07,470.545 1779.52,470.415 C 1779.96,470.285 1780.33,470.104 1780.61,469.872 C 1780.89,469.639 1781.1,469.365 1781.23,469.048 C 1781.35,468.732 1781.42,468.388 1781.42,468.015 C 1781.42,467.731 1781.38,467.463 1781.3,467.21 C 1781.23,466.958 1781.11,466.724 1780.96,466.51 C 1780.81,466.296 1780.63,466.105 1780.41,465.936 C 1780.19,465.768 1779.94,465.63 1779.66,465.522 C 1779.8,465.454 1779.92,465.37 1780.04,465.27 C 1780.16,465.17 1780.26,465.049 1780.35,464.905 L 1782.21,461.868 L 1780.37,461.868 C 1780.03,461.868 1779.79,461.996 1779.64,462.252 L 1778.19,464.79 C 1778.13,464.902 1778.05,464.982 1777.96,465.03 C 1777.88,465.079 1777.76,465.103 1777.6,465.102 L 1777.09,465.102 Z M 1777.09,466.5 L 1777.9,466.5 C 1778.18,466.5 1778.41,466.535 1778.61,466.605 C 1778.8,466.675 1778.96,466.772 1779.08,466.896 C 1779.21,467.02 1779.3,467.165 1779.35,467.331 C 1779.41,467.497 1779.44,467.676 1779.44,467.868 C 1779.44,468.253 1779.31,468.553 1779.06,468.769 C 1778.81,468.985 1778.43,469.093 1777.9,469.093 L 1777.09,469.093 L 1777.09,466.5 Z" marker-start="none" marker-end="none"/>
  </g>
  <rect x="1722.367" y="406.508" width="76.234" height="35.155" rx="4.9718" ry="4.9718" stroke="none" fill="#ffffff" stroke-linejoin="miter"/>
  <path d="M 1722.37,436.692 L 1722.37,411.479 C 1722.37,408.736 1724.59,406.508 1727.34,406.508 L 1793.63,406.508 C 1796.37,406.508 1798.6,408.736 1798.6,411.479 L 1798.6,436.692 C 1798.6,439.435 1796.37,441.663 1793.63,441.663 L 1727.34,441.663 C 1724.59,441.663 1722.37,439.435 1722.37,436.692 Z" stroke="none" fill="#ffffff" stroke-linejoin="miter" marker-start="none" marker-end="none"/>
  <g id="Group_2" fill-rule="nonzero" stroke-linejoin="round" stroke-linecap="round" stroke="none" stroke-width="0.61" fill="#000000">
   <g id="Group_3">
    <path d="M 1769.47,415.201 L 1766.28,415.201 C 1765.92,415.201 1765.62,415.284 1765.39,415.451 C 1765.16,415.618 1765,415.831 1764.91,416.091 L 1763.86,419.19 L 1757.11,419.19 L 1756.06,416.091 C 1755.98,415.864 1755.82,415.659 1755.58,415.475 C 1755.35,415.292 1755.06,415.201 1754.72,415.201 L 1751.5,415.201 L 1758.37,432.97 L 1762.59,432.97 L 1769.47,415.201 Z M 1758.06,421.995 L 1762.91,421.995 L 1761.28,426.785 C 1761.17,427.089 1761.05,427.447 1760.9,427.86 C 1760.76,428.272 1760.62,428.718 1760.48,429.198 C 1760.35,428.71 1760.22,428.258 1760.08,427.841 C 1759.94,427.425 1759.81,427.065 1759.69,426.761 L 1758.06,421.995 Z" marker-start="none" marker-end="none"/>
   </g>
  </g>
 </g>
 <g id="Layer 2 - grids" transform="scale(1 -1)"/>
 <g id="Layer 1" transform="scale(1 -1)"/>
</svg>
