<?xml version="1.0" standalone="no"?>
<!DOCTYPE svg PUBLIC "-//W3C//DTD SVG 1.1//EN" "http://www.w3.org/Graphics/SVG/1.1/DTD/svg11.dtd">
<!--Generator: Xara Designer (www.xara.com), SVG filter version: 6.6.0.0-->
<svg fill="none" fill-rule="evenodd" stroke="black" stroke-width="0.501" stroke-linejoin="bevel" stroke-miterlimit="10" font-family="Times New Roman" font-size="16" style="font-variant-ligatures:none" xmlns:xlink="http://www.w3.org/1999/xlink" xmlns="http://www.w3.org/2000/svg" version="1.1" overflow="visible" width="107.718pt" height="107.72pt" viewBox="1551.14 -494.533 107.718 107.72">
 <defs>
	</defs>
 <g id="Grid 36x36mm" transform="scale(1 -1)">
  <path d="M 1551.14,402.027 L 1551.14,479.319 C 1551.14,487.717 1557.96,494.533 1566.35,494.533 L 1605,494.531 L 1604.99,494.531 L 1605,440.673 L 1605.01,494.531 L 1605,494.531 L 1643.65,494.533 C 1652.04,494.533 1658.86,487.717 1658.86,479.319 L 1658.86,402.027 C 1658.86,393.629 1652.04,386.813 1643.65,386.813 L 1605,386.815 L 1605.01,386.815 L 1605,440.673 L 1604.99,386.815 L 1605,386.815 L 1566.35,386.813 C 1557.96,386.813 1551.14,393.629 1551.14,402.027 Z" stroke="none" fill="#ffffff" stroke-width="0.802" stroke-linejoin="miter" marker-start="none" marker-end="none"/>
  <path d="M 1551.99,402.755 L 1551.99,478.591 C 1551.99,486.922 1558.75,493.684 1567.08,493.684 L 1642.92,493.684 C 1651.25,493.684 1658.01,486.922 1658.01,478.591 L 1658.01,402.755 C 1658.01,394.424 1651.25,387.662 1642.92,387.662 L 1567.08,387.662 C 1558.75,387.662 1551.99,394.424 1551.99,402.755 Z" stroke="none" fill="#e5e5e5" stroke-width="0.801" stroke-linejoin="miter" marker-start="none" marker-end="none"/>
  <g id="Group" fill="#000000" fill-rule="nonzero" stroke-linejoin="round" stroke-linecap="round" stroke="none" stroke-width="0.25">
   <path d="M 1581.51,479.572 L 1584.75,479.572 L 1584.75,477.952 L 1579.48,477.952 L 1579.48,486.696 L 1581.51,486.696 L 1581.51,479.572 Z" marker-start="none" marker-end="none"/>
   <path d="M 1591.34,486.697 L 1591.34,485.136 L 1587.75,485.136 L 1587.75,483.094 L 1590.5,483.094 L 1590.5,481.594 L 1587.75,481.594 L 1587.75,479.514 L 1591.34,479.514 L 1591.34,477.952 L 1585.71,477.952 L 1585.71,486.697 L 1591.34,486.697 Z" marker-start="none" marker-end="none"/>
   <path d="M 1600.63,477.952 L 1599.06,477.952 C 1598.88,477.952 1598.74,477.993 1598.62,478.075 C 1598.51,478.157 1598.43,478.262 1598.38,478.39 L 1597.87,479.915 L 1594.54,479.915 L 1594.03,478.39 C 1593.99,478.278 1593.91,478.177 1593.79,478.087 C 1593.68,477.997 1593.54,477.952 1593.37,477.952 L 1591.78,477.952 L 1595.17,486.696 L 1597.24,486.696 L 1600.63,477.952 Z M 1595.01,481.295 L 1597.4,481.295 L 1596.6,483.652 C 1596.54,483.802 1596.48,483.978 1596.41,484.181 C 1596.34,484.384 1596.27,484.604 1596.21,484.84 C 1596.14,484.6 1596.08,484.377 1596.01,484.172 C 1595.94,483.968 1595.88,483.79 1595.82,483.641 L 1595.01,481.295 Z" marker-start="none" marker-end="none"/>
   <path d="M 1609.27,482.328 C 1609.27,481.695 1609.16,481.112 1608.94,480.578 C 1608.72,480.044 1608.41,479.582 1608.02,479.192 C 1607.62,478.801 1607.15,478.497 1606.59,478.279 C 1606.03,478.061 1605.41,477.952 1604.73,477.952 L 1601.33,477.952 L 1601.33,486.697 L 1604.73,486.697 C 1605.41,486.697 1606.03,486.587 1606.59,486.367 C 1607.15,486.147 1607.62,485.843 1608.02,485.455 C 1608.41,485.067 1608.72,484.606 1608.94,484.071 C 1609.16,483.537 1609.27,482.956 1609.27,482.328 Z M 1607.19,482.328 C 1607.19,482.76 1607.13,483.15 1607.02,483.498 C 1606.91,483.846 1606.75,484.141 1606.54,484.383 C 1606.33,484.625 1606.07,484.811 1605.77,484.941 C 1605.46,485.071 1605.12,485.136 1604.73,485.136 L 1603.37,485.136 L 1603.37,479.514 L 1604.73,479.514 C 1605.12,479.514 1605.46,479.579 1605.77,479.709 C 1606.07,479.839 1606.33,480.025 1606.54,480.267 C 1606.75,480.509 1606.91,480.804 1607.02,481.152 C 1607.13,481.5 1607.19,481.892 1607.19,482.328 Z" marker-start="none" marker-end="none"/>
   <path d="M 1612.46,477.952 L 1610.42,477.952 L 1610.42,486.697 L 1612.46,486.697 L 1612.46,477.952 Z" marker-start="none" marker-end="none"/>
   <path d="M 1615.15,486.697 C 1615.23,486.697 1615.31,486.693 1615.37,486.685 C 1615.43,486.677 1615.48,486.662 1615.53,486.64 C 1615.58,486.618 1615.62,486.587 1615.67,486.547 C 1615.71,486.507 1615.76,486.453 1615.82,486.385 L 1619.97,481.135 C 1619.95,481.303 1619.94,481.466 1619.93,481.624 C 1619.93,481.782 1619.92,481.931 1619.92,482.071 L 1619.92,486.697 L 1621.71,486.697 L 1621.71,477.952 L 1620.65,477.952 C 1620.5,477.952 1620.37,477.976 1620.26,478.024 C 1620.15,478.072 1620.05,478.16 1619.95,478.288 L 1615.82,483.496 C 1615.84,483.344 1615.85,483.195 1615.85,483.049 C 1615.86,482.903 1615.87,482.766 1615.87,482.638 L 1615.87,477.952 L 1614.08,477.952 L 1614.08,486.697 L 1615.15,486.697 Z" marker-start="none" marker-end="none"/>
   <path d="M 1627.26,479.417 C 1627.54,479.417 1627.79,479.44 1628.01,479.488 C 1628.22,479.535 1628.43,479.598 1628.62,479.677 L 1628.62,481.005 L 1627.76,481.005 C 1627.63,481.005 1627.53,481.039 1627.46,481.107 C 1627.38,481.175 1627.35,481.261 1627.35,481.365 L 1627.35,482.481 L 1630.46,482.481 L 1630.46,478.792 C 1630.23,478.628 1630,478.487 1629.76,478.368 C 1629.52,478.25 1629.26,478.153 1628.98,478.077 C 1628.71,478.001 1628.42,477.945 1628.11,477.909 C 1627.8,477.873 1627.46,477.855 1627.11,477.855 C 1626.47,477.855 1625.88,477.968 1625.33,478.194 C 1624.79,478.421 1624.32,478.733 1623.92,479.131 C 1623.52,479.529 1623.21,480.001 1622.98,480.547 C 1622.76,481.093 1622.64,481.686 1622.64,482.326 C 1622.64,482.978 1622.75,483.578 1622.97,484.124 C 1623.18,484.67 1623.49,485.141 1623.9,485.537 C 1624.3,485.933 1624.78,486.241 1625.35,486.461 C 1625.92,486.681 1626.56,486.791 1627.26,486.791 C 1627.63,486.791 1627.97,486.761 1628.29,486.701 C 1628.61,486.641 1628.91,486.559 1629.18,486.455 C 1629.44,486.351 1629.69,486.226 1629.92,486.082 C 1630.14,485.938 1630.34,485.782 1630.52,485.613 L 1629.93,484.719 C 1629.87,484.635 1629.81,484.569 1629.73,484.521 C 1629.65,484.473 1629.56,484.449 1629.47,484.449 C 1629.35,484.449 1629.23,484.489 1629.1,484.569 C 1628.94,484.665 1628.79,484.748 1628.65,484.818 C 1628.51,484.888 1628.36,484.945 1628.21,484.989 C 1628.06,485.033 1627.91,485.065 1627.74,485.085 C 1627.58,485.105 1627.4,485.115 1627.19,485.115 C 1626.81,485.115 1626.47,485.048 1626.17,484.914 C 1625.86,484.78 1625.6,484.592 1625.39,484.348 C 1625.18,484.104 1625.01,483.811 1624.89,483.469 C 1624.78,483.127 1624.72,482.746 1624.72,482.326 C 1624.72,481.862 1624.78,481.45 1624.91,481.09 C 1625.04,480.731 1625.22,480.427 1625.44,480.179 C 1625.67,479.931 1625.94,479.742 1626.25,479.612 C 1626.56,479.482 1626.9,479.417 1627.26,479.417 Z" marker-start="none" marker-end="none"/>
  </g>
  <g id="Group_1" fill="#000000" fill-rule="nonzero" stroke-linejoin="round" stroke-linecap="round" stroke="none" stroke-width="0.25">
   <path d="M 1583.28,463.556 L 1583.28,472.298 L 1586.49,472.298 C 1587.1,472.298 1587.61,472.242 1588.03,472.13 C 1588.46,472.018 1588.8,471.861 1589.07,471.657 C 1589.34,471.453 1589.53,471.205 1589.66,470.913 C 1589.78,470.621 1589.84,470.295 1589.84,469.935 C 1589.84,469.739 1589.81,469.55 1589.76,469.368 C 1589.7,469.186 1589.61,469.015 1589.49,468.855 C 1589.37,468.695 1589.22,468.55 1589.03,468.42 C 1588.84,468.29 1588.62,468.177 1588.35,468.081 C 1588.93,467.941 1589.35,467.714 1589.63,467.4 C 1589.91,467.086 1590.04,466.683 1590.04,466.191 C 1590.04,465.819 1589.97,465.473 1589.83,465.152 C 1589.68,464.832 1589.47,464.553 1589.19,464.315 C 1588.92,464.077 1588.57,463.891 1588.17,463.757 C 1587.76,463.623 1587.29,463.556 1586.77,463.556 L 1583.28,463.556 Z M 1585.3,467.265 L 1585.3,465.085 L 1586.73,465.085 C 1587,465.085 1587.22,465.119 1587.39,465.187 C 1587.56,465.256 1587.69,465.344 1587.79,465.452 C 1587.88,465.56 1587.95,465.682 1587.99,465.818 C 1588.02,465.954 1588.04,466.092 1588.04,466.232 C 1588.04,466.392 1588.02,466.536 1587.98,466.665 C 1587.93,466.793 1587.86,466.901 1587.76,466.989 C 1587.66,467.077 1587.52,467.145 1587.36,467.193 C 1587.19,467.241 1586.98,467.265 1586.72,467.265 L 1585.3,467.265 Z M 1585.3,468.622 L 1586.36,468.622 C 1586.58,468.622 1586.79,468.638 1586.97,468.669 C 1587.15,468.702 1587.3,468.758 1587.42,468.837 C 1587.55,468.917 1587.65,469.027 1587.71,469.167 C 1587.78,469.307 1587.81,469.483 1587.81,469.695 C 1587.81,469.903 1587.79,470.076 1587.73,470.214 C 1587.68,470.352 1587.6,470.463 1587.49,470.547 C 1587.39,470.631 1587.25,470.691 1587.08,470.727 C 1586.92,470.763 1586.72,470.781 1586.49,470.781 L 1585.3,470.781 L 1585.3,468.622 Z" marker-start="none" marker-end="none"/>
   <path d="M 1593.36,463.556 L 1591.32,463.556 L 1591.32,472.301 L 1593.36,472.301 L 1593.36,463.556 Z" marker-start="none" marker-end="none"/>
   <path d="M 1602.91,467.932 C 1602.91,467.299 1602.81,466.716 1602.59,466.182 C 1602.37,465.648 1602.06,465.186 1601.67,464.796 C 1601.27,464.405 1600.79,464.101 1600.24,463.883 C 1599.68,463.665 1599.06,463.556 1598.38,463.556 L 1594.98,463.556 L 1594.98,472.301 L 1598.38,472.301 C 1599.06,472.301 1599.68,472.191 1600.24,471.971 C 1600.79,471.751 1601.27,471.447 1601.67,471.059 C 1602.06,470.671 1602.37,470.21 1602.59,469.675 C 1602.81,469.141 1602.91,468.56 1602.91,467.932 Z M 1600.84,467.932 C 1600.84,468.364 1600.78,468.754 1600.67,469.102 C 1600.56,469.45 1600.4,469.745 1600.19,469.987 C 1599.98,470.229 1599.72,470.415 1599.42,470.545 C 1599.11,470.675 1598.77,470.74 1598.38,470.74 L 1597.02,470.74 L 1597.02,465.118 L 1598.38,465.118 C 1598.77,465.118 1599.11,465.183 1599.42,465.313 C 1599.72,465.443 1599.98,465.629 1600.19,465.871 C 1600.4,466.113 1600.56,466.408 1600.67,466.756 C 1600.78,467.104 1600.84,467.496 1600.84,467.932 Z" marker-start="none" marker-end="none"/>
   <path d="M 1611.82,467.932 C 1611.82,467.299 1611.71,466.716 1611.49,466.182 C 1611.28,465.648 1610.97,465.186 1610.57,464.796 C 1610.18,464.405 1609.7,464.101 1609.14,463.883 C 1608.58,463.665 1607.96,463.556 1607.28,463.556 L 1603.89,463.556 L 1603.89,472.301 L 1607.28,472.301 C 1607.96,472.301 1608.58,472.191 1609.14,471.971 C 1609.7,471.751 1610.18,471.447 1610.57,471.059 C 1610.97,470.671 1611.28,470.21 1611.49,469.675 C 1611.71,469.141 1611.82,468.56 1611.82,467.932 Z M 1609.74,467.932 C 1609.74,468.364 1609.69,468.754 1609.58,469.102 C 1609.46,469.45 1609.3,469.745 1609.09,469.987 C 1608.88,470.229 1608.63,470.415 1608.32,470.545 C 1608.02,470.675 1607.67,470.74 1607.28,470.74 L 1605.93,470.74 L 1605.93,465.118 L 1607.28,465.118 C 1607.67,465.118 1608.02,465.183 1608.32,465.313 C 1608.63,465.443 1608.88,465.629 1609.09,465.871 C 1609.3,466.113 1609.46,466.408 1609.58,466.756 C 1609.69,467.104 1609.74,467.496 1609.74,467.932 Z" marker-start="none" marker-end="none"/>
   <path d="M 1618.42,472.301 L 1618.42,470.74 L 1614.83,470.74 L 1614.83,468.698 L 1617.58,468.698 L 1617.58,467.198 L 1614.83,467.198 L 1614.83,465.118 L 1618.42,465.118 L 1618.42,463.556 L 1612.79,463.556 L 1612.79,472.301 L 1618.42,472.301 Z" marker-start="none" marker-end="none"/>
   <path d="M 1621.6,466.79 L 1621.6,463.556 L 1619.57,463.556 L 1619.57,472.298 L 1622.42,472.298 C 1623.05,472.298 1623.59,472.233 1624.03,472.103 C 1624.48,471.973 1624.84,471.792 1625.13,471.56 C 1625.41,471.327 1625.61,471.053 1625.74,470.736 C 1625.87,470.42 1625.93,470.076 1625.93,469.703 C 1625.93,469.419 1625.9,469.151 1625.82,468.898 C 1625.74,468.646 1625.63,468.412 1625.48,468.198 C 1625.33,467.984 1625.15,467.793 1624.93,467.624 C 1624.71,467.456 1624.46,467.318 1624.18,467.21 C 1624.31,467.142 1624.44,467.058 1624.56,466.958 C 1624.67,466.858 1624.78,466.737 1624.87,466.593 L 1626.73,463.556 L 1624.89,463.556 C 1624.55,463.556 1624.31,463.684 1624.16,463.94 L 1622.7,466.478 C 1622.64,466.59 1622.57,466.67 1622.48,466.718 C 1622.39,466.767 1622.27,466.791 1622.12,466.79 L 1621.6,466.79 Z M 1621.6,468.188 L 1622.42,468.188 C 1622.69,468.188 1622.93,468.223 1623.12,468.293 C 1623.32,468.363 1623.48,468.46 1623.6,468.584 C 1623.72,468.708 1623.81,468.853 1623.87,469.019 C 1623.93,469.185 1623.95,469.364 1623.95,469.556 C 1623.95,469.941 1623.83,470.241 1623.58,470.457 C 1623.33,470.673 1622.94,470.781 1622.42,470.781 L 1621.6,470.781 L 1621.6,468.188 Z" marker-start="none" marker-end="none"/>
  </g>
  <rect x="1566.883" y="408.196" width="76.234" height="35.155" rx="4.9718" ry="4.9718" stroke="none" fill="#ffffff" stroke-linejoin="miter"/>
  <path d="M 1566.88,438.38 L 1566.88,413.167 C 1566.88,410.424 1569.11,408.196 1571.85,408.196 L 1638.15,408.196 C 1640.89,408.196 1643.12,410.424 1643.12,413.167 L 1643.12,438.38 C 1643.12,441.123 1640.89,443.351 1638.15,443.351 L 1571.85,443.351 C 1569.11,443.351 1566.88,441.123 1566.88,438.38 Z" stroke="none" fill="#ffffff" stroke-linejoin="miter" marker-start="none" marker-end="none"/>
  <g id="Group_2" fill-rule="nonzero" stroke-linejoin="round" stroke-linecap="round" stroke="none" stroke-width="0.61" fill="#000000">
   <g id="Group_3">
    <path d="M 1613.99,416.889 L 1610.79,416.889 C 1610.43,416.889 1610.14,416.972 1609.91,417.139 C 1609.68,417.306 1609.52,417.519 1609.43,417.779 L 1608.38,420.878 L 1601.62,420.878 L 1600.57,417.779 C 1600.49,417.552 1600.33,417.347 1600.1,417.163 C 1599.86,416.98 1599.57,416.889 1599.23,416.889 L 1596.01,416.889 L 1602.89,434.658 L 1607.11,434.658 L 1613.99,416.889 Z M 1602.57,423.683 L 1607.43,423.683 L 1605.79,428.473 C 1605.69,428.777 1605.56,429.135 1605.42,429.548 C 1605.28,429.96 1605.14,430.406 1605,430.886 C 1604.87,430.398 1604.74,429.946 1604.6,429.529 C 1604.46,429.113 1604.33,428.753 1604.21,428.449 L 1602.57,423.683 Z" marker-start="none" marker-end="none"/>
   </g>
  </g>
 </g>
 <g id="Layer 2 - grids" transform="scale(1 -1)"/>
 <g id="Layer 1" transform="scale(1 -1)"/>
</svg>
