<?xml version="1.0" standalone="no"?>
<!DOCTYPE svg PUBLIC "-//W3C//DTD SVG 1.1//EN" "http://www.w3.org/Graphics/SVG/1.1/DTD/svg11.dtd">
<!--Generator: Xara Designer (www.xara.com), SVG filter version: 6.6.0.0-->
<svg fill="none" fill-rule="evenodd" stroke="black" stroke-width="0.501" stroke-linejoin="bevel" stroke-miterlimit="10" font-family="Times New Roman" font-size="16" style="font-variant-ligatures:none" xmlns:xlink="http://www.w3.org/1999/xlink" xmlns="http://www.w3.org/2000/svg" version="1.1" overflow="visible" width="107.718pt" height="107.72pt" viewBox="1845.38 -493.22 107.718 107.72">
 <defs>
	</defs>
 <g id="Grid 36x36mm" transform="scale(1 -1)">
  <path d="M 1845.38,400.714 L 1845.38,478.006 C 1845.38,486.404 1852.19,493.22 1860.59,493.22 L 1899.23,493.218 L 1899.22,493.218 L 1899.23,439.36 L 1899.24,493.218 L 1899.24,493.218 L 1937.88,493.22 C 1946.28,493.22 1953.09,486.404 1953.09,478.006 L 1953.09,400.714 C 1953.09,392.316 1946.28,385.5 1937.88,385.5 L 1899.24,385.502 L 1899.24,385.502 L 1899.23,439.36 L 1899.22,385.502 L 1899.23,385.502 L 1860.59,385.5 C 1852.19,385.5 1845.38,392.316 1845.38,400.714 Z" stroke="none" fill="#ffffff" stroke-width="0.802" stroke-linejoin="miter" marker-start="none" marker-end="none"/>
  <path d="M 1846.22,401.442 L 1846.22,477.278 C 1846.22,485.609 1852.99,492.371 1861.32,492.371 L 1937.15,492.371 C 1945.48,492.371 1952.24,485.609 1952.24,477.278 L 1952.24,401.442 C 1952.24,393.111 1945.48,386.349 1937.15,386.349 L 1861.32,386.349 C 1852.99,386.349 1846.22,393.111 1846.22,401.442 Z" stroke="none" fill="#e5e5e5" stroke-width="0.801" stroke-linejoin="miter" marker-start="none" marker-end="none"/>
  <g id="Group" fill="#000000" fill-rule="nonzero" stroke-linejoin="round" stroke-linecap="round" stroke="none" stroke-width="0.25">
   <path d="M 1875.75,478.259 L 1878.99,478.259 L 1878.99,476.639 L 1873.72,476.639 L 1873.72,485.383 L 1875.75,485.383 L 1875.75,478.259 Z" marker-start="none" marker-end="none"/>
   <path d="M 1885.58,485.384 L 1885.58,483.823 L 1881.99,483.823 L 1881.99,481.781 L 1884.74,481.781 L 1884.74,480.281 L 1881.99,480.281 L 1881.99,478.201 L 1885.58,478.201 L 1885.58,476.639 L 1879.95,476.639 L 1879.95,485.384 L 1885.58,485.384 Z" marker-start="none" marker-end="none"/>
   <path d="M 1894.86,476.639 L 1893.29,476.639 C 1893.11,476.639 1892.97,476.68 1892.86,476.762 C 1892.74,476.844 1892.66,476.949 1892.62,477.077 L 1892.1,478.602 L 1888.78,478.602 L 1888.26,477.077 C 1888.22,476.965 1888.14,476.864 1888.03,476.774 C 1887.91,476.684 1887.77,476.639 1887.6,476.639 L 1886.02,476.639 L 1889.4,485.383 L 1891.48,485.383 L 1894.86,476.639 Z M 1889.25,479.982 L 1891.63,479.982 L 1890.83,482.339 C 1890.78,482.489 1890.72,482.665 1890.65,482.868 C 1890.58,483.071 1890.51,483.291 1890.44,483.527 C 1890.38,483.287 1890.31,483.064 1890.24,482.859 C 1890.17,482.655 1890.11,482.477 1890.05,482.328 L 1889.25,479.982 Z" marker-start="none" marker-end="none"/>
   <path d="M 1903.5,481.015 C 1903.5,480.382 1903.39,479.799 1903.17,479.265 C 1902.95,478.731 1902.65,478.269 1902.25,477.879 C 1901.86,477.488 1901.38,477.184 1900.82,476.966 C 1900.26,476.748 1899.64,476.639 1898.96,476.639 L 1895.57,476.639 L 1895.57,485.384 L 1898.96,485.384 C 1899.64,485.384 1900.26,485.274 1900.82,485.054 C 1901.38,484.834 1901.86,484.53 1902.25,484.142 C 1902.65,483.754 1902.95,483.293 1903.17,482.758 C 1903.39,482.224 1903.5,481.643 1903.5,481.015 Z M 1901.42,481.015 C 1901.42,481.447 1901.37,481.837 1901.26,482.185 C 1901.14,482.533 1900.98,482.828 1900.77,483.07 C 1900.56,483.312 1900.31,483.498 1900,483.628 C 1899.7,483.758 1899.35,483.823 1898.96,483.823 L 1897.61,483.823 L 1897.61,478.201 L 1898.96,478.201 C 1899.35,478.201 1899.7,478.266 1900,478.396 C 1900.31,478.526 1900.56,478.712 1900.77,478.954 C 1900.98,479.196 1901.14,479.491 1901.26,479.839 C 1901.37,480.187 1901.42,480.579 1901.42,481.015 Z" marker-start="none" marker-end="none"/>
   <path d="M 1906.69,476.639 L 1904.65,476.639 L 1904.65,485.384 L 1906.69,485.384 L 1906.69,476.639 Z" marker-start="none" marker-end="none"/>
   <path d="M 1909.38,485.384 C 1909.47,485.384 1909.54,485.38 1909.6,485.372 C 1909.66,485.364 1909.72,485.349 1909.76,485.327 C 1909.81,485.305 1909.86,485.274 1909.9,485.234 C 1909.95,485.194 1910,485.14 1910.05,485.072 L 1914.2,479.822 C 1914.19,479.99 1914.18,480.153 1914.17,480.311 C 1914.16,480.469 1914.16,480.618 1914.16,480.758 L 1914.16,485.384 L 1915.94,485.384 L 1915.94,476.639 L 1914.89,476.639 C 1914.73,476.639 1914.6,476.663 1914.49,476.711 C 1914.38,476.759 1914.28,476.847 1914.18,476.975 L 1910.06,482.183 C 1910.07,482.031 1910.08,481.882 1910.09,481.736 C 1910.1,481.59 1910.1,481.453 1910.1,481.325 L 1910.1,476.639 L 1908.31,476.639 L 1908.31,485.384 L 1909.38,485.384 Z" marker-start="none" marker-end="none"/>
   <path d="M 1921.5,478.104 C 1921.78,478.104 1922.03,478.127 1922.24,478.175 C 1922.46,478.222 1922.66,478.285 1922.85,478.364 L 1922.85,479.692 L 1921.99,479.692 C 1921.86,479.692 1921.76,479.726 1921.69,479.794 C 1921.62,479.862 1921.58,479.948 1921.58,480.052 L 1921.58,481.168 L 1924.69,481.168 L 1924.69,477.479 C 1924.47,477.315 1924.23,477.174 1923.99,477.055 C 1923.75,476.937 1923.49,476.84 1923.22,476.764 C 1922.94,476.688 1922.65,476.632 1922.34,476.596 C 1922.03,476.56 1921.7,476.542 1921.34,476.542 C 1920.7,476.542 1920.11,476.655 1919.57,476.881 C 1919.02,477.108 1918.55,477.42 1918.15,477.818 C 1917.76,478.216 1917.44,478.688 1917.22,479.234 C 1916.99,479.78 1916.88,480.373 1916.88,481.013 C 1916.88,481.665 1916.99,482.265 1917.2,482.811 C 1917.42,483.357 1917.73,483.828 1918.13,484.224 C 1918.53,484.62 1919.02,484.928 1919.59,485.148 C 1920.16,485.368 1920.79,485.478 1921.5,485.478 C 1921.86,485.478 1922.2,485.448 1922.52,485.388 C 1922.84,485.328 1923.14,485.246 1923.41,485.142 C 1923.68,485.038 1923.93,484.913 1924.15,484.769 C 1924.37,484.625 1924.57,484.469 1924.75,484.3 L 1924.16,483.406 C 1924.11,483.322 1924.04,483.256 1923.96,483.208 C 1923.88,483.16 1923.8,483.136 1923.71,483.136 C 1923.59,483.136 1923.46,483.176 1923.33,483.256 C 1923.17,483.352 1923.02,483.435 1922.88,483.505 C 1922.74,483.575 1922.59,483.632 1922.45,483.676 C 1922.3,483.72 1922.14,483.752 1921.98,483.772 C 1921.81,483.792 1921.63,483.802 1921.43,483.802 C 1921.05,483.802 1920.7,483.735 1920.4,483.601 C 1920.1,483.467 1919.84,483.279 1919.62,483.035 C 1919.41,482.791 1919.24,482.498 1919.13,482.156 C 1919.01,481.814 1918.95,481.433 1918.95,481.013 C 1918.95,480.549 1919.02,480.137 1919.15,479.777 C 1919.27,479.418 1919.45,479.114 1919.68,478.866 C 1919.9,478.618 1920.17,478.429 1920.48,478.299 C 1920.79,478.169 1921.13,478.104 1921.5,478.104 Z" marker-start="none" marker-end="none"/>
  </g>
  <g id="Group_1" fill="#000000" fill-rule="nonzero" stroke-linejoin="round" stroke-linecap="round" stroke="none" stroke-width="0.25">
   <path d="M 1877.51,462.243 L 1877.51,470.985 L 1880.73,470.985 C 1881.33,470.985 1881.84,470.929 1882.27,470.817 C 1882.69,470.705 1883.04,470.548 1883.31,470.344 C 1883.57,470.14 1883.77,469.892 1883.89,469.6 C 1884.01,469.308 1884.07,468.982 1884.07,468.622 C 1884.07,468.426 1884.05,468.237 1883.99,468.055 C 1883.93,467.873 1883.85,467.702 1883.73,467.542 C 1883.61,467.382 1883.45,467.237 1883.26,467.107 C 1883.08,466.977 1882.85,466.864 1882.59,466.768 C 1883.16,466.628 1883.59,466.401 1883.86,466.087 C 1884.14,465.773 1884.28,465.37 1884.28,464.878 C 1884.28,464.506 1884.2,464.16 1884.06,463.839 C 1883.92,463.519 1883.71,463.24 1883.43,463.002 C 1883.15,462.764 1882.81,462.578 1882.4,462.444 C 1881.99,462.31 1881.53,462.243 1881,462.243 L 1877.51,462.243 Z M 1879.54,465.952 L 1879.54,463.772 L 1880.97,463.772 C 1881.23,463.772 1881.45,463.806 1881.62,463.874 C 1881.79,463.943 1881.93,464.031 1882.02,464.139 C 1882.12,464.247 1882.18,464.369 1882.22,464.505 C 1882.26,464.641 1882.27,464.779 1882.27,464.919 C 1882.27,465.079 1882.25,465.223 1882.21,465.352 C 1882.17,465.48 1882.1,465.588 1881.99,465.676 C 1881.89,465.764 1881.76,465.832 1881.59,465.88 C 1881.42,465.928 1881.21,465.952 1880.95,465.952 L 1879.54,465.952 Z M 1879.54,467.309 L 1880.59,467.309 C 1880.82,467.309 1881.02,467.325 1881.2,467.356 C 1881.38,467.389 1881.53,467.445 1881.66,467.524 C 1881.78,467.604 1881.88,467.714 1881.95,467.854 C 1882.01,467.994 1882.05,468.17 1882.05,468.382 C 1882.05,468.59 1882.02,468.763 1881.97,468.901 C 1881.92,469.039 1881.84,469.15 1881.73,469.234 C 1881.62,469.318 1881.48,469.378 1881.32,469.414 C 1881.15,469.45 1880.95,469.468 1880.73,469.468 L 1879.54,469.468 L 1879.54,467.309 Z" marker-start="none" marker-end="none"/>
   <path d="M 1887.6,462.243 L 1885.56,462.243 L 1885.56,470.988 L 1887.6,470.988 L 1887.6,462.243 Z" marker-start="none" marker-end="none"/>
   <path d="M 1897.15,466.619 C 1897.15,465.986 1897.04,465.403 1896.82,464.869 C 1896.6,464.335 1896.3,463.873 1895.9,463.483 C 1895.5,463.092 1895.03,462.788 1894.47,462.57 C 1893.91,462.352 1893.29,462.243 1892.61,462.243 L 1889.22,462.243 L 1889.22,470.988 L 1892.61,470.988 C 1893.29,470.988 1893.91,470.878 1894.47,470.658 C 1895.03,470.438 1895.5,470.134 1895.9,469.746 C 1896.3,469.358 1896.6,468.897 1896.82,468.362 C 1897.04,467.828 1897.15,467.247 1897.15,466.619 Z M 1895.07,466.619 C 1895.07,467.051 1895.02,467.441 1894.9,467.789 C 1894.79,468.137 1894.63,468.432 1894.42,468.674 C 1894.21,468.916 1893.95,469.102 1893.65,469.232 C 1893.35,469.362 1893,469.427 1892.61,469.427 L 1891.26,469.427 L 1891.26,463.805 L 1892.61,463.805 C 1893,463.805 1893.35,463.87 1893.65,464 C 1893.95,464.13 1894.21,464.316 1894.42,464.558 C 1894.63,464.8 1894.79,465.095 1894.9,465.443 C 1895.02,465.791 1895.07,466.183 1895.07,466.619 Z" marker-start="none" marker-end="none"/>
   <path d="M 1906.05,466.619 C 1906.05,465.986 1905.94,465.403 1905.73,464.869 C 1905.51,464.335 1905.2,463.873 1904.81,463.483 C 1904.41,463.092 1903.93,462.788 1903.38,462.57 C 1902.82,462.352 1902.2,462.243 1901.52,462.243 L 1898.12,462.243 L 1898.12,470.988 L 1901.52,470.988 C 1902.2,470.988 1902.82,470.878 1903.38,470.658 C 1903.93,470.438 1904.41,470.134 1904.81,469.746 C 1905.2,469.358 1905.51,468.897 1905.73,468.362 C 1905.94,467.828 1906.05,467.247 1906.05,466.619 Z M 1903.98,466.619 C 1903.98,467.051 1903.92,467.441 1903.81,467.789 C 1903.7,468.137 1903.54,468.432 1903.33,468.674 C 1903.12,468.916 1902.86,469.102 1902.56,469.232 C 1902.25,469.362 1901.91,469.427 1901.52,469.427 L 1900.16,469.427 L 1900.16,463.805 L 1901.52,463.805 C 1901.91,463.805 1902.25,463.87 1902.56,464 C 1902.86,464.13 1903.12,464.316 1903.33,464.558 C 1903.54,464.8 1903.7,465.095 1903.81,465.443 C 1903.92,465.791 1903.98,466.183 1903.98,466.619 Z" marker-start="none" marker-end="none"/>
   <path d="M 1912.66,470.988 L 1912.66,469.427 L 1909.07,469.427 L 1909.07,467.385 L 1911.82,467.385 L 1911.82,465.885 L 1909.07,465.885 L 1909.07,463.805 L 1912.66,463.805 L 1912.66,462.243 L 1907.03,462.243 L 1907.03,470.988 L 1912.66,470.988 Z" marker-start="none" marker-end="none"/>
   <path d="M 1915.84,465.477 L 1915.84,462.243 L 1913.81,462.243 L 1913.81,470.985 L 1916.65,470.985 C 1917.28,470.985 1917.82,470.92 1918.27,470.79 C 1918.71,470.66 1919.08,470.479 1919.36,470.247 C 1919.64,470.014 1919.85,469.74 1919.98,469.423 C 1920.1,469.107 1920.17,468.763 1920.17,468.39 C 1920.17,468.106 1920.13,467.838 1920.05,467.585 C 1919.98,467.333 1919.86,467.099 1919.71,466.885 C 1919.56,466.671 1919.38,466.48 1919.16,466.311 C 1918.94,466.143 1918.69,466.005 1918.41,465.897 C 1918.55,465.829 1918.67,465.745 1918.79,465.645 C 1918.91,465.545 1919.01,465.424 1919.1,465.28 L 1920.96,462.243 L 1919.12,462.243 C 1918.78,462.243 1918.54,462.371 1918.39,462.627 L 1916.94,465.165 C 1916.88,465.277 1916.8,465.357 1916.71,465.405 C 1916.63,465.454 1916.51,465.478 1916.35,465.477 L 1915.84,465.477 Z M 1915.84,466.875 L 1916.65,466.875 C 1916.93,466.875 1917.16,466.91 1917.36,466.98 C 1917.55,467.05 1917.71,467.147 1917.83,467.271 C 1917.96,467.395 1918.05,467.54 1918.1,467.706 C 1918.16,467.872 1918.19,468.051 1918.19,468.243 C 1918.19,468.628 1918.06,468.928 1917.81,469.144 C 1917.56,469.36 1917.18,469.468 1916.65,469.468 L 1915.84,469.468 L 1915.84,466.875 Z" marker-start="none" marker-end="none"/>
  </g>
  <rect x="1861.117" y="406.883" width="76.234" height="35.155" rx="4.9718" ry="4.9718" stroke="none" fill="#ffffff" stroke-linejoin="miter"/>
  <path d="M 1861.12,437.067 L 1861.12,411.854 C 1861.12,409.111 1863.34,406.883 1866.09,406.883 L 1932.38,406.883 C 1935.12,406.883 1937.35,409.111 1937.35,411.854 L 1937.35,437.067 C 1937.35,439.81 1935.12,442.038 1932.38,442.038 L 1866.09,442.038 C 1863.34,442.038 1861.12,439.81 1861.12,437.067 Z" stroke="none" fill="#ffffff" stroke-linejoin="miter" marker-start="none" marker-end="none"/>
 </g>
 <g id="Layer 2 - grids" transform="scale(1 -1)"/>
 <g id="Layer 1" transform="scale(1 -1)"/>
</svg>
