<?xml version="1.0" standalone="no"?>
<!DOCTYPE svg PUBLIC "-//W3C//DTD SVG 1.1//EN" "http://www.w3.org/Graphics/SVG/1.1/DTD/svg11.dtd">
<!--Generator: Xara Designer (www.xara.com), SVG filter version: 6.6.0.0-->
<svg fill="none" fill-rule="evenodd" stroke="black" stroke-width="0.501" stroke-linejoin="bevel" stroke-miterlimit="10" font-family="Times New Roman" font-size="16" style="font-variant-ligatures:none" xmlns:xlink="http://www.w3.org/1999/xlink" xmlns="http://www.w3.org/2000/svg" version="1.1" overflow="visible" width="107.718pt" height="107.72pt" viewBox="1975.65 -491.87 107.718 107.72">
 <defs>
	</defs>
 <g id="Grid 36x36mm" transform="scale(1 -1)">
  <path d="M 2068.16,384.15 L 2029.51,384.152 L 2029.52,384.152 L 2029.52,384.999 L 2067.43,384.999 C 2075.76,384.999 2082.52,391.761 2082.52,400.092 L 2082.52,475.928 C 2082.52,484.259 2075.76,491.021 2067.43,491.021 L 2029.52,491.021 L 2029.52,491.868 L 2029.51,491.868 L 2068.16,491.87 C 2076.55,491.87 2083.37,485.054 2083.37,476.656 L 2083.37,399.364 C 2083.37,390.966 2076.55,384.15 2068.16,384.15 Z" fill="#ffffff" stroke-linejoin="miter" stroke-width="0.802" stroke="none" marker-start="none" marker-end="none"/>
  <path d="M 2082.52,400.092 C 2082.52,391.761 2075.76,384.999 2067.43,384.999 C 2075.76,384.999 2082.52,391.761 2082.52,400.092 Z M 2067.43,491.021 C 2075.76,491.021 2082.52,484.259 2082.52,475.928 C 2082.52,484.259 2075.76,491.021 2067.43,491.021 Z" fill="#ffffff" stroke-linejoin="miter" stroke-width="0.802" stroke="none" marker-start="none" marker-end="none"/>
  <path d="M 1975.65,399.364 L 1975.65,476.656 C 1975.65,485.054 1982.47,491.87 1990.86,491.87 L 2029.51,491.868 L 2029.5,491.868 L 2029.5,491.021 L 1991.59,491.021 C 1983.26,491.021 1976.5,484.259 1976.5,475.928 L 1976.5,400.092 C 1976.5,391.761 1983.26,384.999 1991.59,384.999 L 2029.5,384.999 L 2029.5,384.152 L 2029.51,384.152 L 1990.86,384.15 C 1982.47,384.15 1975.65,390.966 1975.65,399.364 Z" stroke="none" fill="#ffffff" stroke-width="0.802" stroke-linejoin="miter" marker-start="none" marker-end="none"/>
  <path d="M 2029.5,384.999 L 2029.51,438.01 L 2029.5,491.021 L 2029.52,491.021 L 2029.51,438.01 L 2029.52,384.999 L 2029.5,384.999 Z" stroke="none" fill="#e5e5e5" stroke-width="0.801" stroke-linejoin="miter" marker-start="none" marker-end="none"/>
  <g id="Group" fill="#000000" fill-rule="nonzero" stroke-linejoin="round" stroke-linecap="round" stroke="none" stroke-width="0.25">
   <path d="M 2006.02,476.909 L 2009.26,476.909 L 2009.26,475.289 L 2003.99,475.289 L 2003.99,484.033 L 2006.02,484.033 L 2006.02,476.909 Z" marker-start="none" marker-end="none"/>
   <path d="M 2015.85,484.034 L 2015.85,482.473 L 2012.26,482.473 L 2012.26,480.431 L 2015.01,480.431 L 2015.01,478.931 L 2012.26,478.931 L 2012.26,476.851 L 2015.85,476.851 L 2015.85,475.289 L 2010.22,475.289 L 2010.22,484.034 L 2015.85,484.034 Z" marker-start="none" marker-end="none"/>
   <path d="M 2025.14,475.289 L 2023.57,475.289 C 2023.39,475.289 2023.24,475.33 2023.13,475.412 C 2023.02,475.494 2022.94,475.599 2022.89,475.727 L 2022.38,477.252 L 2019.05,477.252 L 2018.54,475.727 C 2018.5,475.615 2018.42,475.514 2018.3,475.424 C 2018.19,475.334 2018.05,475.289 2017.88,475.289 L 2016.29,475.289 L 2019.68,484.033 L 2021.75,484.033 L 2025.14,475.289 Z M 2019.52,478.632 L 2021.91,478.632 L 2021.11,480.989 C 2021.05,481.139 2020.99,481.315 2020.92,481.518 C 2020.85,481.721 2020.78,481.941 2020.72,482.177 C 2020.65,481.937 2020.59,481.714 2020.52,481.509 C 2020.45,481.305 2020.39,481.127 2020.33,480.978 L 2019.52,478.632 Z" marker-start="none" marker-end="none"/>
   <path d="M 2033.78,479.665 C 2033.78,479.032 2033.67,478.449 2033.45,477.915 C 2033.23,477.381 2032.92,476.919 2032.53,476.529 C 2032.13,476.138 2031.65,475.834 2031.1,475.616 C 2030.54,475.398 2029.92,475.289 2029.24,475.289 L 2025.84,475.289 L 2025.84,484.034 L 2029.24,484.034 C 2029.92,484.034 2030.54,483.924 2031.1,483.704 C 2031.65,483.484 2032.13,483.18 2032.53,482.792 C 2032.92,482.404 2033.23,481.943 2033.45,481.408 C 2033.67,480.874 2033.78,480.293 2033.78,479.665 Z M 2031.7,479.665 C 2031.7,480.097 2031.64,480.487 2031.53,480.835 C 2031.42,481.183 2031.26,481.478 2031.05,481.72 C 2030.84,481.962 2030.58,482.148 2030.28,482.278 C 2029.97,482.408 2029.63,482.473 2029.24,482.473 L 2027.88,482.473 L 2027.88,476.851 L 2029.24,476.851 C 2029.63,476.851 2029.97,476.916 2030.28,477.046 C 2030.58,477.176 2030.84,477.362 2031.05,477.604 C 2031.26,477.846 2031.42,478.141 2031.53,478.489 C 2031.64,478.837 2031.7,479.229 2031.7,479.665 Z" marker-start="none" marker-end="none"/>
   <path d="M 2036.97,475.289 L 2034.93,475.289 L 2034.93,484.034 L 2036.97,484.034 L 2036.97,475.289 Z" marker-start="none" marker-end="none"/>
   <path d="M 2039.66,484.034 C 2039.74,484.034 2039.82,484.03 2039.88,484.022 C 2039.94,484.014 2039.99,483.999 2040.04,483.977 C 2040.09,483.955 2040.13,483.924 2040.18,483.884 C 2040.22,483.844 2040.27,483.79 2040.33,483.722 L 2044.48,478.472 C 2044.46,478.64 2044.45,478.803 2044.44,478.961 C 2044.43,479.119 2044.43,479.268 2044.43,479.408 L 2044.43,484.034 L 2046.22,484.034 L 2046.22,475.289 L 2045.16,475.289 C 2045.01,475.289 2044.88,475.313 2044.77,475.361 C 2044.66,475.409 2044.56,475.497 2044.46,475.625 L 2040.33,480.833 C 2040.35,480.681 2040.36,480.532 2040.36,480.386 C 2040.37,480.24 2040.38,480.103 2040.38,479.975 L 2040.38,475.289 L 2038.59,475.289 L 2038.59,484.034 L 2039.66,484.034 Z" marker-start="none" marker-end="none"/>
   <path d="M 2051.77,476.754 C 2052.05,476.754 2052.3,476.777 2052.52,476.825 C 2052.73,476.872 2052.94,476.935 2053.13,477.014 L 2053.13,478.342 L 2052.26,478.342 C 2052.14,478.342 2052.04,478.376 2051.97,478.444 C 2051.89,478.512 2051.86,478.598 2051.86,478.702 L 2051.86,479.818 L 2054.97,479.818 L 2054.97,476.129 C 2054.74,475.965 2054.51,475.824 2054.27,475.705 C 2054.02,475.587 2053.77,475.49 2053.49,475.414 C 2053.22,475.338 2052.93,475.282 2052.62,475.246 C 2052.31,475.21 2051.97,475.192 2051.62,475.192 C 2050.98,475.192 2050.39,475.305 2049.84,475.531 C 2049.3,475.758 2048.83,476.07 2048.43,476.468 C 2048.03,476.866 2047.72,477.338 2047.49,477.884 C 2047.27,478.43 2047.15,479.023 2047.15,479.663 C 2047.15,480.315 2047.26,480.915 2047.48,481.461 C 2047.69,482.007 2048,482.478 2048.4,482.874 C 2048.81,483.27 2049.29,483.578 2049.86,483.798 C 2050.43,484.018 2051.07,484.128 2051.77,484.128 C 2052.14,484.128 2052.48,484.098 2052.8,484.038 C 2053.12,483.978 2053.41,483.896 2053.68,483.792 C 2053.95,483.688 2054.2,483.563 2054.43,483.419 C 2054.65,483.275 2054.85,483.119 2055.03,482.95 L 2054.44,482.056 C 2054.38,481.972 2054.31,481.906 2054.24,481.858 C 2054.16,481.81 2054.07,481.786 2053.98,481.786 C 2053.86,481.786 2053.74,481.826 2053.61,481.906 C 2053.45,482.002 2053.3,482.085 2053.16,482.155 C 2053.01,482.225 2052.87,482.282 2052.72,482.326 C 2052.57,482.37 2052.42,482.402 2052.25,482.422 C 2052.09,482.442 2051.91,482.452 2051.7,482.452 C 2051.32,482.452 2050.98,482.385 2050.68,482.251 C 2050.37,482.117 2050.11,481.929 2049.9,481.685 C 2049.68,481.441 2049.52,481.148 2049.4,480.806 C 2049.29,480.464 2049.23,480.083 2049.23,479.663 C 2049.23,479.199 2049.29,478.787 2049.42,478.427 C 2049.55,478.068 2049.73,477.764 2049.95,477.516 C 2050.18,477.268 2050.45,477.079 2050.76,476.949 C 2051.07,476.819 2051.41,476.754 2051.77,476.754 Z" marker-start="none" marker-end="none"/>
  </g>
  <g id="Group_1" fill="#000000" fill-rule="nonzero" stroke-linejoin="round" stroke-linecap="round" stroke="none" stroke-width="0.25">
   <path d="M 2007.78,460.893 L 2007.78,469.635 L 2011,469.635 C 2011.6,469.635 2012.12,469.579 2012.54,469.467 C 2012.97,469.355 2013.31,469.198 2013.58,468.994 C 2013.85,468.79 2014.04,468.542 2014.17,468.25 C 2014.29,467.958 2014.35,467.632 2014.35,467.272 C 2014.35,467.076 2014.32,466.887 2014.26,466.705 C 2014.21,466.523 2014.12,466.352 2014,466.192 C 2013.88,466.032 2013.73,465.887 2013.54,465.757 C 2013.35,465.627 2013.12,465.514 2012.86,465.418 C 2013.44,465.278 2013.86,465.051 2014.14,464.737 C 2014.41,464.423 2014.55,464.02 2014.55,463.528 C 2014.55,463.156 2014.48,462.81 2014.34,462.489 C 2014.19,462.169 2013.98,461.89 2013.7,461.652 C 2013.43,461.414 2013.08,461.228 2012.67,461.094 C 2012.27,460.96 2011.8,460.893 2011.28,460.893 L 2007.78,460.893 Z M 2009.81,464.602 L 2009.81,462.422 L 2011.24,462.422 C 2011.51,462.422 2011.73,462.456 2011.9,462.524 C 2012.07,462.593 2012.2,462.681 2012.3,462.789 C 2012.39,462.897 2012.46,463.019 2012.49,463.155 C 2012.53,463.291 2012.55,463.429 2012.55,463.569 C 2012.55,463.729 2012.53,463.873 2012.49,464.002 C 2012.44,464.13 2012.37,464.238 2012.27,464.326 C 2012.17,464.414 2012.03,464.482 2011.86,464.53 C 2011.7,464.578 2011.48,464.602 2011.23,464.602 L 2009.81,464.602 Z M 2009.81,465.959 L 2010.87,465.959 C 2011.09,465.959 2011.29,465.975 2011.47,466.006 C 2011.65,466.039 2011.81,466.095 2011.93,466.174 C 2012.06,466.254 2012.16,466.364 2012.22,466.504 C 2012.29,466.644 2012.32,466.82 2012.32,467.032 C 2012.32,467.24 2012.29,467.413 2012.24,467.551 C 2012.19,467.689 2012.11,467.8 2012,467.884 C 2011.89,467.968 2011.76,468.028 2011.59,468.064 C 2011.43,468.1 2011.23,468.118 2011,468.118 L 2009.81,468.118 L 2009.81,465.959 Z" marker-start="none" marker-end="none"/>
   <path d="M 2017.87,460.893 L 2015.83,460.893 L 2015.83,469.638 L 2017.87,469.638 L 2017.87,460.893 Z" marker-start="none" marker-end="none"/>
   <path d="M 2027.42,465.269 C 2027.42,464.636 2027.31,464.053 2027.1,463.519 C 2026.88,462.985 2026.57,462.523 2026.18,462.133 C 2025.78,461.742 2025.3,461.438 2024.74,461.22 C 2024.19,461.002 2023.57,460.893 2022.89,460.893 L 2019.49,460.893 L 2019.49,469.638 L 2022.89,469.638 C 2023.57,469.638 2024.19,469.528 2024.74,469.308 C 2025.3,469.088 2025.78,468.784 2026.18,468.396 C 2026.57,468.008 2026.88,467.547 2027.1,467.012 C 2027.31,466.478 2027.42,465.897 2027.42,465.269 Z M 2025.35,465.269 C 2025.35,465.701 2025.29,466.091 2025.18,466.439 C 2025.07,466.787 2024.91,467.082 2024.7,467.324 C 2024.49,467.566 2024.23,467.752 2023.93,467.882 C 2023.62,468.012 2023.28,468.077 2022.89,468.077 L 2021.53,468.077 L 2021.53,462.455 L 2022.89,462.455 C 2023.28,462.455 2023.62,462.52 2023.93,462.65 C 2024.23,462.78 2024.49,462.966 2024.7,463.208 C 2024.91,463.45 2025.07,463.745 2025.18,464.093 C 2025.29,464.441 2025.35,464.833 2025.35,465.269 Z" marker-start="none" marker-end="none"/>
   <path d="M 2036.33,465.269 C 2036.33,464.636 2036.22,464.053 2036,463.519 C 2035.78,462.985 2035.48,462.523 2035.08,462.133 C 2034.68,461.742 2034.21,461.438 2033.65,461.22 C 2033.09,461.002 2032.47,460.893 2031.79,460.893 L 2028.4,460.893 L 2028.4,469.638 L 2031.79,469.638 C 2032.47,469.638 2033.09,469.528 2033.65,469.308 C 2034.21,469.088 2034.68,468.784 2035.08,468.396 C 2035.48,468.008 2035.78,467.547 2036,467.012 C 2036.22,466.478 2036.33,465.897 2036.33,465.269 Z M 2034.25,465.269 C 2034.25,465.701 2034.2,466.091 2034.09,466.439 C 2033.97,466.787 2033.81,467.082 2033.6,467.324 C 2033.39,467.566 2033.14,467.752 2032.83,467.882 C 2032.53,468.012 2032.18,468.077 2031.79,468.077 L 2030.44,468.077 L 2030.44,462.455 L 2031.79,462.455 C 2032.18,462.455 2032.53,462.52 2032.83,462.65 C 2033.14,462.78 2033.39,462.966 2033.6,463.208 C 2033.81,463.45 2033.97,463.745 2034.09,464.093 C 2034.2,464.441 2034.25,464.833 2034.25,465.269 Z" marker-start="none" marker-end="none"/>
   <path d="M 2042.93,469.638 L 2042.93,468.077 L 2039.34,468.077 L 2039.34,466.035 L 2042.09,466.035 L 2042.09,464.535 L 2039.34,464.535 L 2039.34,462.455 L 2042.93,462.455 L 2042.93,460.893 L 2037.3,460.893 L 2037.3,469.638 L 2042.93,469.638 Z" marker-start="none" marker-end="none"/>
   <path d="M 2046.11,464.127 L 2046.11,460.893 L 2044.08,460.893 L 2044.08,469.635 L 2046.93,469.635 C 2047.56,469.635 2048.1,469.57 2048.54,469.44 C 2048.99,469.31 2049.35,469.129 2049.64,468.897 C 2049.92,468.664 2050.12,468.39 2050.25,468.073 C 2050.38,467.757 2050.44,467.413 2050.44,467.04 C 2050.44,466.756 2050.4,466.488 2050.33,466.235 C 2050.25,465.983 2050.14,465.749 2049.99,465.535 C 2049.84,465.321 2049.66,465.13 2049.44,464.961 C 2049.22,464.793 2048.97,464.655 2048.68,464.547 C 2048.82,464.479 2048.95,464.395 2049.07,464.295 C 2049.18,464.195 2049.29,464.074 2049.37,463.93 L 2051.23,460.893 L 2049.4,460.893 C 2049.06,460.893 2048.81,461.021 2048.67,461.277 L 2047.21,463.815 C 2047.15,463.927 2047.08,464.007 2046.99,464.055 C 2046.9,464.104 2046.78,464.128 2046.63,464.127 L 2046.11,464.127 Z M 2046.11,465.525 L 2046.93,465.525 C 2047.2,465.525 2047.44,465.56 2047.63,465.63 C 2047.83,465.7 2047.98,465.797 2048.11,465.921 C 2048.23,466.045 2048.32,466.19 2048.38,466.356 C 2048.43,466.522 2048.46,466.701 2048.46,466.893 C 2048.46,467.278 2048.34,467.578 2048.09,467.794 C 2047.84,468.01 2047.45,468.118 2046.93,468.118 L 2046.11,468.118 L 2046.11,465.525 Z" marker-start="none" marker-end="none"/>
  </g>
  <rect x="1991.392" y="405.533" width="76.234" height="35.155" rx="4.9718" ry="4.9718" stroke="none" fill="#ffffff" stroke-linejoin="miter"/>
  <path d="M 1991.39,435.717 L 1991.39,410.504 C 1991.39,407.761 1993.62,405.533 1996.36,405.533 L 2062.66,405.533 C 2065.4,405.533 2067.63,407.761 2067.63,410.504 L 2067.63,435.717 C 2067.63,438.46 2065.4,440.688 2062.66,440.688 L 1996.36,440.688 C 1993.62,440.688 1991.39,438.46 1991.39,435.717 Z" stroke="none" fill="#ffffff" stroke-linejoin="miter" marker-start="none" marker-end="none"/>
 </g>
 <g id="Layer 2 - grids" transform="scale(1 -1)"/>
 <g id="Layer 1" transform="scale(1 -1)"/>
</svg>
