<?xml version="1.0" standalone="no"?>
<!DOCTYPE svg PUBLIC "-//W3C//DTD SVG 1.1//EN" "http://www.w3.org/Graphics/SVG/1.1/DTD/svg11.dtd">
<!--Generator: Xara Designer (www.xara.com), SVG filter version: 6.6.0.0-->
<svg fill="none" fill-rule="evenodd" stroke="black" stroke-width="0.501" stroke-linejoin="bevel" stroke-miterlimit="10" font-family="Times New Roman" font-size="16" style="font-variant-ligatures:none" xmlns:xlink="http://www.w3.org/1999/xlink" xmlns="http://www.w3.org/2000/svg" version="1.1" overflow="visible" width="430.868pt" height="107.72pt" viewBox="1775.62 -317.083 430.868 107.72">
 <defs>
	</defs>
 <g id="Grid 36x36mm" transform="scale(1 -1)">
  <g id="Group" font-size="10" font-family="Lato Black">
   <path d="M 1775.62,224.577 L 1775.62,301.869 C 1775.62,310.267 1782.44,317.083 1790.84,317.083 L 1829.48,317.081 L 1829.47,317.081 L 1829.47,316.234 L 1791.55,316.234 C 1783.22,316.234 1776.46,309.472 1776.46,301.141 L 1776.46,225.305 C 1776.46,216.974 1783.22,210.212 1791.55,210.212 L 1829.47,210.212 L 1829.47,209.365 L 1829.48,209.365 L 1790.84,209.363 C 1782.44,209.363 1775.62,216.179 1775.62,224.577 Z M 1868.13,209.363 L 1829.49,209.365 L 1829.49,209.365 L 1829.49,210.212 L 2152.62,210.212 L 2152.62,209.365 L 2152.63,209.365 L 2113.99,209.363 C 2113.98,209.363 2113.98,209.363 2113.97,209.364 L 2083.57,209.364 C 2083.57,209.363 2083.57,209.363 2083.56,209.363 L 2064.24,209.364 L 2025.59,209.364 L 2006.27,209.363 C 2006.27,209.363 2006.26,209.363 2006.26,209.364 L 1975.86,209.364 C 1975.85,209.363 1975.85,209.363 1975.85,209.363 L 1956.53,209.364 L 1917.88,209.364 L 1898.55,209.363 C 1898.55,209.363 1898.55,209.363 1898.54,209.364 L 1868.14,209.364 C 1868.14,209.363 1868.13,209.363 1868.13,209.363 Z M 2191.28,209.363 L 2152.64,209.365 L 2152.64,209.365 L 2152.64,210.212 L 2190.56,210.212 C 2198.89,210.212 2205.65,216.974 2205.65,225.305 L 2205.65,301.141 C 2205.65,309.472 2198.89,316.234 2190.56,316.234 L 2152.64,316.234 L 2152.64,317.081 L 2152.64,317.081 L 2191.28,317.083 C 2199.68,317.083 2206.49,310.267 2206.49,301.869 L 2206.49,224.577 C 2206.49,216.179 2199.68,209.363 2191.28,209.363 Z M 1829.49,316.234 L 1829.49,317.081 L 1829.49,317.081 L 1849.4,317.082 L 1898.54,317.082 C 1898.55,317.082 1898.55,317.083 1898.55,317.083 L 1917.88,317.082 L 2064.24,317.082 L 2083.56,317.083 C 2083.57,317.083 2083.57,317.082 2083.57,317.082 L 2132.72,317.082 L 2152.63,317.081 L 2152.62,317.081 L 2152.62,316.234 L 2135.81,316.234 L 2135.81,316.235 L 1859.32,316.235 L 1859.32,316.234 L 1829.49,316.234 Z" fill="#ffffff" stroke-linejoin="miter" stroke-width="0.801" stroke="none" marker-start="none" marker-end="none"/>
   <path d="M 1964.35,240.659 C 1951.91,255.403 1953.76,277.484 1968.52,289.912 C 1983.25,302.38 2005.3,300.518 2017.75,285.777 C 2030.22,271.032 2028.35,248.968 2013.59,236.514 C 1998.86,224.07 1976.8,225.932 1964.35,240.659 Z" stroke="none" fill="#ffffff" stroke-width="1.452" stroke-linejoin="miter" marker-start="none" marker-end="none"/>
   <path d="M 1964.34,240.688 C 1951.91,255.439 1953.75,277.475 1968.5,289.948 C 1983.25,302.36 2005.3,300.521 2017.78,285.779 C 2030.22,271.04 2028.35,248.963 2013.6,236.517 C 1998.87,224.073 1976.8,225.926 1964.34,240.688 Z" fill="none" stroke="#539bc5" stroke-width="7.913" stroke-linejoin="miter" marker-start="none" marker-end="none"/>
   <text xml:space="preserve" transform="translate(1990.94 265.538) scale(1 -1)" kerning="auto" stroke="none" fill="#000000" stroke-width="0.25" stroke-linejoin="round" stroke-linecap="round"><tspan x="-15.43" y="0">PLACE</tspan><tspan x="-8.589" y="11.996">BID</tspan></text>
  </g>
 </g>
 <g id="Layer 2 - grids" transform="scale(1 -1)"/>
 <g id="Layer 1" transform="scale(1 -1)"/>
</svg>
