<?xml version="1.0" standalone="no"?>
<!DOCTYPE svg PUBLIC "-//W3C//DTD SVG 1.1//EN" "http://www.w3.org/Graphics/SVG/1.1/DTD/svg11.dtd">
<!--Generator: Xara Designer (www.xara.com), SVG filter version: 6.6.0.0-->
<svg fill="none" fill-rule="evenodd" stroke="black" stroke-width="0.501" stroke-linejoin="bevel" stroke-miterlimit="10" font-family="Times New Roman" font-size="16" style="font-variant-ligatures:none" xmlns:xlink="http://www.w3.org/1999/xlink" xmlns="http://www.w3.org/2000/svg" version="1.1" overflow="visible" width="107.718pt" height="107.72pt" viewBox="1708.12 -359.439 107.718 107.72">
 <defs>
	</defs>
 <g id="Grid 36x36mm" transform="scale(1 -1)">
  <path d="M 1742.89,273.568 C 1733.99,284.108 1735.32,299.894 1745.87,308.777 C 1756.4,317.691 1772.17,316.36 1781.07,305.821 C 1789.98,295.282 1788.65,279.508 1778.09,270.605 C 1767.56,261.708 1751.79,263.04 1742.89,273.568 Z" stroke="none" fill="#e5e5e5" stroke-width="1.038" stroke-linejoin="miter" marker-start="none" marker-end="none"/>
  <path d="M 1708.12,266.933 L 1708.12,344.225 C 1708.12,352.623 1714.94,359.439 1723.34,359.439 L 1761.98,359.437 L 1761.97,359.437 L 1761.97,358.59 L 1724.07,358.59 C 1715.74,358.59 1708.97,351.828 1708.97,343.497 L 1708.97,267.661 C 1708.97,259.33 1715.74,252.568 1724.07,252.568 L 1761.97,252.568 L 1761.97,251.721 L 1761.98,251.721 L 1723.34,251.719 C 1714.94,251.719 1708.12,258.535 1708.12,266.933 Z M 1800.63,251.719 L 1761.99,251.721 L 1761.99,251.721 L 1761.99,252.568 L 1799.9,252.568 C 1808.23,252.568 1814.99,259.33 1814.99,267.661 L 1814.99,343.497 C 1814.99,351.828 1808.23,358.59 1799.9,358.59 L 1761.99,358.59 L 1761.99,359.437 L 1761.99,359.437 L 1800.63,359.439 C 1809.03,359.439 1815.84,352.623 1815.84,344.225 L 1815.84,266.933 C 1815.84,258.535 1809.03,251.719 1800.63,251.719 Z" fill="#ffffff" stroke-linejoin="miter" stroke-width="0.802" stroke="none" marker-start="none" marker-end="none"/>
  <g id="Group" fill="#000000" fill-rule="nonzero" stroke-linejoin="round" stroke-linecap="round" stroke="none" stroke-width="0.25">
   <path d="M 1738.45,345.782 L 1738.45,342.86 L 1736.42,342.86 L 1736.42,351.603 L 1739.51,351.603 C 1740.12,351.603 1740.65,351.53 1741.1,351.384 C 1741.54,351.238 1741.9,351.037 1742.19,350.781 C 1742.47,350.525 1742.68,350.223 1742.82,349.875 C 1742.96,349.527 1743.02,349.151 1743.02,348.747 C 1743.02,348.31 1742.95,347.91 1742.81,347.546 C 1742.67,347.182 1742.46,346.87 1742.17,346.61 C 1741.88,346.35 1741.52,346.147 1741.08,346.001 C 1740.64,345.855 1740.11,345.782 1739.51,345.782 L 1738.45,345.782 Z M 1738.45,347.311 L 1739.51,347.311 C 1740.04,347.311 1740.42,347.437 1740.65,347.69 C 1740.88,347.942 1741,348.294 1741,348.747 C 1741,348.947 1740.97,349.129 1740.91,349.293 C 1740.85,349.457 1740.76,349.598 1740.63,349.716 C 1740.51,349.834 1740.36,349.926 1740.17,349.99 C 1739.99,350.054 1739.76,350.086 1739.51,350.086 L 1738.45,350.086 L 1738.45,347.311 Z" marker-start="none" marker-end="none"/>
   <path d="M 1746.11,346.092 L 1746.11,342.858 L 1744.08,342.858 L 1744.08,351.6 L 1746.93,351.6 C 1747.56,351.6 1748.1,351.535 1748.54,351.405 C 1748.99,351.275 1749.35,351.094 1749.64,350.862 C 1749.92,350.629 1750.12,350.355 1750.25,350.038 C 1750.38,349.722 1750.44,349.378 1750.44,349.005 C 1750.44,348.721 1750.4,348.453 1750.33,348.2 C 1750.25,347.948 1750.14,347.714 1749.99,347.5 C 1749.84,347.286 1749.66,347.095 1749.44,346.926 C 1749.22,346.758 1748.97,346.62 1748.68,346.512 C 1748.82,346.444 1748.95,346.36 1749.07,346.26 C 1749.18,346.16 1749.29,346.039 1749.37,345.895 L 1751.23,342.858 L 1749.4,342.858 C 1749.06,342.858 1748.81,342.986 1748.67,343.242 L 1747.21,345.78 C 1747.15,345.892 1747.08,345.972 1746.99,346.02 C 1746.9,346.069 1746.78,346.093 1746.63,346.092 L 1746.11,346.092 Z M 1746.11,347.49 L 1746.93,347.49 C 1747.2,347.49 1747.44,347.525 1747.63,347.595 C 1747.83,347.665 1747.98,347.762 1748.11,347.886 C 1748.23,348.01 1748.32,348.155 1748.38,348.321 C 1748.43,348.487 1748.46,348.666 1748.46,348.858 C 1748.46,349.243 1748.34,349.543 1748.09,349.759 C 1747.84,349.975 1747.45,350.083 1746.93,350.083 L 1746.11,350.083 L 1746.11,347.49 Z" marker-start="none" marker-end="none"/>
   <path d="M 1757.69,351.603 L 1757.69,350.042 L 1754.1,350.042 L 1754.1,348 L 1756.85,348 L 1756.85,346.5 L 1754.1,346.5 L 1754.1,344.42 L 1757.69,344.42 L 1757.69,342.858 L 1752.06,342.858 L 1752.06,351.603 L 1757.69,351.603 Z" marker-start="none" marker-end="none"/>
   <path d="M 1763.71,349.824 C 1763.65,349.728 1763.59,349.656 1763.53,349.608 C 1763.46,349.56 1763.37,349.536 1763.27,349.536 C 1763.18,349.536 1763.08,349.565 1762.97,349.623 C 1762.87,349.681 1762.75,349.746 1762.61,349.818 C 1762.48,349.89 1762.33,349.955 1762.15,350.013 C 1761.98,350.071 1761.79,350.1 1761.57,350.1 C 1761.19,350.1 1760.9,350.019 1760.72,349.857 C 1760.53,349.695 1760.44,349.476 1760.44,349.2 C 1760.44,349.024 1760.49,348.878 1760.61,348.762 C 1760.72,348.646 1760.87,348.546 1761.05,348.462 C 1761.23,348.378 1761.44,348.301 1761.67,348.231 C 1761.91,348.161 1762.14,348.083 1762.39,347.997 C 1762.63,347.911 1762.87,347.81 1763.11,347.694 C 1763.34,347.578 1763.55,347.43 1763.73,347.25 C 1763.91,347.07 1764.06,346.851 1764.17,346.593 C 1764.28,346.335 1764.34,346.024 1764.34,345.66 C 1764.34,345.256 1764.27,344.878 1764.13,344.526 C 1763.99,344.174 1763.79,343.867 1763.52,343.605 C 1763.25,343.343 1762.93,343.137 1762.54,342.986 C 1762.15,342.836 1761.7,342.761 1761.21,342.761 C 1760.93,342.761 1760.66,342.789 1760.38,342.845 C 1760.09,342.901 1759.82,342.98 1759.56,343.082 C 1759.29,343.185 1759.04,343.306 1758.81,343.446 C 1758.58,343.586 1758.38,343.742 1758.21,343.914 L 1758.81,344.862 C 1758.85,344.934 1758.91,344.992 1758.99,345.036 C 1759.07,345.08 1759.16,345.102 1759.25,345.102 C 1759.37,345.102 1759.49,345.064 1759.61,344.988 C 1759.74,344.912 1759.87,344.828 1760.03,344.736 C 1760.18,344.644 1760.36,344.56 1760.56,344.484 C 1760.76,344.408 1760.99,344.37 1761.27,344.37 C 1761.63,344.37 1761.92,344.451 1762.12,344.613 C 1762.33,344.775 1762.43,345.032 1762.43,345.384 C 1762.43,345.588 1762.37,345.754 1762.26,345.882 C 1762.15,346.01 1762,346.116 1761.82,346.2 C 1761.64,346.284 1761.43,346.358 1761.2,346.422 C 1760.97,346.486 1760.73,346.557 1760.49,346.635 C 1760.24,346.713 1760,346.809 1759.77,346.923 C 1759.54,347.037 1759.33,347.187 1759.15,347.373 C 1758.97,347.559 1758.82,347.791 1758.71,348.069 C 1758.6,348.348 1758.54,348.691 1758.54,349.099 C 1758.54,349.427 1758.61,349.747 1758.74,350.059 C 1758.87,350.371 1759.07,350.649 1759.32,350.893 C 1759.58,351.137 1759.89,351.332 1760.26,351.478 C 1760.64,351.624 1761.06,351.697 1761.54,351.697 C 1761.81,351.697 1762.07,351.676 1762.33,351.634 C 1762.58,351.592 1762.82,351.53 1763.05,351.448 C 1763.28,351.366 1763.49,351.268 1763.69,351.154 C 1763.89,351.04 1764.06,350.911 1764.22,350.767 L 1763.71,349.824 Z" marker-start="none" marker-end="none"/>
   <path d="M 1770.97,351.603 L 1770.97,350.042 L 1767.39,350.042 L 1767.39,348 L 1770.13,348 L 1770.13,346.5 L 1767.39,346.5 L 1767.39,344.42 L 1770.97,344.42 L 1770.97,342.858 L 1765.35,342.858 L 1765.35,351.603 L 1770.97,351.603 Z" marker-start="none" marker-end="none"/>
   <path d="M 1773.19,351.603 C 1773.28,351.603 1773.36,351.599 1773.42,351.591 C 1773.48,351.583 1773.53,351.568 1773.58,351.546 C 1773.63,351.524 1773.67,351.493 1773.72,351.453 C 1773.76,351.413 1773.81,351.359 1773.87,351.291 L 1778.02,346.041 C 1778,346.209 1777.99,346.372 1777.98,346.53 C 1777.97,346.688 1777.97,346.837 1777.97,346.977 L 1777.97,351.603 L 1779.76,351.603 L 1779.76,342.858 L 1778.7,342.858 C 1778.55,342.858 1778.41,342.882 1778.31,342.93 C 1778.2,342.978 1778.09,343.066 1777.99,343.194 L 1773.87,348.402 C 1773.88,348.25 1773.89,348.101 1773.9,347.955 C 1773.91,347.809 1773.91,347.672 1773.91,347.544 L 1773.91,342.858 L 1772.13,342.858 L 1772.13,351.603 L 1773.19,351.603 Z" marker-start="none" marker-end="none"/>
   <path d="M 1787.54,351.603 L 1787.54,349.995 L 1785.08,349.995 L 1785.08,342.86 L 1783.06,342.86 L 1783.06,349.995 L 1780.6,349.995 L 1780.6,351.603 L 1787.54,351.603 Z" marker-start="none" marker-end="none"/>
  </g>
  <g id="Group_1" fill="#000000" fill-rule="nonzero" stroke-linejoin="round" stroke-linecap="round" stroke="none" stroke-width="0.25">
   <path d="M 1752.16,328.462 L 1752.16,337.204 L 1755.38,337.204 C 1755.98,337.204 1756.5,337.148 1756.92,337.036 C 1757.35,336.924 1757.69,336.767 1757.96,336.563 C 1758.23,336.359 1758.42,336.111 1758.55,335.819 C 1758.67,335.527 1758.73,335.201 1758.73,334.841 C 1758.73,334.645 1758.7,334.456 1758.64,334.274 C 1758.59,334.092 1758.5,333.921 1758.38,333.761 C 1758.26,333.601 1758.11,333.456 1757.92,333.326 C 1757.73,333.196 1757.5,333.083 1757.24,332.987 C 1757.82,332.847 1758.24,332.62 1758.52,332.306 C 1758.79,331.992 1758.93,331.589 1758.93,331.097 C 1758.93,330.725 1758.86,330.379 1758.72,330.058 C 1758.57,329.738 1758.36,329.459 1758.08,329.221 C 1757.81,328.983 1757.46,328.797 1757.05,328.663 C 1756.65,328.529 1756.18,328.462 1755.66,328.462 L 1752.16,328.462 Z M 1754.19,332.171 L 1754.19,329.991 L 1755.62,329.991 C 1755.89,329.991 1756.11,330.025 1756.28,330.093 C 1756.45,330.162 1756.58,330.25 1756.68,330.358 C 1756.77,330.466 1756.84,330.588 1756.87,330.724 C 1756.91,330.86 1756.93,330.998 1756.93,331.138 C 1756.93,331.298 1756.91,331.442 1756.87,331.571 C 1756.82,331.699 1756.75,331.807 1756.65,331.895 C 1756.55,331.983 1756.41,332.051 1756.24,332.099 C 1756.08,332.147 1755.86,332.171 1755.61,332.171 L 1754.19,332.171 Z M 1754.19,333.528 L 1755.25,333.528 C 1755.47,333.528 1755.67,333.544 1755.85,333.575 C 1756.03,333.608 1756.19,333.664 1756.31,333.743 C 1756.44,333.823 1756.54,333.933 1756.6,334.073 C 1756.67,334.213 1756.7,334.389 1756.7,334.601 C 1756.7,334.809 1756.67,334.982 1756.62,335.12 C 1756.57,335.258 1756.49,335.369 1756.38,335.453 C 1756.27,335.537 1756.14,335.597 1755.97,335.633 C 1755.81,335.669 1755.61,335.687 1755.38,335.687 L 1754.19,335.687 L 1754.19,333.528 Z" marker-start="none" marker-end="none"/>
   <path d="M 1762.25,328.462 L 1760.21,328.462 L 1760.21,337.207 L 1762.25,337.207 L 1762.25,328.462 Z" marker-start="none" marker-end="none"/>
   <path d="M 1771.8,332.838 C 1771.8,332.205 1771.69,331.622 1771.48,331.088 C 1771.26,330.554 1770.95,330.092 1770.56,329.702 C 1770.16,329.311 1769.68,329.007 1769.12,328.789 C 1768.57,328.571 1767.95,328.462 1767.27,328.462 L 1763.87,328.462 L 1763.87,337.207 L 1767.27,337.207 C 1767.95,337.207 1768.57,337.097 1769.12,336.877 C 1769.68,336.657 1770.16,336.353 1770.56,335.965 C 1770.95,335.577 1771.26,335.116 1771.48,334.581 C 1771.69,334.047 1771.8,333.466 1771.8,332.838 Z M 1769.73,332.838 C 1769.73,333.27 1769.67,333.66 1769.56,334.008 C 1769.45,334.356 1769.29,334.651 1769.08,334.893 C 1768.87,335.135 1768.61,335.321 1768.31,335.451 C 1768,335.581 1767.66,335.646 1767.27,335.646 L 1765.91,335.646 L 1765.91,330.024 L 1767.27,330.024 C 1767.66,330.024 1768,330.089 1768.31,330.219 C 1768.61,330.349 1768.87,330.535 1769.08,330.777 C 1769.29,331.019 1769.45,331.314 1769.56,331.662 C 1769.67,332.01 1769.73,332.402 1769.73,332.838 Z" marker-start="none" marker-end="none"/>
  </g>
  <path d="M 1742.89,274.223 C 1733.99,284.763 1735.32,300.549 1745.87,309.432 C 1756.4,318.346 1772.17,317.015 1781.07,306.476 C 1789.98,295.937 1788.65,280.163 1778.09,271.26 C 1767.56,262.363 1751.79,263.695 1742.89,274.223 Z" stroke="none" fill="#e5e5e5" stroke-width="1.038" stroke-linejoin="miter" marker-start="none" marker-end="none"/>
  <path d="M 1742.89,274.804 C 1733.99,285.344 1735.32,301.13 1745.87,310.013 C 1756.4,318.927 1772.17,317.596 1781.07,307.057 C 1789.98,296.518 1788.65,280.744 1778.09,271.841 C 1767.56,262.944 1751.79,264.276 1742.89,274.804 Z" stroke="none" fill="#ffffff" stroke-width="1.038" stroke-linejoin="miter" marker-start="none" marker-end="none"/>
  <path d="M 1742.88,275.761 C 1734,286.305 1735.31,302.058 1745.86,310.976 C 1756.4,319.849 1772.17,318.534 1781.08,307.995 C 1789.98,297.458 1788.65,281.675 1778.1,272.779 C 1767.57,263.883 1751.79,265.207 1742.88,275.761 Z" fill="none" stroke="#539bc5" stroke-width="5.657" stroke-linejoin="miter" marker-start="none" marker-end="none"/>
  <g id="Group_2" fill-rule="nonzero" stroke-linejoin="round" stroke-linecap="round" stroke="none" stroke-width="0.935" fill="#000000">
   <g id="Group_3">
    <path d="M 1771.32,292.393 C 1771.32,287.727 1770.56,284.274 1769.03,282.033 C 1767.5,279.791 1765.14,278.671 1761.97,278.671 C 1758.88,278.671 1756.56,279.828 1754.99,282.142 C 1753.43,284.457 1752.65,287.873 1752.65,292.393 C 1752.65,297.106 1753.41,300.581 1754.93,302.817 C 1756.45,305.052 1758.8,306.17 1761.97,306.17 C 1765.05,306.17 1767.38,305 1768.95,302.661 C 1770.53,300.323 1771.32,296.9 1771.32,292.393 Z M 1758.26,292.393 C 1758.26,289.116 1758.54,286.768 1759.11,285.349 C 1759.67,283.93 1760.63,283.22 1761.97,283.22 C 1763.28,283.22 1764.23,283.939 1764.82,285.376 C 1765.4,286.813 1765.69,289.152 1765.69,292.393 C 1765.69,295.669 1765.4,298.024 1764.81,299.455 C 1764.22,300.886 1763.27,301.602 1761.97,301.602 C 1760.64,301.602 1759.69,300.886 1759.11,299.455 C 1758.54,298.024 1758.26,295.669 1758.26,292.393 Z" marker-start="none" marker-end="none"/>
   </g>
  </g>
 </g>
 <g id="Layer 2 - grids" transform="scale(1 -1)"/>
 <g id="Layer 1" transform="scale(1 -1)"/>
</svg>
