<?xml version="1.0" standalone="no"?>
<!DOCTYPE svg PUBLIC "-//W3C//DTD SVG 1.1//EN" "http://www.w3.org/Graphics/SVG/1.1/DTD/svg11.dtd">
<!--Generator: Xara Designer (www.xara.com), SVG filter version: 6.6.0.0-->
<svg fill="none" fill-rule="evenodd" stroke="black" stroke-width="0.501" stroke-linejoin="bevel" stroke-miterlimit="10" font-family="Times New Roman" font-size="16" style="font-variant-ligatures:none" xmlns:xlink="http://www.w3.org/1999/xlink" xmlns="http://www.w3.org/2000/svg" version="1.1" overflow="visible" width="107.718pt" height="107.72pt" viewBox="1846.69 -358.408 107.718 107.72">
 <defs>
	</defs>
 <g id="Grid 36x36mm" transform="scale(1 -1)">
  <path d="M 1847.54,265.975 L 1847.54,341.811 C 1847.54,350.142 1854.3,356.904 1862.63,356.904 L 1938.46,356.904 C 1946.79,356.904 1953.56,350.142 1953.56,341.811 L 1953.56,265.975 C 1953.56,257.644 1946.79,250.882 1938.46,250.882 L 1862.63,250.882 C 1854.3,250.882 1847.54,257.644 1847.54,265.975 Z" stroke="none" fill="#e5e5e5" stroke-width="0.801" stroke-linejoin="miter" marker-start="none" marker-end="none"/>
  <g id="Group" fill-rule="nonzero" stroke-linejoin="round" stroke-linecap="round" stroke="none" stroke-width="0.25" fill="#b2b2b2">
   <path d="M 1877.02,344.096 L 1877.02,341.174 L 1874.99,341.174 L 1874.99,349.917 L 1878.07,349.917 C 1878.69,349.917 1879.22,349.844 1879.66,349.698 C 1880.1,349.552 1880.46,349.351 1880.75,349.095 C 1881.04,348.839 1881.25,348.537 1881.38,348.189 C 1881.52,347.841 1881.59,347.465 1881.59,347.061 C 1881.59,346.624 1881.52,346.224 1881.38,345.86 C 1881.24,345.496 1881.02,345.184 1880.74,344.924 C 1880.45,344.664 1880.08,344.461 1879.64,344.315 C 1879.2,344.169 1878.68,344.096 1878.07,344.096 L 1877.02,344.096 Z M 1877.02,345.625 L 1878.07,345.625 C 1878.6,345.625 1878.98,345.751 1879.21,346.004 C 1879.44,346.256 1879.56,346.608 1879.56,347.061 C 1879.56,347.261 1879.53,347.443 1879.47,347.607 C 1879.41,347.771 1879.32,347.912 1879.2,348.03 C 1879.07,348.148 1878.92,348.24 1878.73,348.304 C 1878.55,348.368 1878.33,348.4 1878.07,348.4 L 1877.02,348.4 L 1877.02,345.625 Z" marker-start="none" marker-end="none"/>
   <path d="M 1884.67,344.406 L 1884.67,341.172 L 1882.65,341.172 L 1882.65,349.914 L 1885.49,349.914 C 1886.12,349.914 1886.66,349.849 1887.11,349.719 C 1887.55,349.589 1887.92,349.408 1888.2,349.176 C 1888.48,348.943 1888.68,348.669 1888.81,348.352 C 1888.94,348.036 1889.01,347.692 1889.01,347.319 C 1889.01,347.035 1888.97,346.767 1888.89,346.514 C 1888.82,346.262 1888.7,346.028 1888.55,345.814 C 1888.4,345.6 1888.22,345.409 1888,345.24 C 1887.78,345.072 1887.53,344.934 1887.25,344.826 C 1887.38,344.758 1887.51,344.674 1887.63,344.574 C 1887.75,344.474 1887.85,344.353 1887.94,344.209 L 1889.8,341.172 L 1887.96,341.172 C 1887.62,341.172 1887.38,341.3 1887.23,341.556 L 1885.78,344.094 C 1885.71,344.206 1885.64,344.286 1885.55,344.334 C 1885.47,344.383 1885.35,344.407 1885.19,344.406 L 1884.67,344.406 Z M 1884.67,345.804 L 1885.49,345.804 C 1885.77,345.804 1886,345.839 1886.19,345.909 C 1886.39,345.979 1886.55,346.076 1886.67,346.2 C 1886.8,346.324 1886.89,346.469 1886.94,346.635 C 1887,346.801 1887.03,346.98 1887.03,347.172 C 1887.03,347.557 1886.9,347.857 1886.65,348.073 C 1886.4,348.289 1886.01,348.397 1885.49,348.397 L 1884.67,348.397 L 1884.67,345.804 Z" marker-start="none" marker-end="none"/>
   <path d="M 1896.25,349.917 L 1896.25,348.356 L 1892.67,348.356 L 1892.67,346.314 L 1895.41,346.314 L 1895.41,344.814 L 1892.67,344.814 L 1892.67,342.734 L 1896.25,342.734 L 1896.25,341.172 L 1890.63,341.172 L 1890.63,349.917 L 1896.25,349.917 Z" marker-start="none" marker-end="none"/>
   <path d="M 1902.28,348.138 C 1902.22,348.042 1902.15,347.97 1902.09,347.922 C 1902.02,347.874 1901.94,347.85 1901.83,347.85 C 1901.74,347.85 1901.64,347.879 1901.54,347.937 C 1901.43,347.995 1901.31,348.06 1901.18,348.132 C 1901.04,348.204 1900.89,348.269 1900.72,348.327 C 1900.55,348.385 1900.35,348.414 1900.13,348.414 C 1899.75,348.414 1899.47,348.333 1899.28,348.171 C 1899.09,348.009 1899,347.79 1899,347.514 C 1899,347.338 1899.06,347.192 1899.17,347.076 C 1899.28,346.96 1899.43,346.86 1899.61,346.776 C 1899.79,346.692 1900,346.615 1900.23,346.545 C 1900.47,346.475 1900.71,346.397 1900.95,346.311 C 1901.19,346.225 1901.43,346.124 1901.67,346.008 C 1901.9,345.892 1902.11,345.744 1902.29,345.564 C 1902.47,345.384 1902.62,345.165 1902.73,344.907 C 1902.85,344.649 1902.9,344.338 1902.9,343.974 C 1902.9,343.57 1902.83,343.192 1902.69,342.84 C 1902.55,342.488 1902.35,342.181 1902.08,341.919 C 1901.82,341.657 1901.49,341.451 1901.1,341.3 C 1900.71,341.15 1900.27,341.075 1899.77,341.075 C 1899.5,341.075 1899.22,341.103 1898.94,341.159 C 1898.66,341.215 1898.38,341.294 1898.12,341.396 C 1897.86,341.499 1897.61,341.62 1897.38,341.76 C 1897.14,341.9 1896.94,342.056 1896.77,342.228 L 1897.37,343.176 C 1897.41,343.248 1897.48,343.306 1897.56,343.35 C 1897.64,343.394 1897.72,343.416 1897.81,343.416 C 1897.93,343.416 1898.05,343.378 1898.18,343.302 C 1898.3,343.226 1898.44,343.142 1898.59,343.05 C 1898.74,342.958 1898.92,342.874 1899.12,342.798 C 1899.32,342.722 1899.56,342.684 1899.83,342.684 C 1900.2,342.684 1900.48,342.765 1900.69,342.927 C 1900.89,343.089 1900.99,343.346 1900.99,343.698 C 1900.99,343.902 1900.94,344.068 1900.83,344.196 C 1900.71,344.324 1900.57,344.43 1900.38,344.514 C 1900.2,344.598 1900,344.672 1899.76,344.736 C 1899.53,344.8 1899.29,344.871 1899.05,344.949 C 1898.81,345.027 1898.57,345.123 1898.34,345.237 C 1898.1,345.351 1897.9,345.501 1897.71,345.687 C 1897.53,345.873 1897.39,346.105 1897.27,346.383 C 1897.16,346.662 1897.11,347.005 1897.11,347.413 C 1897.11,347.741 1897.17,348.061 1897.3,348.373 C 1897.43,348.685 1897.63,348.963 1897.89,349.207 C 1898.14,349.451 1898.45,349.646 1898.83,349.792 C 1899.2,349.938 1899.63,350.011 1900.11,350.011 C 1900.37,350.011 1900.63,349.99 1900.89,349.948 C 1901.14,349.906 1901.38,349.844 1901.61,349.762 C 1901.84,349.68 1902.05,349.582 1902.25,349.468 C 1902.45,349.354 1902.63,349.225 1902.78,349.081 L 1902.28,348.138 Z" marker-start="none" marker-end="none"/>
   <path d="M 1909.54,349.917 L 1909.54,348.356 L 1905.95,348.356 L 1905.95,346.314 L 1908.7,346.314 L 1908.7,344.814 L 1905.95,344.814 L 1905.95,342.734 L 1909.54,342.734 L 1909.54,341.172 L 1903.91,341.172 L 1903.91,349.917 L 1909.54,349.917 Z" marker-start="none" marker-end="none"/>
   <path d="M 1911.76,349.917 C 1911.84,349.917 1911.92,349.913 1911.98,349.905 C 1912.04,349.897 1912.09,349.882 1912.14,349.86 C 1912.19,349.838 1912.23,349.807 1912.28,349.767 C 1912.32,349.727 1912.37,349.673 1912.43,349.605 L 1916.58,344.355 C 1916.56,344.523 1916.55,344.686 1916.54,344.844 C 1916.54,345.002 1916.53,345.151 1916.53,345.291 L 1916.53,349.917 L 1918.32,349.917 L 1918.32,341.172 L 1917.26,341.172 C 1917.11,341.172 1916.98,341.196 1916.87,341.244 C 1916.76,341.292 1916.66,341.38 1916.56,341.508 L 1912.43,346.716 C 1912.45,346.564 1912.46,346.415 1912.46,346.269 C 1912.47,346.123 1912.48,345.986 1912.48,345.858 L 1912.48,341.172 L 1910.69,341.172 L 1910.69,349.917 L 1911.76,349.917 Z" marker-start="none" marker-end="none"/>
   <path d="M 1926.11,349.917 L 1926.11,348.309 L 1923.65,348.309 L 1923.65,341.174 L 1921.62,341.174 L 1921.62,348.309 L 1919.16,348.309 L 1919.16,349.917 L 1926.11,349.917 Z" marker-start="none" marker-end="none"/>
  </g>
  <g id="Group_1" fill-rule="nonzero" stroke-linejoin="round" stroke-linecap="round" stroke="none" stroke-width="0.25" fill="#b2b2b2">
   <path d="M 1890.73,326.776 L 1890.73,335.518 L 1893.94,335.518 C 1894.55,335.518 1895.06,335.462 1895.49,335.35 C 1895.91,335.238 1896.26,335.081 1896.52,334.877 C 1896.79,334.673 1896.99,334.425 1897.11,334.133 C 1897.23,333.841 1897.29,333.515 1897.29,333.155 C 1897.29,332.959 1897.26,332.77 1897.21,332.588 C 1897.15,332.406 1897.06,332.235 1896.94,332.075 C 1896.82,331.915 1896.67,331.77 1896.48,331.64 C 1896.29,331.51 1896.07,331.397 1895.8,331.301 C 1896.38,331.161 1896.81,330.934 1897.08,330.62 C 1897.36,330.306 1897.5,329.903 1897.5,329.411 C 1897.5,329.039 1897.42,328.693 1897.28,328.372 C 1897.14,328.052 1896.92,327.773 1896.65,327.535 C 1896.37,327.297 1896.03,327.111 1895.62,326.977 C 1895.21,326.843 1894.74,326.776 1894.22,326.776 L 1890.73,326.776 Z M 1892.76,330.485 L 1892.76,328.305 L 1894.18,328.305 C 1894.45,328.305 1894.67,328.339 1894.84,328.407 C 1895.01,328.476 1895.14,328.564 1895.24,328.672 C 1895.34,328.78 1895.4,328.902 1895.44,329.038 C 1895.47,329.174 1895.49,329.312 1895.49,329.452 C 1895.49,329.612 1895.47,329.756 1895.43,329.885 C 1895.39,330.013 1895.31,330.121 1895.21,330.209 C 1895.11,330.297 1894.98,330.365 1894.81,330.413 C 1894.64,330.461 1894.43,330.485 1894.17,330.485 L 1892.76,330.485 Z M 1892.76,331.842 L 1893.81,331.842 C 1894.04,331.842 1894.24,331.858 1894.42,331.889 C 1894.6,331.922 1894.75,331.978 1894.88,332.057 C 1895,332.137 1895.1,332.247 1895.16,332.387 C 1895.23,332.527 1895.26,332.703 1895.26,332.915 C 1895.26,333.123 1895.24,333.296 1895.18,333.434 C 1895.13,333.572 1895.05,333.683 1894.94,333.767 C 1894.84,333.851 1894.7,333.911 1894.53,333.947 C 1894.37,333.983 1894.17,334.001 1893.94,334.001 L 1892.76,334.001 L 1892.76,331.842 Z" marker-start="none" marker-end="none"/>
   <path d="M 1900.82,326.776 L 1898.78,326.776 L 1898.78,335.521 L 1900.82,335.521 L 1900.82,326.776 Z" marker-start="none" marker-end="none"/>
   <path d="M 1910.37,331.152 C 1910.37,330.519 1910.26,329.936 1910.04,329.402 C 1909.82,328.868 1909.51,328.406 1909.12,328.016 C 1908.72,327.625 1908.25,327.321 1907.69,327.103 C 1907.13,326.885 1906.51,326.776 1905.83,326.776 L 1902.43,326.776 L 1902.43,335.521 L 1905.83,335.521 C 1906.51,335.521 1907.13,335.411 1907.69,335.191 C 1908.25,334.971 1908.72,334.667 1909.12,334.279 C 1909.51,333.891 1909.82,333.43 1910.04,332.895 C 1910.26,332.361 1910.37,331.78 1910.37,331.152 Z M 1908.29,331.152 C 1908.29,331.584 1908.23,331.974 1908.12,332.322 C 1908.01,332.67 1907.85,332.965 1907.64,333.207 C 1907.43,333.449 1907.17,333.635 1906.87,333.765 C 1906.56,333.895 1906.22,333.96 1905.83,333.96 L 1904.47,333.96 L 1904.47,328.338 L 1905.83,328.338 C 1906.22,328.338 1906.56,328.403 1906.87,328.533 C 1907.17,328.663 1907.43,328.849 1907.64,329.091 C 1907.85,329.333 1908.01,329.628 1908.12,329.976 C 1908.23,330.324 1908.29,330.716 1908.29,331.152 Z" marker-start="none" marker-end="none"/>
  </g>
  <path d="M 1881.45,272.537 C 1872.56,283.077 1873.88,298.863 1884.43,307.746 C 1894.96,316.66 1910.73,315.329 1919.63,304.79 C 1928.54,294.251 1927.21,278.477 1916.65,269.574 C 1906.12,260.677 1890.35,262.009 1881.45,272.537 Z" stroke="none" fill="#e5e5e5" stroke-width="1.038" stroke-linejoin="miter" marker-start="none" marker-end="none"/>
  <path d="M 1881.45,273.494 C 1872.56,284.038 1873.88,299.791 1884.42,308.709 C 1894.96,317.582 1910.73,316.267 1919.65,305.728 C 1928.54,295.191 1927.21,279.408 1916.66,270.512 C 1906.13,261.616 1890.35,262.94 1881.45,273.494 Z" fill="none" stroke="#b2b2b2" stroke-width="5.657" stroke-linejoin="miter" marker-start="none" marker-end="none"/>
  <path d="M 1846.69,265.902 L 1846.69,343.194 C 1846.69,351.592 1853.5,358.408 1861.9,358.408 L 1900.54,358.406 L 1900.54,358.406 L 1900.55,304.548 L 1900.56,358.406 L 1900.55,358.406 L 1939.19,358.408 C 1947.59,358.408 1954.41,351.592 1954.41,343.194 L 1954.41,265.902 C 1954.41,257.504 1947.59,250.688 1939.19,250.688 L 1900.55,250.69 L 1900.56,250.69 L 1900.55,304.548 L 1900.54,250.69 L 1900.54,250.69 L 1861.9,250.688 C 1853.5,250.688 1846.69,257.504 1846.69,265.902 Z" stroke="none" fill="#ffffff" stroke-width="0.802" stroke-linejoin="miter" marker-start="none" marker-end="none"/>
  <path d="M 1847.54,266.63 L 1847.54,342.466 C 1847.54,350.797 1854.3,357.559 1862.63,357.559 L 1938.46,357.559 C 1946.79,357.559 1953.56,350.797 1953.56,342.466 L 1953.56,266.63 C 1953.56,258.299 1946.79,251.537 1938.46,251.537 L 1862.63,251.537 C 1854.3,251.537 1847.54,258.299 1847.54,266.63 Z" stroke="none" fill="#e5e5e5" stroke-width="0.801" stroke-linejoin="miter" marker-start="none" marker-end="none"/>
  <g id="Group_2" fill="#000000" fill-rule="nonzero" stroke-linejoin="round" stroke-linecap="round" stroke="none" stroke-width="0.25">
   <path d="M 1877.02,344.751 L 1877.02,341.829 L 1874.99,341.829 L 1874.99,350.572 L 1878.07,350.572 C 1878.69,350.572 1879.22,350.499 1879.66,350.353 C 1880.1,350.207 1880.46,350.006 1880.75,349.75 C 1881.04,349.494 1881.25,349.192 1881.38,348.844 C 1881.52,348.496 1881.59,348.12 1881.59,347.716 C 1881.59,347.279 1881.52,346.879 1881.38,346.515 C 1881.24,346.151 1881.02,345.839 1880.74,345.579 C 1880.45,345.319 1880.08,345.116 1879.64,344.97 C 1879.2,344.824 1878.68,344.751 1878.07,344.751 L 1877.02,344.751 Z M 1877.02,346.28 L 1878.07,346.28 C 1878.6,346.28 1878.98,346.406 1879.21,346.659 C 1879.44,346.911 1879.56,347.263 1879.56,347.716 C 1879.56,347.916 1879.53,348.098 1879.47,348.262 C 1879.41,348.426 1879.32,348.567 1879.2,348.685 C 1879.07,348.803 1878.92,348.895 1878.73,348.959 C 1878.55,349.023 1878.33,349.055 1878.07,349.055 L 1877.02,349.055 L 1877.02,346.28 Z" marker-start="none" marker-end="none"/>
   <path d="M 1884.67,345.061 L 1884.67,341.827 L 1882.65,341.827 L 1882.65,350.569 L 1885.49,350.569 C 1886.12,350.569 1886.66,350.504 1887.11,350.374 C 1887.55,350.244 1887.92,350.063 1888.2,349.831 C 1888.48,349.598 1888.68,349.324 1888.81,349.007 C 1888.94,348.691 1889.01,348.347 1889.01,347.974 C 1889.01,347.69 1888.97,347.422 1888.89,347.169 C 1888.82,346.917 1888.7,346.683 1888.55,346.469 C 1888.4,346.255 1888.22,346.064 1888,345.895 C 1887.78,345.727 1887.53,345.589 1887.25,345.481 C 1887.38,345.413 1887.51,345.329 1887.63,345.229 C 1887.75,345.129 1887.85,345.008 1887.94,344.864 L 1889.8,341.827 L 1887.96,341.827 C 1887.62,341.827 1887.38,341.955 1887.23,342.211 L 1885.78,344.749 C 1885.71,344.861 1885.64,344.941 1885.55,344.989 C 1885.47,345.038 1885.35,345.062 1885.19,345.061 L 1884.67,345.061 Z M 1884.67,346.459 L 1885.49,346.459 C 1885.77,346.459 1886,346.494 1886.19,346.564 C 1886.39,346.634 1886.55,346.731 1886.67,346.855 C 1886.8,346.979 1886.89,347.124 1886.94,347.29 C 1887,347.456 1887.03,347.635 1887.03,347.827 C 1887.03,348.212 1886.9,348.512 1886.65,348.728 C 1886.4,348.944 1886.01,349.052 1885.49,349.052 L 1884.67,349.052 L 1884.67,346.459 Z" marker-start="none" marker-end="none"/>
   <path d="M 1896.25,350.572 L 1896.25,349.011 L 1892.67,349.011 L 1892.67,346.969 L 1895.41,346.969 L 1895.41,345.469 L 1892.67,345.469 L 1892.67,343.389 L 1896.25,343.389 L 1896.25,341.827 L 1890.63,341.827 L 1890.63,350.572 L 1896.25,350.572 Z" marker-start="none" marker-end="none"/>
   <path d="M 1902.28,348.793 C 1902.22,348.697 1902.15,348.625 1902.09,348.577 C 1902.02,348.529 1901.94,348.505 1901.83,348.505 C 1901.74,348.505 1901.64,348.534 1901.54,348.592 C 1901.43,348.65 1901.31,348.715 1901.18,348.787 C 1901.04,348.859 1900.89,348.924 1900.72,348.982 C 1900.55,349.04 1900.35,349.069 1900.13,349.069 C 1899.75,349.069 1899.47,348.988 1899.28,348.826 C 1899.09,348.664 1899,348.445 1899,348.169 C 1899,347.993 1899.06,347.847 1899.17,347.731 C 1899.28,347.615 1899.43,347.515 1899.61,347.431 C 1899.79,347.347 1900,347.27 1900.23,347.2 C 1900.47,347.13 1900.71,347.052 1900.95,346.966 C 1901.19,346.88 1901.43,346.779 1901.67,346.663 C 1901.9,346.547 1902.11,346.399 1902.29,346.219 C 1902.47,346.039 1902.62,345.82 1902.73,345.562 C 1902.85,345.304 1902.9,344.993 1902.9,344.629 C 1902.9,344.225 1902.83,343.847 1902.69,343.495 C 1902.55,343.143 1902.35,342.836 1902.08,342.574 C 1901.82,342.312 1901.49,342.106 1901.1,341.955 C 1900.71,341.805 1900.27,341.73 1899.77,341.73 C 1899.5,341.73 1899.22,341.758 1898.94,341.814 C 1898.66,341.87 1898.38,341.949 1898.12,342.051 C 1897.86,342.154 1897.61,342.275 1897.38,342.415 C 1897.14,342.555 1896.94,342.711 1896.77,342.883 L 1897.37,343.831 C 1897.41,343.903 1897.48,343.961 1897.56,344.005 C 1897.64,344.049 1897.72,344.071 1897.81,344.071 C 1897.93,344.071 1898.05,344.033 1898.18,343.957 C 1898.3,343.881 1898.44,343.797 1898.59,343.705 C 1898.74,343.613 1898.92,343.529 1899.12,343.453 C 1899.32,343.377 1899.56,343.339 1899.83,343.339 C 1900.2,343.339 1900.48,343.42 1900.69,343.582 C 1900.89,343.744 1900.99,344.001 1900.99,344.353 C 1900.99,344.557 1900.94,344.723 1900.83,344.851 C 1900.71,344.979 1900.57,345.085 1900.38,345.169 C 1900.2,345.253 1900,345.327 1899.76,345.391 C 1899.53,345.455 1899.29,345.526 1899.05,345.604 C 1898.81,345.682 1898.57,345.778 1898.34,345.892 C 1898.1,346.006 1897.9,346.156 1897.71,346.342 C 1897.53,346.528 1897.39,346.76 1897.27,347.038 C 1897.16,347.317 1897.11,347.66 1897.11,348.068 C 1897.11,348.396 1897.17,348.716 1897.3,349.028 C 1897.43,349.34 1897.63,349.618 1897.89,349.862 C 1898.14,350.106 1898.45,350.301 1898.83,350.447 C 1899.2,350.593 1899.63,350.666 1900.11,350.666 C 1900.37,350.666 1900.63,350.645 1900.89,350.603 C 1901.14,350.561 1901.38,350.499 1901.61,350.417 C 1901.84,350.335 1902.05,350.237 1902.25,350.123 C 1902.45,350.009 1902.63,349.88 1902.78,349.736 L 1902.28,348.793 Z" marker-start="none" marker-end="none"/>
   <path d="M 1909.54,350.572 L 1909.54,349.011 L 1905.95,349.011 L 1905.95,346.969 L 1908.7,346.969 L 1908.7,345.469 L 1905.95,345.469 L 1905.95,343.389 L 1909.54,343.389 L 1909.54,341.827 L 1903.91,341.827 L 1903.91,350.572 L 1909.54,350.572 Z" marker-start="none" marker-end="none"/>
   <path d="M 1911.76,350.572 C 1911.84,350.572 1911.92,350.568 1911.98,350.56 C 1912.04,350.552 1912.09,350.537 1912.14,350.515 C 1912.19,350.493 1912.23,350.462 1912.28,350.422 C 1912.32,350.382 1912.37,350.328 1912.43,350.26 L 1916.58,345.01 C 1916.56,345.178 1916.55,345.341 1916.54,345.499 C 1916.54,345.657 1916.53,345.806 1916.53,345.946 L 1916.53,350.572 L 1918.32,350.572 L 1918.32,341.827 L 1917.26,341.827 C 1917.11,341.827 1916.98,341.851 1916.87,341.899 C 1916.76,341.947 1916.66,342.035 1916.56,342.163 L 1912.43,347.371 C 1912.45,347.219 1912.46,347.07 1912.46,346.924 C 1912.47,346.778 1912.48,346.641 1912.48,346.513 L 1912.48,341.827 L 1910.69,341.827 L 1910.69,350.572 L 1911.76,350.572 Z" marker-start="none" marker-end="none"/>
   <path d="M 1926.11,350.572 L 1926.11,348.964 L 1923.65,348.964 L 1923.65,341.829 L 1921.62,341.829 L 1921.62,348.964 L 1919.16,348.964 L 1919.16,350.572 L 1926.11,350.572 Z" marker-start="none" marker-end="none"/>
  </g>
  <g id="Group_3" fill="#000000" fill-rule="nonzero" stroke-linejoin="round" stroke-linecap="round" stroke="none" stroke-width="0.25">
   <path d="M 1890.73,327.431 L 1890.73,336.173 L 1893.94,336.173 C 1894.55,336.173 1895.06,336.117 1895.49,336.005 C 1895.91,335.893 1896.26,335.736 1896.52,335.532 C 1896.79,335.328 1896.99,335.08 1897.11,334.788 C 1897.23,334.496 1897.29,334.17 1897.29,333.81 C 1897.29,333.614 1897.26,333.425 1897.21,333.243 C 1897.15,333.061 1897.06,332.89 1896.94,332.73 C 1896.82,332.57 1896.67,332.425 1896.48,332.295 C 1896.29,332.165 1896.07,332.052 1895.8,331.956 C 1896.38,331.816 1896.81,331.589 1897.08,331.275 C 1897.36,330.961 1897.5,330.558 1897.5,330.066 C 1897.5,329.694 1897.42,329.348 1897.28,329.027 C 1897.14,328.707 1896.92,328.428 1896.65,328.19 C 1896.37,327.952 1896.03,327.766 1895.62,327.632 C 1895.21,327.498 1894.74,327.431 1894.22,327.431 L 1890.73,327.431 Z M 1892.76,331.14 L 1892.76,328.96 L 1894.18,328.96 C 1894.45,328.96 1894.67,328.994 1894.84,329.062 C 1895.01,329.131 1895.14,329.219 1895.24,329.327 C 1895.34,329.435 1895.4,329.557 1895.44,329.693 C 1895.47,329.829 1895.49,329.967 1895.49,330.107 C 1895.49,330.267 1895.47,330.411 1895.43,330.54 C 1895.39,330.668 1895.31,330.776 1895.21,330.864 C 1895.11,330.952 1894.98,331.02 1894.81,331.068 C 1894.64,331.116 1894.43,331.14 1894.17,331.14 L 1892.76,331.14 Z M 1892.76,332.497 L 1893.81,332.497 C 1894.04,332.497 1894.24,332.513 1894.42,332.544 C 1894.6,332.577 1894.75,332.633 1894.88,332.712 C 1895,332.792 1895.1,332.902 1895.16,333.042 C 1895.23,333.182 1895.26,333.358 1895.26,333.57 C 1895.26,333.778 1895.24,333.951 1895.18,334.089 C 1895.13,334.227 1895.05,334.338 1894.94,334.422 C 1894.84,334.506 1894.7,334.566 1894.53,334.602 C 1894.37,334.638 1894.17,334.656 1893.94,334.656 L 1892.76,334.656 L 1892.76,332.497 Z" marker-start="none" marker-end="none"/>
   <path d="M 1900.82,327.431 L 1898.78,327.431 L 1898.78,336.176 L 1900.82,336.176 L 1900.82,327.431 Z" marker-start="none" marker-end="none"/>
   <path d="M 1910.37,331.807 C 1910.37,331.174 1910.26,330.591 1910.04,330.057 C 1909.82,329.523 1909.51,329.061 1909.12,328.671 C 1908.72,328.28 1908.25,327.976 1907.69,327.758 C 1907.13,327.54 1906.51,327.431 1905.83,327.431 L 1902.43,327.431 L 1902.43,336.176 L 1905.83,336.176 C 1906.51,336.176 1907.13,336.066 1907.69,335.846 C 1908.25,335.626 1908.72,335.322 1909.12,334.934 C 1909.51,334.546 1909.82,334.085 1910.04,333.55 C 1910.26,333.016 1910.37,332.435 1910.37,331.807 Z M 1908.29,331.807 C 1908.29,332.239 1908.23,332.629 1908.12,332.977 C 1908.01,333.325 1907.85,333.62 1907.64,333.862 C 1907.43,334.104 1907.17,334.29 1906.87,334.42 C 1906.56,334.55 1906.22,334.615 1905.83,334.615 L 1904.47,334.615 L 1904.47,328.993 L 1905.83,328.993 C 1906.22,328.993 1906.56,329.058 1906.87,329.188 C 1907.17,329.318 1907.43,329.504 1907.64,329.746 C 1907.85,329.988 1908.01,330.283 1908.12,330.631 C 1908.23,330.979 1908.29,331.371 1908.29,331.807 Z" marker-start="none" marker-end="none"/>
  </g>
  <path d="M 1881.45,273.192 C 1872.56,283.732 1873.88,299.518 1884.43,308.401 C 1894.96,317.315 1910.73,315.984 1919.63,305.445 C 1928.54,294.906 1927.21,279.132 1916.65,270.229 C 1906.12,261.332 1890.35,262.664 1881.45,273.192 Z" stroke="none" fill="#e5e5e5" stroke-width="1.038" stroke-linejoin="miter" marker-start="none" marker-end="none"/>
  <path d="M 1881.45,274.149 C 1872.56,284.693 1873.88,300.446 1884.42,309.364 C 1894.96,318.237 1910.73,316.922 1919.65,306.383 C 1928.54,295.846 1927.21,280.063 1916.66,271.167 C 1906.13,262.271 1890.35,263.595 1881.45,274.149 Z" fill="none" stroke="#b2b2b2" stroke-width="5.657" stroke-linejoin="miter" marker-start="none" marker-end="none"/>
  <path d="M 1881.45,273.773 C 1872.56,284.313 1873.88,300.099 1884.43,308.982 C 1894.96,317.896 1910.73,316.565 1919.63,306.026 C 1928.54,295.487 1927.21,279.713 1916.65,270.81 C 1906.12,261.913 1890.35,263.245 1881.45,273.773 Z" stroke="none" fill="#ffffff" stroke-width="1.038" stroke-linejoin="miter" marker-start="none" marker-end="none"/>
  <path d="M 1881.45,274.73 C 1872.56,285.274 1873.88,301.027 1884.42,309.945 C 1894.96,318.818 1910.73,317.503 1919.65,306.964 C 1928.54,296.427 1927.21,280.644 1916.66,271.748 C 1906.13,262.852 1890.35,264.176 1881.45,274.73 Z" fill="none" stroke="#539bc5" stroke-width="5.657" stroke-linejoin="miter" marker-start="none" marker-end="none"/>
 </g>
 <g id="Layer 2 - grids" transform="scale(1 -1)"/>
 <g id="Layer 1" transform="scale(1 -1)"/>
</svg>
