<?xml version="1.0" standalone="no"?>
<!DOCTYPE svg PUBLIC "-//W3C//DTD SVG 1.1//EN" "http://www.w3.org/Graphics/SVG/1.1/DTD/svg11.dtd">
<!--Generator: Xara Designer (www.xara.com), SVG filter version: 6.6.0.0-->
<svg fill="none" fill-rule="evenodd" stroke="black" stroke-width="0.501" stroke-linejoin="bevel" stroke-miterlimit="10" font-family="Times New Roman" font-size="16" style="font-variant-ligatures:none" xmlns:xlink="http://www.w3.org/1999/xlink" xmlns="http://www.w3.org/2000/svg" version="1.1" overflow="visible" width="107.718pt" height="107.72pt" viewBox="1553.24 -360.993 107.718 107.72">
 <defs>
	</defs>
 <g id="Grid 36x36mm" transform="scale(1 -1)">
  <path d="M 1554.08,268.56 L 1554.08,344.396 C 1554.08,352.727 1560.85,359.489 1569.18,359.489 L 1645.01,359.489 C 1653.34,359.489 1660.1,352.727 1660.1,344.396 L 1660.1,268.56 C 1660.1,260.229 1653.34,253.467 1645.01,253.467 L 1569.18,253.467 C 1560.85,253.467 1554.08,260.229 1554.08,268.56 Z" stroke="none" fill="#e5e5e5" stroke-width="0.801" stroke-linejoin="miter" marker-start="none" marker-end="none"/>
  <g id="Group" fill-rule="nonzero" stroke-linejoin="round" stroke-linecap="round" stroke="none" stroke-width="0.25" fill="#b2b2b2">
   <path d="M 1583.56,346.681 L 1583.56,343.759 L 1581.54,343.759 L 1581.54,352.502 L 1584.62,352.502 C 1585.24,352.502 1585.76,352.429 1586.21,352.283 C 1586.65,352.137 1587.01,351.936 1587.3,351.68 C 1587.58,351.424 1587.8,351.122 1587.93,350.774 C 1588.07,350.426 1588.14,350.05 1588.14,349.646 C 1588.14,349.209 1588.07,348.809 1587.93,348.445 C 1587.79,348.081 1587.57,347.769 1587.28,347.509 C 1587,347.249 1586.63,347.046 1586.19,346.9 C 1585.75,346.754 1585.22,346.681 1584.62,346.681 L 1583.56,346.681 Z M 1583.56,348.21 L 1584.62,348.21 C 1585.15,348.21 1585.53,348.336 1585.76,348.589 C 1585.99,348.841 1586.11,349.193 1586.11,349.646 C 1586.11,349.846 1586.08,350.028 1586.02,350.192 C 1585.96,350.356 1585.87,350.497 1585.74,350.615 C 1585.62,350.733 1585.47,350.825 1585.28,350.889 C 1585.1,350.953 1584.88,350.985 1584.62,350.985 L 1583.56,350.985 L 1583.56,348.21 Z" marker-start="none" marker-end="none"/>
   <path d="M 1591.22,346.991 L 1591.22,343.757 L 1589.19,343.757 L 1589.19,352.499 L 1592.04,352.499 C 1592.67,352.499 1593.21,352.434 1593.65,352.304 C 1594.1,352.174 1594.46,351.993 1594.75,351.761 C 1595.03,351.528 1595.23,351.254 1595.36,350.937 C 1595.49,350.621 1595.55,350.277 1595.55,349.904 C 1595.55,349.62 1595.52,349.352 1595.44,349.099 C 1595.36,348.847 1595.25,348.613 1595.1,348.399 C 1594.95,348.185 1594.77,347.994 1594.55,347.825 C 1594.33,347.657 1594.08,347.519 1593.8,347.411 C 1593.93,347.343 1594.06,347.259 1594.18,347.159 C 1594.29,347.059 1594.4,346.938 1594.49,346.794 L 1596.35,343.757 L 1594.51,343.757 C 1594.17,343.757 1593.93,343.885 1593.78,344.141 L 1592.33,346.679 C 1592.26,346.791 1592.19,346.871 1592.1,346.919 C 1592.01,346.968 1591.89,346.992 1591.74,346.991 L 1591.22,346.991 Z M 1591.22,348.389 L 1592.04,348.389 C 1592.31,348.389 1592.55,348.424 1592.74,348.494 C 1592.94,348.564 1593.1,348.661 1593.22,348.785 C 1593.34,348.909 1593.43,349.054 1593.49,349.22 C 1593.55,349.386 1593.57,349.565 1593.57,349.757 C 1593.57,350.142 1593.45,350.442 1593.2,350.658 C 1592.95,350.874 1592.56,350.982 1592.04,350.982 L 1591.22,350.982 L 1591.22,348.389 Z" marker-start="none" marker-end="none"/>
   <path d="M 1602.8,352.502 L 1602.8,350.941 L 1599.21,350.941 L 1599.21,348.899 L 1601.96,348.899 L 1601.96,347.399 L 1599.21,347.399 L 1599.21,345.319 L 1602.8,345.319 L 1602.8,343.757 L 1597.17,343.757 L 1597.17,352.502 L 1602.8,352.502 Z" marker-start="none" marker-end="none"/>
   <path d="M 1608.83,350.723 C 1608.77,350.627 1608.7,350.555 1608.64,350.507 C 1608.57,350.459 1608.49,350.435 1608.38,350.435 C 1608.29,350.435 1608.19,350.464 1608.08,350.522 C 1607.98,350.58 1607.86,350.645 1607.72,350.717 C 1607.59,350.789 1607.44,350.854 1607.27,350.912 C 1607.09,350.97 1606.9,350.999 1606.68,350.999 C 1606.3,350.999 1606.01,350.918 1605.83,350.756 C 1605.64,350.594 1605.55,350.375 1605.55,350.099 C 1605.55,349.923 1605.61,349.777 1605.72,349.661 C 1605.83,349.545 1605.98,349.445 1606.16,349.361 C 1606.34,349.277 1606.55,349.2 1606.78,349.13 C 1607.02,349.06 1607.26,348.982 1607.5,348.896 C 1607.74,348.81 1607.98,348.709 1608.22,348.593 C 1608.45,348.477 1608.66,348.329 1608.84,348.149 C 1609.02,347.969 1609.17,347.75 1609.28,347.492 C 1609.39,347.234 1609.45,346.923 1609.45,346.559 C 1609.45,346.155 1609.38,345.777 1609.24,345.425 C 1609.1,345.073 1608.9,344.766 1608.63,344.504 C 1608.36,344.242 1608.04,344.036 1607.65,343.885 C 1607.26,343.735 1606.81,343.66 1606.32,343.66 C 1606.05,343.66 1605.77,343.688 1605.49,343.744 C 1605.2,343.8 1604.93,343.879 1604.67,343.981 C 1604.4,344.084 1604.16,344.205 1603.92,344.345 C 1603.69,344.485 1603.49,344.641 1603.32,344.813 L 1603.92,345.761 C 1603.96,345.833 1604.02,345.891 1604.1,345.935 C 1604.18,345.979 1604.27,346.001 1604.36,346.001 C 1604.48,346.001 1604.6,345.963 1604.72,345.887 C 1604.85,345.811 1604.98,345.727 1605.14,345.635 C 1605.29,345.543 1605.47,345.459 1605.67,345.383 C 1605.87,345.307 1606.11,345.269 1606.38,345.269 C 1606.75,345.269 1607.03,345.35 1607.24,345.512 C 1607.44,345.674 1607.54,345.931 1607.54,346.283 C 1607.54,346.487 1607.49,346.653 1607.37,346.781 C 1607.26,346.909 1607.11,347.015 1606.93,347.099 C 1606.75,347.183 1606.54,347.257 1606.31,347.321 C 1606.08,347.385 1605.84,347.456 1605.6,347.534 C 1605.35,347.612 1605.12,347.708 1604.88,347.822 C 1604.65,347.936 1604.44,348.086 1604.26,348.272 C 1604.08,348.458 1603.93,348.69 1603.82,348.968 C 1603.71,349.247 1603.65,349.59 1603.65,349.998 C 1603.65,350.326 1603.72,350.646 1603.85,350.958 C 1603.98,351.27 1604.18,351.548 1604.43,351.792 C 1604.69,352.036 1605,352.231 1605.38,352.377 C 1605.75,352.523 1606.17,352.596 1606.65,352.596 C 1606.92,352.596 1607.18,352.575 1607.44,352.533 C 1607.69,352.491 1607.93,352.429 1608.16,352.347 C 1608.39,352.265 1608.6,352.167 1608.8,352.053 C 1609,351.939 1609.17,351.81 1609.33,351.666 L 1608.83,350.723 Z" marker-start="none" marker-end="none"/>
   <path d="M 1616.09,352.502 L 1616.09,350.941 L 1612.5,350.941 L 1612.5,348.899 L 1615.25,348.899 L 1615.25,347.399 L 1612.5,347.399 L 1612.5,345.319 L 1616.09,345.319 L 1616.09,343.757 L 1610.46,343.757 L 1610.46,352.502 L 1616.09,352.502 Z" marker-start="none" marker-end="none"/>
   <path d="M 1618.3,352.502 C 1618.39,352.502 1618.47,352.498 1618.53,352.49 C 1618.59,352.482 1618.64,352.467 1618.69,352.445 C 1618.74,352.423 1618.78,352.392 1618.83,352.352 C 1618.87,352.312 1618.92,352.258 1618.98,352.19 L 1623.13,346.94 C 1623.11,347.108 1623.1,347.271 1623.09,347.429 C 1623.08,347.587 1623.08,347.736 1623.08,347.876 L 1623.08,352.502 L 1624.87,352.502 L 1624.87,343.757 L 1623.81,343.757 C 1623.66,343.757 1623.52,343.781 1623.42,343.829 C 1623.31,343.877 1623.2,343.965 1623.1,344.093 L 1618.98,349.301 C 1618.99,349.149 1619,349 1619.01,348.854 C 1619.02,348.708 1619.02,348.571 1619.02,348.443 L 1619.02,343.757 L 1617.24,343.757 L 1617.24,352.502 L 1618.3,352.502 Z" marker-start="none" marker-end="none"/>
   <path d="M 1632.65,352.502 L 1632.65,350.894 L 1630.19,350.894 L 1630.19,343.759 L 1628.17,343.759 L 1628.17,350.894 L 1625.71,350.894 L 1625.71,352.502 L 1632.65,352.502 Z" marker-start="none" marker-end="none"/>
  </g>
  <g id="Group_1" fill-rule="nonzero" stroke-linejoin="round" stroke-linecap="round" stroke="none" stroke-width="0.25" fill="#b2b2b2">
   <path d="M 1597.28,329.361 L 1597.28,338.103 L 1600.49,338.103 C 1601.1,338.103 1601.61,338.047 1602.03,337.935 C 1602.46,337.823 1602.8,337.666 1603.07,337.462 C 1603.34,337.258 1603.53,337.01 1603.66,336.718 C 1603.78,336.426 1603.84,336.1 1603.84,335.74 C 1603.84,335.544 1603.81,335.355 1603.76,335.173 C 1603.7,334.991 1603.61,334.82 1603.49,334.66 C 1603.37,334.5 1603.22,334.355 1603.03,334.225 C 1602.84,334.095 1602.62,333.982 1602.35,333.886 C 1602.93,333.746 1603.35,333.519 1603.63,333.205 C 1603.91,332.891 1604.04,332.488 1604.04,331.996 C 1604.04,331.624 1603.97,331.278 1603.83,330.957 C 1603.68,330.637 1603.47,330.358 1603.19,330.12 C 1602.92,329.882 1602.57,329.696 1602.17,329.562 C 1601.76,329.428 1601.29,329.361 1600.77,329.361 L 1597.28,329.361 Z M 1599.3,333.07 L 1599.3,330.89 L 1600.73,330.89 C 1601,330.89 1601.22,330.924 1601.39,330.992 C 1601.56,331.061 1601.69,331.149 1601.79,331.257 C 1601.88,331.365 1601.95,331.487 1601.99,331.623 C 1602.02,331.759 1602.04,331.897 1602.04,332.037 C 1602.04,332.197 1602.02,332.341 1601.98,332.47 C 1601.93,332.598 1601.86,332.706 1601.76,332.794 C 1601.66,332.882 1601.52,332.95 1601.36,332.998 C 1601.19,333.046 1600.98,333.07 1600.72,333.07 L 1599.3,333.07 Z M 1599.3,334.427 L 1600.36,334.427 C 1600.58,334.427 1600.79,334.443 1600.97,334.474 C 1601.15,334.507 1601.3,334.563 1601.42,334.642 C 1601.55,334.722 1601.65,334.832 1601.71,334.972 C 1601.78,335.112 1601.81,335.288 1601.81,335.5 C 1601.81,335.708 1601.79,335.881 1601.73,336.019 C 1601.68,336.157 1601.6,336.268 1601.49,336.352 C 1601.39,336.436 1601.25,336.496 1601.08,336.532 C 1600.92,336.568 1600.72,336.586 1600.49,336.586 L 1599.3,336.586 L 1599.3,334.427 Z" marker-start="none" marker-end="none"/>
   <path d="M 1607.36,329.361 L 1605.32,329.361 L 1605.32,338.106 L 1607.36,338.106 L 1607.36,329.361 Z" marker-start="none" marker-end="none"/>
   <path d="M 1616.91,333.737 C 1616.91,333.104 1616.81,332.521 1616.59,331.987 C 1616.37,331.453 1616.06,330.991 1615.67,330.601 C 1615.27,330.21 1614.79,329.906 1614.24,329.688 C 1613.68,329.47 1613.06,329.361 1612.38,329.361 L 1608.98,329.361 L 1608.98,338.106 L 1612.38,338.106 C 1613.06,338.106 1613.68,337.996 1614.24,337.776 C 1614.79,337.556 1615.27,337.252 1615.67,336.864 C 1616.06,336.476 1616.37,336.015 1616.59,335.48 C 1616.81,334.946 1616.91,334.365 1616.91,333.737 Z M 1614.84,333.737 C 1614.84,334.169 1614.78,334.559 1614.67,334.907 C 1614.56,335.255 1614.4,335.55 1614.19,335.792 C 1613.98,336.034 1613.72,336.22 1613.42,336.35 C 1613.11,336.48 1612.77,336.545 1612.38,336.545 L 1611.02,336.545 L 1611.02,330.923 L 1612.38,330.923 C 1612.77,330.923 1613.11,330.988 1613.42,331.118 C 1613.72,331.248 1613.98,331.434 1614.19,331.676 C 1614.4,331.918 1614.56,332.213 1614.67,332.561 C 1614.78,332.909 1614.84,333.301 1614.84,333.737 Z" marker-start="none" marker-end="none"/>
  </g>
  <path d="M 1588,275.122 C 1579.1,285.662 1580.43,301.448 1590.98,310.331 C 1601.51,319.245 1617.28,317.914 1626.18,307.375 C 1635.09,296.836 1633.76,281.062 1623.2,272.159 C 1612.67,263.262 1596.9,264.594 1588,275.122 Z" stroke="none" fill="#e5e5e5" stroke-width="1.038" stroke-linejoin="miter" marker-start="none" marker-end="none"/>
  <path d="M 1588,276.079 C 1579.11,286.623 1580.42,302.376 1590.97,311.294 C 1601.51,320.167 1617.28,318.852 1626.19,308.313 C 1635.09,297.776 1633.76,281.993 1623.21,273.097 C 1612.68,264.201 1596.9,265.525 1588,276.079 Z" fill="none" stroke="#b2b2b2" stroke-width="5.657" stroke-linejoin="miter" marker-start="none" marker-end="none"/>
  <path d="M 1553.24,268.487 L 1553.24,345.779 C 1553.24,354.177 1560.05,360.993 1568.45,360.993 L 1607.09,360.991 L 1607.08,360.991 L 1607.09,307.133 L 1607.1,360.991 L 1607.1,360.991 L 1645.74,360.993 C 1654.14,360.993 1660.95,354.177 1660.95,345.779 L 1660.95,268.487 C 1660.95,260.089 1654.14,253.273 1645.74,253.273 L 1607.1,253.275 L 1607.1,253.275 L 1607.09,307.133 L 1607.08,253.275 L 1607.09,253.275 L 1568.45,253.273 C 1560.05,253.273 1553.24,260.089 1553.24,268.487 Z" stroke="none" fill="#ffffff" stroke-width="0.802" stroke-linejoin="miter" marker-start="none" marker-end="none"/>
  <path d="M 1554.08,269.215 L 1554.08,345.051 C 1554.08,353.382 1560.85,360.144 1569.18,360.144 L 1645.01,360.144 C 1653.34,360.144 1660.1,353.382 1660.1,345.051 L 1660.1,269.215 C 1660.1,260.884 1653.34,254.122 1645.01,254.122 L 1569.18,254.122 C 1560.85,254.122 1554.08,260.884 1554.08,269.215 Z" stroke="none" fill="#e5e5e5" stroke-width="0.801" stroke-linejoin="miter" marker-start="none" marker-end="none"/>
  <g id="Group_2" fill="#000000" fill-rule="nonzero" stroke-linejoin="round" stroke-linecap="round" stroke="none" stroke-width="0.25">
   <path d="M 1583.56,347.336 L 1583.56,344.414 L 1581.54,344.414 L 1581.54,353.157 L 1584.62,353.157 C 1585.24,353.157 1585.76,353.084 1586.21,352.938 C 1586.65,352.792 1587.01,352.591 1587.3,352.335 C 1587.58,352.079 1587.8,351.777 1587.93,351.429 C 1588.07,351.081 1588.14,350.705 1588.14,350.301 C 1588.14,349.864 1588.07,349.464 1587.93,349.1 C 1587.79,348.736 1587.57,348.424 1587.28,348.164 C 1587,347.904 1586.63,347.701 1586.19,347.555 C 1585.75,347.409 1585.22,347.336 1584.62,347.336 L 1583.56,347.336 Z M 1583.56,348.865 L 1584.62,348.865 C 1585.15,348.865 1585.53,348.991 1585.76,349.244 C 1585.99,349.496 1586.11,349.848 1586.11,350.301 C 1586.11,350.501 1586.08,350.683 1586.02,350.847 C 1585.96,351.011 1585.87,351.152 1585.74,351.27 C 1585.62,351.388 1585.47,351.48 1585.28,351.544 C 1585.1,351.608 1584.88,351.64 1584.62,351.64 L 1583.56,351.64 L 1583.56,348.865 Z" marker-start="none" marker-end="none"/>
   <path d="M 1591.22,347.646 L 1591.22,344.412 L 1589.19,344.412 L 1589.19,353.154 L 1592.04,353.154 C 1592.67,353.154 1593.21,353.089 1593.65,352.959 C 1594.1,352.829 1594.46,352.648 1594.75,352.416 C 1595.03,352.183 1595.23,351.909 1595.36,351.592 C 1595.49,351.276 1595.55,350.932 1595.55,350.559 C 1595.55,350.275 1595.52,350.007 1595.44,349.754 C 1595.36,349.502 1595.25,349.268 1595.1,349.054 C 1594.95,348.84 1594.77,348.649 1594.55,348.48 C 1594.33,348.312 1594.08,348.174 1593.8,348.066 C 1593.93,347.998 1594.06,347.914 1594.18,347.814 C 1594.29,347.714 1594.4,347.593 1594.49,347.449 L 1596.35,344.412 L 1594.51,344.412 C 1594.17,344.412 1593.93,344.54 1593.78,344.796 L 1592.33,347.334 C 1592.26,347.446 1592.19,347.526 1592.1,347.574 C 1592.01,347.623 1591.89,347.647 1591.74,347.646 L 1591.22,347.646 Z M 1591.22,349.044 L 1592.04,349.044 C 1592.31,349.044 1592.55,349.079 1592.74,349.149 C 1592.94,349.219 1593.1,349.316 1593.22,349.44 C 1593.34,349.564 1593.43,349.709 1593.49,349.875 C 1593.55,350.041 1593.57,350.22 1593.57,350.412 C 1593.57,350.797 1593.45,351.097 1593.2,351.313 C 1592.95,351.529 1592.56,351.637 1592.04,351.637 L 1591.22,351.637 L 1591.22,349.044 Z" marker-start="none" marker-end="none"/>
   <path d="M 1602.8,353.157 L 1602.8,351.596 L 1599.21,351.596 L 1599.21,349.554 L 1601.96,349.554 L 1601.96,348.054 L 1599.21,348.054 L 1599.21,345.974 L 1602.8,345.974 L 1602.8,344.412 L 1597.17,344.412 L 1597.17,353.157 L 1602.8,353.157 Z" marker-start="none" marker-end="none"/>
   <path d="M 1608.83,351.378 C 1608.77,351.282 1608.7,351.21 1608.64,351.162 C 1608.57,351.114 1608.49,351.09 1608.38,351.09 C 1608.29,351.09 1608.19,351.119 1608.08,351.177 C 1607.98,351.235 1607.86,351.3 1607.72,351.372 C 1607.59,351.444 1607.44,351.509 1607.27,351.567 C 1607.09,351.625 1606.9,351.654 1606.68,351.654 C 1606.3,351.654 1606.01,351.573 1605.83,351.411 C 1605.64,351.249 1605.55,351.03 1605.55,350.754 C 1605.55,350.578 1605.61,350.432 1605.72,350.316 C 1605.83,350.2 1605.98,350.1 1606.16,350.016 C 1606.34,349.932 1606.55,349.855 1606.78,349.785 C 1607.02,349.715 1607.26,349.637 1607.5,349.551 C 1607.74,349.465 1607.98,349.364 1608.22,349.248 C 1608.45,349.132 1608.66,348.984 1608.84,348.804 C 1609.02,348.624 1609.17,348.405 1609.28,348.147 C 1609.39,347.889 1609.45,347.578 1609.45,347.214 C 1609.45,346.81 1609.38,346.432 1609.24,346.08 C 1609.1,345.728 1608.9,345.421 1608.63,345.159 C 1608.36,344.897 1608.04,344.691 1607.65,344.54 C 1607.26,344.39 1606.81,344.315 1606.32,344.315 C 1606.05,344.315 1605.77,344.343 1605.49,344.399 C 1605.2,344.455 1604.93,344.534 1604.67,344.636 C 1604.4,344.739 1604.16,344.86 1603.92,345 C 1603.69,345.14 1603.49,345.296 1603.32,345.468 L 1603.92,346.416 C 1603.96,346.488 1604.02,346.546 1604.1,346.59 C 1604.18,346.634 1604.27,346.656 1604.36,346.656 C 1604.48,346.656 1604.6,346.618 1604.72,346.542 C 1604.85,346.466 1604.98,346.382 1605.14,346.29 C 1605.29,346.198 1605.47,346.114 1605.67,346.038 C 1605.87,345.962 1606.11,345.924 1606.38,345.924 C 1606.75,345.924 1607.03,346.005 1607.24,346.167 C 1607.44,346.329 1607.54,346.586 1607.54,346.938 C 1607.54,347.142 1607.49,347.308 1607.37,347.436 C 1607.26,347.564 1607.11,347.67 1606.93,347.754 C 1606.75,347.838 1606.54,347.912 1606.31,347.976 C 1606.08,348.04 1605.84,348.111 1605.6,348.189 C 1605.35,348.267 1605.12,348.363 1604.88,348.477 C 1604.65,348.591 1604.44,348.741 1604.26,348.927 C 1604.08,349.113 1603.93,349.345 1603.82,349.623 C 1603.71,349.902 1603.65,350.245 1603.65,350.653 C 1603.65,350.981 1603.72,351.301 1603.85,351.613 C 1603.98,351.925 1604.18,352.203 1604.43,352.447 C 1604.69,352.691 1605,352.886 1605.38,353.032 C 1605.75,353.178 1606.17,353.251 1606.65,353.251 C 1606.92,353.251 1607.18,353.23 1607.44,353.188 C 1607.69,353.146 1607.93,353.084 1608.16,353.002 C 1608.39,352.92 1608.6,352.822 1608.8,352.708 C 1609,352.594 1609.17,352.465 1609.33,352.321 L 1608.83,351.378 Z" marker-start="none" marker-end="none"/>
   <path d="M 1616.09,353.157 L 1616.09,351.596 L 1612.5,351.596 L 1612.5,349.554 L 1615.25,349.554 L 1615.25,348.054 L 1612.5,348.054 L 1612.5,345.974 L 1616.09,345.974 L 1616.09,344.412 L 1610.46,344.412 L 1610.46,353.157 L 1616.09,353.157 Z" marker-start="none" marker-end="none"/>
   <path d="M 1618.3,353.157 C 1618.39,353.157 1618.47,353.153 1618.53,353.145 C 1618.59,353.137 1618.64,353.122 1618.69,353.1 C 1618.74,353.078 1618.78,353.047 1618.83,353.007 C 1618.87,352.967 1618.92,352.913 1618.98,352.845 L 1623.13,347.595 C 1623.11,347.763 1623.1,347.926 1623.09,348.084 C 1623.08,348.242 1623.08,348.391 1623.08,348.531 L 1623.08,353.157 L 1624.87,353.157 L 1624.87,344.412 L 1623.81,344.412 C 1623.66,344.412 1623.52,344.436 1623.42,344.484 C 1623.31,344.532 1623.2,344.62 1623.1,344.748 L 1618.98,349.956 C 1618.99,349.804 1619,349.655 1619.01,349.509 C 1619.02,349.363 1619.02,349.226 1619.02,349.098 L 1619.02,344.412 L 1617.24,344.412 L 1617.24,353.157 L 1618.3,353.157 Z" marker-start="none" marker-end="none"/>
   <path d="M 1632.65,353.157 L 1632.65,351.549 L 1630.19,351.549 L 1630.19,344.414 L 1628.17,344.414 L 1628.17,351.549 L 1625.71,351.549 L 1625.71,353.157 L 1632.65,353.157 Z" marker-start="none" marker-end="none"/>
  </g>
  <g id="Group_3" fill="#000000" fill-rule="nonzero" stroke-linejoin="round" stroke-linecap="round" stroke="none" stroke-width="0.25">
   <path d="M 1597.28,330.016 L 1597.28,338.758 L 1600.49,338.758 C 1601.1,338.758 1601.61,338.702 1602.03,338.59 C 1602.46,338.478 1602.8,338.321 1603.07,338.117 C 1603.34,337.913 1603.53,337.665 1603.66,337.373 C 1603.78,337.081 1603.84,336.755 1603.84,336.395 C 1603.84,336.199 1603.81,336.01 1603.76,335.828 C 1603.7,335.646 1603.61,335.475 1603.49,335.315 C 1603.37,335.155 1603.22,335.01 1603.03,334.88 C 1602.84,334.75 1602.62,334.637 1602.35,334.541 C 1602.93,334.401 1603.35,334.174 1603.63,333.86 C 1603.91,333.546 1604.04,333.143 1604.04,332.651 C 1604.04,332.279 1603.97,331.933 1603.83,331.612 C 1603.68,331.292 1603.47,331.013 1603.19,330.775 C 1602.92,330.537 1602.57,330.351 1602.17,330.217 C 1601.76,330.083 1601.29,330.016 1600.77,330.016 L 1597.28,330.016 Z M 1599.3,333.725 L 1599.3,331.545 L 1600.73,331.545 C 1601,331.545 1601.22,331.579 1601.39,331.647 C 1601.56,331.716 1601.69,331.804 1601.79,331.912 C 1601.88,332.02 1601.95,332.142 1601.99,332.278 C 1602.02,332.414 1602.04,332.552 1602.04,332.692 C 1602.04,332.852 1602.02,332.996 1601.98,333.125 C 1601.93,333.253 1601.86,333.361 1601.76,333.449 C 1601.66,333.537 1601.52,333.605 1601.36,333.653 C 1601.19,333.701 1600.98,333.725 1600.72,333.725 L 1599.3,333.725 Z M 1599.3,335.082 L 1600.36,335.082 C 1600.58,335.082 1600.79,335.098 1600.97,335.129 C 1601.15,335.162 1601.3,335.218 1601.42,335.297 C 1601.55,335.377 1601.65,335.487 1601.71,335.627 C 1601.78,335.767 1601.81,335.943 1601.81,336.155 C 1601.81,336.363 1601.79,336.536 1601.73,336.674 C 1601.68,336.812 1601.6,336.923 1601.49,337.007 C 1601.39,337.091 1601.25,337.151 1601.08,337.187 C 1600.92,337.223 1600.72,337.241 1600.49,337.241 L 1599.3,337.241 L 1599.3,335.082 Z" marker-start="none" marker-end="none"/>
   <path d="M 1607.36,330.016 L 1605.32,330.016 L 1605.32,338.761 L 1607.36,338.761 L 1607.36,330.016 Z" marker-start="none" marker-end="none"/>
   <path d="M 1616.91,334.392 C 1616.91,333.759 1616.81,333.176 1616.59,332.642 C 1616.37,332.108 1616.06,331.646 1615.67,331.256 C 1615.27,330.865 1614.79,330.561 1614.24,330.343 C 1613.68,330.125 1613.06,330.016 1612.38,330.016 L 1608.98,330.016 L 1608.98,338.761 L 1612.38,338.761 C 1613.06,338.761 1613.68,338.651 1614.24,338.431 C 1614.79,338.211 1615.27,337.907 1615.67,337.519 C 1616.06,337.131 1616.37,336.67 1616.59,336.135 C 1616.81,335.601 1616.91,335.02 1616.91,334.392 Z M 1614.84,334.392 C 1614.84,334.824 1614.78,335.214 1614.67,335.562 C 1614.56,335.91 1614.4,336.205 1614.19,336.447 C 1613.98,336.689 1613.72,336.875 1613.42,337.005 C 1613.11,337.135 1612.77,337.2 1612.38,337.2 L 1611.02,337.2 L 1611.02,331.578 L 1612.38,331.578 C 1612.77,331.578 1613.11,331.643 1613.42,331.773 C 1613.72,331.903 1613.98,332.089 1614.19,332.331 C 1614.4,332.573 1614.56,332.868 1614.67,333.216 C 1614.78,333.564 1614.84,333.956 1614.84,334.392 Z" marker-start="none" marker-end="none"/>
  </g>
  <path d="M 1588,275.777 C 1579.1,286.317 1580.43,302.103 1590.98,310.986 C 1601.51,319.9 1617.28,318.569 1626.18,308.03 C 1635.09,297.491 1633.76,281.717 1623.2,272.814 C 1612.67,263.917 1596.9,265.249 1588,275.777 Z" stroke="none" fill="#e5e5e5" stroke-width="1.038" stroke-linejoin="miter" marker-start="none" marker-end="none"/>
  <path d="M 1588,276.734 C 1579.11,287.278 1580.42,303.031 1590.97,311.949 C 1601.51,320.822 1617.28,319.507 1626.19,308.968 C 1635.09,298.431 1633.76,282.648 1623.21,273.752 C 1612.68,264.856 1596.9,266.18 1588,276.734 Z" fill="none" stroke="#b2b2b2" stroke-width="5.657" stroke-linejoin="miter" marker-start="none" marker-end="none"/>
  <path d="M 1588,276.358 C 1579.1,286.898 1580.43,302.684 1590.98,311.567 C 1601.51,320.481 1617.28,319.15 1626.18,308.611 C 1635.09,298.072 1633.76,282.298 1623.2,273.395 C 1612.67,264.498 1596.9,265.83 1588,276.358 Z" stroke="none" fill="#ffffff" stroke-width="1.038" stroke-linejoin="miter" marker-start="none" marker-end="none"/>
  <path d="M 1588,277.315 C 1579.11,287.859 1580.42,303.612 1590.97,312.53 C 1601.51,321.403 1617.28,320.088 1626.19,309.549 C 1635.09,299.012 1633.76,283.229 1623.21,274.333 C 1612.68,265.437 1596.9,266.761 1588,277.315 Z" fill="none" stroke="#539bc5" stroke-width="5.657" stroke-linejoin="miter" marker-start="none" marker-end="none"/>
  <g id="Group_4" fill-rule="nonzero" stroke-linejoin="round" stroke-linecap="round" stroke="none" stroke-width="0.935" fill="#000000">
   <g id="Group_5">
    <path d="M 1616.43,293.947 C 1616.43,289.281 1615.67,285.828 1614.14,283.587 C 1612.61,281.345 1610.26,280.225 1607.08,280.225 C 1603.99,280.225 1601.67,281.382 1600.11,283.696 C 1598.54,286.011 1597.76,289.427 1597.76,293.947 C 1597.76,298.66 1598.52,302.135 1600.04,304.371 C 1601.56,306.606 1603.91,307.724 1607.08,307.724 C 1610.16,307.724 1612.49,306.554 1614.07,304.215 C 1615.64,301.877 1616.43,298.454 1616.43,293.947 Z M 1603.37,293.947 C 1603.37,290.67 1603.65,288.322 1604.22,286.903 C 1604.78,285.484 1605.74,284.774 1607.08,284.774 C 1608.39,284.774 1609.34,285.493 1609.93,286.93 C 1610.51,288.367 1610.8,290.706 1610.8,293.947 C 1610.8,297.223 1610.51,299.578 1609.92,301.009 C 1609.33,302.44 1608.38,303.156 1607.08,303.156 C 1605.75,303.156 1604.8,302.44 1604.23,301.009 C 1603.65,299.578 1603.37,297.223 1603.37,293.947 Z" marker-start="none" marker-end="none"/>
   </g>
  </g>
 </g>
 <g id="Layer 2 - grids" transform="scale(1 -1)"/>
 <g id="Layer 1" transform="scale(1 -1)"/>
</svg>
