<?xml version="1.0" standalone="no"?>
<!DOCTYPE svg PUBLIC "-//W3C//DTD SVG 1.1//EN" "http://www.w3.org/Graphics/SVG/1.1/DTD/svg11.dtd">
<!--Generator: Xara Designer (www.xara.com), SVG filter version: 6.6.0.0-->
<svg fill="none" fill-rule="evenodd" stroke="black" stroke-width="0.501" stroke-linejoin="bevel" stroke-miterlimit="10" font-family="Times New Roman" font-size="16" style="font-variant-ligatures:none" xmlns:xlink="http://www.w3.org/1999/xlink" xmlns="http://www.w3.org/2000/svg" version="1.1" overflow="visible" width="107.718pt" height="107.72pt" viewBox="1977.94 -361.22 107.718 107.72">
 <defs>
	</defs>
 <g id="Grid 36x36mm" transform="scale(1 -1)">
  <path d="M 2012.7,275.349 C 2003.81,285.889 2005.13,301.675 2015.68,310.558 C 2026.21,319.472 2041.98,318.141 2050.88,307.602 C 2059.79,297.063 2058.46,281.289 2047.9,272.386 C 2037.37,263.489 2021.6,264.821 2012.7,275.349 Z" stroke="none" fill="#e5e5e5" stroke-width="1.038" stroke-linejoin="miter" marker-start="none" marker-end="none"/>
  <path d="M 1977.94,268.714 L 1977.94,346.006 C 1977.94,354.404 1984.75,361.22 1993.15,361.22 L 2031.79,361.218 L 2031.79,361.218 L 2031.79,360.371 L 1993.88,360.371 C 1985.55,360.371 1978.79,353.609 1978.79,345.278 L 1978.79,269.442 C 1978.79,261.111 1985.55,254.349 1993.88,254.349 L 2031.79,254.349 L 2031.79,253.502 L 2031.79,253.502 L 1993.15,253.5 C 1984.75,253.5 1977.94,260.316 1977.94,268.714 Z M 2070.44,253.5 L 2031.8,253.502 L 2031.81,253.502 L 2031.8,254.349 L 2069.71,254.349 C 2078.04,254.349 2084.8,261.111 2084.8,269.442 L 2084.8,345.278 C 2084.8,353.609 2078.04,360.371 2069.71,360.371 L 2031.8,360.371 L 2031.81,361.218 L 2031.8,361.218 L 2070.44,361.22 C 2078.84,361.22 2085.65,354.404 2085.65,346.006 L 2085.65,268.714 C 2085.65,260.316 2078.84,253.5 2070.44,253.5 Z" fill="#ffffff" stroke-linejoin="miter" stroke-width="0.802" stroke="none" marker-start="none" marker-end="none"/>
  <g id="Group" fill="#000000" fill-rule="nonzero" stroke-linejoin="round" stroke-linecap="round" stroke="none" stroke-width="0.25">
   <path d="M 2008.26,347.563 L 2008.26,344.641 L 2006.24,344.641 L 2006.24,353.384 L 2009.32,353.384 C 2009.94,353.384 2010.47,353.311 2010.91,353.165 C 2011.35,353.019 2011.71,352.818 2012,352.562 C 2012.29,352.306 2012.5,352.004 2012.63,351.656 C 2012.77,351.308 2012.84,350.932 2012.84,350.528 C 2012.84,350.091 2012.77,349.691 2012.63,349.327 C 2012.49,348.963 2012.27,348.651 2011.98,348.391 C 2011.7,348.131 2011.33,347.928 2010.89,347.782 C 2010.45,347.636 2009.92,347.563 2009.32,347.563 L 2008.26,347.563 Z M 2008.26,349.092 L 2009.32,349.092 C 2009.85,349.092 2010.23,349.218 2010.46,349.471 C 2010.69,349.723 2010.81,350.075 2010.81,350.528 C 2010.81,350.728 2010.78,350.91 2010.72,351.074 C 2010.66,351.238 2010.57,351.379 2010.44,351.497 C 2010.32,351.615 2010.17,351.707 2009.98,351.771 C 2009.8,351.835 2009.58,351.867 2009.32,351.867 L 2008.26,351.867 L 2008.26,349.092 Z" marker-start="none" marker-end="none"/>
   <path d="M 2015.92,347.873 L 2015.92,344.639 L 2013.89,344.639 L 2013.89,353.381 L 2016.74,353.381 C 2017.37,353.381 2017.91,353.316 2018.36,353.186 C 2018.8,353.056 2019.17,352.875 2019.45,352.643 C 2019.73,352.41 2019.93,352.136 2020.06,351.819 C 2020.19,351.503 2020.25,351.159 2020.25,350.786 C 2020.25,350.502 2020.22,350.234 2020.14,349.981 C 2020.06,349.729 2019.95,349.495 2019.8,349.281 C 2019.65,349.067 2019.47,348.876 2019.25,348.707 C 2019.03,348.539 2018.78,348.401 2018.5,348.293 C 2018.63,348.225 2018.76,348.141 2018.88,348.041 C 2019,347.941 2019.1,347.82 2019.19,347.676 L 2021.05,344.639 L 2019.21,344.639 C 2018.87,344.639 2018.63,344.767 2018.48,345.023 L 2017.03,347.561 C 2016.96,347.673 2016.89,347.753 2016.8,347.801 C 2016.72,347.85 2016.59,347.874 2016.44,347.873 L 2015.92,347.873 Z M 2015.92,349.271 L 2016.74,349.271 C 2017.01,349.271 2017.25,349.306 2017.44,349.376 C 2017.64,349.446 2017.8,349.543 2017.92,349.667 C 2018.04,349.791 2018.13,349.936 2018.19,350.102 C 2018.25,350.268 2018.27,350.447 2018.27,350.639 C 2018.27,351.024 2018.15,351.324 2017.9,351.54 C 2017.65,351.756 2017.26,351.864 2016.74,351.864 L 2015.92,351.864 L 2015.92,349.271 Z" marker-start="none" marker-end="none"/>
   <path d="M 2027.5,353.384 L 2027.5,351.823 L 2023.92,351.823 L 2023.92,349.781 L 2026.66,349.781 L 2026.66,348.281 L 2023.92,348.281 L 2023.92,346.201 L 2027.5,346.201 L 2027.5,344.639 L 2021.88,344.639 L 2021.88,353.384 L 2027.5,353.384 Z" marker-start="none" marker-end="none"/>
   <path d="M 2033.53,351.605 C 2033.47,351.509 2033.4,351.437 2033.34,351.389 C 2033.27,351.341 2033.19,351.317 2033.08,351.317 C 2032.99,351.317 2032.89,351.346 2032.79,351.404 C 2032.68,351.462 2032.56,351.527 2032.43,351.599 C 2032.29,351.671 2032.14,351.736 2031.97,351.794 C 2031.79,351.852 2031.6,351.881 2031.38,351.881 C 2031,351.881 2030.72,351.8 2030.53,351.638 C 2030.34,351.476 2030.25,351.257 2030.25,350.981 C 2030.25,350.805 2030.31,350.659 2030.42,350.543 C 2030.53,350.427 2030.68,350.327 2030.86,350.243 C 2031.04,350.159 2031.25,350.082 2031.48,350.012 C 2031.72,349.942 2031.96,349.864 2032.2,349.778 C 2032.44,349.692 2032.68,349.591 2032.92,349.475 C 2033.15,349.359 2033.36,349.211 2033.54,349.031 C 2033.72,348.851 2033.87,348.632 2033.98,348.374 C 2034.09,348.116 2034.15,347.805 2034.15,347.441 C 2034.15,347.037 2034.08,346.659 2033.94,346.307 C 2033.8,345.955 2033.6,345.648 2033.33,345.386 C 2033.07,345.124 2032.74,344.918 2032.35,344.767 C 2031.96,344.617 2031.51,344.542 2031.02,344.542 C 2030.75,344.542 2030.47,344.57 2030.19,344.626 C 2029.91,344.682 2029.63,344.761 2029.37,344.863 C 2029.1,344.966 2028.86,345.087 2028.62,345.227 C 2028.39,345.367 2028.19,345.523 2028.02,345.695 L 2028.62,346.643 C 2028.66,346.715 2028.72,346.773 2028.8,346.817 C 2028.88,346.861 2028.97,346.883 2029.06,346.883 C 2029.18,346.883 2029.3,346.845 2029.43,346.769 C 2029.55,346.693 2029.68,346.609 2029.84,346.517 C 2029.99,346.425 2030.17,346.341 2030.37,346.265 C 2030.57,346.189 2030.81,346.151 2031.08,346.151 C 2031.45,346.151 2031.73,346.232 2031.94,346.394 C 2032.14,346.556 2032.24,346.813 2032.24,347.165 C 2032.24,347.369 2032.19,347.535 2032.07,347.663 C 2031.96,347.791 2031.82,347.897 2031.63,347.981 C 2031.45,348.065 2031.24,348.139 2031.01,348.203 C 2030.78,348.267 2030.54,348.338 2030.3,348.416 C 2030.05,348.494 2029.82,348.59 2029.58,348.704 C 2029.35,348.818 2029.15,348.968 2028.96,349.154 C 2028.78,349.34 2028.63,349.572 2028.52,349.85 C 2028.41,350.129 2028.35,350.472 2028.35,350.88 C 2028.35,351.208 2028.42,351.528 2028.55,351.84 C 2028.68,352.152 2028.88,352.43 2029.13,352.674 C 2029.39,352.918 2029.7,353.113 2030.08,353.259 C 2030.45,353.405 2030.87,353.478 2031.35,353.478 C 2031.62,353.478 2031.88,353.457 2032.14,353.415 C 2032.39,353.373 2032.63,353.311 2032.86,353.229 C 2033.09,353.147 2033.3,353.049 2033.5,352.935 C 2033.7,352.821 2033.87,352.692 2034.03,352.548 L 2033.53,351.605 Z" marker-start="none" marker-end="none"/>
   <path d="M 2040.79,353.384 L 2040.79,351.823 L 2037.2,351.823 L 2037.2,349.781 L 2039.95,349.781 L 2039.95,348.281 L 2037.2,348.281 L 2037.2,346.201 L 2040.79,346.201 L 2040.79,344.639 L 2035.16,344.639 L 2035.16,353.384 L 2040.79,353.384 Z" marker-start="none" marker-end="none"/>
   <path d="M 2043.01,353.384 C 2043.09,353.384 2043.17,353.38 2043.23,353.372 C 2043.29,353.364 2043.34,353.349 2043.39,353.327 C 2043.44,353.305 2043.48,353.274 2043.53,353.234 C 2043.57,353.194 2043.62,353.14 2043.68,353.072 L 2047.83,347.822 C 2047.81,347.99 2047.8,348.153 2047.79,348.311 C 2047.79,348.469 2047.78,348.618 2047.78,348.758 L 2047.78,353.384 L 2049.57,353.384 L 2049.57,344.639 L 2048.51,344.639 C 2048.36,344.639 2048.22,344.663 2048.12,344.711 C 2048.01,344.759 2047.91,344.847 2047.81,344.975 L 2043.68,350.183 C 2043.69,350.031 2043.71,349.882 2043.71,349.736 C 2043.72,349.59 2043.73,349.453 2043.73,349.325 L 2043.73,344.639 L 2041.94,344.639 L 2041.94,353.384 L 2043.01,353.384 Z" marker-start="none" marker-end="none"/>
   <path d="M 2057.36,353.384 L 2057.36,351.776 L 2054.9,351.776 L 2054.9,344.641 L 2052.87,344.641 L 2052.87,351.776 L 2050.41,351.776 L 2050.41,353.384 L 2057.36,353.384 Z" marker-start="none" marker-end="none"/>
  </g>
  <g id="Group_1" fill="#000000" fill-rule="nonzero" stroke-linejoin="round" stroke-linecap="round" stroke="none" stroke-width="0.25">
   <path d="M 2021.98,330.243 L 2021.98,338.985 L 2025.19,338.985 C 2025.8,338.985 2026.31,338.929 2026.73,338.817 C 2027.16,338.705 2027.5,338.548 2027.77,338.344 C 2028.04,338.14 2028.24,337.892 2028.36,337.6 C 2028.48,337.308 2028.54,336.982 2028.54,336.622 C 2028.54,336.426 2028.51,336.237 2028.46,336.055 C 2028.4,335.873 2028.31,335.702 2028.19,335.542 C 2028.07,335.382 2027.92,335.237 2027.73,335.107 C 2027.54,334.977 2027.32,334.864 2027.05,334.768 C 2027.63,334.628 2028.05,334.401 2028.33,334.087 C 2028.61,333.773 2028.74,333.37 2028.74,332.878 C 2028.74,332.506 2028.67,332.16 2028.53,331.839 C 2028.38,331.519 2028.17,331.24 2027.9,331.002 C 2027.62,330.764 2027.27,330.578 2026.87,330.444 C 2026.46,330.31 2025.99,330.243 2025.47,330.243 L 2021.98,330.243 Z M 2024,333.952 L 2024,331.772 L 2025.43,331.772 C 2025.7,331.772 2025.92,331.806 2026.09,331.874 C 2026.26,331.943 2026.39,332.031 2026.49,332.139 C 2026.58,332.247 2026.65,332.369 2026.69,332.505 C 2026.72,332.641 2026.74,332.779 2026.74,332.919 C 2026.74,333.079 2026.72,333.223 2026.68,333.352 C 2026.64,333.48 2026.56,333.588 2026.46,333.676 C 2026.36,333.764 2026.22,333.832 2026.06,333.88 C 2025.89,333.928 2025.68,333.952 2025.42,333.952 L 2024,333.952 Z M 2024,335.309 L 2025.06,335.309 C 2025.28,335.309 2025.49,335.325 2025.67,335.356 C 2025.85,335.389 2026,335.445 2026.13,335.524 C 2026.25,335.604 2026.35,335.714 2026.41,335.854 C 2026.48,335.994 2026.51,336.17 2026.51,336.382 C 2026.51,336.59 2026.49,336.763 2026.43,336.901 C 2026.38,337.039 2026.3,337.15 2026.19,337.234 C 2026.09,337.318 2025.95,337.378 2025.78,337.414 C 2025.62,337.45 2025.42,337.468 2025.19,337.468 L 2024,337.468 L 2024,335.309 Z" marker-start="none" marker-end="none"/>
   <path d="M 2032.07,330.243 L 2030.03,330.243 L 2030.03,338.988 L 2032.07,338.988 L 2032.07,330.243 Z" marker-start="none" marker-end="none"/>
   <path d="M 2041.62,334.619 C 2041.62,333.986 2041.51,333.403 2041.29,332.869 C 2041.07,332.335 2040.76,331.873 2040.37,331.483 C 2039.97,331.092 2039.49,330.788 2038.94,330.57 C 2038.38,330.352 2037.76,330.243 2037.08,330.243 L 2033.68,330.243 L 2033.68,338.988 L 2037.08,338.988 C 2037.76,338.988 2038.38,338.878 2038.94,338.658 C 2039.49,338.438 2039.97,338.134 2040.37,337.746 C 2040.76,337.358 2041.07,336.897 2041.29,336.362 C 2041.51,335.828 2041.62,335.247 2041.62,334.619 Z M 2039.54,334.619 C 2039.54,335.051 2039.48,335.441 2039.37,335.789 C 2039.26,336.137 2039.1,336.432 2038.89,336.674 C 2038.68,336.916 2038.42,337.102 2038.12,337.232 C 2037.81,337.362 2037.47,337.427 2037.08,337.427 L 2035.72,337.427 L 2035.72,331.805 L 2037.08,331.805 C 2037.47,331.805 2037.81,331.87 2038.12,332 C 2038.42,332.13 2038.68,332.316 2038.89,332.558 C 2039.1,332.8 2039.26,333.095 2039.37,333.443 C 2039.48,333.791 2039.54,334.183 2039.54,334.619 Z" marker-start="none" marker-end="none"/>
  </g>
  <path d="M 2012.7,276.004 C 2003.81,286.544 2005.13,302.33 2015.68,311.213 C 2026.21,320.127 2041.98,318.796 2050.88,308.257 C 2059.79,297.718 2058.46,281.944 2047.9,273.041 C 2037.37,264.144 2021.6,265.476 2012.7,276.004 Z" stroke="none" fill="#e5e5e5" stroke-width="1.038" stroke-linejoin="miter" marker-start="none" marker-end="none"/>
  <path d="M 2012.7,276.585 C 2003.81,287.125 2005.13,302.911 2015.68,311.794 C 2026.21,320.708 2041.98,319.377 2050.88,308.838 C 2059.79,298.299 2058.46,282.525 2047.9,273.622 C 2037.37,264.725 2021.6,266.057 2012.7,276.585 Z" stroke="none" fill="#ffffff" stroke-width="1.038" stroke-linejoin="miter" marker-start="none" marker-end="none"/>
  <path d="M 2012.7,277.542 C 2003.81,288.086 2005.13,303.839 2015.67,312.757 C 2026.21,321.63 2041.98,320.315 2050.9,309.776 C 2059.79,299.239 2058.46,283.456 2047.91,274.56 C 2037.38,265.664 2021.6,266.988 2012.7,277.542 Z" fill="none" stroke="#539bc5" stroke-width="5.657" stroke-linejoin="miter" marker-start="none" marker-end="none"/>
 </g>
 <g id="Layer 2 - grids" transform="scale(1 -1)"/>
 <g id="Layer 1" transform="scale(1 -1)"/>
</svg>
