<?xml version="1.0" standalone="no"?>
<!DOCTYPE svg PUBLIC "-//W3C//DTD SVG 1.1//EN" "http://www.w3.org/Graphics/SVG/1.1/DTD/svg11.dtd">
<!--Generator: Xara Designer (www.xara.com), SVG filter version: 6.6.0.0-->
<svg fill="none" fill-rule="evenodd" stroke="black" stroke-width="0.501" stroke-linejoin="bevel" stroke-miterlimit="10" font-family="Times New Roman" font-size="16" style="font-variant-ligatures:none" xmlns:xlink="http://www.w3.org/1999/xlink" xmlns="http://www.w3.org/2000/svg" version="1.1" overflow="visible" width="107.718pt" height="107.72pt" viewBox="1975.35 -625.521 107.718 107.72">
 <defs>
	</defs>
 <g id="Grid 36x36mm" transform="scale(1 -1)">
  <path d="M 1975.35,533.015 L 1975.35,610.307 C 1975.35,618.705 1982.17,625.521 1990.56,625.521 L 2029.21,625.519 L 2029.2,625.519 L 2029.2,624.672 L 1991.29,624.672 C 1982.96,624.672 1976.2,617.91 1976.2,609.579 L 1976.2,533.743 C 1976.2,525.412 1982.96,518.65 1991.29,518.65 L 2029.2,518.65 L 2029.2,517.803 L 2029.21,517.803 L 1990.56,517.801 C 1982.17,517.801 1975.35,524.617 1975.35,533.015 Z M 2067.86,517.801 L 2029.21,517.803 L 2029.22,517.803 L 2029.22,518.65 L 2067.13,518.65 C 2075.46,518.65 2082.22,525.412 2082.22,533.743 L 2082.22,609.579 C 2082.22,617.91 2075.46,624.672 2067.13,624.672 L 2029.22,624.672 L 2029.22,625.519 L 2029.21,625.519 L 2067.86,625.521 C 2076.25,625.521 2083.07,618.705 2083.07,610.307 L 2083.07,533.015 C 2083.07,524.617 2076.25,517.801 2067.86,517.801 Z" fill="#ffffff" stroke-linejoin="miter" stroke-width="0.802" stroke="none" marker-start="none" marker-end="none"/>
  <g id="Group" fill="#000000" fill-rule="nonzero" stroke-linejoin="round" stroke-linecap="round" stroke="none" stroke-width="0.25">
   <path d="M 2016.63,615.906 C 2016.57,615.81 2016.5,615.738 2016.44,615.69 C 2016.37,615.642 2016.29,615.618 2016.18,615.618 C 2016.09,615.618 2015.99,615.647 2015.89,615.705 C 2015.78,615.763 2015.66,615.828 2015.53,615.9 C 2015.39,615.972 2015.24,616.037 2015.07,616.095 C 2014.89,616.153 2014.7,616.182 2014.48,616.182 C 2014.1,616.182 2013.82,616.101 2013.63,615.939 C 2013.44,615.777 2013.35,615.558 2013.35,615.282 C 2013.35,615.106 2013.41,614.96 2013.52,614.844 C 2013.63,614.728 2013.78,614.628 2013.96,614.544 C 2014.14,614.46 2014.35,614.383 2014.58,614.313 C 2014.82,614.243 2015.06,614.165 2015.3,614.079 C 2015.54,613.993 2015.78,613.892 2016.02,613.776 C 2016.25,613.66 2016.46,613.512 2016.64,613.332 C 2016.82,613.152 2016.97,612.933 2017.08,612.675 C 2017.19,612.417 2017.25,612.106 2017.25,611.742 C 2017.25,611.338 2017.18,610.96 2017.04,610.608 C 2016.9,610.256 2016.7,609.949 2016.43,609.687 C 2016.17,609.425 2015.84,609.219 2015.45,609.068 C 2015.06,608.918 2014.61,608.843 2014.12,608.843 C 2013.85,608.843 2013.57,608.871 2013.29,608.927 C 2013.01,608.983 2012.73,609.062 2012.47,609.164 C 2012.2,609.267 2011.96,609.388 2011.72,609.528 C 2011.49,609.668 2011.29,609.824 2011.12,609.996 L 2011.72,610.944 C 2011.76,611.016 2011.82,611.074 2011.9,611.118 C 2011.98,611.162 2012.07,611.184 2012.16,611.184 C 2012.28,611.184 2012.4,611.146 2012.53,611.07 C 2012.65,610.994 2012.79,610.91 2012.94,610.818 C 2013.09,610.726 2013.27,610.642 2013.47,610.566 C 2013.67,610.49 2013.91,610.452 2014.18,610.452 C 2014.55,610.452 2014.83,610.533 2015.04,610.695 C 2015.24,610.857 2015.34,611.114 2015.34,611.466 C 2015.34,611.67 2015.29,611.836 2015.17,611.964 C 2015.06,612.092 2014.92,612.198 2014.73,612.282 C 2014.55,612.366 2014.34,612.44 2014.11,612.504 C 2013.88,612.568 2013.64,612.639 2013.4,612.717 C 2013.15,612.795 2012.92,612.891 2012.68,613.005 C 2012.45,613.119 2012.25,613.269 2012.06,613.455 C 2011.88,613.641 2011.73,613.873 2011.62,614.151 C 2011.51,614.43 2011.45,614.773 2011.45,615.181 C 2011.45,615.509 2011.52,615.829 2011.65,616.141 C 2011.78,616.453 2011.98,616.731 2012.23,616.975 C 2012.49,617.219 2012.8,617.414 2013.18,617.56 C 2013.55,617.706 2013.97,617.779 2014.45,617.779 C 2014.72,617.779 2014.98,617.758 2015.24,617.716 C 2015.49,617.674 2015.73,617.612 2015.96,617.53 C 2016.19,617.448 2016.4,617.35 2016.6,617.236 C 2016.8,617.122 2016.97,616.993 2017.13,616.849 L 2016.63,615.906 Z" marker-start="none" marker-end="none"/>
   <path d="M 2024.61,617.685 L 2024.61,616.077 L 2022.15,616.077 L 2022.15,608.942 L 2020.12,608.942 L 2020.12,616.077 L 2017.66,616.077 L 2017.66,617.685 L 2024.61,617.685 Z" marker-start="none" marker-end="none"/>
   <path d="M 2032.62,608.94 L 2031.05,608.94 C 2030.88,608.94 2030.73,608.981 2030.62,609.063 C 2030.5,609.145 2030.42,609.25 2030.38,609.378 L 2029.86,610.903 L 2026.54,610.903 L 2026.02,609.378 C 2025.98,609.266 2025.91,609.165 2025.79,609.075 C 2025.67,608.985 2025.53,608.94 2025.36,608.94 L 2023.78,608.94 L 2027.16,617.684 L 2029.24,617.684 L 2032.62,608.94 Z M 2027.01,612.283 L 2029.4,612.283 L 2028.59,614.64 C 2028.54,614.79 2028.48,614.966 2028.41,615.169 C 2028.34,615.372 2028.27,615.592 2028.2,615.828 C 2028.14,615.588 2028.07,615.365 2028,615.16 C 2027.94,614.956 2027.87,614.778 2027.81,614.629 L 2027.01,612.283 Z" marker-start="none" marker-end="none"/>
   <path d="M 2035.36,612.174 L 2035.36,608.94 L 2033.33,608.94 L 2033.33,617.682 L 2036.17,617.682 C 2036.81,617.682 2037.35,617.617 2037.79,617.487 C 2038.24,617.357 2038.6,617.176 2038.88,616.944 C 2039.17,616.711 2039.37,616.437 2039.5,616.12 C 2039.63,615.804 2039.69,615.46 2039.69,615.087 C 2039.69,614.803 2039.65,614.535 2039.58,614.282 C 2039.5,614.03 2039.39,613.796 2039.24,613.582 C 2039.09,613.368 2038.9,613.177 2038.68,613.008 C 2038.47,612.84 2038.22,612.702 2037.93,612.594 C 2038.07,612.526 2038.19,612.442 2038.31,612.342 C 2038.43,612.242 2038.53,612.121 2038.62,611.977 L 2040.48,608.94 L 2038.65,608.94 C 2038.31,608.94 2038.06,609.068 2037.91,609.324 L 2036.46,611.862 C 2036.4,611.974 2036.32,612.054 2036.24,612.102 C 2036.15,612.151 2036.03,612.175 2035.87,612.174 L 2035.36,612.174 Z M 2035.36,613.572 L 2036.17,613.572 C 2036.45,613.572 2036.68,613.607 2036.88,613.677 C 2037.07,613.747 2037.23,613.844 2037.36,613.968 C 2037.48,614.092 2037.57,614.237 2037.63,614.403 C 2037.68,614.569 2037.71,614.748 2037.71,614.94 C 2037.71,615.325 2037.59,615.625 2037.34,615.841 C 2037.09,616.057 2036.7,616.165 2036.17,616.165 L 2035.36,616.165 L 2035.36,613.572 Z" marker-start="none" marker-end="none"/>
   <path d="M 2047.3,617.685 L 2047.3,616.077 L 2044.84,616.077 L 2044.84,608.942 L 2042.81,608.942 L 2042.81,616.077 L 2040.35,616.077 L 2040.35,617.685 L 2047.3,617.685 Z" marker-start="none" marker-end="none"/>
  </g>
  <g id="Group_1" fill="#000000" fill-rule="nonzero" stroke-linejoin="round" stroke-linecap="round" stroke="none" stroke-width="0.25">
   <path d="M 2019.39,594.498 L 2019.39,603.24 L 2022.61,603.24 C 2023.21,603.24 2023.72,603.184 2024.15,603.072 C 2024.57,602.96 2024.92,602.803 2025.18,602.599 C 2025.45,602.395 2025.65,602.147 2025.77,601.855 C 2025.89,601.563 2025.95,601.237 2025.95,600.877 C 2025.95,600.681 2025.93,600.492 2025.87,600.31 C 2025.81,600.128 2025.73,599.957 2025.61,599.797 C 2025.49,599.637 2025.33,599.492 2025.14,599.362 C 2024.96,599.232 2024.73,599.119 2024.47,599.023 C 2025.04,598.883 2025.47,598.656 2025.74,598.342 C 2026.02,598.028 2026.16,597.625 2026.16,597.133 C 2026.16,596.761 2026.09,596.415 2025.94,596.094 C 2025.8,595.774 2025.59,595.495 2025.31,595.257 C 2025.03,595.019 2024.69,594.833 2024.28,594.699 C 2023.87,594.565 2023.41,594.498 2022.88,594.498 L 2019.39,594.498 Z M 2021.42,598.207 L 2021.42,596.027 L 2022.85,596.027 C 2023.11,596.027 2023.33,596.061 2023.5,596.129 C 2023.67,596.198 2023.81,596.286 2023.9,596.394 C 2024,596.502 2024.06,596.624 2024.1,596.76 C 2024.14,596.896 2024.15,597.034 2024.15,597.174 C 2024.15,597.334 2024.13,597.478 2024.09,597.607 C 2024.05,597.735 2023.98,597.843 2023.87,597.931 C 2023.77,598.019 2023.64,598.087 2023.47,598.135 C 2023.3,598.183 2023.09,598.207 2022.83,598.207 L 2021.42,598.207 Z M 2021.42,599.564 L 2022.47,599.564 C 2022.7,599.564 2022.9,599.58 2023.08,599.611 C 2023.26,599.644 2023.41,599.7 2023.54,599.779 C 2023.66,599.859 2023.76,599.969 2023.83,600.109 C 2023.89,600.249 2023.93,600.425 2023.93,600.637 C 2023.93,600.845 2023.9,601.018 2023.85,601.156 C 2023.8,601.294 2023.72,601.405 2023.61,601.489 C 2023.5,601.573 2023.36,601.633 2023.2,601.669 C 2023.03,601.705 2022.83,601.723 2022.61,601.723 L 2021.42,601.723 L 2021.42,599.564 Z" marker-start="none" marker-end="none"/>
   <path d="M 2029.48,594.498 L 2027.44,594.498 L 2027.44,603.243 L 2029.48,603.243 L 2029.48,594.498 Z" marker-start="none" marker-end="none"/>
   <path d="M 2039.03,598.874 C 2039.03,598.241 2038.92,597.658 2038.7,597.124 C 2038.48,596.59 2038.18,596.128 2037.78,595.738 C 2037.38,595.347 2036.91,595.043 2036.35,594.825 C 2035.79,594.607 2035.17,594.498 2034.49,594.498 L 2031.1,594.498 L 2031.1,603.243 L 2034.49,603.243 C 2035.17,603.243 2035.79,603.133 2036.35,602.913 C 2036.91,602.693 2037.38,602.389 2037.78,602.001 C 2038.18,601.613 2038.48,601.152 2038.7,600.617 C 2038.92,600.083 2039.03,599.502 2039.03,598.874 Z M 2036.95,598.874 C 2036.95,599.306 2036.9,599.696 2036.78,600.044 C 2036.67,600.392 2036.51,600.687 2036.3,600.929 C 2036.09,601.171 2035.83,601.357 2035.53,601.487 C 2035.23,601.617 2034.88,601.682 2034.49,601.682 L 2033.14,601.682 L 2033.14,596.06 L 2034.49,596.06 C 2034.88,596.06 2035.23,596.125 2035.53,596.255 C 2035.83,596.385 2036.09,596.571 2036.3,596.813 C 2036.51,597.055 2036.67,597.35 2036.78,597.698 C 2036.9,598.046 2036.95,598.438 2036.95,598.874 Z" marker-start="none" marker-end="none"/>
  </g>
  <path d="M 2010.12,542.193 C 2001.22,552.733 2002.54,568.519 2013.1,577.402 C 2023.63,586.316 2039.39,584.985 2048.29,574.446 C 2057.21,563.907 2055.87,548.133 2045.32,539.23 C 2034.79,530.333 2019.01,531.665 2010.12,542.193 Z" stroke="none" fill="#e5e5e5" stroke-width="1.038" stroke-linejoin="miter" marker-start="none" marker-end="none"/>
  <path d="M 2010.12,542.193 C 2001.22,552.733 2002.54,568.519 2013.1,577.402 C 2023.63,586.316 2039.39,584.985 2048.29,574.446 C 2057.21,563.907 2055.87,548.133 2045.32,539.23 C 2034.79,530.333 2019.01,531.665 2010.12,542.193 Z" stroke="none" fill="#e5e5e5" stroke-width="1.038" stroke-linejoin="miter" marker-start="none" marker-end="none"/>
  <path d="M 2010.12,542.193 C 2001.22,552.733 2002.54,568.519 2013.1,577.402 C 2023.63,586.316 2039.39,584.985 2048.29,574.446 C 2057.21,563.907 2055.87,548.133 2045.32,539.23 C 2034.79,530.333 2019.01,531.665 2010.12,542.193 Z" stroke="none" fill="#ffffff" stroke-width="1.038" stroke-linejoin="miter" marker-start="none" marker-end="none"/>
  <path d="M 2010.11,542.213 C 2001.22,552.757 2002.54,568.51 2013.08,577.428 C 2023.63,586.301 2039.39,584.986 2048.31,574.447 C 2057.2,563.91 2055.87,548.127 2045.32,539.231 C 2034.8,530.335 2019.02,531.659 2010.11,542.213 Z" fill="none" stroke="#539bc5" stroke-width="5.657" stroke-linejoin="miter" marker-start="none" marker-end="none"/>
 </g>
 <g id="Layer 2 - grids" transform="scale(1 -1)"/>
 <g id="Layer 1" transform="scale(1 -1)"/>
</svg>
