<?xml version="1.0" standalone="no"?>
<!DOCTYPE svg PUBLIC "-//W3C//DTD SVG 1.1//EN" "http://www.w3.org/Graphics/SVG/1.1/DTD/svg11.dtd">
<!--Generator: Xara Designer (www.xara.com), SVG filter version: 6.6.0.0-->
<svg fill="none" fill-rule="evenodd" stroke="black" stroke-width="0.501" stroke-linejoin="bevel" stroke-miterlimit="10" font-family="Times New Roman" font-size="16" style="font-variant-ligatures:none" xmlns:xlink="http://www.w3.org/1999/xlink" xmlns="http://www.w3.org/2000/svg" version="1.1" overflow="visible" width="107.718pt" height="107.72pt" viewBox="1704.94 -625.22 107.718 107.72">
 <defs>
	</defs>
 <g id="Grid 36x36mm" transform="scale(1 -1)">
  <path d="M 1704.94,532.714 L 1704.94,610.006 C 1704.94,618.404 1711.75,625.22 1720.15,625.22 L 1758.79,625.218 L 1758.79,625.218 L 1758.79,624.371 L 1720.88,624.371 C 1712.55,624.371 1705.79,617.609 1705.79,609.278 L 1705.79,533.442 C 1705.79,525.111 1712.55,518.349 1720.88,518.349 L 1758.79,518.349 L 1758.79,517.502 L 1758.79,517.502 L 1720.15,517.5 C 1711.75,517.5 1704.94,524.316 1704.94,532.714 Z M 1797.44,517.5 L 1758.8,517.502 L 1758.81,517.502 L 1758.8,518.349 L 1796.71,518.349 C 1805.04,518.349 1811.81,525.111 1811.81,533.442 L 1811.81,609.278 C 1811.81,617.609 1805.04,624.371 1796.71,624.371 L 1758.8,624.371 L 1758.81,625.218 L 1758.8,625.218 L 1797.44,625.22 C 1805.84,625.22 1812.65,618.404 1812.65,610.006 L 1812.65,532.714 C 1812.65,524.316 1805.84,517.5 1797.44,517.5 Z" fill="#ffffff" stroke-linejoin="miter" stroke-width="0.802" stroke="none" marker-start="none" marker-end="none"/>
  <g id="Group" fill="#000000" fill-rule="nonzero" stroke-linejoin="round" stroke-linecap="round" stroke="none" stroke-width="0.25">
   <path d="M 1746.21,615.605 C 1746.15,615.509 1746.09,615.437 1746.02,615.389 C 1745.96,615.341 1745.87,615.317 1745.77,615.317 C 1745.68,615.317 1745.58,615.346 1745.47,615.404 C 1745.37,615.462 1745.25,615.527 1745.11,615.599 C 1744.98,615.671 1744.82,615.736 1744.65,615.794 C 1744.48,615.852 1744.28,615.881 1744.06,615.881 C 1743.68,615.881 1743.4,615.8 1743.22,615.638 C 1743.03,615.476 1742.94,615.257 1742.94,614.981 C 1742.94,614.805 1742.99,614.659 1743.1,614.543 C 1743.22,614.427 1743.36,614.327 1743.55,614.243 C 1743.73,614.159 1743.93,614.082 1744.17,614.012 C 1744.4,613.942 1744.64,613.864 1744.89,613.778 C 1745.13,613.692 1745.37,613.591 1745.6,613.475 C 1745.84,613.359 1746.05,613.211 1746.23,613.031 C 1746.41,612.851 1746.56,612.632 1746.67,612.374 C 1746.78,612.116 1746.84,611.805 1746.84,611.441 C 1746.84,611.037 1746.77,610.659 1746.63,610.307 C 1746.49,609.955 1746.28,609.648 1746.02,609.386 C 1745.75,609.124 1745.42,608.918 1745.03,608.767 C 1744.64,608.617 1744.2,608.542 1743.7,608.542 C 1743.43,608.542 1743.16,608.57 1742.87,608.626 C 1742.59,608.682 1742.32,608.761 1742.05,608.863 C 1741.79,608.966 1741.54,609.087 1741.31,609.227 C 1741.08,609.367 1740.88,609.523 1740.7,609.695 L 1741.3,610.643 C 1741.35,610.715 1741.41,610.773 1741.49,610.817 C 1741.57,610.861 1741.66,610.883 1741.75,610.883 C 1741.87,610.883 1741.99,610.845 1742.11,610.769 C 1742.23,610.693 1742.37,610.609 1742.53,610.517 C 1742.68,610.425 1742.86,610.341 1743.06,610.265 C 1743.26,610.189 1743.49,610.151 1743.76,610.151 C 1744.13,610.151 1744.42,610.232 1744.62,610.394 C 1744.83,610.556 1744.93,610.813 1744.93,611.165 C 1744.93,611.369 1744.87,611.535 1744.76,611.663 C 1744.65,611.791 1744.5,611.897 1744.32,611.981 C 1744.14,612.065 1743.93,612.139 1743.7,612.203 C 1743.47,612.267 1743.23,612.338 1742.98,612.416 C 1742.74,612.494 1742.5,612.59 1742.27,612.704 C 1742.04,612.818 1741.83,612.968 1741.65,613.154 C 1741.47,613.34 1741.32,613.572 1741.21,613.85 C 1741.1,614.129 1741.04,614.472 1741.04,614.88 C 1741.04,615.208 1741.11,615.528 1741.24,615.84 C 1741.37,616.152 1741.56,616.43 1741.82,616.674 C 1742.08,616.918 1742.39,617.113 1742.76,617.259 C 1743.13,617.405 1743.56,617.478 1744.04,617.478 C 1744.31,617.478 1744.57,617.457 1744.82,617.415 C 1745.08,617.373 1745.32,617.311 1745.55,617.229 C 1745.77,617.147 1745.99,617.049 1746.18,616.935 C 1746.38,616.821 1746.56,616.692 1746.72,616.548 L 1746.21,615.605 Z" marker-start="none" marker-end="none"/>
   <path d="M 1754.19,617.384 L 1754.19,615.776 L 1751.73,615.776 L 1751.73,608.641 L 1749.7,608.641 L 1749.7,615.776 L 1747.24,615.776 L 1747.24,617.384 L 1754.19,617.384 Z" marker-start="none" marker-end="none"/>
   <path d="M 1762.21,608.639 L 1760.64,608.639 C 1760.46,608.639 1760.32,608.68 1760.2,608.762 C 1760.09,608.844 1760.01,608.949 1759.97,609.077 L 1759.45,610.602 L 1756.13,610.602 L 1755.61,609.077 C 1755.57,608.965 1755.49,608.864 1755.38,608.774 C 1755.26,608.684 1755.12,608.639 1754.95,608.639 L 1753.37,608.639 L 1756.75,617.383 L 1758.83,617.383 L 1762.21,608.639 Z M 1756.59,611.982 L 1758.98,611.982 L 1758.18,614.339 C 1758.13,614.489 1758.07,614.665 1758,614.868 C 1757.93,615.071 1757.86,615.291 1757.79,615.527 C 1757.72,615.287 1757.66,615.064 1757.59,614.859 C 1757.52,614.655 1757.46,614.477 1757.4,614.328 L 1756.59,611.982 Z" marker-start="none" marker-end="none"/>
   <path d="M 1764.94,611.873 L 1764.94,608.639 L 1762.92,608.639 L 1762.92,617.381 L 1765.76,617.381 C 1766.39,617.381 1766.93,617.316 1767.38,617.186 C 1767.82,617.056 1768.19,616.875 1768.47,616.643 C 1768.75,616.41 1768.96,616.136 1769.08,615.819 C 1769.21,615.503 1769.28,615.159 1769.28,614.786 C 1769.28,614.502 1769.24,614.234 1769.16,613.981 C 1769.09,613.729 1768.97,613.495 1768.82,613.281 C 1768.67,613.067 1768.49,612.876 1768.27,612.707 C 1768.05,612.539 1767.8,612.401 1767.52,612.293 C 1767.65,612.225 1767.78,612.141 1767.9,612.041 C 1768.02,611.941 1768.12,611.82 1768.21,611.676 L 1770.07,608.639 L 1768.23,608.639 C 1767.89,608.639 1767.65,608.767 1767.5,609.023 L 1766.05,611.561 C 1765.98,611.673 1765.91,611.753 1765.82,611.801 C 1765.74,611.85 1765.62,611.874 1765.46,611.873 L 1764.94,611.873 Z M 1764.94,613.271 L 1765.76,613.271 C 1766.04,613.271 1766.27,613.306 1766.47,613.376 C 1766.66,613.446 1766.82,613.543 1766.94,613.667 C 1767.07,613.791 1767.16,613.936 1767.21,614.102 C 1767.27,614.268 1767.3,614.447 1767.3,614.639 C 1767.3,615.024 1767.17,615.324 1766.92,615.54 C 1766.67,615.756 1766.28,615.864 1765.76,615.864 L 1764.94,615.864 L 1764.94,613.271 Z" marker-start="none" marker-end="none"/>
   <path d="M 1776.89,617.384 L 1776.89,615.776 L 1774.43,615.776 L 1774.43,608.641 L 1772.4,608.641 L 1772.4,615.776 L 1769.94,615.776 L 1769.94,617.384 L 1776.89,617.384 Z" marker-start="none" marker-end="none"/>
  </g>
  <g id="Group_1" fill="#000000" fill-rule="nonzero" stroke-linejoin="round" stroke-linecap="round" stroke="none" stroke-width="0.25">
   <path d="M 1748.98,594.197 L 1748.98,602.939 L 1752.19,602.939 C 1752.8,602.939 1753.31,602.883 1753.73,602.771 C 1754.16,602.659 1754.5,602.502 1754.77,602.298 C 1755.04,602.094 1755.23,601.846 1755.36,601.554 C 1755.48,601.262 1755.54,600.936 1755.54,600.576 C 1755.54,600.38 1755.51,600.191 1755.45,600.009 C 1755.4,599.827 1755.31,599.656 1755.19,599.496 C 1755.07,599.336 1754.92,599.191 1754.73,599.061 C 1754.54,598.931 1754.32,598.818 1754.05,598.722 C 1754.63,598.582 1755.05,598.355 1755.33,598.041 C 1755.61,597.727 1755.74,597.324 1755.74,596.832 C 1755.74,596.46 1755.67,596.114 1755.53,595.793 C 1755.38,595.473 1755.17,595.194 1754.89,594.956 C 1754.62,594.718 1754.27,594.532 1753.87,594.398 C 1753.46,594.264 1752.99,594.197 1752.47,594.197 L 1748.98,594.197 Z M 1751,597.906 L 1751,595.726 L 1752.43,595.726 C 1752.7,595.726 1752.92,595.76 1753.09,595.828 C 1753.26,595.897 1753.39,595.985 1753.49,596.093 C 1753.58,596.201 1753.65,596.323 1753.68,596.459 C 1753.72,596.595 1753.74,596.733 1753.74,596.873 C 1753.74,597.033 1753.72,597.177 1753.68,597.306 C 1753.63,597.434 1753.56,597.542 1753.46,597.63 C 1753.36,597.718 1753.22,597.786 1753.06,597.834 C 1752.89,597.882 1752.68,597.906 1752.42,597.906 L 1751,597.906 Z M 1751,599.263 L 1752.06,599.263 C 1752.28,599.263 1752.49,599.279 1752.67,599.31 C 1752.85,599.343 1753,599.399 1753.12,599.478 C 1753.25,599.558 1753.35,599.668 1753.41,599.808 C 1753.48,599.948 1753.51,600.124 1753.51,600.336 C 1753.51,600.544 1753.49,600.717 1753.43,600.855 C 1753.38,600.993 1753.3,601.104 1753.19,601.188 C 1753.09,601.272 1752.95,601.332 1752.78,601.368 C 1752.62,601.404 1752.42,601.422 1752.19,601.422 L 1751,601.422 L 1751,599.263 Z" marker-start="none" marker-end="none"/>
   <path d="M 1759.06,594.197 L 1757.02,594.197 L 1757.02,602.942 L 1759.06,602.942 L 1759.06,594.197 Z" marker-start="none" marker-end="none"/>
   <path d="M 1768.61,598.573 C 1768.61,597.94 1768.51,597.357 1768.29,596.823 C 1768.07,596.289 1767.76,595.827 1767.37,595.437 C 1766.97,595.046 1766.49,594.742 1765.93,594.524 C 1765.38,594.306 1764.76,594.197 1764.08,594.197 L 1760.68,594.197 L 1760.68,602.942 L 1764.08,602.942 C 1764.76,602.942 1765.38,602.832 1765.93,602.612 C 1766.49,602.392 1766.97,602.088 1767.37,601.7 C 1767.76,601.312 1768.07,600.851 1768.29,600.316 C 1768.51,599.782 1768.61,599.201 1768.61,598.573 Z M 1766.54,598.573 C 1766.54,599.005 1766.48,599.395 1766.37,599.743 C 1766.26,600.091 1766.1,600.386 1765.89,600.628 C 1765.68,600.87 1765.42,601.056 1765.12,601.186 C 1764.81,601.316 1764.47,601.381 1764.08,601.381 L 1762.72,601.381 L 1762.72,595.759 L 1764.08,595.759 C 1764.47,595.759 1764.81,595.824 1765.12,595.954 C 1765.42,596.084 1765.68,596.27 1765.89,596.512 C 1766.1,596.754 1766.26,597.049 1766.37,597.397 C 1766.48,597.745 1766.54,598.137 1766.54,598.573 Z" marker-start="none" marker-end="none"/>
  </g>
  <path d="M 1739.7,541.892 C 1730.81,552.432 1732.13,568.218 1742.68,577.101 C 1753.21,586.015 1768.98,584.684 1777.88,574.145 C 1786.79,563.606 1785.46,547.832 1774.9,538.929 C 1764.37,530.032 1748.6,531.364 1739.7,541.892 Z" stroke="none" fill="#e5e5e5" stroke-width="1.038" stroke-linejoin="miter" marker-start="none" marker-end="none"/>
  <path d="M 1739.7,541.892 C 1730.81,552.432 1732.13,568.218 1742.68,577.101 C 1753.21,586.015 1768.98,584.684 1777.88,574.145 C 1786.79,563.606 1785.46,547.832 1774.9,538.929 C 1764.37,530.032 1748.6,531.364 1739.7,541.892 Z" stroke="none" fill="#e5e5e5" stroke-width="1.038" stroke-linejoin="miter" marker-start="none" marker-end="none"/>
  <path d="M 1739.7,541.892 C 1730.81,552.432 1732.13,568.218 1742.68,577.101 C 1753.21,586.015 1768.98,584.684 1777.88,574.145 C 1786.79,563.606 1785.46,547.832 1774.9,538.929 C 1764.37,530.032 1748.6,531.364 1739.7,541.892 Z" stroke="none" fill="#ffffff" stroke-width="1.038" stroke-linejoin="miter" marker-start="none" marker-end="none"/>
  <path d="M 1739.7,541.912 C 1730.81,552.456 1732.13,568.209 1742.67,577.127 C 1753.21,586 1768.98,584.685 1777.9,574.146 C 1786.79,563.609 1785.46,547.826 1774.91,538.93 C 1764.38,530.034 1748.6,531.358 1739.7,541.912 Z" fill="none" stroke="#539bc5" stroke-width="5.657" stroke-linejoin="miter" marker-start="none" marker-end="none"/>
  <g id="Group_2" fill-rule="nonzero" stroke-linejoin="round" stroke-linecap="round" stroke="none" stroke-width="0.935" fill="#000000">
   <g id="Group_3">
    <path d="M 1767.26,565.394 C 1767.26,563.726 1766.75,562.307 1765.74,561.137 C 1764.73,559.968 1763.31,559.164 1761.48,558.725 L 1761.48,558.615 C 1763.64,558.348 1765.27,557.693 1766.38,556.651 C 1767.49,555.61 1768.04,554.206 1768.04,552.44 C 1768.04,549.869 1767.11,547.869 1765.24,546.438 C 1763.38,545.006 1760.72,544.291 1757.26,544.291 C 1754.36,544.291 1751.79,544.771 1749.55,545.734 L 1749.55,550.539 C 1750.58,550.015 1751.72,549.589 1752.97,549.26 C 1754.21,548.931 1755.44,548.767 1756.66,548.767 C 1758.52,548.767 1759.9,549.084 1760.79,549.717 C 1761.68,550.351 1762.12,551.368 1762.12,552.768 C 1762.12,554.023 1761.61,554.912 1760.59,555.436 C 1759.56,555.96 1757.93,556.222 1755.69,556.222 L 1753.66,556.222 L 1753.66,560.552 L 1755.73,560.552 C 1757.8,560.552 1759.31,560.824 1760.27,561.365 C 1761.22,561.908 1761.7,562.837 1761.7,564.152 C 1761.7,566.174 1760.43,567.185 1757.9,567.185 C 1757.02,567.185 1756.13,567.039 1755.22,566.747 C 1754.32,566.454 1753.31,565.948 1752.2,565.23 L 1749.59,569.122 C 1752.02,570.876 1754.93,571.753 1758.3,571.753 C 1761.07,571.753 1763.25,571.193 1764.85,570.072 C 1766.45,568.951 1767.26,567.392 1767.26,565.394 Z" marker-start="none" marker-end="none"/>
   </g>
  </g>
 </g>
 <g id="Layer 2 - grids" transform="scale(1 -1)"/>
 <g id="Layer 1" transform="scale(1 -1)"/>
</svg>
