<?xml version="1.0" standalone="no"?>
<!DOCTYPE svg PUBLIC "-//W3C//DTD SVG 1.1//EN" "http://www.w3.org/Graphics/SVG/1.1/DTD/svg11.dtd">
<!--Generator: Xara Designer (www.xara.com), SVG filter version: 6.6.0.0-->
<svg fill="none" fill-rule="evenodd" stroke="black" stroke-width="0.501" stroke-linejoin="bevel" stroke-miterlimit="10" font-family="Times New Roman" font-size="16" style="font-variant-ligatures:none" xmlns:xlink="http://www.w3.org/1999/xlink" xmlns="http://www.w3.org/2000/svg" version="1.1" overflow="visible" width="107.718pt" height="107.72pt" viewBox="1549.12 -627.657 107.718 107.72">
 <defs>
	</defs>
 <g id="Grid 36x36mm" transform="scale(1 -1)">
  <g id="Group">
   <path d="M 1549.12,535.151 L 1549.12,612.443 C 1549.12,620.841 1555.94,627.657 1564.33,627.657 L 1602.98,627.655 L 1602.97,627.655 L 1602.98,573.797 L 1602.99,627.655 L 1602.98,627.655 L 1641.63,627.657 C 1650.03,627.657 1656.84,620.841 1656.84,612.443 L 1656.84,535.151 C 1656.84,526.753 1650.03,519.937 1641.63,519.937 L 1602.98,519.939 L 1602.99,519.939 L 1602.98,573.797 L 1602.97,519.939 L 1602.98,519.939 L 1564.33,519.937 C 1555.94,519.937 1549.12,526.753 1549.12,535.151 Z" stroke="none" fill="#ffffff" stroke-width="0.802" stroke-linejoin="miter" marker-start="none" marker-end="none"/>
   <path d="M 1549.97,535.879 L 1549.97,611.715 C 1549.97,620.046 1556.73,626.808 1565.06,626.808 L 1640.9,626.808 C 1649.23,626.808 1655.99,620.046 1655.99,611.715 L 1655.99,535.879 C 1655.99,527.548 1649.23,520.786 1640.9,520.786 L 1565.06,520.786 C 1556.73,520.786 1549.97,527.548 1549.97,535.879 Z" stroke="none" fill="#e5e5e5" stroke-width="0.801" stroke-linejoin="miter" marker-start="none" marker-end="none"/>
   <g id="Group_1" fill="#000000" fill-rule="nonzero" stroke-linejoin="round" stroke-linecap="round" stroke="none" stroke-width="0.25">
    <path d="M 1590.4,618.042 C 1590.34,617.946 1590.28,617.874 1590.21,617.826 C 1590.14,617.778 1590.06,617.754 1589.95,617.754 C 1589.86,617.754 1589.76,617.783 1589.66,617.841 C 1589.55,617.899 1589.43,617.964 1589.3,618.036 C 1589.16,618.108 1589.01,618.173 1588.84,618.231 C 1588.67,618.289 1588.47,618.318 1588.25,618.318 C 1587.87,618.318 1587.59,618.237 1587.4,618.075 C 1587.22,617.913 1587.12,617.694 1587.12,617.418 C 1587.12,617.242 1587.18,617.096 1587.29,616.98 C 1587.4,616.864 1587.55,616.764 1587.73,616.68 C 1587.91,616.596 1588.12,616.519 1588.36,616.449 C 1588.59,616.379 1588.83,616.301 1589.07,616.215 C 1589.32,616.129 1589.56,616.028 1589.79,615.912 C 1590.02,615.796 1590.23,615.648 1590.41,615.468 C 1590.6,615.288 1590.74,615.069 1590.85,614.811 C 1590.97,614.553 1591.02,614.242 1591.02,613.878 C 1591.02,613.474 1590.95,613.096 1590.81,612.744 C 1590.67,612.392 1590.47,612.085 1590.2,611.823 C 1589.94,611.561 1589.61,611.355 1589.22,611.204 C 1588.83,611.054 1588.39,610.979 1587.89,610.979 C 1587.62,610.979 1587.34,611.007 1587.06,611.063 C 1586.78,611.119 1586.5,611.198 1586.24,611.3 C 1585.98,611.403 1585.73,611.524 1585.5,611.664 C 1585.26,611.804 1585.06,611.96 1584.89,612.132 L 1585.49,613.08 C 1585.53,613.152 1585.6,613.21 1585.68,613.254 C 1585.76,613.298 1585.84,613.32 1585.93,613.32 C 1586.05,613.32 1586.18,613.282 1586.3,613.206 C 1586.42,613.13 1586.56,613.046 1586.71,612.954 C 1586.87,612.862 1587.04,612.778 1587.24,612.702 C 1587.44,612.626 1587.68,612.588 1587.95,612.588 C 1588.32,612.588 1588.6,612.669 1588.81,612.831 C 1589.01,612.993 1589.11,613.25 1589.11,613.602 C 1589.11,613.806 1589.06,613.972 1588.95,614.1 C 1588.83,614.228 1588.69,614.334 1588.51,614.418 C 1588.32,614.502 1588.12,614.576 1587.88,614.64 C 1587.65,614.704 1587.41,614.775 1587.17,614.853 C 1586.93,614.931 1586.69,615.027 1586.46,615.141 C 1586.22,615.255 1586.02,615.405 1585.84,615.591 C 1585.65,615.777 1585.51,616.009 1585.39,616.287 C 1585.28,616.566 1585.23,616.909 1585.23,617.317 C 1585.23,617.645 1585.29,617.965 1585.42,618.277 C 1585.56,618.589 1585.75,618.867 1586.01,619.111 C 1586.26,619.355 1586.58,619.55 1586.95,619.696 C 1587.32,619.842 1587.75,619.915 1588.23,619.915 C 1588.49,619.915 1588.76,619.894 1589.01,619.852 C 1589.26,619.81 1589.5,619.748 1589.73,619.666 C 1589.96,619.584 1590.17,619.486 1590.37,619.372 C 1590.57,619.258 1590.75,619.129 1590.9,618.985 L 1590.4,618.042 Z" marker-start="none" marker-end="none"/>
    <path d="M 1598.38,619.821 L 1598.38,618.213 L 1595.92,618.213 L 1595.92,611.078 L 1593.89,611.078 L 1593.89,618.213 L 1591.43,618.213 L 1591.43,619.821 L 1598.38,619.821 Z" marker-start="none" marker-end="none"/>
    <path d="M 1606.4,611.076 L 1604.82,611.076 C 1604.65,611.076 1604.5,611.117 1604.39,611.199 C 1604.28,611.281 1604.2,611.386 1604.15,611.514 L 1603.64,613.039 L 1600.31,613.039 L 1599.8,611.514 C 1599.76,611.402 1599.68,611.301 1599.56,611.211 C 1599.45,611.121 1599.3,611.076 1599.14,611.076 L 1597.55,611.076 L 1600.94,619.82 L 1603.01,619.82 L 1606.4,611.076 Z M 1600.78,614.419 L 1603.17,614.419 L 1602.36,616.776 C 1602.31,616.926 1602.25,617.102 1602.18,617.305 C 1602.11,617.508 1602.04,617.728 1601.97,617.964 C 1601.91,617.724 1601.84,617.501 1601.78,617.296 C 1601.71,617.092 1601.64,616.914 1601.58,616.765 L 1600.78,614.419 Z" marker-start="none" marker-end="none"/>
    <path d="M 1609.13,614.31 L 1609.13,611.076 L 1607.1,611.076 L 1607.1,619.818 L 1609.95,619.818 C 1610.58,619.818 1611.12,619.753 1611.56,619.623 C 1612.01,619.493 1612.37,619.312 1612.66,619.08 C 1612.94,618.847 1613.14,618.573 1613.27,618.256 C 1613.4,617.94 1613.46,617.596 1613.46,617.223 C 1613.46,616.939 1613.42,616.671 1613.35,616.418 C 1613.27,616.166 1613.16,615.932 1613.01,615.718 C 1612.86,615.504 1612.68,615.313 1612.46,615.144 C 1612.24,614.976 1611.99,614.838 1611.7,614.73 C 1611.84,614.662 1611.97,614.578 1612.09,614.478 C 1612.2,614.378 1612.31,614.257 1612.39,614.113 L 1614.25,611.076 L 1612.42,611.076 C 1612.08,611.076 1611.83,611.204 1611.69,611.46 L 1610.23,613.998 C 1610.17,614.11 1610.1,614.19 1610.01,614.238 C 1609.92,614.287 1609.8,614.311 1609.65,614.31 L 1609.13,614.31 Z M 1609.13,615.708 L 1609.95,615.708 C 1610.22,615.708 1610.46,615.743 1610.65,615.813 C 1610.85,615.883 1611,615.98 1611.13,616.104 C 1611.25,616.228 1611.34,616.373 1611.4,616.539 C 1611.45,616.705 1611.48,616.884 1611.48,617.076 C 1611.48,617.461 1611.36,617.761 1611.11,617.977 C 1610.86,618.193 1610.47,618.301 1609.95,618.301 L 1609.13,618.301 L 1609.13,615.708 Z" marker-start="none" marker-end="none"/>
    <path d="M 1621.07,619.821 L 1621.07,618.213 L 1618.61,618.213 L 1618.61,611.078 L 1616.58,611.078 L 1616.58,618.213 L 1614.12,618.213 L 1614.12,619.821 L 1621.07,619.821 Z" marker-start="none" marker-end="none"/>
   </g>
   <g id="Group_2" fill="#000000" fill-rule="nonzero" stroke-linejoin="round" stroke-linecap="round" stroke="none" stroke-width="0.25">
    <path d="M 1593.16,596.634 L 1593.16,605.376 L 1596.38,605.376 C 1596.98,605.376 1597.5,605.32 1597.92,605.208 C 1598.34,605.096 1598.69,604.939 1598.96,604.735 C 1599.23,604.531 1599.42,604.283 1599.54,603.991 C 1599.66,603.699 1599.73,603.373 1599.73,603.013 C 1599.73,602.817 1599.7,602.628 1599.64,602.446 C 1599.59,602.264 1599.5,602.093 1599.38,601.933 C 1599.26,601.773 1599.1,601.628 1598.92,601.498 C 1598.73,601.368 1598.5,601.255 1598.24,601.159 C 1598.81,601.019 1599.24,600.792 1599.52,600.478 C 1599.79,600.164 1599.93,599.761 1599.93,599.269 C 1599.93,598.897 1599.86,598.551 1599.71,598.23 C 1599.57,597.91 1599.36,597.631 1599.08,597.393 C 1598.8,597.155 1598.46,596.969 1598.05,596.835 C 1597.64,596.701 1597.18,596.634 1596.65,596.634 L 1593.16,596.634 Z M 1595.19,600.343 L 1595.19,598.163 L 1596.62,598.163 C 1596.89,598.163 1597.1,598.197 1597.27,598.265 C 1597.44,598.334 1597.58,598.422 1597.67,598.53 C 1597.77,598.638 1597.84,598.76 1597.87,598.896 C 1597.91,599.032 1597.93,599.17 1597.93,599.31 C 1597.93,599.47 1597.9,599.614 1597.86,599.743 C 1597.82,599.871 1597.75,599.979 1597.65,600.067 C 1597.54,600.155 1597.41,600.223 1597.24,600.271 C 1597.07,600.319 1596.86,600.343 1596.61,600.343 L 1595.19,600.343 Z M 1595.19,601.7 L 1596.25,601.7 C 1596.47,601.7 1596.67,601.716 1596.85,601.747 C 1597.03,601.78 1597.18,601.836 1597.31,601.915 C 1597.44,601.995 1597.53,602.105 1597.6,602.245 C 1597.66,602.385 1597.7,602.561 1597.7,602.773 C 1597.7,602.981 1597.67,603.154 1597.62,603.292 C 1597.57,603.43 1597.49,603.541 1597.38,603.625 C 1597.27,603.709 1597.13,603.769 1596.97,603.805 C 1596.8,603.841 1596.61,603.859 1596.38,603.859 L 1595.19,603.859 L 1595.19,601.7 Z" marker-start="none" marker-end="none"/>
    <path d="M 1603.25,596.634 L 1601.21,596.634 L 1601.21,605.379 L 1603.25,605.379 L 1603.25,596.634 Z" marker-start="none" marker-end="none"/>
    <path d="M 1612.8,601.01 C 1612.8,600.377 1612.69,599.794 1612.47,599.26 C 1612.26,598.726 1611.95,598.264 1611.55,597.874 C 1611.16,597.483 1610.68,597.179 1610.12,596.961 C 1609.56,596.743 1608.94,596.634 1608.26,596.634 L 1604.87,596.634 L 1604.87,605.379 L 1608.26,605.379 C 1608.94,605.379 1609.56,605.269 1610.12,605.049 C 1610.68,604.829 1611.16,604.525 1611.55,604.137 C 1611.95,603.749 1612.26,603.288 1612.47,602.753 C 1612.69,602.219 1612.8,601.638 1612.8,601.01 Z M 1610.72,601.01 C 1610.72,601.442 1610.67,601.832 1610.56,602.18 C 1610.44,602.528 1610.28,602.823 1610.07,603.065 C 1609.86,603.307 1609.61,603.493 1609.3,603.623 C 1609,603.753 1608.65,603.818 1608.26,603.818 L 1606.91,603.818 L 1606.91,598.196 L 1608.26,598.196 C 1608.65,598.196 1609,598.261 1609.3,598.391 C 1609.61,598.521 1609.86,598.707 1610.07,598.949 C 1610.28,599.191 1610.44,599.486 1610.56,599.834 C 1610.67,600.182 1610.72,600.574 1610.72,601.01 Z" marker-start="none" marker-end="none"/>
   </g>
   <path d="M 1583.89,544.329 C 1574.99,554.869 1576.32,570.655 1586.87,579.538 C 1597.4,588.452 1613.16,587.121 1622.07,576.582 C 1630.98,566.043 1629.64,550.269 1619.09,541.366 C 1608.56,532.469 1592.79,533.801 1583.89,544.329 Z" stroke="none" fill="#e5e5e5" stroke-width="1.038" stroke-linejoin="miter" marker-start="none" marker-end="none"/>
   <path d="M 1583.89,544.329 C 1574.99,554.869 1576.32,570.655 1586.87,579.538 C 1597.4,588.452 1613.16,587.121 1622.07,576.582 C 1630.98,566.043 1629.64,550.269 1619.09,541.366 C 1608.56,532.469 1592.79,533.801 1583.89,544.329 Z" stroke="none" fill="#e5e5e5" stroke-width="1.038" stroke-linejoin="miter" marker-start="none" marker-end="none"/>
   <path d="M 1583.89,544.329 C 1574.99,554.869 1576.32,570.655 1586.87,579.538 C 1597.4,588.452 1613.16,587.121 1622.07,576.582 C 1630.98,566.043 1629.64,550.269 1619.09,541.366 C 1608.56,532.469 1592.79,533.801 1583.89,544.329 Z" stroke="none" fill="#ffffff" stroke-width="1.038" stroke-linejoin="miter" marker-start="none" marker-end="none"/>
   <path d="M 1583.88,544.349 C 1575,554.893 1576.31,570.646 1586.86,579.564 C 1597.4,588.437 1613.17,587.122 1622.08,576.583 C 1630.98,566.046 1629.64,550.263 1619.1,541.367 C 1608.57,532.471 1592.79,533.795 1583.88,544.349 Z" fill="none" stroke="#539bc5" stroke-width="5.657" stroke-linejoin="miter" marker-start="none" marker-end="none"/>
   <g id="Group_3" fill-rule="nonzero" stroke-linejoin="round" stroke-linecap="round" stroke="none" stroke-width="0.935" fill="#000000">
    <g id="Group_4">
     <path d="M 1611.44,567.831 C 1611.44,566.163 1610.93,564.744 1609.92,563.574 C 1608.91,562.405 1607.49,561.601 1605.67,561.162 L 1605.67,561.052 C 1607.82,560.785 1609.45,560.13 1610.56,559.088 C 1611.67,558.047 1612.23,556.643 1612.23,554.877 C 1612.23,552.306 1611.29,550.306 1609.43,548.875 C 1607.57,547.443 1604.91,546.728 1601.45,546.728 C 1598.55,546.728 1595.98,547.208 1593.74,548.171 L 1593.74,552.976 C 1594.77,552.452 1595.91,552.026 1597.15,551.697 C 1598.39,551.368 1599.63,551.204 1600.84,551.204 C 1602.71,551.204 1604.08,551.521 1604.97,552.154 C 1605.86,552.788 1606.31,553.805 1606.31,555.205 C 1606.31,556.46 1605.79,557.349 1604.77,557.873 C 1603.75,558.397 1602.12,558.659 1599.88,558.659 L 1597.85,558.659 L 1597.85,562.989 L 1599.91,562.989 C 1601.98,562.989 1603.5,563.261 1604.45,563.802 C 1605.41,564.345 1605.89,565.274 1605.89,566.589 C 1605.89,568.611 1604.62,569.622 1602.09,569.622 C 1601.21,569.622 1600.32,569.476 1599.41,569.184 C 1598.5,568.891 1597.49,568.385 1596.39,567.667 L 1593.77,571.559 C 1596.21,573.313 1599.11,574.19 1602.49,574.19 C 1605.25,574.19 1607.44,573.63 1609.04,572.509 C 1610.64,571.388 1611.44,569.829 1611.44,567.831 Z" marker-start="none" marker-end="none"/>
    </g>
   </g>
  </g>
 </g>
 <g id="Layer 2 - grids" transform="scale(1 -1)"/>
 <g id="Layer 1" transform="scale(1 -1)"/>
</svg>
