<?xml version="1.0" standalone="no"?>
<!DOCTYPE svg PUBLIC "-//W3C//DTD SVG 1.1//EN" "http://www.w3.org/Graphics/SVG/1.1/DTD/svg11.dtd">
<!--Generator: Xara Designer (www.xara.com), SVG filter version: 6.6.0.0-->
<svg fill="none" fill-rule="evenodd" stroke="black" stroke-width="0.501" stroke-linejoin="bevel" stroke-miterlimit="10" font-family="Times New Roman" font-size="16" style="font-variant-ligatures:none" xmlns:xlink="http://www.w3.org/1999/xlink" xmlns="http://www.w3.org/2000/svg" version="1.1" overflow="visible" width="107.718pt" height="107.72pt" viewBox="1844.91 -624.845 107.718 107.72">
 <defs>
	</defs>
 <g id="Grid 36x36mm" transform="scale(1 -1)">
  <path d="M 1844.91,532.339 L 1844.91,609.631 C 1844.91,618.029 1851.72,624.845 1860.12,624.845 L 1898.76,624.843 L 1898.76,624.843 L 1898.77,570.985 L 1898.78,624.843 L 1898.77,624.843 L 1937.41,624.845 C 1945.81,624.845 1952.62,618.029 1952.62,609.631 L 1952.62,532.339 C 1952.62,523.941 1945.81,517.125 1937.41,517.125 L 1898.77,517.127 L 1898.78,517.127 L 1898.77,570.985 L 1898.76,517.127 L 1898.76,517.127 L 1860.12,517.125 C 1851.72,517.125 1844.91,523.941 1844.91,532.339 Z" stroke="none" fill="#ffffff" stroke-width="0.802" stroke-linejoin="miter" marker-start="none" marker-end="none"/>
  <path d="M 1845.76,533.067 L 1845.76,608.903 C 1845.76,617.234 1852.52,623.996 1860.85,623.996 L 1936.68,623.996 C 1945.01,623.996 1951.78,617.234 1951.78,608.903 L 1951.78,533.067 C 1951.78,524.736 1945.01,517.974 1936.68,517.974 L 1860.85,517.974 C 1852.52,517.974 1845.76,524.736 1845.76,533.067 Z" stroke="none" fill="#e5e5e5" stroke-width="0.801" stroke-linejoin="miter" marker-start="none" marker-end="none"/>
  <g id="Group" fill="#000000" fill-rule="nonzero" stroke-linejoin="round" stroke-linecap="round" stroke="none" stroke-width="0.25">
   <path d="M 1886.18,615.23 C 1886.12,615.134 1886.06,615.062 1885.99,615.014 C 1885.93,614.966 1885.84,614.942 1885.74,614.942 C 1885.65,614.942 1885.55,614.971 1885.44,615.029 C 1885.34,615.087 1885.22,615.152 1885.08,615.224 C 1884.95,615.296 1884.79,615.361 1884.62,615.419 C 1884.45,615.477 1884.25,615.506 1884.03,615.506 C 1883.65,615.506 1883.37,615.425 1883.18,615.263 C 1883,615.101 1882.91,614.882 1882.91,614.606 C 1882.91,614.43 1882.96,614.284 1883.07,614.168 C 1883.19,614.052 1883.33,613.952 1883.52,613.868 C 1883.7,613.784 1883.91,613.707 1884.14,613.637 C 1884.37,613.567 1884.61,613.489 1884.86,613.403 C 1885.1,613.317 1885.34,613.216 1885.57,613.1 C 1885.81,612.984 1886.02,612.836 1886.2,612.656 C 1886.38,612.476 1886.53,612.257 1886.64,611.999 C 1886.75,611.741 1886.81,611.43 1886.81,611.066 C 1886.81,610.662 1886.74,610.284 1886.6,609.932 C 1886.46,609.58 1886.25,609.273 1885.99,609.011 C 1885.72,608.749 1885.39,608.543 1885,608.392 C 1884.61,608.242 1884.17,608.167 1883.67,608.167 C 1883.4,608.167 1883.13,608.195 1882.84,608.251 C 1882.56,608.307 1882.29,608.386 1882.02,608.488 C 1881.76,608.591 1881.51,608.712 1881.28,608.852 C 1881.05,608.992 1880.85,609.148 1880.67,609.32 L 1881.27,610.268 C 1881.32,610.34 1881.38,610.398 1881.46,610.442 C 1881.54,610.486 1881.63,610.508 1881.72,610.508 C 1881.84,610.508 1881.96,610.47 1882.08,610.394 C 1882.2,610.318 1882.34,610.234 1882.5,610.142 C 1882.65,610.05 1882.83,609.966 1883.03,609.89 C 1883.23,609.814 1883.46,609.776 1883.73,609.776 C 1884.1,609.776 1884.39,609.857 1884.59,610.019 C 1884.8,610.181 1884.9,610.438 1884.9,610.79 C 1884.9,610.994 1884.84,611.16 1884.73,611.288 C 1884.62,611.416 1884.47,611.522 1884.29,611.606 C 1884.11,611.69 1883.9,611.764 1883.67,611.828 C 1883.44,611.892 1883.2,611.963 1882.95,612.041 C 1882.71,612.119 1882.47,612.215 1882.24,612.329 C 1882.01,612.443 1881.8,612.593 1881.62,612.779 C 1881.44,612.965 1881.29,613.197 1881.18,613.475 C 1881.07,613.754 1881.01,614.097 1881.01,614.505 C 1881.01,614.833 1881.08,615.153 1881.21,615.465 C 1881.34,615.777 1881.53,616.055 1881.79,616.299 C 1882.05,616.543 1882.36,616.738 1882.73,616.884 C 1883.1,617.03 1883.53,617.103 1884.01,617.103 C 1884.28,617.103 1884.54,617.082 1884.79,617.04 C 1885.05,616.998 1885.29,616.936 1885.52,616.854 C 1885.74,616.772 1885.96,616.674 1886.16,616.56 C 1886.35,616.446 1886.53,616.317 1886.69,616.173 L 1886.18,615.23 Z" marker-start="none" marker-end="none"/>
   <path d="M 1894.16,617.009 L 1894.16,615.401 L 1891.7,615.401 L 1891.7,608.266 L 1889.67,608.266 L 1889.67,615.401 L 1887.21,615.401 L 1887.21,617.009 L 1894.16,617.009 Z" marker-start="none" marker-end="none"/>
   <path d="M 1902.18,608.264 L 1900.61,608.264 C 1900.43,608.264 1900.29,608.305 1900.17,608.387 C 1900.06,608.469 1899.98,608.574 1899.94,608.702 L 1899.42,610.227 L 1896.1,610.227 L 1895.58,608.702 C 1895.54,608.59 1895.46,608.489 1895.35,608.399 C 1895.23,608.309 1895.09,608.264 1894.92,608.264 L 1893.34,608.264 L 1896.72,617.008 L 1898.8,617.008 L 1902.18,608.264 Z M 1896.56,611.607 L 1898.95,611.607 L 1898.15,613.964 C 1898.1,614.114 1898.04,614.29 1897.97,614.493 C 1897.9,614.696 1897.83,614.916 1897.76,615.152 C 1897.69,614.912 1897.63,614.689 1897.56,614.484 C 1897.49,614.28 1897.43,614.102 1897.37,613.953 L 1896.56,611.607 Z" marker-start="none" marker-end="none"/>
   <path d="M 1904.91,611.498 L 1904.91,608.264 L 1902.89,608.264 L 1902.89,617.006 L 1905.73,617.006 C 1906.36,617.006 1906.9,616.941 1907.35,616.811 C 1907.79,616.681 1908.16,616.5 1908.44,616.268 C 1908.72,616.035 1908.93,615.761 1909.05,615.444 C 1909.18,615.128 1909.25,614.784 1909.25,614.411 C 1909.25,614.127 1909.21,613.859 1909.13,613.606 C 1909.06,613.354 1908.94,613.12 1908.79,612.906 C 1908.64,612.692 1908.46,612.501 1908.24,612.332 C 1908.02,612.164 1907.77,612.026 1907.49,611.918 C 1907.62,611.85 1907.75,611.766 1907.87,611.666 C 1907.99,611.566 1908.09,611.445 1908.18,611.301 L 1910.04,608.264 L 1908.2,608.264 C 1907.86,608.264 1907.62,608.392 1907.47,608.648 L 1906.02,611.186 C 1905.95,611.298 1905.88,611.378 1905.79,611.426 C 1905.71,611.475 1905.59,611.499 1905.43,611.498 L 1904.91,611.498 Z M 1904.91,612.896 L 1905.73,612.896 C 1906.01,612.896 1906.24,612.931 1906.43,613.001 C 1906.63,613.071 1906.79,613.168 1906.91,613.292 C 1907.04,613.416 1907.13,613.561 1907.18,613.727 C 1907.24,613.893 1907.27,614.072 1907.27,614.264 C 1907.27,614.649 1907.14,614.949 1906.89,615.165 C 1906.64,615.381 1906.25,615.489 1905.73,615.489 L 1904.91,615.489 L 1904.91,612.896 Z" marker-start="none" marker-end="none"/>
   <path d="M 1916.86,617.009 L 1916.86,615.401 L 1914.4,615.401 L 1914.4,608.266 L 1912.37,608.266 L 1912.37,615.401 L 1909.91,615.401 L 1909.91,617.009 L 1916.86,617.009 Z" marker-start="none" marker-end="none"/>
  </g>
  <g id="Group_1" fill="#000000" fill-rule="nonzero" stroke-linejoin="round" stroke-linecap="round" stroke="none" stroke-width="0.25">
   <path d="M 1888.94,593.822 L 1888.94,602.564 L 1892.16,602.564 C 1892.77,602.564 1893.28,602.508 1893.7,602.396 C 1894.13,602.284 1894.47,602.127 1894.74,601.923 C 1895.01,601.719 1895.2,601.471 1895.33,601.179 C 1895.45,600.887 1895.51,600.561 1895.51,600.201 C 1895.51,600.005 1895.48,599.816 1895.43,599.634 C 1895.37,599.452 1895.28,599.281 1895.16,599.121 C 1895.04,598.961 1894.89,598.816 1894.7,598.686 C 1894.51,598.556 1894.29,598.443 1894.02,598.347 C 1894.6,598.207 1895.02,597.98 1895.3,597.666 C 1895.58,597.352 1895.71,596.949 1895.71,596.457 C 1895.71,596.085 1895.64,595.739 1895.5,595.418 C 1895.35,595.098 1895.14,594.819 1894.86,594.581 C 1894.59,594.343 1894.24,594.157 1893.84,594.023 C 1893.43,593.889 1892.96,593.822 1892.44,593.822 L 1888.94,593.822 Z M 1890.97,597.531 L 1890.97,595.351 L 1892.4,595.351 C 1892.67,595.351 1892.89,595.385 1893.06,595.453 C 1893.23,595.522 1893.36,595.61 1893.46,595.718 C 1893.55,595.826 1893.62,595.948 1893.66,596.084 C 1893.69,596.22 1893.71,596.358 1893.71,596.498 C 1893.71,596.658 1893.69,596.802 1893.65,596.931 C 1893.6,597.059 1893.53,597.167 1893.43,597.255 C 1893.33,597.343 1893.19,597.411 1893.03,597.459 C 1892.86,597.507 1892.65,597.531 1892.39,597.531 L 1890.97,597.531 Z M 1890.97,598.888 L 1892.03,598.888 C 1892.25,598.888 1892.45,598.904 1892.64,598.935 C 1892.82,598.968 1892.97,599.024 1893.09,599.103 C 1893.22,599.183 1893.32,599.293 1893.38,599.433 C 1893.45,599.573 1893.48,599.749 1893.48,599.961 C 1893.48,600.169 1893.45,600.342 1893.4,600.48 C 1893.35,600.618 1893.27,600.729 1893.16,600.813 C 1893.06,600.897 1892.92,600.957 1892.75,600.993 C 1892.59,601.029 1892.39,601.047 1892.16,601.047 L 1890.97,601.047 L 1890.97,598.888 Z" marker-start="none" marker-end="none"/>
   <path d="M 1899.03,593.822 L 1896.99,593.822 L 1896.99,602.567 L 1899.03,602.567 L 1899.03,593.822 Z" marker-start="none" marker-end="none"/>
   <path d="M 1908.58,598.198 C 1908.58,597.565 1908.48,596.982 1908.26,596.448 C 1908.04,595.914 1907.73,595.452 1907.34,595.062 C 1906.94,594.671 1906.46,594.367 1905.91,594.149 C 1905.35,593.931 1904.73,593.822 1904.05,593.822 L 1900.65,593.822 L 1900.65,602.567 L 1904.05,602.567 C 1904.73,602.567 1905.35,602.457 1905.91,602.237 C 1906.46,602.017 1906.94,601.713 1907.34,601.325 C 1907.73,600.937 1908.04,600.476 1908.26,599.941 C 1908.48,599.407 1908.58,598.826 1908.58,598.198 Z M 1906.51,598.198 C 1906.51,598.63 1906.45,599.02 1906.34,599.368 C 1906.23,599.716 1906.07,600.011 1905.86,600.253 C 1905.65,600.495 1905.39,600.681 1905.09,600.811 C 1904.78,600.941 1904.44,601.006 1904.05,601.006 L 1902.69,601.006 L 1902.69,595.384 L 1904.05,595.384 C 1904.44,595.384 1904.78,595.449 1905.09,595.579 C 1905.39,595.709 1905.65,595.895 1905.86,596.137 C 1906.07,596.379 1906.23,596.674 1906.34,597.022 C 1906.45,597.37 1906.51,597.762 1906.51,598.198 Z" marker-start="none" marker-end="none"/>
  </g>
  <path d="M 1879.67,541.517 C 1870.78,552.057 1872.1,567.843 1882.65,576.726 C 1893.18,585.64 1908.95,584.309 1917.85,573.77 C 1926.76,563.231 1925.43,547.457 1914.87,538.554 C 1904.34,529.657 1888.57,530.989 1879.67,541.517 Z" stroke="none" fill="#e5e5e5" stroke-width="1.038" stroke-linejoin="miter" marker-start="none" marker-end="none"/>
  <path d="M 1879.67,541.517 C 1870.78,552.057 1872.1,567.843 1882.65,576.726 C 1893.18,585.64 1908.95,584.309 1917.85,573.77 C 1926.76,563.231 1925.43,547.457 1914.87,538.554 C 1904.34,529.657 1888.57,530.989 1879.67,541.517 Z" stroke="none" fill="#e5e5e5" stroke-width="1.038" stroke-linejoin="miter" marker-start="none" marker-end="none"/>
  <path d="M 1879.67,541.517 C 1870.78,552.057 1872.1,567.843 1882.65,576.726 C 1893.18,585.64 1908.95,584.309 1917.85,573.77 C 1926.76,563.231 1925.43,547.457 1914.87,538.554 C 1904.34,529.657 1888.57,530.989 1879.67,541.517 Z" stroke="none" fill="#ffffff" stroke-width="1.038" stroke-linejoin="miter" marker-start="none" marker-end="none"/>
  <path d="M 1879.67,541.537 C 1870.78,552.081 1872.1,567.834 1882.64,576.752 C 1893.18,585.625 1908.95,584.31 1917.87,573.771 C 1926.76,563.234 1925.43,547.451 1914.88,538.555 C 1904.35,529.659 1888.57,530.983 1879.67,541.537 Z" fill="none" stroke="#539bc5" stroke-width="5.657" stroke-linejoin="miter" marker-start="none" marker-end="none"/>
 </g>
 <g id="Layer 2 - grids" transform="scale(1 -1)"/>
 <g id="Layer 1" transform="scale(1 -1)"/>
</svg>
