<?xml version="1.0" standalone="no"?>
<!DOCTYPE svg PUBLIC "-//W3C//DTD SVG 1.1//EN" "http://www.w3.org/Graphics/SVG/1.1/DTD/svg11.dtd">
<!--Generator: Xara Designer (www.xara.com), SVG filter version: 6.6.0.0-->
<svg fill="none" fill-rule="evenodd" stroke="black" stroke-width="0.501" stroke-linejoin="bevel" stroke-miterlimit="10" font-family="Times New Roman" font-size="16" style="font-variant-ligatures:none" xmlns:xlink="http://www.w3.org/1999/xlink" xmlns="http://www.w3.org/2000/svg" version="1.1" overflow="visible" width="107.718pt" height="215.435pt" viewBox="55.195 -537.953 107.718 215.435">
 <defs>
	</defs>
 <g id="Page background" transform="scale(1 -1)"/>
 <g id="Layer 1" transform="scale(1 -1)">
  <g id="Group">
   <g id="Group_1" stroke-linejoin="miter" stroke="none">
    <path d="M 86.854,322.518 L 86.854,322.52 L 68.699,322.52 C 61.245,322.52 55.195,329.335 55.195,337.732 L 55.195,522.741 C 55.195,531.138 61.245,537.953 68.699,537.953 L 149.409,537.953 C 156.863,537.953 162.913,531.138 162.913,522.741 L 162.913,337.732 C 162.913,329.335 156.863,322.52 149.409,322.52 L 139.135,322.52 L 139.135,322.518 L 86.854,322.518 Z" fill="#7f7f7f" marker-start="none" marker-end="none"/>
    <path d="M 87.146,323.228 L 87.146,323.23 L 69.23,323.23 C 61.875,323.23 55.904,330 55.904,338.341 L 55.904,522.132 C 55.904,530.473 61.875,537.243 69.23,537.243 L 148.878,537.243 C 156.233,537.243 162.204,530.473 162.204,522.132 L 162.204,338.341 C 162.204,330 156.233,323.23 148.878,323.23 L 138.739,323.23 L 138.739,323.228 L 87.146,323.228 Z" fill="#ffffff" marker-start="none" marker-end="none"/>
   </g>
   <g id="Group_2" fill-rule="nonzero" stroke-linejoin="round" stroke-linecap="round" stroke="none" stroke-width="0.375" fill="#7ed6df">
    <g id="Group_3">
     <path d="M 68.144,341.036 C 68.144,341.286 68.124,341.508 68.082,341.701 C 68.041,341.894 67.985,342.076 67.915,342.248 L 66.728,342.252 L 66.726,341.48 C 66.726,341.365 66.695,341.276 66.634,341.212 C 66.573,341.148 66.496,341.116 66.403,341.116 L 65.405,341.119 L 65.414,343.897 L 68.711,343.887 C 68.857,343.686 68.982,343.477 69.087,343.261 C 69.192,343.044 69.278,342.813 69.345,342.568 C 69.412,342.323 69.462,342.062 69.493,341.785 C 69.524,341.508 69.54,341.21 69.539,340.892 C 69.537,340.32 69.434,339.791 69.231,339.306 C 69.027,338.82 68.747,338.4 68.39,338.046 C 68.033,337.691 67.611,337.414 67.122,337.213 C 66.633,337.013 66.103,336.913 65.531,336.915 C 64.948,336.917 64.413,337.015 63.926,337.21 C 63.438,337.404 63.018,337.682 62.665,338.042 C 62.313,338.402 62.039,338.837 61.843,339.347 C 61.648,339.857 61.552,340.427 61.554,341.056 C 61.555,341.381 61.583,341.687 61.637,341.973 C 61.692,342.259 61.766,342.522 61.86,342.763 C 61.953,343.004 62.065,343.224 62.195,343.424 C 62.324,343.624 62.464,343.802 62.615,343.959 L 63.412,343.431 C 63.487,343.381 63.546,343.321 63.589,343.251 C 63.632,343.181 63.653,343.105 63.652,343.023 C 63.652,342.916 63.616,342.805 63.544,342.691 C 63.458,342.548 63.384,342.413 63.32,342.287 C 63.258,342.16 63.206,342.03 63.166,341.898 C 63.127,341.766 63.098,341.627 63.08,341.48 C 63.061,341.334 63.052,341.169 63.051,340.987 C 63.05,340.648 63.109,340.342 63.228,340.07 C 63.347,339.798 63.515,339.566 63.732,339.374 C 63.95,339.182 64.211,339.034 64.516,338.929 C 64.821,338.824 65.162,338.772 65.537,338.77 C 65.951,338.769 66.32,338.825 66.642,338.939 C 66.963,339.052 67.236,339.209 67.458,339.411 C 67.68,339.612 67.849,339.851 67.967,340.127 C 68.084,340.404 68.143,340.707 68.144,341.036 Z" marker-start="none" marker-end="none"/>
     <path d="M 66.58,346.81 L 69.47,346.801 L 69.465,344.988 L 61.652,345.013 L 61.66,347.554 C 61.662,348.119 61.721,348.6 61.839,348.999 C 61.957,349.397 62.119,349.722 62.328,349.973 C 62.536,350.224 62.782,350.407 63.065,350.52 C 63.348,350.634 63.656,350.69 63.989,350.689 C 64.243,350.688 64.483,350.654 64.708,350.585 C 64.933,350.516 65.141,350.415 65.333,350.28 C 65.524,350.145 65.694,349.98 65.844,349.785 C 65.993,349.59 66.116,349.365 66.212,349.111 C 66.273,349.232 66.349,349.346 66.438,349.451 C 66.528,349.556 66.637,349.648 66.765,349.726 L 69.484,351.38 L 69.479,349.739 C 69.478,349.435 69.363,349.218 69.134,349.086 L 66.862,347.795 C 66.762,347.739 66.69,347.672 66.647,347.595 C 66.603,347.518 66.582,347.41 66.581,347.271 L 66.58,346.81 Z M 65.331,346.814 L 65.333,347.543 C 65.334,347.789 65.303,348 65.241,348.173 C 65.179,348.347 65.093,348.489 64.983,348.6 C 64.872,348.711 64.743,348.792 64.594,348.843 C 64.446,348.893 64.286,348.919 64.115,348.919 C 63.771,348.92 63.503,348.809 63.309,348.587 C 63.115,348.364 63.018,348.018 63.016,347.55 L 63.014,346.821 L 65.331,346.814 Z" marker-start="none" marker-end="none"/>
     <path d="M 61.687,357.174 L 63.082,357.17 L 63.073,353.963 L 64.897,353.958 L 64.905,356.413 L 66.245,356.409 L 66.238,353.954 L 68.097,353.948 L 68.107,357.154 L 69.502,357.15 L 69.487,352.12 L 61.672,352.145 L 61.687,357.174 Z" marker-start="none" marker-end="none"/>
     <path d="M 61.706,363.232 L 63.101,363.228 L 63.091,360.021 L 64.916,360.016 L 64.923,362.471 L 66.264,362.467 L 66.256,360.012 L 68.115,360.006 L 68.125,363.212 L 69.521,363.208 L 69.505,358.178 L 61.69,358.203 L 61.706,363.232 Z" marker-start="none" marker-end="none"/>
     <path d="M 61.712,365.215 C 61.712,365.294 61.716,365.36 61.723,365.413 C 61.73,365.467 61.744,365.515 61.764,365.558 C 61.784,365.601 61.811,365.642 61.847,365.681 C 61.883,365.72 61.931,365.765 61.992,365.815 L 66.695,369.511 C 66.545,369.497 66.4,369.486 66.258,369.48 C 66.117,369.473 65.984,369.47 65.859,369.47 L 61.725,369.483 L 61.73,371.081 L 69.545,371.057 L 69.542,370.113 C 69.541,369.974 69.52,369.856 69.476,369.759 C 69.433,369.663 69.354,369.57 69.24,369.481 L 64.574,365.812 C 64.71,365.822 64.843,365.831 64.974,365.838 C 65.104,365.844 65.227,365.848 65.341,365.847 L 69.529,365.834 L 69.524,364.236 L 61.709,364.261 L 61.712,365.215 Z" marker-start="none" marker-end="none"/>
     <path d="M 63.343,378.784 C 63.429,378.73 63.493,378.673 63.536,378.614 C 63.578,378.555 63.599,378.479 63.599,378.386 C 63.599,378.304 63.573,378.215 63.521,378.121 C 63.468,378.026 63.41,377.919 63.345,377.8 C 63.281,377.68 63.222,377.544 63.17,377.39 C 63.118,377.236 63.091,377.061 63.09,376.865 C 63.089,376.525 63.161,376.272 63.305,376.105 C 63.45,375.939 63.645,375.855 63.892,375.854 C 64.049,375.854 64.18,375.903 64.284,376.003 C 64.388,376.103 64.477,376.234 64.553,376.396 C 64.629,376.559 64.698,376.745 64.761,376.953 C 64.824,377.162 64.895,377.376 64.972,377.594 C 65.05,377.811 65.141,378.025 65.245,378.233 C 65.349,378.442 65.482,378.628 65.644,378.79 C 65.805,378.952 66.001,379.083 66.232,379.182 C 66.463,379.281 66.741,379.331 67.066,379.33 C 67.428,379.329 67.765,379.265 68.079,379.139 C 68.393,379.013 68.667,378.831 68.901,378.592 C 69.134,378.354 69.317,378.06 69.45,377.711 C 69.583,377.362 69.649,376.966 69.648,376.523 C 69.647,376.28 69.621,376.032 69.57,375.78 C 69.52,375.528 69.448,375.285 69.356,375.049 C 69.264,374.813 69.156,374.592 69.03,374.385 C 68.904,374.178 68.764,373.998 68.61,373.845 L 67.764,374.384 C 67.7,374.423 67.648,374.479 67.609,374.551 C 67.57,374.622 67.551,374.699 67.551,374.781 C 67.551,374.888 67.586,374.997 67.654,375.105 C 67.722,375.214 67.797,375.337 67.88,375.475 C 67.963,375.612 68.038,375.77 68.107,375.948 C 68.175,376.127 68.21,376.338 68.211,376.581 C 68.212,376.91 68.14,377.165 67.996,377.348 C 67.852,377.531 67.622,377.623 67.308,377.624 C 67.125,377.624 66.977,377.575 66.862,377.475 C 66.747,377.375 66.652,377.244 66.577,377.082 C 66.501,376.919 66.434,376.735 66.376,376.528 C 66.319,376.32 66.255,376.108 66.184,375.89 C 66.114,375.672 66.027,375.46 65.925,375.253 C 65.822,375.046 65.688,374.861 65.521,374.699 C 65.354,374.537 65.146,374.406 64.898,374.307 C 64.649,374.208 64.342,374.158 63.977,374.16 C 63.684,374.161 63.398,374.22 63.12,374.339 C 62.841,374.458 62.593,374.632 62.376,374.862 C 62.159,375.091 61.985,375.372 61.856,375.705 C 61.726,376.038 61.662,376.419 61.664,376.848 C 61.664,377.087 61.684,377.32 61.722,377.547 C 61.76,377.774 61.816,377.989 61.89,378.193 C 61.964,378.396 62.052,378.586 62.155,378.763 C 62.257,378.94 62.373,379.098 62.502,379.237 L 63.343,378.784 Z" marker-start="none" marker-end="none"/>
     <path d="M 68.151,383.476 C 68.151,383.719 68.112,383.937 68.032,384.128 C 67.952,384.319 67.837,384.482 67.688,384.614 C 67.538,384.747 67.355,384.849 67.139,384.919 C 66.923,384.989 66.677,385.025 66.402,385.026 L 61.774,385.04 L 61.779,386.852 L 66.408,386.838 C 66.887,386.837 67.327,386.758 67.727,386.601 C 68.126,386.444 68.471,386.22 68.759,385.93 C 69.048,385.64 69.272,385.287 69.432,384.872 C 69.592,384.457 69.671,383.99 69.669,383.471 C 69.668,382.95 69.586,382.482 69.424,382.067 C 69.261,381.653 69.035,381.302 68.744,381.013 C 68.454,380.725 68.108,380.504 67.707,380.352 C 67.306,380.199 66.866,380.124 66.387,380.125 L 61.759,380.139 L 61.764,381.952 L 66.387,381.937 C 66.662,381.937 66.908,381.971 67.125,382.04 C 67.341,382.109 67.526,382.209 67.678,382.341 C 67.83,382.473 67.947,382.634 68.028,382.825 C 68.109,383.016 68.15,383.233 68.151,383.476 Z" marker-start="none" marker-end="none"/>
     <path d="M 63.385,392.382 C 63.47,392.328 63.535,392.271 63.577,392.212 C 63.62,392.153 63.641,392.077 63.641,391.984 C 63.641,391.902 63.614,391.813 63.562,391.719 C 63.51,391.624 63.452,391.517 63.387,391.398 C 63.322,391.278 63.264,391.142 63.212,390.988 C 63.159,390.834 63.133,390.659 63.132,390.463 C 63.131,390.123 63.203,389.87 63.347,389.703 C 63.491,389.537 63.687,389.453 63.933,389.452 C 64.091,389.452 64.221,389.501 64.325,389.601 C 64.429,389.701 64.519,389.832 64.595,389.994 C 64.67,390.157 64.74,390.343 64.803,390.551 C 64.866,390.76 64.936,390.974 65.014,391.192 C 65.091,391.409 65.182,391.623 65.287,391.831 C 65.391,392.04 65.524,392.226 65.685,392.388 C 65.847,392.55 66.043,392.681 66.274,392.78 C 66.505,392.879 66.783,392.929 67.108,392.928 C 67.469,392.927 67.807,392.863 68.121,392.737 C 68.435,392.611 68.709,392.429 68.942,392.19 C 69.176,391.952 69.359,391.658 69.492,391.309 C 69.625,390.96 69.691,390.564 69.69,390.121 C 69.689,389.878 69.663,389.63 69.612,389.378 C 69.561,389.126 69.49,388.883 69.398,388.647 C 69.306,388.411 69.197,388.19 69.072,387.983 C 68.946,387.776 68.806,387.596 68.652,387.443 L 67.806,387.982 C 67.742,388.021 67.69,388.077 67.651,388.149 C 67.612,388.22 67.592,388.297 67.593,388.379 C 67.593,388.486 67.627,388.595 67.695,388.703 C 67.764,388.812 67.839,388.935 67.922,389.073 C 68.004,389.21 68.08,389.368 68.149,389.546 C 68.217,389.725 68.252,389.936 68.252,390.179 C 68.253,390.508 68.182,390.763 68.038,390.946 C 67.893,391.129 67.664,391.221 67.349,391.222 C 67.167,391.222 67.018,391.173 66.904,391.073 C 66.789,390.973 66.694,390.842 66.618,390.68 C 66.543,390.517 66.476,390.333 66.418,390.126 C 66.36,389.918 66.296,389.706 66.226,389.488 C 66.156,389.27 66.069,389.058 65.966,388.851 C 65.864,388.644 65.729,388.459 65.563,388.297 C 65.396,388.135 65.188,388.004 64.939,387.905 C 64.69,387.806 64.384,387.756 64.019,387.758 C 63.726,387.759 63.44,387.818 63.162,387.937 C 62.883,388.056 62.635,388.23 62.418,388.46 C 62.2,388.689 62.027,388.97 61.897,389.303 C 61.768,389.636 61.704,390.017 61.705,390.446 C 61.706,390.685 61.725,390.918 61.764,391.145 C 61.802,391.372 61.858,391.587 61.932,391.791 C 62.006,391.994 62.094,392.184 62.197,392.361 C 62.299,392.538 62.415,392.696 62.544,392.835 L 63.385,392.382 Z" marker-start="none" marker-end="none"/>
     <path d="M 61.817,399.517 L 63.254,399.513 L 63.247,397.315 L 69.624,397.295 L 69.618,395.483 L 63.242,395.502 L 63.235,393.304 L 61.798,393.308 L 61.817,399.517 Z" marker-start="none" marker-end="none"/>
     <path d="M 69.654,406.659 L 69.65,405.254 C 69.649,405.097 69.612,404.968 69.538,404.866 C 69.465,404.764 69.371,404.694 69.256,404.655 L 67.892,404.198 L 67.883,401.228 L 69.244,400.762 C 69.344,400.726 69.434,400.656 69.514,400.552 C 69.595,400.448 69.634,400.321 69.634,400.171 L 69.63,398.756 L 61.825,401.804 L 61.831,403.659 L 69.654,406.659 Z M 66.651,401.65 L 66.657,403.784 L 64.549,403.072 C 64.415,403.026 64.257,402.972 64.076,402.91 C 63.894,402.848 63.698,402.787 63.487,402.726 C 63.701,402.669 63.9,402.609 64.083,402.548 C 64.265,402.486 64.424,402.429 64.557,402.375 L 66.651,401.65 Z" marker-start="none" marker-end="none"/>
     <path d="M 69.662,409.274 L 69.656,407.451 L 61.841,407.475 L 61.847,409.299 L 69.662,409.274 Z" marker-start="none" marker-end="none"/>
     <path d="M 61.854,411.699 C 61.855,411.778 61.858,411.844 61.866,411.897 C 61.873,411.951 61.886,411.999 61.906,412.042 C 61.926,412.085 61.954,412.126 61.99,412.165 C 62.026,412.204 62.074,412.249 62.135,412.299 L 66.838,415.995 C 66.688,415.981 66.542,415.97 66.401,415.964 C 66.26,415.957 66.127,415.954 66.001,415.954 L 61.867,415.967 L 61.872,417.565 L 69.687,417.541 L 69.684,416.597 C 69.684,416.458 69.662,416.34 69.619,416.243 C 69.576,416.147 69.497,416.054 69.382,415.965 L 64.717,412.296 C 64.853,412.306 64.986,412.315 65.116,412.322 C 65.247,412.328 65.369,412.332 65.484,412.331 L 69.671,412.318 L 69.666,410.72 L 61.851,410.745 L 61.854,411.699 Z" marker-start="none" marker-end="none"/>
     <path d="M 69.713,426.097 L 69.709,424.692 C 69.709,424.535 69.672,424.406 69.598,424.304 C 69.524,424.202 69.43,424.132 69.316,424.093 L 67.952,423.636 L 67.943,420.666 L 69.304,420.2 C 69.404,420.164 69.494,420.094 69.574,419.99 C 69.654,419.886 69.694,419.759 69.694,419.609 L 69.689,418.194 L 61.885,421.242 L 61.89,423.097 L 69.713,426.097 Z M 66.71,421.088 L 66.717,423.222 L 64.609,422.51 C 64.475,422.464 64.317,422.41 64.135,422.348 C 63.954,422.286 63.758,422.225 63.546,422.164 C 63.761,422.107 63.959,422.047 64.142,421.986 C 64.325,421.924 64.483,421.867 64.617,421.813 L 66.71,421.088 Z" marker-start="none" marker-end="none"/>
     <path d="M 69.715,426.728 L 61.903,426.753 L 61.912,429.627 C 61.913,430.166 61.965,430.626 62.066,431.004 C 62.167,431.383 62.309,431.691 62.492,431.93 C 62.675,432.169 62.898,432.343 63.159,432.451 C 63.42,432.559 63.712,432.613 64.033,432.612 C 64.208,432.611 64.377,432.586 64.539,432.535 C 64.702,432.485 64.854,432.406 64.997,432.298 C 65.14,432.19 65.269,432.052 65.385,431.884 C 65.5,431.716 65.601,431.513 65.685,431.277 C 65.812,431.791 66.016,432.172 66.298,432.417 C 66.579,432.663 66.94,432.785 67.38,432.784 C 67.712,432.783 68.021,432.718 68.307,432.588 C 68.592,432.458 68.841,432.269 69.053,432.02 C 69.265,431.771 69.431,431.464 69.549,431.099 C 69.668,430.734 69.726,430.317 69.725,429.849 L 69.715,426.728 Z M 66.406,428.551 L 68.354,428.545 L 68.358,429.821 C 68.359,430.061 68.329,430.256 68.269,430.409 C 68.208,430.561 68.13,430.68 68.034,430.766 C 67.937,430.852 67.828,430.911 67.707,430.944 C 67.585,430.976 67.462,430.993 67.337,430.993 C 67.194,430.994 67.065,430.975 66.95,430.938 C 66.836,430.901 66.739,430.837 66.66,430.746 C 66.581,430.655 66.52,430.535 66.476,430.385 C 66.433,430.235 66.411,430.045 66.41,429.816 L 66.406,428.551 Z M 65.194,428.555 L 65.197,429.498 C 65.198,429.699 65.184,429.879 65.156,430.04 C 65.128,430.201 65.078,430.338 65.007,430.451 C 64.936,430.564 64.838,430.65 64.713,430.709 C 64.588,430.768 64.431,430.798 64.242,430.799 C 64.056,430.8 63.901,430.777 63.778,430.731 C 63.654,430.685 63.555,430.613 63.48,430.517 C 63.404,430.421 63.35,430.299 63.318,430.15 C 63.285,430.002 63.269,429.826 63.268,429.622 L 63.265,428.561 L 65.194,428.555 Z" marker-start="none" marker-end="none"/>
     <path d="M 69.743,435.744 L 69.737,433.921 L 61.922,433.945 L 61.928,435.769 L 69.743,435.744 Z" marker-start="none" marker-end="none"/>
     <path d="M 68.305,439.007 L 68.314,441.903 L 69.762,441.898 L 69.748,437.19 L 61.934,437.215 L 61.939,439.027 L 68.305,439.007 Z" marker-start="none" marker-end="none"/>
     <path d="M 69.771,444.74 L 69.765,442.917 L 61.95,442.941 L 61.956,444.765 L 69.771,444.74 Z" marker-start="none" marker-end="none"/>
     <path d="M 61.977,451.883 L 63.415,451.879 L 63.408,449.681 L 69.784,449.661 L 69.779,447.849 L 63.403,447.868 L 63.396,445.67 L 61.958,445.674 L 61.977,451.883 Z" marker-start="none" marker-end="none"/>
     <path d="M 66.882,456.513 L 69.807,456.504 L 69.801,454.692 L 66.877,454.701 L 61.979,451.885 L 61.984,453.483 C 61.984,453.64 62.022,453.765 62.097,453.858 C 62.172,453.95 62.267,454.025 62.384,454.082 L 64.702,455.179 C 64.888,455.268 65.06,455.35 65.216,455.425 C 65.373,455.499 65.528,455.565 65.681,455.621 C 65.525,455.676 65.368,455.74 65.212,455.816 C 65.056,455.892 64.887,455.972 64.705,456.059 L 62.394,457.16 C 62.346,457.181 62.299,457.211 62.252,457.249 C 62.205,457.286 62.162,457.329 62.124,457.378 C 62.086,457.426 62.055,457.482 62.032,457.544 C 62.008,457.607 61.997,457.676 61.997,457.751 L 62.002,459.359 L 66.882,456.513 Z" marker-start="none" marker-end="none"/>
     <path d="M 65.938,469.665 C 66.503,469.663 67.028,469.564 67.514,469.368 C 67.999,469.171 68.421,468.896 68.78,468.541 C 69.138,468.186 69.418,467.759 69.62,467.259 C 69.823,466.76 69.923,466.207 69.921,465.599 C 69.919,464.991 69.816,464.438 69.61,463.938 C 69.405,463.438 69.122,463.011 68.762,462.656 C 68.401,462.302 67.978,462.028 67.491,461.834 C 67.004,461.641 66.478,461.545 65.913,461.547 C 65.348,461.549 64.823,461.648 64.338,461.844 C 63.852,462.04 63.431,462.317 63.074,462.674 C 62.718,463.031 62.439,463.459 62.236,463.961 C 62.034,464.462 61.934,465.016 61.936,465.624 C 61.938,466.231 62.042,466.784 62.249,467.282 C 62.456,467.78 62.739,468.206 63.098,468.558 C 63.457,468.911 63.879,469.184 64.366,469.378 C 64.853,469.571 65.377,469.667 65.938,469.665 Z M 65.933,467.81 C 65.547,467.811 65.199,467.762 64.89,467.663 C 64.58,467.564 64.318,467.421 64.103,467.234 C 63.888,467.047 63.723,466.817 63.608,466.546 C 63.493,466.275 63.435,465.966 63.433,465.619 C 63.432,465.269 63.489,464.957 63.602,464.683 C 63.716,464.409 63.879,464.178 64.093,463.99 C 64.307,463.801 64.568,463.657 64.877,463.556 C 65.186,463.455 65.533,463.403 65.919,463.402 C 66.309,463.401 66.658,463.45 66.967,463.549 C 67.277,463.648 67.539,463.791 67.754,463.978 C 67.969,464.165 68.133,464.395 68.247,464.668 C 68.36,464.942 68.417,465.253 68.418,465.604 C 68.419,465.95 68.364,466.26 68.252,466.532 C 68.141,466.804 67.978,467.034 67.764,467.222 C 67.55,467.411 67.289,467.555 66.98,467.656 C 66.671,467.757 66.322,467.808 65.933,467.81 Z" marker-start="none" marker-end="none"/>
     <path d="M 62.053,475.573 L 63.448,475.569 L 63.438,472.362 L 65.415,472.356 L 65.423,475.026 L 66.824,475.022 L 66.816,472.352 L 69.857,472.342 L 69.851,470.519 L 62.037,470.544 L 62.053,475.573 Z" marker-start="none" marker-end="none"/>
     <path d="M 62.071,481.548 L 63.467,481.544 L 63.457,478.337 L 65.433,478.331 L 65.441,481.001 L 66.842,480.997 L 66.834,478.327 L 69.875,478.317 L 69.869,476.494 L 62.056,476.519 L 62.071,481.548 Z" marker-start="none" marker-end="none"/>
     <path d="M 69.892,484.453 L 69.887,482.63 L 62.072,482.654 L 62.077,484.478 L 69.892,484.453 Z" marker-start="none" marker-end="none"/>
     <path d="M 67.893,491.155 C 67.893,491.198 67.901,491.241 67.918,491.284 C 67.935,491.326 67.963,491.367 68.003,491.407 L 68.778,492.123 C 69.181,491.807 69.485,491.412 69.69,490.938 C 69.894,490.463 69.996,489.903 69.994,489.256 C 69.992,488.662 69.889,488.131 69.686,487.661 C 69.482,487.192 69.202,486.794 68.845,486.468 C 68.489,486.142 68.066,485.893 67.577,485.719 C 67.089,485.545 66.559,485.459 65.987,485.461 C 65.404,485.463 64.869,485.565 64.381,485.766 C 63.894,485.968 63.474,486.249 63.121,486.609 C 62.768,486.97 62.494,487.4 62.299,487.902 C 62.104,488.403 62.007,488.955 62.009,489.559 C 62.01,489.852 62.037,490.128 62.09,490.387 C 62.142,490.646 62.215,490.888 62.307,491.113 C 62.399,491.338 62.508,491.545 62.636,491.734 C 62.764,491.923 62.905,492.091 63.059,492.237 L 63.878,491.623 C 63.928,491.584 63.973,491.537 64.014,491.483 C 64.055,491.43 64.075,491.354 64.075,491.258 C 64.075,491.194 64.06,491.133 64.032,491.076 C 64.003,491.019 63.968,490.958 63.927,490.894 C 63.885,490.83 63.84,490.759 63.792,490.682 C 63.743,490.606 63.698,490.515 63.657,490.409 C 63.616,490.304 63.58,490.181 63.551,490.04 C 63.522,489.899 63.507,489.733 63.507,489.544 C 63.506,489.215 63.563,488.915 63.678,488.643 C 63.794,488.371 63.959,488.137 64.175,487.941 C 64.391,487.746 64.652,487.593 64.959,487.483 C 65.266,487.373 65.611,487.318 65.994,487.316 C 66.394,487.315 66.75,487.369 67.061,487.477 C 67.373,487.585 67.635,487.732 67.848,487.919 C 68.061,488.106 68.224,488.325 68.336,488.575 C 68.447,488.824 68.503,489.092 68.504,489.378 C 68.505,489.543 68.497,489.693 68.481,489.829 C 68.466,489.965 68.439,490.091 68.4,490.207 C 68.361,490.323 68.31,490.434 68.248,490.54 C 68.186,490.646 68.108,490.752 68.015,490.86 C 67.98,490.903 67.95,490.949 67.927,490.999 C 67.904,491.049 67.893,491.101 67.893,491.155 Z" marker-start="none" marker-end="none"/>
     <path d="M 62.119,498.001 L 63.514,497.997 L 63.504,494.79 L 65.329,494.785 L 65.337,497.24 L 66.677,497.236 L 66.67,494.781 L 68.529,494.775 L 68.539,497.981 L 69.934,497.977 L 69.919,492.947 L 62.103,492.972 L 62.119,498.001 Z" marker-start="none" marker-end="none"/>
     <path d="M 67.052,500.827 L 69.943,500.818 L 69.937,499.005 L 62.125,499.03 L 62.132,501.571 C 62.134,502.136 62.194,502.617 62.311,503.016 C 62.429,503.414 62.592,503.739 62.8,503.99 C 63.009,504.241 63.254,504.424 63.537,504.537 C 63.821,504.651 64.128,504.707 64.461,504.706 C 64.715,504.705 64.955,504.671 65.18,504.602 C 65.406,504.533 65.614,504.432 65.805,504.297 C 65.996,504.162 66.166,503.997 66.316,503.802 C 66.466,503.607 66.589,503.382 66.684,503.128 C 66.745,503.249 66.821,503.363 66.91,503.468 C 67,503.573 67.109,503.665 67.238,503.743 L 69.957,505.397 L 69.952,503.756 C 69.951,503.452 69.836,503.235 69.607,503.103 L 67.334,501.812 C 67.234,501.756 67.162,501.689 67.119,501.612 C 67.076,501.535 67.054,501.427 67.054,501.288 L 67.052,500.827 Z M 65.803,500.831 L 65.806,501.56 C 65.806,501.806 65.776,502.017 65.714,502.19 C 65.652,502.364 65.565,502.506 65.455,502.617 C 65.344,502.728 65.215,502.809 65.067,502.86 C 64.919,502.91 64.759,502.936 64.587,502.936 C 64.244,502.937 63.975,502.826 63.781,502.604 C 63.588,502.381 63.49,502.035 63.489,501.567 L 63.486,500.838 L 65.803,500.831 Z" marker-start="none" marker-end="none"/>
    </g>
   </g>
   <g id="Group_4" fill-rule="nonzero" stroke-linejoin="round" stroke-linecap="round" stroke="none" stroke-width="0.406" fill="#000000">
    <g id="Group_5">
     <path d="M 70.956,528.098 L 70.951,526.524 L 68.545,526.532 L 68.523,519.553 L 66.54,519.559 L 66.561,526.538 L 64.155,526.545 L 64.16,528.119 L 70.956,528.098 Z" marker-start="none" marker-end="none"/>
     <path d="M 77.285,528.078 L 77.28,526.551 L 73.77,526.562 L 73.764,524.564 L 76.452,524.556 L 76.448,523.089 L 73.76,523.097 L 73.753,521.062 L 77.263,521.051 L 77.258,519.524 L 71.753,519.541 L 71.78,528.095 L 77.285,528.078 Z" marker-start="none" marker-end="none"/>
     <path d="M 86.342,519.496 L 84.805,519.501 C 84.633,519.501 84.491,519.542 84.38,519.622 C 84.268,519.703 84.191,519.806 84.149,519.931 L 83.649,521.424 L 80.397,521.434 L 79.888,519.944 C 79.849,519.835 79.772,519.736 79.658,519.649 C 79.544,519.561 79.405,519.517 79.241,519.518 L 77.692,519.523 L 81.028,528.065 L 83.059,528.059 L 86.342,519.496 Z M 80.859,522.783 L 83.195,522.776 L 82.416,525.084 C 82.365,525.23 82.306,525.403 82.238,525.602 C 82.17,525.8 82.104,526.015 82.038,526.246 C 81.974,526.012 81.909,525.794 81.842,525.594 C 81.775,525.394 81.712,525.221 81.653,525.074 L 80.859,522.783 Z" marker-start="none" marker-end="none"/>
     <path d="M 91.418,523.363 C 91.495,523.214 91.57,523.058 91.642,522.896 C 91.714,522.734 91.783,522.569 91.849,522.399 C 91.916,522.572 91.987,522.74 92.062,522.903 C 92.137,523.067 92.213,523.225 92.292,523.378 L 94.5,527.721 C 94.54,527.795 94.58,527.853 94.621,527.895 C 94.662,527.936 94.708,527.966 94.759,527.986 C 94.81,528.005 94.868,528.015 94.933,528.015 C 94.997,528.015 95.072,528.014 95.159,528.014 L 96.673,528.009 L 96.647,519.464 L 94.898,519.469 L 94.912,524.323 C 94.913,524.559 94.926,524.814 94.95,525.088 L 92.671,520.767 C 92.601,520.632 92.505,520.531 92.386,520.461 C 92.266,520.393 92.13,520.358 91.978,520.359 L 91.708,520.36 C 91.555,520.36 91.419,520.395 91.3,520.465 C 91.181,520.535 91.086,520.637 91.016,520.772 L 88.752,525.113 C 88.768,524.978 88.779,524.843 88.786,524.71 C 88.794,524.577 88.797,524.454 88.797,524.342 L 88.782,519.488 L 87.033,519.494 L 87.059,528.039 L 88.574,528.034 C 88.66,528.034 88.735,528.034 88.8,528.034 C 88.864,528.034 88.922,528.023 88.973,528.004 C 89.023,527.984 89.069,527.953 89.11,527.912 C 89.151,527.87 89.191,527.812 89.23,527.737 L 91.418,523.363 Z" marker-start="none" marker-end="none"/>
    </g>
   </g>
   <g id="Group_6" fill-rule="nonzero" stroke-linejoin="round" stroke-linecap="round" stroke="none" stroke-width="0.406" fill="#7ed6df">
    <g id="Group_7">
     <path d="M 129.169,521.021 C 129.438,521.02 129.676,521.042 129.884,521.086 C 130.092,521.131 130.288,521.191 130.472,521.266 L 130.476,522.541 L 129.646,522.544 C 129.524,522.544 129.428,522.577 129.359,522.643 C 129.29,522.708 129.255,522.791 129.256,522.891 L 129.259,523.963 L 132.244,523.954 L 132.233,520.411 C 132.017,520.254 131.793,520.119 131.56,520.006 C 131.328,519.894 131.079,519.801 130.816,519.729 C 130.553,519.657 130.272,519.604 129.974,519.57 C 129.677,519.537 129.357,519.521 129.015,519.522 C 128.4,519.523 127.832,519.634 127.31,519.852 C 126.789,520.071 126.337,520.372 125.956,520.756 C 125.575,521.139 125.277,521.593 125.062,522.118 C 124.846,522.644 124.739,523.213 124.741,523.828 C 124.743,524.454 124.849,525.029 125.058,525.553 C 125.267,526.077 125.565,526.528 125.952,526.907 C 126.339,527.287 126.807,527.581 127.355,527.791 C 127.903,528 128.515,528.104 129.191,528.102 C 129.541,528.101 129.869,528.071 130.176,528.012 C 130.483,527.953 130.766,527.874 131.025,527.773 C 131.284,527.672 131.521,527.552 131.736,527.413 C 131.95,527.274 132.142,527.123 132.31,526.961 L 131.743,526.104 C 131.689,526.024 131.625,525.961 131.55,525.915 C 131.475,525.869 131.393,525.846 131.304,525.847 C 131.189,525.847 131.07,525.886 130.948,525.963 C 130.794,526.055 130.649,526.136 130.513,526.203 C 130.377,526.271 130.238,526.326 130.096,526.369 C 129.954,526.411 129.804,526.443 129.647,526.462 C 129.49,526.482 129.313,526.492 129.117,526.493 C 128.752,526.494 128.423,526.431 128.131,526.303 C 127.839,526.175 127.589,525.995 127.383,525.761 C 127.177,525.527 127.018,525.247 126.905,524.919 C 126.793,524.591 126.736,524.225 126.735,523.822 C 126.734,523.376 126.794,522.981 126.916,522.635 C 127.037,522.289 127.207,521.996 127.423,521.758 C 127.639,521.519 127.896,521.337 128.193,521.211 C 128.491,521.085 128.816,521.022 129.169,521.021 Z" marker-start="none" marker-end="none"/>
     <path d="M 138.115,526.276 C 138.058,526.184 137.997,526.115 137.933,526.069 C 137.87,526.023 137.788,526 137.688,526.001 C 137.6,526.001 137.505,526.029 137.403,526.085 C 137.302,526.141 137.187,526.204 137.058,526.273 C 136.93,526.343 136.783,526.406 136.618,526.462 C 136.453,526.518 136.265,526.547 136.054,526.547 C 135.689,526.548 135.417,526.471 135.238,526.316 C 135.058,526.161 134.969,525.951 134.968,525.686 C 134.967,525.517 135.021,525.377 135.128,525.265 C 135.235,525.153 135.376,525.057 135.55,524.976 C 135.725,524.894 135.924,524.82 136.149,524.752 C 136.373,524.684 136.603,524.608 136.837,524.525 C 137.071,524.442 137.3,524.344 137.524,524.232 C 137.749,524.12 137.948,523.977 138.122,523.804 C 138.297,523.63 138.437,523.42 138.544,523.171 C 138.651,522.923 138.704,522.624 138.702,522.275 C 138.701,521.887 138.633,521.524 138.497,521.186 C 138.362,520.849 138.166,520.555 137.91,520.304 C 137.654,520.053 137.338,519.856 136.963,519.713 C 136.588,519.57 136.163,519.499 135.686,519.501 C 135.425,519.502 135.159,519.529 134.889,519.584 C 134.618,519.639 134.356,519.715 134.103,519.814 C 133.85,519.913 133.612,520.03 133.389,520.165 C 133.167,520.3 132.973,520.451 132.809,520.616 L 133.388,521.525 C 133.43,521.594 133.49,521.65 133.567,521.692 C 133.644,521.734 133.726,521.755 133.815,521.754 C 133.93,521.754 134.046,521.717 134.163,521.644 C 134.28,521.57 134.412,521.489 134.56,521.401 C 134.708,521.312 134.877,521.23 135.069,521.157 C 135.261,521.083 135.487,521.046 135.749,521.045 C 136.102,521.044 136.377,521.121 136.573,521.276 C 136.77,521.431 136.868,521.678 136.869,522.016 C 136.87,522.212 136.817,522.371 136.71,522.495 C 136.602,522.618 136.462,522.72 136.287,522.801 C 136.112,522.882 135.914,522.954 135.691,523.016 C 135.469,523.078 135.24,523.147 135.006,523.223 C 134.772,523.299 134.544,523.391 134.321,523.502 C 134.099,523.612 133.901,523.757 133.726,523.936 C 133.552,524.115 133.412,524.338 133.305,524.606 C 133.198,524.873 133.146,525.202 133.147,525.594 C 133.148,525.909 133.212,526.216 133.34,526.516 C 133.467,526.815 133.654,527.081 133.901,527.315 C 134.148,527.549 134.45,527.735 134.807,527.874 C 135.165,528.013 135.574,528.082 136.035,528.081 C 136.293,528.08 136.543,528.059 136.787,528.018 C 137.031,527.977 137.262,527.916 137.481,527.837 C 137.699,527.757 137.904,527.663 138.093,527.552 C 138.283,527.442 138.453,527.318 138.602,527.179 L 138.115,526.276 Z" marker-start="none" marker-end="none"/>
     <path d="M 147.961,523.756 C 147.959,523.149 147.852,522.585 147.642,522.063 C 147.431,521.541 147.134,521.088 146.753,520.703 C 146.371,520.318 145.912,520.017 145.376,519.799 C 144.839,519.582 144.245,519.474 143.592,519.476 C 142.939,519.478 142.344,519.59 141.807,519.81 C 141.269,520.031 140.81,520.335 140.429,520.722 C 140.048,521.11 139.754,521.565 139.546,522.088 C 139.338,522.611 139.236,523.176 139.237,523.783 C 139.239,524.39 139.346,524.955 139.557,525.476 C 139.768,525.998 140.065,526.451 140.448,526.834 C 140.831,527.217 141.292,527.517 141.831,527.734 C 142.369,527.952 142.965,528.059 143.618,528.057 C 144.271,528.055 144.865,527.943 145.4,527.72 C 145.935,527.498 146.393,527.194 146.772,526.808 C 147.151,526.423 147.444,525.969 147.652,525.446 C 147.86,524.923 147.963,524.359 147.961,523.756 Z M 145.967,523.762 C 145.968,524.177 145.916,524.551 145.809,524.883 C 145.703,525.216 145.549,525.497 145.348,525.728 C 145.147,525.959 144.901,526.137 144.609,526.261 C 144.318,526.384 143.986,526.447 143.613,526.448 C 143.237,526.449 142.901,526.389 142.607,526.267 C 142.313,526.145 142.065,525.969 141.862,525.739 C 141.66,525.509 141.504,525.229 141.396,524.897 C 141.287,524.565 141.232,524.192 141.231,523.777 C 141.23,523.358 141.282,522.983 141.389,522.65 C 141.495,522.318 141.649,522.036 141.85,521.805 C 142.051,521.574 142.298,521.398 142.592,521.276 C 142.885,521.154 143.22,521.092 143.597,521.091 C 143.969,521.09 144.302,521.15 144.594,521.27 C 144.886,521.39 145.134,521.564 145.336,521.794 C 145.538,522.024 145.694,522.305 145.802,522.637 C 145.911,522.969 145.966,523.344 145.967,523.762 Z" marker-start="none" marker-end="none"/>
    </g>
   </g>
   <path d="M 122.098,505.422 C 122.078,505.412 121.903,505.392 121.773,505.362 C 121.467,505.332 121.365,505.282 120.878,504.996 C 120.755,504.926 120.632,504.863 120.612,504.863 C 120.592,504.863 120.533,504.833 120.462,504.791 C 120.399,504.751 120.298,504.721 120.155,504.721 C 119.565,504.703 119.087,504.621 118.68,504.458 C 118.598,504.417 118.437,504.387 118.355,504.377 C 118.233,504.357 118.08,504.335 117.978,504.305 C 117.888,504.285 117.745,504.255 117.663,504.234 C 117.561,504.224 117.378,504.163 117.236,504.1 C 117.074,504.042 116.819,503.92 116.645,503.868 C 116.187,503.716 115.608,503.472 115.435,503.361 C 115.161,503.178 114.48,502.578 114.265,502.324 C 113.441,501.34 113.339,501.196 113.28,501.074 C 113.259,501.023 113.147,500.85 113.024,500.679 C 112.547,499.998 112.517,499.948 112.262,499.379 C 111.958,498.698 111.794,498.229 111.641,497.558 C 111.621,497.448 111.581,497.285 111.548,497.173 C 111.518,497.082 111.508,496.98 111.518,496.97 C 111.528,496.949 111.518,496.849 111.498,496.737 C 111.436,496.34 111.386,495.487 111.416,494.735 C 111.416,494.623 111.416,494.491 111.416,494.439 C 111.406,494.327 111.508,493.568 111.559,493.415 C 111.631,493.211 111.682,492.927 111.703,492.856 C 111.703,492.734 111.611,492.867 111.548,493.068 C 111.508,493.179 111.478,493.323 111.458,493.394 C 111.436,493.506 111.436,493.506 111.416,493.291 C 111.416,493.179 111.447,493.027 111.468,492.945 C 111.498,492.887 111.508,492.805 111.508,492.755 C 111.488,492.713 111.508,492.643 111.518,492.58 C 111.548,492.519 111.548,492.478 111.508,492.448 C 111.488,492.408 111.478,492.326 111.508,492.186 C 111.508,492.063 111.528,491.828 111.559,491.655 C 111.581,491.342 111.581,491.189 111.508,491.271 C 111.468,491.352 111.436,491.271 111.436,491.097 C 111.436,491.015 111.416,490.936 111.406,490.895 C 111.376,490.875 111.376,490.244 111.416,490.244 C 111.468,490.255 111.508,490.316 111.508,490.365 C 111.488,490.416 111.488,490.446 111.508,490.467 C 111.581,490.509 111.581,490.416 111.528,489.279 C 111.508,488.924 111.508,488.598 111.508,488.568 C 111.528,488.049 111.528,487.765 111.508,487.713 C 111.478,487.645 111.478,487.645 111.478,487.713 C 111.478,487.815 111.386,487.917 111.358,487.857 C 111.348,487.846 111.337,487.573 111.327,487.267 C 111.327,486.852 111.296,486.688 111.266,486.688 C 111.246,486.688 111.246,486.627 111.266,486.484 C 111.266,486.334 111.266,486.273 111.225,486.273 C 111.184,486.293 111.184,486.262 111.204,486.161 C 111.225,486.068 111.225,486.048 111.173,486.048 C 111.143,486.048 111.123,486.017 111.123,485.966 C 111.123,485.915 111.112,485.875 111.091,485.895 C 111.071,485.915 111.051,485.854 111.051,485.763 C 111.051,485.683 111.051,485.561 111.041,485.511 C 110.969,485.357 110.949,485.092 111,485.054 C 111.041,485.023 111.051,484.942 111.051,484.85 C 111.051,484.768 111.051,484.676 111.051,484.645 C 111.051,484.625 111.051,484.605 111.011,484.605 C 110.969,484.605 110.949,484.564 110.949,484.393 C 110.919,484.209 110.909,484.139 110.807,483.965 C 110.765,483.914 110.765,483.872 110.666,483.63 C 110.635,483.518 110.584,483.416 110.564,483.376 C 110.543,483.326 110.543,483.294 110.584,483.274 C 110.604,483.254 110.604,483.244 110.564,483.203 C 110.523,483.181 110.502,483.131 110.502,483.061 C 110.502,483.001 110.492,482.939 110.472,482.939 C 110.452,482.939 110.431,482.919 110.431,482.889 C 110.431,482.869 110.411,482.838 110.411,482.838 C 110.349,482.838 110.359,482.715 110.421,482.675 C 110.472,482.645 110.472,482.635 110.379,482.614 C 110.329,482.603 110.227,482.563 110.166,482.533 C 110.084,482.47 110.064,482.452 110.095,482.422 C 110.135,482.37 110.145,482.37 109.912,482.3 C 109.841,482.279 109.739,482.238 109.699,482.208 C 109.606,482.157 109.343,482.106 109.007,482.076 C 108.874,482.056 108.702,482.045 108.662,482.004 C 108.621,482.004 108.499,481.984 108.417,481.974 C 108.243,481.954 107.908,481.811 107.908,481.761 C 107.908,481.741 107.838,481.659 107.756,481.547 C 107.469,481.263 107.48,481.263 107.541,481.293 C 107.633,481.334 107.623,481.201 107.511,481.132 C 107.459,481.091 107.431,481.04 107.431,481.009 C 107.431,480.968 107.371,480.907 107.278,480.836 C 107.186,480.775 107.124,480.704 107.124,480.683 C 107.124,480.663 107.094,480.582 107.064,480.531 C 107.002,480.421 106.932,480.328 106.647,480.033 C 106.567,479.932 106.545,479.89 106.587,479.84 C 106.607,479.84 106.627,479.781 106.627,479.75 C 106.627,479.72 106.647,479.638 106.667,479.545 C 106.709,479.433 106.709,479.383 106.679,479.383 C 106.617,479.363 106.627,479.301 106.699,479.301 C 106.779,479.301 106.879,479.423 106.849,479.505 C 106.839,479.545 106.829,479.576 106.819,479.576 C 106.789,479.576 106.779,479.607 106.779,479.658 C 106.779,479.72 106.789,479.74 106.829,479.72 C 106.869,479.71 106.879,479.72 106.879,479.781 C 106.879,479.822 106.899,479.84 106.942,479.84 C 106.962,479.84 106.972,479.87 106.962,479.901 C 106.952,479.932 106.952,479.972 106.972,479.992 C 107.002,480.043 107.104,479.962 107.104,479.87 C 107.104,479.84 107.135,479.811 107.156,479.801 C 107.206,479.76 107.166,479.495 107.104,479.403 C 107.044,479.321 106.759,479.161 106.657,479.161 C 106.627,479.161 106.587,479.181 106.587,479.209 C 106.545,479.321 106.504,479.261 106.504,479.121 C 106.504,478.967 106.504,478.957 106.412,478.967 C 105.976,479.069 105.986,479.069 105.793,478.917 C 105.233,478.56 104.684,478.051 104.521,477.759 C 104.449,477.627 104.337,477.494 104.125,477.34 C 103.747,477.027 103.351,476.649 103.158,476.367 C 103.077,476.244 102.943,476.091 102.892,476.019 C 102.823,475.948 102.659,475.777 102.557,475.655 C 102.313,475.36 102.303,475.257 102.497,475.035 C 102.701,474.781 102.701,474.781 102.455,474.466 C 101.978,473.878 101.651,473.358 101.103,472.24 C 100.646,471.317 100.199,470.484 99.923,470.117 C 99.73,469.834 99.587,469.517 99.476,469.183 C 99.435,469.031 99.344,468.868 99.211,468.686 C 99.109,468.544 98.966,468.34 98.915,468.248 C 98.877,468.146 98.816,468.064 98.804,468.064 C 98.733,468.064 98.256,467.567 98.113,467.374 C 98.042,467.263 97.939,467.06 97.888,466.938 C 97.828,466.764 97.766,466.674 97.654,466.593 C 96.729,465.891 96.19,465.007 95.945,463.839 C 95.875,463.533 95.731,463.23 95.632,463.158 C 95.56,463.128 95.54,463.128 95.458,463.189 C 95.376,463.28 95.213,463.666 95.173,463.931 C 95.121,464.305 94.951,464.622 94.583,465.119 C 93.82,466.175 92.732,468.278 91.856,470.474 C 91.084,472.414 90.604,473.919 89.882,476.568 C 89.75,477.016 89.61,477.535 89.538,477.697 C 89.354,478.163 89.293,478.51 89.242,479.251 C 89.181,481.081 88.785,482.645 88.276,483.203 C 88.012,483.518 87.442,484.413 87.228,484.87 C 87.087,485.164 86.934,485.275 86.526,485.357 L 86.262,485.419 L 85.946,485.732 C 85.795,485.895 85.6,486.099 85.55,486.161 C 85.478,486.262 85.468,486.262 85.346,486.262 C 85.103,486.212 84.888,485.926 84.878,485.643 C 84.878,485.582 84.858,485.49 84.858,485.449 C 84.828,485.377 84.818,485.377 84.604,485.551 C 84.34,485.753 84.014,486.068 83.181,486.943 C 82.01,488.192 80.647,489.309 79.834,489.715 C 79.538,489.848 79.467,489.878 79.293,489.888 C 79.04,489.888 78.928,489.818 78.816,489.645 C 78.734,489.513 78.755,489.299 78.867,489.137 C 78.908,489.065 79.253,488.76 79.64,488.436 C 80.789,487.43 80.677,487.562 81.869,486.222 C 82.234,485.814 82.255,485.732 82.081,485.561 C 82.02,485.511 81.928,485.409 81.888,485.316 C 81.808,485.184 81.808,485.133 81.797,484.88 C 81.787,484.605 81.808,484.564 81.918,484.332 C 81.979,484.179 82.04,484.037 82.04,483.996 C 82.04,483.965 81.979,483.852 81.908,483.763 C 81.838,483.682 81.756,483.55 81.725,483.488 C 81.675,483.316 81.675,482.939 81.746,482.625 C 81.869,482.056 81.808,481.497 81.543,481.009 C 81.297,480.51 81.266,480.298 81.368,479.911 C 81.491,479.454 81.593,479.291 82.548,478.196 C 83.373,477.21 84.003,476.629 84.664,476.234 C 84.888,476.091 85.133,475.848 85.243,475.665 C 85.275,475.584 85.356,475.411 85.418,475.267 C 85.52,474.964 85.724,474.517 85.855,474.355 C 85.997,474.161 86.262,473.398 86.436,472.639 C 86.567,472.048 87.991,466.409 88.368,464.976 C 88.723,463.706 89.375,461.696 89.801,460.659 C 89.955,460.272 89.995,460.151 89.995,460.019 C 89.975,459.846 90.025,459.724 90.189,459.533 C 90.322,459.389 90.656,458.882 90.749,458.668 C 90.789,458.576 90.839,458.423 90.861,458.311 C 90.901,458.038 91.023,457.803 91.196,457.579 C 91.338,457.429 91.358,457.367 91.398,457.174 C 91.45,456.84 91.623,456.381 91.785,456.129 C 91.856,456.007 92.192,455.638 92.517,455.295 C 92.854,454.96 93.199,454.583 93.301,454.471 C 93.637,454.096 93.686,454.045 93.82,453.984 C 93.962,453.903 94.248,453.831 94.46,453.831 C 94.981,453.831 95.967,454.157 96.962,454.665 C 97.96,455.152 98.907,455.792 99.862,456.586 C 100.401,457.052 100.769,457.389 101.641,458.27 C 103.402,460.019 104.276,461.025 105.213,462.387 C 105.407,462.691 105.7,463.098 105.823,463.28 C 105.955,463.464 106.109,463.676 106.147,463.757 C 106.198,463.839 106.26,463.921 106.3,463.931 C 106.32,463.941 106.362,463.961 106.352,463.982 C 106.362,464.013 106.382,464.013 106.412,464.013 C 106.484,464.013 106.524,463.87 106.524,463.554 C 106.524,462.965 106.587,462.722 106.647,462.995 C 106.657,463.067 106.667,463.098 106.709,463.057 C 106.729,463.035 106.729,462.995 106.709,462.944 C 106.667,462.883 106.679,462.853 106.729,462.803 C 106.819,462.711 106.889,462.763 106.819,462.873 C 106.739,462.965 106.739,463.025 106.829,463.015 C 106.869,463.025 106.899,462.995 106.889,462.954 C 106.899,462.913 106.911,462.883 106.932,462.873 C 106.942,462.853 106.992,462.763 107.044,462.651 C 107.104,462.447 107.166,462.365 107.236,462.365 C 107.236,462.365 107.278,462.304 107.298,462.222 C 107.329,462.142 107.36,462.052 107.371,462.03 C 107.371,462 107.391,461.96 107.391,461.93 C 107.391,461.898 107.411,461.868 107.431,461.858 C 107.469,461.848 107.48,461.898 107.459,462.154 C 107.449,462.488 107.491,462.559 107.531,462.324 L 107.561,462.182 L 107.561,462.304 C 107.581,462.387 107.581,462.437 107.623,462.437 C 107.693,462.437 107.736,462.387 107.683,462.355 C 107.633,462.324 107.633,462.192 107.683,462.192 C 107.693,462.192 107.726,462.172 107.705,462.142 C 107.705,462.092 107.736,462.102 107.796,462.182 C 107.888,462.274 107.908,462.284 107.908,462.222 C 107.908,462.192 107.878,462.132 107.838,462.092 C 107.736,462 107.633,461.818 107.633,461.706 C 107.633,461.614 107.693,461.644 107.786,461.776 C 107.858,461.898 107.858,461.898 107.878,461.828 C 107.888,461.736 107.838,461.654 107.756,461.644 C 107.736,461.654 107.683,461.583 107.673,461.531 C 107.673,461.511 107.705,461.511 107.756,461.483 C 107.806,461.441 107.838,461.452 107.898,461.511 C 107.98,461.572 107.98,461.583 108.01,461.521 C 108.03,461.483 107.929,461.34 107.868,461.34 C 107.796,461.34 107.693,461.177 107.726,461.116 C 107.756,461.055 107.838,461.055 107.817,461.137 C 107.806,461.177 107.827,461.207 107.858,461.217 C 107.908,461.239 107.908,461.228 107.898,461.177 C 107.878,461.095 107.908,461.085 107.97,461.137 C 107.99,461.167 108.03,461.167 108.051,461.167 C 108.093,461.127 108.093,461.004 108.041,461.004 C 108.03,461.004 108.02,460.983 108.03,460.983 C 108.051,460.943 107.99,460.852 107.929,460.852 C 107.898,460.852 107.878,460.892 107.878,460.943 C 107.878,461.004 107.878,461.004 107.827,460.963 C 107.786,460.923 107.786,460.892 107.838,460.802 C 107.878,460.72 107.898,460.7 107.949,460.71 C 108.01,460.73 108.02,460.72 107.99,460.598 C 107.96,460.211 107.97,459.775 108.082,458.941 C 108.101,458.596 108.162,458.008 108.182,457.631 C 108.193,457.255 108.223,456.748 108.243,456.503 C 108.375,454.675 108.365,452.49 108.213,451.567 C 108.203,451.423 108.151,451.241 108.101,451.139 C 107.96,450.835 107.827,450.216 107.36,447.594 C 106.607,443.591 106.382,442.219 106.209,440.41 C 106.127,439.415 106.067,437.872 106.127,437.677 C 106.137,437.616 106.188,437.596 106.392,437.565 C 106.545,437.535 106.739,437.464 106.869,437.413 C 107.012,437.331 107.114,437.311 107.247,437.311 C 107.421,437.311 107.431,437.311 107.469,437.221 C 107.501,437.16 107.501,437.078 107.469,436.986 C 107.449,436.925 107.439,436.814 107.449,436.752 C 107.469,436.65 107.449,436.622 107.278,436.49 C 106.972,436.275 106.932,436.183 106.921,435.677 C 106.921,435.432 106.889,434.966 106.849,434.621 C 106.779,433.706 106.779,433.583 106.942,433.389 C 107.002,433.34 107.084,433.197 107.124,433.106 C 107.236,432.872 107.206,432.801 107.024,432.801 C 106.879,432.801 106.647,432.669 106.545,432.557 C 106.494,432.476 106.484,432.394 106.454,432.079 C 106.443,431.663 106.422,431.632 106.22,431.39 C 106.037,431.185 106.017,431.043 106.067,430.484 C 106.098,430.148 106.067,429.978 105.905,429.641 C 105.813,429.457 105.793,429.399 105.773,428.95 C 105.741,428.401 105.7,428.259 105.527,428.126 C 105.335,427.996 105.253,427.68 105.315,427.356 C 105.365,427.183 105.355,427.173 105.273,426.988 C 105.213,426.856 105.141,426.553 105.05,426.065 C 104.988,425.669 104.886,425.314 104.856,425.262 C 104.835,425.212 104.735,425.14 104.674,425.12 C 104.511,425.008 104.47,424.936 104.551,424.775 C 104.613,424.623 104.561,424.459 104.439,424.297 C 104.276,424.104 104.084,423.768 104.023,423.526 C 103.992,423.373 103.911,423.108 103.85,422.894 C 103.392,421.565 102.752,419.187 102.2,416.769 C 101.918,415.438 101.865,415.183 101.51,413.335 C 100.981,410.5 100.799,409.494 100.524,407.827 C 100.37,406.924 100.168,405.756 100.077,405.246 C 99.985,404.74 99.8,403.744 99.688,403.063 C 99.466,401.671 99.354,401.195 99.303,401.073 C 99.273,401.042 99.252,400.848 99.232,400.654 C 99.211,400.289 99.149,400.096 99.007,399.945 C 98.946,399.884 98.887,399.813 98.877,399.772 C 98.816,399.67 98.816,399.415 98.856,399.173 C 98.907,398.908 98.856,398.652 98.692,398.482 C 98.479,398.268 98.458,398.217 98.428,397.597 C 98.428,396.988 98.386,396.866 98.235,396.673 C 97.939,396.276 97.95,396.276 97.95,396.042 C 97.96,395.921 97.97,395.707 97.98,395.565 C 98,395.382 97.99,395.272 97.919,395.016 C 97.868,394.782 97.848,394.498 97.828,394.001 C 97.786,393.045 97.716,392.811 97.452,392.651 C 97.248,392.528 97.034,392.314 96.962,392.182 C 96.883,392.01 96.883,391.806 96.962,391.541 C 97.054,391.268 97.054,391.065 96.924,390.77 C 96.871,390.638 96.739,390.282 96.647,389.978 C 96.495,389.499 96.464,389.439 96.342,389.317 C 96.12,389.124 96.057,388.92 95.833,387.853 C 95.731,387.337 95.58,386.471 95.458,385.965 C 95.173,384.491 94.705,381.91 94.399,380.194 C 94.115,378.445 93.727,376.74 93.209,374.87 C 92.762,373.274 91.665,368.764 91.318,367.19 C 90.594,363.684 90.097,361.185 89.61,358.615 C 89.151,356.113 89.151,356.155 89.415,355.739 C 89.497,355.617 89.497,355.597 89.466,355.344 C 89.415,354.976 89.313,354.793 89.098,354.653 C 88.52,354.275 88.073,353.9 88.032,353.768 C 88.032,353.738 87.929,353.656 87.817,353.595 C 87.026,353.158 86.181,352.538 85.642,351.991 C 85.213,351.562 85.001,351.228 84.858,350.871 C 84.756,350.619 84.776,350.211 84.858,349.979 C 84.899,349.888 84.931,349.785 84.931,349.743 C 84.931,349.543 85.265,349.389 85.925,349.287 C 86.485,349.197 88.41,349.197 89.151,349.277 C 90.534,349.431 91.491,349.683 92.326,350.08 C 93.392,350.589 93.952,351.28 94.207,352.386 C 94.409,353.25 94.674,353.94 94.807,354.002 C 95.121,354.132 97.054,354.367 97.136,354.296 C 97.146,354.265 97.186,354.022 97.216,353.727 C 97.248,353.311 97.248,353.179 97.227,353.127 C 97.196,353.097 97.186,352.985 97.186,352.904 C 97.186,352.733 97.196,352.713 97.329,352.589 C 97.462,352.467 97.503,352.447 97.633,352.447 C 97.828,352.447 98.113,352.579 98.154,352.691 C 98.174,352.823 98.174,352.945 98.134,352.995 C 98.093,353.016 98.063,353.087 98.052,353.158 C 98.021,353.393 97.95,354.408 97.96,354.439 C 97.97,354.459 98.093,354.551 98.235,354.621 C 99.19,355.17 100.137,355.943 100.422,356.41 C 100.524,356.593 100.656,357.121 100.789,357.843 C 100.839,358.115 100.929,358.554 100.959,358.827 C 101.021,359.112 101.081,359.528 101.123,359.763 C 101.134,360.008 101.256,360.747 101.368,361.408 C 101.48,362.077 101.621,362.871 101.662,363.166 C 102.009,365.158 102.599,368.531 102.722,369.15 C 102.762,369.343 102.964,370.472 103.199,371.7 C 104.023,376.293 104.246,377.522 104.531,378.649 C 105.182,381.393 105.741,384.136 105.853,385.089 C 105.874,385.182 105.935,385.447 106.017,385.638 C 106.158,386.127 106.25,386.471 106.28,386.949 C 106.3,387.214 106.32,387.367 106.382,387.449 C 106.587,387.864 106.587,387.793 106.587,388.453 L 106.587,389.063 L 106.719,389.297 C 106.952,389.713 107.002,389.845 107.104,390.179 C 107.298,390.76 107.439,391.633 107.501,392.619 L 107.531,393.097 L 107.633,393.25 C 107.705,393.331 107.888,393.512 108.051,393.675 C 108.335,393.951 108.652,394.346 108.751,394.519 C 108.782,394.601 108.822,394.803 108.864,394.986 C 108.925,395.432 109.078,395.83 109.374,396.307 C 109.658,396.774 109.75,397.018 109.821,397.382 C 109.861,397.577 109.922,397.771 110.045,397.995 C 110.125,398.176 110.237,398.472 110.288,398.634 C 110.564,399.772 111.458,401.986 112.75,404.699 C 113.055,405.328 114.48,408.246 114.804,408.884 C 115.373,410.002 117.346,413.376 118.925,415.905 C 119.484,416.83 119.636,417.052 119.709,417.093 C 119.81,417.134 119.961,416.83 120.247,415.986 C 120.939,413.902 121.835,409.341 122.149,406.325 C 122.271,405.075 122.362,404.496 122.545,403.886 C 122.637,403.592 122.717,403.276 122.83,402.697 C 122.892,402.402 123.024,402.077 123.197,401.876 C 123.349,401.651 123.409,401.366 123.481,400.289 C 123.564,399.415 123.584,399.254 123.666,399.041 C 123.836,398.573 123.979,396.998 124.031,395.22 C 124.081,393.756 124.081,393.584 124.265,393.148 C 124.518,392.517 124.64,391.949 124.64,391.531 C 124.64,391.431 124.589,391.227 124.518,391.024 L 124.378,390.689 L 124.378,390.049 C 124.378,389.368 124.418,388.971 124.538,388.616 C 124.64,388.331 124.64,387.793 124.538,387.387 C 124.488,387.122 124.488,386.949 124.488,384.307 C 124.508,382.754 124.528,380.885 124.538,380.134 C 124.6,378.374 124.559,369.607 124.508,369.312 C 124.408,368.814 123.788,367.819 123.096,367.098 C 122.79,366.782 122.627,366.54 122.415,366.071 C 121.903,365.006 121.446,363.227 121.143,361.205 C 121.102,360.941 121,360.362 120.939,359.915 C 120.847,359.477 120.765,358.898 120.714,358.605 C 120.582,357.598 120.44,356.927 120.308,356.695 C 120.267,356.613 120.237,356.481 120.216,356.4 C 120.206,356.328 120.155,356.205 120.135,356.175 C 120.094,356.124 120.002,355.973 119.91,355.841 C 119.831,355.719 119.626,355.453 119.484,355.282 C 119.108,354.823 119.077,354.785 119.007,354.489 C 118.955,354.296 118.894,354.195 118.751,353.992 C 118.406,353.534 118.151,352.904 118.018,352.264 C 117.908,351.654 118.018,350.384 118.193,350.112 C 118.325,349.888 118.812,349.785 119.749,349.785 C 121.692,349.785 123.798,350.221 125.332,350.943 C 125.892,351.207 126.014,351.33 126.238,351.746 C 126.573,352.386 126.909,353.615 126.971,354.367 C 126.991,354.693 126.991,354.693 127.102,354.723 C 128.375,355.13 130.052,355.831 130.246,356.045 C 130.318,356.113 130.358,356.338 130.622,357.995 C 131.242,361.866 131.314,362.343 131.568,363.918 C 132.312,368.631 132.473,369.638 132.861,373.203 C 132.932,373.743 133.042,374.667 133.124,375.256 C 133.217,375.865 133.349,376.892 133.429,377.543 C 133.501,378.203 133.614,379.126 133.674,379.585 C 133.886,381.413 133.948,381.951 134.071,383.038 C 134.203,384.256 134.313,385.314 134.386,386.189 C 134.446,386.949 134.456,390.384 134.396,391.431 C 134.275,393.736 134.143,394.833 133.856,395.84 C 133.744,396.235 133.614,396.866 133.491,397.637 C 133.441,398.053 133.419,398.288 133.429,398.774 C 133.429,399.354 133.419,399.405 133.339,399.567 C 133.277,399.691 133.257,399.833 133.227,400.167 C 133.154,400.909 133.154,400.919 133.339,401.073 C 133.614,401.295 133.614,401.437 133.359,401.691 C 133.154,401.886 133.104,402.118 133.227,402.515 C 133.277,402.657 133.317,402.961 133.339,403.196 C 133.379,403.764 133.744,405.886 134.223,408.378 C 134.467,409.637 134.68,410.988 134.936,412.552 C 135.281,414.645 135.626,416.575 135.758,417.144 C 136.318,419.481 136.542,420.833 136.511,421.604 C 136.501,421.919 136.501,422.083 136.532,422.315 C 136.654,422.894 136.747,424.916 136.674,425.334 C 136.583,425.963 136.297,428.728 136.248,429.763 C 136.126,431.795 135.495,434.509 134.742,436.315 C 134.508,436.895 134.416,437.392 134.488,437.799 C 134.528,438.043 134.528,438.104 134.456,438.429 C 134.396,438.642 134.333,438.896 134.285,439.008 C 134.193,439.242 134.193,439.251 134.255,439.323 C 134.396,439.486 134.995,440.166 135.169,440.32 C 135.322,440.472 135.372,440.562 135.414,440.695 C 135.505,441.001 135.454,441.113 135.087,441.803 C 134.732,442.463 134.354,443.183 134.285,443.387 C 134.244,443.509 134.244,443.519 134.285,443.57 C 134.333,443.622 134.376,443.612 134.61,443.489 C 134.975,443.285 135.2,443.234 135.618,443.234 C 136.511,443.234 137.07,443.478 138.992,444.749 C 139.94,445.388 140.306,445.642 140.977,446.161 C 141.944,446.872 142.697,447.543 143.277,448.173 C 143.439,448.346 143.601,448.497 143.611,448.497 C 143.694,448.497 144.343,448.833 144.405,448.905 C 144.456,448.966 144.528,449.068 144.578,449.157 C 144.65,449.249 144.752,449.423 144.853,449.514 C 144.923,449.616 145.066,449.787 145.137,449.929 C 145.2,450.051 145.332,450.236 145.424,450.348 C 145.554,450.508 145.697,450.752 145.849,451.139 C 145.961,451.393 146.154,451.658 146.306,451.778 C 146.501,451.88 146.603,452.135 146.633,452.459 C 146.654,452.653 146.633,452.704 146.44,453.13 L 146.236,453.598 L 146.276,453.882 C 146.286,454.086 146.306,454.177 146.359,454.228 C 146.481,454.358 146.572,454.543 146.633,454.746 C 146.735,455.08 146.664,455.376 146.44,455.6 C 146.369,455.7 146.359,455.71 146.369,456.119 C 146.359,456.483 146.347,456.543 146.276,456.676 C 146.236,456.768 146.164,456.85 146.113,456.88 C 146.044,456.91 145.983,456.97 145.921,457 C 145.819,457.082 145.636,457.589 145.615,457.875 C 145.595,458.1 145.585,458.1 145.413,458.27 C 145.147,458.556 145.077,458.75 145.077,459.287 L 145.077,459.703 L 144.913,460.049 C 144.782,460.323 144.752,460.394 144.762,460.537 C 144.792,461.004 144.782,461.351 144.68,461.634 C 144.568,461.94 144.405,462.242 144.191,462.457 C 144.041,462.631 144.051,462.61 143.774,463.839 C 143.509,464.976 143.369,465.718 143.194,466.784 C 143.042,467.731 142.95,468.095 142.687,469 C 142.472,469.722 142.248,470.311 142.056,470.706 C 141.964,470.94 141.873,471.205 141.791,471.509 C 141.658,472.068 141.487,472.587 141.334,472.941 C 141.242,473.146 141.15,473.268 140.856,473.572 C 140.397,474.059 140.285,474.222 140.254,474.466 C 140.175,475.168 139.787,476.031 139.442,476.305 C 139.381,476.356 139.279,476.489 139.227,476.578 C 139.002,477.027 138.658,477.452 138.383,477.595 C 138.15,477.717 138.018,477.717 137.762,477.637 L 137.551,477.545 L 137.092,477.667 C 136.054,477.929 135.24,478.226 134.865,478.45 C 134.518,478.662 134.456,478.722 134.436,478.794 C 134.396,478.957 134.376,478.967 134.333,478.875 C 134.323,478.834 134.305,478.794 134.285,478.834 C 134.255,478.854 134.285,478.988 134.354,479.261 C 134.456,479.607 134.456,479.71 134.446,479.89 C 134.416,480.094 134.416,480.114 134.467,480.094 C 134.518,480.043 134.65,479.992 134.62,480.013 C 134.61,480.033 134.61,480.104 134.65,480.166 C 134.67,480.226 134.68,480.267 134.67,480.267 C 134.65,480.267 134.62,480.237 134.61,480.206 C 134.6,480.166 134.579,480.125 134.548,480.125 C 134.477,480.135 134.477,480.298 134.528,480.472 C 134.548,480.571 134.579,480.816 134.6,481.181 C 134.6,481.201 134.62,481.232 134.65,481.232 C 134.67,481.232 134.69,481.263 134.701,481.293 C 134.701,481.334 134.711,481.364 134.732,481.375 C 134.752,481.395 134.763,481.466 134.742,481.547 C 134.732,481.659 134.742,481.721 134.773,481.761 C 134.803,481.781 134.803,481.852 134.773,481.984 C 134.763,482.076 134.742,482.167 134.773,482.188 C 134.793,482.218 134.793,482.259 134.773,482.279 C 134.742,482.29 134.711,482.34 134.701,482.381 C 134.68,482.422 134.65,482.46 134.61,482.46 C 134.6,482.46 134.568,482.47 134.568,482.501 C 134.568,482.512 134.6,482.533 134.61,482.533 C 134.701,482.533 134.711,482.583 134.68,482.747 C 134.67,482.889 134.65,482.889 134.6,482.889 C 134.548,482.869 134.528,482.889 134.528,482.929 C 134.528,482.981 134.558,483.011 134.589,483.011 C 134.61,483.011 134.61,483.083 134.61,483.326 C 134.61,483.498 134.61,483.64 134.61,483.652 C 134.6,483.662 134.6,483.752 134.589,483.842 C 134.579,483.954 134.538,484.037 134.518,484.047 C 134.416,484.119 134.416,484.037 134.477,483.852 C 134.528,483.722 134.548,483.316 134.488,483.316 C 134.477,483.316 134.416,483.458 134.416,483.62 C 134.364,484.037 134.333,484.251 134.295,484.291 C 134.244,484.353 134.193,484.311 134.233,484.22 C 134.265,484.179 134.265,484.159 134.233,484.119 C 134.193,484.087 134.173,484.108 134.132,484.423 C 134.111,484.564 134.111,484.665 134.132,484.708 C 134.163,484.768 134.163,484.768 134.244,484.543 C 134.255,484.503 134.275,484.503 134.285,484.543 C 134.295,484.585 134.285,484.645 134.275,484.698 C 134.173,484.89 134.153,485.013 134.153,485.224 C 134.143,485.387 134.111,485.561 134.071,485.704 C 133.989,485.956 133.989,486.048 134.101,485.915 C 134.132,485.854 134.173,485.834 134.213,485.854 C 134.265,485.875 134.275,485.865 134.255,485.773 C 134.223,485.693 134.244,485.683 134.313,485.643 C 134.354,485.622 134.396,485.571 134.416,485.511 L 134.416,485.419 L 134.456,485.511 C 134.477,485.582 134.467,485.633 134.416,485.704 C 134.396,485.763 134.396,485.814 134.416,485.824 C 134.477,485.885 134.416,485.966 134.323,485.966 C 134.265,485.966 134.233,486.007 134.213,486.058 C 134.193,486.151 134.223,486.222 134.285,486.222 C 134.323,486.222 134.333,486.262 134.323,486.374 C 134.313,486.515 134.275,486.627 134.275,486.505 C 134.275,486.433 134.233,486.433 134.081,486.525 C 133.958,486.607 133.938,486.688 134.071,486.617 C 134.111,486.607 134.163,486.607 134.193,486.607 C 134.265,486.637 134.223,486.79 134.143,486.852 C 134.041,486.943 133.928,487.176 133.938,487.246 C 133.938,487.298 133.968,487.318 134.021,487.318 C 134.091,487.318 134.111,487.338 134.071,487.399 C 134.031,487.614 133.999,487.665 133.958,487.624 C 133.897,487.573 133.856,487.624 133.886,487.695 C 133.908,487.765 133.816,487.989 133.724,488.049 C 133.684,488.08 133.674,488.111 133.684,488.141 C 133.684,488.181 133.684,488.223 133.662,488.253 C 133.563,488.374 133.531,488.526 133.541,488.72 C 133.552,488.832 133.552,488.914 133.531,488.924 C 133.511,488.914 133.481,489.006 133.451,489.085 C 133.429,489.177 133.379,489.34 133.349,489.421 C 133.307,489.483 133.257,489.635 133.247,489.736 C 133.227,489.818 133.194,489.919 133.164,489.94 C 133.124,489.99 133.114,490.031 133.144,490.102 C 133.154,490.224 133.104,490.375 133.022,490.446 C 132.973,490.488 132.952,490.539 132.952,490.702 C 132.952,490.975 132.932,491.046 132.861,491.158 C 132.819,491.21 132.789,491.271 132.789,491.322 C 132.789,491.393 132.799,491.393 132.819,491.332 C 132.872,491.271 132.892,491.271 132.912,491.332 C 132.952,491.352 132.942,491.393 132.892,491.474 C 132.861,491.545 132.819,491.686 132.799,491.808 C 132.769,491.931 132.738,492.063 132.697,492.124 C 132.667,492.155 132.647,492.236 132.667,492.257 C 132.687,492.326 132.687,492.366 132.565,492.775 C 132.514,492.897 132.483,493.027 132.483,493.057 C 132.483,493.099 132.453,493.179 132.411,493.231 C 132.37,493.302 132.332,493.436 132.302,493.526 C 132.281,493.636 132.23,493.81 132.179,493.932 C 132.148,494.044 132.108,494.187 132.108,494.239 C 132.108,494.287 132.088,494.359 132.046,494.399 C 132.005,494.429 131.985,494.491 131.985,494.572 C 131.985,494.653 131.934,494.868 131.853,495.06 C 131.801,495.274 131.73,495.476 131.72,495.539 C 131.681,495.751 131.406,496.533 131.304,496.828 C 131.221,496.99 131.171,497.122 131.16,497.163 C 131.171,497.234 130.928,497.834 130.898,497.854 C 130.877,497.864 130.856,497.905 130.856,497.945 C 130.856,497.997 130.856,498.047 130.815,498.068 C 130.775,498.109 130.765,498.149 130.754,498.188 C 130.765,498.229 130.734,498.331 130.703,498.433 C 130.581,498.718 130.093,499.693 130.001,499.793 C 129.951,499.856 129.91,499.968 129.889,500.05 C 129.889,500.12 129.849,500.21 129.798,500.24 C 129.777,500.272 129.747,500.322 129.747,500.342 C 129.747,500.383 129.392,501.023 129.217,501.267 C 129.137,501.39 129.075,501.5 129.075,501.521 C 129.075,501.541 129.017,501.612 128.965,501.674 C 128.893,501.755 128.812,501.887 128.76,501.969 C 128.74,502.051 128.608,502.222 128.505,502.354 C 128.413,502.476 128.313,502.599 128.313,502.619 C 128.313,502.639 128.273,502.71 128.213,502.771 C 128.15,502.832 128.028,502.984 127.946,503.117 C 127.793,503.351 127.306,503.838 126.971,504.1 C 126.716,504.285 125.72,504.771 125.353,504.884 C 125.251,504.926 125.1,504.976 125.007,505.016 C 124.926,505.058 124.63,505.138 124.347,505.2 C 124.081,505.25 123.836,505.312 123.826,505.312 C 123.818,505.332 123.481,505.342 123.086,505.362 C 122.697,505.381 122.332,505.402 122.26,505.422 C 122.19,505.422 122.118,505.422 122.098,505.422 Z M 132.514,492.257 C 132.493,492.236 132.483,492.246 132.483,492.267 C 132.483,492.316 132.493,492.326 132.503,492.316 C 132.514,492.316 132.514,492.277 132.514,492.257 Z M 111.682,491.9 C 111.682,491.757 111.682,491.696 111.651,491.737 C 111.631,491.777 111.631,491.869 111.631,491.931 C 111.651,492.094 111.651,492.094 111.682,492.094 C 111.682,492.094 111.682,492.002 111.682,491.9 Z M 133.744,487.887 C 133.764,487.877 133.744,487.857 133.744,487.857 C 133.714,487.857 133.704,487.877 133.684,487.897 C 133.684,487.907 133.704,487.927 133.704,487.927 C 133.724,487.917 133.744,487.907 133.744,487.887 Z M 133.662,487.338 C 133.662,487.298 133.654,487.277 133.624,487.277 C 133.573,487.277 133.563,487.338 133.573,487.348 C 133.614,487.399 133.662,487.389 133.662,487.338 Z M 111.458,487.338 C 111.458,487.308 111.436,487.318 111.436,487.348 C 111.436,487.399 111.447,487.42 111.458,487.399 C 111.468,487.399 111.468,487.358 111.458,487.338 Z M 133.856,487.104 C 133.836,486.984 133.856,486.933 133.886,486.892 C 133.938,486.841 133.938,486.719 133.886,486.739 C 133.816,486.779 133.796,486.852 133.786,487.084 C 133.774,487.236 133.774,487.267 133.816,487.267 C 133.876,487.277 133.876,487.236 133.856,487.104 Z M 133.704,486.454 C 133.684,486.433 133.624,486.525 133.654,486.566 C 133.662,486.586 133.684,486.566 133.704,486.545 C 133.724,486.505 133.724,486.474 133.704,486.454 Z M 134.031,486.151 C 134.031,486.099 134.021,486.099 133.989,486.151 C 133.958,486.161 133.938,486.222 133.938,486.232 C 133.938,486.273 133.938,486.273 133.989,486.262 C 133.999,486.222 134.031,486.181 134.031,486.151 Z M 133.928,483.478 C 133.928,483.468 133.908,483.448 133.897,483.448 C 133.897,483.448 133.876,483.468 133.876,483.488 C 133.876,483.498 133.876,483.518 133.886,483.518 C 133.897,483.518 133.928,483.498 133.928,483.478 Z M 134.528,483.203 C 134.518,483.181 134.508,483.181 134.508,483.223 C 134.498,483.254 134.508,483.284 134.528,483.264 C 134.528,483.254 134.528,483.223 134.528,483.203 Z M 134.061,482.96 C 134.061,482.919 134.041,482.869 134.021,482.838 C 133.999,482.797 133.989,482.797 133.958,482.869 C 133.897,482.96 133.938,483.051 133.999,483.041 C 134.041,483.041 134.061,483.011 134.061,482.96 Z M 133.938,482.543 C 133.958,482.412 133.958,482.391 133.908,482.402 C 133.876,482.422 133.796,482.665 133.836,482.726 C 133.876,482.817 133.908,482.726 133.938,482.543 Z M 134.121,482.603 C 134.132,482.583 134.111,482.563 134.081,482.563 C 134.071,482.563 134.061,482.583 134.061,482.603 C 134.061,482.625 134.071,482.635 134.081,482.625 C 134.111,482.625 134.121,482.625 134.121,482.603 Z M 134.193,482.34 C 134.275,482.208 134.285,482.004 134.285,481.639 C 134.275,481.425 134.265,481.232 134.244,481.212 C 134.233,481.201 134.223,480.958 134.203,480.673 C 134.193,480.401 134.163,480.166 134.163,480.166 C 134.111,480.125 134.041,480.186 134.071,480.237 C 134.071,480.267 134.051,480.36 134.021,480.451 C 133.938,480.643 133.897,481.112 133.948,481.283 C 133.968,481.375 133.989,481.415 133.948,481.446 C 133.897,481.487 133.897,481.609 133.948,481.609 C 133.958,481.609 133.968,481.761 133.968,481.984 C 133.958,482.33 133.958,482.34 134.031,482.381 C 134.121,482.432 134.163,482.422 134.193,482.34 Z M 134.701,481.466 C 134.701,481.456 134.68,481.425 134.67,481.435 C 134.65,481.425 134.63,481.456 134.63,481.466 C 134.63,481.487 134.65,481.497 134.67,481.497 C 134.68,481.487 134.701,481.487 134.701,481.466 Z M 134.985,463.23 C 134.995,463.189 135.015,463.158 134.995,463.148 C 134.985,463.108 134.875,463.21 134.875,463.27 C 134.875,463.332 134.936,463.322 134.985,463.23 Z M 134.803,463.189 C 134.773,463.128 134.793,463.098 134.824,463.088 C 134.875,463.057 134.975,462.842 134.957,462.773 C 134.946,462.753 134.975,462.691 134.995,462.631 C 135.025,462.579 135.036,462.488 135.036,462.387 C 135.015,462.263 135.025,462.222 135.046,462.212 C 135.067,462.222 135.087,462.192 135.087,462.162 C 135.087,462.132 135.067,462.112 135.067,462.112 C 135.036,462.112 135.036,462.052 135.036,461.98 C 135.046,461.908 135.036,461.848 135.025,461.828 C 134.995,461.808 134.995,461.766 135.025,461.706 C 135.087,461.483 134.936,461.572 134.814,461.828 C 134.65,462.154 134.6,462.355 134.61,462.549 C 134.63,462.691 134.63,462.733 134.589,462.733 C 134.568,462.733 134.528,462.763 134.538,462.783 C 134.538,462.821 134.568,462.821 134.6,462.821 C 134.65,462.793 134.67,462.883 134.6,462.913 C 134.579,462.933 134.568,462.933 134.6,462.954 C 134.62,462.965 134.65,462.985 134.65,463.005 C 134.65,463.057 134.773,463.28 134.803,463.28 C 134.803,463.27 134.803,463.23 134.803,463.189 Z M 135.149,462.933 C 135.159,462.913 135.127,462.903 135.117,462.893 C 135.107,462.893 135.087,462.913 135.087,462.933 C 135.087,462.954 135.107,462.965 135.107,462.965 C 135.127,462.965 135.149,462.954 135.149,462.933 Z M 135.322,462.417 C 135.322,462.355 135.312,462.314 135.281,462.324 C 135.23,462.355 135.2,462.437 135.23,462.509 C 135.26,462.589 135.322,462.529 135.322,462.417 Z M 107.848,462.324 C 107.858,462.314 107.838,462.304 107.817,462.304 C 107.796,462.304 107.776,462.314 107.786,462.324 C 107.786,462.355 107.796,462.365 107.817,462.365 C 107.838,462.365 107.858,462.355 107.848,462.324 Z M 135.587,461.97 C 135.647,461.98 136.044,461.34 136.318,460.71 C 136.461,460.384 136.593,460.172 136.818,459.937 C 136.958,459.775 136.989,459.734 137.029,459.522 C 137.152,458.911 137.541,458.191 138.088,457.501 L 138.261,457.265 L 138.515,456.209 C 138.68,455.58 138.802,455.08 138.862,454.979 C 138.972,454.746 139.075,454.338 139.115,453.923 C 139.136,453.486 139.197,453.415 139.422,453.446 C 139.554,453.466 139.554,453.466 139.554,453.374 C 139.554,453.324 139.494,453.171 139.422,453.018 C 139.339,452.877 139.289,452.745 139.289,452.714 C 139.289,452.704 139.207,452.581 139.125,452.459 C 139.013,452.329 138.922,452.156 138.882,452.064 C 138.842,451.982 138.802,451.86 138.78,451.799 C 138.73,451.678 138.383,451.139 138.15,450.815 C 138.068,450.702 137.906,450.478 137.803,450.348 C 137.326,449.677 136.879,449.096 136.399,448.537 C 136.258,448.366 136.085,448.152 136.024,448.071 C 135.799,447.775 135.587,447.655 135.434,447.747 C 135.362,447.785 134.61,448.446 133.989,448.986 C 133.897,449.076 133.614,449.33 133.349,449.565 C 133.072,449.807 132.819,450.062 132.759,450.124 C 132.626,450.328 132.342,450.58 132.025,450.752 L 131.741,450.937 L 131.72,451.219 C 131.681,451.718 131.7,454.137 131.741,454.675 C 131.832,455.6 131.954,456.289 132.148,456.788 C 132.19,456.922 132.23,457.082 132.24,457.112 C 132.24,457.132 132.281,457.194 132.332,457.255 C 132.37,457.327 132.411,457.419 132.411,457.501 C 132.411,457.551 132.432,457.621 132.443,457.631 C 132.453,457.631 132.483,457.701 132.493,457.763 C 132.514,457.834 132.535,457.885 132.565,457.895 C 132.595,457.905 132.615,457.997 132.626,458.1 C 132.667,458.444 132.687,458.535 132.759,458.576 C 132.872,458.627 132.892,458.668 132.892,458.841 C 132.892,459.013 132.932,459.084 133.022,459.073 C 133.052,459.073 133.062,459.053 133.052,459.002 C 133.032,458.941 133.022,458.841 133.022,458.77 C 132.994,458.616 132.932,458.393 132.932,458.484 C 132.932,458.556 132.912,458.556 132.872,458.494 C 132.85,458.464 132.819,458.423 132.83,458.393 C 132.861,458.332 132.872,458.342 132.942,458.423 C 132.994,458.444 133.022,458.494 133.022,458.515 C 133.022,458.556 133.052,458.556 133.082,458.576 C 133.174,458.596 133.184,458.688 133.104,458.729 C 133.072,458.75 133.072,458.76 133.104,458.852 C 133.164,459.002 133.144,459.124 133.032,459.175 C 133.002,459.185 132.983,459.226 132.994,459.236 C 133.022,459.247 133.042,459.247 133.072,459.226 C 133.093,459.206 133.144,459.185 133.164,459.206 C 133.217,459.216 133.227,459.135 133.277,458.821 C 133.317,458.556 133.317,458.382 133.277,458.311 C 133.277,458.222 133.317,458.059 133.359,458.1 C 133.379,458.12 133.399,458.301 133.399,458.464 C 133.399,458.494 133.419,458.535 133.429,458.535 C 133.451,458.535 133.451,458.596 133.441,458.657 C 133.429,458.718 133.441,458.791 133.451,458.821 C 133.501,458.862 133.481,459.114 133.429,459.114 C 133.419,459.114 133.399,459.145 133.399,459.185 C 133.399,459.247 133.419,459.287 133.441,459.287 C 133.451,459.287 133.481,459.247 133.481,459.206 C 133.481,459.135 133.481,459.135 133.511,459.185 C 133.541,459.236 133.552,459.277 133.511,459.338 C 133.491,459.369 133.481,459.461 133.481,459.522 C 133.481,459.632 133.481,459.632 133.531,459.551 C 133.573,459.482 133.573,459.482 133.563,459.622 C 133.541,459.775 133.563,459.866 133.644,459.866 C 133.684,459.866 133.684,459.887 133.614,459.917 C 133.531,459.989 133.531,460.06 133.604,460.101 C 133.662,460.131 133.684,460.193 133.704,460.394 C 133.704,460.547 133.744,460.71 133.754,460.761 C 133.774,460.802 133.796,460.892 133.796,460.963 C 133.816,461.116 133.856,461.299 133.886,461.319 C 133.897,461.319 133.928,461.259 133.958,461.187 C 133.999,461.004 134.031,460.943 134.121,460.75 C 134.203,460.547 134.354,460.172 134.396,460.019 C 134.406,459.937 134.456,459.856 134.477,459.805 C 134.508,459.765 134.528,459.714 134.528,459.693 C 134.528,459.673 134.6,459.533 134.68,459.399 C 134.763,459.257 134.845,459.104 134.855,459.063 C 134.865,459.013 134.905,458.962 134.926,458.941 C 134.936,458.911 134.985,458.841 134.995,458.791 C 135.067,458.616 135.26,458.362 135.322,458.362 C 135.362,458.352 135.383,458.311 135.393,458.222 C 135.414,458.15 135.434,458.069 135.454,458.059 C 135.515,458.018 135.484,458.212 135.393,458.382 C 135.362,458.484 135.322,458.576 135.322,458.596 C 135.322,458.616 135.281,458.647 135.25,458.668 C 135.21,458.708 135.19,458.77 135.169,458.841 C 135.159,458.931 135.149,459.013 135.127,459.053 C 135.107,459.094 135.107,459.114 135.159,459.114 C 135.19,459.114 135.21,459.084 135.21,459.073 C 135.21,459.002 135.454,458.708 135.495,458.729 C 135.515,458.75 135.505,458.791 135.454,458.831 C 135.434,458.862 135.414,458.921 135.414,458.962 C 135.414,459.013 135.393,459.043 135.362,459.043 C 135.271,459.043 135.24,459.114 135.26,459.206 C 135.281,459.257 135.26,459.287 135.2,459.308 C 135.107,459.348 135.107,459.358 135.127,459.43 C 135.127,459.492 135.127,459.561 135.097,459.591 C 135.036,459.703 134.995,459.856 135.067,459.846 C 135.087,459.826 135.077,459.877 135.036,459.978 C 134.967,460.111 134.946,460.262 134.985,460.527 C 134.995,460.72 135.046,460.881 135.087,460.881 C 135.107,460.881 135.149,460.802 135.21,460.71 C 135.322,460.476 135.383,460.435 135.424,460.506 C 135.454,460.588 135.454,460.598 135.383,460.618 C 135.322,460.628 135.312,460.649 135.322,460.74 C 135.322,460.792 135.302,460.892 135.271,460.963 C 135.24,461.015 135.22,461.095 135.22,461.137 C 135.22,461.187 135.2,461.228 135.19,461.249 C 135.169,461.249 135.149,461.289 135.149,461.299 C 135.149,461.329 135.169,461.319 135.2,461.289 C 135.23,461.249 135.25,461.259 135.25,461.319 C 135.25,461.421 135.281,461.503 135.322,461.503 C 135.383,461.503 135.383,461.521 135.362,461.614 C 135.322,461.696 135.332,461.766 135.372,461.848 C 135.393,461.93 135.414,461.97 135.383,462 C 135.362,462.03 135.362,462.052 135.393,462.112 C 135.434,462.182 135.434,462.182 135.495,462.072 C 135.525,462.01 135.567,461.97 135.587,461.97 Z M 134.711,461.685 C 134.763,461.521 134.803,461.462 134.803,461.531 C 134.803,461.634 134.875,461.614 134.915,461.511 C 134.936,461.452 134.936,461.401 134.915,461.381 C 134.895,461.351 134.875,461.289 134.915,461.207 C 134.936,461.137 134.957,461.045 134.975,460.994 C 134.985,460.943 134.967,460.913 134.936,460.892 C 134.915,460.892 134.875,460.842 134.875,460.792 C 134.875,460.761 134.855,460.67 134.824,460.608 C 134.773,460.496 134.742,460.516 134.68,460.67 C 134.68,460.72 134.65,460.75 134.61,460.75 C 134.589,460.75 134.528,460.832 134.477,460.923 C 134.396,461.065 134.354,461.137 134.386,461.239 C 134.396,461.309 134.396,461.441 134.364,461.531 C 134.333,461.726 134.376,461.97 134.436,461.93 C 134.456,461.92 134.477,461.96 134.477,462.01 C 134.477,462.052 134.477,462.112 134.488,462.132 C 134.528,462.154 134.63,461.93 134.711,461.685 Z M 135.26,461.96 C 135.26,461.92 135.23,461.868 135.22,461.878 C 135.2,461.868 135.19,461.908 135.19,461.96 C 135.19,462.02 135.2,462.042 135.22,462.042 C 135.24,462.042 135.25,462.01 135.26,461.96 Z M 135.22,461.706 C 135.22,461.674 135.2,461.634 135.2,461.634 C 135.127,461.634 135.107,461.696 135.127,461.736 C 135.169,461.808 135.22,461.776 135.22,461.706 Z M 135.23,460.852 C 135.2,460.832 135.149,460.892 135.169,460.923 C 135.19,460.943 135.2,460.943 135.22,460.923 C 135.23,460.892 135.24,460.852 135.23,460.852 Z M 134.915,460.374 C 134.875,460.334 134.875,460.344 134.875,460.384 C 134.865,460.425 134.875,460.435 134.895,460.425 C 134.915,460.425 134.915,460.384 134.915,460.374 Z M 133.399,459.826 C 133.399,459.795 133.399,459.754 133.379,459.754 C 133.359,459.754 133.339,459.795 133.339,459.826 C 133.339,459.866 133.359,459.887 133.379,459.887 C 133.399,459.887 133.399,459.866 133.399,459.826 Z M 134.67,459.724 C 134.701,459.642 134.701,459.551 134.67,459.551 C 134.65,459.551 134.568,459.724 134.568,459.775 C 134.568,459.815 134.63,459.775 134.67,459.724 Z M 133.317,459.512 C 133.329,459.482 133.317,459.44 133.307,459.43 C 133.277,459.42 133.277,459.461 133.277,459.482 C 133.277,459.571 133.277,459.581 133.317,459.512 Z M 133.277,459.338 C 133.277,459.308 133.257,459.287 133.227,459.287 C 133.217,459.287 133.205,459.308 133.205,459.358 C 133.205,459.399 133.217,459.409 133.227,459.409 C 133.257,459.399 133.267,459.358 133.277,459.338 Z M 134.946,459.358 C 134.985,459.287 134.936,459.247 134.915,459.308 C 134.865,459.379 134.865,459.409 134.915,459.409 C 134.915,459.42 134.936,459.399 134.946,459.358 Z M 135.127,458.931 C 135.107,458.882 135.036,458.852 135.036,458.911 C 135.036,458.951 135.067,458.972 135.087,458.972 C 135.127,458.972 135.149,458.951 135.127,458.931 Z M 132.342,457.773 C 132.342,457.712 132.342,457.712 132.302,457.753 C 132.291,457.773 132.291,457.813 132.302,457.834 C 132.332,457.875 132.342,457.844 132.342,457.773 Z M 132.27,457.459 C 132.27,457.347 132.24,457.255 132.23,457.265 C 132.2,457.265 132.19,457.307 132.19,457.337 C 132.2,457.722 132.2,457.763 132.23,457.712 C 132.24,457.701 132.281,457.571 132.27,457.459 Z" stroke="none" fill="#7ed6df" stroke-width="0" fill-rule="evenodd" stroke-linejoin="miter" marker-start="none" marker-end="none"/>
   <path d="M 119.841,367.016 C 126.818,372.889 137.244,372.014 143.124,365.046 C 149.002,358.057 148.117,347.6 141.15,341.727 C 134.203,335.835 123.767,336.709 117.868,343.688 C 112.008,350.66 112.882,361.113 119.841,367.016 Z" stroke="none" fill="#ffffff" stroke-width="0.681" stroke-linejoin="miter" marker-start="none" marker-end="none"/>
   <path d="M 120.622,367.626 C 127.601,373.529 138.018,372.634 143.906,365.654 C 149.796,358.696 148.91,348.231 141.944,342.339 C 134.975,336.455 124.538,337.329 118.66,344.309 C 112.77,351.29 113.666,361.723 120.622,367.626 Z" stroke="#539bc5" stroke-width="3.748" stroke-linejoin="miter" marker-start="none" marker-end="none"/>
   <g id="Group_8" fill-rule="nonzero" stroke-linejoin="round" stroke-linecap="round" stroke="none" stroke-width="0.783" fill="#000000">
    <g id="Group_9">
     <path d="M 127.707,349.866 L 130.538,349.866 L 130.538,357.297 C 130.538,357.661 130.548,358.042 130.568,358.44 L 128.9,357.054 C 128.792,356.967 128.684,356.904 128.576,356.867 C 128.468,356.83 128.364,356.812 128.263,356.812 C 128.088,356.812 127.931,356.851 127.793,356.928 C 127.655,357.006 127.552,357.088 127.484,357.176 L 126.494,358.49 L 131.084,362.343 L 133.672,362.343 L 133.672,349.866 L 136.098,349.866 L 136.098,347.6 L 127.707,347.6 L 127.707,349.866 Z" marker-start="none" marker-end="none"/>
    </g>
   </g>
  </g>
 </g>
</svg>
