<?xml version="1.0" standalone="no"?>
<!DOCTYPE svg PUBLIC "-//W3C//DTD SVG 1.1//EN" "http://www.w3.org/Graphics/SVG/1.1/DTD/svg11.dtd">
<!--Generator: Xara Designer (www.xara.com), SVG filter version: 6.6.0.0-->
<svg fill="none" fill-rule="evenodd" stroke="black" stroke-width="0.501" stroke-linejoin="bevel" stroke-miterlimit="10" font-family="Times New Roman" font-size="16" style="font-variant-ligatures:none" xmlns:xlink="http://www.w3.org/1999/xlink" xmlns="http://www.w3.org/2000/svg" version="1.1" overflow="visible" width="107.718pt" height="53.866pt" viewBox="816.751 -984.706 107.718 53.866">
 <defs>
	</defs>
 <g id="Grid 36x36mm" transform="scale(1 -1)">
  <path d="M 816.751,946.054 L 816.751,969.492 C 816.751,977.89 823.566,984.706 831.963,984.706 L 909.257,984.706 C 917.654,984.706 924.469,977.89 924.469,969.492 L 924.469,946.054 C 924.469,937.656 917.654,930.84 909.257,930.84 L 831.963,930.84 C 823.566,930.84 816.751,937.656 816.751,946.054 Z" stroke="none" fill="#ffffff" stroke-width="0.802" stroke-linejoin="miter" marker-start="none" marker-end="none"/>
  <path d="M 817.6,946.781 L 817.6,968.765 C 817.6,977.096 824.362,983.858 832.691,983.858 L 908.529,983.858 C 916.858,983.858 923.62,977.096 923.62,968.765 L 923.62,946.781 C 923.62,938.45 916.858,931.689 908.529,931.689 L 832.691,931.689 C 824.362,931.689 817.6,938.45 817.6,946.781 Z" fill="#00bf02" stroke="none" stroke-width="0.8" stroke-linejoin="miter" marker-start="none" marker-end="none"/>
  <g id="Group" fill="#ffffff" fill-rule="nonzero" stroke-linejoin="round" stroke-linecap="round" stroke="none" stroke-width="0.251">
   <path d="M 884.345,963.548 C 884.345,962.916 884.236,962.328 884.018,961.784 C 883.8,961.24 883.493,960.767 883.097,960.365 C 882.701,959.963 882.225,959.648 881.666,959.419 C 881.108,959.191 880.489,959.077 879.809,959.077 C 879.129,959.077 878.509,959.191 877.949,959.419 C 877.389,959.648 876.911,959.963 876.512,960.365 C 876.114,960.767 875.806,961.24 875.588,961.784 C 875.37,962.328 875.261,962.916 875.261,963.548 C 875.261,964.18 875.37,964.769 875.588,965.313 C 875.806,965.857 876.114,966.329 876.512,966.729 C 876.911,967.129 877.389,967.443 877.949,967.671 C 878.509,967.899 879.129,968.013 879.809,968.013 C 880.489,968.013 881.108,967.898 881.666,967.668 C 882.225,967.438 882.701,967.123 883.097,966.723 C 883.493,966.323 883.8,965.851 884.018,965.307 C 884.236,964.763 884.345,964.176 884.345,963.548 Z M 882.269,963.548 C 882.269,963.98 882.213,964.369 882.101,964.715 C 881.989,965.061 881.828,965.354 881.618,965.594 C 881.408,965.834 881.151,966.017 880.847,966.145 C 880.543,966.273 880.197,966.337 879.809,966.337 C 879.417,966.337 879.068,966.273 878.762,966.145 C 878.456,966.017 878.198,965.834 877.988,965.594 C 877.778,965.354 877.617,965.061 877.505,964.715 C 877.393,964.369 877.337,963.98 877.337,963.548 C 877.337,963.113 877.393,962.721 877.505,962.376 C 877.617,962.03 877.778,961.737 877.988,961.497 C 878.198,961.257 878.456,961.074 878.762,960.948 C 879.068,960.822 879.417,960.759 879.809,960.759 C 880.197,960.759 880.543,960.822 880.847,960.948 C 881.151,961.074 881.408,961.257 881.618,961.497 C 881.828,961.737 881.989,962.03 882.101,962.376 C 882.213,962.721 882.269,963.113 882.269,963.548 Z" marker-start="none" marker-end="none"/>
   <path d="M 886.383,967.919 C 886.471,967.919 886.545,967.915 886.605,967.907 C 886.665,967.899 886.719,967.884 886.767,967.862 C 886.815,967.84 886.861,967.809 886.905,967.769 C 886.949,967.729 886.999,967.675 887.055,967.607 L 891.207,962.357 C 891.191,962.525 891.179,962.688 891.171,962.846 C 891.163,963.004 891.159,963.153 891.159,963.293 L 891.159,967.919 L 892.947,967.919 L 892.947,959.174 L 891.891,959.174 C 891.735,959.174 891.603,959.198 891.495,959.246 C 891.387,959.294 891.283,959.382 891.183,959.51 L 887.061,964.718 C 887.073,964.566 887.083,964.417 887.091,964.271 C 887.099,964.125 887.103,963.988 887.103,963.86 L 887.103,959.174 L 885.315,959.174 L 885.315,967.919 L 886.383,967.919 Z" marker-start="none" marker-end="none"/>
   <path d="M 852.4,947.435 L 850.828,947.435 C 850.652,947.435 850.507,947.476 850.393,947.558 C 850.279,947.64 850.2,947.745 850.156,947.873 L 849.64,949.398 L 846.316,949.398 L 845.801,947.873 C 845.76,947.761 845.682,947.66 845.566,947.57 C 845.45,947.48 845.308,947.435 845.139,947.435 L 843.556,947.435 L 846.94,956.179 L 849.016,956.179 L 852.4,947.435 Z M 846.784,950.778 L 849.172,950.778 L 848.368,953.135 C 848.316,953.285 848.255,953.46 848.184,953.664 C 848.115,953.867 848.046,954.087 847.978,954.323 C 847.914,954.083 847.848,953.86 847.78,953.655 C 847.712,953.451 847.648,953.273 847.588,953.124 L 846.784,950.778 Z" marker-start="none" marker-end="none"/>
   <path d="M 856.442,949.038 C 856.714,949.038 856.957,949.083 857.171,949.173 C 857.385,949.263 857.566,949.392 857.714,949.56 C 857.862,949.728 857.975,949.933 858.053,950.175 C 858.131,950.417 858.17,950.692 858.17,951 L 858.17,956.179 L 860.198,956.179 L 860.198,950.999 C 860.198,950.463 860.111,949.971 859.937,949.523 C 859.763,949.075 859.514,948.689 859.19,948.365 C 858.866,948.041 858.472,947.789 858.008,947.608 C 857.544,947.429 857.022,947.338 856.442,947.338 C 855.858,947.338 855.334,947.429 854.87,947.608 C 854.406,947.789 854.012,948.041 853.688,948.365 C 853.364,948.689 853.116,949.075 852.944,949.523 C 852.772,949.971 852.686,950.463 852.686,950.999 L 852.686,956.179 L 854.714,956.179 L 854.714,951.006 C 854.714,950.698 854.753,950.423 854.831,950.181 C 854.909,949.939 855.022,949.733 855.17,949.563 C 855.318,949.393 855.499,949.263 855.713,949.173 C 855.927,949.083 856.171,949.038 856.442,949.038 Z" marker-start="none" marker-end="none"/>
   <path d="M 867.393,949.696 C 867.441,949.696 867.489,949.686 867.537,949.668 C 867.585,949.65 867.631,949.618 867.675,949.573 L 868.479,948.709 C 868.127,948.256 867.686,947.914 867.156,947.684 C 866.627,947.454 865.999,947.338 865.275,947.338 C 864.611,947.338 864.016,947.451 863.49,947.677 C 862.964,947.904 862.518,948.216 862.152,948.614 C 861.786,949.012 861.505,949.484 861.309,950.03 C 861.113,950.576 861.015,951.169 861.015,951.809 C 861.015,952.461 861.127,953.061 861.351,953.607 C 861.575,954.153 861.888,954.624 862.29,955.02 C 862.692,955.416 863.173,955.724 863.733,955.944 C 864.293,956.164 864.911,956.274 865.587,956.274 C 865.915,956.274 866.225,956.245 866.514,956.187 C 866.804,956.129 867.075,956.049 867.327,955.947 C 867.579,955.844 867.811,955.722 868.023,955.58 C 868.234,955.438 868.423,955.281 868.587,955.108 L 867.903,954.19 C 867.859,954.134 867.807,954.083 867.746,954.037 C 867.687,953.991 867.604,953.968 867.495,953.968 C 867.423,953.968 867.355,953.984 867.291,954.016 C 867.227,954.048 867.159,954.087 867.087,954.133 C 867.015,954.178 866.936,954.229 866.85,954.283 C 866.764,954.337 866.662,954.387 866.544,954.433 C 866.426,954.479 866.288,954.518 866.13,954.55 C 865.972,954.582 865.787,954.598 865.575,954.598 C 865.207,954.598 864.871,954.533 864.567,954.403 C 864.263,954.273 864.002,954.087 863.784,953.845 C 863.566,953.603 863.396,953.31 863.274,952.966 C 863.152,952.622 863.091,952.236 863.091,951.808 C 863.091,951.36 863.152,950.962 863.274,950.614 C 863.396,950.266 863.562,949.973 863.772,949.734 C 863.982,949.497 864.227,949.316 864.507,949.191 C 864.787,949.067 865.087,949.005 865.407,949.005 C 865.591,949.005 865.759,949.014 865.911,949.032 C 866.063,949.05 866.204,949.081 866.334,949.125 C 866.464,949.169 866.588,949.226 866.706,949.296 C 866.824,949.366 866.943,949.453 867.063,949.558 C 867.111,949.598 867.163,949.631 867.219,949.657 C 867.275,949.683 867.333,949.696 867.393,949.696 Z" marker-start="none" marker-end="none"/>
   <path d="M 875.754,956.18 L 875.754,954.572 L 873.294,954.572 L 873.294,947.437 L 871.266,947.437 L 871.266,954.572 L 868.806,954.572 L 868.806,956.18 L 875.754,956.18 Z" marker-start="none" marker-end="none"/>
   <path d="M 878.816,947.435 L 876.776,947.435 L 876.776,956.18 L 878.816,956.18 L 878.816,947.435 Z" marker-start="none" marker-end="none"/>
   <path d="M 889.062,951.809 C 889.062,951.177 888.953,950.589 888.735,950.045 C 888.517,949.501 888.21,949.028 887.814,948.626 C 887.418,948.224 886.941,947.909 886.383,947.68 C 885.825,947.452 885.206,947.338 884.526,947.338 C 883.846,947.338 883.226,947.452 882.666,947.68 C 882.106,947.909 881.627,948.224 881.229,948.626 C 880.831,949.028 880.523,949.501 880.305,950.045 C 880.087,950.589 879.978,951.177 879.978,951.809 C 879.978,952.441 880.087,953.029 880.305,953.574 C 880.523,954.118 880.831,954.59 881.229,954.99 C 881.627,955.39 882.106,955.704 882.666,955.932 C 883.226,956.16 883.846,956.274 884.526,956.274 C 885.206,956.274 885.825,956.159 886.383,955.929 C 886.941,955.699 887.418,955.384 887.814,954.984 C 888.21,954.584 888.517,954.112 888.735,953.568 C 888.953,953.024 889.062,952.437 889.062,951.809 Z M 886.986,951.809 C 886.986,952.241 886.93,952.63 886.818,952.976 C 886.706,953.322 886.545,953.615 886.335,953.855 C 886.125,954.095 885.868,954.278 885.564,954.406 C 885.26,954.534 884.914,954.598 884.526,954.598 C 884.134,954.598 883.785,954.534 883.479,954.406 C 883.173,954.278 882.915,954.095 882.705,953.855 C 882.495,953.615 882.334,953.322 882.222,952.976 C 882.11,952.63 882.054,952.241 882.054,951.809 C 882.054,951.373 882.11,950.982 882.222,950.637 C 882.334,950.291 882.495,949.998 882.705,949.758 C 882.915,949.518 883.173,949.335 883.479,949.21 C 883.785,949.083 884.134,949.02 884.526,949.02 C 884.914,949.02 885.26,949.083 885.564,949.21 C 885.868,949.335 886.125,949.518 886.335,949.758 C 886.545,949.998 886.706,950.291 886.818,950.637 C 886.93,950.982 886.986,951.373 886.986,951.809 Z" marker-start="none" marker-end="none"/>
   <path d="M 891.101,956.18 C 891.188,956.18 891.262,956.176 891.322,956.168 C 891.382,956.16 891.436,956.145 891.484,956.123 C 891.532,956.101 891.578,956.07 891.622,956.03 C 891.666,955.99 891.716,955.936 891.772,955.868 L 895.924,950.618 C 895.908,950.786 895.896,950.949 895.888,951.107 C 895.88,951.265 895.876,951.414 895.876,951.554 L 895.876,956.18 L 897.664,956.18 L 897.664,947.435 L 896.608,947.435 C 896.452,947.435 896.32,947.459 896.212,947.507 C 896.104,947.555 896,947.643 895.9,947.771 L 891.778,952.979 C 891.789,952.827 891.8,952.678 891.808,952.532 C 891.816,952.386 891.82,952.249 891.82,952.121 L 891.82,947.435 L 890.032,947.435 L 890.032,956.18 L 891.101,956.18 Z" marker-start="none" marker-end="none"/>
   <g id="Group_1">
    <path d="M 850.97,959.463 L 850.97,968.205 L 854.187,968.205 C 854.792,968.205 855.305,968.149 855.729,968.037 C 856.153,967.925 856.499,967.768 856.767,967.564 C 857.035,967.36 857.23,967.112 857.352,966.82 C 857.474,966.528 857.535,966.202 857.535,965.842 C 857.535,965.646 857.507,965.457 857.451,965.275 C 857.395,965.093 857.307,964.921 857.187,964.762 C 857.067,964.602 856.913,964.457 856.725,964.327 C 856.537,964.197 856.311,964.084 856.047,963.988 C 856.623,963.848 857.049,963.621 857.325,963.307 C 857.601,962.993 857.739,962.59 857.739,962.098 C 857.739,961.726 857.667,961.38 857.523,961.059 C 857.379,960.739 857.168,960.46 856.89,960.222 C 856.612,959.984 856.269,959.798 855.861,959.664 C 855.453,959.53 854.987,959.463 854.463,959.463 L 850.97,959.463 Z M 852.999,963.172 L 852.999,960.992 L 854.427,960.992 C 854.695,960.992 854.914,961.026 855.084,961.094 C 855.254,961.163 855.387,961.251 855.483,961.359 C 855.579,961.467 855.645,961.589 855.681,961.725 C 855.717,961.861 855.735,961.999 855.735,962.139 C 855.735,962.299 855.714,962.443 855.672,962.572 C 855.63,962.7 855.558,962.808 855.456,962.896 C 855.354,962.984 855.219,963.052 855.051,963.1 C 854.883,963.148 854.671,963.172 854.415,963.172 L 852.999,963.172 Z M 852.999,964.529 L 854.055,964.529 C 854.279,964.529 854.481,964.545 854.661,964.576 C 854.841,964.609 854.994,964.665 855.12,964.744 C 855.246,964.824 855.342,964.934 855.408,965.074 C 855.474,965.214 855.507,965.39 855.507,965.602 C 855.507,965.81 855.48,965.983 855.429,966.121 C 855.377,966.259 855.297,966.37 855.189,966.454 C 855.081,966.538 854.944,966.598 854.778,966.634 C 854.612,966.67 854.415,966.688 854.187,966.688 L 852.999,966.688 L 852.999,964.529 Z" marker-start="none" marker-end="none"/>
    <path d="M 861.06,959.463 L 859.02,959.463 L 859.02,968.208 L 861.06,968.208 L 861.06,959.463 Z" marker-start="none" marker-end="none"/>
    <path d="M 870.61,963.839 C 870.61,963.206 870.501,962.623 870.283,962.089 C 870.065,961.555 869.758,961.093 869.362,960.703 C 868.966,960.312 868.489,960.008 867.931,959.79 C 867.374,959.572 866.754,959.463 866.074,959.463 L 862.678,959.463 L 862.678,968.208 L 866.074,968.208 C 866.754,968.208 867.374,968.098 867.931,967.878 C 868.489,967.658 868.966,967.354 869.362,966.966 C 869.758,966.578 870.065,966.117 870.283,965.582 C 870.501,965.048 870.61,964.467 870.61,963.839 Z M 868.534,963.839 C 868.534,964.271 868.478,964.661 868.366,965.009 C 868.254,965.357 868.093,965.652 867.883,965.894 C 867.673,966.136 867.416,966.322 867.112,966.452 C 866.808,966.582 866.462,966.647 866.074,966.647 L 864.718,966.647 L 864.718,961.025 L 866.074,961.025 C 866.462,961.025 866.808,961.09 867.112,961.22 C 867.416,961.35 867.673,961.536 867.883,961.778 C 868.093,962.02 868.254,962.315 868.366,962.663 C 868.478,963.011 868.534,963.403 868.534,963.839 Z" marker-start="none" marker-end="none"/>
   </g>
  </g>
 </g>
</svg>
