<?xml version="1.0" standalone="no"?>
<!DOCTYPE svg PUBLIC "-//W3C//DTD SVG 1.1//EN" "http://www.w3.org/Graphics/SVG/1.1/DTD/svg11.dtd">
<!--Generator: Xara Designer (www.xara.com), SVG filter version: 6.6.0.0-->
<svg fill="none" fill-rule="evenodd" stroke="black" stroke-width="0.501" stroke-linejoin="bevel" stroke-miterlimit="10" font-family="Times New Roman" font-size="16" style="font-variant-ligatures:none" xmlns:xlink="http://www.w3.org/1999/xlink" xmlns="http://www.w3.org/2000/svg" version="1.1" overflow="visible" width="107.718pt" height="107.72pt" viewBox="1181.25 -929.158 107.718 107.72">
 <defs>
	</defs>
 <g id="Grid 36x36mm" transform="scale(1 -1)">
  <g id="Group" stroke="none">
   <path d="M 1181.25,836.652 L 1181.25,913.944 C 1181.25,922.342 1188.06,929.158 1196.46,929.158 L 1235.11,929.156 L 1235.1,929.156 L 1235.11,875.298 L 1235.12,929.156 L 1235.11,929.156 L 1273.76,929.158 C 1282.15,929.158 1288.97,922.342 1288.97,913.944 L 1288.97,836.652 C 1288.97,828.254 1282.15,821.438 1273.76,821.438 L 1235.11,821.44 L 1235.12,821.44 L 1235.11,875.298 L 1235.1,821.44 L 1235.11,821.44 L 1196.46,821.438 C 1188.06,821.438 1181.25,828.254 1181.25,836.652 Z" stroke-linejoin="miter" fill="#ffffff" stroke-width="0.802" marker-start="none" marker-end="none"/>
   <path d="M 1182.1,837.38 L 1182.1,913.216 C 1182.1,921.547 1188.86,928.309 1197.19,928.309 L 1273.03,928.309 C 1281.36,928.309 1288.12,921.547 1288.12,913.216 L 1288.12,837.38 C 1288.12,829.049 1281.36,822.287 1273.03,822.287 L 1197.19,822.287 C 1188.86,822.287 1182.1,829.049 1182.1,837.38 Z" fill="#00bf02" stroke-linejoin="miter" stroke-width="0.801" marker-start="none" marker-end="none"/>
   <g id="Group_1" fill="#ffffff" fill-rule="nonzero" stroke-linejoin="round" stroke-linecap="round" stroke-width="0.251">
    <path d="M 1248.81,881.073 C 1248.81,880.441 1248.7,879.853 1248.48,879.309 C 1248.27,878.765 1247.96,878.292 1247.56,877.89 C 1247.17,877.488 1246.69,877.173 1246.13,876.944 C 1245.57,876.716 1244.95,876.602 1244.27,876.602 C 1243.59,876.602 1242.97,876.716 1242.41,876.944 C 1241.85,877.173 1241.38,877.488 1240.98,877.89 C 1240.58,878.292 1240.27,878.765 1240.05,879.309 C 1239.84,879.853 1239.73,880.441 1239.73,881.073 C 1239.73,881.705 1239.84,882.294 1240.05,882.838 C 1240.27,883.382 1240.58,883.854 1240.98,884.254 C 1241.38,884.654 1241.85,884.968 1242.41,885.196 C 1242.97,885.424 1243.59,885.538 1244.27,885.538 C 1244.95,885.538 1245.57,885.423 1246.13,885.193 C 1246.69,884.963 1247.17,884.648 1247.56,884.248 C 1247.96,883.848 1248.27,883.376 1248.48,882.832 C 1248.7,882.288 1248.81,881.701 1248.81,881.073 Z M 1246.73,881.073 C 1246.73,881.505 1246.68,881.894 1246.57,882.24 C 1246.45,882.586 1246.29,882.879 1246.08,883.119 C 1245.87,883.359 1245.62,883.542 1245.31,883.67 C 1245.01,883.798 1244.66,883.862 1244.27,883.862 C 1243.88,883.862 1243.53,883.798 1243.23,883.67 C 1242.92,883.542 1242.66,883.359 1242.45,883.119 C 1242.24,882.879 1242.08,882.586 1241.97,882.24 C 1241.86,881.894 1241.8,881.505 1241.8,881.073 C 1241.8,880.637 1241.86,880.246 1241.97,879.901 C 1242.08,879.555 1242.24,879.262 1242.45,879.022 C 1242.66,878.782 1242.92,878.599 1243.23,878.473 C 1243.53,878.347 1243.88,878.284 1244.27,878.284 C 1244.66,878.284 1245.01,878.347 1245.31,878.473 C 1245.62,878.599 1245.87,878.782 1246.08,879.022 C 1246.29,879.262 1246.45,879.555 1246.57,879.901 C 1246.68,880.246 1246.73,880.637 1246.73,881.073 Z" marker-start="none" marker-end="none"/>
    <path d="M 1250.85,885.444 C 1250.94,885.444 1251.01,885.44 1251.07,885.432 C 1251.13,885.424 1251.18,885.409 1251.23,885.387 C 1251.28,885.365 1251.33,885.334 1251.37,885.294 C 1251.41,885.254 1251.46,885.2 1251.52,885.132 L 1255.67,879.882 C 1255.66,880.05 1255.64,880.213 1255.64,880.371 C 1255.63,880.529 1255.62,880.678 1255.62,880.818 L 1255.62,885.444 L 1257.41,885.444 L 1257.41,876.699 L 1256.36,876.699 C 1256.2,876.699 1256.07,876.723 1255.96,876.771 C 1255.85,876.819 1255.75,876.907 1255.65,877.035 L 1251.53,882.243 C 1251.54,882.091 1251.55,881.942 1251.56,881.796 C 1251.56,881.65 1251.57,881.513 1251.57,881.385 L 1251.57,876.699 L 1249.78,876.699 L 1249.78,885.444 L 1250.85,885.444 Z" marker-start="none" marker-end="none"/>
    <path d="M 1216.87,864.96 L 1215.29,864.96 C 1215.12,864.96 1214.97,865.001 1214.86,865.083 C 1214.74,865.165 1214.67,865.27 1214.62,865.398 L 1214.11,866.923 L 1210.78,866.923 L 1210.27,865.398 C 1210.23,865.286 1210.15,865.185 1210.03,865.095 C 1209.92,865.005 1209.77,864.96 1209.61,864.96 L 1208.02,864.96 L 1211.41,873.704 L 1213.48,873.704 L 1216.87,864.96 Z M 1211.25,868.303 L 1213.64,868.303 L 1212.83,870.66 C 1212.78,870.81 1212.72,870.986 1212.65,871.189 C 1212.58,871.392 1212.51,871.612 1212.44,871.848 C 1212.38,871.608 1212.31,871.385 1212.25,871.18 C 1212.18,870.976 1212.11,870.798 1212.05,870.649 L 1211.25,868.303 Z" marker-start="none" marker-end="none"/>
    <path d="M 1220.91,866.563 C 1221.18,866.563 1221.42,866.608 1221.64,866.698 C 1221.85,866.788 1222.03,866.917 1222.18,867.085 C 1222.33,867.253 1222.44,867.458 1222.52,867.7 C 1222.6,867.942 1222.64,868.217 1222.64,868.525 L 1222.64,873.704 L 1224.66,873.704 L 1224.66,868.524 C 1224.66,867.988 1224.58,867.496 1224.4,867.048 C 1224.23,866.6 1223.98,866.214 1223.66,865.89 C 1223.33,865.566 1222.94,865.314 1222.47,865.133 C 1222.01,864.953 1221.49,864.863 1220.91,864.863 C 1220.32,864.863 1219.8,864.953 1219.34,865.133 C 1218.87,865.314 1218.48,865.566 1218.15,865.89 C 1217.83,866.214 1217.58,866.6 1217.41,867.048 C 1217.24,867.496 1217.15,867.988 1217.15,868.524 L 1217.15,873.704 L 1219.18,873.704 L 1219.18,868.531 C 1219.18,868.223 1219.22,867.948 1219.3,867.706 C 1219.37,867.464 1219.49,867.258 1219.64,867.088 C 1219.78,866.918 1219.96,866.788 1220.18,866.698 C 1220.39,866.608 1220.64,866.563 1220.91,866.563 Z" marker-start="none" marker-end="none"/>
    <path d="M 1231.86,867.221 C 1231.91,867.221 1231.95,867.211 1232,867.193 C 1232.05,867.175 1232.1,867.143 1232.14,867.098 L 1232.94,866.234 C 1232.59,865.781 1232.15,865.439 1231.62,865.209 C 1231.09,864.979 1230.46,864.863 1229.74,864.863 C 1229.08,864.863 1228.48,864.976 1227.95,865.202 C 1227.43,865.429 1226.98,865.741 1226.62,866.139 C 1226.25,866.537 1225.97,867.009 1225.77,867.555 C 1225.58,868.101 1225.48,868.694 1225.48,869.334 C 1225.48,869.986 1225.59,870.586 1225.82,871.132 C 1226.04,871.678 1226.35,872.149 1226.76,872.545 C 1227.16,872.941 1227.64,873.249 1228.2,873.469 C 1228.76,873.689 1229.38,873.799 1230.05,873.799 C 1230.38,873.799 1230.69,873.77 1230.98,873.712 C 1231.27,873.654 1231.54,873.574 1231.79,873.472 C 1232.04,873.37 1232.28,873.247 1232.49,873.105 C 1232.7,872.963 1232.89,872.806 1233.05,872.633 L 1232.37,871.715 C 1232.32,871.659 1232.27,871.608 1232.21,871.562 C 1232.15,871.516 1232.07,871.493 1231.96,871.493 C 1231.89,871.493 1231.82,871.509 1231.76,871.541 C 1231.69,871.573 1231.62,871.612 1231.55,871.658 C 1231.48,871.704 1231.4,871.754 1231.32,871.808 C 1231.23,871.862 1231.13,871.912 1231.01,871.958 C 1230.89,872.004 1230.75,872.043 1230.6,872.075 C 1230.44,872.107 1230.25,872.123 1230.04,872.123 C 1229.67,872.123 1229.34,872.058 1229.03,871.928 C 1228.73,871.798 1228.47,871.612 1228.25,871.37 C 1228.03,871.128 1227.86,870.835 1227.74,870.491 C 1227.62,870.147 1227.56,869.761 1227.56,869.333 C 1227.56,868.885 1227.62,868.487 1227.74,868.139 C 1227.86,867.791 1228.03,867.498 1228.24,867.259 C 1228.45,867.022 1228.69,866.841 1228.97,866.716 C 1229.25,866.592 1229.55,866.53 1229.87,866.53 C 1230.06,866.53 1230.22,866.539 1230.38,866.557 C 1230.53,866.575 1230.67,866.606 1230.8,866.65 C 1230.93,866.694 1231.05,866.751 1231.17,866.821 C 1231.29,866.891 1231.41,866.978 1231.53,867.083 C 1231.58,867.123 1231.63,867.156 1231.68,867.182 C 1231.74,867.208 1231.8,867.221 1231.86,867.221 Z" marker-start="none" marker-end="none"/>
    <path d="M 1240.22,873.705 L 1240.22,872.097 L 1237.76,872.097 L 1237.76,864.962 L 1235.73,864.962 L 1235.73,872.097 L 1233.27,872.097 L 1233.27,873.705 L 1240.22,873.705 Z" marker-start="none" marker-end="none"/>
    <path d="M 1243.28,864.96 L 1241.24,864.96 L 1241.24,873.705 L 1243.28,873.705 L 1243.28,864.96 Z" marker-start="none" marker-end="none"/>
    <path d="M 1253.53,869.334 C 1253.53,868.702 1253.42,868.114 1253.2,867.57 C 1252.98,867.026 1252.68,866.553 1252.28,866.151 C 1251.88,865.749 1251.41,865.434 1250.85,865.205 C 1250.29,864.977 1249.67,864.863 1248.99,864.863 C 1248.31,864.863 1247.69,864.977 1247.13,865.205 C 1246.57,865.434 1246.09,865.749 1245.69,866.151 C 1245.3,866.553 1244.99,867.026 1244.77,867.57 C 1244.55,868.114 1244.44,868.702 1244.44,869.334 C 1244.44,869.966 1244.55,870.555 1244.77,871.099 C 1244.99,871.643 1245.3,872.115 1245.69,872.515 C 1246.09,872.915 1246.57,873.229 1247.13,873.457 C 1247.69,873.685 1248.31,873.799 1248.99,873.799 C 1249.67,873.799 1250.29,873.684 1250.85,873.454 C 1251.41,873.224 1251.88,872.909 1252.28,872.509 C 1252.68,872.109 1252.98,871.637 1253.2,871.093 C 1253.42,870.549 1253.53,869.962 1253.53,869.334 Z M 1251.45,869.334 C 1251.45,869.766 1251.4,870.155 1251.28,870.501 C 1251.17,870.847 1251.01,871.14 1250.8,871.38 C 1250.59,871.62 1250.33,871.803 1250.03,871.931 C 1249.73,872.059 1249.38,872.123 1248.99,872.123 C 1248.6,872.123 1248.25,872.059 1247.94,871.931 C 1247.64,871.803 1247.38,871.62 1247.17,871.38 C 1246.96,871.14 1246.8,870.847 1246.69,870.501 C 1246.58,870.155 1246.52,869.766 1246.52,869.334 C 1246.52,868.898 1246.58,868.507 1246.69,868.162 C 1246.8,867.816 1246.96,867.523 1247.17,867.283 C 1247.38,867.043 1247.64,866.86 1247.94,866.734 C 1248.25,866.608 1248.6,866.545 1248.99,866.545 C 1249.38,866.545 1249.73,866.608 1250.03,866.734 C 1250.33,866.86 1250.59,867.043 1250.8,867.283 C 1251.01,867.523 1251.17,867.816 1251.28,868.162 C 1251.4,868.507 1251.45,868.898 1251.45,869.334 Z" marker-start="none" marker-end="none"/>
    <path d="M 1255.57,873.705 C 1255.65,873.705 1255.73,873.701 1255.79,873.693 C 1255.85,873.685 1255.9,873.67 1255.95,873.648 C 1256,873.626 1256.04,873.595 1256.09,873.555 C 1256.13,873.515 1256.18,873.461 1256.24,873.393 L 1260.39,868.143 C 1260.37,868.311 1260.36,868.474 1260.35,868.632 C 1260.35,868.79 1260.34,868.939 1260.34,869.079 L 1260.34,873.705 L 1262.13,873.705 L 1262.13,864.96 L 1261.07,864.96 C 1260.92,864.96 1260.79,864.984 1260.68,865.032 C 1260.57,865.08 1260.46,865.168 1260.37,865.296 L 1256.24,870.504 C 1256.26,870.352 1256.27,870.203 1256.27,870.057 C 1256.28,869.911 1256.29,869.774 1256.29,869.646 L 1256.29,864.96 L 1254.5,864.96 L 1254.5,873.705 L 1255.57,873.705 Z" marker-start="none" marker-end="none"/>
    <g id="Group_2">
     <path d="M 1215.44,876.988 L 1215.44,885.73 L 1218.65,885.73 C 1219.26,885.73 1219.77,885.674 1220.19,885.562 C 1220.62,885.45 1220.96,885.293 1221.23,885.089 C 1221.5,884.885 1221.69,884.637 1221.82,884.345 C 1221.94,884.053 1222,883.727 1222,883.367 C 1222,883.171 1221.97,882.982 1221.92,882.8 C 1221.86,882.618 1221.77,882.447 1221.65,882.287 C 1221.53,882.127 1221.38,881.982 1221.19,881.852 C 1221,881.722 1220.78,881.609 1220.51,881.513 C 1221.09,881.373 1221.51,881.146 1221.79,880.832 C 1222.07,880.518 1222.2,880.115 1222.2,879.623 C 1222.2,879.251 1222.13,878.905 1221.99,878.584 C 1221.84,878.264 1221.63,877.985 1221.36,877.747 C 1221.08,877.509 1220.73,877.323 1220.33,877.189 C 1219.92,877.055 1219.45,876.988 1218.93,876.988 L 1215.44,876.988 Z M 1217.46,880.697 L 1217.46,878.517 L 1218.89,878.517 C 1219.16,878.517 1219.38,878.551 1219.55,878.619 C 1219.72,878.688 1219.85,878.776 1219.95,878.884 C 1220.04,878.992 1220.11,879.114 1220.15,879.25 C 1220.18,879.386 1220.2,879.524 1220.2,879.664 C 1220.2,879.824 1220.18,879.968 1220.14,880.097 C 1220.1,880.225 1220.02,880.333 1219.92,880.421 C 1219.82,880.509 1219.68,880.577 1219.52,880.625 C 1219.35,880.673 1219.14,880.697 1218.88,880.697 L 1217.46,880.697 Z M 1217.46,882.054 L 1218.52,882.054 C 1218.74,882.054 1218.95,882.07 1219.13,882.101 C 1219.31,882.134 1219.46,882.19 1219.59,882.269 C 1219.71,882.349 1219.81,882.459 1219.87,882.599 C 1219.94,882.739 1219.97,882.915 1219.97,883.127 C 1219.97,883.335 1219.95,883.508 1219.89,883.646 C 1219.84,883.784 1219.76,883.895 1219.65,883.979 C 1219.55,884.063 1219.41,884.123 1219.24,884.159 C 1219.08,884.195 1218.88,884.213 1218.65,884.213 L 1217.46,884.213 L 1217.46,882.054 Z" marker-start="none" marker-end="none"/>
     <path d="M 1225.53,876.988 L 1223.49,876.988 L 1223.49,885.733 L 1225.53,885.733 L 1225.53,876.988 Z" marker-start="none" marker-end="none"/>
     <path d="M 1235.08,881.364 C 1235.08,880.731 1234.97,880.148 1234.75,879.614 C 1234.53,879.08 1234.22,878.618 1233.83,878.228 C 1233.43,877.837 1232.95,877.533 1232.4,877.315 C 1231.84,877.097 1231.22,876.988 1230.54,876.988 L 1227.14,876.988 L 1227.14,885.733 L 1230.54,885.733 C 1231.22,885.733 1231.84,885.623 1232.4,885.403 C 1232.95,885.183 1233.43,884.879 1233.83,884.491 C 1234.22,884.103 1234.53,883.642 1234.75,883.107 C 1234.97,882.573 1235.08,881.992 1235.08,881.364 Z M 1233,881.364 C 1233,881.796 1232.94,882.186 1232.83,882.534 C 1232.72,882.882 1232.56,883.177 1232.35,883.419 C 1232.14,883.661 1231.88,883.847 1231.58,883.977 C 1231.27,884.107 1230.93,884.172 1230.54,884.172 L 1229.18,884.172 L 1229.18,878.55 L 1230.54,878.55 C 1230.93,878.55 1231.27,878.615 1231.58,878.745 C 1231.88,878.875 1232.14,879.061 1232.35,879.303 C 1232.56,879.545 1232.72,879.84 1232.83,880.188 C 1232.94,880.536 1233,880.928 1233,881.364 Z" marker-start="none" marker-end="none"/>
    </g>
   </g>
  </g>
 </g>
</svg>
