<?xml version="1.0" standalone="no"?>
<!DOCTYPE svg PUBLIC "-//W3C//DTD SVG 1.1//EN" "http://www.w3.org/Graphics/SVG/1.1/DTD/svg11.dtd">
<!--Generator: Xara Designer (www.xara.com), SVG filter version: 6.6.0.0-->
<svg fill="none" fill-rule="evenodd" stroke="black" stroke-width="0.501" stroke-linejoin="bevel" stroke-miterlimit="10" font-family="Times New Roman" font-size="16" style="font-variant-ligatures:none" xmlns:xlink="http://www.w3.org/1999/xlink" xmlns="http://www.w3.org/2000/svg" version="1.1" overflow="visible" width="107.718pt" height="53.866pt" viewBox="1170.75 -663.332 107.718 53.866">
 <defs>
	</defs>
 <g id="Grid 36x36mm" transform="scale(1 -1)">
  <path d="M 1170.75,624.68 L 1170.75,648.118 C 1170.75,656.516 1177.57,663.332 1185.96,663.332 L 1263.26,663.332 C 1271.65,663.332 1278.47,656.516 1278.47,648.118 L 1278.47,624.68 C 1278.47,616.282 1271.65,609.466 1263.26,609.466 L 1185.96,609.466 C 1177.57,609.466 1170.75,616.282 1170.75,624.68 Z" stroke="none" fill="#ffffff" stroke-width="0.802" stroke-linejoin="miter" marker-start="none" marker-end="none"/>
  <path d="M 1171.6,625.407 L 1171.6,647.391 C 1171.6,655.722 1178.36,662.483 1186.69,662.483 L 1262.53,662.483 C 1270.86,662.483 1277.62,655.722 1277.62,647.391 L 1277.62,625.407 C 1277.62,617.076 1270.86,610.315 1262.53,610.315 L 1186.69,610.315 C 1178.36,610.315 1171.6,617.076 1171.6,625.407 Z" stroke="none" fill="#e5e5e5" stroke-width="0.8" stroke-linejoin="miter" marker-start="none" marker-end="none"/>
  <g id="Group" fill-rule="nonzero" stroke-linejoin="round" stroke-linecap="round" stroke="none" stroke-width="0.251" fill="#b2b2b2">
   <path d="M 1238.34,642.174 C 1238.34,641.542 1238.24,640.954 1238.02,640.41 C 1237.8,639.866 1237.49,639.393 1237.1,638.991 C 1236.7,638.589 1236.22,638.274 1235.67,638.045 C 1235.11,637.817 1234.49,637.703 1233.81,637.703 C 1233.13,637.703 1232.51,637.817 1231.95,638.045 C 1231.39,638.274 1230.91,638.589 1230.51,638.991 C 1230.11,639.393 1229.81,639.866 1229.59,640.41 C 1229.37,640.954 1229.26,641.542 1229.26,642.174 C 1229.26,642.806 1229.37,643.395 1229.59,643.939 C 1229.81,644.483 1230.11,644.955 1230.51,645.355 C 1230.91,645.755 1231.39,646.069 1231.95,646.297 C 1232.51,646.525 1233.13,646.639 1233.81,646.639 C 1234.49,646.639 1235.11,646.524 1235.67,646.294 C 1236.22,646.064 1236.7,645.749 1237.1,645.349 C 1237.49,644.949 1237.8,644.477 1238.02,643.933 C 1238.24,643.389 1238.34,642.802 1238.34,642.174 Z M 1236.27,642.174 C 1236.27,642.606 1236.21,642.995 1236.1,643.341 C 1235.99,643.687 1235.83,643.98 1235.62,644.22 C 1235.41,644.46 1235.15,644.643 1234.85,644.771 C 1234.54,644.899 1234.2,644.963 1233.81,644.963 C 1233.42,644.963 1233.07,644.899 1232.76,644.771 C 1232.45,644.643 1232.2,644.46 1231.99,644.22 C 1231.78,643.98 1231.62,643.687 1231.5,643.341 C 1231.39,642.995 1231.34,642.606 1231.34,642.174 C 1231.34,641.738 1231.39,641.347 1231.5,641.002 C 1231.62,640.656 1231.78,640.363 1231.99,640.123 C 1232.2,639.883 1232.45,639.7 1232.76,639.574 C 1233.07,639.448 1233.42,639.385 1233.81,639.385 C 1234.2,639.385 1234.54,639.448 1234.85,639.574 C 1235.15,639.7 1235.41,639.883 1235.62,640.123 C 1235.83,640.363 1235.99,640.656 1236.1,641.002 C 1236.21,641.347 1236.27,641.738 1236.27,642.174 Z" marker-start="none" marker-end="none"/>
   <path d="M 1240.38,646.545 C 1240.47,646.545 1240.54,646.541 1240.6,646.533 C 1240.66,646.525 1240.72,646.51 1240.77,646.488 C 1240.81,646.466 1240.86,646.435 1240.9,646.395 C 1240.95,646.355 1241,646.301 1241.05,646.233 L 1245.21,640.983 C 1245.19,641.151 1245.18,641.314 1245.17,641.472 C 1245.16,641.63 1245.16,641.779 1245.16,641.919 L 1245.16,646.545 L 1246.95,646.545 L 1246.95,637.8 L 1245.89,637.8 C 1245.73,637.8 1245.6,637.824 1245.49,637.872 C 1245.39,637.92 1245.28,638.008 1245.18,638.136 L 1241.06,643.344 C 1241.07,643.192 1241.08,643.043 1241.09,642.897 C 1241.1,642.751 1241.1,642.614 1241.1,642.486 L 1241.1,637.8 L 1239.31,637.8 L 1239.31,646.545 L 1240.38,646.545 Z" marker-start="none" marker-end="none"/>
   <path d="M 1206.4,626.061 L 1204.83,626.061 C 1204.65,626.061 1204.51,626.102 1204.39,626.184 C 1204.28,626.266 1204.2,626.371 1204.16,626.499 L 1203.64,628.024 L 1200.32,628.024 L 1199.8,626.499 C 1199.76,626.387 1199.68,626.286 1199.57,626.196 C 1199.45,626.106 1199.31,626.061 1199.14,626.061 L 1197.56,626.061 L 1200.94,634.805 L 1203.02,634.805 L 1206.4,626.061 Z M 1200.78,629.404 L 1203.17,629.404 L 1202.37,631.761 C 1202.32,631.911 1202.25,632.087 1202.18,632.29 C 1202.11,632.493 1202.05,632.713 1201.98,632.949 C 1201.91,632.709 1201.85,632.486 1201.78,632.281 C 1201.71,632.077 1201.65,631.899 1201.59,631.75 L 1200.78,629.404 Z" marker-start="none" marker-end="none"/>
   <path d="M 1210.44,627.664 C 1210.71,627.664 1210.96,627.709 1211.17,627.799 C 1211.38,627.889 1211.57,628.018 1211.71,628.186 C 1211.86,628.354 1211.97,628.559 1212.05,628.801 C 1212.13,629.043 1212.17,629.318 1212.17,629.626 L 1212.17,634.805 L 1214.2,634.805 L 1214.2,629.625 C 1214.2,629.089 1214.11,628.597 1213.94,628.149 C 1213.76,627.701 1213.51,627.315 1213.19,626.991 C 1212.87,626.667 1212.47,626.415 1212.01,626.234 C 1211.54,626.054 1211.02,625.964 1210.44,625.964 C 1209.86,625.964 1209.33,626.054 1208.87,626.234 C 1208.41,626.415 1208.01,626.667 1207.69,626.991 C 1207.36,627.315 1207.12,627.701 1206.94,628.149 C 1206.77,628.597 1206.68,629.089 1206.68,629.625 L 1206.68,634.805 L 1208.71,634.805 L 1208.71,629.632 C 1208.71,629.324 1208.75,629.049 1208.83,628.807 C 1208.91,628.565 1209.02,628.359 1209.17,628.189 C 1209.32,628.019 1209.5,627.889 1209.71,627.799 C 1209.93,627.709 1210.17,627.664 1210.44,627.664 Z" marker-start="none" marker-end="none"/>
   <path d="M 1221.39,628.322 C 1221.44,628.322 1221.49,628.312 1221.54,628.294 C 1221.58,628.276 1221.63,628.244 1221.67,628.199 L 1222.48,627.335 C 1222.13,626.882 1221.68,626.54 1221.16,626.31 C 1220.63,626.08 1220,625.964 1219.27,625.964 C 1218.61,625.964 1218.02,626.077 1217.49,626.303 C 1216.96,626.53 1216.52,626.842 1216.15,627.24 C 1215.79,627.638 1215.5,628.11 1215.31,628.656 C 1215.11,629.202 1215.01,629.795 1215.01,630.435 C 1215.01,631.087 1215.13,631.687 1215.35,632.233 C 1215.57,632.779 1215.89,633.25 1216.29,633.646 C 1216.69,634.042 1217.17,634.35 1217.73,634.57 C 1218.29,634.79 1218.91,634.9 1219.59,634.9 C 1219.91,634.9 1220.22,634.871 1220.51,634.813 C 1220.8,634.755 1221.07,634.675 1221.33,634.573 C 1221.58,634.471 1221.81,634.348 1222.02,634.206 C 1222.23,634.064 1222.42,633.907 1222.59,633.734 L 1221.9,632.816 C 1221.86,632.76 1221.81,632.709 1221.75,632.663 C 1221.69,632.617 1221.6,632.594 1221.49,632.594 C 1221.42,632.594 1221.35,632.61 1221.29,632.642 C 1221.23,632.674 1221.16,632.713 1221.09,632.759 C 1221.01,632.805 1220.93,632.855 1220.85,632.909 C 1220.76,632.963 1220.66,633.013 1220.54,633.059 C 1220.43,633.105 1220.29,633.144 1220.13,633.176 C 1219.97,633.208 1219.79,633.224 1219.57,633.224 C 1219.21,633.224 1218.87,633.159 1218.57,633.029 C 1218.26,632.899 1218,632.713 1217.78,632.471 C 1217.57,632.229 1217.4,631.936 1217.27,631.592 C 1217.15,631.248 1217.09,630.862 1217.09,630.434 C 1217.09,629.986 1217.15,629.588 1217.27,629.24 C 1217.4,628.892 1217.56,628.599 1217.77,628.36 C 1217.98,628.123 1218.23,627.942 1218.51,627.817 C 1218.79,627.693 1219.09,627.631 1219.41,627.631 C 1219.59,627.631 1219.76,627.64 1219.91,627.658 C 1220.06,627.676 1220.2,627.707 1220.33,627.751 C 1220.46,627.795 1220.59,627.852 1220.7,627.922 C 1220.82,627.992 1220.94,628.079 1221.06,628.184 C 1221.11,628.224 1221.16,628.257 1221.22,628.283 C 1221.27,628.309 1221.33,628.322 1221.39,628.322 Z" marker-start="none" marker-end="none"/>
   <path d="M 1229.75,634.806 L 1229.75,633.198 L 1227.29,633.198 L 1227.29,626.063 L 1225.27,626.063 L 1225.27,633.198 L 1222.81,633.198 L 1222.81,634.806 L 1229.75,634.806 Z" marker-start="none" marker-end="none"/>
   <path d="M 1232.82,626.061 L 1230.78,626.061 L 1230.78,634.806 L 1232.82,634.806 L 1232.82,626.061 Z" marker-start="none" marker-end="none"/>
   <path d="M 1243.06,630.435 C 1243.06,629.803 1242.95,629.215 1242.73,628.671 C 1242.52,628.127 1242.21,627.654 1241.81,627.252 C 1241.42,626.85 1240.94,626.535 1240.38,626.306 C 1239.82,626.078 1239.2,625.964 1238.53,625.964 C 1237.85,625.964 1237.23,626.078 1236.67,626.306 C 1236.11,626.535 1235.63,626.85 1235.23,627.252 C 1234.83,627.654 1234.52,628.127 1234.3,628.671 C 1234.09,629.215 1233.98,629.803 1233.98,630.435 C 1233.98,631.067 1234.09,631.656 1234.3,632.2 C 1234.52,632.744 1234.83,633.216 1235.23,633.616 C 1235.63,634.016 1236.11,634.33 1236.67,634.558 C 1237.23,634.786 1237.85,634.9 1238.53,634.9 C 1239.2,634.9 1239.82,634.785 1240.38,634.555 C 1240.94,634.325 1241.42,634.01 1241.81,633.61 C 1242.21,633.21 1242.52,632.738 1242.73,632.194 C 1242.95,631.65 1243.06,631.063 1243.06,630.435 Z M 1240.99,630.435 C 1240.99,630.867 1240.93,631.256 1240.82,631.602 C 1240.7,631.948 1240.54,632.241 1240.33,632.481 C 1240.12,632.721 1239.87,632.904 1239.56,633.032 C 1239.26,633.16 1238.91,633.224 1238.53,633.224 C 1238.13,633.224 1237.78,633.16 1237.48,633.032 C 1237.17,632.904 1236.91,632.721 1236.7,632.481 C 1236.49,632.241 1236.33,631.948 1236.22,631.602 C 1236.11,631.256 1236.05,630.867 1236.05,630.435 C 1236.05,629.999 1236.11,629.608 1236.22,629.263 C 1236.33,628.917 1236.49,628.624 1236.7,628.384 C 1236.91,628.144 1237.17,627.961 1237.48,627.835 C 1237.78,627.709 1238.13,627.646 1238.53,627.646 C 1238.91,627.646 1239.26,627.709 1239.56,627.835 C 1239.87,627.961 1240.12,628.144 1240.33,628.384 C 1240.54,628.624 1240.7,628.917 1240.82,629.263 C 1240.93,629.608 1240.99,629.999 1240.99,630.435 Z" marker-start="none" marker-end="none"/>
   <path d="M 1245.1,634.806 C 1245.19,634.806 1245.26,634.802 1245.32,634.794 C 1245.38,634.786 1245.43,634.771 1245.48,634.749 C 1245.53,634.727 1245.58,634.696 1245.62,634.656 C 1245.67,634.616 1245.71,634.562 1245.77,634.494 L 1249.92,629.244 C 1249.91,629.412 1249.9,629.575 1249.89,629.733 C 1249.88,629.891 1249.88,630.04 1249.88,630.18 L 1249.88,634.806 L 1251.66,634.806 L 1251.66,626.061 L 1250.61,626.061 C 1250.45,626.061 1250.32,626.085 1250.21,626.133 C 1250.1,626.181 1250,626.269 1249.9,626.397 L 1245.78,631.605 C 1245.79,631.453 1245.8,631.304 1245.81,631.158 C 1245.82,631.012 1245.82,630.875 1245.82,630.747 L 1245.82,626.061 L 1244.03,626.061 L 1244.03,634.806 L 1245.1,634.806 Z" marker-start="none" marker-end="none"/>
   <g id="Group_1">
    <path d="M 1204.97,638.089 L 1204.97,646.831 L 1208.19,646.831 C 1208.79,646.831 1209.3,646.775 1209.73,646.663 C 1210.15,646.551 1210.5,646.394 1210.77,646.19 C 1211.03,645.986 1211.23,645.738 1211.35,645.446 C 1211.47,645.154 1211.53,644.828 1211.53,644.468 C 1211.53,644.272 1211.51,644.083 1211.45,643.901 C 1211.39,643.719 1211.31,643.548 1211.19,643.388 C 1211.07,643.228 1210.91,643.083 1210.72,642.953 C 1210.54,642.823 1210.31,642.71 1210.05,642.614 C 1210.62,642.474 1211.05,642.247 1211.32,641.933 C 1211.6,641.619 1211.74,641.216 1211.74,640.724 C 1211.74,640.352 1211.67,640.006 1211.52,639.685 C 1211.38,639.365 1211.17,639.086 1210.89,638.848 C 1210.61,638.61 1210.27,638.424 1209.86,638.29 C 1209.45,638.156 1208.99,638.089 1208.46,638.089 L 1204.97,638.089 Z M 1207,641.798 L 1207,639.618 L 1208.43,639.618 C 1208.69,639.618 1208.91,639.652 1209.08,639.72 C 1209.25,639.789 1209.39,639.877 1209.48,639.985 C 1209.58,640.093 1209.64,640.215 1209.68,640.351 C 1209.72,640.487 1209.73,640.625 1209.73,640.765 C 1209.73,640.925 1209.71,641.069 1209.67,641.198 C 1209.63,641.326 1209.56,641.434 1209.45,641.522 C 1209.35,641.61 1209.22,641.678 1209.05,641.726 C 1208.88,641.774 1208.67,641.798 1208.41,641.798 L 1207,641.798 Z M 1207,643.155 L 1208.05,643.155 C 1208.28,643.155 1208.48,643.171 1208.66,643.202 C 1208.84,643.235 1208.99,643.291 1209.12,643.37 C 1209.25,643.45 1209.34,643.56 1209.41,643.7 C 1209.47,643.84 1209.51,644.016 1209.51,644.228 C 1209.51,644.436 1209.48,644.609 1209.43,644.747 C 1209.38,644.885 1209.3,644.996 1209.19,645.08 C 1209.08,645.164 1208.94,645.224 1208.78,645.26 C 1208.61,645.296 1208.41,645.314 1208.19,645.314 L 1207,645.314 L 1207,643.155 Z" marker-start="none" marker-end="none"/>
    <path d="M 1215.06,638.089 L 1213.02,638.089 L 1213.02,646.834 L 1215.06,646.834 L 1215.06,638.089 Z" marker-start="none" marker-end="none"/>
    <path d="M 1224.61,642.465 C 1224.61,641.832 1224.5,641.249 1224.28,640.715 C 1224.06,640.181 1223.76,639.719 1223.36,639.329 C 1222.96,638.938 1222.49,638.634 1221.93,638.416 C 1221.37,638.198 1220.75,638.089 1220.07,638.089 L 1216.68,638.089 L 1216.68,646.834 L 1220.07,646.834 C 1220.75,646.834 1221.37,646.724 1221.93,646.504 C 1222.49,646.284 1222.96,645.98 1223.36,645.592 C 1223.76,645.204 1224.06,644.743 1224.28,644.208 C 1224.5,643.674 1224.61,643.093 1224.61,642.465 Z M 1222.53,642.465 C 1222.53,642.897 1222.48,643.287 1222.37,643.635 C 1222.25,643.983 1222.09,644.278 1221.88,644.52 C 1221.67,644.762 1221.42,644.948 1221.11,645.078 C 1220.81,645.208 1220.46,645.273 1220.07,645.273 L 1218.72,645.273 L 1218.72,639.651 L 1220.07,639.651 C 1220.46,639.651 1220.81,639.716 1221.11,639.846 C 1221.42,639.976 1221.67,640.162 1221.88,640.404 C 1222.09,640.646 1222.25,640.941 1222.37,641.289 C 1222.48,641.637 1222.53,642.029 1222.53,642.465 Z" marker-start="none" marker-end="none"/>
   </g>
  </g>
 </g>
</svg>
