<?xml version="1.0" standalone="no"?>
<!DOCTYPE svg PUBLIC "-//W3C//DTD SVG 1.1//EN" "http://www.w3.org/Graphics/SVG/1.1/DTD/svg11.dtd">
<!--Generator: Xara Designer (www.xara.com), SVG filter version: 6.6.0.0-->
<svg fill="none" fill-rule="evenodd" stroke="black" stroke-width="0.501" stroke-linejoin="bevel" stroke-miterlimit="10" font-family="Times New Roman" font-size="16" style="font-variant-ligatures:none" xmlns:xlink="http://www.w3.org/1999/xlink" xmlns="http://www.w3.org/2000/svg" version="1.1" overflow="visible" width="107.718pt" height="107.72pt" viewBox="813.45 -614.269 107.718 107.72">
 <defs>
	</defs>
 <g id="Grid 36x36mm" transform="scale(1 -1)">
  <g id="Group" stroke-linejoin="miter" stroke="none">
   <path d="M 813.45,521.763 L 813.45,599.055 C 813.45,607.453 820.265,614.269 828.662,614.269 L 867.306,614.267 L 867.299,614.267 L 867.309,560.409 L 867.319,614.267 L 867.312,614.267 L 905.956,614.269 C 914.353,614.269 921.168,607.453 921.168,599.055 L 921.168,521.763 C 921.168,513.365 914.353,506.549 905.956,506.549 L 867.312,506.551 L 867.319,506.551 L 867.309,560.409 L 867.299,506.551 L 867.306,506.551 L 828.662,506.549 C 820.265,506.549 813.45,513.365 813.45,521.763 Z" fill="#ffffff" stroke-width="0.802" marker-start="none" marker-end="none"/>
   <path d="M 814.299,522.491 L 814.299,598.327 C 814.299,606.658 821.061,613.42 829.391,613.42 L 905.227,613.42 C 913.557,613.42 920.319,606.658 920.319,598.327 L 920.319,522.491 C 920.319,514.16 913.557,507.398 905.227,507.398 L 829.391,507.398 C 821.061,507.398 814.299,514.16 814.299,522.491 Z" fill="#e5e5e5" stroke-width="0.801" marker-start="none" marker-end="none"/>
  </g>
  <g id="Group_1" fill-rule="nonzero" stroke-linejoin="round" stroke-linecap="round" stroke="none" stroke-width="0.251" fill="#b2b2b2">
   <path d="M 881.044,566.184 C 881.044,565.552 880.935,564.964 880.717,564.42 C 880.499,563.876 880.192,563.403 879.796,563.001 C 879.4,562.599 878.924,562.284 878.365,562.055 C 877.807,561.827 877.188,561.712 876.508,561.712 C 875.828,561.712 875.208,561.827 874.648,562.055 C 874.088,562.284 873.61,562.599 873.211,563.001 C 872.813,563.403 872.505,563.876 872.287,564.42 C 872.069,564.964 871.96,565.552 871.96,566.184 C 871.96,566.816 872.069,567.405 872.287,567.949 C 872.505,568.493 872.813,568.965 873.211,569.365 C 873.61,569.765 874.088,570.079 874.648,570.307 C 875.208,570.535 875.828,570.649 876.508,570.649 C 877.188,570.649 877.807,570.534 878.365,570.304 C 878.924,570.074 879.4,569.759 879.796,569.359 C 880.192,568.959 880.499,568.487 880.717,567.943 C 880.935,567.399 881.044,566.812 881.044,566.184 Z M 878.968,566.184 C 878.968,566.616 878.912,567.005 878.8,567.351 C 878.688,567.697 878.527,567.99 878.317,568.23 C 878.107,568.47 877.85,568.653 877.546,568.781 C 877.242,568.909 876.896,568.973 876.508,568.973 C 876.116,568.973 875.767,568.909 875.461,568.781 C 875.155,568.653 874.897,568.47 874.687,568.23 C 874.477,567.99 874.316,567.697 874.204,567.351 C 874.092,567.005 874.036,566.616 874.036,566.184 C 874.036,565.748 874.092,565.357 874.204,565.012 C 874.316,564.666 874.477,564.373 874.687,564.133 C 874.897,563.893 875.155,563.71 875.461,563.584 C 875.767,563.458 876.116,563.395 876.508,563.395 C 876.896,563.395 877.242,563.458 877.546,563.584 C 877.85,563.71 878.107,563.893 878.317,564.133 C 878.527,564.373 878.688,564.666 878.8,565.012 C 878.912,565.357 878.968,565.748 878.968,566.184 Z" marker-start="none" marker-end="none"/>
   <path d="M 883.082,570.555 C 883.17,570.555 883.244,570.551 883.304,570.543 C 883.364,570.535 883.418,570.52 883.466,570.498 C 883.514,570.476 883.56,570.446 883.604,570.405 C 883.648,570.365 883.698,570.311 883.754,570.243 L 887.906,564.993 C 887.89,565.161 887.878,565.324 887.87,565.482 C 887.862,565.64 887.858,565.789 887.858,565.929 L 887.858,570.555 L 889.646,570.555 L 889.646,561.81 L 888.59,561.81 C 888.434,561.81 888.302,561.834 888.194,561.882 C 888.086,561.93 887.982,562.018 887.882,562.146 L 883.76,567.354 C 883.772,567.202 883.782,567.053 883.79,566.907 C 883.798,566.761 883.802,566.624 883.802,566.496 L 883.802,561.81 L 882.014,561.81 L 882.014,570.555 L 883.082,570.555 Z" marker-start="none" marker-end="none"/>
   <path d="M 849.099,550.071 L 847.527,550.071 C 847.351,550.071 847.206,550.112 847.092,550.193 C 846.978,550.276 846.899,550.381 846.855,550.509 L 846.339,552.034 L 843.015,552.034 L 842.5,550.509 C 842.459,550.397 842.381,550.296 842.265,550.206 C 842.149,550.116 842.007,550.071 841.838,550.071 L 840.255,550.071 L 843.639,558.815 L 845.715,558.815 L 849.099,550.071 Z M 843.483,553.414 L 845.871,553.414 L 845.067,555.771 C 845.015,555.921 844.954,556.097 844.883,556.3 C 844.814,556.503 844.745,556.723 844.677,556.959 C 844.613,556.719 844.547,556.496 844.479,556.291 C 844.411,556.087 844.347,555.909 844.287,555.76 L 843.483,553.414 Z" marker-start="none" marker-end="none"/>
   <path d="M 853.141,551.674 C 853.413,551.674 853.656,551.719 853.87,551.809 C 854.084,551.899 854.265,552.028 854.413,552.196 C 854.561,552.364 854.674,552.569 854.752,552.811 C 854.83,553.053 854.869,553.328 854.869,553.636 L 854.869,558.815 L 856.897,558.815 L 856.897,553.635 C 856.897,553.099 856.81,552.606 856.636,552.159 C 856.462,551.711 856.213,551.325 855.889,551.001 C 855.565,550.677 855.171,550.425 854.707,550.244 C 854.243,550.064 853.721,549.974 853.141,549.974 C 852.557,549.974 852.033,550.064 851.569,550.244 C 851.105,550.425 850.711,550.677 850.387,551.001 C 850.063,551.325 849.815,551.711 849.643,552.159 C 849.471,552.606 849.385,553.099 849.385,553.635 L 849.385,558.815 L 851.413,558.815 L 851.413,553.642 C 851.413,553.334 851.452,553.059 851.53,552.817 C 851.608,552.575 851.721,552.369 851.869,552.199 C 852.017,552.029 852.198,551.899 852.412,551.809 C 852.626,551.719 852.87,551.674 853.141,551.674 Z" marker-start="none" marker-end="none"/>
   <path d="M 864.092,552.332 C 864.14,552.332 864.188,552.322 864.236,552.304 C 864.284,552.286 864.33,552.254 864.374,552.209 L 865.178,551.345 C 864.826,550.892 864.385,550.55 863.855,550.32 C 863.326,550.09 862.698,549.974 861.974,549.974 C 861.31,549.974 860.715,550.087 860.189,550.313 C 859.663,550.54 859.217,550.852 858.851,551.25 C 858.485,551.648 858.204,552.12 858.008,552.666 C 857.812,553.212 857.714,553.805 857.714,554.446 C 857.714,555.097 857.826,555.697 858.05,556.243 C 858.274,556.789 858.587,557.261 858.989,557.656 C 859.391,558.052 859.872,558.36 860.432,558.58 C 860.992,558.8 861.61,558.91 862.286,558.91 C 862.614,558.91 862.924,558.881 863.213,558.823 C 863.503,558.765 863.774,558.685 864.026,558.583 C 864.278,558.481 864.51,558.358 864.722,558.216 C 864.933,558.074 865.122,557.917 865.286,557.744 L 864.602,556.826 C 864.558,556.77 864.506,556.719 864.445,556.673 C 864.386,556.627 864.303,556.604 864.194,556.604 C 864.122,556.604 864.054,556.62 863.99,556.652 C 863.926,556.684 863.858,556.723 863.786,556.769 C 863.714,556.815 863.635,556.865 863.549,556.919 C 863.463,556.974 863.361,557.023 863.243,557.069 C 863.125,557.115 862.987,557.154 862.829,557.186 C 862.671,557.218 862.486,557.234 862.274,557.234 C 861.906,557.234 861.57,557.169 861.266,557.039 C 860.962,556.909 860.701,556.723 860.483,556.481 C 860.265,556.239 860.095,555.946 859.973,555.602 C 859.851,555.258 859.79,554.872 859.79,554.444 C 859.79,553.996 859.851,553.598 859.973,553.25 C 860.095,552.902 860.261,552.609 860.471,552.37 C 860.681,552.133 860.926,551.952 861.206,551.827 C 861.486,551.703 861.786,551.641 862.106,551.641 C 862.29,551.641 862.458,551.65 862.61,551.668 C 862.762,551.686 862.903,551.717 863.033,551.761 C 863.163,551.805 863.287,551.862 863.405,551.932 C 863.523,552.002 863.642,552.089 863.762,552.194 C 863.81,552.234 863.862,552.267 863.918,552.293 C 863.974,552.319 864.032,552.332 864.092,552.332 Z" marker-start="none" marker-end="none"/>
   <path d="M 872.453,558.816 L 872.453,557.208 L 869.993,557.208 L 869.993,550.073 L 867.965,550.073 L 867.965,557.208 L 865.505,557.208 L 865.505,558.816 L 872.453,558.816 Z" marker-start="none" marker-end="none"/>
   <path d="M 875.515,550.071 L 873.475,550.071 L 873.475,558.816 L 875.515,558.816 L 875.515,550.071 Z" marker-start="none" marker-end="none"/>
   <path d="M 885.761,554.446 C 885.761,553.814 885.652,553.225 885.434,552.681 C 885.216,552.137 884.909,551.664 884.513,551.262 C 884.117,550.86 883.64,550.545 883.082,550.316 C 882.524,550.088 881.905,549.974 881.225,549.974 C 880.545,549.974 879.925,550.088 879.365,550.316 C 878.805,550.545 878.326,550.86 877.928,551.262 C 877.53,551.664 877.222,552.137 877.004,552.681 C 876.786,553.225 876.677,553.814 876.677,554.446 C 876.677,555.078 876.786,555.666 877.004,556.21 C 877.222,556.754 877.53,557.226 877.928,557.626 C 878.326,558.026 878.805,558.34 879.365,558.568 C 879.925,558.796 880.545,558.91 881.225,558.91 C 881.905,558.91 882.524,558.795 883.082,558.565 C 883.64,558.335 884.117,558.02 884.513,557.62 C 884.909,557.22 885.216,556.748 885.434,556.204 C 885.652,555.66 885.761,555.073 885.761,554.446 Z M 883.685,554.446 C 883.685,554.877 883.629,555.266 883.517,555.612 C 883.405,555.958 883.244,556.251 883.034,556.491 C 882.824,556.731 882.567,556.914 882.263,557.042 C 881.959,557.17 881.613,557.234 881.225,557.234 C 880.833,557.234 880.484,557.17 880.178,557.042 C 879.872,556.914 879.614,556.731 879.404,556.491 C 879.194,556.251 879.033,555.958 878.921,555.612 C 878.809,555.266 878.753,554.877 878.753,554.446 C 878.753,554.009 878.809,553.618 878.921,553.273 C 879.033,552.927 879.194,552.634 879.404,552.394 C 879.614,552.154 879.872,551.971 880.178,551.845 C 880.484,551.719 880.833,551.656 881.225,551.656 C 881.613,551.656 881.959,551.719 882.263,551.845 C 882.567,551.971 882.824,552.154 883.034,552.394 C 883.244,552.634 883.405,552.927 883.517,553.273 C 883.629,553.618 883.685,554.009 883.685,554.446 Z" marker-start="none" marker-end="none"/>
   <path d="M 887.8,558.816 C 887.887,558.816 887.961,558.811 888.021,558.804 C 888.081,558.796 888.135,558.781 888.183,558.759 C 888.231,558.737 888.277,558.706 888.321,558.666 C 888.365,558.626 888.415,558.572 888.471,558.504 L 892.623,553.254 C 892.607,553.422 892.595,553.585 892.587,553.743 C 892.579,553.901 892.575,554.05 892.575,554.19 L 892.575,558.816 L 894.363,558.816 L 894.363,550.071 L 893.307,550.071 C 893.151,550.071 893.019,550.095 892.911,550.143 C 892.803,550.191 892.699,550.279 892.599,550.407 L 888.477,555.615 C 888.488,555.463 888.499,555.314 888.507,555.168 C 888.515,555.022 888.519,554.885 888.519,554.757 L 888.519,550.071 L 886.731,550.071 L 886.731,558.816 L 887.8,558.816 Z" marker-start="none" marker-end="none"/>
   <g id="Group_2">
    <path d="M 847.669,562.099 L 847.669,570.841 L 850.886,570.841 C 851.491,570.841 852.004,570.785 852.428,570.673 C 852.852,570.561 853.198,570.404 853.466,570.2 C 853.734,569.996 853.929,569.748 854.051,569.456 C 854.173,569.164 854.234,568.838 854.234,568.478 C 854.234,568.282 854.206,568.093 854.15,567.911 C 854.094,567.729 854.006,567.558 853.886,567.398 C 853.766,567.238 853.612,567.093 853.424,566.963 C 853.236,566.833 853.01,566.72 852.746,566.624 C 853.322,566.484 853.748,566.257 854.024,565.943 C 854.3,565.629 854.438,565.226 854.438,564.734 C 854.438,564.362 854.366,564.016 854.222,563.694 C 854.078,563.375 853.867,563.096 853.589,562.858 C 853.311,562.62 852.968,562.434 852.56,562.3 C 852.152,562.166 851.686,562.099 851.162,562.099 L 847.669,562.099 Z M 849.698,565.808 L 849.698,563.628 L 851.126,563.628 C 851.394,563.628 851.613,563.662 851.783,563.73 C 851.953,563.799 852.086,563.887 852.182,563.995 C 852.278,564.103 852.344,564.225 852.38,564.361 C 852.416,564.497 852.434,564.635 852.434,564.775 C 852.434,564.935 852.413,565.079 852.371,565.208 C 852.329,565.336 852.257,565.444 852.155,565.532 C 852.053,565.619 851.918,565.688 851.75,565.736 C 851.582,565.784 851.37,565.808 851.114,565.808 L 849.698,565.808 Z M 849.698,567.165 L 850.754,567.165 C 850.978,567.165 851.18,567.181 851.36,567.212 C 851.54,567.245 851.693,567.301 851.819,567.38 C 851.945,567.46 852.041,567.57 852.107,567.71 C 852.173,567.85 852.206,568.026 852.206,568.238 C 852.206,568.446 852.179,568.619 852.128,568.757 C 852.076,568.895 851.996,569.006 851.888,569.09 C 851.78,569.174 851.643,569.234 851.477,569.27 C 851.311,569.306 851.114,569.324 850.886,569.324 L 849.698,569.324 L 849.698,567.165 Z" marker-start="none" marker-end="none"/>
    <path d="M 857.759,562.099 L 855.719,562.099 L 855.719,570.844 L 857.759,570.844 L 857.759,562.099 Z" marker-start="none" marker-end="none"/>
    <path d="M 867.309,566.475 C 867.309,565.842 867.2,565.259 866.982,564.725 C 866.764,564.191 866.457,563.729 866.061,563.339 C 865.665,562.949 865.188,562.644 864.63,562.426 C 864.073,562.208 863.453,562.099 862.773,562.099 L 859.377,562.099 L 859.377,570.844 L 862.773,570.844 C 863.453,570.844 864.073,570.734 864.63,570.514 C 865.188,570.294 865.665,569.99 866.061,569.602 C 866.457,569.214 866.764,568.753 866.982,568.218 C 867.2,567.684 867.309,567.103 867.309,566.475 Z M 865.233,566.475 C 865.233,566.907 865.177,567.297 865.065,567.645 C 864.953,567.993 864.792,568.288 864.582,568.53 C 864.372,568.772 864.115,568.958 863.811,569.088 C 863.507,569.218 863.161,569.283 862.773,569.283 L 861.417,569.283 L 861.417,563.661 L 862.773,563.661 C 863.161,563.661 863.507,563.726 863.811,563.856 C 864.115,563.986 864.372,564.172 864.582,564.414 C 864.792,564.656 864.953,564.951 865.065,565.299 C 865.177,565.647 865.233,566.039 865.233,566.475 Z" marker-start="none" marker-end="none"/>
   </g>
  </g>
 </g>
</svg>
