<?xml version="1.0" standalone="no"?>
<!DOCTYPE svg PUBLIC "-//W3C//DTD SVG 1.1//EN" "http://www.w3.org/Graphics/SVG/1.1/DTD/svg11.dtd">
<!--Generator: Xara Designer (www.xara.com), SVG filter version: 6.6.0.0-->
<svg fill="none" fill-rule="evenodd" stroke="black" stroke-width="0.501" stroke-linejoin="bevel" stroke-miterlimit="10" font-family="Times New Roman" font-size="16" style="font-variant-ligatures:none" xmlns:xlink="http://www.w3.org/1999/xlink" xmlns="http://www.w3.org/2000/svg" version="1.1" overflow="visible" width="107.718pt" height="53.866pt" viewBox="1181.25 -983.02 107.718 53.866">
 <defs>
	</defs>
 <g id="Grid 36x36mm" transform="scale(1 -1)">
  <path d="M 1181.25,944.368 L 1181.25,967.806 C 1181.25,976.204 1188.06,983.02 1196.46,983.02 L 1273.76,983.02 C 1282.15,983.02 1288.97,976.204 1288.97,967.806 L 1288.97,944.368 C 1288.97,935.97 1282.15,929.154 1273.76,929.154 L 1196.46,929.154 C 1188.06,929.154 1181.25,935.97 1181.25,944.368 Z" stroke="none" fill="#ffffff" stroke-width="0.802" stroke-linejoin="miter" marker-start="none" marker-end="none"/>
  <path d="M 1182.1,945.095 L 1182.1,967.079 C 1182.1,975.41 1188.86,982.171 1197.19,982.171 L 1273.03,982.171 C 1281.36,982.171 1288.12,975.41 1288.12,967.079 L 1288.12,945.095 C 1288.12,936.764 1281.36,930.003 1273.03,930.003 L 1197.19,930.003 C 1188.86,930.003 1182.1,936.764 1182.1,945.095 Z" fill="#00bf02" stroke="none" stroke-width="0.8" stroke-linejoin="miter" marker-start="none" marker-end="none"/>
  <g id="Group" fill="#ffffff" fill-rule="nonzero" stroke-linejoin="round" stroke-linecap="round" stroke="none" stroke-width="0.251">
   <path d="M 1248.84,961.862 C 1248.84,961.23 1248.73,960.642 1248.52,960.098 C 1248.3,959.554 1247.99,959.081 1247.6,958.679 C 1247.2,958.277 1246.72,957.962 1246.16,957.733 C 1245.61,957.505 1244.99,957.391 1244.31,957.391 C 1243.63,957.391 1243.01,957.505 1242.45,957.733 C 1241.89,957.962 1241.41,958.277 1241.01,958.679 C 1240.61,959.081 1240.3,959.554 1240.09,960.098 C 1239.87,960.642 1239.76,961.23 1239.76,961.862 C 1239.76,962.494 1239.87,963.083 1240.09,963.627 C 1240.3,964.171 1240.61,964.643 1241.01,965.043 C 1241.41,965.443 1241.89,965.757 1242.45,965.985 C 1243.01,966.213 1243.63,966.327 1244.31,966.327 C 1244.99,966.327 1245.61,966.212 1246.16,965.982 C 1246.72,965.752 1247.2,965.437 1247.6,965.037 C 1247.99,964.637 1248.3,964.165 1248.52,963.621 C 1248.73,963.077 1248.84,962.49 1248.84,961.862 Z M 1246.77,961.862 C 1246.77,962.294 1246.71,962.683 1246.6,963.029 C 1246.49,963.375 1246.33,963.668 1246.12,963.908 C 1245.91,964.148 1245.65,964.331 1245.35,964.459 C 1245.04,964.587 1244.69,964.651 1244.31,964.651 C 1243.92,964.651 1243.57,964.587 1243.26,964.459 C 1242.95,964.331 1242.7,964.148 1242.49,963.908 C 1242.28,963.668 1242.12,963.375 1242,963.029 C 1241.89,962.683 1241.84,962.294 1241.84,961.862 C 1241.84,961.426 1241.89,961.035 1242,960.69 C 1242.12,960.344 1242.28,960.051 1242.49,959.811 C 1242.7,959.571 1242.95,959.388 1243.26,959.262 C 1243.57,959.136 1243.92,959.073 1244.31,959.073 C 1244.69,959.073 1245.04,959.136 1245.35,959.262 C 1245.65,959.388 1245.91,959.571 1246.12,959.811 C 1246.33,960.051 1246.49,960.344 1246.6,960.69 C 1246.71,961.035 1246.77,961.426 1246.77,961.862 Z" marker-start="none" marker-end="none"/>
   <path d="M 1250.88,966.233 C 1250.97,966.233 1251.04,966.229 1251.1,966.221 C 1251.16,966.213 1251.22,966.198 1251.27,966.176 C 1251.31,966.154 1251.36,966.123 1251.4,966.083 C 1251.45,966.043 1251.5,965.989 1251.55,965.921 L 1255.7,960.671 C 1255.69,960.839 1255.68,961.002 1255.67,961.16 C 1255.66,961.318 1255.66,961.467 1255.66,961.607 L 1255.66,966.233 L 1257.44,966.233 L 1257.44,957.488 L 1256.39,957.488 C 1256.23,957.488 1256.1,957.512 1255.99,957.56 C 1255.89,957.608 1255.78,957.696 1255.68,957.824 L 1251.56,963.032 C 1251.57,962.88 1251.58,962.731 1251.59,962.585 C 1251.6,962.439 1251.6,962.302 1251.6,962.174 L 1251.6,957.488 L 1249.81,957.488 L 1249.81,966.233 L 1250.88,966.233 Z" marker-start="none" marker-end="none"/>
   <path d="M 1216.9,945.749 L 1215.33,945.749 C 1215.15,945.749 1215.01,945.79 1214.89,945.872 C 1214.78,945.954 1214.7,946.059 1214.65,946.187 L 1214.14,947.712 L 1210.81,947.712 L 1210.3,946.187 C 1210.26,946.075 1210.18,945.974 1210.06,945.884 C 1209.95,945.794 1209.81,945.749 1209.64,945.749 L 1208.05,945.749 L 1211.44,954.493 L 1213.51,954.493 L 1216.9,945.749 Z M 1211.28,949.092 L 1213.67,949.092 L 1212.87,951.449 C 1212.81,951.599 1212.75,951.775 1212.68,951.978 C 1212.61,952.181 1212.54,952.401 1212.48,952.637 C 1212.41,952.397 1212.35,952.174 1212.28,951.969 C 1212.21,951.765 1212.15,951.587 1212.09,951.438 L 1211.28,949.092 Z" marker-start="none" marker-end="none"/>
   <path d="M 1220.94,947.352 C 1221.21,947.352 1221.45,947.397 1221.67,947.487 C 1221.88,947.577 1222.06,947.706 1222.21,947.874 C 1222.36,948.042 1222.47,948.247 1222.55,948.489 C 1222.63,948.731 1222.67,949.006 1222.67,949.314 L 1222.67,954.493 L 1224.7,954.493 L 1224.7,949.313 C 1224.7,948.777 1224.61,948.285 1224.43,947.837 C 1224.26,947.389 1224.01,947.003 1223.69,946.679 C 1223.36,946.355 1222.97,946.103 1222.51,945.922 C 1222.04,945.742 1221.52,945.652 1220.94,945.652 C 1220.36,945.652 1219.83,945.742 1219.37,945.922 C 1218.9,946.103 1218.51,946.355 1218.19,946.679 C 1217.86,947.003 1217.61,947.389 1217.44,947.837 C 1217.27,948.285 1217.18,948.777 1217.18,949.313 L 1217.18,954.493 L 1219.21,954.493 L 1219.21,949.32 C 1219.21,949.012 1219.25,948.737 1219.33,948.495 C 1219.41,948.253 1219.52,948.047 1219.67,947.877 C 1219.82,947.707 1220,947.577 1220.21,947.487 C 1220.43,947.397 1220.67,947.352 1220.94,947.352 Z" marker-start="none" marker-end="none"/>
   <path d="M 1231.89,948.01 C 1231.94,948.01 1231.99,948 1232.04,947.982 C 1232.08,947.964 1232.13,947.932 1232.17,947.887 L 1232.98,947.023 C 1232.63,946.57 1232.18,946.228 1231.65,945.998 C 1231.12,945.768 1230.5,945.652 1229.77,945.652 C 1229.11,945.652 1228.51,945.765 1227.99,945.991 C 1227.46,946.218 1227.02,946.53 1226.65,946.928 C 1226.28,947.326 1226,947.798 1225.81,948.344 C 1225.61,948.89 1225.51,949.483 1225.51,950.123 C 1225.51,950.775 1225.63,951.375 1225.85,951.921 C 1226.07,952.467 1226.39,952.938 1226.79,953.334 C 1227.19,953.73 1227.67,954.038 1228.23,954.258 C 1228.79,954.478 1229.41,954.588 1230.09,954.588 C 1230.41,954.588 1230.72,954.559 1231.01,954.501 C 1231.3,954.443 1231.57,954.363 1231.83,954.261 C 1232.08,954.159 1232.31,954.036 1232.52,953.894 C 1232.73,953.752 1232.92,953.595 1233.09,953.422 L 1232.4,952.504 C 1232.36,952.448 1232.31,952.397 1232.25,952.351 C 1232.18,952.305 1232.1,952.282 1231.99,952.282 C 1231.92,952.282 1231.85,952.298 1231.79,952.33 C 1231.73,952.362 1231.66,952.401 1231.59,952.447 C 1231.51,952.493 1231.43,952.543 1231.35,952.597 C 1231.26,952.651 1231.16,952.701 1231.04,952.747 C 1230.92,952.793 1230.79,952.832 1230.63,952.864 C 1230.47,952.896 1230.29,952.912 1230.07,952.912 C 1229.7,952.912 1229.37,952.847 1229.07,952.717 C 1228.76,952.587 1228.5,952.401 1228.28,952.159 C 1228.06,951.917 1227.89,951.624 1227.77,951.28 C 1227.65,950.936 1227.59,950.55 1227.59,950.122 C 1227.59,949.674 1227.65,949.276 1227.77,948.928 C 1227.89,948.58 1228.06,948.287 1228.27,948.048 C 1228.48,947.811 1228.73,947.63 1229.01,947.505 C 1229.29,947.381 1229.59,947.319 1229.91,947.319 C 1230.09,947.319 1230.26,947.328 1230.41,947.346 C 1230.56,947.364 1230.7,947.395 1230.83,947.439 C 1230.96,947.483 1231.09,947.54 1231.2,947.61 C 1231.32,947.68 1231.44,947.767 1231.56,947.872 C 1231.61,947.912 1231.66,947.945 1231.72,947.971 C 1231.77,947.997 1231.83,948.01 1231.89,948.01 Z" marker-start="none" marker-end="none"/>
   <path d="M 1240.25,954.494 L 1240.25,952.886 L 1237.79,952.886 L 1237.79,945.751 L 1235.76,945.751 L 1235.76,952.886 L 1233.3,952.886 L 1233.3,954.494 L 1240.25,954.494 Z" marker-start="none" marker-end="none"/>
   <path d="M 1243.31,945.749 L 1241.27,945.749 L 1241.27,954.494 L 1243.31,954.494 L 1243.31,945.749 Z" marker-start="none" marker-end="none"/>
   <path d="M 1253.56,950.123 C 1253.56,949.491 1253.45,948.903 1253.23,948.359 C 1253.02,947.815 1252.71,947.342 1252.31,946.94 C 1251.92,946.538 1251.44,946.223 1250.88,945.994 C 1250.32,945.766 1249.7,945.652 1249.02,945.652 C 1248.34,945.652 1247.72,945.766 1247.16,945.994 C 1246.6,946.223 1246.13,946.538 1245.73,946.94 C 1245.33,947.342 1245.02,947.815 1244.8,948.359 C 1244.59,948.903 1244.48,949.491 1244.48,950.123 C 1244.48,950.755 1244.59,951.344 1244.8,951.888 C 1245.02,952.432 1245.33,952.904 1245.73,953.304 C 1246.13,953.704 1246.6,954.018 1247.16,954.246 C 1247.72,954.474 1248.34,954.588 1249.02,954.588 C 1249.7,954.588 1250.32,954.473 1250.88,954.243 C 1251.44,954.013 1251.92,953.698 1252.31,953.298 C 1252.71,952.898 1253.02,952.426 1253.23,951.882 C 1253.45,951.338 1253.56,950.751 1253.56,950.123 Z M 1251.48,950.123 C 1251.48,950.555 1251.43,950.944 1251.32,951.29 C 1251.2,951.636 1251.04,951.929 1250.83,952.169 C 1250.62,952.409 1250.37,952.592 1250.06,952.72 C 1249.76,952.848 1249.41,952.912 1249.02,952.912 C 1248.63,952.912 1248.28,952.848 1247.98,952.72 C 1247.67,952.592 1247.41,952.409 1247.2,952.169 C 1246.99,951.929 1246.83,951.636 1246.72,951.29 C 1246.61,950.944 1246.55,950.555 1246.55,950.123 C 1246.55,949.687 1246.61,949.296 1246.72,948.951 C 1246.83,948.605 1246.99,948.312 1247.2,948.072 C 1247.41,947.832 1247.67,947.649 1247.98,947.523 C 1248.28,947.397 1248.63,947.334 1249.02,947.334 C 1249.41,947.334 1249.76,947.397 1250.06,947.523 C 1250.37,947.649 1250.62,947.832 1250.83,948.072 C 1251.04,948.312 1251.2,948.605 1251.32,948.951 C 1251.43,949.296 1251.48,949.687 1251.48,950.123 Z" marker-start="none" marker-end="none"/>
   <path d="M 1255.6,954.494 C 1255.69,954.494 1255.76,954.49 1255.82,954.482 C 1255.88,954.474 1255.93,954.459 1255.98,954.437 C 1256.03,954.415 1256.08,954.384 1256.12,954.344 C 1256.16,954.304 1256.21,954.25 1256.27,954.182 L 1260.42,948.932 C 1260.41,949.1 1260.39,949.263 1260.39,949.421 C 1260.38,949.579 1260.37,949.728 1260.37,949.868 L 1260.37,954.494 L 1262.16,954.494 L 1262.16,945.749 L 1261.11,945.749 C 1260.95,945.749 1260.82,945.773 1260.71,945.821 C 1260.6,945.869 1260.5,945.957 1260.4,946.085 L 1256.28,951.293 C 1256.29,951.141 1256.3,950.992 1256.31,950.846 C 1256.31,950.7 1256.32,950.563 1256.32,950.435 L 1256.32,945.749 L 1254.53,945.749 L 1254.53,954.494 L 1255.6,954.494 Z" marker-start="none" marker-end="none"/>
   <g id="Group_1">
    <path d="M 1215.47,957.777 L 1215.47,966.519 L 1218.68,966.519 C 1219.29,966.519 1219.8,966.463 1220.23,966.351 C 1220.65,966.239 1221,966.082 1221.27,965.878 C 1221.53,965.674 1221.73,965.426 1221.85,965.134 C 1221.97,964.842 1222.03,964.516 1222.03,964.156 C 1222.03,963.96 1222.01,963.771 1221.95,963.589 C 1221.89,963.407 1221.81,963.236 1221.68,963.076 C 1221.57,962.916 1221.41,962.771 1221.22,962.641 C 1221.04,962.511 1220.81,962.398 1220.55,962.302 C 1221.12,962.162 1221.55,961.935 1221.82,961.621 C 1222.1,961.307 1222.24,960.904 1222.24,960.412 C 1222.24,960.04 1222.17,959.694 1222.02,959.373 C 1221.88,959.053 1221.67,958.774 1221.39,958.536 C 1221.11,958.298 1220.77,958.112 1220.36,957.978 C 1219.95,957.844 1219.49,957.777 1218.96,957.777 L 1215.47,957.777 Z M 1217.5,961.486 L 1217.5,959.306 L 1218.93,959.306 C 1219.19,959.306 1219.41,959.34 1219.58,959.408 C 1219.75,959.477 1219.89,959.565 1219.98,959.673 C 1220.08,959.781 1220.14,959.903 1220.18,960.039 C 1220.21,960.175 1220.23,960.313 1220.23,960.453 C 1220.23,960.613 1220.21,960.757 1220.17,960.886 C 1220.13,961.014 1220.06,961.122 1219.95,961.21 C 1219.85,961.298 1219.72,961.366 1219.55,961.414 C 1219.38,961.462 1219.17,961.486 1218.91,961.486 L 1217.5,961.486 Z M 1217.5,962.843 L 1218.55,962.843 C 1218.78,962.843 1218.98,962.859 1219.16,962.89 C 1219.34,962.923 1219.49,962.979 1219.62,963.058 C 1219.74,963.138 1219.84,963.248 1219.91,963.388 C 1219.97,963.528 1220.01,963.704 1220.01,963.916 C 1220.01,964.124 1219.98,964.297 1219.93,964.435 C 1219.88,964.573 1219.8,964.684 1219.69,964.768 C 1219.58,964.852 1219.44,964.912 1219.28,964.948 C 1219.11,964.984 1218.91,965.002 1218.68,965.002 L 1217.5,965.002 L 1217.5,962.843 Z" marker-start="none" marker-end="none"/>
    <path d="M 1225.56,957.777 L 1223.52,957.777 L 1223.52,966.522 L 1225.56,966.522 L 1225.56,957.777 Z" marker-start="none" marker-end="none"/>
    <path d="M 1235.11,962.153 C 1235.11,961.52 1235,960.937 1234.78,960.403 C 1234.56,959.869 1234.26,959.407 1233.86,959.017 C 1233.46,958.626 1232.99,958.322 1232.43,958.104 C 1231.87,957.886 1231.25,957.777 1230.57,957.777 L 1227.18,957.777 L 1227.18,966.522 L 1230.57,966.522 C 1231.25,966.522 1231.87,966.412 1232.43,966.192 C 1232.99,965.972 1233.46,965.668 1233.86,965.28 C 1234.26,964.892 1234.56,964.431 1234.78,963.896 C 1235,963.362 1235.11,962.781 1235.11,962.153 Z M 1233.03,962.153 C 1233.03,962.585 1232.98,962.975 1232.86,963.323 C 1232.75,963.671 1232.59,963.966 1232.38,964.208 C 1232.17,964.45 1231.91,964.636 1231.61,964.766 C 1231.31,964.896 1230.96,964.961 1230.57,964.961 L 1229.22,964.961 L 1229.22,959.339 L 1230.57,959.339 C 1230.96,959.339 1231.31,959.404 1231.61,959.534 C 1231.91,959.664 1232.17,959.85 1232.38,960.092 C 1232.59,960.334 1232.75,960.629 1232.86,960.977 C 1232.98,961.325 1233.03,961.717 1233.03,962.153 Z" marker-start="none" marker-end="none"/>
   </g>
  </g>
 </g>
</svg>
