<?xml version="1.0" standalone="no"?>
<!DOCTYPE svg PUBLIC "-//W3C//DTD SVG 1.1//EN" "http://www.w3.org/Graphics/SVG/1.1/DTD/svg11.dtd">
<!--Generator: Xara Designer (www.xara.com), SVG filter version: 6.6.0.0-->
<svg fill="none" fill-rule="evenodd" stroke="black" stroke-width="0.501" stroke-linejoin="bevel" stroke-miterlimit="10" font-family="Times New Roman" font-size="16" style="font-variant-ligatures:none" xmlns:xlink="http://www.w3.org/1999/xlink" xmlns="http://www.w3.org/2000/svg" version="1.1" overflow="visible" width="107.718pt" height="53.866pt" viewBox="813.451 -668.131 107.718 53.866">
 <defs>
	</defs>
 <g id="Grid 36x36mm" transform="scale(1 -1)">
  <path d="M 813.451,629.479 L 813.451,652.917 C 813.451,661.315 820.266,668.131 828.663,668.131 L 905.957,668.131 C 914.354,668.131 921.169,661.315 921.169,652.917 L 921.169,629.479 C 921.169,621.081 914.354,614.265 905.957,614.265 L 828.663,614.265 C 820.266,614.265 813.451,621.081 813.451,629.479 Z" stroke="none" fill="#ffffff" stroke-width="0.802" stroke-linejoin="miter" marker-start="none" marker-end="none"/>
  <path d="M 814.3,630.206 L 814.3,652.19 C 814.3,660.521 821.062,667.283 829.391,667.283 L 905.229,667.283 C 913.558,667.283 920.32,660.521 920.32,652.19 L 920.32,630.206 C 920.32,621.875 913.558,615.114 905.229,615.114 L 829.391,615.114 C 821.062,615.114 814.3,621.875 814.3,630.206 Z" stroke="none" fill="#e5e5e5" stroke-width="0.8" stroke-linejoin="miter" marker-start="none" marker-end="none"/>
  <g id="Group" fill-rule="nonzero" stroke-linejoin="round" stroke-linecap="round" stroke="none" stroke-width="0.251" fill="#b2b2b2">
   <path d="M 881.045,646.973 C 881.045,646.341 880.936,645.753 880.718,645.209 C 880.5,644.665 880.193,644.192 879.797,643.79 C 879.401,643.388 878.925,643.073 878.366,642.844 C 877.808,642.616 877.189,642.502 876.509,642.502 C 875.829,642.502 875.209,642.616 874.649,642.844 C 874.089,643.073 873.611,643.388 873.212,643.79 C 872.814,644.192 872.506,644.665 872.288,645.209 C 872.07,645.753 871.961,646.341 871.961,646.973 C 871.961,647.605 872.07,648.194 872.288,648.738 C 872.506,649.282 872.814,649.754 873.212,650.154 C 873.611,650.554 874.089,650.868 874.649,651.096 C 875.209,651.324 875.829,651.438 876.509,651.438 C 877.189,651.438 877.808,651.323 878.366,651.093 C 878.925,650.863 879.401,650.548 879.797,650.148 C 880.193,649.748 880.5,649.276 880.718,648.732 C 880.936,648.188 881.045,647.601 881.045,646.973 Z M 878.969,646.973 C 878.969,647.405 878.913,647.794 878.801,648.14 C 878.689,648.486 878.528,648.779 878.318,649.019 C 878.108,649.259 877.851,649.442 877.547,649.57 C 877.243,649.698 876.897,649.762 876.509,649.762 C 876.117,649.762 875.768,649.698 875.462,649.57 C 875.156,649.442 874.898,649.259 874.688,649.019 C 874.478,648.779 874.317,648.486 874.205,648.14 C 874.093,647.794 874.037,647.405 874.037,646.973 C 874.037,646.538 874.093,646.146 874.205,645.801 C 874.317,645.455 874.478,645.162 874.688,644.922 C 874.898,644.682 875.156,644.499 875.462,644.373 C 875.768,644.247 876.117,644.184 876.509,644.184 C 876.897,644.184 877.243,644.247 877.547,644.373 C 877.851,644.499 878.108,644.682 878.318,644.922 C 878.528,645.162 878.689,645.455 878.801,645.801 C 878.913,646.146 878.969,646.538 878.969,646.973 Z" marker-start="none" marker-end="none"/>
   <path d="M 883.083,651.344 C 883.171,651.344 883.245,651.34 883.305,651.332 C 883.365,651.324 883.419,651.309 883.467,651.287 C 883.515,651.265 883.561,651.234 883.605,651.194 C 883.649,651.154 883.699,651.1 883.755,651.032 L 887.907,645.782 C 887.891,645.95 887.879,646.113 887.871,646.271 C 887.863,646.429 887.859,646.578 887.859,646.718 L 887.859,651.344 L 889.647,651.344 L 889.647,642.599 L 888.591,642.599 C 888.435,642.599 888.303,642.623 888.195,642.671 C 888.087,642.719 887.983,642.807 887.883,642.935 L 883.761,648.143 C 883.773,647.991 883.783,647.842 883.791,647.696 C 883.799,647.55 883.803,647.413 883.803,647.285 L 883.803,642.599 L 882.015,642.599 L 882.015,651.344 L 883.083,651.344 Z" marker-start="none" marker-end="none"/>
   <path d="M 849.1,630.86 L 847.528,630.86 C 847.352,630.86 847.207,630.901 847.093,630.983 C 846.979,631.065 846.9,631.17 846.856,631.298 L 846.34,632.823 L 843.016,632.823 L 842.501,631.298 C 842.46,631.186 842.382,631.085 842.266,630.995 C 842.15,630.905 842.008,630.86 841.839,630.86 L 840.256,630.86 L 843.64,639.604 L 845.716,639.604 L 849.1,630.86 Z M 843.484,634.203 L 845.872,634.203 L 845.068,636.56 C 845.016,636.71 844.955,636.885 844.884,637.089 C 844.815,637.292 844.746,637.512 844.678,637.748 C 844.614,637.508 844.548,637.285 844.48,637.08 C 844.412,636.876 844.348,636.698 844.288,636.549 L 843.484,634.203 Z" marker-start="none" marker-end="none"/>
   <path d="M 853.142,632.463 C 853.414,632.463 853.657,632.508 853.871,632.598 C 854.085,632.688 854.266,632.817 854.414,632.985 C 854.562,633.153 854.675,633.358 854.753,633.6 C 854.831,633.842 854.87,634.117 854.87,634.425 L 854.87,639.604 L 856.898,639.604 L 856.898,634.424 C 856.898,633.888 856.811,633.396 856.637,632.948 C 856.463,632.5 856.214,632.114 855.89,631.79 C 855.566,631.466 855.172,631.214 854.708,631.033 C 854.244,630.854 853.722,630.763 853.142,630.763 C 852.558,630.763 852.034,630.854 851.57,631.033 C 851.106,631.214 850.712,631.466 850.388,631.79 C 850.064,632.114 849.816,632.5 849.644,632.948 C 849.472,633.396 849.386,633.888 849.386,634.424 L 849.386,639.604 L 851.414,639.604 L 851.414,634.431 C 851.414,634.123 851.453,633.848 851.531,633.606 C 851.609,633.364 851.722,633.158 851.87,632.988 C 852.018,632.818 852.199,632.688 852.413,632.598 C 852.627,632.508 852.871,632.463 853.142,632.463 Z" marker-start="none" marker-end="none"/>
   <path d="M 864.093,633.121 C 864.141,633.121 864.189,633.111 864.237,633.093 C 864.285,633.075 864.331,633.043 864.375,632.998 L 865.179,632.134 C 864.827,631.681 864.386,631.339 863.856,631.109 C 863.327,630.879 862.699,630.763 861.975,630.763 C 861.311,630.763 860.716,630.876 860.19,631.102 C 859.664,631.329 859.218,631.641 858.852,632.039 C 858.486,632.437 858.205,632.909 858.009,633.455 C 857.813,634.001 857.715,634.594 857.715,635.234 C 857.715,635.886 857.827,636.486 858.051,637.032 C 858.275,637.578 858.588,638.049 858.99,638.445 C 859.392,638.841 859.873,639.149 860.433,639.369 C 860.993,639.589 861.611,639.699 862.287,639.699 C 862.615,639.699 862.925,639.67 863.214,639.612 C 863.504,639.554 863.775,639.474 864.027,639.372 C 864.279,639.269 864.511,639.147 864.723,639.005 C 864.934,638.863 865.123,638.706 865.287,638.533 L 864.603,637.615 C 864.559,637.559 864.507,637.508 864.446,637.462 C 864.387,637.416 864.304,637.393 864.195,637.393 C 864.123,637.393 864.055,637.409 863.991,637.441 C 863.927,637.473 863.859,637.512 863.787,637.558 C 863.715,637.603 863.636,637.654 863.55,637.708 C 863.464,637.762 863.362,637.812 863.244,637.858 C 863.126,637.904 862.988,637.943 862.83,637.975 C 862.672,638.007 862.487,638.023 862.275,638.023 C 861.907,638.023 861.571,637.958 861.267,637.828 C 860.963,637.698 860.702,637.512 860.484,637.27 C 860.266,637.028 860.096,636.735 859.974,636.391 C 859.852,636.047 859.791,635.661 859.791,635.233 C 859.791,634.785 859.852,634.387 859.974,634.039 C 860.096,633.691 860.262,633.398 860.472,633.159 C 860.682,632.922 860.927,632.741 861.207,632.616 C 861.487,632.492 861.787,632.43 862.107,632.43 C 862.291,632.43 862.459,632.439 862.611,632.457 C 862.763,632.475 862.904,632.506 863.034,632.55 C 863.164,632.594 863.288,632.651 863.406,632.721 C 863.524,632.791 863.643,632.878 863.763,632.983 C 863.811,633.023 863.863,633.056 863.919,633.082 C 863.975,633.108 864.033,633.121 864.093,633.121 Z" marker-start="none" marker-end="none"/>
   <path d="M 872.454,639.605 L 872.454,637.997 L 869.994,637.997 L 869.994,630.862 L 867.966,630.862 L 867.966,637.997 L 865.506,637.997 L 865.506,639.605 L 872.454,639.605 Z" marker-start="none" marker-end="none"/>
   <path d="M 875.516,630.86 L 873.476,630.86 L 873.476,639.605 L 875.516,639.605 L 875.516,630.86 Z" marker-start="none" marker-end="none"/>
   <path d="M 885.762,635.234 C 885.762,634.602 885.653,634.014 885.435,633.47 C 885.217,632.926 884.91,632.453 884.514,632.051 C 884.118,631.649 883.641,631.334 883.083,631.105 C 882.525,630.877 881.906,630.763 881.226,630.763 C 880.546,630.763 879.926,630.877 879.366,631.105 C 878.806,631.334 878.327,631.649 877.929,632.051 C 877.531,632.453 877.223,632.926 877.005,633.47 C 876.787,634.014 876.678,634.602 876.678,635.234 C 876.678,635.866 876.787,636.454 877.005,636.999 C 877.223,637.543 877.531,638.015 877.929,638.415 C 878.327,638.815 878.806,639.129 879.366,639.357 C 879.926,639.585 880.546,639.699 881.226,639.699 C 881.906,639.699 882.525,639.584 883.083,639.354 C 883.641,639.124 884.118,638.809 884.514,638.409 C 884.91,638.009 885.217,637.537 885.435,636.993 C 885.653,636.449 885.762,635.862 885.762,635.234 Z M 883.686,635.234 C 883.686,635.666 883.63,636.055 883.518,636.401 C 883.406,636.747 883.245,637.04 883.035,637.28 C 882.825,637.52 882.568,637.703 882.264,637.831 C 881.96,637.959 881.614,638.023 881.226,638.023 C 880.834,638.023 880.485,637.959 880.179,637.831 C 879.873,637.703 879.615,637.52 879.405,637.28 C 879.195,637.04 879.034,636.747 878.922,636.401 C 878.81,636.055 878.754,635.666 878.754,635.234 C 878.754,634.798 878.81,634.407 878.922,634.062 C 879.034,633.716 879.195,633.423 879.405,633.183 C 879.615,632.943 879.873,632.76 880.179,632.635 C 880.485,632.508 880.834,632.445 881.226,632.445 C 881.614,632.445 881.96,632.508 882.264,632.635 C 882.568,632.76 882.825,632.943 883.035,633.183 C 883.245,633.423 883.406,633.716 883.518,634.062 C 883.63,634.407 883.686,634.798 883.686,635.234 Z" marker-start="none" marker-end="none"/>
   <path d="M 887.801,639.605 C 887.888,639.605 887.962,639.601 888.022,639.593 C 888.082,639.585 888.136,639.57 888.184,639.548 C 888.232,639.526 888.278,639.495 888.322,639.455 C 888.366,639.415 888.416,639.361 888.472,639.293 L 892.624,634.043 C 892.608,634.211 892.596,634.374 892.588,634.532 C 892.58,634.69 892.576,634.839 892.576,634.979 L 892.576,639.605 L 894.364,639.605 L 894.364,630.86 L 893.308,630.86 C 893.152,630.86 893.02,630.884 892.912,630.932 C 892.804,630.98 892.7,631.068 892.6,631.196 L 888.478,636.404 C 888.489,636.252 888.5,636.103 888.508,635.957 C 888.516,635.811 888.52,635.674 888.52,635.546 L 888.52,630.86 L 886.732,630.86 L 886.732,639.605 L 887.801,639.605 Z" marker-start="none" marker-end="none"/>
   <g id="Group_1">
    <path d="M 847.67,642.888 L 847.67,651.63 L 850.887,651.63 C 851.492,651.63 852.005,651.574 852.429,651.462 C 852.853,651.35 853.199,651.193 853.467,650.989 C 853.735,650.785 853.93,650.537 854.052,650.245 C 854.174,649.953 854.235,649.627 854.235,649.267 C 854.235,649.071 854.207,648.882 854.151,648.7 C 854.095,648.518 854.007,648.346 853.887,648.187 C 853.767,648.027 853.613,647.882 853.425,647.752 C 853.237,647.622 853.011,647.509 852.747,647.413 C 853.323,647.273 853.749,647.046 854.025,646.732 C 854.301,646.418 854.439,646.015 854.439,645.523 C 854.439,645.151 854.367,644.805 854.223,644.484 C 854.079,644.164 853.868,643.885 853.59,643.647 C 853.312,643.409 852.969,643.223 852.561,643.089 C 852.153,642.955 851.687,642.888 851.163,642.888 L 847.67,642.888 Z M 849.699,646.597 L 849.699,644.417 L 851.127,644.417 C 851.395,644.417 851.614,644.451 851.784,644.519 C 851.954,644.588 852.087,644.676 852.183,644.784 C 852.279,644.892 852.345,645.014 852.381,645.15 C 852.417,645.286 852.435,645.424 852.435,645.564 C 852.435,645.724 852.414,645.868 852.372,645.997 C 852.33,646.125 852.258,646.233 852.156,646.321 C 852.054,646.409 851.919,646.477 851.751,646.525 C 851.583,646.573 851.371,646.597 851.115,646.597 L 849.699,646.597 Z M 849.699,647.954 L 850.755,647.954 C 850.979,647.954 851.181,647.97 851.361,648.001 C 851.541,648.034 851.694,648.09 851.82,648.169 C 851.946,648.249 852.042,648.359 852.108,648.499 C 852.174,648.639 852.207,648.815 852.207,649.027 C 852.207,649.235 852.18,649.408 852.129,649.546 C 852.077,649.684 851.997,649.795 851.889,649.879 C 851.781,649.963 851.644,650.023 851.478,650.059 C 851.312,650.095 851.115,650.113 850.887,650.113 L 849.699,650.113 L 849.699,647.954 Z" marker-start="none" marker-end="none"/>
    <path d="M 857.76,642.888 L 855.72,642.888 L 855.72,651.633 L 857.76,651.633 L 857.76,642.888 Z" marker-start="none" marker-end="none"/>
    <path d="M 867.31,647.264 C 867.31,646.631 867.201,646.048 866.983,645.514 C 866.765,644.98 866.458,644.518 866.062,644.128 C 865.666,643.737 865.189,643.433 864.631,643.215 C 864.074,642.997 863.454,642.888 862.774,642.888 L 859.378,642.888 L 859.378,651.633 L 862.774,651.633 C 863.454,651.633 864.074,651.523 864.631,651.303 C 865.189,651.083 865.666,650.779 866.062,650.391 C 866.458,650.003 866.765,649.542 866.983,649.007 C 867.201,648.473 867.31,647.892 867.31,647.264 Z M 865.234,647.264 C 865.234,647.696 865.178,648.086 865.066,648.434 C 864.954,648.782 864.793,649.077 864.583,649.319 C 864.373,649.561 864.116,649.747 863.812,649.877 C 863.508,650.007 863.162,650.072 862.774,650.072 L 861.418,650.072 L 861.418,644.45 L 862.774,644.45 C 863.162,644.45 863.508,644.515 863.812,644.645 C 864.116,644.775 864.373,644.961 864.583,645.203 C 864.793,645.445 864.954,645.74 865.066,646.088 C 865.178,646.436 865.234,646.828 865.234,647.264 Z" marker-start="none" marker-end="none"/>
   </g>
  </g>
 </g>
</svg>
