<?xml version="1.0" standalone="no"?>
<!DOCTYPE svg PUBLIC "-//W3C//DTD SVG 1.1//EN" "http://www.w3.org/Graphics/SVG/1.1/DTD/svg11.dtd">
<!--Generator: Xara Designer (www.xara.com), SVG filter version: 6.6.0.0-->
<svg fill="none" fill-rule="evenodd" stroke="black" stroke-width="0.501" stroke-linejoin="bevel" stroke-miterlimit="10" font-family="Times New Roman" font-size="16" style="font-variant-ligatures:none" xmlns:xlink="http://www.w3.org/1999/xlink" xmlns="http://www.w3.org/2000/svg" version="1.1" overflow="visible" width="107.718pt" height="107.72pt" viewBox="816.75 -930.844 107.718 107.72">
 <defs>
	</defs>
 <g id="Grid 36x36mm" transform="scale(1 -1)">
  <path d="M 816.75,838.338 L 816.75,915.63 C 816.75,924.028 823.565,930.844 831.962,930.844 L 870.606,930.842 L 870.599,930.842 L 870.609,876.984 L 870.619,930.842 L 870.612,930.842 L 909.256,930.844 C 917.653,930.844 924.468,924.028 924.468,915.63 L 924.468,838.338 C 924.468,829.94 917.653,823.124 909.256,823.124 L 870.612,823.126 L 870.619,823.126 L 870.609,876.984 L 870.599,823.126 L 870.606,823.126 L 831.962,823.124 C 823.565,823.124 816.75,829.94 816.75,838.338 Z" stroke-linejoin="miter" stroke="none" fill="#ffffff" stroke-width="0.802" marker-start="none" marker-end="none"/>
  <path d="M 817.599,839.066 L 817.599,914.902 C 817.599,923.233 824.361,929.995 832.691,929.995 L 908.527,929.995 C 916.857,929.995 923.619,923.233 923.619,914.902 L 923.619,839.066 C 923.619,830.735 916.857,823.973 908.527,823.973 L 832.691,823.973 C 824.361,823.973 817.599,830.735 817.599,839.066 Z" fill="#00bf02" stroke-linejoin="miter" stroke="none" stroke-width="0.801" marker-start="none" marker-end="none"/>
  <g id="Group" fill="#ffffff" fill-rule="nonzero" stroke-linejoin="round" stroke-linecap="round" stroke="none" stroke-width="0.251">
   <path d="M 884.344,882.759 C 884.344,882.127 884.235,881.539 884.017,880.995 C 883.799,880.451 883.492,879.978 883.096,879.576 C 882.7,879.174 882.224,878.859 881.665,878.63 C 881.107,878.402 880.488,878.287 879.808,878.287 C 879.128,878.287 878.508,878.402 877.948,878.63 C 877.388,878.859 876.91,879.174 876.511,879.576 C 876.113,879.978 875.805,880.451 875.587,880.995 C 875.369,881.539 875.26,882.127 875.26,882.759 C 875.26,883.391 875.369,883.98 875.587,884.524 C 875.805,885.068 876.113,885.54 876.511,885.94 C 876.91,886.34 877.388,886.654 877.948,886.882 C 878.508,887.11 879.128,887.224 879.808,887.224 C 880.488,887.224 881.107,887.109 881.665,886.879 C 882.224,886.649 882.7,886.334 883.096,885.934 C 883.492,885.534 883.799,885.062 884.017,884.518 C 884.235,883.974 884.344,883.387 884.344,882.759 Z M 882.268,882.759 C 882.268,883.191 882.212,883.58 882.1,883.926 C 881.988,884.272 881.827,884.565 881.617,884.805 C 881.407,885.045 881.15,885.228 880.846,885.356 C 880.542,885.484 880.196,885.548 879.808,885.548 C 879.416,885.548 879.067,885.484 878.761,885.356 C 878.455,885.228 878.197,885.045 877.987,884.805 C 877.777,884.565 877.616,884.272 877.504,883.926 C 877.392,883.58 877.336,883.191 877.336,882.759 C 877.336,882.323 877.392,881.932 877.504,881.587 C 877.616,881.241 877.777,880.948 877.987,880.708 C 878.197,880.468 878.455,880.285 878.761,880.159 C 879.067,880.033 879.416,879.97 879.808,879.97 C 880.196,879.97 880.542,880.033 880.846,880.159 C 881.15,880.285 881.407,880.468 881.617,880.708 C 881.827,880.948 881.988,881.241 882.1,881.587 C 882.212,881.932 882.268,882.323 882.268,882.759 Z" marker-start="none" marker-end="none"/>
   <path d="M 886.382,887.13 C 886.47,887.13 886.544,887.126 886.604,887.118 C 886.664,887.11 886.718,887.095 886.766,887.073 C 886.814,887.051 886.86,887.021 886.904,886.98 C 886.948,886.94 886.998,886.886 887.054,886.818 L 891.206,881.568 C 891.19,881.736 891.178,881.899 891.17,882.057 C 891.162,882.215 891.158,882.364 891.158,882.504 L 891.158,887.13 L 892.946,887.13 L 892.946,878.385 L 891.89,878.385 C 891.734,878.385 891.602,878.409 891.494,878.457 C 891.386,878.505 891.282,878.593 891.182,878.721 L 887.06,883.929 C 887.072,883.777 887.082,883.628 887.09,883.482 C 887.098,883.336 887.102,883.199 887.102,883.071 L 887.102,878.385 L 885.314,878.385 L 885.314,887.13 L 886.382,887.13 Z" marker-start="none" marker-end="none"/>
   <path d="M 852.399,866.646 L 850.827,866.646 C 850.651,866.646 850.506,866.687 850.392,866.768 C 850.278,866.851 850.199,866.956 850.155,867.084 L 849.639,868.609 L 846.315,868.609 L 845.8,867.084 C 845.759,866.972 845.681,866.871 845.565,866.781 C 845.449,866.691 845.307,866.646 845.138,866.646 L 843.555,866.646 L 846.939,875.39 L 849.015,875.39 L 852.399,866.646 Z M 846.783,869.989 L 849.171,869.989 L 848.367,872.346 C 848.315,872.496 848.254,872.672 848.183,872.875 C 848.114,873.078 848.045,873.298 847.977,873.534 C 847.913,873.294 847.847,873.071 847.779,872.866 C 847.711,872.662 847.647,872.484 847.587,872.335 L 846.783,869.989 Z" marker-start="none" marker-end="none"/>
   <path d="M 856.441,868.249 C 856.713,868.249 856.956,868.294 857.17,868.384 C 857.384,868.474 857.565,868.603 857.713,868.771 C 857.861,868.939 857.974,869.144 858.052,869.386 C 858.13,869.628 858.169,869.903 858.169,870.211 L 858.169,875.39 L 860.197,875.39 L 860.197,870.21 C 860.197,869.674 860.11,869.181 859.936,868.734 C 859.762,868.286 859.513,867.9 859.189,867.576 C 858.865,867.252 858.471,867 858.007,866.819 C 857.543,866.639 857.021,866.549 856.441,866.549 C 855.857,866.549 855.333,866.639 854.869,866.819 C 854.405,867 854.011,867.252 853.687,867.576 C 853.363,867.9 853.115,868.286 852.943,868.734 C 852.771,869.181 852.685,869.674 852.685,870.21 L 852.685,875.39 L 854.713,875.39 L 854.713,870.217 C 854.713,869.909 854.752,869.634 854.83,869.392 C 854.908,869.15 855.021,868.944 855.169,868.774 C 855.317,868.604 855.498,868.474 855.712,868.384 C 855.926,868.294 856.17,868.249 856.441,868.249 Z" marker-start="none" marker-end="none"/>
   <path d="M 867.392,868.907 C 867.44,868.907 867.488,868.897 867.536,868.879 C 867.584,868.861 867.63,868.829 867.674,868.784 L 868.478,867.92 C 868.126,867.467 867.685,867.125 867.155,866.895 C 866.626,866.665 865.998,866.549 865.274,866.549 C 864.61,866.549 864.015,866.662 863.489,866.888 C 862.963,867.115 862.517,867.427 862.151,867.825 C 861.785,868.223 861.504,868.695 861.308,869.241 C 861.112,869.787 861.014,870.38 861.014,871.021 C 861.014,871.672 861.126,872.272 861.35,872.818 C 861.574,873.364 861.887,873.836 862.289,874.231 C 862.691,874.627 863.172,874.935 863.732,875.155 C 864.292,875.375 864.91,875.485 865.586,875.485 C 865.914,875.485 866.224,875.456 866.513,875.398 C 866.803,875.34 867.074,875.26 867.326,875.158 C 867.578,875.056 867.81,874.933 868.022,874.791 C 868.233,874.649 868.422,874.492 868.586,874.319 L 867.902,873.401 C 867.858,873.345 867.806,873.294 867.745,873.248 C 867.686,873.202 867.603,873.179 867.494,873.179 C 867.422,873.179 867.354,873.195 867.29,873.227 C 867.226,873.259 867.158,873.298 867.086,873.344 C 867.014,873.39 866.935,873.44 866.849,873.494 C 866.763,873.549 866.661,873.598 866.543,873.644 C 866.425,873.69 866.287,873.729 866.129,873.761 C 865.971,873.793 865.786,873.809 865.574,873.809 C 865.206,873.809 864.87,873.744 864.566,873.614 C 864.262,873.484 864.001,873.298 863.783,873.056 C 863.565,872.814 863.395,872.521 863.273,872.177 C 863.151,871.833 863.09,871.447 863.09,871.019 C 863.09,870.571 863.151,870.173 863.273,869.825 C 863.395,869.477 863.561,869.184 863.771,868.945 C 863.981,868.708 864.226,868.527 864.506,868.402 C 864.786,868.278 865.086,868.216 865.406,868.216 C 865.59,868.216 865.758,868.225 865.91,868.243 C 866.062,868.261 866.203,868.292 866.333,868.336 C 866.463,868.38 866.587,868.437 866.705,868.507 C 866.823,868.577 866.942,868.664 867.062,868.769 C 867.11,868.809 867.162,868.842 867.218,868.868 C 867.274,868.894 867.332,868.907 867.392,868.907 Z" marker-start="none" marker-end="none"/>
   <path d="M 875.753,875.391 L 875.753,873.783 L 873.293,873.783 L 873.293,866.648 L 871.265,866.648 L 871.265,873.783 L 868.805,873.783 L 868.805,875.391 L 875.753,875.391 Z" marker-start="none" marker-end="none"/>
   <path d="M 878.815,866.646 L 876.775,866.646 L 876.775,875.391 L 878.815,875.391 L 878.815,866.646 Z" marker-start="none" marker-end="none"/>
   <path d="M 889.061,871.021 C 889.061,870.389 888.952,869.8 888.734,869.256 C 888.516,868.712 888.209,868.239 887.813,867.837 C 887.417,867.435 886.94,867.12 886.382,866.891 C 885.824,866.663 885.205,866.549 884.525,866.549 C 883.845,866.549 883.225,866.663 882.665,866.891 C 882.105,867.12 881.626,867.435 881.228,867.837 C 880.83,868.239 880.522,868.712 880.304,869.256 C 880.086,869.8 879.977,870.389 879.977,871.021 C 879.977,871.653 880.086,872.241 880.304,872.785 C 880.522,873.329 880.83,873.801 881.228,874.201 C 881.626,874.601 882.105,874.915 882.665,875.143 C 883.225,875.371 883.845,875.485 884.525,875.485 C 885.205,875.485 885.824,875.37 886.382,875.14 C 886.94,874.91 887.417,874.595 887.813,874.195 C 888.209,873.795 888.516,873.323 888.734,872.779 C 888.952,872.235 889.061,871.648 889.061,871.021 Z M 886.985,871.021 C 886.985,871.452 886.929,871.841 886.817,872.187 C 886.705,872.533 886.544,872.826 886.334,873.066 C 886.124,873.306 885.867,873.489 885.563,873.617 C 885.259,873.745 884.913,873.809 884.525,873.809 C 884.133,873.809 883.784,873.745 883.478,873.617 C 883.172,873.489 882.914,873.306 882.704,873.066 C 882.494,872.826 882.333,872.533 882.221,872.187 C 882.109,871.841 882.053,871.452 882.053,871.021 C 882.053,870.584 882.109,870.193 882.221,869.848 C 882.333,869.502 882.494,869.209 882.704,868.969 C 882.914,868.729 883.172,868.546 883.478,868.42 C 883.784,868.294 884.133,868.231 884.525,868.231 C 884.913,868.231 885.259,868.294 885.563,868.42 C 885.867,868.546 886.124,868.729 886.334,868.969 C 886.544,869.209 886.705,869.502 886.817,869.848 C 886.929,870.193 886.985,870.584 886.985,871.021 Z" marker-start="none" marker-end="none"/>
   <path d="M 891.1,875.391 C 891.187,875.391 891.261,875.386 891.321,875.379 C 891.381,875.371 891.435,875.356 891.483,875.334 C 891.531,875.312 891.577,875.281 891.621,875.241 C 891.665,875.201 891.715,875.147 891.771,875.079 L 895.923,869.829 C 895.907,869.997 895.895,870.16 895.887,870.318 C 895.879,870.476 895.875,870.625 895.875,870.765 L 895.875,875.391 L 897.663,875.391 L 897.663,866.646 L 896.607,866.646 C 896.451,866.646 896.319,866.67 896.211,866.718 C 896.103,866.766 895.999,866.854 895.899,866.982 L 891.777,872.19 C 891.788,872.038 891.799,871.889 891.807,871.743 C 891.815,871.597 891.819,871.46 891.819,871.332 L 891.819,866.646 L 890.031,866.646 L 890.031,875.391 L 891.1,875.391 Z" marker-start="none" marker-end="none"/>
   <g id="Group_1">
    <path d="M 850.969,878.674 L 850.969,887.416 L 854.186,887.416 C 854.791,887.416 855.304,887.36 855.728,887.248 C 856.152,887.136 856.498,886.979 856.766,886.775 C 857.034,886.571 857.229,886.323 857.351,886.031 C 857.473,885.739 857.534,885.413 857.534,885.053 C 857.534,884.857 857.506,884.668 857.45,884.486 C 857.394,884.304 857.306,884.133 857.186,883.973 C 857.066,883.813 856.912,883.668 856.724,883.538 C 856.536,883.408 856.31,883.295 856.046,883.199 C 856.622,883.059 857.048,882.832 857.324,882.518 C 857.6,882.204 857.738,881.801 857.738,881.309 C 857.738,880.937 857.666,880.591 857.522,880.269 C 857.378,879.95 857.167,879.671 856.889,879.433 C 856.611,879.195 856.268,879.009 855.86,878.875 C 855.452,878.741 854.986,878.674 854.462,878.674 L 850.969,878.674 Z M 852.998,882.383 L 852.998,880.203 L 854.426,880.203 C 854.694,880.203 854.913,880.237 855.083,880.305 C 855.253,880.374 855.386,880.462 855.482,880.57 C 855.578,880.678 855.644,880.8 855.68,880.936 C 855.716,881.072 855.734,881.21 855.734,881.35 C 855.734,881.51 855.713,881.654 855.671,881.783 C 855.629,881.911 855.557,882.019 855.455,882.107 C 855.353,882.194 855.218,882.263 855.05,882.311 C 854.882,882.359 854.67,882.383 854.414,882.383 L 852.998,882.383 Z M 852.998,883.74 L 854.054,883.74 C 854.278,883.74 854.48,883.756 854.66,883.787 C 854.84,883.82 854.993,883.876 855.119,883.955 C 855.245,884.035 855.341,884.145 855.407,884.285 C 855.473,884.425 855.506,884.601 855.506,884.813 C 855.506,885.021 855.479,885.194 855.428,885.332 C 855.376,885.47 855.296,885.581 855.188,885.665 C 855.08,885.749 854.943,885.809 854.777,885.845 C 854.611,885.881 854.414,885.899 854.186,885.899 L 852.998,885.899 L 852.998,883.74 Z" marker-start="none" marker-end="none"/>
    <path d="M 861.059,878.674 L 859.019,878.674 L 859.019,887.419 L 861.059,887.419 L 861.059,878.674 Z" marker-start="none" marker-end="none"/>
    <path d="M 870.609,883.05 C 870.609,882.417 870.5,881.834 870.282,881.3 C 870.064,880.766 869.757,880.304 869.361,879.914 C 868.965,879.524 868.488,879.219 867.93,879.001 C 867.373,878.783 866.753,878.674 866.073,878.674 L 862.677,878.674 L 862.677,887.419 L 866.073,887.419 C 866.753,887.419 867.373,887.309 867.93,887.089 C 868.488,886.869 868.965,886.565 869.361,886.177 C 869.757,885.789 870.064,885.328 870.282,884.793 C 870.5,884.259 870.609,883.678 870.609,883.05 Z M 868.533,883.05 C 868.533,883.482 868.477,883.872 868.365,884.22 C 868.253,884.568 868.092,884.863 867.882,885.105 C 867.672,885.347 867.415,885.533 867.111,885.663 C 866.807,885.793 866.461,885.858 866.073,885.858 L 864.717,885.858 L 864.717,880.236 L 866.073,880.236 C 866.461,880.236 866.807,880.301 867.111,880.431 C 867.415,880.561 867.672,880.747 867.882,880.989 C 868.092,881.231 868.253,881.526 868.365,881.874 C 868.477,882.222 868.533,882.614 868.533,883.05 Z" marker-start="none" marker-end="none"/>
   </g>
  </g>
 </g>
</svg>
