<?xml version="1.0" standalone="no"?>
<!DOCTYPE svg PUBLIC "-//W3C//DTD SVG 1.1//EN" "http://www.w3.org/Graphics/SVG/1.1/DTD/svg11.dtd">
<!--Generator: Xara Designer (www.xara.com), SVG filter version: 6.6.0.0-->
<svg fill="none" fill-rule="evenodd" stroke="black" stroke-width="0.501" stroke-linejoin="bevel" stroke-miterlimit="10" font-family="Times New Roman" font-size="16" style="font-variant-ligatures:none" xmlns:xlink="http://www.w3.org/1999/xlink" xmlns="http://www.w3.org/2000/svg" version="1.1" overflow="visible" width="107.718pt" height="107.72pt" viewBox="1170.75 -609.47 107.718 107.72">
 <defs>
	</defs>
 <g id="Grid 36x36mm" transform="scale(1 -1)">
  <g id="Group" stroke-linejoin="miter" stroke="none">
   <path d="M 1170.75,516.964 L 1170.75,594.256 C 1170.75,602.654 1177.57,609.47 1185.96,609.47 L 1224.61,609.468 L 1224.6,609.468 L 1224.61,555.61 L 1224.62,609.468 L 1224.61,609.468 L 1263.26,609.47 C 1271.65,609.47 1278.47,602.654 1278.47,594.256 L 1278.47,516.964 C 1278.47,508.566 1271.65,501.75 1263.26,501.75 L 1224.61,501.752 L 1224.62,501.752 L 1224.61,555.61 L 1224.6,501.752 L 1224.61,501.752 L 1185.96,501.75 C 1177.57,501.75 1170.75,508.566 1170.75,516.964 Z" fill="#ffffff" stroke-width="0.802" marker-start="none" marker-end="none"/>
   <path d="M 1171.6,517.692 L 1171.6,593.528 C 1171.6,601.859 1178.36,608.621 1186.69,608.621 L 1262.53,608.621 C 1270.86,608.621 1277.62,601.859 1277.62,593.528 L 1277.62,517.692 C 1277.62,509.361 1270.86,502.599 1262.53,502.599 L 1186.69,502.599 C 1178.36,502.599 1171.6,509.361 1171.6,517.692 Z" fill="#e5e5e5" stroke-width="0.801" marker-start="none" marker-end="none"/>
  </g>
  <g id="Group_1" fill-rule="nonzero" stroke-linejoin="round" stroke-linecap="round" stroke="none" stroke-width="0.251" fill="#b2b2b2">
   <path d="M 1238.34,561.385 C 1238.34,560.753 1238.24,560.165 1238.02,559.621 C 1237.8,559.077 1237.49,558.604 1237.1,558.202 C 1236.7,557.8 1236.22,557.485 1235.67,557.256 C 1235.11,557.028 1234.49,556.914 1233.81,556.914 C 1233.13,556.914 1232.51,557.028 1231.95,557.256 C 1231.39,557.485 1230.91,557.8 1230.51,558.202 C 1230.11,558.604 1229.81,559.077 1229.59,559.621 C 1229.37,560.165 1229.26,560.753 1229.26,561.385 C 1229.26,562.017 1229.37,562.606 1229.59,563.15 C 1229.81,563.694 1230.11,564.166 1230.51,564.566 C 1230.91,564.966 1231.39,565.28 1231.95,565.508 C 1232.51,565.736 1233.13,565.85 1233.81,565.85 C 1234.49,565.85 1235.11,565.735 1235.67,565.505 C 1236.22,565.275 1236.7,564.96 1237.1,564.56 C 1237.49,564.16 1237.8,563.688 1238.02,563.144 C 1238.24,562.6 1238.34,562.013 1238.34,561.385 Z M 1236.27,561.385 C 1236.27,561.817 1236.21,562.206 1236.1,562.552 C 1235.99,562.898 1235.83,563.191 1235.62,563.431 C 1235.41,563.671 1235.15,563.854 1234.85,563.982 C 1234.54,564.11 1234.2,564.174 1233.81,564.174 C 1233.42,564.174 1233.07,564.11 1232.76,563.982 C 1232.45,563.854 1232.2,563.671 1231.99,563.431 C 1231.78,563.191 1231.62,562.898 1231.5,562.552 C 1231.39,562.206 1231.34,561.817 1231.34,561.385 C 1231.34,560.949 1231.39,560.558 1231.5,560.213 C 1231.62,559.867 1231.78,559.574 1231.99,559.334 C 1232.2,559.094 1232.45,558.911 1232.76,558.785 C 1233.07,558.659 1233.42,558.596 1233.81,558.596 C 1234.2,558.596 1234.54,558.659 1234.85,558.785 C 1235.15,558.911 1235.41,559.094 1235.62,559.334 C 1235.83,559.574 1235.99,559.867 1236.1,560.213 C 1236.21,560.558 1236.27,560.949 1236.27,561.385 Z" marker-start="none" marker-end="none"/>
   <path d="M 1240.38,565.756 C 1240.47,565.756 1240.54,565.752 1240.6,565.744 C 1240.66,565.736 1240.72,565.721 1240.77,565.699 C 1240.81,565.677 1240.86,565.646 1240.9,565.606 C 1240.95,565.566 1241,565.512 1241.05,565.444 L 1245.21,560.194 C 1245.19,560.362 1245.18,560.525 1245.17,560.683 C 1245.16,560.841 1245.16,560.99 1245.16,561.13 L 1245.16,565.756 L 1246.95,565.756 L 1246.95,557.011 L 1245.89,557.011 C 1245.73,557.011 1245.6,557.035 1245.49,557.083 C 1245.39,557.131 1245.28,557.219 1245.18,557.347 L 1241.06,562.555 C 1241.07,562.403 1241.08,562.254 1241.09,562.108 C 1241.1,561.962 1241.1,561.825 1241.1,561.697 L 1241.1,557.011 L 1239.31,557.011 L 1239.31,565.756 L 1240.38,565.756 Z" marker-start="none" marker-end="none"/>
   <path d="M 1206.4,545.272 L 1204.83,545.272 C 1204.65,545.272 1204.51,545.313 1204.39,545.395 C 1204.28,545.477 1204.2,545.582 1204.16,545.71 L 1203.64,547.235 L 1200.32,547.235 L 1199.8,545.71 C 1199.76,545.598 1199.68,545.497 1199.57,545.407 C 1199.45,545.317 1199.31,545.272 1199.14,545.272 L 1197.56,545.272 L 1200.94,554.016 L 1203.02,554.016 L 1206.4,545.272 Z M 1200.78,548.615 L 1203.17,548.615 L 1202.37,550.972 C 1202.32,551.122 1202.25,551.298 1202.18,551.501 C 1202.11,551.704 1202.05,551.924 1201.98,552.16 C 1201.91,551.92 1201.85,551.697 1201.78,551.492 C 1201.71,551.288 1201.65,551.11 1201.59,550.961 L 1200.78,548.615 Z" marker-start="none" marker-end="none"/>
   <path d="M 1210.44,546.875 C 1210.71,546.875 1210.96,546.92 1211.17,547.01 C 1211.38,547.1 1211.57,547.229 1211.71,547.397 C 1211.86,547.565 1211.97,547.77 1212.05,548.012 C 1212.13,548.254 1212.17,548.529 1212.17,548.837 L 1212.17,554.016 L 1214.2,554.016 L 1214.2,548.836 C 1214.2,548.3 1214.11,547.808 1213.94,547.36 C 1213.76,546.912 1213.51,546.526 1213.19,546.202 C 1212.87,545.878 1212.47,545.626 1212.01,545.445 C 1211.54,545.265 1211.02,545.175 1210.44,545.175 C 1209.86,545.175 1209.33,545.265 1208.87,545.445 C 1208.41,545.626 1208.01,545.878 1207.69,546.202 C 1207.36,546.526 1207.12,546.912 1206.94,547.36 C 1206.77,547.808 1206.68,548.3 1206.68,548.836 L 1206.68,554.016 L 1208.71,554.016 L 1208.71,548.843 C 1208.71,548.535 1208.75,548.26 1208.83,548.018 C 1208.91,547.776 1209.02,547.57 1209.17,547.4 C 1209.32,547.23 1209.5,547.1 1209.71,547.01 C 1209.93,546.92 1210.17,546.875 1210.44,546.875 Z" marker-start="none" marker-end="none"/>
   <path d="M 1221.39,547.533 C 1221.44,547.533 1221.49,547.523 1221.54,547.505 C 1221.58,547.487 1221.63,547.455 1221.67,547.41 L 1222.48,546.546 C 1222.13,546.093 1221.68,545.751 1221.16,545.521 C 1220.63,545.291 1220,545.175 1219.27,545.175 C 1218.61,545.175 1218.02,545.288 1217.49,545.514 C 1216.96,545.741 1216.52,546.053 1216.15,546.451 C 1215.79,546.849 1215.5,547.321 1215.31,547.867 C 1215.11,548.413 1215.01,549.006 1215.01,549.646 C 1215.01,550.298 1215.13,550.898 1215.35,551.444 C 1215.57,551.99 1215.89,552.461 1216.29,552.857 C 1216.69,553.253 1217.17,553.561 1217.73,553.781 C 1218.29,554.001 1218.91,554.111 1219.59,554.111 C 1219.91,554.111 1220.22,554.082 1220.51,554.024 C 1220.8,553.966 1221.07,553.886 1221.33,553.784 C 1221.58,553.682 1221.81,553.559 1222.02,553.417 C 1222.23,553.275 1222.42,553.118 1222.59,552.945 L 1221.9,552.027 C 1221.86,551.971 1221.81,551.92 1221.75,551.874 C 1221.69,551.828 1221.6,551.805 1221.49,551.805 C 1221.42,551.805 1221.35,551.821 1221.29,551.853 C 1221.23,551.885 1221.16,551.924 1221.09,551.97 C 1221.01,552.016 1220.93,552.066 1220.85,552.12 C 1220.76,552.174 1220.66,552.224 1220.54,552.27 C 1220.43,552.316 1220.29,552.355 1220.13,552.387 C 1219.97,552.419 1219.79,552.435 1219.57,552.435 C 1219.21,552.435 1218.87,552.37 1218.57,552.24 C 1218.26,552.11 1218,551.924 1217.78,551.682 C 1217.57,551.44 1217.4,551.147 1217.27,550.803 C 1217.15,550.459 1217.09,550.073 1217.09,549.645 C 1217.09,549.197 1217.15,548.799 1217.27,548.451 C 1217.4,548.103 1217.56,547.81 1217.77,547.571 C 1217.98,547.334 1218.23,547.153 1218.51,547.028 C 1218.79,546.904 1219.09,546.842 1219.41,546.842 C 1219.59,546.842 1219.76,546.851 1219.91,546.869 C 1220.06,546.887 1220.2,546.918 1220.33,546.962 C 1220.46,547.006 1220.59,547.063 1220.7,547.133 C 1220.82,547.203 1220.94,547.29 1221.06,547.395 C 1221.11,547.435 1221.16,547.468 1221.22,547.494 C 1221.27,547.52 1221.33,547.533 1221.39,547.533 Z" marker-start="none" marker-end="none"/>
   <path d="M 1229.75,554.017 L 1229.75,552.409 L 1227.29,552.409 L 1227.29,545.274 L 1225.27,545.274 L 1225.27,552.409 L 1222.81,552.409 L 1222.81,554.017 L 1229.75,554.017 Z" marker-start="none" marker-end="none"/>
   <path d="M 1232.82,545.272 L 1230.78,545.272 L 1230.78,554.017 L 1232.82,554.017 L 1232.82,545.272 Z" marker-start="none" marker-end="none"/>
   <path d="M 1243.06,549.646 C 1243.06,549.014 1242.95,548.426 1242.73,547.882 C 1242.52,547.338 1242.21,546.865 1241.81,546.463 C 1241.42,546.061 1240.94,545.746 1240.38,545.517 C 1239.82,545.289 1239.2,545.175 1238.53,545.175 C 1237.85,545.175 1237.23,545.289 1236.67,545.517 C 1236.11,545.746 1235.63,546.061 1235.23,546.463 C 1234.83,546.865 1234.52,547.338 1234.3,547.882 C 1234.09,548.426 1233.98,549.014 1233.98,549.646 C 1233.98,550.278 1234.09,550.867 1234.3,551.411 C 1234.52,551.955 1234.83,552.427 1235.23,552.827 C 1235.63,553.227 1236.11,553.541 1236.67,553.769 C 1237.23,553.997 1237.85,554.111 1238.53,554.111 C 1239.2,554.111 1239.82,553.996 1240.38,553.766 C 1240.94,553.536 1241.42,553.221 1241.81,552.821 C 1242.21,552.421 1242.52,551.949 1242.73,551.405 C 1242.95,550.861 1243.06,550.274 1243.06,549.646 Z M 1240.99,549.646 C 1240.99,550.078 1240.93,550.467 1240.82,550.813 C 1240.7,551.159 1240.54,551.452 1240.33,551.692 C 1240.12,551.932 1239.87,552.115 1239.56,552.243 C 1239.26,552.371 1238.91,552.435 1238.53,552.435 C 1238.13,552.435 1237.78,552.371 1237.48,552.243 C 1237.17,552.115 1236.91,551.932 1236.7,551.692 C 1236.49,551.452 1236.33,551.159 1236.22,550.813 C 1236.11,550.467 1236.05,550.078 1236.05,549.646 C 1236.05,549.21 1236.11,548.819 1236.22,548.474 C 1236.33,548.128 1236.49,547.835 1236.7,547.595 C 1236.91,547.355 1237.17,547.172 1237.48,547.046 C 1237.78,546.92 1238.13,546.857 1238.53,546.857 C 1238.91,546.857 1239.26,546.92 1239.56,547.046 C 1239.87,547.172 1240.12,547.355 1240.33,547.595 C 1240.54,547.835 1240.7,548.128 1240.82,548.474 C 1240.93,548.819 1240.99,549.21 1240.99,549.646 Z" marker-start="none" marker-end="none"/>
   <path d="M 1245.1,554.017 C 1245.19,554.017 1245.26,554.013 1245.32,554.005 C 1245.38,553.997 1245.43,553.982 1245.48,553.96 C 1245.53,553.938 1245.58,553.907 1245.62,553.867 C 1245.67,553.827 1245.71,553.773 1245.77,553.705 L 1249.92,548.455 C 1249.91,548.623 1249.9,548.786 1249.89,548.944 C 1249.88,549.102 1249.88,549.251 1249.88,549.391 L 1249.88,554.017 L 1251.66,554.017 L 1251.66,545.272 L 1250.61,545.272 C 1250.45,545.272 1250.32,545.296 1250.21,545.344 C 1250.1,545.392 1250,545.48 1249.9,545.608 L 1245.78,550.816 C 1245.79,550.664 1245.8,550.515 1245.81,550.369 C 1245.82,550.223 1245.82,550.086 1245.82,549.958 L 1245.82,545.272 L 1244.03,545.272 L 1244.03,554.017 L 1245.1,554.017 Z" marker-start="none" marker-end="none"/>
   <g id="Group_2">
    <path d="M 1204.97,557.3 L 1204.97,566.042 L 1208.19,566.042 C 1208.79,566.042 1209.3,565.986 1209.73,565.874 C 1210.15,565.762 1210.5,565.605 1210.77,565.401 C 1211.03,565.197 1211.23,564.949 1211.35,564.657 C 1211.47,564.365 1211.53,564.039 1211.53,563.679 C 1211.53,563.483 1211.51,563.294 1211.45,563.112 C 1211.39,562.93 1211.31,562.759 1211.19,562.599 C 1211.07,562.439 1210.91,562.294 1210.72,562.164 C 1210.54,562.034 1210.31,561.921 1210.05,561.825 C 1210.62,561.685 1211.05,561.458 1211.32,561.144 C 1211.6,560.83 1211.74,560.427 1211.74,559.935 C 1211.74,559.563 1211.67,559.217 1211.52,558.896 C 1211.38,558.576 1211.17,558.297 1210.89,558.059 C 1210.61,557.821 1210.27,557.635 1209.86,557.501 C 1209.45,557.367 1208.99,557.3 1208.46,557.3 L 1204.97,557.3 Z M 1207,561.009 L 1207,558.829 L 1208.43,558.829 C 1208.69,558.829 1208.91,558.863 1209.08,558.931 C 1209.25,559 1209.39,559.088 1209.48,559.196 C 1209.58,559.304 1209.64,559.426 1209.68,559.562 C 1209.72,559.698 1209.73,559.836 1209.73,559.976 C 1209.73,560.136 1209.71,560.28 1209.67,560.409 C 1209.63,560.537 1209.56,560.645 1209.45,560.733 C 1209.35,560.821 1209.22,560.889 1209.05,560.937 C 1208.88,560.985 1208.67,561.009 1208.41,561.009 L 1207,561.009 Z M 1207,562.366 L 1208.05,562.366 C 1208.28,562.366 1208.48,562.382 1208.66,562.413 C 1208.84,562.446 1208.99,562.502 1209.12,562.581 C 1209.25,562.661 1209.34,562.771 1209.41,562.911 C 1209.47,563.051 1209.51,563.227 1209.51,563.439 C 1209.51,563.647 1209.48,563.82 1209.43,563.958 C 1209.38,564.096 1209.3,564.207 1209.19,564.291 C 1209.08,564.375 1208.94,564.435 1208.78,564.471 C 1208.61,564.507 1208.41,564.525 1208.19,564.525 L 1207,564.525 L 1207,562.366 Z" marker-start="none" marker-end="none"/>
    <path d="M 1215.06,557.3 L 1213.02,557.3 L 1213.02,566.045 L 1215.06,566.045 L 1215.06,557.3 Z" marker-start="none" marker-end="none"/>
    <path d="M 1224.61,561.676 C 1224.61,561.043 1224.5,560.46 1224.28,559.926 C 1224.06,559.392 1223.76,558.93 1223.36,558.54 C 1222.96,558.149 1222.49,557.845 1221.93,557.627 C 1221.37,557.409 1220.75,557.3 1220.07,557.3 L 1216.68,557.3 L 1216.68,566.045 L 1220.07,566.045 C 1220.75,566.045 1221.37,565.935 1221.93,565.715 C 1222.49,565.495 1222.96,565.191 1223.36,564.803 C 1223.76,564.415 1224.06,563.954 1224.28,563.419 C 1224.5,562.885 1224.61,562.304 1224.61,561.676 Z M 1222.53,561.676 C 1222.53,562.108 1222.48,562.498 1222.37,562.846 C 1222.25,563.194 1222.09,563.489 1221.88,563.731 C 1221.67,563.973 1221.42,564.159 1221.11,564.289 C 1220.81,564.419 1220.46,564.484 1220.07,564.484 L 1218.72,564.484 L 1218.72,558.862 L 1220.07,558.862 C 1220.46,558.862 1220.81,558.927 1221.11,559.057 C 1221.42,559.187 1221.67,559.373 1221.88,559.615 C 1222.09,559.857 1222.25,560.152 1222.37,560.5 C 1222.48,560.848 1222.53,561.24 1222.53,561.676 Z" marker-start="none" marker-end="none"/>
   </g>
  </g>
 </g>
</svg>
