<?xml version="1.0" standalone="no"?>
<!DOCTYPE svg PUBLIC "-//W3C//DTD SVG 1.1//EN" "http://www.w3.org/Graphics/SVG/1.1/DTD/svg11.dtd">
<!--Generator: Xara Designer (www.xara.com), SVG filter version: 6.6.0.0-->
<svg fill="none" fill-rule="evenodd" stroke="black" stroke-width="0.501" stroke-linejoin="bevel" stroke-miterlimit="10" font-family="Times New Roman" font-size="16" style="font-variant-ligatures:none" xmlns:xlink="http://www.w3.org/1999/xlink" xmlns="http://www.w3.org/2000/svg" version="1.1" overflow="visible" width="107.718pt" height="53.866pt" viewBox="813.451 -721.99 107.718 53.866">
 <defs>
	</defs>
 <g id="Grid 36x36mm" transform="scale(1 -1)">
  <path d="M 813.451,683.338 L 813.451,706.776 C 813.451,715.174 820.266,721.99 828.663,721.99 L 905.957,721.99 C 914.354,721.99 921.169,715.174 921.169,706.776 L 921.169,683.338 C 921.169,674.94 914.354,668.124 905.957,668.124 L 828.663,668.124 C 820.266,668.124 813.451,674.94 813.451,683.338 Z" stroke="none" fill="#ffffff" stroke-width="0.802" stroke-linejoin="miter" marker-start="none" marker-end="none"/>
  <path d="M 814.3,684.065 L 814.3,706.049 C 814.3,714.38 821.062,721.141 829.391,721.141 L 905.229,721.141 C 913.558,721.141 920.32,714.38 920.32,706.049 L 920.32,684.065 C 920.32,675.734 913.558,668.973 905.229,668.973 L 829.391,668.973 C 821.062,668.973 814.3,675.734 814.3,684.065 Z" stroke="none" fill="#e5e5e5" stroke-width="0.8" stroke-linejoin="miter" marker-start="none" marker-end="none"/>
  <g id="Group" fill-rule="nonzero" stroke-linejoin="round" stroke-linecap="round" stroke="none" fill="#b2b2b2">
   <g id="Group_1" stroke-width="0.251">
    <path d="M 842.697,704.261 L 842.697,713.003 L 845.913,713.003 C 846.517,713.003 847.031,712.947 847.455,712.835 C 847.879,712.724 848.225,712.566 848.493,712.362 C 848.761,712.158 848.956,711.91 849.078,711.618 C 849.2,711.326 849.261,710.999 849.261,710.64 C 849.261,710.444 849.233,710.255 849.177,710.073 C 849.121,709.891 849.033,709.72 848.913,709.56 C 848.793,709.4 848.638,709.255 848.451,709.125 C 848.263,708.995 848.037,708.882 847.773,708.786 C 848.349,708.646 848.775,708.419 849.051,708.105 C 849.327,707.791 849.465,707.388 849.465,706.896 C 849.465,706.524 849.393,706.178 849.249,705.857 C 849.105,705.537 848.894,705.258 848.616,705.02 C 848.338,704.782 847.995,704.596 847.587,704.462 C 847.179,704.328 846.713,704.261 846.189,704.261 L 842.697,704.261 Z M 844.725,707.97 L 844.725,705.79 L 846.153,705.79 C 846.421,705.79 846.64,705.824 846.81,705.892 C 846.98,705.961 847.113,706.049 847.209,706.157 C 847.305,706.265 847.371,706.387 847.407,706.523 C 847.443,706.659 847.462,706.797 847.462,706.937 C 847.462,707.097 847.44,707.241 847.398,707.37 C 847.356,707.498 847.284,707.606 847.182,707.694 C 847.08,707.782 846.945,707.85 846.777,707.897 C 846.609,707.946 846.397,707.97 846.141,707.97 L 844.725,707.97 Z M 844.725,709.327 L 845.781,709.327 C 846.005,709.327 846.207,709.343 846.387,709.374 C 846.567,709.407 846.72,709.463 846.846,709.542 C 846.972,709.622 847.068,709.732 847.134,709.872 C 847.2,710.012 847.233,710.188 847.233,710.4 C 847.233,710.608 847.207,710.781 847.155,710.919 C 847.103,711.058 847.023,711.168 846.916,711.252 C 846.807,711.336 846.67,711.396 846.504,711.432 C 846.338,711.468 846.141,711.486 845.913,711.486 L 844.725,711.486 L 844.725,709.327 Z" marker-start="none" marker-end="none"/>
    <path d="M 854.202,705.864 C 854.474,705.864 854.717,705.909 854.931,705.999 C 855.145,706.089 855.326,706.218 855.474,706.386 C 855.622,706.554 855.735,706.759 855.813,707.001 C 855.891,707.243 855.93,707.518 855.93,707.826 L 855.93,713.005 L 857.958,713.005 L 857.958,707.825 C 857.958,707.289 857.871,706.797 857.697,706.349 C 857.523,705.901 857.274,705.515 856.95,705.191 C 856.626,704.867 856.232,704.615 855.768,704.434 C 855.304,704.254 854.782,704.164 854.202,704.164 C 853.618,704.164 853.094,704.254 852.63,704.434 C 852.166,704.615 851.772,704.867 851.448,705.191 C 851.124,705.515 850.876,705.901 850.704,706.349 C 850.532,706.797 850.446,707.289 850.446,707.825 L 850.446,713.005 L 852.474,713.005 L 852.474,707.832 C 852.474,707.525 852.513,707.249 852.591,707.008 C 852.669,706.765 852.782,706.559 852.93,706.389 C 853.078,706.219 853.259,706.089 853.473,705.999 C 853.687,705.909 853.93,705.864 854.202,705.864 Z" marker-start="none" marker-end="none"/>
    <path d="M 863.635,707.534 L 863.635,704.261 L 861.607,704.261 L 861.607,707.534 L 858.439,713.005 L 860.227,713.005 C 860.403,713.005 860.543,712.963 860.647,712.88 C 860.751,712.796 860.835,712.689 860.899,712.559 L 862.135,709.969 C 862.235,709.761 862.327,709.569 862.411,709.394 C 862.495,709.218 862.569,709.046 862.633,708.875 C 862.693,709.05 862.765,709.225 862.849,709.4 C 862.933,709.575 863.023,709.764 863.119,709.969 L 864.343,712.559 C 864.367,712.612 864.4,712.665 864.442,712.718 C 864.484,712.771 864.532,712.819 864.586,712.861 C 864.64,712.904 864.702,712.939 864.772,712.965 C 864.842,712.992 864.919,713.005 865.003,713.005 L 866.803,713.005 L 863.635,707.534 Z" marker-start="none" marker-end="none"/>
   </g>
   <g id="Group_2" stroke-width="0.251">
    <path d="M 843.415,693.767 C 843.463,693.767 843.511,693.757 843.559,693.739 C 843.607,693.721 843.653,693.689 843.697,693.644 L 844.501,692.78 C 844.149,692.327 843.708,691.985 843.178,691.755 C 842.648,691.525 842.021,691.41 841.297,691.41 C 840.633,691.41 840.038,691.522 839.512,691.748 C 838.986,691.975 838.54,692.287 838.174,692.685 C 837.808,693.083 837.527,693.555 837.331,694.101 C 837.135,694.647 837.037,695.24 837.037,695.88 C 837.037,696.532 837.148,697.132 837.373,697.678 C 837.597,698.224 837.91,698.695 838.312,699.091 C 838.714,699.487 839.195,699.795 839.755,700.015 C 840.315,700.235 840.933,700.345 841.609,700.345 C 841.937,700.345 842.246,700.316 842.536,700.258 C 842.826,700.2 843.097,700.12 843.349,700.018 C 843.601,699.916 843.833,699.793 844.045,699.651 C 844.257,699.509 844.444,699.352 844.609,699.179 L 843.925,698.261 C 843.881,698.205 843.829,698.154 843.769,698.108 C 843.709,698.062 843.625,698.039 843.517,698.039 C 843.445,698.039 843.377,698.055 843.313,698.087 C 843.249,698.119 843.18,698.158 843.109,698.204 C 843.038,698.25 842.958,698.3 842.872,698.354 C 842.786,698.408 842.684,698.458 842.566,698.505 C 842.448,698.55 842.31,698.589 842.152,698.621 C 841.994,698.653 841.809,698.669 841.597,698.669 C 841.229,698.669 840.893,698.604 840.589,698.474 C 840.285,698.344 840.024,698.158 839.806,697.916 C 839.588,697.674 839.417,697.381 839.296,697.037 C 839.174,696.693 839.113,696.307 839.113,695.879 C 839.113,695.43 839.174,695.033 839.296,694.685 C 839.417,694.337 839.584,694.044 839.794,693.805 C 840.004,693.568 840.249,693.387 840.529,693.262 C 840.809,693.138 841.109,693.076 841.428,693.076 C 841.613,693.076 841.781,693.085 841.933,693.103 C 842.085,693.121 842.226,693.152 842.356,693.196 C 842.486,693.24 842.61,693.297 842.728,693.367 C 842.846,693.437 842.965,693.524 843.085,693.629 C 843.133,693.669 843.185,693.702 843.241,693.728 C 843.297,693.754 843.355,693.767 843.415,693.767 Z" marker-start="none" marker-end="none"/>
    <path d="M 854.056,695.88 C 854.056,695.248 853.947,694.66 853.729,694.116 C 853.511,693.572 853.204,693.099 852.808,692.697 C 852.412,692.295 851.935,691.98 851.377,691.751 C 850.819,691.523 850.2,691.41 849.52,691.41 C 848.839,691.41 848.22,691.523 847.66,691.751 C 847.1,691.98 846.621,692.295 846.223,692.697 C 845.825,693.099 845.517,693.572 845.299,694.116 C 845.081,694.66 844.972,695.248 844.972,695.88 C 844.972,696.512 845.081,697.101 845.299,697.645 C 845.517,698.189 845.825,698.661 846.223,699.061 C 846.621,699.461 847.1,699.775 847.66,700.003 C 848.22,700.231 848.839,700.345 849.52,700.345 C 850.2,700.345 850.819,700.23 851.377,700 C 851.935,699.77 852.412,699.455 852.808,699.055 C 853.204,698.655 853.511,698.183 853.729,697.639 C 853.947,697.095 854.056,696.508 854.056,695.88 Z M 851.98,695.88 C 851.98,696.312 851.924,696.701 851.812,697.047 C 851.7,697.393 851.539,697.686 851.329,697.926 C 851.119,698.166 850.862,698.349 850.558,698.477 C 850.254,698.605 849.908,698.669 849.52,698.669 C 849.128,698.669 848.779,698.605 848.473,698.477 C 848.167,698.349 847.909,698.166 847.699,697.926 C 847.489,697.686 847.328,697.393 847.216,697.047 C 847.104,696.701 847.048,696.312 847.048,695.88 C 847.048,695.444 847.104,695.053 847.216,694.708 C 847.328,694.362 847.489,694.069 847.699,693.829 C 847.909,693.589 848.167,693.406 848.473,693.28 C 848.779,693.154 849.128,693.091 849.52,693.091 C 849.908,693.091 850.254,693.154 850.558,693.28 C 850.862,693.406 851.119,693.589 851.329,693.829 C 851.539,694.069 851.7,694.362 851.812,694.708 C 851.924,695.053 851.98,695.444 851.98,695.88 Z" marker-start="none" marker-end="none"/>
    <path d="M 859.496,695.476 C 859.576,695.323 859.653,695.164 859.726,694.999 C 859.801,694.834 859.872,694.665 859.94,694.491 C 860.008,694.669 860.08,694.841 860.156,695.008 C 860.232,695.175 860.31,695.337 860.39,695.494 L 862.634,699.94 C 862.674,700.017 862.715,700.076 862.757,700.119 C 862.799,700.161 862.846,700.192 862.898,700.212 C 862.95,700.232 863.009,700.243 863.075,700.243 C 863.141,700.243 863.218,700.243 863.306,700.243 L 864.854,700.243 L 864.854,691.506 L 863.066,691.506 L 863.066,696.469 C 863.066,696.709 863.078,696.97 863.102,697.25 L 860.786,692.826 C 860.714,692.688 860.618,692.583 860.495,692.512 C 860.373,692.442 860.234,692.406 860.078,692.406 L 859.802,692.406 C 859.646,692.406 859.507,692.442 859.385,692.512 C 859.263,692.583 859.166,692.688 859.094,692.826 L 856.766,697.256 C 856.782,697.118 856.794,696.981 856.802,696.845 C 856.81,696.708 856.814,696.583 856.814,696.469 L 856.814,691.506 L 855.026,691.506 L 855.026,700.243 L 856.574,700.243 C 856.662,700.243 856.74,700.243 856.805,700.243 C 856.871,700.243 856.93,700.232 856.982,700.212 C 857.034,700.192 857.081,700.161 857.123,700.119 C 857.165,700.076 857.206,700.017 857.246,699.94 L 859.496,695.476 Z" marker-start="none" marker-end="none"/>
    <path d="M 868.322,694.43 L 868.322,691.508 L 866.294,691.508 L 866.294,700.251 L 869.378,700.251 C 869.994,700.251 870.523,700.178 870.965,700.032 C 871.407,699.886 871.771,699.685 872.057,699.429 C 872.343,699.173 872.554,698.871 872.69,698.523 C 872.825,698.175 872.894,697.799 872.894,697.395 C 872.894,696.958 872.824,696.558 872.684,696.194 C 872.544,695.83 872.33,695.518 872.042,695.259 C 871.754,694.998 871.39,694.795 870.947,694.649 C 870.505,694.503 869.981,694.43 869.378,694.43 L 868.322,694.43 Z M 868.322,695.959 L 869.378,695.959 C 869.906,695.959 870.286,696.085 870.518,696.338 C 870.75,696.59 870.866,696.942 870.866,697.395 C 870.866,697.595 870.836,697.777 870.776,697.941 C 870.716,698.105 870.625,698.245 870.503,698.364 C 870.381,698.482 870.227,698.574 870.041,698.638 C 869.855,698.702 869.634,698.735 869.378,698.735 L 868.322,698.735 L 868.322,695.959 Z" marker-start="none" marker-end="none"/>
    <path d="M 881.068,691.506 L 879.496,691.506 C 879.32,691.506 879.175,691.547 879.061,691.629 C 878.947,691.711 878.868,691.816 878.824,691.944 L 878.308,693.469 L 874.984,693.469 L 874.468,691.944 C 874.428,691.832 874.35,691.731 874.234,691.641 C 874.119,691.551 873.976,691.506 873.808,691.506 L 872.224,691.506 L 875.608,700.25 L 877.684,700.25 L 881.068,691.506 Z M 875.452,694.849 L 877.84,694.849 L 877.036,697.206 C 876.984,697.356 876.923,697.532 876.853,697.735 C 876.783,697.938 876.714,698.158 876.647,698.394 C 876.582,698.154 876.516,697.931 876.448,697.726 C 876.38,697.522 876.316,697.344 876.256,697.195 L 875.452,694.849 Z" marker-start="none" marker-end="none"/>
    <path d="M 882.842,700.251 C 882.93,700.251 883.004,700.247 883.064,700.239 C 883.124,700.231 883.178,700.216 883.226,700.194 C 883.274,700.172 883.32,700.141 883.364,700.101 C 883.408,700.061 883.458,700.007 883.514,699.939 L 887.666,694.689 C 887.65,694.857 887.638,695.02 887.63,695.178 C 887.622,695.336 887.618,695.485 887.618,695.625 L 887.618,700.251 L 889.406,700.251 L 889.406,691.506 L 888.35,691.506 C 888.193,691.506 888.062,691.53 887.954,691.578 C 887.846,691.626 887.742,691.714 887.642,691.842 L 883.52,697.05 C 883.532,696.898 883.542,696.749 883.55,696.603 C 883.558,696.457 883.562,696.32 883.562,696.192 L 883.562,691.506 L 881.774,691.506 L 881.774,700.251 L 882.842,700.251 Z" marker-start="none" marker-end="none"/>
    <path d="M 895.2,694.779 L 895.2,691.506 L 893.172,691.506 L 893.172,694.779 L 890.004,700.25 L 891.792,700.25 C 891.968,700.25 892.108,700.208 892.212,700.125 C 892.316,700.041 892.4,699.934 892.464,699.804 L 893.7,697.214 C 893.8,697.006 893.892,696.814 893.976,696.639 C 894.06,696.464 894.134,696.291 894.198,696.121 C 894.258,696.295 894.33,696.47 894.414,696.645 C 894.498,696.82 894.588,697.01 894.684,697.214 L 895.908,699.804 C 895.932,699.857 895.965,699.91 896.008,699.963 C 896.049,700.016 896.097,700.064 896.15,700.106 C 896.205,700.149 896.267,700.184 896.337,700.21 C 896.407,700.237 896.484,700.25 896.568,700.25 L 898.368,700.25 L 895.2,694.779 Z" marker-start="none" marker-end="none"/>
   </g>
   <g id="Group_3" stroke-width="0.251">
    <path d="M 838.974,681.484 C 838.974,680.852 838.865,680.263 838.647,679.72 C 838.429,679.176 838.122,678.703 837.726,678.301 C 837.33,677.899 836.853,677.584 836.295,677.355 C 835.737,677.127 835.118,677.013 834.438,677.013 C 833.758,677.013 833.138,677.127 832.578,677.355 C 832.018,677.584 831.539,677.899 831.141,678.301 C 830.742,678.703 830.435,679.176 830.217,679.72 C 829.999,680.263 829.89,680.852 829.89,681.484 C 829.89,682.116 829.999,682.706 830.217,683.249 C 830.435,683.793 830.742,684.265 831.141,684.665 C 831.539,685.065 832.018,685.379 832.578,685.606 C 833.138,685.835 833.758,685.949 834.438,685.949 C 835.118,685.949 835.737,685.834 836.295,685.604 C 836.853,685.374 837.33,685.059 837.726,684.658 C 838.122,684.259 838.429,683.787 838.647,683.243 C 838.865,682.699 838.974,682.112 838.974,681.484 Z M 836.898,681.484 C 836.898,681.916 836.842,682.305 836.73,682.651 C 836.618,682.997 836.457,683.29 836.247,683.53 C 836.037,683.77 835.78,683.953 835.476,684.081 C 835.172,684.209 834.826,684.273 834.438,684.273 C 834.047,684.273 833.697,684.209 833.391,684.081 C 833.085,683.953 832.827,683.77 832.617,683.53 C 832.407,683.29 832.246,682.997 832.134,682.651 C 832.022,682.305 831.966,681.916 831.966,681.484 C 831.966,681.048 832.022,680.657 832.134,680.312 C 832.246,679.966 832.407,679.673 832.617,679.433 C 832.827,679.193 833.085,679.01 833.391,678.884 C 833.697,678.758 834.047,678.695 834.438,678.695 C 834.826,678.695 835.172,678.758 835.476,678.884 C 835.78,679.01 836.037,679.193 836.247,679.433 C 836.457,679.673 836.618,679.966 836.73,680.312 C 836.842,680.657 836.898,681.048 836.898,681.484 Z" marker-start="none" marker-end="none"/>
    <path d="M 841.012,685.855 C 841.1,685.855 841.174,685.851 841.234,685.843 C 841.294,685.835 841.348,685.82 841.396,685.798 C 841.444,685.776 841.49,685.745 841.534,685.705 C 841.578,685.665 841.628,685.611 841.684,685.543 L 845.836,680.293 C 845.82,680.461 845.808,680.624 845.8,680.782 C 845.792,680.94 845.788,681.089 845.788,681.229 L 845.788,685.855 L 847.575,685.855 L 847.575,677.11 L 846.52,677.11 C 846.364,677.11 846.232,677.134 846.124,677.182 C 846.016,677.23 845.912,677.318 845.812,677.446 L 841.69,682.654 C 841.702,682.502 841.712,682.353 841.72,682.207 C 841.728,682.061 841.732,681.924 841.732,681.796 L 841.732,677.11 L 839.944,677.11 L 839.944,685.855 L 841.012,685.855 Z" marker-start="none" marker-end="none"/>
    <path d="M 859.465,677.11 L 857.893,677.11 C 857.717,677.11 857.573,677.151 857.457,677.233 C 857.344,677.315 857.265,677.419 857.221,677.548 L 856.705,679.073 L 853.381,679.073 L 852.865,677.548 C 852.825,677.436 852.746,677.335 852.631,677.245 C 852.515,677.155 852.374,677.11 852.205,677.11 L 850.62,677.11 L 854.005,685.854 L 856.081,685.854 L 859.465,677.11 Z M 853.849,680.453 L 856.237,680.453 L 855.433,682.81 C 855.381,682.96 855.32,683.137 855.25,683.339 C 855.18,683.542 855.111,683.762 855.043,683.997 C 854.979,683.758 854.913,683.535 854.845,683.33 C 854.777,683.126 854.713,682.948 854.653,682.799 L 853.849,680.453 Z" marker-start="none" marker-end="none"/>
    <path d="M 863.507,678.713 C 863.779,678.713 864.022,678.758 864.236,678.848 C 864.45,678.938 864.631,679.067 864.779,679.235 C 864.927,679.403 865.04,679.608 865.118,679.85 C 865.196,680.092 865.235,680.367 865.235,680.675 L 865.235,685.854 L 867.263,685.854 L 867.263,680.674 C 867.263,680.138 867.176,679.646 867.002,679.198 C 866.828,678.75 866.579,678.364 866.255,678.04 C 865.931,677.716 865.537,677.464 865.073,677.283 C 864.609,677.103 864.087,677.013 863.507,677.013 C 862.923,677.013 862.399,677.103 861.935,677.283 C 861.471,677.464 861.076,677.716 860.753,678.04 C 860.429,678.364 860.181,678.75 860.009,679.198 C 859.837,679.646 859.751,680.138 859.751,680.674 L 859.751,685.854 L 861.779,685.854 L 861.779,680.681 C 861.779,680.373 861.818,680.098 861.896,679.856 C 861.974,679.614 862.087,679.408 862.235,679.238 C 862.383,679.068 862.564,678.938 862.778,678.848 C 862.992,678.758 863.235,678.713 863.507,678.713 Z" marker-start="none" marker-end="none"/>
    <path d="M 874.458,679.371 C 874.506,679.371 874.554,679.361 874.602,679.343 C 874.65,679.325 874.696,679.293 874.74,679.248 L 875.544,678.384 C 875.192,677.931 874.751,677.589 874.221,677.359 C 873.691,677.129 873.064,677.013 872.34,677.013 C 871.676,677.013 871.081,677.126 870.555,677.352 C 870.029,677.579 869.583,677.891 869.217,678.289 C 868.851,678.687 868.57,679.159 868.374,679.705 C 868.178,680.251 868.08,680.844 868.08,681.484 C 868.08,682.136 868.192,682.736 868.416,683.282 C 868.64,683.828 868.953,684.299 869.355,684.695 C 869.757,685.091 870.238,685.399 870.798,685.619 C 871.358,685.839 871.976,685.949 872.652,685.949 C 872.98,685.949 873.289,685.92 873.579,685.862 C 873.869,685.804 874.14,685.724 874.392,685.622 C 874.644,685.521 874.876,685.397 875.088,685.255 C 875.3,685.113 875.488,684.956 875.652,684.783 L 874.968,683.865 C 874.924,683.809 874.872,683.758 874.812,683.712 C 874.752,683.666 874.668,683.643 874.56,683.643 C 874.488,683.643 874.42,683.659 874.356,683.691 C 874.292,683.723 874.224,683.762 874.152,683.808 C 874.08,683.855 874.001,683.904 873.915,683.958 C 873.829,684.012 873.727,684.062 873.609,684.108 C 873.491,684.154 873.353,684.193 873.195,684.225 C 873.037,684.256 872.852,684.273 872.64,684.273 C 872.272,684.273 871.936,684.208 871.632,684.078 C 871.328,683.948 871.067,683.762 870.849,683.52 C 870.631,683.278 870.461,682.985 870.339,682.641 C 870.217,682.297 870.156,681.911 870.156,681.483 C 870.156,681.035 870.217,680.638 870.339,680.289 C 870.461,679.941 870.627,679.648 870.837,679.409 C 871.047,679.173 871.292,678.991 871.572,678.866 C 871.852,678.742 872.152,678.68 872.472,678.68 C 872.656,678.68 872.824,678.689 872.976,678.707 C 873.128,678.725 873.269,678.756 873.399,678.8 C 873.529,678.844 873.653,678.901 873.771,678.972 C 873.889,679.041 874.008,679.128 874.128,679.233 C 874.175,679.273 874.228,679.306 874.284,679.332 C 874.34,679.358 874.398,679.371 874.458,679.371 Z" marker-start="none" marker-end="none"/>
    <path d="M 882.819,685.855 L 882.819,684.247 L 880.359,684.247 L 880.359,677.112 L 878.331,677.112 L 878.331,684.247 L 875.87,684.247 L 875.87,685.855 L 882.819,685.855 Z" marker-start="none" marker-end="none"/>
    <path d="M 885.881,677.11 L 883.841,677.11 L 883.841,685.855 L 885.881,685.855 L 885.881,677.11 Z" marker-start="none" marker-end="none"/>
    <path d="M 896.127,681.484 C 896.127,680.852 896.018,680.263 895.8,679.72 C 895.582,679.176 895.275,678.703 894.879,678.301 C 894.483,677.899 894.006,677.584 893.448,677.355 C 892.89,677.127 892.271,677.013 891.591,677.013 C 890.911,677.013 890.29,677.127 889.731,677.355 C 889.171,677.584 888.692,677.899 888.294,678.301 C 887.896,678.703 887.588,679.176 887.37,679.72 C 887.152,680.263 887.043,680.852 887.043,681.484 C 887.043,682.116 887.152,682.706 887.37,683.249 C 887.588,683.793 887.896,684.265 888.294,684.665 C 888.692,685.065 889.171,685.379 889.731,685.606 C 890.29,685.835 890.911,685.949 891.591,685.949 C 892.271,685.949 892.89,685.834 893.448,685.604 C 894.006,685.374 894.483,685.059 894.879,684.658 C 895.275,684.259 895.582,683.787 895.8,683.243 C 896.018,682.699 896.127,682.112 896.127,681.484 Z M 894.051,681.484 C 894.051,681.916 893.995,682.305 893.883,682.651 C 893.771,682.997 893.61,683.29 893.4,683.53 C 893.19,683.77 892.934,683.953 892.629,684.081 C 892.325,684.209 891.979,684.273 891.591,684.273 C 891.199,684.273 890.85,684.209 890.544,684.081 C 890.238,683.953 889.98,683.77 889.77,683.53 C 889.56,683.29 889.399,682.997 889.287,682.651 C 889.175,682.305 889.119,681.916 889.119,681.484 C 889.119,681.048 889.175,680.657 889.287,680.312 C 889.399,679.966 889.56,679.673 889.77,679.433 C 889.98,679.193 890.238,679.01 890.544,678.884 C 890.85,678.758 891.199,678.695 891.591,678.695 C 891.979,678.695 892.325,678.758 892.629,678.884 C 892.934,679.01 893.19,679.193 893.4,679.433 C 893.61,679.673 893.771,679.966 893.883,680.312 C 893.995,680.657 894.051,681.048 894.051,681.484 Z" marker-start="none" marker-end="none"/>
    <path d="M 898.165,685.855 C 898.253,685.855 898.327,685.851 898.387,685.843 C 898.447,685.835 898.501,685.82 898.549,685.798 C 898.597,685.776 898.643,685.745 898.687,685.705 C 898.731,685.665 898.781,685.611 898.837,685.543 L 902.989,680.293 C 902.973,680.461 902.961,680.624 902.953,680.782 C 902.945,680.94 902.941,681.089 902.941,681.229 L 902.941,685.855 L 904.729,685.855 L 904.729,677.11 L 903.673,677.11 C 903.517,677.11 903.385,677.134 903.277,677.182 C 903.169,677.23 903.065,677.318 902.965,677.446 L 898.843,682.654 C 898.855,682.502 898.865,682.353 898.873,682.207 C 898.881,682.061 898.885,681.924 898.885,681.796 L 898.885,677.11 L 897.097,677.11 L 897.097,685.855 L 898.165,685.855 Z" marker-start="none" marker-end="none"/>
   </g>
   <g id="Group_4" stroke-width="0.251">
    <path d="M 878.46,711.227 C 878.4,711.131 878.337,711.059 878.271,711.011 C 878.205,710.963 878.12,710.939 878.016,710.939 C 877.924,710.939 877.825,710.968 877.719,711.026 C 877.613,711.084 877.493,711.149 877.359,711.221 C 877.225,711.293 877.072,711.358 876.9,711.416 C 876.728,711.474 876.532,711.503 876.312,711.503 C 875.932,711.503 875.649,711.422 875.463,711.26 C 875.277,711.098 875.184,710.879 875.184,710.603 C 875.184,710.427 875.24,710.281 875.352,710.165 C 875.464,710.049 875.611,709.949 875.793,709.865 C 875.975,709.781 876.183,709.704 876.417,709.634 C 876.651,709.563 876.89,709.486 877.135,709.4 C 877.378,709.314 877.617,709.213 877.851,709.097 C 878.085,708.981 878.293,708.833 878.475,708.653 C 878.656,708.473 878.804,708.254 878.916,707.996 C 879.028,707.738 879.084,707.427 879.084,707.063 C 879.084,706.659 879.014,706.281 878.874,705.929 C 878.734,705.577 878.531,705.27 878.265,705.008 C 877.999,704.746 877.671,704.54 877.281,704.389 C 876.891,704.239 876.448,704.164 875.952,704.164 C 875.68,704.164 875.403,704.191 875.121,704.248 C 874.839,704.304 874.566,704.383 874.302,704.485 C 874.038,704.588 873.79,704.71 873.558,704.849 C 873.326,704.989 873.124,705.145 872.952,705.317 L 873.552,706.265 C 873.596,706.337 873.658,706.395 873.738,706.439 C 873.818,706.483 873.904,706.505 873.996,706.505 C 874.116,706.505 874.237,706.467 874.359,706.391 C 874.481,706.315 874.619,706.232 874.773,706.139 C 874.927,706.047 875.104,705.963 875.304,705.886 C 875.504,705.811 875.74,705.773 876.012,705.773 C 876.38,705.773 876.666,705.854 876.87,706.016 C 877.074,706.178 877.176,706.435 877.176,706.787 C 877.176,706.991 877.12,707.157 877.008,707.285 C 876.896,707.413 876.749,707.519 876.567,707.603 C 876.385,707.687 876.178,707.761 875.946,707.825 C 875.714,707.889 875.476,707.96 875.232,708.038 C 874.988,708.116 874.751,708.212 874.518,708.326 C 874.286,708.44 874.079,708.59 873.897,708.776 C 873.715,708.962 873.568,709.194 873.456,709.472 C 873.344,709.751 873.288,710.094 873.288,710.502 C 873.288,710.83 873.354,711.15 873.487,711.462 C 873.618,711.774 873.812,712.052 874.068,712.296 C 874.324,712.54 874.638,712.735 875.01,712.881 C 875.383,713.027 875.808,713.1 876.288,713.1 C 876.556,713.1 876.817,713.079 877.071,713.037 C 877.325,712.995 877.566,712.933 877.794,712.851 C 878.022,712.769 878.235,712.671 878.433,712.557 C 878.631,712.443 878.808,712.314 878.964,712.17 L 878.46,711.227 Z" marker-start="none" marker-end="none"/>
    <path d="M 885.72,713.006 L 885.72,711.445 L 882.132,711.445 L 882.132,709.403 L 884.88,709.403 L 884.88,707.903 L 882.132,707.903 L 882.132,705.823 L 885.72,705.823 L 885.72,704.261 L 880.092,704.261 L 880.092,713.006 L 885.72,713.006 Z" marker-start="none" marker-end="none"/>
    <path d="M 888.899,705.881 L 892.139,705.881 L 892.139,704.261 L 886.871,704.261 L 886.871,713.005 L 888.899,713.005 L 888.899,705.881 Z" marker-start="none" marker-end="none"/>
    <path d="M 895.128,705.881 L 898.368,705.881 L 898.368,704.261 L 893.1,704.261 L 893.1,713.005 L 895.128,713.005 L 895.128,705.881 Z" marker-start="none" marker-end="none"/>
   </g>
   <g id="Group_5" stroke-width="0.271">
    <g id="Group_6">
     <path d="M 868.396,704.767 C 868.356,704.668 868.305,704.581 868.241,704.505 C 868.178,704.43 868.108,704.366 868.03,704.316 C 867.953,704.266 867.87,704.228 867.78,704.202 C 867.693,704.177 867.605,704.164 867.519,704.164 L 866.803,704.164 L 869.881,712.245 C 869.954,712.429 870.063,712.57 870.211,712.668 C 870.36,712.766 870.531,712.814 870.726,712.814 L 871.442,712.814 L 868.396,704.767 Z" marker-start="none" marker-end="none"/>
    </g>
   </g>
  </g>
 </g>
</svg>
