<?xml version="1.0" standalone="no"?>
<!DOCTYPE svg PUBLIC "-//W3C//DTD SVG 1.1//EN" "http://www.w3.org/Graphics/SVG/1.1/DTD/svg11.dtd">
<!--Generator: Xara Designer (www.xara.com), SVG filter version: 6.6.0.0-->
<svg fill="none" fill-rule="evenodd" stroke="black" stroke-width="0.501" stroke-linejoin="bevel" stroke-miterlimit="10" font-family="Times New Roman" font-size="16" style="font-variant-ligatures:none" xmlns:xlink="http://www.w3.org/1999/xlink" xmlns="http://www.w3.org/2000/svg" version="1.1" overflow="visible" width="107.718pt" height="53.866pt" viewBox="816.751 -1038.57 107.718 53.866">
 <defs>
	</defs>
 <g id="Grid 36x36mm" transform="scale(1 -1)">
  <path d="M 816.751,999.913 L 816.751,1023.35 C 816.751,1031.75 823.566,1038.57 831.963,1038.57 L 909.257,1038.57 C 917.654,1038.57 924.469,1031.75 924.469,1023.35 L 924.469,999.913 C 924.469,991.515 917.654,984.699 909.257,984.699 L 831.963,984.699 C 823.566,984.699 816.751,991.515 816.751,999.913 Z" stroke="none" fill="#ffffff" stroke-width="0.802" stroke-linejoin="miter" marker-start="none" marker-end="none"/>
  <path d="M 817.6,1000.64 L 817.6,1022.62 C 817.6,1030.95 824.362,1037.72 832.691,1037.72 L 908.529,1037.72 C 916.858,1037.72 923.62,1030.95 923.62,1022.62 L 923.62,1000.64 C 923.62,992.309 916.858,985.548 908.529,985.548 L 832.691,985.548 C 824.362,985.548 817.6,992.309 817.6,1000.64 Z" fill="#00bf02" stroke="none" stroke-width="0.8" stroke-linejoin="miter" marker-start="none" marker-end="none"/>
  <g id="Group" fill-rule="nonzero" stroke-linejoin="round" stroke-linecap="round" stroke="none" fill="#ffffff">
   <g id="Group_1" stroke-width="0.251">
    <path d="M 845.997,1020.84 L 845.997,1029.58 L 849.213,1029.58 C 849.817,1029.58 850.331,1029.52 850.755,1029.41 C 851.179,1029.3 851.525,1029.14 851.793,1028.94 C 852.061,1028.73 852.256,1028.49 852.378,1028.19 C 852.5,1027.9 852.561,1027.57 852.561,1027.21 C 852.561,1027.02 852.533,1026.83 852.477,1026.65 C 852.421,1026.47 852.333,1026.3 852.213,1026.14 C 852.093,1025.97 851.938,1025.83 851.751,1025.7 C 851.563,1025.57 851.337,1025.46 851.073,1025.36 C 851.649,1025.22 852.075,1024.99 852.351,1024.68 C 852.627,1024.37 852.765,1023.96 852.765,1023.47 C 852.765,1023.1 852.693,1022.75 852.549,1022.43 C 852.405,1022.11 852.194,1021.83 851.916,1021.6 C 851.638,1021.36 851.295,1021.17 850.887,1021.04 C 850.479,1020.9 850.013,1020.84 849.489,1020.84 L 845.997,1020.84 Z M 848.025,1024.55 L 848.025,1022.37 L 849.453,1022.37 C 849.721,1022.37 849.94,1022.4 850.11,1022.47 C 850.28,1022.54 850.413,1022.62 850.509,1022.73 C 850.605,1022.84 850.671,1022.96 850.707,1023.1 C 850.743,1023.23 850.762,1023.37 850.762,1023.51 C 850.762,1023.67 850.74,1023.82 850.698,1023.95 C 850.656,1024.07 850.584,1024.18 850.482,1024.27 C 850.38,1024.36 850.245,1024.43 850.077,1024.47 C 849.909,1024.52 849.697,1024.55 849.441,1024.55 L 848.025,1024.55 Z M 848.025,1025.9 L 849.081,1025.9 C 849.305,1025.9 849.507,1025.92 849.687,1025.95 C 849.867,1025.98 850.02,1026.04 850.146,1026.12 C 850.272,1026.2 850.368,1026.31 850.434,1026.45 C 850.5,1026.59 850.533,1026.76 850.533,1026.97 C 850.533,1027.18 850.507,1027.36 850.455,1027.49 C 850.403,1027.63 850.323,1027.74 850.216,1027.83 C 850.107,1027.91 849.97,1027.97 849.804,1028.01 C 849.638,1028.04 849.441,1028.06 849.213,1028.06 L 848.025,1028.06 L 848.025,1025.9 Z" marker-start="none" marker-end="none"/>
    <path d="M 857.502,1022.44 C 857.774,1022.44 858.017,1022.48 858.231,1022.57 C 858.445,1022.66 858.626,1022.79 858.774,1022.96 C 858.922,1023.13 859.035,1023.33 859.113,1023.58 C 859.191,1023.82 859.23,1024.09 859.23,1024.4 L 859.23,1029.58 L 861.258,1029.58 L 861.258,1024.4 C 861.258,1023.86 861.171,1023.37 860.997,1022.92 C 860.823,1022.48 860.574,1022.09 860.25,1021.77 C 859.926,1021.44 859.532,1021.19 859.068,1021.01 C 858.604,1020.83 858.082,1020.74 857.502,1020.74 C 856.918,1020.74 856.394,1020.83 855.93,1021.01 C 855.466,1021.19 855.072,1021.44 854.748,1021.77 C 854.424,1022.09 854.176,1022.48 854.004,1022.92 C 853.832,1023.37 853.746,1023.86 853.746,1024.4 L 853.746,1029.58 L 855.774,1029.58 L 855.774,1024.41 C 855.774,1024.1 855.813,1023.82 855.891,1023.58 C 855.969,1023.34 856.082,1023.13 856.23,1022.96 C 856.378,1022.79 856.559,1022.66 856.773,1022.57 C 856.987,1022.48 857.23,1022.44 857.502,1022.44 Z" marker-start="none" marker-end="none"/>
    <path d="M 866.935,1024.11 L 866.935,1020.84 L 864.907,1020.84 L 864.907,1024.11 L 861.739,1029.58 L 863.527,1029.58 C 863.703,1029.58 863.843,1029.54 863.947,1029.45 C 864.051,1029.37 864.135,1029.26 864.199,1029.13 L 865.435,1026.54 C 865.535,1026.34 865.627,1026.14 865.711,1025.97 C 865.795,1025.79 865.869,1025.62 865.933,1025.45 C 865.993,1025.63 866.065,1025.8 866.149,1025.97 C 866.233,1026.15 866.323,1026.34 866.419,1026.54 L 867.643,1029.13 C 867.667,1029.19 867.7,1029.24 867.742,1029.29 C 867.784,1029.35 867.832,1029.39 867.886,1029.44 C 867.94,1029.48 868.002,1029.51 868.072,1029.54 C 868.142,1029.57 868.219,1029.58 868.303,1029.58 L 870.103,1029.58 L 866.935,1024.11 Z" marker-start="none" marker-end="none"/>
   </g>
   <g id="Group_2" stroke-width="0.251">
    <path d="M 846.715,1010.34 C 846.763,1010.34 846.811,1010.33 846.859,1010.31 C 846.907,1010.3 846.953,1010.26 846.997,1010.22 L 847.801,1009.36 C 847.449,1008.9 847.008,1008.56 846.478,1008.33 C 845.948,1008.1 845.321,1007.99 844.597,1007.99 C 843.933,1007.99 843.338,1008.1 842.812,1008.32 C 842.286,1008.55 841.84,1008.86 841.474,1009.26 C 841.108,1009.66 840.827,1010.13 840.631,1010.68 C 840.435,1011.22 840.337,1011.82 840.337,1012.46 C 840.337,1013.11 840.448,1013.71 840.673,1014.25 C 840.897,1014.8 841.21,1015.27 841.612,1015.67 C 842.014,1016.06 842.495,1016.37 843.055,1016.59 C 843.615,1016.81 844.233,1016.92 844.909,1016.92 C 845.237,1016.92 845.546,1016.89 845.836,1016.83 C 846.126,1016.78 846.397,1016.7 846.649,1016.59 C 846.901,1016.49 847.133,1016.37 847.345,1016.23 C 847.557,1016.08 847.744,1015.93 847.909,1015.75 L 847.225,1014.84 C 847.181,1014.78 847.129,1014.73 847.069,1014.68 C 847.009,1014.64 846.925,1014.61 846.817,1014.61 C 846.745,1014.61 846.677,1014.63 846.613,1014.66 C 846.549,1014.69 846.48,1014.73 846.409,1014.78 C 846.338,1014.83 846.258,1014.88 846.172,1014.93 C 846.086,1014.98 845.984,1015.03 845.866,1015.08 C 845.748,1015.13 845.61,1015.16 845.452,1015.2 C 845.294,1015.23 845.109,1015.24 844.897,1015.24 C 844.529,1015.24 844.193,1015.18 843.889,1015.05 C 843.585,1014.92 843.324,1014.73 843.106,1014.49 C 842.888,1014.25 842.717,1013.96 842.596,1013.61 C 842.474,1013.27 842.413,1012.88 842.413,1012.45 C 842.413,1012.01 842.474,1011.61 842.596,1011.26 C 842.717,1010.91 842.884,1010.62 843.094,1010.38 C 843.304,1010.14 843.549,1009.96 843.829,1009.84 C 844.109,1009.71 844.409,1009.65 844.728,1009.65 C 844.913,1009.65 845.081,1009.66 845.233,1009.68 C 845.385,1009.7 845.526,1009.73 845.656,1009.77 C 845.786,1009.82 845.91,1009.87 846.028,1009.94 C 846.146,1010.01 846.265,1010.1 846.385,1010.2 C 846.433,1010.24 846.485,1010.28 846.541,1010.3 C 846.597,1010.33 846.655,1010.34 846.715,1010.34 Z" marker-start="none" marker-end="none"/>
    <path d="M 857.356,1012.46 C 857.356,1011.82 857.247,1011.24 857.029,1010.69 C 856.811,1010.15 856.504,1009.67 856.108,1009.27 C 855.712,1008.87 855.235,1008.56 854.677,1008.33 C 854.119,1008.1 853.5,1007.99 852.82,1007.99 C 852.139,1007.99 851.52,1008.1 850.96,1008.33 C 850.4,1008.56 849.921,1008.87 849.523,1009.27 C 849.125,1009.67 848.817,1010.15 848.599,1010.69 C 848.381,1011.24 848.272,1011.82 848.272,1012.46 C 848.272,1013.09 848.381,1013.68 848.599,1014.22 C 848.817,1014.76 849.125,1015.24 849.523,1015.64 C 849.921,1016.04 850.4,1016.35 850.96,1016.58 C 851.52,1016.81 852.139,1016.92 852.82,1016.92 C 853.5,1016.92 854.119,1016.81 854.677,1016.58 C 855.235,1016.35 855.712,1016.03 856.108,1015.63 C 856.504,1015.23 856.811,1014.76 857.029,1014.21 C 857.247,1013.67 857.356,1013.08 857.356,1012.46 Z M 855.28,1012.46 C 855.28,1012.89 855.224,1013.28 855.112,1013.62 C 855,1013.97 854.839,1014.26 854.629,1014.5 C 854.419,1014.74 854.162,1014.92 853.858,1015.05 C 853.554,1015.18 853.208,1015.24 852.82,1015.24 C 852.428,1015.24 852.079,1015.18 851.773,1015.05 C 851.467,1014.92 851.209,1014.74 850.999,1014.5 C 850.789,1014.26 850.628,1013.97 850.516,1013.62 C 850.404,1013.28 850.348,1012.89 850.348,1012.46 C 850.348,1012.02 850.404,1011.63 850.516,1011.28 C 850.628,1010.94 850.789,1010.64 850.999,1010.4 C 851.209,1010.16 851.467,1009.98 851.773,1009.86 C 852.079,1009.73 852.428,1009.67 852.82,1009.67 C 853.208,1009.67 853.554,1009.73 853.858,1009.86 C 854.162,1009.98 854.419,1010.16 854.629,1010.4 C 854.839,1010.64 855,1010.94 855.112,1011.28 C 855.224,1011.63 855.28,1012.02 855.28,1012.46 Z" marker-start="none" marker-end="none"/>
    <path d="M 862.796,1012.05 C 862.876,1011.9 862.953,1011.74 863.026,1011.57 C 863.101,1011.41 863.172,1011.24 863.24,1011.07 C 863.308,1011.24 863.38,1011.42 863.456,1011.58 C 863.532,1011.75 863.61,1011.91 863.69,1012.07 L 865.934,1016.52 C 865.974,1016.59 866.015,1016.65 866.057,1016.69 C 866.099,1016.74 866.146,1016.77 866.198,1016.79 C 866.25,1016.81 866.309,1016.82 866.375,1016.82 C 866.441,1016.82 866.518,1016.82 866.606,1016.82 L 868.154,1016.82 L 868.154,1008.08 L 866.366,1008.08 L 866.366,1013.04 C 866.366,1013.28 866.378,1013.55 866.402,1013.83 L 864.086,1009.4 C 864.014,1009.26 863.918,1009.16 863.795,1009.09 C 863.673,1009.02 863.534,1008.98 863.378,1008.98 L 863.102,1008.98 C 862.946,1008.98 862.807,1009.02 862.685,1009.09 C 862.563,1009.16 862.466,1009.26 862.394,1009.4 L 860.066,1013.83 C 860.082,1013.69 860.094,1013.56 860.102,1013.42 C 860.11,1013.28 860.114,1013.16 860.114,1013.04 L 860.114,1008.08 L 858.326,1008.08 L 858.326,1016.82 L 859.874,1016.82 C 859.962,1016.82 860.04,1016.82 860.105,1016.82 C 860.171,1016.82 860.23,1016.81 860.282,1016.79 C 860.334,1016.77 860.381,1016.74 860.423,1016.69 C 860.465,1016.65 860.506,1016.59 860.546,1016.52 L 862.796,1012.05 Z" marker-start="none" marker-end="none"/>
    <path d="M 871.622,1011.01 L 871.622,1008.08 L 869.594,1008.08 L 869.594,1016.83 L 872.678,1016.83 C 873.294,1016.83 873.823,1016.75 874.265,1016.61 C 874.707,1016.46 875.071,1016.26 875.357,1016 C 875.643,1015.75 875.854,1015.45 875.99,1015.1 C 876.125,1014.75 876.194,1014.37 876.194,1013.97 C 876.194,1013.53 876.124,1013.13 875.984,1012.77 C 875.844,1012.41 875.63,1012.09 875.342,1011.83 C 875.054,1011.57 874.69,1011.37 874.247,1011.22 C 873.805,1011.08 873.281,1011.01 872.678,1011.01 L 871.622,1011.01 Z M 871.622,1012.53 L 872.678,1012.53 C 873.206,1012.53 873.586,1012.66 873.818,1012.91 C 874.05,1013.17 874.166,1013.52 874.166,1013.97 C 874.166,1014.17 874.136,1014.35 874.076,1014.52 C 874.016,1014.68 873.925,1014.82 873.803,1014.94 C 873.681,1015.06 873.527,1015.15 873.341,1015.21 C 873.155,1015.28 872.934,1015.31 872.678,1015.31 L 871.622,1015.31 L 871.622,1012.53 Z" marker-start="none" marker-end="none"/>
    <path d="M 884.368,1008.08 L 882.796,1008.08 C 882.62,1008.08 882.475,1008.12 882.361,1008.2 C 882.247,1008.29 882.168,1008.39 882.124,1008.52 L 881.608,1010.04 L 878.284,1010.04 L 877.768,1008.52 C 877.728,1008.41 877.65,1008.31 877.534,1008.22 C 877.419,1008.13 877.276,1008.08 877.108,1008.08 L 875.524,1008.08 L 878.908,1016.83 L 880.984,1016.83 L 884.368,1008.08 Z M 878.752,1011.42 L 881.14,1011.42 L 880.336,1013.78 C 880.284,1013.93 880.223,1014.11 880.153,1014.31 C 880.083,1014.51 880.014,1014.73 879.947,1014.97 C 879.882,1014.73 879.816,1014.51 879.748,1014.3 C 879.68,1014.1 879.616,1013.92 879.556,1013.77 L 878.752,1011.42 Z" marker-start="none" marker-end="none"/>
    <path d="M 886.142,1016.83 C 886.23,1016.83 886.304,1016.82 886.364,1016.81 C 886.424,1016.81 886.478,1016.79 886.526,1016.77 C 886.574,1016.75 886.62,1016.72 886.664,1016.68 C 886.708,1016.64 886.758,1016.58 886.814,1016.51 L 890.966,1011.26 C 890.95,1011.43 890.938,1011.6 890.93,1011.75 C 890.922,1011.91 890.918,1012.06 890.918,1012.2 L 890.918,1016.83 L 892.706,1016.83 L 892.706,1008.08 L 891.65,1008.08 C 891.493,1008.08 891.362,1008.11 891.254,1008.15 C 891.146,1008.2 891.042,1008.29 890.942,1008.42 L 886.82,1013.63 C 886.832,1013.47 886.842,1013.32 886.85,1013.18 C 886.858,1013.03 886.862,1012.9 886.862,1012.77 L 886.862,1008.08 L 885.074,1008.08 L 885.074,1016.83 L 886.142,1016.83 Z" marker-start="none" marker-end="none"/>
    <path d="M 898.5,1011.35 L 898.5,1008.08 L 896.472,1008.08 L 896.472,1011.35 L 893.304,1016.83 L 895.092,1016.83 C 895.268,1016.83 895.408,1016.78 895.512,1016.7 C 895.616,1016.62 895.7,1016.51 895.764,1016.38 L 897,1013.79 C 897.1,1013.58 897.192,1013.39 897.276,1013.21 C 897.36,1013.04 897.434,1012.87 897.498,1012.7 C 897.558,1012.87 897.63,1013.05 897.714,1013.22 C 897.798,1013.4 897.888,1013.59 897.984,1013.79 L 899.208,1016.38 C 899.232,1016.43 899.265,1016.49 899.308,1016.54 C 899.349,1016.59 899.397,1016.64 899.45,1016.68 C 899.505,1016.72 899.567,1016.76 899.637,1016.79 C 899.707,1016.81 899.784,1016.83 899.868,1016.83 L 901.668,1016.83 L 898.5,1011.35 Z" marker-start="none" marker-end="none"/>
   </g>
   <g id="Group_3" stroke-width="0.251">
    <path d="M 842.274,998.059 C 842.274,997.427 842.165,996.838 841.947,996.295 C 841.729,995.751 841.422,995.278 841.026,994.876 C 840.63,994.474 840.153,994.159 839.595,993.93 C 839.037,993.702 838.418,993.588 837.738,993.588 C 837.058,993.588 836.438,993.702 835.878,993.93 C 835.318,994.159 834.839,994.474 834.441,994.876 C 834.042,995.278 833.735,995.751 833.517,996.295 C 833.299,996.838 833.19,997.427 833.19,998.059 C 833.19,998.691 833.299,999.281 833.517,999.824 C 833.735,1000.37 834.042,1000.84 834.441,1001.24 C 834.839,1001.64 835.318,1001.95 835.878,1002.18 C 836.438,1002.41 837.058,1002.52 837.738,1002.52 C 838.418,1002.52 839.037,1002.41 839.595,1002.18 C 840.153,1001.95 840.63,1001.63 841.026,1001.23 C 841.422,1000.83 841.729,1000.36 841.947,999.818 C 842.165,999.274 842.274,998.687 842.274,998.059 Z M 840.198,998.059 C 840.198,998.491 840.142,998.88 840.03,999.226 C 839.918,999.572 839.757,999.865 839.547,1000.11 C 839.337,1000.35 839.08,1000.53 838.776,1000.66 C 838.472,1000.78 838.126,1000.85 837.738,1000.85 C 837.347,1000.85 836.997,1000.78 836.691,1000.66 C 836.385,1000.53 836.127,1000.35 835.917,1000.11 C 835.707,999.865 835.546,999.572 835.434,999.226 C 835.322,998.88 835.266,998.491 835.266,998.059 C 835.266,997.623 835.322,997.232 835.434,996.887 C 835.546,996.541 835.707,996.248 835.917,996.008 C 836.127,995.768 836.385,995.585 836.691,995.459 C 836.997,995.333 837.347,995.27 837.738,995.27 C 838.126,995.27 838.472,995.333 838.776,995.459 C 839.08,995.585 839.337,995.768 839.547,996.008 C 839.757,996.248 839.918,996.541 840.03,996.887 C 840.142,997.232 840.198,997.623 840.198,998.059 Z" marker-start="none" marker-end="none"/>
    <path d="M 844.312,1002.43 C 844.4,1002.43 844.474,1002.43 844.534,1002.42 C 844.594,1002.41 844.648,1002.4 844.696,1002.37 C 844.744,1002.35 844.79,1002.32 844.834,1002.28 C 844.878,1002.24 844.928,1002.19 844.984,1002.12 L 849.136,996.868 C 849.12,997.036 849.108,997.199 849.1,997.357 C 849.092,997.515 849.088,997.664 849.088,997.804 L 849.088,1002.43 L 850.875,1002.43 L 850.875,993.685 L 849.82,993.685 C 849.664,993.685 849.532,993.709 849.424,993.757 C 849.316,993.805 849.212,993.893 849.112,994.021 L 844.99,999.229 C 845.002,999.077 845.012,998.928 845.02,998.782 C 845.028,998.636 845.032,998.499 845.032,998.371 L 845.032,993.685 L 843.244,993.685 L 843.244,1002.43 L 844.312,1002.43 Z" marker-start="none" marker-end="none"/>
    <path d="M 862.765,993.685 L 861.193,993.685 C 861.017,993.685 860.873,993.726 860.757,993.808 C 860.644,993.89 860.565,993.994 860.521,994.123 L 860.005,995.648 L 856.681,995.648 L 856.165,994.123 C 856.125,994.011 856.046,993.91 855.931,993.82 C 855.815,993.73 855.674,993.685 855.505,993.685 L 853.92,993.685 L 857.305,1002.43 L 859.381,1002.43 L 862.765,993.685 Z M 857.149,997.028 L 859.537,997.028 L 858.733,999.385 C 858.681,999.535 858.62,999.712 858.55,999.914 C 858.48,1000.12 858.411,1000.34 858.343,1000.57 C 858.279,1000.33 858.213,1000.11 858.145,999.905 C 858.077,999.701 858.013,999.523 857.953,999.374 L 857.149,997.028 Z" marker-start="none" marker-end="none"/>
    <path d="M 866.807,995.288 C 867.079,995.288 867.322,995.333 867.536,995.423 C 867.75,995.513 867.931,995.642 868.079,995.81 C 868.227,995.978 868.34,996.183 868.418,996.425 C 868.496,996.667 868.535,996.942 868.535,997.25 L 868.535,1002.43 L 870.563,1002.43 L 870.563,997.249 C 870.563,996.713 870.476,996.221 870.302,995.773 C 870.128,995.325 869.879,994.939 869.555,994.615 C 869.231,994.291 868.837,994.039 868.373,993.858 C 867.909,993.678 867.387,993.588 866.807,993.588 C 866.223,993.588 865.699,993.678 865.235,993.858 C 864.771,994.039 864.376,994.291 864.053,994.615 C 863.729,994.939 863.481,995.325 863.309,995.773 C 863.137,996.221 863.051,996.713 863.051,997.249 L 863.051,1002.43 L 865.079,1002.43 L 865.079,997.256 C 865.079,996.948 865.118,996.673 865.196,996.431 C 865.274,996.189 865.387,995.983 865.535,995.813 C 865.683,995.643 865.864,995.513 866.078,995.423 C 866.292,995.333 866.535,995.288 866.807,995.288 Z" marker-start="none" marker-end="none"/>
    <path d="M 877.758,995.946 C 877.806,995.946 877.854,995.936 877.902,995.918 C 877.95,995.9 877.996,995.868 878.04,995.823 L 878.844,994.959 C 878.492,994.506 878.051,994.164 877.521,993.934 C 876.991,993.704 876.364,993.588 875.64,993.588 C 874.976,993.588 874.381,993.701 873.855,993.927 C 873.329,994.154 872.883,994.466 872.517,994.864 C 872.151,995.262 871.87,995.734 871.674,996.28 C 871.478,996.826 871.38,997.419 871.38,998.059 C 871.38,998.711 871.492,999.311 871.716,999.857 C 871.94,1000.4 872.253,1000.87 872.655,1001.27 C 873.057,1001.67 873.538,1001.97 874.098,1002.19 C 874.658,1002.41 875.276,1002.52 875.952,1002.52 C 876.28,1002.52 876.589,1002.5 876.879,1002.44 C 877.169,1002.38 877.44,1002.3 877.692,1002.2 C 877.944,1002.1 878.176,1001.97 878.388,1001.83 C 878.6,1001.69 878.788,1001.53 878.952,1001.36 L 878.268,1000.44 C 878.224,1000.38 878.172,1000.33 878.112,1000.29 C 878.052,1000.24 877.968,1000.22 877.86,1000.22 C 877.788,1000.22 877.72,1000.23 877.656,1000.27 C 877.592,1000.3 877.524,1000.34 877.452,1000.38 C 877.38,1000.43 877.301,1000.48 877.215,1000.53 C 877.129,1000.59 877.027,1000.64 876.909,1000.68 C 876.791,1000.73 876.653,1000.77 876.495,1000.8 C 876.337,1000.83 876.152,1000.85 875.94,1000.85 C 875.572,1000.85 875.236,1000.78 874.932,1000.65 C 874.628,1000.52 874.367,1000.34 874.149,1000.1 C 873.931,999.853 873.761,999.56 873.639,999.216 C 873.517,998.872 873.456,998.486 873.456,998.058 C 873.456,997.61 873.517,997.213 873.639,996.864 C 873.761,996.516 873.927,996.223 874.137,995.984 C 874.347,995.748 874.592,995.566 874.872,995.441 C 875.152,995.317 875.452,995.255 875.772,995.255 C 875.956,995.255 876.124,995.264 876.276,995.282 C 876.428,995.3 876.569,995.331 876.699,995.375 C 876.829,995.419 876.953,995.476 877.071,995.547 C 877.189,995.616 877.308,995.703 877.428,995.808 C 877.475,995.848 877.528,995.881 877.584,995.907 C 877.64,995.933 877.698,995.946 877.758,995.946 Z" marker-start="none" marker-end="none"/>
    <path d="M 886.119,1002.43 L 886.119,1000.82 L 883.659,1000.82 L 883.659,993.687 L 881.631,993.687 L 881.631,1000.82 L 879.17,1000.82 L 879.17,1002.43 L 886.119,1002.43 Z" marker-start="none" marker-end="none"/>
    <path d="M 889.181,993.685 L 887.141,993.685 L 887.141,1002.43 L 889.181,1002.43 L 889.181,993.685 Z" marker-start="none" marker-end="none"/>
    <path d="M 899.427,998.059 C 899.427,997.427 899.318,996.838 899.1,996.295 C 898.882,995.751 898.575,995.278 898.179,994.876 C 897.783,994.474 897.306,994.159 896.748,993.93 C 896.19,993.702 895.571,993.588 894.891,993.588 C 894.211,993.588 893.59,993.702 893.031,993.93 C 892.471,994.159 891.992,994.474 891.594,994.876 C 891.196,995.278 890.888,995.751 890.67,996.295 C 890.452,996.838 890.343,997.427 890.343,998.059 C 890.343,998.691 890.452,999.281 890.67,999.824 C 890.888,1000.37 891.196,1000.84 891.594,1001.24 C 891.992,1001.64 892.471,1001.95 893.031,1002.18 C 893.59,1002.41 894.211,1002.52 894.891,1002.52 C 895.571,1002.52 896.19,1002.41 896.748,1002.18 C 897.306,1001.95 897.783,1001.63 898.179,1001.23 C 898.575,1000.83 898.882,1000.36 899.1,999.818 C 899.318,999.274 899.427,998.687 899.427,998.059 Z M 897.351,998.059 C 897.351,998.491 897.295,998.88 897.183,999.226 C 897.071,999.572 896.91,999.865 896.7,1000.11 C 896.49,1000.35 896.234,1000.53 895.929,1000.66 C 895.625,1000.78 895.279,1000.85 894.891,1000.85 C 894.499,1000.85 894.15,1000.78 893.844,1000.66 C 893.538,1000.53 893.28,1000.35 893.07,1000.11 C 892.86,999.865 892.699,999.572 892.587,999.226 C 892.475,998.88 892.419,998.491 892.419,998.059 C 892.419,997.623 892.475,997.232 892.587,996.887 C 892.699,996.541 892.86,996.248 893.07,996.008 C 893.28,995.768 893.538,995.585 893.844,995.459 C 894.15,995.333 894.499,995.27 894.891,995.27 C 895.279,995.27 895.625,995.333 895.929,995.459 C 896.234,995.585 896.49,995.768 896.7,996.008 C 896.91,996.248 897.071,996.541 897.183,996.887 C 897.295,997.232 897.351,997.623 897.351,998.059 Z" marker-start="none" marker-end="none"/>
    <path d="M 901.465,1002.43 C 901.553,1002.43 901.627,1002.43 901.687,1002.42 C 901.747,1002.41 901.801,1002.4 901.849,1002.37 C 901.897,1002.35 901.943,1002.32 901.987,1002.28 C 902.031,1002.24 902.081,1002.19 902.137,1002.12 L 906.289,996.868 C 906.273,997.036 906.261,997.199 906.253,997.357 C 906.245,997.515 906.241,997.664 906.241,997.804 L 906.241,1002.43 L 908.029,1002.43 L 908.029,993.685 L 906.973,993.685 C 906.817,993.685 906.685,993.709 906.577,993.757 C 906.469,993.805 906.365,993.893 906.265,994.021 L 902.143,999.229 C 902.155,999.077 902.165,998.928 902.173,998.782 C 902.181,998.636 902.185,998.499 902.185,998.371 L 902.185,993.685 L 900.397,993.685 L 900.397,1002.43 L 901.465,1002.43 Z" marker-start="none" marker-end="none"/>
   </g>
   <g id="Group_4" stroke-width="0.251">
    <path d="M 881.76,1027.8 C 881.7,1027.71 881.637,1027.63 881.571,1027.59 C 881.505,1027.54 881.42,1027.51 881.316,1027.51 C 881.224,1027.51 881.125,1027.54 881.019,1027.6 C 880.913,1027.66 880.793,1027.72 880.659,1027.8 C 880.525,1027.87 880.372,1027.93 880.2,1027.99 C 880.028,1028.05 879.832,1028.08 879.612,1028.08 C 879.232,1028.08 878.949,1028 878.763,1027.84 C 878.577,1027.67 878.484,1027.45 878.484,1027.18 C 878.484,1027 878.54,1026.86 878.652,1026.74 C 878.764,1026.62 878.911,1026.52 879.093,1026.44 C 879.275,1026.36 879.483,1026.28 879.717,1026.21 C 879.951,1026.14 880.19,1026.06 880.435,1025.97 C 880.678,1025.89 880.917,1025.79 881.151,1025.67 C 881.385,1025.56 881.593,1025.41 881.775,1025.23 C 881.956,1025.05 882.104,1024.83 882.216,1024.57 C 882.328,1024.31 882.384,1024 882.384,1023.64 C 882.384,1023.23 882.314,1022.86 882.174,1022.5 C 882.034,1022.15 881.831,1021.85 881.565,1021.58 C 881.299,1021.32 880.971,1021.12 880.581,1020.96 C 880.191,1020.81 879.748,1020.74 879.252,1020.74 C 878.98,1020.74 878.703,1020.77 878.421,1020.82 C 878.139,1020.88 877.866,1020.96 877.602,1021.06 C 877.338,1021.16 877.09,1021.29 876.858,1021.42 C 876.626,1021.56 876.424,1021.72 876.252,1021.89 L 876.852,1022.84 C 876.896,1022.91 876.958,1022.97 877.038,1023.01 C 877.118,1023.06 877.204,1023.08 877.296,1023.08 C 877.416,1023.08 877.537,1023.04 877.659,1022.97 C 877.781,1022.89 877.919,1022.81 878.073,1022.71 C 878.227,1022.62 878.404,1022.54 878.604,1022.46 C 878.804,1022.39 879.04,1022.35 879.312,1022.35 C 879.68,1022.35 879.966,1022.43 880.17,1022.59 C 880.374,1022.75 880.476,1023.01 880.476,1023.36 C 880.476,1023.57 880.42,1023.73 880.308,1023.86 C 880.196,1023.99 880.049,1024.09 879.867,1024.18 C 879.685,1024.26 879.478,1024.34 879.246,1024.4 C 879.014,1024.46 878.776,1024.54 878.532,1024.61 C 878.288,1024.69 878.051,1024.79 877.818,1024.9 C 877.586,1025.02 877.379,1025.17 877.197,1025.35 C 877.015,1025.54 876.868,1025.77 876.756,1026.05 C 876.644,1026.33 876.588,1026.67 876.588,1027.08 C 876.588,1027.41 876.654,1027.72 876.787,1028.04 C 876.918,1028.35 877.112,1028.63 877.368,1028.87 C 877.624,1029.12 877.938,1029.31 878.31,1029.46 C 878.683,1029.6 879.108,1029.68 879.588,1029.68 C 879.856,1029.68 880.117,1029.65 880.371,1029.61 C 880.625,1029.57 880.866,1029.51 881.094,1029.43 C 881.322,1029.34 881.535,1029.25 881.733,1029.13 C 881.931,1029.02 882.108,1028.89 882.264,1028.75 L 881.76,1027.8 Z" marker-start="none" marker-end="none"/>
    <path d="M 889.02,1029.58 L 889.02,1028.02 L 885.432,1028.02 L 885.432,1025.98 L 888.18,1025.98 L 888.18,1024.48 L 885.432,1024.48 L 885.432,1022.4 L 889.02,1022.4 L 889.02,1020.84 L 883.392,1020.84 L 883.392,1029.58 L 889.02,1029.58 Z" marker-start="none" marker-end="none"/>
    <path d="M 892.199,1022.46 L 895.439,1022.46 L 895.439,1020.84 L 890.171,1020.84 L 890.171,1029.58 L 892.199,1029.58 L 892.199,1022.46 Z" marker-start="none" marker-end="none"/>
    <path d="M 898.428,1022.46 L 901.668,1022.46 L 901.668,1020.84 L 896.4,1020.84 L 896.4,1029.58 L 898.428,1029.58 L 898.428,1022.46 Z" marker-start="none" marker-end="none"/>
   </g>
   <g id="Group_5" stroke-width="0.271">
    <g id="Group_6">
     <path d="M 871.696,1021.34 C 871.656,1021.24 871.605,1021.16 871.541,1021.08 C 871.478,1021.01 871.408,1020.94 871.33,1020.89 C 871.253,1020.84 871.17,1020.8 871.08,1020.78 C 870.993,1020.75 870.905,1020.74 870.819,1020.74 L 870.103,1020.74 L 873.181,1028.82 C 873.254,1029 873.363,1029.15 873.511,1029.24 C 873.66,1029.34 873.831,1029.39 874.026,1029.39 L 874.742,1029.39 L 871.696,1021.34 Z" marker-start="none" marker-end="none"/>
    </g>
   </g>
  </g>
 </g>
</svg>
