<?xml version="1.0" standalone="no"?>
<!DOCTYPE svg PUBLIC "-//W3C//DTD SVG 1.1//EN" "http://www.w3.org/Graphics/SVG/1.1/DTD/svg11.dtd">
<!--Generator: Xara Designer (www.xara.com), SVG filter version: 6.6.0.0-->
<svg fill="none" fill-rule="evenodd" stroke="black" stroke-width="0.501" stroke-linejoin="bevel" stroke-miterlimit="10" font-family="Times New Roman" font-size="16" style="font-variant-ligatures:none" xmlns:xlink="http://www.w3.org/1999/xlink" xmlns="http://www.w3.org/2000/svg" version="1.1" overflow="visible" width="107.72pt" height="215.438pt" viewBox="701.954 -1036.78 107.72 215.438">
 <defs>
	</defs>
 <g id="Grid 36x36mm" transform="scale(1 -1)">
  <path d="M 701.954,836.558 L 701.954,1021.57 C 701.954,1029.97 708.769,1036.78 717.166,1036.78 L 794.462,1036.78 C 802.859,1036.78 809.674,1029.97 809.674,1021.57 L 809.674,836.558 C 809.674,835.508 809.567,834.483 809.364,833.493 C 808.148,827.552 803.466,822.869 797.526,821.653 C 796.536,821.45 795.511,821.344 794.462,821.344 L 717.166,821.344 C 708.769,821.344 701.954,828.16 701.954,836.558 Z M 808.782,837.289 L 808.782,1020.84 C 808.782,1029.17 802.02,1035.93 793.69,1035.93 L 717.938,1035.93 C 709.608,1035.93 702.846,1029.17 702.846,1020.84 L 702.846,837.289 C 702.846,828.958 709.608,822.196 717.938,822.196 L 793.69,822.196 C 802.02,822.196 808.782,828.958 808.782,837.289 Z" stroke-linejoin="miter" stroke="none" stroke-width="0.802" fill="#ffffff" marker-start="none" marker-end="none"/>
  <path d="M 702.846,837.289 L 702.846,1020.84 C 702.846,1029.17 709.608,1035.93 717.938,1035.93 L 793.69,1035.93 C 802.02,1035.93 808.782,1029.17 808.782,1020.84 L 808.782,837.289 C 808.782,828.958 802.02,822.196 793.69,822.196 L 717.938,822.196 C 709.608,822.196 702.846,828.958 702.846,837.289 Z M 765.18,896.12 C 765.644,896.301 766.038,896.553 766.362,896.877 C 766.686,897.201 766.935,897.587 767.109,898.035 C 767.283,898.483 767.37,898.975 767.37,899.511 L 767.37,904.691 L 765.342,904.691 L 765.342,899.512 C 765.342,899.204 765.303,898.929 765.225,898.687 C 765.147,898.445 765.034,898.24 764.886,898.072 C 764.738,897.904 764.557,897.775 764.343,897.685 C 764.129,897.595 763.886,897.55 763.614,897.55 C 763.342,897.55 763.099,897.595 762.885,897.685 C 762.671,897.775 762.49,897.905 762.342,898.075 C 762.194,898.245 762.081,898.451 762.003,898.693 C 761.925,898.935 761.886,899.21 761.886,899.518 L 761.886,904.691 L 759.858,904.691 L 759.858,899.511 C 759.858,898.975 759.944,898.483 760.116,898.035 C 760.288,897.587 760.536,897.201 760.86,896.877 C 761.184,896.553 761.578,896.301 762.042,896.12 C 762.506,895.94 763.03,895.85 763.614,895.85 C 764.194,895.85 764.716,895.94 765.18,896.12 Z M 741.885,895.947 L 745.389,904.691 L 743.745,904.691 C 743.577,904.691 743.435,904.646 743.319,904.555 C 743.203,904.465 743.125,904.363 743.085,904.251 L 741.405,899.545 C 741.333,899.34 741.26,899.116 741.186,898.875 C 741.112,898.634 741.047,898.381 740.991,898.115 C 740.923,898.381 740.85,898.634 740.772,898.875 C 740.694,899.116 740.617,899.34 740.541,899.545 L 738.849,904.251 C 738.801,904.383 738.721,904.49 738.609,904.57 C 738.497,904.651 738.353,904.691 738.177,904.691 L 736.545,904.691 L 740.049,895.947 L 741.885,895.947 Z M 746.209,896.082 C 746.325,896.172 746.403,896.273 746.443,896.385 L 746.959,897.91 L 750.283,897.91 L 750.799,896.385 C 750.843,896.257 750.922,896.152 751.036,896.07 C 751.15,895.988 751.295,895.947 751.471,895.947 L 753.043,895.947 L 749.659,904.691 L 747.583,904.691 L 744.199,895.947 L 745.783,895.947 C 745.951,895.947 746.093,895.992 746.209,896.082 Z M 759.017,895.947 L 759.017,897.567 L 755.777,897.567 L 755.777,904.691 L 753.749,904.691 L 753.749,895.947 L 759.017,895.947 Z M 774.319,895.947 L 774.319,897.509 L 770.731,897.509 L 770.731,899.589 L 773.479,899.589 L 773.479,901.089 L 770.731,901.089 L 770.731,903.131 L 774.319,903.131 L 774.319,904.692 L 768.691,904.692 L 768.691,895.947 L 774.319,895.947 Z M 731.289,910.592 C 731.819,910.822 732.26,911.164 732.612,911.617 L 731.808,912.481 C 731.764,912.526 731.718,912.558 731.67,912.576 C 731.622,912.594 731.574,912.604 731.526,912.604 C 731.466,912.604 731.408,912.591 731.352,912.565 C 731.296,912.539 731.244,912.506 731.196,912.466 C 731.076,912.361 730.957,912.274 730.839,912.204 C 730.721,912.134 730.597,912.077 730.467,912.033 C 730.337,911.989 730.196,911.958 730.044,911.94 C 729.892,911.922 729.724,911.913 729.54,911.913 C 729.22,911.913 728.92,911.975 728.64,912.099 C 728.36,912.224 728.115,912.405 727.905,912.642 C 727.695,912.881 727.529,913.174 727.407,913.522 C 727.285,913.87 727.224,914.268 727.224,914.716 C 727.224,915.144 727.285,915.53 727.407,915.874 C 727.529,916.218 727.699,916.511 727.917,916.753 C 728.135,916.995 728.396,917.181 728.7,917.311 C 729.004,917.441 729.34,917.506 729.708,917.506 C 729.92,917.506 730.105,917.49 730.263,917.458 C 730.421,917.426 730.559,917.387 730.677,917.341 C 730.795,917.295 730.897,917.245 730.983,917.191 C 731.069,917.137 731.148,917.087 731.22,917.041 C 731.292,916.995 731.36,916.956 731.424,916.924 C 731.488,916.892 731.556,916.876 731.628,916.876 C 731.736,916.876 731.82,916.899 731.88,916.945 C 731.94,916.991 731.992,917.042 732.036,917.098 L 732.72,918.016 C 732.556,918.189 732.368,918.346 732.156,918.488 C 731.944,918.63 731.712,918.753 731.46,918.855 C 731.208,918.957 730.937,919.037 730.647,919.095 C 730.357,919.153 730.048,919.182 729.72,919.182 C 729.044,919.182 728.426,919.072 727.866,918.852 C 727.306,918.632 726.825,918.324 726.423,917.928 C 726.021,917.532 725.708,917.061 725.484,916.515 C 725.26,915.969 725.148,915.369 725.148,914.717 C 725.148,914.077 725.246,913.484 725.442,912.938 C 725.638,912.392 725.919,911.92 726.285,911.522 C 726.651,911.124 727.097,910.812 727.623,910.585 C 728.149,910.359 728.744,910.246 729.408,910.246 C 730.132,910.246 730.759,910.362 731.289,910.592 Z M 739.488,910.588 C 740.046,910.817 740.523,911.132 740.919,911.534 C 741.315,911.936 741.622,912.409 741.84,912.953 C 742.058,913.497 742.167,914.085 742.167,914.717 C 742.167,915.345 742.058,915.932 741.84,916.476 C 741.622,917.02 741.315,917.492 740.919,917.892 C 740.523,918.292 740.046,918.607 739.488,918.837 C 738.93,919.067 738.311,919.182 737.631,919.182 C 736.951,919.182 736.331,919.068 735.771,918.84 C 735.211,918.612 734.732,918.298 734.334,917.898 C 733.936,917.498 733.628,917.026 733.41,916.482 C 733.192,915.938 733.083,915.349 733.083,914.717 C 733.083,914.085 733.192,913.497 733.41,912.953 C 733.628,912.409 733.936,911.936 734.334,911.534 C 734.732,911.132 735.211,910.817 735.771,910.588 C 736.331,910.36 736.951,910.246 737.631,910.246 C 738.311,910.246 738.93,910.36 739.488,910.588 Z M 744.925,910.343 L 744.925,915.306 C 744.925,915.42 744.921,915.545 744.913,915.682 C 744.905,915.818 744.893,915.955 744.877,916.093 L 747.205,911.663 C 747.277,911.525 747.374,911.42 747.496,911.349 C 747.618,911.279 747.757,911.243 747.913,911.243 L 748.189,911.243 C 748.345,911.243 748.484,911.279 748.606,911.349 C 748.728,911.42 748.825,911.525 748.897,911.663 L 751.213,916.087 C 751.189,915.807 751.177,915.546 751.177,915.306 L 751.177,910.343 L 752.965,910.343 L 752.965,919.08 L 751.186,919.08 C 751.12,919.08 751.061,919.069 751.009,919.049 C 750.957,919.029 750.91,918.998 750.868,918.956 C 750.826,918.913 750.785,918.854 750.745,918.778 L 748.501,914.331 C 748.421,914.174 748.343,914.012 748.267,913.845 C 748.191,913.678 748.119,913.506 748.051,913.328 C 747.983,913.502 747.912,913.671 747.838,913.836 C 747.764,914.001 747.687,914.16 747.607,914.313 L 745.357,918.778 C 745.317,918.854 745.276,918.913 745.234,918.956 C 745.192,918.998 745.145,919.029 745.093,919.049 C 745.041,919.069 744.982,919.08 744.916,919.08 L 743.137,919.08 L 743.137,910.343 L 744.925,910.343 Z M 762.345,910.478 C 762.461,910.568 762.539,910.669 762.579,910.781 L 763.095,912.306 L 766.419,912.306 L 766.935,910.781 C 766.979,910.653 767.058,910.548 767.172,910.466 C 767.286,910.384 767.431,910.343 767.607,910.343 L 769.179,910.343 L 765.795,919.087 L 763.719,919.087 L 760.335,910.343 L 761.919,910.343 C 762.087,910.343 762.229,910.388 762.345,910.478 Z M 771.673,910.343 L 771.673,915.029 C 771.673,915.157 771.669,915.294 771.661,915.44 C 771.653,915.586 771.643,915.735 771.631,915.887 L 775.753,910.679 C 775.853,910.551 775.957,910.463 776.065,910.415 C 776.173,910.367 776.305,910.343 776.461,910.343 L 777.517,910.343 L 777.517,919.088 L 775.729,919.088 L 775.729,914.462 C 775.729,914.322 775.733,914.173 775.741,914.015 C 775.749,913.857 775.761,913.694 775.777,913.526 L 771.625,918.776 C 771.569,918.844 771.519,918.898 771.475,918.938 C 771.431,918.978 771.385,919.009 771.337,919.031 C 771.289,919.053 771.235,919.068 771.175,919.076 C 771.115,919.084 771.041,919.088 770.953,919.088 L 769.885,919.088 L 769.885,910.343 L 771.673,910.343 Z M 783.311,910.343 L 783.311,913.616 L 786.479,919.087 L 784.679,919.087 C 784.595,919.087 784.518,919.074 784.448,919.047 C 784.378,919.021 784.316,918.986 784.262,918.943 C 784.208,918.901 784.16,918.853 784.118,918.8 C 784.076,918.747 784.043,918.694 784.019,918.641 L 782.795,916.051 C 782.699,915.847 782.609,915.657 782.525,915.482 C 782.441,915.307 782.369,915.132 782.309,914.957 C 782.245,915.128 782.171,915.301 782.087,915.476 C 782.003,915.651 781.911,915.843 781.811,916.051 L 780.575,918.641 C 780.511,918.771 780.427,918.878 780.323,918.962 C 780.219,919.045 780.079,919.087 779.903,919.087 L 778.115,919.087 L 781.283,913.616 L 781.283,910.343 L 783.311,910.343 Z M 756.433,910.345 L 756.433,913.267 L 757.489,913.267 C 758.093,913.267 758.616,913.34 759.058,913.486 C 759.5,913.632 759.865,913.835 760.153,914.095 C 760.441,914.355 760.655,914.667 760.795,915.031 C 760.935,915.395 761.005,915.795 761.005,916.232 C 761.005,916.636 760.937,917.012 760.801,917.36 C 760.665,917.708 760.454,918.01 760.168,918.266 C 759.882,918.522 759.518,918.723 759.076,918.869 C 758.634,919.015 758.105,919.088 757.489,919.088 L 754.405,919.088 L 754.405,910.345 L 756.433,910.345 Z M 747.714,924.696 C 748.024,924.732 748.316,924.788 748.59,924.864 C 748.864,924.94 749.122,925.037 749.364,925.155 C 749.606,925.274 749.839,925.415 750.063,925.579 L 750.063,929.268 L 746.955,929.268 L 746.955,928.152 C 746.955,928.048 746.991,927.962 747.063,927.894 C 747.135,927.826 747.235,927.792 747.363,927.792 L 748.227,927.792 L 748.227,926.464 C 748.035,926.385 747.831,926.322 747.615,926.275 C 747.399,926.227 747.151,926.204 746.871,926.204 C 746.503,926.204 746.164,926.269 745.854,926.399 C 745.544,926.529 745.276,926.718 745.05,926.966 C 744.824,927.214 744.647,927.518 744.519,927.877 C 744.391,928.237 744.327,928.649 744.327,929.113 C 744.327,929.533 744.385,929.914 744.501,930.256 C 744.617,930.598 744.782,930.891 744.996,931.135 C 745.21,931.379 745.469,931.567 745.773,931.701 C 746.077,931.835 746.419,931.902 746.799,931.902 C 747.003,931.902 747.187,931.892 747.351,931.872 C 747.515,931.852 747.671,931.82 747.819,931.776 C 747.967,931.732 748.112,931.675 748.254,931.605 C 748.396,931.535 748.547,931.452 748.707,931.356 C 748.835,931.276 748.959,931.236 749.079,931.236 C 749.171,931.236 749.256,931.26 749.334,931.308 C 749.412,931.356 749.479,931.422 749.535,931.506 L 750.123,932.4 C 749.947,932.569 749.747,932.725 749.523,932.869 C 749.299,933.013 749.052,933.138 748.782,933.242 C 748.512,933.346 748.217,933.428 747.897,933.488 C 747.577,933.548 747.235,933.578 746.871,933.578 C 746.167,933.578 745.53,933.468 744.96,933.248 C 744.39,933.028 743.904,932.72 743.502,932.324 C 743.1,931.928 742.791,931.457 742.575,930.911 C 742.359,930.365 742.251,929.765 742.251,929.113 C 742.251,928.473 742.364,927.88 742.59,927.334 C 742.816,926.788 743.128,926.316 743.526,925.918 C 743.924,925.52 744.395,925.208 744.939,924.981 C 745.483,924.755 746.075,924.642 746.715,924.642 C 747.071,924.642 747.404,924.66 747.714,924.696 Z M 728.694,924.739 L 728.694,929.425 C 728.694,929.553 728.69,929.69 728.682,929.836 C 728.674,929.982 728.664,930.131 728.652,930.283 L 732.774,925.075 C 732.874,924.947 732.978,924.859 733.086,924.811 C 733.194,924.763 733.326,924.739 733.482,924.739 L 734.538,924.739 L 734.538,933.484 L 732.75,933.484 L 732.75,928.858 C 732.75,928.718 732.754,928.569 732.762,928.411 C 732.77,928.253 732.782,928.09 732.798,927.922 L 728.646,933.172 C 728.59,933.24 728.54,933.294 728.496,933.334 C 728.452,933.374 728.406,933.405 728.358,933.427 C 728.31,933.449 728.256,933.464 728.196,933.472 C 728.136,933.48 728.062,933.484 727.974,933.484 L 726.906,933.484 L 726.906,924.739 L 728.694,924.739 Z M 741.604,924.739 L 741.604,926.301 L 738.016,926.301 L 738.016,928.381 L 740.764,928.381 L 740.764,929.881 L 738.016,929.881 L 738.016,931.923 L 741.604,931.923 L 741.604,933.484 L 735.976,933.484 L 735.976,924.739 L 741.604,924.739 Z M 752.6,924.874 C 752.716,924.964 752.794,925.065 752.834,925.177 L 753.35,926.702 L 756.674,926.702 L 757.19,925.177 C 757.234,925.049 757.313,924.944 757.427,924.862 C 757.541,924.78 757.686,924.739 757.862,924.739 L 759.434,924.739 L 756.05,933.483 L 753.974,933.483 L 750.59,924.739 L 752.174,924.739 C 752.342,924.739 752.484,924.784 752.6,924.874 Z M 768.59,924.739 L 768.59,933.484 L 766.55,933.484 L 766.55,924.739 L 768.59,924.739 Z M 774.828,924.739 L 778.332,933.483 L 776.688,933.483 C 776.52,933.483 776.378,933.438 776.262,933.347 C 776.146,933.257 776.068,933.155 776.028,933.043 L 774.348,928.337 C 774.276,928.132 774.203,927.908 774.129,927.667 C 774.055,927.426 773.99,927.173 773.934,926.907 C 773.866,927.173 773.793,927.426 773.715,927.667 C 773.637,927.908 773.56,928.132 773.484,928.337 L 771.792,933.043 C 771.744,933.175 771.664,933.282 771.552,933.362 C 771.44,933.443 771.296,933.483 771.12,933.483 L 769.488,933.483 L 772.992,924.739 L 774.828,924.739 Z M 784.678,924.739 L 784.678,926.301 L 781.09,926.301 L 781.09,928.381 L 783.838,928.381 L 783.838,929.881 L 781.09,929.881 L 781.09,931.923 L 784.678,931.923 L 784.678,933.484 L 779.05,933.484 L 779.05,924.739 L 784.678,924.739 Z M 763.068,924.741 L 763.068,931.876 L 765.528,931.876 L 765.528,933.484 L 758.58,933.484 L 758.58,931.876 L 761.04,931.876 L 761.04,924.741 L 763.068,924.741 Z M 743.769,939.135 L 745.437,944.469 C 745.465,944.552 745.494,944.643 745.524,944.741 C 745.554,944.84 745.583,944.944 745.611,945.055 C 745.639,944.944 745.668,944.84 745.698,944.741 C 745.728,944.643 745.757,944.552 745.785,944.469 L 747.429,939.135 L 749.265,939.135 L 751.965,947.879 L 750.369,947.879 C 750.201,947.879 750.057,947.835 749.937,947.746 C 749.817,947.657 749.741,947.555 749.709,947.438 L 748.509,942.843 C 748.473,942.702 748.438,942.551 748.404,942.39 C 748.37,942.229 748.337,942.059 748.305,941.882 C 748.269,942.063 748.227,942.234 748.179,942.393 C 748.131,942.552 748.085,942.702 748.041,942.843 L 746.637,947.438 C 746.593,947.575 746.514,947.683 746.4,947.761 C 746.286,947.84 746.141,947.879 745.965,947.879 L 745.365,947.879 C 745.197,947.879 745.054,947.834 744.936,947.743 C 744.818,947.652 744.741,947.551 744.705,947.438 L 743.289,942.844 C 743.245,942.695 743.199,942.537 743.151,942.37 C 743.103,942.202 743.059,942.024 743.019,941.835 C 742.999,942.02 742.969,942.197 742.929,942.367 C 742.889,942.536 742.849,942.695 742.809,942.844 L 741.609,947.438 C 741.573,947.571 741.496,947.678 741.378,947.758 C 741.26,947.839 741.113,947.879 740.937,947.879 L 739.233,947.879 L 741.933,939.135 L 743.769,939.135 Z M 754.963,939.135 L 754.963,947.88 L 752.923,947.88 L 752.923,939.135 L 754.963,939.135 Z M 765.811,939.135 L 765.811,942.832 L 769.363,942.832 L 769.363,939.135 L 771.403,939.135 L 771.403,947.88 L 769.363,947.88 L 769.363,944.224 L 765.811,944.224 L 765.811,947.88 L 763.771,947.88 L 763.771,939.135 L 765.811,939.135 Z M 760.469,939.137 L 760.469,946.272 L 762.929,946.272 L 762.929,947.88 L 755.981,947.88 L 755.981,946.272 L 758.441,946.272 L 758.441,939.137 L 760.469,939.137 Z M 746.242,953.858 C 746.8,954.076 747.277,954.38 747.673,954.771 C 748.069,955.161 748.376,955.623 748.594,956.157 C 748.812,956.691 748.921,957.274 748.921,957.907 C 748.921,958.535 748.812,959.116 748.594,959.65 C 748.376,960.185 748.069,960.646 747.673,961.034 C 747.277,961.422 746.8,961.726 746.242,961.946 C 745.684,962.166 745.065,962.276 744.385,962.276 L 740.989,962.276 L 740.989,953.531 L 744.385,953.531 C 745.065,953.531 745.684,953.64 746.242,953.858 Z M 755.523,953.531 L 755.523,955.093 L 751.935,955.093 L 751.935,957.173 L 754.683,957.173 L 754.683,958.673 L 751.935,958.673 L 751.935,960.715 L 755.523,960.715 L 755.523,962.276 L 749.895,962.276 L 749.895,953.531 L 755.523,953.531 Z M 757.976,953.666 C 758.092,953.756 758.17,953.857 758.21,953.969 L 758.726,955.494 L 762.05,955.494 L 762.566,953.969 C 762.61,953.841 762.689,953.736 762.803,953.654 C 762.917,953.572 763.062,953.531 763.238,953.531 L 764.81,953.531 L 761.426,962.275 L 759.35,962.275 L 755.966,953.531 L 757.55,953.531 C 757.718,953.531 757.86,953.576 757.976,953.666 Z M 770.784,953.531 L 770.784,955.151 L 767.544,955.151 L 767.544,962.275 L 765.516,962.275 L 765.516,953.531 L 770.784,953.531 Z" stroke-linejoin="miter" stroke="none" fill="#00bf02" stroke-width="0.801" marker-start="none" marker-end="none"/>
  <path d="M 759.194,956.874 L 759.998,959.22 C 760.058,959.369 760.122,959.547 760.19,959.751 C 760.258,959.956 760.324,960.179 760.388,960.419 C 760.456,960.183 760.525,959.963 760.595,959.76 C 760.665,959.557 760.726,959.381 760.778,959.231 L 761.582,956.874 L 759.194,956.874 Z" stroke-linejoin="miter" stroke="none" fill="#00bf02" stroke-width="0.801" marker-start="none" marker-end="none"/>
  <path d="M 743.029,955.093 L 743.029,960.715 L 744.385,960.715 C 744.773,960.715 745.119,960.65 745.423,960.52 C 745.727,960.39 745.984,960.204 746.194,959.962 C 746.404,959.72 746.565,959.425 746.677,959.077 C 746.789,958.729 746.845,958.339 746.845,957.907 C 746.845,957.471 746.789,957.079 746.677,956.731 C 746.565,956.383 746.404,956.088 746.194,955.846 C 745.984,955.604 745.727,955.418 745.423,955.288 C 745.119,955.158 744.773,955.093 744.385,955.093 L 743.029,955.093 Z" stroke-linejoin="miter" stroke="none" fill="#00bf02" stroke-width="0.801" marker-start="none" marker-end="none"/>
  <path d="M 753.818,928.082 L 754.622,930.428 C 754.682,930.577 754.746,930.755 754.814,930.959 C 754.882,931.164 754.948,931.387 755.012,931.627 C 755.08,931.391 755.149,931.171 755.219,930.968 C 755.289,930.765 755.35,930.589 755.402,930.439 L 756.206,928.082 L 753.818,928.082 Z" stroke-linejoin="miter" stroke="none" fill="#00bf02" stroke-width="0.801" marker-start="none" marker-end="none"/>
  <path d="M 756.433,914.796 L 756.433,917.571 L 757.489,917.571 C 757.745,917.571 757.966,917.539 758.152,917.475 C 758.338,917.411 758.492,917.319 758.614,917.201 C 758.736,917.083 758.827,916.942 758.887,916.778 C 758.947,916.614 758.977,916.432 758.977,916.232 C 758.977,915.779 758.861,915.427 758.629,915.175 C 758.397,914.922 758.017,914.796 757.489,914.796 L 756.433,914.796 Z" stroke-linejoin="miter" stroke="none" fill="#00bf02" stroke-width="0.801" marker-start="none" marker-end="none"/>
  <path d="M 763.563,913.686 L 764.367,916.032 C 764.427,916.181 764.491,916.359 764.559,916.563 C 764.627,916.768 764.693,916.991 764.757,917.231 C 764.825,916.995 764.894,916.775 764.964,916.572 C 765.034,916.369 765.095,916.193 765.147,916.043 L 765.951,913.686 L 763.563,913.686 Z" stroke-linejoin="miter" stroke="none" fill="#00bf02" stroke-width="0.801" marker-start="none" marker-end="none"/>
  <path d="M 736.584,912.117 C 736.278,912.243 736.02,912.426 735.81,912.666 C 735.6,912.906 735.439,913.199 735.327,913.545 C 735.215,913.89 735.159,914.281 735.159,914.717 C 735.159,915.149 735.215,915.538 735.327,915.884 C 735.439,916.23 735.6,916.523 735.81,916.763 C 736.02,917.003 736.278,917.186 736.584,917.314 C 736.89,917.442 737.239,917.506 737.631,917.506 C 738.019,917.506 738.365,917.442 738.669,917.314 C 738.973,917.186 739.23,917.003 739.44,916.763 C 739.65,916.523 739.811,916.23 739.923,915.884 C 740.035,915.538 740.091,915.149 740.091,914.717 C 740.091,914.281 740.035,913.89 739.923,913.545 C 739.811,913.199 739.65,912.906 739.44,912.666 C 739.23,912.426 738.973,912.243 738.669,912.117 C 738.365,911.991 738.019,911.928 737.631,911.928 C 737.239,911.928 736.89,911.991 736.584,912.117 Z" stroke-linejoin="miter" stroke="none" fill="#00bf02" stroke-width="0.801" marker-start="none" marker-end="none"/>
  <path d="M 747.427,899.29 L 748.231,901.636 C 748.291,901.785 748.355,901.963 748.423,902.167 C 748.491,902.372 748.557,902.595 748.621,902.835 C 748.689,902.599 748.758,902.379 748.828,902.176 C 748.898,901.973 748.959,901.797 749.011,901.647 L 749.815,899.29 L 747.427,899.29 Z" stroke-linejoin="miter" stroke="none" fill="#00bf02" stroke-width="0.801" marker-start="none" marker-end="none"/>
 </g>
</svg>
