<?xml version="1.0" standalone="no"?>
<!DOCTYPE svg PUBLIC "-//W3C//DTD SVG 1.1//EN" "http://www.w3.org/Graphics/SVG/1.1/DTD/svg11.dtd">
<!--Generator: Xara Designer (www.xara.com), SVG filter version: 6.6.0.0-->
<svg fill="none" fill-rule="evenodd" stroke="black" stroke-width="0.501" stroke-linejoin="bevel" stroke-miterlimit="10" font-family="Times New Roman" font-size="16" style="font-variant-ligatures:none" xmlns:xlink="http://www.w3.org/1999/xlink" xmlns="http://www.w3.org/2000/svg" version="1.1" overflow="visible" width="109.869pt" height="54.217pt" viewBox="1168.6 -717.191 109.869 54.217">
 <defs>
	</defs>
 <g id="Grid 36x36mm" transform="scale(1 -1)">
  <path d="M 1170.75,678.539 L 1170.75,701.977 C 1170.75,710.375 1177.57,717.191 1185.96,717.191 L 1263.26,717.191 C 1271.65,717.191 1278.47,710.375 1278.47,701.977 L 1278.47,678.539 C 1278.47,670.141 1271.65,663.325 1263.26,663.325 L 1185.96,663.325 C 1177.57,663.325 1170.75,670.141 1170.75,678.539 Z" stroke="none" fill="#ffffff" stroke-width="0.802" stroke-linejoin="miter" marker-start="none" marker-end="none"/>
  <path d="M 1168.6,678.066 L 1168.6,700.05 C 1168.6,708.381 1175.36,715.142 1183.69,715.142 L 1259.53,715.142 C 1267.86,715.142 1274.62,708.381 1274.62,700.05 L 1274.62,678.066 C 1274.62,669.735 1267.86,662.974 1259.53,662.974 L 1183.69,662.974 C 1175.36,662.974 1168.6,669.735 1168.6,678.066 Z" stroke="none" fill="#e5e5e5" stroke-width="0.8" stroke-linejoin="miter" marker-start="none" marker-end="none"/>
  <text xml:space="preserve" transform="translate(1224.83 693.106) scale(1 -1)" kerning="auto" stroke="none" fill="#b2b2b2" stroke-width="0.297" stroke-linejoin="round" stroke-linecap="round" font-family="Lato Black" font-size="11.894"><tspan x="-31.747" y="0">HIRE TEAM</tspan><tspan x="-37.575" y="14.268">ON AUCTION</tspan></text>
 </g>
</svg>
