<?xml version="1.0" standalone="no"?>
<!DOCTYPE svg PUBLIC "-//W3C//DTD SVG 1.1//EN" "http://www.w3.org/Graphics/SVG/1.1/DTD/svg11.dtd">
<!--Generator: Xara Designer (www.xara.com), SVG filter version: 6.6.0.0-->
<svg fill="none" fill-rule="evenodd" stroke="black" stroke-width="0.501" stroke-linejoin="bevel" stroke-miterlimit="10" font-family="Times New Roman" font-size="16" style="font-variant-ligatures:none" xmlns:xlink="http://www.w3.org/1999/xlink" xmlns="http://www.w3.org/2000/svg" version="1.1" overflow="visible" width="107.718pt" height="107.72pt" viewBox="1057.41 -924.001 107.718 107.72">
 <defs>
	</defs>
 <g id="Grid 36x36mm" transform="scale(1 -1)">
  <g id="Group" stroke="none">
   <path d="M 1057.41,831.495 L 1057.41,908.787 C 1057.41,917.185 1064.22,924.001 1072.62,924.001 L 1111.26,923.999 L 1111.26,923.999 L 1111.27,870.141 L 1111.28,923.999 L 1111.27,923.999 L 1149.91,924.001 C 1158.31,924.001 1165.12,917.185 1165.12,908.787 L 1165.12,831.495 C 1165.12,823.097 1158.31,816.281 1149.91,816.281 L 1111.27,816.283 L 1111.28,816.283 L 1111.27,870.141 L 1111.26,816.283 L 1111.26,816.283 L 1072.62,816.281 C 1064.22,816.281 1057.41,823.097 1057.41,831.495 Z" stroke-linejoin="miter" fill="#ffffff" stroke-width="0.802" marker-start="none" marker-end="none"/>
   <path d="M 1058.26,832.223 L 1058.26,908.059 C 1058.26,916.39 1065.02,923.152 1073.35,923.152 L 1149.18,923.152 C 1157.51,923.152 1164.28,916.39 1164.28,908.059 L 1164.28,832.223 C 1164.28,823.892 1157.51,817.13 1149.18,817.13 L 1073.35,817.13 C 1065.02,817.13 1058.26,823.892 1058.26,832.223 Z" fill="#00bf02" stroke-linejoin="miter" stroke-width="0.801" marker-start="none" marker-end="none"/>
   <g id="Group_1" fill="#ffffff" fill-rule="nonzero" stroke-linejoin="round" stroke-linecap="round" stroke-width="0.297">
    <g id="Group_2">
     <path d="M 1086.09,882.975 L 1086.09,880.078 L 1084.08,880.078 L 1084.08,888.745 L 1087.13,888.745 C 1087.74,888.745 1088.27,888.672 1088.7,888.528 C 1089.14,888.383 1089.5,888.184 1089.79,887.93 C 1090.07,887.676 1090.28,887.376 1090.41,887.032 C 1090.55,886.686 1090.62,886.314 1090.62,885.913 C 1090.62,885.481 1090.55,885.084 1090.41,884.724 C 1090.27,884.363 1090.06,884.053 1089.77,883.796 C 1089.49,883.538 1089.13,883.337 1088.69,883.192 C 1088.25,883.047 1087.73,882.975 1087.13,882.975 L 1086.09,882.975 Z M 1086.09,884.491 L 1087.13,884.491 C 1087.66,884.491 1088.03,884.616 1088.26,884.866 C 1088.49,885.116 1088.61,885.465 1088.61,885.913 C 1088.61,886.112 1088.58,886.292 1088.52,886.455 C 1088.46,886.618 1088.37,886.757 1088.25,886.874 C 1088.13,886.991 1087.97,887.082 1087.79,887.145 C 1087.6,887.209 1087.39,887.241 1087.13,887.241 L 1086.09,887.241 L 1086.09,884.491 Z" marker-start="none" marker-end="none"/>
     <path d="M 1093.68,881.683 L 1096.89,881.683 L 1096.89,880.077 L 1091.67,880.077 L 1091.67,888.743 L 1093.68,888.743 L 1093.68,881.683 Z" marker-start="none" marker-end="none"/>
     <path d="M 1105.9,880.077 L 1104.35,880.077 C 1104.17,880.077 1104.03,880.118 1103.91,880.199 C 1103.8,880.28 1103.72,880.384 1103.68,880.511 L 1103.17,882.022 L 1099.87,882.022 L 1099.36,880.511 C 1099.32,880.4 1099.24,880.3 1099.13,880.211 C 1099.01,880.122 1098.87,880.077 1098.71,880.077 L 1097.14,880.077 L 1100.49,888.743 L 1102.55,888.743 L 1105.9,880.077 Z M 1100.34,883.391 L 1102.7,883.391 L 1101.91,885.727 C 1101.86,885.875 1101.8,886.05 1101.73,886.251 C 1101.66,886.452 1101.59,886.669 1101.52,886.904 C 1101.46,886.666 1101.39,886.445 1101.32,886.242 C 1101.26,886.039 1101.19,885.863 1101.13,885.715 L 1100.34,883.391 Z" marker-start="none" marker-end="none"/>
     <path d="M 1109.73,883.321 L 1109.73,880.077 L 1107.72,880.077 L 1107.72,883.321 L 1104.58,888.743 L 1106.35,888.743 C 1106.53,888.743 1106.67,888.702 1106.77,888.619 C 1106.87,888.536 1106.96,888.43 1107.02,888.301 L 1108.25,885.734 C 1108.34,885.528 1108.43,885.338 1108.52,885.165 C 1108.6,884.991 1108.68,884.819 1108.74,884.65 C 1108.8,884.823 1108.87,884.997 1108.95,885.171 C 1109.04,885.344 1109.13,885.532 1109.22,885.734 L 1110.43,888.301 C 1110.46,888.354 1110.49,888.406 1110.53,888.459 C 1110.57,888.511 1110.62,888.559 1110.67,888.601 C 1110.73,888.643 1110.79,888.678 1110.86,888.704 C 1110.93,888.73 1111,888.743 1111.09,888.743 L 1112.87,888.743 L 1109.73,883.321 Z" marker-start="none" marker-end="none"/>
     <path d="M 1119.84,881.529 C 1120.12,881.529 1120.37,881.552 1120.58,881.599 C 1120.79,881.646 1121,881.708 1121.19,881.787 L 1121.19,883.103 L 1120.33,883.103 C 1120.2,883.103 1120.1,883.137 1120.03,883.204 C 1119.96,883.271 1119.93,883.357 1119.93,883.46 L 1119.93,884.566 L 1123.01,884.566 L 1123.01,880.909 C 1122.78,880.747 1122.55,880.607 1122.31,880.49 C 1122.07,880.373 1121.82,880.277 1121.55,880.201 C 1121.28,880.126 1120.99,880.07 1120.68,880.035 C 1120.37,879.999 1120.04,879.981 1119.69,879.981 C 1119.05,879.981 1118.47,880.093 1117.93,880.317 C 1117.39,880.541 1116.92,880.851 1116.53,881.245 C 1116.13,881.64 1115.82,882.108 1115.6,882.649 C 1115.38,883.19 1115.26,883.778 1115.26,884.412 C 1115.26,885.059 1115.37,885.653 1115.59,886.194 C 1115.8,886.735 1116.11,887.202 1116.5,887.595 C 1116.9,887.987 1117.38,888.292 1117.95,888.511 C 1118.51,888.729 1119.15,888.838 1119.84,888.838 C 1120.2,888.838 1120.54,888.808 1120.86,888.748 C 1121.18,888.689 1121.47,888.607 1121.74,888.504 C 1122,888.401 1122.25,888.278 1122.47,888.135 C 1122.69,887.992 1122.89,887.837 1123.07,887.67 L 1122.48,886.784 C 1122.43,886.701 1122.36,886.636 1122.28,886.588 C 1122.21,886.54 1122.12,886.517 1122.03,886.517 C 1121.91,886.517 1121.79,886.556 1121.66,886.636 C 1121.5,886.731 1121.35,886.813 1121.21,886.882 C 1121.07,886.952 1120.93,887.008 1120.78,887.052 C 1120.64,887.095 1120.48,887.127 1120.32,887.147 C 1120.16,887.167 1119.97,887.177 1119.77,887.177 C 1119.4,887.177 1119.06,887.11 1118.75,886.978 C 1118.45,886.845 1118.2,886.658 1117.98,886.416 C 1117.77,886.174 1117.61,885.884 1117.49,885.545 C 1117.38,885.206 1117.32,884.828 1117.32,884.412 C 1117.32,883.953 1117.38,883.544 1117.51,883.188 C 1117.64,882.831 1117.81,882.53 1118.04,882.284 C 1118.26,882.038 1118.53,881.851 1118.84,881.722 C 1119.14,881.593 1119.48,881.529 1119.84,881.529 Z" marker-start="none" marker-end="none"/>
     <path d="M 1129.06,886.982 C 1129,886.886 1128.94,886.815 1128.87,886.767 C 1128.81,886.72 1128.72,886.696 1128.62,886.696 C 1128.53,886.696 1128.43,886.725 1128.33,886.782 C 1128.22,886.84 1128.1,886.904 1127.97,886.976 C 1127.84,887.047 1127.68,887.111 1127.51,887.169 C 1127.34,887.226 1127.15,887.255 1126.93,887.255 C 1126.55,887.255 1126.27,887.175 1126.09,887.014 C 1125.91,886.854 1125.81,886.637 1125.81,886.363 C 1125.81,886.188 1125.87,886.044 1125.98,885.929 C 1126.09,885.814 1126.24,885.715 1126.42,885.631 C 1126.6,885.548 1126.8,885.472 1127.04,885.402 C 1127.27,885.333 1127.5,885.256 1127.75,885.171 C 1127.99,885.085 1128.22,884.985 1128.46,884.87 C 1128.69,884.755 1128.89,884.608 1129.08,884.43 C 1129.26,884.252 1129.4,884.034 1129.51,883.779 C 1129.62,883.523 1129.68,883.215 1129.68,882.854 C 1129.68,882.453 1129.61,882.079 1129.47,881.73 C 1129.33,881.381 1129.13,881.077 1128.87,880.817 C 1128.6,880.557 1128.28,880.353 1127.89,880.204 C 1127.51,880.056 1127.07,879.981 1126.57,879.981 C 1126.3,879.981 1126.03,880.009 1125.75,880.064 C 1125.47,880.12 1125.2,880.198 1124.94,880.299 C 1124.68,880.401 1124.43,880.521 1124.2,880.659 C 1123.97,880.798 1123.77,880.953 1123.6,881.123 L 1124.19,882.063 C 1124.24,882.134 1124.3,882.192 1124.38,882.236 C 1124.46,882.279 1124.54,882.301 1124.64,882.301 C 1124.75,882.301 1124.87,882.263 1125,882.188 C 1125.12,882.113 1125.25,882.029 1125.41,881.938 C 1125.56,881.847 1125.73,881.764 1125.93,881.688 C 1126.13,881.613 1126.36,881.575 1126.63,881.575 C 1127,881.575 1127.28,881.656 1127.48,881.816 C 1127.69,881.977 1127.79,882.232 1127.79,882.58 C 1127.79,882.783 1127.73,882.947 1127.62,883.074 C 1127.51,883.201 1127.36,883.306 1127.18,883.389 C 1127,883.473 1126.8,883.546 1126.57,883.609 C 1126.34,883.673 1126.1,883.743 1125.86,883.821 C 1125.62,883.898 1125.38,883.993 1125.15,884.106 C 1124.92,884.219 1124.72,884.368 1124.54,884.552 C 1124.36,884.737 1124.21,884.967 1124.1,885.242 C 1123.99,885.518 1123.93,885.858 1123.93,886.262 C 1123.93,886.587 1124,886.905 1124.13,887.214 C 1124.26,887.523 1124.45,887.799 1124.71,888.041 C 1124.96,888.282 1125.27,888.476 1125.64,888.621 C 1126.01,888.765 1126.43,888.838 1126.91,888.838 C 1127.17,888.838 1127.43,888.817 1127.68,888.775 C 1127.93,888.734 1128.17,888.672 1128.4,888.591 C 1128.63,888.509 1128.84,888.412 1129.03,888.299 C 1129.23,888.186 1129.41,888.058 1129.56,887.915 L 1129.06,886.982 Z" marker-start="none" marker-end="none"/>
     <path d="M 1139.23,884.412 C 1139.23,883.786 1139.12,883.203 1138.9,882.664 C 1138.69,882.125 1138.38,881.656 1137.99,881.257 C 1137.6,880.859 1137.13,880.546 1136.57,880.32 C 1136.02,880.094 1135.41,879.981 1134.73,879.981 C 1134.06,879.981 1133.44,880.094 1132.89,880.32 C 1132.33,880.546 1131.86,880.859 1131.46,881.257 C 1131.07,881.656 1130.77,882.125 1130.55,882.664 C 1130.33,883.203 1130.23,883.786 1130.23,884.412 C 1130.23,885.039 1130.33,885.622 1130.55,886.161 C 1130.77,886.7 1131.07,887.168 1131.46,887.565 C 1131.86,887.961 1132.33,888.273 1132.89,888.499 C 1133.44,888.725 1134.06,888.838 1134.73,888.838 C 1135.41,888.838 1136.02,888.724 1136.57,888.496 C 1137.13,888.268 1137.6,887.955 1137.99,887.559 C 1138.38,887.162 1138.69,886.694 1138.9,886.155 C 1139.12,885.616 1139.23,885.035 1139.23,884.412 Z M 1137.17,884.412 C 1137.17,884.84 1137.12,885.226 1137,885.569 C 1136.89,885.911 1136.73,886.202 1136.53,886.44 C 1136.32,886.677 1136.06,886.86 1135.76,886.986 C 1135.46,887.113 1135.12,887.177 1134.73,887.177 C 1134.34,887.177 1134,887.113 1133.69,886.986 C 1133.39,886.86 1133.14,886.677 1132.93,886.44 C 1132.72,886.202 1132.56,885.911 1132.45,885.569 C 1132.34,885.226 1132.28,884.84 1132.28,884.412 C 1132.28,883.98 1132.34,883.593 1132.45,883.25 C 1132.56,882.907 1132.72,882.617 1132.93,882.379 C 1133.14,882.141 1133.39,881.96 1133.69,881.835 C 1134,881.71 1134.34,881.648 1134.73,881.648 C 1135.12,881.648 1135.46,881.71 1135.76,881.835 C 1136.06,881.96 1136.32,882.141 1136.53,882.379 C 1136.73,882.617 1136.89,882.907 1137,883.25 C 1137.12,883.593 1137.17,883.98 1137.17,884.412 Z" marker-start="none" marker-end="none"/>
    </g>
    <g id="Group_3">
     <path d="M 1085.82,874.477 L 1085.82,872.883 L 1083.38,872.883 L 1083.38,865.81 L 1081.37,865.81 L 1081.37,872.883 L 1078.93,872.883 L 1078.93,874.477 L 1085.82,874.477 Z" marker-start="none" marker-end="none"/>
     <path d="M 1094.85,870.144 C 1094.85,869.518 1094.74,868.935 1094.53,868.396 C 1094.31,867.857 1094.01,867.388 1093.61,866.989 C 1093.22,866.591 1092.75,866.278 1092.19,866.052 C 1091.64,865.826 1091.03,865.713 1090.36,865.713 C 1089.68,865.713 1089.07,865.826 1088.51,866.052 C 1087.96,866.278 1087.48,866.591 1087.09,866.989 C 1086.69,867.388 1086.39,867.857 1086.17,868.396 C 1085.95,868.935 1085.85,869.518 1085.85,870.144 C 1085.85,870.771 1085.95,871.354 1086.17,871.893 C 1086.39,872.432 1086.69,872.9 1087.09,873.297 C 1087.48,873.693 1087.96,874.005 1088.51,874.231 C 1089.07,874.457 1089.68,874.57 1090.36,874.57 C 1091.03,874.57 1091.64,874.456 1092.19,874.228 C 1092.75,874 1093.22,873.687 1093.61,873.291 C 1094.01,872.894 1094.31,872.426 1094.53,871.887 C 1094.74,871.348 1094.85,870.767 1094.85,870.144 Z M 1092.79,870.144 C 1092.79,870.572 1092.74,870.958 1092.63,871.301 C 1092.52,871.643 1092.36,871.934 1092.15,872.172 C 1091.94,872.409 1091.68,872.592 1091.38,872.718 C 1091.08,872.845 1090.74,872.909 1090.36,872.909 C 1089.97,872.909 1089.62,872.845 1089.32,872.718 C 1089.01,872.592 1088.76,872.409 1088.55,872.172 C 1088.34,871.934 1088.18,871.643 1088.07,871.301 C 1087.96,870.958 1087.91,870.572 1087.91,870.144 C 1087.91,869.712 1087.96,869.325 1088.07,868.982 C 1088.18,868.639 1088.34,868.349 1088.55,868.111 C 1088.76,867.873 1089.01,867.692 1089.32,867.567 C 1089.62,867.442 1089.97,867.38 1090.36,867.38 C 1090.74,867.38 1091.08,867.442 1091.38,867.567 C 1091.68,867.692 1091.94,867.873 1092.15,868.111 C 1092.36,868.349 1092.52,868.639 1092.63,868.982 C 1092.74,869.325 1092.79,869.712 1092.79,870.144 Z" marker-start="none" marker-end="none"/>
     <path d="M 1100.12,869.015 L 1100.12,865.809 L 1098.11,865.809 L 1098.11,874.474 L 1100.93,874.474 C 1101.55,874.474 1102.09,874.409 1102.53,874.28 C 1102.97,874.151 1103.33,873.972 1103.61,873.742 C 1103.89,873.511 1104.09,873.239 1104.22,872.926 C 1104.35,872.612 1104.41,872.271 1104.41,871.901 C 1104.41,871.62 1104.37,871.354 1104.3,871.104 C 1104.22,870.854 1104.11,870.622 1103.96,870.41 C 1103.81,870.197 1103.63,870.008 1103.41,869.841 C 1103.2,869.675 1102.95,869.538 1102.67,869.43 C 1102.8,869.363 1102.93,869.28 1103.05,869.181 C 1103.16,869.082 1103.26,868.962 1103.35,868.819 L 1105.19,865.809 L 1103.38,865.809 C 1103.04,865.809 1102.8,865.936 1102.65,866.19 L 1101.21,868.705 C 1101.15,868.816 1101.07,868.896 1100.99,868.943 C 1100.9,868.991 1100.78,869.015 1100.63,869.015 L 1100.12,869.015 Z M 1100.12,870.4 L 1100.93,870.4 C 1101.2,870.4 1101.43,870.435 1101.62,870.504 C 1101.82,870.573 1101.97,870.67 1102.1,870.793 C 1102.22,870.915 1102.31,871.059 1102.36,871.224 C 1102.42,871.388 1102.45,871.566 1102.45,871.756 C 1102.45,872.137 1102.32,872.434 1102.08,872.648 C 1101.83,872.863 1101.44,872.97 1100.93,872.97 L 1100.12,872.97 L 1100.12,870.4 Z" marker-start="none" marker-end="none"/>
     <path d="M 1111.59,874.477 L 1111.59,872.929 L 1108.04,872.929 L 1108.04,870.905 L 1110.76,870.905 L 1110.76,869.418 L 1108.04,869.418 L 1108.04,867.357 L 1111.59,867.357 L 1111.59,865.809 L 1106.02,865.809 L 1106.02,874.477 L 1111.59,874.477 Z" marker-start="none" marker-end="none"/>
     <path d="M 1120.6,870.146 C 1120.6,869.519 1120.49,868.941 1120.27,868.412 C 1120.06,867.882 1119.75,867.424 1119.36,867.038 C 1118.97,866.651 1118.5,866.349 1117.94,866.133 C 1117.39,865.917 1116.78,865.809 1116.1,865.809 L 1112.74,865.809 L 1112.74,874.477 L 1116.1,874.477 C 1116.78,874.477 1117.39,874.368 1117.94,874.15 C 1118.5,873.931 1118.97,873.63 1119.36,873.245 C 1119.75,872.861 1120.06,872.403 1120.27,871.874 C 1120.49,871.345 1120.6,870.769 1120.6,870.146 Z M 1118.54,870.146 C 1118.54,870.574 1118.48,870.961 1118.37,871.305 C 1118.26,871.65 1118.1,871.943 1117.89,872.183 C 1117.69,872.422 1117.43,872.607 1117.13,872.736 C 1116.83,872.865 1116.49,872.929 1116.1,872.929 L 1114.76,872.929 L 1114.76,867.357 L 1116.1,867.357 C 1116.49,867.357 1116.83,867.421 1117.13,867.55 C 1117.43,867.679 1117.69,867.863 1117.89,868.103 C 1118.1,868.343 1118.26,868.635 1118.37,868.98 C 1118.48,869.325 1118.54,869.714 1118.54,870.146 Z" marker-start="none" marker-end="none"/>
     <path d="M 1125.17,867.397 C 1125.44,867.397 1125.68,867.442 1125.89,867.531 C 1126.1,867.62 1126.28,867.748 1126.43,867.915 C 1126.57,868.081 1126.69,868.285 1126.76,868.524 C 1126.84,868.764 1126.88,869.037 1126.88,869.342 L 1126.88,874.475 L 1128.89,874.475 L 1128.89,869.342 C 1128.89,868.81 1128.8,868.323 1128.63,867.878 C 1128.46,867.434 1128.21,867.052 1127.89,866.73 C 1127.57,866.409 1127.18,866.159 1126.72,865.981 C 1126.26,865.802 1125.74,865.713 1125.17,865.713 C 1124.59,865.713 1124.07,865.802 1123.61,865.981 C 1123.15,866.159 1122.76,866.409 1122.44,866.73 C 1122.12,867.052 1121.87,867.434 1121.7,867.878 C 1121.53,868.323 1121.44,868.81 1121.44,869.342 L 1121.44,874.475 L 1123.45,874.475 L 1123.45,869.348 C 1123.45,869.043 1123.49,868.77 1123.57,868.53 C 1123.65,868.291 1123.76,868.086 1123.91,867.918 C 1124.05,867.749 1124.23,867.62 1124.44,867.531 C 1124.66,867.442 1124.9,867.397 1125.17,867.397 Z" marker-start="none" marker-end="none"/>
     <path d="M 1136.02,868.049 C 1136.07,868.049 1136.12,868.04 1136.16,868.022 C 1136.21,868.004 1136.26,867.973 1136.3,867.928 L 1137.1,867.072 C 1136.75,866.623 1136.31,866.284 1135.79,866.056 C 1135.26,865.827 1134.64,865.713 1133.92,865.713 C 1133.26,865.713 1132.67,865.825 1132.15,866.049 C 1131.63,866.273 1131.19,866.583 1130.83,866.977 C 1130.46,867.372 1130.18,867.84 1129.99,868.381 C 1129.8,868.922 1129.7,869.51 1129.7,870.144 C 1129.7,870.791 1129.81,871.385 1130.03,871.926 C 1130.25,872.467 1130.57,872.934 1130.96,873.327 C 1131.36,873.719 1131.84,874.024 1132.39,874.243 C 1132.95,874.461 1133.56,874.57 1134.23,874.57 C 1134.56,874.57 1134.86,874.541 1135.15,874.483 C 1135.44,874.426 1135.71,874.346 1135.96,874.245 C 1136.2,874.144 1136.43,874.023 1136.65,873.882 C 1136.86,873.741 1137.04,873.585 1137.2,873.414 L 1136.53,872.504 C 1136.48,872.449 1136.43,872.398 1136.37,872.353 C 1136.31,872.307 1136.23,872.284 1136.12,872.284 C 1136.05,872.284 1135.98,872.3 1135.92,872.332 C 1135.86,872.363 1135.79,872.402 1135.72,872.448 C 1135.65,872.493 1135.57,872.543 1135.48,872.596 C 1135.4,872.65 1135.3,872.699 1135.18,872.745 C 1135.06,872.791 1134.93,872.829 1134.77,872.861 C 1134.61,872.893 1134.43,872.909 1134.22,872.909 C 1133.85,872.909 1133.52,872.844 1133.22,872.715 C 1132.92,872.586 1132.66,872.402 1132.44,872.162 C 1132.23,871.922 1132.06,871.632 1131.94,871.291 C 1131.82,870.95 1131.76,870.567 1131.76,870.143 C 1131.76,869.699 1131.82,869.304 1131.94,868.959 C 1132.06,868.614 1132.22,868.324 1132.43,868.088 C 1132.64,867.852 1132.88,867.673 1133.16,867.55 C 1133.44,867.427 1133.74,867.365 1134.05,867.365 C 1134.24,867.365 1134.4,867.374 1134.55,867.392 C 1134.7,867.41 1134.84,867.441 1134.97,867.484 C 1135.1,867.528 1135.22,867.584 1135.34,867.654 C 1135.46,867.723 1135.58,867.809 1135.69,867.913 C 1135.74,867.952 1135.79,867.985 1135.85,868.011 C 1135.9,868.037 1135.96,868.049 1136.02,868.049 Z" marker-start="none" marker-end="none"/>
     <path d="M 1143.59,874.477 L 1143.59,872.929 L 1140.04,872.929 L 1140.04,870.905 L 1142.76,870.905 L 1142.76,869.418 L 1140.04,869.418 L 1140.04,867.357 L 1143.59,867.357 L 1143.59,865.809 L 1138.02,865.809 L 1138.02,874.477 L 1143.59,874.477 Z" marker-start="none" marker-end="none"/>
    </g>
    <g id="Group_4">
     <path d="M 1086.04,860.209 L 1086.04,858.661 L 1082.49,858.661 L 1082.49,856.637 L 1085.21,856.637 L 1085.21,855.15 L 1082.49,855.15 L 1082.49,853.089 L 1086.04,853.089 L 1086.04,851.541 L 1080.46,851.541 L 1080.46,860.209 L 1086.04,860.209 Z" marker-start="none" marker-end="none"/>
     <path d="M 1091.61,855.476 C 1091.69,855.324 1091.77,855.167 1091.84,855.003 C 1091.92,854.839 1091.99,854.672 1092.05,854.5 C 1092.12,854.676 1092.19,854.846 1092.27,855.012 C 1092.34,855.178 1092.42,855.338 1092.5,855.494 L 1094.72,859.901 C 1094.76,859.977 1094.8,860.035 1094.85,860.077 C 1094.89,860.119 1094.93,860.15 1094.99,860.17 C 1095.04,860.19 1095.1,860.2 1095.16,860.2 C 1095.23,860.2 1095.3,860.2 1095.39,860.2 L 1096.92,860.2 L 1096.92,851.541 L 1095.15,851.541 L 1095.15,856.46 C 1095.15,856.698 1095.16,856.956 1095.19,857.234 L 1092.89,852.849 C 1092.82,852.712 1092.72,852.609 1092.6,852.538 C 1092.48,852.468 1092.35,852.433 1092.19,852.433 L 1091.92,852.433 C 1091.76,852.433 1091.62,852.468 1091.5,852.538 C 1091.38,852.609 1091.29,852.712 1091.21,852.849 L 1088.91,857.24 C 1088.92,857.103 1088.93,856.967 1088.94,856.832 C 1088.95,856.697 1088.95,856.573 1088.95,856.46 L 1088.95,851.541 L 1087.18,851.541 L 1087.18,860.2 L 1088.72,860.2 C 1088.8,860.2 1088.88,860.2 1088.95,860.2 C 1089.01,860.2 1089.07,860.19 1089.12,860.17 C 1089.17,860.15 1089.22,860.119 1089.26,860.077 C 1089.3,860.035 1089.34,859.977 1089.38,859.901 L 1091.61,855.476 Z" marker-start="none" marker-end="none"/>
     <path d="M 1100.55,851.541 L 1098.53,851.541 L 1098.53,860.209 L 1100.55,860.209 L 1100.55,851.541 Z" marker-start="none" marker-end="none"/>
     <path d="M 1106.98,858.446 C 1106.92,858.35 1106.86,858.279 1106.8,858.231 C 1106.73,858.184 1106.65,858.16 1106.54,858.16 C 1106.45,858.16 1106.35,858.189 1106.25,858.246 C 1106.14,858.304 1106.03,858.368 1105.89,858.44 C 1105.76,858.511 1105.61,858.575 1105.44,858.633 C 1105.27,858.69 1105.07,858.719 1104.86,858.719 C 1104.48,858.719 1104.2,858.639 1104.01,858.478 C 1103.83,858.318 1103.74,858.101 1103.74,857.827 C 1103.74,857.652 1103.79,857.508 1103.9,857.393 C 1104.01,857.278 1104.16,857.179 1104.34,857.095 C 1104.52,857.012 1104.73,856.936 1104.96,856.866 C 1105.19,856.797 1105.43,856.72 1105.67,856.635 C 1105.91,856.549 1106.15,856.449 1106.38,856.334 C 1106.61,856.219 1106.82,856.072 1107,855.894 C 1107.18,855.716 1107.33,855.498 1107.44,855.243 C 1107.55,854.987 1107.6,854.679 1107.6,854.318 C 1107.6,853.917 1107.53,853.543 1107.39,853.194 C 1107.26,852.845 1107.05,852.541 1106.79,852.281 C 1106.53,852.021 1106.2,851.817 1105.82,851.668 C 1105.43,851.52 1104.99,851.445 1104.5,851.445 C 1104.23,851.445 1103.95,851.473 1103.67,851.528 C 1103.4,851.584 1103.12,851.662 1102.86,851.763 C 1102.6,851.865 1102.36,851.985 1102.13,852.123 C 1101.9,852.262 1101.69,852.417 1101.53,852.587 L 1102.12,853.527 C 1102.16,853.598 1102.22,853.656 1102.3,853.7 C 1102.38,853.743 1102.47,853.765 1102.56,853.765 C 1102.68,853.765 1102.8,853.727 1102.92,853.652 C 1103.04,853.577 1103.18,853.493 1103.33,853.402 C 1103.48,853.311 1103.66,853.228 1103.86,853.152 C 1104.05,853.077 1104.29,853.039 1104.56,853.039 C 1104.92,853.039 1105.21,853.12 1105.41,853.28 C 1105.61,853.441 1105.71,853.696 1105.71,854.044 C 1105.71,854.247 1105.66,854.411 1105.55,854.538 C 1105.43,854.665 1105.29,854.77 1105.11,854.853 C 1104.93,854.937 1104.72,855.01 1104.49,855.073 C 1104.26,855.137 1104.03,855.207 1103.78,855.285 C 1103.54,855.362 1103.31,855.457 1103.08,855.57 C 1102.85,855.683 1102.64,855.832 1102.46,856.016 C 1102.28,856.201 1102.14,856.431 1102.02,856.706 C 1101.91,856.982 1101.86,857.322 1101.86,857.726 C 1101.86,858.051 1101.92,858.369 1102.05,858.678 C 1102.18,858.987 1102.38,859.263 1102.63,859.505 C 1102.88,859.746 1103.2,859.94 1103.56,860.085 C 1103.93,860.229 1104.36,860.302 1104.83,860.302 C 1105.1,860.302 1105.36,860.281 1105.61,860.239 C 1105.86,860.198 1106.1,860.136 1106.32,860.055 C 1106.55,859.973 1106.76,859.876 1106.96,859.763 C 1107.15,859.65 1107.33,859.522 1107.48,859.379 L 1106.98,858.446 Z" marker-start="none" marker-end="none"/>
     <path d="M 1113.43,858.446 C 1113.37,858.35 1113.31,858.279 1113.24,858.231 C 1113.18,858.184 1113.09,858.16 1112.99,858.16 C 1112.9,858.16 1112.8,858.189 1112.69,858.246 C 1112.59,858.304 1112.47,858.368 1112.34,858.44 C 1112.21,858.511 1112.05,858.575 1111.88,858.633 C 1111.71,858.69 1111.52,858.719 1111.3,858.719 C 1110.92,858.719 1110.64,858.639 1110.46,858.478 C 1110.28,858.318 1110.18,858.101 1110.18,857.827 C 1110.18,857.652 1110.24,857.508 1110.35,857.393 C 1110.46,857.278 1110.61,857.179 1110.79,857.095 C 1110.97,857.012 1111.17,856.936 1111.41,856.866 C 1111.64,856.797 1111.87,856.72 1112.12,856.635 C 1112.36,856.549 1112.59,856.449 1112.83,856.334 C 1113.06,856.219 1113.26,856.072 1113.44,855.894 C 1113.63,855.716 1113.77,855.498 1113.88,855.243 C 1113.99,854.987 1114.05,854.679 1114.05,854.318 C 1114.05,853.917 1113.98,853.543 1113.84,853.194 C 1113.7,852.845 1113.5,852.541 1113.24,852.281 C 1112.97,852.021 1112.65,851.817 1112.26,851.668 C 1111.88,851.52 1111.44,851.445 1110.94,851.445 C 1110.67,851.445 1110.4,851.473 1110.12,851.528 C 1109.84,851.584 1109.57,851.662 1109.31,851.763 C 1109.05,851.865 1108.8,851.985 1108.57,852.123 C 1108.34,852.262 1108.14,852.417 1107.97,852.587 L 1108.57,853.527 C 1108.61,853.598 1108.67,853.656 1108.75,853.7 C 1108.83,853.743 1108.91,853.765 1109.01,853.765 C 1109.12,853.765 1109.24,853.727 1109.37,853.652 C 1109.49,853.577 1109.62,853.493 1109.78,853.402 C 1109.93,853.311 1110.1,853.228 1110.3,853.152 C 1110.5,853.077 1110.73,853.039 1111,853.039 C 1111.37,853.039 1111.65,853.12 1111.85,853.28 C 1112.06,853.441 1112.16,853.696 1112.16,854.044 C 1112.16,854.247 1112.1,854.411 1111.99,854.538 C 1111.88,854.665 1111.73,854.77 1111.55,854.853 C 1111.37,854.937 1111.17,855.01 1110.94,855.073 C 1110.71,855.137 1110.47,855.207 1110.23,855.285 C 1109.99,855.362 1109.75,855.457 1109.52,855.57 C 1109.29,855.683 1109.09,855.832 1108.91,856.016 C 1108.73,856.201 1108.58,856.431 1108.47,856.706 C 1108.36,856.982 1108.3,857.322 1108.3,857.726 C 1108.3,858.051 1108.37,858.369 1108.5,858.678 C 1108.63,858.987 1108.82,859.263 1109.08,859.505 C 1109.33,859.746 1109.64,859.94 1110.01,860.085 C 1110.38,860.229 1110.8,860.302 1111.28,860.302 C 1111.54,860.302 1111.8,860.281 1112.05,860.239 C 1112.31,860.198 1112.54,860.136 1112.77,860.055 C 1113,859.973 1113.21,859.876 1113.4,859.763 C 1113.6,859.65 1113.78,859.522 1113.93,859.379 L 1113.43,858.446 Z" marker-start="none" marker-end="none"/>
     <path d="M 1117.25,851.541 L 1115.23,851.541 L 1115.23,860.209 L 1117.25,860.209 L 1117.25,851.541 Z" marker-start="none" marker-end="none"/>
     <path d="M 1127.4,855.876 C 1127.4,855.25 1127.3,854.667 1127.08,854.128 C 1126.86,853.589 1126.56,853.12 1126.17,852.721 C 1125.77,852.323 1125.3,852.01 1124.75,851.784 C 1124.19,851.558 1123.58,851.445 1122.91,851.445 C 1122.23,851.445 1121.62,851.558 1121.06,851.784 C 1120.51,852.01 1120.03,852.323 1119.64,852.721 C 1119.24,853.12 1118.94,853.589 1118.72,854.128 C 1118.51,854.667 1118.4,855.25 1118.4,855.876 C 1118.4,856.503 1118.51,857.086 1118.72,857.625 C 1118.94,858.164 1119.24,858.632 1119.64,859.029 C 1120.03,859.425 1120.51,859.737 1121.06,859.963 C 1121.62,860.189 1122.23,860.302 1122.91,860.302 C 1123.58,860.302 1124.19,860.188 1124.75,859.96 C 1125.3,859.732 1125.77,859.419 1126.17,859.023 C 1126.56,858.626 1126.86,858.158 1127.08,857.619 C 1127.3,857.08 1127.4,856.499 1127.4,855.876 Z M 1125.35,855.876 C 1125.35,856.304 1125.29,856.69 1125.18,857.033 C 1125.07,857.375 1124.91,857.666 1124.7,857.904 C 1124.49,858.141 1124.24,858.324 1123.94,858.45 C 1123.63,858.577 1123.29,858.641 1122.91,858.641 C 1122.52,858.641 1122.17,858.577 1121.87,858.45 C 1121.57,858.324 1121.31,858.141 1121.1,857.904 C 1120.89,857.666 1120.73,857.375 1120.62,857.033 C 1120.51,856.69 1120.46,856.304 1120.46,855.876 C 1120.46,855.444 1120.51,855.057 1120.62,854.714 C 1120.73,854.371 1120.89,854.081 1121.1,853.843 C 1121.31,853.605 1121.57,853.424 1121.87,853.299 C 1122.17,853.174 1122.52,853.112 1122.91,853.112 C 1123.29,853.112 1123.63,853.174 1123.94,853.299 C 1124.24,853.424 1124.49,853.605 1124.7,853.843 C 1124.91,854.081 1125.07,854.371 1125.18,854.714 C 1125.29,855.057 1125.35,855.444 1125.35,855.876 Z" marker-start="none" marker-end="none"/>
     <path d="M 1129.42,860.209 C 1129.51,860.209 1129.58,860.205 1129.64,860.197 C 1129.7,860.189 1129.76,860.174 1129.8,860.152 C 1129.85,860.13 1129.9,860.1 1129.94,860.06 C 1129.98,860.02 1130.03,859.967 1130.09,859.9 L 1134.2,854.696 C 1134.19,854.862 1134.18,855.024 1134.17,855.181 C 1134.16,855.337 1134.16,855.485 1134.16,855.624 L 1134.16,860.209 L 1135.93,860.209 L 1135.93,851.541 L 1134.88,851.541 C 1134.73,851.541 1134.6,851.565 1134.49,851.612 C 1134.38,851.66 1134.28,851.747 1134.18,851.874 L 1130.09,857.036 C 1130.11,856.885 1130.12,856.738 1130.12,856.593 C 1130.13,856.448 1130.14,856.312 1130.14,856.186 L 1130.14,851.541 L 1128.36,851.541 L 1128.36,860.209 L 1129.42,860.209 Z" marker-start="none" marker-end="none"/>
     <path d="M 1142.18,858.446 C 1142.12,858.35 1142.06,858.279 1142,858.231 C 1141.93,858.184 1141.85,858.16 1141.74,858.16 C 1141.65,858.16 1141.55,858.189 1141.45,858.246 C 1141.34,858.304 1141.22,858.368 1141.09,858.44 C 1140.96,858.511 1140.81,858.575 1140.64,858.633 C 1140.47,858.69 1140.27,858.719 1140.05,858.719 C 1139.68,858.719 1139.4,858.639 1139.21,858.478 C 1139.03,858.318 1138.94,858.101 1138.94,857.827 C 1138.94,857.652 1138.99,857.508 1139.1,857.393 C 1139.21,857.278 1139.36,857.179 1139.54,857.095 C 1139.72,857.012 1139.93,856.936 1140.16,856.866 C 1140.39,856.797 1140.63,856.72 1140.87,856.635 C 1141.11,856.549 1141.35,856.449 1141.58,856.334 C 1141.81,856.219 1142.02,856.072 1142.2,855.894 C 1142.38,855.716 1142.52,855.498 1142.64,855.243 C 1142.75,854.987 1142.8,854.679 1142.8,854.318 C 1142.8,853.917 1142.73,853.543 1142.59,853.194 C 1142.45,852.845 1142.25,852.541 1141.99,852.281 C 1141.73,852.021 1141.4,851.817 1141.01,851.668 C 1140.63,851.52 1140.19,851.445 1139.7,851.445 C 1139.43,851.445 1139.15,851.473 1138.87,851.528 C 1138.59,851.584 1138.32,851.662 1138.06,851.763 C 1137.8,851.865 1137.55,851.985 1137.32,852.123 C 1137.09,852.262 1136.89,852.417 1136.72,852.587 L 1137.32,853.527 C 1137.36,853.598 1137.42,853.656 1137.5,853.7 C 1137.58,853.743 1137.67,853.765 1137.76,853.765 C 1137.88,853.765 1138,853.727 1138.12,853.652 C 1138.24,853.577 1138.38,853.493 1138.53,853.402 C 1138.68,853.311 1138.86,853.228 1139.06,853.152 C 1139.25,853.077 1139.49,853.039 1139.76,853.039 C 1140.12,853.039 1140.41,853.12 1140.61,853.28 C 1140.81,853.441 1140.91,853.696 1140.91,854.044 C 1140.91,854.247 1140.86,854.411 1140.74,854.538 C 1140.63,854.665 1140.49,854.77 1140.31,854.853 C 1140.13,854.937 1139.92,855.01 1139.69,855.073 C 1139.46,855.137 1139.23,855.207 1138.98,855.285 C 1138.74,855.362 1138.51,855.457 1138.28,855.57 C 1138.05,855.683 1137.84,855.832 1137.66,856.016 C 1137.48,856.201 1137.33,856.431 1137.22,856.706 C 1137.11,856.982 1137.06,857.322 1137.06,857.726 C 1137.06,858.051 1137.12,858.369 1137.25,858.678 C 1137.38,858.987 1137.58,859.263 1137.83,859.505 C 1138.08,859.746 1138.4,859.94 1138.76,860.085 C 1139.13,860.229 1139.55,860.302 1140.03,860.302 C 1140.3,860.302 1140.55,860.281 1140.81,860.239 C 1141.06,860.198 1141.3,860.136 1141.52,860.055 C 1141.75,859.973 1141.96,859.876 1142.16,859.763 C 1142.35,859.65 1142.53,859.522 1142.68,859.379 L 1142.18,858.446 Z" marker-start="none" marker-end="none"/>
    </g>
   </g>
  </g>
 </g>
</svg>
