<?xml version="1.0" standalone="no"?>
<!DOCTYPE svg PUBLIC "-//W3C//DTD SVG 1.1//EN" "http://www.w3.org/Graphics/SVG/1.1/DTD/svg11.dtd">
<!--Generator: Xara Designer (www.xara.com), SVG filter version: 6.6.0.0-->
<svg fill="none" fill-rule="evenodd" stroke="black" stroke-width="0.501" stroke-linejoin="bevel" stroke-miterlimit="10" font-family="Times New Roman" font-size="16" style="font-variant-ligatures:none" xmlns:xlink="http://www.w3.org/1999/xlink" xmlns="http://www.w3.org/2000/svg" version="1.1" overflow="visible" width="107.718pt" height="107.72pt" viewBox="927.761 -613.22 107.718 107.72">
 <defs>
	</defs>
 <g id="Grid 36x36mm" transform="scale(1 -1)">
  <g id="Group" stroke-linejoin="miter" stroke="none">
   <path d="M 927.761,520.714 L 927.761,598.006 C 927.761,606.404 934.576,613.22 942.973,613.22 L 981.617,613.218 L 981.61,613.218 L 981.62,559.36 L 981.63,613.218 L 981.623,613.218 L 1020.27,613.22 C 1028.66,613.22 1035.48,606.404 1035.48,598.006 L 1035.48,520.714 C 1035.48,512.316 1028.66,505.5 1020.27,505.5 L 981.623,505.502 L 981.63,505.502 L 981.62,559.36 L 981.61,505.502 L 981.617,505.502 L 942.973,505.5 C 934.576,505.5 927.761,512.316 927.761,520.714 Z" fill="#ffffff" stroke-width="0.802" marker-start="none" marker-end="none"/>
   <path d="M 928.61,521.442 L 928.61,597.278 C 928.61,605.609 935.372,612.371 943.702,612.371 L 1019.54,612.371 C 1027.87,612.371 1034.63,605.609 1034.63,597.278 L 1034.63,521.442 C 1034.63,513.111 1027.87,506.349 1019.54,506.349 L 943.702,506.349 C 935.372,506.349 928.61,513.111 928.61,521.442 Z" fill="#e5e5e5" stroke-width="0.801" marker-start="none" marker-end="none"/>
  </g>
  <g id="Group_1" fill-rule="nonzero" stroke-linejoin="round" stroke-linecap="round" stroke="none" stroke-width="0.251" fill="#b2b2b2">
   <g id="Group_2">
    <path d="M 969.122,565.158 L 969.122,562.236 L 967.094,562.236 L 967.094,570.979 L 970.178,570.979 C 970.794,570.979 971.323,570.906 971.765,570.76 C 972.207,570.614 972.571,570.413 972.857,570.157 C 973.143,569.901 973.354,569.599 973.49,569.251 C 973.626,568.903 973.694,568.527 973.694,568.123 C 973.694,567.686 973.624,567.286 973.484,566.922 C 973.344,566.558 973.13,566.246 972.842,565.986 C 972.554,565.726 972.189,565.523 971.747,565.377 C 971.305,565.231 970.782,565.158 970.178,565.158 L 969.122,565.158 Z M 969.122,566.687 L 970.178,566.687 C 970.706,566.687 971.086,566.813 971.318,567.066 C 971.55,567.318 971.666,567.67 971.666,568.123 C 971.666,568.323 971.636,568.505 971.576,568.669 C 971.516,568.833 971.425,568.974 971.303,569.092 C 971.181,569.21 971.027,569.302 970.841,569.366 C 970.655,569.43 970.434,569.462 970.178,569.462 L 969.122,569.462 L 969.122,566.687 Z" marker-start="none" marker-end="none"/>
    <path d="M 976.78,563.854 L 980.02,563.854 L 980.02,562.234 L 974.752,562.234 L 974.752,570.978 L 976.78,570.978 L 976.78,563.854 Z" marker-start="none" marker-end="none"/>
    <path d="M 989.117,562.234 L 987.545,562.234 C 987.369,562.234 987.224,562.275 987.11,562.357 C 986.996,562.439 986.917,562.544 986.873,562.672 L 986.357,564.197 L 983.033,564.197 L 982.517,562.672 C 982.477,562.56 982.399,562.459 982.283,562.369 C 982.167,562.279 982.025,562.234 981.857,562.234 L 980.273,562.234 L 983.657,570.978 L 985.733,570.978 L 989.117,562.234 Z M 983.501,565.577 L 985.889,565.577 L 985.085,567.934 C 985.033,568.084 984.972,568.26 984.902,568.463 C 984.832,568.666 984.763,568.886 984.695,569.122 C 984.631,568.882 984.565,568.659 984.497,568.454 C 984.429,568.25 984.365,568.072 984.305,567.923 L 983.501,565.577 Z" marker-start="none" marker-end="none"/>
    <path d="M 992.979,565.507 L 992.979,562.234 L 990.951,562.234 L 990.951,565.507 L 987.783,570.978 L 989.571,570.978 C 989.747,570.978 989.887,570.936 989.991,570.853 C 990.095,570.769 990.179,570.662 990.243,570.532 L 991.479,567.942 C 991.579,567.734 991.671,567.542 991.755,567.367 C 991.839,567.192 991.913,567.019 991.977,566.848 C 992.037,567.023 992.109,567.198 992.193,567.373 C 992.277,567.548 992.367,567.738 992.463,567.942 L 993.687,570.532 C 993.711,570.585 993.744,570.638 993.786,570.691 C 993.828,570.744 993.876,570.792 993.93,570.834 C 993.984,570.877 994.046,570.912 994.116,570.938 C 994.186,570.965 994.263,570.978 994.347,570.978 L 996.147,570.978 L 992.979,565.507 Z" marker-start="none" marker-end="none"/>
   </g>
   <g id="Group_3">
    <path d="M 973.578,549.303 C 973.858,549.303 974.106,549.326 974.322,549.374 C 974.538,549.421 974.742,549.484 974.934,549.563 L 974.934,550.891 L 974.07,550.891 C 973.942,550.891 973.842,550.925 973.77,550.993 C 973.698,551.061 973.662,551.147 973.662,551.251 L 973.662,552.367 L 976.77,552.367 L 976.77,548.678 C 976.546,548.514 976.313,548.373 976.071,548.254 C 975.829,548.136 975.571,548.039 975.297,547.963 C 975.023,547.887 974.731,547.831 974.421,547.795 C 974.111,547.759 973.778,547.741 973.422,547.741 C 972.782,547.741 972.19,547.854 971.646,548.08 C 971.102,548.307 970.631,548.619 970.233,549.017 C 969.835,549.415 969.523,549.887 969.297,550.433 C 969.071,550.979 968.958,551.572 968.958,552.212 C 968.958,552.864 969.066,553.464 969.282,554.01 C 969.498,554.556 969.807,555.027 970.209,555.423 C 970.611,555.819 971.097,556.127 971.667,556.347 C 972.237,556.567 972.874,556.677 973.578,556.677 C 973.942,556.677 974.284,556.647 974.604,556.587 C 974.924,556.527 975.219,556.445 975.489,556.341 C 975.759,556.237 976.006,556.112 976.23,555.968 C 976.454,555.824 976.654,555.668 976.83,555.499 L 976.242,554.605 C 976.186,554.521 976.119,554.455 976.041,554.407 C 975.963,554.359 975.878,554.335 975.786,554.335 C 975.666,554.335 975.542,554.375 975.414,554.455 C 975.254,554.551 975.103,554.634 974.961,554.704 C 974.819,554.774 974.674,554.831 974.526,554.875 C 974.378,554.919 974.222,554.951 974.058,554.971 C 973.894,554.991 973.71,555.001 973.506,555.001 C 973.126,555.001 972.784,554.934 972.48,554.8 C 972.176,554.666 971.917,554.478 971.703,554.234 C 971.489,553.99 971.324,553.697 971.208,553.355 C 971.092,553.013 971.034,552.632 971.034,552.212 C 971.034,551.748 971.098,551.336 971.226,550.976 C 971.354,550.617 971.531,550.313 971.757,550.065 C 971.983,549.817 972.251,549.628 972.561,549.498 C 972.871,549.368 973.21,549.303 973.578,549.303 Z" marker-start="none" marker-end="none"/>
    <path d="M 983.633,556.583 L 983.633,555.022 L 980.045,555.022 L 980.045,552.98 L 982.793,552.98 L 982.793,551.48 L 980.045,551.48 L 980.045,549.4 L 983.633,549.4 L 983.633,547.838 L 978.005,547.838 L 978.005,556.583 L 983.633,556.583 Z" marker-start="none" marker-end="none"/>
    <path d="M 993.412,552.212 C 993.412,551.58 993.303,550.992 993.085,550.448 C 992.867,549.904 992.56,549.431 992.164,549.029 C 991.768,548.627 991.291,548.312 990.733,548.083 C 990.175,547.855 989.556,547.741 988.876,547.741 C 988.196,547.741 987.576,547.855 987.016,548.083 C 986.456,548.312 985.977,548.627 985.579,549.029 C 985.181,549.431 984.873,549.904 984.655,550.448 C 984.437,550.992 984.328,551.58 984.328,552.212 C 984.328,552.844 984.437,553.433 984.655,553.977 C 984.873,554.521 985.181,554.993 985.579,555.393 C 985.977,555.793 986.456,556.107 987.016,556.335 C 987.576,556.563 988.196,556.677 988.876,556.677 C 989.556,556.677 990.175,556.562 990.733,556.332 C 991.291,556.102 991.768,555.787 992.164,555.387 C 992.56,554.987 992.867,554.515 993.085,553.971 C 993.303,553.427 993.412,552.84 993.412,552.212 Z M 991.336,552.212 C 991.336,552.644 991.28,553.033 991.168,553.379 C 991.056,553.725 990.895,554.018 990.685,554.258 C 990.475,554.498 990.218,554.681 989.914,554.809 C 989.61,554.937 989.264,555.001 988.876,555.001 C 988.484,555.001 988.135,554.937 987.829,554.809 C 987.523,554.681 987.265,554.498 987.055,554.258 C 986.845,554.018 986.684,553.725 986.572,553.379 C 986.46,553.033 986.404,552.644 986.404,552.212 C 986.404,551.776 986.46,551.385 986.572,551.04 C 986.684,550.694 986.845,550.401 987.055,550.161 C 987.265,549.921 987.523,549.738 987.829,549.612 C 988.135,549.486 988.484,549.423 988.876,549.423 C 989.264,549.423 989.61,549.486 989.914,549.612 C 990.218,549.738 990.475,549.921 990.685,550.161 C 990.895,550.401 991.056,550.694 991.168,551.04 C 991.28,551.385 991.336,551.776 991.336,552.212 Z" marker-start="none" marker-end="none"/>
   </g>
  </g>
 </g>
</svg>
