<?xml version="1.0" standalone="no"?>
<!DOCTYPE svg PUBLIC "-//W3C//DTD SVG 1.1//EN" "http://www.w3.org/Graphics/SVG/1.1/DTD/svg11.dtd">
<!--Generator: Xara Designer (www.xara.com), SVG filter version: 6.6.0.0-->
<svg fill="none" fill-rule="evenodd" stroke="black" stroke-width="0.501" stroke-linejoin="bevel" stroke-miterlimit="10" font-family="Times New Roman" font-size="16" style="font-variant-ligatures:none" xmlns:xlink="http://www.w3.org/1999/xlink" xmlns="http://www.w3.org/2000/svg" version="1.1" overflow="visible" width="107.718pt" height="53.866pt" viewBox="930.703 -982.456 107.718 53.866">
 <defs>
	</defs>
 <g id="Grid 36x36mm" transform="scale(1 -1)">
  <path d="M 930.703,943.804 L 930.703,967.242 C 930.703,975.64 937.518,982.456 945.915,982.456 L 1023.21,982.456 C 1031.61,982.456 1038.42,975.64 1038.42,967.242 L 1038.42,943.804 C 1038.42,935.406 1031.61,928.59 1023.21,928.59 L 945.915,928.59 C 937.518,928.59 930.703,935.406 930.703,943.804 Z" stroke="none" fill="#ffffff" stroke-width="0.802" stroke-linejoin="miter" marker-start="none" marker-end="none"/>
  <path d="M 931.552,944.531 L 931.552,966.515 C 931.552,974.846 938.314,981.607 946.643,981.607 L 1022.48,981.607 C 1030.81,981.607 1037.57,974.846 1037.57,966.515 L 1037.57,944.531 C 1037.57,936.2 1030.81,929.439 1022.48,929.439 L 946.643,929.439 C 938.314,929.439 931.552,936.2 931.552,944.531 Z" stroke="none" fill="#00bf02" stroke-width="0.8" stroke-linejoin="miter" marker-start="none" marker-end="none"/>
  <g id="Group" fill="#ffffff" stroke="none" fill-rule="nonzero" stroke-linejoin="round" stroke-linecap="round" stroke-width="0.251">
   <g id="Group_1">
    <path d="M 958.63,954.076 L 958.63,951.154 L 956.602,951.154 L 956.602,959.897 L 959.686,959.897 C 960.302,959.897 960.831,959.824 961.273,959.678 C 961.715,959.532 962.079,959.331 962.365,959.075 C 962.651,958.819 962.862,958.517 962.998,958.169 C 963.134,957.821 963.202,957.445 963.202,957.041 C 963.202,956.604 963.132,956.204 962.992,955.84 C 962.852,955.476 962.638,955.164 962.35,954.904 C 962.062,954.644 961.697,954.441 961.255,954.295 C 960.813,954.149 960.29,954.076 959.686,954.076 L 958.63,954.076 Z M 958.63,955.605 L 959.686,955.605 C 960.214,955.605 960.594,955.731 960.826,955.984 C 961.058,956.236 961.174,956.588 961.174,957.041 C 961.174,957.241 961.144,957.423 961.084,957.587 C 961.024,957.751 960.933,957.892 960.811,958.01 C 960.689,958.128 960.535,958.22 960.349,958.284 C 960.163,958.348 959.942,958.38 959.686,958.38 L 958.63,958.38 L 958.63,955.605 Z" marker-start="none" marker-end="none"/>
    <path d="M 966.288,952.772 L 969.528,952.772 L 969.528,951.152 L 964.26,951.152 L 964.26,959.896 L 966.288,959.896 L 966.288,952.772 Z" marker-start="none" marker-end="none"/>
    <path d="M 978.625,951.152 L 977.053,951.152 C 976.877,951.152 976.732,951.193 976.618,951.275 C 976.504,951.357 976.425,951.462 976.381,951.59 L 975.865,953.115 L 972.541,953.115 L 972.025,951.59 C 971.985,951.478 971.907,951.377 971.791,951.287 C 971.675,951.197 971.533,951.152 971.365,951.152 L 969.781,951.152 L 973.165,959.896 L 975.241,959.896 L 978.625,951.152 Z M 973.009,954.495 L 975.397,954.495 L 974.593,956.852 C 974.541,957.002 974.48,957.178 974.41,957.381 C 974.34,957.584 974.271,957.804 974.203,958.04 C 974.139,957.8 974.073,957.577 974.005,957.372 C 973.937,957.168 973.873,956.99 973.813,956.841 L 973.009,954.495 Z" marker-start="none" marker-end="none"/>
    <path d="M 982.487,954.425 L 982.487,951.152 L 980.459,951.152 L 980.459,954.425 L 977.291,959.896 L 979.079,959.896 C 979.255,959.896 979.395,959.854 979.499,959.771 C 979.603,959.687 979.687,959.58 979.751,959.45 L 980.987,956.86 C 981.087,956.652 981.179,956.46 981.263,956.285 C 981.347,956.11 981.421,955.937 981.485,955.766 C 981.545,955.941 981.617,956.116 981.701,956.291 C 981.785,956.466 981.875,956.656 981.971,956.86 L 983.195,959.45 C 983.219,959.503 983.252,959.556 983.294,959.609 C 983.336,959.662 983.384,959.71 983.438,959.752 C 983.492,959.795 983.554,959.83 983.624,959.856 C 983.694,959.883 983.771,959.896 983.855,959.896 L 985.655,959.896 L 982.487,954.425 Z" marker-start="none" marker-end="none"/>
    <path d="M 992.689,952.617 C 992.969,952.617 993.217,952.64 993.433,952.688 C 993.649,952.735 993.853,952.798 994.045,952.877 L 994.045,954.205 L 993.181,954.205 C 993.053,954.205 992.953,954.239 992.881,954.307 C 992.809,954.375 992.773,954.461 992.773,954.565 L 992.773,955.681 L 995.881,955.681 L 995.881,951.992 C 995.657,951.828 995.424,951.687 995.182,951.568 C 994.94,951.45 994.682,951.353 994.408,951.277 C 994.134,951.201 993.842,951.145 993.532,951.109 C 993.222,951.073 992.889,951.055 992.533,951.055 C 991.893,951.055 991.301,951.168 990.757,951.394 C 990.213,951.621 989.742,951.933 989.344,952.331 C 988.946,952.729 988.634,953.201 988.408,953.747 C 988.182,954.293 988.069,954.886 988.069,955.526 C 988.069,956.178 988.177,956.778 988.393,957.324 C 988.609,957.87 988.918,958.341 989.32,958.737 C 989.722,959.133 990.208,959.441 990.778,959.661 C 991.348,959.881 991.985,959.991 992.689,959.991 C 993.053,959.991 993.395,959.961 993.715,959.901 C 994.035,959.841 994.33,959.759 994.6,959.655 C 994.87,959.551 995.117,959.426 995.341,959.282 C 995.565,959.138 995.765,958.982 995.941,958.813 L 995.353,957.919 C 995.297,957.835 995.23,957.769 995.152,957.721 C 995.074,957.673 994.989,957.649 994.897,957.649 C 994.777,957.649 994.653,957.689 994.525,957.769 C 994.365,957.865 994.214,957.948 994.072,958.018 C 993.93,958.088 993.785,958.145 993.637,958.189 C 993.489,958.233 993.333,958.265 993.169,958.285 C 993.005,958.305 992.821,958.315 992.617,958.315 C 992.237,958.315 991.895,958.248 991.591,958.114 C 991.287,957.98 991.028,957.792 990.814,957.548 C 990.6,957.304 990.435,957.011 990.319,956.669 C 990.203,956.327 990.145,955.946 990.145,955.526 C 990.145,955.062 990.209,954.65 990.337,954.29 C 990.465,953.931 990.642,953.627 990.868,953.379 C 991.094,953.131 991.362,952.942 991.672,952.812 C 991.982,952.682 992.321,952.617 992.689,952.617 Z" marker-start="none" marker-end="none"/>
    <path d="M 1002.74,959.897 L 1002.74,958.336 L 999.156,958.336 L 999.156,956.294 L 1001.9,956.294 L 1001.9,954.794 L 999.156,954.794 L 999.156,952.714 L 1002.74,952.714 L 1002.74,951.152 L 997.116,951.152 L 997.116,959.897 L 1002.74,959.897 Z" marker-start="none" marker-end="none"/>
    <path d="M 1012.52,955.526 C 1012.52,954.894 1012.41,954.306 1012.2,953.762 C 1011.98,953.218 1011.67,952.745 1011.28,952.343 C 1010.88,951.941 1010.4,951.626 1009.84,951.397 C 1009.29,951.169 1008.67,951.055 1007.99,951.055 C 1007.31,951.055 1006.69,951.169 1006.13,951.397 C 1005.57,951.626 1005.09,951.941 1004.69,952.343 C 1004.29,952.745 1003.98,953.218 1003.77,953.762 C 1003.55,954.306 1003.44,954.894 1003.44,955.526 C 1003.44,956.158 1003.55,956.747 1003.77,957.291 C 1003.98,957.835 1004.29,958.307 1004.69,958.707 C 1005.09,959.107 1005.57,959.421 1006.13,959.649 C 1006.69,959.877 1007.31,959.991 1007.99,959.991 C 1008.67,959.991 1009.29,959.876 1009.84,959.646 C 1010.4,959.416 1010.88,959.101 1011.28,958.701 C 1011.67,958.301 1011.98,957.829 1012.2,957.285 C 1012.41,956.741 1012.52,956.154 1012.52,955.526 Z M 1010.45,955.526 C 1010.45,955.958 1010.39,956.347 1010.28,956.693 C 1010.17,957.039 1010.01,957.332 1009.8,957.572 C 1009.59,957.812 1009.33,957.995 1009.03,958.123 C 1008.72,958.251 1008.38,958.315 1007.99,958.315 C 1007.6,958.315 1007.25,958.251 1006.94,958.123 C 1006.63,957.995 1006.38,957.812 1006.17,957.572 C 1005.96,957.332 1005.8,957.039 1005.68,956.693 C 1005.57,956.347 1005.52,955.958 1005.52,955.526 C 1005.52,955.09 1005.57,954.699 1005.68,954.354 C 1005.8,954.008 1005.96,953.715 1006.17,953.475 C 1006.38,953.235 1006.63,953.052 1006.94,952.926 C 1007.25,952.8 1007.6,952.737 1007.99,952.737 C 1008.38,952.737 1008.72,952.8 1009.03,952.926 C 1009.33,953.052 1009.59,953.235 1009.8,953.475 C 1010.01,953.715 1010.17,954.008 1010.28,954.354 C 1010.39,954.699 1010.45,955.09 1010.45,955.526 Z" marker-start="none" marker-end="none"/>
   </g>
  </g>
 </g>
</svg>
