<?xml version="1.0" standalone="no"?>
<!DOCTYPE svg PUBLIC "-//W3C//DTD SVG 1.1//EN" "http://www.w3.org/Graphics/SVG/1.1/DTD/svg11.dtd">
<!--Generator: Xara Designer (www.xara.com), SVG filter version: 6.6.0.0-->
<svg fill="none" fill-rule="evenodd" stroke="black" stroke-width="0.501" stroke-linejoin="bevel" stroke-miterlimit="10" font-family="Times New Roman" font-size="16" style="font-variant-ligatures:none" xmlns:xlink="http://www.w3.org/1999/xlink" xmlns="http://www.w3.org/2000/svg" version="1.1" overflow="visible" width="107.72pt" height="215.438pt" viewBox="585 -725.438 107.72 215.438">
 <defs>
	</defs>
 <g id="Grid 36x36mm" transform="scale(1 -1)">
  <g id="Group" stroke="none">
   <g id="Group_1" stroke-linejoin="miter" stroke-width="0.802" fill="#ffffff">
    <path d="M 585,525.214 L 585,710.224 C 585,718.622 591.815,725.438 600.212,725.438 L 677.508,725.438 C 685.904,725.438 692.72,718.622 692.72,710.224 L 692.72,525.214 C 692.72,524.164 692.612,523.139 692.41,522.149 C 691.194,516.208 686.513,511.525 680.572,510.309 C 679.583,510.107 678.558,510 677.508,510 L 600.212,510 C 591.815,510 585,516.816 585,525.214 Z" marker-start="none" marker-end="none"/>
   </g>
   <path d="M 585.892,525.945 L 585.892,709.493 C 585.892,717.825 592.654,724.586 600.984,724.586 L 676.735,724.586 C 685.067,724.586 691.828,717.825 691.828,709.493 L 691.828,525.945 C 691.828,517.613 685.067,510.852 676.735,510.852 L 600.984,510.852 C 592.654,510.852 585.892,517.613 585.892,525.945 Z" fill="#e5e5e5" stroke-width="0.802" stroke-linejoin="miter" marker-start="none" marker-end="none"/>
   <g id="Group_2" fill-rule="nonzero" stroke-linejoin="round" stroke-linecap="round" stroke-width="0.251" fill="#b2b2b2">
    <g id="Group_3">
     <path d="M 626.733,652.309 L 626.733,649.386 L 624.705,649.386 L 624.705,658.13 L 627.788,658.13 C 628.405,658.13 628.934,658.056 629.376,657.911 C 629.818,657.765 630.181,657.563 630.468,657.308 C 630.754,657.052 630.966,656.75 631.101,656.401 C 631.237,656.054 631.305,655.678 631.305,655.274 C 631.305,654.837 631.235,654.437 631.095,654.073 C 630.956,653.708 630.741,653.397 630.452,653.138 C 630.166,652.877 629.799,652.673 629.358,652.528 C 628.916,652.382 628.392,652.309 627.788,652.309 L 626.733,652.309 Z M 626.733,653.838 L 627.788,653.838 C 628.317,653.838 628.697,653.964 628.929,654.217 C 629.161,654.47 629.278,654.821 629.278,655.274 C 629.278,655.474 629.247,655.656 629.187,655.82 C 629.128,655.983 629.035,656.125 628.914,656.243 C 628.792,656.361 628.637,656.453 628.451,656.517 C 628.266,656.582 628.045,656.613 627.788,656.613 L 626.733,656.613 L 626.733,653.838 Z" marker-start="none" marker-end="none"/>
     <path d="M 634.391,651.005 L 637.63,651.005 L 637.63,649.385 L 632.363,649.385 L 632.363,658.129 L 634.391,658.129 L 634.391,651.005 Z" marker-start="none" marker-end="none"/>
     <path d="M 646.727,649.385 L 645.156,649.385 C 644.98,649.385 644.834,649.425 644.721,649.507 C 644.607,649.59 644.527,649.695 644.484,649.823 L 643.968,651.348 L 640.644,651.348 L 640.127,649.823 C 640.089,649.711 640.011,649.61 639.894,649.52 C 639.779,649.43 639.636,649.385 639.469,649.385 L 637.884,649.385 L 641.268,658.129 L 643.344,658.129 L 646.727,649.385 Z M 641.112,652.728 L 643.499,652.728 L 642.696,655.085 C 642.645,655.235 642.583,655.411 642.513,655.614 C 642.443,655.818 642.374,656.037 642.306,656.273 C 642.242,656.032 642.176,655.81 642.108,655.606 C 642.041,655.401 641.976,655.224 641.917,655.074 L 641.112,652.728 Z" marker-start="none" marker-end="none"/>
     <path d="M 650.59,652.658 L 650.59,649.385 L 648.563,649.385 L 648.563,652.658 L 645.394,658.129 L 647.181,658.129 C 647.357,658.129 647.499,658.087 647.602,658.005 C 647.706,657.92 647.79,657.813 647.855,657.683 L 649.09,655.092 C 649.19,654.885 649.282,654.693 649.366,654.519 C 649.451,654.343 649.524,654.17 649.588,654 C 649.648,654.174 649.72,654.349 649.804,654.524 C 649.887,654.699 649.978,654.889 650.073,655.092 L 651.297,657.683 C 651.322,657.736 651.355,657.788 651.397,657.842 C 651.439,657.895 651.488,657.943 651.541,657.984 C 651.594,658.028 651.656,658.064 651.727,658.09 C 651.798,658.116 651.874,658.129 651.958,658.129 L 653.758,658.129 L 650.59,652.658 Z" marker-start="none" marker-end="none"/>
    </g>
    <g id="Group_4">
     <path d="M 630.738,636.453 C 631.018,636.453 631.266,636.476 631.482,636.525 C 631.698,636.572 631.901,636.635 632.095,636.714 L 632.095,638.042 L 631.23,638.042 C 631.103,638.042 631.002,638.077 630.93,638.144 C 630.858,638.212 630.822,638.299 630.822,638.402 L 630.822,639.518 L 633.93,639.518 L 633.93,635.829 C 633.706,635.665 633.473,635.523 633.231,635.405 C 632.988,635.287 632.73,635.19 632.456,635.114 C 632.182,635.038 631.891,634.981 631.581,634.945 C 631.271,634.909 630.938,634.892 630.582,634.892 C 629.942,634.892 629.35,635.004 628.806,635.231 C 628.263,635.459 627.791,635.77 627.393,636.168 C 626.995,636.566 626.683,637.039 626.458,637.584 C 626.231,638.13 626.117,638.722 626.117,639.363 C 626.117,640.016 626.226,640.615 626.442,641.16 C 626.658,641.707 626.967,642.178 627.369,642.575 C 627.771,642.97 628.257,643.278 628.826,643.499 C 629.397,643.718 630.034,643.827 630.738,643.827 C 631.103,643.827 631.444,643.799 631.764,643.738 C 632.084,643.677 632.379,643.597 632.65,643.491 C 632.919,643.388 633.166,643.264 633.391,643.12 C 633.614,642.975 633.814,642.82 633.99,642.65 L 633.402,641.756 C 633.346,641.672 633.28,641.606 633.2,641.558 C 633.122,641.511 633.037,641.486 632.947,641.486 C 632.825,641.486 632.701,641.526 632.575,641.606 C 632.415,641.702 632.263,641.785 632.12,641.855 C 631.979,641.924 631.834,641.982 631.687,642.025 C 631.538,642.07 631.382,642.102 631.218,642.122 C 631.054,642.142 630.871,642.152 630.666,642.152 C 630.287,642.152 629.944,642.084 629.639,641.95 C 629.337,641.818 629.077,641.629 628.862,641.385 C 628.649,641.142 628.485,640.847 628.368,640.506 C 628.253,640.164 628.193,639.784 628.193,639.363 C 628.193,638.898 628.258,638.487 628.387,638.127 C 628.513,637.768 628.691,637.464 628.917,637.216 C 629.143,636.968 629.412,636.779 629.722,636.649 C 630.032,636.52 630.37,636.453 630.738,636.453 Z" marker-start="none" marker-end="none"/>
     <path d="M 637.194,638.224 L 637.194,634.989 L 635.165,634.989 L 635.165,643.731 L 638.01,643.731 C 638.641,643.731 639.18,643.666 639.626,643.536 C 640.073,643.406 640.436,643.225 640.719,642.993 C 641,642.761 641.204,642.487 641.333,642.169 C 641.461,641.852 641.524,641.509 641.524,641.136 C 641.524,640.852 641.487,640.584 641.411,640.331 C 641.336,640.079 641.222,639.846 641.072,639.631 C 640.922,639.417 640.739,639.226 640.52,639.057 C 640.302,638.89 640.051,638.751 639.767,638.643 C 639.903,638.575 640.029,638.49 640.148,638.391 C 640.266,638.291 640.37,638.17 640.458,638.026 L 642.317,634.989 L 640.481,634.989 C 640.14,634.989 639.897,635.117 639.748,635.374 L 638.297,637.911 C 638.233,638.023 638.158,638.103 638.072,638.152 C 637.987,638.201 637.865,638.224 637.708,638.224 L 637.194,638.224 Z M 637.194,639.621 L 638.01,639.621 C 638.285,639.621 638.52,639.657 638.715,639.726 C 638.908,639.797 639.066,639.893 639.19,640.017 C 639.314,640.141 639.405,640.287 639.461,640.452 C 639.518,640.618 639.545,640.797 639.545,640.989 C 639.545,641.374 639.42,641.674 639.17,641.89 C 638.919,642.106 638.533,642.214 638.01,642.214 L 637.194,642.214 L 637.194,639.621 Z" marker-start="none" marker-end="none"/>
     <path d="M 651.475,639.363 C 651.475,638.731 651.365,638.143 651.147,637.599 C 650.928,637.054 650.623,636.582 650.226,636.179 C 649.83,635.779 649.353,635.463 648.795,635.234 C 648.237,635.006 647.618,634.892 646.938,634.892 C 646.257,634.892 645.637,635.006 645.078,635.234 C 644.519,635.463 644.039,635.779 643.641,636.179 C 643.243,636.582 642.934,637.054 642.717,637.599 C 642.499,638.143 642.389,638.731 642.389,639.363 C 642.389,639.995 642.499,640.584 642.717,641.129 C 642.934,641.672 643.243,642.144 643.641,642.544 C 644.039,642.944 644.519,643.258 645.078,643.486 C 645.637,643.713 646.257,643.827 646.938,643.827 C 647.618,643.827 648.237,643.713 648.795,643.483 C 649.353,643.254 649.83,642.938 650.226,642.539 C 650.623,642.138 650.928,641.666 651.147,641.121 C 651.365,640.578 651.475,639.991 651.475,639.363 Z M 649.399,639.363 C 649.399,639.795 649.342,640.184 649.23,640.53 C 649.118,640.876 648.958,641.169 648.747,641.41 C 648.537,641.649 648.28,641.832 647.976,641.96 C 647.672,642.087 647.326,642.152 646.938,642.152 C 646.546,642.152 646.197,642.087 645.891,641.96 C 645.586,641.832 645.327,641.649 645.117,641.41 C 644.907,641.169 644.746,640.876 644.634,640.53 C 644.522,640.184 644.465,639.795 644.465,639.363 C 644.465,638.927 644.522,638.536 644.634,638.19 C 644.746,637.845 644.907,637.552 645.117,637.313 C 645.327,637.072 645.586,636.889 645.891,636.763 C 646.197,636.636 646.546,636.574 646.938,636.574 C 647.326,636.574 647.672,636.636 647.976,636.763 C 648.28,636.889 648.537,637.072 648.747,637.313 C 648.958,637.552 649.118,637.845 649.23,638.19 C 649.342,638.536 649.399,638.927 649.399,639.363 Z" marker-start="none" marker-end="none"/>
    </g>
    <g id="Group_5">
     <path d="M 625.754,624.968 C 625.754,624.335 625.645,623.747 625.427,623.203 C 625.209,622.66 624.902,622.187 624.506,621.784 C 624.111,621.382 623.633,621.067 623.076,620.837 C 622.518,620.61 621.898,620.496 621.219,620.496 C 620.538,620.496 619.918,620.61 619.358,620.837 C 618.798,621.067 618.32,621.382 617.922,621.784 C 617.522,622.187 617.215,622.66 616.998,623.203 C 616.778,623.747 616.67,624.335 616.67,624.968 C 616.67,625.599 616.778,626.187 616.998,626.732 C 617.215,627.276 617.522,627.749 617.922,628.148 C 618.32,628.549 618.798,628.862 619.358,629.089 C 619.918,629.319 620.538,629.432 621.219,629.432 C 621.898,629.432 622.518,629.317 623.076,629.086 C 623.633,628.857 624.111,628.542 624.506,628.142 C 624.902,627.741 625.209,627.27 625.427,626.726 C 625.645,626.182 625.754,625.595 625.754,624.968 Z M 623.678,624.968 C 623.678,625.399 623.622,625.788 623.509,626.134 C 623.398,626.48 623.237,626.773 623.027,627.013 C 622.817,627.253 622.559,627.436 622.257,627.564 C 621.952,627.692 621.606,627.756 621.219,627.756 C 620.827,627.756 620.478,627.692 620.171,627.564 C 619.865,627.436 619.607,627.253 619.396,627.013 C 619.187,626.773 619.026,626.48 618.913,626.134 C 618.802,625.788 618.746,625.399 618.746,624.968 C 618.746,624.531 618.802,624.14 618.913,623.796 C 619.026,623.45 619.187,623.155 619.396,622.916 C 619.607,622.675 619.865,622.492 620.171,622.367 C 620.478,622.241 620.827,622.178 621.219,622.178 C 621.606,622.178 621.952,622.241 622.257,622.367 C 622.559,622.492 622.817,622.675 623.027,622.916 C 623.237,623.155 623.398,623.45 623.509,623.796 C 623.622,624.14 623.678,624.531 623.678,624.968 Z" marker-start="none" marker-end="none"/>
     <path d="M 628.751,623.827 L 628.751,620.594 L 626.724,620.594 L 626.724,629.334 L 629.567,629.334 C 630.2,629.334 630.739,629.27 631.185,629.14 C 631.63,629.01 631.995,628.828 632.278,628.596 C 632.559,628.364 632.763,628.09 632.892,627.773 C 633.02,627.457 633.084,627.113 633.084,626.739 C 633.084,626.455 633.046,626.187 632.97,625.935 C 632.895,625.683 632.781,625.449 632.631,625.234 C 632.481,625.021 632.296,624.831 632.079,624.661 C 631.861,624.493 631.61,624.355 631.326,624.247 C 631.462,624.179 631.589,624.095 631.707,623.995 C 631.825,623.895 631.927,623.774 632.017,623.63 L 633.876,620.594 L 632.04,620.594 C 631.7,620.594 631.456,620.721 631.307,620.977 L 629.856,623.514 C 629.792,623.627 629.717,623.708 629.631,623.755 C 629.546,623.804 629.425,623.827 629.267,623.827 L 628.751,623.827 Z M 628.751,625.226 L 629.567,625.226 C 629.844,625.226 630.079,625.26 630.272,625.329 C 630.467,625.4 630.625,625.497 630.749,625.621 C 630.873,625.745 630.964,625.89 631.021,626.056 C 631.075,626.222 631.104,626.401 631.104,626.592 C 631.104,626.977 630.979,627.279 630.729,627.493 C 630.478,627.71 630.092,627.818 629.567,627.818 L 628.751,627.818 L 628.751,625.226 Z" marker-start="none" marker-end="none"/>
     <path d="M 641.137,622.058 C 641.416,622.058 641.664,622.081 641.88,622.129 C 642.095,622.177 642.3,622.239 642.492,622.318 L 642.492,623.646 L 641.628,623.646 C 641.5,623.646 641.4,623.68 641.328,623.748 C 641.256,623.816 641.22,623.902 641.22,624.006 L 641.22,625.122 L 644.328,625.122 L 644.328,621.433 C 644.104,621.268 643.871,621.129 643.629,621.009 C 643.387,620.891 643.129,620.794 642.855,620.718 C 642.581,620.643 642.288,620.586 641.979,620.55 C 641.669,620.514 641.336,620.496 640.979,620.496 C 640.339,620.496 639.748,620.61 639.203,620.834 C 638.66,621.062 638.188,621.374 637.791,621.771 C 637.393,622.169 637.081,622.642 636.855,623.189 C 636.629,623.734 636.516,624.328 636.516,624.968 C 636.516,625.619 636.624,626.219 636.84,626.765 C 637.057,627.31 637.365,627.782 637.767,628.178 C 638.17,628.575 638.656,628.882 639.225,629.102 C 639.794,629.321 640.432,629.432 641.137,629.432 C 641.5,629.432 641.842,629.402 642.162,629.342 C 642.482,629.283 642.777,629.2 643.047,629.097 C 643.316,628.991 643.564,628.867 643.788,628.723 C 644.013,628.579 644.212,628.423 644.388,628.255 L 643.799,627.359 C 643.745,627.276 643.677,627.209 643.599,627.162 C 643.521,627.114 643.436,627.09 643.344,627.09 C 643.224,627.09 643.1,627.13 642.972,627.209 C 642.812,627.306 642.66,627.39 642.519,627.459 C 642.376,627.529 642.232,627.586 642.084,627.63 C 641.937,627.674 641.78,627.705 641.617,627.726 C 641.452,627.746 641.268,627.756 641.065,627.756 C 640.684,627.756 640.342,627.689 640.038,627.555 C 639.734,627.421 639.474,627.232 639.261,626.989 C 639.048,626.745 638.882,626.453 638.767,626.109 C 638.65,625.768 638.592,625.387 638.592,624.968 C 638.592,624.503 638.656,624.091 638.784,623.731 C 638.912,623.372 639.089,623.068 639.314,622.82 C 639.541,622.572 639.809,622.383 640.119,622.253 C 640.429,622.123 640.768,622.058 641.137,622.058 Z" marker-start="none" marker-end="none"/>
     <path d="M 651.191,629.337 L 651.191,627.777 L 647.602,627.777 L 647.602,625.735 L 650.352,625.735 L 650.352,624.235 L 647.602,624.235 L 647.602,622.155 L 651.191,622.155 L 651.191,620.594 L 645.562,620.594 L 645.562,629.337 L 651.191,629.337 Z" marker-start="none" marker-end="none"/>
     <path d="M 660.969,624.968 C 660.969,624.335 660.861,623.747 660.644,623.203 C 660.424,622.66 660.117,622.187 659.722,621.784 C 659.326,621.382 658.849,621.067 658.291,620.837 C 657.733,620.61 657.114,620.496 656.434,620.496 C 655.754,620.496 655.134,620.61 654.574,620.837 C 654.013,621.067 653.535,621.382 653.137,621.784 C 652.739,622.187 652.431,622.66 652.213,623.203 C 651.995,623.747 651.886,624.335 651.886,624.968 C 651.886,625.599 651.995,626.187 652.213,626.732 C 652.431,627.276 652.739,627.749 653.137,628.148 C 653.535,628.549 654.013,628.862 654.574,629.089 C 655.134,629.319 655.754,629.432 656.434,629.432 C 657.114,629.432 657.733,629.317 658.291,629.086 C 658.849,628.857 659.326,628.542 659.722,628.142 C 660.117,627.741 660.424,627.27 660.644,626.726 C 660.861,626.182 660.969,625.595 660.969,624.968 Z M 658.893,624.968 C 658.893,625.399 658.839,625.788 658.726,626.134 C 658.614,626.48 658.452,626.773 658.243,627.013 C 658.033,627.253 657.776,627.436 657.472,627.564 C 657.168,627.692 656.822,627.756 656.434,627.756 C 656.042,627.756 655.693,627.692 655.387,627.564 C 655.082,627.436 654.824,627.253 654.613,627.013 C 654.403,626.773 654.243,626.48 654.13,626.134 C 654.018,625.788 653.962,625.399 653.962,624.968 C 653.962,624.531 654.018,624.14 654.13,623.796 C 654.243,623.45 654.403,623.155 654.613,622.916 C 654.824,622.675 655.082,622.492 655.387,622.367 C 655.693,622.241 656.042,622.178 656.434,622.178 C 656.822,622.178 657.168,622.241 657.472,622.367 C 657.776,622.492 658.033,622.675 658.243,622.916 C 658.452,623.155 658.614,623.45 658.726,623.796 C 658.839,624.14 658.893,624.531 658.893,624.968 Z" marker-start="none" marker-end="none"/>
    </g>
    <g id="Group_6">
     <path d="M 637.667,614.942 L 637.667,613.333 L 635.207,613.333 L 635.207,606.199 L 633.179,606.199 L 633.179,613.333 L 630.719,613.333 L 630.719,614.942 L 637.667,614.942 Z" marker-start="none" marker-end="none"/>
     <path d="M 646.776,610.571 C 646.776,609.938 646.668,609.352 646.451,608.807 C 646.231,608.263 645.924,607.79 645.529,607.388 C 645.133,606.986 644.656,606.672 644.098,606.442 C 643.54,606.215 642.921,606.101 642.241,606.101 C 641.56,606.101 640.941,606.215 640.381,606.442 C 639.82,606.672 639.342,606.986 638.944,607.388 C 638.546,607.79 638.237,608.263 638.02,608.807 C 637.802,609.352 637.692,609.938 637.692,610.571 C 637.692,611.203 637.802,611.792 638.02,612.336 C 638.237,612.879 638.546,613.352 638.944,613.752 C 639.342,614.152 639.82,614.467 640.381,614.694 C 640.941,614.922 641.56,615.036 642.241,615.036 C 642.921,615.036 643.54,614.921 644.098,614.692 C 644.656,614.461 645.133,614.147 645.529,613.746 C 645.924,613.346 646.231,612.874 646.451,612.33 C 646.668,611.787 646.776,611.198 646.776,610.571 Z M 644.7,610.571 C 644.7,611.002 644.646,611.392 644.533,611.738 C 644.421,612.084 644.261,612.378 644.05,612.617 C 643.84,612.856 643.583,613.039 643.279,613.168 C 642.975,613.296 642.629,613.359 642.241,613.359 C 641.849,613.359 641.5,613.296 641.194,613.168 C 640.889,613.039 640.631,612.856 640.42,612.617 C 640.21,612.378 640.05,612.084 639.937,611.738 C 639.825,611.392 639.768,611.002 639.768,610.571 C 639.768,610.134 639.825,609.744 639.937,609.399 C 640.05,609.053 640.21,608.761 640.42,608.52 C 640.631,608.28 640.889,608.097 641.194,607.971 C 641.5,607.845 641.849,607.782 642.241,607.782 C 642.629,607.782 642.975,607.845 643.279,607.971 C 643.583,608.097 643.84,608.28 644.05,608.52 C 644.261,608.761 644.421,609.053 644.533,609.399 C 644.646,609.744 644.7,610.134 644.7,610.571 Z" marker-start="none" marker-end="none"/>
    </g>
    <g id="Group_7">
     <path d="M 620.312,594.061 C 620.359,594.061 620.408,594.051 620.456,594.034 C 620.504,594.015 620.55,593.984 620.594,593.939 L 621.397,593.075 C 621.046,592.623 620.605,592.28 620.075,592.05 C 619.545,591.82 618.918,591.704 618.194,591.704 C 617.529,591.704 616.936,591.817 616.409,592.043 C 615.883,592.269 615.438,592.582 615.071,592.98 C 614.705,593.378 614.424,593.85 614.228,594.396 C 614.032,594.942 613.934,595.535 613.934,596.175 C 613.934,596.827 614.046,597.428 614.27,597.973 C 614.493,598.519 614.808,598.99 615.208,599.385 C 615.611,599.782 616.092,600.09 616.652,600.31 C 617.212,600.53 617.829,600.64 618.505,600.64 C 618.834,600.64 619.143,600.611 619.432,600.553 C 619.724,600.496 619.993,600.415 620.246,600.312 C 620.498,600.212 620.73,600.088 620.942,599.946 C 621.154,599.804 621.343,599.646 621.506,599.473 L 620.822,598.557 C 620.778,598.5 620.726,598.448 620.667,598.404 C 620.606,598.358 620.522,598.335 620.414,598.335 C 620.342,598.335 620.274,598.35 620.21,598.382 C 620.146,598.414 620.078,598.453 620.006,598.499 C 619.934,598.545 619.855,598.595 619.768,598.649 C 619.683,598.704 619.581,598.753 619.463,598.799 C 619.345,598.845 619.208,598.884 619.049,598.915 C 618.89,598.949 618.706,598.965 618.494,598.965 C 618.126,598.965 617.79,598.9 617.486,598.768 C 617.182,598.639 616.921,598.453 616.703,598.211 C 616.484,597.968 616.316,597.676 616.193,597.333 C 616.071,596.988 616.01,596.602 616.01,596.173 C 616.01,595.727 616.071,595.329 616.193,594.98 C 616.316,594.632 616.481,594.34 616.69,594.1 C 616.901,593.862 617.146,593.682 617.426,593.557 C 617.705,593.433 618.007,593.371 618.325,593.371 C 618.51,593.371 618.678,593.38 618.83,593.398 C 618.983,593.416 619.123,593.447 619.254,593.491 C 619.383,593.535 619.507,593.591 619.626,593.662 C 619.742,593.731 619.862,593.819 619.982,593.924 C 620.029,593.963 620.083,593.997 620.137,594.023 C 620.194,594.048 620.251,594.061 620.312,594.061 Z" marker-start="none" marker-end="none"/>
     <path d="M 629.957,591.801 L 627.917,591.801 L 627.917,595.497 L 624.364,595.497 L 624.364,591.801 L 622.324,591.801 L 622.324,600.546 L 624.364,600.546 L 624.364,596.89 L 627.917,596.89 L 627.917,600.546 L 629.957,600.546 L 629.957,591.801 Z" marker-start="none" marker-end="none"/>
     <path d="M 639.531,591.801 L 637.959,591.801 C 637.783,591.801 637.638,591.841 637.524,591.923 C 637.41,592.006 637.331,592.111 637.287,592.239 L 636.771,593.764 L 633.447,593.764 L 632.931,592.239 C 632.89,592.127 632.812,592.026 632.697,591.936 C 632.58,591.846 632.439,591.801 632.27,591.801 L 630.687,591.801 L 634.071,600.545 L 636.147,600.545 L 639.531,591.801 Z M 633.915,595.144 L 636.303,595.144 L 635.498,597.501 C 635.446,597.651 635.386,597.827 635.317,598.03 C 635.246,598.234 635.177,598.453 635.109,598.689 C 635.046,598.448 634.979,598.226 634.912,598.022 C 634.842,597.817 634.779,597.64 634.718,597.49 L 633.915,595.144 Z" marker-start="none" marker-end="none"/>
     <path d="M 641.305,600.546 C 641.393,600.546 641.467,600.542 641.527,600.534 C 641.586,600.526 641.641,600.511 641.689,600.488 C 641.736,600.467 641.782,600.436 641.827,600.396 C 641.87,600.356 641.921,600.302 641.977,600.235 L 646.129,594.984 C 646.113,595.151 646.102,595.316 646.093,595.473 C 646.084,595.631 646.081,595.78 646.081,595.92 L 646.081,600.546 L 647.869,600.546 L 647.869,591.801 L 646.812,591.801 C 646.657,591.801 646.525,591.825 646.417,591.873 C 646.309,591.921 646.205,592.009 646.105,592.137 L 641.983,597.346 C 641.994,597.193 642.004,597.044 642.013,596.899 C 642.02,596.752 642.025,596.615 642.025,596.486 L 642.025,591.801 L 640.237,591.801 L 640.237,600.546 L 641.305,600.546 Z" marker-start="none" marker-end="none"/>
     <path d="M 653.422,593.266 C 653.703,593.266 653.951,593.289 654.168,593.336 C 654.383,593.384 654.587,593.447 654.779,593.527 L 654.779,594.854 L 653.915,594.854 C 653.787,594.854 653.688,594.888 653.616,594.957 C 653.543,595.024 653.507,595.11 653.507,595.213 L 653.507,596.331 L 656.616,596.331 L 656.616,592.641 C 656.391,592.477 656.159,592.336 655.916,592.218 C 655.674,592.099 655.416,592.001 655.142,591.926 C 654.868,591.85 654.576,591.794 654.266,591.758 C 653.956,591.722 653.623,591.704 653.267,591.704 C 652.627,591.704 652.036,591.817 651.491,592.043 C 650.947,592.269 650.476,592.582 650.078,592.98 C 649.68,593.378 649.368,593.85 649.142,594.396 C 648.916,594.942 648.803,595.535 648.803,596.175 C 648.803,596.827 648.911,597.428 649.128,597.973 C 649.342,598.519 649.652,598.99 650.055,599.385 C 650.455,599.782 650.941,600.09 651.512,600.31 C 652.082,600.53 652.719,600.64 653.422,600.64 C 653.787,600.64 654.129,600.609 654.449,600.55 C 654.769,600.49 655.064,600.408 655.334,600.304 C 655.604,600.2 655.852,600.075 656.075,599.93 C 656.298,599.788 656.499,599.631 656.675,599.462 L 656.087,598.568 C 656.03,598.484 655.964,598.418 655.886,598.371 C 655.808,598.322 655.723,598.298 655.631,598.298 C 655.511,598.298 655.387,598.337 655.259,598.418 C 655.099,598.515 654.948,598.597 654.806,598.668 C 654.664,598.737 654.519,598.794 654.371,598.838 C 654.222,598.882 654.067,598.914 653.902,598.934 C 653.74,598.954 653.555,598.965 653.35,598.965 C 652.971,598.965 652.629,598.897 652.325,598.763 C 652.021,598.629 651.762,598.441 651.548,598.198 C 651.333,597.952 651.169,597.66 651.052,597.318 C 650.937,596.976 650.879,596.594 650.879,596.175 C 650.879,595.711 650.943,595.298 651.071,594.939 C 651.199,594.58 651.377,594.276 651.602,594.028 C 651.828,593.78 652.096,593.591 652.406,593.462 C 652.716,593.331 653.055,593.266 653.422,593.266 Z" marker-start="none" marker-end="none"/>
     <path d="M 663.478,600.546 L 663.478,598.985 L 659.89,598.985 L 659.89,596.943 L 662.637,596.943 L 662.637,595.443 L 659.89,595.443 L 659.89,593.364 L 663.478,593.364 L 663.478,591.801 L 657.85,591.801 L 657.85,600.546 L 663.478,600.546 Z" marker-start="none" marker-end="none"/>
    </g>
    <g id="Group_8">
     <path d="M 599.295,579.667 C 599.344,579.667 599.392,579.656 599.44,579.638 C 599.489,579.62 599.533,579.589 599.578,579.543 L 600.382,578.679 C 600.031,578.226 599.59,577.885 599.059,577.654 C 598.528,577.423 597.901,577.308 597.178,577.308 C 596.514,577.308 595.919,577.42 595.393,577.647 C 594.867,577.875 594.421,578.186 594.055,578.584 C 593.689,578.982 593.408,579.455 593.212,580 C 593.016,580.546 592.918,581.138 592.918,581.779 C 592.918,582.432 593.03,583.031 593.253,583.576 C 593.478,584.123 593.791,584.594 594.193,584.991 C 594.596,585.386 595.076,585.694 595.637,585.915 C 596.196,586.134 596.814,586.243 597.49,586.243 C 597.818,586.243 598.128,586.215 598.417,586.157 C 598.707,586.099 598.978,586.018 599.231,585.918 C 599.481,585.815 599.714,585.693 599.925,585.55 C 600.137,585.409 600.326,585.251 600.491,585.078 L 599.806,584.16 C 599.763,584.104 599.711,584.053 599.65,584.007 C 599.59,583.961 599.506,583.938 599.398,583.938 C 599.326,583.938 599.258,583.954 599.195,583.986 C 599.13,584.017 599.062,584.056 598.99,584.102 C 598.918,584.149 598.838,584.199 598.753,584.252 C 598.667,584.307 598.565,584.358 598.446,584.402 C 598.33,584.448 598.191,584.487 598.033,584.521 C 597.875,584.552 597.689,584.568 597.478,584.568 C 597.11,584.568 596.774,584.503 596.47,584.374 C 596.166,584.242 595.905,584.056 595.687,583.816 C 595.469,583.573 595.299,583.279 595.177,582.936 C 595.056,582.592 594.994,582.207 594.994,581.779 C 594.994,581.33 595.056,580.932 595.177,580.583 C 595.299,580.236 595.465,579.943 595.675,579.704 C 595.884,579.468 596.13,579.286 596.411,579.161 C 596.69,579.037 596.99,578.975 597.31,578.975 C 597.493,578.975 597.662,578.985 597.813,579.002 C 597.966,579.021 598.108,579.051 598.237,579.096 C 598.367,579.139 598.491,579.197 598.609,579.266 C 598.727,579.336 598.846,579.423 598.965,579.528 C 599.014,579.568 599.066,579.602 599.122,579.628 C 599.179,579.654 599.236,579.667 599.295,579.667 Z" marker-start="none" marker-end="none"/>
     <path d="M 609.445,577.405 L 607.873,577.405 C 607.697,577.405 607.552,577.446 607.438,577.529 C 607.324,577.609 607.245,577.715 607.201,577.843 L 606.685,579.368 L 603.361,579.368 L 602.845,577.843 C 602.804,577.73 602.727,577.629 602.611,577.54 C 602.494,577.451 602.353,577.405 602.185,577.405 L 600.602,577.405 L 603.985,586.15 L 606.061,586.15 L 609.445,577.405 Z M 603.829,580.748 L 606.217,580.748 L 605.412,583.105 C 605.36,583.255 605.3,583.431 605.229,583.634 C 605.16,583.837 605.091,584.056 605.023,584.293 C 604.96,584.053 604.893,583.83 604.826,583.625 C 604.756,583.421 604.693,583.243 604.632,583.093 L 603.829,580.748 Z" marker-start="none" marker-end="none"/>
     <path d="M 612.18,580.64 L 612.18,577.405 L 610.151,577.405 L 610.151,586.147 L 612.995,586.147 C 613.627,586.147 614.166,586.082 614.612,585.952 C 615.059,585.822 615.422,585.641 615.704,585.409 C 615.985,585.177 616.192,584.903 616.319,584.585 C 616.447,584.268 616.512,583.925 616.512,583.552 C 616.512,583.268 616.473,583 616.396,582.747 C 616.321,582.495 616.208,582.262 616.058,582.047 C 615.908,581.833 615.725,581.642 615.505,581.473 C 615.288,581.306 615.037,581.167 614.753,581.059 C 614.888,580.991 615.017,580.906 615.133,580.807 C 615.252,580.707 615.355,580.586 615.443,580.442 L 617.303,577.405 L 615.466,577.405 C 615.128,577.405 614.883,577.533 614.736,577.789 L 613.282,580.327 C 613.219,580.439 613.144,580.519 613.057,580.568 C 612.972,580.617 612.851,580.64 612.696,580.64 L 612.18,580.64 Z M 612.18,582.037 L 612.995,582.037 C 613.271,582.037 613.506,582.073 613.7,582.142 C 613.894,582.212 614.054,582.309 614.178,582.433 C 614.302,582.557 614.391,582.703 614.447,582.868 C 614.503,583.034 614.531,583.213 614.531,583.405 C 614.531,583.79 614.405,584.09 614.156,584.306 C 613.907,584.522 613.519,584.63 612.995,584.63 L 612.18,584.63 L 612.18,582.037 Z" marker-start="none" marker-end="none"/>
     <path d="M 618.132,577.405 L 618.132,586.147 L 621.348,586.147 C 621.952,586.147 622.466,586.091 622.89,585.98 C 623.313,585.867 623.659,585.71 623.928,585.507 C 624.196,585.302 624.39,585.054 624.513,584.761 C 624.635,584.47 624.696,584.144 624.696,583.784 C 624.696,583.588 624.669,583.399 624.612,583.217 C 624.556,583.036 624.468,582.864 624.349,582.704 C 624.227,582.544 624.075,582.398 623.886,582.269 C 623.698,582.139 623.472,582.027 623.208,581.93 C 623.783,581.79 624.21,581.562 624.485,581.249 C 624.762,580.935 624.901,580.532 624.901,580.04 C 624.901,579.668 624.829,579.322 624.684,579 C 624.54,578.68 624.328,578.402 624.052,578.164 C 623.773,577.926 623.43,577.74 623.022,577.606 C 622.614,577.472 622.149,577.405 621.624,577.405 L 618.132,577.405 Z M 620.161,581.114 L 620.161,578.934 L 621.588,578.934 C 621.856,578.934 622.075,578.967 622.245,579.037 C 622.415,579.106 622.548,579.194 622.644,579.3 C 622.74,579.408 622.806,579.531 622.842,579.667 C 622.878,579.803 622.895,579.94 622.895,580.082 C 622.895,580.24 622.875,580.384 622.833,580.514 C 622.792,580.643 622.719,580.751 622.617,580.839 C 622.515,580.927 622.381,580.994 622.212,581.042 C 622.043,581.089 621.831,581.114 621.576,581.114 L 620.161,581.114 Z M 620.161,582.471 L 621.216,582.471 C 621.441,582.471 621.643,582.486 621.821,582.518 C 622.002,582.551 622.154,582.607 622.281,582.685 C 622.407,582.766 622.503,582.876 622.57,583.015 C 622.634,583.155 622.668,583.333 622.668,583.545 C 622.668,583.752 622.642,583.925 622.59,584.064 C 622.538,584.201 622.459,584.312 622.35,584.397 C 622.242,584.48 622.105,584.539 621.94,584.575 C 621.772,584.611 621.576,584.63 621.348,584.63 L 620.161,584.63 L 620.161,582.471 Z" marker-start="none" marker-end="none"/>
     <path d="M 634.629,581.779 C 634.629,581.147 634.519,580.559 634.302,580.015 C 634.084,579.47 633.777,578.998 633.38,578.595 C 632.985,578.195 632.508,577.879 631.95,577.65 C 631.392,577.422 630.773,577.308 630.094,577.308 C 629.413,577.308 628.793,577.422 628.232,577.65 C 627.673,577.879 627.194,578.195 626.796,578.595 C 626.399,578.998 626.09,579.47 625.872,580.015 C 625.655,580.559 625.545,581.147 625.545,581.779 C 625.545,582.411 625.655,583 625.872,583.545 C 626.09,584.088 626.399,584.559 626.796,584.96 C 627.194,585.36 627.673,585.674 628.232,585.902 C 628.793,586.129 629.413,586.243 630.094,586.243 C 630.773,586.243 631.392,586.129 631.95,585.899 C 632.508,585.67 632.985,585.354 633.38,584.955 C 633.777,584.554 634.084,584.082 634.302,583.537 C 634.519,582.994 634.629,582.407 634.629,581.779 Z M 632.553,581.779 C 632.553,582.211 632.497,582.6 632.384,582.946 C 632.273,583.292 632.112,583.585 631.901,583.826 C 631.692,584.065 631.436,584.248 631.132,584.376 C 630.827,584.505 630.481,584.568 630.094,584.568 C 629.701,584.568 629.353,584.505 629.045,584.376 C 628.74,584.248 628.482,584.065 628.273,583.826 C 628.062,583.585 627.901,583.292 627.788,582.946 C 627.677,582.6 627.621,582.211 627.621,581.779 C 627.621,581.343 627.677,580.952 627.788,580.606 C 627.901,580.26 628.062,579.968 628.273,579.729 C 628.482,579.488 628.74,579.305 629.045,579.179 C 629.353,579.052 629.701,578.99 630.094,578.99 C 630.481,578.99 630.827,579.052 631.132,579.179 C 631.436,579.305 631.692,579.488 631.901,579.729 C 632.112,579.968 632.273,580.26 632.384,580.606 C 632.497,580.952 632.553,581.343 632.553,581.779 Z" marker-start="none" marker-end="none"/>
     <path d="M 636.667,586.15 C 636.755,586.15 636.829,586.145 636.889,586.138 C 636.949,586.129 637.003,586.115 637.051,586.093 C 637.099,586.07 637.145,586.04 637.189,586 C 637.233,585.959 637.283,585.906 637.339,585.838 L 641.491,580.588 C 641.475,580.756 641.462,580.919 641.455,581.076 C 641.447,581.235 641.444,581.384 641.444,581.523 L 641.444,586.15 L 643.231,586.15 L 643.231,577.405 L 642.175,577.405 C 642.019,577.405 641.888,577.429 641.78,577.477 C 641.671,577.526 641.568,577.614 641.467,577.74 L 637.345,582.949 C 637.357,582.796 637.367,582.648 637.375,582.502 C 637.383,582.357 637.387,582.22 637.387,582.091 L 637.387,577.405 L 635.599,577.405 L 635.599,586.15 L 636.667,586.15 Z" marker-start="none" marker-end="none"/>
     <path d="M 652.612,586.15 L 652.612,584.588 L 649.024,584.588 L 649.024,582.547 L 651.772,582.547 L 651.772,581.048 L 649.024,581.048 L 649.024,578.967 L 652.612,578.967 L 652.612,577.405 L 646.984,577.405 L 646.984,586.15 L 652.612,586.15 Z" marker-start="none" marker-end="none"/>
     <path d="M 653.043,586.15 L 654.675,586.15 C 654.851,586.15 654.995,586.109 655.108,586.029 C 655.219,585.948 655.299,585.841 655.347,585.708 L 657.039,581.003 C 657.114,580.798 657.192,580.573 657.27,580.333 C 657.348,580.092 657.422,579.84 657.489,579.573 C 657.546,579.84 657.61,580.092 657.684,580.333 C 657.757,580.573 657.831,580.798 657.903,581.003 L 659.583,585.708 C 659.623,585.821 659.701,585.923 659.818,586.013 C 659.933,586.104 660.076,586.15 660.243,586.15 L 661.886,586.15 L 658.383,577.405 L 656.546,577.405 L 653.043,586.15 Z" marker-start="none" marker-end="none"/>
     <path d="M 668.232,586.15 L 668.232,584.588 L 664.646,584.588 L 664.646,582.547 L 667.393,582.547 L 667.393,581.048 L 664.646,581.048 L 664.646,578.967 L 668.232,578.967 L 668.232,577.405 L 662.606,577.405 L 662.606,586.15 L 668.232,586.15 Z" marker-start="none" marker-end="none"/>
     <path d="M 670.453,586.15 C 670.541,586.15 670.614,586.145 670.675,586.138 C 670.734,586.129 670.789,586.115 670.836,586.093 C 670.884,586.07 670.93,586.04 670.975,586 C 671.018,585.959 671.068,585.906 671.124,585.838 L 675.276,580.588 C 675.261,580.756 675.248,580.919 675.24,581.076 C 675.232,581.235 675.227,581.384 675.227,581.523 L 675.227,586.15 L 677.016,586.15 L 677.016,577.405 L 675.96,577.405 C 675.804,577.405 675.671,577.429 675.563,577.477 C 675.457,577.526 675.351,577.614 675.252,577.74 L 671.13,582.949 C 671.142,582.796 671.152,582.648 671.16,582.502 C 671.168,582.357 671.172,582.22 671.172,582.091 L 671.172,577.405 L 669.384,577.405 L 669.384,586.15 L 670.453,586.15 Z" marker-start="none" marker-end="none"/>
     <path d="M 684.801,586.15 L 684.801,584.542 L 682.342,584.542 L 682.342,577.407 L 680.314,577.407 L 680.314,584.542 L 677.854,584.542 L 677.854,586.15 L 684.801,586.15 Z" marker-start="none" marker-end="none"/>
    </g>
   </g>
  </g>
 </g>
</svg>
