<?xml version="1.0" standalone="no"?>
<!DOCTYPE svg PUBLIC "-//W3C//DTD SVG 1.1//EN" "http://www.w3.org/Graphics/SVG/1.1/DTD/svg11.dtd">
<!--Generator: Xara Designer (www.xara.com), SVG filter version: 6.6.0.0-->
<svg fill="none" fill-rule="evenodd" stroke="black" stroke-width="0.501" stroke-linejoin="bevel" stroke-miterlimit="10" font-family="Times New Roman" font-size="16" style="font-variant-ligatures:none" xmlns:xlink="http://www.w3.org/1999/xlink" xmlns="http://www.w3.org/2000/svg" version="1.1" overflow="visible" width="107.72pt" height="215.438pt" viewBox="585.373 -1038.19 107.72 215.438">
 <defs>
	</defs>
 <g id="Grid 36x36mm" transform="scale(1 -1)">
  <g id="Group" stroke="none">
   <g id="Group_1" stroke-linejoin="miter" stroke-width="0.802" fill="#ffffff">
    <path d="M 585.373,837.965 L 585.373,1022.98 C 585.373,1031.37 592.188,1038.19 600.585,1038.19 L 677.881,1038.19 C 686.278,1038.19 693.093,1031.37 693.093,1022.98 L 693.093,837.965 C 693.093,836.915 692.986,835.89 692.783,834.9 C 691.567,828.959 686.885,824.276 680.945,823.06 C 679.955,822.857 678.93,822.751 677.881,822.751 L 600.585,822.751 C 592.188,822.751 585.373,829.567 585.373,837.965 Z" marker-start="none" marker-end="none"/>
   </g>
   <path d="M 586.265,838.696 L 586.265,1022.24 C 586.265,1030.58 593.027,1037.34 601.357,1037.34 L 677.109,1037.34 C 685.439,1037.34 692.201,1030.58 692.201,1022.24 L 692.201,838.696 C 692.201,830.365 685.439,823.603 677.109,823.603 L 601.357,823.603 C 593.027,823.603 586.265,830.365 586.265,838.696 Z" fill="#00bf02" stroke-width="0.801" stroke-linejoin="miter" marker-start="none" marker-end="none"/>
   <g id="Group_2" fill-rule="nonzero" stroke-linejoin="round" stroke-linecap="round" stroke-width="0.251" fill="#ffffff">
    <g id="Group_3">
     <path d="M 627.106,965.06 L 627.106,962.138 L 625.078,962.138 L 625.078,970.881 L 628.162,970.881 C 628.778,970.881 629.307,970.808 629.749,970.662 C 630.191,970.516 630.555,970.315 630.841,970.059 C 631.127,969.803 631.338,969.501 631.474,969.153 C 631.61,968.805 631.678,968.429 631.678,968.025 C 631.678,967.588 631.608,967.188 631.468,966.824 C 631.328,966.46 631.114,966.148 630.826,965.888 C 630.538,965.628 630.173,965.425 629.731,965.279 C 629.289,965.133 628.766,965.06 628.162,965.06 L 627.106,965.06 Z M 627.106,966.589 L 628.162,966.589 C 628.69,966.589 629.07,966.715 629.302,966.968 C 629.534,967.22 629.65,967.572 629.65,968.025 C 629.65,968.225 629.62,968.407 629.56,968.571 C 629.5,968.735 629.409,968.876 629.287,968.994 C 629.165,969.112 629.011,969.204 628.825,969.268 C 628.639,969.332 628.418,969.364 628.162,969.364 L 627.106,969.364 L 627.106,966.589 Z" marker-start="none" marker-end="none"/>
     <path d="M 634.764,963.756 L 638.004,963.756 L 638.004,962.136 L 632.736,962.136 L 632.736,970.88 L 634.764,970.88 L 634.764,963.756 Z" marker-start="none" marker-end="none"/>
     <path d="M 647.101,962.136 L 645.529,962.136 C 645.353,962.136 645.208,962.177 645.094,962.259 C 644.98,962.341 644.901,962.446 644.857,962.574 L 644.341,964.099 L 641.017,964.099 L 640.501,962.574 C 640.461,962.462 640.383,962.361 640.267,962.271 C 640.151,962.181 640.009,962.136 639.841,962.136 L 638.257,962.136 L 641.641,970.88 L 643.717,970.88 L 647.101,962.136 Z M 641.485,965.479 L 643.873,965.479 L 643.069,967.836 C 643.017,967.986 642.956,968.162 642.886,968.365 C 642.816,968.568 642.747,968.788 642.679,969.024 C 642.615,968.784 642.549,968.561 642.481,968.356 C 642.413,968.152 642.349,967.974 642.289,967.825 L 641.485,965.479 Z" marker-start="none" marker-end="none"/>
     <path d="M 650.963,965.409 L 650.963,962.136 L 648.935,962.136 L 648.935,965.409 L 645.767,970.88 L 647.555,970.88 C 647.731,970.88 647.871,970.838 647.975,970.755 C 648.079,970.671 648.163,970.564 648.227,970.434 L 649.463,967.844 C 649.563,967.636 649.655,967.444 649.739,967.269 C 649.823,967.094 649.897,966.921 649.961,966.75 C 650.021,966.925 650.093,967.1 650.177,967.275 C 650.261,967.45 650.351,967.64 650.447,967.844 L 651.671,970.434 C 651.695,970.487 651.728,970.54 651.77,970.593 C 651.812,970.646 651.86,970.694 651.914,970.736 C 651.968,970.779 652.03,970.814 652.1,970.84 C 652.17,970.867 652.247,970.88 652.331,970.88 L 654.131,970.88 L 650.963,965.409 Z" marker-start="none" marker-end="none"/>
    </g>
    <g id="Group_4">
     <path d="M 631.111,949.205 C 631.391,949.205 631.639,949.228 631.855,949.276 C 632.071,949.323 632.275,949.386 632.467,949.465 L 632.467,950.793 L 631.603,950.793 C 631.475,950.793 631.375,950.827 631.303,950.895 C 631.231,950.963 631.195,951.049 631.195,951.153 L 631.195,952.269 L 634.303,952.269 L 634.303,948.58 C 634.079,948.416 633.846,948.275 633.604,948.156 C 633.362,948.038 633.104,947.941 632.83,947.865 C 632.556,947.789 632.264,947.733 631.954,947.697 C 631.644,947.661 631.311,947.643 630.955,947.643 C 630.315,947.643 629.723,947.756 629.179,947.982 C 628.635,948.209 628.164,948.521 627.766,948.919 C 627.368,949.317 627.056,949.789 626.83,950.335 C 626.604,950.881 626.491,951.474 626.491,952.114 C 626.491,952.766 626.599,953.366 626.815,953.912 C 627.031,954.458 627.34,954.929 627.742,955.325 C 628.144,955.721 628.63,956.029 629.2,956.249 C 629.77,956.469 630.407,956.579 631.111,956.579 C 631.475,956.579 631.817,956.549 632.137,956.489 C 632.457,956.429 632.752,956.347 633.022,956.243 C 633.292,956.139 633.539,956.014 633.763,955.87 C 633.987,955.726 634.187,955.57 634.363,955.401 L 633.775,954.507 C 633.719,954.423 633.652,954.357 633.574,954.309 C 633.496,954.261 633.411,954.237 633.319,954.237 C 633.199,954.237 633.075,954.277 632.947,954.357 C 632.787,954.453 632.636,954.536 632.494,954.606 C 632.352,954.676 632.207,954.733 632.059,954.777 C 631.911,954.821 631.755,954.853 631.591,954.873 C 631.427,954.893 631.243,954.903 631.039,954.903 C 630.659,954.903 630.317,954.836 630.013,954.702 C 629.709,954.568 629.45,954.38 629.236,954.136 C 629.022,953.892 628.857,953.599 628.741,953.257 C 628.625,952.915 628.567,952.534 628.567,952.114 C 628.567,951.65 628.631,951.238 628.759,950.878 C 628.887,950.519 629.064,950.215 629.29,949.967 C 629.516,949.719 629.784,949.53 630.094,949.4 C 630.404,949.27 630.743,949.205 631.111,949.205 Z" marker-start="none" marker-end="none"/>
     <path d="M 637.566,950.974 L 637.566,947.74 L 635.538,947.74 L 635.538,956.482 L 638.382,956.482 C 639.014,956.482 639.553,956.417 639.999,956.287 C 640.445,956.157 640.809,955.976 641.091,955.744 C 641.373,955.511 641.578,955.237 641.706,954.92 C 641.834,954.604 641.898,954.26 641.898,953.887 C 641.898,953.603 641.86,953.335 641.784,953.082 C 641.708,952.83 641.595,952.596 641.445,952.382 C 641.295,952.168 641.111,951.977 640.893,951.808 C 640.675,951.64 640.424,951.502 640.14,951.394 C 640.276,951.326 640.403,951.242 640.521,951.142 C 640.639,951.042 640.742,950.921 640.83,950.777 L 642.69,947.74 L 640.854,947.74 C 640.514,947.74 640.27,947.868 640.122,948.124 L 638.67,950.662 C 638.606,950.774 638.531,950.854 638.445,950.902 C 638.359,950.951 638.238,950.975 638.082,950.974 L 637.566,950.974 Z M 637.566,952.372 L 638.382,952.372 C 638.658,952.372 638.893,952.407 639.087,952.477 C 639.281,952.547 639.44,952.644 639.564,952.768 C 639.688,952.892 639.778,953.037 639.834,953.203 C 639.89,953.369 639.918,953.548 639.918,953.74 C 639.918,954.125 639.793,954.425 639.543,954.641 C 639.293,954.857 638.906,954.965 638.382,954.965 L 637.566,954.965 L 637.566,952.372 Z" marker-start="none" marker-end="none"/>
     <path d="M 651.847,952.114 C 651.847,951.482 651.738,950.894 651.52,950.35 C 651.302,949.806 650.995,949.333 650.599,948.931 C 650.203,948.529 649.726,948.214 649.168,947.985 C 648.61,947.757 647.991,947.643 647.311,947.643 C 646.631,947.643 646.011,947.757 645.451,947.985 C 644.891,948.214 644.412,948.529 644.014,948.931 C 643.616,949.333 643.308,949.806 643.09,950.35 C 642.872,950.894 642.763,951.482 642.763,952.114 C 642.763,952.746 642.872,953.335 643.09,953.879 C 643.308,954.423 643.616,954.895 644.014,955.295 C 644.412,955.695 644.891,956.009 645.451,956.237 C 646.011,956.465 646.631,956.579 647.311,956.579 C 647.991,956.579 648.61,956.464 649.168,956.234 C 649.726,956.004 650.203,955.689 650.599,955.289 C 650.995,954.889 651.302,954.417 651.52,953.873 C 651.738,953.329 651.847,952.742 651.847,952.114 Z M 649.771,952.114 C 649.771,952.546 649.715,952.935 649.603,953.281 C 649.491,953.627 649.33,953.92 649.12,954.16 C 648.91,954.4 648.653,954.583 648.349,954.711 C 648.045,954.839 647.699,954.903 647.311,954.903 C 646.919,954.903 646.57,954.839 646.264,954.711 C 645.958,954.583 645.7,954.4 645.49,954.16 C 645.28,953.92 645.119,953.627 645.007,953.281 C 644.895,952.935 644.839,952.546 644.839,952.114 C 644.839,951.678 644.895,951.287 645.007,950.942 C 645.119,950.596 645.28,950.303 645.49,950.063 C 645.7,949.823 645.958,949.64 646.264,949.514 C 646.57,949.388 646.919,949.325 647.311,949.325 C 647.699,949.325 648.045,949.388 648.349,949.514 C 648.653,949.64 648.91,949.823 649.12,950.063 C 649.33,950.303 649.491,950.596 649.603,950.942 C 649.715,951.287 649.771,951.678 649.771,952.114 Z" marker-start="none" marker-end="none"/>
    </g>
    <g id="Group_5">
     <path d="M 626.127,937.718 C 626.127,937.086 626.018,936.498 625.8,935.954 C 625.582,935.41 625.275,934.937 624.879,934.535 C 624.483,934.133 624.006,933.818 623.448,933.589 C 622.89,933.361 622.271,933.247 621.591,933.247 C 620.911,933.247 620.291,933.361 619.731,933.589 C 619.171,933.818 618.692,934.133 618.294,934.535 C 617.896,934.937 617.588,935.41 617.37,935.954 C 617.152,936.498 617.043,937.086 617.043,937.718 C 617.043,938.35 617.152,938.939 617.37,939.483 C 617.588,940.027 617.896,940.499 618.294,940.899 C 618.692,941.299 619.171,941.613 619.731,941.841 C 620.291,942.069 620.911,942.183 621.591,942.183 C 622.271,942.183 622.89,942.068 623.448,941.838 C 624.006,941.608 624.483,941.293 624.879,940.893 C 625.275,940.493 625.582,940.021 625.8,939.477 C 626.018,938.933 626.127,938.346 626.127,937.718 Z M 624.051,937.718 C 624.051,938.15 623.995,938.539 623.883,938.885 C 623.771,939.231 623.61,939.524 623.4,939.764 C 623.19,940.004 622.933,940.187 622.629,940.315 C 622.325,940.443 621.979,940.507 621.591,940.507 C 621.199,940.507 620.85,940.443 620.544,940.315 C 620.238,940.187 619.98,940.004 619.77,939.764 C 619.56,939.524 619.399,939.231 619.287,938.885 C 619.175,938.539 619.119,938.15 619.119,937.718 C 619.119,937.282 619.175,936.891 619.287,936.546 C 619.399,936.2 619.56,935.907 619.77,935.667 C 619.98,935.427 620.238,935.244 620.544,935.118 C 620.85,934.992 621.199,934.929 621.591,934.929 C 621.979,934.929 622.325,934.992 622.629,935.118 C 622.933,935.244 623.19,935.427 623.4,935.667 C 623.61,935.907 623.771,936.2 623.883,936.546 C 623.995,936.891 624.051,937.282 624.051,937.718 Z" marker-start="none" marker-end="none"/>
     <path d="M 629.125,936.578 L 629.125,933.344 L 627.097,933.344 L 627.097,942.086 L 629.941,942.086 C 630.573,942.086 631.112,942.021 631.558,941.891 C 632.004,941.761 632.368,941.58 632.65,941.348 C 632.932,941.115 633.137,940.841 633.265,940.524 C 633.393,940.208 633.457,939.864 633.457,939.491 C 633.457,939.207 633.419,938.939 633.343,938.686 C 633.267,938.434 633.154,938.2 633.004,937.986 C 632.854,937.772 632.67,937.581 632.452,937.412 C 632.234,937.244 631.983,937.106 631.699,936.998 C 631.835,936.93 631.962,936.846 632.08,936.746 C 632.198,936.646 632.301,936.525 632.389,936.381 L 634.249,933.344 L 632.413,933.344 C 632.073,933.344 631.829,933.472 631.681,933.728 L 630.229,936.266 C 630.165,936.378 630.09,936.458 630.004,936.506 C 629.918,936.555 629.797,936.579 629.641,936.578 L 629.125,936.578 Z M 629.125,937.976 L 629.941,937.976 C 630.217,937.976 630.452,938.011 630.646,938.081 C 630.84,938.151 630.999,938.248 631.123,938.372 C 631.247,938.496 631.337,938.641 631.393,938.807 C 631.449,938.973 631.477,939.152 631.477,939.344 C 631.477,939.729 631.352,940.029 631.102,940.245 C 630.852,940.461 630.465,940.569 629.941,940.569 L 629.125,940.569 L 629.125,937.976 Z" marker-start="none" marker-end="none"/>
     <path d="M 641.509,934.809 C 641.789,934.809 642.037,934.832 642.253,934.88 C 642.469,934.927 642.673,934.99 642.865,935.069 L 642.865,936.397 L 642.001,936.397 C 641.873,936.397 641.773,936.431 641.701,936.499 C 641.629,936.567 641.593,936.653 641.593,936.757 L 641.593,937.873 L 644.701,937.873 L 644.701,934.184 C 644.477,934.02 644.244,933.879 644.002,933.76 C 643.76,933.642 643.502,933.545 643.228,933.469 C 642.954,933.393 642.662,933.337 642.352,933.301 C 642.042,933.265 641.709,933.247 641.353,933.247 C 640.713,933.247 640.121,933.36 639.577,933.586 C 639.033,933.813 638.562,934.125 638.164,934.523 C 637.766,934.921 637.454,935.393 637.228,935.939 C 637.002,936.485 636.889,937.078 636.889,937.718 C 636.889,938.37 636.997,938.97 637.213,939.516 C 637.429,940.062 637.738,940.533 638.14,940.929 C 638.542,941.325 639.028,941.633 639.598,941.853 C 640.168,942.073 640.805,942.183 641.509,942.183 C 641.873,942.183 642.215,942.153 642.535,942.093 C 642.855,942.033 643.15,941.951 643.42,941.847 C 643.69,941.743 643.937,941.618 644.161,941.474 C 644.385,941.33 644.585,941.174 644.761,941.005 L 644.173,940.111 C 644.117,940.027 644.05,939.961 643.972,939.913 C 643.894,939.865 643.809,939.841 643.717,939.841 C 643.597,939.841 643.473,939.881 643.345,939.961 C 643.185,940.057 643.034,940.14 642.892,940.21 C 642.75,940.28 642.605,940.337 642.457,940.381 C 642.309,940.425 642.153,940.457 641.989,940.477 C 641.825,940.497 641.641,940.507 641.437,940.507 C 641.057,940.507 640.715,940.44 640.411,940.306 C 640.107,940.172 639.848,939.984 639.634,939.74 C 639.42,939.496 639.255,939.203 639.139,938.861 C 639.023,938.519 638.965,938.138 638.965,937.718 C 638.965,937.254 639.029,936.842 639.157,936.482 C 639.285,936.123 639.462,935.819 639.688,935.571 C 639.914,935.323 640.182,935.134 640.492,935.004 C 640.802,934.874 641.141,934.809 641.509,934.809 Z" marker-start="none" marker-end="none"/>
     <path d="M 651.564,942.089 L 651.564,940.528 L 647.976,940.528 L 647.976,938.486 L 650.724,938.486 L 650.724,936.986 L 647.976,936.986 L 647.976,934.906 L 651.564,934.906 L 651.564,933.344 L 645.936,933.344 L 645.936,942.089 L 651.564,942.089 Z" marker-start="none" marker-end="none"/>
     <path d="M 661.343,937.718 C 661.343,937.086 661.234,936.498 661.016,935.954 C 660.798,935.41 660.491,934.937 660.095,934.535 C 659.699,934.133 659.222,933.818 658.664,933.589 C 658.106,933.361 657.487,933.247 656.807,933.247 C 656.127,933.247 655.507,933.361 654.947,933.589 C 654.387,933.818 653.908,934.133 653.51,934.535 C 653.112,934.937 652.804,935.41 652.586,935.954 C 652.368,936.498 652.259,937.086 652.259,937.718 C 652.259,938.35 652.368,938.939 652.586,939.483 C 652.804,940.027 653.112,940.499 653.51,940.899 C 653.908,941.299 654.387,941.613 654.947,941.841 C 655.507,942.069 656.127,942.183 656.807,942.183 C 657.487,942.183 658.106,942.068 658.664,941.838 C 659.222,941.608 659.699,941.293 660.095,940.893 C 660.491,940.493 660.798,940.021 661.016,939.477 C 661.234,938.933 661.343,938.346 661.343,937.718 Z M 659.267,937.718 C 659.267,938.15 659.211,938.539 659.099,938.885 C 658.987,939.231 658.826,939.524 658.616,939.764 C 658.406,940.004 658.149,940.187 657.845,940.315 C 657.541,940.443 657.195,940.507 656.807,940.507 C 656.415,940.507 656.066,940.443 655.76,940.315 C 655.454,940.187 655.196,940.004 654.986,939.764 C 654.776,939.524 654.615,939.231 654.503,938.885 C 654.391,938.539 654.335,938.15 654.335,937.718 C 654.335,937.282 654.391,936.891 654.503,936.546 C 654.615,936.2 654.776,935.907 654.986,935.667 C 655.196,935.427 655.454,935.244 655.76,935.118 C 656.066,934.992 656.415,934.929 656.807,934.929 C 657.195,934.929 657.541,934.992 657.845,935.118 C 658.149,935.244 658.406,935.427 658.616,935.667 C 658.826,935.907 658.987,936.2 659.099,936.546 C 659.211,936.891 659.267,937.282 659.267,937.718 Z" marker-start="none" marker-end="none"/>
    </g>
    <g id="Group_6">
     <path d="M 638.04,927.693 L 638.04,926.085 L 635.58,926.085 L 635.58,918.95 L 633.552,918.95 L 633.552,926.085 L 631.092,926.085 L 631.092,927.693 L 638.04,927.693 Z" marker-start="none" marker-end="none"/>
     <path d="M 647.15,923.322 C 647.15,922.69 647.041,922.102 646.823,921.558 C 646.605,921.014 646.298,920.541 645.902,920.139 C 645.506,919.737 645.029,919.422 644.471,919.193 C 643.913,918.965 643.294,918.851 642.614,918.851 C 641.934,918.851 641.314,918.965 640.754,919.193 C 640.194,919.422 639.715,919.737 639.317,920.139 C 638.919,920.541 638.611,921.014 638.393,921.558 C 638.175,922.102 638.066,922.69 638.066,923.322 C 638.066,923.954 638.175,924.543 638.393,925.087 C 638.611,925.631 638.919,926.103 639.317,926.503 C 639.715,926.903 640.194,927.217 640.754,927.445 C 641.314,927.673 641.934,927.787 642.614,927.787 C 643.294,927.787 643.913,927.672 644.471,927.442 C 645.029,927.212 645.506,926.897 645.902,926.497 C 646.298,926.097 646.605,925.625 646.823,925.081 C 647.041,924.537 647.15,923.95 647.15,923.322 Z M 645.074,923.322 C 645.074,923.754 645.018,924.143 644.906,924.489 C 644.794,924.835 644.633,925.128 644.423,925.368 C 644.213,925.608 643.956,925.791 643.652,925.919 C 643.348,926.047 643.002,926.111 642.614,926.111 C 642.222,926.111 641.873,926.047 641.567,925.919 C 641.261,925.791 641.003,925.608 640.793,925.368 C 640.583,925.128 640.422,924.835 640.31,924.489 C 640.198,924.143 640.142,923.754 640.142,923.322 C 640.142,922.886 640.198,922.495 640.31,922.15 C 640.422,921.804 640.583,921.511 640.793,921.271 C 641.003,921.031 641.261,920.848 641.567,920.722 C 641.873,920.596 642.222,920.533 642.614,920.533 C 643.002,920.533 643.348,920.596 643.652,920.722 C 643.956,920.848 644.213,921.031 644.423,921.271 C 644.633,921.511 644.794,921.804 644.906,922.15 C 645.018,922.495 645.074,922.886 645.074,923.322 Z" marker-start="none" marker-end="none"/>
    </g>
    <g id="Group_7">
     <path d="M 620.685,906.813 C 620.733,906.813 620.781,906.803 620.829,906.785 C 620.877,906.767 620.923,906.735 620.967,906.69 L 621.771,905.826 C 621.419,905.373 620.978,905.031 620.448,904.801 C 619.918,904.571 619.291,904.455 618.567,904.455 C 617.903,904.455 617.308,904.568 616.782,904.794 C 616.256,905.021 615.81,905.333 615.444,905.731 C 615.078,906.129 614.797,906.601 614.601,907.147 C 614.405,907.693 614.307,908.286 614.307,908.926 C 614.307,909.578 614.419,910.178 614.643,910.724 C 614.867,911.27 615.18,911.741 615.582,912.137 C 615.984,912.533 616.465,912.841 617.025,913.061 C 617.585,913.281 618.203,913.391 618.879,913.391 C 619.207,913.391 619.516,913.362 619.806,913.304 C 620.096,913.246 620.367,913.166 620.619,913.064 C 620.871,912.962 621.103,912.839 621.315,912.697 C 621.527,912.555 621.715,912.398 621.879,912.225 L 621.195,911.307 C 621.151,911.251 621.099,911.2 621.039,911.154 C 620.979,911.108 620.895,911.085 620.787,911.085 C 620.715,911.085 620.647,911.101 620.583,911.133 C 620.519,911.165 620.451,911.204 620.379,911.25 C 620.307,911.296 620.228,911.346 620.142,911.4 C 620.056,911.454 619.954,911.504 619.836,911.55 C 619.718,911.596 619.58,911.635 619.422,911.667 C 619.264,911.699 619.079,911.715 618.867,911.715 C 618.499,911.715 618.163,911.65 617.859,911.52 C 617.555,911.39 617.294,911.204 617.076,910.962 C 616.858,910.72 616.688,910.427 616.566,910.083 C 616.444,909.739 616.383,909.353 616.383,908.925 C 616.383,908.477 616.444,908.079 616.566,907.731 C 616.688,907.383 616.854,907.09 617.064,906.851 C 617.274,906.614 617.519,906.433 617.799,906.308 C 618.079,906.184 618.379,906.122 618.699,906.122 C 618.883,906.122 619.051,906.131 619.203,906.149 C 619.355,906.167 619.496,906.198 619.626,906.242 C 619.756,906.286 619.88,906.343 619.998,906.413 C 620.116,906.483 620.235,906.57 620.355,906.675 C 620.403,906.715 620.455,906.748 620.511,906.774 C 620.567,906.8 620.625,906.813 620.685,906.813 Z" marker-start="none" marker-end="none"/>
     <path d="M 630.33,904.552 L 628.29,904.552 L 628.29,908.249 L 624.738,908.249 L 624.738,904.552 L 622.698,904.552 L 622.698,913.297 L 624.738,913.297 L 624.738,909.641 L 628.29,909.641 L 628.29,913.297 L 630.33,913.297 L 630.33,904.552 Z" marker-start="none" marker-end="none"/>
     <path d="M 639.904,904.552 L 638.332,904.552 C 638.156,904.552 638.011,904.593 637.897,904.675 C 637.783,904.757 637.704,904.862 637.66,904.99 L 637.144,906.515 L 633.82,906.515 L 633.304,904.99 C 633.264,904.878 633.186,904.777 633.07,904.687 C 632.954,904.597 632.812,904.552 632.644,904.552 L 631.06,904.552 L 634.444,913.296 L 636.52,913.296 L 639.904,904.552 Z M 634.288,907.895 L 636.676,907.895 L 635.872,910.252 C 635.82,910.402 635.759,910.578 635.689,910.781 C 635.619,910.984 635.55,911.204 635.482,911.44 C 635.418,911.2 635.352,910.977 635.284,910.772 C 635.216,910.568 635.152,910.39 635.092,910.241 L 634.288,907.895 Z" marker-start="none" marker-end="none"/>
     <path d="M 641.678,913.297 C 641.766,913.297 641.84,913.293 641.9,913.285 C 641.96,913.277 642.014,913.262 642.062,913.24 C 642.11,913.218 642.156,913.187 642.2,913.147 C 642.244,913.107 642.294,913.053 642.35,912.985 L 646.502,907.735 C 646.486,907.903 646.474,908.066 646.466,908.224 C 646.458,908.382 646.454,908.531 646.454,908.671 L 646.454,913.297 L 648.242,913.297 L 648.242,904.552 L 647.186,904.552 C 647.03,904.552 646.898,904.576 646.79,904.624 C 646.682,904.672 646.578,904.76 646.478,904.888 L 642.356,910.096 C 642.368,909.944 642.378,909.795 642.386,909.649 C 642.394,909.503 642.398,909.366 642.398,909.238 L 642.398,904.552 L 640.61,904.552 L 640.61,913.297 L 641.678,913.297 Z" marker-start="none" marker-end="none"/>
     <path d="M 653.796,906.017 C 654.076,906.017 654.324,906.04 654.54,906.088 C 654.756,906.135 654.96,906.198 655.152,906.277 L 655.152,907.605 L 654.288,907.605 C 654.16,907.605 654.06,907.639 653.988,907.707 C 653.916,907.775 653.88,907.861 653.88,907.965 L 653.88,909.081 L 656.988,909.081 L 656.988,905.392 C 656.764,905.228 656.531,905.087 656.289,904.968 C 656.047,904.85 655.789,904.753 655.515,904.677 C 655.241,904.601 654.949,904.545 654.639,904.509 C 654.329,904.473 653.996,904.455 653.64,904.455 C 653,904.455 652.408,904.568 651.864,904.794 C 651.32,905.021 650.849,905.333 650.451,905.731 C 650.053,906.129 649.741,906.601 649.515,907.147 C 649.289,907.693 649.176,908.286 649.176,908.926 C 649.176,909.578 649.284,910.178 649.5,910.724 C 649.716,911.27 650.025,911.741 650.427,912.137 C 650.829,912.533 651.315,912.841 651.885,913.061 C 652.455,913.281 653.092,913.391 653.796,913.391 C 654.16,913.391 654.502,913.361 654.822,913.301 C 655.142,913.241 655.437,913.159 655.707,913.055 C 655.977,912.951 656.224,912.826 656.448,912.682 C 656.672,912.538 656.872,912.382 657.048,912.213 L 656.46,911.319 C 656.404,911.235 656.337,911.169 656.259,911.121 C 656.181,911.073 656.096,911.049 656.004,911.049 C 655.884,911.049 655.76,911.089 655.632,911.169 C 655.472,911.265 655.321,911.348 655.179,911.418 C 655.037,911.488 654.892,911.545 654.744,911.589 C 654.596,911.633 654.44,911.665 654.276,911.685 C 654.112,911.705 653.928,911.715 653.724,911.715 C 653.344,911.715 653.002,911.648 652.698,911.514 C 652.394,911.38 652.135,911.192 651.921,910.948 C 651.707,910.704 651.542,910.411 651.426,910.069 C 651.31,909.727 651.252,909.346 651.252,908.926 C 651.252,908.462 651.316,908.05 651.444,907.69 C 651.572,907.331 651.749,907.027 651.975,906.779 C 652.201,906.531 652.469,906.342 652.779,906.212 C 653.089,906.082 653.428,906.017 653.796,906.017 Z" marker-start="none" marker-end="none"/>
     <path d="M 663.851,913.297 L 663.851,911.736 L 660.263,911.736 L 660.263,909.694 L 663.011,909.694 L 663.011,908.194 L 660.263,908.194 L 660.263,906.114 L 663.851,906.114 L 663.851,904.552 L 658.223,904.552 L 658.223,913.297 L 663.851,913.297 Z" marker-start="none" marker-end="none"/>
    </g>
    <g id="Group_8">
     <path d="M 599.669,892.417 C 599.717,892.417 599.765,892.407 599.813,892.389 C 599.861,892.371 599.907,892.339 599.951,892.294 L 600.755,891.43 C 600.403,890.977 599.962,890.635 599.432,890.405 C 598.902,890.175 598.275,890.059 597.551,890.059 C 596.887,890.059 596.292,890.172 595.766,890.398 C 595.24,890.625 594.794,890.937 594.428,891.335 C 594.062,891.733 593.781,892.205 593.585,892.751 C 593.389,893.297 593.291,893.89 593.291,894.53 C 593.291,895.182 593.403,895.782 593.627,896.328 C 593.851,896.874 594.164,897.345 594.566,897.741 C 594.968,898.137 595.449,898.445 596.009,898.665 C 596.569,898.885 597.187,898.995 597.863,898.995 C 598.191,898.995 598.5,898.966 598.79,898.908 C 599.08,898.85 599.351,898.77 599.603,898.668 C 599.855,898.566 600.087,898.443 600.299,898.301 C 600.511,898.159 600.699,898.002 600.863,897.829 L 600.179,896.911 C 600.135,896.855 600.083,896.804 600.023,896.758 C 599.963,896.712 599.879,896.689 599.771,896.689 C 599.699,896.689 599.631,896.705 599.567,896.737 C 599.503,896.769 599.435,896.808 599.363,896.854 C 599.291,896.9 599.212,896.95 599.126,897.004 C 599.04,897.058 598.938,897.108 598.82,897.154 C 598.702,897.2 598.564,897.239 598.406,897.271 C 598.248,897.303 598.063,897.319 597.851,897.319 C 597.483,897.319 597.147,897.254 596.843,897.124 C 596.539,896.994 596.278,896.808 596.06,896.566 C 595.842,896.324 595.672,896.031 595.55,895.687 C 595.428,895.343 595.367,894.957 595.367,894.529 C 595.367,894.081 595.428,893.683 595.55,893.335 C 595.672,892.987 595.838,892.694 596.048,892.455 C 596.258,892.218 596.503,892.037 596.783,891.912 C 597.063,891.788 597.363,891.726 597.683,891.726 C 597.867,891.726 598.035,891.735 598.187,891.753 C 598.339,891.771 598.48,891.802 598.61,891.846 C 598.74,891.89 598.864,891.947 598.982,892.017 C 599.1,892.087 599.219,892.174 599.339,892.279 C 599.387,892.319 599.439,892.352 599.495,892.378 C 599.551,892.404 599.609,892.417 599.669,892.417 Z" marker-start="none" marker-end="none"/>
     <path d="M 609.818,890.156 L 608.246,890.156 C 608.07,890.156 607.925,890.197 607.811,890.279 C 607.697,890.361 607.618,890.466 607.574,890.594 L 607.058,892.119 L 603.734,892.119 L 603.218,890.594 C 603.178,890.482 603.1,890.381 602.984,890.291 C 602.868,890.201 602.726,890.156 602.558,890.156 L 600.974,890.156 L 604.358,898.9 L 606.434,898.9 L 609.818,890.156 Z M 604.202,893.499 L 606.59,893.499 L 605.786,895.856 C 605.734,896.006 605.673,896.182 605.603,896.385 C 605.533,896.588 605.464,896.808 605.396,897.044 C 605.332,896.804 605.266,896.581 605.198,896.376 C 605.13,896.172 605.066,895.994 605.006,895.845 L 604.202,893.499 Z" marker-start="none" marker-end="none"/>
     <path d="M 612.552,893.39 L 612.552,890.156 L 610.524,890.156 L 610.524,898.898 L 613.368,898.898 C 614,898.898 614.539,898.833 614.985,898.703 C 615.431,898.573 615.795,898.392 616.077,898.16 C 616.359,897.927 616.564,897.653 616.692,897.336 C 616.82,897.02 616.884,896.676 616.884,896.303 C 616.884,896.019 616.846,895.751 616.77,895.498 C 616.694,895.246 616.581,895.012 616.431,894.798 C 616.281,894.584 616.097,894.393 615.879,894.224 C 615.661,894.056 615.41,893.918 615.126,893.81 C 615.262,893.742 615.389,893.658 615.507,893.558 C 615.625,893.458 615.728,893.337 615.816,893.193 L 617.676,890.156 L 615.84,890.156 C 615.5,890.156 615.256,890.284 615.108,890.54 L 613.656,893.078 C 613.592,893.19 613.517,893.27 613.431,893.318 C 613.345,893.367 613.224,893.391 613.068,893.39 L 612.552,893.39 Z M 612.552,894.788 L 613.368,894.788 C 613.644,894.788 613.879,894.823 614.073,894.893 C 614.267,894.963 614.426,895.06 614.55,895.184 C 614.674,895.308 614.764,895.453 614.82,895.619 C 614.876,895.785 614.904,895.964 614.904,896.156 C 614.904,896.541 614.779,896.841 614.529,897.057 C 614.279,897.273 613.892,897.381 613.368,897.381 L 612.552,897.381 L 612.552,894.788 Z" marker-start="none" marker-end="none"/>
     <path d="M 618.505,890.156 L 618.505,898.898 L 621.721,898.898 C 622.325,898.898 622.839,898.842 623.263,898.73 C 623.687,898.618 624.033,898.461 624.301,898.257 C 624.569,898.053 624.764,897.805 624.886,897.513 C 625.008,897.221 625.069,896.895 625.069,896.535 C 625.069,896.339 625.041,896.15 624.985,895.968 C 624.929,895.786 624.841,895.615 624.721,895.455 C 624.601,895.295 624.447,895.15 624.259,895.02 C 624.071,894.89 623.845,894.777 623.581,894.681 C 624.157,894.541 624.583,894.314 624.859,894 C 625.135,893.686 625.273,893.283 625.273,892.791 C 625.273,892.419 625.201,892.073 625.057,891.752 C 624.913,891.432 624.702,891.153 624.424,890.915 C 624.146,890.677 623.803,890.491 623.395,890.357 C 622.987,890.223 622.521,890.156 621.997,890.156 L 618.505,890.156 Z M 620.533,893.865 L 620.533,891.685 L 621.961,891.685 C 622.229,891.685 622.448,891.719 622.618,891.787 C 622.788,891.856 622.921,891.944 623.017,892.052 C 623.113,892.16 623.179,892.282 623.215,892.418 C 623.251,892.554 623.269,892.692 623.269,892.832 C 623.269,892.992 623.248,893.136 623.206,893.265 C 623.164,893.393 623.092,893.501 622.99,893.589 C 622.888,893.677 622.753,893.745 622.585,893.793 C 622.417,893.841 622.205,893.865 621.949,893.865 L 620.533,893.865 Z M 620.533,895.222 L 621.589,895.222 C 621.813,895.222 622.015,895.238 622.195,895.269 C 622.375,895.302 622.528,895.358 622.654,895.437 C 622.78,895.517 622.876,895.627 622.942,895.767 C 623.008,895.907 623.041,896.083 623.041,896.295 C 623.041,896.503 623.015,896.676 622.963,896.814 C 622.911,896.952 622.831,897.063 622.723,897.147 C 622.615,897.231 622.478,897.291 622.312,897.327 C 622.146,897.363 621.949,897.381 621.721,897.381 L 620.533,897.381 L 620.533,895.222 Z" marker-start="none" marker-end="none"/>
     <path d="M 635.002,894.53 C 635.002,893.898 634.893,893.31 634.675,892.766 C 634.457,892.222 634.15,891.749 633.754,891.347 C 633.358,890.945 632.881,890.63 632.323,890.401 C 631.765,890.173 631.146,890.059 630.466,890.059 C 629.786,890.059 629.166,890.173 628.606,890.401 C 628.046,890.63 627.567,890.945 627.169,891.347 C 626.771,891.749 626.463,892.222 626.245,892.766 C 626.027,893.31 625.918,893.898 625.918,894.53 C 625.918,895.162 626.027,895.751 626.245,896.295 C 626.463,896.839 626.771,897.311 627.169,897.711 C 627.567,898.111 628.046,898.425 628.606,898.653 C 629.166,898.881 629.786,898.995 630.466,898.995 C 631.146,898.995 631.765,898.88 632.323,898.65 C 632.881,898.42 633.358,898.105 633.754,897.705 C 634.15,897.305 634.457,896.833 634.675,896.289 C 634.893,895.745 635.002,895.158 635.002,894.53 Z M 632.926,894.53 C 632.926,894.962 632.87,895.351 632.758,895.697 C 632.646,896.043 632.485,896.336 632.275,896.576 C 632.065,896.816 631.808,896.999 631.504,897.127 C 631.2,897.255 630.854,897.319 630.466,897.319 C 630.074,897.319 629.725,897.255 629.419,897.127 C 629.113,896.999 628.855,896.816 628.645,896.576 C 628.435,896.336 628.274,896.043 628.162,895.697 C 628.05,895.351 627.994,894.962 627.994,894.53 C 627.994,894.094 628.05,893.703 628.162,893.358 C 628.274,893.012 628.435,892.719 628.645,892.479 C 628.855,892.239 629.113,892.056 629.419,891.93 C 629.725,891.804 630.074,891.741 630.466,891.741 C 630.854,891.741 631.2,891.804 631.504,891.93 C 631.808,892.056 632.065,892.239 632.275,892.479 C 632.485,892.719 632.646,893.012 632.758,893.358 C 632.87,893.703 632.926,894.094 632.926,894.53 Z" marker-start="none" marker-end="none"/>
     <path d="M 637.04,898.901 C 637.128,898.901 637.202,898.897 637.262,898.889 C 637.322,898.881 637.376,898.866 637.424,898.844 C 637.472,898.822 637.518,898.791 637.562,898.751 C 637.606,898.711 637.656,898.657 637.712,898.589 L 641.864,893.339 C 641.848,893.507 641.836,893.67 641.828,893.828 C 641.82,893.986 641.816,894.135 641.816,894.275 L 641.816,898.901 L 643.604,898.901 L 643.604,890.156 L 642.548,890.156 C 642.392,890.156 642.26,890.18 642.152,890.228 C 642.044,890.276 641.94,890.364 641.84,890.492 L 637.718,895.7 C 637.73,895.548 637.74,895.399 637.748,895.253 C 637.756,895.107 637.76,894.97 637.76,894.842 L 637.76,890.156 L 635.972,890.156 L 635.972,898.901 L 637.04,898.901 Z" marker-start="none" marker-end="none"/>
     <path d="M 652.985,898.901 L 652.985,897.34 L 649.397,897.34 L 649.397,895.298 L 652.145,895.298 L 652.145,893.798 L 649.397,893.798 L 649.397,891.718 L 652.985,891.718 L 652.985,890.156 L 647.357,890.156 L 647.357,898.901 L 652.985,898.901 Z" marker-start="none" marker-end="none"/>
     <path d="M 653.416,898.9 L 655.048,898.9 C 655.224,898.9 655.368,898.86 655.48,898.779 C 655.592,898.699 655.672,898.592 655.72,898.46 L 657.412,893.754 C 657.488,893.549 657.565,893.325 657.643,893.084 C 657.721,892.843 657.794,892.59 657.862,892.324 C 657.918,892.59 657.983,892.843 658.057,893.084 C 658.131,893.325 658.204,893.549 658.276,893.754 L 659.956,898.46 C 659.996,898.572 660.074,898.674 660.19,898.764 C 660.306,898.855 660.448,898.9 660.616,898.9 L 662.26,898.9 L 658.756,890.156 L 656.92,890.156 L 653.416,898.9 Z" marker-start="none" marker-end="none"/>
     <path d="M 668.606,898.901 L 668.606,897.34 L 665.018,897.34 L 665.018,895.298 L 667.766,895.298 L 667.766,893.798 L 665.018,893.798 L 665.018,891.718 L 668.606,891.718 L 668.606,890.156 L 662.978,890.156 L 662.978,898.901 L 668.606,898.901 Z" marker-start="none" marker-end="none"/>
     <path d="M 670.825,898.901 C 670.913,898.901 670.987,898.897 671.047,898.889 C 671.107,898.881 671.161,898.866 671.209,898.844 C 671.257,898.822 671.303,898.791 671.347,898.751 C 671.391,898.711 671.441,898.657 671.497,898.589 L 675.649,893.339 C 675.633,893.507 675.621,893.67 675.613,893.828 C 675.605,893.986 675.601,894.135 675.601,894.275 L 675.601,898.901 L 677.389,898.901 L 677.389,890.156 L 676.333,890.156 C 676.177,890.156 676.045,890.18 675.937,890.228 C 675.829,890.276 675.725,890.364 675.625,890.492 L 671.503,895.7 C 671.515,895.548 671.525,895.399 671.533,895.253 C 671.541,895.107 671.545,894.97 671.545,894.842 L 671.545,890.156 L 669.757,890.156 L 669.757,898.901 L 670.825,898.901 Z" marker-start="none" marker-end="none"/>
     <path d="M 685.175,898.901 L 685.175,897.293 L 682.715,897.293 L 682.715,890.158 L 680.687,890.158 L 680.687,897.293 L 678.227,897.293 L 678.227,898.901 L 685.175,898.901 Z" marker-start="none" marker-end="none"/>
    </g>
   </g>
  </g>
 </g>
</svg>
