<?xml version="1.0" standalone="no"?>
<!DOCTYPE svg PUBLIC "-//W3C//DTD SVG 1.1//EN" "http://www.w3.org/Graphics/SVG/1.1/DTD/svg11.dtd">
<!--Generator: Xara Designer (www.xara.com), SVG filter version: 6.6.0.0-->
<svg fill="none" fill-rule="evenodd" stroke="black" stroke-width="0.501" stroke-linejoin="bevel" stroke-miterlimit="10" font-family="Times New Roman" font-size="16" style="font-variant-ligatures:none" xmlns:xlink="http://www.w3.org/1999/xlink" xmlns="http://www.w3.org/2000/svg" version="1.1" overflow="visible" width="107.718pt" height="107.72pt" viewBox="930.714 -928.594 107.718 107.72">
 <defs>
	</defs>
 <g id="Grid 36x36mm" transform="scale(1 -1)">
  <path d="M 930.714,836.088 L 930.714,913.38 C 930.714,921.778 937.529,928.594 945.926,928.594 L 984.57,928.592 L 984.563,928.592 L 984.573,874.734 L 984.583,928.592 L 984.576,928.592 L 1023.22,928.594 C 1031.62,928.594 1038.43,921.778 1038.43,913.38 L 1038.43,836.088 C 1038.43,827.69 1031.62,820.874 1023.22,820.874 L 984.576,820.876 L 984.583,820.876 L 984.573,874.734 L 984.563,820.876 L 984.57,820.876 L 945.926,820.874 C 937.529,820.874 930.714,827.69 930.714,836.088 Z" stroke-linejoin="miter" stroke="none" fill="#ffffff" stroke-width="0.802" marker-start="none" marker-end="none"/>
  <path d="M 931.563,836.816 L 931.563,912.652 C 931.563,920.983 938.325,927.745 946.655,927.745 L 1022.49,927.745 C 1030.82,927.745 1037.58,920.983 1037.58,912.652 L 1037.58,836.816 C 1037.58,828.485 1030.82,821.723 1022.49,821.723 L 946.655,821.723 C 938.325,821.723 931.563,828.485 931.563,836.816 Z" fill="#00bf02" stroke-linejoin="miter" stroke="none" stroke-width="0.801" marker-start="none" marker-end="none"/>
  <g id="Group" fill="#ffffff" fill-rule="nonzero" stroke-linejoin="round" stroke-linecap="round" stroke="none" stroke-width="0.251">
   <g id="Group_1">
    <path d="M 972.075,880.532 L 972.075,877.61 L 970.047,877.61 L 970.047,886.353 L 973.131,886.353 C 973.747,886.353 974.276,886.28 974.718,886.134 C 975.16,885.988 975.524,885.787 975.81,885.531 C 976.096,885.275 976.307,884.973 976.443,884.625 C 976.579,884.277 976.647,883.901 976.647,883.497 C 976.647,883.06 976.577,882.66 976.437,882.296 C 976.297,881.932 976.083,881.62 975.795,881.36 C 975.507,881.1 975.142,880.897 974.7,880.751 C 974.258,880.605 973.735,880.532 973.131,880.532 L 972.075,880.532 Z M 972.075,882.061 L 973.131,882.061 C 973.659,882.061 974.039,882.187 974.271,882.44 C 974.503,882.692 974.619,883.044 974.619,883.497 C 974.619,883.697 974.589,883.879 974.529,884.043 C 974.469,884.207 974.378,884.348 974.256,884.466 C 974.134,884.584 973.98,884.676 973.794,884.74 C 973.608,884.804 973.387,884.836 973.131,884.836 L 972.075,884.836 L 972.075,882.061 Z" marker-start="none" marker-end="none"/>
    <path d="M 979.733,879.228 L 982.973,879.228 L 982.973,877.608 L 977.705,877.608 L 977.705,886.352 L 979.733,886.352 L 979.733,879.228 Z" marker-start="none" marker-end="none"/>
    <path d="M 992.07,877.608 L 990.498,877.608 C 990.322,877.608 990.177,877.649 990.063,877.731 C 989.949,877.813 989.87,877.918 989.826,878.046 L 989.31,879.571 L 985.986,879.571 L 985.47,878.046 C 985.43,877.934 985.352,877.833 985.236,877.743 C 985.12,877.653 984.978,877.608 984.81,877.608 L 983.226,877.608 L 986.61,886.352 L 988.686,886.352 L 992.07,877.608 Z M 986.454,880.951 L 988.842,880.951 L 988.038,883.308 C 987.986,883.458 987.925,883.634 987.855,883.837 C 987.785,884.04 987.716,884.26 987.648,884.496 C 987.584,884.256 987.518,884.033 987.45,883.828 C 987.382,883.624 987.318,883.446 987.258,883.297 L 986.454,880.951 Z" marker-start="none" marker-end="none"/>
    <path d="M 995.932,880.881 L 995.932,877.608 L 993.904,877.608 L 993.904,880.881 L 990.736,886.352 L 992.524,886.352 C 992.7,886.352 992.84,886.31 992.944,886.227 C 993.048,886.143 993.132,886.036 993.196,885.906 L 994.432,883.316 C 994.532,883.108 994.624,882.916 994.708,882.741 C 994.792,882.566 994.866,882.393 994.93,882.222 C 994.99,882.397 995.062,882.572 995.146,882.747 C 995.23,882.922 995.32,883.112 995.416,883.316 L 996.64,885.906 C 996.664,885.959 996.697,886.012 996.739,886.065 C 996.781,886.118 996.829,886.166 996.883,886.208 C 996.937,886.251 996.999,886.286 997.069,886.312 C 997.139,886.339 997.216,886.352 997.3,886.352 L 999.1,886.352 L 995.932,880.881 Z" marker-start="none" marker-end="none"/>
   </g>
   <g id="Group_2">
    <path d="M 976.531,864.677 C 976.811,864.677 977.059,864.7 977.275,864.748 C 977.491,864.795 977.695,864.858 977.887,864.937 L 977.887,866.265 L 977.023,866.265 C 976.895,866.265 976.795,866.299 976.723,866.367 C 976.651,866.435 976.615,866.521 976.615,866.625 L 976.615,867.741 L 979.723,867.741 L 979.723,864.052 C 979.499,863.888 979.266,863.747 979.024,863.628 C 978.782,863.51 978.524,863.413 978.25,863.337 C 977.976,863.261 977.684,863.205 977.374,863.169 C 977.064,863.133 976.731,863.115 976.375,863.115 C 975.735,863.115 975.143,863.228 974.599,863.454 C 974.055,863.681 973.584,863.993 973.186,864.391 C 972.788,864.789 972.476,865.261 972.25,865.807 C 972.024,866.353 971.911,866.946 971.911,867.586 C 971.911,868.238 972.019,868.838 972.235,869.384 C 972.451,869.93 972.76,870.401 973.162,870.797 C 973.564,871.193 974.05,871.501 974.62,871.721 C 975.19,871.941 975.827,872.051 976.531,872.051 C 976.895,872.051 977.237,872.021 977.557,871.961 C 977.877,871.901 978.172,871.819 978.442,871.715 C 978.712,871.611 978.959,871.486 979.183,871.342 C 979.407,871.198 979.607,871.042 979.783,870.873 L 979.195,869.979 C 979.139,869.895 979.072,869.829 978.994,869.781 C 978.916,869.733 978.831,869.709 978.739,869.709 C 978.619,869.709 978.495,869.749 978.367,869.829 C 978.207,869.925 978.056,870.008 977.914,870.078 C 977.772,870.148 977.627,870.205 977.479,870.249 C 977.331,870.293 977.175,870.325 977.011,870.345 C 976.847,870.365 976.663,870.375 976.459,870.375 C 976.079,870.375 975.737,870.308 975.433,870.174 C 975.129,870.04 974.87,869.852 974.656,869.608 C 974.442,869.364 974.277,869.071 974.161,868.729 C 974.045,868.387 973.987,868.006 973.987,867.586 C 973.987,867.122 974.051,866.71 974.179,866.35 C 974.307,865.991 974.484,865.687 974.71,865.439 C 974.936,865.191 975.204,865.002 975.514,864.872 C 975.824,864.742 976.163,864.677 976.531,864.677 Z" marker-start="none" marker-end="none"/>
    <path d="M 986.586,871.957 L 986.586,870.396 L 982.998,870.396 L 982.998,868.354 L 985.746,868.354 L 985.746,866.854 L 982.998,866.854 L 982.998,864.774 L 986.586,864.774 L 986.586,863.212 L 980.958,863.212 L 980.958,871.957 L 986.586,871.957 Z" marker-start="none" marker-end="none"/>
    <path d="M 996.365,867.586 C 996.365,866.954 996.256,866.366 996.038,865.822 C 995.82,865.278 995.513,864.805 995.117,864.403 C 994.721,864.001 994.244,863.686 993.686,863.457 C 993.128,863.229 992.509,863.115 991.829,863.115 C 991.149,863.115 990.529,863.229 989.969,863.457 C 989.409,863.686 988.93,864.001 988.532,864.403 C 988.134,864.805 987.826,865.278 987.608,865.822 C 987.39,866.366 987.281,866.954 987.281,867.586 C 987.281,868.218 987.39,868.807 987.608,869.351 C 987.826,869.895 988.134,870.367 988.532,870.767 C 988.93,871.167 989.409,871.481 989.969,871.709 C 990.529,871.937 991.149,872.051 991.829,872.051 C 992.509,872.051 993.128,871.936 993.686,871.706 C 994.244,871.476 994.721,871.161 995.117,870.761 C 995.513,870.361 995.82,869.889 996.038,869.345 C 996.256,868.801 996.365,868.214 996.365,867.586 Z M 994.289,867.586 C 994.289,868.018 994.233,868.407 994.121,868.753 C 994.009,869.099 993.848,869.392 993.638,869.632 C 993.428,869.872 993.171,870.055 992.867,870.183 C 992.563,870.311 992.217,870.375 991.829,870.375 C 991.437,870.375 991.088,870.311 990.782,870.183 C 990.476,870.055 990.218,869.872 990.008,869.632 C 989.798,869.392 989.637,869.099 989.525,868.753 C 989.413,868.407 989.357,868.018 989.357,867.586 C 989.357,867.15 989.413,866.759 989.525,866.414 C 989.637,866.068 989.798,865.775 990.008,865.535 C 990.218,865.295 990.476,865.112 990.782,864.986 C 991.088,864.86 991.437,864.797 991.829,864.797 C 992.217,864.797 992.563,864.86 992.867,864.986 C 993.171,865.112 993.428,865.295 993.638,865.535 C 993.848,865.775 994.009,866.068 994.121,866.414 C 994.233,866.759 994.289,867.15 994.289,867.586 Z" marker-start="none" marker-end="none"/>
   </g>
  </g>
 </g>
</svg>
