<?xml version="1.0" standalone="no"?>
<!DOCTYPE svg PUBLIC "-//W3C//DTD SVG 1.1//EN" "http://www.w3.org/Graphics/SVG/1.1/DTD/svg11.dtd">
<!--Generator: Xara Designer (www.xara.com), SVG filter version: 6.6.0.0-->
<svg fill="none" fill-rule="evenodd" stroke="black" stroke-width="0.501" stroke-linejoin="bevel" stroke-miterlimit="10" font-family="Times New Roman" font-size="16" style="font-variant-ligatures:none" xmlns:xlink="http://www.w3.org/1999/xlink" xmlns="http://www.w3.org/2000/svg" version="1.1" overflow="visible" width="107.718pt" height="107.72pt" viewBox="1057.88 -1039.69 107.718 107.72">
 <defs>
	</defs>
 <g id="Grid 36x36mm" transform="scale(1 -1)">
  <g id="Group" stroke="none">
   <g id="Group_1" fill="#ffffff" fill-rule="nonzero" stroke-linejoin="round" stroke-linecap="round" stroke-width="0.251">
    <path d="M 1099.24,991.624 L 1099.24,988.702 L 1097.21,988.702 L 1097.21,997.445 L 1100.29,997.445 C 1100.91,997.445 1101.44,997.372 1101.88,997.226 C 1102.32,997.08 1102.68,996.879 1102.97,996.623 C 1103.26,996.367 1103.47,996.065 1103.6,995.717 C 1103.74,995.369 1103.81,994.993 1103.81,994.589 C 1103.81,994.152 1103.74,993.752 1103.6,993.388 C 1103.46,993.024 1103.24,992.712 1102.96,992.452 C 1102.67,992.192 1102.3,991.989 1101.86,991.843 C 1101.42,991.697 1100.9,991.624 1100.29,991.624 L 1099.24,991.624 Z M 1099.24,993.153 L 1100.29,993.153 C 1100.82,993.153 1101.2,993.279 1101.43,993.532 C 1101.66,993.784 1101.78,994.136 1101.78,994.589 C 1101.78,994.789 1101.75,994.971 1101.69,995.135 C 1101.63,995.299 1101.54,995.44 1101.42,995.558 C 1101.3,995.676 1101.14,995.768 1100.95,995.832 C 1100.77,995.896 1100.55,995.928 1100.29,995.928 L 1099.24,995.928 L 1099.24,993.153 Z" marker-start="none" marker-end="none"/>
    <path d="M 1106.89,990.32 L 1110.13,990.32 L 1110.13,988.7 L 1104.87,988.7 L 1104.87,997.444 L 1106.89,997.444 L 1106.89,990.32 Z" marker-start="none" marker-end="none"/>
    <path d="M 1119.23,988.7 L 1117.66,988.7 C 1117.48,988.7 1117.34,988.741 1117.22,988.823 C 1117.11,988.905 1117.03,989.01 1116.99,989.138 L 1116.47,990.663 L 1113.15,990.663 L 1112.63,989.138 C 1112.59,989.026 1112.51,988.925 1112.4,988.835 C 1112.28,988.745 1112.14,988.7 1111.97,988.7 L 1110.39,988.7 L 1113.77,997.444 L 1115.85,997.444 L 1119.23,988.7 Z M 1113.62,992.043 L 1116,992.043 L 1115.2,994.4 C 1115.15,994.55 1115.09,994.726 1115.02,994.929 C 1114.95,995.132 1114.88,995.352 1114.81,995.588 C 1114.75,995.348 1114.68,995.125 1114.61,994.92 C 1114.54,994.716 1114.48,994.538 1114.42,994.389 L 1113.62,992.043 Z" marker-start="none" marker-end="none"/>
    <path d="M 1123.09,991.973 L 1123.09,988.7 L 1121.07,988.7 L 1121.07,991.973 L 1117.9,997.444 L 1119.68,997.444 C 1119.86,997.444 1120,997.402 1120.11,997.319 C 1120.21,997.235 1120.29,997.128 1120.36,996.998 L 1121.59,994.408 C 1121.69,994.2 1121.79,994.008 1121.87,993.833 C 1121.95,993.658 1122.03,993.485 1122.09,993.314 C 1122.15,993.489 1122.22,993.664 1122.31,993.839 C 1122.39,994.014 1122.48,994.204 1122.58,994.408 L 1123.8,996.998 C 1123.83,997.051 1123.86,997.104 1123.9,997.157 C 1123.94,997.21 1123.99,997.258 1124.04,997.3 C 1124.1,997.343 1124.16,997.378 1124.23,997.404 C 1124.3,997.431 1124.38,997.444 1124.46,997.444 L 1126.26,997.444 L 1123.09,991.973 Z" marker-start="none" marker-end="none"/>
   </g>
   <g id="Group_2" fill="#ffffff" fill-rule="nonzero" stroke-linejoin="round" stroke-linecap="round" stroke-width="0.251">
    <path d="M 1103.83,975.769 C 1104.11,975.769 1104.36,975.792 1104.57,975.84 C 1104.79,975.887 1104.99,975.95 1105.19,976.029 L 1105.19,977.357 L 1104.32,977.357 C 1104.19,977.357 1104.09,977.391 1104.02,977.459 C 1103.95,977.527 1103.91,977.613 1103.91,977.717 L 1103.91,978.833 L 1107.02,978.833 L 1107.02,975.144 C 1106.8,974.98 1106.57,974.839 1106.32,974.72 C 1106.08,974.602 1105.82,974.505 1105.55,974.429 C 1105.28,974.353 1104.98,974.297 1104.67,974.261 C 1104.36,974.225 1104.03,974.207 1103.67,974.207 C 1103.03,974.207 1102.44,974.32 1101.9,974.546 C 1101.35,974.773 1100.88,975.085 1100.49,975.483 C 1100.09,975.881 1099.78,976.353 1099.55,976.899 C 1099.32,977.445 1099.21,978.038 1099.21,978.678 C 1099.21,979.33 1099.32,979.93 1099.53,980.476 C 1099.75,981.022 1100.06,981.493 1100.46,981.889 C 1100.86,982.285 1101.35,982.593 1101.92,982.813 C 1102.49,983.033 1103.13,983.143 1103.83,983.143 C 1104.19,983.143 1104.54,983.113 1104.86,983.053 C 1105.18,982.993 1105.47,982.911 1105.74,982.807 C 1106.01,982.703 1106.26,982.578 1106.48,982.434 C 1106.71,982.29 1106.91,982.134 1107.08,981.965 L 1106.49,981.071 C 1106.44,980.987 1106.37,980.921 1106.29,980.873 C 1106.21,980.825 1106.13,980.801 1106.04,980.801 C 1105.92,980.801 1105.79,980.841 1105.67,980.921 C 1105.51,981.017 1105.36,981.1 1105.21,981.17 C 1105.07,981.24 1104.93,981.297 1104.78,981.341 C 1104.63,981.385 1104.47,981.417 1104.31,981.437 C 1104.15,981.457 1103.96,981.467 1103.76,981.467 C 1103.38,981.467 1103.04,981.4 1102.73,981.266 C 1102.43,981.132 1102.17,980.944 1101.95,980.7 C 1101.74,980.456 1101.58,980.163 1101.46,979.821 C 1101.34,979.479 1101.29,979.098 1101.29,978.678 C 1101.29,978.214 1101.35,977.802 1101.48,977.442 C 1101.61,977.083 1101.78,976.779 1102.01,976.531 C 1102.24,976.283 1102.5,976.094 1102.81,975.964 C 1103.12,975.834 1103.46,975.769 1103.83,975.769 Z" marker-start="none" marker-end="none"/>
    <path d="M 1113.13,981.27 C 1113.07,981.174 1113.01,981.102 1112.94,981.054 C 1112.87,981.006 1112.79,980.982 1112.68,980.982 C 1112.59,980.982 1112.49,981.011 1112.39,981.069 C 1112.28,981.127 1112.16,981.192 1112.03,981.264 C 1111.89,981.336 1111.74,981.401 1111.57,981.459 C 1111.4,981.517 1111.2,981.546 1110.98,981.546 C 1110.6,981.546 1110.32,981.465 1110.13,981.303 C 1109.95,981.141 1109.85,980.922 1109.85,980.646 C 1109.85,980.47 1109.91,980.324 1110.02,980.208 C 1110.13,980.092 1110.28,979.992 1110.46,979.908 C 1110.64,979.824 1110.85,979.747 1111.09,979.677 C 1111.32,979.607 1111.56,979.529 1111.8,979.443 C 1112.05,979.357 1112.29,979.256 1112.52,979.14 C 1112.75,979.024 1112.96,978.876 1113.14,978.696 C 1113.33,978.516 1113.47,978.297 1113.59,978.039 C 1113.7,977.781 1113.75,977.47 1113.75,977.106 C 1113.75,976.702 1113.68,976.324 1113.54,975.972 C 1113.4,975.62 1113.2,975.313 1112.93,975.051 C 1112.67,974.789 1112.34,974.583 1111.95,974.432 C 1111.56,974.282 1111.12,974.207 1110.62,974.207 C 1110.35,974.207 1110.07,974.235 1109.79,974.291 C 1109.51,974.347 1109.24,974.426 1108.97,974.528 C 1108.71,974.631 1108.46,974.752 1108.23,974.892 C 1108,975.032 1107.79,975.188 1107.62,975.36 L 1108.22,976.308 C 1108.27,976.38 1108.33,976.438 1108.41,976.482 C 1108.49,976.526 1108.57,976.548 1108.67,976.548 C 1108.79,976.548 1108.91,976.51 1109.03,976.434 C 1109.15,976.358 1109.29,976.274 1109.44,976.182 C 1109.6,976.09 1109.77,976.006 1109.97,975.93 C 1110.17,975.854 1110.41,975.816 1110.68,975.816 C 1111.05,975.816 1111.34,975.897 1111.54,976.059 C 1111.74,976.221 1111.85,976.478 1111.85,976.83 C 1111.85,977.034 1111.79,977.2 1111.68,977.328 C 1111.57,977.456 1111.42,977.562 1111.24,977.646 C 1111.05,977.73 1110.85,977.804 1110.62,977.868 C 1110.38,977.932 1110.15,978.003 1109.9,978.081 C 1109.66,978.159 1109.42,978.255 1109.19,978.369 C 1108.95,978.483 1108.75,978.633 1108.57,978.819 C 1108.38,979.005 1108.24,979.237 1108.13,979.515 C 1108.01,979.794 1107.96,980.137 1107.96,980.545 C 1107.96,980.873 1108.02,981.193 1108.16,981.505 C 1108.29,981.817 1108.48,982.095 1108.74,982.339 C 1108.99,982.583 1109.31,982.778 1109.68,982.924 C 1110.05,983.07 1110.48,983.143 1110.96,983.143 C 1111.23,983.143 1111.49,983.122 1111.74,983.08 C 1111.99,983.038 1112.24,982.976 1112.46,982.894 C 1112.69,982.812 1112.9,982.714 1113.1,982.6 C 1113.3,982.486 1113.48,982.357 1113.63,982.213 L 1113.13,981.27 Z" marker-start="none" marker-end="none"/>
    <path d="M 1123.39,978.678 C 1123.39,978.046 1123.28,977.458 1123.06,976.914 C 1122.84,976.37 1122.54,975.897 1122.14,975.495 C 1121.75,975.093 1121.27,974.778 1120.71,974.549 C 1120.15,974.321 1119.53,974.207 1118.85,974.207 C 1118.17,974.207 1117.55,974.321 1116.99,974.549 C 1116.43,974.778 1115.95,975.093 1115.56,975.495 C 1115.16,975.897 1114.85,976.37 1114.63,976.914 C 1114.41,977.458 1114.31,978.046 1114.31,978.678 C 1114.31,979.31 1114.41,979.899 1114.63,980.443 C 1114.85,980.987 1115.16,981.459 1115.56,981.859 C 1115.95,982.259 1116.43,982.573 1116.99,982.801 C 1117.55,983.029 1118.17,983.143 1118.85,983.143 C 1119.53,983.143 1120.15,983.028 1120.71,982.798 C 1121.27,982.568 1121.75,982.253 1122.14,981.853 C 1122.54,981.453 1122.84,980.981 1123.06,980.437 C 1123.28,979.893 1123.39,979.306 1123.39,978.678 Z M 1121.31,978.678 C 1121.31,979.11 1121.26,979.499 1121.15,979.845 C 1121.03,980.191 1120.87,980.484 1120.66,980.724 C 1120.45,980.964 1120.19,981.147 1119.89,981.275 C 1119.59,981.403 1119.24,981.467 1118.85,981.467 C 1118.46,981.467 1118.11,981.403 1117.81,981.275 C 1117.5,981.147 1117.24,980.964 1117.03,980.724 C 1116.82,980.484 1116.66,980.191 1116.55,979.845 C 1116.44,979.499 1116.38,979.11 1116.38,978.678 C 1116.38,978.242 1116.44,977.851 1116.55,977.506 C 1116.66,977.16 1116.82,976.867 1117.03,976.627 C 1117.24,976.387 1117.5,976.204 1117.81,976.078 C 1118.11,975.952 1118.46,975.889 1118.85,975.889 C 1119.24,975.889 1119.59,975.952 1119.89,976.078 C 1120.19,976.204 1120.45,976.387 1120.66,976.627 C 1120.87,976.867 1121.03,977.16 1121.15,977.506 C 1121.26,977.851 1121.31,978.242 1121.31,978.678 Z" marker-start="none" marker-end="none"/>
   </g>
   <path d="M 1083.4,985.829 C 1083.4,985.197 1083.29,984.609 1083.07,984.065 C 1082.85,983.521 1082.55,983.048 1082.15,982.646 C 1081.75,982.244 1081.28,981.929 1080.72,981.7 C 1080.16,981.472 1079.54,981.358 1078.86,981.358 C 1078.18,981.358 1077.56,981.472 1077,981.7 C 1076.44,981.929 1075.96,982.244 1075.57,982.646 C 1075.17,983.048 1074.86,983.521 1074.64,984.065 C 1074.42,984.609 1074.31,985.197 1074.31,985.829 C 1074.31,986.461 1074.42,987.05 1074.64,987.594 C 1074.86,988.138 1075.17,988.61 1075.57,989.01 C 1075.96,989.41 1076.44,989.724 1077,989.952 C 1077.56,990.18 1078.18,990.294 1078.86,990.294 C 1079.54,990.294 1080.16,990.179 1080.72,989.949 C 1081.28,989.719 1081.75,989.404 1082.15,989.004 C 1082.55,988.604 1082.85,988.132 1083.07,987.588 C 1083.29,987.044 1083.4,986.457 1083.4,985.829 Z M 1081.32,985.829 C 1081.32,986.261 1081.27,986.65 1081.15,986.996 C 1081.04,987.342 1080.88,987.635 1080.67,987.875 C 1080.46,988.115 1080.2,988.298 1079.9,988.426 C 1079.6,988.554 1079.25,988.618 1078.86,988.618 C 1078.47,988.618 1078.12,988.554 1077.82,988.426 C 1077.51,988.298 1077.25,988.115 1077.04,987.875 C 1076.83,987.635 1076.67,987.342 1076.56,986.996 C 1076.45,986.65 1076.39,986.261 1076.39,985.829 C 1076.39,985.393 1076.45,985.002 1076.56,984.657 C 1076.67,984.311 1076.83,984.018 1077.04,983.778 C 1077.25,983.538 1077.51,983.355 1077.82,983.229 C 1078.12,983.103 1078.47,983.04 1078.86,983.04 C 1079.25,983.04 1079.6,983.103 1079.9,983.229 C 1080.2,983.355 1080.46,983.538 1080.67,983.778 C 1080.88,984.018 1081.04,984.311 1081.15,984.657 C 1081.27,985.002 1081.32,985.393 1081.32,985.829 Z" fill="#ffffff" fill-rule="nonzero" stroke-linejoin="round" stroke-linecap="round" stroke-width="0.251" marker-start="none" marker-end="none"/>
   <path d="M 1085.44,990.2 C 1085.52,990.2 1085.6,990.196 1085.66,990.188 C 1085.72,990.18 1085.77,990.165 1085.82,990.143 C 1085.87,990.121 1085.91,990.09 1085.96,990.05 C 1086,990.01 1086.05,989.956 1086.11,989.888 L 1090.26,984.638 C 1090.24,984.806 1090.23,984.969 1090.22,985.127 C 1090.22,985.285 1090.21,985.434 1090.21,985.574 L 1090.21,990.2 L 1092,990.2 L 1092,981.455 L 1090.94,981.455 C 1090.79,981.455 1090.66,981.479 1090.55,981.527 C 1090.44,981.575 1090.34,981.663 1090.24,981.791 L 1086.11,986.999 C 1086.13,986.847 1086.14,986.698 1086.14,986.552 C 1086.15,986.406 1086.16,986.269 1086.16,986.141 L 1086.16,981.455 L 1084.37,981.455 L 1084.37,990.2 L 1085.44,990.2 Z" fill="#ffffff" fill-rule="nonzero" stroke-linejoin="round" stroke-linecap="round" stroke-width="0.251" marker-start="none" marker-end="none"/>
   <path d="M 1103.89,981.455 L 1102.32,981.455 C 1102.14,981.455 1102,981.496 1101.88,981.578 C 1101.77,981.66 1101.69,981.765 1101.65,981.893 L 1101.13,983.418 L 1097.81,983.418 L 1097.29,981.893 C 1097.25,981.781 1097.17,981.68 1097.06,981.59 C 1096.94,981.5 1096.8,981.455 1096.63,981.455 L 1095.05,981.455 L 1098.43,990.199 L 1100.51,990.199 L 1103.89,981.455 Z M 1098.27,984.798 L 1100.66,984.798 L 1099.86,987.155 C 1099.81,987.305 1099.74,987.481 1099.67,987.684 C 1099.6,987.887 1099.54,988.107 1099.47,988.343 C 1099.4,988.103 1099.34,987.88 1099.27,987.675 C 1099.2,987.471 1099.14,987.293 1099.08,987.144 L 1098.27,984.798 Z" fill="#ffffff" fill-rule="nonzero" stroke-linejoin="round" stroke-linecap="round" stroke-width="0.251" marker-start="none" marker-end="none"/>
   <path d="M 1107.93,983.058 C 1108.2,983.058 1108.45,983.103 1108.66,983.193 C 1108.87,983.283 1109.06,983.412 1109.2,983.58 C 1109.35,983.748 1109.46,983.953 1109.54,984.195 C 1109.62,984.437 1109.66,984.712 1109.66,985.02 L 1109.66,990.199 L 1111.69,990.199 L 1111.69,985.019 C 1111.69,984.483 1111.6,983.991 1111.43,983.543 C 1111.25,983.095 1111,982.709 1110.68,982.385 C 1110.36,982.061 1109.96,981.809 1109.5,981.628 C 1109.03,981.448 1108.51,981.358 1107.93,981.358 C 1107.35,981.358 1106.82,981.448 1106.36,981.628 C 1105.9,981.809 1105.5,982.061 1105.18,982.385 C 1104.85,982.709 1104.61,983.095 1104.43,983.543 C 1104.26,983.991 1104.18,984.483 1104.18,985.019 L 1104.18,990.199 L 1106.2,990.199 L 1106.2,985.026 C 1106.2,984.718 1106.24,984.443 1106.32,984.201 C 1106.4,983.959 1106.51,983.753 1106.66,983.583 C 1106.81,983.413 1106.99,983.283 1107.2,983.193 C 1107.42,983.103 1107.66,983.058 1107.93,983.058 Z" fill="#ffffff" fill-rule="nonzero" stroke-linejoin="round" stroke-linecap="round" stroke-width="0.251" marker-start="none" marker-end="none"/>
   <path d="M 1118.88,983.716 C 1118.93,983.716 1118.98,983.706 1119.03,983.688 C 1119.07,983.67 1119.12,983.638 1119.16,983.593 L 1119.97,982.729 C 1119.62,982.276 1119.18,981.934 1118.65,981.704 C 1118.12,981.474 1117.49,981.358 1116.76,981.358 C 1116.1,981.358 1115.51,981.471 1114.98,981.697 C 1114.45,981.924 1114.01,982.236 1113.64,982.634 C 1113.28,983.032 1112.99,983.504 1112.8,984.05 C 1112.6,984.596 1112.5,985.189 1112.5,985.829 C 1112.5,986.481 1112.62,987.081 1112.84,987.627 C 1113.06,988.173 1113.38,988.644 1113.78,989.04 C 1114.18,989.436 1114.66,989.744 1115.22,989.964 C 1115.78,990.184 1116.4,990.294 1117.08,990.294 C 1117.4,990.294 1117.71,990.265 1118,990.207 C 1118.29,990.149 1118.56,990.069 1118.82,989.967 C 1119.07,989.865 1119.3,989.742 1119.51,989.6 C 1119.72,989.458 1119.91,989.301 1120.08,989.128 L 1119.39,988.21 C 1119.35,988.154 1119.3,988.103 1119.24,988.057 C 1119.18,988.011 1119.09,987.988 1118.98,987.988 C 1118.91,987.988 1118.84,988.004 1118.78,988.036 C 1118.72,988.068 1118.65,988.107 1118.58,988.153 C 1118.5,988.199 1118.43,988.249 1118.34,988.303 C 1118.25,988.357 1118.15,988.407 1118.03,988.453 C 1117.92,988.499 1117.78,988.538 1117.62,988.57 C 1117.46,988.602 1117.28,988.618 1117.06,988.618 C 1116.7,988.618 1116.36,988.553 1116.06,988.423 C 1115.75,988.293 1115.49,988.107 1115.27,987.865 C 1115.06,987.623 1114.89,987.33 1114.76,986.986 C 1114.64,986.642 1114.58,986.256 1114.58,985.828 C 1114.58,985.38 1114.64,984.982 1114.76,984.634 C 1114.89,984.286 1115.05,983.993 1115.26,983.754 C 1115.47,983.517 1115.72,983.336 1116,983.211 C 1116.28,983.087 1116.58,983.025 1116.9,983.025 C 1117.08,983.025 1117.25,983.034 1117.4,983.052 C 1117.55,983.07 1117.69,983.101 1117.82,983.145 C 1117.95,983.189 1118.08,983.246 1118.19,983.316 C 1118.31,983.386 1118.43,983.473 1118.55,983.578 C 1118.6,983.618 1118.65,983.651 1118.71,983.677 C 1118.76,983.703 1118.82,983.716 1118.88,983.716 Z" fill="#ffffff" fill-rule="nonzero" stroke-linejoin="round" stroke-linecap="round" stroke-width="0.251" marker-start="none" marker-end="none"/>
   <path d="M 1127.24,990.2 L 1127.24,988.592 L 1124.78,988.592 L 1124.78,981.457 L 1122.76,981.457 L 1122.76,988.592 L 1120.3,988.592 L 1120.3,990.2 L 1127.24,990.2 Z" fill="#ffffff" fill-rule="nonzero" stroke-linejoin="round" stroke-linecap="round" stroke-width="0.251" marker-start="none" marker-end="none"/>
   <path d="M 1130.31,981.455 L 1128.27,981.455 L 1128.27,990.2 L 1130.31,990.2 L 1130.31,981.455 Z" fill="#ffffff" fill-rule="nonzero" stroke-linejoin="round" stroke-linecap="round" stroke-width="0.251" marker-start="none" marker-end="none"/>
   <path d="M 1140.55,985.829 C 1140.55,985.197 1140.44,984.609 1140.22,984.065 C 1140.01,983.521 1139.7,983.048 1139.3,982.646 C 1138.91,982.244 1138.43,981.929 1137.87,981.7 C 1137.31,981.472 1136.69,981.358 1136.02,981.358 C 1135.34,981.358 1134.71,981.472 1134.16,981.7 C 1133.6,981.929 1133.12,982.244 1132.72,982.646 C 1132.32,983.048 1132.01,983.521 1131.79,984.065 C 1131.58,984.609 1131.47,985.197 1131.47,985.829 C 1131.47,986.461 1131.58,987.05 1131.79,987.594 C 1132.01,988.138 1132.32,988.61 1132.72,989.01 C 1133.12,989.41 1133.6,989.724 1134.16,989.952 C 1134.71,990.18 1135.34,990.294 1136.02,990.294 C 1136.69,990.294 1137.31,990.179 1137.87,989.949 C 1138.43,989.719 1138.91,989.404 1139.3,989.004 C 1139.7,988.604 1140.01,988.132 1140.22,987.588 C 1140.44,987.044 1140.55,986.457 1140.55,985.829 Z M 1138.48,985.829 C 1138.48,986.261 1138.42,986.65 1138.31,986.996 C 1138.19,987.342 1138.03,987.635 1137.82,987.875 C 1137.61,988.115 1137.36,988.298 1137.05,988.426 C 1136.75,988.554 1136.4,988.618 1136.02,988.618 C 1135.62,988.618 1135.27,988.554 1134.97,988.426 C 1134.66,988.298 1134.4,988.115 1134.19,987.875 C 1133.98,987.635 1133.82,987.342 1133.71,986.996 C 1133.6,986.65 1133.54,986.261 1133.54,985.829 C 1133.54,985.393 1133.6,985.002 1133.71,984.657 C 1133.82,984.311 1133.98,984.018 1134.19,983.778 C 1134.4,983.538 1134.66,983.355 1134.97,983.229 C 1135.27,983.103 1135.62,983.04 1136.02,983.04 C 1136.4,983.04 1136.75,983.103 1137.05,983.229 C 1137.36,983.355 1137.61,983.538 1137.82,983.778 C 1138.03,984.018 1138.19,984.311 1138.31,984.657 C 1138.42,985.002 1138.48,985.393 1138.48,985.829 Z" fill="#ffffff" fill-rule="nonzero" stroke-linejoin="round" stroke-linecap="round" stroke-width="0.251" marker-start="none" marker-end="none"/>
   <path d="M 1142.59,990.2 C 1142.68,990.2 1142.75,990.196 1142.81,990.188 C 1142.87,990.18 1142.93,990.165 1142.97,990.143 C 1143.02,990.121 1143.07,990.09 1143.11,990.05 C 1143.16,990.01 1143.2,989.956 1143.26,989.888 L 1147.41,984.638 C 1147.4,984.806 1147.39,984.969 1147.38,985.127 C 1147.37,985.285 1147.37,985.434 1147.37,985.574 L 1147.37,990.2 L 1149.15,990.2 L 1149.15,981.455 L 1148.1,981.455 C 1147.94,981.455 1147.81,981.479 1147.7,981.527 C 1147.59,981.575 1147.49,981.663 1147.39,981.791 L 1143.27,986.999 C 1143.28,986.847 1143.29,986.698 1143.3,986.552 C 1143.31,986.406 1143.31,986.269 1143.31,986.141 L 1143.31,981.455 L 1141.52,981.455 L 1141.52,990.2 L 1142.59,990.2 Z" fill="#ffffff" fill-rule="nonzero" stroke-linejoin="round" stroke-linecap="round" stroke-width="0.251" marker-start="none" marker-end="none"/>
   <path d="M 1101.92,981.453 L 1101.92,990.195 L 1105.13,990.195 C 1105.74,990.195 1106.25,990.139 1106.67,990.027 C 1107.1,989.915 1107.44,989.758 1107.71,989.554 C 1107.98,989.35 1108.17,989.102 1108.3,988.81 C 1108.42,988.518 1108.48,988.192 1108.48,987.832 C 1108.48,987.636 1108.45,987.447 1108.4,987.265 C 1108.34,987.083 1108.25,986.912 1108.13,986.752 C 1108.01,986.592 1107.86,986.447 1107.67,986.317 C 1107.48,986.187 1107.26,986.074 1106.99,985.978 C 1107.57,985.838 1107.99,985.611 1108.27,985.297 C 1108.55,984.983 1108.68,984.58 1108.68,984.088 C 1108.68,983.716 1108.61,983.37 1108.47,983.049 C 1108.32,982.729 1108.11,982.45 1107.83,982.212 C 1107.56,981.974 1107.21,981.788 1106.81,981.654 C 1106.4,981.52 1105.93,981.453 1105.41,981.453 L 1101.92,981.453 Z M 1103.94,985.162 L 1103.94,982.982 L 1105.37,982.982 C 1105.64,982.982 1105.86,983.016 1106.03,983.084 C 1106.2,983.153 1106.33,983.241 1106.43,983.349 C 1106.52,983.457 1106.59,983.579 1106.63,983.715 C 1106.66,983.851 1106.68,983.989 1106.68,984.129 C 1106.68,984.289 1106.66,984.433 1106.62,984.562 C 1106.57,984.69 1106.5,984.798 1106.4,984.886 C 1106.3,984.974 1106.16,985.042 1106,985.09 C 1105.83,985.138 1105.62,985.162 1105.36,985.162 L 1103.94,985.162 Z M 1103.94,986.519 L 1105,986.519 C 1105.22,986.519 1105.43,986.535 1105.61,986.566 C 1105.79,986.599 1105.94,986.655 1106.06,986.734 C 1106.19,986.814 1106.29,986.924 1106.35,987.064 C 1106.42,987.204 1106.45,987.38 1106.45,987.592 C 1106.45,987.8 1106.43,987.973 1106.37,988.111 C 1106.32,988.249 1106.24,988.36 1106.13,988.444 C 1106.03,988.528 1105.89,988.588 1105.72,988.624 C 1105.56,988.66 1105.36,988.678 1105.13,988.678 L 1103.94,988.678 L 1103.94,986.519 Z" fill="#ffffff" fill-rule="nonzero" stroke-linejoin="round" stroke-linecap="round" stroke-width="0.251" marker-start="none" marker-end="none"/>
   <path d="M 1112,981.453 L 1109.96,981.453 L 1109.96,990.198 L 1112,990.198 L 1112,981.453 Z" fill="#ffffff" fill-rule="nonzero" stroke-linejoin="round" stroke-linecap="round" stroke-width="0.251" marker-start="none" marker-end="none"/>
   <path d="M 1121.55,985.829 C 1121.55,985.196 1121.44,984.613 1121.23,984.079 C 1121.01,983.545 1120.7,983.083 1120.31,982.693 C 1119.91,982.302 1119.43,981.998 1118.88,981.78 C 1118.32,981.562 1117.7,981.453 1117.02,981.453 L 1113.62,981.453 L 1113.62,990.198 L 1117.02,990.198 C 1117.7,990.198 1118.32,990.088 1118.88,989.868 C 1119.43,989.648 1119.91,989.344 1120.31,988.956 C 1120.7,988.568 1121.01,988.107 1121.23,987.572 C 1121.44,987.038 1121.55,986.457 1121.55,985.829 Z M 1119.48,985.829 C 1119.48,986.261 1119.42,986.651 1119.31,986.999 C 1119.2,987.347 1119.04,987.642 1118.83,987.884 C 1118.62,988.126 1118.36,988.312 1118.06,988.442 C 1117.75,988.572 1117.41,988.637 1117.02,988.637 L 1115.66,988.637 L 1115.66,983.015 L 1117.02,983.015 C 1117.41,983.015 1117.75,983.08 1118.06,983.21 C 1118.36,983.34 1118.62,983.526 1118.83,983.768 C 1119.04,984.01 1119.2,984.305 1119.31,984.653 C 1119.42,985.001 1119.48,985.393 1119.48,985.829 Z" fill="#ffffff" fill-rule="nonzero" stroke-linejoin="round" stroke-linecap="round" stroke-width="0.251" marker-start="none" marker-end="none"/>
   <path d="M 1057.88,947.18 L 1057.88,1024.47 C 1057.88,1032.87 1064.69,1039.69 1073.09,1039.69 L 1111.73,1039.68 L 1111.72,1039.68 L 1111.73,985.826 L 1111.74,1039.68 L 1111.74,1039.68 L 1150.38,1039.69 C 1158.78,1039.69 1165.59,1032.87 1165.59,1024.47 L 1165.59,947.18 C 1165.59,938.782 1158.78,931.966 1150.38,931.966 L 1111.74,931.968 L 1111.74,931.968 L 1111.73,985.826 L 1111.72,931.968 L 1111.73,931.968 L 1073.09,931.966 C 1064.69,931.966 1057.88,938.782 1057.88,947.18 Z" stroke-linejoin="miter" fill="#ffffff" stroke-width="0.802" marker-start="none" marker-end="none"/>
   <path d="M 1058.72,947.908 L 1058.72,1023.74 C 1058.72,1032.08 1065.49,1038.84 1073.82,1038.84 L 1149.65,1038.84 C 1157.98,1038.84 1164.74,1032.08 1164.74,1023.74 L 1164.74,947.908 C 1164.74,939.577 1157.98,932.815 1149.65,932.815 L 1073.82,932.815 C 1065.49,932.815 1058.72,939.577 1058.72,947.908 Z" fill="#00bf02" stroke-linejoin="miter" stroke-width="0.801" marker-start="none" marker-end="none"/>
   <g id="Group_3" fill="#ffffff" fill-rule="nonzero" stroke-linejoin="round" stroke-linecap="round" stroke-width="0.297">
    <path d="M 1086.55,998.66 L 1086.55,995.763 L 1084.54,995.763 L 1084.54,1004.43 L 1087.6,1004.43 C 1088.21,1004.43 1088.74,1004.36 1089.17,1004.21 C 1089.61,1004.07 1089.97,1003.87 1090.26,1003.62 C 1090.54,1003.36 1090.75,1003.06 1090.88,1002.72 C 1091.02,1002.37 1091.09,1002 1091.09,1001.6 C 1091.09,1001.17 1091.02,1000.77 1090.88,1000.41 C 1090.74,1000.05 1090.53,999.738 1090.24,999.481 C 1089.96,999.223 1089.59,999.022 1089.16,998.877 C 1088.72,998.732 1088.2,998.66 1087.6,998.66 L 1086.55,998.66 Z M 1086.55,1000.18 L 1087.6,1000.18 C 1088.12,1000.18 1088.5,1000.3 1088.73,1000.55 C 1088.96,1000.8 1089.08,1001.15 1089.08,1001.6 C 1089.08,1001.8 1089.05,1001.98 1088.99,1002.14 C 1088.93,1002.3 1088.84,1002.44 1088.72,1002.56 C 1088.6,1002.68 1088.44,1002.77 1088.26,1002.83 C 1088.07,1002.89 1087.85,1002.93 1087.6,1002.93 L 1086.55,1002.93 L 1086.55,1000.18 Z" marker-start="none" marker-end="none"/>
    <path d="M 1094.15,997.368 L 1097.36,997.368 L 1097.36,995.762 L 1092.14,995.762 L 1092.14,1004.43 L 1094.15,1004.43 L 1094.15,997.368 Z" marker-start="none" marker-end="none"/>
    <path d="M 1106.37,995.762 L 1104.81,995.762 C 1104.64,995.762 1104.5,995.803 1104.38,995.884 C 1104.27,995.965 1104.19,996.069 1104.15,996.196 L 1103.64,997.707 L 1100.34,997.707 L 1099.83,996.196 C 1099.79,996.085 1099.71,995.985 1099.6,995.896 C 1099.48,995.807 1099.34,995.762 1099.18,995.762 L 1097.61,995.762 L 1100.96,1004.43 L 1103.02,1004.43 L 1106.37,995.762 Z M 1100.81,999.076 L 1103.17,999.076 L 1102.38,1001.41 C 1102.32,1001.56 1102.26,1001.74 1102.19,1001.94 C 1102.13,1002.14 1102.06,1002.35 1101.99,1002.59 C 1101.93,1002.35 1101.86,1002.13 1101.79,1001.93 C 1101.73,1001.72 1101.66,1001.55 1101.6,1001.4 L 1100.81,999.076 Z" marker-start="none" marker-end="none"/>
    <path d="M 1110.2,999.006 L 1110.2,995.762 L 1108.19,995.762 L 1108.19,999.006 L 1105.05,1004.43 L 1106.82,1004.43 C 1107,1004.43 1107.14,1004.39 1107.24,1004.3 C 1107.34,1004.22 1107.43,1004.12 1107.49,1003.99 L 1108.71,1001.42 C 1108.81,1001.21 1108.9,1001.02 1108.99,1000.85 C 1109.07,1000.68 1109.14,1000.5 1109.21,1000.34 C 1109.27,1000.51 1109.34,1000.68 1109.42,1000.86 C 1109.51,1001.03 1109.59,1001.22 1109.69,1001.42 L 1110.9,1003.99 C 1110.93,1004.04 1110.96,1004.09 1111,1004.14 C 1111.04,1004.2 1111.09,1004.24 1111.14,1004.29 C 1111.2,1004.33 1111.26,1004.36 1111.33,1004.39 C 1111.4,1004.42 1111.47,1004.43 1111.56,1004.43 L 1113.34,1004.43 L 1110.2,999.006 Z" marker-start="none" marker-end="none"/>
    <path d="M 1120.31,997.214 C 1120.59,997.214 1120.84,997.237 1121.05,997.284 C 1121.26,997.331 1121.46,997.393 1121.66,997.472 L 1121.66,998.788 L 1120.8,998.788 C 1120.67,998.788 1120.57,998.822 1120.5,998.889 C 1120.43,998.956 1120.4,999.042 1120.4,999.145 L 1120.4,1000.25 L 1123.48,1000.25 L 1123.48,996.594 C 1123.25,996.432 1123.02,996.292 1122.78,996.175 C 1122.54,996.058 1122.29,995.962 1122.02,995.886 C 1121.74,995.811 1121.45,995.755 1121.15,995.72 C 1120.84,995.684 1120.51,995.666 1120.16,995.666 C 1119.52,995.666 1118.94,995.778 1118.4,996.002 C 1117.86,996.226 1117.39,996.536 1117,996.93 C 1116.6,997.325 1116.29,997.793 1116.07,998.334 C 1115.84,998.875 1115.73,999.463 1115.73,1000.1 C 1115.73,1000.74 1115.84,1001.34 1116.05,1001.88 C 1116.27,1002.42 1116.57,1002.89 1116.97,1003.28 C 1117.37,1003.67 1117.85,1003.98 1118.42,1004.2 C 1118.98,1004.41 1119.61,1004.52 1120.31,1004.52 C 1120.67,1004.52 1121.01,1004.49 1121.33,1004.43 C 1121.65,1004.37 1121.94,1004.29 1122.21,1004.19 C 1122.47,1004.09 1122.72,1003.96 1122.94,1003.82 C 1123.16,1003.68 1123.36,1003.52 1123.54,1003.36 L 1122.95,1002.47 C 1122.9,1002.39 1122.83,1002.32 1122.75,1002.27 C 1122.68,1002.23 1122.59,1002.2 1122.5,1002.2 C 1122.38,1002.2 1122.26,1002.24 1122.13,1002.32 C 1121.97,1002.42 1121.82,1002.5 1121.68,1002.57 C 1121.54,1002.64 1121.4,1002.69 1121.25,1002.74 C 1121.1,1002.78 1120.95,1002.81 1120.79,1002.83 C 1120.63,1002.85 1120.44,1002.86 1120.24,1002.86 C 1119.86,1002.86 1119.53,1002.8 1119.22,1002.66 C 1118.92,1002.53 1118.67,1002.34 1118.45,1002.1 C 1118.24,1001.86 1118.08,1001.57 1117.96,1001.23 C 1117.85,1000.89 1117.79,1000.51 1117.79,1000.1 C 1117.79,999.638 1117.85,999.229 1117.98,998.873 C 1118.11,998.516 1118.28,998.215 1118.51,997.969 C 1118.73,997.723 1119,997.536 1119.3,997.407 C 1119.61,997.278 1119.95,997.214 1120.31,997.214 Z" marker-start="none" marker-end="none"/>
    <path d="M 1129.53,1002.67 C 1129.47,1002.57 1129.41,1002.5 1129.34,1002.45 C 1129.28,1002.41 1129.19,1002.38 1129.09,1002.38 C 1129,1002.38 1128.9,1002.41 1128.79,1002.47 C 1128.69,1002.53 1128.57,1002.59 1128.44,1002.66 C 1128.31,1002.73 1128.15,1002.8 1127.98,1002.85 C 1127.81,1002.91 1127.62,1002.94 1127.4,1002.94 C 1127.02,1002.94 1126.74,1002.86 1126.56,1002.7 C 1126.37,1002.54 1126.28,1002.32 1126.28,1002.05 C 1126.28,1001.87 1126.34,1001.73 1126.45,1001.61 C 1126.56,1001.5 1126.7,1001.4 1126.89,1001.32 C 1127.07,1001.23 1127.27,1001.16 1127.5,1001.09 C 1127.74,1001.02 1127.97,1000.94 1128.21,1000.86 C 1128.46,1000.77 1128.69,1000.67 1128.93,1000.56 C 1129.16,1000.44 1129.36,1000.29 1129.54,1000.12 C 1129.72,999.937 1129.87,999.719 1129.98,999.464 C 1130.09,999.208 1130.15,998.9 1130.15,998.539 C 1130.15,998.138 1130.08,997.764 1129.94,997.415 C 1129.8,997.066 1129.6,996.762 1129.34,996.502 C 1129.07,996.242 1128.75,996.038 1128.36,995.889 C 1127.97,995.741 1127.54,995.666 1127.04,995.666 C 1126.77,995.666 1126.5,995.694 1126.22,995.749 C 1125.94,995.805 1125.67,995.883 1125.41,995.984 C 1125.15,996.086 1124.9,996.206 1124.67,996.344 C 1124.44,996.483 1124.24,996.638 1124.07,996.808 L 1124.66,997.748 C 1124.71,997.819 1124.77,997.877 1124.85,997.921 C 1124.93,997.964 1125.01,997.986 1125.1,997.986 C 1125.22,997.986 1125.34,997.948 1125.46,997.873 C 1125.59,997.798 1125.72,997.714 1125.87,997.623 C 1126.03,997.532 1126.2,997.449 1126.4,997.373 C 1126.6,997.298 1126.83,997.26 1127.1,997.26 C 1127.47,997.26 1127.75,997.341 1127.95,997.501 C 1128.16,997.662 1128.26,997.917 1128.26,998.265 C 1128.26,998.468 1128.2,998.632 1128.09,998.759 C 1127.98,998.886 1127.83,998.991 1127.65,999.074 C 1127.47,999.158 1127.27,999.231 1127.04,999.294 C 1126.81,999.358 1126.57,999.428 1126.33,999.506 C 1126.09,999.583 1125.85,999.678 1125.62,999.791 C 1125.39,999.904 1125.19,1000.05 1125.01,1000.24 C 1124.83,1000.42 1124.68,1000.65 1124.57,1000.93 C 1124.46,1001.2 1124.4,1001.54 1124.4,1001.95 C 1124.4,1002.27 1124.47,1002.59 1124.6,1002.9 C 1124.73,1003.21 1124.92,1003.48 1125.18,1003.73 C 1125.43,1003.97 1125.74,1004.16 1126.11,1004.31 C 1126.48,1004.45 1126.9,1004.52 1127.38,1004.52 C 1127.64,1004.52 1127.9,1004.5 1128.15,1004.46 C 1128.4,1004.42 1128.64,1004.36 1128.87,1004.28 C 1129.1,1004.19 1129.31,1004.1 1129.5,1003.98 C 1129.7,1003.87 1129.87,1003.74 1130.03,1003.6 L 1129.53,1002.67 Z" marker-start="none" marker-end="none"/>
    <path d="M 1139.7,1000.1 C 1139.7,999.471 1139.59,998.888 1139.37,998.349 C 1139.16,997.81 1138.85,997.341 1138.46,996.942 C 1138.07,996.544 1137.6,996.231 1137.04,996.005 C 1136.49,995.779 1135.88,995.666 1135.2,995.666 C 1134.53,995.666 1133.91,995.779 1133.36,996.005 C 1132.8,996.231 1132.33,996.544 1131.93,996.942 C 1131.54,997.341 1131.23,997.81 1131.02,998.349 C 1130.8,998.888 1130.69,999.471 1130.69,1000.1 C 1130.69,1000.72 1130.8,1001.31 1131.02,1001.85 C 1131.23,1002.39 1131.54,1002.85 1131.93,1003.25 C 1132.33,1003.65 1132.8,1003.96 1133.36,1004.18 C 1133.91,1004.41 1134.53,1004.52 1135.2,1004.52 C 1135.88,1004.52 1136.49,1004.41 1137.04,1004.18 C 1137.6,1003.95 1138.07,1003.64 1138.46,1003.24 C 1138.85,1002.85 1139.16,1002.38 1139.37,1001.84 C 1139.59,1001.3 1139.7,1000.72 1139.7,1000.1 Z M 1137.64,1000.1 C 1137.64,1000.53 1137.58,1000.91 1137.47,1001.25 C 1137.36,1001.6 1137.2,1001.89 1137,1002.13 C 1136.79,1002.36 1136.53,1002.55 1136.23,1002.67 C 1135.93,1002.8 1135.59,1002.86 1135.2,1002.86 C 1134.81,1002.86 1134.47,1002.8 1134.16,1002.67 C 1133.86,1002.55 1133.61,1002.36 1133.4,1002.13 C 1133.19,1001.89 1133.03,1001.6 1132.92,1001.25 C 1132.81,1000.91 1132.75,1000.53 1132.75,1000.1 C 1132.75,999.665 1132.81,999.278 1132.92,998.935 C 1133.03,998.592 1133.19,998.302 1133.4,998.064 C 1133.61,997.826 1133.86,997.645 1134.16,997.52 C 1134.47,997.395 1134.81,997.333 1135.2,997.333 C 1135.59,997.333 1135.93,997.395 1136.23,997.52 C 1136.53,997.645 1136.79,997.826 1137,998.064 C 1137.2,998.302 1137.36,998.592 1137.47,998.935 C 1137.58,999.278 1137.64,999.665 1137.64,1000.1 Z" marker-start="none" marker-end="none"/>
   </g>
   <g id="Group_4" fill="#ffffff" fill-rule="nonzero" stroke-linejoin="round" stroke-linecap="round" stroke-width="0.297">
    <path d="M 1086.29,990.162 L 1086.29,988.568 L 1083.85,988.568 L 1083.85,981.495 L 1081.84,981.495 L 1081.84,988.568 L 1079.4,988.568 L 1079.4,990.162 L 1086.29,990.162 Z" marker-start="none" marker-end="none"/>
    <path d="M 1095.32,985.829 C 1095.32,985.203 1095.21,984.62 1095,984.081 C 1094.78,983.542 1094.48,983.073 1094.08,982.674 C 1093.69,982.276 1093.22,981.963 1092.66,981.737 C 1092.11,981.511 1091.5,981.398 1090.82,981.398 C 1090.15,981.398 1089.54,981.511 1088.98,981.737 C 1088.43,981.963 1087.95,982.276 1087.56,982.674 C 1087.16,983.073 1086.86,983.542 1086.64,984.081 C 1086.42,984.62 1086.32,985.203 1086.32,985.829 C 1086.32,986.456 1086.42,987.039 1086.64,987.578 C 1086.86,988.117 1087.16,988.585 1087.56,988.982 C 1087.95,989.378 1088.43,989.69 1088.98,989.916 C 1089.54,990.142 1090.15,990.255 1090.82,990.255 C 1091.5,990.255 1092.11,990.141 1092.66,989.913 C 1093.22,989.685 1093.69,989.372 1094.08,988.976 C 1094.48,988.579 1094.78,988.111 1095,987.572 C 1095.21,987.033 1095.32,986.452 1095.32,985.829 Z M 1093.26,985.829 C 1093.26,986.257 1093.21,986.643 1093.1,986.986 C 1092.98,987.328 1092.83,987.619 1092.62,987.857 C 1092.41,988.094 1092.15,988.277 1091.85,988.403 C 1091.55,988.53 1091.21,988.594 1090.82,988.594 C 1090.43,988.594 1090.09,988.53 1089.79,988.403 C 1089.48,988.277 1089.23,988.094 1089.02,987.857 C 1088.81,987.619 1088.65,987.328 1088.54,986.986 C 1088.43,986.643 1088.37,986.257 1088.37,985.829 C 1088.37,985.397 1088.43,985.01 1088.54,984.667 C 1088.65,984.324 1088.81,984.034 1089.02,983.796 C 1089.23,983.558 1089.48,983.377 1089.79,983.252 C 1090.09,983.127 1090.43,983.065 1090.82,983.065 C 1091.21,983.065 1091.55,983.127 1091.85,983.252 C 1092.15,983.377 1092.41,983.558 1092.62,983.796 C 1092.83,984.034 1092.98,984.324 1093.1,984.667 C 1093.21,985.01 1093.26,985.397 1093.26,985.829 Z" marker-start="none" marker-end="none"/>
    <path d="M 1100.59,984.7 L 1100.59,981.494 L 1098.58,981.494 L 1098.58,990.159 L 1101.39,990.159 C 1102.02,990.159 1102.55,990.094 1103,989.965 C 1103.44,989.836 1103.8,989.657 1104.08,989.427 C 1104.36,989.196 1104.56,988.924 1104.69,988.611 C 1104.82,988.297 1104.88,987.956 1104.88,987.586 C 1104.88,987.305 1104.84,987.039 1104.77,986.789 C 1104.69,986.539 1104.58,986.307 1104.43,986.095 C 1104.28,985.882 1104.1,985.693 1103.88,985.526 C 1103.67,985.36 1103.42,985.223 1103.14,985.115 C 1103.27,985.048 1103.4,984.965 1103.51,984.866 C 1103.63,984.767 1103.73,984.647 1103.82,984.504 L 1105.66,981.494 L 1103.84,981.494 C 1103.51,981.494 1103.27,981.621 1103.12,981.875 L 1101.68,984.39 C 1101.62,984.501 1101.54,984.581 1101.46,984.628 C 1101.37,984.676 1101.25,984.7 1101.1,984.7 L 1100.59,984.7 Z M 1100.59,986.085 L 1101.39,986.085 C 1101.67,986.085 1101.9,986.12 1102.09,986.189 C 1102.29,986.258 1102.44,986.355 1102.57,986.478 C 1102.69,986.6 1102.78,986.744 1102.83,986.909 C 1102.89,987.073 1102.92,987.251 1102.92,987.441 C 1102.92,987.822 1102.79,988.119 1102.54,988.333 C 1102.3,988.548 1101.91,988.655 1101.39,988.655 L 1100.59,988.655 L 1100.59,986.085 Z" marker-start="none" marker-end="none"/>
    <path d="M 1112.06,990.162 L 1112.06,988.614 L 1108.51,988.614 L 1108.51,986.59 L 1111.23,986.59 L 1111.23,985.103 L 1108.51,985.103 L 1108.51,983.042 L 1112.06,983.042 L 1112.06,981.494 L 1106.49,981.494 L 1106.49,990.162 L 1112.06,990.162 Z" marker-start="none" marker-end="none"/>
    <path d="M 1121.07,985.831 C 1121.07,985.204 1120.96,984.626 1120.74,984.097 C 1120.53,983.567 1120.22,983.109 1119.83,982.723 C 1119.44,982.336 1118.96,982.034 1118.41,981.818 C 1117.86,981.602 1117.24,981.494 1116.57,981.494 L 1113.2,981.494 L 1113.2,990.162 L 1116.57,990.162 C 1117.24,990.162 1117.86,990.053 1118.41,989.835 C 1118.96,989.616 1119.44,989.315 1119.83,988.93 C 1120.22,988.546 1120.53,988.088 1120.74,987.559 C 1120.96,987.03 1121.07,986.454 1121.07,985.831 Z M 1119.01,985.831 C 1119.01,986.259 1118.95,986.646 1118.84,986.99 C 1118.73,987.335 1118.57,987.628 1118.36,987.868 C 1118.16,988.107 1117.9,988.292 1117.6,988.421 C 1117.3,988.55 1116.95,988.614 1116.57,988.614 L 1115.23,988.614 L 1115.23,983.042 L 1116.57,983.042 C 1116.95,983.042 1117.3,983.106 1117.6,983.235 C 1117.9,983.364 1118.16,983.548 1118.36,983.788 C 1118.57,984.028 1118.73,984.32 1118.84,984.665 C 1118.95,985.01 1119.01,985.399 1119.01,985.831 Z" marker-start="none" marker-end="none"/>
    <path d="M 1125.64,983.082 C 1125.91,983.082 1126.15,983.127 1126.36,983.216 C 1126.57,983.305 1126.75,983.433 1126.9,983.6 C 1127.04,983.766 1127.16,983.97 1127.23,984.209 C 1127.31,984.449 1127.35,984.722 1127.35,985.027 L 1127.35,990.16 L 1129.36,990.16 L 1129.36,985.027 C 1129.36,984.495 1129.27,984.008 1129.1,983.563 C 1128.93,983.119 1128.68,982.737 1128.36,982.415 C 1128.04,982.094 1127.65,981.844 1127.19,981.666 C 1126.73,981.487 1126.21,981.398 1125.64,981.398 C 1125.06,981.398 1124.54,981.487 1124.08,981.666 C 1123.62,981.844 1123.23,982.094 1122.91,982.415 C 1122.59,982.737 1122.34,983.119 1122.17,983.563 C 1122,984.008 1121.91,984.495 1121.91,985.027 L 1121.91,990.16 L 1123.92,990.16 L 1123.92,985.033 C 1123.92,984.728 1123.96,984.455 1124.04,984.215 C 1124.12,983.976 1124.23,983.771 1124.38,983.603 C 1124.52,983.434 1124.7,983.305 1124.91,983.216 C 1125.13,983.127 1125.37,983.082 1125.64,983.082 Z" marker-start="none" marker-end="none"/>
    <path d="M 1136.49,983.734 C 1136.54,983.734 1136.59,983.725 1136.63,983.707 C 1136.68,983.689 1136.73,983.658 1136.77,983.613 L 1137.57,982.757 C 1137.22,982.308 1136.78,981.969 1136.26,981.741 C 1135.73,981.512 1135.11,981.398 1134.39,981.398 C 1133.73,981.398 1133.14,981.51 1132.62,981.734 C 1132.1,981.958 1131.66,982.268 1131.3,982.662 C 1130.93,983.057 1130.65,983.525 1130.46,984.066 C 1130.27,984.607 1130.17,985.195 1130.17,985.829 C 1130.17,986.476 1130.28,987.07 1130.5,987.611 C 1130.72,988.152 1131.03,988.619 1131.43,989.012 C 1131.83,989.404 1132.31,989.709 1132.86,989.928 C 1133.42,990.146 1134.03,990.255 1134.7,990.255 C 1135.03,990.255 1135.33,990.226 1135.62,990.168 C 1135.91,990.111 1136.18,990.031 1136.43,989.93 C 1136.67,989.829 1136.9,989.708 1137.11,989.567 C 1137.33,989.426 1137.51,989.27 1137.67,989.099 L 1137,988.189 C 1136.95,988.134 1136.9,988.083 1136.84,988.038 C 1136.78,987.992 1136.7,987.969 1136.59,987.969 C 1136.52,987.969 1136.45,987.985 1136.39,988.017 C 1136.33,988.048 1136.26,988.087 1136.19,988.133 C 1136.12,988.178 1136.04,988.228 1135.95,988.281 C 1135.87,988.335 1135.77,988.384 1135.65,988.43 C 1135.53,988.476 1135.4,988.514 1135.24,988.546 C 1135.08,988.578 1134.9,988.594 1134.69,988.594 C 1134.32,988.594 1133.99,988.529 1133.69,988.4 C 1133.39,988.271 1133.13,988.087 1132.91,987.847 C 1132.7,987.607 1132.53,987.317 1132.41,986.976 C 1132.29,986.635 1132.23,986.252 1132.23,985.828 C 1132.23,985.384 1132.29,984.989 1132.41,984.644 C 1132.53,984.299 1132.69,984.009 1132.9,983.773 C 1133.11,983.537 1133.35,983.358 1133.63,983.235 C 1133.91,983.112 1134.2,983.05 1134.52,983.05 C 1134.7,983.05 1134.87,983.059 1135.02,983.077 C 1135.17,983.095 1135.31,983.126 1135.44,983.169 C 1135.57,983.213 1135.69,983.269 1135.81,983.339 C 1135.93,983.408 1136.04,983.494 1136.16,983.598 C 1136.21,983.637 1136.26,983.67 1136.32,983.696 C 1136.37,983.722 1136.43,983.734 1136.49,983.734 Z" marker-start="none" marker-end="none"/>
    <path d="M 1144.06,990.162 L 1144.06,988.614 L 1140.51,988.614 L 1140.51,986.59 L 1143.23,986.59 L 1143.23,985.103 L 1140.51,985.103 L 1140.51,983.042 L 1144.06,983.042 L 1144.06,981.494 L 1138.49,981.494 L 1138.49,990.162 L 1144.06,990.162 Z" marker-start="none" marker-end="none"/>
   </g>
   <g id="Group_5" fill="#ffffff" fill-rule="nonzero" stroke-linejoin="round" stroke-linecap="round" stroke-width="0.297">
    <path d="M 1086.51,975.894 L 1086.51,974.346 L 1082.95,974.346 L 1082.95,972.322 L 1085.68,972.322 L 1085.68,970.835 L 1082.95,970.835 L 1082.95,968.774 L 1086.51,968.774 L 1086.51,967.226 L 1080.93,967.226 L 1080.93,975.894 L 1086.51,975.894 Z" marker-start="none" marker-end="none"/>
    <path d="M 1092.08,971.161 C 1092.16,971.009 1092.24,970.852 1092.31,970.688 C 1092.39,970.524 1092.45,970.357 1092.52,970.185 C 1092.59,970.361 1092.66,970.531 1092.74,970.697 C 1092.81,970.863 1092.89,971.023 1092.97,971.179 L 1095.19,975.586 C 1095.23,975.662 1095.27,975.72 1095.32,975.762 C 1095.36,975.804 1095.4,975.835 1095.45,975.855 C 1095.51,975.875 1095.56,975.885 1095.63,975.885 C 1095.69,975.885 1095.77,975.885 1095.86,975.885 L 1097.39,975.885 L 1097.39,967.226 L 1095.62,967.226 L 1095.62,972.145 C 1095.62,972.383 1095.63,972.641 1095.66,972.919 L 1093.36,968.534 C 1093.29,968.397 1093.19,968.294 1093.07,968.223 C 1092.95,968.153 1092.81,968.118 1092.66,968.118 L 1092.39,968.118 C 1092.23,968.118 1092.09,968.153 1091.97,968.223 C 1091.85,968.294 1091.76,968.397 1091.68,968.534 L 1089.38,972.925 C 1089.39,972.788 1089.4,972.652 1089.41,972.517 C 1089.42,972.382 1089.42,972.258 1089.42,972.145 L 1089.42,967.226 L 1087.65,967.226 L 1087.65,975.885 L 1089.19,975.885 C 1089.27,975.885 1089.35,975.885 1089.42,975.885 C 1089.48,975.885 1089.54,975.875 1089.59,975.855 C 1089.64,975.835 1089.69,975.804 1089.73,975.762 C 1089.77,975.72 1089.81,975.662 1089.85,975.586 L 1092.08,971.161 Z" marker-start="none" marker-end="none"/>
    <path d="M 1101.02,967.226 L 1099,967.226 L 1099,975.894 L 1101.02,975.894 L 1101.02,967.226 Z" marker-start="none" marker-end="none"/>
    <path d="M 1107.45,974.131 C 1107.39,974.035 1107.33,973.964 1107.27,973.916 C 1107.2,973.869 1107.12,973.845 1107.01,973.845 C 1106.92,973.845 1106.82,973.874 1106.72,973.931 C 1106.61,973.989 1106.49,974.053 1106.36,974.125 C 1106.23,974.196 1106.08,974.26 1105.91,974.318 C 1105.74,974.375 1105.54,974.404 1105.32,974.404 C 1104.95,974.404 1104.67,974.324 1104.48,974.163 C 1104.3,974.003 1104.21,973.786 1104.21,973.512 C 1104.21,973.337 1104.26,973.193 1104.37,973.078 C 1104.48,972.963 1104.63,972.864 1104.81,972.78 C 1104.99,972.697 1105.2,972.621 1105.43,972.551 C 1105.66,972.482 1105.9,972.405 1106.14,972.32 C 1106.38,972.234 1106.62,972.134 1106.85,972.019 C 1107.08,971.904 1107.29,971.757 1107.47,971.579 C 1107.65,971.401 1107.79,971.183 1107.91,970.928 C 1108.02,970.672 1108.07,970.364 1108.07,970.003 C 1108.07,969.602 1108,969.228 1107.86,968.879 C 1107.72,968.53 1107.52,968.226 1107.26,967.966 C 1107,967.706 1106.67,967.502 1106.28,967.353 C 1105.9,967.205 1105.46,967.13 1104.97,967.13 C 1104.7,967.13 1104.42,967.158 1104.14,967.213 C 1103.86,967.269 1103.59,967.347 1103.33,967.448 C 1103.07,967.55 1102.82,967.67 1102.59,967.808 C 1102.36,967.947 1102.16,968.102 1101.99,968.272 L 1102.59,969.212 C 1102.63,969.283 1102.69,969.341 1102.77,969.385 C 1102.85,969.428 1102.94,969.45 1103.03,969.45 C 1103.15,969.45 1103.27,969.412 1103.39,969.337 C 1103.51,969.262 1103.65,969.178 1103.8,969.087 C 1103.95,968.996 1104.13,968.913 1104.33,968.837 C 1104.52,968.762 1104.76,968.724 1105.03,968.724 C 1105.39,968.724 1105.68,968.805 1105.88,968.965 C 1106.08,969.126 1106.18,969.381 1106.18,969.729 C 1106.18,969.932 1106.13,970.096 1106.01,970.223 C 1105.9,970.35 1105.76,970.455 1105.58,970.538 C 1105.4,970.622 1105.19,970.695 1104.96,970.758 C 1104.73,970.822 1104.5,970.892 1104.25,970.97 C 1104.01,971.047 1103.78,971.142 1103.55,971.255 C 1103.32,971.368 1103.11,971.517 1102.93,971.701 C 1102.75,971.886 1102.6,972.116 1102.49,972.391 C 1102.38,972.667 1102.33,973.007 1102.33,973.411 C 1102.33,973.736 1102.39,974.054 1102.52,974.363 C 1102.65,974.672 1102.85,974.948 1103.1,975.19 C 1103.35,975.431 1103.67,975.625 1104.03,975.77 C 1104.4,975.914 1104.82,975.987 1105.3,975.987 C 1105.57,975.987 1105.82,975.966 1106.08,975.924 C 1106.33,975.883 1106.57,975.821 1106.79,975.74 C 1107.02,975.658 1107.23,975.561 1107.43,975.448 C 1107.62,975.335 1107.8,975.207 1107.95,975.064 L 1107.45,974.131 Z" marker-start="none" marker-end="none"/>
    <path d="M 1113.9,974.131 C 1113.84,974.035 1113.78,973.964 1113.71,973.916 C 1113.65,973.869 1113.56,973.845 1113.46,973.845 C 1113.37,973.845 1113.27,973.874 1113.16,973.931 C 1113.06,973.989 1112.94,974.053 1112.81,974.125 C 1112.68,974.196 1112.52,974.26 1112.35,974.318 C 1112.18,974.375 1111.99,974.404 1111.77,974.404 C 1111.39,974.404 1111.11,974.324 1110.93,974.163 C 1110.74,974.003 1110.65,973.786 1110.65,973.512 C 1110.65,973.337 1110.71,973.193 1110.82,973.078 C 1110.93,972.963 1111.08,972.864 1111.26,972.78 C 1111.44,972.697 1111.64,972.621 1111.87,972.551 C 1112.11,972.482 1112.34,972.405 1112.59,972.32 C 1112.83,972.234 1113.06,972.134 1113.3,972.019 C 1113.53,971.904 1113.73,971.757 1113.91,971.579 C 1114.09,971.401 1114.24,971.183 1114.35,970.928 C 1114.46,970.672 1114.52,970.364 1114.52,970.003 C 1114.52,969.602 1114.45,969.228 1114.31,968.879 C 1114.17,968.53 1113.97,968.226 1113.71,967.966 C 1113.44,967.706 1113.12,967.502 1112.73,967.353 C 1112.34,967.205 1111.91,967.13 1111.41,967.13 C 1111.14,967.13 1110.87,967.158 1110.59,967.213 C 1110.31,967.269 1110.04,967.347 1109.78,967.448 C 1109.52,967.55 1109.27,967.67 1109.04,967.808 C 1108.81,967.947 1108.61,968.102 1108.44,968.272 L 1109.03,969.212 C 1109.08,969.283 1109.14,969.341 1109.22,969.385 C 1109.3,969.428 1109.38,969.45 1109.47,969.45 C 1109.59,969.45 1109.71,969.412 1109.83,969.337 C 1109.95,969.262 1110.09,969.178 1110.24,969.087 C 1110.4,968.996 1110.57,968.913 1110.77,968.837 C 1110.97,968.762 1111.2,968.724 1111.47,968.724 C 1111.84,968.724 1112.12,968.805 1112.32,968.965 C 1112.53,969.126 1112.63,969.381 1112.63,969.729 C 1112.63,969.932 1112.57,970.096 1112.46,970.223 C 1112.35,970.35 1112.2,970.455 1112.02,970.538 C 1111.84,970.622 1111.64,970.695 1111.41,970.758 C 1111.18,970.822 1110.94,970.892 1110.7,970.97 C 1110.46,971.047 1110.22,971.142 1109.99,971.255 C 1109.76,971.368 1109.56,971.517 1109.38,971.701 C 1109.2,971.886 1109.05,972.116 1108.94,972.391 C 1108.83,972.667 1108.77,973.007 1108.77,973.411 C 1108.77,973.736 1108.84,974.054 1108.97,974.363 C 1109.1,974.672 1109.29,974.948 1109.55,975.19 C 1109.8,975.431 1110.11,975.625 1110.48,975.77 C 1110.85,975.914 1111.27,975.987 1111.75,975.987 C 1112.01,975.987 1112.27,975.966 1112.52,975.924 C 1112.77,975.883 1113.01,975.821 1113.24,975.74 C 1113.46,975.658 1113.68,975.561 1113.87,975.448 C 1114.07,975.335 1114.24,975.207 1114.4,975.064 L 1113.9,974.131 Z" marker-start="none" marker-end="none"/>
    <path d="M 1117.72,967.226 L 1115.69,967.226 L 1115.69,975.894 L 1117.72,975.894 L 1117.72,967.226 Z" marker-start="none" marker-end="none"/>
    <path d="M 1127.87,971.561 C 1127.87,970.935 1127.76,970.352 1127.55,969.813 C 1127.33,969.274 1127.03,968.805 1126.64,968.406 C 1126.24,968.008 1125.77,967.695 1125.22,967.469 C 1124.66,967.243 1124.05,967.13 1123.38,967.13 C 1122.7,967.13 1122.09,967.243 1121.53,967.469 C 1120.98,967.695 1120.5,968.008 1120.11,968.406 C 1119.71,968.805 1119.41,969.274 1119.19,969.813 C 1118.98,970.352 1118.87,970.935 1118.87,971.561 C 1118.87,972.188 1118.98,972.771 1119.19,973.31 C 1119.41,973.849 1119.71,974.317 1120.11,974.714 C 1120.5,975.11 1120.98,975.422 1121.53,975.648 C 1122.09,975.874 1122.7,975.987 1123.38,975.987 C 1124.05,975.987 1124.66,975.873 1125.22,975.645 C 1125.77,975.417 1126.24,975.104 1126.64,974.708 C 1127.03,974.311 1127.33,973.843 1127.55,973.304 C 1127.76,972.765 1127.87,972.184 1127.87,971.561 Z M 1125.81,971.561 C 1125.81,971.989 1125.76,972.375 1125.65,972.718 C 1125.54,973.06 1125.38,973.351 1125.17,973.589 C 1124.96,973.826 1124.71,974.009 1124.41,974.135 C 1124.1,974.262 1123.76,974.326 1123.38,974.326 C 1122.99,974.326 1122.64,974.262 1122.34,974.135 C 1122.04,974.009 1121.78,973.826 1121.57,973.589 C 1121.36,973.351 1121.2,973.06 1121.09,972.718 C 1120.98,972.375 1120.93,971.989 1120.93,971.561 C 1120.93,971.129 1120.98,970.742 1121.09,970.399 C 1121.2,970.056 1121.36,969.766 1121.57,969.528 C 1121.78,969.29 1122.04,969.109 1122.34,968.984 C 1122.64,968.859 1122.99,968.797 1123.38,968.797 C 1123.76,968.797 1124.1,968.859 1124.41,968.984 C 1124.71,969.109 1124.96,969.29 1125.17,969.528 C 1125.38,969.766 1125.54,970.056 1125.65,970.399 C 1125.76,970.742 1125.81,971.129 1125.81,971.561 Z" marker-start="none" marker-end="none"/>
    <path d="M 1129.89,975.894 C 1129.98,975.894 1130.05,975.89 1130.11,975.882 C 1130.17,975.874 1130.23,975.859 1130.27,975.837 C 1130.32,975.815 1130.37,975.785 1130.41,975.745 C 1130.45,975.705 1130.5,975.652 1130.56,975.585 L 1134.67,970.381 C 1134.66,970.547 1134.65,970.709 1134.64,970.866 C 1134.63,971.022 1134.63,971.17 1134.63,971.309 L 1134.63,975.894 L 1136.4,975.894 L 1136.4,967.226 L 1135.35,967.226 C 1135.2,967.226 1135.07,967.25 1134.96,967.297 C 1134.85,967.345 1134.75,967.432 1134.65,967.559 L 1130.56,972.721 C 1130.58,972.57 1130.59,972.423 1130.59,972.278 C 1130.6,972.133 1130.61,971.997 1130.61,971.871 L 1130.61,967.226 L 1128.83,967.226 L 1128.83,975.894 L 1129.89,975.894 Z" marker-start="none" marker-end="none"/>
    <path d="M 1142.65,974.131 C 1142.59,974.035 1142.53,973.964 1142.46,973.916 C 1142.4,973.869 1142.32,973.845 1142.21,973.845 C 1142.12,973.845 1142.02,973.874 1141.92,973.931 C 1141.81,973.989 1141.69,974.053 1141.56,974.125 C 1141.43,974.196 1141.28,974.26 1141.11,974.318 C 1140.93,974.375 1140.74,974.404 1140.52,974.404 C 1140.15,974.404 1139.87,974.324 1139.68,974.163 C 1139.5,974.003 1139.41,973.786 1139.41,973.512 C 1139.41,973.337 1139.46,973.193 1139.57,973.078 C 1139.68,972.963 1139.83,972.864 1140.01,972.78 C 1140.19,972.697 1140.4,972.621 1140.63,972.551 C 1140.86,972.482 1141.1,972.405 1141.34,972.32 C 1141.58,972.234 1141.82,972.134 1142.05,972.019 C 1142.28,971.904 1142.49,971.757 1142.67,971.579 C 1142.85,971.401 1142.99,971.183 1143.1,970.928 C 1143.21,970.672 1143.27,970.364 1143.27,970.003 C 1143.27,969.602 1143.2,969.228 1143.06,968.879 C 1142.92,968.53 1142.72,968.226 1142.46,967.966 C 1142.19,967.706 1141.87,967.502 1141.48,967.353 C 1141.1,967.205 1140.66,967.13 1140.17,967.13 C 1139.9,967.13 1139.62,967.158 1139.34,967.213 C 1139.06,967.269 1138.79,967.347 1138.53,967.448 C 1138.27,967.55 1138.02,967.67 1137.79,967.808 C 1137.56,967.947 1137.36,968.102 1137.19,968.272 L 1137.79,969.212 C 1137.83,969.283 1137.89,969.341 1137.97,969.385 C 1138.05,969.428 1138.14,969.45 1138.23,969.45 C 1138.35,969.45 1138.47,969.412 1138.59,969.337 C 1138.71,969.262 1138.85,969.178 1139,969.087 C 1139.15,968.996 1139.33,968.913 1139.52,968.837 C 1139.72,968.762 1139.96,968.724 1140.23,968.724 C 1140.59,968.724 1140.87,968.805 1141.08,968.965 C 1141.28,969.126 1141.38,969.381 1141.38,969.729 C 1141.38,969.932 1141.32,970.096 1141.21,970.223 C 1141.1,970.35 1140.96,970.455 1140.78,970.538 C 1140.6,970.622 1140.39,970.695 1140.16,970.758 C 1139.93,970.822 1139.69,970.892 1139.45,970.97 C 1139.21,971.047 1138.98,971.142 1138.75,971.255 C 1138.52,971.368 1138.31,971.517 1138.13,971.701 C 1137.95,971.886 1137.8,972.116 1137.69,972.391 C 1137.58,972.667 1137.53,973.007 1137.53,973.411 C 1137.53,973.736 1137.59,974.054 1137.72,974.363 C 1137.85,974.672 1138.05,974.948 1138.3,975.19 C 1138.55,975.431 1138.86,975.625 1139.23,975.77 C 1139.6,975.914 1140.02,975.987 1140.5,975.987 C 1140.77,975.987 1141.02,975.966 1141.28,975.924 C 1141.53,975.883 1141.77,975.821 1141.99,975.74 C 1142.22,975.658 1142.43,975.561 1142.63,975.448 C 1142.82,975.335 1143,975.207 1143.15,975.064 L 1142.65,974.131 Z" marker-start="none" marker-end="none"/>
   </g>
  </g>
 </g>
</svg>
