<?xml version="1.0" standalone="no"?>
<!DOCTYPE svg PUBLIC "-//W3C//DTD SVG 1.1//EN" "http://www.w3.org/Graphics/SVG/1.1/DTD/svg11.dtd">
<!--Generator: Xara Designer (www.xara.com), SVG filter version: 6.6.0.0-->
<svg fill="none" fill-rule="evenodd" stroke="black" stroke-width="0.501" stroke-linejoin="bevel" stroke-miterlimit="10" font-family="Times New Roman" font-size="16" style="font-variant-ligatures:none" xmlns:xlink="http://www.w3.org/1999/xlink" xmlns="http://www.w3.org/2000/svg" version="1.1" overflow="visible" width="107.718pt" height="53.866pt" viewBox="927.75 -667.082 107.718 53.866">
 <defs>
	</defs>
 <g id="Grid 36x36mm" transform="scale(1 -1)">
  <g id="Group" stroke="none">
   <path d="M 927.75,628.43 L 927.75,651.868 C 927.75,660.266 934.565,667.082 942.962,667.082 L 1020.26,667.082 C 1028.65,667.082 1035.47,660.266 1035.47,651.868 L 1035.47,628.43 C 1035.47,620.032 1028.65,613.216 1020.26,613.216 L 942.962,613.216 C 934.565,613.216 927.75,620.032 927.75,628.43 Z" fill="#ffffff" stroke-width="0.802" stroke-linejoin="miter" marker-start="none" marker-end="none"/>
   <path d="M 928.599,629.157 L 928.599,651.141 C 928.599,659.472 935.361,666.233 943.69,666.233 L 1019.53,666.233 C 1027.86,666.233 1034.62,659.472 1034.62,651.141 L 1034.62,629.157 C 1034.62,620.826 1027.86,614.065 1019.53,614.065 L 943.69,614.065 C 935.361,614.065 928.599,620.826 928.599,629.157 Z" fill="#e5e5e5" stroke-width="0.8" stroke-linejoin="miter" marker-start="none" marker-end="none"/>
   <g id="Group_1" fill-rule="nonzero" stroke-linejoin="round" stroke-linecap="round" stroke-width="0.251" fill="#b2b2b2">
    <g id="Group_2">
     <path d="M 955.677,638.702 L 955.677,635.78 L 953.649,635.78 L 953.649,644.523 L 956.733,644.523 C 957.349,644.523 957.878,644.45 958.32,644.304 C 958.762,644.158 959.126,643.957 959.412,643.701 C 959.698,643.445 959.909,643.143 960.045,642.795 C 960.181,642.447 960.249,642.071 960.249,641.667 C 960.249,641.23 960.179,640.83 960.039,640.466 C 959.899,640.102 959.685,639.79 959.397,639.53 C 959.109,639.27 958.744,639.067 958.302,638.921 C 957.86,638.775 957.337,638.702 956.733,638.702 L 955.677,638.702 Z M 955.677,640.231 L 956.733,640.231 C 957.261,640.231 957.641,640.357 957.873,640.61 C 958.105,640.862 958.221,641.214 958.221,641.667 C 958.221,641.867 958.191,642.049 958.131,642.213 C 958.071,642.377 957.98,642.518 957.858,642.636 C 957.736,642.754 957.582,642.846 957.396,642.91 C 957.21,642.974 956.989,643.006 956.733,643.006 L 955.677,643.006 L 955.677,640.231 Z" marker-start="none" marker-end="none"/>
     <path d="M 963.335,637.398 L 966.575,637.398 L 966.575,635.778 L 961.307,635.778 L 961.307,644.522 L 963.335,644.522 L 963.335,637.398 Z" marker-start="none" marker-end="none"/>
     <path d="M 975.672,635.778 L 974.1,635.778 C 973.924,635.778 973.779,635.819 973.665,635.901 C 973.551,635.983 973.472,636.088 973.428,636.216 L 972.912,637.741 L 969.588,637.741 L 969.072,636.216 C 969.032,636.104 968.954,636.003 968.838,635.913 C 968.722,635.823 968.58,635.778 968.412,635.778 L 966.828,635.778 L 970.212,644.522 L 972.288,644.522 L 975.672,635.778 Z M 970.056,639.121 L 972.444,639.121 L 971.64,641.478 C 971.588,641.628 971.527,641.804 971.457,642.007 C 971.387,642.21 971.318,642.43 971.25,642.666 C 971.186,642.426 971.12,642.203 971.052,641.998 C 970.984,641.794 970.92,641.616 970.86,641.467 L 970.056,639.121 Z" marker-start="none" marker-end="none"/>
     <path d="M 979.534,639.051 L 979.534,635.778 L 977.506,635.778 L 977.506,639.051 L 974.338,644.522 L 976.126,644.522 C 976.302,644.522 976.442,644.48 976.546,644.397 C 976.65,644.313 976.734,644.206 976.798,644.076 L 978.034,641.486 C 978.134,641.278 978.226,641.086 978.31,640.911 C 978.394,640.736 978.468,640.563 978.532,640.392 C 978.592,640.567 978.664,640.742 978.748,640.917 C 978.832,641.092 978.922,641.282 979.018,641.486 L 980.242,644.076 C 980.266,644.129 980.299,644.182 980.341,644.235 C 980.383,644.288 980.431,644.336 980.485,644.378 C 980.539,644.421 980.601,644.456 980.671,644.482 C 980.741,644.509 980.818,644.522 980.902,644.522 L 982.702,644.522 L 979.534,639.051 Z" marker-start="none" marker-end="none"/>
     <path d="M 989.736,637.243 C 990.016,637.243 990.264,637.266 990.48,637.314 C 990.696,637.361 990.9,637.424 991.092,637.503 L 991.092,638.831 L 990.228,638.831 C 990.1,638.831 990,638.865 989.928,638.933 C 989.856,639.001 989.82,639.087 989.82,639.191 L 989.82,640.307 L 992.928,640.307 L 992.928,636.618 C 992.704,636.454 992.471,636.313 992.229,636.194 C 991.987,636.076 991.729,635.979 991.455,635.903 C 991.181,635.827 990.889,635.771 990.579,635.735 C 990.269,635.699 989.936,635.681 989.58,635.681 C 988.94,635.681 988.348,635.794 987.804,636.02 C 987.26,636.247 986.789,636.559 986.391,636.957 C 985.993,637.355 985.681,637.827 985.455,638.373 C 985.229,638.919 985.116,639.512 985.116,640.152 C 985.116,640.804 985.224,641.404 985.44,641.95 C 985.656,642.496 985.965,642.967 986.367,643.363 C 986.769,643.759 987.255,644.067 987.825,644.287 C 988.395,644.507 989.032,644.617 989.736,644.617 C 990.1,644.617 990.442,644.587 990.762,644.527 C 991.082,644.467 991.377,644.385 991.647,644.281 C 991.917,644.177 992.164,644.052 992.388,643.908 C 992.612,643.764 992.812,643.608 992.988,643.439 L 992.4,642.545 C 992.344,642.461 992.277,642.395 992.199,642.347 C 992.121,642.299 992.036,642.275 991.944,642.275 C 991.824,642.275 991.7,642.315 991.572,642.395 C 991.412,642.491 991.261,642.574 991.119,642.644 C 990.977,642.714 990.832,642.771 990.684,642.815 C 990.536,642.859 990.38,642.891 990.216,642.911 C 990.052,642.931 989.868,642.941 989.664,642.941 C 989.284,642.941 988.942,642.874 988.638,642.74 C 988.334,642.606 988.075,642.418 987.861,642.174 C 987.647,641.93 987.482,641.637 987.366,641.295 C 987.25,640.953 987.192,640.572 987.192,640.152 C 987.192,639.688 987.256,639.276 987.384,638.916 C 987.512,638.557 987.689,638.253 987.915,638.005 C 988.141,637.757 988.409,637.568 988.719,637.438 C 989.029,637.308 989.368,637.243 989.736,637.243 Z" marker-start="none" marker-end="none"/>
     <path d="M 999.791,644.523 L 999.791,642.962 L 996.203,642.962 L 996.203,640.92 L 998.951,640.92 L 998.951,639.42 L 996.203,639.42 L 996.203,637.34 L 999.791,637.34 L 999.791,635.778 L 994.163,635.778 L 994.163,644.523 L 999.791,644.523 Z" marker-start="none" marker-end="none"/>
     <path d="M 1009.57,640.152 C 1009.57,639.52 1009.46,638.932 1009.24,638.388 C 1009.03,637.844 1008.72,637.371 1008.32,636.969 C 1007.93,636.567 1007.45,636.252 1006.89,636.023 C 1006.33,635.795 1005.71,635.681 1005.03,635.681 C 1004.35,635.681 1003.73,635.795 1003.17,636.023 C 1002.61,636.252 1002.14,636.567 1001.74,636.969 C 1001.34,637.371 1001.03,637.844 1000.81,638.388 C 1000.6,638.932 1000.49,639.52 1000.49,640.152 C 1000.49,640.784 1000.6,641.373 1000.81,641.917 C 1001.03,642.461 1001.34,642.933 1001.74,643.333 C 1002.14,643.733 1002.61,644.047 1003.17,644.275 C 1003.73,644.503 1004.35,644.617 1005.03,644.617 C 1005.71,644.617 1006.33,644.502 1006.89,644.272 C 1007.45,644.042 1007.93,643.727 1008.32,643.327 C 1008.72,642.927 1009.03,642.455 1009.24,641.911 C 1009.46,641.367 1009.57,640.78 1009.57,640.152 Z M 1007.49,640.152 C 1007.49,640.584 1007.44,640.973 1007.33,641.319 C 1007.21,641.665 1007.05,641.958 1006.84,642.198 C 1006.63,642.438 1006.38,642.621 1006.07,642.749 C 1005.77,642.877 1005.42,642.941 1005.03,642.941 C 1004.64,642.941 1004.29,642.877 1003.99,642.749 C 1003.68,642.621 1003.42,642.438 1003.21,642.198 C 1003,641.958 1002.84,641.665 1002.73,641.319 C 1002.62,640.973 1002.56,640.584 1002.56,640.152 C 1002.56,639.716 1002.62,639.325 1002.73,638.98 C 1002.84,638.634 1003,638.341 1003.21,638.101 C 1003.42,637.861 1003.68,637.678 1003.99,637.552 C 1004.29,637.426 1004.64,637.363 1005.03,637.363 C 1005.42,637.363 1005.77,637.426 1006.07,637.552 C 1006.38,637.678 1006.63,637.861 1006.84,638.101 C 1007.05,638.341 1007.21,638.634 1007.33,638.98 C 1007.44,639.325 1007.49,639.716 1007.49,640.152 Z" marker-start="none" marker-end="none"/>
    </g>
   </g>
  </g>
 </g>
</svg>
