<?xml version="1.0" standalone="no"?>
<!DOCTYPE svg PUBLIC "-//W3C//DTD SVG 1.1//EN" "http://www.w3.org/Graphics/SVG/1.1/DTD/svg11.dtd">
<!--Generator: Xara Designer (www.xara.com), SVG filter version: 6.6.0.0-->
<svg fill="none" fill-rule="evenodd" stroke="black" stroke-width="0.501" stroke-linejoin="bevel" stroke-miterlimit="10" font-family="Times New Roman" font-size="16" style="font-variant-ligatures:none" xmlns:xlink="http://www.w3.org/1999/xlink" xmlns="http://www.w3.org/2000/svg" version="1.1" overflow="visible" width="107.718pt" height="107.72pt" viewBox="1047.75 -720.186 107.718 107.72">
 <defs>
	</defs>
 <g id="Grid 36x36mm" transform="scale(1 -1)">
  <g id="Group" fill-rule="nonzero" stroke-linejoin="round" stroke-linecap="round" stroke="none" stroke-width="0.251" fill="#b2b2b2">
   <g id="Group_1">
    <path d="M 1089.14,699.291 L 1089.14,696.369 L 1087.11,696.369 L 1087.11,705.112 L 1090.19,705.112 C 1090.81,705.112 1091.34,705.039 1091.78,704.893 C 1092.22,704.747 1092.59,704.546 1092.87,704.29 C 1093.16,704.034 1093.37,703.732 1093.51,703.384 C 1093.64,703.036 1093.71,702.66 1093.71,702.256 C 1093.71,701.819 1093.64,701.419 1093.5,701.055 C 1093.36,700.691 1093.15,700.379 1092.86,700.119 C 1092.57,699.859 1092.2,699.656 1091.76,699.51 C 1091.32,699.364 1090.8,699.291 1090.19,699.291 L 1089.14,699.291 Z M 1089.14,700.82 L 1090.19,700.82 C 1090.72,700.82 1091.1,700.946 1091.33,701.199 C 1091.57,701.451 1091.68,701.803 1091.68,702.256 C 1091.68,702.456 1091.65,702.638 1091.59,702.802 C 1091.53,702.966 1091.44,703.107 1091.32,703.225 C 1091.2,703.343 1091.04,703.435 1090.86,703.499 C 1090.67,703.563 1090.45,703.595 1090.19,703.595 L 1089.14,703.595 L 1089.14,700.82 Z" marker-start="none" marker-end="none"/>
    <path d="M 1096.8,697.987 L 1100.04,697.987 L 1100.04,696.367 L 1094.77,696.367 L 1094.77,705.111 L 1096.8,705.111 L 1096.8,697.987 Z" marker-start="none" marker-end="none"/>
    <path d="M 1109.13,696.367 L 1107.56,696.367 C 1107.38,696.367 1107.24,696.408 1107.13,696.49 C 1107.01,696.572 1106.93,696.677 1106.89,696.805 L 1106.37,698.33 L 1103.05,698.33 L 1102.53,696.805 C 1102.49,696.693 1102.41,696.592 1102.3,696.502 C 1102.18,696.412 1102.04,696.367 1101.87,696.367 L 1100.29,696.367 L 1103.67,705.111 L 1105.75,705.111 L 1109.13,696.367 Z M 1103.52,699.71 L 1105.9,699.71 L 1105.1,702.067 C 1105.05,702.217 1104.99,702.393 1104.92,702.596 C 1104.85,702.799 1104.78,703.019 1104.71,703.255 C 1104.65,703.015 1104.58,702.792 1104.51,702.587 C 1104.44,702.383 1104.38,702.205 1104.32,702.056 L 1103.52,699.71 Z" marker-start="none" marker-end="none"/>
    <path d="M 1112.99,699.64 L 1112.99,696.367 L 1110.97,696.367 L 1110.97,699.64 L 1107.8,705.111 L 1109.59,705.111 C 1109.76,705.111 1109.9,705.069 1110.01,704.986 C 1110.11,704.902 1110.19,704.795 1110.26,704.665 L 1111.49,702.075 C 1111.59,701.867 1111.69,701.675 1111.77,701.5 C 1111.85,701.325 1111.93,701.152 1111.99,700.981 C 1112.05,701.156 1112.12,701.331 1112.21,701.506 C 1112.29,701.681 1112.38,701.871 1112.48,702.075 L 1113.7,704.665 C 1113.73,704.718 1113.76,704.771 1113.8,704.824 C 1113.84,704.877 1113.89,704.925 1113.94,704.967 C 1114,705.01 1114.06,705.045 1114.13,705.071 C 1114.2,705.098 1114.28,705.111 1114.36,705.111 L 1116.16,705.111 L 1112.99,699.64 Z" marker-start="none" marker-end="none"/>
   </g>
   <g id="Group_2">
    <path d="M 1093.73,683.436 C 1094.01,683.436 1094.26,683.459 1094.48,683.507 C 1094.69,683.554 1094.9,683.617 1095.09,683.696 L 1095.09,685.024 L 1094.22,685.024 C 1094.1,685.024 1094,685.058 1093.92,685.126 C 1093.85,685.194 1093.82,685.28 1093.82,685.384 L 1093.82,686.5 L 1096.92,686.5 L 1096.92,682.811 C 1096.7,682.647 1096.47,682.506 1096.22,682.387 C 1095.98,682.269 1095.72,682.172 1095.45,682.096 C 1095.18,682.02 1094.88,681.964 1094.57,681.928 C 1094.26,681.892 1093.93,681.874 1093.58,681.874 C 1092.93,681.874 1092.34,681.987 1091.8,682.213 C 1091.26,682.44 1090.78,682.752 1090.39,683.15 C 1089.99,683.548 1089.68,684.02 1089.45,684.566 C 1089.22,685.112 1089.11,685.705 1089.11,686.345 C 1089.11,686.997 1089.22,687.597 1089.43,688.143 C 1089.65,688.689 1089.96,689.16 1090.36,689.556 C 1090.76,689.952 1091.25,690.26 1091.82,690.48 C 1092.39,690.7 1093.03,690.81 1093.73,690.81 C 1094.1,690.81 1094.44,690.78 1094.76,690.72 C 1095.08,690.66 1095.37,690.578 1095.64,690.474 C 1095.91,690.37 1096.16,690.245 1096.38,690.101 C 1096.61,689.957 1096.81,689.801 1096.98,689.632 L 1096.4,688.738 C 1096.34,688.654 1096.27,688.588 1096.19,688.54 C 1096.12,688.492 1096.03,688.468 1095.94,688.468 C 1095.82,688.468 1095.69,688.508 1095.57,688.588 C 1095.41,688.684 1095.26,688.767 1095.11,688.837 C 1094.97,688.907 1094.83,688.964 1094.68,689.008 C 1094.53,689.052 1094.38,689.084 1094.21,689.104 C 1094.05,689.124 1093.86,689.134 1093.66,689.134 C 1093.28,689.134 1092.94,689.067 1092.63,688.933 C 1092.33,688.799 1092.07,688.611 1091.86,688.367 C 1091.64,688.123 1091.48,687.83 1091.36,687.488 C 1091.25,687.146 1091.19,686.765 1091.19,686.345 C 1091.19,685.881 1091.25,685.469 1091.38,685.109 C 1091.51,684.75 1091.68,684.446 1091.91,684.198 C 1092.14,683.95 1092.4,683.761 1092.71,683.631 C 1093.02,683.501 1093.36,683.436 1093.73,683.436 Z" marker-start="none" marker-end="none"/>
    <path d="M 1103.03,688.937 C 1102.97,688.841 1102.91,688.769 1102.84,688.721 C 1102.78,688.673 1102.69,688.649 1102.59,688.649 C 1102.49,688.649 1102.4,688.678 1102.29,688.736 C 1102.18,688.794 1102.06,688.859 1101.93,688.931 C 1101.8,689.003 1101.64,689.068 1101.47,689.126 C 1101.3,689.184 1101.1,689.213 1100.88,689.213 C 1100.5,689.213 1100.22,689.132 1100.03,688.97 C 1099.85,688.808 1099.75,688.589 1099.75,688.313 C 1099.75,688.137 1099.81,687.991 1099.92,687.875 C 1100.03,687.759 1100.18,687.659 1100.36,687.575 C 1100.55,687.491 1100.75,687.414 1100.99,687.344 C 1101.22,687.274 1101.46,687.196 1101.7,687.11 C 1101.95,687.024 1102.19,686.923 1102.42,686.807 C 1102.66,686.691 1102.86,686.543 1103.05,686.363 C 1103.23,686.183 1103.37,685.964 1103.49,685.706 C 1103.6,685.448 1103.65,685.137 1103.65,684.773 C 1103.65,684.369 1103.58,683.991 1103.44,683.639 C 1103.3,683.287 1103.1,682.98 1102.84,682.718 C 1102.57,682.456 1102.24,682.25 1101.85,682.099 C 1101.46,681.949 1101.02,681.874 1100.52,681.874 C 1100.25,681.874 1099.97,681.902 1099.69,681.958 C 1099.41,682.014 1099.14,682.093 1098.87,682.195 C 1098.61,682.298 1098.36,682.419 1098.13,682.559 C 1097.9,682.699 1097.69,682.855 1097.52,683.027 L 1098.12,683.975 C 1098.17,684.047 1098.23,684.105 1098.31,684.149 C 1098.39,684.193 1098.47,684.215 1098.57,684.215 C 1098.69,684.215 1098.81,684.177 1098.93,684.101 C 1099.05,684.025 1099.19,683.941 1099.34,683.849 C 1099.5,683.757 1099.67,683.673 1099.87,683.597 C 1100.07,683.521 1100.31,683.483 1100.58,683.483 C 1100.95,683.483 1101.24,683.564 1101.44,683.726 C 1101.64,683.888 1101.75,684.145 1101.75,684.497 C 1101.75,684.701 1101.69,684.867 1101.58,684.995 C 1101.47,685.123 1101.32,685.229 1101.14,685.313 C 1100.95,685.397 1100.75,685.471 1100.52,685.535 C 1100.28,685.599 1100.05,685.67 1099.8,685.748 C 1099.56,685.826 1099.32,685.922 1099.09,686.036 C 1098.86,686.15 1098.65,686.3 1098.47,686.486 C 1098.29,686.672 1098.14,686.904 1098.03,687.182 C 1097.91,687.461 1097.86,687.804 1097.86,688.212 C 1097.86,688.54 1097.92,688.86 1098.06,689.172 C 1098.19,689.484 1098.38,689.762 1098.64,690.006 C 1098.89,690.25 1099.21,690.445 1099.58,690.591 C 1099.95,690.737 1100.38,690.81 1100.86,690.81 C 1101.13,690.81 1101.39,690.789 1101.64,690.747 C 1101.9,690.705 1102.14,690.643 1102.36,690.561 C 1102.59,690.479 1102.81,690.381 1103,690.267 C 1103.2,690.153 1103.38,690.024 1103.53,689.88 L 1103.03,688.937 Z" marker-start="none" marker-end="none"/>
    <path d="M 1113.29,686.345 C 1113.29,685.713 1113.18,685.125 1112.96,684.581 C 1112.75,684.037 1112.44,683.564 1112.04,683.162 C 1111.65,682.76 1111.17,682.445 1110.61,682.216 C 1110.05,681.988 1109.43,681.874 1108.75,681.874 C 1108.07,681.874 1107.45,681.988 1106.89,682.216 C 1106.33,682.445 1105.86,682.76 1105.46,683.162 C 1105.06,683.564 1104.75,684.037 1104.53,684.581 C 1104.32,685.125 1104.21,685.713 1104.21,686.345 C 1104.21,686.977 1104.32,687.566 1104.53,688.11 C 1104.75,688.654 1105.06,689.126 1105.46,689.526 C 1105.86,689.926 1106.33,690.24 1106.89,690.468 C 1107.45,690.696 1108.07,690.81 1108.75,690.81 C 1109.43,690.81 1110.05,690.695 1110.61,690.465 C 1111.17,690.235 1111.65,689.92 1112.04,689.52 C 1112.44,689.12 1112.75,688.648 1112.96,688.104 C 1113.18,687.56 1113.29,686.973 1113.29,686.345 Z M 1111.21,686.345 C 1111.21,686.777 1111.16,687.166 1111.05,687.512 C 1110.93,687.858 1110.77,688.151 1110.56,688.391 C 1110.35,688.631 1110.1,688.814 1109.79,688.942 C 1109.49,689.07 1109.14,689.134 1108.75,689.134 C 1108.36,689.134 1108.01,689.07 1107.71,688.942 C 1107.4,688.814 1107.14,688.631 1106.93,688.391 C 1106.72,688.151 1106.56,687.858 1106.45,687.512 C 1106.34,687.166 1106.28,686.777 1106.28,686.345 C 1106.28,685.909 1106.34,685.518 1106.45,685.173 C 1106.56,684.827 1106.72,684.534 1106.93,684.294 C 1107.14,684.054 1107.4,683.871 1107.71,683.745 C 1108.01,683.619 1108.36,683.556 1108.75,683.556 C 1109.14,683.556 1109.49,683.619 1109.79,683.745 C 1110.1,683.871 1110.35,684.054 1110.56,684.294 C 1110.77,684.534 1110.93,684.827 1111.05,685.173 C 1111.16,685.518 1111.21,685.909 1111.21,686.345 Z" marker-start="none" marker-end="none"/>
   </g>
  </g>
  <g id="Group_3" fill-rule="nonzero" stroke-linejoin="round" stroke-linecap="round" stroke="none" stroke-width="0.251" fill="#b2b2b2">
   <path d="M 1073.01,625.046 C 1073.01,624.414 1072.9,623.826 1072.69,623.282 C 1072.47,622.738 1072.16,622.265 1071.77,621.863 C 1071.37,621.461 1070.89,621.146 1070.33,620.917 C 1069.78,620.689 1069.16,620.575 1068.48,620.575 C 1067.8,620.575 1067.18,620.689 1066.62,620.917 C 1066.06,621.146 1065.58,621.461 1065.18,621.863 C 1064.78,622.265 1064.47,622.738 1064.26,623.282 C 1064.04,623.826 1063.93,624.414 1063.93,625.046 C 1063.93,625.678 1064.04,626.267 1064.26,626.811 C 1064.47,627.355 1064.78,627.827 1065.18,628.227 C 1065.58,628.627 1066.06,628.941 1066.62,629.169 C 1067.18,629.397 1067.8,629.511 1068.48,629.511 C 1069.16,629.511 1069.78,629.396 1070.33,629.166 C 1070.89,628.936 1071.37,628.621 1071.77,628.221 C 1072.16,627.821 1072.47,627.349 1072.69,626.805 C 1072.9,626.261 1073.01,625.674 1073.01,625.046 Z M 1070.94,625.046 C 1070.94,625.478 1070.88,625.867 1070.77,626.213 C 1070.66,626.559 1070.5,626.852 1070.29,627.092 C 1070.08,627.332 1069.82,627.515 1069.52,627.643 C 1069.21,627.771 1068.87,627.835 1068.48,627.835 C 1068.09,627.835 1067.74,627.771 1067.43,627.643 C 1067.12,627.515 1066.87,627.332 1066.66,627.092 C 1066.45,626.852 1066.29,626.559 1066.17,626.213 C 1066.06,625.867 1066.01,625.478 1066.01,625.046 C 1066.01,624.61 1066.06,624.219 1066.17,623.874 C 1066.29,623.528 1066.45,623.235 1066.66,622.995 C 1066.87,622.755 1067.12,622.572 1067.43,622.446 C 1067.74,622.32 1068.09,622.257 1068.48,622.257 C 1068.87,622.257 1069.21,622.32 1069.52,622.446 C 1069.82,622.572 1070.08,622.755 1070.29,622.995 C 1070.5,623.235 1070.66,623.528 1070.77,623.874 C 1070.88,624.219 1070.94,624.61 1070.94,625.046 Z" marker-start="none" marker-end="none"/>
   <path d="M 1075.05,629.417 C 1075.14,629.417 1075.21,629.413 1075.27,629.405 C 1075.33,629.397 1075.39,629.382 1075.43,629.36 C 1075.48,629.338 1075.53,629.307 1075.57,629.267 C 1075.62,629.227 1075.67,629.173 1075.72,629.105 L 1079.88,623.855 C 1079.86,624.023 1079.85,624.186 1079.84,624.344 C 1079.83,624.502 1079.83,624.651 1079.83,624.791 L 1079.83,629.417 L 1081.62,629.417 L 1081.62,620.672 L 1080.56,620.672 C 1080.4,620.672 1080.27,620.696 1080.16,620.744 C 1080.06,620.792 1079.95,620.88 1079.85,621.008 L 1075.73,626.216 C 1075.74,626.064 1075.75,625.915 1075.76,625.769 C 1075.77,625.623 1075.77,625.486 1075.77,625.358 L 1075.77,620.672 L 1073.98,620.672 L 1073.98,629.417 L 1075.05,629.417 Z" marker-start="none" marker-end="none"/>
   <path d="M 1093.5,620.672 L 1091.93,620.672 C 1091.76,620.672 1091.61,620.713 1091.5,620.795 C 1091.38,620.877 1091.3,620.982 1091.26,621.11 L 1090.74,622.635 L 1087.42,622.635 L 1086.9,621.11 C 1086.86,620.998 1086.79,620.897 1086.67,620.807 C 1086.55,620.717 1086.41,620.672 1086.24,620.672 L 1084.66,620.672 L 1088.04,629.416 L 1090.12,629.416 L 1093.5,620.672 Z M 1087.89,624.015 L 1090.28,624.015 L 1089.47,626.372 C 1089.42,626.522 1089.36,626.698 1089.29,626.901 C 1089.22,627.104 1089.15,627.324 1089.08,627.56 C 1089.02,627.32 1088.95,627.097 1088.88,626.892 C 1088.82,626.688 1088.75,626.51 1088.69,626.361 L 1087.89,624.015 Z" marker-start="none" marker-end="none"/>
   <path d="M 1097.55,622.275 C 1097.82,622.275 1098.06,622.32 1098.28,622.41 C 1098.49,622.5 1098.67,622.629 1098.82,622.797 C 1098.97,622.965 1099.08,623.17 1099.16,623.412 C 1099.24,623.654 1099.27,623.929 1099.27,624.237 L 1099.27,629.416 L 1101.3,629.416 L 1101.3,624.236 C 1101.3,623.7 1101.21,623.208 1101.04,622.76 C 1100.87,622.312 1100.62,621.926 1100.29,621.602 C 1099.97,621.278 1099.58,621.026 1099.11,620.845 C 1098.65,620.665 1098.13,620.575 1097.55,620.575 C 1096.96,620.575 1096.44,620.665 1095.97,620.845 C 1095.51,621.026 1095.12,621.278 1094.79,621.602 C 1094.47,621.926 1094.22,622.312 1094.05,622.76 C 1093.88,623.208 1093.79,623.7 1093.79,624.236 L 1093.79,629.416 L 1095.82,629.416 L 1095.82,624.243 C 1095.82,623.935 1095.86,623.66 1095.93,623.418 C 1096.01,623.176 1096.13,622.97 1096.27,622.8 C 1096.42,622.63 1096.6,622.5 1096.82,622.41 C 1097.03,622.32 1097.27,622.275 1097.55,622.275 Z" marker-start="none" marker-end="none"/>
   <path d="M 1108.5,622.933 C 1108.55,622.933 1108.59,622.923 1108.64,622.905 C 1108.69,622.887 1108.74,622.855 1108.78,622.81 L 1109.58,621.946 C 1109.23,621.493 1108.79,621.151 1108.26,620.921 C 1107.73,620.691 1107.1,620.575 1106.38,620.575 C 1105.71,620.575 1105.12,620.688 1104.59,620.914 C 1104.07,621.141 1103.62,621.453 1103.26,621.851 C 1102.89,622.249 1102.61,622.721 1102.41,623.267 C 1102.22,623.813 1102.12,624.406 1102.12,625.046 C 1102.12,625.698 1102.23,626.298 1102.45,626.844 C 1102.68,627.39 1102.99,627.861 1103.39,628.257 C 1103.8,628.653 1104.28,628.961 1104.84,629.181 C 1105.4,629.401 1106.02,629.511 1106.69,629.511 C 1107.02,629.511 1107.33,629.482 1107.62,629.424 C 1107.91,629.366 1108.18,629.286 1108.43,629.184 C 1108.68,629.082 1108.92,628.959 1109.13,628.817 C 1109.34,628.675 1109.53,628.518 1109.69,628.345 L 1109.01,627.427 C 1108.96,627.371 1108.91,627.32 1108.85,627.274 C 1108.79,627.228 1108.71,627.205 1108.6,627.205 C 1108.53,627.205 1108.46,627.221 1108.4,627.253 C 1108.33,627.285 1108.26,627.324 1108.19,627.37 C 1108.12,627.416 1108.04,627.466 1107.95,627.52 C 1107.87,627.574 1107.77,627.624 1107.65,627.67 C 1107.53,627.716 1107.39,627.755 1107.23,627.787 C 1107.08,627.819 1106.89,627.835 1106.68,627.835 C 1106.31,627.835 1105.98,627.77 1105.67,627.64 C 1105.37,627.51 1105.11,627.324 1104.89,627.082 C 1104.67,626.84 1104.5,626.547 1104.38,626.203 C 1104.26,625.859 1104.19,625.473 1104.19,625.045 C 1104.19,624.597 1104.26,624.199 1104.38,623.851 C 1104.5,623.503 1104.67,623.21 1104.88,622.971 C 1105.09,622.734 1105.33,622.553 1105.61,622.428 C 1105.89,622.304 1106.19,622.242 1106.51,622.242 C 1106.69,622.242 1106.86,622.251 1107.02,622.269 C 1107.17,622.287 1107.31,622.318 1107.44,622.362 C 1107.57,622.406 1107.69,622.463 1107.81,622.533 C 1107.93,622.603 1108.05,622.69 1108.17,622.795 C 1108.21,622.835 1108.27,622.868 1108.32,622.894 C 1108.38,622.92 1108.44,622.933 1108.5,622.933 Z" marker-start="none" marker-end="none"/>
   <path d="M 1116.86,629.417 L 1116.86,627.809 L 1114.4,627.809 L 1114.4,620.674 L 1112.37,620.674 L 1112.37,627.809 L 1109.91,627.809 L 1109.91,629.417 L 1116.86,629.417 Z" marker-start="none" marker-end="none"/>
   <path d="M 1119.92,620.672 L 1117.88,620.672 L 1117.88,629.417 L 1119.92,629.417 L 1119.92,620.672 Z" marker-start="none" marker-end="none"/>
   <path d="M 1130.17,625.046 C 1130.17,624.414 1130.06,623.826 1129.84,623.282 C 1129.62,622.738 1129.31,622.265 1128.92,621.863 C 1128.52,621.461 1128.05,621.146 1127.49,620.917 C 1126.93,620.689 1126.31,620.575 1125.63,620.575 C 1124.95,620.575 1124.33,620.689 1123.77,620.917 C 1123.21,621.146 1122.73,621.461 1122.33,621.863 C 1121.93,622.265 1121.63,622.738 1121.41,623.282 C 1121.19,623.826 1121.08,624.414 1121.08,625.046 C 1121.08,625.678 1121.19,626.267 1121.41,626.811 C 1121.63,627.355 1121.93,627.827 1122.33,628.227 C 1122.73,628.627 1123.21,628.941 1123.77,629.169 C 1124.33,629.397 1124.95,629.511 1125.63,629.511 C 1126.31,629.511 1126.93,629.396 1127.49,629.166 C 1128.05,628.936 1128.52,628.621 1128.92,628.221 C 1129.31,627.821 1129.62,627.349 1129.84,626.805 C 1130.06,626.261 1130.17,625.674 1130.17,625.046 Z M 1128.09,625.046 C 1128.09,625.478 1128.03,625.867 1127.92,626.213 C 1127.81,626.559 1127.65,626.852 1127.44,627.092 C 1127.23,627.332 1126.97,627.515 1126.67,627.643 C 1126.36,627.771 1126.02,627.835 1125.63,627.835 C 1125.24,627.835 1124.89,627.771 1124.58,627.643 C 1124.28,627.515 1124.02,627.332 1123.81,627.092 C 1123.6,626.852 1123.44,626.559 1123.33,626.213 C 1123.21,625.867 1123.16,625.478 1123.16,625.046 C 1123.16,624.61 1123.21,624.219 1123.33,623.874 C 1123.44,623.528 1123.6,623.235 1123.81,622.995 C 1124.02,622.755 1124.28,622.572 1124.58,622.446 C 1124.89,622.32 1125.24,622.257 1125.63,622.257 C 1126.02,622.257 1126.36,622.32 1126.67,622.446 C 1126.97,622.572 1127.23,622.755 1127.44,622.995 C 1127.65,623.235 1127.81,623.528 1127.92,623.874 C 1128.03,624.219 1128.09,624.61 1128.09,625.046 Z" marker-start="none" marker-end="none"/>
   <path d="M 1132.2,629.417 C 1132.29,629.417 1132.37,629.413 1132.43,629.405 C 1132.49,629.397 1132.54,629.382 1132.59,629.36 C 1132.64,629.338 1132.68,629.307 1132.73,629.267 C 1132.77,629.227 1132.82,629.173 1132.88,629.105 L 1137.03,623.855 C 1137.01,624.023 1137,624.186 1136.99,624.344 C 1136.98,624.502 1136.98,624.651 1136.98,624.791 L 1136.98,629.417 L 1138.77,629.417 L 1138.77,620.672 L 1137.71,620.672 C 1137.56,620.672 1137.42,620.696 1137.32,620.744 C 1137.21,620.792 1137.1,620.88 1137,621.008 L 1132.88,626.216 C 1132.89,626.064 1132.9,625.915 1132.91,625.769 C 1132.92,625.623 1132.92,625.486 1132.92,625.358 L 1132.92,620.672 L 1131.14,620.672 L 1131.14,629.417 L 1132.2,629.417 Z" marker-start="none" marker-end="none"/>
  </g>
  <g id="Group_4" fill-rule="nonzero" stroke-linejoin="round" stroke-linecap="round" stroke="none" stroke-width="0.251" fill="#b2b2b2">
   <path d="M 1092.39,651.326 L 1092.39,660.068 L 1095.6,660.068 C 1096.21,660.068 1096.72,660.012 1097.15,659.9 C 1097.57,659.788 1097.92,659.631 1098.18,659.427 C 1098.45,659.223 1098.65,658.975 1098.77,658.683 C 1098.89,658.391 1098.95,658.065 1098.95,657.705 C 1098.95,657.509 1098.92,657.32 1098.87,657.138 C 1098.81,656.956 1098.72,656.785 1098.6,656.625 C 1098.48,656.465 1098.33,656.32 1098.14,656.19 C 1097.95,656.06 1097.73,655.947 1097.46,655.851 C 1098.04,655.711 1098.47,655.484 1098.74,655.17 C 1099.02,654.856 1099.16,654.453 1099.16,653.961 C 1099.16,653.589 1099.08,653.243 1098.94,652.922 C 1098.8,652.602 1098.59,652.323 1098.31,652.085 C 1098.03,651.847 1097.69,651.661 1097.28,651.527 C 1096.87,651.393 1096.4,651.326 1095.88,651.326 L 1092.39,651.326 Z M 1094.42,655.035 L 1094.42,652.855 L 1095.84,652.855 C 1096.11,652.855 1096.33,652.889 1096.5,652.957 C 1096.67,653.026 1096.8,653.114 1096.9,653.222 C 1097,653.33 1097.06,653.452 1097.1,653.588 C 1097.13,653.724 1097.15,653.862 1097.15,654.002 C 1097.15,654.162 1097.13,654.306 1097.09,654.435 C 1097.05,654.563 1096.98,654.671 1096.87,654.759 C 1096.77,654.847 1096.64,654.915 1096.47,654.963 C 1096.3,655.011 1096.09,655.035 1095.83,655.035 L 1094.42,655.035 Z M 1094.42,656.392 L 1095.47,656.392 C 1095.7,656.392 1095.9,656.408 1096.08,656.439 C 1096.26,656.472 1096.41,656.528 1096.54,656.607 C 1096.66,656.687 1096.76,656.797 1096.83,656.937 C 1096.89,657.077 1096.92,657.253 1096.92,657.465 C 1096.92,657.673 1096.9,657.846 1096.85,657.984 C 1096.79,658.122 1096.71,658.233 1096.61,658.317 C 1096.5,658.401 1096.36,658.461 1096.19,658.497 C 1096.03,658.533 1095.83,658.551 1095.6,658.551 L 1094.42,658.551 L 1094.42,656.392 Z" marker-start="none" marker-end="none"/>
   <path d="M 1102.48,651.326 L 1100.44,651.326 L 1100.44,660.071 L 1102.48,660.071 L 1102.48,651.326 Z" marker-start="none" marker-end="none"/>
   <path d="M 1112.03,655.702 C 1112.03,655.069 1111.92,654.486 1111.7,653.952 C 1111.48,653.418 1111.18,652.956 1110.78,652.566 C 1110.38,652.175 1109.91,651.871 1109.35,651.653 C 1108.79,651.435 1108.17,651.326 1107.49,651.326 L 1104.1,651.326 L 1104.1,660.071 L 1107.49,660.071 C 1108.17,660.071 1108.79,659.961 1109.35,659.741 C 1109.91,659.521 1110.38,659.217 1110.78,658.829 C 1111.18,658.441 1111.48,657.98 1111.7,657.445 C 1111.92,656.911 1112.03,656.33 1112.03,655.702 Z M 1109.95,655.702 C 1109.95,656.134 1109.9,656.524 1109.78,656.872 C 1109.67,657.22 1109.51,657.515 1109.3,657.757 C 1109.09,657.999 1108.83,658.185 1108.53,658.315 C 1108.23,658.445 1107.88,658.51 1107.49,658.51 L 1106.14,658.51 L 1106.14,652.888 L 1107.49,652.888 C 1107.88,652.888 1108.23,652.953 1108.53,653.083 C 1108.83,653.213 1109.09,653.399 1109.3,653.641 C 1109.51,653.883 1109.67,654.178 1109.78,654.526 C 1109.9,654.874 1109.95,655.266 1109.95,655.702 Z" marker-start="none" marker-end="none"/>
  </g>
  <g id="Group_5" stroke-linejoin="miter" stroke="none">
   <path d="M 1047.75,627.68 L 1047.75,704.972 C 1047.75,713.37 1054.57,720.186 1062.96,720.186 L 1101.61,720.184 L 1101.6,720.184 L 1101.61,666.326 L 1101.62,720.184 L 1101.61,720.184 L 1140.26,720.186 C 1148.65,720.186 1155.47,713.37 1155.47,704.972 L 1155.47,627.68 C 1155.47,619.282 1148.65,612.466 1140.26,612.466 L 1101.61,612.468 L 1101.62,612.468 L 1101.61,666.326 L 1101.6,612.468 L 1101.61,612.468 L 1062.96,612.466 C 1054.57,612.466 1047.75,619.282 1047.75,627.68 Z" fill="#ffffff" stroke-width="0.802" marker-start="none" marker-end="none"/>
   <path d="M 1048.6,628.408 L 1048.6,704.244 C 1048.6,712.575 1055.36,719.337 1063.69,719.337 L 1139.53,719.337 C 1147.86,719.337 1154.62,712.575 1154.62,704.244 L 1154.62,628.408 C 1154.62,620.077 1147.86,613.315 1139.53,613.315 L 1063.69,613.315 C 1055.36,613.315 1048.6,620.077 1048.6,628.408 Z" fill="#e5e5e5" stroke-width="0.801" marker-start="none" marker-end="none"/>
  </g>
  <g id="Group_6" fill-rule="nonzero" stroke-linejoin="round" stroke-linecap="round" stroke="none" stroke-width="0.297" fill="#b2b2b2">
   <g id="Group_7">
    <path d="M 1076.43,679.16 L 1076.43,676.263 L 1074.42,676.263 L 1074.42,684.93 L 1077.48,684.93 C 1078.09,684.93 1078.61,684.857 1079.05,684.713 C 1079.49,684.568 1079.85,684.369 1080.13,684.115 C 1080.41,683.861 1080.62,683.561 1080.76,683.217 C 1080.89,682.871 1080.96,682.499 1080.96,682.098 C 1080.96,681.666 1080.89,681.269 1080.75,680.909 C 1080.61,680.548 1080.4,680.238 1080.12,679.981 C 1079.83,679.723 1079.47,679.522 1079.03,679.377 C 1078.59,679.232 1078.07,679.16 1077.48,679.16 L 1076.43,679.16 Z M 1076.43,680.676 L 1077.48,680.676 C 1078,680.676 1078.38,680.801 1078.61,681.051 C 1078.84,681.301 1078.95,681.65 1078.95,682.098 C 1078.95,682.297 1078.92,682.477 1078.86,682.64 C 1078.8,682.803 1078.71,682.942 1078.59,683.059 C 1078.47,683.176 1078.32,683.267 1078.13,683.33 C 1077.95,683.394 1077.73,683.426 1077.48,683.426 L 1076.43,683.426 L 1076.43,680.676 Z" marker-start="none" marker-end="none"/>
    <path d="M 1084.02,677.868 L 1087.23,677.868 L 1087.23,676.262 L 1082.01,676.262 L 1082.01,684.928 L 1084.02,684.928 L 1084.02,677.868 Z" marker-start="none" marker-end="none"/>
    <path d="M 1096.25,676.262 L 1094.69,676.262 C 1094.51,676.262 1094.37,676.303 1094.26,676.384 C 1094.15,676.465 1094.07,676.569 1094.02,676.696 L 1093.51,678.207 L 1090.22,678.207 L 1089.7,676.696 C 1089.67,676.585 1089.59,676.485 1089.47,676.396 C 1089.36,676.307 1089.22,676.262 1089.05,676.262 L 1087.48,676.262 L 1090.84,684.928 L 1092.89,684.928 L 1096.25,676.262 Z M 1090.68,679.576 L 1093.05,679.576 L 1092.25,681.912 C 1092.2,682.06 1092.14,682.235 1092.07,682.436 C 1092,682.637 1091.93,682.854 1091.86,683.089 C 1091.8,682.851 1091.74,682.63 1091.67,682.427 C 1091.6,682.224 1091.54,682.048 1091.48,681.9 L 1090.68,679.576 Z" marker-start="none" marker-end="none"/>
    <path d="M 1100.08,679.506 L 1100.08,676.262 L 1098.07,676.262 L 1098.07,679.506 L 1094.93,684.928 L 1096.7,684.928 C 1096.87,684.928 1097.01,684.887 1097.11,684.804 C 1097.22,684.721 1097.3,684.615 1097.36,684.486 L 1098.59,681.919 C 1098.69,681.713 1098.78,681.523 1098.86,681.35 C 1098.94,681.176 1099.02,681.004 1099.08,680.835 C 1099.14,681.008 1099.21,681.182 1099.3,681.356 C 1099.38,681.529 1099.47,681.717 1099.56,681.919 L 1100.78,684.486 C 1100.8,684.539 1100.83,684.591 1100.88,684.644 C 1100.92,684.696 1100.96,684.744 1101.02,684.786 C 1101.07,684.828 1101.13,684.863 1101.2,684.889 C 1101.27,684.915 1101.35,684.928 1101.43,684.928 L 1103.21,684.928 L 1100.08,679.506 Z" marker-start="none" marker-end="none"/>
    <path d="M 1110.19,677.714 C 1110.46,677.714 1110.71,677.737 1110.92,677.784 C 1111.14,677.831 1111.34,677.893 1111.53,677.972 L 1111.53,679.288 L 1110.67,679.288 C 1110.55,679.288 1110.45,679.322 1110.38,679.389 C 1110.31,679.456 1110.27,679.542 1110.27,679.645 L 1110.27,680.751 L 1113.35,680.751 L 1113.35,677.094 C 1113.13,676.932 1112.9,676.792 1112.66,676.675 C 1112.42,676.558 1112.16,676.462 1111.89,676.386 C 1111.62,676.311 1111.33,676.255 1111.02,676.22 C 1110.71,676.184 1110.39,676.166 1110.03,676.166 C 1109.4,676.166 1108.81,676.278 1108.27,676.502 C 1107.73,676.726 1107.27,677.036 1106.87,677.43 C 1106.48,677.825 1106.17,678.293 1105.94,678.834 C 1105.72,679.375 1105.61,679.963 1105.61,680.597 C 1105.61,681.244 1105.71,681.838 1105.93,682.379 C 1106.14,682.92 1106.45,683.387 1106.85,683.78 C 1107.25,684.172 1107.73,684.477 1108.29,684.696 C 1108.86,684.914 1109.49,685.023 1110.19,685.023 C 1110.55,685.023 1110.89,684.993 1111.2,684.933 C 1111.52,684.874 1111.81,684.792 1112.08,684.689 C 1112.35,684.586 1112.59,684.463 1112.82,684.32 C 1113.04,684.177 1113.24,684.022 1113.41,683.855 L 1112.83,682.969 C 1112.77,682.886 1112.7,682.821 1112.63,682.773 C 1112.55,682.725 1112.47,682.702 1112.38,682.702 C 1112.26,682.702 1112.13,682.741 1112.01,682.821 C 1111.85,682.916 1111.7,682.998 1111.56,683.067 C 1111.42,683.137 1111.27,683.193 1111.13,683.237 C 1110.98,683.28 1110.83,683.312 1110.66,683.332 C 1110.5,683.352 1110.32,683.362 1110.12,683.362 C 1109.74,683.362 1109.4,683.295 1109.1,683.163 C 1108.8,683.03 1108.54,682.843 1108.33,682.601 C 1108.12,682.359 1107.95,682.069 1107.84,681.73 C 1107.72,681.391 1107.67,681.013 1107.67,680.597 C 1107.67,680.138 1107.73,679.729 1107.86,679.373 C 1107.98,679.016 1108.16,678.715 1108.38,678.469 C 1108.61,678.223 1108.87,678.036 1109.18,677.907 C 1109.49,677.778 1109.82,677.714 1110.19,677.714 Z" marker-start="none" marker-end="none"/>
    <path d="M 1119.4,683.167 C 1119.34,683.071 1119.28,683 1119.22,682.952 C 1119.15,682.905 1119.07,682.881 1118.96,682.881 C 1118.87,682.881 1118.77,682.91 1118.67,682.967 C 1118.56,683.025 1118.44,683.089 1118.31,683.161 C 1118.18,683.232 1118.03,683.296 1117.86,683.354 C 1117.69,683.411 1117.49,683.44 1117.28,683.44 C 1116.9,683.44 1116.62,683.36 1116.43,683.199 C 1116.25,683.039 1116.16,682.822 1116.16,682.548 C 1116.16,682.373 1116.21,682.229 1116.32,682.114 C 1116.43,681.999 1116.58,681.9 1116.76,681.816 C 1116.94,681.733 1117.15,681.657 1117.38,681.587 C 1117.61,681.518 1117.85,681.441 1118.09,681.356 C 1118.33,681.27 1118.57,681.17 1118.8,681.055 C 1119.03,680.94 1119.24,680.793 1119.42,680.615 C 1119.6,680.437 1119.75,680.219 1119.86,679.964 C 1119.97,679.708 1120.02,679.4 1120.02,679.039 C 1120.02,678.638 1119.95,678.264 1119.81,677.915 C 1119.68,677.566 1119.47,677.262 1119.21,677.002 C 1118.95,676.742 1118.62,676.538 1118.24,676.389 C 1117.85,676.241 1117.41,676.166 1116.92,676.166 C 1116.65,676.166 1116.37,676.194 1116.09,676.249 C 1115.82,676.305 1115.54,676.383 1115.28,676.484 C 1115.02,676.586 1114.78,676.706 1114.55,676.844 C 1114.32,676.983 1114.12,677.138 1113.94,677.308 L 1114.54,678.248 C 1114.58,678.319 1114.64,678.377 1114.72,678.421 C 1114.8,678.464 1114.89,678.486 1114.98,678.486 C 1115.1,678.486 1115.22,678.448 1115.34,678.373 C 1115.46,678.298 1115.6,678.214 1115.75,678.123 C 1115.9,678.032 1116.08,677.949 1116.28,677.873 C 1116.47,677.798 1116.71,677.76 1116.98,677.76 C 1117.34,677.76 1117.63,677.841 1117.83,678.001 C 1118.03,678.162 1118.13,678.417 1118.13,678.765 C 1118.13,678.968 1118.08,679.132 1117.96,679.259 C 1117.85,679.386 1117.71,679.491 1117.53,679.574 C 1117.35,679.658 1117.14,679.731 1116.91,679.794 C 1116.68,679.858 1116.45,679.928 1116.2,680.006 C 1115.96,680.083 1115.73,680.178 1115.5,680.291 C 1115.27,680.404 1115.06,680.553 1114.88,680.737 C 1114.7,680.922 1114.56,681.152 1114.44,681.427 C 1114.33,681.703 1114.28,682.043 1114.28,682.447 C 1114.28,682.772 1114.34,683.09 1114.47,683.399 C 1114.61,683.708 1114.8,683.984 1115.05,684.226 C 1115.3,684.467 1115.62,684.661 1115.98,684.806 C 1116.35,684.95 1116.78,685.023 1117.25,685.023 C 1117.52,685.023 1117.78,685.002 1118.03,684.96 C 1118.28,684.919 1118.52,684.857 1118.74,684.776 C 1118.97,684.694 1119.18,684.597 1119.38,684.484 C 1119.57,684.371 1119.75,684.243 1119.9,684.1 L 1119.4,683.167 Z" marker-start="none" marker-end="none"/>
    <path d="M 1129.57,680.597 C 1129.57,679.971 1129.46,679.388 1129.25,678.849 C 1129.03,678.31 1128.73,677.841 1128.34,677.442 C 1127.94,677.044 1127.47,676.731 1126.92,676.505 C 1126.36,676.279 1125.75,676.166 1125.08,676.166 C 1124.4,676.166 1123.79,676.279 1123.23,676.505 C 1122.68,676.731 1122.2,677.044 1121.81,677.442 C 1121.41,677.841 1121.11,678.31 1120.89,678.849 C 1120.68,679.388 1120.57,679.971 1120.57,680.597 C 1120.57,681.224 1120.68,681.807 1120.89,682.346 C 1121.11,682.885 1121.41,683.353 1121.81,683.75 C 1122.2,684.146 1122.68,684.458 1123.23,684.684 C 1123.79,684.91 1124.4,685.023 1125.08,685.023 C 1125.75,685.023 1126.36,684.909 1126.92,684.681 C 1127.47,684.453 1127.94,684.14 1128.34,683.744 C 1128.73,683.347 1129.03,682.879 1129.25,682.34 C 1129.46,681.801 1129.57,681.22 1129.57,680.597 Z M 1127.52,680.597 C 1127.52,681.025 1127.46,681.411 1127.35,681.754 C 1127.24,682.096 1127.08,682.387 1126.87,682.625 C 1126.66,682.862 1126.41,683.045 1126.11,683.171 C 1125.8,683.298 1125.46,683.362 1125.08,683.362 C 1124.69,683.362 1124.34,683.298 1124.04,683.171 C 1123.74,683.045 1123.48,682.862 1123.27,682.625 C 1123.06,682.387 1122.9,682.096 1122.79,681.754 C 1122.68,681.411 1122.63,681.025 1122.63,680.597 C 1122.63,680.165 1122.68,679.778 1122.79,679.435 C 1122.9,679.092 1123.06,678.802 1123.27,678.564 C 1123.48,678.326 1123.74,678.145 1124.04,678.02 C 1124.34,677.895 1124.69,677.833 1125.08,677.833 C 1125.46,677.833 1125.8,677.895 1126.11,678.02 C 1126.41,678.145 1126.66,678.326 1126.87,678.564 C 1127.08,678.802 1127.24,679.092 1127.35,679.435 C 1127.46,679.778 1127.52,680.165 1127.52,680.597 Z" marker-start="none" marker-end="none"/>
   </g>
   <g id="Group_8">
    <path d="M 1076.17,670.662 L 1076.17,669.068 L 1073.73,669.068 L 1073.73,661.995 L 1071.72,661.995 L 1071.72,669.068 L 1069.28,669.068 L 1069.28,670.662 L 1076.17,670.662 Z" marker-start="none" marker-end="none"/>
    <path d="M 1085.19,666.329 C 1085.19,665.703 1085.09,665.12 1084.87,664.581 C 1084.65,664.042 1084.35,663.573 1083.96,663.174 C 1083.57,662.776 1083.09,662.463 1082.54,662.237 C 1081.99,662.011 1081.37,661.898 1080.7,661.898 C 1080.03,661.898 1079.41,662.011 1078.86,662.237 C 1078.3,662.463 1077.83,662.776 1077.43,663.174 C 1077.04,663.573 1076.73,664.042 1076.52,664.581 C 1076.3,665.12 1076.19,665.703 1076.19,666.329 C 1076.19,666.956 1076.3,667.539 1076.52,668.078 C 1076.73,668.617 1077.04,669.085 1077.43,669.482 C 1077.83,669.878 1078.3,670.19 1078.86,670.416 C 1079.41,670.642 1080.03,670.755 1080.7,670.755 C 1081.37,670.755 1081.99,670.641 1082.54,670.413 C 1083.09,670.185 1083.57,669.872 1083.96,669.476 C 1084.35,669.079 1084.65,668.611 1084.87,668.072 C 1085.09,667.533 1085.19,666.952 1085.19,666.329 Z M 1083.14,666.329 C 1083.14,666.757 1083.08,667.143 1082.97,667.486 C 1082.86,667.828 1082.7,668.119 1082.49,668.357 C 1082.28,668.594 1082.03,668.777 1081.73,668.903 C 1081.43,669.03 1081.08,669.094 1080.7,669.094 C 1080.31,669.094 1079.96,669.03 1079.66,668.903 C 1079.36,668.777 1079.1,668.594 1078.89,668.357 C 1078.69,668.119 1078.53,667.828 1078.42,667.486 C 1078.3,667.143 1078.25,666.757 1078.25,666.329 C 1078.25,665.897 1078.3,665.51 1078.42,665.167 C 1078.53,664.824 1078.69,664.534 1078.89,664.296 C 1079.1,664.058 1079.36,663.877 1079.66,663.752 C 1079.96,663.627 1080.31,663.565 1080.7,663.565 C 1081.08,663.565 1081.43,663.627 1081.73,663.752 C 1082.03,663.877 1082.28,664.058 1082.49,664.296 C 1082.7,664.534 1082.86,664.824 1082.97,665.167 C 1083.08,665.51 1083.14,665.897 1083.14,666.329 Z" marker-start="none" marker-end="none"/>
    <path d="M 1090.46,665.2 L 1090.46,661.994 L 1088.45,661.994 L 1088.45,670.659 L 1091.27,670.659 C 1091.9,670.659 1092.43,670.594 1092.87,670.465 C 1093.31,670.336 1093.67,670.157 1093.95,669.927 C 1094.23,669.696 1094.44,669.424 1094.56,669.111 C 1094.69,668.797 1094.75,668.456 1094.75,668.086 C 1094.75,667.805 1094.72,667.539 1094.64,667.289 C 1094.57,667.039 1094.45,666.807 1094.31,666.595 C 1094.16,666.382 1093.97,666.193 1093.76,666.026 C 1093.54,665.86 1093.29,665.723 1093.01,665.615 C 1093.15,665.548 1093.27,665.465 1093.39,665.366 C 1093.51,665.267 1093.61,665.147 1093.69,665.004 L 1095.54,661.994 L 1093.72,661.994 C 1093.38,661.994 1093.14,662.121 1092.99,662.375 L 1091.55,664.89 C 1091.49,665.001 1091.42,665.081 1091.33,665.128 C 1091.25,665.176 1091.13,665.2 1090.97,665.2 L 1090.46,665.2 Z M 1090.46,666.585 L 1091.27,666.585 C 1091.54,666.585 1091.78,666.62 1091.97,666.689 C 1092.16,666.758 1092.32,666.855 1092.44,666.978 C 1092.56,667.1 1092.65,667.244 1092.71,667.409 C 1092.76,667.573 1092.79,667.751 1092.79,667.941 C 1092.79,668.322 1092.67,668.619 1092.42,668.833 C 1092.17,669.048 1091.79,669.155 1091.27,669.155 L 1090.46,669.155 L 1090.46,666.585 Z" marker-start="none" marker-end="none"/>
    <path d="M 1101.94,670.662 L 1101.94,669.114 L 1098.38,669.114 L 1098.38,667.09 L 1101.11,667.09 L 1101.11,665.603 L 1098.38,665.603 L 1098.38,663.542 L 1101.94,663.542 L 1101.94,661.994 L 1096.36,661.994 L 1096.36,670.662 L 1101.94,670.662 Z" marker-start="none" marker-end="none"/>
    <path d="M 1110.94,666.331 C 1110.94,665.704 1110.83,665.126 1110.62,664.597 C 1110.4,664.067 1110.1,663.609 1109.7,663.223 C 1109.31,662.836 1108.84,662.534 1108.29,662.318 C 1107.73,662.102 1107.12,661.994 1106.44,661.994 L 1103.08,661.994 L 1103.08,670.662 L 1106.44,670.662 C 1107.12,670.662 1107.73,670.553 1108.29,670.335 C 1108.84,670.116 1109.31,669.815 1109.7,669.43 C 1110.1,669.046 1110.4,668.588 1110.62,668.059 C 1110.83,667.53 1110.94,666.954 1110.94,666.331 Z M 1108.88,666.331 C 1108.88,666.759 1108.83,667.146 1108.72,667.49 C 1108.61,667.835 1108.45,668.128 1108.24,668.368 C 1108.03,668.607 1107.78,668.792 1107.47,668.921 C 1107.17,669.05 1106.83,669.114 1106.44,669.114 L 1105.1,669.114 L 1105.1,663.542 L 1106.44,663.542 C 1106.83,663.542 1107.17,663.606 1107.47,663.735 C 1107.78,663.864 1108.03,664.048 1108.24,664.288 C 1108.45,664.528 1108.61,664.82 1108.72,665.165 C 1108.83,665.51 1108.88,665.899 1108.88,666.331 Z" marker-start="none" marker-end="none"/>
    <path d="M 1115.51,663.582 C 1115.78,663.582 1116.02,663.627 1116.23,663.716 C 1116.44,663.805 1116.63,663.933 1116.77,664.1 C 1116.92,664.266 1117.03,664.47 1117.11,664.709 C 1117.18,664.949 1117.22,665.222 1117.22,665.527 L 1117.22,670.66 L 1119.23,670.66 L 1119.23,665.527 C 1119.23,664.995 1119.15,664.508 1118.98,664.063 C 1118.8,663.619 1118.56,663.237 1118.23,662.915 C 1117.91,662.594 1117.52,662.344 1117.06,662.166 C 1116.6,661.987 1116.09,661.898 1115.51,661.898 C 1114.93,661.898 1114.41,661.987 1113.95,662.166 C 1113.49,662.344 1113.1,662.594 1112.78,662.915 C 1112.46,663.237 1112.21,663.619 1112.04,664.063 C 1111.87,664.508 1111.79,664.995 1111.79,665.527 L 1111.79,670.66 L 1113.8,670.66 L 1113.8,665.533 C 1113.8,665.228 1113.84,664.955 1113.91,664.715 C 1113.99,664.476 1114.1,664.271 1114.25,664.103 C 1114.4,663.934 1114.58,663.805 1114.79,663.716 C 1115,663.627 1115.24,663.582 1115.51,663.582 Z" marker-start="none" marker-end="none"/>
    <path d="M 1126.37,664.234 C 1126.41,664.234 1126.46,664.225 1126.51,664.207 C 1126.56,664.189 1126.6,664.158 1126.64,664.113 L 1127.44,663.257 C 1127.09,662.808 1126.66,662.469 1126.13,662.241 C 1125.61,662.012 1124.98,661.898 1124.27,661.898 C 1123.61,661.898 1123.02,662.01 1122.5,662.234 C 1121.98,662.458 1121.53,662.768 1121.17,663.162 C 1120.81,663.557 1120.53,664.025 1120.34,664.566 C 1120.14,665.107 1120.04,665.695 1120.04,666.329 C 1120.04,666.976 1120.15,667.57 1120.38,668.111 C 1120.6,668.652 1120.91,669.119 1121.31,669.512 C 1121.71,669.904 1122.18,670.209 1122.74,670.428 C 1123.29,670.646 1123.91,670.755 1124.58,670.755 C 1124.9,670.755 1125.21,670.726 1125.49,670.668 C 1125.78,670.611 1126.05,670.531 1126.3,670.43 C 1126.55,670.329 1126.78,670.208 1126.99,670.067 C 1127.2,669.926 1127.39,669.77 1127.55,669.599 L 1126.87,668.689 C 1126.83,668.634 1126.78,668.583 1126.72,668.538 C 1126.66,668.492 1126.57,668.469 1126.47,668.469 C 1126.4,668.469 1126.33,668.485 1126.26,668.517 C 1126.2,668.548 1126.13,668.587 1126.06,668.633 C 1125.99,668.678 1125.91,668.728 1125.83,668.781 C 1125.74,668.835 1125.64,668.884 1125.52,668.93 C 1125.41,668.976 1125.27,669.014 1125.11,669.046 C 1124.96,669.078 1124.77,669.094 1124.56,669.094 C 1124.2,669.094 1123.87,669.029 1123.56,668.9 C 1123.26,668.771 1123,668.587 1122.79,668.347 C 1122.57,668.107 1122.4,667.817 1122.28,667.476 C 1122.16,667.135 1122.1,666.752 1122.1,666.328 C 1122.1,665.884 1122.16,665.489 1122.28,665.144 C 1122.4,664.799 1122.57,664.509 1122.78,664.273 C 1122.98,664.037 1123.23,663.858 1123.5,663.735 C 1123.78,663.612 1124.08,663.55 1124.4,663.55 C 1124.58,663.55 1124.75,663.559 1124.9,663.577 C 1125.05,663.595 1125.19,663.626 1125.32,663.669 C 1125.44,663.713 1125.57,663.769 1125.68,663.839 C 1125.8,663.908 1125.92,663.994 1126.04,664.098 C 1126.09,664.137 1126.14,664.17 1126.19,664.196 C 1126.25,664.222 1126.31,664.234 1126.37,664.234 Z" marker-start="none" marker-end="none"/>
    <path d="M 1133.94,670.662 L 1133.94,669.114 L 1130.38,669.114 L 1130.38,667.09 L 1133.11,667.09 L 1133.11,665.603 L 1130.38,665.603 L 1130.38,663.542 L 1133.94,663.542 L 1133.94,661.994 L 1128.36,661.994 L 1128.36,670.662 L 1133.94,670.662 Z" marker-start="none" marker-end="none"/>
   </g>
   <g id="Group_9">
    <path d="M 1076.39,656.394 L 1076.39,654.846 L 1072.83,654.846 L 1072.83,652.822 L 1075.55,652.822 L 1075.55,651.335 L 1072.83,651.335 L 1072.83,649.274 L 1076.39,649.274 L 1076.39,647.726 L 1070.81,647.726 L 1070.81,656.394 L 1076.39,656.394 Z" marker-start="none" marker-end="none"/>
    <path d="M 1081.96,651.661 C 1082.04,651.509 1082.11,651.352 1082.19,651.188 C 1082.26,651.024 1082.33,650.857 1082.4,650.685 C 1082.46,650.861 1082.54,651.031 1082.61,651.197 C 1082.69,651.363 1082.76,651.523 1082.84,651.679 L 1085.07,656.086 C 1085.11,656.162 1085.15,656.22 1085.19,656.262 C 1085.23,656.304 1085.28,656.335 1085.33,656.355 C 1085.38,656.375 1085.44,656.385 1085.51,656.385 C 1085.57,656.385 1085.65,656.385 1085.73,656.385 L 1087.27,656.385 L 1087.27,647.726 L 1085.5,647.726 L 1085.5,652.645 C 1085.5,652.883 1085.51,653.141 1085.53,653.419 L 1083.24,649.034 C 1083.17,648.897 1083.07,648.794 1082.95,648.723 C 1082.83,648.653 1082.69,648.618 1082.53,648.618 L 1082.26,648.618 C 1082.11,648.618 1081.97,648.653 1081.85,648.723 C 1081.73,648.794 1081.63,648.897 1081.56,649.034 L 1079.25,653.425 C 1079.27,653.288 1079.28,653.152 1079.29,653.017 C 1079.3,652.882 1079.3,652.758 1079.3,652.645 L 1079.3,647.726 L 1077.53,647.726 L 1077.53,656.385 L 1079.06,656.385 C 1079.15,656.385 1079.22,656.385 1079.29,656.385 C 1079.36,656.385 1079.41,656.375 1079.47,656.355 C 1079.52,656.335 1079.56,656.304 1079.61,656.262 C 1079.65,656.22 1079.69,656.162 1079.73,656.086 L 1081.96,651.661 Z" marker-start="none" marker-end="none"/>
    <path d="M 1090.9,647.726 L 1088.87,647.726 L 1088.87,656.394 L 1090.9,656.394 L 1090.9,647.726 Z" marker-start="none" marker-end="none"/>
    <path d="M 1097.33,654.631 C 1097.27,654.535 1097.21,654.464 1097.14,654.416 C 1097.08,654.369 1096.99,654.345 1096.89,654.345 C 1096.8,654.345 1096.7,654.374 1096.59,654.431 C 1096.49,654.489 1096.37,654.553 1096.24,654.625 C 1096.1,654.696 1095.95,654.76 1095.78,654.818 C 1095.61,654.875 1095.42,654.904 1095.2,654.904 C 1094.82,654.904 1094.54,654.824 1094.36,654.663 C 1094.17,654.503 1094.08,654.286 1094.08,654.012 C 1094.08,653.837 1094.14,653.693 1094.25,653.578 C 1094.36,653.463 1094.5,653.364 1094.68,653.28 C 1094.87,653.197 1095.07,653.121 1095.3,653.051 C 1095.54,652.982 1095.77,652.905 1096.01,652.82 C 1096.26,652.734 1096.49,652.634 1096.72,652.519 C 1096.96,652.404 1097.16,652.257 1097.34,652.079 C 1097.52,651.901 1097.67,651.683 1097.78,651.428 C 1097.89,651.172 1097.95,650.864 1097.95,650.503 C 1097.95,650.102 1097.88,649.728 1097.74,649.379 C 1097.6,649.03 1097.4,648.726 1097.14,648.466 C 1096.87,648.206 1096.55,648.002 1096.16,647.853 C 1095.77,647.705 1095.33,647.63 1094.84,647.63 C 1094.57,647.63 1094.3,647.658 1094.02,647.713 C 1093.74,647.769 1093.47,647.847 1093.21,647.948 C 1092.94,648.05 1092.7,648.17 1092.47,648.308 C 1092.24,648.447 1092.04,648.602 1091.87,648.772 L 1092.46,649.712 C 1092.51,649.783 1092.57,649.841 1092.65,649.885 C 1092.73,649.928 1092.81,649.95 1092.9,649.95 C 1093.02,649.95 1093.14,649.912 1093.26,649.837 C 1093.38,649.762 1093.52,649.678 1093.67,649.587 C 1093.83,649.496 1094,649.413 1094.2,649.337 C 1094.4,649.262 1094.63,649.224 1094.9,649.224 C 1095.27,649.224 1095.55,649.305 1095.75,649.465 C 1095.95,649.626 1096.06,649.881 1096.06,650.229 C 1096.06,650.432 1096,650.596 1095.89,650.723 C 1095.78,650.85 1095.63,650.955 1095.45,651.038 C 1095.27,651.122 1095.07,651.195 1094.84,651.258 C 1094.61,651.322 1094.37,651.392 1094.13,651.47 C 1093.89,651.547 1093.65,651.642 1093.42,651.755 C 1093.19,651.868 1092.99,652.017 1092.81,652.201 C 1092.63,652.386 1092.48,652.616 1092.37,652.891 C 1092.26,653.167 1092.2,653.507 1092.2,653.911 C 1092.2,654.236 1092.27,654.554 1092.4,654.863 C 1092.53,655.172 1092.72,655.448 1092.98,655.69 C 1093.23,655.931 1093.54,656.125 1093.91,656.27 C 1094.28,656.414 1094.7,656.487 1095.18,656.487 C 1095.44,656.487 1095.7,656.466 1095.95,656.424 C 1096.2,656.383 1096.44,656.321 1096.67,656.24 C 1096.89,656.158 1097.11,656.061 1097.3,655.948 C 1097.5,655.835 1097.67,655.707 1097.83,655.564 L 1097.33,654.631 Z" marker-start="none" marker-end="none"/>
    <path d="M 1103.77,654.631 C 1103.71,654.535 1103.65,654.464 1103.59,654.416 C 1103.52,654.369 1103.44,654.345 1103.33,654.345 C 1103.24,654.345 1103.14,654.374 1103.04,654.431 C 1102.93,654.489 1102.82,654.553 1102.68,654.625 C 1102.55,654.696 1102.4,654.76 1102.23,654.818 C 1102.06,654.875 1101.86,654.904 1101.65,654.904 C 1101.27,654.904 1100.99,654.824 1100.8,654.663 C 1100.62,654.503 1100.53,654.286 1100.53,654.012 C 1100.53,653.837 1100.58,653.693 1100.69,653.578 C 1100.8,653.463 1100.95,653.364 1101.13,653.28 C 1101.31,653.197 1101.52,653.121 1101.75,653.051 C 1101.98,652.982 1102.22,652.905 1102.46,652.82 C 1102.7,652.734 1102.94,652.634 1103.17,652.519 C 1103.4,652.404 1103.61,652.257 1103.79,652.079 C 1103.97,651.901 1104.12,651.683 1104.23,651.428 C 1104.34,651.172 1104.39,650.864 1104.39,650.503 C 1104.39,650.102 1104.32,649.728 1104.18,649.379 C 1104.05,649.03 1103.84,648.726 1103.58,648.466 C 1103.32,648.206 1102.99,648.002 1102.61,647.853 C 1102.22,647.705 1101.78,647.63 1101.29,647.63 C 1101.02,647.63 1100.74,647.658 1100.46,647.713 C 1100.18,647.769 1099.91,647.847 1099.65,647.948 C 1099.39,648.05 1099.15,648.17 1098.92,648.308 C 1098.68,648.447 1098.49,648.602 1098.32,648.772 L 1098.91,649.712 C 1098.95,649.783 1099.01,649.841 1099.09,649.885 C 1099.17,649.928 1099.26,649.95 1099.35,649.95 C 1099.47,649.95 1099.59,649.912 1099.71,649.837 C 1099.83,649.762 1099.97,649.678 1100.12,649.587 C 1100.27,649.496 1100.45,649.413 1100.65,649.337 C 1100.84,649.262 1101.08,649.224 1101.35,649.224 C 1101.71,649.224 1102,649.305 1102.2,649.465 C 1102.4,649.626 1102.5,649.881 1102.5,650.229 C 1102.5,650.432 1102.45,650.596 1102.34,650.723 C 1102.22,650.85 1102.08,650.955 1101.9,651.038 C 1101.72,651.122 1101.51,651.195 1101.28,651.258 C 1101.05,651.322 1100.82,651.392 1100.57,651.47 C 1100.33,651.547 1100.1,651.642 1099.87,651.755 C 1099.64,651.868 1099.43,652.017 1099.25,652.201 C 1099.07,652.386 1098.93,652.616 1098.81,652.891 C 1098.7,653.167 1098.65,653.507 1098.65,653.911 C 1098.65,654.236 1098.71,654.554 1098.84,654.863 C 1098.98,655.172 1099.17,655.448 1099.42,655.69 C 1099.67,655.931 1099.99,656.125 1100.35,656.27 C 1100.72,656.414 1101.15,656.487 1101.62,656.487 C 1101.89,656.487 1102.15,656.466 1102.4,656.424 C 1102.65,656.383 1102.89,656.321 1103.11,656.24 C 1103.34,656.158 1103.55,656.061 1103.75,655.948 C 1103.94,655.835 1104.12,655.707 1104.27,655.564 L 1103.77,654.631 Z" marker-start="none" marker-end="none"/>
    <path d="M 1107.59,647.726 L 1105.57,647.726 L 1105.57,656.394 L 1107.59,656.394 L 1107.59,647.726 Z" marker-start="none" marker-end="none"/>
    <path d="M 1117.75,652.061 C 1117.75,651.435 1117.64,650.852 1117.42,650.313 C 1117.21,649.774 1116.9,649.305 1116.51,648.906 C 1116.12,648.508 1115.64,648.195 1115.09,647.969 C 1114.54,647.743 1113.93,647.63 1113.25,647.63 C 1112.58,647.63 1111.96,647.743 1111.41,647.969 C 1110.85,648.195 1110.38,648.508 1109.98,648.906 C 1109.59,649.305 1109.28,649.774 1109.07,650.313 C 1108.85,650.852 1108.74,651.435 1108.74,652.061 C 1108.74,652.688 1108.85,653.271 1109.07,653.81 C 1109.28,654.349 1109.59,654.817 1109.98,655.214 C 1110.38,655.61 1110.85,655.922 1111.41,656.148 C 1111.96,656.374 1112.58,656.487 1113.25,656.487 C 1113.93,656.487 1114.54,656.373 1115.09,656.145 C 1115.64,655.917 1116.12,655.604 1116.51,655.208 C 1116.9,654.811 1117.21,654.343 1117.42,653.804 C 1117.64,653.265 1117.75,652.684 1117.75,652.061 Z M 1115.69,652.061 C 1115.69,652.489 1115.63,652.875 1115.52,653.218 C 1115.41,653.56 1115.25,653.851 1115.04,654.089 C 1114.84,654.326 1114.58,654.509 1114.28,654.635 C 1113.98,654.762 1113.64,654.826 1113.25,654.826 C 1112.86,654.826 1112.52,654.762 1112.21,654.635 C 1111.91,654.509 1111.65,654.326 1111.45,654.089 C 1111.24,653.851 1111.08,653.56 1110.97,653.218 C 1110.86,652.875 1110.8,652.489 1110.8,652.061 C 1110.8,651.629 1110.86,651.242 1110.97,650.899 C 1111.08,650.556 1111.24,650.266 1111.45,650.028 C 1111.65,649.79 1111.91,649.609 1112.21,649.484 C 1112.52,649.359 1112.86,649.297 1113.25,649.297 C 1113.64,649.297 1113.98,649.359 1114.28,649.484 C 1114.58,649.609 1114.84,649.79 1115.04,650.028 C 1115.25,650.266 1115.41,650.556 1115.52,650.899 C 1115.63,651.242 1115.69,651.629 1115.69,652.061 Z" marker-start="none" marker-end="none"/>
    <path d="M 1119.77,656.394 C 1119.85,656.394 1119.93,656.39 1119.99,656.382 C 1120.05,656.374 1120.1,656.359 1120.15,656.337 C 1120.19,656.315 1120.24,656.285 1120.28,656.245 C 1120.33,656.205 1120.38,656.152 1120.43,656.085 L 1124.55,650.881 C 1124.53,651.047 1124.52,651.209 1124.51,651.366 C 1124.5,651.522 1124.5,651.67 1124.5,651.809 L 1124.5,656.394 L 1126.27,656.394 L 1126.27,647.726 L 1125.23,647.726 C 1125.07,647.726 1124.94,647.75 1124.83,647.797 C 1124.73,647.845 1124.62,647.932 1124.52,648.059 L 1120.44,653.221 C 1120.45,653.07 1120.46,652.923 1120.47,652.778 C 1120.48,652.633 1120.48,652.497 1120.48,652.371 L 1120.48,647.726 L 1118.71,647.726 L 1118.71,656.394 L 1119.77,656.394 Z" marker-start="none" marker-end="none"/>
    <path d="M 1132.53,654.631 C 1132.47,654.535 1132.41,654.464 1132.34,654.416 C 1132.27,654.369 1132.19,654.345 1132.09,654.345 C 1132,654.345 1131.9,654.374 1131.79,654.431 C 1131.69,654.489 1131.57,654.553 1131.44,654.625 C 1131.3,654.696 1131.15,654.76 1130.98,654.818 C 1130.81,654.875 1130.62,654.904 1130.4,654.904 C 1130.02,654.904 1129.74,654.824 1129.56,654.663 C 1129.37,654.503 1129.28,654.286 1129.28,654.012 C 1129.28,653.837 1129.34,653.693 1129.45,653.578 C 1129.56,653.463 1129.7,653.364 1129.88,653.28 C 1130.06,653.197 1130.27,653.121 1130.5,653.051 C 1130.73,652.982 1130.97,652.905 1131.21,652.82 C 1131.45,652.734 1131.69,652.634 1131.92,652.519 C 1132.16,652.404 1132.36,652.257 1132.54,652.079 C 1132.72,651.901 1132.87,651.683 1132.98,651.428 C 1133.09,651.172 1133.15,650.864 1133.15,650.503 C 1133.15,650.102 1133.08,649.728 1132.94,649.379 C 1132.8,649.03 1132.6,648.726 1132.33,648.466 C 1132.07,648.206 1131.75,648.002 1131.36,647.853 C 1130.97,647.705 1130.53,647.63 1130.04,647.63 C 1129.77,647.63 1129.5,647.658 1129.22,647.713 C 1128.94,647.769 1128.67,647.847 1128.41,647.948 C 1128.14,648.05 1127.9,648.17 1127.67,648.308 C 1127.44,648.447 1127.24,648.602 1127.07,648.772 L 1127.66,649.712 C 1127.71,649.783 1127.77,649.841 1127.85,649.885 C 1127.93,649.928 1128.01,649.95 1128.1,649.95 C 1128.22,649.95 1128.34,649.912 1128.46,649.837 C 1128.58,649.762 1128.72,649.678 1128.87,649.587 C 1129.03,649.496 1129.2,649.413 1129.4,649.337 C 1129.6,649.262 1129.83,649.224 1130.1,649.224 C 1130.46,649.224 1130.75,649.305 1130.95,649.465 C 1131.15,649.626 1131.25,649.881 1131.25,650.229 C 1131.25,650.432 1131.2,650.596 1131.09,650.723 C 1130.98,650.85 1130.83,650.955 1130.65,651.038 C 1130.47,651.122 1130.27,651.195 1130.04,651.258 C 1129.81,651.322 1129.57,651.392 1129.33,651.47 C 1129.09,651.547 1128.85,651.642 1128.62,651.755 C 1128.39,651.868 1128.18,652.017 1128,652.201 C 1127.82,652.386 1127.68,652.616 1127.57,652.891 C 1127.46,653.167 1127.4,653.507 1127.4,653.911 C 1127.4,654.236 1127.47,654.554 1127.6,654.863 C 1127.73,655.172 1127.92,655.448 1128.17,655.69 C 1128.43,655.931 1128.74,656.125 1129.11,656.27 C 1129.48,656.414 1129.9,656.487 1130.37,656.487 C 1130.64,656.487 1130.9,656.466 1131.15,656.424 C 1131.4,656.383 1131.64,656.321 1131.87,656.24 C 1132.09,656.158 1132.3,656.061 1132.5,655.948 C 1132.7,655.835 1132.87,655.707 1133.03,655.564 L 1132.53,654.631 Z" marker-start="none" marker-end="none"/>
   </g>
  </g>
 </g>
</svg>
