<?xml version="1.0" standalone="no"?>
<!DOCTYPE svg PUBLIC "-//W3C//DTD SVG 1.1//EN" "http://www.w3.org/Graphics/SVG/1.1/DTD/svg11.dtd">
<!--Generator: Xara Designer (www.xara.com), SVG filter version: 6.6.0.0-->
<svg fill="none" fill-rule="evenodd" stroke="black" stroke-width="0.501" stroke-linejoin="bevel" stroke-miterlimit="10" font-family="Times New Roman" font-size="16" style="font-variant-ligatures:none" xmlns:xlink="http://www.w3.org/1999/xlink" xmlns="http://www.w3.org/2000/svg" version="1.1" overflow="visible" width="107.718pt" height="107.72pt" viewBox="1047.75 -612.47 107.718 107.72">
 <defs>
	</defs>
 <g id="Grid 36x36mm" transform="scale(1 -1)">
  <g id="Group" stroke-linejoin="miter" stroke="none">
   <path d="M 1047.75,519.964 L 1047.75,597.256 C 1047.75,605.654 1054.57,612.47 1062.96,612.47 L 1101.61,612.468 L 1101.6,612.468 L 1101.61,558.61 L 1101.62,612.468 L 1101.61,612.468 L 1140.26,612.47 C 1148.65,612.47 1155.47,605.654 1155.47,597.256 L 1155.47,519.964 C 1155.47,511.566 1148.65,504.75 1140.26,504.75 L 1101.61,504.752 L 1101.62,504.752 L 1101.61,558.61 L 1101.6,504.752 L 1101.61,504.752 L 1062.96,504.75 C 1054.57,504.75 1047.75,511.566 1047.75,519.964 Z" fill="#ffffff" stroke-width="0.802" marker-start="none" marker-end="none"/>
   <path d="M 1048.6,520.692 L 1048.6,596.528 C 1048.6,604.859 1055.36,611.621 1063.69,611.621 L 1139.53,611.621 C 1147.86,611.621 1154.62,604.859 1154.62,596.528 L 1154.62,520.692 C 1154.62,512.361 1147.86,505.599 1139.53,505.599 L 1063.69,505.599 C 1055.36,505.599 1048.6,512.361 1048.6,520.692 Z" fill="#e5e5e5" stroke-width="0.801" marker-start="none" marker-end="none"/>
  </g>
  <g id="Group_1" fill-rule="nonzero" stroke-linejoin="round" stroke-linecap="round" stroke="none" stroke-width="0.297" fill="#b2b2b2">
   <g id="Group_2">
    <path d="M 1076.43,571.444 L 1076.43,568.547 L 1074.42,568.547 L 1074.42,577.214 L 1077.48,577.214 C 1078.09,577.214 1078.61,577.141 1079.05,576.997 C 1079.49,576.852 1079.85,576.653 1080.13,576.399 C 1080.41,576.145 1080.62,575.845 1080.76,575.501 C 1080.89,575.155 1080.96,574.783 1080.96,574.382 C 1080.96,573.95 1080.89,573.553 1080.75,573.193 C 1080.61,572.832 1080.4,572.522 1080.12,572.265 C 1079.83,572.007 1079.47,571.806 1079.03,571.661 C 1078.59,571.516 1078.07,571.444 1077.48,571.444 L 1076.43,571.444 Z M 1076.43,572.96 L 1077.48,572.96 C 1078,572.96 1078.38,573.085 1078.61,573.335 C 1078.84,573.585 1078.95,573.934 1078.95,574.382 C 1078.95,574.581 1078.92,574.761 1078.86,574.924 C 1078.8,575.087 1078.71,575.226 1078.59,575.343 C 1078.47,575.46 1078.32,575.551 1078.13,575.614 C 1077.95,575.678 1077.73,575.71 1077.48,575.71 L 1076.43,575.71 L 1076.43,572.96 Z" marker-start="none" marker-end="none"/>
    <path d="M 1084.02,570.152 L 1087.23,570.152 L 1087.23,568.546 L 1082.01,568.546 L 1082.01,577.212 L 1084.02,577.212 L 1084.02,570.152 Z" marker-start="none" marker-end="none"/>
    <path d="M 1096.25,568.546 L 1094.69,568.546 C 1094.51,568.546 1094.37,568.587 1094.26,568.668 C 1094.15,568.749 1094.07,568.853 1094.02,568.98 L 1093.51,570.491 L 1090.22,570.491 L 1089.7,568.98 C 1089.67,568.869 1089.59,568.769 1089.47,568.68 C 1089.36,568.591 1089.22,568.546 1089.05,568.546 L 1087.48,568.546 L 1090.84,577.212 L 1092.89,577.212 L 1096.25,568.546 Z M 1090.68,571.86 L 1093.05,571.86 L 1092.25,574.196 C 1092.2,574.344 1092.14,574.519 1092.07,574.72 C 1092,574.921 1091.93,575.138 1091.86,575.373 C 1091.8,575.135 1091.74,574.914 1091.67,574.711 C 1091.6,574.508 1091.54,574.332 1091.48,574.184 L 1090.68,571.86 Z" marker-start="none" marker-end="none"/>
    <path d="M 1100.08,571.79 L 1100.08,568.546 L 1098.07,568.546 L 1098.07,571.79 L 1094.93,577.212 L 1096.7,577.212 C 1096.87,577.212 1097.01,577.171 1097.11,577.088 C 1097.22,577.005 1097.3,576.899 1097.36,576.77 L 1098.59,574.203 C 1098.69,573.997 1098.78,573.807 1098.86,573.634 C 1098.94,573.46 1099.02,573.288 1099.08,573.119 C 1099.14,573.292 1099.21,573.466 1099.3,573.64 C 1099.38,573.813 1099.47,574.001 1099.56,574.203 L 1100.78,576.77 C 1100.8,576.823 1100.83,576.875 1100.88,576.928 C 1100.92,576.98 1100.96,577.028 1101.02,577.07 C 1101.07,577.112 1101.13,577.147 1101.2,577.173 C 1101.27,577.199 1101.35,577.212 1101.43,577.212 L 1103.21,577.212 L 1100.08,571.79 Z" marker-start="none" marker-end="none"/>
    <path d="M 1110.19,569.998 C 1110.46,569.998 1110.71,570.021 1110.92,570.068 C 1111.14,570.115 1111.34,570.177 1111.53,570.256 L 1111.53,571.572 L 1110.67,571.572 C 1110.55,571.572 1110.45,571.606 1110.38,571.673 C 1110.31,571.74 1110.27,571.826 1110.27,571.929 L 1110.27,573.035 L 1113.35,573.035 L 1113.35,569.378 C 1113.13,569.216 1112.9,569.076 1112.66,568.959 C 1112.42,568.842 1112.16,568.746 1111.89,568.67 C 1111.62,568.595 1111.33,568.539 1111.02,568.504 C 1110.71,568.468 1110.39,568.45 1110.03,568.45 C 1109.4,568.45 1108.81,568.562 1108.27,568.786 C 1107.73,569.01 1107.27,569.32 1106.87,569.714 C 1106.48,570.109 1106.17,570.577 1105.94,571.118 C 1105.72,571.659 1105.61,572.247 1105.61,572.881 C 1105.61,573.528 1105.71,574.122 1105.93,574.663 C 1106.14,575.204 1106.45,575.671 1106.85,576.064 C 1107.25,576.456 1107.73,576.761 1108.29,576.98 C 1108.86,577.198 1109.49,577.307 1110.19,577.307 C 1110.55,577.307 1110.89,577.277 1111.2,577.217 C 1111.52,577.158 1111.81,577.076 1112.08,576.973 C 1112.35,576.87 1112.59,576.747 1112.82,576.604 C 1113.04,576.461 1113.24,576.306 1113.41,576.139 L 1112.83,575.253 C 1112.77,575.17 1112.7,575.105 1112.63,575.057 C 1112.55,575.009 1112.47,574.986 1112.38,574.986 C 1112.26,574.986 1112.13,575.025 1112.01,575.105 C 1111.85,575.2 1111.7,575.282 1111.56,575.351 C 1111.42,575.421 1111.27,575.477 1111.13,575.521 C 1110.98,575.564 1110.83,575.596 1110.66,575.616 C 1110.5,575.636 1110.32,575.646 1110.12,575.646 C 1109.74,575.646 1109.4,575.579 1109.1,575.447 C 1108.8,575.314 1108.54,575.127 1108.33,574.885 C 1108.12,574.643 1107.95,574.353 1107.84,574.014 C 1107.72,573.675 1107.67,573.297 1107.67,572.881 C 1107.67,572.422 1107.73,572.013 1107.86,571.657 C 1107.98,571.3 1108.16,570.999 1108.38,570.753 C 1108.61,570.507 1108.87,570.32 1109.18,570.191 C 1109.49,570.062 1109.82,569.998 1110.19,569.998 Z" marker-start="none" marker-end="none"/>
    <path d="M 1119.4,575.451 C 1119.34,575.355 1119.28,575.284 1119.22,575.236 C 1119.15,575.189 1119.07,575.165 1118.96,575.165 C 1118.87,575.165 1118.77,575.194 1118.67,575.251 C 1118.56,575.309 1118.44,575.373 1118.31,575.445 C 1118.18,575.516 1118.03,575.58 1117.86,575.638 C 1117.69,575.695 1117.49,575.724 1117.28,575.724 C 1116.9,575.724 1116.62,575.644 1116.43,575.483 C 1116.25,575.323 1116.16,575.106 1116.16,574.832 C 1116.16,574.657 1116.21,574.513 1116.32,574.398 C 1116.43,574.283 1116.58,574.184 1116.76,574.1 C 1116.94,574.017 1117.15,573.941 1117.38,573.871 C 1117.61,573.802 1117.85,573.725 1118.09,573.64 C 1118.33,573.554 1118.57,573.454 1118.8,573.339 C 1119.03,573.224 1119.24,573.077 1119.42,572.899 C 1119.6,572.721 1119.75,572.503 1119.86,572.248 C 1119.97,571.992 1120.02,571.684 1120.02,571.323 C 1120.02,570.922 1119.95,570.548 1119.81,570.199 C 1119.68,569.85 1119.47,569.546 1119.21,569.286 C 1118.95,569.026 1118.62,568.822 1118.24,568.673 C 1117.85,568.525 1117.41,568.45 1116.92,568.45 C 1116.65,568.45 1116.37,568.478 1116.09,568.533 C 1115.82,568.589 1115.54,568.667 1115.28,568.768 C 1115.02,568.87 1114.78,568.99 1114.55,569.128 C 1114.32,569.267 1114.12,569.422 1113.94,569.592 L 1114.54,570.532 C 1114.58,570.603 1114.64,570.661 1114.72,570.705 C 1114.8,570.748 1114.89,570.77 1114.98,570.77 C 1115.1,570.77 1115.22,570.732 1115.34,570.657 C 1115.46,570.582 1115.6,570.498 1115.75,570.407 C 1115.9,570.316 1116.08,570.233 1116.28,570.157 C 1116.47,570.082 1116.71,570.044 1116.98,570.044 C 1117.34,570.044 1117.63,570.125 1117.83,570.285 C 1118.03,570.446 1118.13,570.701 1118.13,571.049 C 1118.13,571.252 1118.08,571.416 1117.96,571.543 C 1117.85,571.67 1117.71,571.775 1117.53,571.858 C 1117.35,571.942 1117.14,572.015 1116.91,572.078 C 1116.68,572.142 1116.45,572.212 1116.2,572.29 C 1115.96,572.367 1115.73,572.462 1115.5,572.575 C 1115.27,572.688 1115.06,572.837 1114.88,573.021 C 1114.7,573.206 1114.56,573.436 1114.44,573.711 C 1114.33,573.987 1114.28,574.327 1114.28,574.731 C 1114.28,575.056 1114.34,575.374 1114.47,575.683 C 1114.61,575.992 1114.8,576.268 1115.05,576.51 C 1115.3,576.751 1115.62,576.945 1115.98,577.09 C 1116.35,577.234 1116.78,577.307 1117.25,577.307 C 1117.52,577.307 1117.78,577.286 1118.03,577.244 C 1118.28,577.203 1118.52,577.141 1118.74,577.06 C 1118.97,576.978 1119.18,576.881 1119.38,576.768 C 1119.57,576.655 1119.75,576.527 1119.9,576.384 L 1119.4,575.451 Z" marker-start="none" marker-end="none"/>
    <path d="M 1129.57,572.881 C 1129.57,572.255 1129.46,571.672 1129.25,571.133 C 1129.03,570.594 1128.73,570.125 1128.34,569.726 C 1127.94,569.328 1127.47,569.015 1126.92,568.789 C 1126.36,568.563 1125.75,568.45 1125.08,568.45 C 1124.4,568.45 1123.79,568.563 1123.23,568.789 C 1122.68,569.015 1122.2,569.328 1121.81,569.726 C 1121.41,570.125 1121.11,570.594 1120.89,571.133 C 1120.68,571.672 1120.57,572.255 1120.57,572.881 C 1120.57,573.508 1120.68,574.091 1120.89,574.63 C 1121.11,575.169 1121.41,575.637 1121.81,576.034 C 1122.2,576.43 1122.68,576.742 1123.23,576.968 C 1123.79,577.194 1124.4,577.307 1125.08,577.307 C 1125.75,577.307 1126.36,577.193 1126.92,576.965 C 1127.47,576.737 1127.94,576.424 1128.34,576.028 C 1128.73,575.631 1129.03,575.163 1129.25,574.624 C 1129.46,574.085 1129.57,573.504 1129.57,572.881 Z M 1127.52,572.881 C 1127.52,573.309 1127.46,573.695 1127.35,574.038 C 1127.24,574.38 1127.08,574.671 1126.87,574.909 C 1126.66,575.146 1126.41,575.329 1126.11,575.455 C 1125.8,575.582 1125.46,575.646 1125.08,575.646 C 1124.69,575.646 1124.34,575.582 1124.04,575.455 C 1123.74,575.329 1123.48,575.146 1123.27,574.909 C 1123.06,574.671 1122.9,574.38 1122.79,574.038 C 1122.68,573.695 1122.63,573.309 1122.63,572.881 C 1122.63,572.449 1122.68,572.062 1122.79,571.719 C 1122.9,571.376 1123.06,571.086 1123.27,570.848 C 1123.48,570.61 1123.74,570.429 1124.04,570.304 C 1124.34,570.179 1124.69,570.117 1125.08,570.117 C 1125.46,570.117 1125.8,570.179 1126.11,570.304 C 1126.41,570.429 1126.66,570.61 1126.87,570.848 C 1127.08,571.086 1127.24,571.376 1127.35,571.719 C 1127.46,572.062 1127.52,572.449 1127.52,572.881 Z" marker-start="none" marker-end="none"/>
   </g>
   <g id="Group_3">
    <path d="M 1076.17,562.946 L 1076.17,561.352 L 1073.73,561.352 L 1073.73,554.279 L 1071.72,554.279 L 1071.72,561.352 L 1069.28,561.352 L 1069.28,562.946 L 1076.17,562.946 Z" marker-start="none" marker-end="none"/>
    <path d="M 1085.19,558.613 C 1085.19,557.987 1085.09,557.404 1084.87,556.865 C 1084.65,556.326 1084.35,555.857 1083.96,555.458 C 1083.57,555.06 1083.09,554.747 1082.54,554.521 C 1081.99,554.295 1081.37,554.182 1080.7,554.182 C 1080.03,554.182 1079.41,554.295 1078.86,554.521 C 1078.3,554.747 1077.83,555.06 1077.43,555.458 C 1077.04,555.857 1076.73,556.326 1076.52,556.865 C 1076.3,557.404 1076.19,557.987 1076.19,558.613 C 1076.19,559.24 1076.3,559.823 1076.52,560.362 C 1076.73,560.901 1077.04,561.369 1077.43,561.766 C 1077.83,562.162 1078.3,562.474 1078.86,562.7 C 1079.41,562.926 1080.03,563.039 1080.7,563.039 C 1081.37,563.039 1081.99,562.925 1082.54,562.697 C 1083.09,562.469 1083.57,562.156 1083.96,561.76 C 1084.35,561.363 1084.65,560.895 1084.87,560.356 C 1085.09,559.817 1085.19,559.236 1085.19,558.613 Z M 1083.14,558.613 C 1083.14,559.041 1083.08,559.427 1082.97,559.77 C 1082.86,560.112 1082.7,560.403 1082.49,560.641 C 1082.28,560.878 1082.03,561.061 1081.73,561.187 C 1081.43,561.314 1081.08,561.378 1080.7,561.378 C 1080.31,561.378 1079.96,561.314 1079.66,561.187 C 1079.36,561.061 1079.1,560.878 1078.89,560.641 C 1078.69,560.403 1078.53,560.112 1078.42,559.77 C 1078.3,559.427 1078.25,559.041 1078.25,558.613 C 1078.25,558.181 1078.3,557.794 1078.42,557.451 C 1078.53,557.108 1078.69,556.818 1078.89,556.58 C 1079.1,556.342 1079.36,556.161 1079.66,556.036 C 1079.96,555.911 1080.31,555.849 1080.7,555.849 C 1081.08,555.849 1081.43,555.911 1081.73,556.036 C 1082.03,556.161 1082.28,556.342 1082.49,556.58 C 1082.7,556.818 1082.86,557.108 1082.97,557.451 C 1083.08,557.794 1083.14,558.181 1083.14,558.613 Z" marker-start="none" marker-end="none"/>
    <path d="M 1090.46,557.484 L 1090.46,554.278 L 1088.45,554.278 L 1088.45,562.943 L 1091.27,562.943 C 1091.9,562.943 1092.43,562.878 1092.87,562.749 C 1093.31,562.62 1093.67,562.441 1093.95,562.211 C 1094.23,561.98 1094.44,561.708 1094.56,561.395 C 1094.69,561.081 1094.75,560.74 1094.75,560.37 C 1094.75,560.089 1094.72,559.823 1094.64,559.573 C 1094.57,559.323 1094.45,559.091 1094.31,558.879 C 1094.16,558.666 1093.97,558.477 1093.76,558.31 C 1093.54,558.144 1093.29,558.007 1093.01,557.899 C 1093.15,557.832 1093.27,557.749 1093.39,557.65 C 1093.51,557.551 1093.61,557.431 1093.69,557.288 L 1095.54,554.278 L 1093.72,554.278 C 1093.38,554.278 1093.14,554.405 1092.99,554.659 L 1091.55,557.174 C 1091.49,557.285 1091.42,557.365 1091.33,557.412 C 1091.25,557.46 1091.13,557.484 1090.97,557.484 L 1090.46,557.484 Z M 1090.46,558.869 L 1091.27,558.869 C 1091.54,558.869 1091.78,558.904 1091.97,558.973 C 1092.16,559.042 1092.32,559.139 1092.44,559.262 C 1092.56,559.384 1092.65,559.528 1092.71,559.693 C 1092.76,559.857 1092.79,560.035 1092.79,560.225 C 1092.79,560.606 1092.67,560.903 1092.42,561.117 C 1092.17,561.332 1091.79,561.439 1091.27,561.439 L 1090.46,561.439 L 1090.46,558.869 Z" marker-start="none" marker-end="none"/>
    <path d="M 1101.94,562.946 L 1101.94,561.398 L 1098.38,561.398 L 1098.38,559.374 L 1101.11,559.374 L 1101.11,557.887 L 1098.38,557.887 L 1098.38,555.826 L 1101.94,555.826 L 1101.94,554.278 L 1096.36,554.278 L 1096.36,562.946 L 1101.94,562.946 Z" marker-start="none" marker-end="none"/>
    <path d="M 1110.94,558.615 C 1110.94,557.988 1110.83,557.41 1110.62,556.881 C 1110.4,556.351 1110.1,555.893 1109.7,555.507 C 1109.31,555.12 1108.84,554.818 1108.29,554.602 C 1107.73,554.386 1107.12,554.278 1106.44,554.278 L 1103.08,554.278 L 1103.08,562.946 L 1106.44,562.946 C 1107.12,562.946 1107.73,562.837 1108.29,562.619 C 1108.84,562.4 1109.31,562.099 1109.7,561.714 C 1110.1,561.33 1110.4,560.872 1110.62,560.343 C 1110.83,559.814 1110.94,559.238 1110.94,558.615 Z M 1108.88,558.615 C 1108.88,559.043 1108.83,559.43 1108.72,559.774 C 1108.61,560.119 1108.45,560.412 1108.24,560.652 C 1108.03,560.891 1107.78,561.076 1107.47,561.205 C 1107.17,561.334 1106.83,561.398 1106.44,561.398 L 1105.1,561.398 L 1105.1,555.826 L 1106.44,555.826 C 1106.83,555.826 1107.17,555.89 1107.47,556.019 C 1107.78,556.148 1108.03,556.332 1108.24,556.572 C 1108.45,556.812 1108.61,557.104 1108.72,557.449 C 1108.83,557.794 1108.88,558.183 1108.88,558.615 Z" marker-start="none" marker-end="none"/>
    <path d="M 1115.51,555.866 C 1115.78,555.866 1116.02,555.911 1116.23,556 C 1116.44,556.089 1116.63,556.217 1116.77,556.384 C 1116.92,556.55 1117.03,556.754 1117.11,556.993 C 1117.18,557.233 1117.22,557.506 1117.22,557.811 L 1117.22,562.944 L 1119.23,562.944 L 1119.23,557.811 C 1119.23,557.279 1119.15,556.792 1118.98,556.347 C 1118.8,555.903 1118.56,555.521 1118.23,555.199 C 1117.91,554.878 1117.52,554.628 1117.06,554.45 C 1116.6,554.271 1116.09,554.182 1115.51,554.182 C 1114.93,554.182 1114.41,554.271 1113.95,554.45 C 1113.49,554.628 1113.1,554.878 1112.78,555.199 C 1112.46,555.521 1112.21,555.903 1112.04,556.347 C 1111.87,556.792 1111.79,557.279 1111.79,557.811 L 1111.79,562.944 L 1113.8,562.944 L 1113.8,557.817 C 1113.8,557.512 1113.84,557.239 1113.91,556.999 C 1113.99,556.76 1114.1,556.555 1114.25,556.387 C 1114.4,556.218 1114.58,556.089 1114.79,556 C 1115,555.911 1115.24,555.866 1115.51,555.866 Z" marker-start="none" marker-end="none"/>
    <path d="M 1126.37,556.518 C 1126.41,556.518 1126.46,556.509 1126.51,556.491 C 1126.56,556.473 1126.6,556.442 1126.64,556.397 L 1127.44,555.541 C 1127.09,555.092 1126.66,554.753 1126.13,554.525 C 1125.61,554.296 1124.98,554.182 1124.27,554.182 C 1123.61,554.182 1123.02,554.294 1122.5,554.518 C 1121.98,554.742 1121.53,555.052 1121.17,555.446 C 1120.81,555.841 1120.53,556.309 1120.34,556.85 C 1120.14,557.391 1120.04,557.979 1120.04,558.613 C 1120.04,559.26 1120.15,559.854 1120.38,560.395 C 1120.6,560.936 1120.91,561.403 1121.31,561.796 C 1121.71,562.188 1122.18,562.493 1122.74,562.712 C 1123.29,562.93 1123.91,563.039 1124.58,563.039 C 1124.9,563.039 1125.21,563.01 1125.49,562.952 C 1125.78,562.895 1126.05,562.815 1126.3,562.714 C 1126.55,562.613 1126.78,562.492 1126.99,562.351 C 1127.2,562.21 1127.39,562.054 1127.55,561.883 L 1126.87,560.973 C 1126.83,560.918 1126.78,560.867 1126.72,560.822 C 1126.66,560.776 1126.57,560.753 1126.47,560.753 C 1126.4,560.753 1126.33,560.769 1126.26,560.801 C 1126.2,560.832 1126.13,560.871 1126.06,560.917 C 1125.99,560.962 1125.91,561.012 1125.83,561.065 C 1125.74,561.119 1125.64,561.168 1125.52,561.214 C 1125.41,561.26 1125.27,561.298 1125.11,561.33 C 1124.96,561.362 1124.77,561.378 1124.56,561.378 C 1124.2,561.378 1123.87,561.313 1123.56,561.184 C 1123.26,561.055 1123,560.871 1122.79,560.631 C 1122.57,560.391 1122.4,560.101 1122.28,559.76 C 1122.16,559.419 1122.1,559.036 1122.1,558.612 C 1122.1,558.168 1122.16,557.773 1122.28,557.428 C 1122.4,557.083 1122.57,556.793 1122.78,556.557 C 1122.98,556.321 1123.23,556.142 1123.5,556.019 C 1123.78,555.896 1124.08,555.834 1124.4,555.834 C 1124.58,555.834 1124.75,555.843 1124.9,555.861 C 1125.05,555.879 1125.19,555.91 1125.32,555.953 C 1125.44,555.997 1125.57,556.053 1125.68,556.123 C 1125.8,556.192 1125.92,556.278 1126.04,556.382 C 1126.09,556.421 1126.14,556.454 1126.19,556.48 C 1126.25,556.506 1126.31,556.518 1126.37,556.518 Z" marker-start="none" marker-end="none"/>
    <path d="M 1133.94,562.946 L 1133.94,561.398 L 1130.38,561.398 L 1130.38,559.374 L 1133.11,559.374 L 1133.11,557.887 L 1130.38,557.887 L 1130.38,555.826 L 1133.94,555.826 L 1133.94,554.278 L 1128.36,554.278 L 1128.36,562.946 L 1133.94,562.946 Z" marker-start="none" marker-end="none"/>
   </g>
   <g id="Group_4">
    <path d="M 1076.39,548.678 L 1076.39,547.13 L 1072.83,547.13 L 1072.83,545.106 L 1075.55,545.106 L 1075.55,543.619 L 1072.83,543.619 L 1072.83,541.558 L 1076.39,541.558 L 1076.39,540.01 L 1070.81,540.01 L 1070.81,548.678 L 1076.39,548.678 Z" marker-start="none" marker-end="none"/>
    <path d="M 1081.96,543.945 C 1082.04,543.793 1082.11,543.636 1082.19,543.472 C 1082.26,543.308 1082.33,543.141 1082.4,542.969 C 1082.46,543.145 1082.54,543.315 1082.61,543.481 C 1082.69,543.647 1082.76,543.807 1082.84,543.963 L 1085.07,548.37 C 1085.11,548.446 1085.15,548.504 1085.19,548.546 C 1085.23,548.588 1085.28,548.619 1085.33,548.639 C 1085.38,548.659 1085.44,548.669 1085.51,548.669 C 1085.57,548.669 1085.65,548.669 1085.73,548.669 L 1087.27,548.669 L 1087.27,540.01 L 1085.5,540.01 L 1085.5,544.929 C 1085.5,545.167 1085.51,545.425 1085.53,545.703 L 1083.24,541.318 C 1083.17,541.181 1083.07,541.078 1082.95,541.007 C 1082.83,540.937 1082.69,540.902 1082.53,540.902 L 1082.26,540.902 C 1082.11,540.902 1081.97,540.937 1081.85,541.007 C 1081.73,541.078 1081.63,541.181 1081.56,541.318 L 1079.25,545.709 C 1079.27,545.572 1079.28,545.436 1079.29,545.301 C 1079.3,545.166 1079.3,545.042 1079.3,544.929 L 1079.3,540.01 L 1077.53,540.01 L 1077.53,548.669 L 1079.06,548.669 C 1079.15,548.669 1079.22,548.669 1079.29,548.669 C 1079.36,548.669 1079.41,548.659 1079.47,548.639 C 1079.52,548.619 1079.56,548.588 1079.61,548.546 C 1079.65,548.504 1079.69,548.446 1079.73,548.37 L 1081.96,543.945 Z" marker-start="none" marker-end="none"/>
    <path d="M 1090.9,540.01 L 1088.87,540.01 L 1088.87,548.678 L 1090.9,548.678 L 1090.9,540.01 Z" marker-start="none" marker-end="none"/>
    <path d="M 1097.33,546.915 C 1097.27,546.819 1097.21,546.748 1097.14,546.7 C 1097.08,546.653 1096.99,546.629 1096.89,546.629 C 1096.8,546.629 1096.7,546.658 1096.59,546.715 C 1096.49,546.773 1096.37,546.837 1096.24,546.909 C 1096.1,546.98 1095.95,547.044 1095.78,547.102 C 1095.61,547.159 1095.42,547.188 1095.2,547.188 C 1094.82,547.188 1094.54,547.108 1094.36,546.947 C 1094.17,546.787 1094.08,546.57 1094.08,546.296 C 1094.08,546.121 1094.14,545.977 1094.25,545.862 C 1094.36,545.747 1094.5,545.648 1094.68,545.564 C 1094.87,545.481 1095.07,545.405 1095.3,545.335 C 1095.54,545.266 1095.77,545.189 1096.01,545.104 C 1096.26,545.018 1096.49,544.918 1096.72,544.803 C 1096.96,544.688 1097.16,544.541 1097.34,544.363 C 1097.52,544.185 1097.67,543.967 1097.78,543.712 C 1097.89,543.456 1097.95,543.148 1097.95,542.787 C 1097.95,542.386 1097.88,542.012 1097.74,541.663 C 1097.6,541.314 1097.4,541.01 1097.14,540.75 C 1096.87,540.49 1096.55,540.286 1096.16,540.137 C 1095.77,539.989 1095.33,539.914 1094.84,539.914 C 1094.57,539.914 1094.3,539.942 1094.02,539.997 C 1093.74,540.053 1093.47,540.131 1093.21,540.232 C 1092.94,540.334 1092.7,540.454 1092.47,540.592 C 1092.24,540.731 1092.04,540.886 1091.87,541.056 L 1092.46,541.996 C 1092.51,542.067 1092.57,542.125 1092.65,542.169 C 1092.73,542.212 1092.81,542.234 1092.9,542.234 C 1093.02,542.234 1093.14,542.196 1093.26,542.121 C 1093.38,542.046 1093.52,541.962 1093.67,541.871 C 1093.83,541.78 1094,541.697 1094.2,541.621 C 1094.4,541.546 1094.63,541.508 1094.9,541.508 C 1095.27,541.508 1095.55,541.589 1095.75,541.749 C 1095.95,541.91 1096.06,542.165 1096.06,542.513 C 1096.06,542.716 1096,542.88 1095.89,543.007 C 1095.78,543.134 1095.63,543.239 1095.45,543.322 C 1095.27,543.406 1095.07,543.479 1094.84,543.542 C 1094.61,543.606 1094.37,543.676 1094.13,543.754 C 1093.89,543.831 1093.65,543.926 1093.42,544.039 C 1093.19,544.152 1092.99,544.301 1092.81,544.485 C 1092.63,544.67 1092.48,544.9 1092.37,545.175 C 1092.26,545.451 1092.2,545.791 1092.2,546.195 C 1092.2,546.52 1092.27,546.838 1092.4,547.147 C 1092.53,547.456 1092.72,547.732 1092.98,547.974 C 1093.23,548.215 1093.54,548.409 1093.91,548.554 C 1094.28,548.698 1094.7,548.771 1095.18,548.771 C 1095.44,548.771 1095.7,548.75 1095.95,548.708 C 1096.2,548.667 1096.44,548.605 1096.67,548.524 C 1096.89,548.442 1097.11,548.345 1097.3,548.232 C 1097.5,548.119 1097.67,547.991 1097.83,547.848 L 1097.33,546.915 Z" marker-start="none" marker-end="none"/>
    <path d="M 1103.77,546.915 C 1103.71,546.819 1103.65,546.748 1103.59,546.7 C 1103.52,546.653 1103.44,546.629 1103.33,546.629 C 1103.24,546.629 1103.14,546.658 1103.04,546.715 C 1102.93,546.773 1102.82,546.837 1102.68,546.909 C 1102.55,546.98 1102.4,547.044 1102.23,547.102 C 1102.06,547.159 1101.86,547.188 1101.65,547.188 C 1101.27,547.188 1100.99,547.108 1100.8,546.947 C 1100.62,546.787 1100.53,546.57 1100.53,546.296 C 1100.53,546.121 1100.58,545.977 1100.69,545.862 C 1100.8,545.747 1100.95,545.648 1101.13,545.564 C 1101.31,545.481 1101.52,545.405 1101.75,545.335 C 1101.98,545.266 1102.22,545.189 1102.46,545.104 C 1102.7,545.018 1102.94,544.918 1103.17,544.803 C 1103.4,544.688 1103.61,544.541 1103.79,544.363 C 1103.97,544.185 1104.12,543.967 1104.23,543.712 C 1104.34,543.456 1104.39,543.148 1104.39,542.787 C 1104.39,542.386 1104.32,542.012 1104.18,541.663 C 1104.05,541.314 1103.84,541.01 1103.58,540.75 C 1103.32,540.49 1102.99,540.286 1102.61,540.137 C 1102.22,539.989 1101.78,539.914 1101.29,539.914 C 1101.02,539.914 1100.74,539.942 1100.46,539.997 C 1100.18,540.053 1099.91,540.131 1099.65,540.232 C 1099.39,540.334 1099.15,540.454 1098.92,540.592 C 1098.68,540.731 1098.49,540.886 1098.32,541.056 L 1098.91,541.996 C 1098.95,542.067 1099.01,542.125 1099.09,542.169 C 1099.17,542.212 1099.26,542.234 1099.35,542.234 C 1099.47,542.234 1099.59,542.196 1099.71,542.121 C 1099.83,542.046 1099.97,541.962 1100.12,541.871 C 1100.27,541.78 1100.45,541.697 1100.65,541.621 C 1100.84,541.546 1101.08,541.508 1101.35,541.508 C 1101.71,541.508 1102,541.589 1102.2,541.749 C 1102.4,541.91 1102.5,542.165 1102.5,542.513 C 1102.5,542.716 1102.45,542.88 1102.34,543.007 C 1102.22,543.134 1102.08,543.239 1101.9,543.322 C 1101.72,543.406 1101.51,543.479 1101.28,543.542 C 1101.05,543.606 1100.82,543.676 1100.57,543.754 C 1100.33,543.831 1100.1,543.926 1099.87,544.039 C 1099.64,544.152 1099.43,544.301 1099.25,544.485 C 1099.07,544.67 1098.93,544.9 1098.81,545.175 C 1098.7,545.451 1098.65,545.791 1098.65,546.195 C 1098.65,546.52 1098.71,546.838 1098.84,547.147 C 1098.98,547.456 1099.17,547.732 1099.42,547.974 C 1099.67,548.215 1099.99,548.409 1100.35,548.554 C 1100.72,548.698 1101.15,548.771 1101.62,548.771 C 1101.89,548.771 1102.15,548.75 1102.4,548.708 C 1102.65,548.667 1102.89,548.605 1103.11,548.524 C 1103.34,548.442 1103.55,548.345 1103.75,548.232 C 1103.94,548.119 1104.12,547.991 1104.27,547.848 L 1103.77,546.915 Z" marker-start="none" marker-end="none"/>
    <path d="M 1107.59,540.01 L 1105.57,540.01 L 1105.57,548.678 L 1107.59,548.678 L 1107.59,540.01 Z" marker-start="none" marker-end="none"/>
    <path d="M 1117.75,544.345 C 1117.75,543.719 1117.64,543.136 1117.42,542.597 C 1117.21,542.058 1116.9,541.589 1116.51,541.19 C 1116.12,540.792 1115.64,540.479 1115.09,540.253 C 1114.54,540.027 1113.93,539.914 1113.25,539.914 C 1112.58,539.914 1111.96,540.027 1111.41,540.253 C 1110.85,540.479 1110.38,540.792 1109.98,541.19 C 1109.59,541.589 1109.28,542.058 1109.07,542.597 C 1108.85,543.136 1108.74,543.719 1108.74,544.345 C 1108.74,544.972 1108.85,545.555 1109.07,546.094 C 1109.28,546.633 1109.59,547.101 1109.98,547.498 C 1110.38,547.894 1110.85,548.206 1111.41,548.432 C 1111.96,548.658 1112.58,548.771 1113.25,548.771 C 1113.93,548.771 1114.54,548.657 1115.09,548.429 C 1115.64,548.201 1116.12,547.888 1116.51,547.492 C 1116.9,547.095 1117.21,546.627 1117.42,546.088 C 1117.64,545.549 1117.75,544.968 1117.75,544.345 Z M 1115.69,544.345 C 1115.69,544.773 1115.63,545.159 1115.52,545.502 C 1115.41,545.844 1115.25,546.135 1115.04,546.373 C 1114.84,546.61 1114.58,546.793 1114.28,546.919 C 1113.98,547.046 1113.64,547.11 1113.25,547.11 C 1112.86,547.11 1112.52,547.046 1112.21,546.919 C 1111.91,546.793 1111.65,546.61 1111.45,546.373 C 1111.24,546.135 1111.08,545.844 1110.97,545.502 C 1110.86,545.159 1110.8,544.773 1110.8,544.345 C 1110.8,543.913 1110.86,543.526 1110.97,543.183 C 1111.08,542.84 1111.24,542.55 1111.45,542.312 C 1111.65,542.074 1111.91,541.893 1112.21,541.768 C 1112.52,541.643 1112.86,541.581 1113.25,541.581 C 1113.64,541.581 1113.98,541.643 1114.28,541.768 C 1114.58,541.893 1114.84,542.074 1115.04,542.312 C 1115.25,542.55 1115.41,542.84 1115.52,543.183 C 1115.63,543.526 1115.69,543.913 1115.69,544.345 Z" marker-start="none" marker-end="none"/>
    <path d="M 1119.77,548.678 C 1119.85,548.678 1119.93,548.674 1119.99,548.666 C 1120.05,548.658 1120.1,548.643 1120.15,548.621 C 1120.19,548.599 1120.24,548.569 1120.28,548.529 C 1120.33,548.489 1120.38,548.436 1120.43,548.369 L 1124.55,543.165 C 1124.53,543.331 1124.52,543.493 1124.51,543.65 C 1124.5,543.806 1124.5,543.954 1124.5,544.093 L 1124.5,548.678 L 1126.27,548.678 L 1126.27,540.01 L 1125.23,540.01 C 1125.07,540.01 1124.94,540.034 1124.83,540.081 C 1124.73,540.129 1124.62,540.216 1124.52,540.343 L 1120.44,545.505 C 1120.45,545.354 1120.46,545.207 1120.47,545.062 C 1120.48,544.917 1120.48,544.781 1120.48,544.655 L 1120.48,540.01 L 1118.71,540.01 L 1118.71,548.678 L 1119.77,548.678 Z" marker-start="none" marker-end="none"/>
    <path d="M 1132.53,546.915 C 1132.47,546.819 1132.41,546.748 1132.34,546.7 C 1132.27,546.653 1132.19,546.629 1132.09,546.629 C 1132,546.629 1131.9,546.658 1131.79,546.715 C 1131.69,546.773 1131.57,546.837 1131.44,546.909 C 1131.3,546.98 1131.15,547.044 1130.98,547.102 C 1130.81,547.159 1130.62,547.188 1130.4,547.188 C 1130.02,547.188 1129.74,547.108 1129.56,546.947 C 1129.37,546.787 1129.28,546.57 1129.28,546.296 C 1129.28,546.121 1129.34,545.977 1129.45,545.862 C 1129.56,545.747 1129.7,545.648 1129.88,545.564 C 1130.06,545.481 1130.27,545.405 1130.5,545.335 C 1130.73,545.266 1130.97,545.189 1131.21,545.104 C 1131.45,545.018 1131.69,544.918 1131.92,544.803 C 1132.16,544.688 1132.36,544.541 1132.54,544.363 C 1132.72,544.185 1132.87,543.967 1132.98,543.712 C 1133.09,543.456 1133.15,543.148 1133.15,542.787 C 1133.15,542.386 1133.08,542.012 1132.94,541.663 C 1132.8,541.314 1132.6,541.01 1132.33,540.75 C 1132.07,540.49 1131.75,540.286 1131.36,540.137 C 1130.97,539.989 1130.53,539.914 1130.04,539.914 C 1129.77,539.914 1129.5,539.942 1129.22,539.997 C 1128.94,540.053 1128.67,540.131 1128.41,540.232 C 1128.14,540.334 1127.9,540.454 1127.67,540.592 C 1127.44,540.731 1127.24,540.886 1127.07,541.056 L 1127.66,541.996 C 1127.71,542.067 1127.77,542.125 1127.85,542.169 C 1127.93,542.212 1128.01,542.234 1128.1,542.234 C 1128.22,542.234 1128.34,542.196 1128.46,542.121 C 1128.58,542.046 1128.72,541.962 1128.87,541.871 C 1129.03,541.78 1129.2,541.697 1129.4,541.621 C 1129.6,541.546 1129.83,541.508 1130.1,541.508 C 1130.46,541.508 1130.75,541.589 1130.95,541.749 C 1131.15,541.91 1131.25,542.165 1131.25,542.513 C 1131.25,542.716 1131.2,542.88 1131.09,543.007 C 1130.98,543.134 1130.83,543.239 1130.65,543.322 C 1130.47,543.406 1130.27,543.479 1130.04,543.542 C 1129.81,543.606 1129.57,543.676 1129.33,543.754 C 1129.09,543.831 1128.85,543.926 1128.62,544.039 C 1128.39,544.152 1128.18,544.301 1128,544.485 C 1127.82,544.67 1127.68,544.9 1127.57,545.175 C 1127.46,545.451 1127.4,545.791 1127.4,546.195 C 1127.4,546.52 1127.47,546.838 1127.6,547.147 C 1127.73,547.456 1127.92,547.732 1128.17,547.974 C 1128.43,548.215 1128.74,548.409 1129.11,548.554 C 1129.48,548.698 1129.9,548.771 1130.37,548.771 C 1130.64,548.771 1130.9,548.75 1131.15,548.708 C 1131.4,548.667 1131.64,548.605 1131.87,548.524 C 1132.09,548.442 1132.3,548.345 1132.5,548.232 C 1132.7,548.119 1132.87,547.991 1133.03,547.848 L 1132.53,546.915 Z" marker-start="none" marker-end="none"/>
   </g>
  </g>
 </g>
</svg>
