<?xml version="1.0" standalone="no"?>
<!DOCTYPE svg PUBLIC "-//W3C//DTD SVG 1.1//EN" "http://www.w3.org/Graphics/SVG/1.1/DTD/svg11.dtd">
<!--Generator: Xara Designer (www.xara.com), SVG filter version: 6.6.0.0-->
<svg fill="none" fill-rule="evenodd" stroke="black" stroke-width="0.501" stroke-linejoin="bevel" stroke-miterlimit="10" font-family="Times New Roman" font-size="16" style="font-variant-ligatures:none" xmlns:xlink="http://www.w3.org/1999/xlink" xmlns="http://www.w3.org/2000/svg" version="1.1" overflow="visible" width="107.72pt" height="215.438pt" viewBox="1296.6 -1039.69 107.72 215.438">
 <defs>
	</defs>
 <g id="Grid 36x36mm" transform="scale(1 -1)">
  <g id="Group" stroke-linejoin="miter" stroke="none" stroke-width="0.802" fill="#ffffff">
   <path d="M 1296.6,839.464 L 1296.6,1024.47 C 1296.6,1032.87 1303.42,1039.69 1311.81,1039.69 L 1389.11,1039.69 C 1397.51,1039.69 1404.32,1032.87 1404.32,1024.47 L 1404.32,839.464 C 1404.32,838.414 1404.21,837.389 1404.01,836.399 C 1402.79,830.458 1398.11,825.775 1392.17,824.559 C 1391.18,824.356 1390.16,824.25 1389.11,824.25 L 1311.81,824.25 C 1303.42,824.25 1296.6,831.066 1296.6,839.464 Z" marker-start="none" marker-end="none"/>
  </g>
  <path d="M 1297.49,840.195 L 1297.49,1023.74 C 1297.49,1032.07 1304.25,1038.84 1312.58,1038.84 L 1388.34,1038.84 C 1396.67,1038.84 1403.43,1032.07 1403.43,1023.74 L 1403.43,840.195 C 1403.43,831.864 1396.67,825.102 1388.34,825.102 L 1312.58,825.102 C 1304.25,825.102 1297.49,831.864 1297.49,840.195 Z" fill="#00bf02" stroke="none" stroke-width="0.801" stroke-linejoin="miter" marker-start="none" marker-end="none"/>
  <g id="Group_1" fill="#ffffff" fill-rule="nonzero" stroke-linejoin="round" stroke-linecap="round" stroke="none" stroke-width="0.251">
   <g id="Group_2">
    <path d="M 1307.26,946.362 C 1307.26,945.966 1307.28,945.568 1307.33,945.168 C 1307.37,944.768 1307.44,944.374 1307.53,943.985 C 1307.62,943.597 1307.73,943.219 1307.86,942.851 C 1307.99,942.483 1308.14,942.131 1308.3,941.795 C 1308.36,941.679 1308.38,941.573 1308.38,941.477 C 1308.38,941.381 1308.36,941.303 1308.31,941.243 C 1308.25,941.183 1308.19,941.131 1308.12,941.087 L 1307.29,940.607 C 1307,941.055 1306.75,941.511 1306.54,941.975 C 1306.33,942.439 1306.16,942.91 1306.03,943.388 C 1305.9,943.866 1305.8,944.353 1305.74,944.85 C 1305.68,945.346 1305.65,945.85 1305.65,946.362 C 1305.65,946.874 1305.68,947.378 1305.74,947.874 C 1305.8,948.37 1305.9,948.858 1306.03,949.336 C 1306.16,949.814 1306.33,950.285 1306.54,950.749 C 1306.75,951.213 1307,951.671 1307.29,952.123 L 1308.12,951.643 C 1308.19,951.599 1308.25,951.547 1308.3,951.487 C 1308.35,951.427 1308.38,951.351 1308.38,951.259 C 1308.38,951.215 1308.37,951.167 1308.36,951.115 C 1308.34,951.063 1308.32,951.005 1308.29,950.941 C 1308.12,950.609 1307.97,950.258 1307.84,949.888 C 1307.72,949.518 1307.61,949.137 1307.52,948.747 C 1307.43,948.357 1307.37,947.961 1307.32,947.559 C 1307.28,947.157 1307.26,946.758 1307.26,946.362 Z" marker-start="none" marker-end="none"/>
    <path d="M 1311.51,945.839 L 1311.51,942.605 L 1309.49,942.605 L 1309.49,951.347 L 1312.33,951.347 C 1312.96,951.347 1313.5,951.282 1313.95,951.152 C 1314.39,951.022 1314.76,950.841 1315.04,950.609 C 1315.32,950.376 1315.53,950.102 1315.65,949.785 C 1315.78,949.469 1315.85,949.125 1315.85,948.752 C 1315.85,948.468 1315.81,948.2 1315.73,947.947 C 1315.66,947.695 1315.54,947.461 1315.39,947.247 C 1315.24,947.033 1315.06,946.842 1314.84,946.673 C 1314.62,946.505 1314.37,946.367 1314.09,946.259 C 1314.22,946.191 1314.35,946.107 1314.47,946.007 C 1314.59,945.907 1314.69,945.786 1314.78,945.642 L 1316.64,942.605 L 1314.8,942.605 C 1314.46,942.605 1314.22,942.733 1314.07,942.989 L 1312.62,945.527 C 1312.55,945.639 1312.48,945.719 1312.39,945.767 C 1312.31,945.816 1312.19,945.84 1312.03,945.839 L 1311.51,945.839 Z M 1311.51,947.237 L 1312.33,947.237 C 1312.61,947.237 1312.84,947.272 1313.04,947.342 C 1313.23,947.412 1313.39,947.509 1313.51,947.633 C 1313.64,947.757 1313.73,947.902 1313.78,948.068 C 1313.84,948.234 1313.87,948.413 1313.87,948.605 C 1313.87,948.99 1313.74,949.29 1313.49,949.506 C 1313.24,949.722 1312.85,949.83 1312.33,949.83 L 1311.51,949.83 L 1311.51,947.237 Z" marker-start="none" marker-end="none"/>
    <path d="M 1323.1,951.35 L 1323.1,949.789 L 1319.51,949.789 L 1319.51,947.747 L 1322.26,947.747 L 1322.26,946.247 L 1319.51,946.247 L 1319.51,944.167 L 1323.1,944.167 L 1323.1,942.605 L 1317.47,942.605 L 1317.47,951.35 L 1323.1,951.35 Z" marker-start="none" marker-end="none"/>
    <path d="M 1325.04,946.362 C 1325.04,946.758 1325.02,947.157 1324.97,947.559 C 1324.93,947.961 1324.86,948.357 1324.77,948.747 C 1324.69,949.137 1324.58,949.518 1324.45,949.888 C 1324.32,950.258 1324.17,950.609 1324.01,950.941 C 1323.97,951.005 1323.95,951.063 1323.94,951.115 C 1323.92,951.167 1323.92,951.215 1323.92,951.259 C 1323.92,951.351 1323.94,951.427 1323.99,951.487 C 1324.05,951.547 1324.11,951.599 1324.17,951.643 L 1325,952.123 C 1325.58,951.219 1326,950.289 1326.26,949.333 C 1326.52,948.376 1326.65,947.386 1326.65,946.362 C 1326.65,945.334 1326.52,944.342 1326.26,943.388 C 1326,942.434 1325.58,941.507 1325,940.607 L 1324.17,941.087 C 1324.1,941.131 1324.04,941.183 1323.99,941.243 C 1323.94,941.303 1323.91,941.381 1323.91,941.477 C 1323.91,941.573 1323.94,941.679 1323.99,941.795 C 1324.16,942.131 1324.31,942.483 1324.43,942.851 C 1324.57,943.219 1324.68,943.597 1324.77,943.985 C 1324.86,944.374 1324.92,944.768 1324.97,945.168 C 1325.02,945.568 1325.04,945.966 1325.04,946.362 Z" marker-start="none" marker-end="none"/>
    <path d="M 1332.72,949.571 C 1332.66,949.475 1332.59,949.403 1332.53,949.355 C 1332.46,949.307 1332.38,949.283 1332.27,949.283 C 1332.18,949.283 1332.08,949.312 1331.98,949.37 C 1331.87,949.428 1331.75,949.493 1331.62,949.565 C 1331.48,949.637 1331.33,949.702 1331.16,949.76 C 1330.98,949.818 1330.79,949.847 1330.57,949.847 C 1330.19,949.847 1329.91,949.766 1329.72,949.604 C 1329.53,949.442 1329.44,949.223 1329.44,948.947 C 1329.44,948.771 1329.5,948.625 1329.61,948.509 C 1329.72,948.393 1329.87,948.293 1330.05,948.209 C 1330.23,948.125 1330.44,948.048 1330.67,947.978 C 1330.91,947.908 1331.15,947.83 1331.39,947.744 C 1331.63,947.658 1331.87,947.557 1332.11,947.441 C 1332.34,947.325 1332.55,947.177 1332.73,946.997 C 1332.91,946.817 1333.06,946.598 1333.17,946.34 C 1333.28,946.082 1333.34,945.771 1333.34,945.407 C 1333.34,945.003 1333.27,944.625 1333.13,944.273 C 1332.99,943.921 1332.79,943.614 1332.52,943.352 C 1332.26,943.09 1331.93,942.884 1331.54,942.733 C 1331.15,942.583 1330.7,942.508 1330.21,942.508 C 1329.94,942.508 1329.66,942.536 1329.38,942.592 C 1329.1,942.648 1328.82,942.727 1328.56,942.829 C 1328.29,942.932 1328.05,943.053 1327.81,943.193 C 1327.58,943.333 1327.38,943.489 1327.21,943.661 L 1327.81,944.609 C 1327.85,944.681 1327.91,944.739 1327.99,944.783 C 1328.07,944.827 1328.16,944.849 1328.25,944.849 C 1328.37,944.849 1328.49,944.811 1328.62,944.735 C 1328.74,944.659 1328.88,944.575 1329.03,944.483 C 1329.18,944.391 1329.36,944.307 1329.56,944.231 C 1329.76,944.155 1330,944.117 1330.27,944.117 C 1330.64,944.117 1330.92,944.198 1331.13,944.36 C 1331.33,944.522 1331.43,944.779 1331.43,945.131 C 1331.43,945.335 1331.38,945.501 1331.26,945.629 C 1331.15,945.757 1331.01,945.863 1330.82,945.947 C 1330.64,946.031 1330.43,946.105 1330.2,946.169 C 1329.97,946.233 1329.73,946.304 1329.49,946.382 C 1329.24,946.46 1329.01,946.556 1328.77,946.67 C 1328.54,946.784 1328.34,946.934 1328.15,947.12 C 1327.97,947.306 1327.82,947.538 1327.71,947.816 C 1327.6,948.095 1327.54,948.438 1327.54,948.846 C 1327.54,949.174 1327.61,949.494 1327.74,949.806 C 1327.87,950.118 1328.07,950.396 1328.32,950.64 C 1328.58,950.884 1328.89,951.079 1329.27,951.225 C 1329.64,951.371 1330.06,951.444 1330.54,951.444 C 1330.81,951.444 1331.07,951.423 1331.33,951.381 C 1331.58,951.339 1331.82,951.277 1332.05,951.195 C 1332.28,951.113 1332.49,951.015 1332.69,950.901 C 1332.89,950.787 1333.06,950.658 1333.22,950.514 L 1332.72,949.571 Z" marker-start="none" marker-end="none"/>
    <path d="M 1340.7,951.35 L 1340.7,949.742 L 1338.24,949.742 L 1338.24,942.607 L 1336.21,942.607 L 1336.21,949.742 L 1333.75,949.742 L 1333.75,951.35 L 1340.7,951.35 Z" marker-start="none" marker-end="none"/>
    <path d="M 1343.57,945.839 L 1343.57,942.605 L 1341.54,942.605 L 1341.54,951.347 L 1344.38,951.347 C 1345.01,951.347 1345.55,951.282 1346,951.152 C 1346.44,951.022 1346.81,950.841 1347.09,950.609 C 1347.37,950.376 1347.58,950.102 1347.71,949.785 C 1347.83,949.469 1347.9,949.125 1347.9,948.752 C 1347.9,948.468 1347.86,948.2 1347.78,947.947 C 1347.71,947.695 1347.6,947.461 1347.44,947.247 C 1347.3,947.033 1347.11,946.842 1346.89,946.673 C 1346.68,946.505 1346.42,946.367 1346.14,946.259 C 1346.28,946.191 1346.4,946.107 1346.52,946.007 C 1346.64,945.907 1346.74,945.786 1346.83,945.642 L 1348.69,942.605 L 1346.85,942.605 C 1346.51,942.605 1346.27,942.733 1346.12,942.989 L 1344.67,945.527 C 1344.61,945.639 1344.53,945.719 1344.44,945.767 C 1344.36,945.816 1344.24,945.84 1344.08,945.839 L 1343.57,945.839 Z M 1343.57,947.237 L 1344.38,947.237 C 1344.66,947.237 1344.89,947.272 1345.09,947.342 C 1345.28,947.412 1345.44,947.509 1345.56,947.633 C 1345.69,947.757 1345.78,947.902 1345.83,948.068 C 1345.89,948.234 1345.92,948.413 1345.92,948.605 C 1345.92,948.99 1345.79,949.29 1345.54,949.506 C 1345.29,949.722 1344.91,949.83 1344.38,949.83 L 1343.57,949.83 L 1343.57,947.237 Z" marker-start="none" marker-end="none"/>
    <path d="M 1352.8,944.208 C 1353.07,944.208 1353.31,944.253 1353.52,944.343 C 1353.74,944.433 1353.92,944.562 1354.07,944.73 C 1354.21,944.898 1354.33,945.103 1354.41,945.345 C 1354.48,945.587 1354.52,945.862 1354.52,946.17 L 1354.52,951.349 L 1356.55,951.349 L 1356.55,946.169 C 1356.55,945.633 1356.46,945.141 1356.29,944.693 C 1356.12,944.245 1355.87,943.859 1355.54,943.535 C 1355.22,943.211 1354.83,942.959 1354.36,942.778 C 1353.9,942.598 1353.38,942.508 1352.8,942.508 C 1352.21,942.508 1351.69,942.598 1351.22,942.778 C 1350.76,942.959 1350.37,943.211 1350.04,943.535 C 1349.72,943.859 1349.47,944.245 1349.3,944.693 C 1349.13,945.141 1349.04,945.633 1349.04,946.169 L 1349.04,951.349 L 1351.07,951.349 L 1351.07,946.176 C 1351.07,945.868 1351.11,945.593 1351.18,945.351 C 1351.26,945.109 1351.38,944.903 1351.52,944.733 C 1351.67,944.563 1351.85,944.433 1352.07,944.343 C 1352.28,944.253 1352.52,944.208 1352.8,944.208 Z" marker-start="none" marker-end="none"/>
    <path d="M 1363.75,944.866 C 1363.79,944.866 1363.84,944.856 1363.89,944.838 C 1363.94,944.82 1363.98,944.788 1364.03,944.743 L 1364.83,943.879 C 1364.48,943.426 1364.04,943.084 1363.51,942.854 C 1362.98,942.624 1362.35,942.508 1361.63,942.508 C 1360.96,942.508 1360.37,942.621 1359.84,942.847 C 1359.32,943.074 1358.87,943.386 1358.51,943.784 C 1358.14,944.182 1357.86,944.654 1357.66,945.2 C 1357.47,945.746 1357.37,946.339 1357.37,946.979 C 1357.37,947.631 1357.48,948.231 1357.7,948.777 C 1357.93,949.323 1358.24,949.794 1358.64,950.19 C 1359.05,950.586 1359.53,950.894 1360.09,951.114 C 1360.65,951.334 1361.26,951.444 1361.94,951.444 C 1362.27,951.444 1362.58,951.415 1362.87,951.357 C 1363.16,951.299 1363.43,951.219 1363.68,951.117 C 1363.93,951.015 1364.16,950.892 1364.38,950.75 C 1364.59,950.608 1364.78,950.451 1364.94,950.278 L 1364.26,949.36 C 1364.21,949.304 1364.16,949.253 1364.1,949.207 C 1364.04,949.161 1363.96,949.138 1363.85,949.138 C 1363.78,949.138 1363.71,949.154 1363.64,949.186 C 1363.58,949.218 1363.51,949.257 1363.44,949.303 C 1363.37,949.349 1363.29,949.399 1363.2,949.453 C 1363.12,949.507 1363.02,949.557 1362.9,949.603 C 1362.78,949.649 1362.64,949.688 1362.48,949.72 C 1362.33,949.752 1362.14,949.768 1361.93,949.768 C 1361.56,949.768 1361.22,949.703 1360.92,949.573 C 1360.62,949.443 1360.36,949.257 1360.14,949.015 C 1359.92,948.773 1359.75,948.48 1359.63,948.136 C 1359.51,947.792 1359.44,947.406 1359.44,946.978 C 1359.44,946.53 1359.51,946.132 1359.63,945.784 C 1359.75,945.436 1359.92,945.143 1360.13,944.904 C 1360.34,944.667 1360.58,944.486 1360.86,944.361 C 1361.14,944.237 1361.44,944.175 1361.76,944.175 C 1361.94,944.175 1362.11,944.184 1362.26,944.202 C 1362.42,944.22 1362.56,944.251 1362.69,944.295 C 1362.82,944.339 1362.94,944.396 1363.06,944.466 C 1363.18,944.536 1363.3,944.623 1363.42,944.728 C 1363.46,944.768 1363.52,944.801 1363.57,944.827 C 1363.63,944.853 1363.69,944.866 1363.75,944.866 Z" marker-start="none" marker-end="none"/>
    <path d="M 1372.11,951.35 L 1372.11,949.742 L 1369.65,949.742 L 1369.65,942.607 L 1367.62,942.607 L 1367.62,949.742 L 1365.16,949.742 L 1365.16,951.35 L 1372.11,951.35 Z" marker-start="none" marker-end="none"/>
    <path d="M 1376.59,944.208 C 1376.86,944.208 1377.1,944.253 1377.31,944.343 C 1377.53,944.433 1377.71,944.562 1377.86,944.73 C 1378.01,944.898 1378.12,945.103 1378.2,945.345 C 1378.27,945.587 1378.31,945.862 1378.31,946.17 L 1378.31,951.349 L 1380.34,951.349 L 1380.34,946.169 C 1380.34,945.633 1380.25,945.141 1380.08,944.693 C 1379.91,944.245 1379.66,943.859 1379.33,943.535 C 1379.01,943.211 1378.62,942.959 1378.15,942.778 C 1377.69,942.598 1377.17,942.508 1376.59,942.508 C 1376,942.508 1375.48,942.598 1375.01,942.778 C 1374.55,942.959 1374.16,943.211 1373.83,943.535 C 1373.51,943.859 1373.26,944.245 1373.09,944.693 C 1372.92,945.141 1372.83,945.633 1372.83,946.169 L 1372.83,951.349 L 1374.86,951.349 L 1374.86,946.176 C 1374.86,945.868 1374.9,945.593 1374.97,945.351 C 1375.05,945.109 1375.17,944.903 1375.31,944.733 C 1375.46,944.563 1375.64,944.433 1375.86,944.343 C 1376.07,944.253 1376.31,944.208 1376.59,944.208 Z" marker-start="none" marker-end="none"/>
    <path d="M 1383.69,945.839 L 1383.69,942.605 L 1381.66,942.605 L 1381.66,951.347 L 1384.51,951.347 C 1385.14,951.347 1385.68,951.282 1386.12,951.152 C 1386.57,951.022 1386.93,950.841 1387.21,950.609 C 1387.5,950.376 1387.7,950.102 1387.83,949.785 C 1387.96,949.469 1388.02,949.125 1388.02,948.752 C 1388.02,948.468 1387.98,948.2 1387.91,947.947 C 1387.83,947.695 1387.72,947.461 1387.57,947.247 C 1387.42,947.033 1387.24,946.842 1387.02,946.673 C 1386.8,946.505 1386.55,946.367 1386.26,946.259 C 1386.4,946.191 1386.53,946.107 1386.65,946.007 C 1386.76,945.907 1386.87,945.786 1386.95,945.642 L 1388.81,942.605 L 1386.98,942.605 C 1386.64,942.605 1386.39,942.733 1386.25,942.989 L 1384.79,945.527 C 1384.73,945.639 1384.66,945.719 1384.57,945.767 C 1384.48,945.816 1384.36,945.84 1384.21,945.839 L 1383.69,945.839 Z M 1383.69,947.237 L 1384.51,947.237 C 1384.78,947.237 1385.02,947.272 1385.21,947.342 C 1385.41,947.412 1385.56,947.509 1385.69,947.633 C 1385.81,947.757 1385.9,947.902 1385.96,948.068 C 1386.01,948.234 1386.04,948.413 1386.04,948.605 C 1386.04,948.99 1385.92,949.29 1385.67,949.506 C 1385.42,949.722 1385.03,949.83 1384.51,949.83 L 1383.69,949.83 L 1383.69,947.237 Z" marker-start="none" marker-end="none"/>
    <path d="M 1395.27,951.35 L 1395.27,949.789 L 1391.68,949.789 L 1391.68,947.747 L 1394.43,947.747 L 1394.43,946.247 L 1391.68,946.247 L 1391.68,944.167 L 1395.27,944.167 L 1395.27,942.605 L 1389.64,942.605 L 1389.64,951.35 L 1395.27,951.35 Z" marker-start="none" marker-end="none"/>
   </g>
   <g id="Group_3">
    <path d="M 1345.88,928.209 L 1344.31,928.209 C 1344.13,928.209 1343.99,928.25 1343.88,928.332 C 1343.76,928.414 1343.68,928.519 1343.64,928.647 L 1343.12,930.172 L 1339.8,930.172 L 1339.28,928.647 C 1339.24,928.535 1339.16,928.434 1339.05,928.344 C 1338.93,928.254 1338.79,928.209 1338.62,928.209 L 1337.04,928.209 L 1340.42,936.953 L 1342.5,936.953 L 1345.88,928.209 Z M 1340.27,931.552 L 1342.65,931.552 L 1341.85,933.909 C 1341.8,934.059 1341.74,934.235 1341.67,934.438 C 1341.6,934.641 1341.53,934.861 1341.46,935.097 C 1341.4,934.857 1341.33,934.634 1341.26,934.429 C 1341.19,934.225 1341.13,934.047 1341.07,933.898 L 1340.27,931.552 Z" marker-start="none" marker-end="none"/>
    <path d="M 1347.66,936.954 C 1347.74,936.954 1347.82,936.95 1347.88,936.942 C 1347.94,936.934 1347.99,936.919 1348.04,936.897 C 1348.09,936.875 1348.13,936.844 1348.18,936.804 C 1348.22,936.764 1348.27,936.71 1348.33,936.642 L 1352.48,931.392 C 1352.46,931.56 1352.45,931.723 1352.44,931.881 C 1352.44,932.039 1352.43,932.188 1352.43,932.328 L 1352.43,936.954 L 1354.22,936.954 L 1354.22,928.209 L 1353.16,928.209 C 1353.01,928.209 1352.88,928.233 1352.77,928.281 C 1352.66,928.329 1352.56,928.417 1352.46,928.545 L 1348.33,933.753 C 1348.35,933.601 1348.36,933.452 1348.36,933.306 C 1348.37,933.16 1348.38,933.023 1348.38,932.895 L 1348.38,928.209 L 1346.59,928.209 L 1346.59,936.954 L 1347.66,936.954 Z" marker-start="none" marker-end="none"/>
    <path d="M 1363.59,932.585 C 1363.59,931.952 1363.48,931.369 1363.26,930.835 C 1363.05,930.301 1362.74,929.839 1362.34,929.449 C 1361.95,929.058 1361.47,928.754 1360.91,928.536 C 1360.35,928.318 1359.73,928.209 1359.05,928.209 L 1355.66,928.209 L 1355.66,936.954 L 1359.05,936.954 C 1359.73,936.954 1360.35,936.844 1360.91,936.624 C 1361.47,936.404 1361.95,936.1 1362.34,935.712 C 1362.74,935.324 1363.05,934.863 1363.26,934.328 C 1363.48,933.794 1363.59,933.213 1363.59,932.585 Z M 1361.51,932.585 C 1361.51,933.017 1361.46,933.407 1361.35,933.755 C 1361.23,934.103 1361.07,934.398 1360.86,934.64 C 1360.65,934.882 1360.4,935.068 1360.09,935.198 C 1359.79,935.328 1359.44,935.393 1359.05,935.393 L 1357.7,935.393 L 1357.7,929.771 L 1359.05,929.771 C 1359.44,929.771 1359.79,929.836 1360.09,929.966 C 1360.4,930.096 1360.65,930.282 1360.86,930.524 C 1361.07,930.766 1361.23,931.061 1361.35,931.409 C 1361.46,931.757 1361.51,932.149 1361.51,932.585 Z" marker-start="none" marker-end="none"/>
   </g>
   <g id="Group_4">
    <path d="M 1306.54,917.57 C 1306.54,917.174 1306.57,916.776 1306.61,916.376 C 1306.66,915.976 1306.73,915.582 1306.82,915.193 C 1306.91,914.805 1307.02,914.427 1307.15,914.059 C 1307.28,913.691 1307.42,913.339 1307.59,913.003 C 1307.64,912.887 1307.67,912.781 1307.67,912.685 C 1307.67,912.589 1307.65,912.511 1307.59,912.451 C 1307.54,912.391 1307.48,912.339 1307.41,912.295 L 1306.58,911.815 C 1306.29,912.263 1306.04,912.719 1305.83,913.183 C 1305.62,913.647 1305.45,914.118 1305.32,914.596 C 1305.19,915.074 1305.09,915.561 1305.03,916.058 C 1304.97,916.554 1304.93,917.058 1304.93,917.57 C 1304.93,918.082 1304.97,918.586 1305.03,919.082 C 1305.09,919.578 1305.19,920.066 1305.32,920.544 C 1305.45,921.022 1305.62,921.493 1305.83,921.957 C 1306.04,922.421 1306.29,922.879 1306.58,923.331 L 1307.41,922.851 C 1307.48,922.807 1307.54,922.755 1307.59,922.695 C 1307.64,922.635 1307.67,922.559 1307.67,922.467 C 1307.67,922.423 1307.66,922.375 1307.64,922.323 C 1307.63,922.271 1307.61,922.213 1307.58,922.149 C 1307.41,921.817 1307.26,921.466 1307.13,921.096 C 1307,920.726 1306.9,920.345 1306.81,919.955 C 1306.72,919.565 1306.65,919.169 1306.61,918.767 C 1306.57,918.365 1306.54,917.966 1306.54,917.57 Z" marker-start="none" marker-end="none"/>
    <path d="M 1310.8,917.047 L 1310.8,913.813 L 1308.77,913.813 L 1308.77,922.555 L 1311.62,922.555 C 1312.25,922.555 1312.79,922.49 1313.23,922.36 C 1313.68,922.23 1314.04,922.049 1314.33,921.817 C 1314.61,921.584 1314.81,921.31 1314.94,920.993 C 1315.07,920.677 1315.13,920.333 1315.13,919.96 C 1315.13,919.676 1315.1,919.408 1315.02,919.155 C 1314.94,918.903 1314.83,918.669 1314.68,918.455 C 1314.53,918.241 1314.35,918.05 1314.13,917.881 C 1313.91,917.713 1313.66,917.575 1313.38,917.467 C 1313.51,917.399 1313.64,917.315 1313.76,917.215 C 1313.87,917.115 1313.98,916.994 1314.07,916.85 L 1315.93,913.813 L 1314.09,913.813 C 1313.75,913.813 1313.51,913.941 1313.36,914.197 L 1311.91,916.735 C 1311.84,916.847 1311.77,916.927 1311.68,916.975 C 1311.59,917.024 1311.47,917.048 1311.32,917.047 L 1310.8,917.047 Z M 1310.8,918.445 L 1311.62,918.445 C 1311.89,918.445 1312.13,918.48 1312.32,918.55 C 1312.52,918.62 1312.68,918.717 1312.8,918.841 C 1312.92,918.965 1313.01,919.11 1313.07,919.276 C 1313.13,919.442 1313.15,919.621 1313.15,919.813 C 1313.15,920.198 1313.03,920.498 1312.78,920.714 C 1312.53,920.93 1312.14,921.038 1311.62,921.038 L 1310.8,921.038 L 1310.8,918.445 Z" marker-start="none" marker-end="none"/>
    <path d="M 1322.38,922.558 L 1322.38,920.997 L 1318.79,920.997 L 1318.79,918.955 L 1321.54,918.955 L 1321.54,917.455 L 1318.79,917.455 L 1318.79,915.375 L 1322.38,915.375 L 1322.38,913.813 L 1316.75,913.813 L 1316.75,922.558 L 1322.38,922.558 Z" marker-start="none" marker-end="none"/>
    <path d="M 1324.33,917.57 C 1324.33,917.966 1324.3,918.365 1324.26,918.767 C 1324.21,919.169 1324.15,919.565 1324.06,919.955 C 1323.97,920.345 1323.87,920.726 1323.74,921.096 C 1323.61,921.466 1323.46,921.817 1323.29,922.149 C 1323.26,922.213 1323.24,922.271 1323.22,922.323 C 1323.21,922.375 1323.2,922.423 1323.2,922.467 C 1323.2,922.559 1323.23,922.635 1323.28,922.695 C 1323.33,922.755 1323.39,922.807 1323.46,922.851 L 1324.29,923.331 C 1324.87,922.427 1325.29,921.497 1325.55,920.541 C 1325.8,919.584 1325.93,918.594 1325.93,917.57 C 1325.93,916.542 1325.8,915.55 1325.55,914.596 C 1325.29,913.642 1324.87,912.715 1324.29,911.815 L 1323.46,912.295 C 1323.39,912.339 1323.33,912.391 1323.28,912.451 C 1323.22,912.511 1323.2,912.589 1323.2,912.685 C 1323.2,912.781 1323.23,912.887 1323.28,913.003 C 1323.44,913.339 1323.59,913.691 1323.72,914.059 C 1323.85,914.427 1323.96,914.805 1324.05,915.193 C 1324.14,915.582 1324.21,915.976 1324.26,916.376 C 1324.3,916.776 1324.33,917.174 1324.33,917.57 Z" marker-start="none" marker-end="none"/>
    <path d="M 1332,920.779 C 1331.94,920.683 1331.88,920.611 1331.81,920.563 C 1331.75,920.515 1331.66,920.491 1331.56,920.491 C 1331.47,920.491 1331.37,920.52 1331.26,920.578 C 1331.16,920.636 1331.04,920.701 1330.9,920.773 C 1330.77,920.845 1330.62,920.91 1330.44,920.968 C 1330.27,921.026 1330.08,921.055 1329.86,921.055 C 1329.48,921.055 1329.19,920.974 1329.01,920.812 C 1328.82,920.65 1328.73,920.431 1328.73,920.155 C 1328.73,919.979 1328.78,919.833 1328.9,919.717 C 1329.01,919.601 1329.15,919.501 1329.34,919.417 C 1329.52,919.333 1329.73,919.256 1329.96,919.186 C 1330.19,919.116 1330.43,919.038 1330.68,918.952 C 1330.92,918.866 1331.16,918.765 1331.39,918.649 C 1331.63,918.533 1331.84,918.385 1332.02,918.205 C 1332.2,918.025 1332.35,917.806 1332.46,917.548 C 1332.57,917.29 1332.63,916.979 1332.63,916.615 C 1332.63,916.211 1332.56,915.833 1332.42,915.481 C 1332.28,915.129 1332.07,914.822 1331.81,914.56 C 1331.54,914.298 1331.21,914.092 1330.82,913.941 C 1330.43,913.791 1329.99,913.716 1329.5,913.716 C 1329.22,913.716 1328.95,913.744 1328.66,913.8 C 1328.38,913.856 1328.11,913.935 1327.85,914.037 C 1327.58,914.14 1327.33,914.261 1327.1,914.401 C 1326.87,914.541 1326.67,914.697 1326.5,914.869 L 1327.1,915.817 C 1327.14,915.889 1327.2,915.947 1327.28,915.991 C 1327.36,916.035 1327.45,916.057 1327.54,916.057 C 1327.66,916.057 1327.78,916.019 1327.9,915.943 C 1328.02,915.867 1328.16,915.783 1328.32,915.691 C 1328.47,915.599 1328.65,915.515 1328.85,915.439 C 1329.05,915.363 1329.28,915.325 1329.56,915.325 C 1329.92,915.325 1330.21,915.406 1330.41,915.568 C 1330.62,915.73 1330.72,915.987 1330.72,916.339 C 1330.72,916.543 1330.66,916.709 1330.55,916.837 C 1330.44,916.965 1330.29,917.071 1330.11,917.155 C 1329.93,917.239 1329.72,917.313 1329.49,917.377 C 1329.26,917.441 1329.02,917.512 1328.78,917.59 C 1328.53,917.668 1328.29,917.764 1328.06,917.878 C 1327.83,917.992 1327.62,918.142 1327.44,918.328 C 1327.26,918.514 1327.11,918.746 1327,919.024 C 1326.89,919.303 1326.83,919.646 1326.83,920.054 C 1326.83,920.382 1326.9,920.702 1327.03,921.014 C 1327.16,921.326 1327.36,921.604 1327.61,921.848 C 1327.87,922.092 1328.18,922.287 1328.55,922.433 C 1328.93,922.579 1329.35,922.652 1329.83,922.652 C 1330.1,922.652 1330.36,922.631 1330.61,922.589 C 1330.87,922.547 1331.11,922.485 1331.34,922.403 C 1331.57,922.321 1331.78,922.223 1331.98,922.109 C 1332.17,921.995 1332.35,921.866 1332.51,921.722 L 1332,920.779 Z" marker-start="none" marker-end="none"/>
    <path d="M 1339.98,922.558 L 1339.98,920.95 L 1337.52,920.95 L 1337.52,913.815 L 1335.5,913.815 L 1335.5,920.95 L 1333.04,920.95 L 1333.04,922.558 L 1339.98,922.558 Z" marker-start="none" marker-end="none"/>
    <path d="M 1342.85,917.047 L 1342.85,913.813 L 1340.83,913.813 L 1340.83,922.555 L 1343.67,922.555 C 1344.3,922.555 1344.84,922.49 1345.29,922.36 C 1345.73,922.23 1346.1,922.049 1346.38,921.817 C 1346.66,921.584 1346.87,921.31 1346.99,920.993 C 1347.12,920.677 1347.18,920.333 1347.18,919.96 C 1347.18,919.676 1347.15,919.408 1347.07,919.155 C 1347,918.903 1346.88,918.669 1346.73,918.455 C 1346.58,918.241 1346.4,918.05 1346.18,917.881 C 1345.96,917.713 1345.71,917.575 1345.43,917.467 C 1345.56,917.399 1345.69,917.315 1345.81,917.215 C 1345.93,917.115 1346.03,916.994 1346.12,916.85 L 1347.98,913.813 L 1346.14,913.813 C 1345.8,913.813 1345.56,913.941 1345.41,914.197 L 1343.96,916.735 C 1343.89,916.847 1343.82,916.927 1343.73,916.975 C 1343.65,917.024 1343.53,917.048 1343.37,917.047 L 1342.85,917.047 Z M 1342.85,918.445 L 1343.67,918.445 C 1343.94,918.445 1344.18,918.48 1344.37,918.55 C 1344.57,918.62 1344.73,918.717 1344.85,918.841 C 1344.98,918.965 1345.07,919.11 1345.12,919.276 C 1345.18,919.442 1345.2,919.621 1345.2,919.813 C 1345.2,920.198 1345.08,920.498 1344.83,920.714 C 1344.58,920.93 1344.19,921.038 1343.67,921.038 L 1342.85,921.038 L 1342.85,918.445 Z" marker-start="none" marker-end="none"/>
    <path d="M 1356.94,913.813 L 1355.37,913.813 C 1355.19,913.813 1355.05,913.854 1354.93,913.936 C 1354.82,914.018 1354.74,914.123 1354.7,914.251 L 1354.18,915.776 L 1350.86,915.776 L 1350.34,914.251 C 1350.3,914.139 1350.22,914.038 1350.11,913.948 C 1349.99,913.858 1349.85,913.813 1349.68,913.813 L 1348.1,913.813 L 1351.48,922.557 L 1353.56,922.557 L 1356.94,913.813 Z M 1351.33,917.156 L 1353.71,917.156 L 1352.91,919.513 C 1352.86,919.663 1352.8,919.839 1352.73,920.042 C 1352.66,920.245 1352.59,920.465 1352.52,920.701 C 1352.46,920.461 1352.39,920.238 1352.32,920.033 C 1352.25,919.829 1352.19,919.651 1352.13,919.502 L 1351.33,917.156 Z" marker-start="none" marker-end="none"/>
    <path d="M 1363.04,922.558 L 1363.04,920.95 L 1360.58,920.95 L 1360.58,913.815 L 1358.55,913.815 L 1358.55,920.95 L 1356.09,920.95 L 1356.09,922.558 L 1363.04,922.558 Z" marker-start="none" marker-end="none"/>
    <path d="M 1369.51,922.558 L 1369.51,920.997 L 1365.92,920.997 L 1365.92,918.955 L 1368.67,918.955 L 1368.67,917.455 L 1365.92,917.455 L 1365.92,915.375 L 1369.51,915.375 L 1369.51,913.813 L 1363.88,913.813 L 1363.88,922.558 L 1369.51,922.558 Z" marker-start="none" marker-end="none"/>
    <path d="M 1374.77,915.278 C 1375.05,915.278 1375.3,915.301 1375.52,915.349 C 1375.73,915.396 1375.94,915.459 1376.13,915.538 L 1376.13,916.866 L 1375.27,916.866 C 1375.14,916.866 1375.04,916.9 1374.96,916.968 C 1374.89,917.036 1374.86,917.122 1374.86,917.226 L 1374.86,918.342 L 1377.96,918.342 L 1377.96,914.653 C 1377.74,914.489 1377.51,914.348 1377.27,914.229 C 1377.02,914.111 1376.77,914.014 1376.49,913.938 C 1376.22,913.862 1375.93,913.806 1375.62,913.77 C 1375.31,913.734 1374.97,913.716 1374.62,913.716 C 1373.98,913.716 1373.39,913.829 1372.84,914.055 C 1372.3,914.282 1371.83,914.594 1371.43,914.992 C 1371.03,915.39 1370.72,915.862 1370.49,916.408 C 1370.27,916.954 1370.15,917.547 1370.15,918.187 C 1370.15,918.839 1370.26,919.439 1370.48,919.985 C 1370.69,920.531 1371,921.002 1371.4,921.398 C 1371.81,921.794 1372.29,922.102 1372.86,922.322 C 1373.43,922.542 1374.07,922.652 1374.77,922.652 C 1375.14,922.652 1375.48,922.622 1375.8,922.562 C 1376.12,922.502 1376.41,922.42 1376.68,922.316 C 1376.95,922.212 1377.2,922.087 1377.43,921.943 C 1377.65,921.799 1377.85,921.643 1378.03,921.474 L 1377.44,920.58 C 1377.38,920.496 1377.31,920.43 1377.24,920.382 C 1377.16,920.334 1377.07,920.31 1376.98,920.31 C 1376.86,920.31 1376.74,920.35 1376.61,920.43 C 1376.45,920.526 1376.3,920.609 1376.16,920.679 C 1376.01,920.749 1375.87,920.806 1375.72,920.85 C 1375.57,920.894 1375.42,920.926 1375.25,920.946 C 1375.09,920.966 1374.91,920.976 1374.7,920.976 C 1374.32,920.976 1373.98,920.909 1373.68,920.775 C 1373.37,920.641 1373.11,920.453 1372.9,920.209 C 1372.68,919.965 1372.52,919.672 1372.4,919.33 C 1372.29,918.988 1372.23,918.607 1372.23,918.187 C 1372.23,917.723 1372.29,917.311 1372.42,916.951 C 1372.55,916.592 1372.73,916.288 1372.95,916.04 C 1373.18,915.792 1373.45,915.603 1373.76,915.473 C 1374.07,915.343 1374.41,915.278 1374.77,915.278 Z" marker-start="none" marker-end="none"/>
    <path d="M 1381.42,913.813 L 1379.38,913.813 L 1379.38,922.558 L 1381.42,922.558 L 1381.42,913.813 Z" marker-start="none" marker-end="none"/>
    <path d="M 1389.43,922.558 L 1389.43,921.826 C 1389.43,921.722 1389.42,921.62 1389.38,921.52 C 1389.35,921.42 1389.3,921.326 1389.24,921.238 L 1385.14,915.375 L 1389.3,915.375 L 1389.3,913.813 L 1382.56,913.813 L 1382.56,914.593 C 1382.56,914.685 1382.57,914.776 1382.61,914.866 C 1382.64,914.956 1382.68,915.039 1382.74,915.115 L 1386.85,920.997 L 1382.89,920.997 L 1382.89,922.558 L 1389.43,922.558 Z" marker-start="none" marker-end="none"/>
    <path d="M 1395.98,922.558 L 1395.98,920.997 L 1392.4,920.997 L 1392.4,918.955 L 1395.14,918.955 L 1395.14,917.455 L 1392.4,917.455 L 1392.4,915.375 L 1395.98,915.375 L 1395.98,913.813 L 1390.36,913.813 L 1390.36,922.558 L 1395.98,922.558 Z" marker-start="none" marker-end="none"/>
   </g>
  </g>
 </g>
</svg>
