<?xml version="1.0" standalone="no"?>
<!DOCTYPE svg PUBLIC "-//W3C//DTD SVG 1.1//EN" "http://www.w3.org/Graphics/SVG/1.1/DTD/svg11.dtd">
<!--Generator: Xara Designer (www.xara.com), SVG filter version: 6.6.0.0-->
<svg fill="none" fill-rule="evenodd" stroke="black" stroke-width="0.501" stroke-linejoin="bevel" stroke-miterlimit="10" font-family="Times New Roman" font-size="16" style="font-variant-ligatures:none" xmlns:xlink="http://www.w3.org/1999/xlink" xmlns="http://www.w3.org/2000/svg" version="1.1" overflow="visible" width="107.72pt" height="215.438pt" viewBox="1304.81 -714.938 107.72 215.438">
 <defs>
	</defs>
 <g id="Grid 36x36mm" transform="scale(1 -1)">
  <g id="Group" stroke-linejoin="miter" stroke="none" stroke-width="0.802" fill="#ffffff">
   <path d="M 1304.81,514.714 L 1304.81,699.724 C 1304.81,708.122 1311.63,714.938 1320.02,714.938 L 1397.32,714.938 C 1405.72,714.938 1412.53,708.122 1412.53,699.724 L 1412.53,514.714 C 1412.53,513.664 1412.42,512.639 1412.22,511.649 C 1411.01,505.708 1406.32,501.025 1400.38,499.809 C 1399.39,499.606 1398.37,499.5 1397.32,499.5 L 1320.02,499.5 C 1311.63,499.5 1304.81,506.316 1304.81,514.714 Z" marker-start="none" marker-end="none"/>
  </g>
  <path d="M 1305.7,515.445 L 1305.7,698.993 C 1305.7,707.324 1312.46,714.086 1320.8,714.086 L 1396.55,714.086 C 1404.88,714.086 1411.64,707.324 1411.64,698.993 L 1411.64,515.445 C 1411.64,507.114 1404.88,500.352 1396.55,500.352 L 1320.8,500.352 C 1312.46,500.352 1305.7,507.114 1305.7,515.445 Z" stroke="none" fill="#e5e5e5" stroke-width="0.801" stroke-linejoin="miter" marker-start="none" marker-end="none"/>
  <g id="Group_1" fill-rule="nonzero" stroke-linejoin="round" stroke-linecap="round" stroke="none" stroke-width="0.251" fill="#b2b2b2">
   <g id="Group_2">
    <path d="M 1315.47,621.612 C 1315.47,621.216 1315.49,620.818 1315.54,620.418 C 1315.58,620.018 1315.65,619.624 1315.74,619.235 C 1315.83,618.847 1315.94,618.469 1316.07,618.101 C 1316.2,617.733 1316.35,617.381 1316.51,617.045 C 1316.57,616.929 1316.6,616.823 1316.6,616.727 C 1316.6,616.631 1316.57,616.553 1316.52,616.493 C 1316.46,616.433 1316.4,616.381 1316.33,616.337 L 1315.5,615.857 C 1315.21,616.305 1314.96,616.761 1314.75,617.225 C 1314.55,617.689 1314.38,618.16 1314.24,618.638 C 1314.11,619.116 1314.01,619.603 1313.95,620.1 C 1313.89,620.596 1313.86,621.1 1313.86,621.612 C 1313.86,622.124 1313.89,622.628 1313.95,623.124 C 1314.01,623.62 1314.11,624.108 1314.24,624.586 C 1314.38,625.064 1314.55,625.535 1314.75,625.999 C 1314.96,626.463 1315.21,626.921 1315.5,627.373 L 1316.33,626.893 C 1316.4,626.849 1316.46,626.797 1316.51,626.737 C 1316.56,626.677 1316.59,626.601 1316.59,626.509 C 1316.59,626.465 1316.58,626.417 1316.57,626.365 C 1316.55,626.313 1316.53,626.255 1316.5,626.191 C 1316.33,625.859 1316.18,625.508 1316.06,625.138 C 1315.93,624.768 1315.82,624.387 1315.73,623.997 C 1315.64,623.607 1315.58,623.211 1315.53,622.809 C 1315.49,622.407 1315.47,622.008 1315.47,621.612 Z" marker-start="none" marker-end="none"/>
    <path d="M 1319.73,621.089 L 1319.73,617.855 L 1317.7,617.855 L 1317.7,626.597 L 1320.54,626.597 C 1321.17,626.597 1321.71,626.532 1322.16,626.402 C 1322.6,626.272 1322.97,626.091 1323.25,625.859 C 1323.53,625.626 1323.74,625.352 1323.87,625.035 C 1323.99,624.719 1324.06,624.375 1324.06,624.002 C 1324.06,623.718 1324.02,623.45 1323.94,623.197 C 1323.87,622.945 1323.75,622.711 1323.6,622.497 C 1323.45,622.283 1323.27,622.092 1323.05,621.923 C 1322.83,621.755 1322.58,621.617 1322.3,621.509 C 1322.43,621.441 1322.56,621.357 1322.68,621.257 C 1322.8,621.157 1322.9,621.036 1322.99,620.892 L 1324.85,617.855 L 1323.01,617.855 C 1322.67,617.855 1322.43,617.983 1322.28,618.239 L 1320.83,620.777 C 1320.77,620.889 1320.69,620.969 1320.6,621.017 C 1320.52,621.066 1320.4,621.09 1320.24,621.089 L 1319.73,621.089 Z M 1319.73,622.487 L 1320.54,622.487 C 1320.82,622.487 1321.05,622.522 1321.25,622.592 C 1321.44,622.662 1321.6,622.759 1321.72,622.883 C 1321.85,623.007 1321.94,623.152 1321.99,623.318 C 1322.05,623.484 1322.08,623.663 1322.08,623.855 C 1322.08,624.24 1321.95,624.54 1321.7,624.756 C 1321.45,624.972 1321.07,625.08 1320.54,625.08 L 1319.73,625.08 L 1319.73,622.487 Z" marker-start="none" marker-end="none"/>
    <path d="M 1331.31,626.6 L 1331.31,625.039 L 1327.72,625.039 L 1327.72,622.997 L 1330.47,622.997 L 1330.47,621.497 L 1327.72,621.497 L 1327.72,619.417 L 1331.31,619.417 L 1331.31,617.855 L 1325.68,617.855 L 1325.68,626.6 L 1331.31,626.6 Z" marker-start="none" marker-end="none"/>
    <path d="M 1333.25,621.612 C 1333.25,622.008 1333.23,622.407 1333.18,622.809 C 1333.14,623.211 1333.07,623.607 1332.99,623.997 C 1332.9,624.387 1332.79,624.768 1332.66,625.138 C 1332.53,625.508 1332.39,625.859 1332.22,626.191 C 1332.18,626.255 1332.16,626.313 1332.15,626.365 C 1332.13,626.417 1332.13,626.465 1332.13,626.509 C 1332.13,626.601 1332.15,626.677 1332.2,626.737 C 1332.26,626.797 1332.32,626.849 1332.39,626.893 L 1333.21,627.373 C 1333.79,626.469 1334.21,625.539 1334.47,624.583 C 1334.73,623.626 1334.86,622.636 1334.86,621.612 C 1334.86,620.584 1334.73,619.592 1334.47,618.638 C 1334.21,617.684 1333.79,616.757 1333.21,615.857 L 1332.39,616.337 C 1332.31,616.381 1332.25,616.433 1332.2,616.493 C 1332.15,616.553 1332.12,616.631 1332.12,616.727 C 1332.12,616.823 1332.15,616.929 1332.2,617.045 C 1332.37,617.381 1332.52,617.733 1332.65,618.101 C 1332.78,618.469 1332.89,618.847 1332.98,619.235 C 1333.07,619.624 1333.13,620.018 1333.18,620.418 C 1333.23,620.818 1333.25,621.216 1333.25,621.612 Z" marker-start="none" marker-end="none"/>
    <path d="M 1340.93,624.821 C 1340.87,624.725 1340.8,624.653 1340.74,624.605 C 1340.67,624.557 1340.59,624.533 1340.48,624.533 C 1340.39,624.533 1340.29,624.562 1340.19,624.62 C 1340.08,624.678 1339.96,624.743 1339.83,624.815 C 1339.69,624.887 1339.54,624.952 1339.37,625.01 C 1339.19,625.068 1339,625.097 1338.78,625.097 C 1338.4,625.097 1338.12,625.016 1337.93,624.854 C 1337.74,624.692 1337.65,624.473 1337.65,624.197 C 1337.65,624.021 1337.71,623.875 1337.82,623.759 C 1337.93,623.643 1338.08,623.543 1338.26,623.459 C 1338.44,623.375 1338.65,623.298 1338.88,623.228 C 1339.12,623.158 1339.36,623.08 1339.6,622.994 C 1339.85,622.908 1340.08,622.807 1340.32,622.691 C 1340.55,622.575 1340.76,622.427 1340.94,622.247 C 1341.12,622.067 1341.27,621.848 1341.38,621.59 C 1341.5,621.332 1341.55,621.021 1341.55,620.657 C 1341.55,620.253 1341.48,619.875 1341.34,619.523 C 1341.2,619.171 1341,618.864 1340.73,618.602 C 1340.47,618.34 1340.14,618.134 1339.75,617.983 C 1339.36,617.833 1338.92,617.758 1338.42,617.758 C 1338.15,617.758 1337.87,617.786 1337.59,617.842 C 1337.31,617.898 1337.03,617.977 1336.77,618.079 C 1336.51,618.182 1336.26,618.303 1336.03,618.443 C 1335.79,618.583 1335.59,618.739 1335.42,618.911 L 1336.02,619.859 C 1336.06,619.931 1336.13,619.989 1336.2,620.033 C 1336.29,620.077 1336.37,620.099 1336.46,620.099 C 1336.58,620.099 1336.7,620.061 1336.83,619.985 C 1336.95,619.909 1337.09,619.825 1337.24,619.733 C 1337.39,619.641 1337.57,619.557 1337.77,619.481 C 1337.97,619.405 1338.21,619.367 1338.48,619.367 C 1338.85,619.367 1339.13,619.448 1339.34,619.61 C 1339.54,619.772 1339.64,620.029 1339.64,620.381 C 1339.64,620.585 1339.59,620.751 1339.48,620.879 C 1339.36,621.007 1339.22,621.113 1339.03,621.197 C 1338.85,621.281 1338.65,621.355 1338.41,621.419 C 1338.18,621.483 1337.94,621.554 1337.7,621.632 C 1337.45,621.71 1337.22,621.806 1336.99,621.92 C 1336.75,622.034 1336.55,622.184 1336.36,622.37 C 1336.18,622.556 1336.04,622.788 1335.92,623.066 C 1335.81,623.345 1335.76,623.688 1335.76,624.096 C 1335.76,624.424 1335.82,624.744 1335.95,625.056 C 1336.09,625.368 1336.28,625.646 1336.54,625.89 C 1336.79,626.134 1337.11,626.329 1337.48,626.475 C 1337.85,626.621 1338.28,626.694 1338.76,626.694 C 1339.02,626.694 1339.28,626.673 1339.54,626.631 C 1339.79,626.589 1340.03,626.527 1340.26,626.445 C 1340.49,626.363 1340.7,626.265 1340.9,626.151 C 1341.1,626.037 1341.28,625.908 1341.43,625.764 L 1340.93,624.821 Z" marker-start="none" marker-end="none"/>
    <path d="M 1348.91,626.6 L 1348.91,624.992 L 1346.45,624.992 L 1346.45,617.857 L 1344.42,617.857 L 1344.42,624.992 L 1341.96,624.992 L 1341.96,626.6 L 1348.91,626.6 Z" marker-start="none" marker-end="none"/>
    <path d="M 1351.78,621.089 L 1351.78,617.855 L 1349.75,617.855 L 1349.75,626.597 L 1352.59,626.597 C 1353.23,626.597 1353.76,626.532 1354.21,626.402 C 1354.66,626.272 1355.02,626.091 1355.3,625.859 C 1355.58,625.626 1355.79,625.352 1355.92,625.035 C 1356.05,624.719 1356.11,624.375 1356.11,624.002 C 1356.11,623.718 1356.07,623.45 1356,623.197 C 1355.92,622.945 1355.81,622.711 1355.66,622.497 C 1355.51,622.283 1355.32,622.092 1355.1,621.923 C 1354.89,621.755 1354.64,621.617 1354.35,621.509 C 1354.49,621.441 1354.61,621.357 1354.73,621.257 C 1354.85,621.157 1354.95,621.036 1355.04,620.892 L 1356.9,617.855 L 1355.07,617.855 C 1354.73,617.855 1354.48,617.983 1354.33,618.239 L 1352.88,620.777 C 1352.82,620.889 1352.74,620.969 1352.66,621.017 C 1352.57,621.066 1352.45,621.09 1352.29,621.089 L 1351.78,621.089 Z M 1351.78,622.487 L 1352.59,622.487 C 1352.87,622.487 1353.1,622.522 1353.3,622.592 C 1353.49,622.662 1353.65,622.759 1353.78,622.883 C 1353.9,623.007 1353.99,623.152 1354.05,623.318 C 1354.1,623.484 1354.13,623.663 1354.13,623.855 C 1354.13,624.24 1354,624.54 1353.75,624.756 C 1353.5,624.972 1353.12,625.08 1352.59,625.08 L 1351.78,625.08 L 1351.78,622.487 Z" marker-start="none" marker-end="none"/>
    <path d="M 1361.01,619.458 C 1361.28,619.458 1361.52,619.503 1361.74,619.593 C 1361.95,619.683 1362.13,619.812 1362.28,619.98 C 1362.43,620.148 1362.54,620.353 1362.62,620.595 C 1362.69,620.837 1362.73,621.112 1362.73,621.42 L 1362.73,626.599 L 1364.76,626.599 L 1364.76,621.419 C 1364.76,620.883 1364.68,620.391 1364.5,619.943 C 1364.33,619.495 1364.08,619.109 1363.75,618.785 C 1363.43,618.461 1363.04,618.209 1362.57,618.028 C 1362.11,617.848 1361.59,617.758 1361.01,617.758 C 1360.42,617.758 1359.9,617.848 1359.43,618.028 C 1358.97,618.209 1358.58,618.461 1358.25,618.785 C 1357.93,619.109 1357.68,619.495 1357.51,619.943 C 1357.34,620.391 1357.25,620.883 1357.25,621.419 L 1357.25,626.599 L 1359.28,626.599 L 1359.28,621.426 C 1359.28,621.118 1359.32,620.843 1359.4,620.601 C 1359.47,620.359 1359.59,620.153 1359.73,619.983 C 1359.88,619.813 1360.06,619.683 1360.28,619.593 C 1360.49,619.503 1360.73,619.458 1361.01,619.458 Z" marker-start="none" marker-end="none"/>
    <path d="M 1371.96,620.116 C 1372.01,620.116 1372.05,620.106 1372.1,620.088 C 1372.15,620.07 1372.19,620.038 1372.24,619.993 L 1373.04,619.129 C 1372.69,618.676 1372.25,618.334 1371.72,618.104 C 1371.19,617.874 1370.56,617.758 1369.84,617.758 C 1369.18,617.758 1368.58,617.871 1368.05,618.097 C 1367.53,618.324 1367.08,618.636 1366.72,619.034 C 1366.35,619.432 1366.07,619.904 1365.87,620.45 C 1365.68,620.996 1365.58,621.589 1365.58,622.229 C 1365.58,622.881 1365.69,623.481 1365.92,624.027 C 1366.14,624.573 1366.45,625.044 1366.85,625.44 C 1367.26,625.836 1367.74,626.144 1368.3,626.364 C 1368.86,626.584 1369.48,626.694 1370.15,626.694 C 1370.48,626.694 1370.79,626.665 1371.08,626.607 C 1371.37,626.549 1371.64,626.469 1371.89,626.367 C 1372.14,626.265 1372.38,626.142 1372.59,626 C 1372.8,625.858 1372.99,625.701 1373.15,625.528 L 1372.47,624.61 C 1372.42,624.554 1372.37,624.503 1372.31,624.457 C 1372.25,624.411 1372.17,624.388 1372.06,624.388 C 1371.99,624.388 1371.92,624.404 1371.86,624.436 C 1371.79,624.468 1371.72,624.507 1371.65,624.553 C 1371.58,624.599 1371.5,624.649 1371.41,624.703 C 1371.33,624.757 1371.23,624.807 1371.11,624.853 C 1370.99,624.899 1370.85,624.938 1370.69,624.97 C 1370.54,625.002 1370.35,625.018 1370.14,625.018 C 1369.77,625.018 1369.43,624.953 1369.13,624.823 C 1368.83,624.693 1368.57,624.507 1368.35,624.265 C 1368.13,624.023 1367.96,623.73 1367.84,623.386 C 1367.72,623.042 1367.66,622.656 1367.66,622.228 C 1367.66,621.78 1367.72,621.382 1367.84,621.034 C 1367.96,620.686 1368.13,620.393 1368.34,620.154 C 1368.55,619.917 1368.79,619.736 1369.07,619.611 C 1369.35,619.487 1369.65,619.425 1369.97,619.425 C 1370.16,619.425 1370.32,619.434 1370.48,619.452 C 1370.63,619.47 1370.77,619.501 1370.9,619.545 C 1371.03,619.589 1371.15,619.646 1371.27,619.716 C 1371.39,619.786 1371.51,619.873 1371.63,619.978 C 1371.68,620.018 1371.73,620.051 1371.78,620.077 C 1371.84,620.103 1371.9,620.116 1371.96,620.116 Z" marker-start="none" marker-end="none"/>
    <path d="M 1380.32,626.6 L 1380.32,624.992 L 1377.86,624.992 L 1377.86,617.857 L 1375.83,617.857 L 1375.83,624.992 L 1373.37,624.992 L 1373.37,626.6 L 1380.32,626.6 Z" marker-start="none" marker-end="none"/>
    <path d="M 1384.8,619.458 C 1385.07,619.458 1385.31,619.503 1385.53,619.593 C 1385.74,619.683 1385.92,619.812 1386.07,619.98 C 1386.22,620.148 1386.33,620.353 1386.41,620.595 C 1386.49,620.837 1386.52,621.112 1386.52,621.42 L 1386.52,626.599 L 1388.55,626.599 L 1388.55,621.419 C 1388.55,620.883 1388.46,620.391 1388.29,619.943 C 1388.12,619.495 1387.87,619.109 1387.54,618.785 C 1387.22,618.461 1386.83,618.209 1386.36,618.028 C 1385.9,617.848 1385.38,617.758 1384.8,617.758 C 1384.21,617.758 1383.69,617.848 1383.22,618.028 C 1382.76,618.209 1382.37,618.461 1382.04,618.785 C 1381.72,619.109 1381.47,619.495 1381.3,619.943 C 1381.13,620.391 1381.04,620.883 1381.04,621.419 L 1381.04,626.599 L 1383.07,626.599 L 1383.07,621.426 C 1383.07,621.118 1383.11,620.843 1383.18,620.601 C 1383.26,620.359 1383.38,620.153 1383.52,619.983 C 1383.67,619.813 1383.85,619.683 1384.07,619.593 C 1384.28,619.503 1384.52,619.458 1384.8,619.458 Z" marker-start="none" marker-end="none"/>
    <path d="M 1391.9,621.089 L 1391.9,617.855 L 1389.87,617.855 L 1389.87,626.597 L 1392.72,626.597 C 1393.35,626.597 1393.89,626.532 1394.33,626.402 C 1394.78,626.272 1395.14,626.091 1395.43,625.859 C 1395.71,625.626 1395.91,625.352 1396.04,625.035 C 1396.17,624.719 1396.23,624.375 1396.23,624.002 C 1396.23,623.718 1396.19,623.45 1396.12,623.197 C 1396.04,622.945 1395.93,622.711 1395.78,622.497 C 1395.63,622.283 1395.45,622.092 1395.23,621.923 C 1395.01,621.755 1394.76,621.617 1394.48,621.509 C 1394.61,621.441 1394.74,621.357 1394.86,621.257 C 1394.97,621.157 1395.08,621.036 1395.17,620.892 L 1397.03,617.855 L 1395.19,617.855 C 1394.85,617.855 1394.61,617.983 1394.46,618.239 L 1393.01,620.777 C 1392.94,620.889 1392.87,620.969 1392.78,621.017 C 1392.69,621.066 1392.57,621.09 1392.42,621.089 L 1391.9,621.089 Z M 1391.9,622.487 L 1392.72,622.487 C 1392.99,622.487 1393.23,622.522 1393.42,622.592 C 1393.62,622.662 1393.78,622.759 1393.9,622.883 C 1394.02,623.007 1394.11,623.152 1394.17,623.318 C 1394.23,623.484 1394.25,623.663 1394.25,623.855 C 1394.25,624.24 1394.13,624.54 1393.88,624.756 C 1393.63,624.972 1393.24,625.08 1392.72,625.08 L 1391.9,625.08 L 1391.9,622.487 Z" marker-start="none" marker-end="none"/>
    <path d="M 1403.48,626.6 L 1403.48,625.039 L 1399.89,625.039 L 1399.89,622.997 L 1402.64,622.997 L 1402.64,621.497 L 1399.89,621.497 L 1399.89,619.417 L 1403.48,619.417 L 1403.48,617.855 L 1397.85,617.855 L 1397.85,626.6 L 1403.48,626.6 Z" marker-start="none" marker-end="none"/>
   </g>
   <g id="Group_3">
    <path d="M 1354.09,603.459 L 1352.52,603.459 C 1352.35,603.459 1352.2,603.5 1352.09,603.582 C 1351.97,603.664 1351.89,603.769 1351.85,603.897 L 1351.33,605.422 L 1348.01,605.422 L 1347.49,603.897 C 1347.45,603.785 1347.38,603.684 1347.26,603.594 C 1347.14,603.504 1347,603.459 1346.83,603.459 L 1345.25,603.459 L 1348.63,612.203 L 1350.71,612.203 L 1354.09,603.459 Z M 1348.48,606.802 L 1350.87,606.802 L 1350.06,609.159 C 1350.01,609.309 1349.95,609.485 1349.88,609.688 C 1349.81,609.891 1349.74,610.111 1349.67,610.347 C 1349.61,610.107 1349.54,609.884 1349.47,609.679 C 1349.41,609.475 1349.34,609.297 1349.28,609.148 L 1348.48,606.802 Z" marker-start="none" marker-end="none"/>
    <path d="M 1355.87,612.204 C 1355.95,612.204 1356.03,612.2 1356.09,612.192 C 1356.15,612.184 1356.2,612.169 1356.25,612.147 C 1356.3,612.125 1356.35,612.094 1356.39,612.054 C 1356.43,612.014 1356.48,611.96 1356.54,611.892 L 1360.69,606.642 C 1360.68,606.81 1360.66,606.973 1360.66,607.131 C 1360.65,607.289 1360.64,607.438 1360.64,607.578 L 1360.64,612.204 L 1362.43,612.204 L 1362.43,603.459 L 1361.38,603.459 C 1361.22,603.459 1361.09,603.483 1360.98,603.531 C 1360.87,603.579 1360.77,603.667 1360.67,603.795 L 1356.55,609.003 C 1356.56,608.851 1356.57,608.702 1356.58,608.556 C 1356.58,608.41 1356.59,608.273 1356.59,608.145 L 1356.59,603.459 L 1354.8,603.459 L 1354.8,612.204 L 1355.87,612.204 Z" marker-start="none" marker-end="none"/>
    <path d="M 1371.8,607.835 C 1371.8,607.202 1371.69,606.619 1371.47,606.085 C 1371.26,605.551 1370.95,605.089 1370.55,604.699 C 1370.16,604.308 1369.68,604.004 1369.12,603.786 C 1368.56,603.568 1367.94,603.459 1367.27,603.459 L 1363.87,603.459 L 1363.87,612.204 L 1367.27,612.204 C 1367.94,612.204 1368.56,612.094 1369.12,611.874 C 1369.68,611.654 1370.16,611.35 1370.55,610.962 C 1370.95,610.574 1371.26,610.113 1371.47,609.578 C 1371.69,609.044 1371.8,608.463 1371.8,607.835 Z M 1369.73,607.835 C 1369.73,608.267 1369.67,608.657 1369.56,609.005 C 1369.44,609.353 1369.28,609.648 1369.07,609.89 C 1368.86,610.132 1368.61,610.318 1368.3,610.448 C 1368,610.578 1367.65,610.643 1367.27,610.643 L 1365.91,610.643 L 1365.91,605.021 L 1367.27,605.021 C 1367.65,605.021 1368,605.086 1368.3,605.216 C 1368.61,605.346 1368.86,605.532 1369.07,605.774 C 1369.28,606.016 1369.44,606.311 1369.56,606.659 C 1369.67,607.007 1369.73,607.399 1369.73,607.835 Z" marker-start="none" marker-end="none"/>
   </g>
   <g id="Group_4">
    <path d="M 1314.75,592.82 C 1314.75,592.424 1314.78,592.026 1314.82,591.626 C 1314.87,591.226 1314.94,590.832 1315.03,590.443 C 1315.12,590.055 1315.23,589.677 1315.36,589.309 C 1315.49,588.941 1315.63,588.589 1315.8,588.253 C 1315.85,588.137 1315.88,588.031 1315.88,587.935 C 1315.88,587.839 1315.86,587.761 1315.8,587.701 C 1315.75,587.641 1315.69,587.589 1315.62,587.545 L 1314.79,587.065 C 1314.5,587.513 1314.25,587.969 1314.04,588.433 C 1313.83,588.897 1313.66,589.368 1313.53,589.846 C 1313.4,590.324 1313.3,590.811 1313.24,591.308 C 1313.18,591.804 1313.15,592.308 1313.15,592.82 C 1313.15,593.332 1313.18,593.836 1313.24,594.332 C 1313.3,594.828 1313.4,595.316 1313.53,595.794 C 1313.66,596.272 1313.83,596.743 1314.04,597.207 C 1314.25,597.671 1314.5,598.129 1314.79,598.581 L 1315.62,598.101 C 1315.69,598.057 1315.75,598.005 1315.8,597.945 C 1315.85,597.885 1315.88,597.809 1315.88,597.717 C 1315.88,597.673 1315.87,597.625 1315.86,597.573 C 1315.84,597.521 1315.82,597.463 1315.79,597.399 C 1315.62,597.067 1315.47,596.716 1315.34,596.346 C 1315.21,595.976 1315.11,595.595 1315.02,595.205 C 1314.93,594.815 1314.86,594.419 1314.82,594.017 C 1314.78,593.615 1314.75,593.216 1314.75,592.82 Z" marker-start="none" marker-end="none"/>
    <path d="M 1319.01,592.297 L 1319.01,589.063 L 1316.98,589.063 L 1316.98,597.805 L 1319.83,597.805 C 1320.46,597.805 1321,597.74 1321.44,597.61 C 1321.89,597.48 1322.26,597.299 1322.54,597.067 C 1322.82,596.834 1323.02,596.56 1323.15,596.243 C 1323.28,595.927 1323.34,595.583 1323.34,595.21 C 1323.34,594.926 1323.31,594.658 1323.23,594.405 C 1323.15,594.153 1323.04,593.919 1322.89,593.705 C 1322.74,593.491 1322.56,593.3 1322.34,593.131 C 1322.12,592.963 1321.87,592.825 1321.59,592.717 C 1321.72,592.649 1321.85,592.565 1321.97,592.465 C 1322.09,592.365 1322.19,592.244 1322.28,592.1 L 1324.14,589.063 L 1322.3,589.063 C 1321.96,589.063 1321.72,589.191 1321.57,589.447 L 1320.12,591.985 C 1320.05,592.097 1319.98,592.177 1319.89,592.225 C 1319.81,592.274 1319.68,592.298 1319.53,592.297 L 1319.01,592.297 Z M 1319.01,593.695 L 1319.83,593.695 C 1320.1,593.695 1320.34,593.73 1320.53,593.8 C 1320.73,593.87 1320.89,593.967 1321.01,594.091 C 1321.13,594.215 1321.22,594.36 1321.28,594.526 C 1321.34,594.692 1321.36,594.871 1321.36,595.063 C 1321.36,595.448 1321.24,595.748 1320.99,595.964 C 1320.74,596.18 1320.35,596.288 1319.83,596.288 L 1319.01,596.288 L 1319.01,593.695 Z" marker-start="none" marker-end="none"/>
    <path d="M 1330.59,597.808 L 1330.59,596.247 L 1327.01,596.247 L 1327.01,594.205 L 1329.75,594.205 L 1329.75,592.705 L 1327.01,592.705 L 1327.01,590.625 L 1330.59,590.625 L 1330.59,589.063 L 1324.96,589.063 L 1324.96,597.808 L 1330.59,597.808 Z" marker-start="none" marker-end="none"/>
    <path d="M 1332.54,592.82 C 1332.54,593.216 1332.51,593.615 1332.47,594.017 C 1332.43,594.419 1332.36,594.815 1332.27,595.205 C 1332.18,595.595 1332.08,595.976 1331.95,596.346 C 1331.82,596.716 1331.67,597.067 1331.5,597.399 C 1331.47,597.463 1331.45,597.521 1331.43,597.573 C 1331.42,597.625 1331.41,597.673 1331.41,597.717 C 1331.41,597.809 1331.44,597.885 1331.49,597.945 C 1331.54,598.005 1331.6,598.057 1331.67,598.101 L 1332.5,598.581 C 1333.08,597.677 1333.5,596.747 1333.76,595.791 C 1334.02,594.834 1334.14,593.844 1334.14,592.82 C 1334.14,591.792 1334.02,590.8 1333.76,589.846 C 1333.5,588.892 1333.08,587.965 1332.5,587.065 L 1331.67,587.545 C 1331.6,587.589 1331.54,587.641 1331.49,587.701 C 1331.43,587.761 1331.41,587.839 1331.41,587.935 C 1331.41,588.031 1331.44,588.137 1331.49,588.253 C 1331.66,588.589 1331.8,588.941 1331.93,589.309 C 1332.06,589.677 1332.17,590.055 1332.26,590.443 C 1332.35,590.832 1332.42,591.226 1332.47,591.626 C 1332.51,592.026 1332.54,592.424 1332.54,592.82 Z" marker-start="none" marker-end="none"/>
    <path d="M 1340.21,596.029 C 1340.15,595.933 1340.09,595.861 1340.03,595.813 C 1339.96,595.765 1339.87,595.741 1339.77,595.741 C 1339.68,595.741 1339.58,595.77 1339.47,595.828 C 1339.37,595.886 1339.25,595.951 1339.11,596.023 C 1338.98,596.095 1338.83,596.16 1338.65,596.218 C 1338.48,596.276 1338.29,596.305 1338.07,596.305 C 1337.69,596.305 1337.4,596.224 1337.22,596.062 C 1337.03,595.9 1336.94,595.681 1336.94,595.405 C 1336.94,595.229 1336.99,595.083 1337.11,594.967 C 1337.22,594.851 1337.37,594.751 1337.55,594.667 C 1337.73,594.583 1337.94,594.506 1338.17,594.436 C 1338.41,594.366 1338.64,594.288 1338.89,594.202 C 1339.13,594.116 1339.37,594.015 1339.61,593.899 C 1339.84,593.783 1340.05,593.635 1340.23,593.455 C 1340.41,593.275 1340.56,593.056 1340.67,592.798 C 1340.78,592.54 1340.84,592.229 1340.84,591.865 C 1340.84,591.461 1340.77,591.083 1340.63,590.731 C 1340.49,590.379 1340.29,590.072 1340.02,589.81 C 1339.75,589.548 1339.43,589.342 1339.04,589.191 C 1338.65,589.041 1338.2,588.966 1337.71,588.966 C 1337.43,588.966 1337.16,588.994 1336.88,589.05 C 1336.59,589.106 1336.32,589.185 1336.06,589.287 C 1335.79,589.39 1335.54,589.511 1335.31,589.651 C 1335.08,589.791 1334.88,589.947 1334.71,590.119 L 1335.31,591.067 C 1335.35,591.139 1335.41,591.197 1335.49,591.241 C 1335.57,591.285 1335.66,591.307 1335.75,591.307 C 1335.87,591.307 1335.99,591.269 1336.11,591.193 C 1336.24,591.117 1336.37,591.033 1336.53,590.941 C 1336.68,590.849 1336.86,590.765 1337.06,590.689 C 1337.26,590.613 1337.49,590.575 1337.77,590.575 C 1338.13,590.575 1338.42,590.656 1338.62,590.818 C 1338.83,590.98 1338.93,591.237 1338.93,591.589 C 1338.93,591.793 1338.87,591.959 1338.76,592.087 C 1338.65,592.215 1338.5,592.321 1338.32,592.405 C 1338.14,592.489 1337.93,592.563 1337.7,592.627 C 1337.47,592.691 1337.23,592.762 1336.99,592.84 C 1336.74,592.918 1336.5,593.014 1336.27,593.128 C 1336.04,593.242 1335.83,593.392 1335.65,593.578 C 1335.47,593.764 1335.32,593.996 1335.21,594.274 C 1335.1,594.553 1335.04,594.896 1335.04,595.304 C 1335.04,595.632 1335.11,595.952 1335.24,596.264 C 1335.37,596.576 1335.57,596.854 1335.82,597.098 C 1336.08,597.342 1336.39,597.537 1336.76,597.683 C 1337.14,597.829 1337.56,597.902 1338.04,597.902 C 1338.31,597.902 1338.57,597.881 1338.83,597.839 C 1339.08,597.797 1339.32,597.735 1339.55,597.653 C 1339.78,597.571 1339.99,597.473 1340.19,597.359 C 1340.39,597.245 1340.56,597.116 1340.72,596.972 L 1340.21,596.029 Z" marker-start="none" marker-end="none"/>
    <path d="M 1348.19,597.808 L 1348.19,596.2 L 1345.73,596.2 L 1345.73,589.065 L 1343.71,589.065 L 1343.71,596.2 L 1341.25,596.2 L 1341.25,597.808 L 1348.19,597.808 Z" marker-start="none" marker-end="none"/>
    <path d="M 1351.06,592.297 L 1351.06,589.063 L 1349.04,589.063 L 1349.04,597.805 L 1351.88,597.805 C 1352.51,597.805 1353.05,597.74 1353.5,597.61 C 1353.94,597.48 1354.31,597.299 1354.59,597.067 C 1354.87,596.834 1355.08,596.56 1355.2,596.243 C 1355.33,595.927 1355.4,595.583 1355.4,595.21 C 1355.4,594.926 1355.36,594.658 1355.28,594.405 C 1355.21,594.153 1355.09,593.919 1354.94,593.705 C 1354.79,593.491 1354.61,593.3 1354.39,593.131 C 1354.17,592.963 1353.92,592.825 1353.64,592.717 C 1353.77,592.649 1353.9,592.565 1354.02,592.465 C 1354.14,592.365 1354.24,592.244 1354.33,592.1 L 1356.19,589.063 L 1354.35,589.063 C 1354.01,589.063 1353.77,589.191 1353.62,589.447 L 1352.17,591.985 C 1352.1,592.097 1352.03,592.177 1351.94,592.225 C 1351.86,592.274 1351.74,592.298 1351.58,592.297 L 1351.06,592.297 Z M 1351.06,593.695 L 1351.88,593.695 C 1352.16,593.695 1352.39,593.73 1352.59,593.8 C 1352.78,593.87 1352.94,593.967 1353.06,594.091 C 1353.19,594.215 1353.28,594.36 1353.33,594.526 C 1353.39,594.692 1353.42,594.871 1353.42,595.063 C 1353.42,595.448 1353.29,595.748 1353.04,595.964 C 1352.79,596.18 1352.4,596.288 1351.88,596.288 L 1351.06,596.288 L 1351.06,593.695 Z" marker-start="none" marker-end="none"/>
    <path d="M 1365.15,589.063 L 1363.58,589.063 C 1363.41,589.063 1363.26,589.104 1363.15,589.186 C 1363.03,589.268 1362.95,589.373 1362.91,589.501 L 1362.39,591.026 L 1359.07,591.026 L 1358.55,589.501 C 1358.51,589.389 1358.43,589.288 1358.32,589.198 C 1358.2,589.108 1358.06,589.063 1357.89,589.063 L 1356.31,589.063 L 1359.69,597.807 L 1361.77,597.807 L 1365.15,589.063 Z M 1359.54,592.406 L 1361.93,592.406 L 1361.12,594.763 C 1361.07,594.913 1361.01,595.089 1360.94,595.292 C 1360.87,595.495 1360.8,595.715 1360.73,595.951 C 1360.67,595.711 1360.6,595.488 1360.53,595.283 C 1360.46,595.079 1360.4,594.901 1360.34,594.752 L 1359.54,592.406 Z" marker-start="none" marker-end="none"/>
    <path d="M 1371.25,597.808 L 1371.25,596.2 L 1368.79,596.2 L 1368.79,589.065 L 1366.76,589.065 L 1366.76,596.2 L 1364.3,596.2 L 1364.3,597.808 L 1371.25,597.808 Z" marker-start="none" marker-end="none"/>
    <path d="M 1377.72,597.808 L 1377.72,596.247 L 1374.13,596.247 L 1374.13,594.205 L 1376.88,594.205 L 1376.88,592.705 L 1374.13,592.705 L 1374.13,590.625 L 1377.72,590.625 L 1377.72,589.063 L 1372.09,589.063 L 1372.09,597.808 L 1377.72,597.808 Z" marker-start="none" marker-end="none"/>
    <path d="M 1382.98,590.528 C 1383.26,590.528 1383.51,590.551 1383.73,590.599 C 1383.94,590.646 1384.15,590.709 1384.34,590.788 L 1384.34,592.116 L 1383.48,592.116 C 1383.35,592.116 1383.25,592.15 1383.18,592.218 C 1383.1,592.286 1383.07,592.372 1383.07,592.476 L 1383.07,593.592 L 1386.18,593.592 L 1386.18,589.903 C 1385.95,589.739 1385.72,589.598 1385.48,589.479 C 1385.24,589.361 1384.98,589.264 1384.7,589.188 C 1384.43,589.112 1384.14,589.056 1383.83,589.02 C 1383.52,588.984 1383.18,588.966 1382.83,588.966 C 1382.19,588.966 1381.6,589.079 1381.05,589.305 C 1380.51,589.532 1380.04,589.844 1379.64,590.242 C 1379.24,590.64 1378.93,591.112 1378.7,591.658 C 1378.48,592.204 1378.36,592.797 1378.36,593.437 C 1378.36,594.089 1378.47,594.689 1378.69,595.235 C 1378.9,595.781 1379.21,596.252 1379.62,596.648 C 1380.02,597.044 1380.5,597.352 1381.07,597.572 C 1381.64,597.792 1382.28,597.902 1382.98,597.902 C 1383.35,597.902 1383.69,597.872 1384.01,597.812 C 1384.33,597.752 1384.63,597.67 1384.9,597.566 C 1385.17,597.462 1385.41,597.337 1385.64,597.193 C 1385.86,597.049 1386.06,596.893 1386.24,596.724 L 1385.65,595.83 C 1385.59,595.746 1385.53,595.68 1385.45,595.632 C 1385.37,595.584 1385.28,595.56 1385.19,595.56 C 1385.07,595.56 1384.95,595.6 1384.82,595.68 C 1384.66,595.776 1384.51,595.859 1384.37,595.929 C 1384.23,595.999 1384.08,596.056 1383.93,596.1 C 1383.78,596.144 1383.63,596.176 1383.46,596.196 C 1383.3,596.216 1383.12,596.226 1382.91,596.226 C 1382.53,596.226 1382.19,596.159 1381.89,596.025 C 1381.58,595.891 1381.32,595.703 1381.11,595.459 C 1380.9,595.215 1380.73,594.922 1380.61,594.58 C 1380.5,594.238 1380.44,593.857 1380.44,593.437 C 1380.44,592.973 1380.5,592.561 1380.63,592.201 C 1380.76,591.842 1380.94,591.538 1381.16,591.29 C 1381.39,591.042 1381.66,590.853 1381.97,590.723 C 1382.28,590.593 1382.62,590.528 1382.98,590.528 Z" marker-start="none" marker-end="none"/>
    <path d="M 1389.63,589.063 L 1387.59,589.063 L 1387.59,597.808 L 1389.63,597.808 L 1389.63,589.063 Z" marker-start="none" marker-end="none"/>
    <path d="M 1397.65,597.808 L 1397.65,597.076 C 1397.65,596.972 1397.63,596.87 1397.59,596.77 C 1397.56,596.67 1397.51,596.576 1397.45,596.488 L 1393.35,590.625 L 1397.51,590.625 L 1397.51,589.063 L 1390.77,589.063 L 1390.77,589.843 C 1390.77,589.935 1390.79,590.026 1390.82,590.116 C 1390.85,590.206 1390.89,590.289 1390.95,590.365 L 1395.07,596.247 L 1391.11,596.247 L 1391.11,597.808 L 1397.65,597.808 Z" marker-start="none" marker-end="none"/>
    <path d="M 1404.19,597.808 L 1404.19,596.247 L 1400.61,596.247 L 1400.61,594.205 L 1403.36,594.205 L 1403.36,592.705 L 1400.61,592.705 L 1400.61,590.625 L 1404.19,590.625 L 1404.19,589.063 L 1398.57,589.063 L 1398.57,597.808 L 1404.19,597.808 Z" marker-start="none" marker-end="none"/>
   </g>
  </g>
 </g>
</svg>
