<?xml version="1.0" standalone="no"?>
<!DOCTYPE svg PUBLIC "-//W3C//DTD SVG 1.1//EN" "http://www.w3.org/Graphics/SVG/1.1/DTD/svg11.dtd">
<!--Generator: Xara Designer (www.xara.com), SVG filter version: 6.6.0.0-->
<svg fill="none" fill-rule="evenodd" stroke="black" stroke-width="0.501" stroke-linejoin="bevel" stroke-miterlimit="10" font-family="Times New Roman" font-size="16" style="font-variant-ligatures:none" xmlns:xlink="http://www.w3.org/1999/xlink" xmlns="http://www.w3.org/2000/svg" version="1.1" overflow="visible" width="107.718pt" height="53.866pt" viewBox="930.703 -1036.32 107.718 53.866">
 <defs>
	</defs>
 <g id="Grid 36x36mm" transform="scale(1 -1)">
  <path d="M 930.703,997.663 L 930.703,1021.1 C 930.703,1029.5 937.518,1036.32 945.915,1036.32 L 1023.21,1036.32 C 1031.61,1036.32 1038.42,1029.5 1038.42,1021.1 L 1038.42,997.663 C 1038.42,989.265 1031.61,982.449 1023.21,982.449 L 945.915,982.449 C 937.518,982.449 930.703,989.265 930.703,997.663 Z" stroke="none" fill="#ffffff" stroke-width="0.802" stroke-linejoin="miter" marker-start="none" marker-end="none"/>
  <path d="M 931.552,998.39 L 931.552,1020.37 C 931.552,1028.7 938.314,1035.47 946.643,1035.47 L 1022.48,1035.47 C 1030.81,1035.47 1037.57,1028.7 1037.57,1020.37 L 1037.57,998.39 C 1037.57,990.059 1030.81,983.298 1022.48,983.298 L 946.643,983.298 C 938.314,983.298 931.552,990.059 931.552,998.39 Z" fill="#00bf02" stroke="none" stroke-width="0.8" stroke-linejoin="miter" marker-start="none" marker-end="none"/>
  <g id="Group" fill="#ffffff" fill-rule="nonzero" stroke-linejoin="round" stroke-linecap="round" stroke="none" stroke-width="0.251">
   <g id="Group_1">
    <path d="M 959.955,1028.2 L 959.955,1026.59 L 957.495,1026.59 L 957.495,1019.46 L 955.467,1019.46 L 955.467,1026.59 L 953.007,1026.59 L 953.007,1028.2 L 959.955,1028.2 Z" marker-start="none" marker-end="none"/>
    <path d="M 967.973,1019.45 L 966.401,1019.45 C 966.225,1019.45 966.08,1019.5 965.966,1019.58 C 965.852,1019.66 965.773,1019.76 965.729,1019.89 L 965.213,1021.42 L 961.889,1021.42 L 961.373,1019.89 C 961.333,1019.78 961.255,1019.68 961.139,1019.59 C 961.023,1019.5 960.881,1019.45 960.713,1019.45 L 959.129,1019.45 L 962.513,1028.2 L 964.589,1028.2 L 967.973,1019.45 Z M 962.357,1022.8 L 964.745,1022.8 L 963.941,1025.15 C 963.889,1025.3 963.828,1025.48 963.758,1025.68 C 963.688,1025.89 963.619,1026.11 963.551,1026.34 C 963.487,1026.1 963.421,1025.88 963.353,1025.67 C 963.285,1025.47 963.221,1025.29 963.161,1025.14 L 962.357,1022.8 Z" marker-start="none" marker-end="none"/>
    <path d="M 970.707,1024.66 L 971.031,1024.66 C 971.331,1024.66 971.547,1024.75 971.679,1024.94 L 973.647,1027.8 C 973.755,1027.95 973.878,1028.06 974.016,1028.12 C 974.154,1028.17 974.323,1028.2 974.523,1028.2 L 976.287,1028.2 L 973.695,1024.66 C 973.603,1024.54 973.507,1024.43 973.407,1024.35 C 973.307,1024.26 973.205,1024.19 973.101,1024.14 C 973.253,1024.08 973.392,1024 973.518,1023.9 C 973.644,1023.81 973.759,1023.68 973.863,1023.51 L 976.503,1019.45 L 974.691,1019.45 C 974.575,1019.45 974.476,1019.46 974.394,1019.48 C 974.312,1019.49 974.241,1019.52 974.181,1019.55 C 974.121,1019.58 974.069,1019.62 974.025,1019.67 C 973.981,1019.71 973.939,1019.77 973.899,1019.83 L 971.919,1022.87 C 971.847,1022.98 971.756,1023.06 971.646,1023.11 C 971.536,1023.15 971.387,1023.18 971.199,1023.18 L 970.707,1023.18 L 970.707,1019.45 L 968.679,1019.45 L 968.679,1028.2 L 970.707,1028.2 L 970.707,1024.66 Z" marker-start="none" marker-end="none"/>
    <path d="M 982.873,1028.2 L 982.873,1026.64 L 979.285,1026.64 L 979.285,1024.6 L 982.033,1024.6 L 982.033,1023.1 L 979.285,1023.1 L 979.285,1021.02 L 982.873,1021.02 L 982.873,1019.45 L 977.245,1019.45 L 977.245,1028.2 L 982.873,1028.2 Z" marker-start="none" marker-end="none"/>
    <path d="M 992.652,1023.83 C 992.652,1023.2 992.543,1022.61 992.325,1022.06 C 992.107,1021.52 991.8,1021.05 991.404,1020.65 C 991.008,1020.24 990.531,1019.93 989.973,1019.7 C 989.415,1019.47 988.796,1019.36 988.116,1019.36 C 987.436,1019.36 986.816,1019.47 986.256,1019.7 C 985.696,1019.93 985.217,1020.24 984.819,1020.65 C 984.421,1021.05 984.113,1021.52 983.895,1022.06 C 983.677,1022.61 983.568,1023.2 983.568,1023.83 C 983.568,1024.46 983.677,1025.05 983.895,1025.59 C 984.113,1026.14 984.421,1026.61 984.819,1027.01 C 985.217,1027.41 985.696,1027.72 986.256,1027.95 C 986.816,1028.18 987.436,1028.29 988.116,1028.29 C 988.796,1028.29 989.415,1028.18 989.973,1027.95 C 990.531,1027.72 991.008,1027.4 991.404,1027 C 991.8,1026.6 992.107,1026.13 992.325,1025.59 C 992.543,1025.04 992.652,1024.46 992.652,1023.83 Z M 990.576,1023.83 C 990.576,1024.26 990.52,1024.65 990.408,1025 C 990.296,1025.34 990.135,1025.63 989.925,1025.87 C 989.715,1026.11 989.458,1026.3 989.154,1026.43 C 988.85,1026.55 988.504,1026.62 988.116,1026.62 C 987.724,1026.62 987.375,1026.55 987.069,1026.43 C 986.763,1026.3 986.505,1026.11 986.295,1025.87 C 986.085,1025.63 985.924,1025.34 985.812,1025 C 985.7,1024.65 985.644,1024.26 985.644,1023.83 C 985.644,1023.39 985.7,1023 985.812,1022.66 C 985.924,1022.31 986.085,1022.02 986.295,1021.78 C 986.505,1021.54 986.763,1021.35 987.069,1021.23 C 987.375,1021.1 987.724,1021.04 988.116,1021.04 C 988.504,1021.04 988.85,1021.1 989.154,1021.23 C 989.458,1021.35 989.715,1021.54 989.925,1021.78 C 990.135,1022.02 990.296,1022.31 990.408,1022.66 C 990.52,1023 990.576,1023.39 990.576,1023.83 Z" marker-start="none" marker-end="none"/>
    <path d="M 992.542,1028.2 L 994.174,1028.2 C 994.35,1028.2 994.494,1028.16 994.606,1028.08 C 994.718,1028 994.798,1027.89 994.846,1027.76 L 996.538,1023.05 C 996.614,1022.85 996.691,1022.62 996.769,1022.38 C 996.847,1022.14 996.92,1021.89 996.988,1021.62 C 997.044,1021.89 997.109,1022.14 997.183,1022.38 C 997.257,1022.62 997.33,1022.85 997.402,1023.05 L 999.082,1027.76 C 999.122,1027.87 999.2,1027.97 999.316,1028.06 C 999.432,1028.15 999.574,1028.2 999.742,1028.2 L 1001.39,1028.2 L 997.882,1019.45 L 996.046,1019.45 L 992.542,1028.2 Z" marker-start="none" marker-end="none"/>
    <path d="M 1007.73,1028.2 L 1007.73,1026.64 L 1004.14,1026.64 L 1004.14,1024.6 L 1006.89,1024.6 L 1006.89,1023.1 L 1004.14,1023.1 L 1004.14,1021.02 L 1007.73,1021.02 L 1007.73,1019.45 L 1002.1,1019.45 L 1002.1,1028.2 L 1007.73,1028.2 Z" marker-start="none" marker-end="none"/>
    <path d="M 1010.91,1022.69 L 1010.91,1019.45 L 1008.88,1019.45 L 1008.88,1028.2 L 1011.73,1028.2 C 1012.36,1028.2 1012.9,1028.13 1013.34,1028 C 1013.79,1027.87 1014.15,1027.69 1014.44,1027.46 C 1014.72,1027.22 1014.92,1026.95 1015.05,1026.63 C 1015.18,1026.32 1015.24,1025.97 1015.24,1025.6 C 1015.24,1025.32 1015.21,1025.05 1015.13,1024.8 C 1015.05,1024.54 1014.94,1024.31 1014.79,1024.1 C 1014.64,1023.88 1014.46,1023.69 1014.24,1023.52 C 1014.02,1023.35 1013.77,1023.22 1013.49,1023.11 C 1013.62,1023.04 1013.75,1022.96 1013.87,1022.86 C 1013.98,1022.76 1014.09,1022.64 1014.18,1022.49 L 1016.04,1019.45 L 1014.2,1019.45 C 1013.86,1019.45 1013.62,1019.58 1013.47,1019.84 L 1012.02,1022.38 C 1011.95,1022.49 1011.88,1022.57 1011.79,1022.62 C 1011.7,1022.67 1011.58,1022.69 1011.43,1022.69 L 1010.91,1022.69 Z M 1010.91,1024.09 L 1011.73,1024.09 C 1012,1024.09 1012.24,1024.12 1012.43,1024.19 C 1012.63,1024.26 1012.79,1024.36 1012.91,1024.48 C 1013.03,1024.61 1013.12,1024.75 1013.18,1024.92 C 1013.24,1025.08 1013.26,1025.26 1013.26,1025.45 C 1013.26,1025.84 1013.14,1026.14 1012.89,1026.36 C 1012.64,1026.57 1012.25,1026.68 1011.73,1026.68 L 1010.91,1026.68 L 1010.91,1024.09 Z" marker-start="none" marker-end="none"/>
   </g>
   <g id="Group_2">
    <path d="M 960.394,1007.32 C 960.442,1007.32 960.49,1007.31 960.538,1007.29 C 960.586,1007.27 960.632,1007.24 960.676,1007.2 L 961.48,1006.33 C 961.128,1005.88 960.687,1005.54 960.157,1005.31 C 959.627,1005.08 959,1004.96 958.276,1004.96 C 957.612,1004.96 957.017,1005.07 956.491,1005.3 C 955.965,1005.53 955.519,1005.84 955.153,1006.24 C 954.787,1006.64 954.506,1007.11 954.31,1007.65 C 954.114,1008.2 954.016,1008.79 954.016,1009.43 C 954.016,1010.08 954.128,1010.68 954.352,1011.23 C 954.576,1011.78 954.889,1012.25 955.291,1012.64 C 955.693,1013.04 956.174,1013.35 956.734,1013.57 C 957.294,1013.79 957.912,1013.9 958.588,1013.9 C 958.916,1013.9 959.225,1013.87 959.515,1013.81 C 959.805,1013.75 960.076,1013.67 960.328,1013.57 C 960.58,1013.47 960.812,1013.35 961.024,1013.2 C 961.236,1013.06 961.424,1012.9 961.588,1012.73 L 960.904,1011.81 C 960.86,1011.76 960.808,1011.71 960.748,1011.66 C 960.688,1011.61 960.604,1011.59 960.496,1011.59 C 960.424,1011.59 960.356,1011.61 960.292,1011.64 C 960.228,1011.67 960.16,1011.71 960.088,1011.76 C 960.016,1011.8 959.937,1011.85 959.851,1011.91 C 959.765,1011.96 959.663,1012.01 959.545,1012.06 C 959.427,1012.1 959.289,1012.14 959.131,1012.17 C 958.973,1012.21 958.788,1012.22 958.576,1012.22 C 958.208,1012.22 957.872,1012.16 957.568,1012.03 C 957.264,1011.9 957.003,1011.71 956.785,1011.47 C 956.567,1011.23 956.397,1010.93 956.275,1010.59 C 956.153,1010.25 956.092,1009.86 956.092,1009.43 C 956.092,1008.98 956.153,1008.59 956.275,1008.24 C 956.397,1007.89 956.563,1007.6 956.773,1007.36 C 956.983,1007.12 957.228,1006.94 957.508,1006.81 C 957.788,1006.69 958.088,1006.63 958.408,1006.63 C 958.592,1006.63 958.76,1006.64 958.912,1006.66 C 959.064,1006.67 959.205,1006.7 959.335,1006.75 C 959.465,1006.79 959.589,1006.85 959.707,1006.92 C 959.825,1006.99 959.944,1007.08 960.064,1007.18 C 960.112,1007.22 960.164,1007.25 960.22,1007.28 C 960.276,1007.31 960.334,1007.32 960.394,1007.32 Z" marker-start="none" marker-end="none"/>
    <path d="M 971.035,1009.43 C 971.035,1008.8 970.926,1008.21 970.708,1007.67 C 970.49,1007.12 970.183,1006.65 969.787,1006.25 C 969.391,1005.85 968.914,1005.53 968.356,1005.3 C 967.798,1005.08 967.179,1004.96 966.499,1004.96 C 965.819,1004.96 965.199,1005.08 964.639,1005.3 C 964.079,1005.53 963.6,1005.85 963.202,1006.25 C 962.804,1006.65 962.496,1007.12 962.278,1007.67 C 962.06,1008.21 961.951,1008.8 961.951,1009.43 C 961.951,1010.06 962.06,1010.65 962.278,1011.2 C 962.496,1011.74 962.804,1012.21 963.202,1012.61 C 963.6,1013.01 964.079,1013.33 964.639,1013.56 C 965.199,1013.78 965.819,1013.9 966.499,1013.9 C 967.179,1013.9 967.798,1013.78 968.356,1013.55 C 968.914,1013.32 969.391,1013.01 969.787,1012.61 C 970.183,1012.21 970.49,1011.74 970.708,1011.19 C 970.926,1010.65 971.035,1010.06 971.035,1009.43 Z M 968.959,1009.43 C 968.959,1009.86 968.903,1010.25 968.791,1010.6 C 968.679,1010.95 968.518,1011.24 968.308,1011.48 C 968.098,1011.72 967.841,1011.9 967.537,1012.03 C 967.233,1012.16 966.887,1012.22 966.499,1012.22 C 966.107,1012.22 965.758,1012.16 965.452,1012.03 C 965.146,1011.9 964.888,1011.72 964.678,1011.48 C 964.468,1011.24 964.307,1010.95 964.195,1010.6 C 964.083,1010.25 964.027,1009.86 964.027,1009.43 C 964.027,1009 964.083,1008.61 964.195,1008.26 C 964.307,1007.91 964.468,1007.62 964.678,1007.38 C 964.888,1007.14 965.146,1006.96 965.452,1006.83 C 965.758,1006.71 966.107,1006.64 966.499,1006.64 C 966.887,1006.64 967.233,1006.71 967.537,1006.83 C 967.841,1006.96 968.098,1007.14 968.308,1007.38 C 968.518,1007.62 968.679,1007.91 968.791,1008.26 C 968.903,1008.61 968.959,1009 968.959,1009.43 Z" marker-start="none" marker-end="none"/>
    <path d="M 976.475,1009.03 C 976.555,1008.88 976.632,1008.72 976.706,1008.55 C 976.78,1008.39 976.851,1008.22 976.919,1008.04 C 976.987,1008.22 977.059,1008.39 977.135,1008.56 C 977.211,1008.73 977.289,1008.89 977.369,1009.05 L 979.613,1013.49 C 979.653,1013.57 979.694,1013.63 979.736,1013.67 C 979.778,1013.71 979.825,1013.74 979.877,1013.76 C 979.929,1013.78 979.988,1013.8 980.054,1013.8 C 980.12,1013.8 980.197,1013.8 980.285,1013.8 L 981.833,1013.8 L 981.833,1005.06 L 980.045,1005.06 L 980.045,1010.02 C 980.045,1010.26 980.057,1010.52 980.081,1010.8 L 977.765,1006.38 C 977.693,1006.24 977.596,1006.14 977.474,1006.06 C 977.352,1005.99 977.213,1005.96 977.057,1005.96 L 976.781,1005.96 C 976.625,1005.96 976.486,1005.99 976.364,1006.06 C 976.242,1006.14 976.145,1006.24 976.073,1006.38 L 973.745,1010.81 C 973.761,1010.67 973.773,1010.53 973.781,1010.4 C 973.789,1010.26 973.793,1010.14 973.793,1010.02 L 973.793,1005.06 L 972.005,1005.06 L 972.005,1013.8 L 973.553,1013.8 C 973.641,1013.8 973.718,1013.8 973.784,1013.8 C 973.85,1013.8 973.909,1013.78 973.961,1013.76 C 974.013,1013.74 974.06,1013.71 974.102,1013.67 C 974.144,1013.63 974.185,1013.57 974.225,1013.49 L 976.475,1009.03 Z" marker-start="none" marker-end="none"/>
    <path d="M 985.301,1007.98 L 985.301,1005.06 L 983.273,1005.06 L 983.273,1013.8 L 986.357,1013.8 C 986.973,1013.8 987.502,1013.73 987.944,1013.58 C 988.386,1013.44 988.75,1013.24 989.036,1012.98 C 989.322,1012.73 989.533,1012.42 989.669,1012.08 C 989.805,1011.73 989.873,1011.35 989.873,1010.95 C 989.873,1010.51 989.803,1010.11 989.663,1009.75 C 989.523,1009.38 989.309,1009.07 989.021,1008.81 C 988.733,1008.55 988.368,1008.35 987.926,1008.2 C 987.484,1008.06 986.961,1007.98 986.357,1007.98 L 985.301,1007.98 Z M 985.301,1009.51 L 986.357,1009.51 C 986.885,1009.51 987.265,1009.64 987.497,1009.89 C 987.729,1010.14 987.845,1010.49 987.845,1010.95 C 987.845,1011.15 987.815,1011.33 987.755,1011.49 C 987.695,1011.66 987.604,1011.8 987.482,1011.92 C 987.36,1012.03 987.206,1012.13 987.02,1012.19 C 986.834,1012.25 986.613,1012.29 986.357,1012.29 L 985.301,1012.29 L 985.301,1009.51 Z" marker-start="none" marker-end="none"/>
    <path d="M 998.047,1005.06 L 996.475,1005.06 C 996.299,1005.06 996.154,1005.1 996.04,1005.18 C 995.926,1005.26 995.847,1005.37 995.803,1005.5 L 995.287,1007.02 L 991.963,1007.02 L 991.447,1005.5 C 991.407,1005.38 991.329,1005.28 991.213,1005.19 C 991.097,1005.1 990.955,1005.06 990.787,1005.06 L 989.203,1005.06 L 992.587,1013.8 L 994.663,1013.8 L 998.047,1005.06 Z M 992.431,1008.4 L 994.819,1008.4 L 994.015,1010.76 C 993.963,1010.91 993.902,1011.08 993.832,1011.29 C 993.762,1011.49 993.693,1011.71 993.625,1011.95 C 993.561,1011.71 993.495,1011.48 993.427,1011.28 C 993.359,1011.07 993.295,1010.9 993.235,1010.75 L 992.431,1008.4 Z" marker-start="none" marker-end="none"/>
    <path d="M 999.821,1013.8 C 999.909,1013.8 999.983,1013.8 1000.04,1013.79 C 1000.1,1013.78 1000.16,1013.77 1000.21,1013.75 C 1000.25,1013.72 1000.3,1013.69 1000.34,1013.65 C 1000.39,1013.61 1000.44,1013.56 1000.49,1013.49 L 1004.65,1008.24 C 1004.63,1008.41 1004.62,1008.57 1004.61,1008.73 C 1004.6,1008.89 1004.6,1009.04 1004.6,1009.18 L 1004.6,1013.8 L 1006.39,1013.8 L 1006.39,1005.06 L 1005.33,1005.06 C 1005.17,1005.06 1005.04,1005.08 1004.93,1005.13 C 1004.83,1005.18 1004.72,1005.27 1004.62,1005.39 L 1000.5,1010.6 C 1000.51,1010.45 1000.52,1010.3 1000.53,1010.16 C 1000.54,1010.01 1000.54,1009.87 1000.54,1009.74 L 1000.54,1005.06 L 998.753,1005.06 L 998.753,1013.8 L 999.821,1013.8 Z" marker-start="none" marker-end="none"/>
    <path d="M 1012.18,1008.33 L 1012.18,1005.06 L 1010.15,1005.06 L 1010.15,1008.33 L 1006.98,1013.8 L 1008.77,1013.8 C 1008.95,1013.8 1009.09,1013.76 1009.19,1013.68 C 1009.3,1013.59 1009.38,1013.49 1009.44,1013.36 L 1010.68,1010.77 C 1010.78,1010.56 1010.87,1010.37 1010.96,1010.19 C 1011.04,1010.02 1011.11,1009.84 1011.18,1009.67 C 1011.24,1009.85 1011.31,1010.02 1011.39,1010.2 C 1011.48,1010.37 1011.57,1010.56 1011.66,1010.77 L 1012.89,1013.36 C 1012.91,1013.41 1012.94,1013.46 1012.99,1013.52 C 1013.03,1013.57 1013.08,1013.62 1013.13,1013.66 C 1013.18,1013.7 1013.25,1013.74 1013.32,1013.76 C 1013.39,1013.79 1013.46,1013.8 1013.55,1013.8 L 1015.35,1013.8 L 1012.18,1008.33 Z" marker-start="none" marker-end="none"/>
   </g>
   <g id="Group_3">
    <path d="M 956.92,992.265 C 957.192,992.265 957.435,992.31 957.649,992.4 C 957.863,992.49 958.044,992.619 958.192,992.787 C 958.34,992.955 958.453,993.16 958.531,993.402 C 958.609,993.644 958.648,993.919 958.648,994.227 L 958.648,999.406 L 960.676,999.406 L 960.676,994.226 C 960.676,993.69 960.589,993.198 960.415,992.75 C 960.241,992.302 959.992,991.916 959.668,991.592 C 959.344,991.268 958.95,991.016 958.486,990.835 C 958.022,990.655 957.5,990.565 956.92,990.565 C 956.336,990.565 955.812,990.655 955.348,990.835 C 954.884,991.016 954.49,991.268 954.166,991.592 C 953.842,991.916 953.594,992.302 953.422,992.75 C 953.25,993.198 953.164,993.69 953.164,994.226 L 953.164,999.406 L 955.192,999.406 L 955.192,994.233 C 955.192,993.925 955.231,993.65 955.309,993.408 C 955.387,993.166 955.5,992.96 955.648,992.79 C 955.796,992.62 955.977,992.49 956.191,992.4 C 956.405,992.31 956.648,992.265 956.92,992.265 Z" marker-start="none" marker-end="none"/>
    <path d="M 966.869,997.628 C 966.809,997.532 966.746,997.46 966.68,997.412 C 966.614,997.364 966.529,997.34 966.425,997.34 C 966.333,997.34 966.234,997.369 966.128,997.427 C 966.022,997.485 965.902,997.55 965.768,997.622 C 965.634,997.694 965.481,997.759 965.309,997.817 C 965.137,997.875 964.941,997.904 964.721,997.904 C 964.341,997.904 964.058,997.823 963.872,997.661 C 963.686,997.499 963.593,997.28 963.593,997.004 C 963.593,996.828 963.649,996.682 963.761,996.566 C 963.873,996.45 964.02,996.35 964.202,996.266 C 964.384,996.182 964.592,996.105 964.826,996.035 C 965.06,995.965 965.299,995.887 965.543,995.801 C 965.787,995.715 966.026,995.614 966.26,995.498 C 966.494,995.382 966.702,995.234 966.884,995.054 C 967.066,994.874 967.213,994.655 967.325,994.397 C 967.437,994.139 967.493,993.828 967.493,993.464 C 967.493,993.06 967.423,992.682 967.283,992.33 C 967.143,991.978 966.94,991.671 966.674,991.409 C 966.408,991.147 966.08,990.941 965.69,990.79 C 965.3,990.64 964.857,990.565 964.361,990.565 C 964.089,990.565 963.812,990.593 963.53,990.649 C 963.248,990.705 962.975,990.784 962.711,990.886 C 962.447,990.989 962.199,991.11 961.967,991.25 C 961.735,991.39 961.533,991.546 961.361,991.718 L 961.961,992.666 C 962.005,992.738 962.067,992.796 962.147,992.84 C 962.227,992.884 962.313,992.906 962.405,992.906 C 962.525,992.906 962.646,992.868 962.768,992.792 C 962.89,992.716 963.028,992.632 963.182,992.54 C 963.336,992.448 963.513,992.364 963.713,992.288 C 963.913,992.212 964.149,992.174 964.421,992.174 C 964.789,992.174 965.075,992.255 965.279,992.417 C 965.483,992.579 965.585,992.836 965.585,993.188 C 965.585,993.392 965.529,993.558 965.417,993.686 C 965.305,993.814 965.158,993.92 964.976,994.004 C 964.794,994.088 964.587,994.162 964.355,994.226 C 964.123,994.29 963.885,994.361 963.641,994.439 C 963.397,994.517 963.159,994.613 962.927,994.727 C 962.695,994.841 962.488,994.991 962.306,995.177 C 962.124,995.363 961.977,995.595 961.865,995.873 C 961.753,996.152 961.697,996.495 961.697,996.903 C 961.697,997.231 961.763,997.551 961.895,997.863 C 962.027,998.175 962.221,998.453 962.477,998.697 C 962.733,998.941 963.047,999.136 963.419,999.282 C 963.791,999.428 964.217,999.501 964.697,999.501 C 964.965,999.501 965.226,999.48 965.48,999.438 C 965.734,999.396 965.975,999.334 966.203,999.252 C 966.431,999.17 966.644,999.072 966.842,998.958 C 967.04,998.844 967.217,998.715 967.373,998.571 L 966.869,997.628 Z" marker-start="none" marker-end="none"/>
    <path d="M 970.721,990.662 L 968.681,990.662 L 968.681,999.407 L 970.721,999.407 L 970.721,990.662 Z" marker-start="none" marker-end="none"/>
    <path d="M 973.407,999.407 C 973.495,999.407 973.569,999.403 973.629,999.395 C 973.689,999.387 973.743,999.372 973.791,999.35 C 973.839,999.328 973.885,999.297 973.929,999.257 C 973.973,999.217 974.023,999.163 974.079,999.095 L 978.231,993.845 C 978.215,994.013 978.203,994.176 978.195,994.334 C 978.187,994.492 978.183,994.641 978.183,994.781 L 978.183,999.407 L 979.971,999.407 L 979.971,990.662 L 978.915,990.662 C 978.759,990.662 978.627,990.686 978.519,990.734 C 978.411,990.782 978.307,990.87 978.207,990.998 L 974.085,996.206 C 974.097,996.054 974.107,995.905 974.115,995.759 C 974.123,995.613 974.127,995.476 974.127,995.348 L 974.127,990.662 L 972.339,990.662 L 972.339,999.407 L 973.407,999.407 Z" marker-start="none" marker-end="none"/>
    <path d="M 985.525,992.127 C 985.805,992.127 986.053,992.15 986.269,992.198 C 986.485,992.245 986.689,992.308 986.881,992.387 L 986.881,993.715 L 986.017,993.715 C 985.889,993.715 985.789,993.749 985.717,993.817 C 985.645,993.885 985.609,993.971 985.609,994.075 L 985.609,995.191 L 988.717,995.191 L 988.717,991.502 C 988.493,991.338 988.26,991.197 988.018,991.078 C 987.776,990.96 987.518,990.863 987.244,990.787 C 986.97,990.711 986.678,990.655 986.368,990.619 C 986.058,990.583 985.725,990.565 985.369,990.565 C 984.729,990.565 984.137,990.678 983.593,990.904 C 983.049,991.131 982.578,991.443 982.18,991.841 C 981.782,992.239 981.47,992.711 981.244,993.257 C 981.018,993.803 980.905,994.396 980.905,995.036 C 980.905,995.688 981.013,996.288 981.229,996.834 C 981.445,997.38 981.754,997.851 982.156,998.247 C 982.558,998.643 983.044,998.951 983.614,999.171 C 984.184,999.391 984.821,999.501 985.525,999.501 C 985.889,999.501 986.231,999.471 986.551,999.411 C 986.871,999.351 987.166,999.269 987.436,999.165 C 987.706,999.061 987.953,998.936 988.177,998.792 C 988.401,998.648 988.601,998.492 988.777,998.323 L 988.189,997.429 C 988.133,997.345 988.066,997.279 987.988,997.231 C 987.91,997.183 987.825,997.159 987.733,997.159 C 987.613,997.159 987.489,997.199 987.361,997.279 C 987.201,997.375 987.05,997.458 986.908,997.528 C 986.766,997.598 986.621,997.655 986.473,997.699 C 986.325,997.743 986.169,997.775 986.005,997.795 C 985.841,997.815 985.657,997.825 985.453,997.825 C 985.073,997.825 984.731,997.758 984.427,997.624 C 984.123,997.49 983.864,997.302 983.65,997.058 C 983.436,996.814 983.271,996.521 983.155,996.179 C 983.039,995.837 982.981,995.456 982.981,995.036 C 982.981,994.572 983.045,994.16 983.173,993.8 C 983.301,993.441 983.478,993.137 983.704,992.889 C 983.93,992.641 984.198,992.452 984.508,992.322 C 984.818,992.192 985.157,992.127 985.525,992.127 Z" marker-start="none" marker-end="none"/>
    <path d="M 996.383,992.127 C 996.663,992.127 996.911,992.15 997.127,992.198 C 997.343,992.245 997.547,992.308 997.739,992.387 L 997.739,993.715 L 996.875,993.715 C 996.747,993.715 996.647,993.749 996.575,993.817 C 996.503,993.885 996.467,993.971 996.467,994.075 L 996.467,995.191 L 999.575,995.191 L 999.575,991.502 C 999.351,991.338 999.118,991.197 998.876,991.078 C 998.634,990.96 998.376,990.863 998.102,990.787 C 997.828,990.711 997.536,990.655 997.226,990.619 C 996.916,990.583 996.583,990.565 996.227,990.565 C 995.587,990.565 994.995,990.678 994.451,990.904 C 993.907,991.131 993.436,991.443 993.038,991.841 C 992.64,992.239 992.328,992.711 992.102,993.257 C 991.876,993.803 991.763,994.396 991.763,995.036 C 991.763,995.688 991.871,996.288 992.087,996.834 C 992.303,997.38 992.612,997.851 993.014,998.247 C 993.416,998.643 993.902,998.951 994.472,999.171 C 995.042,999.391 995.679,999.501 996.383,999.501 C 996.747,999.501 997.089,999.471 997.409,999.411 C 997.729,999.351 998.024,999.269 998.294,999.165 C 998.564,999.061 998.811,998.936 999.035,998.792 C 999.259,998.648 999.459,998.492 999.635,998.323 L 999.047,997.429 C 998.991,997.345 998.924,997.279 998.846,997.231 C 998.768,997.183 998.683,997.159 998.591,997.159 C 998.471,997.159 998.347,997.199 998.219,997.279 C 998.059,997.375 997.908,997.458 997.766,997.528 C 997.624,997.598 997.479,997.655 997.331,997.699 C 997.183,997.743 997.027,997.775 996.863,997.795 C 996.699,997.815 996.515,997.825 996.311,997.825 C 995.931,997.825 995.589,997.758 995.285,997.624 C 994.981,997.49 994.722,997.302 994.508,997.058 C 994.294,996.814 994.129,996.521 994.013,996.179 C 993.897,995.837 993.839,995.456 993.839,995.036 C 993.839,994.572 993.903,994.16 994.031,993.8 C 994.159,993.441 994.336,993.137 994.562,992.889 C 994.788,992.641 995.056,992.452 995.366,992.322 C 995.676,992.192 996.015,992.127 996.383,992.127 Z" marker-start="none" marker-end="none"/>
    <path d="M 1006.44,999.407 L 1006.44,997.846 L 1002.85,997.846 L 1002.85,995.804 L 1005.6,995.804 L 1005.6,994.304 L 1002.85,994.304 L 1002.85,992.224 L 1006.44,992.224 L 1006.44,990.662 L 1000.81,990.662 L 1000.81,999.407 L 1006.44,999.407 Z" marker-start="none" marker-end="none"/>
    <path d="M 1016.22,995.036 C 1016.22,994.404 1016.11,993.816 1015.89,993.272 C 1015.67,992.728 1015.37,992.255 1014.97,991.853 C 1014.57,991.451 1014.1,991.136 1013.54,990.907 C 1012.98,990.679 1012.36,990.565 1011.68,990.565 C 1011,990.565 1010.38,990.679 1009.82,990.907 C 1009.26,991.136 1008.78,991.451 1008.38,991.853 C 1007.99,992.255 1007.68,992.728 1007.46,993.272 C 1007.24,993.816 1007.13,994.404 1007.13,995.036 C 1007.13,995.668 1007.24,996.257 1007.46,996.801 C 1007.68,997.345 1007.99,997.817 1008.38,998.217 C 1008.78,998.617 1009.26,998.931 1009.82,999.159 C 1010.38,999.387 1011,999.501 1011.68,999.501 C 1012.36,999.501 1012.98,999.386 1013.54,999.156 C 1014.1,998.926 1014.57,998.611 1014.97,998.211 C 1015.37,997.811 1015.67,997.339 1015.89,996.795 C 1016.11,996.251 1016.22,995.664 1016.22,995.036 Z M 1014.14,995.036 C 1014.14,995.468 1014.09,995.857 1013.97,996.203 C 1013.86,996.549 1013.7,996.842 1013.49,997.082 C 1013.28,997.322 1013.02,997.505 1012.72,997.633 C 1012.42,997.761 1012.07,997.825 1011.68,997.825 C 1011.29,997.825 1010.94,997.761 1010.63,997.633 C 1010.33,997.505 1010.07,997.322 1009.86,997.082 C 1009.65,996.842 1009.49,996.549 1009.38,996.203 C 1009.27,995.857 1009.21,995.468 1009.21,995.036 C 1009.21,994.6 1009.27,994.209 1009.38,993.864 C 1009.49,993.518 1009.65,993.225 1009.86,992.985 C 1010.07,992.745 1010.33,992.562 1010.63,992.436 C 1010.94,992.31 1011.29,992.247 1011.68,992.247 C 1012.07,992.247 1012.42,992.31 1012.72,992.436 C 1013.02,992.562 1013.28,992.745 1013.49,992.985 C 1013.7,993.225 1013.86,993.518 1013.97,993.864 C 1014.09,994.209 1014.14,994.6 1014.14,995.036 Z" marker-start="none" marker-end="none"/>
   </g>
  </g>
 </g>
</svg>
