<?xml version="1.0" standalone="no"?>
<!DOCTYPE svg PUBLIC "-//W3C//DTD SVG 1.1//EN" "http://www.w3.org/Graphics/SVG/1.1/DTD/svg11.dtd">
<!--Generator: Xara Designer (www.xara.com), SVG filter version: 6.6.0.0-->
<svg fill="none" fill-rule="evenodd" stroke="black" stroke-width="0.501" stroke-linejoin="bevel" stroke-miterlimit="10" font-family="Times New Roman" font-size="16" style="font-variant-ligatures:none" xmlns:xlink="http://www.w3.org/1999/xlink" xmlns="http://www.w3.org/2000/svg" version="1.1" overflow="visible" width="107.718pt" height="53.866pt" viewBox="927.75 -720.941 107.718 53.866">
 <defs>
	</defs>
 <g id="Grid 36x36mm" transform="scale(1 -1)">
  <path d="M 927.75,682.289 L 927.75,705.727 C 927.75,714.125 934.565,720.941 942.962,720.941 L 1020.26,720.941 C 1028.65,720.941 1035.47,714.125 1035.47,705.727 L 1035.47,682.289 C 1035.47,673.891 1028.65,667.075 1020.26,667.075 L 942.962,667.075 C 934.565,667.075 927.75,673.891 927.75,682.289 Z" stroke="none" fill="#ffffff" stroke-width="0.802" stroke-linejoin="miter" marker-start="none" marker-end="none"/>
  <path d="M 928.599,683.016 L 928.599,705 C 928.599,713.331 935.361,720.092 943.69,720.092 L 1019.53,720.092 C 1027.86,720.092 1034.62,713.331 1034.62,705 L 1034.62,683.016 C 1034.62,674.685 1027.86,667.924 1019.53,667.924 L 943.69,667.924 C 935.361,667.924 928.599,674.685 928.599,683.016 Z" stroke="none" fill="#e5e5e5" stroke-width="0.8" stroke-linejoin="miter" marker-start="none" marker-end="none"/>
  <g id="Group" fill-rule="nonzero" stroke-linejoin="round" stroke-linecap="round" stroke="none" stroke-width="0.251" fill="#b2b2b2">
   <g id="Group_1">
    <path d="M 957.002,712.825 L 957.002,711.217 L 954.542,711.217 L 954.542,704.082 L 952.514,704.082 L 952.514,711.217 L 950.054,711.217 L 950.054,712.825 L 957.002,712.825 Z" marker-start="none" marker-end="none"/>
    <path d="M 965.02,704.08 L 963.448,704.08 C 963.272,704.08 963.127,704.121 963.013,704.203 C 962.899,704.285 962.82,704.39 962.776,704.518 L 962.26,706.043 L 958.936,706.043 L 958.42,704.518 C 958.38,704.406 958.302,704.305 958.186,704.215 C 958.07,704.125 957.928,704.08 957.76,704.08 L 956.176,704.08 L 959.56,712.824 L 961.636,712.824 L 965.02,704.08 Z M 959.404,707.423 L 961.792,707.423 L 960.988,709.78 C 960.936,709.93 960.875,710.106 960.805,710.309 C 960.735,710.512 960.666,710.732 960.598,710.968 C 960.534,710.728 960.468,710.505 960.4,710.3 C 960.332,710.096 960.268,709.918 960.208,709.769 L 959.404,707.423 Z" marker-start="none" marker-end="none"/>
    <path d="M 967.754,709.283 L 968.078,709.283 C 968.378,709.283 968.594,709.377 968.726,709.566 L 970.694,712.423 C 970.802,712.579 970.925,712.685 971.063,712.741 C 971.201,712.797 971.37,712.825 971.57,712.825 L 973.334,712.825 L 970.742,709.289 C 970.65,709.161 970.554,709.055 970.454,708.971 C 970.354,708.887 970.252,708.817 970.148,708.761 C 970.3,708.705 970.439,708.628 970.565,708.53 C 970.691,708.432 970.806,708.301 970.91,708.137 L 973.55,704.08 L 971.738,704.08 C 971.622,704.08 971.523,704.088 971.441,704.104 C 971.359,704.12 971.288,704.144 971.228,704.176 C 971.168,704.208 971.116,704.247 971.072,704.293 C 971.028,704.339 970.986,704.392 970.946,704.452 L 968.966,707.495 C 968.894,707.607 968.803,707.686 968.693,707.732 C 968.583,707.778 968.434,707.801 968.246,707.801 L 967.754,707.801 L 967.754,704.08 L 965.726,704.08 L 965.726,712.825 L 967.754,712.825 L 967.754,709.283 Z" marker-start="none" marker-end="none"/>
    <path d="M 979.92,712.825 L 979.92,711.264 L 976.332,711.264 L 976.332,709.222 L 979.08,709.222 L 979.08,707.722 L 976.332,707.722 L 976.332,705.642 L 979.92,705.642 L 979.92,704.08 L 974.292,704.08 L 974.292,712.825 L 979.92,712.825 Z" marker-start="none" marker-end="none"/>
    <path d="M 989.699,708.454 C 989.699,707.822 989.59,707.234 989.372,706.69 C 989.154,706.146 988.847,705.673 988.451,705.271 C 988.055,704.869 987.578,704.554 987.02,704.325 C 986.462,704.097 985.843,703.983 985.163,703.983 C 984.483,703.983 983.863,704.097 983.303,704.325 C 982.743,704.554 982.264,704.869 981.866,705.271 C 981.468,705.673 981.16,706.146 980.942,706.69 C 980.724,707.234 980.615,707.822 980.615,708.454 C 980.615,709.086 980.724,709.675 980.942,710.219 C 981.16,710.763 981.468,711.235 981.866,711.635 C 982.264,712.035 982.743,712.349 983.303,712.577 C 983.863,712.805 984.483,712.919 985.163,712.919 C 985.843,712.919 986.462,712.804 987.02,712.574 C 987.578,712.344 988.055,712.029 988.451,711.629 C 988.847,711.229 989.154,710.757 989.372,710.213 C 989.59,709.669 989.699,709.082 989.699,708.454 Z M 987.623,708.454 C 987.623,708.886 987.567,709.275 987.455,709.621 C 987.343,709.967 987.182,710.26 986.972,710.5 C 986.762,710.74 986.505,710.923 986.201,711.051 C 985.897,711.179 985.551,711.243 985.163,711.243 C 984.771,711.243 984.422,711.179 984.116,711.051 C 983.81,710.923 983.552,710.74 983.342,710.5 C 983.132,710.26 982.971,709.967 982.859,709.621 C 982.747,709.275 982.691,708.886 982.691,708.454 C 982.691,708.018 982.747,707.627 982.859,707.282 C 982.971,706.936 983.132,706.643 983.342,706.403 C 983.552,706.163 983.81,705.98 984.116,705.854 C 984.422,705.728 984.771,705.665 985.163,705.665 C 985.551,705.665 985.897,705.728 986.201,705.854 C 986.505,705.98 986.762,706.163 986.972,706.403 C 987.182,706.643 987.343,706.936 987.455,707.282 C 987.567,707.627 987.623,708.018 987.623,708.454 Z" marker-start="none" marker-end="none"/>
    <path d="M 989.589,712.824 L 991.221,712.824 C 991.397,712.824 991.541,712.784 991.653,712.703 C 991.765,712.623 991.845,712.516 991.893,712.384 L 993.585,707.678 C 993.661,707.473 993.738,707.249 993.816,707.008 C 993.894,706.767 993.967,706.514 994.035,706.248 C 994.091,706.514 994.156,706.767 994.23,707.008 C 994.304,707.249 994.377,707.473 994.449,707.678 L 996.129,712.384 C 996.169,712.496 996.247,712.598 996.363,712.688 C 996.479,712.779 996.621,712.824 996.789,712.824 L 998.433,712.824 L 994.929,704.08 L 993.093,704.08 L 989.589,712.824 Z" marker-start="none" marker-end="none"/>
    <path d="M 1004.78,712.825 L 1004.78,711.264 L 1001.19,711.264 L 1001.19,709.222 L 1003.94,709.222 L 1003.94,707.722 L 1001.19,707.722 L 1001.19,705.642 L 1004.78,705.642 L 1004.78,704.08 L 999.151,704.08 L 999.151,712.825 L 1004.78,712.825 Z" marker-start="none" marker-end="none"/>
    <path d="M 1007.96,707.314 L 1007.96,704.08 L 1005.93,704.08 L 1005.93,712.822 L 1008.77,712.822 C 1009.41,712.822 1009.95,712.757 1010.39,712.627 C 1010.84,712.497 1011.2,712.316 1011.48,712.084 C 1011.77,711.851 1011.97,711.577 1012.1,711.26 C 1012.23,710.944 1012.29,710.6 1012.29,710.227 C 1012.29,709.943 1012.25,709.675 1012.18,709.422 C 1012.1,709.17 1011.99,708.936 1011.84,708.722 C 1011.69,708.508 1011.5,708.317 1011.29,708.148 C 1011.07,707.98 1010.82,707.842 1010.53,707.734 C 1010.67,707.666 1010.8,707.582 1010.91,707.482 C 1011.03,707.382 1011.13,707.261 1011.22,707.117 L 1013.08,704.08 L 1011.25,704.08 C 1010.91,704.08 1010.66,704.208 1010.51,704.464 L 1009.06,707.002 C 1009,707.114 1008.92,707.194 1008.84,707.242 C 1008.75,707.291 1008.63,707.315 1008.47,707.314 L 1007.96,707.314 Z M 1007.96,708.712 L 1008.77,708.712 C 1009.05,708.712 1009.29,708.747 1009.48,708.817 C 1009.67,708.887 1009.83,708.984 1009.96,709.108 C 1010.08,709.232 1010.17,709.377 1010.23,709.543 C 1010.28,709.709 1010.31,709.888 1010.31,710.08 C 1010.31,710.465 1010.19,710.765 1009.94,710.981 C 1009.69,711.197 1009.3,711.305 1008.77,711.305 L 1007.96,711.305 L 1007.96,708.712 Z" marker-start="none" marker-end="none"/>
   </g>
   <g id="Group_2">
    <path d="M 957.441,691.945 C 957.489,691.945 957.537,691.935 957.585,691.917 C 957.633,691.899 957.679,691.867 957.723,691.822 L 958.527,690.958 C 958.175,690.505 957.734,690.163 957.204,689.933 C 956.674,689.703 956.047,689.587 955.323,689.587 C 954.659,689.587 954.064,689.7 953.538,689.926 C 953.012,690.153 952.566,690.465 952.2,690.863 C 951.834,691.261 951.553,691.733 951.357,692.279 C 951.161,692.825 951.063,693.418 951.063,694.058 C 951.063,694.71 951.175,695.31 951.399,695.856 C 951.623,696.402 951.936,696.873 952.338,697.269 C 952.74,697.665 953.221,697.973 953.781,698.193 C 954.341,698.413 954.959,698.523 955.635,698.523 C 955.963,698.523 956.272,698.494 956.562,698.436 C 956.852,698.378 957.123,698.298 957.375,698.196 C 957.627,698.094 957.859,697.971 958.071,697.829 C 958.283,697.687 958.471,697.53 958.635,697.357 L 957.951,696.439 C 957.907,696.383 957.855,696.332 957.795,696.286 C 957.735,696.24 957.651,696.217 957.543,696.217 C 957.471,696.217 957.403,696.233 957.339,696.265 C 957.275,696.297 957.207,696.336 957.135,696.382 C 957.063,696.428 956.984,696.478 956.898,696.532 C 956.812,696.586 956.71,696.636 956.592,696.682 C 956.474,696.728 956.336,696.767 956.178,696.799 C 956.02,696.831 955.835,696.847 955.623,696.847 C 955.255,696.847 954.919,696.782 954.615,696.652 C 954.311,696.522 954.05,696.336 953.832,696.094 C 953.614,695.852 953.444,695.559 953.322,695.215 C 953.2,694.871 953.139,694.485 953.139,694.057 C 953.139,693.609 953.2,693.211 953.322,692.863 C 953.444,692.515 953.61,692.222 953.82,691.983 C 954.03,691.746 954.275,691.565 954.555,691.44 C 954.835,691.316 955.135,691.254 955.455,691.254 C 955.639,691.254 955.807,691.263 955.959,691.281 C 956.111,691.299 956.252,691.33 956.382,691.374 C 956.512,691.418 956.636,691.475 956.754,691.545 C 956.872,691.615 956.991,691.702 957.111,691.807 C 957.159,691.847 957.211,691.88 957.267,691.906 C 957.323,691.932 957.381,691.945 957.441,691.945 Z" marker-start="none" marker-end="none"/>
    <path d="M 968.082,694.058 C 968.082,693.426 967.973,692.838 967.755,692.294 C 967.537,691.75 967.23,691.277 966.834,690.875 C 966.438,690.473 965.961,690.158 965.403,689.929 C 964.845,689.701 964.226,689.587 963.546,689.587 C 962.866,689.587 962.246,689.701 961.686,689.929 C 961.126,690.158 960.647,690.473 960.249,690.875 C 959.851,691.277 959.543,691.75 959.325,692.294 C 959.107,692.838 958.998,693.426 958.998,694.058 C 958.998,694.69 959.107,695.279 959.325,695.823 C 959.543,696.367 959.851,696.839 960.249,697.239 C 960.647,697.639 961.126,697.953 961.686,698.181 C 962.246,698.409 962.866,698.523 963.546,698.523 C 964.226,698.523 964.845,698.408 965.403,698.178 C 965.961,697.948 966.438,697.633 966.834,697.233 C 967.23,696.833 967.537,696.361 967.755,695.817 C 967.973,695.273 968.082,694.686 968.082,694.058 Z M 966.006,694.058 C 966.006,694.49 965.95,694.879 965.838,695.225 C 965.726,695.571 965.565,695.864 965.355,696.104 C 965.145,696.344 964.888,696.527 964.584,696.655 C 964.28,696.783 963.934,696.847 963.546,696.847 C 963.154,696.847 962.805,696.783 962.499,696.655 C 962.193,696.527 961.935,696.344 961.725,696.104 C 961.515,695.864 961.354,695.571 961.242,695.225 C 961.13,694.879 961.074,694.49 961.074,694.058 C 961.074,693.622 961.13,693.231 961.242,692.886 C 961.354,692.54 961.515,692.247 961.725,692.007 C 961.935,691.767 962.193,691.584 962.499,691.458 C 962.805,691.332 963.154,691.269 963.546,691.269 C 963.934,691.269 964.28,691.332 964.584,691.458 C 964.888,691.584 965.145,691.767 965.355,692.007 C 965.565,692.247 965.726,692.54 965.838,692.886 C 965.95,693.231 966.006,693.622 966.006,694.058 Z" marker-start="none" marker-end="none"/>
    <path d="M 973.522,693.654 C 973.602,693.501 973.679,693.342 973.753,693.177 C 973.827,693.012 973.898,692.843 973.966,692.669 C 974.034,692.847 974.106,693.019 974.182,693.186 C 974.258,693.353 974.336,693.515 974.416,693.672 L 976.66,698.119 C 976.7,698.195 976.741,698.254 976.783,698.297 C 976.825,698.339 976.872,698.37 976.924,698.39 C 976.976,698.41 977.035,698.421 977.101,698.421 C 977.167,698.421 977.244,698.421 977.332,698.421 L 978.88,698.421 L 978.88,689.684 L 977.092,689.684 L 977.092,694.647 C 977.092,694.887 977.104,695.148 977.128,695.428 L 974.812,691.004 C 974.74,690.866 974.643,690.761 974.521,690.69 C 974.399,690.62 974.26,690.584 974.104,690.584 L 973.828,690.584 C 973.672,690.584 973.533,690.62 973.411,690.69 C 973.289,690.761 973.192,690.866 973.12,691.004 L 970.792,695.434 C 970.808,695.296 970.82,695.159 970.828,695.023 C 970.836,694.886 970.84,694.761 970.84,694.647 L 970.84,689.684 L 969.052,689.684 L 969.052,698.421 L 970.6,698.421 C 970.688,698.421 970.765,698.421 970.831,698.421 C 970.897,698.421 970.956,698.41 971.008,698.39 C 971.06,698.37 971.107,698.339 971.149,698.297 C 971.191,698.254 971.232,698.195 971.272,698.119 L 973.522,693.654 Z" marker-start="none" marker-end="none"/>
    <path d="M 982.348,692.608 L 982.348,689.686 L 980.32,689.686 L 980.32,698.429 L 983.404,698.429 C 984.02,698.429 984.549,698.356 984.991,698.21 C 985.433,698.064 985.797,697.863 986.083,697.607 C 986.369,697.351 986.58,697.049 986.716,696.701 C 986.852,696.353 986.92,695.977 986.92,695.573 C 986.92,695.136 986.85,694.736 986.71,694.372 C 986.57,694.008 986.356,693.696 986.068,693.436 C 985.78,693.176 985.415,692.973 984.973,692.827 C 984.531,692.681 984.008,692.608 983.404,692.608 L 982.348,692.608 Z M 982.348,694.137 L 983.404,694.137 C 983.932,694.137 984.312,694.263 984.544,694.516 C 984.776,694.768 984.892,695.12 984.892,695.573 C 984.892,695.773 984.862,695.955 984.802,696.119 C 984.742,696.283 984.651,696.424 984.529,696.542 C 984.407,696.66 984.253,696.752 984.067,696.816 C 983.881,696.88 983.66,696.912 983.404,696.912 L 982.348,696.912 L 982.348,694.137 Z" marker-start="none" marker-end="none"/>
    <path d="M 995.094,689.684 L 993.522,689.684 C 993.346,689.684 993.201,689.725 993.087,689.807 C 992.973,689.889 992.894,689.994 992.85,690.122 L 992.334,691.647 L 989.01,691.647 L 988.494,690.122 C 988.454,690.01 988.376,689.909 988.26,689.819 C 988.144,689.729 988.002,689.684 987.834,689.684 L 986.25,689.684 L 989.634,698.428 L 991.71,698.428 L 995.094,689.684 Z M 989.478,693.027 L 991.866,693.027 L 991.062,695.384 C 991.01,695.534 990.949,695.71 990.879,695.913 C 990.809,696.116 990.74,696.336 990.672,696.572 C 990.608,696.332 990.542,696.109 990.474,695.904 C 990.406,695.7 990.342,695.522 990.282,695.373 L 989.478,693.027 Z" marker-start="none" marker-end="none"/>
    <path d="M 996.868,698.429 C 996.956,698.429 997.03,698.425 997.09,698.417 C 997.15,698.409 997.204,698.394 997.252,698.372 C 997.3,698.35 997.346,698.319 997.39,698.279 C 997.434,698.239 997.484,698.185 997.54,698.117 L 1001.69,692.867 C 1001.68,693.035 1001.66,693.198 1001.66,693.356 C 1001.65,693.514 1001.64,693.663 1001.64,693.803 L 1001.64,698.429 L 1003.43,698.429 L 1003.43,689.684 L 1002.38,689.684 C 1002.22,689.684 1002.09,689.708 1001.98,689.756 C 1001.87,689.804 1001.77,689.892 1001.67,690.02 L 997.546,695.228 C 997.558,695.076 997.568,694.927 997.576,694.781 C 997.584,694.635 997.588,694.498 997.588,694.37 L 997.588,689.684 L 995.8,689.684 L 995.8,698.429 L 996.868,698.429 Z" marker-start="none" marker-end="none"/>
    <path d="M 1009.23,692.957 L 1009.23,689.684 L 1007.2,689.684 L 1007.2,692.957 L 1004.03,698.428 L 1005.82,698.428 C 1005.99,698.428 1006.13,698.386 1006.24,698.303 C 1006.34,698.219 1006.43,698.112 1006.49,697.982 L 1007.73,695.392 C 1007.83,695.184 1007.92,694.992 1008,694.817 C 1008.09,694.642 1008.16,694.469 1008.22,694.298 C 1008.28,694.473 1008.36,694.648 1008.44,694.823 C 1008.52,694.998 1008.61,695.188 1008.71,695.392 L 1009.93,697.982 C 1009.96,698.035 1009.99,698.088 1010.03,698.141 C 1010.08,698.194 1010.12,698.242 1010.18,698.284 C 1010.23,698.327 1010.29,698.362 1010.36,698.388 C 1010.43,698.415 1010.51,698.428 1010.59,698.428 L 1012.39,698.428 L 1009.23,692.957 Z" marker-start="none" marker-end="none"/>
   </g>
   <g id="Group_3">
    <path d="M 953.967,676.891 C 954.239,676.891 954.482,676.936 954.696,677.026 C 954.91,677.116 955.091,677.245 955.239,677.413 C 955.387,677.581 955.5,677.786 955.578,678.028 C 955.656,678.27 955.695,678.545 955.695,678.853 L 955.695,684.032 L 957.723,684.032 L 957.723,678.852 C 957.723,678.316 957.636,677.824 957.462,677.376 C 957.288,676.928 957.039,676.542 956.715,676.218 C 956.391,675.894 955.997,675.642 955.533,675.461 C 955.069,675.281 954.547,675.191 953.967,675.191 C 953.383,675.191 952.859,675.281 952.395,675.461 C 951.931,675.642 951.537,675.894 951.213,676.218 C 950.889,676.542 950.641,676.928 950.469,677.376 C 950.297,677.824 950.211,678.316 950.211,678.852 L 950.211,684.032 L 952.239,684.032 L 952.239,678.859 C 952.239,678.551 952.278,678.276 952.356,678.034 C 952.434,677.792 952.547,677.586 952.695,677.416 C 952.843,677.246 953.024,677.116 953.238,677.026 C 953.452,676.936 953.695,676.891 953.967,676.891 Z" marker-start="none" marker-end="none"/>
    <path d="M 963.916,682.254 C 963.856,682.158 963.793,682.086 963.727,682.038 C 963.661,681.99 963.576,681.966 963.472,681.966 C 963.38,681.966 963.281,681.995 963.175,682.053 C 963.069,682.111 962.949,682.176 962.815,682.248 C 962.681,682.32 962.528,682.385 962.356,682.443 C 962.184,682.501 961.988,682.53 961.768,682.53 C 961.388,682.53 961.105,682.449 960.919,682.287 C 960.733,682.125 960.64,681.906 960.64,681.63 C 960.64,681.454 960.696,681.308 960.808,681.192 C 960.92,681.076 961.067,680.976 961.249,680.892 C 961.431,680.808 961.639,680.731 961.873,680.661 C 962.107,680.591 962.346,680.513 962.59,680.427 C 962.834,680.341 963.073,680.24 963.307,680.124 C 963.541,680.008 963.749,679.86 963.931,679.68 C 964.113,679.5 964.26,679.281 964.372,679.023 C 964.484,678.765 964.54,678.454 964.54,678.09 C 964.54,677.686 964.47,677.308 964.33,676.956 C 964.19,676.604 963.987,676.297 963.721,676.035 C 963.455,675.773 963.127,675.567 962.737,675.416 C 962.347,675.266 961.904,675.191 961.408,675.191 C 961.136,675.191 960.859,675.219 960.577,675.275 C 960.295,675.331 960.022,675.41 959.758,675.512 C 959.494,675.615 959.246,675.736 959.014,675.876 C 958.782,676.016 958.58,676.172 958.408,676.344 L 959.008,677.292 C 959.052,677.364 959.114,677.422 959.194,677.466 C 959.274,677.51 959.36,677.532 959.452,677.532 C 959.572,677.532 959.693,677.494 959.815,677.418 C 959.937,677.342 960.075,677.258 960.229,677.166 C 960.383,677.074 960.56,676.99 960.76,676.914 C 960.96,676.838 961.196,676.8 961.468,676.8 C 961.836,676.8 962.122,676.881 962.326,677.043 C 962.53,677.205 962.632,677.462 962.632,677.814 C 962.632,678.018 962.576,678.184 962.464,678.312 C 962.352,678.44 962.205,678.546 962.023,678.63 C 961.841,678.714 961.634,678.788 961.402,678.852 C 961.17,678.916 960.932,678.987 960.688,679.065 C 960.444,679.143 960.206,679.239 959.974,679.353 C 959.742,679.467 959.535,679.617 959.353,679.803 C 959.171,679.989 959.024,680.221 958.912,680.499 C 958.8,680.778 958.744,681.121 958.744,681.529 C 958.744,681.857 958.81,682.177 958.942,682.489 C 959.074,682.801 959.268,683.079 959.524,683.323 C 959.78,683.567 960.094,683.762 960.466,683.908 C 960.838,684.054 961.264,684.127 961.744,684.127 C 962.012,684.127 962.273,684.106 962.527,684.064 C 962.781,684.022 963.022,683.96 963.25,683.878 C 963.478,683.796 963.691,683.698 963.889,683.584 C 964.087,683.47 964.264,683.341 964.42,683.197 L 963.916,682.254 Z" marker-start="none" marker-end="none"/>
    <path d="M 967.768,675.288 L 965.728,675.288 L 965.728,684.033 L 967.768,684.033 L 967.768,675.288 Z" marker-start="none" marker-end="none"/>
    <path d="M 970.454,684.033 C 970.542,684.033 970.616,684.029 970.676,684.021 C 970.736,684.013 970.79,683.998 970.838,683.976 C 970.886,683.954 970.932,683.923 970.976,683.883 C 971.02,683.843 971.07,683.789 971.126,683.721 L 975.278,678.471 C 975.262,678.639 975.25,678.802 975.242,678.96 C 975.234,679.118 975.23,679.267 975.23,679.407 L 975.23,684.033 L 977.018,684.033 L 977.018,675.288 L 975.962,675.288 C 975.806,675.288 975.674,675.312 975.566,675.36 C 975.458,675.408 975.354,675.496 975.254,675.624 L 971.132,680.832 C 971.144,680.68 971.154,680.531 971.162,680.385 C 971.17,680.239 971.174,680.102 971.174,679.974 L 971.174,675.288 L 969.386,675.288 L 969.386,684.033 L 970.454,684.033 Z" marker-start="none" marker-end="none"/>
    <path d="M 982.572,676.753 C 982.852,676.753 983.1,676.776 983.316,676.824 C 983.532,676.871 983.736,676.934 983.928,677.013 L 983.928,678.341 L 983.064,678.341 C 982.936,678.341 982.836,678.375 982.764,678.443 C 982.692,678.511 982.656,678.597 982.656,678.701 L 982.656,679.817 L 985.764,679.817 L 985.764,676.128 C 985.54,675.964 985.307,675.823 985.065,675.704 C 984.823,675.586 984.565,675.489 984.291,675.413 C 984.017,675.337 983.725,675.281 983.415,675.245 C 983.105,675.209 982.772,675.191 982.416,675.191 C 981.776,675.191 981.184,675.304 980.64,675.53 C 980.096,675.757 979.625,676.069 979.227,676.467 C 978.829,676.865 978.517,677.337 978.291,677.883 C 978.065,678.429 977.952,679.022 977.952,679.662 C 977.952,680.314 978.06,680.914 978.276,681.46 C 978.492,682.006 978.801,682.477 979.203,682.873 C 979.605,683.269 980.091,683.577 980.661,683.797 C 981.231,684.017 981.868,684.127 982.572,684.127 C 982.936,684.127 983.278,684.097 983.598,684.037 C 983.918,683.977 984.213,683.895 984.483,683.791 C 984.753,683.687 985,683.562 985.224,683.418 C 985.448,683.274 985.648,683.118 985.824,682.949 L 985.236,682.055 C 985.18,681.971 985.113,681.905 985.035,681.857 C 984.957,681.809 984.872,681.785 984.78,681.785 C 984.66,681.785 984.536,681.825 984.408,681.905 C 984.248,682.001 984.097,682.084 983.955,682.154 C 983.813,682.224 983.668,682.281 983.52,682.325 C 983.372,682.369 983.216,682.401 983.052,682.421 C 982.888,682.441 982.704,682.451 982.5,682.451 C 982.12,682.451 981.778,682.384 981.474,682.25 C 981.17,682.116 980.911,681.928 980.697,681.684 C 980.483,681.44 980.318,681.147 980.202,680.805 C 980.086,680.463 980.028,680.082 980.028,679.662 C 980.028,679.198 980.092,678.786 980.22,678.426 C 980.348,678.067 980.525,677.763 980.751,677.515 C 980.977,677.267 981.245,677.078 981.555,676.948 C 981.865,676.818 982.204,676.753 982.572,676.753 Z" marker-start="none" marker-end="none"/>
    <path d="M 993.43,676.753 C 993.71,676.753 993.958,676.776 994.174,676.824 C 994.39,676.871 994.594,676.934 994.786,677.013 L 994.786,678.341 L 993.922,678.341 C 993.794,678.341 993.694,678.375 993.622,678.443 C 993.55,678.511 993.514,678.597 993.514,678.701 L 993.514,679.817 L 996.622,679.817 L 996.622,676.128 C 996.398,675.964 996.165,675.823 995.923,675.704 C 995.681,675.586 995.423,675.489 995.149,675.413 C 994.875,675.337 994.583,675.281 994.273,675.245 C 993.963,675.209 993.63,675.191 993.274,675.191 C 992.634,675.191 992.042,675.304 991.498,675.53 C 990.954,675.757 990.483,676.069 990.085,676.467 C 989.687,676.865 989.375,677.337 989.149,677.883 C 988.923,678.429 988.81,679.022 988.81,679.662 C 988.81,680.314 988.918,680.914 989.134,681.46 C 989.35,682.006 989.659,682.477 990.061,682.873 C 990.463,683.269 990.949,683.577 991.519,683.797 C 992.089,684.017 992.726,684.127 993.43,684.127 C 993.794,684.127 994.136,684.097 994.456,684.037 C 994.776,683.977 995.071,683.895 995.341,683.791 C 995.611,683.687 995.858,683.562 996.082,683.418 C 996.306,683.274 996.506,683.118 996.682,682.949 L 996.094,682.055 C 996.038,681.971 995.971,681.905 995.893,681.857 C 995.815,681.809 995.73,681.785 995.638,681.785 C 995.518,681.785 995.394,681.825 995.266,681.905 C 995.106,682.001 994.955,682.084 994.813,682.154 C 994.671,682.224 994.526,682.281 994.378,682.325 C 994.23,682.369 994.074,682.401 993.91,682.421 C 993.746,682.441 993.562,682.451 993.358,682.451 C 992.978,682.451 992.636,682.384 992.332,682.25 C 992.028,682.116 991.769,681.928 991.555,681.684 C 991.341,681.44 991.176,681.147 991.06,680.805 C 990.944,680.463 990.886,680.082 990.886,679.662 C 990.886,679.198 990.95,678.786 991.078,678.426 C 991.206,678.067 991.383,677.763 991.609,677.515 C 991.835,677.267 992.103,677.078 992.413,676.948 C 992.723,676.818 993.062,676.753 993.43,676.753 Z" marker-start="none" marker-end="none"/>
    <path d="M 1003.49,684.033 L 1003.49,682.472 L 999.897,682.472 L 999.897,680.43 L 1002.65,680.43 L 1002.65,678.93 L 999.897,678.93 L 999.897,676.85 L 1003.49,676.85 L 1003.49,675.288 L 997.857,675.288 L 997.857,684.033 L 1003.49,684.033 Z" marker-start="none" marker-end="none"/>
    <path d="M 1013.26,679.662 C 1013.26,679.03 1013.16,678.442 1012.94,677.898 C 1012.72,677.354 1012.41,676.881 1012.02,676.479 C 1011.62,676.077 1011.14,675.762 1010.59,675.533 C 1010.03,675.305 1009.41,675.191 1008.73,675.191 C 1008.05,675.191 1007.43,675.305 1006.87,675.533 C 1006.31,675.762 1005.83,676.077 1005.43,676.479 C 1005.03,676.881 1004.73,677.354 1004.51,677.898 C 1004.29,678.442 1004.18,679.03 1004.18,679.662 C 1004.18,680.294 1004.29,680.883 1004.51,681.427 C 1004.73,681.971 1005.03,682.443 1005.43,682.843 C 1005.83,683.243 1006.31,683.557 1006.87,683.785 C 1007.43,684.013 1008.05,684.127 1008.73,684.127 C 1009.41,684.127 1010.03,684.012 1010.59,683.782 C 1011.14,683.552 1011.62,683.237 1012.02,682.837 C 1012.41,682.437 1012.72,681.965 1012.94,681.421 C 1013.16,680.877 1013.26,680.29 1013.26,679.662 Z M 1011.19,679.662 C 1011.19,680.094 1011.13,680.483 1011.02,680.829 C 1010.91,681.175 1010.75,681.468 1010.54,681.708 C 1010.33,681.948 1010.07,682.131 1009.77,682.259 C 1009.46,682.387 1009.12,682.451 1008.73,682.451 C 1008.34,682.451 1007.99,682.387 1007.68,682.259 C 1007.38,682.131 1007.12,681.948 1006.91,681.708 C 1006.7,681.468 1006.54,681.175 1006.42,680.829 C 1006.31,680.483 1006.26,680.094 1006.26,679.662 C 1006.26,679.226 1006.31,678.835 1006.42,678.49 C 1006.54,678.144 1006.7,677.851 1006.91,677.611 C 1007.12,677.371 1007.38,677.188 1007.68,677.062 C 1007.99,676.936 1008.34,676.873 1008.73,676.873 C 1009.12,676.873 1009.46,676.936 1009.77,677.062 C 1010.07,677.188 1010.33,677.371 1010.54,677.611 C 1010.75,677.851 1010.91,678.144 1011.02,678.49 C 1011.13,678.835 1011.19,679.226 1011.19,679.662 Z" marker-start="none" marker-end="none"/>
   </g>
  </g>
 </g>
</svg>
