<?xml version="1.0" standalone="no"?>
<!DOCTYPE svg PUBLIC "-//W3C//DTD SVG 1.1//EN" "http://www.w3.org/Graphics/SVG/1.1/DTD/svg11.dtd">
<!--Generator: Xara Designer (www.xara.com), SVG filter version: 6.6.0.0-->
<svg fill="none" fill-rule="evenodd" stroke="black" stroke-width="0.501" stroke-linejoin="bevel" stroke-miterlimit="10" font-family="Times New Roman" font-size="16" style="font-variant-ligatures:none" xmlns:xlink="http://www.w3.org/1999/xlink" xmlns="http://www.w3.org/2000/svg" version="1.1" overflow="visible" width="107.72pt" height="215.438pt" viewBox="3857.32 -1600.28 107.72 215.438">
 <defs>
	</defs>
 <g id="Grid 36x36mm" transform="scale(1 -1)"/>
 <g id="Layer 2 - grids" transform="scale(1 -1)"/>
 <g id="Layer 1" transform="scale(1 -1)">
  <path d="M 3858.21,1400.79 L 3858.21,1584.34 C 3858.21,1592.67 3864.97,1599.43 3873.3,1599.43 L 3949.06,1599.43 C 3957.39,1599.43 3964.15,1592.67 3964.15,1584.34 L 3964.15,1400.79 C 3964.15,1392.46 3957.39,1385.69 3949.06,1385.69 L 3873.3,1385.69 C 3864.97,1385.69 3858.21,1392.46 3858.21,1400.79 Z" fill="#00bf02" stroke-linejoin="miter" stroke-width="0.801" stroke="none" marker-start="none" marker-end="none"/>
  <path d="M 3857.32,1400.06 L 3857.32,1585.07 C 3857.32,1593.46 3864.13,1600.28 3872.53,1600.28 L 3949.83,1600.28 C 3958.22,1600.28 3965.04,1593.46 3965.04,1585.07 L 3965.04,1400.06 C 3965.04,1399.01 3964.93,1397.98 3964.73,1396.99 C 3963.51,1391.05 3958.83,1386.37 3952.89,1385.15 C 3951.9,1384.95 3950.88,1384.84 3949.83,1384.84 L 3872.53,1384.84 C 3864.13,1384.84 3857.32,1391.66 3857.32,1400.06 Z M 3964.15,1400.79 L 3964.15,1584.34 C 3964.15,1592.67 3957.39,1599.43 3949.06,1599.43 L 3873.3,1599.43 C 3864.97,1599.43 3858.21,1592.67 3858.21,1584.34 L 3858.21,1400.79 C 3858.21,1392.46 3864.97,1385.69 3873.3,1385.69 L 3949.06,1385.69 C 3957.39,1385.69 3964.15,1392.46 3964.15,1400.79 Z" stroke-linejoin="miter" stroke-width="0.802" stroke="none" fill="#4c4c4c" marker-start="none" marker-end="none"/>
  <g id="Group" stroke-linejoin="miter" stroke-linecap="round" stroke="none" stroke-width="0.034">
   <path d="M 3932.32,1490.93 L 3932.32,1480.76 L 3932.33,1480.76 C 3932.33,1478.23 3931.31,1475.71 3929.3,1473.87 C 3927.51,1472.24 3925.25,1471.43 3923.01,1471.43 L 3923.01,1471.44 L 3912.83,1471.44 L 3912.83,1468.64 L 3923.01,1468.64 L 3923.01,1468.64 C 3925.93,1468.64 3928.86,1469.68 3931.18,1471.8 C 3933.8,1474.19 3935.13,1477.48 3935.13,1480.76 L 3935.13,1480.76 L 3935.13,1490.93 L 3932.32,1490.93 Z" fill="#11a7e0" marker-start="none" marker-end="none"/>
   <path d="M 3939.78,1490.9 L 3939.78,1480.72 L 3939.8,1480.72 C 3939.8,1476.17 3937.95,1471.63 3934.32,1468.32 C 3931.11,1465.38 3927.05,1463.93 3923.01,1463.93 L 3923.01,1463.95 L 3912.83,1463.95 L 3912.83,1461.14 L 3923.01,1461.14 C 3927.72,1461.14 3932.46,1462.83 3936.21,1466.25 C 3940.45,1470.12 3942.59,1475.41 3942.59,1480.72 L 3942.6,1480.72 L 3942.6,1490.9 L 3939.78,1490.9 Z" fill="#ffcd36" marker-start="none" marker-end="none"/>
   <path d="M 3943.51,1490.89 L 3943.51,1480.72 L 3943.53,1480.72 C 3943.53,1475.15 3941.27,1469.61 3936.84,1465.57 C 3932.91,1461.97 3927.95,1460.2 3923.01,1460.2 L 3923.01,1460.22 L 3912.83,1460.22 L 3912.83,1457.41 L 3923.01,1457.41 C 3928.63,1457.41 3934.26,1459.42 3938.73,1463.5 C 3943.77,1468.09 3946.32,1474.4 3946.33,1480.72 L 3946.33,1490.89 L 3943.51,1490.89 Z" fill="#ff3718" marker-start="none" marker-end="none"/>
   <path d="M 3936.05,1490.92 L 3936.05,1480.75 L 3936.07,1480.75 C 3936.06,1477.21 3934.63,1473.68 3931.81,1471.1 C 3929.31,1468.82 3926.15,1467.69 3923.01,1467.69 L 3912.83,1467.69 L 3912.83,1464.88 L 3923.01,1464.88 L 3923.01,1464.89 C 3926.82,1464.89 3930.66,1466.26 3933.7,1469.04 C 3937.13,1472.16 3938.86,1476.45 3938.86,1480.75 L 3938.86,1490.92 L 3936.05,1490.92 Z" fill="#00d702" marker-start="none" marker-end="none"/>
   <path d="M 3932.32,1494.23 L 3932.32,1504.41 L 3932.33,1504.41 C 3932.33,1506.93 3931.31,1509.45 3929.3,1511.29 C 3927.51,1512.92 3925.25,1513.73 3923,1513.73 L 3923,1513.73 L 3912.83,1513.73 L 3912.83,1516.53 L 3923,1516.53 L 3923,1516.53 C 3925.93,1516.53 3928.86,1515.48 3931.18,1513.36 C 3933.8,1510.97 3935.13,1507.69 3935.13,1504.41 L 3935.13,1504.41 L 3935.13,1494.23 L 3932.32,1494.23 Z" fill="#11a7e0" marker-start="none" marker-end="none"/>
   <path d="M 3939.78,1494.23 L 3939.78,1504.41 L 3939.8,1504.41 C 3939.8,1508.95 3937.95,1513.5 3934.33,1516.81 C 3931.11,1519.74 3927.05,1521.19 3923,1521.19 L 3923,1521.17 L 3912.83,1521.17 L 3912.83,1523.99 L 3923,1523.99 C 3927.72,1523.99 3932.46,1522.3 3936.21,1518.87 C 3940.44,1515.01 3942.59,1509.71 3942.59,1504.41 L 3942.6,1504.41 L 3942.6,1494.23 L 3939.78,1494.23 Z" fill="#ffcd36" marker-start="none" marker-end="none"/>
   <path d="M 3943.51,1494.23 L 3943.51,1504.41 L 3943.53,1504.41 C 3943.53,1509.97 3941.27,1515.52 3936.84,1519.56 C 3932.91,1523.15 3927.95,1524.92 3923,1524.92 L 3923,1524.9 L 3912.83,1524.9 L 3912.83,1527.71 L 3923,1527.71 C 3928.63,1527.72 3934.26,1525.71 3938.73,1521.63 C 3943.77,1517.03 3946.32,1510.73 3946.33,1504.41 L 3946.33,1494.23 L 3943.51,1494.23 Z" fill="#ff3718" marker-start="none" marker-end="none"/>
   <path d="M 3936.05,1494.23 L 3936.05,1504.41 L 3936.07,1504.41 C 3936.06,1507.94 3934.63,1511.48 3931.81,1514.05 C 3929.31,1516.34 3926.15,1517.46 3923,1517.46 L 3912.83,1517.46 L 3912.83,1520.28 L 3923,1520.28 L 3923,1520.26 C 3926.83,1520.26 3930.66,1518.89 3933.7,1516.12 C 3937.13,1512.99 3938.86,1508.7 3938.86,1504.41 L 3938.86,1494.23 L 3936.05,1494.23 Z" fill="#00d702" marker-start="none" marker-end="none"/>
   <path d="M 3909.52,1513.65 L 3899.34,1513.65 L 3899.34,1513.67 C 3896.82,1513.67 3894.3,1512.64 3892.46,1510.63 C 3890.83,1508.84 3890.02,1506.59 3890.02,1504.34 L 3890.03,1504.34 L 3890.03,1494.17 L 3887.22,1494.17 L 3887.22,1504.34 L 3887.22,1504.34 C 3887.22,1507.26 3888.27,1510.19 3890.38,1512.52 C 3892.78,1515.13 3896.06,1516.46 3899.34,1516.46 L 3899.34,1516.47 L 3909.52,1516.47 L 3909.52,1513.65 Z" fill="#11a7e0" marker-start="none" marker-end="none"/>
   <path d="M 3909.52,1521.11 L 3899.34,1521.11 L 3899.34,1521.13 C 3894.79,1521.13 3890.25,1519.28 3886.95,1515.66 C 3884.01,1512.44 3882.56,1508.38 3882.56,1504.34 L 3882.58,1504.34 L 3882.58,1494.17 L 3879.76,1494.17 L 3879.76,1504.34 C 3879.76,1509.06 3881.45,1513.79 3884.88,1517.54 C 3888.74,1521.77 3894.04,1523.93 3899.34,1523.93 L 3899.34,1523.93 L 3909.52,1523.93 L 3909.52,1521.11 Z" fill="#ffcd36" marker-start="none" marker-end="none"/>
   <path d="M 3909.52,1524.84 L 3899.34,1524.84 L 3899.34,1524.86 C 3893.78,1524.86 3888.24,1522.61 3884.19,1518.17 C 3880.6,1514.24 3878.83,1509.28 3878.83,1504.34 L 3878.85,1504.34 L 3878.85,1494.17 L 3876.03,1494.17 L 3876.03,1504.34 C 3876.03,1509.96 3878.04,1515.59 3882.12,1520.06 C 3886.72,1525.1 3893.02,1527.65 3899.34,1527.66 L 3909.52,1527.66 L 3909.52,1524.84 Z" fill="#ff3718" marker-start="none" marker-end="none"/>
   <path d="M 3909.52,1517.38 L 3899.34,1517.38 L 3899.34,1517.4 C 3895.81,1517.4 3892.28,1515.96 3889.7,1513.14 C 3887.41,1510.64 3886.28,1507.48 3886.29,1504.34 L 3886.29,1494.17 L 3883.47,1494.17 L 3883.47,1504.34 L 3883.49,1504.34 C 3883.49,1508.16 3884.86,1511.99 3887.63,1515.03 C 3890.76,1518.45 3895.05,1520.19 3899.34,1520.19 L 3909.52,1520.19 L 3909.52,1517.38 Z" fill="#00d702" marker-start="none" marker-end="none"/>
   <path d="M 3909.52,1471.45 L 3899.34,1471.45 L 3899.34,1471.43 C 3896.82,1471.43 3894.3,1472.46 3892.46,1474.47 C 3890.83,1476.26 3890.02,1478.52 3890.02,1480.76 L 3890.03,1480.76 L 3890.03,1490.93 L 3887.22,1490.93 L 3887.22,1480.76 L 3887.22,1480.76 C 3887.22,1477.84 3888.27,1474.91 3890.38,1472.58 C 3892.78,1469.97 3896.06,1468.64 3899.34,1468.64 L 3899.34,1468.63 L 3909.52,1468.63 L 3909.52,1471.45 Z" fill="#11a7e0" marker-start="none" marker-end="none"/>
   <path d="M 3909.52,1463.99 L 3899.34,1463.99 L 3899.34,1463.97 C 3894.79,1463.97 3890.25,1465.82 3886.95,1469.44 C 3884.01,1472.66 3882.56,1476.72 3882.56,1480.76 L 3882.58,1480.76 L 3882.58,1490.93 L 3879.76,1490.93 L 3879.76,1480.76 C 3879.76,1476.04 3881.45,1471.31 3884.88,1467.56 C 3888.74,1463.33 3894.04,1461.18 3899.34,1461.18 L 3899.34,1461.17 L 3909.52,1461.17 L 3909.52,1463.99 Z" fill="#ffcd36" marker-start="none" marker-end="none"/>
   <path d="M 3909.52,1460.26 L 3899.34,1460.26 L 3899.34,1460.24 C 3893.78,1460.24 3888.24,1462.49 3884.19,1466.93 C 3880.6,1470.86 3878.83,1475.82 3878.83,1480.76 L 3878.85,1480.76 L 3878.85,1490.93 L 3876.03,1490.93 L 3876.03,1480.76 C 3876.03,1475.14 3878.04,1469.51 3882.12,1465.04 C 3886.72,1460 3893.02,1457.45 3899.34,1457.44 L 3909.52,1457.44 L 3909.52,1460.26 Z" fill="#ff3718" marker-start="none" marker-end="none"/>
   <path d="M 3909.52,1467.72 L 3899.34,1467.72 L 3899.34,1467.7 C 3895.81,1467.7 3892.28,1469.14 3889.7,1471.96 C 3887.41,1474.46 3886.28,1477.62 3886.29,1480.76 L 3886.29,1490.93 L 3883.47,1490.93 L 3883.47,1480.76 L 3883.49,1480.76 C 3883.49,1476.94 3884.86,1473.11 3887.63,1470.07 C 3890.76,1466.65 3895.05,1464.91 3899.34,1464.91 L 3909.52,1464.91 L 3909.52,1467.72 Z" fill="#00d702" marker-start="none" marker-end="none"/>
  </g>
  <g id="Group_1" fill="#ffffff" fill-rule="nonzero" stroke-linejoin="round" stroke-linecap="round" stroke="none" stroke-width="0.669">
   <g id="Group_2">
    <path d="M 3903.63,1482.81 L 3903.63,1502.31 L 3910.8,1502.31 C 3912.15,1502.31 3913.3,1502.19 3914.24,1501.94 C 3915.19,1501.69 3915.96,1501.34 3916.56,1500.88 C 3917.16,1500.43 3917.59,1499.87 3917.87,1499.22 C 3918.14,1498.57 3918.27,1497.84 3918.27,1497.04 C 3918.27,1496.6 3918.21,1496.18 3918.09,1495.78 C 3917.96,1495.37 3917.77,1494.99 3917.5,1494.63 C 3917.23,1494.27 3916.89,1493.95 3916.47,1493.66 C 3916.05,1493.37 3915.54,1493.12 3914.95,1492.91 C 3916.24,1492.59 3917.19,1492.09 3917.81,1491.39 C 3918.42,1490.68 3918.73,1489.78 3918.73,1488.69 C 3918.73,1487.86 3918.57,1487.08 3918.25,1486.37 C 3917.93,1485.66 3917.45,1485.03 3916.84,1484.5 C 3916.22,1483.97 3915.45,1483.56 3914.54,1483.26 C 3913.63,1482.96 3912.59,1482.81 3911.42,1482.81 L 3903.63,1482.81 Z M 3908.15,1491.08 L 3908.15,1486.22 L 3911.34,1486.22 C 3911.94,1486.22 3912.43,1486.3 3912.81,1486.45 C 3913.18,1486.6 3913.48,1486.8 3913.7,1487.04 C 3913.91,1487.28 3914.06,1487.55 3914.14,1487.86 C 3914.22,1488.16 3914.26,1488.47 3914.26,1488.78 C 3914.26,1489.14 3914.21,1489.46 3914.12,1489.74 C 3914.02,1490.03 3913.86,1490.27 3913.64,1490.47 C 3913.41,1490.66 3913.11,1490.82 3912.73,1490.92 C 3912.36,1491.03 3911.88,1491.08 3911.31,1491.08 L 3908.15,1491.08 Z M 3908.15,1494.11 L 3910.51,1494.11 C 3911.01,1494.11 3911.46,1494.15 3911.86,1494.22 C 3912.26,1494.29 3912.61,1494.41 3912.89,1494.59 C 3913.17,1494.77 3913.38,1495.02 3913.53,1495.33 C 3913.68,1495.64 3913.75,1496.03 3913.75,1496.51 C 3913.75,1496.97 3913.69,1497.36 3913.58,1497.66 C 3913.46,1497.97 3913.28,1498.22 3913.04,1498.41 C 3912.8,1498.59 3912.49,1498.73 3912.12,1498.81 C 3911.75,1498.89 3911.31,1498.93 3910.8,1498.93 L 3908.15,1498.93 L 3908.15,1494.11 Z" marker-start="none" marker-end="none"/>
   </g>
  </g>
 </g>
</svg>
