<?xml version="1.0" standalone="no"?>
<!DOCTYPE svg PUBLIC "-//W3C//DTD SVG 1.1//EN" "http://www.w3.org/Graphics/SVG/1.1/DTD/svg11.dtd">
<!--Generator: Xara Designer (www.xara.com), SVG filter version: 6.2.0.0-->
<svg stroke-width="0.501" stroke-linejoin="bevel" fill-rule="evenodd" xmlns:xlink="http://www.w3.org/1999/xlink" xmlns="http://www.w3.org/2000/svg" version="1.1" overflow="visible" width="215.434pt" height="215.434pt" viewBox="0 0 215.434 215.434">
 <defs>
	</defs>
 <g id="Document" fill="none" stroke="black" font-family="Times New Roman" font-size="16" transform="scale(1 -1)">
  <g id="Spread" transform="translate(0 -215.434)">
   <g id="Layer 1">
    <g id="Group">
     <path d="M 199.757,214.933 L 15.176,214.933 C 6.799,214.933 0,208.134 0,199.757 L 0,15.176 C 0,6.799 6.799,0 15.176,0 L 199.757,0 C 208.134,0 214.933,6.799 214.933,15.176 L 214.933,199.757 C 214.933,208.134 208.134,214.933 199.757,214.933 Z" stroke="#999999" fill="#ffffff" stroke-linejoin="miter" marker-start="none" marker-end="none"/>
     <g id="Group_1" stroke="#30336b" stroke-linejoin="miter" stroke-linecap="round">
      <path d="M 15.549,68.362 L 15.549,34.47 L 119.137,34.47 L 119.137,68.362 L 15.549,68.362 Z" fill="#30336b" stroke-width="1.738" marker-start="none" marker-end="none" stroke-miterlimit="79.8403193612775"/>
      <path d="M 15.549,69.705 L 15.549,59.895 C 15.549,57.324 17.633,55.247 20.195,55.247 L 114.487,55.247 C 117.049,55.247 119.137,57.324 119.137,59.895 L 119.137,69.705 C 119.137,72.281 117.049,74.359 114.487,74.359 L 20.195,74.359 C 17.633,74.359 15.549,72.281 15.549,69.705 Z" fill="#30336b" stroke-width="1.738" marker-start="none" marker-end="none" stroke-miterlimit="79.8403193612775"/>
      <path d="M 16.246,40.812 L 16.246,23.167 C 16.246,18.554 19.99,14.808 24.608,14.808 L 191.654,14.808 C 196.267,14.808 200.015,18.554 200.015,23.167 L 200.015,40.812 C 200.015,45.43 196.267,49.178 191.654,49.178 L 24.608,49.178 C 19.99,49.178 16.246,45.43 16.246,40.812 Z" fill="#ffffff" stroke-width="3.13" marker-start="none" marker-end="none" stroke-miterlimit="79.8403193612775"/>
     </g>
     <g id="Group_2" stroke-linejoin="miter" stroke-miterlimit="79.8403193612775">
      <path d="M 59.5,101.396 C 53.6,108.374 54.479,118.834 61.474,124.743 C 68.456,130.635 78.909,129.756 84.813,122.769 C 90.722,115.777 89.836,105.323 82.839,99.418 C 75.857,93.523 65.4,94.402 59.5,101.396 Z" stroke="none" fill="#000000" stroke-width="0.686" marker-start="none" marker-end="none" stroke-miterlimit="19.9600798403194"/>
      <path d="M 60.278,102.005 C 54.387,109.003 55.259,119.462 62.252,125.355 C 69.241,131.264 79.693,130.381 85.609,123.388 C 91.506,116.406 90.621,105.954 83.627,100.049 C 76.648,94.143 66.184,95.022 60.278,102.005 Z" stroke="#b2b2b2" stroke-width="3.752" marker-start="none" marker-end="none" stroke-miterlimit="19.9600798403194"/>
     </g>
     <g id="Group_3" stroke-linejoin="miter" stroke-miterlimit="79.8403193612775">
      <path d="M 18.815,101.383 C 12.915,108.372 13.794,118.84 20.791,124.731 C 27.774,130.642 38.228,129.759 44.13,122.771 C 50.041,115.782 49.155,105.322 42.157,99.418 C 35.174,93.519 24.715,94.402 18.815,101.383 Z" stroke="none" fill="#ffffff" stroke-width="0.689" marker-start="none" marker-end="none" stroke-miterlimit="19.9600798403194"/>
      <path d="M 19.595,102.018 C 13.702,109.01 14.575,119.456 21.567,125.369 C 28.558,131.253 39.013,130.381 44.926,123.393 C 50.824,116.406 49.94,105.94 42.946,100.04 C 35.965,94.141 25.5,95.019 19.595,102.018 Z" stroke="#55bae6" stroke-width="3.752" marker-start="none" marker-end="none" stroke-miterlimit="19.9600798403194"/>
     </g>
     <g id="Group_4" stroke-linejoin="miter" stroke-miterlimit="79.8403193612775">
      <path d="M 21.355,158.033 C 12.458,168.573 13.783,184.359 24.335,193.243 C 34.866,202.157 50.631,200.825 59.532,190.287 C 68.446,179.747 67.11,163.973 56.556,155.07 C 46.025,146.174 30.253,147.505 21.355,158.033 Z" stroke="none" fill="#ffffff" stroke-width="1.039" marker-start="none" marker-end="none" stroke-miterlimit="19.9600798403194"/>
      <path d="M 22.532,158.99 C 13.645,169.535 14.961,185.288 25.505,194.205 C 36.048,203.078 51.815,201.763 60.732,191.225 C 69.626,180.688 68.293,164.905 57.746,156.008 C 47.218,147.112 31.437,148.436 22.532,158.99 Z" stroke="#55bae6" stroke-width="5.658" marker-start="none" marker-end="none" stroke-miterlimit="19.9600798403194"/>
     </g>
     <g id="Group_5" fill-rule="nonzero" stroke-linejoin="round" stroke-linecap="round" stroke="none" stroke-width="0.485" fill="#b2b2b2" stroke-miterlimit="79.8403193612775">
      <g id="Group_6">
       <path d="M 72.396,119.957 C 73.097,119.957 73.721,119.858 74.267,119.659 C 74.812,119.461 75.274,119.192 75.651,118.853 C 76.027,118.514 76.313,118.122 76.508,117.675 C 76.703,117.229 76.801,116.758 76.801,116.263 C 76.801,115.814 76.755,115.418 76.664,115.075 C 76.573,114.733 76.438,114.437 76.26,114.186 C 76.081,113.935 75.86,113.722 75.597,113.546 C 75.334,113.37 75.033,113.224 74.696,113.106 C 76.268,112.562 77.054,111.495 77.054,109.907 C 77.054,109.155 76.917,108.501 76.645,107.943 C 76.372,107.385 76.006,106.922 75.548,106.553 C 75.09,106.183 74.559,105.906 73.955,105.721 C 73.351,105.536 72.72,105.444 72.064,105.444 C 71.389,105.444 70.788,105.517 70.261,105.663 C 69.735,105.809 69.267,106.037 68.858,106.345 C 68.449,106.654 68.09,107.048 67.781,107.529 C 67.473,108.01 67.205,108.581 66.977,109.244 L 68.322,109.791 C 68.439,109.844 68.554,109.879 68.668,109.899 C 68.782,109.918 68.894,109.928 69.004,109.928 C 69.212,109.928 69.399,109.887 69.565,109.806 C 69.73,109.725 69.855,109.606 69.94,109.45 C 70.232,108.91 70.542,108.518 70.87,108.275 C 71.199,108.031 71.583,107.909 72.025,107.909 C 72.363,107.909 72.657,107.966 72.907,108.08 C 73.157,108.193 73.365,108.339 73.531,108.518 C 73.697,108.697 73.822,108.901 73.906,109.128 C 73.991,109.356 74.033,109.587 74.033,109.821 C 74.033,110.126 74.012,110.401 73.97,110.645 C 73.927,110.889 73.809,111.099 73.614,111.274 C 73.419,111.45 73.125,111.585 72.732,111.679 C 72.339,111.773 71.791,111.82 71.09,111.82 L 71.09,113.905 C 71.681,113.905 72.158,113.95 72.522,114.041 C 72.886,114.132 73.167,114.257 73.365,114.417 C 73.563,114.576 73.695,114.769 73.76,114.997 C 73.825,115.224 73.857,115.474 73.857,115.747 C 73.857,116.306 73.723,116.737 73.453,117.039 C 73.183,117.341 72.772,117.493 72.22,117.493 C 71.993,117.493 71.785,117.46 71.596,117.395 C 71.408,117.33 71.239,117.242 71.09,117.132 C 70.94,117.021 70.812,116.891 70.705,116.742 C 70.598,116.592 70.512,116.43 70.447,116.254 C 70.343,115.962 70.211,115.751 70.052,115.621 C 69.893,115.491 69.677,115.425 69.404,115.425 C 69.339,115.425 69.269,115.429 69.194,115.435 C 69.12,115.442 69.043,115.451 68.965,115.464 L 67.367,115.747 C 67.471,116.455 67.671,117.073 67.966,117.599 C 68.262,118.125 68.629,118.564 69.068,118.915 C 69.506,119.265 70.008,119.527 70.573,119.699 C 71.138,119.871 71.746,119.957 72.396,119.957 Z" marker-start="none" marker-end="none"/>
      </g>
     </g>
     <g id="Group_7" fill-rule="nonzero" stroke-linejoin="round" stroke-linecap="round" stroke="none" stroke-width="0.485" fill="#000000" stroke-miterlimit="79.8403193612775">
      <g id="Group_8">
       <path d="M 36.227,118.553 C 36.227,118.345 36.194,118.157 36.129,117.988 C 36.065,117.819 35.962,117.671 35.822,117.545 C 35.683,117.418 35.499,117.32 35.272,117.252 C 35.044,117.184 34.772,117.15 34.453,117.15 L 31.062,117.15 L 30.662,114.8 C 30.929,114.846 31.185,114.88 31.432,114.903 C 31.679,114.926 31.919,114.937 32.153,114.937 C 32.9,114.937 33.56,114.823 34.132,114.596 C 34.703,114.369 35.184,114.058 35.574,113.665 C 35.964,113.272 36.258,112.811 36.456,112.281 C 36.654,111.752 36.753,111.185 36.753,110.58 C 36.753,109.82 36.618,109.126 36.349,108.499 C 36.079,107.872 35.704,107.332 35.223,106.877 C 34.742,106.422 34.169,106.07 33.503,105.819 C 32.837,105.569 32.108,105.444 31.315,105.444 C 30.854,105.444 30.414,105.492 29.995,105.588 C 29.576,105.684 29.183,105.813 28.816,105.976 C 28.448,106.139 28.109,106.328 27.797,106.543 C 27.485,106.757 27.203,106.985 26.949,107.228 L 27.885,108.497 C 27.982,108.629 28.096,108.73 28.226,108.799 C 28.356,108.869 28.496,108.903 28.645,108.903 C 28.84,108.903 29.023,108.85 29.196,108.743 C 29.368,108.635 29.556,108.518 29.761,108.392 C 29.965,108.265 30.204,108.15 30.477,108.046 C 30.75,107.942 31.088,107.89 31.491,107.89 C 31.893,107.89 32.238,107.956 32.524,108.09 C 32.81,108.223 33.042,108.405 33.22,108.635 C 33.399,108.866 33.529,109.136 33.61,109.444 C 33.691,109.753 33.732,110.083 33.732,110.434 C 33.732,111.122 33.537,111.647 33.147,112.008 C 32.758,112.368 32.205,112.548 31.491,112.548 C 30.854,112.548 30.23,112.411 29.62,112.137 L 27.748,112.695 L 28.957,119.8 L 36.227,119.8 L 36.227,118.553 Z" marker-start="none" marker-end="none"/>
      </g>
     </g>
     <g id="Group_9" fill="#ff3718" stroke-linecap="round" stroke="none">
      <path d="M 214.917,102.79 L 214.917,94.256 L 165.754,94.256 L 165.754,102.791 L 214.917,102.79 Z" stroke-width="0.103" stroke-linejoin="miter" marker-start="none" marker-end="none" stroke-miterlimit="79.8403193612775"/>
      <path d="M 115.312,123.022 C 127.579,109.583 144.393,102.754 161.266,102.751 L 161.266,94.271 C 142.094,94.277 122.981,102.027 109.047,117.296 C 96.674,130.857 90.572,147.934 90.577,164.957 L 99.063,164.957 C 99.056,149.975 104.425,134.948 115.312,123.022 Z" stroke-width="0.541" stroke-linejoin="round" marker-start="none" marker-end="none" stroke-miterlimit="79.8403193612775"/>
      <path d="M 94.804,202.91 L 96.922,199.865 L 99.044,196.813 L 99.097,196.812 L 99.097,169.535 L 90.561,169.536 L 90.561,196.812 L 92.681,199.865 L 94.804,202.91 Z" stroke-width="0.103" stroke-linejoin="miter" marker-start="none" marker-end="none" stroke-miterlimit="79.8403193612775"/>
     </g>
     <g id="Group_10" fill="#ffcd36" stroke-linecap="round" stroke="none">
      <path d="M 106.354,202.914 L 108.474,199.867 L 110.595,196.812 L 106.354,196.812 L 102.113,196.816 L 104.235,199.868 L 106.354,202.914 Z M 110.618,196.812 L 110.619,169.535 L 102.084,169.535 L 102.084,196.812 L 110.618,196.812 Z" stroke-width="0.103" stroke-linejoin="miter" marker-start="none" marker-end="none" stroke-miterlimit="79.8403193612775"/>
      <path d="M 123.666,130.644 C 133.706,119.653 147.461,114.066 161.266,114.06 L 161.266,105.58 C 145.158,105.585 129.109,112.099 117.4,124.927 C 107.006,136.313 101.886,150.656 101.889,164.956 L 110.375,164.957 C 110.365,152.7 114.76,140.408 123.666,130.644 Z" stroke-width="0.453" stroke-linejoin="round" marker-start="none" marker-end="none" stroke-miterlimit="79.8403193612775"/>
      <path d="M 214.917,114.092 L 214.917,105.561 L 165.754,105.561 L 165.754,114.093 L 214.917,114.092 Z" stroke-width="0.103" stroke-linejoin="miter" marker-start="none" marker-end="none" stroke-miterlimit="79.8403193612775"/>
     </g>
     <g id="Group_11" fill="#00d702" stroke-linecap="round" stroke="none">
      <path d="M 117.67,202.914 L 119.785,199.868 L 121.907,196.812 L 117.666,196.812 L 113.423,196.816 L 115.543,199.868 L 117.67,202.914 Z M 121.917,196.812 L 121.916,169.535 L 113.381,169.535 L 113.381,196.812 L 121.917,196.812 Z" stroke-width="0.103" stroke-linejoin="miter" marker-start="none" marker-end="none" stroke-miterlimit="79.8403193612775"/>
      <path d="M 214.917,125.39 L 214.917,116.86 L 165.755,116.86 L 165.754,125.391 L 214.917,125.39 Z" stroke-width="0.103" stroke-linejoin="miter" marker-start="none" marker-end="none" stroke-miterlimit="79.8403193612775"/>
      <path d="M 132.021,138.271 C 139.828,129.719 150.533,125.38 161.266,125.373 L 161.265,116.888 C 148.224,116.892 135.234,122.165 125.755,132.554 C 117.344,141.769 113.196,153.385 113.198,164.957 L 121.68,164.957 C 121.68,155.424 125.094,145.86 132.021,138.271 Z" stroke-width="0.368" stroke-linejoin="round" marker-start="none" marker-end="none" stroke-miterlimit="79.8403193612775"/>
     </g>
     <g id="Group_12" fill="#11a7e0" stroke-linecap="round" stroke="none">
      <path d="M 214.917,136.687 L 214.917,128.153 L 165.753,128.153 L 165.754,136.687 L 214.917,136.687 Z" stroke-width="0.103" stroke-linejoin="miter" marker-start="none" marker-end="none" stroke-miterlimit="79.8403193612775"/>
      <path d="M 140.376,145.892 C 145.954,139.785 153.592,136.685 161.265,136.682 L 161.266,128.195 C 151.296,128.205 141.357,132.237 134.114,140.175 C 127.675,147.225 124.504,156.101 124.508,164.957 L 132.996,164.957 C 132.989,158.15 135.431,151.318 140.376,145.892 Z" stroke-width="0.281" stroke-linejoin="round" marker-start="none" marker-end="none" stroke-miterlimit="79.8403193612775"/>
      <path d="M 128.723,202.91 L 130.855,199.866 L 132.996,196.813 L 132.996,196.813 L 132.996,169.536 L 124.457,169.535 L 124.457,196.812 L 124.457,196.812 L 126.587,199.867 L 128.723,202.91 Z" stroke-width="0.103" stroke-linejoin="miter" marker-start="none" marker-end="none" stroke-miterlimit="79.8403193612775"/>
     </g>
     <g id="Group_13" stroke-linejoin="miter" stroke-miterlimit="79.8403193612775">
      <path d="M 153.514,158.48 C 144.617,169.02 145.942,184.806 156.494,193.689 C 167.025,202.604 182.79,201.272 191.691,190.735 C 200.605,180.194 199.269,164.42 188.716,155.517 C 178.184,146.621 162.412,147.952 153.514,158.48 Z" stroke="none" fill="#000000" stroke-width="1.039" marker-start="none" marker-end="none" stroke-miterlimit="19.9600798403194"/>
      <path d="M 154.691,159.437 C 145.804,169.982 147.12,185.734 157.664,194.652 C 168.208,203.524 183.974,202.21 192.891,191.673 C 201.785,181.135 200.452,165.352 189.905,156.455 C 179.377,147.559 163.596,148.883 154.691,159.437 Z" stroke="#b2b2b2" stroke-width="5.658" marker-start="none" marker-end="none" stroke-miterlimit="19.9600798403194"/>
     </g>
     <g id="Group_14" stroke-linejoin="miter" stroke-miterlimit="79.8403193612775">
      <path d="M 175.579,106.665 C 171.054,112.021 171.731,120.037 177.088,124.56 C 182.444,129.085 190.464,128.413 194.984,123.055 C 199.509,117.698 198.834,109.678 193.475,105.159 C 188.121,100.631 180.101,101.314 175.579,106.665 Z" stroke="none" fill="#ffffff" stroke-width="0.526" marker-start="none" marker-end="none" stroke-miterlimit="19.9600798403194"/>
      <path d="M 176.182,107.147 C 171.658,112.496 172.334,120.518 177.69,125.039 C 183.049,129.567 191.065,128.889 195.588,123.53 C 200.117,118.179 199.44,110.156 194.08,105.632 C 188.721,101.111 180.705,101.785 176.182,107.147 Z" fill="none" stroke="#55bae6" stroke-width="2.872" marker-start="none" marker-end="none" stroke-miterlimit="19.9600798403194"/>
     </g>
     <g id="Group_15" stroke-linejoin="miter" stroke-miterlimit="79.8403193612775">
      <path d="M 137.245,116.982 C 131.894,112.46 123.874,113.137 119.347,118.493 C 114.831,123.85 115.504,131.869 120.861,136.393 C 126.216,140.916 134.233,140.236 138.756,134.882 C 143.28,129.525 142.604,121.507 137.245,116.982 Z" stroke="none" fill="#ffffff" stroke-width="0.526" marker-start="none" marker-end="none" stroke-miterlimit="19.9600798403194"/>
      <path d="M 136.767,117.59 C 131.413,113.063 123.397,113.737 118.873,119.097 C 114.349,124.455 115.022,132.47 120.385,136.995 C 125.74,141.522 133.757,140.838 138.283,135.487 C 142.808,130.127 142.127,122.112 136.767,117.59 Z" fill="none" stroke="#55bae6" stroke-width="2.872" marker-start="none" marker-end="none" stroke-miterlimit="19.9600798403194"/>
     </g>
     <g id="Group_16" stroke-linejoin="miter" stroke-miterlimit="79.8403193612775">
      <path d="M 101.473,176.24 C 96.949,181.596 97.628,189.613 102.983,194.141 C 108.343,198.662 116.363,197.984 120.886,192.626 C 125.414,187.273 124.731,179.251 119.375,174.732 C 114.016,170.213 106,170.887 101.473,176.24 Z" stroke="none" fill="#ffffff" stroke-width="0.526" marker-start="none" marker-end="none" stroke-miterlimit="19.9600798403194"/>
      <path d="M 102.08,176.724 C 97.556,182.075 98.232,190.095 103.592,194.619 C 108.951,199.14 116.966,198.466 121.489,193.106 C 126.016,187.753 125.338,179.733 119.982,175.212 C 114.619,170.687 106.603,171.363 102.08,176.724 Z" fill="none" stroke="#55bae6" stroke-width="2.872" marker-start="none" marker-end="none" stroke-miterlimit="19.9600798403194"/>
     </g>
     <g id="Group_17" fill-rule="nonzero" stroke-linejoin="round" stroke-linecap="round" stroke="none" stroke-width="0.387" fill="#000000" stroke-miterlimit="79.8403193612775">
      <g id="Group_18">
       <path d="M 182.284,118.783 L 182.284,115.701 L 185.163,115.701 L 185.163,113.972 L 182.284,113.972 L 182.284,110.875 L 180.323,110.875 L 180.323,113.972 L 177.459,113.972 L 177.459,115.701 L 180.323,115.701 L 180.323,118.783 L 182.284,118.783 Z" marker-start="none" marker-end="none"/>
       <path d="M 187.794,111.35 L 189.973,111.35 L 189.973,117.07 C 189.973,117.351 189.981,117.644 189.996,117.95 L 188.712,116.883 C 188.629,116.816 188.546,116.768 188.463,116.739 C 188.38,116.711 188.3,116.697 188.222,116.697 C 188.087,116.697 187.967,116.726 187.86,116.786 C 187.754,116.846 187.675,116.909 187.623,116.977 L 186.86,117.989 L 190.393,120.954 L 192.386,120.954 L 192.386,111.35 L 194.253,111.35 L 194.253,109.606 L 187.794,109.606 L 187.794,111.35 Z" marker-start="none" marker-end="none"/>
      </g>
     </g>
     <g id="Group_19" fill-rule="nonzero" stroke-linejoin="round" stroke-linecap="round" stroke="none" stroke-width="0.387" fill="#000000" stroke-miterlimit="79.8403193612775">
      <g id="Group_20">
       <path d="M 124.255,130.19 L 124.255,127.108 L 127.134,127.108 L 127.134,125.379 L 124.255,125.379 L 124.255,122.282 L 122.294,122.282 L 122.294,125.379 L 119.43,125.379 L 119.43,127.108 L 122.294,127.108 L 122.294,130.19 L 124.255,130.19 Z" marker-start="none" marker-end="none"/>
       <path d="M 132.489,132.477 C 133.049,132.477 133.554,132.395 134.002,132.232 C 134.451,132.069 134.834,131.842 135.15,131.551 C 135.467,131.261 135.709,130.914 135.878,130.512 C 136.047,130.11 136.131,129.668 136.131,129.185 C 136.131,128.77 136.073,128.386 135.956,128.033 C 135.839,127.68 135.68,127.344 135.477,127.025 C 135.275,126.706 135.04,126.398 134.773,126.099 C 134.506,125.801 134.222,125.499 133.921,125.193 L 131.703,122.92 C 131.988,123.004 132.27,123.07 132.547,123.12 C 132.825,123.17 133.085,123.194 133.329,123.194 L 135.446,123.194 C 135.705,123.194 135.91,123.123 136.061,122.98 C 136.211,122.837 136.287,122.649 136.287,122.415 L 136.287,121.013 L 128.318,121.013 L 128.318,121.791 C 128.318,121.942 128.349,122.103 128.411,122.274 C 128.473,122.445 128.582,122.601 128.738,122.741 L 132.006,126.033 C 132.287,126.314 132.53,126.581 132.738,126.835 C 132.945,127.089 133.117,127.34 133.252,127.586 C 133.386,127.833 133.488,128.079 133.555,128.326 C 133.622,128.572 133.656,128.833 133.656,129.108 C 133.656,129.559 133.549,129.906 133.333,130.147 C 133.118,130.388 132.79,130.509 132.349,130.509 C 132.167,130.509 132.001,130.483 131.851,130.431 C 131.7,130.379 131.565,130.309 131.446,130.221 C 131.327,130.133 131.224,130.029 131.139,129.91 C 131.053,129.79 130.984,129.661 130.932,129.521 C 130.849,129.287 130.744,129.119 130.617,129.015 C 130.49,128.911 130.318,128.859 130.1,128.859 C 130.048,128.859 129.992,128.862 129.932,128.867 C 129.873,128.872 129.812,128.88 129.75,128.89 L 128.473,129.112 C 128.556,129.678 128.716,130.172 128.952,130.592 C 129.188,131.013 129.481,131.363 129.831,131.644 C 130.181,131.924 130.582,132.133 131.034,132.271 C 131.485,132.408 131.97,132.477 132.489,132.477 Z" marker-start="none" marker-end="none"/>
      </g>
     </g>
     <g id="Group_21" fill-rule="nonzero" stroke-linejoin="round" stroke-linecap="round" stroke="none" stroke-width="0.387" fill="#000000" stroke-miterlimit="79.8403193612775">
      <g id="Group_22">
       <path d="M 108.213,188.417 L 108.213,185.335 L 111.092,185.335 L 111.092,183.606 L 108.213,183.606 L 108.213,180.509 L 106.252,180.509 L 106.252,183.606 L 103.388,183.606 L 103.388,185.335 L 106.252,185.335 L 106.252,188.417 L 108.213,188.417 Z" marker-start="none" marker-end="none"/>
       <path d="M 113.723,180.984 L 115.902,180.984 L 115.902,186.704 C 115.902,186.985 115.91,187.278 115.925,187.584 L 114.641,186.517 C 114.558,186.45 114.475,186.402 114.392,186.373 C 114.309,186.345 114.229,186.331 114.151,186.331 C 114.016,186.331 113.896,186.36 113.789,186.42 C 113.683,186.48 113.604,186.543 113.552,186.611 L 112.789,187.623 L 116.322,190.588 L 118.315,190.588 L 118.315,180.984 L 120.182,180.984 L 120.182,179.24 L 113.723,179.24 L 113.723,180.984 Z" marker-start="none" marker-end="none"/>
      </g>
     </g>
     <g id="Group_23" fill-rule="nonzero" stroke-linejoin="round" stroke-linecap="round" stroke="none" stroke-width="0.319" fill="#ffffff" stroke-miterlimit="79.8403193612775">
      <g id="Group_24">
       <path d="M 30.747,61.164 C 30.747,60.49 30.631,59.869 30.398,59.3 C 30.166,58.731 29.839,58.238 29.417,57.823 C 28.995,57.407 28.487,57.083 27.893,56.851 C 27.298,56.618 26.639,56.502 25.914,56.502 L 22.296,56.502 L 22.296,65.819 L 25.914,65.819 C 26.639,65.819 27.298,65.702 27.893,65.467 C 28.487,65.233 28.995,64.909 29.417,64.495 C 29.839,64.082 30.166,63.59 30.398,63.021 C 30.631,62.452 30.747,61.833 30.747,61.164 Z M 28.535,61.164 C 28.535,61.624 28.475,62.039 28.356,62.41 C 28.237,62.781 28.065,63.095 27.841,63.353 C 27.618,63.611 27.344,63.809 27.02,63.948 C 26.696,64.086 26.328,64.155 25.914,64.155 L 24.47,64.155 L 24.47,58.166 L 25.914,58.166 C 26.328,58.166 26.696,58.235 27.02,58.373 C 27.344,58.512 27.618,58.71 27.841,58.968 C 28.065,59.226 28.237,59.54 28.356,59.911 C 28.475,60.282 28.535,60.699 28.535,61.164 Z" marker-start="none" marker-end="none"/>
       <path d="M 34.15,56.502 L 31.977,56.502 L 31.977,65.819 L 34.15,65.819 L 34.15,56.502 Z" marker-start="none" marker-end="none"/>
       <path d="M 41.065,63.924 C 41.001,63.821 40.934,63.745 40.863,63.694 C 40.793,63.642 40.702,63.617 40.592,63.617 C 40.494,63.617 40.388,63.648 40.275,63.71 C 40.162,63.771 40.034,63.841 39.892,63.917 C 39.749,63.994 39.586,64.063 39.403,64.125 C 39.219,64.187 39.011,64.218 38.776,64.218 C 38.371,64.218 38.07,64.132 37.872,63.959 C 37.674,63.786 37.574,63.553 37.574,63.259 C 37.574,63.071 37.634,62.916 37.753,62.792 C 37.873,62.669 38.029,62.562 38.223,62.472 C 38.417,62.383 38.639,62.301 38.888,62.226 C 39.137,62.152 39.392,62.069 39.652,61.977 C 39.912,61.885 40.167,61.778 40.416,61.654 C 40.665,61.531 40.887,61.373 41.081,61.181 C 41.275,60.989 41.431,60.756 41.551,60.481 C 41.67,60.206 41.73,59.875 41.73,59.487 C 41.73,59.056 41.655,58.654 41.506,58.279 C 41.357,57.904 41.14,57.576 40.857,57.297 C 40.574,57.018 40.224,56.799 39.809,56.639 C 39.393,56.479 38.921,56.399 38.393,56.399 C 38.103,56.399 37.808,56.429 37.507,56.489 C 37.207,56.548 36.916,56.632 36.635,56.741 C 36.354,56.85 36.089,56.979 35.842,57.128 C 35.595,57.277 35.38,57.443 35.196,57.627 L 35.836,58.637 C 35.883,58.714 35.949,58.775 36.034,58.822 C 36.119,58.869 36.211,58.893 36.309,58.893 C 36.437,58.893 36.566,58.852 36.696,58.771 C 36.825,58.69 36.973,58.601 37.137,58.503 C 37.301,58.405 37.489,58.315 37.702,58.234 C 37.915,58.153 38.167,58.113 38.457,58.113 C 38.849,58.113 39.153,58.199 39.371,58.371 C 39.588,58.544 39.697,58.818 39.697,59.193 C 39.697,59.411 39.637,59.587 39.518,59.724 C 39.398,59.86 39.242,59.973 39.048,60.063 C 38.854,60.152 38.633,60.231 38.386,60.299 C 38.139,60.367 37.886,60.443 37.626,60.526 C 37.366,60.609 37.112,60.711 36.865,60.833 C 36.618,60.954 36.397,61.114 36.203,61.312 C 36.009,61.511 35.853,61.758 35.733,62.054 C 35.614,62.35 35.554,62.716 35.554,63.151 C 35.554,63.5 35.625,63.841 35.765,64.174 C 35.906,64.506 36.113,64.802 36.385,65.062 C 36.658,65.322 36.993,65.53 37.389,65.686 C 37.785,65.841 38.239,65.919 38.751,65.919 C 39.036,65.919 39.314,65.897 39.585,65.852 C 39.855,65.807 40.112,65.741 40.355,65.653 C 40.598,65.566 40.825,65.462 41.036,65.34 C 41.247,65.219 41.435,65.081 41.602,64.928 L 41.065,63.924 Z" marker-start="none" marker-end="none"/>
       <path d="M 49.566,65.819 L 49.566,64.105 L 46.945,64.105 L 46.945,56.504 L 44.785,56.504 L 44.785,64.105 L 42.164,64.105 L 42.164,65.819 L 49.566,65.819 Z" marker-start="none" marker-end="none"/>
       <path d="M 52.624,59.948 L 52.624,56.502 L 50.463,56.502 L 50.463,65.816 L 53.493,65.816 C 54.166,65.816 54.741,65.747 55.216,65.608 C 55.691,65.469 56.079,65.276 56.379,65.029 C 56.68,64.781 56.898,64.489 57.034,64.152 C 57.171,63.815 57.239,63.448 57.239,63.051 C 57.239,62.748 57.199,62.462 57.118,62.193 C 57.037,61.925 56.916,61.676 56.756,61.448 C 56.597,61.219 56.401,61.016 56.168,60.836 C 55.936,60.657 55.669,60.51 55.366,60.395 C 55.511,60.323 55.646,60.233 55.772,60.127 C 55.898,60.02 56.007,59.891 56.101,59.737 L 58.083,56.502 L 56.127,56.502 C 55.765,56.502 55.505,56.638 55.347,56.911 L 53.8,59.615 C 53.732,59.735 53.652,59.82 53.56,59.871 C 53.469,59.922 53.34,59.948 53.173,59.948 L 52.624,59.948 Z M 52.624,61.437 L 53.493,61.437 C 53.787,61.437 54.038,61.474 54.244,61.549 C 54.451,61.623 54.62,61.727 54.752,61.859 C 54.884,61.991 54.98,62.145 55.04,62.322 C 55.1,62.499 55.13,62.69 55.13,62.895 C 55.13,63.304 54.996,63.624 54.73,63.854 C 54.464,64.084 54.051,64.199 53.493,64.199 L 52.624,64.199 L 52.624,61.437 Z" marker-start="none" marker-end="none"/>
       <path d="M 61.331,56.502 L 59.158,56.502 L 59.158,65.819 L 61.331,65.819 L 61.331,56.502 Z" marker-start="none" marker-end="none"/>
       <path d="M 63.055,56.502 L 63.055,65.816 L 66.481,65.816 C 67.125,65.816 67.673,65.756 68.124,65.637 C 68.576,65.518 68.945,65.349 69.23,65.132 C 69.516,64.915 69.723,64.651 69.853,64.34 C 69.983,64.029 70.048,63.681 70.048,63.298 C 70.048,63.089 70.019,62.888 69.959,62.694 C 69.899,62.5 69.805,62.318 69.678,62.148 C 69.55,61.977 69.386,61.823 69.185,61.684 C 68.985,61.546 68.744,61.425 68.463,61.323 C 69.077,61.174 69.531,60.932 69.825,60.597 C 70.119,60.263 70.266,59.833 70.266,59.309 C 70.266,58.912 70.189,58.544 70.036,58.203 C 69.882,57.862 69.657,57.564 69.361,57.311 C 69.065,57.057 68.7,56.859 68.265,56.716 C 67.83,56.573 67.334,56.502 66.775,56.502 L 63.055,56.502 Z M 65.216,60.454 L 65.216,58.131 L 66.737,58.131 C 67.023,58.131 67.256,58.168 67.437,58.24 C 67.618,58.313 67.76,58.406 67.862,58.521 C 67.964,58.637 68.035,58.767 68.073,58.912 C 68.111,59.057 68.131,59.204 68.131,59.353 C 68.131,59.524 68.108,59.677 68.064,59.814 C 68.019,59.95 67.942,60.066 67.833,60.159 C 67.725,60.253 67.581,60.326 67.402,60.377 C 67.223,60.428 66.997,60.454 66.724,60.454 L 65.216,60.454 Z M 65.216,61.899 L 66.341,61.899 C 66.579,61.899 66.795,61.916 66.986,61.95 C 67.178,61.984 67.341,62.044 67.475,62.129 C 67.61,62.214 67.712,62.331 67.782,62.48 C 67.853,62.629 67.888,62.817 67.888,63.042 C 67.888,63.264 67.86,63.448 67.805,63.595 C 67.749,63.742 67.664,63.86 67.549,63.95 C 67.434,64.039 67.288,64.103 67.111,64.142 C 66.934,64.18 66.724,64.199 66.481,64.199 L 65.216,64.199 L 65.216,61.899 Z" marker-start="none" marker-end="none"/>
       <path d="M 75.313,58.209 C 75.603,58.209 75.862,58.257 76.09,58.353 C 76.318,58.449 76.51,58.586 76.668,58.766 C 76.826,58.945 76.946,59.163 77.029,59.421 C 77.112,59.679 77.154,59.972 77.154,60.3 L 77.154,65.817 L 79.315,65.817 L 79.315,60.299 C 79.315,59.728 79.222,59.204 79.036,58.726 C 78.851,58.249 78.586,57.838 78.241,57.492 C 77.895,57.147 77.476,56.879 76.981,56.687 C 76.487,56.495 75.931,56.399 75.313,56.399 C 74.691,56.399 74.132,56.495 73.638,56.687 C 73.144,56.879 72.724,57.147 72.379,57.492 C 72.034,57.838 71.769,58.249 71.586,58.726 C 71.403,59.204 71.311,59.728 71.311,60.299 L 71.311,65.817 L 73.472,65.817 L 73.472,60.306 C 73.472,59.978 73.513,59.685 73.597,59.427 C 73.68,59.169 73.8,58.95 73.958,58.769 C 74.115,58.588 74.308,58.449 74.536,58.353 C 74.764,58.257 75.023,58.209 75.313,58.209 Z" marker-start="none" marker-end="none"/>
       <path d="M 87.485,65.819 L 87.485,64.105 L 84.864,64.105 L 84.864,56.504 L 82.704,56.504 L 82.704,64.105 L 80.083,64.105 L 80.083,65.819 L 87.485,65.819 Z" marker-start="none" marker-end="none"/>
       <path d="M 90.747,56.502 L 88.574,56.502 L 88.574,65.819 L 90.747,65.819 L 90.747,56.502 Z" marker-start="none" marker-end="none"/>
       <path d="M 101.663,61.162 C 101.663,60.489 101.547,59.862 101.315,59.283 C 101.083,58.703 100.756,58.199 100.334,57.77 C 99.912,57.342 99.404,57.006 98.809,56.763 C 98.215,56.52 97.555,56.399 96.831,56.399 C 96.106,56.399 95.446,56.52 94.849,56.763 C 94.252,57.006 93.742,57.342 93.318,57.77 C 92.894,58.199 92.566,58.703 92.334,59.283 C 92.101,59.862 91.985,60.489 91.985,61.162 C 91.985,61.836 92.101,62.462 92.334,63.042 C 92.566,63.622 92.894,64.124 93.318,64.551 C 93.742,64.977 94.252,65.312 94.849,65.555 C 95.446,65.797 96.106,65.919 96.831,65.919 C 97.555,65.919 98.215,65.796 98.809,65.551 C 99.404,65.306 99.912,64.971 100.334,64.544 C 100.756,64.118 101.083,63.615 101.315,63.035 C 101.547,62.456 101.663,61.831 101.663,61.162 Z M 99.452,61.162 C 99.452,61.622 99.392,62.036 99.273,62.405 C 99.153,62.773 98.982,63.086 98.758,63.341 C 98.534,63.597 98.26,63.793 97.937,63.929 C 97.613,64.065 97.244,64.133 96.831,64.134 C 96.413,64.133 96.041,64.065 95.715,63.929 C 95.389,63.793 95.114,63.597 94.891,63.341 C 94.667,63.086 94.495,62.773 94.376,62.405 C 94.257,62.036 94.197,61.622 94.197,61.162 C 94.197,60.698 94.257,60.281 94.376,59.913 C 94.495,59.544 94.667,59.232 94.891,58.977 C 95.114,58.721 95.389,58.526 95.715,58.392 C 96.041,58.258 96.413,58.191 96.831,58.191 C 97.244,58.191 97.613,58.258 97.937,58.392 C 98.26,58.526 98.534,58.721 98.758,58.977 C 98.982,59.232 99.153,59.544 99.273,59.913 C 99.392,60.281 99.452,60.698 99.452,61.162 Z" marker-start="none" marker-end="none"/>
       <path d="M 103.835,65.819 C 103.929,65.819 104.008,65.815 104.071,65.806 C 104.135,65.798 104.193,65.782 104.244,65.758 C 104.295,65.735 104.344,65.702 104.391,65.659 C 104.438,65.616 104.491,65.559 104.551,65.487 L 108.974,59.893 C 108.957,60.072 108.945,60.246 108.936,60.414 C 108.928,60.582 108.923,60.741 108.923,60.891 L 108.923,65.819 L 110.828,65.819 L 110.828,56.502 L 109.703,56.502 C 109.537,56.502 109.396,56.528 109.281,56.579 C 109.166,56.63 109.055,56.724 108.949,56.86 L 104.557,62.409 C 104.57,62.247 104.581,62.088 104.589,61.932 C 104.598,61.777 104.602,61.631 104.602,61.494 L 104.602,56.502 L 102.697,56.502 L 102.697,65.819 L 103.835,65.819 Z" marker-start="none" marker-end="none"/>
      </g>
     </g>
     <g id="Group_25" fill-rule="nonzero" stroke-linejoin="round" stroke-linecap="round" stroke="none" stroke-width="0.365" fill="#000000" stroke-miterlimit="79.8403193612775">
      <g id="Group_26">
       <path d="M 29.036,30.996 L 29.036,27.046 L 26.559,27.046 L 26.559,37.721 L 30.032,37.721 C 30.804,37.721 31.462,37.642 32.007,37.483 C 32.551,37.324 32.996,37.103 33.34,36.819 C 33.685,36.535 33.935,36.2 34.091,35.814 C 34.247,35.428 34.326,35.007 34.326,34.552 C 34.326,34.205 34.279,33.877 34.186,33.569 C 34.094,33.261 33.956,32.976 33.772,32.714 C 33.589,32.453 33.365,32.219 33.098,32.014 C 32.832,31.809 32.526,31.64 32.179,31.508 C 32.345,31.425 32.5,31.322 32.644,31.2 C 32.788,31.079 32.914,30.93 33.021,30.754 L 35.293,27.046 L 33.051,27.046 C 32.636,27.046 32.338,27.202 32.157,27.515 L 30.384,30.615 C 30.306,30.751 30.214,30.849 30.109,30.908 C 30.004,30.966 29.856,30.996 29.666,30.996 L 29.036,30.996 Z M 29.036,32.702 L 30.032,32.702 C 30.369,32.702 30.656,32.745 30.893,32.83 C 31.13,32.916 31.324,33.034 31.475,33.186 C 31.627,33.337 31.737,33.514 31.805,33.717 C 31.874,33.92 31.908,34.139 31.908,34.373 C 31.908,34.842 31.755,35.209 31.45,35.472 C 31.145,35.736 30.672,35.868 30.032,35.868 L 29.036,35.868 L 29.036,32.702 Z" marker-start="none" marker-end="none"/>
       <path d="M 46.476,32.387 C 46.476,31.615 46.343,30.897 46.077,30.233 C 45.811,29.569 45.436,28.991 44.952,28.5 C 44.469,28.009 43.886,27.624 43.205,27.346 C 42.523,27.067 41.767,26.928 40.937,26.928 C 40.107,26.928 39.35,27.067 38.666,27.346 C 37.982,27.624 37.397,28.009 36.911,28.5 C 36.425,28.991 36.049,29.569 35.783,30.233 C 35.516,30.897 35.383,31.615 35.383,32.387 C 35.383,33.159 35.516,33.877 35.783,34.542 C 36.049,35.206 36.425,35.783 36.911,36.271 C 37.397,36.76 37.982,37.143 38.666,37.422 C 39.35,37.7 40.107,37.839 40.937,37.839 C 41.767,37.839 42.523,37.699 43.205,37.418 C 43.886,37.137 44.469,36.752 44.952,36.264 C 45.436,35.775 45.811,35.199 46.077,34.534 C 46.343,33.87 46.476,33.154 46.476,32.387 Z M 43.941,32.387 C 43.941,32.915 43.873,33.389 43.736,33.812 C 43.599,34.234 43.403,34.592 43.146,34.885 C 42.89,35.178 42.576,35.402 42.205,35.559 C 41.833,35.715 41.411,35.793 40.937,35.793 C 40.458,35.793 40.032,35.715 39.659,35.559 C 39.285,35.402 38.97,35.178 38.713,34.885 C 38.457,34.592 38.26,34.234 38.124,33.812 C 37.987,33.389 37.918,32.915 37.918,32.387 C 37.918,31.855 37.987,31.378 38.124,30.955 C 38.26,30.533 38.457,30.175 38.713,29.882 C 38.97,29.589 39.285,29.366 39.659,29.212 C 40.032,29.058 40.458,28.981 40.937,28.981 C 41.411,28.981 41.833,29.058 42.205,29.212 C 42.576,29.366 42.89,29.589 43.146,29.882 C 43.403,30.175 43.599,30.533 43.736,30.955 C 43.873,31.378 43.941,31.855 43.941,32.387 Z" marker-start="none" marker-end="none"/>
       <path d="M 57.156,27.046 L 55.237,27.046 C 55.022,27.046 54.845,27.096 54.706,27.196 C 54.566,27.296 54.47,27.425 54.416,27.581 L 53.786,29.443 L 49.727,29.443 L 49.097,27.581 C 49.048,27.444 48.953,27.321 48.811,27.211 C 48.669,27.101 48.496,27.046 48.291,27.046 L 46.357,27.046 L 50.489,37.723 L 53.024,37.723 L 57.156,27.046 Z M 50.298,31.128 L 53.215,31.128 L 52.233,34.007 C 52.169,34.189 52.095,34.405 52.009,34.652 C 51.924,34.9 51.84,35.168 51.756,35.457 C 51.678,35.163 51.598,34.892 51.515,34.641 C 51.432,34.392 51.354,34.175 51.28,33.992 L 50.298,31.128 Z" marker-start="none" marker-end="none"/>
       <path d="M 67.704,32.389 C 67.704,31.617 67.571,30.905 67.305,30.253 C 67.039,29.6 66.664,29.036 66.18,28.56 C 65.697,28.083 65.114,27.712 64.433,27.446 C 63.751,27.179 62.996,27.046 62.165,27.046 L 58.018,27.046 L 58.018,37.725 L 62.165,37.725 C 62.996,37.725 63.751,37.59 64.433,37.322 C 65.114,37.053 65.697,36.682 66.18,36.208 C 66.664,35.734 67.039,35.171 67.305,34.518 C 67.571,33.866 67.704,33.156 67.704,32.389 Z M 65.169,32.389 C 65.169,32.917 65.101,33.393 64.964,33.818 C 64.827,34.243 64.631,34.603 64.374,34.898 C 64.118,35.194 63.804,35.421 63.433,35.58 C 63.061,35.739 62.639,35.818 62.165,35.818 L 60.509,35.818 L 60.509,28.953 L 62.165,28.953 C 62.639,28.953 63.061,29.032 63.433,29.191 C 63.804,29.35 64.118,29.577 64.374,29.872 C 64.631,30.168 64.827,30.528 64.964,30.953 C 65.101,31.378 65.169,31.857 65.169,32.389 Z" marker-start="none" marker-end="none"/>
       <path d="M 79.472,37.725 L 79.472,35.761 L 76.468,35.761 L 76.468,27.048 L 73.992,27.048 L 73.992,35.761 L 70.988,35.761 L 70.988,37.725 L 79.472,37.725 Z" marker-start="none" marker-end="none"/>
       <path d="M 82.977,30.996 L 82.977,27.046 L 80.5,27.046 L 80.5,37.721 L 83.973,37.721 C 84.745,37.721 85.403,37.642 85.948,37.483 C 86.492,37.324 86.937,37.103 87.281,36.819 C 87.626,36.535 87.876,36.2 88.032,35.814 C 88.188,35.428 88.267,35.007 88.267,34.552 C 88.267,34.205 88.22,33.877 88.127,33.569 C 88.035,33.261 87.897,32.976 87.713,32.714 C 87.53,32.453 87.306,32.219 87.039,32.014 C 86.773,31.809 86.467,31.64 86.12,31.508 C 86.286,31.425 86.441,31.322 86.585,31.2 C 86.729,31.079 86.855,30.93 86.962,30.754 L 89.234,27.046 L 86.992,27.046 C 86.577,27.046 86.279,27.202 86.098,27.515 L 84.325,30.615 C 84.247,30.751 84.155,30.849 84.05,30.908 C 83.945,30.966 83.797,30.996 83.607,30.996 L 82.977,30.996 Z M 82.977,32.702 L 83.973,32.702 C 84.31,32.702 84.597,32.745 84.834,32.83 C 85.071,32.916 85.265,33.034 85.416,33.186 C 85.568,33.337 85.678,33.514 85.746,33.717 C 85.815,33.92 85.849,34.139 85.849,34.373 C 85.849,34.842 85.696,35.209 85.391,35.472 C 85.086,35.736 84.613,35.868 83.973,35.868 L 82.977,35.868 L 82.977,32.702 Z" marker-start="none" marker-end="none"/>
       <path d="M 100.181,27.046 L 98.262,27.046 C 98.047,27.046 97.87,27.096 97.731,27.196 C 97.591,27.296 97.495,27.425 97.441,27.581 L 96.811,29.443 L 92.752,29.443 L 92.122,27.581 C 92.073,27.444 91.978,27.321 91.836,27.211 C 91.694,27.101 91.521,27.046 91.316,27.046 L 89.382,27.046 L 93.514,37.723 L 96.049,37.723 L 100.181,27.046 Z M 93.323,31.128 L 96.24,31.128 L 95.258,34.007 C 95.194,34.189 95.12,34.405 95.034,34.652 C 94.949,34.9 94.865,35.168 94.781,35.457 C 94.703,35.163 94.623,34.892 94.54,34.641 C 94.457,34.392 94.379,34.175 94.305,33.992 L 93.323,31.128 Z" marker-start="none" marker-end="none"/>
       <path d="M 102.347,37.725 C 102.455,37.725 102.545,37.72 102.618,37.71 C 102.692,37.701 102.758,37.682 102.816,37.655 C 102.875,37.628 102.931,37.59 102.985,37.542 C 103.039,37.493 103.1,37.427 103.168,37.344 L 108.238,30.933 C 108.219,31.138 108.204,31.337 108.194,31.53 C 108.184,31.723 108.179,31.905 108.179,32.076 L 108.179,37.725 L 110.363,37.725 L 110.363,27.046 L 109.073,27.046 C 108.883,27.046 108.722,27.075 108.59,27.134 C 108.458,27.193 108.331,27.3 108.209,27.456 L 103.175,33.816 C 103.19,33.63 103.202,33.448 103.212,33.27 C 103.222,33.092 103.227,32.925 103.227,32.768 L 103.227,27.046 L 101.043,27.046 L 101.043,37.725 L 102.347,37.725 Z" marker-start="none" marker-end="none"/>
       <path d="M 118.069,35.553 C 117.995,35.435 117.918,35.347 117.838,35.289 C 117.757,35.23 117.653,35.201 117.526,35.201 C 117.414,35.201 117.293,35.236 117.164,35.307 C 117.034,35.378 116.888,35.457 116.724,35.545 C 116.56,35.633 116.374,35.713 116.164,35.783 C 115.954,35.854 115.714,35.89 115.446,35.89 C 114.982,35.89 114.636,35.791 114.409,35.593 C 114.182,35.395 114.068,35.128 114.068,34.791 C 114.068,34.575 114.137,34.397 114.273,34.256 C 114.41,34.114 114.59,33.992 114.812,33.889 C 115.034,33.787 115.288,33.693 115.574,33.607 C 115.86,33.522 116.151,33.426 116.449,33.321 C 116.747,33.216 117.039,33.093 117.325,32.951 C 117.611,32.81 117.865,32.629 118.087,32.409 C 118.309,32.189 118.489,31.922 118.625,31.607 C 118.762,31.292 118.831,30.912 118.831,30.467 C 118.831,29.974 118.745,29.512 118.574,29.082 C 118.403,28.652 118.155,28.278 117.83,27.958 C 117.506,27.638 117.105,27.386 116.629,27.203 C 116.153,27.02 115.612,26.928 115.006,26.928 C 114.674,26.928 114.336,26.962 113.991,27.031 C 113.647,27.099 113.313,27.195 112.991,27.32 C 112.669,27.445 112.366,27.592 112.083,27.763 C 111.799,27.934 111.553,28.125 111.343,28.335 L 112.075,29.493 C 112.129,29.581 112.205,29.652 112.302,29.705 C 112.4,29.759 112.505,29.786 112.617,29.786 C 112.764,29.786 112.912,29.74 113.061,29.647 C 113.21,29.554 113.378,29.451 113.566,29.339 C 113.754,29.227 113.97,29.124 114.215,29.031 C 114.459,28.938 114.747,28.892 115.079,28.892 C 115.529,28.892 115.878,28.991 116.127,29.189 C 116.376,29.386 116.501,29.701 116.501,30.13 C 116.501,30.38 116.432,30.582 116.295,30.739 C 116.159,30.895 115.979,31.024 115.757,31.127 C 115.535,31.23 115.282,31.32 114.999,31.398 C 114.715,31.476 114.425,31.563 114.127,31.658 C 113.829,31.753 113.538,31.871 113.255,32.01 C 112.972,32.149 112.719,32.332 112.497,32.56 C 112.274,32.787 112.095,33.07 111.958,33.41 C 111.821,33.749 111.753,34.168 111.753,34.666 C 111.753,35.067 111.833,35.458 111.995,35.839 C 112.156,36.22 112.393,36.559 112.705,36.857 C 113.018,37.155 113.401,37.394 113.856,37.572 C 114.31,37.75 114.83,37.839 115.416,37.839 C 115.744,37.839 116.062,37.814 116.372,37.762 C 116.683,37.711 116.977,37.635 117.255,37.535 C 117.534,37.435 117.794,37.315 118.036,37.176 C 118.277,37.037 118.494,36.879 118.684,36.703 L 118.069,35.553 Z" marker-start="none" marker-end="none"/>
       <path d="M 122.538,30.616 L 122.538,27.048 L 120.061,27.048 L 120.061,37.725 L 123.827,37.725 C 124.579,37.725 125.225,37.636 125.765,37.457 C 126.305,37.279 126.749,37.034 127.099,36.721 C 127.448,36.408 127.705,36.039 127.872,35.614 C 128.038,35.189 128.121,34.73 128.121,34.237 C 128.121,33.704 128.035,33.215 127.864,32.771 C 127.693,32.326 127.432,31.945 127.08,31.628 C 126.729,31.31 126.283,31.062 125.743,30.884 C 125.203,30.706 124.565,30.616 123.827,30.616 L 122.538,30.616 Z M 122.538,32.484 L 123.827,32.484 C 124.472,32.484 124.936,32.638 125.219,32.946 C 125.503,33.254 125.644,33.684 125.644,34.236 C 125.644,34.481 125.608,34.704 125.534,34.904 C 125.461,35.104 125.35,35.276 125.201,35.421 C 125.052,35.565 124.864,35.676 124.637,35.754 C 124.41,35.833 124.14,35.872 123.827,35.872 L 122.538,35.872 L 122.538,32.484 Z" marker-start="none" marker-end="none"/>
       <path d="M 139.949,32.387 C 139.949,31.615 139.816,30.897 139.55,30.233 C 139.284,29.569 138.909,28.991 138.425,28.5 C 137.942,28.009 137.359,27.624 136.678,27.346 C 135.996,27.067 135.24,26.928 134.41,26.928 C 133.58,26.928 132.823,27.067 132.139,27.346 C 131.455,27.624 130.87,28.009 130.384,28.5 C 129.898,28.991 129.522,29.569 129.256,30.233 C 128.989,30.897 128.856,31.615 128.856,32.387 C 128.856,33.159 128.989,33.877 129.256,34.542 C 129.522,35.206 129.898,35.783 130.384,36.271 C 130.87,36.76 131.455,37.143 132.139,37.422 C 132.823,37.7 133.58,37.839 134.41,37.839 C 135.24,37.839 135.996,37.699 136.678,37.418 C 137.359,37.137 137.942,36.752 138.425,36.264 C 138.909,35.775 139.284,35.199 139.55,34.534 C 139.816,33.87 139.949,33.154 139.949,32.387 Z M 137.414,32.387 C 137.414,32.915 137.346,33.389 137.209,33.812 C 137.072,34.234 136.876,34.592 136.619,34.885 C 136.363,35.178 136.049,35.402 135.678,35.559 C 135.306,35.715 134.884,35.793 134.41,35.793 C 133.931,35.793 133.505,35.715 133.132,35.559 C 132.758,35.402 132.443,35.178 132.186,34.885 C 131.93,34.592 131.733,34.234 131.597,33.812 C 131.46,33.389 131.391,32.915 131.391,32.387 C 131.391,31.855 131.46,31.378 131.597,30.955 C 131.733,30.533 131.93,30.175 132.186,29.882 C 132.443,29.589 132.758,29.366 133.132,29.212 C 133.505,29.058 133.931,28.981 134.41,28.981 C 134.884,28.981 135.306,29.058 135.678,29.212 C 136.049,29.366 136.363,29.589 136.619,29.882 C 136.876,30.175 137.072,30.533 137.209,30.955 C 137.346,31.378 137.414,31.855 137.414,32.387 Z" marker-start="none" marker-end="none"/>
       <path d="M 143.61,30.996 L 143.61,27.046 L 141.133,27.046 L 141.133,37.721 L 144.606,37.721 C 145.378,37.721 146.036,37.642 146.581,37.483 C 147.125,37.324 147.57,37.103 147.914,36.819 C 148.259,36.535 148.509,36.2 148.665,35.814 C 148.821,35.428 148.9,35.007 148.9,34.552 C 148.9,34.205 148.853,33.877 148.76,33.569 C 148.668,33.261 148.53,32.976 148.346,32.714 C 148.163,32.453 147.939,32.219 147.672,32.014 C 147.406,31.809 147.1,31.64 146.753,31.508 C 146.919,31.425 147.074,31.322 147.218,31.2 C 147.362,31.079 147.488,30.93 147.595,30.754 L 149.867,27.046 L 147.625,27.046 C 147.21,27.046 146.912,27.202 146.731,27.515 L 144.958,30.615 C 144.88,30.751 144.788,30.849 144.683,30.908 C 144.578,30.966 144.43,30.996 144.24,30.996 L 143.61,30.996 Z M 143.61,32.702 L 144.606,32.702 C 144.943,32.702 145.23,32.745 145.467,32.83 C 145.704,32.916 145.898,33.034 146.049,33.186 C 146.201,33.337 146.311,33.514 146.379,33.717 C 146.448,33.92 146.482,34.139 146.482,34.373 C 146.482,34.842 146.329,35.209 146.024,35.472 C 145.719,35.736 145.246,35.868 144.606,35.868 L 143.61,35.868 L 143.61,32.702 Z" marker-start="none" marker-end="none"/>
       <path d="M 158.192,37.725 L 158.192,35.761 L 155.188,35.761 L 155.188,27.048 L 152.712,27.048 L 152.712,35.761 L 149.708,35.761 L 149.708,37.725 L 158.192,37.725 Z" marker-start="none" marker-end="none"/>
       <path d="M 157.521,28.336 C 157.521,28.492 157.551,28.638 157.609,28.772 C 157.668,28.907 157.752,29.024 157.862,29.124 C 157.972,29.224 158.101,29.303 158.25,29.362 C 158.399,29.421 158.567,29.45 158.752,29.45 C 158.972,29.45 159.162,29.412 159.324,29.336 C 159.485,29.261 159.619,29.158 159.727,29.029 C 159.834,28.899 159.913,28.75 159.965,28.582 C 160.016,28.413 160.042,28.236 160.042,28.05 C 160.042,27.806 160.003,27.546 159.924,27.27 C 159.846,26.994 159.73,26.717 159.576,26.438 C 159.423,26.16 159.231,25.886 159.001,25.617 C 158.772,25.349 158.508,25.104 158.21,24.885 L 157.814,25.236 C 157.761,25.29 157.72,25.34 157.693,25.387 C 157.667,25.433 157.653,25.49 157.653,25.559 C 157.653,25.608 157.67,25.66 157.704,25.716 C 157.739,25.773 157.78,25.823 157.829,25.867 C 157.888,25.925 157.956,25.996 158.034,26.079 C 158.112,26.162 158.19,26.255 158.269,26.358 C 158.347,26.46 158.419,26.573 158.485,26.695 C 158.551,26.817 158.601,26.946 158.635,27.083 C 158.464,27.098 158.31,27.139 158.173,27.208 C 158.037,27.276 157.921,27.367 157.825,27.479 C 157.73,27.591 157.656,27.719 157.602,27.864 C 157.548,28.008 157.521,28.165 157.521,28.336 Z" marker-start="none" marker-end="none"/>
       <path d="M 166.895,27.046 L 164.404,27.046 L 164.404,37.725 L 166.895,37.725 L 166.895,27.046 Z" marker-start="none" marker-end="none"/>
       <path d="M 170.175,37.725 C 170.283,37.725 170.373,37.72 170.446,37.71 C 170.52,37.701 170.586,37.682 170.644,37.655 C 170.703,37.628 170.759,37.59 170.813,37.542 C 170.867,37.493 170.928,37.427 170.996,37.344 L 176.066,30.933 C 176.047,31.138 176.032,31.337 176.022,31.53 C 176.012,31.723 176.007,31.905 176.007,32.076 L 176.007,37.725 L 178.191,37.725 L 178.191,27.046 L 176.901,27.046 C 176.711,27.046 176.55,27.075 176.418,27.134 C 176.286,27.193 176.159,27.3 176.037,27.456 L 171.003,33.816 C 171.018,33.63 171.03,33.448 171.04,33.27 C 171.05,33.092 171.055,32.925 171.055,32.768 L 171.055,27.046 L 168.871,27.046 L 168.871,37.725 L 170.175,37.725 Z" marker-start="none" marker-end="none"/>
       <path d="M 187.12,29.806 C 187.179,29.806 187.237,29.795 187.296,29.773 C 187.355,29.75 187.411,29.712 187.464,29.657 L 188.446,28.602 C 188.016,28.049 187.478,27.631 186.831,27.35 C 186.184,27.069 185.418,26.928 184.534,26.928 C 183.723,26.928 182.996,27.066 182.354,27.342 C 181.712,27.618 181.167,27.999 180.72,28.485 C 180.273,28.971 179.93,29.548 179.691,30.215 C 179.451,30.882 179.332,31.606 179.332,32.387 C 179.332,33.184 179.469,33.915 179.742,34.582 C 180.016,35.249 180.398,35.824 180.889,36.308 C 181.38,36.791 181.967,37.168 182.651,37.436 C 183.335,37.705 184.089,37.839 184.915,37.839 C 185.315,37.839 185.693,37.804 186.047,37.733 C 186.401,37.662 186.732,37.564 187.04,37.439 C 187.347,37.315 187.631,37.166 187.889,36.992 C 188.148,36.818 188.378,36.626 188.578,36.416 L 187.743,35.295 C 187.689,35.226 187.626,35.164 187.552,35.108 C 187.479,35.052 187.377,35.024 187.245,35.024 C 187.157,35.024 187.074,35.043 186.996,35.082 C 186.917,35.121 186.834,35.169 186.746,35.225 C 186.659,35.281 186.562,35.342 186.457,35.408 C 186.352,35.474 186.227,35.535 186.083,35.592 C 185.939,35.648 185.771,35.695 185.578,35.735 C 185.385,35.773 185.159,35.793 184.9,35.793 C 184.451,35.793 184.04,35.714 183.669,35.555 C 183.298,35.396 182.979,35.169 182.713,34.873 C 182.447,34.578 182.239,34.22 182.09,33.8 C 181.941,33.38 181.867,32.908 181.867,32.386 C 181.867,31.838 181.941,31.352 182.09,30.927 C 182.239,30.502 182.442,30.145 182.698,29.854 C 182.955,29.563 183.254,29.342 183.596,29.191 C 183.938,29.039 184.304,28.964 184.695,28.964 C 184.92,28.964 185.125,28.975 185.31,28.997 C 185.496,29.019 185.668,29.056 185.827,29.11 C 185.986,29.164 186.137,29.233 186.281,29.319 C 186.425,29.404 186.571,29.511 186.717,29.638 C 186.776,29.687 186.839,29.727 186.908,29.759 C 186.976,29.79 187.047,29.806 187.12,29.806 Z" marker-start="none" marker-end="none"/>
       <path d="M 189.139,28.196 C 189.139,28.372 189.172,28.536 189.238,28.687 C 189.303,28.839 189.394,28.971 189.509,29.083 C 189.623,29.196 189.759,29.285 189.915,29.351 C 190.072,29.417 190.243,29.45 190.428,29.45 C 190.609,29.45 190.777,29.417 190.934,29.351 C 191.09,29.285 191.227,29.196 191.344,29.083 C 191.461,28.971 191.553,28.839 191.619,28.687 C 191.685,28.536 191.718,28.372 191.718,28.196 C 191.718,28.02 191.685,27.855 191.619,27.701 C 191.553,27.547 191.461,27.414 191.344,27.302 C 191.227,27.189 191.09,27.101 190.934,27.038 C 190.777,26.974 190.609,26.942 190.428,26.942 C 190.243,26.942 190.072,26.974 189.915,27.038 C 189.759,27.101 189.623,27.189 189.509,27.302 C 189.394,27.414 189.303,27.547 189.238,27.701 C 189.172,27.855 189.139,28.02 189.139,28.196 Z" marker-start="none" marker-end="none"/>
      </g>
     </g>
    </g>
   </g>
  </g>
 </g>
</svg>
