<?xml version="1.0" standalone="no"?>
<!DOCTYPE svg PUBLIC "-//W3C//DTD SVG 1.1//EN" "http://www.w3.org/Graphics/SVG/1.1/DTD/svg11.dtd">
<!--Generator: Xara Designer (www.xara.com), SVG filter version: 6.2.0.0-->
<svg stroke-width="0.501" stroke-linejoin="bevel" fill-rule="evenodd" xmlns:xlink="http://www.w3.org/1999/xlink" xmlns="http://www.w3.org/2000/svg" version="1.1" overflow="visible" width="215.434pt" height="215.434pt" viewBox="0 0 215.434 215.434">
 <defs>
	</defs>
 <g id="Document" fill="none" stroke="black" font-family="Times New Roman" font-size="16" transform="scale(1 -1)">
  <g id="Spread" transform="translate(0 -215.434)">
   <g id="Layer 1">
    <g id="Group">
     <path d="M 199.757,214.933 L 15.176,214.933 C 6.799,214.933 0,208.134 0,199.757 L 0,15.176 C 0,6.799 6.799,0 15.176,0 L 199.757,0 C 208.134,0 214.933,6.799 214.933,15.176 L 214.933,199.757 C 214.933,208.134 208.134,214.933 199.757,214.933 Z" stroke="#999999" fill="#ffffff" stroke-linejoin="miter" marker-start="none" marker-end="none"/>
     <path d="M 15.549,68.362 L 15.549,34.47 L 119.137,34.47 L 119.137,68.362 L 15.549,68.362 Z" stroke="#30336b" stroke-linejoin="miter" stroke-linecap="round" fill="#30336b" stroke-width="1.738" marker-start="none" marker-end="none" stroke-miterlimit="79.8403193612775"/>
     <path d="M 15.549,69.705 L 15.549,59.895 C 15.549,57.324 17.633,55.247 20.195,55.247 L 114.487,55.247 C 117.049,55.247 119.137,57.324 119.137,59.895 L 119.137,69.705 C 119.137,72.281 117.049,74.359 114.487,74.359 L 20.195,74.359 C 17.633,74.359 15.549,72.281 15.549,69.705 Z" stroke="#30336b" stroke-linejoin="miter" stroke-linecap="round" fill="#30336b" stroke-width="1.738" marker-start="none" marker-end="none" stroke-miterlimit="79.8403193612775"/>
     <path d="M 16.246,40.812 L 16.246,23.167 C 16.246,18.554 19.99,14.808 24.608,14.808 L 191.654,14.808 C 196.267,14.808 200.015,18.554 200.015,23.167 L 200.015,40.812 C 200.015,45.43 196.267,49.178 191.654,49.178 L 24.608,49.178 C 19.99,49.178 16.246,45.43 16.246,40.812 Z" stroke="#30336b" stroke-linejoin="miter" stroke-linecap="round" fill="#ffffff" stroke-width="3.13" marker-start="none" marker-end="none" stroke-miterlimit="79.8403193612775"/>
     <path d="M 59.5,101.396 C 53.6,108.374 54.479,118.834 61.474,124.743 C 68.456,130.635 78.909,129.756 84.813,122.769 C 90.722,115.777 89.836,105.323 82.839,99.418 C 75.857,93.523 65.4,94.402 59.5,101.396 Z" stroke-linejoin="miter" stroke="none" fill="#000000" stroke-width="0.686" marker-start="none" marker-end="none" stroke-miterlimit="79.8403193612775"/>
     <path d="M 60.278,102.005 C 54.387,109.003 55.259,119.462 62.252,125.355 C 69.241,131.264 79.693,130.381 85.609,123.388 C 91.506,116.406 90.621,105.954 83.627,100.049 C 76.648,94.143 66.184,95.022 60.278,102.005 Z" stroke-linejoin="miter" stroke="#b2b2b2" stroke-width="3.752" marker-start="none" marker-end="none" stroke-miterlimit="79.8403193612775"/>
     <path d="M 18.815,101.383 C 12.915,108.372 13.794,118.84 20.791,124.731 C 27.774,130.642 38.228,129.759 44.13,122.771 C 50.041,115.782 49.155,105.322 42.157,99.418 C 35.174,93.519 24.715,94.402 18.815,101.383 Z" stroke-linejoin="miter" stroke="none" fill="#ffffff" stroke-width="0.689" marker-start="none" marker-end="none" stroke-miterlimit="79.8403193612775"/>
     <path d="M 19.595,102.018 C 13.702,109.01 14.575,119.456 21.567,125.369 C 28.558,131.253 39.013,130.381 44.926,123.393 C 50.824,116.406 49.94,105.94 42.946,100.04 C 35.965,94.141 25.5,95.019 19.595,102.018 Z" stroke-linejoin="miter" stroke="#55bae6" stroke-width="3.752" marker-start="none" marker-end="none" stroke-miterlimit="79.8403193612775"/>
     <path d="M 21.355,158.033 C 12.458,168.573 13.783,184.359 24.335,193.243 C 34.866,202.157 50.631,200.825 59.532,190.287 C 68.446,179.747 67.11,163.973 56.556,155.07 C 46.025,146.174 30.253,147.505 21.355,158.033 Z" stroke-linejoin="miter" stroke="none" fill="#ffffff" stroke-width="1.039" marker-start="none" marker-end="none" stroke-miterlimit="79.8403193612775"/>
     <path d="M 22.532,158.99 C 13.645,169.535 14.961,185.288 25.505,194.205 C 36.048,203.078 51.815,201.763 60.732,191.225 C 69.626,180.688 68.293,164.905 57.746,156.008 C 47.218,147.112 31.437,148.436 22.532,158.99 Z" stroke-linejoin="miter" stroke="#55bae6" stroke-width="5.658" marker-start="none" marker-end="none" stroke-miterlimit="79.8403193612775"/>
     <g id="Group_1" fill-rule="nonzero" stroke-linejoin="round" stroke-linecap="round" stroke="none" stroke-width="0.485" fill="#b2b2b2" stroke-miterlimit="79.8403193612775">
      <g id="Group_2">
       <path d="M 72.123,119.957 C 72.824,119.957 73.456,119.855 74.018,119.65 C 74.58,119.446 75.059,119.161 75.456,118.798 C 75.852,118.434 76.156,118 76.367,117.497 C 76.578,116.993 76.684,116.439 76.684,115.835 C 76.684,115.315 76.611,114.834 76.464,114.392 C 76.318,113.95 76.118,113.53 75.865,113.13 C 75.612,112.731 75.318,112.344 74.983,111.97 C 74.648,111.597 74.293,111.218 73.916,110.835 L 71.138,107.989 C 71.496,108.094 71.848,108.177 72.196,108.239 C 72.543,108.302 72.87,108.332 73.175,108.332 L 75.826,108.332 C 76.151,108.332 76.407,108.243 76.596,108.064 C 76.784,107.885 76.879,107.649 76.879,107.357 L 76.879,105.601 L 66.899,105.601 L 66.899,106.576 C 66.899,106.764 66.938,106.965 67.016,107.18 C 67.094,107.394 67.231,107.589 67.425,107.765 L 71.519,111.888 C 71.869,112.239 72.175,112.574 72.435,112.892 C 72.694,113.21 72.909,113.524 73.078,113.832 C 73.247,114.141 73.373,114.45 73.458,114.758 C 73.542,115.067 73.585,115.394 73.585,115.738 C 73.585,116.303 73.45,116.737 73.18,117.039 C 72.91,117.341 72.5,117.493 71.947,117.493 C 71.72,117.493 71.512,117.46 71.324,117.395 C 71.135,117.33 70.966,117.242 70.817,117.132 C 70.667,117.022 70.539,116.892 70.432,116.742 C 70.325,116.593 70.239,116.43 70.174,116.255 C 70.07,115.963 69.938,115.752 69.779,115.622 C 69.62,115.492 69.404,115.427 69.131,115.427 C 69.066,115.427 68.996,115.43 68.921,115.436 C 68.847,115.443 68.77,115.452 68.692,115.465 L 67.094,115.743 C 67.198,116.452 67.398,117.07 67.693,117.597 C 67.989,118.124 68.356,118.562 68.795,118.914 C 69.233,119.265 69.735,119.526 70.3,119.699 C 70.866,119.871 71.473,119.957 72.123,119.957 Z" marker-start="none" marker-end="none"/>
      </g>
     </g>
     <g id="Group_3" fill-rule="nonzero" stroke-linejoin="round" stroke-linecap="round" stroke="none" stroke-width="0.485" fill="#000000" stroke-miterlimit="79.8403193612775">
      <g id="Group_4">
       <path d="M 32.641,119.957 C 33.342,119.957 33.966,119.858 34.512,119.659 C 35.057,119.461 35.519,119.192 35.896,118.853 C 36.272,118.514 36.558,118.122 36.753,117.675 C 36.948,117.229 37.046,116.758 37.046,116.263 C 37.046,115.814 37,115.418 36.909,115.075 C 36.818,114.733 36.683,114.437 36.505,114.186 C 36.326,113.935 36.105,113.722 35.842,113.546 C 35.579,113.37 35.278,113.224 34.941,113.106 C 36.513,112.562 37.299,111.495 37.299,109.907 C 37.299,109.155 37.162,108.501 36.89,107.943 C 36.617,107.385 36.251,106.922 35.793,106.553 C 35.335,106.183 34.804,105.906 34.2,105.721 C 33.596,105.536 32.965,105.444 32.309,105.444 C 31.634,105.444 31.033,105.517 30.506,105.663 C 29.98,105.809 29.512,106.037 29.103,106.345 C 28.694,106.654 28.335,107.048 28.026,107.529 C 27.718,108.01 27.45,108.581 27.222,109.244 L 28.567,109.791 C 28.684,109.844 28.799,109.879 28.913,109.899 C 29.027,109.918 29.139,109.928 29.249,109.928 C 29.457,109.928 29.644,109.887 29.81,109.806 C 29.975,109.725 30.1,109.606 30.185,109.45 C 30.477,108.91 30.787,108.518 31.115,108.275 C 31.444,108.031 31.828,107.909 32.27,107.909 C 32.608,107.909 32.902,107.966 33.152,108.08 C 33.402,108.193 33.61,108.339 33.776,108.518 C 33.942,108.697 34.067,108.901 34.151,109.128 C 34.236,109.356 34.278,109.587 34.278,109.821 C 34.278,110.126 34.257,110.401 34.215,110.645 C 34.172,110.889 34.054,111.099 33.859,111.274 C 33.664,111.45 33.37,111.585 32.977,111.679 C 32.584,111.773 32.036,111.82 31.335,111.82 L 31.335,113.905 C 31.926,113.905 32.403,113.95 32.767,114.041 C 33.131,114.132 33.412,114.257 33.61,114.417 C 33.808,114.576 33.94,114.769 34.005,114.997 C 34.07,115.224 34.102,115.474 34.102,115.747 C 34.102,116.306 33.968,116.737 33.698,117.039 C 33.428,117.341 33.017,117.493 32.465,117.493 C 32.238,117.493 32.03,117.46 31.841,117.395 C 31.653,117.33 31.484,117.242 31.335,117.132 C 31.185,117.021 31.057,116.891 30.95,116.742 C 30.843,116.592 30.757,116.43 30.692,116.254 C 30.588,115.962 30.456,115.751 30.297,115.621 C 30.138,115.491 29.922,115.425 29.649,115.425 C 29.584,115.425 29.514,115.429 29.439,115.435 C 29.365,115.442 29.288,115.451 29.21,115.464 L 27.612,115.747 C 27.716,116.455 27.916,117.073 28.211,117.599 C 28.507,118.125 28.874,118.564 29.313,118.915 C 29.751,119.265 30.253,119.527 30.818,119.699 C 31.383,119.871 31.991,119.957 32.641,119.957 Z" marker-start="none" marker-end="none"/>
      </g>
     </g>
     <path d="M 214.917,102.79 L 214.917,94.256 L 165.754,94.256 L 165.754,102.791 L 214.917,102.79 Z" fill="#ff3718" stroke-linecap="round" stroke="none" stroke-width="0.103" stroke-linejoin="miter" marker-start="none" marker-end="none" stroke-miterlimit="79.8403193612775"/>
     <path d="M 115.312,123.022 C 127.579,109.583 144.393,102.754 161.266,102.751 L 161.266,94.271 C 142.094,94.277 122.981,102.027 109.047,117.296 C 96.674,130.857 90.572,147.934 90.577,164.957 L 99.063,164.957 C 99.056,149.975 104.425,134.948 115.312,123.022 Z" fill="#ff3718" stroke-linecap="round" stroke="none" stroke-width="0.541" stroke-linejoin="round" marker-start="none" marker-end="none" stroke-miterlimit="79.8403193612775"/>
     <path d="M 94.804,202.91 L 96.922,199.865 L 99.044,196.813 L 99.097,196.812 L 99.097,169.535 L 90.561,169.536 L 90.561,196.812 L 92.681,199.865 L 94.804,202.91 Z" fill="#ff3718" stroke-linecap="round" stroke="none" stroke-width="0.103" stroke-linejoin="miter" marker-start="none" marker-end="none" stroke-miterlimit="79.8403193612775"/>
     <path d="M 106.354,202.914 L 108.474,199.867 L 110.595,196.812 L 106.354,196.812 L 102.113,196.816 L 104.235,199.868 L 106.354,202.914 Z M 110.618,196.812 L 110.619,169.535 L 102.084,169.535 L 102.084,196.812 L 110.618,196.812 Z" stroke-linecap="round" stroke="none" fill="#e5e5e5" stroke-width="0.103" stroke-linejoin="miter" marker-start="none" marker-end="none" stroke-miterlimit="79.8403193612775"/>
     <path d="M 123.666,130.644 C 133.706,119.653 147.461,114.066 161.266,114.06 L 161.266,105.58 C 145.158,105.585 129.109,112.099 117.4,124.927 C 107.006,136.313 101.886,150.656 101.889,164.956 L 110.375,164.957 C 110.365,152.7 114.76,140.408 123.666,130.644 Z" stroke-linecap="round" stroke="none" fill="#e5e5e5" stroke-width="0.453" stroke-linejoin="round" marker-start="none" marker-end="none" stroke-miterlimit="79.8403193612775"/>
     <path d="M 214.917,114.092 L 214.917,105.561 L 165.754,105.561 L 165.754,114.093 L 214.917,114.092 Z" stroke-linecap="round" stroke="none" fill="#e5e5e5" stroke-width="0.103" stroke-linejoin="miter" marker-start="none" marker-end="none" stroke-miterlimit="79.8403193612775"/>
     <path d="M 117.67,202.914 L 119.785,199.868 L 121.907,196.812 L 117.666,196.812 L 113.423,196.816 L 115.543,199.868 L 117.67,202.914 Z M 121.917,196.812 L 121.916,169.535 L 113.381,169.535 L 113.381,196.812 L 121.917,196.812 Z" fill="#e5e5e5" stroke-linecap="round" stroke="none" stroke-width="0.103" stroke-linejoin="miter" marker-start="none" marker-end="none" stroke-miterlimit="79.8403193612775"/>
     <path d="M 214.917,125.39 L 214.917,116.86 L 165.755,116.86 L 165.754,125.391 L 214.917,125.39 Z" fill="#e5e5e5" stroke-linecap="round" stroke="none" stroke-width="0.103" stroke-linejoin="miter" marker-start="none" marker-end="none" stroke-miterlimit="79.8403193612775"/>
     <path d="M 132.021,138.271 C 139.828,129.719 150.533,125.38 161.266,125.373 L 161.265,116.888 C 148.224,116.892 135.234,122.165 125.755,132.554 C 117.344,141.769 113.196,153.385 113.198,164.957 L 121.68,164.957 C 121.68,155.424 125.094,145.86 132.021,138.271 Z" fill="#e5e5e5" stroke-linecap="round" stroke="none" stroke-width="0.368" stroke-linejoin="round" marker-start="none" marker-end="none" stroke-miterlimit="79.8403193612775"/>
     <path d="M 214.917,136.687 L 214.917,128.153 L 165.753,128.153 L 165.754,136.687 L 214.917,136.687 Z" fill="#11a7e0" stroke-linecap="round" stroke="none" stroke-width="0.103" stroke-linejoin="miter" marker-start="none" marker-end="none" stroke-miterlimit="79.8403193612775"/>
     <path d="M 140.376,145.892 C 145.954,139.785 153.592,136.685 161.265,136.682 L 161.266,128.195 C 151.296,128.205 141.357,132.237 134.114,140.175 C 127.675,147.225 124.504,156.101 124.508,164.957 L 132.996,164.957 C 132.989,158.15 135.431,151.318 140.376,145.892 Z" fill="#11a7e0" stroke-linecap="round" stroke="none" stroke-width="0.281" stroke-linejoin="round" marker-start="none" marker-end="none" stroke-miterlimit="79.8403193612775"/>
     <path d="M 128.723,202.91 L 130.855,199.866 L 132.996,196.813 L 132.996,196.813 L 132.996,169.536 L 124.457,169.535 L 124.457,196.812 L 124.457,196.812 L 126.587,199.867 L 128.723,202.91 Z" fill="#11a7e0" stroke-linecap="round" stroke="none" stroke-width="0.103" stroke-linejoin="miter" marker-start="none" marker-end="none" stroke-miterlimit="79.8403193612775"/>
     <path d="M 153.514,158.48 C 144.617,169.02 145.942,184.806 156.494,193.689 C 167.025,202.604 182.79,201.272 191.691,190.735 C 200.605,180.194 199.269,164.42 188.716,155.517 C 178.184,146.621 162.412,147.952 153.514,158.48 Z" stroke-linejoin="miter" stroke="none" fill="#000000" stroke-width="1.039" marker-start="none" marker-end="none" stroke-miterlimit="79.8403193612775"/>
     <path d="M 154.691,159.437 C 145.804,169.982 147.12,185.734 157.664,194.652 C 168.208,203.524 183.974,202.21 192.891,191.673 C 201.785,181.135 200.452,165.352 189.905,156.455 C 179.377,147.559 163.596,148.883 154.691,159.437 Z" stroke-linejoin="miter" stroke="#b2b2b2" stroke-width="5.658" marker-start="none" marker-end="none" stroke-miterlimit="79.8403193612775"/>
     <path d="M 175.579,106.665 C 171.054,112.021 171.731,120.037 177.088,124.56 C 182.444,129.085 190.464,128.413 194.984,123.055 C 199.509,117.698 198.834,109.678 193.475,105.159 C 188.121,100.631 180.101,101.314 175.579,106.665 Z" stroke-linejoin="miter" stroke="none" fill="#ffffff" stroke-width="0.526" marker-start="none" marker-end="none" stroke-miterlimit="79.8403193612775"/>
     <path d="M 176.182,107.147 C 171.658,112.496 172.334,120.518 177.69,125.039 C 183.049,129.567 191.065,128.889 195.588,123.53 C 200.117,118.179 199.44,110.156 194.08,105.632 C 188.721,101.111 180.705,101.785 176.182,107.147 Z" fill="none" stroke-linejoin="miter" stroke="#55bae6" stroke-width="2.872" marker-start="none" marker-end="none" stroke-miterlimit="79.8403193612775"/>
     <path d="M 137.245,116.982 C 131.894,112.46 123.874,113.137 119.347,118.493 C 114.831,123.85 115.504,131.869 120.861,136.393 C 126.216,140.916 134.233,140.236 138.756,134.882 C 143.28,129.525 142.604,121.507 137.245,116.982 Z" stroke-linejoin="miter" stroke="none" fill="#ffffff" stroke-width="0.526" marker-start="none" marker-end="none" stroke-miterlimit="79.8403193612775"/>
     <path d="M 136.767,117.59 C 131.413,113.063 123.397,113.737 118.873,119.097 C 114.349,124.455 115.022,132.47 120.385,136.995 C 125.74,141.522 133.757,140.838 138.283,135.487 C 142.808,130.127 142.127,122.112 136.767,117.59 Z" fill="none" stroke-linejoin="miter" stroke="#55bae6" stroke-width="2.872" marker-start="none" marker-end="none" stroke-miterlimit="79.8403193612775"/>
     <path d="M 101.473,176.24 C 96.949,181.596 97.628,189.613 102.983,194.141 C 108.343,198.662 116.363,197.984 120.886,192.626 C 125.414,187.273 124.731,179.251 119.375,174.732 C 114.016,170.213 106,170.887 101.473,176.24 Z" stroke-linejoin="miter" stroke="none" fill="#ffffff" stroke-width="0.526" marker-start="none" marker-end="none" stroke-miterlimit="79.8403193612775"/>
     <path d="M 102.08,176.724 C 97.556,182.075 98.232,190.095 103.592,194.619 C 108.951,199.14 116.966,198.466 121.489,193.106 C 126.016,187.753 125.338,179.733 119.982,175.212 C 114.619,170.687 106.603,171.363 102.08,176.724 Z" fill="none" stroke-linejoin="miter" stroke="#55bae6" stroke-width="2.872" marker-start="none" marker-end="none" stroke-miterlimit="79.8403193612775"/>
     <g id="Group_5" fill-rule="nonzero" stroke-linejoin="round" stroke-linecap="round" stroke="none" stroke-width="0.387" fill="#000000" stroke-miterlimit="79.8403193612775">
      <g id="Group_6">
       <path d="M 182.284,118.783 L 182.284,115.701 L 185.163,115.701 L 185.163,113.972 L 182.284,113.972 L 182.284,110.875 L 180.323,110.875 L 180.323,113.972 L 177.459,113.972 L 177.459,115.701 L 180.323,115.701 L 180.323,118.783 L 182.284,118.783 Z" marker-start="none" marker-end="none"/>
       <path d="M 187.794,111.35 L 189.973,111.35 L 189.973,117.07 C 189.973,117.351 189.981,117.644 189.996,117.95 L 188.712,116.883 C 188.629,116.816 188.546,116.768 188.463,116.739 C 188.38,116.711 188.3,116.697 188.222,116.697 C 188.087,116.697 187.967,116.726 187.86,116.786 C 187.754,116.846 187.675,116.909 187.623,116.977 L 186.86,117.989 L 190.393,120.954 L 192.386,120.954 L 192.386,111.35 L 194.253,111.35 L 194.253,109.606 L 187.794,109.606 L 187.794,111.35 Z" marker-start="none" marker-end="none"/>
      </g>
     </g>
     <g id="Group_7" fill-rule="nonzero" stroke-linejoin="round" stroke-linecap="round" stroke="none" stroke-width="0.387" fill="#000000" stroke-miterlimit="79.8403193612775">
      <g id="Group_8">
       <path d="M 124.255,130.19 L 124.255,127.108 L 127.134,127.108 L 127.134,125.379 L 124.255,125.379 L 124.255,122.282 L 122.294,122.282 L 122.294,125.379 L 119.43,125.379 L 119.43,127.108 L 122.294,127.108 L 122.294,130.19 L 124.255,130.19 Z" marker-start="none" marker-end="none"/>
       <path d="M 129.765,122.757 L 131.944,122.757 L 131.944,128.477 C 131.944,128.758 131.952,129.051 131.967,129.357 L 130.683,128.29 C 130.6,128.223 130.517,128.175 130.434,128.146 C 130.351,128.118 130.271,128.104 130.193,128.104 C 130.058,128.104 129.938,128.133 129.831,128.193 C 129.725,128.253 129.646,128.316 129.594,128.384 L 128.831,129.396 L 132.364,132.361 L 134.357,132.361 L 134.357,122.757 L 136.224,122.757 L 136.224,121.013 L 129.765,121.013 L 129.765,122.757 Z" marker-start="none" marker-end="none"/>
      </g>
     </g>
     <g id="Group_9" fill-rule="nonzero" stroke-linejoin="round" stroke-linecap="round" stroke="none" stroke-width="0.387" fill="#000000" stroke-miterlimit="79.8403193612775">
      <g id="Group_10">
       <path d="M 108.213,188.417 L 108.213,185.335 L 111.092,185.335 L 111.092,183.606 L 108.213,183.606 L 108.213,180.509 L 106.252,180.509 L 106.252,183.606 L 103.388,183.606 L 103.388,185.335 L 106.252,185.335 L 106.252,188.417 L 108.213,188.417 Z" marker-start="none" marker-end="none"/>
       <path d="M 113.723,180.984 L 115.902,180.984 L 115.902,186.704 C 115.902,186.985 115.91,187.278 115.925,187.584 L 114.641,186.517 C 114.558,186.45 114.475,186.402 114.392,186.373 C 114.309,186.345 114.229,186.331 114.151,186.331 C 114.016,186.331 113.896,186.36 113.789,186.42 C 113.683,186.48 113.604,186.543 113.552,186.611 L 112.789,187.623 L 116.322,190.588 L 118.315,190.588 L 118.315,180.984 L 120.182,180.984 L 120.182,179.24 L 113.723,179.24 L 113.723,180.984 Z" marker-start="none" marker-end="none"/>
      </g>
     </g>
     <g id="Group_11" fill-rule="nonzero" stroke-linejoin="round" stroke-linecap="round" stroke="none" stroke-width="0.319" fill="#ffffff" stroke-miterlimit="79.8403193612775">
      <g id="Group_12">
       <path d="M 30.747,61.164 C 30.747,60.49 30.631,59.869 30.398,59.3 C 30.166,58.731 29.839,58.238 29.417,57.823 C 28.995,57.407 28.487,57.083 27.893,56.851 C 27.298,56.618 26.639,56.502 25.914,56.502 L 22.296,56.502 L 22.296,65.819 L 25.914,65.819 C 26.639,65.819 27.298,65.702 27.893,65.467 C 28.487,65.233 28.995,64.909 29.417,64.495 C 29.839,64.082 30.166,63.59 30.398,63.021 C 30.631,62.452 30.747,61.833 30.747,61.164 Z M 28.535,61.164 C 28.535,61.624 28.475,62.039 28.356,62.41 C 28.237,62.781 28.065,63.095 27.841,63.353 C 27.618,63.611 27.344,63.809 27.02,63.948 C 26.696,64.086 26.328,64.155 25.914,64.155 L 24.47,64.155 L 24.47,58.166 L 25.914,58.166 C 26.328,58.166 26.696,58.235 27.02,58.373 C 27.344,58.512 27.618,58.71 27.841,58.968 C 28.065,59.226 28.237,59.54 28.356,59.911 C 28.475,60.282 28.535,60.699 28.535,61.164 Z" marker-start="none" marker-end="none"/>
       <path d="M 34.15,56.502 L 31.977,56.502 L 31.977,65.819 L 34.15,65.819 L 34.15,56.502 Z" marker-start="none" marker-end="none"/>
       <path d="M 41.065,63.924 C 41.001,63.821 40.934,63.745 40.863,63.694 C 40.793,63.642 40.702,63.617 40.592,63.617 C 40.494,63.617 40.388,63.648 40.275,63.71 C 40.162,63.771 40.034,63.841 39.892,63.917 C 39.749,63.994 39.586,64.063 39.403,64.125 C 39.219,64.187 39.011,64.218 38.776,64.218 C 38.371,64.218 38.07,64.132 37.872,63.959 C 37.674,63.786 37.574,63.553 37.574,63.259 C 37.574,63.071 37.634,62.916 37.753,62.792 C 37.873,62.669 38.029,62.562 38.223,62.472 C 38.417,62.383 38.639,62.301 38.888,62.226 C 39.137,62.152 39.392,62.069 39.652,61.977 C 39.912,61.885 40.167,61.778 40.416,61.654 C 40.665,61.531 40.887,61.373 41.081,61.181 C 41.275,60.989 41.431,60.756 41.551,60.481 C 41.67,60.206 41.73,59.875 41.73,59.487 C 41.73,59.056 41.655,58.654 41.506,58.279 C 41.357,57.904 41.14,57.576 40.857,57.297 C 40.574,57.018 40.224,56.799 39.809,56.639 C 39.393,56.479 38.921,56.399 38.393,56.399 C 38.103,56.399 37.808,56.429 37.507,56.489 C 37.207,56.548 36.916,56.632 36.635,56.741 C 36.354,56.85 36.089,56.979 35.842,57.128 C 35.595,57.277 35.38,57.443 35.196,57.627 L 35.836,58.637 C 35.883,58.714 35.949,58.775 36.034,58.822 C 36.119,58.869 36.211,58.893 36.309,58.893 C 36.437,58.893 36.566,58.852 36.696,58.771 C 36.825,58.69 36.973,58.601 37.137,58.503 C 37.301,58.405 37.489,58.315 37.702,58.234 C 37.915,58.153 38.167,58.113 38.457,58.113 C 38.849,58.113 39.153,58.199 39.371,58.371 C 39.588,58.544 39.697,58.818 39.697,59.193 C 39.697,59.411 39.637,59.587 39.518,59.724 C 39.398,59.86 39.242,59.973 39.048,60.063 C 38.854,60.152 38.633,60.231 38.386,60.299 C 38.139,60.367 37.886,60.443 37.626,60.526 C 37.366,60.609 37.112,60.711 36.865,60.833 C 36.618,60.954 36.397,61.114 36.203,61.312 C 36.009,61.511 35.853,61.758 35.733,62.054 C 35.614,62.35 35.554,62.716 35.554,63.151 C 35.554,63.5 35.625,63.841 35.765,64.174 C 35.906,64.506 36.113,64.802 36.385,65.062 C 36.658,65.322 36.993,65.53 37.389,65.686 C 37.785,65.841 38.239,65.919 38.751,65.919 C 39.036,65.919 39.314,65.897 39.585,65.852 C 39.855,65.807 40.112,65.741 40.355,65.653 C 40.598,65.566 40.825,65.462 41.036,65.34 C 41.247,65.219 41.435,65.081 41.602,64.928 L 41.065,63.924 Z" marker-start="none" marker-end="none"/>
       <path d="M 49.566,65.819 L 49.566,64.105 L 46.945,64.105 L 46.945,56.504 L 44.785,56.504 L 44.785,64.105 L 42.164,64.105 L 42.164,65.819 L 49.566,65.819 Z" marker-start="none" marker-end="none"/>
       <path d="M 52.624,59.948 L 52.624,56.502 L 50.463,56.502 L 50.463,65.816 L 53.493,65.816 C 54.166,65.816 54.741,65.747 55.216,65.608 C 55.691,65.469 56.079,65.276 56.379,65.029 C 56.68,64.781 56.898,64.489 57.034,64.152 C 57.171,63.815 57.239,63.448 57.239,63.051 C 57.239,62.748 57.199,62.462 57.118,62.193 C 57.037,61.925 56.916,61.676 56.756,61.448 C 56.597,61.219 56.401,61.016 56.168,60.836 C 55.936,60.657 55.669,60.51 55.366,60.395 C 55.511,60.323 55.646,60.233 55.772,60.127 C 55.898,60.02 56.007,59.891 56.101,59.737 L 58.083,56.502 L 56.127,56.502 C 55.765,56.502 55.505,56.638 55.347,56.911 L 53.8,59.615 C 53.732,59.735 53.652,59.82 53.56,59.871 C 53.469,59.922 53.34,59.948 53.173,59.948 L 52.624,59.948 Z M 52.624,61.437 L 53.493,61.437 C 53.787,61.437 54.038,61.474 54.244,61.549 C 54.451,61.623 54.62,61.727 54.752,61.859 C 54.884,61.991 54.98,62.145 55.04,62.322 C 55.1,62.499 55.13,62.69 55.13,62.895 C 55.13,63.304 54.996,63.624 54.73,63.854 C 54.464,64.084 54.051,64.199 53.493,64.199 L 52.624,64.199 L 52.624,61.437 Z" marker-start="none" marker-end="none"/>
       <path d="M 61.331,56.502 L 59.158,56.502 L 59.158,65.819 L 61.331,65.819 L 61.331,56.502 Z" marker-start="none" marker-end="none"/>
       <path d="M 63.055,56.502 L 63.055,65.816 L 66.481,65.816 C 67.125,65.816 67.673,65.756 68.124,65.637 C 68.576,65.518 68.945,65.349 69.23,65.132 C 69.516,64.915 69.723,64.651 69.853,64.34 C 69.983,64.029 70.048,63.681 70.048,63.298 C 70.048,63.089 70.019,62.888 69.959,62.694 C 69.899,62.5 69.805,62.318 69.678,62.148 C 69.55,61.977 69.386,61.823 69.185,61.684 C 68.985,61.546 68.744,61.425 68.463,61.323 C 69.077,61.174 69.531,60.932 69.825,60.597 C 70.119,60.263 70.266,59.833 70.266,59.309 C 70.266,58.912 70.189,58.544 70.036,58.203 C 69.882,57.862 69.657,57.564 69.361,57.311 C 69.065,57.057 68.7,56.859 68.265,56.716 C 67.83,56.573 67.334,56.502 66.775,56.502 L 63.055,56.502 Z M 65.216,60.454 L 65.216,58.131 L 66.737,58.131 C 67.023,58.131 67.256,58.168 67.437,58.24 C 67.618,58.313 67.76,58.406 67.862,58.521 C 67.964,58.637 68.035,58.767 68.073,58.912 C 68.111,59.057 68.131,59.204 68.131,59.353 C 68.131,59.524 68.108,59.677 68.064,59.814 C 68.019,59.95 67.942,60.066 67.833,60.159 C 67.725,60.253 67.581,60.326 67.402,60.377 C 67.223,60.428 66.997,60.454 66.724,60.454 L 65.216,60.454 Z M 65.216,61.899 L 66.341,61.899 C 66.579,61.899 66.795,61.916 66.986,61.95 C 67.178,61.984 67.341,62.044 67.475,62.129 C 67.61,62.214 67.712,62.331 67.782,62.48 C 67.853,62.629 67.888,62.817 67.888,63.042 C 67.888,63.264 67.86,63.448 67.805,63.595 C 67.749,63.742 67.664,63.86 67.549,63.95 C 67.434,64.039 67.288,64.103 67.111,64.142 C 66.934,64.18 66.724,64.199 66.481,64.199 L 65.216,64.199 L 65.216,61.899 Z" marker-start="none" marker-end="none"/>
       <path d="M 75.313,58.209 C 75.603,58.209 75.862,58.257 76.09,58.353 C 76.318,58.449 76.51,58.586 76.668,58.766 C 76.826,58.945 76.946,59.163 77.029,59.421 C 77.112,59.679 77.154,59.972 77.154,60.3 L 77.154,65.817 L 79.315,65.817 L 79.315,60.299 C 79.315,59.728 79.222,59.204 79.036,58.726 C 78.851,58.249 78.586,57.838 78.241,57.492 C 77.895,57.147 77.476,56.879 76.981,56.687 C 76.487,56.495 75.931,56.399 75.313,56.399 C 74.691,56.399 74.132,56.495 73.638,56.687 C 73.144,56.879 72.724,57.147 72.379,57.492 C 72.034,57.838 71.769,58.249 71.586,58.726 C 71.403,59.204 71.311,59.728 71.311,60.299 L 71.311,65.817 L 73.472,65.817 L 73.472,60.306 C 73.472,59.978 73.513,59.685 73.597,59.427 C 73.68,59.169 73.8,58.95 73.958,58.769 C 74.115,58.588 74.308,58.449 74.536,58.353 C 74.764,58.257 75.023,58.209 75.313,58.209 Z" marker-start="none" marker-end="none"/>
       <path d="M 87.485,65.819 L 87.485,64.105 L 84.864,64.105 L 84.864,56.504 L 82.704,56.504 L 82.704,64.105 L 80.083,64.105 L 80.083,65.819 L 87.485,65.819 Z" marker-start="none" marker-end="none"/>
       <path d="M 90.747,56.502 L 88.574,56.502 L 88.574,65.819 L 90.747,65.819 L 90.747,56.502 Z" marker-start="none" marker-end="none"/>
       <path d="M 101.663,61.162 C 101.663,60.489 101.547,59.862 101.315,59.283 C 101.083,58.703 100.756,58.199 100.334,57.77 C 99.912,57.342 99.404,57.006 98.809,56.763 C 98.215,56.52 97.555,56.399 96.831,56.399 C 96.106,56.399 95.446,56.52 94.849,56.763 C 94.252,57.006 93.742,57.342 93.318,57.77 C 92.894,58.199 92.566,58.703 92.334,59.283 C 92.101,59.862 91.985,60.489 91.985,61.162 C 91.985,61.836 92.101,62.462 92.334,63.042 C 92.566,63.622 92.894,64.124 93.318,64.551 C 93.742,64.977 94.252,65.312 94.849,65.555 C 95.446,65.797 96.106,65.919 96.831,65.919 C 97.555,65.919 98.215,65.796 98.809,65.551 C 99.404,65.306 99.912,64.971 100.334,64.544 C 100.756,64.118 101.083,63.615 101.315,63.035 C 101.547,62.456 101.663,61.831 101.663,61.162 Z M 99.452,61.162 C 99.452,61.622 99.392,62.036 99.273,62.405 C 99.153,62.773 98.982,63.086 98.758,63.341 C 98.534,63.597 98.26,63.793 97.937,63.929 C 97.613,64.065 97.244,64.133 96.831,64.134 C 96.413,64.133 96.041,64.065 95.715,63.929 C 95.389,63.793 95.114,63.597 94.891,63.341 C 94.667,63.086 94.495,62.773 94.376,62.405 C 94.257,62.036 94.197,61.622 94.197,61.162 C 94.197,60.698 94.257,60.281 94.376,59.913 C 94.495,59.544 94.667,59.232 94.891,58.977 C 95.114,58.721 95.389,58.526 95.715,58.392 C 96.041,58.258 96.413,58.191 96.831,58.191 C 97.244,58.191 97.613,58.258 97.937,58.392 C 98.26,58.526 98.534,58.721 98.758,58.977 C 98.982,59.232 99.153,59.544 99.273,59.913 C 99.392,60.281 99.452,60.698 99.452,61.162 Z" marker-start="none" marker-end="none"/>
       <path d="M 103.835,65.819 C 103.929,65.819 104.008,65.815 104.071,65.806 C 104.135,65.798 104.193,65.782 104.244,65.758 C 104.295,65.735 104.344,65.702 104.391,65.659 C 104.438,65.616 104.491,65.559 104.551,65.487 L 108.974,59.893 C 108.957,60.072 108.945,60.246 108.936,60.414 C 108.928,60.582 108.923,60.741 108.923,60.891 L 108.923,65.819 L 110.828,65.819 L 110.828,56.502 L 109.703,56.502 C 109.537,56.502 109.396,56.528 109.281,56.579 C 109.166,56.63 109.055,56.724 108.949,56.86 L 104.557,62.409 C 104.57,62.247 104.581,62.088 104.589,61.932 C 104.598,61.777 104.602,61.631 104.602,61.494 L 104.602,56.502 L 102.697,56.502 L 102.697,65.819 L 103.835,65.819 Z" marker-start="none" marker-end="none"/>
      </g>
     </g>
     <g id="Group_13" fill-rule="nonzero" stroke-linejoin="round" stroke-linecap="round" stroke="none" stroke-width="0.365" fill="#000000" stroke-miterlimit="79.8403193612775">
      <g id="Group_14">
       <path d="M 37.22,32.389 C 37.22,31.617 37.087,30.905 36.821,30.253 C 36.555,29.6 36.18,29.036 35.696,28.56 C 35.213,28.083 34.63,27.712 33.949,27.446 C 33.267,27.179 32.512,27.046 31.681,27.046 L 27.534,27.046 L 27.534,37.725 L 31.681,37.725 C 32.512,37.725 33.267,37.59 33.949,37.322 C 34.63,37.053 35.213,36.682 35.696,36.208 C 36.18,35.734 36.555,35.171 36.821,34.518 C 37.087,33.866 37.22,33.156 37.22,32.389 Z M 34.685,32.389 C 34.685,32.917 34.617,33.393 34.48,33.818 C 34.343,34.243 34.147,34.603 33.89,34.898 C 33.634,35.194 33.32,35.421 32.949,35.58 C 32.577,35.739 32.155,35.818 31.681,35.818 L 30.025,35.818 L 30.025,28.953 L 31.681,28.953 C 32.155,28.953 32.577,29.032 32.949,29.191 C 33.32,29.35 33.634,29.577 33.89,29.872 C 34.147,30.168 34.343,30.528 34.48,30.953 C 34.617,31.378 34.685,31.857 34.685,32.389 Z" marker-start="none" marker-end="none"/>
       <path d="M 47.906,27.046 L 45.987,27.046 C 45.772,27.046 45.595,27.096 45.456,27.196 C 45.316,27.296 45.22,27.425 45.166,27.581 L 44.536,29.443 L 40.477,29.443 L 39.847,27.581 C 39.798,27.444 39.703,27.321 39.561,27.211 C 39.419,27.101 39.246,27.046 39.041,27.046 L 37.107,27.046 L 41.239,37.723 L 43.774,37.723 L 47.906,27.046 Z M 41.048,31.128 L 43.965,31.128 L 42.983,34.007 C 42.919,34.189 42.845,34.405 42.759,34.652 C 42.674,34.9 42.59,35.168 42.506,35.457 C 42.428,35.163 42.348,34.892 42.265,34.641 C 42.182,34.392 42.104,34.175 42.03,33.992 L 41.048,31.128 Z" marker-start="none" marker-end="none"/>
       <path d="M 55.349,37.725 L 55.349,35.761 L 52.345,35.761 L 52.345,27.048 L 49.869,27.048 L 49.869,35.761 L 46.865,35.761 L 46.865,37.725 L 55.349,37.725 Z" marker-start="none" marker-end="none"/>
       <path d="M 65.141,27.046 L 63.222,27.046 C 63.007,27.046 62.83,27.096 62.691,27.196 C 62.551,27.296 62.455,27.425 62.401,27.581 L 61.771,29.443 L 57.712,29.443 L 57.082,27.581 C 57.033,27.444 56.938,27.321 56.796,27.211 C 56.654,27.101 56.481,27.046 56.276,27.046 L 54.342,27.046 L 58.474,37.723 L 61.009,37.723 L 65.141,27.046 Z M 58.283,31.128 L 61.2,31.128 L 60.218,34.007 C 60.154,34.189 60.08,34.405 59.994,34.652 C 59.909,34.9 59.825,35.168 59.741,35.457 C 59.663,35.163 59.583,34.892 59.5,34.641 C 59.417,34.392 59.339,34.175 59.265,33.992 L 58.283,31.128 Z" marker-start="none" marker-end="none"/>
       <path d="M 72.815,37.839 C 73.289,37.839 73.706,37.77 74.068,37.631 C 74.429,37.491 74.735,37.308 74.984,37.081 C 75.233,36.854 75.428,36.591 75.57,36.293 C 75.712,35.996 75.799,35.69 75.834,35.378 L 74.368,35.084 C 74.344,35.08 74.323,35.076 74.306,35.074 C 74.289,35.071 74.271,35.07 74.251,35.07 C 74.046,35.07 73.894,35.178 73.797,35.392 C 73.684,35.646 73.554,35.839 73.405,35.971 C 73.256,36.103 73.059,36.169 72.815,36.169 C 72.644,36.169 72.495,36.137 72.368,36.073 C 72.241,36.009 72.135,35.925 72.049,35.822 C 71.964,35.719 71.899,35.599 71.855,35.461 C 71.811,35.324 71.789,35.181 71.789,35.034 C 71.789,34.906 71.8,34.783 71.822,34.665 C 71.844,34.547 71.881,34.428 71.932,34.308 C 71.983,34.188 72.054,34.063 72.145,33.936 C 72.235,33.808 72.351,33.67 72.493,33.523 L 75.13,30.722 C 75.262,31.019 75.367,31.329 75.445,31.651 C 75.523,31.973 75.58,32.307 75.614,32.654 C 75.624,32.792 75.669,32.901 75.749,32.98 C 75.83,33.059 75.936,33.099 76.068,33.099 L 77.504,33.099 C 77.504,32.384 77.409,31.716 77.218,31.096 C 77.028,30.477 76.757,29.91 76.405,29.395 L 78.647,27.046 L 76.405,27.046 C 76.293,27.046 76.193,27.052 76.105,27.064 C 76.017,27.077 75.935,27.097 75.859,27.127 C 75.784,27.156 75.712,27.197 75.643,27.251 C 75.575,27.305 75.501,27.373 75.423,27.457 L 74.962,27.94 C 74.498,27.617 73.991,27.368 73.441,27.192 C 72.892,27.016 72.307,26.928 71.687,26.928 C 71.262,26.928 70.845,27 70.437,27.145 C 70.03,27.29 69.667,27.497 69.349,27.765 C 69.032,28.033 68.775,28.359 68.58,28.74 C 68.385,29.122 68.287,29.55 68.287,30.023 C 68.287,30.342 68.337,30.644 68.437,30.929 C 68.537,31.214 68.678,31.479 68.859,31.723 C 69.039,31.967 69.255,32.189 69.507,32.39 C 69.758,32.59 70.033,32.766 70.331,32.915 C 70.102,33.277 69.936,33.631 69.833,33.978 C 69.73,34.324 69.679,34.661 69.679,34.987 C 69.679,35.374 69.749,35.739 69.888,36.083 C 70.027,36.427 70.23,36.729 70.496,36.989 C 70.762,37.249 71.09,37.456 71.478,37.609 C 71.866,37.763 72.312,37.839 72.815,37.839 Z M 70.602,30.217 C 70.602,29.986 70.638,29.777 70.709,29.59 C 70.779,29.402 70.881,29.241 71.013,29.106 C 71.144,28.972 71.302,28.867 71.485,28.793 C 71.668,28.718 71.872,28.681 72.097,28.681 C 72.424,28.681 72.728,28.723 73.009,28.807 C 73.29,28.892 73.553,29.01 73.797,29.164 L 71.342,31.725 C 71.074,31.509 70.883,31.273 70.771,31.018 C 70.658,30.763 70.602,30.496 70.602,30.217 Z" marker-start="none" marker-end="none"/>
       <path d="M 81.446,37.723 L 83.527,37.723 C 83.742,37.723 83.921,37.674 84.066,37.576 C 84.21,37.477 84.304,37.347 84.348,37.184 L 85.813,31.575 C 85.862,31.393 85.911,31.199 85.96,30.992 C 86.008,30.786 86.045,30.569 86.069,30.343 C 86.118,30.574 86.172,30.792 86.231,30.996 C 86.289,31.2 86.345,31.393 86.399,31.575 L 88.128,37.184 C 88.172,37.322 88.266,37.446 88.41,37.557 C 88.554,37.668 88.729,37.723 88.934,37.723 L 89.667,37.723 C 89.882,37.723 90.059,37.675 90.198,37.579 C 90.337,37.483 90.434,37.352 90.488,37.184 L 92.202,31.574 C 92.256,31.402 92.312,31.219 92.371,31.024 C 92.429,30.83 92.48,30.622 92.524,30.4 C 92.563,30.617 92.604,30.824 92.645,31.02 C 92.687,31.217 92.73,31.402 92.773,31.574 L 94.239,37.184 C 94.278,37.327 94.371,37.452 94.517,37.561 C 94.664,37.669 94.84,37.723 95.045,37.723 L 96.994,37.723 L 93.697,27.046 L 91.455,27.046 L 89.447,33.56 C 89.413,33.661 89.378,33.772 89.341,33.892 C 89.304,34.012 89.269,34.139 89.235,34.274 C 89.2,34.139 89.165,34.012 89.128,33.892 C 89.092,33.772 89.056,33.661 89.022,33.56 L 86.985,27.046 L 84.743,27.046 L 81.446,37.723 Z" marker-start="none" marker-end="none"/>
       <path d="M 100.655,27.046 L 98.164,27.046 L 98.164,37.725 L 100.655,37.725 L 100.655,27.046 Z" marker-start="none" marker-end="none"/>
       <path d="M 105.108,30.996 L 105.108,27.046 L 102.631,27.046 L 102.631,37.721 L 106.104,37.721 C 106.876,37.721 107.534,37.642 108.079,37.483 C 108.623,37.324 109.068,37.103 109.412,36.819 C 109.757,36.535 110.007,36.2 110.163,35.814 C 110.319,35.428 110.398,35.007 110.398,34.552 C 110.398,34.205 110.351,33.877 110.258,33.569 C 110.166,33.261 110.028,32.976 109.844,32.714 C 109.661,32.453 109.437,32.219 109.17,32.014 C 108.904,31.809 108.598,31.64 108.251,31.508 C 108.417,31.425 108.572,31.322 108.716,31.2 C 108.86,31.079 108.986,30.93 109.093,30.754 L 111.365,27.046 L 109.123,27.046 C 108.708,27.046 108.41,27.202 108.229,27.515 L 106.456,30.615 C 106.378,30.751 106.286,30.849 106.181,30.908 C 106.076,30.966 105.928,30.996 105.738,30.996 L 105.108,30.996 Z M 105.108,32.702 L 106.104,32.702 C 106.441,32.702 106.728,32.745 106.965,32.83 C 107.202,32.916 107.396,33.034 107.547,33.186 C 107.699,33.337 107.809,33.514 107.877,33.717 C 107.946,33.92 107.98,34.139 107.98,34.373 C 107.98,34.842 107.827,35.209 107.522,35.472 C 107.217,35.736 106.744,35.868 106.104,35.868 L 105.108,35.868 L 105.108,32.702 Z" marker-start="none" marker-end="none"/>
       <path d="M 119.25,37.725 L 119.25,35.818 L 114.868,35.818 L 114.868,33.325 L 118.224,33.325 L 118.224,31.493 L 114.868,31.493 L 114.868,28.953 L 119.25,28.953 L 119.25,27.046 L 112.377,27.046 L 112.377,37.725 L 119.25,37.725 Z" marker-start="none" marker-end="none"/>
       <path d="M 123.133,29.024 L 127.089,29.024 L 127.089,27.046 L 120.656,27.046 L 120.656,37.723 L 123.133,37.723 L 123.133,29.024 Z" marker-start="none" marker-end="none"/>
       <path d="M 135.135,37.725 L 135.135,35.818 L 130.753,35.818 L 130.753,33.325 L 134.109,33.325 L 134.109,31.493 L 130.753,31.493 L 130.753,28.953 L 135.135,28.953 L 135.135,27.046 L 128.262,27.046 L 128.262,37.725 L 135.135,37.725 Z" marker-start="none" marker-end="none"/>
       <path d="M 142.491,35.553 C 142.417,35.435 142.34,35.347 142.26,35.289 C 142.179,35.23 142.075,35.201 141.948,35.201 C 141.836,35.201 141.715,35.236 141.586,35.307 C 141.456,35.378 141.31,35.457 141.146,35.545 C 140.982,35.633 140.796,35.713 140.586,35.783 C 140.376,35.854 140.136,35.89 139.868,35.89 C 139.404,35.89 139.058,35.791 138.831,35.593 C 138.604,35.395 138.49,35.128 138.49,34.791 C 138.49,34.575 138.559,34.397 138.695,34.256 C 138.832,34.114 139.012,33.992 139.234,33.889 C 139.456,33.787 139.71,33.693 139.996,33.607 C 140.282,33.522 140.573,33.426 140.871,33.321 C 141.169,33.216 141.461,33.093 141.747,32.951 C 142.033,32.81 142.287,32.629 142.509,32.409 C 142.731,32.189 142.911,31.922 143.047,31.607 C 143.184,31.292 143.253,30.912 143.253,30.467 C 143.253,29.974 143.167,29.512 142.996,29.082 C 142.825,28.652 142.577,28.278 142.252,27.958 C 141.928,27.638 141.527,27.386 141.051,27.203 C 140.575,27.02 140.034,26.928 139.428,26.928 C 139.096,26.928 138.758,26.962 138.413,27.031 C 138.069,27.099 137.735,27.195 137.413,27.32 C 137.091,27.445 136.788,27.592 136.505,27.763 C 136.221,27.934 135.975,28.125 135.765,28.335 L 136.497,29.493 C 136.551,29.581 136.627,29.652 136.724,29.705 C 136.822,29.759 136.927,29.786 137.039,29.786 C 137.186,29.786 137.334,29.74 137.483,29.647 C 137.632,29.554 137.8,29.451 137.988,29.339 C 138.176,29.227 138.392,29.124 138.637,29.031 C 138.881,28.938 139.169,28.892 139.501,28.892 C 139.951,28.892 140.3,28.991 140.549,29.189 C 140.798,29.386 140.923,29.701 140.923,30.13 C 140.923,30.38 140.854,30.582 140.717,30.739 C 140.581,30.895 140.401,31.024 140.179,31.127 C 139.957,31.23 139.704,31.32 139.421,31.398 C 139.137,31.476 138.847,31.563 138.549,31.658 C 138.251,31.753 137.96,31.871 137.677,32.01 C 137.394,32.149 137.141,32.332 136.919,32.56 C 136.696,32.787 136.517,33.07 136.38,33.41 C 136.243,33.749 136.175,34.168 136.175,34.666 C 136.175,35.067 136.255,35.458 136.417,35.839 C 136.578,36.22 136.815,36.559 137.127,36.857 C 137.44,37.155 137.823,37.394 138.278,37.572 C 138.732,37.75 139.252,37.839 139.838,37.839 C 140.166,37.839 140.484,37.814 140.794,37.762 C 141.105,37.711 141.399,37.635 141.677,37.535 C 141.956,37.435 142.216,37.315 142.458,37.176 C 142.699,37.037 142.916,36.879 143.106,36.703 L 142.491,35.553 Z" marker-start="none" marker-end="none"/>
       <path d="M 150.433,35.553 C 150.359,35.435 150.282,35.347 150.202,35.289 C 150.121,35.23 150.017,35.201 149.89,35.201 C 149.778,35.201 149.657,35.236 149.528,35.307 C 149.398,35.378 149.252,35.457 149.088,35.545 C 148.924,35.633 148.738,35.713 148.528,35.783 C 148.318,35.854 148.078,35.89 147.81,35.89 C 147.346,35.89 147,35.791 146.773,35.593 C 146.546,35.395 146.432,35.128 146.432,34.791 C 146.432,34.575 146.501,34.397 146.637,34.256 C 146.774,34.114 146.954,33.992 147.176,33.889 C 147.398,33.787 147.652,33.693 147.938,33.607 C 148.224,33.522 148.515,33.426 148.813,33.321 C 149.111,33.216 149.403,33.093 149.689,32.951 C 149.975,32.81 150.229,32.629 150.451,32.409 C 150.673,32.189 150.853,31.922 150.989,31.607 C 151.126,31.292 151.195,30.912 151.195,30.467 C 151.195,29.974 151.109,29.512 150.938,29.082 C 150.767,28.652 150.519,28.278 150.194,27.958 C 149.87,27.638 149.469,27.386 148.993,27.203 C 148.517,27.02 147.976,26.928 147.37,26.928 C 147.038,26.928 146.7,26.962 146.355,27.031 C 146.011,27.099 145.677,27.195 145.355,27.32 C 145.033,27.445 144.73,27.592 144.447,27.763 C 144.163,27.934 143.917,28.125 143.707,28.335 L 144.439,29.493 C 144.493,29.581 144.569,29.652 144.666,29.705 C 144.764,29.759 144.869,29.786 144.981,29.786 C 145.128,29.786 145.276,29.74 145.425,29.647 C 145.574,29.554 145.742,29.451 145.93,29.339 C 146.118,29.227 146.334,29.124 146.579,29.031 C 146.823,28.938 147.111,28.892 147.443,28.892 C 147.893,28.892 148.242,28.991 148.491,29.189 C 148.74,29.386 148.865,29.701 148.865,30.13 C 148.865,30.38 148.796,30.582 148.659,30.739 C 148.523,30.895 148.343,31.024 148.121,31.127 C 147.899,31.23 147.646,31.32 147.363,31.398 C 147.079,31.476 146.789,31.563 146.491,31.658 C 146.193,31.753 145.902,31.871 145.619,32.01 C 145.336,32.149 145.083,32.332 144.861,32.56 C 144.638,32.787 144.459,33.07 144.322,33.41 C 144.185,33.749 144.117,34.168 144.117,34.666 C 144.117,35.067 144.197,35.458 144.359,35.839 C 144.52,36.22 144.757,36.559 145.069,36.857 C 145.382,37.155 145.765,37.394 146.22,37.572 C 146.674,37.75 147.194,37.839 147.78,37.839 C 148.108,37.839 148.426,37.814 148.736,37.762 C 149.047,37.711 149.341,37.635 149.619,37.535 C 149.898,37.435 150.158,37.315 150.4,37.176 C 150.641,37.037 150.858,36.879 151.048,36.703 L 150.433,35.553 Z" marker-start="none" marker-end="none"/>
       <path d="M 152.044,28.336 C 152.044,28.492 152.074,28.638 152.132,28.772 C 152.191,28.907 152.275,29.024 152.385,29.124 C 152.495,29.224 152.624,29.303 152.773,29.362 C 152.922,29.421 153.09,29.45 153.275,29.45 C 153.495,29.45 153.685,29.412 153.847,29.336 C 154.008,29.261 154.142,29.158 154.25,29.029 C 154.357,28.899 154.436,28.75 154.488,28.582 C 154.539,28.413 154.565,28.236 154.565,28.05 C 154.565,27.806 154.526,27.546 154.447,27.27 C 154.369,26.994 154.253,26.717 154.099,26.438 C 153.946,26.16 153.754,25.886 153.524,25.617 C 153.295,25.349 153.031,25.104 152.733,24.885 L 152.337,25.236 C 152.284,25.29 152.243,25.34 152.216,25.387 C 152.19,25.433 152.176,25.49 152.176,25.559 C 152.176,25.608 152.193,25.66 152.227,25.716 C 152.262,25.773 152.303,25.823 152.352,25.867 C 152.411,25.925 152.479,25.996 152.557,26.079 C 152.635,26.162 152.713,26.255 152.792,26.358 C 152.87,26.46 152.942,26.573 153.008,26.695 C 153.074,26.817 153.124,26.946 153.158,27.083 C 152.987,27.098 152.833,27.139 152.696,27.208 C 152.56,27.276 152.444,27.367 152.348,27.479 C 152.253,27.591 152.179,27.719 152.125,27.864 C 152.071,28.008 152.044,28.165 152.044,28.336 Z" marker-start="none" marker-end="none"/>
       <path d="M 161.418,27.046 L 158.927,27.046 L 158.927,37.725 L 161.418,37.725 L 161.418,27.046 Z" marker-start="none" marker-end="none"/>
       <path d="M 164.698,37.725 C 164.806,37.725 164.896,37.72 164.969,37.71 C 165.043,37.701 165.109,37.682 165.167,37.655 C 165.226,37.628 165.282,37.59 165.336,37.542 C 165.39,37.493 165.451,37.427 165.519,37.344 L 170.589,30.933 C 170.57,31.138 170.555,31.337 170.545,31.53 C 170.535,31.723 170.53,31.905 170.53,32.076 L 170.53,37.725 L 172.714,37.725 L 172.714,27.046 L 171.424,27.046 C 171.234,27.046 171.073,27.075 170.941,27.134 C 170.809,27.193 170.682,27.3 170.56,27.456 L 165.526,33.816 C 165.541,33.63 165.553,33.448 165.563,33.27 C 165.573,33.092 165.578,32.925 165.578,32.768 L 165.578,27.046 L 163.394,27.046 L 163.394,37.725 L 164.698,37.725 Z" marker-start="none" marker-end="none"/>
       <path d="M 181.643,29.806 C 181.702,29.806 181.76,29.795 181.819,29.773 C 181.878,29.75 181.934,29.712 181.987,29.657 L 182.969,28.602 C 182.539,28.049 182.001,27.631 181.354,27.35 C 180.707,27.069 179.941,26.928 179.057,26.928 C 178.246,26.928 177.519,27.066 176.877,27.342 C 176.235,27.618 175.69,27.999 175.243,28.485 C 174.796,28.971 174.453,29.548 174.214,30.215 C 173.974,30.882 173.855,31.606 173.855,32.387 C 173.855,33.184 173.992,33.915 174.265,34.582 C 174.539,35.249 174.921,35.824 175.412,36.308 C 175.903,36.791 176.49,37.168 177.174,37.436 C 177.858,37.705 178.612,37.839 179.438,37.839 C 179.838,37.839 180.216,37.804 180.57,37.733 C 180.924,37.662 181.255,37.564 181.563,37.439 C 181.87,37.315 182.154,37.166 182.412,36.992 C 182.671,36.818 182.901,36.626 183.101,36.416 L 182.266,35.295 C 182.212,35.226 182.149,35.164 182.075,35.108 C 182.002,35.052 181.9,35.024 181.768,35.024 C 181.68,35.024 181.597,35.043 181.519,35.082 C 181.44,35.121 181.357,35.169 181.269,35.225 C 181.182,35.281 181.085,35.342 180.98,35.408 C 180.875,35.474 180.75,35.535 180.606,35.592 C 180.462,35.648 180.294,35.695 180.101,35.735 C 179.908,35.773 179.682,35.793 179.423,35.793 C 178.974,35.793 178.563,35.714 178.192,35.555 C 177.821,35.396 177.502,35.169 177.236,34.873 C 176.97,34.578 176.762,34.22 176.613,33.8 C 176.464,33.38 176.39,32.908 176.39,32.386 C 176.39,31.838 176.464,31.352 176.613,30.927 C 176.762,30.502 176.965,30.145 177.221,29.854 C 177.478,29.563 177.777,29.342 178.119,29.191 C 178.461,29.039 178.827,28.964 179.218,28.964 C 179.443,28.964 179.648,28.975 179.833,28.997 C 180.019,29.019 180.191,29.056 180.35,29.11 C 180.509,29.164 180.66,29.233 180.804,29.319 C 180.948,29.404 181.094,29.511 181.24,29.638 C 181.299,29.687 181.362,29.727 181.431,29.759 C 181.499,29.79 181.57,29.806 181.643,29.806 Z" marker-start="none" marker-end="none"/>
       <path d="M 183.662,28.196 C 183.662,28.372 183.695,28.536 183.761,28.687 C 183.826,28.839 183.917,28.971 184.032,29.083 C 184.146,29.196 184.282,29.285 184.438,29.351 C 184.595,29.417 184.766,29.45 184.951,29.45 C 185.132,29.45 185.3,29.417 185.457,29.351 C 185.613,29.285 185.75,29.196 185.867,29.083 C 185.984,28.971 186.076,28.839 186.142,28.687 C 186.208,28.536 186.241,28.372 186.241,28.196 C 186.241,28.02 186.208,27.855 186.142,27.701 C 186.076,27.547 185.984,27.414 185.867,27.302 C 185.75,27.189 185.613,27.101 185.457,27.038 C 185.3,26.974 185.132,26.942 184.951,26.942 C 184.766,26.942 184.595,26.974 184.438,27.038 C 184.282,27.101 184.146,27.189 184.032,27.302 C 183.917,27.414 183.826,27.547 183.761,27.701 C 183.695,27.855 183.662,28.02 183.662,28.196 Z" marker-start="none" marker-end="none"/>
      </g>
     </g>
    </g>
   </g>
  </g>
 </g>
</svg>
