<?xml version="1.0" standalone="no"?>
<!DOCTYPE svg PUBLIC "-//W3C//DTD SVG 1.1//EN" "http://www.w3.org/Graphics/SVG/1.1/DTD/svg11.dtd">
<!--Generator: Xara Designer (www.xara.com), SVG filter version: 6.2.0.0-->
<svg stroke-width="0.501" stroke-linejoin="bevel" fill-rule="evenodd" xmlns:xlink="http://www.w3.org/1999/xlink" xmlns="http://www.w3.org/2000/svg" version="1.1" overflow="visible" width="215.434pt" height="215.434pt" viewBox="0 0 215.434 215.434">
 <defs>
	</defs>
 <g id="Document" fill="none" stroke="black" font-family="Times New Roman" font-size="16" transform="scale(1 -1)">
  <g id="Spread" transform="translate(0 -215.434)">
   <g id="Layer 1">
    <g id="Group">
     <path d="M 199.757,214.933 L 15.176,214.933 C 6.799,214.933 0,208.134 0,199.757 L 0,15.176 C 0,6.799 6.799,0 15.176,0 L 199.757,0 C 208.134,0 214.933,6.799 214.933,15.176 L 214.933,199.757 C 214.933,208.134 208.134,214.933 199.757,214.933 Z" stroke="#999999" fill="#ffffff" stroke-linejoin="miter" marker-start="none" marker-end="none"/>
     <g id="Group_1" stroke-linejoin="miter" stroke-miterlimit="79.8403193612775">
      <path d="M 153.485,158.48 C 144.588,169.02 145.913,184.806 156.465,193.689 C 166.996,202.604 182.761,201.272 191.662,190.735 C 200.576,180.194 199.24,164.42 188.687,155.517 C 178.155,146.621 162.383,147.952 153.485,158.48 Z" stroke="none" fill="#000000" stroke-width="1.039" marker-start="none" marker-end="none" stroke-miterlimit="19.9600798403194"/>
      <path d="M 154.662,159.437 C 145.775,169.982 147.091,185.734 157.635,194.652 C 168.179,203.524 183.945,202.21 192.862,191.673 C 201.756,181.135 200.423,165.352 189.876,156.455 C 179.348,147.559 163.567,148.883 154.662,159.437 Z" stroke="#b2b2b2" stroke-width="5.658" marker-start="none" marker-end="none" stroke-miterlimit="19.9600798403194"/>
     </g>
     <text xml:space="preserve" transform="translate(164.865 164.648) scale(1 -1)" font-family="Lato Black" stroke="none" fill="#b2b2b2" stroke-width="0.773" stroke-linejoin="round" stroke-linecap="round" font-weight="bold" font-size="30.96" stroke-miterlimit="79.8403193612775"><tspan x="0" y="0">3</tspan></text>
     <g id="Group_2" stroke-linejoin="miter" stroke-miterlimit="79.8403193612775">
      <path d="M 22.442,158.05 C 13.545,168.59 14.87,184.376 25.422,193.259 C 35.953,202.174 51.718,200.842 60.619,190.305 C 69.533,179.764 68.197,163.99 57.644,155.087 C 47.112,146.191 31.34,147.522 22.442,158.05 Z" stroke="none" fill="#000000" stroke-width="1.039" marker-start="none" marker-end="none" stroke-miterlimit="19.9600798403194"/>
      <path d="M 23.619,159.007 C 14.732,169.552 16.048,185.304 26.592,194.222 C 37.136,203.094 52.902,201.78 61.819,191.243 C 70.713,180.705 69.38,164.922 58.833,156.025 C 48.305,147.129 32.524,148.453 23.619,159.007 Z" stroke="#b2b2b2" stroke-width="5.658" marker-start="none" marker-end="none" stroke-miterlimit="19.9600798403194"/>
     </g>
     <path d="M 95.238,115.795 C 108.677,128.062 115.506,144.876 115.509,161.749 L 123.989,161.749 C 123.983,142.577 116.233,123.464 100.964,109.53 C 87.403,97.157 70.326,91.055 53.303,91.06 L 53.303,99.546 C 68.285,99.539 83.312,104.908 95.238,115.795 Z" fill="#ff3718" stroke-linecap="round" stroke="none" stroke-width="0.541" stroke-linejoin="round" marker-start="none" marker-end="none" stroke-miterlimit="79.8403193612775"/>
     <path d="M 15.35,95.287 L 18.395,97.405 L 21.447,99.527 L 21.448,99.58 L 48.725,99.58 L 48.724,91.044 L 21.448,91.044 L 18.395,93.164 L 15.35,95.287 Z" fill="#ff3718" stroke-linecap="round" stroke="none" stroke-width="0.103" stroke-linejoin="miter" marker-start="none" marker-end="none" stroke-miterlimit="79.8403193612775"/>
     <path d="M 15.346,106.837 L 18.393,108.957 L 21.448,111.078 L 21.448,106.837 L 21.444,102.596 L 18.392,104.718 L 15.346,106.837 Z M 21.448,111.101 L 48.725,111.102 L 48.725,102.567 L 21.448,102.567 L 21.448,111.101 Z" fill="#ffcd36" stroke-linecap="round" stroke="none" stroke-width="0.103" stroke-linejoin="miter" marker-start="none" marker-end="none" stroke-miterlimit="79.8403193612775"/>
     <path d="M 87.616,124.149 C 98.607,134.189 104.194,147.944 104.2,161.749 L 112.68,161.749 C 112.675,145.641 106.161,129.592 93.333,117.883 C 81.947,107.489 67.604,102.369 53.304,102.372 L 53.303,110.858 C 65.56,110.848 77.852,115.243 87.616,124.149 Z" fill="#ffcd36" stroke-linecap="round" stroke="none" stroke-width="0.453" stroke-linejoin="round" marker-start="none" marker-end="none" stroke-miterlimit="79.8403193612775"/>
     <g id="Group_3" fill="#e5e5e5" stroke-linecap="round" stroke="none">
      <path d="M 15.346,118.153 L 18.392,120.268 L 21.448,122.39 L 21.448,118.149 L 21.444,113.906 L 18.392,116.026 L 15.346,118.153 Z M 21.448,122.4 L 48.725,122.399 L 48.725,113.864 L 21.448,113.864 L 21.448,122.4 Z" stroke-width="0.103" stroke-linejoin="miter" marker-start="none" marker-end="none" stroke-miterlimit="79.8403193612775"/>
      <path d="M 79.989,132.504 C 88.541,140.311 92.88,151.016 92.887,161.749 L 101.372,161.748 C 101.368,148.707 96.095,135.717 85.706,126.238 C 76.491,117.827 64.875,113.679 53.303,113.681 L 53.303,122.163 C 62.836,122.163 72.4,125.577 79.989,132.504 Z" stroke-width="0.368" stroke-linejoin="round" marker-start="none" marker-end="none" stroke-miterlimit="79.8403193612775"/>
     </g>
     <path d="M 72.368,140.859 C 78.475,146.437 81.575,154.075 81.578,161.748 L 90.065,161.749 C 90.055,151.779 86.023,141.84 78.085,134.597 C 71.035,128.158 62.159,124.987 53.303,124.991 L 53.303,133.479 C 60.11,133.472 66.942,135.914 72.368,140.859 Z" fill="#11a7e0" stroke-linecap="round" stroke="none" stroke-width="0.281" stroke-linejoin="round" marker-start="none" marker-end="none" stroke-miterlimit="79.8403193612775"/>
     <path d="M 15.35,129.206 L 18.394,131.338 L 21.447,133.479 L 21.447,133.479 L 48.724,133.479 L 48.725,124.94 L 21.448,124.94 L 21.448,124.94 L 18.393,127.07 L 15.35,129.206 Z" fill="#11a7e0" stroke-linecap="round" stroke="none" stroke-width="0.103" stroke-linejoin="miter" marker-start="none" marker-end="none" stroke-miterlimit="79.8403193612775"/>
     <g id="Group_4" stroke-linejoin="miter" stroke-miterlimit="79.8403193612775">
      <path d="M 80.66,120.39 C 76.138,125.741 76.815,133.761 82.171,138.288 C 87.528,142.804 95.547,142.131 100.071,136.774 C 104.594,131.419 103.914,123.402 98.56,118.879 C 93.203,114.355 85.185,115.031 80.66,120.39 Z" stroke="none" fill="#ffffff" stroke-width="0.526" marker-start="none" marker-end="none" stroke-miterlimit="19.9600798403194"/>
      <path d="M 81.268,120.868 C 76.741,126.222 77.415,134.238 82.775,138.762 C 88.133,143.286 96.148,142.613 100.673,137.25 C 105.2,131.895 104.516,123.878 99.165,119.352 C 93.805,114.827 85.79,115.508 81.268,120.868 Z" fill="none" stroke="#55bae6" stroke-width="2.872" marker-start="none" marker-end="none" stroke-miterlimit="19.9600798403194"/>
     </g>
     <g id="Group_5" stroke-linejoin="miter" stroke-miterlimit="79.8403193612775">
      <path d="M 23.033,103.593 C 18.509,108.949 19.188,116.966 24.543,121.494 C 29.903,126.015 37.923,125.337 42.446,119.979 C 46.974,114.626 46.291,106.604 40.935,102.085 C 35.576,97.566 27.56,98.24 23.033,103.593 Z" stroke="none" fill="#ffffff" stroke-width="0.526" marker-start="none" marker-end="none" stroke-miterlimit="19.9600798403194"/>
      <path d="M 23.64,104.077 C 19.116,109.428 19.792,117.448 25.152,121.972 C 30.511,126.493 38.526,125.819 43.049,120.459 C 47.576,115.106 46.898,107.086 41.542,102.565 C 36.179,98.04 28.163,98.716 23.64,104.077 Z" fill="none" stroke="#55bae6" stroke-width="2.872" marker-start="none" marker-end="none" stroke-miterlimit="19.9600798403194"/>
     </g>
     <g id="Group_6" fill-rule="nonzero" stroke-linejoin="round" stroke-linecap="round" stroke="none" stroke-width="0.387" fill="#000000" stroke-miterlimit="79.8403193612775">
      <g id="Group_7">
       <path d="M 87.397,132.561 L 87.397,129.479 L 90.276,129.479 L 90.276,127.75 L 87.397,127.75 L 87.397,124.653 L 85.436,124.653 L 85.436,127.75 L 82.572,127.75 L 82.572,129.479 L 85.436,129.479 L 85.436,132.561 L 87.397,132.561 Z" marker-start="none" marker-end="none"/>
       <path d="M 92.907,125.128 L 95.086,125.128 L 95.086,130.848 C 95.086,131.129 95.094,131.422 95.109,131.728 L 93.825,130.661 C 93.742,130.594 93.659,130.546 93.576,130.517 C 93.493,130.489 93.413,130.475 93.335,130.475 C 93.2,130.475 93.08,130.504 92.973,130.564 C 92.867,130.624 92.788,130.687 92.736,130.755 L 91.973,131.767 L 95.506,134.732 L 97.499,134.732 L 97.499,125.128 L 99.366,125.128 L 99.366,123.384 L 92.907,123.384 L 92.907,125.128 Z" marker-start="none" marker-end="none"/>
      </g>
     </g>
     <g id="Group_8" fill-rule="nonzero" stroke-linejoin="round" stroke-linecap="round" stroke="none" stroke-width="0.387" fill="#000000" stroke-miterlimit="79.8403193612775">
      <g id="Group_9">
       <path d="M 29.773,115.77 L 29.773,112.688 L 32.652,112.688 L 32.652,110.959 L 29.773,110.959 L 29.773,107.862 L 27.812,107.862 L 27.812,110.959 L 24.948,110.959 L 24.948,112.688 L 27.812,112.688 L 27.812,115.77 L 29.773,115.77 Z" marker-start="none" marker-end="none"/>
       <path d="M 35.283,108.337 L 37.462,108.337 L 37.462,114.057 C 37.462,114.338 37.47,114.631 37.485,114.937 L 36.201,113.87 C 36.118,113.803 36.035,113.755 35.952,113.726 C 35.869,113.698 35.789,113.684 35.711,113.684 C 35.576,113.684 35.456,113.713 35.349,113.773 C 35.243,113.833 35.164,113.896 35.112,113.964 L 34.349,114.976 L 37.882,117.941 L 39.875,117.941 L 39.875,108.337 L 41.742,108.337 L 41.742,106.593 L 35.283,106.593 L 35.283,108.337 Z" marker-start="none" marker-end="none"/>
      </g>
     </g>
     <path d="M 91.28,200.588 C 99.132,207.215 110.879,206.224 117.506,198.375 C 124.137,190.529 123.145,178.777 115.296,172.15 C 107.446,165.52 95.697,166.511 89.07,174.366 C 82.44,182.21 83.431,193.958 91.28,200.588 Z" stroke="#ff0000" fill="#ffffff" stroke-width="4.212" stroke-linejoin="miter" marker-start="none" marker-end="none" stroke-miterlimit="79.8403193612775"/>
     <g id="Group_10" fill-rule="nonzero" stroke-linejoin="round" stroke-linecap="round" stroke="none" stroke-width="0.248" fill="#000000" stroke-miterlimit="79.8403193612775">
      <g id="Group_11">
       <path d="M 96.114,196.923 C 96.173,196.923 96.222,196.921 96.262,196.915 C 96.302,196.91 96.338,196.9 96.37,196.885 C 96.402,196.871 96.433,196.85 96.462,196.823 C 96.491,196.797 96.525,196.761 96.562,196.715 L 99.328,193.218 C 99.317,193.33 99.309,193.438 99.304,193.544 C 99.299,193.649 99.296,193.748 99.296,193.841 L 99.296,196.923 L 100.487,196.923 L 100.487,191.097 L 99.784,191.097 C 99.68,191.097 99.592,191.113 99.52,191.145 C 99.448,191.177 99.379,191.236 99.312,191.321 L 96.566,194.791 C 96.574,194.689 96.581,194.59 96.586,194.493 C 96.591,194.396 96.594,194.304 96.594,194.219 L 96.594,191.097 L 95.403,191.097 L 95.403,196.923 L 96.114,196.923 Z" marker-start="none" marker-end="none"/>
       <path d="M 107.194,194.011 C 107.194,193.59 107.121,193.198 106.976,192.836 C 106.831,192.473 106.626,192.158 106.362,191.89 C 106.099,191.622 105.781,191.412 105.409,191.26 C 105.037,191.109 104.625,191.033 104.172,191.033 C 103.719,191.033 103.306,191.109 102.933,191.26 C 102.56,191.412 102.24,191.622 101.975,191.89 C 101.71,192.158 101.505,192.473 101.36,192.836 C 101.215,193.198 101.142,193.59 101.142,194.011 C 101.142,194.432 101.215,194.824 101.36,195.187 C 101.505,195.549 101.71,195.864 101.975,196.13 C 102.24,196.397 102.56,196.606 102.933,196.758 C 103.306,196.91 103.719,196.986 104.172,196.986 C 104.625,196.986 105.037,196.909 105.409,196.756 C 105.781,196.603 106.099,196.393 106.362,196.126 C 106.626,195.86 106.831,195.545 106.976,195.183 C 107.121,194.82 107.194,194.43 107.194,194.011 Z M 105.811,194.011 C 105.811,194.299 105.774,194.558 105.699,194.788 C 105.624,195.019 105.517,195.214 105.377,195.374 C 105.237,195.534 105.066,195.656 104.863,195.741 C 104.661,195.827 104.43,195.869 104.172,195.869 C 103.911,195.869 103.678,195.827 103.474,195.741 C 103.27,195.656 103.099,195.534 102.959,195.374 C 102.819,195.214 102.712,195.019 102.637,194.788 C 102.562,194.558 102.525,194.299 102.525,194.011 C 102.525,193.721 102.562,193.46 102.637,193.23 C 102.712,192.999 102.819,192.804 102.959,192.644 C 103.099,192.485 103.27,192.363 103.474,192.279 C 103.678,192.195 103.911,192.153 104.172,192.153 C 104.43,192.153 104.661,192.195 104.863,192.279 C 105.066,192.363 105.237,192.485 105.377,192.644 C 105.517,192.804 105.624,192.999 105.699,193.23 C 105.774,193.46 105.811,193.721 105.811,194.011 Z" marker-start="none" marker-end="none"/>
       <path d="M 111.83,196.923 L 111.83,195.852 L 110.191,195.852 L 110.191,191.098 L 108.84,191.098 L 108.84,195.852 L 107.201,195.852 L 107.201,196.923 L 111.83,196.923 Z" marker-start="none" marker-end="none"/>
      </g>
      <g id="Group_12">
       <path d="M 94.337,184.93 C 94.369,184.93 94.401,184.924 94.433,184.912 C 94.465,184.899 94.496,184.878 94.525,184.848 L 95.061,184.273 C 94.826,183.971 94.532,183.743 94.179,183.59 C 93.826,183.436 93.408,183.36 92.926,183.36 C 92.484,183.36 92.087,183.435 91.737,183.585 C 91.386,183.736 91.089,183.944 90.845,184.209 C 90.602,184.474 90.414,184.789 90.284,185.153 C 90.153,185.517 90.088,185.912 90.088,186.338 C 90.088,186.773 90.163,187.172 90.312,187.536 C 90.461,187.899 90.67,188.213 90.937,188.477 C 91.205,188.741 91.526,188.946 91.899,189.093 C 92.272,189.239 92.684,189.313 93.134,189.313 C 93.352,189.313 93.558,189.293 93.752,189.255 C 93.945,189.216 94.125,189.163 94.293,189.094 C 94.461,189.027 94.616,188.945 94.757,188.85 C 94.898,188.756 95.023,188.651 95.133,188.536 L 94.677,187.924 C 94.648,187.887 94.613,187.853 94.573,187.822 C 94.533,187.792 94.477,187.776 94.405,187.776 C 94.357,187.776 94.312,187.787 94.269,187.808 C 94.227,187.83 94.181,187.856 94.133,187.886 C 94.085,187.917 94.033,187.95 93.975,187.986 C 93.918,188.022 93.85,188.056 93.771,188.086 C 93.693,188.117 93.601,188.143 93.496,188.164 C 93.39,188.186 93.267,188.196 93.126,188.196 C 92.881,188.196 92.657,188.153 92.454,188.066 C 92.252,187.98 92.078,187.856 91.933,187.695 C 91.787,187.533 91.674,187.338 91.593,187.109 C 91.512,186.88 91.471,186.622 91.471,186.337 C 91.471,186.039 91.512,185.773 91.593,185.542 C 91.674,185.31 91.785,185.115 91.925,184.956 C 92.065,184.797 92.228,184.677 92.414,184.594 C 92.601,184.512 92.801,184.47 93.014,184.47 C 93.137,184.47 93.248,184.476 93.35,184.488 C 93.451,184.5 93.545,184.521 93.632,184.55 C 93.718,184.579 93.801,184.617 93.879,184.664 C 93.958,184.711 94.037,184.769 94.117,184.838 C 94.149,184.865 94.184,184.887 94.221,184.904 C 94.259,184.921 94.297,184.93 94.337,184.93 Z" marker-start="none" marker-end="none"/>
       <path d="M 97.157,183.424 L 95.798,183.424 L 95.798,189.25 L 97.157,189.25 L 97.157,183.424 Z" marker-start="none" marker-end="none"/>
       <path d="M 99.586,185.579 L 99.586,183.424 L 98.235,183.424 L 98.235,189.248 L 100.129,189.248 C 100.55,189.248 100.91,189.205 101.207,189.118 C 101.504,189.032 101.746,188.911 101.934,188.756 C 102.122,188.601 102.259,188.418 102.344,188.208 C 102.429,187.997 102.472,187.767 102.472,187.519 C 102.472,187.33 102.447,187.151 102.396,186.983 C 102.345,186.815 102.27,186.659 102.17,186.517 C 102.07,186.374 101.948,186.246 101.802,186.134 C 101.657,186.022 101.49,185.93 101.301,185.858 C 101.391,185.813 101.476,185.757 101.555,185.691 C 101.633,185.624 101.702,185.543 101.76,185.447 L 103,183.424 L 101.776,183.424 C 101.55,183.424 101.387,183.509 101.289,183.68 L 100.321,185.371 C 100.279,185.446 100.229,185.499 100.171,185.531 C 100.114,185.563 100.034,185.579 99.93,185.579 L 99.586,185.579 Z M 99.586,186.51 L 100.129,186.51 C 100.313,186.51 100.47,186.533 100.599,186.58 C 100.728,186.627 100.834,186.691 100.917,186.774 C 101,186.856 101.059,186.953 101.097,187.064 C 101.134,187.174 101.153,187.294 101.153,187.421 C 101.153,187.677 101.069,187.877 100.903,188.021 C 100.736,188.165 100.479,188.237 100.129,188.237 L 99.586,188.237 L 99.586,186.51 Z" marker-start="none" marker-end="none"/>
       <path d="M 107.266,184.93 C 107.298,184.93 107.33,184.924 107.362,184.912 C 107.394,184.899 107.425,184.878 107.454,184.848 L 107.99,184.273 C 107.755,183.971 107.461,183.743 107.108,183.59 C 106.755,183.436 106.337,183.36 105.855,183.36 C 105.413,183.36 105.016,183.435 104.666,183.585 C 104.315,183.736 104.018,183.944 103.774,184.209 C 103.531,184.474 103.343,184.789 103.213,185.153 C 103.082,185.517 103.017,185.912 103.017,186.338 C 103.017,186.773 103.092,187.172 103.241,187.536 C 103.39,187.899 103.599,188.213 103.866,188.477 C 104.134,188.741 104.455,188.946 104.828,189.093 C 105.201,189.239 105.613,189.313 106.063,189.313 C 106.281,189.313 106.487,189.293 106.681,189.255 C 106.874,189.216 107.054,189.163 107.222,189.094 C 107.39,189.027 107.545,188.945 107.686,188.85 C 107.827,188.756 107.952,188.651 108.062,188.536 L 107.606,187.924 C 107.577,187.887 107.542,187.853 107.502,187.822 C 107.462,187.792 107.406,187.776 107.334,187.776 C 107.286,187.776 107.241,187.787 107.198,187.808 C 107.156,187.83 107.11,187.856 107.062,187.886 C 107.014,187.917 106.962,187.95 106.904,187.986 C 106.847,188.022 106.779,188.056 106.7,188.086 C 106.622,188.117 106.53,188.143 106.425,188.164 C 106.319,188.186 106.196,188.196 106.055,188.196 C 105.81,188.196 105.586,188.153 105.383,188.066 C 105.181,187.98 105.007,187.856 104.862,187.695 C 104.716,187.533 104.603,187.338 104.522,187.109 C 104.441,186.88 104.4,186.622 104.4,186.337 C 104.4,186.039 104.441,185.773 104.522,185.542 C 104.603,185.31 104.714,185.115 104.854,184.956 C 104.994,184.797 105.157,184.677 105.343,184.594 C 105.53,184.512 105.73,184.47 105.943,184.47 C 106.066,184.47 106.177,184.476 106.279,184.488 C 106.38,184.5 106.474,184.521 106.561,184.55 C 106.647,184.579 106.73,184.617 106.808,184.664 C 106.887,184.711 106.966,184.769 107.046,184.838 C 107.078,184.865 107.113,184.887 107.15,184.904 C 107.188,184.921 107.226,184.93 107.266,184.93 Z" marker-start="none" marker-end="none"/>
       <path d="M 111.029,184.492 C 111.21,184.492 111.372,184.522 111.515,184.582 C 111.657,184.642 111.778,184.727 111.877,184.84 C 111.975,184.951 112.05,185.088 112.102,185.249 C 112.154,185.41 112.18,185.594 112.18,185.799 L 112.18,189.249 L 113.531,189.249 L 113.531,185.799 C 113.531,185.441 113.473,185.114 113.358,184.815 C 113.242,184.517 113.076,184.259 112.86,184.043 C 112.644,183.827 112.382,183.66 112.072,183.539 C 111.763,183.42 111.416,183.36 111.029,183.36 C 110.64,183.36 110.291,183.42 109.982,183.539 C 109.673,183.66 109.41,183.827 109.194,184.043 C 108.978,184.259 108.813,184.517 108.699,184.815 C 108.584,185.114 108.527,185.441 108.527,185.799 L 108.527,189.249 L 109.878,189.249 L 109.878,185.803 C 109.878,185.598 109.904,185.414 109.956,185.253 C 110.008,185.092 110.083,184.955 110.182,184.842 C 110.28,184.728 110.401,184.642 110.543,184.582 C 110.686,184.522 110.848,184.492 111.029,184.492 Z" marker-start="none" marker-end="none"/>
       <path d="M 114.332,186.354 L 116.49,186.354 L 116.49,185.354 L 114.332,185.354 L 114.332,186.354 Z" marker-start="none" marker-end="none"/>
      </g>
      <g id="Group_13">
       <path d="M 97.569,176.83 L 99.727,176.83 L 99.727,175.751 L 96.218,175.751 L 96.218,181.576 L 97.569,181.576 L 97.569,176.83 Z" marker-start="none" marker-end="none"/>
       <path d="M 105.788,175.751 L 104.741,175.751 C 104.624,175.751 104.527,175.778 104.451,175.833 C 104.375,175.888 104.322,175.958 104.293,176.043 L 103.949,177.059 L 101.735,177.059 L 101.391,176.043 C 101.364,175.968 101.312,175.901 101.235,175.841 C 101.158,175.781 101.063,175.751 100.951,175.751 L 99.896,175.751 L 102.151,181.576 L 103.534,181.576 L 105.788,175.751 Z M 102.047,177.978 L 103.638,177.978 L 103.102,179.549 C 103.067,179.648 103.027,179.766 102.98,179.901 C 102.933,180.036 102.887,180.182 102.842,180.34 C 102.799,180.18 102.755,180.031 102.71,179.895 C 102.665,179.759 102.622,179.641 102.582,179.541 L 102.047,177.978 Z" marker-start="none" marker-end="none"/>
       <path d="M 107.61,177.906 L 107.61,175.751 L 106.259,175.751 L 106.259,181.575 L 108.153,181.575 C 108.574,181.575 108.934,181.532 109.231,181.445 C 109.528,181.359 109.77,181.238 109.958,181.083 C 110.146,180.928 110.283,180.745 110.368,180.535 C 110.453,180.324 110.496,180.094 110.496,179.846 C 110.496,179.657 110.471,179.478 110.42,179.31 C 110.369,179.142 110.294,178.986 110.194,178.844 C 110.094,178.701 109.972,178.573 109.826,178.461 C 109.681,178.349 109.514,178.257 109.325,178.185 C 109.415,178.14 109.5,178.084 109.579,178.018 C 109.657,177.951 109.726,177.87 109.784,177.774 L 111.024,175.751 L 109.8,175.751 C 109.574,175.751 109.411,175.836 109.313,176.007 L 108.345,177.698 C 108.303,177.773 108.253,177.826 108.195,177.858 C 108.138,177.89 108.058,177.906 107.954,177.906 L 107.61,177.906 Z M 107.61,178.837 L 108.153,178.837 C 108.337,178.837 108.494,178.86 108.623,178.907 C 108.752,178.954 108.858,179.018 108.941,179.101 C 109.024,179.183 109.083,179.28 109.121,179.391 C 109.158,179.501 109.177,179.621 109.177,179.748 C 109.177,180.004 109.093,180.204 108.927,180.348 C 108.76,180.492 108.503,180.564 108.153,180.564 L 107.61,180.564 L 107.61,178.837 Z" marker-start="none" marker-end="none"/>
      </g>
     </g>
     <g id="Group_14" stroke="#f0942b" stroke-linejoin="miter" stroke-linecap="round">
      <path d="M 15.549,68.362 L 15.549,34.47 L 119.137,34.47 L 119.137,68.362 L 15.549,68.362 Z" fill="#f0942b" stroke-width="1.738" marker-start="none" marker-end="none" stroke-miterlimit="79.8403193612775"/>
      <path d="M 15.549,69.705 L 15.549,59.895 C 15.549,57.324 17.633,55.247 20.195,55.247 L 114.487,55.247 C 117.049,55.247 119.137,57.324 119.137,59.895 L 119.137,69.705 C 119.137,72.281 117.049,74.359 114.487,74.359 L 20.195,74.359 C 17.633,74.359 15.549,72.281 15.549,69.705 Z" fill="#f0942b" stroke-width="1.738" marker-start="none" marker-end="none" stroke-miterlimit="79.8403193612775"/>
      <path d="M 16.246,40.812 L 16.246,23.167 C 16.246,18.554 19.99,14.808 24.608,14.808 L 191.654,14.808 C 196.267,14.808 200.015,18.554 200.015,23.167 L 200.015,40.812 C 200.015,45.43 196.267,49.178 191.654,49.178 L 24.608,49.178 C 19.99,49.178 16.246,45.43 16.246,40.812 Z" fill="#ffffff" stroke-width="3.13" marker-start="none" marker-end="none" stroke-miterlimit="79.8403193612775"/>
     </g>
     <g id="Group_15" stroke-linejoin="miter" stroke-miterlimit="79.8403193612775">
      <path d="M 169.691,93.711 C 163.791,100.689 164.67,111.149 171.665,117.058 C 178.647,122.95 189.1,122.071 195.004,115.084 C 200.913,108.092 200.027,97.638 193.03,91.733 C 186.048,85.838 175.591,86.717 169.691,93.711 Z" stroke="none" fill="#000000" stroke-width="0.686" marker-start="none" marker-end="none" stroke-miterlimit="19.9600798403194"/>
      <path d="M 170.469,94.32 C 164.578,101.318 165.45,111.777 172.443,117.67 C 179.432,123.579 189.884,122.696 195.8,115.703 C 201.697,108.721 200.812,98.269 193.818,92.364 C 186.839,86.458 176.375,87.337 170.469,94.32 Z" stroke="#b2b2b2" stroke-width="3.752" marker-start="none" marker-end="none" stroke-miterlimit="19.9600798403194"/>
     </g>
     <g id="Group_16" stroke-linejoin="miter" stroke-miterlimit="79.8403193612775">
      <path d="M 129.006,93.698 C 123.106,100.687 123.985,111.155 130.982,117.046 C 137.965,122.957 148.419,122.074 154.321,115.086 C 160.232,108.097 159.346,97.637 152.348,91.733 C 145.365,85.834 134.906,86.717 129.006,93.698 Z" stroke="none" fill="#ffffff" stroke-width="0.689" marker-start="none" marker-end="none" stroke-miterlimit="19.9600798403194"/>
      <path d="M 129.786,94.333 C 123.893,101.325 124.766,111.771 131.758,117.684 C 138.749,123.568 149.204,122.696 155.117,115.708 C 161.015,108.721 160.131,98.255 153.137,92.355 C 146.156,86.456 135.691,87.334 129.786,94.333 Z" stroke="#55bae6" stroke-width="3.752" marker-start="none" marker-end="none" stroke-miterlimit="19.9600798403194"/>
     </g>
     <g id="Group_17" stroke-linejoin="miter" stroke-miterlimit="79.8403193612775">
      <path d="M 153.485,158.479 C 144.588,169.019 145.913,184.805 156.465,193.689 C 166.996,202.603 182.761,201.271 191.662,190.733 C 200.576,180.193 199.24,164.419 188.686,155.516 C 178.155,146.62 162.383,147.951 153.485,158.479 Z" stroke="none" fill="#ffffff" stroke-width="1.039" marker-start="none" marker-end="none" stroke-miterlimit="19.9600798403194"/>
      <path d="M 154.662,159.436 C 145.775,169.981 147.091,185.734 157.635,194.651 C 168.178,203.524 183.945,202.209 192.862,191.671 C 201.756,181.134 200.423,165.351 189.876,156.454 C 179.348,147.558 163.567,148.882 154.662,159.436 Z" stroke="#55bae6" stroke-width="5.658" marker-start="none" marker-end="none" stroke-miterlimit="19.9600798403194"/>
     </g>
     <g id="Group_18" fill-rule="nonzero" stroke-linejoin="round" stroke-linecap="round" stroke="none" stroke-width="0.485" fill="#b2b2b2" stroke-miterlimit="79.8403193612775">
      <g id="Group_19">
       <path d="M 178.903,100.1 L 181.632,100.1 L 181.632,107.263 C 181.632,107.614 181.641,107.981 181.661,108.365 L 180.053,107.029 C 179.949,106.945 179.845,106.885 179.741,106.849 C 179.637,106.813 179.536,106.795 179.439,106.795 C 179.27,106.795 179.119,106.833 178.986,106.908 C 178.852,106.982 178.753,107.062 178.688,107.146 L 177.733,108.413 L 182.158,112.127 L 184.653,112.127 L 184.653,100.1 L 186.992,100.1 L 186.992,97.916 L 178.903,97.916 L 178.903,100.1 Z" marker-start="none" marker-end="none"/>
      </g>
     </g>
     <g id="Group_20" fill-rule="nonzero" stroke-linejoin="round" stroke-linecap="round" stroke="none" stroke-width="0.485" fill="#000000" stroke-miterlimit="79.8403193612775">
      <g id="Group_21">
       <path d="M 142.559,112.272 C 143.26,112.272 143.892,112.17 144.454,111.965 C 145.016,111.761 145.495,111.476 145.892,111.113 C 146.288,110.749 146.592,110.315 146.803,109.812 C 147.014,109.308 147.12,108.754 147.12,108.15 C 147.12,107.63 147.047,107.149 146.9,106.707 C 146.754,106.265 146.554,105.845 146.301,105.445 C 146.048,105.046 145.754,104.659 145.419,104.285 C 145.084,103.912 144.729,103.533 144.352,103.15 L 141.574,100.304 C 141.932,100.409 142.284,100.492 142.632,100.554 C 142.979,100.617 143.306,100.647 143.611,100.647 L 146.262,100.647 C 146.587,100.647 146.843,100.558 147.032,100.379 C 147.22,100.2 147.315,99.964 147.315,99.672 L 147.315,97.916 L 137.335,97.916 L 137.335,98.891 C 137.335,99.079 137.374,99.28 137.452,99.495 C 137.53,99.709 137.667,99.904 137.861,100.08 L 141.955,104.203 C 142.305,104.554 142.611,104.889 142.871,105.207 C 143.13,105.525 143.345,105.839 143.514,106.147 C 143.683,106.456 143.809,106.765 143.894,107.073 C 143.978,107.382 144.021,107.709 144.021,108.053 C 144.021,108.618 143.886,109.052 143.616,109.354 C 143.346,109.656 142.936,109.808 142.383,109.808 C 142.156,109.808 141.948,109.775 141.76,109.71 C 141.571,109.645 141.402,109.557 141.253,109.447 C 141.103,109.337 140.975,109.207 140.868,109.057 C 140.761,108.908 140.675,108.745 140.61,108.57 C 140.506,108.278 140.374,108.067 140.215,107.937 C 140.056,107.807 139.84,107.742 139.567,107.742 C 139.502,107.742 139.432,107.745 139.357,107.751 C 139.283,107.758 139.206,107.767 139.128,107.78 L 137.53,108.058 C 137.634,108.767 137.834,109.385 138.129,109.912 C 138.425,110.439 138.792,110.877 139.231,111.229 C 139.669,111.58 140.171,111.841 140.736,112.014 C 141.302,112.186 141.909,112.272 142.559,112.272 Z" marker-start="none" marker-end="none"/>
      </g>
     </g>
     <g id="Group_22" fill-rule="nonzero" stroke-linejoin="round" stroke-linecap="round" stroke="none" stroke-width="0.319" fill="#ffffff" stroke-miterlimit="79.8403193612775">
      <g id="Group_23">
       <path d="M 37.727,59.948 L 37.727,56.502 L 35.566,56.502 L 35.566,65.816 L 38.596,65.816 C 39.269,65.816 39.844,65.747 40.319,65.608 C 40.794,65.469 41.182,65.276 41.482,65.029 C 41.783,64.781 42.001,64.489 42.137,64.152 C 42.274,63.815 42.342,63.448 42.342,63.051 C 42.342,62.748 42.302,62.462 42.221,62.193 C 42.14,61.925 42.019,61.676 41.859,61.448 C 41.7,61.219 41.504,61.016 41.271,60.836 C 41.039,60.657 40.772,60.51 40.469,60.395 C 40.614,60.323 40.749,60.233 40.875,60.127 C 41.001,60.02 41.11,59.891 41.204,59.737 L 43.186,56.502 L 41.23,56.502 C 40.868,56.502 40.608,56.638 40.45,56.911 L 38.903,59.615 C 38.835,59.735 38.755,59.82 38.663,59.871 C 38.572,59.922 38.443,59.948 38.276,59.948 L 37.727,59.948 Z M 37.727,61.437 L 38.596,61.437 C 38.89,61.437 39.141,61.474 39.347,61.549 C 39.554,61.623 39.723,61.727 39.855,61.859 C 39.987,61.991 40.083,62.145 40.143,62.322 C 40.203,62.499 40.233,62.69 40.233,62.895 C 40.233,63.304 40.099,63.624 39.833,63.854 C 39.567,64.084 39.154,64.199 38.596,64.199 L 37.727,64.199 L 37.727,61.437 Z" marker-start="none" marker-end="none"/>
       <path d="M 50.065,65.819 L 50.065,64.155 L 46.243,64.155 L 46.243,61.98 L 49.17,61.98 L 49.17,60.382 L 46.243,60.382 L 46.243,58.166 L 50.065,58.166 L 50.065,56.502 L 44.069,56.502 L 44.069,65.819 L 50.065,65.819 Z" marker-start="none" marker-end="none"/>
       <path d="M 56.483,63.924 C 56.419,63.821 56.352,63.745 56.281,63.694 C 56.211,63.642 56.12,63.617 56.01,63.617 C 55.912,63.617 55.806,63.648 55.693,63.71 C 55.58,63.771 55.452,63.841 55.31,63.917 C 55.167,63.994 55.004,64.063 54.821,64.125 C 54.637,64.187 54.429,64.218 54.194,64.218 C 53.789,64.218 53.488,64.132 53.29,63.959 C 53.092,63.786 52.992,63.553 52.992,63.259 C 52.992,63.071 53.052,62.916 53.171,62.792 C 53.291,62.669 53.447,62.562 53.641,62.472 C 53.835,62.383 54.057,62.301 54.306,62.226 C 54.555,62.152 54.81,62.069 55.07,61.977 C 55.33,61.885 55.585,61.778 55.834,61.654 C 56.083,61.531 56.305,61.373 56.499,61.181 C 56.693,60.989 56.849,60.756 56.969,60.481 C 57.088,60.206 57.148,59.875 57.148,59.487 C 57.148,59.056 57.073,58.654 56.924,58.279 C 56.775,57.904 56.558,57.576 56.275,57.297 C 55.992,57.018 55.642,56.799 55.227,56.639 C 54.811,56.479 54.339,56.399 53.811,56.399 C 53.521,56.399 53.226,56.429 52.925,56.489 C 52.625,56.548 52.334,56.632 52.053,56.741 C 51.772,56.85 51.507,56.979 51.26,57.128 C 51.013,57.277 50.798,57.443 50.614,57.627 L 51.254,58.637 C 51.301,58.714 51.367,58.775 51.452,58.822 C 51.537,58.869 51.629,58.893 51.727,58.893 C 51.855,58.893 51.984,58.852 52.114,58.771 C 52.243,58.69 52.391,58.601 52.555,58.503 C 52.719,58.405 52.907,58.315 53.12,58.234 C 53.333,58.153 53.585,58.113 53.875,58.113 C 54.267,58.113 54.571,58.199 54.789,58.371 C 55.006,58.544 55.115,58.818 55.115,59.193 C 55.115,59.411 55.055,59.587 54.936,59.724 C 54.816,59.86 54.66,59.973 54.466,60.063 C 54.272,60.152 54.051,60.231 53.804,60.299 C 53.557,60.367 53.304,60.443 53.044,60.526 C 52.784,60.609 52.53,60.711 52.283,60.833 C 52.036,60.954 51.815,61.114 51.621,61.312 C 51.427,61.511 51.271,61.758 51.151,62.054 C 51.032,62.35 50.972,62.716 50.972,63.151 C 50.972,63.5 51.043,63.841 51.183,64.174 C 51.324,64.506 51.531,64.802 51.803,65.062 C 52.076,65.322 52.411,65.53 52.807,65.686 C 53.203,65.841 53.657,65.919 54.169,65.919 C 54.454,65.919 54.732,65.897 55.003,65.852 C 55.273,65.807 55.53,65.741 55.773,65.653 C 56.016,65.566 56.243,65.462 56.454,65.34 C 56.665,65.219 56.853,65.081 57.02,64.928 L 56.483,63.924 Z" marker-start="none" marker-end="none"/>
       <path d="M 67.413,61.162 C 67.413,60.489 67.297,59.862 67.065,59.283 C 66.833,58.703 66.506,58.199 66.084,57.77 C 65.662,57.342 65.154,57.006 64.559,56.763 C 63.965,56.52 63.305,56.399 62.581,56.399 C 61.856,56.399 61.196,56.52 60.599,56.763 C 60.002,57.006 59.492,57.342 59.068,57.77 C 58.644,58.199 58.316,58.703 58.084,59.283 C 57.851,59.862 57.735,60.489 57.735,61.162 C 57.735,61.836 57.851,62.462 58.084,63.042 C 58.316,63.622 58.644,64.124 59.068,64.551 C 59.492,64.977 60.002,65.312 60.599,65.555 C 61.196,65.797 61.856,65.919 62.581,65.919 C 63.305,65.919 63.965,65.796 64.559,65.551 C 65.154,65.306 65.662,64.971 66.084,64.544 C 66.506,64.118 66.833,63.615 67.065,63.035 C 67.297,62.456 67.413,61.831 67.413,61.162 Z M 65.202,61.162 C 65.202,61.622 65.142,62.036 65.023,62.405 C 64.903,62.773 64.732,63.086 64.508,63.341 C 64.284,63.597 64.01,63.793 63.687,63.929 C 63.363,64.065 62.994,64.133 62.581,64.134 C 62.163,64.133 61.791,64.065 61.465,63.929 C 61.139,63.793 60.864,63.597 60.641,63.341 C 60.417,63.086 60.245,62.773 60.126,62.405 C 60.007,62.036 59.947,61.622 59.947,61.162 C 59.947,60.698 60.007,60.281 60.126,59.913 C 60.245,59.544 60.417,59.232 60.641,58.977 C 60.864,58.721 61.139,58.526 61.465,58.392 C 61.791,58.258 62.163,58.191 62.581,58.191 C 62.994,58.191 63.363,58.258 63.687,58.392 C 64.01,58.526 64.284,58.721 64.508,58.977 C 64.732,59.232 64.903,59.544 65.023,59.913 C 65.142,60.281 65.202,60.698 65.202,61.162 Z" marker-start="none" marker-end="none"/>
       <path d="M 72.321,58.209 C 72.611,58.209 72.87,58.257 73.098,58.353 C 73.326,58.449 73.518,58.586 73.676,58.766 C 73.834,58.945 73.954,59.163 74.037,59.421 C 74.12,59.679 74.162,59.972 74.162,60.3 L 74.162,65.817 L 76.323,65.817 L 76.323,60.299 C 76.323,59.728 76.23,59.204 76.044,58.726 C 75.859,58.249 75.594,57.838 75.249,57.492 C 74.903,57.147 74.484,56.879 73.989,56.687 C 73.495,56.495 72.939,56.399 72.321,56.399 C 71.699,56.399 71.14,56.495 70.646,56.687 C 70.152,56.879 69.732,57.147 69.387,57.492 C 69.042,57.838 68.777,58.249 68.594,58.726 C 68.411,59.204 68.319,59.728 68.319,60.299 L 68.319,65.817 L 70.48,65.817 L 70.48,60.306 C 70.48,59.978 70.521,59.685 70.605,59.427 C 70.688,59.169 70.808,58.95 70.966,58.769 C 71.123,58.588 71.316,58.449 71.544,58.353 C 71.772,58.257 72.031,58.209 72.321,58.209 Z" marker-start="none" marker-end="none"/>
       <path d="M 79.891,59.948 L 79.891,56.502 L 77.73,56.502 L 77.73,65.816 L 80.76,65.816 C 81.433,65.816 82.008,65.747 82.483,65.608 C 82.958,65.469 83.346,65.276 83.646,65.029 C 83.947,64.781 84.165,64.489 84.301,64.152 C 84.438,63.815 84.506,63.448 84.506,63.051 C 84.506,62.748 84.466,62.462 84.385,62.193 C 84.304,61.925 84.183,61.676 84.023,61.448 C 83.864,61.219 83.668,61.016 83.435,60.836 C 83.203,60.657 82.936,60.51 82.633,60.395 C 82.778,60.323 82.913,60.233 83.039,60.127 C 83.165,60.02 83.274,59.891 83.368,59.737 L 85.35,56.502 L 83.394,56.502 C 83.032,56.502 82.772,56.638 82.614,56.911 L 81.067,59.615 C 80.999,59.735 80.919,59.82 80.827,59.871 C 80.736,59.922 80.607,59.948 80.44,59.948 L 79.891,59.948 Z M 79.891,61.437 L 80.76,61.437 C 81.054,61.437 81.305,61.474 81.511,61.549 C 81.718,61.623 81.887,61.727 82.019,61.859 C 82.151,61.991 82.247,62.145 82.307,62.322 C 82.367,62.499 82.397,62.69 82.397,62.895 C 82.397,63.304 82.263,63.624 81.997,63.854 C 81.731,64.084 81.318,64.199 80.76,64.199 L 79.891,64.199 L 79.891,61.437 Z" marker-start="none" marker-end="none"/>
       <path d="M 92.172,58.91 C 92.223,58.91 92.275,58.901 92.326,58.881 C 92.377,58.861 92.426,58.828 92.473,58.78 L 93.329,57.859 C 92.954,57.377 92.484,57.013 91.92,56.767 C 91.355,56.522 90.687,56.399 89.916,56.399 C 89.208,56.399 88.574,56.519 88.014,56.76 C 87.454,57.001 86.978,57.334 86.588,57.758 C 86.199,58.182 85.899,58.685 85.69,59.267 C 85.482,59.848 85.377,60.48 85.377,61.162 C 85.377,61.857 85.496,62.495 85.735,63.077 C 85.974,63.659 86.307,64.161 86.736,64.583 C 87.164,65.005 87.676,65.333 88.273,65.567 C 88.87,65.802 89.528,65.919 90.248,65.919 C 90.598,65.919 90.927,65.888 91.236,65.826 C 91.545,65.764 91.833,65.679 92.102,65.57 C 92.37,65.461 92.618,65.331 92.843,65.179 C 93.069,65.028 93.27,64.86 93.444,64.677 L 92.716,63.699 C 92.669,63.639 92.613,63.585 92.549,63.536 C 92.485,63.487 92.396,63.462 92.281,63.462 C 92.204,63.462 92.132,63.479 92.064,63.513 C 91.995,63.547 91.923,63.589 91.846,63.638 C 91.77,63.687 91.685,63.74 91.594,63.798 C 91.502,63.855 91.393,63.909 91.268,63.958 C 91.142,64.007 90.995,64.048 90.827,64.082 C 90.658,64.116 90.461,64.133 90.235,64.134 C 89.843,64.133 89.485,64.064 89.161,63.926 C 88.838,63.787 88.559,63.589 88.327,63.331 C 88.095,63.073 87.914,62.761 87.784,62.395 C 87.654,62.028 87.589,61.617 87.589,61.161 C 87.589,60.683 87.654,60.259 87.784,59.888 C 87.914,59.518 88.091,59.205 88.314,58.952 C 88.538,58.698 88.799,58.505 89.098,58.373 C 89.396,58.241 89.715,58.175 90.056,58.175 C 90.252,58.175 90.431,58.185 90.593,58.204 C 90.755,58.223 90.905,58.256 91.044,58.303 C 91.182,58.35 91.315,58.41 91.44,58.485 C 91.566,58.56 91.693,58.652 91.821,58.763 C 91.872,58.806 91.927,58.841 91.987,58.869 C 92.047,58.896 92.108,58.91 92.172,58.91 Z" marker-start="none" marker-end="none"/>
       <path d="M 100.313,65.819 L 100.313,64.155 L 96.491,64.155 L 96.491,61.98 L 99.418,61.98 L 99.418,60.382 L 96.491,60.382 L 96.491,58.166 L 100.313,58.166 L 100.313,56.502 L 94.317,56.502 L 94.317,65.819 L 100.313,65.819 Z" marker-start="none" marker-end="none"/>
      </g>
     </g>
     <g id="Group_24" fill-rule="nonzero" stroke-linejoin="round" stroke-linecap="round" stroke="none" stroke-width="0.365" fill="#000000" stroke-miterlimit="79.8403193612775">
      <g id="Group_25">
       <path d="M 53.123,35.359 C 53.049,35.241 52.972,35.153 52.892,35.095 C 52.811,35.036 52.707,35.007 52.58,35.007 C 52.468,35.007 52.347,35.042 52.218,35.113 C 52.088,35.184 51.942,35.263 51.778,35.351 C 51.614,35.439 51.428,35.519 51.218,35.589 C 51.008,35.66 50.768,35.696 50.5,35.696 C 50.036,35.696 49.69,35.597 49.463,35.399 C 49.236,35.201 49.122,34.934 49.122,34.597 C 49.122,34.381 49.191,34.203 49.327,34.062 C 49.464,33.92 49.644,33.798 49.866,33.695 C 50.088,33.593 50.342,33.499 50.628,33.413 C 50.914,33.328 51.205,33.232 51.503,33.127 C 51.801,33.022 52.093,32.899 52.379,32.757 C 52.665,32.616 52.919,32.435 53.141,32.215 C 53.363,31.995 53.543,31.728 53.679,31.413 C 53.816,31.098 53.885,30.718 53.885,30.273 C 53.885,29.78 53.799,29.318 53.628,28.888 C 53.457,28.458 53.209,28.084 52.884,27.764 C 52.56,27.444 52.159,27.192 51.683,27.009 C 51.207,26.826 50.666,26.734 50.06,26.734 C 49.728,26.734 49.39,26.768 49.045,26.837 C 48.701,26.905 48.367,27.001 48.045,27.126 C 47.723,27.251 47.42,27.398 47.137,27.569 C 46.853,27.74 46.607,27.931 46.397,28.141 L 47.129,29.299 C 47.183,29.387 47.259,29.458 47.356,29.511 C 47.454,29.565 47.559,29.592 47.671,29.592 C 47.818,29.592 47.966,29.546 48.115,29.453 C 48.264,29.36 48.432,29.257 48.62,29.145 C 48.808,29.033 49.024,28.93 49.269,28.837 C 49.513,28.744 49.801,28.698 50.133,28.698 C 50.583,28.698 50.932,28.797 51.181,28.995 C 51.43,29.192 51.555,29.507 51.555,29.936 C 51.555,30.186 51.486,30.388 51.349,30.545 C 51.213,30.701 51.033,30.83 50.811,30.933 C 50.589,31.036 50.336,31.126 50.053,31.204 C 49.769,31.282 49.479,31.369 49.181,31.464 C 48.883,31.559 48.592,31.677 48.309,31.816 C 48.026,31.955 47.773,32.138 47.551,32.366 C 47.328,32.593 47.149,32.876 47.012,33.216 C 46.875,33.555 46.807,33.974 46.807,34.472 C 46.807,34.873 46.887,35.264 47.049,35.645 C 47.21,36.026 47.447,36.365 47.759,36.663 C 48.072,36.961 48.455,37.2 48.91,37.378 C 49.364,37.556 49.884,37.645 50.47,37.645 C 50.798,37.645 51.116,37.62 51.426,37.568 C 51.737,37.517 52.031,37.441 52.309,37.341 C 52.588,37.241 52.848,37.121 53.09,36.982 C 53.331,36.843 53.548,36.685 53.738,36.509 L 53.123,35.359 Z" marker-start="none" marker-end="none"/>
       <path d="M 65.05,26.852 L 63.131,26.852 C 62.916,26.852 62.739,26.902 62.6,27.002 C 62.46,27.102 62.364,27.231 62.31,27.387 L 61.68,29.249 L 57.621,29.249 L 56.991,27.387 C 56.942,27.25 56.847,27.127 56.705,27.017 C 56.563,26.907 56.39,26.852 56.185,26.852 L 54.251,26.852 L 58.383,37.529 L 60.918,37.529 L 65.05,26.852 Z M 58.192,30.934 L 61.109,30.934 L 60.127,33.813 C 60.063,33.995 59.989,34.211 59.903,34.458 C 59.818,34.706 59.734,34.974 59.65,35.263 C 59.572,34.969 59.492,34.698 59.409,34.447 C 59.326,34.198 59.248,33.981 59.174,33.798 L 58.192,30.934 Z" marker-start="none" marker-end="none"/>
       <path d="M 67.216,37.531 C 67.324,37.531 67.414,37.526 67.487,37.516 C 67.561,37.507 67.627,37.488 67.685,37.461 C 67.744,37.434 67.8,37.396 67.854,37.348 C 67.908,37.299 67.969,37.233 68.037,37.15 L 73.107,30.739 C 73.088,30.944 73.073,31.143 73.063,31.336 C 73.053,31.529 73.048,31.711 73.048,31.882 L 73.048,37.531 L 75.232,37.531 L 75.232,26.852 L 73.942,26.852 C 73.752,26.852 73.591,26.881 73.459,26.94 C 73.327,26.999 73.2,27.106 73.078,27.262 L 68.044,33.622 C 68.059,33.436 68.071,33.254 68.081,33.076 C 68.091,32.898 68.096,32.731 68.096,32.574 L 68.096,26.852 L 65.912,26.852 L 65.912,37.531 L 67.216,37.531 Z" marker-start="none" marker-end="none"/>
       <path d="M 86.674,32.195 C 86.674,31.423 86.541,30.711 86.275,30.059 C 86.009,29.406 85.634,28.842 85.15,28.366 C 84.667,27.889 84.084,27.518 83.403,27.252 C 82.721,26.985 81.966,26.852 81.135,26.852 L 76.988,26.852 L 76.988,37.531 L 81.135,37.531 C 81.966,37.531 82.721,37.396 83.403,37.128 C 84.084,36.859 84.667,36.488 85.15,36.014 C 85.634,35.54 86.009,34.977 86.275,34.324 C 86.541,33.672 86.674,32.962 86.674,32.195 Z M 84.139,32.195 C 84.139,32.723 84.071,33.199 83.934,33.624 C 83.797,34.049 83.601,34.409 83.344,34.704 C 83.088,35 82.774,35.227 82.403,35.386 C 82.031,35.545 81.609,35.624 81.135,35.624 L 79.479,35.624 L 79.479,28.759 L 81.135,28.759 C 81.609,28.759 82.031,28.838 82.403,28.997 C 82.774,29.156 83.088,29.383 83.344,29.678 C 83.601,29.974 83.797,30.334 83.934,30.759 C 84.071,31.184 84.139,31.663 84.139,32.195 Z" marker-start="none" marker-end="none"/>
       <path d="M 94.676,37.645 C 95.15,37.645 95.567,37.576 95.929,37.437 C 96.29,37.297 96.596,37.114 96.845,36.887 C 97.094,36.66 97.289,36.397 97.431,36.099 C 97.573,35.802 97.66,35.496 97.695,35.184 L 96.229,34.89 C 96.205,34.886 96.184,34.882 96.167,34.88 C 96.15,34.877 96.132,34.876 96.112,34.876 C 95.907,34.876 95.755,34.984 95.658,35.198 C 95.545,35.452 95.415,35.645 95.266,35.777 C 95.117,35.909 94.92,35.975 94.676,35.975 C 94.505,35.975 94.356,35.943 94.229,35.879 C 94.102,35.815 93.996,35.731 93.91,35.628 C 93.825,35.525 93.76,35.405 93.716,35.267 C 93.672,35.13 93.65,34.987 93.65,34.84 C 93.65,34.712 93.661,34.589 93.683,34.471 C 93.705,34.353 93.742,34.234 93.793,34.114 C 93.844,33.994 93.915,33.869 94.006,33.742 C 94.096,33.614 94.212,33.476 94.354,33.329 L 96.991,30.528 C 97.123,30.825 97.228,31.135 97.306,31.457 C 97.384,31.779 97.441,32.113 97.475,32.46 C 97.485,32.598 97.53,32.707 97.61,32.786 C 97.691,32.865 97.797,32.905 97.929,32.905 L 99.365,32.905 C 99.365,32.19 99.27,31.522 99.079,30.902 C 98.889,30.283 98.618,29.716 98.266,29.201 L 100.508,26.852 L 98.266,26.852 C 98.154,26.852 98.054,26.858 97.966,26.87 C 97.878,26.883 97.796,26.903 97.72,26.933 C 97.645,26.962 97.573,27.003 97.504,27.057 C 97.436,27.111 97.362,27.179 97.284,27.263 L 96.823,27.746 C 96.359,27.423 95.852,27.174 95.302,26.998 C 94.753,26.822 94.168,26.734 93.548,26.734 C 93.123,26.734 92.706,26.806 92.298,26.951 C 91.891,27.096 91.528,27.303 91.21,27.571 C 90.893,27.839 90.636,28.165 90.441,28.546 C 90.246,28.928 90.148,29.356 90.148,29.829 C 90.148,30.148 90.198,30.45 90.298,30.735 C 90.398,31.02 90.539,31.285 90.72,31.529 C 90.9,31.773 91.116,31.995 91.368,32.196 C 91.619,32.396 91.894,32.572 92.192,32.721 C 91.963,33.083 91.797,33.437 91.694,33.784 C 91.591,34.13 91.54,34.467 91.54,34.793 C 91.54,35.18 91.61,35.545 91.749,35.889 C 91.888,36.233 92.091,36.535 92.357,36.795 C 92.623,37.055 92.951,37.262 93.339,37.415 C 93.727,37.569 94.173,37.645 94.676,37.645 Z M 92.463,30.023 C 92.463,29.792 92.499,29.583 92.57,29.396 C 92.64,29.208 92.742,29.047 92.874,28.912 C 93.005,28.778 93.163,28.673 93.346,28.599 C 93.529,28.524 93.733,28.487 93.958,28.487 C 94.285,28.487 94.589,28.529 94.87,28.613 C 95.151,28.698 95.414,28.816 95.658,28.97 L 93.203,31.531 C 92.935,31.315 92.744,31.079 92.632,30.824 C 92.519,30.569 92.463,30.302 92.463,30.023 Z" marker-start="none" marker-end="none"/>
       <path d="M 109.572,31.7 C 109.669,31.513 109.763,31.319 109.854,31.117 C 109.944,30.916 110.031,30.709 110.114,30.497 C 110.197,30.714 110.285,30.924 110.378,31.128 C 110.47,31.332 110.566,31.53 110.663,31.722 L 113.404,37.151 C 113.452,37.245 113.502,37.317 113.554,37.369 C 113.605,37.421 113.662,37.459 113.726,37.483 C 113.789,37.508 113.861,37.52 113.942,37.52 C 114.023,37.52 114.117,37.52 114.224,37.52 L 116.114,37.52 L 116.114,26.852 L 113.931,26.852 L 113.931,32.912 C 113.931,33.206 113.946,33.524 113.975,33.866 L 111.147,28.463 C 111.059,28.295 110.941,28.168 110.792,28.081 C 110.643,27.994 110.473,27.951 110.282,27.951 L 109.945,27.951 C 109.755,27.951 109.585,27.994 109.436,28.081 C 109.287,28.168 109.169,28.295 109.081,28.463 L 106.238,33.873 C 106.258,33.705 106.272,33.537 106.282,33.371 C 106.292,33.205 106.297,33.052 106.297,32.912 L 106.297,26.852 L 104.113,26.852 L 104.113,37.52 L 106.004,37.52 C 106.111,37.52 106.205,37.52 106.286,37.52 C 106.366,37.52 106.438,37.508 106.502,37.483 C 106.565,37.459 106.623,37.421 106.674,37.369 C 106.725,37.317 106.775,37.245 106.824,37.151 L 109.572,31.7 Z" marker-start="none" marker-end="none"/>
       <path d="M 124.745,37.531 L 124.745,35.624 L 120.363,35.624 L 120.363,33.131 L 123.719,33.131 L 123.719,31.299 L 120.363,31.299 L 120.363,28.759 L 124.745,28.759 L 124.745,26.852 L 117.872,26.852 L 117.872,37.531 L 124.745,37.531 Z" marker-start="none" marker-end="none"/>
       <path d="M 133.903,37.531 L 133.903,35.567 L 130.899,35.567 L 130.899,26.854 L 128.423,26.854 L 128.423,35.567 L 125.419,35.567 L 125.419,37.531 L 133.903,37.531 Z" marker-start="none" marker-end="none"/>
       <path d="M 143.695,26.852 L 141.776,26.852 C 141.561,26.852 141.384,26.902 141.245,27.002 C 141.105,27.102 141.009,27.231 140.955,27.387 L 140.325,29.249 L 136.266,29.249 L 135.636,27.387 C 135.587,27.25 135.492,27.127 135.35,27.017 C 135.208,26.907 135.035,26.852 134.83,26.852 L 132.896,26.852 L 137.028,37.529 L 139.563,37.529 L 143.695,26.852 Z M 136.837,30.934 L 139.754,30.934 L 138.772,33.813 C 138.708,33.995 138.634,34.211 138.548,34.458 C 138.463,34.706 138.379,34.974 138.295,35.263 C 138.217,34.969 138.137,34.698 138.054,34.447 C 137.971,34.198 137.893,33.981 137.819,33.798 L 136.837,30.934 Z" marker-start="none" marker-end="none"/>
       <path d="M 147.034,28.83 L 150.99,28.83 L 150.99,26.852 L 144.557,26.852 L 144.557,37.529 L 147.034,37.529 L 147.034,28.83 Z" marker-start="none" marker-end="none"/>
       <path d="M 152.222,28.142 C 152.222,28.298 152.252,28.444 152.31,28.578 C 152.369,28.713 152.453,28.83 152.563,28.93 C 152.673,29.03 152.802,29.109 152.951,29.168 C 153.1,29.227 153.268,29.256 153.453,29.256 C 153.673,29.256 153.863,29.218 154.025,29.142 C 154.186,29.067 154.32,28.964 154.428,28.835 C 154.535,28.705 154.614,28.556 154.666,28.388 C 154.717,28.219 154.743,28.042 154.743,27.856 C 154.743,27.612 154.704,27.352 154.625,27.076 C 154.547,26.8 154.431,26.523 154.277,26.244 C 154.124,25.966 153.932,25.692 153.702,25.423 C 153.473,25.155 153.209,24.91 152.911,24.691 L 152.515,25.042 C 152.462,25.096 152.421,25.146 152.394,25.193 C 152.368,25.239 152.354,25.296 152.354,25.365 C 152.354,25.414 152.371,25.466 152.405,25.522 C 152.44,25.579 152.481,25.629 152.53,25.673 C 152.589,25.731 152.657,25.802 152.735,25.885 C 152.813,25.968 152.891,26.061 152.97,26.164 C 153.048,26.266 153.12,26.379 153.186,26.501 C 153.252,26.623 153.302,26.752 153.336,26.889 C 153.165,26.904 153.011,26.945 152.874,27.014 C 152.738,27.082 152.622,27.173 152.526,27.285 C 152.431,27.397 152.357,27.525 152.303,27.67 C 152.249,27.814 152.222,27.971 152.222,28.142 Z" marker-start="none" marker-end="none"/>
       <path d="M 161.596,26.852 L 159.105,26.852 L 159.105,37.531 L 161.596,37.531 L 161.596,26.852 Z" marker-start="none" marker-end="none"/>
       <path d="M 164.876,37.531 C 164.984,37.531 165.074,37.526 165.147,37.516 C 165.221,37.507 165.287,37.488 165.345,37.461 C 165.404,37.434 165.46,37.396 165.514,37.348 C 165.568,37.299 165.629,37.233 165.697,37.15 L 170.767,30.739 C 170.748,30.944 170.733,31.143 170.723,31.336 C 170.713,31.529 170.708,31.711 170.708,31.882 L 170.708,37.531 L 172.892,37.531 L 172.892,26.852 L 171.602,26.852 C 171.412,26.852 171.251,26.881 171.119,26.94 C 170.987,26.999 170.86,27.106 170.738,27.262 L 165.704,33.622 C 165.719,33.436 165.731,33.254 165.741,33.076 C 165.751,32.898 165.756,32.731 165.756,32.574 L 165.756,26.852 L 163.572,26.852 L 163.572,37.531 L 164.876,37.531 Z" marker-start="none" marker-end="none"/>
       <path d="M 181.821,29.612 C 181.88,29.612 181.938,29.601 181.997,29.579 C 182.056,29.556 182.112,29.518 182.165,29.463 L 183.147,28.408 C 182.717,27.855 182.179,27.437 181.532,27.156 C 180.885,26.875 180.119,26.734 179.235,26.734 C 178.424,26.734 177.697,26.872 177.055,27.148 C 176.413,27.424 175.868,27.805 175.421,28.291 C 174.974,28.777 174.631,29.354 174.392,30.021 C 174.152,30.688 174.033,31.412 174.033,32.193 C 174.033,32.99 174.17,33.721 174.443,34.388 C 174.717,35.055 175.099,35.63 175.59,36.114 C 176.081,36.597 176.668,36.974 177.352,37.242 C 178.036,37.511 178.79,37.645 179.616,37.645 C 180.016,37.645 180.394,37.61 180.748,37.539 C 181.102,37.468 181.433,37.37 181.741,37.245 C 182.048,37.121 182.332,36.972 182.59,36.798 C 182.849,36.624 183.079,36.432 183.279,36.222 L 182.444,35.101 C 182.39,35.032 182.327,34.97 182.253,34.914 C 182.18,34.858 182.078,34.83 181.946,34.83 C 181.858,34.83 181.775,34.849 181.697,34.888 C 181.618,34.927 181.535,34.975 181.447,35.031 C 181.36,35.087 181.263,35.148 181.158,35.214 C 181.053,35.28 180.928,35.341 180.784,35.398 C 180.64,35.454 180.472,35.501 180.279,35.541 C 180.086,35.579 179.86,35.599 179.601,35.599 C 179.152,35.599 178.741,35.52 178.37,35.361 C 177.999,35.202 177.68,34.975 177.414,34.679 C 177.148,34.384 176.94,34.026 176.791,33.606 C 176.642,33.186 176.568,32.714 176.568,32.192 C 176.568,31.644 176.642,31.158 176.791,30.733 C 176.94,30.308 177.143,29.951 177.399,29.66 C 177.656,29.369 177.955,29.148 178.297,28.997 C 178.639,28.845 179.005,28.77 179.396,28.77 C 179.621,28.77 179.826,28.781 180.011,28.803 C 180.197,28.825 180.369,28.862 180.528,28.916 C 180.687,28.97 180.838,29.039 180.982,29.125 C 181.126,29.21 181.272,29.317 181.418,29.444 C 181.477,29.493 181.54,29.533 181.609,29.565 C 181.677,29.596 181.748,29.612 181.821,29.612 Z" marker-start="none" marker-end="none"/>
       <path d="M 183.84,28.002 C 183.84,28.178 183.873,28.342 183.939,28.493 C 184.004,28.645 184.095,28.777 184.21,28.889 C 184.324,29.002 184.46,29.091 184.616,29.157 C 184.773,29.223 184.944,29.256 185.129,29.256 C 185.31,29.256 185.478,29.223 185.635,29.157 C 185.791,29.091 185.928,29.002 186.045,28.889 C 186.162,28.777 186.254,28.645 186.32,28.493 C 186.386,28.342 186.419,28.178 186.419,28.002 C 186.419,27.826 186.386,27.661 186.32,27.507 C 186.254,27.353 186.162,27.22 186.045,27.108 C 185.928,26.995 185.791,26.907 185.635,26.844 C 185.478,26.78 185.31,26.748 185.129,26.748 C 184.944,26.748 184.773,26.78 184.616,26.844 C 184.46,26.907 184.324,26.995 184.21,27.108 C 184.095,27.22 184.004,27.353 183.939,27.507 C 183.873,27.661 183.84,27.826 183.84,28.002 Z" marker-start="none" marker-end="none"/>
      </g>
     </g>
    </g>
   </g>
  </g>
 </g>
</svg>
