<?xml version="1.0" standalone="no"?>
<!DOCTYPE svg PUBLIC "-//W3C//DTD SVG 1.1//EN" "http://www.w3.org/Graphics/SVG/1.1/DTD/svg11.dtd">
<!--Generator: Xara Designer (www.xara.com), SVG filter version: 6.2.0.0-->
<svg stroke-width="0.501" stroke-linejoin="bevel" fill-rule="evenodd" xmlns:xlink="http://www.w3.org/1999/xlink" xmlns="http://www.w3.org/2000/svg" version="1.1" overflow="visible" width="215.434pt" height="215.434pt" viewBox="0 0 215.434 215.434">
 <defs>
	</defs>
 <g id="Document" fill="none" stroke="black" font-family="Times New Roman" font-size="16" transform="scale(1 -1)">
  <g id="Spread" transform="translate(0 -215.434)">
   <g id="Layer 1">
    <g id="Group">
     <path d="M 199.757,214.933 L 15.176,214.933 C 6.799,214.933 0,208.134 0,199.757 L 0,15.176 C 0,6.799 6.799,0 15.176,0 L 199.757,0 C 208.134,0 214.933,6.799 214.933,15.176 L 214.933,199.757 C 214.933,208.134 208.134,214.933 199.757,214.933 Z" stroke="#999999" fill="#ffffff" stroke-linejoin="miter" marker-start="none" marker-end="none"/>
     <g id="Group_1" stroke-linejoin="miter" stroke-miterlimit="79.8403193612775">
      <path d="M 153.485,158.48 C 144.588,169.02 145.913,184.806 156.465,193.689 C 166.996,202.604 182.761,201.272 191.662,190.735 C 200.576,180.194 199.24,164.42 188.687,155.517 C 178.155,146.621 162.383,147.952 153.485,158.48 Z" stroke="none" fill="#000000" stroke-width="1.039" marker-start="none" marker-end="none" stroke-miterlimit="19.9600798403194"/>
      <path d="M 154.662,159.437 C 145.775,169.982 147.091,185.734 157.635,194.652 C 168.179,203.524 183.945,202.21 192.862,191.673 C 201.756,181.135 200.423,165.352 189.876,156.455 C 179.348,147.559 163.567,148.883 154.662,159.437 Z" stroke="#b2b2b2" stroke-width="5.658" marker-start="none" marker-end="none" stroke-miterlimit="19.9600798403194"/>
     </g>
     <text xml:space="preserve" transform="translate(164.865 164.648) scale(1 -1)" font-family="Lato Black" stroke="none" fill="#b2b2b2" stroke-width="0.773" stroke-linejoin="round" stroke-linecap="round" font-weight="bold" font-size="30.96" stroke-miterlimit="79.8403193612775"><tspan x="0" y="0">3</tspan></text>
     <g id="Group_2" stroke-linejoin="miter" stroke-miterlimit="79.8403193612775">
      <path d="M 22.222,158.476 C 13.325,169.016 14.65,184.802 25.202,193.685 C 35.733,202.6 51.498,201.268 60.399,190.731 C 69.313,180.19 67.977,164.416 57.424,155.513 C 46.892,146.617 31.12,147.948 22.222,158.476 Z" stroke="none" fill="#000000" stroke-width="1.039" marker-start="none" marker-end="none" stroke-miterlimit="19.9600798403194"/>
      <path d="M 23.399,159.433 C 14.512,169.978 15.828,185.73 26.372,194.648 C 36.916,203.52 52.682,202.206 61.599,191.669 C 70.493,181.131 69.16,165.348 58.613,156.451 C 48.085,147.555 32.304,148.879 23.399,159.433 Z" stroke="#b2b2b2" stroke-width="5.658" marker-start="none" marker-end="none" stroke-miterlimit="19.9600798403194"/>
     </g>
     <path d="M 95.018,116.221 C 108.457,128.488 115.286,145.302 115.289,162.175 L 123.769,162.175 C 123.763,143.003 116.013,123.89 100.744,109.956 C 87.183,97.583 70.106,91.481 53.083,91.486 L 53.083,99.972 C 68.065,99.965 83.092,105.334 95.018,116.221 Z" fill="#ff3718" stroke-linecap="round" stroke="none" stroke-width="0.541" stroke-linejoin="round" marker-start="none" marker-end="none" stroke-miterlimit="79.8403193612775"/>
     <path d="M 15.13,95.713 L 18.175,97.831 L 21.227,99.953 L 21.228,100.006 L 48.505,100.006 L 48.504,91.47 L 21.228,91.47 L 18.175,93.59 L 15.13,95.713 Z" fill="#ff3718" stroke-linecap="round" stroke="none" stroke-width="0.103" stroke-linejoin="miter" marker-start="none" marker-end="none" stroke-miterlimit="79.8403193612775"/>
     <path d="M 15.126,107.263 L 18.173,109.383 L 21.228,111.504 L 21.228,107.263 L 21.224,103.022 L 18.172,105.144 L 15.126,107.263 Z M 21.228,111.527 L 48.505,111.528 L 48.505,102.993 L 21.228,102.993 L 21.228,111.527 Z" fill="#ffcd36" stroke-linecap="round" stroke="none" stroke-width="0.103" stroke-linejoin="miter" marker-start="none" marker-end="none" stroke-miterlimit="79.8403193612775"/>
     <path d="M 87.396,124.575 C 98.387,134.615 103.974,148.37 103.98,162.175 L 112.46,162.175 C 112.455,146.067 105.941,130.018 93.113,118.309 C 81.727,107.915 67.384,102.795 53.084,102.798 L 53.083,111.284 C 65.34,111.274 77.632,115.669 87.396,124.575 Z" fill="#ffcd36" stroke-linecap="round" stroke="none" stroke-width="0.453" stroke-linejoin="round" marker-start="none" marker-end="none" stroke-miterlimit="79.8403193612775"/>
     <g id="Group_3" fill="#e5e5e5" stroke-linecap="round" stroke="none">
      <path d="M 15.126,118.579 L 18.172,120.694 L 21.228,122.816 L 21.228,118.575 L 21.224,114.332 L 18.172,116.452 L 15.126,118.579 Z M 21.228,122.826 L 48.505,122.825 L 48.505,114.29 L 21.228,114.29 L 21.228,122.826 Z" stroke-width="0.103" stroke-linejoin="miter" marker-start="none" marker-end="none" stroke-miterlimit="79.8403193612775"/>
      <path d="M 79.769,132.93 C 88.321,140.737 92.66,151.442 92.667,162.175 L 101.152,162.174 C 101.148,149.133 95.875,136.143 85.486,126.664 C 76.271,118.253 64.655,114.105 53.083,114.107 L 53.083,122.589 C 62.616,122.589 72.18,126.003 79.769,132.93 Z" stroke-width="0.368" stroke-linejoin="round" marker-start="none" marker-end="none" stroke-miterlimit="79.8403193612775"/>
     </g>
     <g id="Group_4" fill="#e5e5e5" stroke-linecap="round" stroke="none">
      <path d="M 72.148,141.285 C 78.255,146.863 81.355,154.501 81.358,162.174 L 89.845,162.175 C 89.835,152.205 85.803,142.266 77.865,135.023 C 70.815,128.584 61.939,125.413 53.083,125.417 L 53.083,133.905 C 59.89,133.898 66.722,136.34 72.148,141.285 Z" stroke-width="0.281" stroke-linejoin="round" marker-start="none" marker-end="none" stroke-miterlimit="79.8403193612775"/>
      <path d="M 15.13,129.632 L 18.174,131.764 L 21.227,133.905 L 21.227,133.905 L 48.504,133.905 L 48.505,125.366 L 21.228,125.366 L 21.228,125.366 L 18.173,127.496 L 15.13,129.632 Z" stroke-width="0.103" stroke-linejoin="miter" marker-start="none" marker-end="none" stroke-miterlimit="79.8403193612775"/>
     </g>
     <g id="Group_5" stroke-linejoin="miter" stroke-miterlimit="79.8403193612775">
      <path d="M 80.44,120.816 C 75.918,126.167 76.595,134.187 81.951,138.714 C 87.308,143.23 95.327,142.557 99.851,137.2 C 104.374,131.845 103.694,123.828 98.34,119.305 C 92.983,114.781 84.965,115.457 80.44,120.816 Z" stroke="none" fill="#ffffff" stroke-width="0.526" marker-start="none" marker-end="none" stroke-miterlimit="19.9600798403194"/>
      <path d="M 81.048,121.294 C 76.521,126.648 77.195,134.664 82.555,139.188 C 87.913,143.712 95.928,143.039 100.453,137.676 C 104.98,132.321 104.296,124.304 98.945,119.778 C 93.585,115.253 85.57,115.934 81.048,121.294 Z" fill="none" stroke="#55bae6" stroke-width="2.872" marker-start="none" marker-end="none" stroke-miterlimit="19.9600798403194"/>
     </g>
     <g id="Group_6" stroke-linejoin="miter" stroke-miterlimit="79.8403193612775">
      <path d="M 22.813,104.019 C 18.289,109.375 18.968,117.392 24.323,121.92 C 29.683,126.441 37.703,125.763 42.226,120.405 C 46.754,115.052 46.071,107.03 40.715,102.511 C 35.356,97.992 27.34,98.666 22.813,104.019 Z" stroke="none" fill="#ffffff" stroke-width="0.526" marker-start="none" marker-end="none" stroke-miterlimit="19.9600798403194"/>
      <path d="M 23.42,104.503 C 18.896,109.854 19.572,117.874 24.932,122.398 C 30.291,126.919 38.306,126.245 42.829,120.885 C 47.356,115.532 46.678,107.512 41.322,102.991 C 35.959,98.466 27.943,99.142 23.42,104.503 Z" fill="none" stroke="#55bae6" stroke-width="2.872" marker-start="none" marker-end="none" stroke-miterlimit="19.9600798403194"/>
     </g>
     <g id="Group_7" fill-rule="nonzero" stroke-linejoin="round" stroke-linecap="round" stroke="none" stroke-width="0.387" fill="#000000" stroke-miterlimit="79.8403193612775">
      <g id="Group_8">
       <path d="M 87.177,132.987 L 87.177,129.905 L 90.056,129.905 L 90.056,128.176 L 87.177,128.176 L 87.177,125.079 L 85.216,125.079 L 85.216,128.176 L 82.352,128.176 L 82.352,129.905 L 85.216,129.905 L 85.216,132.987 L 87.177,132.987 Z" marker-start="none" marker-end="none"/>
       <path d="M 95.411,135.274 C 95.971,135.274 96.476,135.192 96.924,135.029 C 97.373,134.866 97.756,134.639 98.072,134.348 C 98.389,134.058 98.631,133.711 98.8,133.309 C 98.969,132.907 99.053,132.465 99.053,131.982 C 99.053,131.567 98.995,131.183 98.878,130.83 C 98.761,130.477 98.602,130.141 98.399,129.822 C 98.197,129.503 97.962,129.195 97.695,128.896 C 97.428,128.598 97.144,128.296 96.843,127.99 L 94.625,125.717 C 94.91,125.801 95.192,125.867 95.469,125.917 C 95.747,125.967 96.007,125.991 96.251,125.991 L 98.368,125.991 C 98.627,125.991 98.832,125.92 98.983,125.777 C 99.133,125.634 99.209,125.446 99.209,125.212 L 99.209,123.81 L 91.24,123.81 L 91.24,124.588 C 91.24,124.739 91.271,124.9 91.333,125.071 C 91.395,125.242 91.504,125.398 91.66,125.538 L 94.928,128.83 C 95.209,129.111 95.452,129.378 95.66,129.632 C 95.867,129.886 96.039,130.137 96.174,130.383 C 96.308,130.63 96.41,130.876 96.477,131.123 C 96.544,131.369 96.578,131.63 96.578,131.905 C 96.578,132.356 96.471,132.703 96.255,132.944 C 96.04,133.185 95.712,133.306 95.271,133.306 C 95.089,133.306 94.923,133.28 94.773,133.228 C 94.622,133.176 94.487,133.106 94.368,133.018 C 94.249,132.93 94.146,132.826 94.061,132.707 C 93.975,132.587 93.906,132.458 93.854,132.318 C 93.771,132.084 93.666,131.916 93.539,131.812 C 93.412,131.708 93.24,131.656 93.022,131.656 C 92.97,131.656 92.914,131.659 92.854,131.664 C 92.795,131.669 92.734,131.677 92.672,131.687 L 91.395,131.909 C 91.478,132.475 91.638,132.969 91.874,133.389 C 92.11,133.81 92.403,134.16 92.753,134.441 C 93.103,134.721 93.504,134.93 93.956,135.068 C 94.407,135.205 94.892,135.274 95.411,135.274 Z" marker-start="none" marker-end="none"/>
      </g>
     </g>
     <g id="Group_9" fill-rule="nonzero" stroke-linejoin="round" stroke-linecap="round" stroke="none" stroke-width="0.387" fill="#000000" stroke-miterlimit="79.8403193612775">
      <g id="Group_10">
       <path d="M 29.553,116.196 L 29.553,113.114 L 32.432,113.114 L 32.432,111.385 L 29.553,111.385 L 29.553,108.288 L 27.592,108.288 L 27.592,111.385 L 24.728,111.385 L 24.728,113.114 L 27.592,113.114 L 27.592,116.196 L 29.553,116.196 Z" marker-start="none" marker-end="none"/>
       <path d="M 35.063,108.763 L 37.242,108.763 L 37.242,114.483 C 37.242,114.764 37.25,115.057 37.265,115.363 L 35.981,114.296 C 35.898,114.229 35.815,114.181 35.732,114.152 C 35.649,114.124 35.569,114.11 35.491,114.11 C 35.356,114.11 35.236,114.139 35.129,114.199 C 35.023,114.259 34.944,114.322 34.892,114.39 L 34.129,115.402 L 37.662,118.367 L 39.655,118.367 L 39.655,108.763 L 41.522,108.763 L 41.522,107.019 L 35.063,107.019 L 35.063,108.763 Z" marker-start="none" marker-end="none"/>
      </g>
     </g>
     <path d="M 91.06,201.014 C 98.912,207.641 110.659,206.65 117.286,198.801 C 123.917,190.955 122.925,179.203 115.076,172.576 C 107.226,165.946 95.477,166.937 88.85,174.792 C 82.22,182.636 83.211,194.384 91.06,201.014 Z" stroke="#ff0000" fill="#ffffff" stroke-width="4.212" stroke-linejoin="miter" marker-start="none" marker-end="none" stroke-miterlimit="79.8403193612775"/>
     <g id="Group_11" fill-rule="nonzero" stroke-linejoin="round" stroke-linecap="round" stroke="none" stroke-width="0.248" fill="#000000" stroke-miterlimit="79.8403193612775">
      <g id="Group_12">
       <path d="M 95.894,197.349 C 95.953,197.349 96.002,197.347 96.042,197.341 C 96.082,197.336 96.118,197.326 96.15,197.311 C 96.182,197.297 96.213,197.276 96.242,197.249 C 96.271,197.223 96.305,197.187 96.342,197.141 L 99.108,193.644 C 99.097,193.756 99.089,193.864 99.084,193.97 C 99.079,194.075 99.076,194.174 99.076,194.267 L 99.076,197.349 L 100.267,197.349 L 100.267,191.523 L 99.564,191.523 C 99.46,191.523 99.372,191.539 99.3,191.571 C 99.228,191.603 99.159,191.662 99.092,191.747 L 96.346,195.217 C 96.354,195.115 96.361,195.016 96.366,194.919 C 96.371,194.822 96.374,194.73 96.374,194.645 L 96.374,191.523 L 95.183,191.523 L 95.183,197.349 L 95.894,197.349 Z" marker-start="none" marker-end="none"/>
       <path d="M 106.974,194.437 C 106.974,194.016 106.901,193.624 106.756,193.262 C 106.611,192.899 106.406,192.584 106.142,192.316 C 105.879,192.048 105.561,191.838 105.189,191.686 C 104.817,191.535 104.405,191.459 103.952,191.459 C 103.499,191.459 103.086,191.535 102.713,191.686 C 102.34,191.838 102.02,192.048 101.755,192.316 C 101.49,192.584 101.285,192.899 101.14,193.262 C 100.995,193.624 100.922,194.016 100.922,194.437 C 100.922,194.858 100.995,195.25 101.14,195.613 C 101.285,195.975 101.49,196.29 101.755,196.556 C 102.02,196.823 102.34,197.032 102.713,197.184 C 103.086,197.336 103.499,197.412 103.952,197.412 C 104.405,197.412 104.817,197.335 105.189,197.182 C 105.561,197.029 105.879,196.819 106.142,196.552 C 106.406,196.286 106.611,195.971 106.756,195.609 C 106.901,195.246 106.974,194.856 106.974,194.437 Z M 105.591,194.437 C 105.591,194.725 105.554,194.984 105.479,195.214 C 105.404,195.445 105.297,195.64 105.157,195.8 C 105.017,195.96 104.846,196.082 104.643,196.167 C 104.441,196.253 104.21,196.295 103.952,196.295 C 103.691,196.295 103.458,196.253 103.254,196.167 C 103.05,196.082 102.879,195.96 102.739,195.8 C 102.599,195.64 102.492,195.445 102.417,195.214 C 102.342,194.984 102.305,194.725 102.305,194.437 C 102.305,194.147 102.342,193.886 102.417,193.656 C 102.492,193.425 102.599,193.23 102.739,193.07 C 102.879,192.911 103.05,192.789 103.254,192.705 C 103.458,192.621 103.691,192.579 103.952,192.579 C 104.21,192.579 104.441,192.621 104.643,192.705 C 104.846,192.789 105.017,192.911 105.157,193.07 C 105.297,193.23 105.404,193.425 105.479,193.656 C 105.554,193.886 105.591,194.147 105.591,194.437 Z" marker-start="none" marker-end="none"/>
       <path d="M 111.61,197.349 L 111.61,196.278 L 109.971,196.278 L 109.971,191.524 L 108.62,191.524 L 108.62,196.278 L 106.981,196.278 L 106.981,197.349 L 111.61,197.349 Z" marker-start="none" marker-end="none"/>
      </g>
      <g id="Group_13">
       <path d="M 94.117,185.356 C 94.149,185.356 94.181,185.35 94.213,185.338 C 94.245,185.325 94.276,185.304 94.305,185.274 L 94.841,184.699 C 94.606,184.397 94.312,184.169 93.959,184.016 C 93.606,183.862 93.188,183.786 92.706,183.786 C 92.264,183.786 91.867,183.861 91.517,184.011 C 91.166,184.162 90.869,184.37 90.625,184.635 C 90.382,184.9 90.194,185.215 90.064,185.579 C 89.933,185.943 89.868,186.338 89.868,186.764 C 89.868,187.199 89.943,187.598 90.092,187.962 C 90.241,188.325 90.45,188.639 90.717,188.903 C 90.985,189.167 91.306,189.372 91.679,189.519 C 92.052,189.665 92.464,189.739 92.914,189.739 C 93.132,189.739 93.338,189.719 93.532,189.681 C 93.725,189.642 93.905,189.589 94.073,189.52 C 94.241,189.453 94.396,189.371 94.537,189.276 C 94.678,189.182 94.803,189.077 94.913,188.962 L 94.457,188.35 C 94.428,188.313 94.393,188.279 94.353,188.248 C 94.313,188.218 94.257,188.202 94.185,188.202 C 94.137,188.202 94.092,188.213 94.049,188.234 C 94.007,188.256 93.961,188.282 93.913,188.312 C 93.865,188.343 93.813,188.376 93.755,188.412 C 93.698,188.448 93.63,188.482 93.551,188.512 C 93.473,188.543 93.381,188.569 93.276,188.59 C 93.17,188.612 93.047,188.622 92.906,188.622 C 92.661,188.622 92.437,188.579 92.234,188.492 C 92.032,188.406 91.858,188.282 91.713,188.121 C 91.567,187.959 91.454,187.764 91.373,187.535 C 91.292,187.306 91.251,187.048 91.251,186.763 C 91.251,186.465 91.292,186.199 91.373,185.968 C 91.454,185.736 91.565,185.541 91.705,185.382 C 91.845,185.223 92.008,185.103 92.194,185.02 C 92.381,184.938 92.581,184.896 92.794,184.896 C 92.917,184.896 93.028,184.902 93.13,184.914 C 93.231,184.926 93.325,184.947 93.412,184.976 C 93.498,185.005 93.581,185.043 93.659,185.09 C 93.738,185.137 93.817,185.195 93.897,185.264 C 93.929,185.291 93.964,185.313 94.001,185.33 C 94.039,185.347 94.077,185.356 94.117,185.356 Z" marker-start="none" marker-end="none"/>
       <path d="M 96.937,183.85 L 95.578,183.85 L 95.578,189.676 L 96.937,189.676 L 96.937,183.85 Z" marker-start="none" marker-end="none"/>
       <path d="M 99.366,186.005 L 99.366,183.85 L 98.015,183.85 L 98.015,189.674 L 99.909,189.674 C 100.33,189.674 100.69,189.631 100.987,189.544 C 101.284,189.458 101.526,189.337 101.714,189.182 C 101.902,189.027 102.039,188.844 102.124,188.634 C 102.209,188.423 102.252,188.193 102.252,187.945 C 102.252,187.756 102.227,187.577 102.176,187.409 C 102.125,187.241 102.05,187.085 101.95,186.943 C 101.85,186.8 101.728,186.672 101.582,186.56 C 101.437,186.448 101.27,186.356 101.081,186.284 C 101.171,186.239 101.256,186.183 101.335,186.117 C 101.413,186.05 101.482,185.969 101.54,185.873 L 102.78,183.85 L 101.556,183.85 C 101.33,183.85 101.167,183.935 101.069,184.106 L 100.101,185.797 C 100.059,185.872 100.009,185.925 99.951,185.957 C 99.894,185.989 99.814,186.005 99.71,186.005 L 99.366,186.005 Z M 99.366,186.936 L 99.909,186.936 C 100.093,186.936 100.25,186.959 100.379,187.006 C 100.508,187.053 100.614,187.117 100.697,187.2 C 100.78,187.282 100.839,187.379 100.877,187.49 C 100.914,187.6 100.933,187.72 100.933,187.847 C 100.933,188.103 100.849,188.303 100.683,188.447 C 100.516,188.591 100.259,188.663 99.909,188.663 L 99.366,188.663 L 99.366,186.936 Z" marker-start="none" marker-end="none"/>
       <path d="M 107.046,185.356 C 107.078,185.356 107.11,185.35 107.142,185.338 C 107.174,185.325 107.205,185.304 107.234,185.274 L 107.77,184.699 C 107.535,184.397 107.241,184.169 106.888,184.016 C 106.535,183.862 106.117,183.786 105.635,183.786 C 105.193,183.786 104.796,183.861 104.446,184.011 C 104.095,184.162 103.798,184.37 103.554,184.635 C 103.311,184.9 103.123,185.215 102.993,185.579 C 102.862,185.943 102.797,186.338 102.797,186.764 C 102.797,187.199 102.872,187.598 103.021,187.962 C 103.17,188.325 103.379,188.639 103.646,188.903 C 103.914,189.167 104.235,189.372 104.608,189.519 C 104.981,189.665 105.393,189.739 105.843,189.739 C 106.061,189.739 106.267,189.719 106.461,189.681 C 106.654,189.642 106.834,189.589 107.002,189.52 C 107.17,189.453 107.325,189.371 107.466,189.276 C 107.607,189.182 107.732,189.077 107.842,188.962 L 107.386,188.35 C 107.357,188.313 107.322,188.279 107.282,188.248 C 107.242,188.218 107.186,188.202 107.114,188.202 C 107.066,188.202 107.021,188.213 106.978,188.234 C 106.936,188.256 106.89,188.282 106.842,188.312 C 106.794,188.343 106.742,188.376 106.684,188.412 C 106.627,188.448 106.559,188.482 106.48,188.512 C 106.402,188.543 106.31,188.569 106.205,188.59 C 106.099,188.612 105.976,188.622 105.835,188.622 C 105.59,188.622 105.366,188.579 105.163,188.492 C 104.961,188.406 104.787,188.282 104.642,188.121 C 104.496,187.959 104.383,187.764 104.302,187.535 C 104.221,187.306 104.18,187.048 104.18,186.763 C 104.18,186.465 104.221,186.199 104.302,185.968 C 104.383,185.736 104.494,185.541 104.634,185.382 C 104.774,185.223 104.937,185.103 105.123,185.02 C 105.31,184.938 105.51,184.896 105.723,184.896 C 105.846,184.896 105.957,184.902 106.059,184.914 C 106.16,184.926 106.254,184.947 106.341,184.976 C 106.427,185.005 106.51,185.043 106.588,185.09 C 106.667,185.137 106.746,185.195 106.826,185.264 C 106.858,185.291 106.893,185.313 106.93,185.33 C 106.968,185.347 107.006,185.356 107.046,185.356 Z" marker-start="none" marker-end="none"/>
       <path d="M 110.809,184.918 C 110.99,184.918 111.152,184.948 111.295,185.008 C 111.437,185.068 111.558,185.153 111.657,185.266 C 111.755,185.377 111.83,185.514 111.882,185.675 C 111.934,185.836 111.96,186.02 111.96,186.225 L 111.96,189.675 L 113.311,189.675 L 113.311,186.225 C 113.311,185.867 113.253,185.54 113.138,185.241 C 113.022,184.943 112.856,184.685 112.64,184.469 C 112.424,184.253 112.162,184.086 111.852,183.965 C 111.543,183.846 111.196,183.786 110.809,183.786 C 110.42,183.786 110.071,183.846 109.762,183.965 C 109.453,184.086 109.19,184.253 108.974,184.469 C 108.758,184.685 108.593,184.943 108.479,185.241 C 108.364,185.54 108.307,185.867 108.307,186.225 L 108.307,189.675 L 109.658,189.675 L 109.658,186.229 C 109.658,186.024 109.684,185.84 109.736,185.679 C 109.788,185.518 109.863,185.381 109.962,185.268 C 110.06,185.154 110.181,185.068 110.323,185.008 C 110.466,184.948 110.628,184.918 110.809,184.918 Z" marker-start="none" marker-end="none"/>
       <path d="M 114.112,186.78 L 116.27,186.78 L 116.27,185.78 L 114.112,185.78 L 114.112,186.78 Z" marker-start="none" marker-end="none"/>
      </g>
      <g id="Group_14">
       <path d="M 97.349,177.256 L 99.507,177.256 L 99.507,176.177 L 95.998,176.177 L 95.998,182.002 L 97.349,182.002 L 97.349,177.256 Z" marker-start="none" marker-end="none"/>
       <path d="M 105.568,176.177 L 104.521,176.177 C 104.404,176.177 104.307,176.204 104.231,176.259 C 104.155,176.314 104.102,176.384 104.073,176.469 L 103.729,177.485 L 101.515,177.485 L 101.171,176.469 C 101.144,176.394 101.092,176.327 101.015,176.267 C 100.938,176.207 100.843,176.177 100.731,176.177 L 99.676,176.177 L 101.931,182.002 L 103.314,182.002 L 105.568,176.177 Z M 101.827,178.404 L 103.418,178.404 L 102.882,179.975 C 102.847,180.074 102.807,180.192 102.76,180.327 C 102.713,180.462 102.667,180.608 102.622,180.766 C 102.579,180.606 102.535,180.457 102.49,180.321 C 102.445,180.185 102.402,180.067 102.362,179.967 L 101.827,178.404 Z" marker-start="none" marker-end="none"/>
       <path d="M 107.39,178.332 L 107.39,176.177 L 106.039,176.177 L 106.039,182.001 L 107.933,182.001 C 108.354,182.001 108.714,181.958 109.011,181.871 C 109.308,181.785 109.55,181.664 109.738,181.509 C 109.926,181.354 110.063,181.171 110.148,180.961 C 110.233,180.75 110.276,180.52 110.276,180.272 C 110.276,180.083 110.251,179.904 110.2,179.736 C 110.149,179.568 110.074,179.412 109.974,179.27 C 109.874,179.127 109.752,178.999 109.606,178.887 C 109.461,178.775 109.294,178.683 109.105,178.611 C 109.195,178.566 109.28,178.51 109.359,178.444 C 109.437,178.377 109.506,178.296 109.564,178.2 L 110.804,176.177 L 109.58,176.177 C 109.354,176.177 109.191,176.262 109.093,176.433 L 108.125,178.124 C 108.083,178.199 108.033,178.252 107.975,178.284 C 107.918,178.316 107.838,178.332 107.734,178.332 L 107.39,178.332 Z M 107.39,179.263 L 107.933,179.263 C 108.117,179.263 108.274,179.286 108.403,179.333 C 108.532,179.38 108.638,179.444 108.721,179.527 C 108.804,179.609 108.863,179.706 108.901,179.817 C 108.938,179.927 108.957,180.047 108.957,180.174 C 108.957,180.43 108.873,180.63 108.707,180.774 C 108.54,180.918 108.283,180.99 107.933,180.99 L 107.39,180.99 L 107.39,179.263 Z" marker-start="none" marker-end="none"/>
      </g>
     </g>
     <g id="Group_15" stroke="#f0942b" stroke-linejoin="miter" stroke-linecap="round">
      <path d="M 15.549,68.362 L 15.549,34.47 L 119.137,34.47 L 119.137,68.362 L 15.549,68.362 Z" fill="#f0942b" stroke-width="1.738" marker-start="none" marker-end="none" stroke-miterlimit="79.8403193612775"/>
      <path d="M 15.549,69.705 L 15.549,59.895 C 15.549,57.324 17.633,55.247 20.195,55.247 L 114.487,55.247 C 117.049,55.247 119.137,57.324 119.137,59.895 L 119.137,69.705 C 119.137,72.281 117.049,74.359 114.487,74.359 L 20.195,74.359 C 17.633,74.359 15.549,72.281 15.549,69.705 Z" fill="#f0942b" stroke-width="1.738" marker-start="none" marker-end="none" stroke-miterlimit="79.8403193612775"/>
      <path d="M 16.246,40.812 L 16.246,23.167 C 16.246,18.554 19.99,14.808 24.608,14.808 L 191.654,14.808 C 196.267,14.808 200.015,18.554 200.015,23.167 L 200.015,40.812 C 200.015,45.43 196.267,49.178 191.654,49.178 L 24.608,49.178 C 19.99,49.178 16.246,45.43 16.246,40.812 Z" fill="#ffffff" stroke-width="3.13" marker-start="none" marker-end="none" stroke-miterlimit="79.8403193612775"/>
     </g>
     <g id="Group_16" stroke-linejoin="miter" stroke-miterlimit="79.8403193612775">
      <path d="M 169.691,93.711 C 163.791,100.689 164.67,111.149 171.665,117.058 C 178.647,122.95 189.1,122.071 195.004,115.084 C 200.913,108.092 200.027,97.638 193.03,91.733 C 186.048,85.838 175.591,86.717 169.691,93.711 Z" stroke="none" fill="#000000" stroke-width="0.686" marker-start="none" marker-end="none" stroke-miterlimit="19.9600798403194"/>
      <path d="M 170.469,94.32 C 164.578,101.318 165.45,111.777 172.443,117.67 C 179.432,123.579 189.884,122.696 195.8,115.703 C 201.697,108.721 200.812,98.269 193.818,92.364 C 186.839,86.458 176.375,87.337 170.469,94.32 Z" stroke="#b2b2b2" stroke-width="3.752" marker-start="none" marker-end="none" stroke-miterlimit="19.9600798403194"/>
     </g>
     <g id="Group_17" stroke-linejoin="miter" stroke-miterlimit="79.8403193612775">
      <path d="M 129.006,93.698 C 123.106,100.687 123.985,111.155 130.982,117.046 C 137.965,122.957 148.419,122.074 154.321,115.086 C 160.232,108.097 159.346,97.637 152.348,91.733 C 145.365,85.834 134.906,86.717 129.006,93.698 Z" stroke="none" fill="#ffffff" stroke-width="0.689" marker-start="none" marker-end="none" stroke-miterlimit="19.9600798403194"/>
      <path d="M 129.786,94.333 C 123.893,101.325 124.766,111.771 131.758,117.684 C 138.749,123.568 149.204,122.696 155.117,115.708 C 161.015,108.721 160.131,98.255 153.137,92.355 C 146.156,86.456 135.691,87.334 129.786,94.333 Z" stroke="#55bae6" stroke-width="3.752" marker-start="none" marker-end="none" stroke-miterlimit="19.9600798403194"/>
     </g>
     <g id="Group_18" stroke-linejoin="miter" stroke-miterlimit="79.8403193612775">
      <path d="M 153.485,158.479 C 144.588,169.019 145.913,184.805 156.465,193.689 C 166.996,202.603 182.761,201.271 191.662,190.733 C 200.576,180.193 199.24,164.419 188.686,155.516 C 178.155,146.62 162.383,147.951 153.485,158.479 Z" stroke="none" fill="#ffffff" stroke-width="1.039" marker-start="none" marker-end="none" stroke-miterlimit="19.9600798403194"/>
      <path d="M 154.662,159.436 C 145.775,169.981 147.091,185.734 157.635,194.651 C 168.178,203.524 183.945,202.209 192.862,191.671 C 201.756,181.134 200.423,165.351 189.876,156.454 C 179.348,147.558 163.567,148.882 154.662,159.436 Z" stroke="#55bae6" stroke-width="5.658" marker-start="none" marker-end="none" stroke-miterlimit="19.9600798403194"/>
     </g>
     <g id="Group_19" fill-rule="nonzero" stroke-linejoin="round" stroke-linecap="round" stroke="none" stroke-width="0.485" fill="#b2b2b2" stroke-miterlimit="79.8403193612775">
      <g id="Group_20">
       <path d="M 187.362,105.021 C 187.362,103.779 187.229,102.704 186.962,101.794 C 186.696,100.884 186.327,100.131 185.856,99.533 C 185.385,98.935 184.826,98.49 184.18,98.198 C 183.534,97.905 182.834,97.759 182.08,97.759 C 181.326,97.759 180.629,97.905 179.989,98.198 C 179.35,98.49 178.796,98.935 178.328,99.533 C 177.86,100.131 177.495,100.884 177.232,101.794 C 176.968,102.704 176.837,103.779 176.837,105.021 C 176.837,106.262 176.968,107.337 177.232,108.247 C 177.495,109.157 177.86,109.91 178.328,110.508 C 178.796,111.106 179.35,111.55 179.989,111.839 C 180.629,112.128 181.326,112.272 182.08,112.272 C 182.834,112.272 183.534,112.128 184.18,111.839 C 184.826,111.55 185.385,111.106 185.856,110.508 C 186.327,109.91 186.696,109.157 186.962,108.247 C 187.229,107.337 187.362,106.262 187.362,105.021 Z M 184.243,105.021 C 184.243,106.002 184.182,106.806 184.058,107.433 C 183.935,108.06 183.771,108.552 183.566,108.91 C 183.361,109.267 183.129,109.513 182.869,109.646 C 182.609,109.779 182.346,109.845 182.08,109.845 C 181.813,109.845 181.552,109.779 181.295,109.646 C 181.039,109.513 180.811,109.267 180.613,108.91 C 180.415,108.552 180.256,108.06 180.136,107.433 C 180.015,106.806 179.955,106.002 179.955,105.021 C 179.955,104.033 180.015,103.227 180.136,102.603 C 180.256,101.98 180.415,101.487 180.613,101.126 C 180.811,100.766 181.039,100.519 181.295,100.386 C 181.552,100.252 181.813,100.186 182.08,100.186 C 182.346,100.186 182.609,100.252 182.869,100.386 C 183.129,100.519 183.361,100.766 183.566,101.126 C 183.771,101.487 183.935,101.98 184.058,102.603 C 184.182,103.227 184.243,104.033 184.243,105.021 Z" marker-start="none" marker-end="none"/>
      </g>
     </g>
     <g id="Group_21" fill-rule="nonzero" stroke-linejoin="round" stroke-linecap="round" stroke="none" stroke-width="0.485" fill="#000000" stroke-miterlimit="79.8403193612775">
      <g id="Group_22">
       <path d="M 142.832,112.272 C 143.533,112.272 144.157,112.173 144.703,111.974 C 145.248,111.776 145.71,111.507 146.087,111.168 C 146.463,110.829 146.749,110.437 146.944,109.99 C 147.139,109.544 147.237,109.073 147.237,108.578 C 147.237,108.129 147.191,107.733 147.1,107.39 C 147.009,107.048 146.874,106.752 146.696,106.501 C 146.517,106.25 146.296,106.037 146.033,105.861 C 145.77,105.685 145.469,105.539 145.132,105.421 C 146.704,104.877 147.49,103.81 147.49,102.222 C 147.49,101.47 147.353,100.816 147.081,100.258 C 146.808,99.7 146.442,99.237 145.984,98.868 C 145.526,98.498 144.995,98.221 144.391,98.036 C 143.787,97.851 143.156,97.759 142.5,97.759 C 141.825,97.759 141.224,97.832 140.697,97.978 C 140.171,98.124 139.703,98.352 139.294,98.66 C 138.885,98.969 138.526,99.363 138.217,99.844 C 137.909,100.325 137.641,100.896 137.413,101.559 L 138.758,102.106 C 138.875,102.159 138.99,102.194 139.104,102.214 C 139.218,102.233 139.33,102.243 139.44,102.243 C 139.648,102.243 139.835,102.202 140.001,102.121 C 140.166,102.04 140.291,101.921 140.376,101.765 C 140.668,101.225 140.978,100.833 141.306,100.59 C 141.635,100.346 142.019,100.224 142.461,100.224 C 142.799,100.224 143.093,100.281 143.343,100.395 C 143.593,100.508 143.801,100.654 143.967,100.833 C 144.133,101.012 144.258,101.216 144.342,101.443 C 144.427,101.671 144.469,101.902 144.469,102.136 C 144.469,102.441 144.448,102.716 144.406,102.96 C 144.363,103.204 144.245,103.414 144.05,103.589 C 143.855,103.765 143.561,103.9 143.168,103.994 C 142.775,104.088 142.227,104.135 141.526,104.135 L 141.526,106.22 C 142.117,106.22 142.594,106.265 142.958,106.356 C 143.322,106.447 143.603,106.572 143.801,106.732 C 143.999,106.891 144.131,107.084 144.196,107.312 C 144.261,107.539 144.293,107.789 144.293,108.062 C 144.293,108.621 144.159,109.052 143.889,109.354 C 143.619,109.656 143.208,109.808 142.656,109.808 C 142.429,109.808 142.221,109.775 142.032,109.71 C 141.844,109.645 141.675,109.557 141.526,109.447 C 141.376,109.336 141.248,109.206 141.141,109.057 C 141.034,108.907 140.948,108.745 140.883,108.569 C 140.779,108.277 140.647,108.066 140.488,107.936 C 140.329,107.806 140.113,107.74 139.84,107.74 C 139.775,107.74 139.705,107.744 139.63,107.75 C 139.556,107.757 139.479,107.766 139.401,107.779 L 137.803,108.062 C 137.907,108.77 138.107,109.388 138.402,109.914 C 138.698,110.44 139.065,110.879 139.504,111.23 C 139.942,111.58 140.444,111.842 141.009,112.014 C 141.574,112.186 142.182,112.272 142.832,112.272 Z" marker-start="none" marker-end="none"/>
      </g>
     </g>
     <g id="Group_23" fill-rule="nonzero" stroke-linejoin="round" stroke-linecap="round" stroke="none" stroke-width="0.319" fill="#ffffff" stroke-miterlimit="79.8403193612775">
      <g id="Group_24">
       <path d="M 37.727,59.948 L 37.727,56.502 L 35.566,56.502 L 35.566,65.816 L 38.596,65.816 C 39.269,65.816 39.844,65.747 40.319,65.608 C 40.794,65.469 41.182,65.276 41.482,65.029 C 41.783,64.781 42.001,64.489 42.137,64.152 C 42.274,63.815 42.342,63.448 42.342,63.051 C 42.342,62.748 42.302,62.462 42.221,62.193 C 42.14,61.925 42.019,61.676 41.859,61.448 C 41.7,61.219 41.504,61.016 41.271,60.836 C 41.039,60.657 40.772,60.51 40.469,60.395 C 40.614,60.323 40.749,60.233 40.875,60.127 C 41.001,60.02 41.11,59.891 41.204,59.737 L 43.186,56.502 L 41.23,56.502 C 40.868,56.502 40.608,56.638 40.45,56.911 L 38.903,59.615 C 38.835,59.735 38.755,59.82 38.663,59.871 C 38.572,59.922 38.443,59.948 38.276,59.948 L 37.727,59.948 Z M 37.727,61.437 L 38.596,61.437 C 38.89,61.437 39.141,61.474 39.347,61.549 C 39.554,61.623 39.723,61.727 39.855,61.859 C 39.987,61.991 40.083,62.145 40.143,62.322 C 40.203,62.499 40.233,62.69 40.233,62.895 C 40.233,63.304 40.099,63.624 39.833,63.854 C 39.567,64.084 39.154,64.199 38.596,64.199 L 37.727,64.199 L 37.727,61.437 Z" marker-start="none" marker-end="none"/>
       <path d="M 50.065,65.819 L 50.065,64.155 L 46.243,64.155 L 46.243,61.98 L 49.17,61.98 L 49.17,60.382 L 46.243,60.382 L 46.243,58.166 L 50.065,58.166 L 50.065,56.502 L 44.069,56.502 L 44.069,65.819 L 50.065,65.819 Z" marker-start="none" marker-end="none"/>
       <path d="M 56.483,63.924 C 56.419,63.821 56.352,63.745 56.281,63.694 C 56.211,63.642 56.12,63.617 56.01,63.617 C 55.912,63.617 55.806,63.648 55.693,63.71 C 55.58,63.771 55.452,63.841 55.31,63.917 C 55.167,63.994 55.004,64.063 54.821,64.125 C 54.637,64.187 54.429,64.218 54.194,64.218 C 53.789,64.218 53.488,64.132 53.29,63.959 C 53.092,63.786 52.992,63.553 52.992,63.259 C 52.992,63.071 53.052,62.916 53.171,62.792 C 53.291,62.669 53.447,62.562 53.641,62.472 C 53.835,62.383 54.057,62.301 54.306,62.226 C 54.555,62.152 54.81,62.069 55.07,61.977 C 55.33,61.885 55.585,61.778 55.834,61.654 C 56.083,61.531 56.305,61.373 56.499,61.181 C 56.693,60.989 56.849,60.756 56.969,60.481 C 57.088,60.206 57.148,59.875 57.148,59.487 C 57.148,59.056 57.073,58.654 56.924,58.279 C 56.775,57.904 56.558,57.576 56.275,57.297 C 55.992,57.018 55.642,56.799 55.227,56.639 C 54.811,56.479 54.339,56.399 53.811,56.399 C 53.521,56.399 53.226,56.429 52.925,56.489 C 52.625,56.548 52.334,56.632 52.053,56.741 C 51.772,56.85 51.507,56.979 51.26,57.128 C 51.013,57.277 50.798,57.443 50.614,57.627 L 51.254,58.637 C 51.301,58.714 51.367,58.775 51.452,58.822 C 51.537,58.869 51.629,58.893 51.727,58.893 C 51.855,58.893 51.984,58.852 52.114,58.771 C 52.243,58.69 52.391,58.601 52.555,58.503 C 52.719,58.405 52.907,58.315 53.12,58.234 C 53.333,58.153 53.585,58.113 53.875,58.113 C 54.267,58.113 54.571,58.199 54.789,58.371 C 55.006,58.544 55.115,58.818 55.115,59.193 C 55.115,59.411 55.055,59.587 54.936,59.724 C 54.816,59.86 54.66,59.973 54.466,60.063 C 54.272,60.152 54.051,60.231 53.804,60.299 C 53.557,60.367 53.304,60.443 53.044,60.526 C 52.784,60.609 52.53,60.711 52.283,60.833 C 52.036,60.954 51.815,61.114 51.621,61.312 C 51.427,61.511 51.271,61.758 51.151,62.054 C 51.032,62.35 50.972,62.716 50.972,63.151 C 50.972,63.5 51.043,63.841 51.183,64.174 C 51.324,64.506 51.531,64.802 51.803,65.062 C 52.076,65.322 52.411,65.53 52.807,65.686 C 53.203,65.841 53.657,65.919 54.169,65.919 C 54.454,65.919 54.732,65.897 55.003,65.852 C 55.273,65.807 55.53,65.741 55.773,65.653 C 56.016,65.566 56.243,65.462 56.454,65.34 C 56.665,65.219 56.853,65.081 57.02,64.928 L 56.483,63.924 Z" marker-start="none" marker-end="none"/>
       <path d="M 67.413,61.162 C 67.413,60.489 67.297,59.862 67.065,59.283 C 66.833,58.703 66.506,58.199 66.084,57.77 C 65.662,57.342 65.154,57.006 64.559,56.763 C 63.965,56.52 63.305,56.399 62.581,56.399 C 61.856,56.399 61.196,56.52 60.599,56.763 C 60.002,57.006 59.492,57.342 59.068,57.77 C 58.644,58.199 58.316,58.703 58.084,59.283 C 57.851,59.862 57.735,60.489 57.735,61.162 C 57.735,61.836 57.851,62.462 58.084,63.042 C 58.316,63.622 58.644,64.124 59.068,64.551 C 59.492,64.977 60.002,65.312 60.599,65.555 C 61.196,65.797 61.856,65.919 62.581,65.919 C 63.305,65.919 63.965,65.796 64.559,65.551 C 65.154,65.306 65.662,64.971 66.084,64.544 C 66.506,64.118 66.833,63.615 67.065,63.035 C 67.297,62.456 67.413,61.831 67.413,61.162 Z M 65.202,61.162 C 65.202,61.622 65.142,62.036 65.023,62.405 C 64.903,62.773 64.732,63.086 64.508,63.341 C 64.284,63.597 64.01,63.793 63.687,63.929 C 63.363,64.065 62.994,64.133 62.581,64.134 C 62.163,64.133 61.791,64.065 61.465,63.929 C 61.139,63.793 60.864,63.597 60.641,63.341 C 60.417,63.086 60.245,62.773 60.126,62.405 C 60.007,62.036 59.947,61.622 59.947,61.162 C 59.947,60.698 60.007,60.281 60.126,59.913 C 60.245,59.544 60.417,59.232 60.641,58.977 C 60.864,58.721 61.139,58.526 61.465,58.392 C 61.791,58.258 62.163,58.191 62.581,58.191 C 62.994,58.191 63.363,58.258 63.687,58.392 C 64.01,58.526 64.284,58.721 64.508,58.977 C 64.732,59.232 64.903,59.544 65.023,59.913 C 65.142,60.281 65.202,60.698 65.202,61.162 Z" marker-start="none" marker-end="none"/>
       <path d="M 72.321,58.209 C 72.611,58.209 72.87,58.257 73.098,58.353 C 73.326,58.449 73.518,58.586 73.676,58.766 C 73.834,58.945 73.954,59.163 74.037,59.421 C 74.12,59.679 74.162,59.972 74.162,60.3 L 74.162,65.817 L 76.323,65.817 L 76.323,60.299 C 76.323,59.728 76.23,59.204 76.044,58.726 C 75.859,58.249 75.594,57.838 75.249,57.492 C 74.903,57.147 74.484,56.879 73.989,56.687 C 73.495,56.495 72.939,56.399 72.321,56.399 C 71.699,56.399 71.14,56.495 70.646,56.687 C 70.152,56.879 69.732,57.147 69.387,57.492 C 69.042,57.838 68.777,58.249 68.594,58.726 C 68.411,59.204 68.319,59.728 68.319,60.299 L 68.319,65.817 L 70.48,65.817 L 70.48,60.306 C 70.48,59.978 70.521,59.685 70.605,59.427 C 70.688,59.169 70.808,58.95 70.966,58.769 C 71.123,58.588 71.316,58.449 71.544,58.353 C 71.772,58.257 72.031,58.209 72.321,58.209 Z" marker-start="none" marker-end="none"/>
       <path d="M 79.891,59.948 L 79.891,56.502 L 77.73,56.502 L 77.73,65.816 L 80.76,65.816 C 81.433,65.816 82.008,65.747 82.483,65.608 C 82.958,65.469 83.346,65.276 83.646,65.029 C 83.947,64.781 84.165,64.489 84.301,64.152 C 84.438,63.815 84.506,63.448 84.506,63.051 C 84.506,62.748 84.466,62.462 84.385,62.193 C 84.304,61.925 84.183,61.676 84.023,61.448 C 83.864,61.219 83.668,61.016 83.435,60.836 C 83.203,60.657 82.936,60.51 82.633,60.395 C 82.778,60.323 82.913,60.233 83.039,60.127 C 83.165,60.02 83.274,59.891 83.368,59.737 L 85.35,56.502 L 83.394,56.502 C 83.032,56.502 82.772,56.638 82.614,56.911 L 81.067,59.615 C 80.999,59.735 80.919,59.82 80.827,59.871 C 80.736,59.922 80.607,59.948 80.44,59.948 L 79.891,59.948 Z M 79.891,61.437 L 80.76,61.437 C 81.054,61.437 81.305,61.474 81.511,61.549 C 81.718,61.623 81.887,61.727 82.019,61.859 C 82.151,61.991 82.247,62.145 82.307,62.322 C 82.367,62.499 82.397,62.69 82.397,62.895 C 82.397,63.304 82.263,63.624 81.997,63.854 C 81.731,64.084 81.318,64.199 80.76,64.199 L 79.891,64.199 L 79.891,61.437 Z" marker-start="none" marker-end="none"/>
       <path d="M 92.172,58.91 C 92.223,58.91 92.275,58.901 92.326,58.881 C 92.377,58.861 92.426,58.828 92.473,58.78 L 93.329,57.859 C 92.954,57.377 92.484,57.013 91.92,56.767 C 91.355,56.522 90.687,56.399 89.916,56.399 C 89.208,56.399 88.574,56.519 88.014,56.76 C 87.454,57.001 86.978,57.334 86.588,57.758 C 86.199,58.182 85.899,58.685 85.69,59.267 C 85.482,59.848 85.377,60.48 85.377,61.162 C 85.377,61.857 85.496,62.495 85.735,63.077 C 85.974,63.659 86.307,64.161 86.736,64.583 C 87.164,65.005 87.676,65.333 88.273,65.567 C 88.87,65.802 89.528,65.919 90.248,65.919 C 90.598,65.919 90.927,65.888 91.236,65.826 C 91.545,65.764 91.833,65.679 92.102,65.57 C 92.37,65.461 92.618,65.331 92.843,65.179 C 93.069,65.028 93.27,64.86 93.444,64.677 L 92.716,63.699 C 92.669,63.639 92.613,63.585 92.549,63.536 C 92.485,63.487 92.396,63.462 92.281,63.462 C 92.204,63.462 92.132,63.479 92.064,63.513 C 91.995,63.547 91.923,63.589 91.846,63.638 C 91.77,63.687 91.685,63.74 91.594,63.798 C 91.502,63.855 91.393,63.909 91.268,63.958 C 91.142,64.007 90.995,64.048 90.827,64.082 C 90.658,64.116 90.461,64.133 90.235,64.134 C 89.843,64.133 89.485,64.064 89.161,63.926 C 88.838,63.787 88.559,63.589 88.327,63.331 C 88.095,63.073 87.914,62.761 87.784,62.395 C 87.654,62.028 87.589,61.617 87.589,61.161 C 87.589,60.683 87.654,60.259 87.784,59.888 C 87.914,59.518 88.091,59.205 88.314,58.952 C 88.538,58.698 88.799,58.505 89.098,58.373 C 89.396,58.241 89.715,58.175 90.056,58.175 C 90.252,58.175 90.431,58.185 90.593,58.204 C 90.755,58.223 90.905,58.256 91.044,58.303 C 91.182,58.35 91.315,58.41 91.44,58.485 C 91.566,58.56 91.693,58.652 91.821,58.763 C 91.872,58.806 91.927,58.841 91.987,58.869 C 92.047,58.896 92.108,58.91 92.172,58.91 Z" marker-start="none" marker-end="none"/>
       <path d="M 100.313,65.819 L 100.313,64.155 L 96.491,64.155 L 96.491,61.98 L 99.418,61.98 L 99.418,60.382 L 96.491,60.382 L 96.491,58.166 L 100.313,58.166 L 100.313,56.502 L 94.317,56.502 L 94.317,65.819 L 100.313,65.819 Z" marker-start="none" marker-end="none"/>
      </g>
     </g>
     <g id="Group_25" fill-rule="nonzero" stroke-linejoin="round" stroke-linecap="round" stroke="none" stroke-width="0.365" fill="#000000" stroke-miterlimit="79.8403193612775">
      <g id="Group_26">
       <path d="M 46.397,37.529 L 48.478,37.529 C 48.693,37.529 48.872,37.48 49.017,37.382 C 49.161,37.283 49.255,37.153 49.299,36.99 L 50.764,31.381 C 50.813,31.199 50.862,31.005 50.911,30.798 C 50.959,30.592 50.996,30.375 51.02,30.149 C 51.069,30.38 51.123,30.598 51.182,30.802 C 51.24,31.006 51.296,31.199 51.35,31.381 L 53.079,36.99 C 53.123,37.128 53.217,37.252 53.361,37.363 C 53.505,37.474 53.68,37.529 53.885,37.529 L 54.618,37.529 C 54.833,37.529 55.01,37.481 55.149,37.385 C 55.288,37.289 55.385,37.158 55.439,36.99 L 57.153,31.38 C 57.207,31.208 57.263,31.025 57.322,30.83 C 57.38,30.636 57.431,30.428 57.475,30.206 C 57.514,30.423 57.555,30.63 57.596,30.826 C 57.638,31.023 57.681,31.208 57.724,31.38 L 59.19,36.99 C 59.229,37.133 59.322,37.258 59.468,37.367 C 59.615,37.475 59.791,37.529 59.996,37.529 L 61.945,37.529 L 58.648,26.852 L 56.406,26.852 L 54.398,33.366 C 54.364,33.467 54.329,33.578 54.292,33.698 C 54.255,33.818 54.22,33.945 54.186,34.08 C 54.151,33.945 54.116,33.818 54.079,33.698 C 54.043,33.578 54.007,33.467 53.973,33.366 L 51.936,26.852 L 49.694,26.852 L 46.397,37.529 Z" marker-start="none" marker-end="none"/>
       <path d="M 65.606,26.852 L 63.115,26.852 L 63.115,37.531 L 65.606,37.531 L 65.606,26.852 Z" marker-start="none" marker-end="none"/>
       <path d="M 68.886,37.531 C 68.994,37.531 69.084,37.526 69.157,37.516 C 69.231,37.507 69.297,37.488 69.355,37.461 C 69.414,37.434 69.47,37.396 69.524,37.348 C 69.578,37.299 69.639,37.233 69.707,37.15 L 74.777,30.739 C 74.758,30.944 74.743,31.143 74.733,31.336 C 74.723,31.529 74.718,31.711 74.718,31.882 L 74.718,37.531 L 76.902,37.531 L 76.902,26.852 L 75.612,26.852 C 75.422,26.852 75.261,26.881 75.129,26.94 C 74.997,26.999 74.87,27.106 74.748,27.262 L 69.714,33.622 C 69.729,33.436 69.741,33.254 69.751,33.076 C 69.761,32.898 69.766,32.731 69.766,32.574 L 69.766,26.852 L 67.582,26.852 L 67.582,37.531 L 68.886,37.531 Z" marker-start="none" marker-end="none"/>
       <path d="M 88.344,32.195 C 88.344,31.423 88.211,30.711 87.945,30.059 C 87.679,29.406 87.304,28.842 86.82,28.366 C 86.337,27.889 85.754,27.518 85.073,27.252 C 84.391,26.985 83.636,26.852 82.805,26.852 L 78.658,26.852 L 78.658,37.531 L 82.805,37.531 C 83.636,37.531 84.391,37.396 85.073,37.128 C 85.754,36.859 86.337,36.488 86.82,36.014 C 87.304,35.54 87.679,34.977 87.945,34.324 C 88.211,33.672 88.344,32.962 88.344,32.195 Z M 85.809,32.195 C 85.809,32.723 85.741,33.199 85.604,33.624 C 85.467,34.049 85.271,34.409 85.014,34.704 C 84.758,35 84.444,35.227 84.073,35.386 C 83.701,35.545 83.279,35.624 82.805,35.624 L 81.149,35.624 L 81.149,28.759 L 82.805,28.759 C 83.279,28.759 83.701,28.838 84.073,28.997 C 84.444,29.156 84.758,29.383 85.014,29.678 C 85.271,29.974 85.467,30.334 85.604,30.759 C 85.741,31.184 85.809,31.663 85.809,32.195 Z" marker-start="none" marker-end="none"/>
       <path d="M 94.837,30.422 L 94.837,26.854 L 92.36,26.854 L 92.36,37.531 L 96.126,37.531 C 96.878,37.531 97.524,37.442 98.064,37.263 C 98.604,37.085 99.048,36.84 99.398,36.527 C 99.747,36.214 100.004,35.845 100.171,35.42 C 100.337,34.995 100.42,34.536 100.42,34.043 C 100.42,33.51 100.334,33.021 100.163,32.577 C 99.992,32.132 99.731,31.751 99.379,31.434 C 99.028,31.116 98.582,30.868 98.042,30.69 C 97.502,30.512 96.864,30.422 96.126,30.422 L 94.837,30.422 Z M 94.837,32.29 L 96.126,32.29 C 96.771,32.29 97.235,32.444 97.518,32.752 C 97.802,33.06 97.943,33.49 97.943,34.042 C 97.943,34.287 97.907,34.51 97.833,34.71 C 97.76,34.91 97.649,35.082 97.5,35.227 C 97.351,35.371 97.163,35.482 96.936,35.56 C 96.709,35.639 96.439,35.678 96.126,35.678 L 94.837,35.678 L 94.837,32.29 Z" marker-start="none" marker-end="none"/>
       <path d="M 112.248,32.193 C 112.248,31.421 112.115,30.703 111.849,30.039 C 111.583,29.375 111.208,28.797 110.724,28.306 C 110.241,27.815 109.658,27.43 108.977,27.152 C 108.295,26.873 107.539,26.734 106.709,26.734 C 105.879,26.734 105.122,26.873 104.438,27.152 C 103.754,27.43 103.169,27.815 102.683,28.306 C 102.197,28.797 101.821,29.375 101.555,30.039 C 101.288,30.703 101.155,31.421 101.155,32.193 C 101.155,32.965 101.288,33.683 101.555,34.348 C 101.821,35.012 102.197,35.589 102.683,36.077 C 103.169,36.566 103.754,36.949 104.438,37.228 C 105.122,37.506 105.879,37.645 106.709,37.645 C 107.539,37.645 108.295,37.505 108.977,37.224 C 109.658,36.943 110.241,36.558 110.724,36.07 C 111.208,35.581 111.583,35.005 111.849,34.34 C 112.115,33.676 112.248,32.96 112.248,32.193 Z M 109.713,32.193 C 109.713,32.721 109.645,33.195 109.508,33.618 C 109.371,34.04 109.175,34.398 108.918,34.691 C 108.662,34.984 108.348,35.208 107.977,35.365 C 107.605,35.521 107.183,35.599 106.709,35.599 C 106.23,35.599 105.804,35.521 105.431,35.365 C 105.057,35.208 104.742,34.984 104.485,34.691 C 104.229,34.398 104.032,34.04 103.896,33.618 C 103.759,33.195 103.69,32.721 103.69,32.193 C 103.69,31.661 103.759,31.184 103.896,30.761 C 104.032,30.339 104.229,29.981 104.485,29.688 C 104.742,29.395 105.057,29.172 105.431,29.018 C 105.804,28.864 106.23,28.787 106.709,28.787 C 107.183,28.787 107.605,28.864 107.977,29.018 C 108.348,29.172 108.662,29.395 108.918,29.688 C 109.175,29.981 109.371,30.339 109.508,30.761 C 109.645,31.184 109.713,31.661 109.713,32.193 Z" marker-start="none" marker-end="none"/>
       <path d="M 112.626,37.529 L 114.707,37.529 C 114.922,37.529 115.101,37.48 115.246,37.382 C 115.39,37.283 115.484,37.153 115.528,36.99 L 116.993,31.381 C 117.042,31.199 117.091,31.005 117.14,30.798 C 117.188,30.592 117.225,30.375 117.249,30.149 C 117.298,30.38 117.352,30.598 117.411,30.802 C 117.469,31.006 117.525,31.199 117.579,31.381 L 119.308,36.99 C 119.352,37.128 119.446,37.252 119.59,37.363 C 119.734,37.474 119.909,37.529 120.114,37.529 L 120.847,37.529 C 121.062,37.529 121.239,37.481 121.378,37.385 C 121.517,37.289 121.614,37.158 121.668,36.99 L 123.382,31.38 C 123.436,31.208 123.492,31.025 123.551,30.83 C 123.609,30.636 123.66,30.428 123.704,30.206 C 123.743,30.423 123.784,30.63 123.825,30.826 C 123.867,31.023 123.91,31.208 123.953,31.38 L 125.419,36.99 C 125.458,37.133 125.551,37.258 125.697,37.367 C 125.844,37.475 126.02,37.529 126.225,37.529 L 128.174,37.529 L 124.877,26.852 L 122.635,26.852 L 120.627,33.366 C 120.593,33.467 120.558,33.578 120.521,33.698 C 120.484,33.818 120.449,33.945 120.415,34.08 C 120.38,33.945 120.345,33.818 120.308,33.698 C 120.272,33.578 120.236,33.467 120.202,33.366 L 118.165,26.852 L 115.923,26.852 L 112.626,37.529 Z" marker-start="none" marker-end="none"/>
       <path d="M 135.997,37.531 L 135.997,35.624 L 131.615,35.624 L 131.615,33.131 L 134.971,33.131 L 134.971,31.299 L 131.615,31.299 L 131.615,28.759 L 135.997,28.759 L 135.997,26.852 L 129.124,26.852 L 129.124,37.531 L 135.997,37.531 Z" marker-start="none" marker-end="none"/>
       <path d="M 139.88,30.802 L 139.88,26.852 L 137.403,26.852 L 137.403,37.527 L 140.876,37.527 C 141.648,37.527 142.306,37.448 142.851,37.289 C 143.395,37.13 143.84,36.909 144.184,36.625 C 144.529,36.341 144.779,36.006 144.935,35.62 C 145.091,35.234 145.17,34.813 145.17,34.358 C 145.17,34.011 145.123,33.683 145.03,33.375 C 144.938,33.067 144.8,32.782 144.616,32.52 C 144.433,32.259 144.209,32.025 143.942,31.82 C 143.676,31.615 143.37,31.446 143.023,31.314 C 143.189,31.231 143.344,31.128 143.488,31.006 C 143.632,30.885 143.758,30.736 143.865,30.56 L 146.137,26.852 L 143.895,26.852 C 143.48,26.852 143.182,27.008 143.001,27.321 L 141.228,30.421 C 141.15,30.557 141.058,30.655 140.953,30.714 C 140.848,30.772 140.7,30.802 140.51,30.802 L 139.88,30.802 Z M 139.88,32.508 L 140.876,32.508 C 141.213,32.508 141.5,32.551 141.737,32.636 C 141.974,32.722 142.168,32.84 142.319,32.992 C 142.471,33.143 142.581,33.32 142.649,33.523 C 142.718,33.726 142.752,33.945 142.752,34.179 C 142.752,34.648 142.599,35.015 142.294,35.278 C 141.989,35.542 141.516,35.674 140.876,35.674 L 139.88,35.674 L 139.88,32.508 Z" marker-start="none" marker-end="none"/>
       <path d="M 146.768,28.142 C 146.768,28.298 146.798,28.444 146.856,28.578 C 146.915,28.713 146.999,28.83 147.109,28.93 C 147.219,29.03 147.348,29.109 147.497,29.168 C 147.646,29.227 147.814,29.256 147.999,29.256 C 148.219,29.256 148.409,29.218 148.571,29.142 C 148.732,29.067 148.866,28.964 148.974,28.835 C 149.081,28.705 149.16,28.556 149.212,28.388 C 149.263,28.219 149.289,28.042 149.289,27.856 C 149.289,27.612 149.25,27.352 149.171,27.076 C 149.093,26.8 148.977,26.523 148.823,26.244 C 148.67,25.966 148.478,25.692 148.248,25.423 C 148.019,25.155 147.755,24.91 147.457,24.691 L 147.061,25.042 C 147.008,25.096 146.967,25.146 146.94,25.193 C 146.914,25.239 146.9,25.296 146.9,25.365 C 146.9,25.414 146.917,25.466 146.951,25.522 C 146.986,25.579 147.027,25.629 147.076,25.673 C 147.135,25.731 147.203,25.802 147.281,25.885 C 147.359,25.968 147.437,26.061 147.516,26.164 C 147.594,26.266 147.666,26.379 147.732,26.501 C 147.798,26.623 147.848,26.752 147.882,26.889 C 147.711,26.904 147.557,26.945 147.42,27.014 C 147.284,27.082 147.168,27.173 147.072,27.285 C 146.977,27.397 146.903,27.525 146.849,27.67 C 146.795,27.814 146.768,27.971 146.768,28.142 Z" marker-start="none" marker-end="none"/>
       <path d="M 156.142,26.852 L 153.651,26.852 L 153.651,37.531 L 156.142,37.531 L 156.142,26.852 Z" marker-start="none" marker-end="none"/>
       <path d="M 159.422,37.531 C 159.53,37.531 159.62,37.526 159.693,37.516 C 159.767,37.507 159.833,37.488 159.891,37.461 C 159.95,37.434 160.006,37.396 160.06,37.348 C 160.114,37.299 160.175,37.233 160.243,37.15 L 165.313,30.739 C 165.294,30.944 165.279,31.143 165.269,31.336 C 165.259,31.529 165.254,31.711 165.254,31.882 L 165.254,37.531 L 167.438,37.531 L 167.438,26.852 L 166.148,26.852 C 165.958,26.852 165.797,26.881 165.665,26.94 C 165.533,26.999 165.406,27.106 165.284,27.262 L 160.25,33.622 C 160.265,33.436 160.277,33.254 160.287,33.076 C 160.297,32.898 160.302,32.731 160.302,32.574 L 160.302,26.852 L 158.118,26.852 L 158.118,37.531 L 159.422,37.531 Z" marker-start="none" marker-end="none"/>
       <path d="M 176.367,29.612 C 176.426,29.612 176.484,29.601 176.543,29.579 C 176.602,29.556 176.658,29.518 176.711,29.463 L 177.693,28.408 C 177.263,27.855 176.725,27.437 176.078,27.156 C 175.431,26.875 174.665,26.734 173.781,26.734 C 172.97,26.734 172.243,26.872 171.601,27.148 C 170.959,27.424 170.414,27.805 169.967,28.291 C 169.52,28.777 169.177,29.354 168.938,30.021 C 168.698,30.688 168.579,31.412 168.579,32.193 C 168.579,32.99 168.716,33.721 168.989,34.388 C 169.263,35.055 169.645,35.63 170.136,36.114 C 170.627,36.597 171.214,36.974 171.898,37.242 C 172.582,37.511 173.336,37.645 174.162,37.645 C 174.562,37.645 174.94,37.61 175.294,37.539 C 175.648,37.468 175.979,37.37 176.287,37.245 C 176.594,37.121 176.878,36.972 177.136,36.798 C 177.395,36.624 177.625,36.432 177.825,36.222 L 176.99,35.101 C 176.936,35.032 176.873,34.97 176.799,34.914 C 176.726,34.858 176.624,34.83 176.492,34.83 C 176.404,34.83 176.321,34.849 176.243,34.888 C 176.164,34.927 176.081,34.975 175.993,35.031 C 175.906,35.087 175.809,35.148 175.704,35.214 C 175.599,35.28 175.474,35.341 175.33,35.398 C 175.186,35.454 175.018,35.501 174.825,35.541 C 174.632,35.579 174.406,35.599 174.147,35.599 C 173.698,35.599 173.287,35.52 172.916,35.361 C 172.545,35.202 172.226,34.975 171.96,34.679 C 171.694,34.384 171.486,34.026 171.337,33.606 C 171.188,33.186 171.114,32.714 171.114,32.192 C 171.114,31.644 171.188,31.158 171.337,30.733 C 171.486,30.308 171.689,29.951 171.945,29.66 C 172.202,29.369 172.501,29.148 172.843,28.997 C 173.185,28.845 173.551,28.77 173.942,28.77 C 174.167,28.77 174.372,28.781 174.557,28.803 C 174.743,28.825 174.915,28.862 175.074,28.916 C 175.233,28.97 175.384,29.039 175.528,29.125 C 175.672,29.21 175.818,29.317 175.964,29.444 C 176.023,29.493 176.086,29.533 176.155,29.565 C 176.223,29.596 176.294,29.612 176.367,29.612 Z" marker-start="none" marker-end="none"/>
       <path d="M 178.386,28.002 C 178.386,28.178 178.419,28.342 178.485,28.493 C 178.55,28.645 178.641,28.777 178.756,28.889 C 178.87,29.002 179.006,29.091 179.162,29.157 C 179.319,29.223 179.49,29.256 179.675,29.256 C 179.856,29.256 180.024,29.223 180.181,29.157 C 180.337,29.091 180.474,29.002 180.591,28.889 C 180.708,28.777 180.8,28.645 180.866,28.493 C 180.932,28.342 180.965,28.178 180.965,28.002 C 180.965,27.826 180.932,27.661 180.866,27.507 C 180.8,27.353 180.708,27.22 180.591,27.108 C 180.474,26.995 180.337,26.907 180.181,26.844 C 180.024,26.78 179.856,26.748 179.675,26.748 C 179.49,26.748 179.319,26.78 179.162,26.844 C 179.006,26.907 178.87,26.995 178.756,27.108 C 178.641,27.22 178.55,27.353 178.485,27.507 C 178.419,27.661 178.386,27.826 178.386,28.002 Z" marker-start="none" marker-end="none"/>
      </g>
     </g>
    </g>
   </g>
  </g>
 </g>
</svg>
