<?xml version="1.0" standalone="no"?>
<!DOCTYPE svg PUBLIC "-//W3C//DTD SVG 1.1//EN" "http://www.w3.org/Graphics/SVG/1.1/DTD/svg11.dtd">
<!--Generator: Xara Designer (www.xara.com), SVG filter version: 6.2.0.0-->
<svg stroke-width="0.501" stroke-linejoin="bevel" fill-rule="evenodd" xmlns:xlink="http://www.w3.org/1999/xlink" xmlns="http://www.w3.org/2000/svg" version="1.1" overflow="visible" width="215.434pt" height="215.434pt" viewBox="0 0 215.434 215.434">
 <defs>
	</defs>
 <g id="Document" fill="none" stroke="black" font-family="Times New Roman" font-size="16" transform="scale(1 -1)">
  <g id="Spread" transform="translate(0 -215.434)">
   <g id="Layer 1">
    <path d="M 199.757,214.933 L 15.176,214.933 C 6.799,214.933 0,208.134 0,199.757 L 0,15.176 C 0,6.799 6.799,0 15.176,0 L 199.757,0 C 208.134,0 214.933,6.799 214.933,15.176 L 214.933,199.757 C 214.933,208.134 208.134,214.933 199.757,214.933 Z" stroke="#999999" fill="#ffffff" stroke-linejoin="miter" marker-start="none" marker-end="none"/>
    <g id="Group" stroke-linejoin="miter" stroke-miterlimit="79.8403193612775">
     <path d="M 21.355,158.034 C 12.458,168.574 13.783,184.36 24.335,193.243 C 34.866,202.158 50.631,200.826 59.532,190.289 C 68.446,179.748 67.11,163.974 56.557,155.071 C 46.025,146.175 30.253,147.506 21.355,158.034 Z" stroke="none" fill="#000000" stroke-width="1.039" marker-start="none" marker-end="none" stroke-miterlimit="19.9600798403194"/>
     <path d="M 22.532,158.991 C 13.645,169.536 14.961,185.288 25.505,194.206 C 36.049,203.078 51.815,201.764 60.732,191.227 C 69.626,180.689 68.293,164.906 57.746,156.009 C 47.218,147.113 31.437,148.437 22.532,158.991 Z" stroke="#b2b2b2" stroke-width="5.658" marker-start="none" marker-end="none" stroke-miterlimit="19.9600798403194"/>
    </g>
    <g id="Group_1" stroke-linejoin="miter" stroke-miterlimit="79.8403193612775">
     <path d="M 153.485,158.48 C 144.588,169.02 145.913,184.806 156.465,193.689 C 166.996,202.604 182.761,201.272 191.662,190.735 C 200.576,180.194 199.24,164.42 188.687,155.517 C 178.155,146.621 162.383,147.952 153.485,158.48 Z" stroke="none" fill="#000000" stroke-width="1.039" marker-start="none" marker-end="none" stroke-miterlimit="19.9600798403194"/>
     <path d="M 154.662,159.437 C 145.775,169.982 147.091,185.734 157.635,194.652 C 168.179,203.524 183.945,202.21 192.862,191.673 C 201.756,181.135 200.423,165.352 189.876,156.455 C 179.348,147.559 163.567,148.883 154.662,159.437 Z" stroke="#b2b2b2" stroke-width="5.658" marker-start="none" marker-end="none" stroke-miterlimit="19.9600798403194"/>
    </g>
    <text xml:space="preserve" transform="translate(164.865 164.648) scale(1 -1)" font-family="Lato Black" stroke="none" fill="#b2b2b2" stroke-width="0.773" stroke-linejoin="round" stroke-linecap="round" font-weight="bold" font-size="30.96" stroke-miterlimit="79.8403193612775"><tspan x="0" y="0">3</tspan></text>
    <g id="Group_2" fill="#ff3718" stroke-linecap="round" stroke="none">
     <path d="M 114.383,215.384 L 122.917,215.384 L 122.917,166.221 L 114.382,166.221 L 114.383,215.384 Z" stroke-width="0.103" stroke-linejoin="miter" marker-start="none" marker-end="none" stroke-miterlimit="79.8403193612775"/>
     <path d="M 94.151,115.779 C 107.59,128.046 114.419,144.86 114.422,161.733 L 122.902,161.733 C 122.896,142.561 115.146,123.448 99.877,109.514 C 86.316,97.141 69.239,91.039 52.216,91.044 L 52.216,99.53 C 67.198,99.523 82.225,104.892 94.151,115.779 Z" stroke-width="0.541" stroke-linejoin="round" marker-start="none" marker-end="none" stroke-miterlimit="79.8403193612775"/>
     <path d="M 14.263,95.271 L 17.308,97.389 L 20.36,99.511 L 20.361,99.564 L 47.638,99.564 L 47.637,91.028 L 20.361,91.028 L 17.308,93.148 L 14.263,95.271 Z" stroke-width="0.103" stroke-linejoin="miter" marker-start="none" marker-end="none" stroke-miterlimit="79.8403193612775"/>
    </g>
    <g id="Group_3" fill="#ffcd36" stroke-linecap="round" stroke="none">
     <path d="M 14.259,106.821 L 17.306,108.941 L 20.361,111.062 L 20.361,106.821 L 20.357,102.58 L 17.305,104.702 L 14.259,106.821 Z M 20.361,111.085 L 47.638,111.086 L 47.638,102.551 L 20.361,102.551 L 20.361,111.085 Z" stroke-width="0.103" stroke-linejoin="miter" marker-start="none" marker-end="none" stroke-miterlimit="79.8403193612775"/>
     <path d="M 86.529,124.133 C 97.52,134.173 103.107,147.928 103.113,161.733 L 111.593,161.733 C 111.588,145.625 105.074,129.576 92.246,117.867 C 80.86,107.473 66.517,102.353 52.217,102.356 L 52.216,110.842 C 64.473,110.832 76.765,115.227 86.529,124.133 Z" stroke-width="0.453" stroke-linejoin="round" marker-start="none" marker-end="none" stroke-miterlimit="79.8403193612775"/>
     <path d="M 103.081,215.384 L 111.612,215.384 L 111.612,166.221 L 103.08,166.221 L 103.081,215.384 Z" stroke-width="0.103" stroke-linejoin="miter" marker-start="none" marker-end="none" stroke-miterlimit="79.8403193612775"/>
    </g>
    <g id="Group_4" fill="#e5e5e5" stroke-linecap="round" stroke="none">
     <path d="M 14.259,118.137 L 17.305,120.252 L 20.361,122.374 L 20.361,118.133 L 20.357,113.89 L 17.305,116.01 L 14.259,118.137 Z M 20.361,122.384 L 47.638,122.383 L 47.638,113.848 L 20.361,113.848 L 20.361,122.384 Z" stroke-width="0.103" stroke-linejoin="miter" marker-start="none" marker-end="none" stroke-miterlimit="79.8403193612775"/>
     <path d="M 91.783,215.384 L 100.313,215.384 L 100.313,166.222 L 91.782,166.221 L 91.783,215.384 Z" stroke-width="0.103" stroke-linejoin="miter" marker-start="none" marker-end="none" stroke-miterlimit="79.8403193612775"/>
     <path d="M 78.902,132.488 C 87.454,140.295 91.793,151 91.8,161.733 L 100.285,161.732 C 100.281,148.691 95.008,135.701 84.619,126.222 C 75.404,117.811 63.788,113.663 52.216,113.665 L 52.216,122.147 C 61.749,122.147 71.313,125.561 78.902,132.488 Z" stroke-width="0.368" stroke-linejoin="round" marker-start="none" marker-end="none" stroke-miterlimit="79.8403193612775"/>
    </g>
    <g id="Group_5" fill="#11a7e0" stroke-linecap="round" stroke="none">
     <path d="M 80.486,215.384 L 89.02,215.384 L 89.02,166.22 L 80.486,166.221 L 80.486,215.384 Z" stroke-width="0.103" stroke-linejoin="miter" marker-start="none" marker-end="none" stroke-miterlimit="79.8403193612775"/>
     <path d="M 71.281,140.843 C 77.388,146.421 80.488,154.059 80.491,161.732 L 88.978,161.733 C 88.968,151.763 84.936,141.824 76.998,134.581 C 69.948,128.142 61.072,124.971 52.216,124.975 L 52.216,133.463 C 59.023,133.456 65.855,135.898 71.281,140.843 Z" stroke-width="0.281" stroke-linejoin="round" marker-start="none" marker-end="none" stroke-miterlimit="79.8403193612775"/>
     <path d="M 14.263,129.19 L 17.307,131.322 L 20.36,133.463 L 20.36,133.463 L 47.637,133.463 L 47.638,124.924 L 20.361,124.924 L 20.361,124.924 L 17.306,127.054 L 14.263,129.19 Z" stroke-width="0.103" stroke-linejoin="miter" marker-start="none" marker-end="none" stroke-miterlimit="79.8403193612775"/>
    </g>
    <g id="Group_6" stroke-linejoin="miter" stroke-miterlimit="79.8403193612775">
     <path d="M 91.528,177.68 C 87.003,183.036 87.68,191.052 93.037,195.575 C 98.393,200.1 106.413,199.428 110.933,194.07 C 115.458,188.713 114.783,180.693 109.424,176.174 C 104.07,171.646 96.05,172.329 91.528,177.68 Z" stroke="none" fill="#ffffff" stroke-width="0.526" marker-start="none" marker-end="none" stroke-miterlimit="19.9600798403194"/>
     <path d="M 92.131,178.162 C 87.607,183.511 88.283,191.533 93.639,196.054 C 98.998,200.582 107.014,199.904 111.537,194.545 C 116.066,189.194 115.389,181.171 110.029,176.647 C 104.67,172.126 96.654,172.8 92.131,178.162 Z" fill="none" stroke="#55bae6" stroke-width="2.872" marker-start="none" marker-end="none" stroke-miterlimit="19.9600798403194"/>
    </g>
    <g id="Group_7" stroke-linejoin="miter" stroke-miterlimit="79.8403193612775">
     <path d="M 79.573,120.374 C 75.051,125.725 75.728,133.745 81.084,138.272 C 86.441,142.788 94.46,142.115 98.984,136.758 C 103.507,131.403 102.827,123.386 97.473,118.863 C 92.116,114.339 84.098,115.015 79.573,120.374 Z" stroke="none" fill="#ffffff" stroke-width="0.526" marker-start="none" marker-end="none" stroke-miterlimit="19.9600798403194"/>
     <path d="M 80.181,120.852 C 75.654,126.206 76.328,134.222 81.688,138.746 C 87.046,143.27 95.061,142.597 99.586,137.234 C 104.113,131.879 103.429,123.862 98.078,119.336 C 92.718,114.811 84.703,115.492 80.181,120.852 Z" fill="none" stroke="#55bae6" stroke-width="2.872" marker-start="none" marker-end="none" stroke-miterlimit="19.9600798403194"/>
    </g>
    <g id="Group_8" stroke-linejoin="miter" stroke-miterlimit="79.8403193612775">
     <path d="M 21.946,103.577 C 17.422,108.933 18.101,116.95 23.456,121.478 C 28.816,125.999 36.836,125.321 41.359,119.963 C 45.887,114.61 45.204,106.588 39.848,102.069 C 34.489,97.55 26.473,98.224 21.946,103.577 Z" stroke="none" fill="#ffffff" stroke-width="0.526" marker-start="none" marker-end="none" stroke-miterlimit="19.9600798403194"/>
     <path d="M 22.553,104.061 C 18.029,109.412 18.705,117.432 24.065,121.956 C 29.424,126.477 37.439,125.803 41.962,120.443 C 46.489,115.09 45.811,107.07 40.455,102.549 C 35.092,98.024 27.076,98.7 22.553,104.061 Z" fill="none" stroke="#55bae6" stroke-width="2.872" marker-start="none" marker-end="none" stroke-miterlimit="19.9600798403194"/>
    </g>
    <g id="Group_9" fill-rule="nonzero" stroke-linejoin="round" stroke-linecap="round" stroke="none" stroke-width="0.387" fill="#000000" stroke-miterlimit="79.8403193612775">
     <g id="Group_10">
      <path d="M 98.233,189.798 L 98.233,186.716 L 101.112,186.716 L 101.112,184.987 L 98.233,184.987 L 98.233,181.89 L 96.272,181.89 L 96.272,184.987 L 93.408,184.987 L 93.408,186.716 L 96.272,186.716 L 96.272,189.798 L 98.233,189.798 Z" marker-start="none" marker-end="none"/>
      <path d="M 106.685,192.085 C 107.245,192.085 107.743,192.006 108.179,191.847 C 108.615,191.689 108.983,191.474 109.284,191.203 C 109.585,190.933 109.813,190.619 109.969,190.263 C 110.124,189.907 110.202,189.531 110.202,189.135 C 110.202,188.776 110.166,188.46 110.093,188.187 C 110.021,187.914 109.913,187.677 109.77,187.477 C 109.628,187.276 109.451,187.106 109.241,186.965 C 109.031,186.825 108.791,186.708 108.521,186.614 C 109.777,186.18 110.405,185.328 110.405,184.06 C 110.405,183.459 110.296,182.936 110.078,182.491 C 109.86,182.046 109.568,181.676 109.202,181.381 C 108.837,181.086 108.412,180.864 107.93,180.717 C 107.447,180.569 106.944,180.496 106.42,180.496 C 105.881,180.496 105.401,180.554 104.98,180.671 C 104.56,180.787 104.187,180.969 103.86,181.215 C 103.533,181.462 103.246,181.777 103,182.161 C 102.753,182.544 102.539,183.001 102.358,183.53 L 103.432,183.967 C 103.525,184.009 103.617,184.037 103.708,184.053 C 103.799,184.068 103.888,184.076 103.977,184.076 C 104.143,184.076 104.292,184.044 104.424,183.979 C 104.556,183.914 104.656,183.819 104.724,183.695 C 104.957,183.264 105.205,182.951 105.467,182.756 C 105.729,182.561 106.036,182.464 106.389,182.464 C 106.659,182.464 106.894,182.509 107.093,182.6 C 107.293,182.691 107.459,182.808 107.591,182.951 C 107.724,183.094 107.824,183.256 107.891,183.438 C 107.958,183.619 107.992,183.804 107.992,183.991 C 107.992,184.235 107.975,184.454 107.942,184.649 C 107.908,184.844 107.813,185.011 107.658,185.151 C 107.502,185.292 107.267,185.399 106.953,185.474 C 106.639,185.55 106.202,185.587 105.642,185.588 L 105.642,187.252 C 106.114,187.252 106.495,187.288 106.786,187.361 C 107.076,187.434 107.301,187.534 107.459,187.661 C 107.617,187.788 107.722,187.942 107.774,188.124 C 107.826,188.305 107.852,188.505 107.852,188.723 C 107.852,189.17 107.744,189.513 107.529,189.755 C 107.314,189.996 106.986,190.117 106.545,190.117 C 106.363,190.117 106.197,190.091 106.047,190.039 C 105.896,189.987 105.761,189.917 105.642,189.829 C 105.523,189.741 105.42,189.637 105.335,189.518 C 105.249,189.398 105.18,189.268 105.128,189.128 C 105.045,188.895 104.94,188.726 104.813,188.622 C 104.686,188.518 104.514,188.466 104.296,188.466 C 104.244,188.466 104.188,188.469 104.128,188.474 C 104.069,188.479 104.008,188.487 103.945,188.497 L 102.669,188.723 C 102.752,189.289 102.912,189.782 103.148,190.202 C 103.384,190.622 103.677,190.972 104.027,191.253 C 104.377,191.533 104.778,191.741 105.229,191.879 C 105.681,192.016 106.166,192.085 106.685,192.085 Z" marker-start="none" marker-end="none"/>
     </g>
    </g>
    <g id="Group_11" fill-rule="nonzero" stroke-linejoin="round" stroke-linecap="round" stroke="none" stroke-width="0.387" fill="#000000" stroke-miterlimit="79.8403193612775">
     <g id="Group_12">
      <path d="M 94.085,129.046 C 94.085,128.055 93.979,127.196 93.766,126.47 C 93.553,125.743 93.259,125.141 92.883,124.664 C 92.507,124.187 92.06,123.831 91.544,123.598 C 91.028,123.364 90.469,123.248 89.867,123.248 C 89.265,123.248 88.709,123.364 88.198,123.598 C 87.687,123.831 87.245,124.187 86.871,124.664 C 86.497,125.141 86.206,125.743 85.995,126.47 C 85.785,127.196 85.68,128.055 85.68,129.046 C 85.68,130.037 85.785,130.896 85.995,131.623 C 86.206,132.349 86.497,132.951 86.871,133.428 C 87.245,133.906 87.687,134.26 88.198,134.491 C 88.709,134.722 89.265,134.837 89.867,134.837 C 90.469,134.837 91.028,134.722 91.544,134.491 C 92.06,134.26 92.507,133.906 92.883,133.428 C 93.259,132.951 93.553,132.349 93.766,131.623 C 93.979,130.896 94.085,130.037 94.085,129.046 Z M 91.595,129.046 C 91.595,129.83 91.545,130.472 91.447,130.973 C 91.348,131.474 91.217,131.867 91.054,132.152 C 90.89,132.437 90.705,132.633 90.497,132.74 C 90.29,132.846 90.08,132.899 89.867,132.899 C 89.654,132.899 89.446,132.846 89.241,132.74 C 89.036,132.633 88.854,132.437 88.696,132.152 C 88.538,131.867 88.411,131.474 88.315,130.973 C 88.219,130.472 88.171,129.83 88.171,129.046 C 88.171,128.258 88.219,127.614 88.315,127.116 C 88.411,126.618 88.538,126.225 88.696,125.937 C 88.854,125.649 89.036,125.451 89.241,125.345 C 89.446,125.239 89.654,125.186 89.867,125.186 C 90.08,125.186 90.29,125.239 90.497,125.345 C 90.705,125.451 90.89,125.649 91.054,125.937 C 91.217,126.225 91.348,126.618 91.447,127.116 C 91.545,127.614 91.595,128.258 91.595,129.046 Z" marker-start="none" marker-end="none"/>
     </g>
    </g>
    <g id="Group_13" fill-rule="nonzero" stroke-linejoin="round" stroke-linecap="round" stroke="none" stroke-width="0.387" fill="#000000" stroke-miterlimit="79.8403193612775">
     <g id="Group_14">
      <path d="M 28.686,115.754 L 28.686,112.672 L 31.565,112.672 L 31.565,110.943 L 28.686,110.943 L 28.686,107.846 L 26.725,107.846 L 26.725,110.943 L 23.861,110.943 L 23.861,112.672 L 26.725,112.672 L 26.725,115.754 L 28.686,115.754 Z" marker-start="none" marker-end="none"/>
      <path d="M 36.92,118.041 C 37.48,118.041 37.985,117.959 38.433,117.796 C 38.882,117.633 39.265,117.406 39.581,117.115 C 39.898,116.825 40.14,116.478 40.309,116.076 C 40.478,115.674 40.562,115.232 40.562,114.749 C 40.562,114.334 40.504,113.95 40.387,113.597 C 40.27,113.244 40.111,112.908 39.908,112.589 C 39.706,112.27 39.471,111.962 39.204,111.663 C 38.937,111.365 38.653,111.063 38.352,110.757 L 36.134,108.484 C 36.419,108.568 36.701,108.634 36.978,108.684 C 37.256,108.734 37.516,108.758 37.76,108.758 L 39.877,108.758 C 40.136,108.758 40.341,108.687 40.492,108.544 C 40.642,108.401 40.718,108.213 40.718,107.979 L 40.718,106.577 L 32.749,106.577 L 32.749,107.355 C 32.749,107.506 32.78,107.667 32.842,107.838 C 32.904,108.009 33.013,108.165 33.169,108.305 L 36.437,111.597 C 36.718,111.878 36.961,112.145 37.169,112.399 C 37.376,112.653 37.548,112.904 37.683,113.15 C 37.817,113.397 37.919,113.643 37.986,113.89 C 38.053,114.136 38.087,114.397 38.087,114.672 C 38.087,115.123 37.98,115.47 37.764,115.711 C 37.549,115.952 37.221,116.073 36.78,116.073 C 36.598,116.073 36.432,116.047 36.282,115.995 C 36.131,115.943 35.996,115.873 35.877,115.785 C 35.758,115.697 35.655,115.593 35.57,115.474 C 35.484,115.354 35.415,115.225 35.363,115.085 C 35.28,114.851 35.175,114.683 35.048,114.579 C 34.921,114.475 34.749,114.423 34.531,114.423 C 34.479,114.423 34.423,114.426 34.363,114.431 C 34.304,114.436 34.243,114.444 34.181,114.454 L 32.904,114.676 C 32.987,115.242 33.147,115.736 33.383,116.156 C 33.619,116.577 33.912,116.927 34.262,117.208 C 34.612,117.488 35.013,117.697 35.465,117.835 C 35.916,117.972 36.401,118.041 36.92,118.041 Z" marker-start="none" marker-end="none"/>
     </g>
    </g>
    <g id="Group_15" stroke="#f0942b" stroke-linejoin="miter" stroke-linecap="round">
     <path d="M 15.549,68.362 L 15.549,34.47 L 119.137,34.47 L 119.137,68.362 L 15.549,68.362 Z" fill="#f0942b" stroke-width="1.738" marker-start="none" marker-end="none" stroke-miterlimit="79.8403193612775"/>
     <path d="M 15.549,69.705 L 15.549,59.895 C 15.549,57.324 17.633,55.247 20.195,55.247 L 114.487,55.247 C 117.049,55.247 119.137,57.324 119.137,59.895 L 119.137,69.705 C 119.137,72.281 117.049,74.359 114.487,74.359 L 20.195,74.359 C 17.633,74.359 15.549,72.281 15.549,69.705 Z" fill="#f0942b" stroke-width="1.738" marker-start="none" marker-end="none" stroke-miterlimit="79.8403193612775"/>
     <path d="M 16.246,40.812 L 16.246,23.167 C 16.246,18.554 19.99,14.808 24.608,14.808 L 191.654,14.808 C 196.267,14.808 200.015,18.554 200.015,23.167 L 200.015,40.812 C 200.015,45.43 196.267,49.178 191.654,49.178 L 24.608,49.178 C 19.99,49.178 16.246,45.43 16.246,40.812 Z" fill="#ffffff" stroke-width="3.13" marker-start="none" marker-end="none" stroke-miterlimit="79.8403193612775"/>
    </g>
    <g id="Group_16" stroke-linejoin="miter" stroke-miterlimit="79.8403193612775">
     <path d="M 169.691,93.711 C 163.791,100.689 164.67,111.149 171.665,117.058 C 178.647,122.95 189.1,122.071 195.004,115.084 C 200.913,108.092 200.027,97.638 193.03,91.733 C 186.048,85.838 175.591,86.717 169.691,93.711 Z" stroke="none" fill="#000000" stroke-width="0.686" marker-start="none" marker-end="none" stroke-miterlimit="19.9600798403194"/>
     <path d="M 170.469,94.32 C 164.578,101.318 165.45,111.777 172.443,117.67 C 179.432,123.579 189.884,122.696 195.8,115.703 C 201.697,108.721 200.812,98.269 193.818,92.364 C 186.839,86.458 176.375,87.337 170.469,94.32 Z" stroke="#b2b2b2" stroke-width="3.752" marker-start="none" marker-end="none" stroke-miterlimit="19.9600798403194"/>
    </g>
    <g id="Group_17" stroke-linejoin="miter" stroke-miterlimit="79.8403193612775">
     <path d="M 129.006,93.698 C 123.106,100.687 123.985,111.155 130.982,117.046 C 137.965,122.957 148.419,122.074 154.321,115.086 C 160.232,108.097 159.346,97.637 152.348,91.733 C 145.365,85.834 134.906,86.717 129.006,93.698 Z" stroke="none" fill="#ffffff" stroke-width="0.689" marker-start="none" marker-end="none" stroke-miterlimit="19.9600798403194"/>
     <path d="M 129.786,94.333 C 123.893,101.325 124.766,111.771 131.758,117.684 C 138.749,123.568 149.204,122.696 155.117,115.708 C 161.015,108.721 160.131,98.255 153.137,92.355 C 146.156,86.456 135.691,87.334 129.786,94.333 Z" stroke="#55bae6" stroke-width="3.752" marker-start="none" marker-end="none" stroke-miterlimit="19.9600798403194"/>
    </g>
    <g id="Group_18" stroke-linejoin="miter" stroke-miterlimit="79.8403193612775">
     <path d="M 153.485,158.479 C 144.588,169.019 145.913,184.805 156.465,193.689 C 166.996,202.603 182.761,201.271 191.662,190.733 C 200.576,180.193 199.24,164.419 188.686,155.516 C 178.155,146.62 162.383,147.951 153.485,158.479 Z" stroke="none" fill="#ffffff" stroke-width="1.039" marker-start="none" marker-end="none" stroke-miterlimit="19.9600798403194"/>
     <path d="M 154.662,159.436 C 145.775,169.981 147.091,185.734 157.635,194.651 C 168.178,203.524 183.945,202.209 192.862,191.671 C 201.756,181.134 200.423,165.351 189.876,156.454 C 179.348,147.558 163.567,148.882 154.662,159.436 Z" stroke="#55bae6" stroke-width="5.658" marker-start="none" marker-end="none" stroke-miterlimit="19.9600798403194"/>
    </g>
    <g id="Group_19" fill-rule="nonzero" stroke-linejoin="round" stroke-linecap="round" stroke="none" stroke-width="0.485" fill="#b2b2b2" stroke-miterlimit="79.8403193612775">
     <g id="Group_20">
      <path d="M 178.903,100.1 L 181.632,100.1 L 181.632,107.263 C 181.632,107.614 181.641,107.981 181.661,108.365 L 180.053,107.029 C 179.949,106.945 179.845,106.885 179.741,106.849 C 179.637,106.813 179.536,106.795 179.439,106.795 C 179.27,106.795 179.119,106.833 178.986,106.908 C 178.852,106.982 178.753,107.062 178.688,107.146 L 177.733,108.413 L 182.158,112.127 L 184.653,112.127 L 184.653,100.1 L 186.992,100.1 L 186.992,97.916 L 178.903,97.916 L 178.903,100.1 Z" marker-start="none" marker-end="none"/>
     </g>
    </g>
    <g id="Group_21" fill-rule="nonzero" stroke-linejoin="round" stroke-linecap="round" stroke="none" stroke-width="0.485" fill="#000000" stroke-miterlimit="79.8403193612775">
     <g id="Group_22">
      <path d="M 146.418,110.868 C 146.418,110.66 146.385,110.472 146.32,110.303 C 146.256,110.134 146.153,109.986 146.013,109.86 C 145.874,109.733 145.69,109.635 145.463,109.567 C 145.235,109.499 144.963,109.465 144.644,109.465 L 141.253,109.465 L 140.853,107.115 C 141.12,107.161 141.376,107.195 141.623,107.218 C 141.87,107.241 142.11,107.252 142.344,107.252 C 143.091,107.252 143.751,107.138 144.323,106.911 C 144.894,106.684 145.375,106.373 145.765,105.98 C 146.155,105.587 146.449,105.126 146.647,104.596 C 146.845,104.067 146.944,103.5 146.944,102.895 C 146.944,102.135 146.809,101.441 146.54,100.814 C 146.27,100.187 145.895,99.647 145.414,99.192 C 144.933,98.737 144.36,98.385 143.694,98.134 C 143.028,97.884 142.299,97.759 141.506,97.759 C 141.045,97.759 140.605,97.807 140.186,97.903 C 139.767,97.999 139.374,98.128 139.007,98.291 C 138.639,98.454 138.3,98.643 137.988,98.858 C 137.676,99.072 137.394,99.3 137.14,99.543 L 138.076,100.812 C 138.173,100.944 138.287,101.045 138.417,101.114 C 138.547,101.184 138.687,101.218 138.836,101.218 C 139.031,101.218 139.214,101.165 139.387,101.058 C 139.559,100.95 139.747,100.833 139.952,100.707 C 140.156,100.58 140.395,100.465 140.668,100.361 C 140.941,100.257 141.279,100.205 141.682,100.205 C 142.084,100.205 142.429,100.271 142.715,100.405 C 143.001,100.538 143.233,100.72 143.411,100.95 C 143.59,101.181 143.72,101.451 143.801,101.759 C 143.882,102.068 143.923,102.398 143.923,102.749 C 143.923,103.437 143.728,103.962 143.338,104.323 C 142.949,104.683 142.396,104.863 141.682,104.863 C 141.045,104.863 140.421,104.726 139.811,104.452 L 137.939,105.01 L 139.148,112.115 L 146.418,112.115 L 146.418,110.868 Z" marker-start="none" marker-end="none"/>
     </g>
    </g>
    <g id="Group_23" fill-rule="nonzero" stroke-linejoin="round" stroke-linecap="round" stroke="none" stroke-width="0.319" fill="#ffffff" stroke-miterlimit="79.8403193612775">
     <g id="Group_24">
      <path d="M 37.727,59.948 L 37.727,56.502 L 35.566,56.502 L 35.566,65.816 L 38.596,65.816 C 39.269,65.816 39.844,65.747 40.319,65.608 C 40.794,65.469 41.182,65.276 41.482,65.029 C 41.783,64.781 42.001,64.489 42.137,64.152 C 42.274,63.815 42.342,63.448 42.342,63.051 C 42.342,62.748 42.302,62.462 42.221,62.193 C 42.14,61.925 42.019,61.676 41.859,61.448 C 41.7,61.219 41.504,61.016 41.271,60.836 C 41.039,60.657 40.772,60.51 40.469,60.395 C 40.614,60.323 40.749,60.233 40.875,60.127 C 41.001,60.02 41.11,59.891 41.204,59.737 L 43.186,56.502 L 41.23,56.502 C 40.868,56.502 40.608,56.638 40.45,56.911 L 38.903,59.615 C 38.835,59.735 38.755,59.82 38.663,59.871 C 38.572,59.922 38.443,59.948 38.276,59.948 L 37.727,59.948 Z M 37.727,61.437 L 38.596,61.437 C 38.89,61.437 39.141,61.474 39.347,61.549 C 39.554,61.623 39.723,61.727 39.855,61.859 C 39.987,61.991 40.083,62.145 40.143,62.322 C 40.203,62.499 40.233,62.69 40.233,62.895 C 40.233,63.304 40.099,63.624 39.833,63.854 C 39.567,64.084 39.154,64.199 38.596,64.199 L 37.727,64.199 L 37.727,61.437 Z" marker-start="none" marker-end="none"/>
      <path d="M 50.065,65.819 L 50.065,64.155 L 46.243,64.155 L 46.243,61.98 L 49.17,61.98 L 49.17,60.382 L 46.243,60.382 L 46.243,58.166 L 50.065,58.166 L 50.065,56.502 L 44.069,56.502 L 44.069,65.819 L 50.065,65.819 Z" marker-start="none" marker-end="none"/>
      <path d="M 56.483,63.924 C 56.419,63.821 56.352,63.745 56.281,63.694 C 56.211,63.642 56.12,63.617 56.01,63.617 C 55.912,63.617 55.806,63.648 55.693,63.71 C 55.58,63.771 55.452,63.841 55.31,63.917 C 55.167,63.994 55.004,64.063 54.821,64.125 C 54.637,64.187 54.429,64.218 54.194,64.218 C 53.789,64.218 53.488,64.132 53.29,63.959 C 53.092,63.786 52.992,63.553 52.992,63.259 C 52.992,63.071 53.052,62.916 53.171,62.792 C 53.291,62.669 53.447,62.562 53.641,62.472 C 53.835,62.383 54.057,62.301 54.306,62.226 C 54.555,62.152 54.81,62.069 55.07,61.977 C 55.33,61.885 55.585,61.778 55.834,61.654 C 56.083,61.531 56.305,61.373 56.499,61.181 C 56.693,60.989 56.849,60.756 56.969,60.481 C 57.088,60.206 57.148,59.875 57.148,59.487 C 57.148,59.056 57.073,58.654 56.924,58.279 C 56.775,57.904 56.558,57.576 56.275,57.297 C 55.992,57.018 55.642,56.799 55.227,56.639 C 54.811,56.479 54.339,56.399 53.811,56.399 C 53.521,56.399 53.226,56.429 52.925,56.489 C 52.625,56.548 52.334,56.632 52.053,56.741 C 51.772,56.85 51.507,56.979 51.26,57.128 C 51.013,57.277 50.798,57.443 50.614,57.627 L 51.254,58.637 C 51.301,58.714 51.367,58.775 51.452,58.822 C 51.537,58.869 51.629,58.893 51.727,58.893 C 51.855,58.893 51.984,58.852 52.114,58.771 C 52.243,58.69 52.391,58.601 52.555,58.503 C 52.719,58.405 52.907,58.315 53.12,58.234 C 53.333,58.153 53.585,58.113 53.875,58.113 C 54.267,58.113 54.571,58.199 54.789,58.371 C 55.006,58.544 55.115,58.818 55.115,59.193 C 55.115,59.411 55.055,59.587 54.936,59.724 C 54.816,59.86 54.66,59.973 54.466,60.063 C 54.272,60.152 54.051,60.231 53.804,60.299 C 53.557,60.367 53.304,60.443 53.044,60.526 C 52.784,60.609 52.53,60.711 52.283,60.833 C 52.036,60.954 51.815,61.114 51.621,61.312 C 51.427,61.511 51.271,61.758 51.151,62.054 C 51.032,62.35 50.972,62.716 50.972,63.151 C 50.972,63.5 51.043,63.841 51.183,64.174 C 51.324,64.506 51.531,64.802 51.803,65.062 C 52.076,65.322 52.411,65.53 52.807,65.686 C 53.203,65.841 53.657,65.919 54.169,65.919 C 54.454,65.919 54.732,65.897 55.003,65.852 C 55.273,65.807 55.53,65.741 55.773,65.653 C 56.016,65.566 56.243,65.462 56.454,65.34 C 56.665,65.219 56.853,65.081 57.02,64.928 L 56.483,63.924 Z" marker-start="none" marker-end="none"/>
      <path d="M 67.413,61.162 C 67.413,60.489 67.297,59.862 67.065,59.283 C 66.833,58.703 66.506,58.199 66.084,57.77 C 65.662,57.342 65.154,57.006 64.559,56.763 C 63.965,56.52 63.305,56.399 62.581,56.399 C 61.856,56.399 61.196,56.52 60.599,56.763 C 60.002,57.006 59.492,57.342 59.068,57.77 C 58.644,58.199 58.316,58.703 58.084,59.283 C 57.851,59.862 57.735,60.489 57.735,61.162 C 57.735,61.836 57.851,62.462 58.084,63.042 C 58.316,63.622 58.644,64.124 59.068,64.551 C 59.492,64.977 60.002,65.312 60.599,65.555 C 61.196,65.797 61.856,65.919 62.581,65.919 C 63.305,65.919 63.965,65.796 64.559,65.551 C 65.154,65.306 65.662,64.971 66.084,64.544 C 66.506,64.118 66.833,63.615 67.065,63.035 C 67.297,62.456 67.413,61.831 67.413,61.162 Z M 65.202,61.162 C 65.202,61.622 65.142,62.036 65.023,62.405 C 64.903,62.773 64.732,63.086 64.508,63.341 C 64.284,63.597 64.01,63.793 63.687,63.929 C 63.363,64.065 62.994,64.133 62.581,64.134 C 62.163,64.133 61.791,64.065 61.465,63.929 C 61.139,63.793 60.864,63.597 60.641,63.341 C 60.417,63.086 60.245,62.773 60.126,62.405 C 60.007,62.036 59.947,61.622 59.947,61.162 C 59.947,60.698 60.007,60.281 60.126,59.913 C 60.245,59.544 60.417,59.232 60.641,58.977 C 60.864,58.721 61.139,58.526 61.465,58.392 C 61.791,58.258 62.163,58.191 62.581,58.191 C 62.994,58.191 63.363,58.258 63.687,58.392 C 64.01,58.526 64.284,58.721 64.508,58.977 C 64.732,59.232 64.903,59.544 65.023,59.913 C 65.142,60.281 65.202,60.698 65.202,61.162 Z" marker-start="none" marker-end="none"/>
      <path d="M 72.321,58.209 C 72.611,58.209 72.87,58.257 73.098,58.353 C 73.326,58.449 73.518,58.586 73.676,58.766 C 73.834,58.945 73.954,59.163 74.037,59.421 C 74.12,59.679 74.162,59.972 74.162,60.3 L 74.162,65.817 L 76.323,65.817 L 76.323,60.299 C 76.323,59.728 76.23,59.204 76.044,58.726 C 75.859,58.249 75.594,57.838 75.249,57.492 C 74.903,57.147 74.484,56.879 73.989,56.687 C 73.495,56.495 72.939,56.399 72.321,56.399 C 71.699,56.399 71.14,56.495 70.646,56.687 C 70.152,56.879 69.732,57.147 69.387,57.492 C 69.042,57.838 68.777,58.249 68.594,58.726 C 68.411,59.204 68.319,59.728 68.319,60.299 L 68.319,65.817 L 70.48,65.817 L 70.48,60.306 C 70.48,59.978 70.521,59.685 70.605,59.427 C 70.688,59.169 70.808,58.95 70.966,58.769 C 71.123,58.588 71.316,58.449 71.544,58.353 C 71.772,58.257 72.031,58.209 72.321,58.209 Z" marker-start="none" marker-end="none"/>
      <path d="M 79.891,59.948 L 79.891,56.502 L 77.73,56.502 L 77.73,65.816 L 80.76,65.816 C 81.433,65.816 82.008,65.747 82.483,65.608 C 82.958,65.469 83.346,65.276 83.646,65.029 C 83.947,64.781 84.165,64.489 84.301,64.152 C 84.438,63.815 84.506,63.448 84.506,63.051 C 84.506,62.748 84.466,62.462 84.385,62.193 C 84.304,61.925 84.183,61.676 84.023,61.448 C 83.864,61.219 83.668,61.016 83.435,60.836 C 83.203,60.657 82.936,60.51 82.633,60.395 C 82.778,60.323 82.913,60.233 83.039,60.127 C 83.165,60.02 83.274,59.891 83.368,59.737 L 85.35,56.502 L 83.394,56.502 C 83.032,56.502 82.772,56.638 82.614,56.911 L 81.067,59.615 C 80.999,59.735 80.919,59.82 80.827,59.871 C 80.736,59.922 80.607,59.948 80.44,59.948 L 79.891,59.948 Z M 79.891,61.437 L 80.76,61.437 C 81.054,61.437 81.305,61.474 81.511,61.549 C 81.718,61.623 81.887,61.727 82.019,61.859 C 82.151,61.991 82.247,62.145 82.307,62.322 C 82.367,62.499 82.397,62.69 82.397,62.895 C 82.397,63.304 82.263,63.624 81.997,63.854 C 81.731,64.084 81.318,64.199 80.76,64.199 L 79.891,64.199 L 79.891,61.437 Z" marker-start="none" marker-end="none"/>
      <path d="M 92.172,58.91 C 92.223,58.91 92.275,58.901 92.326,58.881 C 92.377,58.861 92.426,58.828 92.473,58.78 L 93.329,57.859 C 92.954,57.377 92.484,57.013 91.92,56.767 C 91.355,56.522 90.687,56.399 89.916,56.399 C 89.208,56.399 88.574,56.519 88.014,56.76 C 87.454,57.001 86.978,57.334 86.588,57.758 C 86.199,58.182 85.899,58.685 85.69,59.267 C 85.482,59.848 85.377,60.48 85.377,61.162 C 85.377,61.857 85.496,62.495 85.735,63.077 C 85.974,63.659 86.307,64.161 86.736,64.583 C 87.164,65.005 87.676,65.333 88.273,65.567 C 88.87,65.802 89.528,65.919 90.248,65.919 C 90.598,65.919 90.927,65.888 91.236,65.826 C 91.545,65.764 91.833,65.679 92.102,65.57 C 92.37,65.461 92.618,65.331 92.843,65.179 C 93.069,65.028 93.27,64.86 93.444,64.677 L 92.716,63.699 C 92.669,63.639 92.613,63.585 92.549,63.536 C 92.485,63.487 92.396,63.462 92.281,63.462 C 92.204,63.462 92.132,63.479 92.064,63.513 C 91.995,63.547 91.923,63.589 91.846,63.638 C 91.77,63.687 91.685,63.74 91.594,63.798 C 91.502,63.855 91.393,63.909 91.268,63.958 C 91.142,64.007 90.995,64.048 90.827,64.082 C 90.658,64.116 90.461,64.133 90.235,64.134 C 89.843,64.133 89.485,64.064 89.161,63.926 C 88.838,63.787 88.559,63.589 88.327,63.331 C 88.095,63.073 87.914,62.761 87.784,62.395 C 87.654,62.028 87.589,61.617 87.589,61.161 C 87.589,60.683 87.654,60.259 87.784,59.888 C 87.914,59.518 88.091,59.205 88.314,58.952 C 88.538,58.698 88.799,58.505 89.098,58.373 C 89.396,58.241 89.715,58.175 90.056,58.175 C 90.252,58.175 90.431,58.185 90.593,58.204 C 90.755,58.223 90.905,58.256 91.044,58.303 C 91.182,58.35 91.315,58.41 91.44,58.485 C 91.566,58.56 91.693,58.652 91.821,58.763 C 91.872,58.806 91.927,58.841 91.987,58.869 C 92.047,58.896 92.108,58.91 92.172,58.91 Z" marker-start="none" marker-end="none"/>
      <path d="M 100.313,65.819 L 100.313,64.155 L 96.491,64.155 L 96.491,61.98 L 99.418,61.98 L 99.418,60.382 L 96.491,60.382 L 96.491,58.166 L 100.313,58.166 L 100.313,56.502 L 94.317,56.502 L 94.317,65.819 L 100.313,65.819 Z" marker-start="none" marker-end="none"/>
     </g>
    </g>
    <g id="Group_25" fill-rule="nonzero" stroke-linejoin="round" stroke-linecap="round" stroke="none" stroke-width="0.365" fill="#000000" stroke-miterlimit="79.8403193612775">
     <g id="Group_26">
      <path d="M 54.245,30.802 L 54.245,26.852 L 51.768,26.852 L 51.768,37.527 L 55.241,37.527 C 56.013,37.527 56.671,37.448 57.216,37.289 C 57.76,37.13 58.205,36.909 58.549,36.625 C 58.894,36.341 59.144,36.006 59.3,35.62 C 59.456,35.234 59.535,34.813 59.535,34.358 C 59.535,34.011 59.488,33.683 59.395,33.375 C 59.303,33.067 59.165,32.782 58.981,32.52 C 58.798,32.259 58.574,32.025 58.307,31.82 C 58.041,31.615 57.735,31.446 57.388,31.314 C 57.554,31.231 57.709,31.128 57.853,31.006 C 57.997,30.885 58.123,30.736 58.23,30.56 L 60.502,26.852 L 58.26,26.852 C 57.845,26.852 57.547,27.008 57.366,27.321 L 55.593,30.421 C 55.515,30.557 55.423,30.655 55.318,30.714 C 55.213,30.772 55.065,30.802 54.875,30.802 L 54.245,30.802 Z M 54.245,32.508 L 55.241,32.508 C 55.578,32.508 55.865,32.551 56.102,32.636 C 56.339,32.722 56.533,32.84 56.684,32.992 C 56.836,33.143 56.946,33.32 57.014,33.523 C 57.083,33.726 57.117,33.945 57.117,34.179 C 57.117,34.648 56.964,35.015 56.659,35.278 C 56.354,35.542 55.881,35.674 55.241,35.674 L 54.245,35.674 L 54.245,32.508 Z" marker-start="none" marker-end="none"/>
      <path d="M 68.387,37.531 L 68.387,35.624 L 64.005,35.624 L 64.005,33.131 L 67.361,33.131 L 67.361,31.299 L 64.005,31.299 L 64.005,28.759 L 68.387,28.759 L 68.387,26.852 L 61.514,26.852 L 61.514,37.531 L 68.387,37.531 Z" marker-start="none" marker-end="none"/>
      <path d="M 76.966,29.612 C 77.025,29.612 77.083,29.601 77.142,29.579 C 77.201,29.556 77.257,29.518 77.31,29.463 L 78.292,28.408 C 77.862,27.855 77.324,27.437 76.677,27.156 C 76.03,26.875 75.264,26.734 74.38,26.734 C 73.569,26.734 72.842,26.872 72.2,27.148 C 71.558,27.424 71.013,27.805 70.566,28.291 C 70.119,28.777 69.776,29.354 69.537,30.021 C 69.297,30.688 69.178,31.412 69.178,32.193 C 69.178,32.99 69.315,33.721 69.588,34.388 C 69.862,35.055 70.244,35.63 70.735,36.114 C 71.226,36.597 71.813,36.974 72.497,37.242 C 73.181,37.511 73.935,37.645 74.761,37.645 C 75.161,37.645 75.539,37.61 75.893,37.539 C 76.247,37.468 76.578,37.37 76.886,37.245 C 77.193,37.121 77.477,36.972 77.735,36.798 C 77.994,36.624 78.224,36.432 78.424,36.222 L 77.589,35.101 C 77.535,35.032 77.472,34.97 77.398,34.914 C 77.325,34.858 77.223,34.83 77.091,34.83 C 77.003,34.83 76.92,34.849 76.842,34.888 C 76.763,34.927 76.68,34.975 76.592,35.031 C 76.505,35.087 76.408,35.148 76.303,35.214 C 76.198,35.28 76.073,35.341 75.929,35.398 C 75.785,35.454 75.617,35.501 75.424,35.541 C 75.231,35.579 75.005,35.599 74.746,35.599 C 74.297,35.599 73.886,35.52 73.515,35.361 C 73.144,35.202 72.825,34.975 72.559,34.679 C 72.293,34.384 72.085,34.026 71.936,33.606 C 71.787,33.186 71.713,32.714 71.713,32.192 C 71.713,31.644 71.787,31.158 71.936,30.733 C 72.085,30.308 72.288,29.951 72.544,29.66 C 72.801,29.369 73.1,29.148 73.442,28.997 C 73.784,28.845 74.15,28.77 74.541,28.77 C 74.766,28.77 74.971,28.781 75.156,28.803 C 75.342,28.825 75.514,28.862 75.673,28.916 C 75.832,28.97 75.983,29.039 76.127,29.125 C 76.271,29.21 76.417,29.317 76.563,29.444 C 76.622,29.493 76.685,29.533 76.754,29.565 C 76.822,29.596 76.893,29.612 76.966,29.612 Z" marker-start="none" marker-end="none"/>
      <path d="M 84.743,30.848 L 84.743,26.852 L 82.267,26.852 L 82.267,30.848 L 78.398,37.529 L 80.582,37.529 C 80.797,37.529 80.968,37.478 81.095,37.376 C 81.222,37.274 81.324,37.144 81.402,36.985 L 82.912,33.821 C 83.034,33.568 83.146,33.334 83.249,33.12 C 83.351,32.906 83.442,32.695 83.52,32.486 C 83.593,32.7 83.681,32.913 83.784,33.127 C 83.886,33.341 83.996,33.573 84.113,33.821 L 85.608,36.985 C 85.637,37.049 85.678,37.114 85.729,37.178 C 85.78,37.243 85.839,37.302 85.905,37.354 C 85.971,37.406 86.046,37.448 86.132,37.481 C 86.217,37.513 86.311,37.529 86.414,37.529 L 88.612,37.529 L 84.743,30.848 Z" marker-start="none" marker-end="none"/>
      <path d="M 95.936,29.612 C 95.995,29.612 96.053,29.601 96.112,29.579 C 96.171,29.556 96.227,29.518 96.28,29.463 L 97.262,28.408 C 96.832,27.855 96.294,27.437 95.647,27.156 C 95,26.875 94.234,26.734 93.35,26.734 C 92.539,26.734 91.812,26.872 91.17,27.148 C 90.528,27.424 89.983,27.805 89.536,28.291 C 89.089,28.777 88.746,29.354 88.507,30.021 C 88.267,30.688 88.148,31.412 88.148,32.193 C 88.148,32.99 88.285,33.721 88.558,34.388 C 88.832,35.055 89.214,35.63 89.705,36.114 C 90.196,36.597 90.783,36.974 91.467,37.242 C 92.151,37.511 92.905,37.645 93.731,37.645 C 94.131,37.645 94.509,37.61 94.863,37.539 C 95.217,37.468 95.548,37.37 95.856,37.245 C 96.163,37.121 96.447,36.972 96.705,36.798 C 96.964,36.624 97.194,36.432 97.394,36.222 L 96.559,35.101 C 96.505,35.032 96.442,34.97 96.368,34.914 C 96.295,34.858 96.193,34.83 96.061,34.83 C 95.973,34.83 95.89,34.849 95.812,34.888 C 95.733,34.927 95.65,34.975 95.562,35.031 C 95.475,35.087 95.378,35.148 95.273,35.214 C 95.168,35.28 95.043,35.341 94.899,35.398 C 94.755,35.454 94.587,35.501 94.394,35.541 C 94.201,35.579 93.975,35.599 93.716,35.599 C 93.267,35.599 92.856,35.52 92.485,35.361 C 92.114,35.202 91.795,34.975 91.529,34.679 C 91.263,34.384 91.055,34.026 90.906,33.606 C 90.757,33.186 90.683,32.714 90.683,32.192 C 90.683,31.644 90.757,31.158 90.906,30.733 C 91.055,30.308 91.258,29.951 91.514,29.66 C 91.771,29.369 92.07,29.148 92.412,28.997 C 92.754,28.845 93.12,28.77 93.511,28.77 C 93.736,28.77 93.941,28.781 94.126,28.803 C 94.312,28.825 94.484,28.862 94.643,28.916 C 94.802,28.97 94.953,29.039 95.097,29.125 C 95.241,29.21 95.387,29.317 95.533,29.444 C 95.592,29.493 95.655,29.533 95.724,29.565 C 95.792,29.596 95.863,29.612 95.936,29.612 Z" marker-start="none" marker-end="none"/>
      <path d="M 100.871,28.83 L 104.827,28.83 L 104.827,26.852 L 98.394,26.852 L 98.394,37.529 L 100.871,37.529 L 100.871,28.83 Z" marker-start="none" marker-end="none"/>
      <path d="M 108.711,26.852 L 106.22,26.852 L 106.22,37.531 L 108.711,37.531 L 108.711,26.852 Z" marker-start="none" marker-end="none"/>
      <path d="M 111.991,37.531 C 112.099,37.531 112.189,37.526 112.262,37.516 C 112.336,37.507 112.402,37.488 112.46,37.461 C 112.519,37.434 112.575,37.396 112.629,37.348 C 112.683,37.299 112.744,37.233 112.812,37.15 L 117.882,30.739 C 117.863,30.944 117.848,31.143 117.838,31.336 C 117.828,31.529 117.823,31.711 117.823,31.882 L 117.823,37.531 L 120.007,37.531 L 120.007,26.852 L 118.717,26.852 C 118.527,26.852 118.366,26.881 118.234,26.94 C 118.102,26.999 117.975,27.106 117.853,27.262 L 112.819,33.622 C 112.834,33.436 112.846,33.254 112.856,33.076 C 112.866,32.898 112.871,32.731 112.871,32.574 L 112.871,26.852 L 110.687,26.852 L 110.687,37.531 L 111.991,37.531 Z" marker-start="none" marker-end="none"/>
      <path d="M 126.789,28.641 C 127.131,28.641 127.434,28.669 127.698,28.727 C 127.962,28.785 128.211,28.862 128.445,28.958 L 128.445,30.58 L 127.39,30.58 C 127.234,30.58 127.112,30.621 127.024,30.704 C 126.936,30.787 126.892,30.893 126.892,31.02 L 126.892,32.383 L 130.687,32.383 L 130.687,27.877 C 130.414,27.677 130.129,27.505 129.834,27.36 C 129.538,27.216 129.223,27.098 128.889,27.005 C 128.554,26.912 128.197,26.844 127.819,26.8 C 127.44,26.756 127.034,26.734 126.599,26.734 C 125.817,26.734 125.094,26.872 124.43,27.148 C 123.766,27.424 123.191,27.805 122.705,28.291 C 122.219,28.777 121.838,29.354 121.562,30.021 C 121.286,30.688 121.148,31.412 121.148,32.193 C 121.148,32.99 121.28,33.721 121.543,34.388 C 121.807,35.055 122.185,35.63 122.675,36.114 C 123.166,36.597 123.76,36.974 124.456,37.242 C 125.152,37.511 125.93,37.645 126.789,37.645 C 127.234,37.645 127.652,37.609 128.042,37.535 C 128.433,37.462 128.793,37.362 129.123,37.234 C 129.453,37.107 129.754,36.956 130.028,36.78 C 130.301,36.604 130.546,36.413 130.761,36.207 L 130.042,35.116 C 129.974,35.013 129.892,34.932 129.797,34.874 C 129.702,34.815 129.598,34.786 129.486,34.786 C 129.339,34.786 129.188,34.835 129.031,34.932 C 128.836,35.049 128.652,35.151 128.478,35.236 C 128.305,35.322 128.128,35.391 127.947,35.445 C 127.766,35.499 127.576,35.538 127.376,35.562 C 127.175,35.587 126.951,35.599 126.701,35.599 C 126.237,35.599 125.82,35.517 125.449,35.354 C 125.077,35.19 124.761,34.959 124.5,34.662 C 124.238,34.364 124.037,34.006 123.895,33.589 C 123.754,33.171 123.683,32.706 123.683,32.193 C 123.683,31.627 123.761,31.124 123.917,30.684 C 124.074,30.245 124.29,29.874 124.566,29.571 C 124.842,29.268 125.169,29.038 125.547,28.879 C 125.926,28.72 126.34,28.641 126.789,28.641 Z" marker-start="none" marker-end="none"/>
      <path d="M 131.814,28.142 C 131.814,28.298 131.844,28.444 131.902,28.578 C 131.961,28.713 132.045,28.83 132.155,28.93 C 132.265,29.03 132.394,29.109 132.543,29.168 C 132.692,29.227 132.86,29.256 133.045,29.256 C 133.265,29.256 133.455,29.218 133.617,29.142 C 133.778,29.067 133.912,28.964 134.02,28.835 C 134.127,28.705 134.206,28.556 134.258,28.388 C 134.309,28.219 134.335,28.042 134.335,27.856 C 134.335,27.612 134.296,27.352 134.217,27.076 C 134.139,26.8 134.023,26.523 133.869,26.244 C 133.716,25.966 133.524,25.692 133.294,25.423 C 133.065,25.155 132.801,24.91 132.503,24.691 L 132.107,25.042 C 132.054,25.096 132.013,25.146 131.986,25.193 C 131.96,25.239 131.946,25.296 131.946,25.365 C 131.946,25.414 131.963,25.466 131.997,25.522 C 132.032,25.579 132.073,25.629 132.122,25.673 C 132.181,25.731 132.249,25.802 132.327,25.885 C 132.405,25.968 132.483,26.061 132.562,26.164 C 132.64,26.266 132.712,26.379 132.778,26.501 C 132.844,26.623 132.894,26.752 132.928,26.889 C 132.757,26.904 132.603,26.945 132.466,27.014 C 132.33,27.082 132.214,27.173 132.118,27.285 C 132.023,27.397 131.949,27.525 131.895,27.67 C 131.841,27.814 131.814,27.971 131.814,28.142 Z" marker-start="none" marker-end="none"/>
      <path d="M 141.188,26.852 L 138.697,26.852 L 138.697,37.531 L 141.188,37.531 L 141.188,26.852 Z" marker-start="none" marker-end="none"/>
      <path d="M 144.468,37.531 C 144.576,37.531 144.666,37.526 144.739,37.516 C 144.813,37.507 144.879,37.488 144.937,37.461 C 144.996,37.434 145.052,37.396 145.106,37.348 C 145.16,37.299 145.221,37.233 145.289,37.15 L 150.359,30.739 C 150.34,30.944 150.325,31.143 150.315,31.336 C 150.305,31.529 150.3,31.711 150.3,31.882 L 150.3,37.531 L 152.484,37.531 L 152.484,26.852 L 151.194,26.852 C 151.004,26.852 150.843,26.881 150.711,26.94 C 150.579,26.999 150.452,27.106 150.33,27.262 L 145.296,33.622 C 145.311,33.436 145.323,33.254 145.333,33.076 C 145.343,32.898 145.348,32.731 145.348,32.574 L 145.348,26.852 L 143.164,26.852 L 143.164,37.531 L 144.468,37.531 Z" marker-start="none" marker-end="none"/>
      <path d="M 161.413,29.612 C 161.472,29.612 161.53,29.601 161.589,29.579 C 161.648,29.556 161.704,29.518 161.757,29.463 L 162.739,28.408 C 162.309,27.855 161.771,27.437 161.124,27.156 C 160.477,26.875 159.711,26.734 158.827,26.734 C 158.016,26.734 157.289,26.872 156.647,27.148 C 156.005,27.424 155.46,27.805 155.013,28.291 C 154.566,28.777 154.223,29.354 153.984,30.021 C 153.744,30.688 153.625,31.412 153.625,32.193 C 153.625,32.99 153.762,33.721 154.035,34.388 C 154.309,35.055 154.691,35.63 155.182,36.114 C 155.673,36.597 156.26,36.974 156.944,37.242 C 157.628,37.511 158.382,37.645 159.208,37.645 C 159.608,37.645 159.986,37.61 160.34,37.539 C 160.694,37.468 161.025,37.37 161.333,37.245 C 161.64,37.121 161.924,36.972 162.182,36.798 C 162.441,36.624 162.671,36.432 162.871,36.222 L 162.036,35.101 C 161.982,35.032 161.919,34.97 161.845,34.914 C 161.772,34.858 161.67,34.83 161.538,34.83 C 161.45,34.83 161.367,34.849 161.289,34.888 C 161.21,34.927 161.127,34.975 161.039,35.031 C 160.952,35.087 160.855,35.148 160.75,35.214 C 160.645,35.28 160.52,35.341 160.376,35.398 C 160.232,35.454 160.064,35.501 159.871,35.541 C 159.678,35.579 159.452,35.599 159.193,35.599 C 158.744,35.599 158.333,35.52 157.962,35.361 C 157.591,35.202 157.272,34.975 157.006,34.679 C 156.74,34.384 156.532,34.026 156.383,33.606 C 156.234,33.186 156.16,32.714 156.16,32.192 C 156.16,31.644 156.234,31.158 156.383,30.733 C 156.532,30.308 156.735,29.951 156.991,29.66 C 157.248,29.369 157.547,29.148 157.889,28.997 C 158.231,28.845 158.597,28.77 158.988,28.77 C 159.213,28.77 159.418,28.781 159.603,28.803 C 159.789,28.825 159.961,28.862 160.12,28.916 C 160.279,28.97 160.43,29.039 160.574,29.125 C 160.718,29.21 160.864,29.317 161.01,29.444 C 161.069,29.493 161.132,29.533 161.201,29.565 C 161.269,29.596 161.34,29.612 161.413,29.612 Z" marker-start="none" marker-end="none"/>
      <path d="M 163.432,28.002 C 163.432,28.178 163.465,28.342 163.531,28.493 C 163.596,28.645 163.687,28.777 163.802,28.889 C 163.916,29.002 164.052,29.091 164.208,29.157 C 164.365,29.223 164.536,29.256 164.721,29.256 C 164.902,29.256 165.07,29.223 165.227,29.157 C 165.383,29.091 165.52,29.002 165.637,28.889 C 165.754,28.777 165.846,28.645 165.912,28.493 C 165.978,28.342 166.011,28.178 166.011,28.002 C 166.011,27.826 165.978,27.661 165.912,27.507 C 165.846,27.353 165.754,27.22 165.637,27.108 C 165.52,26.995 165.383,26.907 165.227,26.844 C 165.07,26.78 164.902,26.748 164.721,26.748 C 164.536,26.748 164.365,26.78 164.208,26.844 C 164.052,26.907 163.916,26.995 163.802,27.108 C 163.687,27.22 163.596,27.353 163.531,27.507 C 163.465,27.661 163.432,27.826 163.432,28.002 Z" marker-start="none" marker-end="none"/>
     </g>
    </g>
   </g>
  </g>
 </g>
</svg>
