<?xml version="1.0" standalone="no"?>
<!DOCTYPE svg PUBLIC "-//W3C//DTD SVG 1.1//EN" "http://www.w3.org/Graphics/SVG/1.1/DTD/svg11.dtd">
<!--Generator: Xara Designer (www.xara.com), SVG filter version: 6.2.0.0-->
<svg stroke-width="0.501" stroke-linejoin="bevel" fill-rule="evenodd" xmlns:xlink="http://www.w3.org/1999/xlink" xmlns="http://www.w3.org/2000/svg" version="1.1" overflow="visible" width="215.434pt" height="215.434pt" viewBox="0 0 215.434 215.434">
 <defs>
	</defs>
 <g id="Document" fill="none" stroke="black" font-family="Times New Roman" font-size="16" transform="scale(1 -1)">
  <g id="Spread" transform="translate(0 -215.434)">
   <g id="Layer 1">
    <path d="M 199.757,214.933 L 15.176,214.933 C 6.799,214.933 0,208.134 0,199.757 L 0,15.176 C 0,6.799 6.799,0 15.176,0 L 199.757,0 C 208.134,0 214.933,6.799 214.933,15.176 L 214.933,199.757 C 214.933,208.134 208.134,214.933 199.757,214.933 Z" stroke="#999999" fill="#ffffff" stroke-linejoin="miter" marker-start="none" marker-end="none"/>
    <path d="M 15.034,146.143 L 15.034,180.035 L 118.622,180.035 L 118.622,146.143 L 15.034,146.143 Z" stroke-linejoin="miter" stroke-linecap="round" stroke="#ff7979" fill="#ff7979" stroke-width="1.738" marker-start="none" marker-end="none" stroke-miterlimit="79.8403193612775"/>
    <path d="M 15.034,144.8 L 15.034,154.61 C 15.034,157.181 17.118,159.258 19.68,159.258 L 113.972,159.258 C 116.534,159.258 118.622,157.181 118.622,154.61 L 118.622,144.8 C 118.622,142.224 116.534,140.146 113.972,140.146 L 19.68,140.146 C 17.118,140.146 15.034,142.224 15.034,144.8 Z" stroke-linejoin="miter" stroke-linecap="round" stroke="#ff7979" fill="#ff7979" stroke-width="1.738" marker-start="none" marker-end="none" stroke-miterlimit="79.8403193612775"/>
    <path d="M 15.731,173.693 L 15.731,191.338 C 15.731,195.951 19.475,199.697 24.093,199.697 L 191.139,199.697 C 195.752,199.697 199.5,195.951 199.5,191.338 L 199.5,173.693 C 199.5,169.075 195.752,165.327 191.139,165.327 L 24.093,165.327 C 19.475,165.327 15.731,169.075 15.731,173.693 Z" stroke-linejoin="miter" stroke-linecap="round" stroke="#ff7979" fill="#ffffff" stroke-width="3.13" marker-start="none" marker-end="none" stroke-miterlimit="79.8403193612775"/>
    <path d="M 0.534,114.753 L 0.534,123.287 L 49.697,123.287 L 49.697,114.753 L 0.534,114.753 Z" fill="#ff3718" stroke-linecap="round" stroke="none" stroke-width="0.103" stroke-linejoin="miter" marker-start="none" marker-end="none" stroke-miterlimit="79.8403193612775"/>
    <path d="M 100.139,94.521 C 87.871,107.96 71.058,114.789 54.185,114.792 L 54.185,123.271 C 73.357,123.266 92.47,115.516 106.404,100.247 C 118.778,86.686 124.879,69.609 124.874,52.586 L 116.388,52.586 C 116.395,67.568 111.026,82.595 100.139,94.521 Z" fill="#ff3718" stroke-linecap="round" stroke="none" stroke-width="0.541" stroke-linejoin="round" marker-start="none" marker-end="none" stroke-miterlimit="79.8403193612775"/>
    <path d="M 120.647,14.633 L 118.529,17.678 L 116.407,20.731 L 116.354,20.731 L 116.354,48.008 L 124.89,48.008 L 124.89,20.731 L 122.77,17.678 L 120.647,14.633 Z" fill="#ff3718" stroke-linecap="round" stroke="none" stroke-width="0.103" stroke-linejoin="miter" marker-start="none" marker-end="none" stroke-miterlimit="79.8403193612775"/>
    <path d="M 109.097,14.629 L 106.977,17.675 L 104.856,20.731 L 109.097,20.731 L 113.338,20.727 L 111.215,17.675 L 109.097,14.629 Z M 104.833,20.731 L 104.833,48.008 L 113.367,48.008 L 113.367,20.731 L 104.833,20.731 Z" stroke-linecap="round" stroke="none" fill="#e5e5e5" stroke-width="0.103" stroke-linejoin="miter" marker-start="none" marker-end="none" stroke-miterlimit="79.8403193612775"/>
    <path d="M 91.785,86.899 C 81.745,97.89 67.99,103.477 54.185,103.482 L 54.185,111.963 C 70.292,111.959 86.342,105.444 98.051,92.616 C 108.445,81.229 113.565,66.886 113.562,52.586 L 105.076,52.586 C 105.086,64.843 100.691,77.135 91.785,86.899 Z" stroke-linecap="round" stroke="none" fill="#e5e5e5" stroke-width="0.453" stroke-linejoin="round" marker-start="none" marker-end="none" stroke-miterlimit="79.8403193612775"/>
    <path d="M 0.534,103.45 L 0.534,111.982 L 49.697,111.982 L 49.697,103.45 L 0.534,103.45 Z" stroke-linecap="round" stroke="none" fill="#e5e5e5" stroke-width="0.103" stroke-linejoin="miter" marker-start="none" marker-end="none" stroke-miterlimit="79.8403193612775"/>
    <path d="M 97.781,14.629 L 95.665,17.675 L 93.544,20.731 L 97.785,20.731 L 102.028,20.727 L 99.908,17.675 L 97.781,14.629 Z M 93.535,20.731 L 93.535,48.008 L 102.07,48.008 L 102.07,20.731 L 93.535,20.731 Z" stroke-linecap="round" stroke="none" fill="#e5e5e5" stroke-width="0.103" stroke-linejoin="miter" marker-start="none" marker-end="none" stroke-miterlimit="79.8403193612775"/>
    <path d="M 0.534,92.152 L 0.534,100.683 L 49.697,100.683 L 49.697,92.152 L 0.534,92.152 Z" stroke-linecap="round" stroke="none" fill="#e5e5e5" stroke-width="0.103" stroke-linejoin="miter" marker-start="none" marker-end="none" stroke-miterlimit="79.8403193612775"/>
    <path d="M 83.43,79.272 C 75.623,87.824 64.918,92.164 54.185,92.17 L 54.185,100.654 C 67.227,100.651 80.217,95.378 89.696,84.989 C 98.107,75.774 102.255,64.158 102.253,52.586 L 93.771,52.586 C 93.771,62.118 90.357,71.683 83.43,79.272 Z" stroke-linecap="round" stroke="none" fill="#e5e5e5" stroke-width="0.368" stroke-linejoin="round" marker-start="none" marker-end="none" stroke-miterlimit="79.8403193612775"/>
    <path d="M 0.534,80.856 L 0.534,89.39 L 49.697,89.39 L 49.697,80.856 L 0.534,80.856 Z" fill="#e5e5e5" stroke-linecap="round" stroke="none" stroke-width="0.103" stroke-linejoin="miter" marker-start="none" marker-end="none" stroke-miterlimit="79.8403193612775"/>
    <path d="M 75.075,71.651 C 69.497,77.758 61.859,80.858 54.185,80.861 L 54.185,89.348 C 64.155,89.339 74.094,85.306 81.337,77.368 C 87.776,70.319 90.947,61.442 90.943,52.586 L 82.455,52.586 C 82.462,59.393 80.02,66.225 75.075,71.651 Z" fill="#e5e5e5" stroke-linecap="round" stroke="none" stroke-width="0.281" stroke-linejoin="round" marker-start="none" marker-end="none" stroke-miterlimit="79.8403193612775"/>
    <path d="M 86.728,14.633 L 84.596,17.678 L 82.455,20.731 L 82.455,20.731 L 82.455,48.008 L 90.994,48.008 L 90.994,20.731 L 90.994,20.731 L 88.864,17.675 L 86.728,14.633 Z" fill="#e5e5e5" stroke-linecap="round" stroke="none" stroke-width="0.103" stroke-linejoin="miter" marker-start="none" marker-end="none" stroke-miterlimit="79.8403193612775"/>
    <path d="M 21.384,24.928 C 12.487,35.468 13.812,51.254 24.364,60.138 C 34.895,69.052 50.66,67.72 59.561,57.182 C 68.475,46.642 67.139,30.868 56.585,21.965 C 46.054,13.069 30.282,14.4 21.384,24.928 Z" stroke-linejoin="miter" stroke="none" fill="#000000" stroke-width="1.039" marker-start="none" marker-end="none" stroke-miterlimit="79.8403193612775"/>
    <path d="M 22.561,25.885 C 13.674,36.43 14.99,52.183 25.534,61.1 C 36.077,69.973 51.844,68.658 60.761,58.12 C 69.655,47.583 68.322,31.8 57.775,22.903 C 47.247,14.007 31.466,15.331 22.561,25.885 Z" stroke-linejoin="miter" stroke="#b2b2b2" stroke-width="5.658" marker-start="none" marker-end="none" stroke-miterlimit="79.8403193612775"/>
    <path d="M 168.755,100.725 C 162.855,107.703 163.734,118.163 170.729,124.072 C 177.711,129.964 188.164,129.085 194.068,122.098 C 199.977,115.106 199.091,104.652 192.094,98.747 C 185.112,92.852 174.655,93.731 168.755,100.725 Z" stroke-linejoin="miter" stroke="none" fill="#000000" stroke-width="0.686" marker-start="none" marker-end="none" stroke-miterlimit="79.8403193612775"/>
    <path d="M 169.533,101.334 C 163.642,108.332 164.514,118.791 171.507,124.684 C 178.496,130.593 188.948,129.71 194.864,122.717 C 200.761,115.735 199.876,105.283 192.882,99.378 C 185.903,93.472 175.439,94.351 169.533,101.334 Z" stroke-linejoin="miter" stroke="#b2b2b2" stroke-width="3.752" marker-start="none" marker-end="none" stroke-miterlimit="79.8403193612775"/>
    <path d="M 19.258,93.532 C 14.733,98.888 15.409,106.904 20.767,111.428 C 26.123,115.951 34.144,115.279 38.663,109.921 C 43.188,104.565 42.513,96.546 37.154,92.026 C 31.8,87.498 23.78,88.181 19.258,93.532 Z" stroke-linejoin="miter" stroke="none" fill="#ffffff" stroke-width="0.526" marker-start="none" marker-end="none" stroke-miterlimit="79.8403193612775"/>
    <path d="M 19.861,94.014 C 15.337,99.363 16.013,107.385 21.369,111.906 C 26.728,116.434 34.744,115.756 39.268,110.397 C 43.796,105.046 43.119,97.023 37.759,92.499 C 32.399,87.978 24.384,88.652 19.861,94.014 Z" fill="none" stroke-linejoin="miter" stroke="#55bae6" stroke-width="2.872" marker-start="none" marker-end="none" stroke-miterlimit="79.8403193612775"/>
    <path d="M 76.566,81.583 C 72.045,86.934 72.72,94.953 78.077,99.481 C 83.434,103.997 91.453,103.324 95.977,97.966 C 100.5,92.612 99.82,84.595 94.466,80.072 C 89.11,75.548 81.091,76.224 76.566,81.583 Z" stroke-linejoin="miter" stroke="none" fill="#ffffff" stroke-width="0.526" marker-start="none" marker-end="none" stroke-miterlimit="79.8403193612775"/>
    <path d="M 77.175,82.061 C 72.647,87.415 73.321,95.431 78.681,99.955 C 84.039,104.48 92.054,103.806 96.579,98.444 C 101.107,93.088 100.422,85.071 95.071,80.545 C 89.711,76.02 81.696,76.701 77.175,82.061 Z" fill="none" stroke-linejoin="miter" stroke="#55bae6" stroke-width="2.872" marker-start="none" marker-end="none" stroke-miterlimit="79.8403193612775"/>
    <path d="M 93.354,23.953 C 88.83,29.309 89.509,37.326 94.864,41.854 C 100.225,46.375 108.244,45.697 112.767,40.339 C 117.295,34.987 116.613,26.964 111.256,22.445 C 105.896,17.926 97.88,18.6 93.354,23.953 Z" stroke-linejoin="miter" stroke="none" fill="#ffffff" stroke-width="0.526" marker-start="none" marker-end="none" stroke-miterlimit="79.8403193612775"/>
    <path d="M 93.961,24.437 C 89.437,29.788 90.114,37.807 95.472,42.332 C 100.832,46.853 108.847,46.179 113.37,40.819 C 117.896,35.466 117.219,27.446 111.863,22.925 C 106.501,18.4 98.484,19.076 93.961,24.437 Z" fill="none" stroke-linejoin="miter" stroke="#55bae6" stroke-width="2.872" marker-start="none" marker-end="none" stroke-miterlimit="79.8403193612775"/>
    <path d="M 128.07,100.712 C 122.17,107.701 123.049,118.169 130.046,124.06 C 137.029,129.971 147.483,129.088 153.385,122.1 C 159.296,115.111 158.41,104.651 151.412,98.747 C 144.429,92.848 133.97,93.731 128.07,100.712 Z" stroke-linejoin="miter" stroke="none" fill="#ffffff" stroke-width="0.689" marker-start="none" marker-end="none" stroke-miterlimit="79.8403193612775"/>
    <path d="M 128.85,101.347 C 122.957,108.339 123.83,118.785 130.822,124.698 C 137.813,130.582 148.268,129.71 154.181,122.722 C 160.079,115.735 159.195,105.269 152.201,99.369 C 145.22,93.47 134.755,94.348 128.85,101.347 Z" stroke-linejoin="miter" stroke="#55bae6" stroke-width="3.752" marker-start="none" marker-end="none" stroke-miterlimit="79.8403193612775"/>
    <path d="M 152.095,24.917 C 143.198,35.457 144.523,51.243 155.075,60.127 C 165.606,69.041 181.371,67.709 190.272,57.171 C 199.186,46.631 197.85,30.857 187.296,21.954 C 176.765,13.058 160.993,14.389 152.095,24.917 Z" stroke-linejoin="miter" stroke="none" fill="#ffffff" stroke-width="1.039" marker-start="none" marker-end="none" stroke-miterlimit="79.8403193612775"/>
    <path d="M 153.272,25.874 C 144.385,36.419 145.701,52.172 156.245,61.089 C 166.788,69.962 182.555,68.647 191.472,58.109 C 200.366,47.572 199.033,31.789 188.486,22.892 C 177.958,13.996 162.177,15.32 153.272,25.874 Z" stroke-linejoin="miter" stroke="#55bae6" stroke-width="5.658" marker-start="none" marker-end="none" stroke-miterlimit="79.8403193612775"/>
    <g id="Group" fill-rule="nonzero" stroke-linejoin="round" stroke-linecap="round" stroke="none" stroke-width="0.485" fill="#b2b2b2" stroke-miterlimit="79.8403193612775">
     <g id="Group_1">
      <path d="M 177.967,107.114 L 180.696,107.114 L 180.696,114.277 C 180.696,114.628 180.705,114.995 180.725,115.379 L 179.117,114.043 C 179.013,113.959 178.909,113.899 178.805,113.863 C 178.701,113.827 178.6,113.809 178.503,113.809 C 178.334,113.809 178.183,113.847 178.05,113.922 C 177.916,113.996 177.817,114.076 177.752,114.16 L 176.797,115.427 L 181.222,119.141 L 183.717,119.141 L 183.717,107.114 L 186.056,107.114 L 186.056,104.93 L 177.967,104.93 L 177.967,107.114 Z" marker-start="none" marker-end="none"/>
     </g>
    </g>
    <g id="Group_2" fill-rule="nonzero" stroke-linejoin="round" stroke-linecap="round" stroke="none" stroke-width="0.387" fill="#000000" stroke-miterlimit="79.8403193612775">
     <g id="Group_3">
      <path d="M 25.962,105.649 L 25.962,102.567 L 28.841,102.567 L 28.841,100.838 L 25.962,100.838 L 25.962,97.741 L 24.001,97.741 L 24.001,100.838 L 21.137,100.838 L 21.137,102.567 L 24.001,102.567 L 24.001,105.649 L 25.962,105.649 Z" marker-start="none" marker-end="none"/>
      <path d="M 31.472,98.216 L 33.651,98.216 L 33.651,103.936 C 33.651,104.217 33.659,104.51 33.674,104.816 L 32.39,103.749 C 32.307,103.682 32.224,103.634 32.141,103.605 C 32.058,103.577 31.978,103.563 31.9,103.563 C 31.765,103.563 31.645,103.592 31.538,103.652 C 31.432,103.712 31.353,103.775 31.301,103.843 L 30.538,104.855 L 34.071,107.82 L 36.064,107.82 L 36.064,98.216 L 37.931,98.216 L 37.931,96.472 L 31.472,96.472 L 31.472,98.216 Z" marker-start="none" marker-end="none"/>
     </g>
    </g>
    <g id="Group_4" fill-rule="nonzero" stroke-linejoin="round" stroke-linecap="round" stroke="none" stroke-width="0.485" fill="#000000" stroke-miterlimit="79.8403193612775">
     <g id="Group_5">
      <path d="M 141.896,119.286 C 142.597,119.286 143.221,119.187 143.767,118.988 C 144.312,118.79 144.774,118.521 145.151,118.182 C 145.527,117.843 145.813,117.451 146.008,117.004 C 146.203,116.558 146.301,116.087 146.301,115.592 C 146.301,115.143 146.255,114.747 146.164,114.404 C 146.073,114.062 145.938,113.766 145.76,113.515 C 145.581,113.264 145.36,113.051 145.097,112.875 C 144.834,112.699 144.533,112.553 144.196,112.435 C 145.768,111.891 146.554,110.824 146.554,109.236 C 146.554,108.484 146.417,107.83 146.145,107.272 C 145.872,106.714 145.506,106.251 145.048,105.882 C 144.59,105.512 144.059,105.235 143.455,105.05 C 142.851,104.865 142.22,104.773 141.564,104.773 C 140.889,104.773 140.288,104.846 139.761,104.992 C 139.235,105.138 138.767,105.366 138.358,105.674 C 137.949,105.983 137.59,106.377 137.281,106.858 C 136.973,107.339 136.705,107.91 136.477,108.573 L 137.822,109.12 C 137.939,109.173 138.054,109.208 138.168,109.228 C 138.282,109.247 138.394,109.257 138.504,109.257 C 138.712,109.257 138.899,109.216 139.065,109.135 C 139.23,109.054 139.355,108.935 139.44,108.779 C 139.732,108.239 140.042,107.847 140.37,107.604 C 140.699,107.36 141.083,107.238 141.525,107.238 C 141.863,107.238 142.157,107.295 142.407,107.409 C 142.657,107.522 142.865,107.668 143.031,107.847 C 143.197,108.026 143.322,108.23 143.406,108.457 C 143.491,108.685 143.533,108.916 143.533,109.15 C 143.533,109.455 143.512,109.73 143.47,109.974 C 143.427,110.218 143.309,110.428 143.114,110.603 C 142.919,110.779 142.625,110.914 142.232,111.008 C 141.839,111.102 141.291,111.149 140.59,111.149 L 140.59,113.234 C 141.181,113.234 141.658,113.279 142.022,113.37 C 142.386,113.461 142.667,113.586 142.865,113.746 C 143.063,113.905 143.195,114.098 143.26,114.326 C 143.325,114.553 143.357,114.803 143.357,115.076 C 143.357,115.635 143.223,116.066 142.953,116.368 C 142.683,116.67 142.272,116.822 141.72,116.822 C 141.493,116.822 141.285,116.789 141.096,116.724 C 140.908,116.659 140.739,116.571 140.59,116.461 C 140.44,116.35 140.312,116.22 140.205,116.071 C 140.098,115.921 140.012,115.759 139.947,115.583 C 139.843,115.291 139.711,115.08 139.552,114.95 C 139.393,114.82 139.177,114.754 138.904,114.754 C 138.839,114.754 138.769,114.758 138.694,114.764 C 138.62,114.771 138.543,114.78 138.465,114.793 L 136.867,115.076 C 136.971,115.784 137.171,116.402 137.466,116.928 C 137.762,117.454 138.129,117.893 138.568,118.244 C 139.006,118.594 139.508,118.856 140.073,119.028 C 140.638,119.2 141.246,119.286 141.896,119.286 Z" marker-start="none" marker-end="none"/>
     </g>
    </g>
    <g id="Group_6" fill-rule="nonzero" stroke-linejoin="round" stroke-linecap="round" stroke="none" stroke-width="0.387" fill="#000000" stroke-miterlimit="79.8403193612775">
     <g id="Group_7">
      <path d="M 82.699,94.504 L 82.699,91.422 L 85.578,91.422 L 85.578,89.693 L 82.699,89.693 L 82.699,86.596 L 80.738,86.596 L 80.738,89.693 L 77.874,89.693 L 77.874,91.422 L 80.738,91.422 L 80.738,94.504 L 82.699,94.504 Z" marker-start="none" marker-end="none"/>
      <path d="M 88.209,87.071 L 90.388,87.071 L 90.388,92.791 C 90.388,93.072 90.396,93.365 90.411,93.671 L 89.127,92.604 C 89.044,92.537 88.961,92.489 88.878,92.46 C 88.795,92.432 88.715,92.418 88.637,92.418 C 88.502,92.418 88.382,92.447 88.275,92.507 C 88.169,92.567 88.09,92.63 88.038,92.698 L 87.275,93.71 L 90.808,96.675 L 92.801,96.675 L 92.801,87.071 L 94.668,87.071 L 94.668,85.327 L 88.209,85.327 L 88.209,87.071 Z" marker-start="none" marker-end="none"/>
     </g>
    </g>
    <text xml:space="preserve" transform="translate(94.615 26.953) scale(1 -1)" font-family="Lato Black" stroke="none" fill="#000000" stroke-width="0.387" stroke-linejoin="round" stroke-linecap="round" font-weight="bold" font-size="15.564" stroke-miterlimit="79.8403193612775"><tspan x="0" y="0">+1</tspan></text>
    <g id="Group_8" fill-rule="nonzero" stroke-linejoin="round" stroke-linecap="round" stroke="none" stroke-width="0.319" fill="#ffffff" stroke-miterlimit="79.8403193612775">
     <g id="Group_9">
      <path d="M 34.369,151.097 C 34.42,151.097 34.472,151.088 34.523,151.068 C 34.574,151.048 34.623,151.015 34.67,150.967 L 35.526,150.046 C 35.151,149.564 34.681,149.2 34.117,148.954 C 33.552,148.709 32.884,148.586 32.113,148.586 C 31.405,148.586 30.771,148.706 30.211,148.947 C 29.651,149.188 29.175,149.521 28.785,149.945 C 28.396,150.369 28.096,150.872 27.887,151.454 C 27.679,152.035 27.574,152.667 27.574,153.349 C 27.574,154.044 27.693,154.682 27.932,155.264 C 28.171,155.846 28.504,156.348 28.933,156.77 C 29.361,157.192 29.873,157.52 30.47,157.754 C 31.067,157.989 31.725,158.106 32.445,158.106 C 32.795,158.106 33.124,158.075 33.433,158.013 C 33.742,157.951 34.03,157.866 34.299,157.757 C 34.567,157.648 34.815,157.518 35.04,157.366 C 35.266,157.215 35.467,157.047 35.641,156.864 L 34.913,155.886 C 34.866,155.826 34.81,155.772 34.746,155.723 C 34.682,155.674 34.593,155.649 34.478,155.649 C 34.401,155.649 34.329,155.666 34.261,155.7 C 34.192,155.734 34.12,155.776 34.043,155.825 C 33.967,155.874 33.882,155.927 33.791,155.985 C 33.699,156.042 33.59,156.096 33.465,156.145 C 33.339,156.194 33.192,156.235 33.024,156.269 C 32.855,156.303 32.658,156.32 32.432,156.321 C 32.04,156.32 31.682,156.251 31.358,156.113 C 31.035,155.974 30.756,155.776 30.524,155.518 C 30.292,155.26 30.111,154.948 29.981,154.582 C 29.851,154.215 29.786,153.804 29.786,153.348 C 29.786,152.87 29.851,152.446 29.981,152.075 C 30.111,151.705 30.288,151.392 30.511,151.139 C 30.735,150.885 30.996,150.692 31.295,150.56 C 31.593,150.428 31.912,150.362 32.253,150.362 C 32.449,150.362 32.628,150.372 32.79,150.391 C 32.952,150.41 33.102,150.443 33.241,150.49 C 33.379,150.537 33.512,150.597 33.637,150.672 C 33.763,150.747 33.89,150.839 34.018,150.95 C 34.069,150.993 34.124,151.028 34.184,151.056 C 34.244,151.083 34.305,151.097 34.369,151.097 Z" marker-start="none" marker-end="none"/>
      <path d="M 45.706,153.349 C 45.706,152.676 45.59,152.049 45.358,151.47 C 45.126,150.89 44.799,150.386 44.377,149.957 C 43.955,149.529 43.447,149.193 42.852,148.95 C 42.258,148.707 41.598,148.586 40.874,148.586 C 40.149,148.586 39.489,148.707 38.892,148.95 C 38.295,149.193 37.785,149.529 37.361,149.957 C 36.937,150.386 36.609,150.89 36.377,151.47 C 36.144,152.049 36.028,152.676 36.028,153.349 C 36.028,154.023 36.144,154.649 36.377,155.229 C 36.609,155.809 36.937,156.311 37.361,156.738 C 37.785,157.164 38.295,157.499 38.892,157.742 C 39.489,157.984 40.149,158.106 40.874,158.106 C 41.598,158.106 42.258,157.983 42.852,157.738 C 43.447,157.493 43.955,157.158 44.377,156.731 C 44.799,156.305 45.126,155.802 45.358,155.222 C 45.59,154.643 45.706,154.018 45.706,153.349 Z M 43.495,153.349 C 43.495,153.809 43.435,154.223 43.316,154.592 C 43.196,154.96 43.025,155.273 42.801,155.528 C 42.577,155.784 42.303,155.98 41.98,156.116 C 41.656,156.252 41.287,156.32 40.874,156.321 C 40.456,156.32 40.084,156.252 39.758,156.116 C 39.432,155.98 39.157,155.784 38.934,155.528 C 38.71,155.273 38.538,154.96 38.419,154.592 C 38.3,154.223 38.24,153.809 38.24,153.349 C 38.24,152.885 38.3,152.468 38.419,152.1 C 38.538,151.731 38.71,151.419 38.934,151.164 C 39.157,150.908 39.432,150.713 39.758,150.579 C 40.084,150.445 40.456,150.378 40.874,150.378 C 41.287,150.378 41.656,150.445 41.98,150.579 C 42.303,150.713 42.577,150.908 42.801,151.164 C 43.025,151.419 43.196,151.731 43.316,152.1 C 43.435,152.468 43.495,152.885 43.495,153.349 Z" marker-start="none" marker-end="none"/>
      <path d="M 47.878,158.006 C 47.972,158.006 48.051,158.002 48.114,157.993 C 48.178,157.985 48.236,157.969 48.287,157.945 C 48.338,157.922 48.387,157.889 48.434,157.846 C 48.481,157.803 48.534,157.746 48.594,157.674 L 53.017,152.08 C 53,152.259 52.988,152.433 52.979,152.601 C 52.971,152.769 52.966,152.928 52.966,153.078 L 52.966,158.006 L 54.871,158.006 L 54.871,148.689 L 53.746,148.689 C 53.58,148.689 53.439,148.715 53.324,148.766 C 53.209,148.817 53.098,148.911 52.992,149.047 L 48.6,154.596 C 48.613,154.434 48.624,154.275 48.632,154.119 C 48.641,153.964 48.645,153.818 48.645,153.681 L 48.645,148.689 L 46.74,148.689 L 46.74,158.006 L 47.878,158.006 Z" marker-start="none" marker-end="none"/>
      <path d="M 61.595,156.111 C 61.531,156.008 61.464,155.932 61.393,155.881 C 61.323,155.829 61.232,155.804 61.122,155.804 C 61.024,155.804 60.918,155.835 60.805,155.897 C 60.692,155.958 60.564,156.028 60.422,156.104 C 60.279,156.181 60.116,156.25 59.933,156.312 C 59.749,156.374 59.541,156.405 59.306,156.405 C 58.901,156.405 58.6,156.319 58.402,156.146 C 58.204,155.973 58.104,155.74 58.104,155.446 C 58.104,155.258 58.164,155.103 58.283,154.979 C 58.403,154.856 58.559,154.749 58.753,154.659 C 58.947,154.57 59.169,154.488 59.418,154.413 C 59.667,154.339 59.922,154.256 60.182,154.164 C 60.442,154.072 60.697,153.965 60.946,153.841 C 61.195,153.718 61.417,153.56 61.611,153.368 C 61.805,153.176 61.961,152.943 62.081,152.668 C 62.2,152.393 62.26,152.062 62.26,151.674 C 62.26,151.243 62.185,150.841 62.036,150.466 C 61.887,150.091 61.67,149.763 61.387,149.484 C 61.104,149.205 60.754,148.986 60.339,148.826 C 59.923,148.666 59.451,148.586 58.923,148.586 C 58.633,148.586 58.338,148.616 58.037,148.676 C 57.737,148.735 57.446,148.819 57.165,148.928 C 56.884,149.037 56.619,149.166 56.372,149.315 C 56.125,149.464 55.91,149.63 55.726,149.814 L 56.366,150.824 C 56.413,150.901 56.479,150.962 56.564,151.009 C 56.649,151.056 56.741,151.08 56.839,151.08 C 56.967,151.08 57.096,151.039 57.226,150.958 C 57.355,150.877 57.503,150.788 57.667,150.69 C 57.831,150.592 58.019,150.502 58.232,150.421 C 58.445,150.34 58.697,150.3 58.987,150.3 C 59.379,150.3 59.683,150.386 59.901,150.558 C 60.118,150.731 60.227,151.005 60.227,151.38 C 60.227,151.598 60.167,151.774 60.048,151.911 C 59.928,152.047 59.772,152.16 59.578,152.25 C 59.384,152.339 59.163,152.418 58.916,152.486 C 58.669,152.554 58.416,152.63 58.156,152.713 C 57.896,152.796 57.642,152.898 57.395,153.02 C 57.148,153.141 56.927,153.301 56.733,153.499 C 56.539,153.698 56.383,153.945 56.263,154.241 C 56.144,154.537 56.084,154.903 56.084,155.338 C 56.084,155.687 56.155,156.028 56.295,156.361 C 56.436,156.693 56.643,156.989 56.915,157.249 C 57.188,157.509 57.523,157.717 57.919,157.873 C 58.315,158.028 58.769,158.106 59.281,158.106 C 59.566,158.106 59.844,158.084 60.115,158.039 C 60.385,157.994 60.642,157.928 60.885,157.84 C 61.128,157.753 61.355,157.649 61.566,157.527 C 61.777,157.406 61.965,157.268 62.132,157.115 L 61.595,156.111 Z" marker-start="none" marker-end="none"/>
      <path d="M 67.207,150.396 C 67.497,150.396 67.756,150.444 67.984,150.54 C 68.212,150.636 68.404,150.773 68.562,150.953 C 68.72,151.132 68.84,151.35 68.923,151.608 C 69.006,151.866 69.048,152.159 69.048,152.487 L 69.048,158.004 L 71.209,158.004 L 71.209,152.486 C 71.209,151.915 71.116,151.391 70.93,150.913 C 70.745,150.436 70.48,150.025 70.135,149.679 C 69.789,149.334 69.37,149.066 68.875,148.874 C 68.381,148.682 67.825,148.586 67.207,148.586 C 66.585,148.586 66.026,148.682 65.532,148.874 C 65.038,149.066 64.618,149.334 64.273,149.679 C 63.928,150.025 63.663,150.436 63.48,150.913 C 63.297,151.391 63.205,151.915 63.205,152.486 L 63.205,158.004 L 65.366,158.004 L 65.366,152.493 C 65.366,152.165 65.407,151.872 65.491,151.614 C 65.574,151.356 65.694,151.137 65.852,150.956 C 66.009,150.775 66.202,150.636 66.43,150.54 C 66.658,150.444 66.917,150.396 67.207,150.396 Z" marker-start="none" marker-end="none"/>
      <path d="M 77.378,152.919 C 77.464,152.756 77.546,152.586 77.625,152.41 C 77.703,152.234 77.779,152.054 77.851,151.87 C 77.924,152.059 78.001,152.242 78.082,152.42 C 78.163,152.598 78.246,152.771 78.331,152.938 L 80.722,157.675 C 80.764,157.756 80.808,157.82 80.853,157.865 C 80.897,157.91 80.948,157.943 81.003,157.965 C 81.058,157.986 81.121,157.997 81.191,157.997 C 81.262,157.997 81.344,157.997 81.438,157.997 L 83.087,157.997 L 83.087,148.689 L 81.182,148.689 L 81.182,153.976 C 81.182,154.233 81.195,154.51 81.22,154.809 L 78.753,150.095 C 78.676,149.948 78.573,149.837 78.443,149.761 C 78.313,149.686 78.165,149.648 77.998,149.648 L 77.704,149.648 C 77.538,149.648 77.39,149.686 77.26,149.761 C 77.13,149.837 77.027,149.948 76.95,150.095 L 74.47,154.815 C 74.487,154.668 74.5,154.522 74.508,154.377 C 74.517,154.232 74.521,154.098 74.521,153.976 L 74.521,148.689 L 72.616,148.689 L 72.616,157.997 L 74.265,157.997 C 74.359,157.997 74.441,157.997 74.511,157.997 C 74.582,157.997 74.645,157.986 74.7,157.965 C 74.755,157.943 74.805,157.91 74.85,157.865 C 74.895,157.82 74.939,157.756 74.981,157.675 L 77.378,152.919 Z" marker-start="none" marker-end="none"/>
      <path d="M 90.617,158.006 L 90.617,156.342 L 86.795,156.342 L 86.795,154.167 L 89.722,154.167 L 89.722,152.569 L 86.795,152.569 L 86.795,150.353 L 90.617,150.353 L 90.617,148.689 L 84.621,148.689 L 84.621,158.006 L 90.617,158.006 Z" marker-start="none" marker-end="none"/>
      <path d="M 94.005,152.135 L 94.005,148.689 L 91.844,148.689 L 91.844,158.003 L 94.874,158.003 C 95.547,158.003 96.122,157.934 96.597,157.795 C 97.072,157.656 97.46,157.463 97.76,157.216 C 98.061,156.968 98.279,156.676 98.415,156.339 C 98.552,156.002 98.62,155.635 98.62,155.238 C 98.62,154.935 98.58,154.649 98.499,154.38 C 98.418,154.112 98.297,153.863 98.137,153.635 C 97.978,153.406 97.782,153.203 97.549,153.023 C 97.317,152.844 97.05,152.697 96.747,152.582 C 96.892,152.51 97.027,152.42 97.153,152.314 C 97.279,152.207 97.388,152.078 97.482,151.924 L 99.464,148.689 L 97.508,148.689 C 97.146,148.689 96.886,148.825 96.728,149.098 L 95.181,151.802 C 95.113,151.922 95.033,152.007 94.941,152.058 C 94.85,152.109 94.721,152.135 94.554,152.135 L 94.005,152.135 Z M 94.005,153.624 L 94.874,153.624 C 95.168,153.624 95.419,153.661 95.625,153.736 C 95.832,153.81 96.001,153.914 96.133,154.046 C 96.265,154.178 96.361,154.332 96.421,154.509 C 96.481,154.686 96.511,154.877 96.511,155.082 C 96.511,155.491 96.377,155.811 96.111,156.041 C 95.845,156.271 95.432,156.386 94.874,156.386 L 94.005,156.386 L 94.005,153.624 Z" marker-start="none" marker-end="none"/>
     </g>
    </g>
    <g id="Group_10" fill-rule="nonzero" stroke-linejoin="round" stroke-linecap="round" stroke="none" stroke-width="0.365" fill="#000000" stroke-miterlimit="79.8403193612775">
     <path d="M 50.429,185.783 C 50.355,185.665 50.278,185.577 50.198,185.519 C 50.117,185.46 50.013,185.431 49.886,185.431 C 49.774,185.431 49.653,185.466 49.524,185.537 C 49.394,185.608 49.248,185.687 49.084,185.775 C 48.92,185.863 48.734,185.943 48.524,186.013 C 48.314,186.084 48.074,186.12 47.806,186.12 C 47.342,186.12 46.996,186.021 46.769,185.823 C 46.542,185.625 46.428,185.358 46.428,185.021 C 46.428,184.805 46.497,184.627 46.633,184.486 C 46.77,184.344 46.95,184.222 47.172,184.119 C 47.394,184.017 47.648,183.923 47.934,183.837 C 48.22,183.752 48.511,183.656 48.809,183.551 C 49.107,183.446 49.399,183.323 49.685,183.181 C 49.971,183.04 50.225,182.859 50.447,182.639 C 50.669,182.419 50.849,182.152 50.985,181.837 C 51.122,181.522 51.191,181.142 51.191,180.697 C 51.191,180.204 51.105,179.742 50.934,179.312 C 50.763,178.882 50.515,178.508 50.19,178.188 C 49.866,177.868 49.465,177.616 48.989,177.433 C 48.513,177.25 47.972,177.158 47.366,177.158 C 47.034,177.158 46.696,177.192 46.351,177.261 C 46.007,177.329 45.673,177.425 45.351,177.55 C 45.029,177.675 44.726,177.822 44.443,177.993 C 44.159,178.164 43.913,178.355 43.703,178.565 L 44.435,179.723 C 44.489,179.811 44.565,179.882 44.662,179.935 C 44.76,179.989 44.865,180.016 44.977,180.016 C 45.124,180.016 45.272,179.97 45.421,179.877 C 45.57,179.784 45.738,179.681 45.926,179.569 C 46.114,179.457 46.33,179.354 46.575,179.261 C 46.819,179.168 47.107,179.122 47.439,179.122 C 47.889,179.122 48.238,179.221 48.487,179.419 C 48.736,179.616 48.861,179.931 48.861,180.36 C 48.861,180.61 48.792,180.812 48.655,180.969 C 48.519,181.125 48.339,181.254 48.117,181.357 C 47.895,181.46 47.642,181.55 47.359,181.628 C 47.075,181.706 46.785,181.793 46.487,181.888 C 46.189,181.983 45.898,182.101 45.615,182.24 C 45.332,182.379 45.079,182.562 44.857,182.79 C 44.634,183.017 44.455,183.3 44.318,183.64 C 44.181,183.979 44.113,184.398 44.113,184.896 C 44.113,185.297 44.193,185.688 44.355,186.069 C 44.516,186.45 44.753,186.789 45.065,187.087 C 45.378,187.385 45.761,187.624 46.216,187.802 C 46.67,187.98 47.19,188.069 47.776,188.069 C 48.104,188.069 48.422,188.044 48.732,187.992 C 49.043,187.941 49.337,187.865 49.615,187.765 C 49.894,187.665 50.154,187.545 50.396,187.406 C 50.637,187.267 50.854,187.109 51.044,186.933 L 50.429,185.783 Z" marker-start="none" marker-end="none"/>
     <path d="M 57.88,182.124 C 57.977,181.937 58.071,181.743 58.162,181.541 C 58.252,181.34 58.339,181.133 58.422,180.921 C 58.505,181.138 58.593,181.348 58.686,181.552 C 58.778,181.756 58.874,181.954 58.971,182.146 L 61.712,187.575 C 61.76,187.669 61.81,187.741 61.862,187.793 C 61.913,187.845 61.97,187.883 62.034,187.907 C 62.097,187.932 62.169,187.944 62.25,187.944 C 62.331,187.944 62.425,187.944 62.532,187.944 L 64.422,187.944 L 64.422,177.276 L 62.239,177.276 L 62.239,183.336 C 62.239,183.63 62.254,183.948 62.283,184.29 L 59.455,178.887 C 59.367,178.719 59.249,178.592 59.1,178.505 C 58.951,178.418 58.781,178.375 58.59,178.375 L 58.253,178.375 C 58.063,178.375 57.893,178.418 57.744,178.505 C 57.595,178.592 57.477,178.719 57.389,178.887 L 54.546,184.297 C 54.566,184.129 54.58,183.961 54.59,183.795 C 54.6,183.629 54.605,183.476 54.605,183.336 L 54.605,177.276 L 52.421,177.276 L 52.421,187.944 L 54.312,187.944 C 54.419,187.944 54.513,187.944 54.594,187.944 C 54.674,187.944 54.746,187.932 54.81,187.907 C 54.873,187.883 54.931,187.845 54.982,187.793 C 55.033,187.741 55.083,187.669 55.132,187.575 L 57.88,182.124 Z" marker-start="none" marker-end="none"/>
     <path d="M 76.115,177.276 L 74.196,177.276 C 73.981,177.276 73.804,177.326 73.665,177.426 C 73.525,177.526 73.429,177.655 73.375,177.811 L 72.745,179.673 L 68.686,179.673 L 68.056,177.811 C 68.007,177.674 67.912,177.551 67.77,177.441 C 67.628,177.331 67.455,177.276 67.25,177.276 L 65.316,177.276 L 69.448,187.953 L 71.983,187.953 L 76.115,177.276 Z M 69.257,181.358 L 72.174,181.358 L 71.192,184.237 C 71.128,184.419 71.054,184.635 70.968,184.882 C 70.883,185.13 70.799,185.398 70.715,185.687 C 70.637,185.393 70.557,185.122 70.474,184.871 C 70.391,184.622 70.313,184.405 70.239,184.222 L 69.257,181.358 Z" marker-start="none" marker-end="none"/>
     <path d="M 79.454,181.226 L 79.454,177.276 L 76.977,177.276 L 76.977,187.951 L 80.45,187.951 C 81.222,187.951 81.88,187.872 82.425,187.713 C 82.969,187.554 83.414,187.333 83.758,187.049 C 84.103,186.765 84.353,186.43 84.509,186.044 C 84.665,185.658 84.744,185.237 84.744,184.782 C 84.744,184.435 84.697,184.107 84.604,183.799 C 84.512,183.491 84.374,183.206 84.19,182.944 C 84.007,182.683 83.783,182.449 83.516,182.244 C 83.25,182.039 82.944,181.87 82.597,181.738 C 82.763,181.655 82.918,181.552 83.062,181.43 C 83.206,181.309 83.332,181.16 83.439,180.984 L 85.711,177.276 L 83.469,177.276 C 83.054,177.276 82.756,177.432 82.575,177.745 L 80.802,180.845 C 80.724,180.981 80.632,181.079 80.527,181.138 C 80.422,181.196 80.274,181.226 80.084,181.226 L 79.454,181.226 Z M 79.454,182.932 L 80.45,182.932 C 80.787,182.932 81.074,182.975 81.311,183.06 C 81.548,183.146 81.742,183.264 81.893,183.416 C 82.045,183.567 82.155,183.744 82.223,183.947 C 82.292,184.15 82.326,184.369 82.326,184.603 C 82.326,185.072 82.173,185.439 81.868,185.702 C 81.563,185.966 81.09,186.098 80.45,186.098 L 79.454,186.098 L 79.454,182.932 Z" marker-start="none" marker-end="none"/>
     <path d="M 94.036,187.955 L 94.036,185.991 L 91.032,185.991 L 91.032,177.278 L 88.556,177.278 L 88.556,185.991 L 85.552,185.991 L 85.552,187.955 L 94.036,187.955 Z" marker-start="none" marker-end="none"/>
     <path d="M 97.541,180.846 L 97.541,177.278 L 95.064,177.278 L 95.064,187.955 L 98.83,187.955 C 99.582,187.955 100.228,187.866 100.768,187.687 C 101.308,187.509 101.752,187.264 102.102,186.951 C 102.451,186.638 102.708,186.269 102.875,185.844 C 103.041,185.419 103.124,184.96 103.124,184.467 C 103.124,183.934 103.038,183.445 102.867,183.001 C 102.696,182.556 102.435,182.175 102.083,181.858 C 101.732,181.54 101.286,181.292 100.746,181.114 C 100.206,180.936 99.568,180.846 98.83,180.846 L 97.541,180.846 Z M 97.541,182.714 L 98.83,182.714 C 99.475,182.714 99.939,182.868 100.222,183.176 C 100.506,183.484 100.647,183.914 100.647,184.466 C 100.647,184.711 100.611,184.934 100.537,185.134 C 100.464,185.334 100.353,185.506 100.204,185.651 C 100.055,185.795 99.867,185.906 99.64,185.984 C 99.413,186.063 99.143,186.102 98.83,186.102 L 97.541,186.102 L 97.541,182.714 Z" marker-start="none" marker-end="none"/>
     <path d="M 113.736,177.276 L 111.245,177.276 L 111.245,181.791 L 106.907,181.791 L 106.907,177.276 L 104.416,177.276 L 104.416,187.955 L 106.907,187.955 L 106.907,183.49 L 111.245,183.49 L 111.245,187.955 L 113.736,187.955 L 113.736,177.276 Z" marker-start="none" marker-end="none"/>
     <path d="M 126.028,182.617 C 126.028,181.845 125.895,181.127 125.629,180.463 C 125.363,179.799 124.988,179.221 124.504,178.73 C 124.021,178.239 123.438,177.854 122.757,177.576 C 122.075,177.297 121.319,177.158 120.489,177.158 C 119.659,177.158 118.902,177.297 118.218,177.576 C 117.534,177.854 116.949,178.239 116.463,178.73 C 115.977,179.221 115.601,179.799 115.335,180.463 C 115.068,181.127 114.935,181.845 114.935,182.617 C 114.935,183.389 115.068,184.107 115.335,184.772 C 115.601,185.436 115.977,186.013 116.463,186.501 C 116.949,186.99 117.534,187.373 118.218,187.652 C 118.902,187.93 119.659,188.069 120.489,188.069 C 121.319,188.069 122.075,187.929 122.757,187.648 C 123.438,187.367 124.021,186.982 124.504,186.494 C 124.988,186.005 125.363,185.429 125.629,184.764 C 125.895,184.1 126.028,183.384 126.028,182.617 Z M 123.493,182.617 C 123.493,183.145 123.425,183.619 123.288,184.042 C 123.151,184.464 122.955,184.822 122.698,185.115 C 122.442,185.408 122.128,185.632 121.757,185.789 C 121.385,185.945 120.963,186.023 120.489,186.023 C 120.01,186.023 119.584,185.945 119.211,185.789 C 118.837,185.632 118.522,185.408 118.265,185.115 C 118.009,184.822 117.812,184.464 117.676,184.042 C 117.539,183.619 117.47,183.145 117.47,182.617 C 117.47,182.085 117.539,181.608 117.676,181.185 C 117.812,180.763 118.009,180.405 118.265,180.112 C 118.522,179.819 118.837,179.596 119.211,179.442 C 119.584,179.288 120.01,179.211 120.489,179.211 C 120.963,179.211 121.385,179.288 121.757,179.442 C 122.128,179.596 122.442,179.819 122.698,180.112 C 122.955,180.405 123.151,180.763 123.288,181.185 C 123.425,181.608 123.493,182.085 123.493,182.617 Z" marker-start="none" marker-end="none"/>
     <path d="M 128.516,187.955 C 128.624,187.955 128.714,187.95 128.787,187.94 C 128.861,187.931 128.927,187.912 128.985,187.885 C 129.044,187.858 129.1,187.82 129.154,187.772 C 129.208,187.723 129.269,187.657 129.337,187.574 L 134.407,181.163 C 134.388,181.368 134.373,181.567 134.363,181.76 C 134.353,181.953 134.348,182.135 134.348,182.306 L 134.348,187.955 L 136.532,187.955 L 136.532,177.276 L 135.242,177.276 C 135.052,177.276 134.891,177.305 134.759,177.364 C 134.627,177.423 134.5,177.53 134.378,177.686 L 129.344,184.046 C 129.359,183.86 129.371,183.678 129.381,183.5 C 129.391,183.322 129.396,183.155 129.396,182.998 L 129.396,177.276 L 127.212,177.276 L 127.212,187.955 L 128.516,187.955 Z" marker-start="none" marker-end="none"/>
     <path d="M 145.161,187.955 L 145.161,186.048 L 140.779,186.048 L 140.779,183.555 L 144.135,183.555 L 144.135,181.723 L 140.779,181.723 L 140.779,179.183 L 145.161,179.183 L 145.161,177.276 L 138.288,177.276 L 138.288,187.955 L 145.161,187.955 Z" marker-start="none" marker-end="none"/>
     <path d="M 146.186,178.566 C 146.186,178.722 146.216,178.868 146.274,179.002 C 146.333,179.137 146.417,179.254 146.527,179.354 C 146.637,179.454 146.766,179.533 146.915,179.592 C 147.064,179.651 147.232,179.68 147.417,179.68 C 147.637,179.68 147.827,179.642 147.989,179.566 C 148.15,179.491 148.284,179.388 148.392,179.259 C 148.499,179.129 148.578,178.98 148.63,178.812 C 148.681,178.643 148.707,178.466 148.707,178.28 C 148.707,178.036 148.668,177.776 148.589,177.5 C 148.511,177.224 148.395,176.947 148.241,176.668 C 148.088,176.39 147.896,176.116 147.666,175.847 C 147.437,175.579 147.173,175.334 146.875,175.115 L 146.479,175.466 C 146.426,175.52 146.385,175.57 146.358,175.617 C 146.332,175.663 146.318,175.72 146.318,175.789 C 146.318,175.838 146.335,175.89 146.369,175.946 C 146.404,176.003 146.445,176.053 146.494,176.097 C 146.553,176.155 146.621,176.226 146.699,176.309 C 146.777,176.392 146.855,176.485 146.934,176.588 C 147.012,176.69 147.084,176.803 147.15,176.925 C 147.216,177.047 147.266,177.176 147.3,177.313 C 147.129,177.328 146.975,177.369 146.838,177.438 C 146.702,177.506 146.586,177.597 146.49,177.709 C 146.395,177.821 146.321,177.949 146.267,178.094 C 146.213,178.238 146.186,178.395 146.186,178.566 Z" marker-start="none" marker-end="none"/>
     <path d="M 155.56,177.276 L 153.069,177.276 L 153.069,187.955 L 155.56,187.955 L 155.56,177.276 Z" marker-start="none" marker-end="none"/>
     <path d="M 158.84,187.955 C 158.948,187.955 159.038,187.95 159.111,187.94 C 159.185,187.931 159.251,187.912 159.309,187.885 C 159.368,187.858 159.424,187.82 159.478,187.772 C 159.532,187.723 159.593,187.657 159.661,187.574 L 164.731,181.163 C 164.712,181.368 164.697,181.567 164.687,181.76 C 164.677,181.953 164.672,182.135 164.672,182.306 L 164.672,187.955 L 166.856,187.955 L 166.856,177.276 L 165.566,177.276 C 165.376,177.276 165.215,177.305 165.083,177.364 C 164.951,177.423 164.824,177.53 164.702,177.686 L 159.668,184.046 C 159.683,183.86 159.695,183.678 159.705,183.5 C 159.715,183.322 159.72,183.155 159.72,182.998 L 159.72,177.276 L 157.536,177.276 L 157.536,187.955 L 158.84,187.955 Z" marker-start="none" marker-end="none"/>
     <path d="M 175.785,180.036 C 175.844,180.036 175.902,180.025 175.961,180.003 C 176.02,179.98 176.076,179.942 176.129,179.887 L 177.111,178.832 C 176.681,178.279 176.143,177.861 175.496,177.58 C 174.849,177.299 174.083,177.158 173.199,177.158 C 172.388,177.158 171.661,177.296 171.019,177.572 C 170.377,177.848 169.832,178.229 169.385,178.715 C 168.938,179.201 168.595,179.778 168.356,180.445 C 168.116,181.112 167.997,181.836 167.997,182.617 C 167.997,183.414 168.134,184.145 168.407,184.812 C 168.681,185.479 169.063,186.054 169.554,186.538 C 170.045,187.021 170.632,187.398 171.316,187.666 C 172,187.935 172.754,188.069 173.58,188.069 C 173.98,188.069 174.358,188.034 174.712,187.963 C 175.066,187.892 175.397,187.794 175.705,187.669 C 176.012,187.545 176.296,187.396 176.554,187.222 C 176.813,187.048 177.043,186.856 177.243,186.646 L 176.408,185.525 C 176.354,185.456 176.291,185.394 176.217,185.338 C 176.144,185.282 176.042,185.254 175.91,185.254 C 175.822,185.254 175.739,185.273 175.661,185.312 C 175.582,185.351 175.499,185.399 175.411,185.455 C 175.324,185.511 175.227,185.572 175.122,185.638 C 175.017,185.704 174.892,185.765 174.748,185.822 C 174.604,185.878 174.436,185.925 174.243,185.965 C 174.05,186.003 173.824,186.023 173.565,186.023 C 173.116,186.023 172.705,185.944 172.334,185.785 C 171.963,185.626 171.644,185.399 171.378,185.103 C 171.112,184.808 170.904,184.45 170.755,184.03 C 170.606,183.61 170.532,183.138 170.532,182.616 C 170.532,182.068 170.606,181.582 170.755,181.157 C 170.904,180.732 171.107,180.375 171.363,180.084 C 171.62,179.793 171.919,179.572 172.261,179.421 C 172.603,179.269 172.969,179.194 173.36,179.194 C 173.585,179.194 173.79,179.205 173.975,179.227 C 174.161,179.249 174.333,179.286 174.492,179.34 C 174.651,179.394 174.802,179.463 174.946,179.549 C 175.09,179.634 175.236,179.741 175.382,179.868 C 175.441,179.917 175.504,179.957 175.573,179.989 C 175.641,180.02 175.712,180.036 175.785,180.036 Z" marker-start="none" marker-end="none"/>
     <path d="M 177.804,178.426 C 177.804,178.602 177.837,178.766 177.903,178.917 C 177.968,179.069 178.059,179.201 178.174,179.313 C 178.288,179.426 178.424,179.515 178.58,179.581 C 178.737,179.647 178.908,179.68 179.093,179.68 C 179.274,179.68 179.442,179.647 179.599,179.581 C 179.755,179.515 179.892,179.426 180.009,179.313 C 180.126,179.201 180.218,179.069 180.284,178.917 C 180.35,178.766 180.383,178.602 180.383,178.426 C 180.383,178.25 180.35,178.085 180.284,177.931 C 180.218,177.777 180.126,177.644 180.009,177.532 C 179.892,177.419 179.755,177.331 179.599,177.268 C 179.442,177.204 179.274,177.172 179.093,177.172 C 178.908,177.172 178.737,177.204 178.58,177.268 C 178.424,177.331 178.288,177.419 178.174,177.532 C 178.059,177.644 177.968,177.777 177.903,177.931 C 177.837,178.085 177.804,178.25 177.804,178.426 Z" marker-start="none" marker-end="none"/>
    </g>
   </g>
  </g>
 </g>
</svg>
