<?xml version="1.0" standalone="no"?>
<!DOCTYPE svg PUBLIC "-//W3C//DTD SVG 1.1//EN" "http://www.w3.org/Graphics/SVG/1.1/DTD/svg11.dtd">
<!--Generator: Xara Designer (www.xara.com), SVG filter version: 6.2.0.0-->
<svg stroke-width="0.501" stroke-linejoin="bevel" fill-rule="evenodd" xmlns:xlink="http://www.w3.org/1999/xlink" xmlns="http://www.w3.org/2000/svg" version="1.1" overflow="visible" width="215.434pt" height="215.434pt" viewBox="0 0 215.434 215.434">
 <defs>
	</defs>
 <g id="Document" fill="none" stroke="black" font-family="Times New Roman" font-size="16" transform="scale(1 -1)">
  <g id="Spread" transform="translate(0 -215.434)">
   <g id="Layer 1">
    <g id="Group">
     <path d="M 199.757,214.933 L 15.176,214.933 C 6.799,214.933 0,208.134 0,199.757 L 0,15.176 C 0,6.799 6.799,0 15.176,0 L 199.757,0 C 208.134,0 214.933,6.799 214.933,15.176 L 214.933,199.757 C 214.933,208.134 208.134,214.933 199.757,214.933 Z" stroke="#999999" fill="#ffffff" stroke-linejoin="miter" marker-start="none" marker-end="none"/>
     <g id="Group_1" stroke-linejoin="miter" stroke-linecap="round" stroke="#ff7979">
      <path d="M 15.005,146.115 L 15.005,180.007 L 118.593,180.007 L 118.593,146.115 L 15.005,146.115 Z" fill="#ff7979" stroke-width="1.738" marker-start="none" marker-end="none" stroke-miterlimit="79.8403193612775"/>
      <path d="M 15.005,144.772 L 15.005,154.582 C 15.005,157.153 17.089,159.23 19.651,159.23 L 113.943,159.23 C 116.505,159.23 118.593,157.153 118.593,154.582 L 118.593,144.772 C 118.593,142.196 116.505,140.118 113.943,140.118 L 19.651,140.118 C 17.089,140.118 15.005,142.196 15.005,144.772 Z" fill="#ff7979" stroke-width="1.738" marker-start="none" marker-end="none" stroke-miterlimit="79.8403193612775"/>
      <path d="M 15.702,173.665 L 15.702,191.31 C 15.702,195.923 19.446,199.669 24.064,199.669 L 191.11,199.669 C 195.723,199.669 199.471,195.923 199.471,191.31 L 199.471,173.665 C 199.471,169.047 195.723,165.299 191.11,165.299 L 24.064,165.299 C 19.446,165.299 15.702,169.047 15.702,173.665 Z" fill="#ffffff" stroke-width="3.13" marker-start="none" marker-end="none" stroke-miterlimit="79.8403193612775"/>
     </g>
     <g id="Group_2" stroke-linecap="round" stroke="none" fill="#e5e5e5">
      <path d="M 0.505,114.725 L 0.505,123.259 L 49.668,123.259 L 49.668,114.725 L 0.505,114.725 Z" stroke-width="0.103" stroke-linejoin="miter" marker-start="none" marker-end="none" stroke-miterlimit="79.8403193612775"/>
      <path d="M 100.11,94.493 C 87.842,107.932 71.029,114.761 54.156,114.764 L 54.156,123.243 C 73.328,123.238 92.441,115.488 106.375,100.219 C 118.749,86.658 124.85,69.581 124.845,52.558 L 116.359,52.558 C 116.366,67.54 110.997,82.567 100.11,94.493 Z" stroke-width="0.541" stroke-linejoin="round" marker-start="none" marker-end="none" stroke-miterlimit="79.8403193612775"/>
      <path d="M 120.618,14.605 L 118.5,17.65 L 116.378,20.703 L 116.325,20.703 L 116.325,47.98 L 124.861,47.98 L 124.861,20.703 L 122.741,17.65 L 120.618,14.605 Z" stroke-width="0.103" stroke-linejoin="miter" marker-start="none" marker-end="none" stroke-miterlimit="79.8403193612775"/>
     </g>
     <g id="Group_3" stroke-linecap="round" stroke="none" fill="#e5e5e5">
      <path d="M 109.068,14.601 L 106.948,17.647 L 104.827,20.703 L 109.068,20.703 L 113.309,20.699 L 111.186,17.647 L 109.068,14.601 Z M 104.804,20.703 L 104.804,47.98 L 113.338,47.98 L 113.338,20.703 L 104.804,20.703 Z" stroke-width="0.103" stroke-linejoin="miter" marker-start="none" marker-end="none" stroke-miterlimit="79.8403193612775"/>
      <path d="M 91.756,86.871 C 81.716,97.862 67.961,103.449 54.156,103.454 L 54.156,111.935 C 70.263,111.931 86.313,105.416 98.022,92.588 C 108.416,81.201 113.536,66.858 113.533,52.558 L 105.047,52.558 C 105.057,64.815 100.662,77.107 91.756,86.871 Z" stroke-width="0.453" stroke-linejoin="round" marker-start="none" marker-end="none" stroke-miterlimit="79.8403193612775"/>
      <path d="M 0.505,103.422 L 0.505,111.954 L 49.668,111.954 L 49.668,103.422 L 0.505,103.422 Z" stroke-width="0.103" stroke-linejoin="miter" marker-start="none" marker-end="none" stroke-miterlimit="79.8403193612775"/>
     </g>
     <g id="Group_4" stroke-linecap="round" stroke="none" fill="#e5e5e5">
      <path d="M 97.752,14.601 L 95.636,17.647 L 93.515,20.703 L 97.756,20.703 L 101.999,20.699 L 99.879,17.647 L 97.752,14.601 Z M 93.506,20.703 L 93.506,47.98 L 102.041,47.98 L 102.041,20.703 L 93.506,20.703 Z" stroke-width="0.103" stroke-linejoin="miter" marker-start="none" marker-end="none" stroke-miterlimit="79.8403193612775"/>
      <path d="M 0.505,92.124 L 0.505,100.655 L 49.668,100.655 L 49.668,92.124 L 0.505,92.124 Z" stroke-width="0.103" stroke-linejoin="miter" marker-start="none" marker-end="none" stroke-miterlimit="79.8403193612775"/>
      <path d="M 83.401,79.244 C 75.594,87.796 64.889,92.136 54.156,92.142 L 54.156,100.626 C 67.198,100.623 80.188,95.35 89.667,84.961 C 98.078,75.746 102.226,64.13 102.224,52.558 L 93.742,52.558 C 93.742,62.09 90.328,71.655 83.401,79.244 Z" stroke-width="0.368" stroke-linejoin="round" marker-start="none" marker-end="none" stroke-miterlimit="79.8403193612775"/>
     </g>
     <g id="Group_5" stroke-linecap="round" stroke="none" fill="#11a7e0">
      <path d="M 0.505,80.828 L 0.505,89.362 L 49.668,89.362 L 49.668,80.828 L 0.505,80.828 Z" stroke-width="0.103" stroke-linejoin="miter" marker-start="none" marker-end="none" stroke-miterlimit="79.8403193612775"/>
      <path d="M 75.046,71.623 C 69.468,77.73 61.83,80.83 54.156,80.833 L 54.156,89.32 C 64.126,89.311 74.065,85.278 81.308,77.34 C 87.747,70.291 90.918,61.414 90.914,52.558 L 82.426,52.558 C 82.433,59.365 79.991,66.197 75.046,71.623 Z" stroke-width="0.281" stroke-linejoin="round" marker-start="none" marker-end="none" stroke-miterlimit="79.8403193612775"/>
      <path d="M 86.699,14.605 L 84.567,17.65 L 82.426,20.703 L 82.426,20.703 L 82.426,47.98 L 90.965,47.98 L 90.965,20.703 L 90.965,20.703 L 88.835,17.647 L 86.699,14.605 Z" stroke-width="0.103" stroke-linejoin="miter" marker-start="none" marker-end="none" stroke-miterlimit="79.8403193612775"/>
     </g>
     <g id="Group_6" stroke-linejoin="miter" stroke-miterlimit="79.8403193612775">
      <path d="M 21.355,24.9 C 12.458,35.44 13.783,51.226 24.335,60.11 C 34.866,69.024 50.631,67.692 59.532,57.154 C 68.446,46.614 67.11,30.84 56.556,21.937 C 46.025,13.041 30.253,14.372 21.355,24.9 Z" stroke="none" fill="#000000" stroke-width="1.039" marker-start="none" marker-end="none" stroke-miterlimit="19.9600798403194"/>
      <path d="M 22.532,25.857 C 13.645,36.402 14.961,52.155 25.505,61.072 C 36.048,69.945 51.815,68.63 60.732,58.092 C 69.626,47.555 68.293,31.772 57.746,22.875 C 47.218,13.979 31.437,15.303 22.532,25.857 Z" stroke="#b2b2b2" stroke-width="5.658" marker-start="none" marker-end="none" stroke-miterlimit="19.9600798403194"/>
     </g>
     <g id="Group_7" stroke-linejoin="miter" stroke-miterlimit="79.8403193612775">
      <path d="M 168.726,100.697 C 162.826,107.675 163.705,118.135 170.7,124.044 C 177.682,129.936 188.135,129.057 194.039,122.07 C 199.948,115.078 199.062,104.624 192.065,98.719 C 185.083,92.824 174.626,93.703 168.726,100.697 Z" stroke="none" fill="#000000" stroke-width="0.686" marker-start="none" marker-end="none" stroke-miterlimit="19.9600798403194"/>
      <path d="M 169.504,101.306 C 163.613,108.304 164.485,118.763 171.478,124.656 C 178.467,130.565 188.919,129.682 194.835,122.689 C 200.732,115.707 199.847,105.255 192.853,99.35 C 185.874,93.444 175.41,94.323 169.504,101.306 Z" stroke="#b2b2b2" stroke-width="3.752" marker-start="none" marker-end="none" stroke-miterlimit="19.9600798403194"/>
     </g>
     <g id="Group_8" stroke-linejoin="miter" stroke-miterlimit="79.8403193612775">
      <path d="M 19.229,93.504 C 14.704,98.86 15.38,106.876 20.738,111.4 C 26.094,115.923 34.115,115.251 38.634,109.893 C 43.159,104.537 42.484,96.518 37.125,91.998 C 31.771,87.47 23.751,88.153 19.229,93.504 Z" stroke="none" fill="#ffffff" stroke-width="0.526" marker-start="none" marker-end="none" stroke-miterlimit="19.9600798403194"/>
      <path d="M 19.832,93.986 C 15.308,99.335 15.984,107.357 21.34,111.878 C 26.699,116.406 34.715,115.728 39.239,110.369 C 43.767,105.018 43.09,96.995 37.73,92.471 C 32.37,87.95 24.355,88.624 19.832,93.986 Z" fill="none" stroke="#55bae6" stroke-width="2.872" marker-start="none" marker-end="none" stroke-miterlimit="19.9600798403194"/>
     </g>
     <g id="Group_9" stroke-linejoin="miter" stroke-miterlimit="79.8403193612775">
      <path d="M 76.537,81.555 C 72.016,86.906 72.691,94.925 78.048,99.453 C 83.405,103.969 91.424,103.296 95.948,97.938 C 100.471,92.584 99.791,84.567 94.437,80.044 C 89.081,75.52 81.062,76.196 76.537,81.555 Z" stroke="none" fill="#ffffff" stroke-width="0.526" marker-start="none" marker-end="none" stroke-miterlimit="19.9600798403194"/>
      <path d="M 77.146,82.033 C 72.618,87.387 73.292,95.403 78.652,99.927 C 84.01,104.452 92.025,103.778 96.55,98.416 C 101.078,93.06 100.393,85.043 95.042,80.517 C 89.682,75.992 81.667,76.673 77.146,82.033 Z" fill="none" stroke="#55bae6" stroke-width="2.872" marker-start="none" marker-end="none" stroke-miterlimit="19.9600798403194"/>
     </g>
     <g id="Group_10" stroke-linejoin="miter" stroke-miterlimit="79.8403193612775">
      <path d="M 93.325,23.925 C 88.801,29.281 89.48,37.298 94.835,41.826 C 100.196,46.347 108.215,45.669 112.738,40.311 C 117.266,34.959 116.584,26.936 111.227,22.417 C 105.867,17.898 97.851,18.572 93.325,23.925 Z" stroke="none" fill="#ffffff" stroke-width="0.526" marker-start="none" marker-end="none" stroke-miterlimit="19.9600798403194"/>
      <path d="M 93.932,24.409 C 89.408,29.76 90.085,37.779 95.443,42.304 C 100.803,46.825 108.818,46.151 113.341,40.791 C 117.867,35.438 117.19,27.418 111.834,22.897 C 106.472,18.372 98.455,19.048 93.932,24.409 Z" fill="none" stroke="#55bae6" stroke-width="2.872" marker-start="none" marker-end="none" stroke-miterlimit="19.9600798403194"/>
     </g>
     <g id="Group_11" stroke-linejoin="miter" stroke-miterlimit="79.8403193612775">
      <path d="M 128.041,100.684 C 122.141,107.673 123.02,118.141 130.017,124.032 C 137,129.943 147.454,129.06 153.356,122.072 C 159.267,115.083 158.381,104.623 151.383,98.719 C 144.4,92.82 133.941,93.703 128.041,100.684 Z" stroke="none" fill="#ffffff" stroke-width="0.689" marker-start="none" marker-end="none" stroke-miterlimit="19.9600798403194"/>
      <path d="M 128.821,101.319 C 122.928,108.311 123.801,118.757 130.793,124.67 C 137.784,130.554 148.239,129.682 154.152,122.694 C 160.05,115.707 159.166,105.241 152.172,99.341 C 145.191,93.442 134.726,94.32 128.821,101.319 Z" stroke="#55bae6" stroke-width="3.752" marker-start="none" marker-end="none" stroke-miterlimit="19.9600798403194"/>
     </g>
     <g id="Group_12" stroke-linejoin="miter" stroke-miterlimit="79.8403193612775">
      <path d="M 152.066,24.889 C 143.169,35.429 144.494,51.215 155.046,60.099 C 165.577,69.013 181.342,67.681 190.243,57.143 C 199.157,46.603 197.821,30.829 187.267,21.926 C 176.736,13.03 160.964,14.361 152.066,24.889 Z" stroke="none" fill="#ffffff" stroke-width="1.039" marker-start="none" marker-end="none" stroke-miterlimit="19.9600798403194"/>
      <path d="M 153.243,25.846 C 144.356,36.391 145.672,52.144 156.216,61.061 C 166.759,69.934 182.526,68.619 191.443,58.081 C 200.337,47.544 199.004,31.761 188.457,22.864 C 177.929,13.968 162.148,15.292 153.243,25.846 Z" stroke="#55bae6" stroke-width="5.658" marker-start="none" marker-end="none" stroke-miterlimit="19.9600798403194"/>
     </g>
     <g id="Group_13" fill-rule="nonzero" stroke-linejoin="round" stroke-linecap="round" stroke="none" stroke-width="0.485" fill="#b2b2b2" stroke-miterlimit="79.8403193612775">
      <g id="Group_14">
       <path d="M 181.349,119.258 C 182.05,119.258 182.682,119.156 183.244,118.951 C 183.806,118.747 184.285,118.462 184.682,118.099 C 185.078,117.735 185.382,117.301 185.593,116.798 C 185.804,116.294 185.91,115.74 185.91,115.136 C 185.91,114.616 185.837,114.135 185.69,113.693 C 185.544,113.251 185.344,112.831 185.091,112.431 C 184.838,112.032 184.544,111.645 184.209,111.271 C 183.874,110.898 183.519,110.519 183.142,110.136 L 180.364,107.29 C 180.722,107.395 181.074,107.478 181.422,107.54 C 181.769,107.603 182.096,107.633 182.401,107.633 L 185.052,107.633 C 185.377,107.633 185.633,107.544 185.822,107.365 C 186.01,107.186 186.105,106.95 186.105,106.658 L 186.105,104.902 L 176.125,104.902 L 176.125,105.877 C 176.125,106.065 176.164,106.266 176.242,106.481 C 176.32,106.695 176.457,106.89 176.651,107.066 L 180.745,111.189 C 181.095,111.54 181.401,111.875 181.661,112.193 C 181.92,112.511 182.135,112.825 182.304,113.133 C 182.473,113.442 182.599,113.751 182.684,114.059 C 182.768,114.368 182.811,114.695 182.811,115.039 C 182.811,115.604 182.676,116.038 182.406,116.34 C 182.136,116.642 181.726,116.794 181.173,116.794 C 180.946,116.794 180.738,116.761 180.55,116.696 C 180.361,116.631 180.192,116.543 180.043,116.433 C 179.893,116.323 179.765,116.193 179.658,116.043 C 179.551,115.894 179.465,115.731 179.4,115.556 C 179.296,115.264 179.164,115.053 179.005,114.923 C 178.846,114.793 178.63,114.728 178.357,114.728 C 178.292,114.728 178.222,114.731 178.147,114.737 C 178.073,114.744 177.996,114.753 177.918,114.766 L 176.32,115.044 C 176.424,115.753 176.624,116.371 176.919,116.898 C 177.215,117.425 177.582,117.863 178.021,118.215 C 178.459,118.566 178.961,118.827 179.526,119 C 180.092,119.172 180.699,119.258 181.349,119.258 Z" marker-start="none" marker-end="none"/>
      </g>
     </g>
     <g id="Group_15" fill-rule="nonzero" stroke-linejoin="round" stroke-linecap="round" stroke="none" stroke-width="0.387" fill="#000000" stroke-miterlimit="79.8403193612775">
      <g id="Group_16">
       <path d="M 25.933,105.621 L 25.933,102.539 L 28.812,102.539 L 28.812,100.81 L 25.933,100.81 L 25.933,97.713 L 23.972,97.713 L 23.972,100.81 L 21.108,100.81 L 21.108,102.539 L 23.972,102.539 L 23.972,105.621 L 25.933,105.621 Z" marker-start="none" marker-end="none"/>
       <path d="M 31.443,98.188 L 33.622,98.188 L 33.622,103.908 C 33.622,104.189 33.63,104.482 33.645,104.788 L 32.361,103.721 C 32.278,103.654 32.195,103.606 32.112,103.577 C 32.029,103.549 31.949,103.535 31.871,103.535 C 31.736,103.535 31.616,103.564 31.509,103.624 C 31.403,103.684 31.324,103.747 31.272,103.815 L 30.509,104.827 L 34.042,107.792 L 36.035,107.792 L 36.035,98.188 L 37.902,98.188 L 37.902,96.444 L 31.443,96.444 L 31.443,98.188 Z" marker-start="none" marker-end="none"/>
      </g>
     </g>
     <g id="Group_17" fill-rule="nonzero" stroke-linejoin="round" stroke-linecap="round" stroke="none" stroke-width="0.485" fill="#000000" stroke-miterlimit="79.8403193612775">
      <g id="Group_18">
       <path d="M 145.239,110.417 L 146.7,110.417 L 146.7,108.722 C 146.7,108.572 146.65,108.443 146.549,108.332 C 146.449,108.222 146.304,108.166 146.116,108.166 L 145.239,108.166 L 145.239,104.902 L 142.607,104.902 L 142.607,108.166 L 136.896,108.166 C 136.708,108.166 136.537,108.225 136.385,108.342 C 136.232,108.459 136.136,108.605 136.097,108.78 L 135.785,110.272 L 142.354,119.104 L 145.239,119.104 L 145.239,110.417 Z M 142.607,114.121 C 142.607,114.349 142.615,114.594 142.632,114.857 C 142.648,115.12 142.672,115.391 142.705,115.671 L 138.953,110.417 L 142.607,110.417 L 142.607,114.121 Z" marker-start="none" marker-end="none"/>
      </g>
     </g>
     <g id="Group_19" fill-rule="nonzero" stroke-linejoin="round" stroke-linecap="round" stroke="none" stroke-width="0.387" fill="#000000" stroke-miterlimit="79.8403193612775">
      <g id="Group_20">
       <path d="M 82.67,94.476 L 82.67,91.394 L 85.549,91.394 L 85.549,89.665 L 82.67,89.665 L 82.67,86.568 L 80.709,86.568 L 80.709,89.665 L 77.845,89.665 L 77.845,91.394 L 80.709,91.394 L 80.709,94.476 L 82.67,94.476 Z" marker-start="none" marker-end="none"/>
       <path d="M 88.18,87.043 L 90.359,87.043 L 90.359,92.763 C 90.359,93.044 90.367,93.337 90.382,93.643 L 89.098,92.576 C 89.015,92.509 88.932,92.461 88.849,92.432 C 88.766,92.404 88.686,92.39 88.608,92.39 C 88.473,92.39 88.353,92.419 88.246,92.479 C 88.14,92.539 88.061,92.602 88.009,92.67 L 87.246,93.682 L 90.779,96.647 L 92.772,96.647 L 92.772,87.043 L 94.639,87.043 L 94.639,85.299 L 88.18,85.299 L 88.18,87.043 Z" marker-start="none" marker-end="none"/>
      </g>
     </g>
     <g id="Group_21" fill-rule="nonzero" stroke-linejoin="round" stroke-linecap="round" stroke="none" stroke-width="0.387" fill="#000000" stroke-miterlimit="79.8403193612775">
      <g id="Group_22">
       <path d="M 98.934,36.107 L 98.934,33.025 L 101.813,33.025 L 101.813,31.296 L 98.934,31.296 L 98.934,28.199 L 96.973,28.199 L 96.973,31.296 L 94.109,31.296 L 94.109,33.025 L 96.973,33.025 L 96.973,36.107 L 98.934,36.107 Z" marker-start="none" marker-end="none"/>
       <path d="M 104.444,28.674 L 106.623,28.674 L 106.623,34.394 C 106.623,34.675 106.631,34.968 106.646,35.274 L 105.362,34.207 C 105.279,34.14 105.196,34.092 105.113,34.063 C 105.03,34.035 104.95,34.021 104.872,34.021 C 104.737,34.021 104.617,34.05 104.51,34.11 C 104.404,34.17 104.325,34.233 104.273,34.301 L 103.51,35.313 L 107.043,38.278 L 109.036,38.278 L 109.036,28.674 L 110.903,28.674 L 110.903,26.93 L 104.444,26.93 L 104.444,28.674 Z" marker-start="none" marker-end="none"/>
      </g>
     </g>
     <g id="Group_23" fill-rule="nonzero" stroke-linejoin="round" stroke-linecap="round" stroke="none" stroke-width="0.319" fill="#ffffff" stroke-miterlimit="79.8403193612775">
      <g id="Group_24">
       <path d="M 34.34,151.069 C 34.391,151.069 34.443,151.06 34.494,151.04 C 34.545,151.02 34.594,150.987 34.641,150.939 L 35.497,150.018 C 35.122,149.536 34.652,149.172 34.088,148.926 C 33.523,148.681 32.855,148.558 32.084,148.558 C 31.376,148.558 30.742,148.678 30.182,148.919 C 29.622,149.16 29.146,149.493 28.756,149.917 C 28.367,150.341 28.067,150.844 27.858,151.426 C 27.65,152.007 27.545,152.639 27.545,153.321 C 27.545,154.016 27.664,154.654 27.903,155.236 C 28.142,155.818 28.475,156.32 28.904,156.742 C 29.332,157.164 29.844,157.492 30.441,157.726 C 31.038,157.961 31.696,158.078 32.416,158.078 C 32.766,158.078 33.095,158.047 33.404,157.985 C 33.713,157.923 34.001,157.838 34.27,157.729 C 34.538,157.62 34.786,157.49 35.011,157.338 C 35.237,157.187 35.438,157.019 35.612,156.836 L 34.884,155.858 C 34.837,155.798 34.781,155.744 34.717,155.695 C 34.653,155.646 34.564,155.621 34.449,155.621 C 34.372,155.621 34.3,155.638 34.232,155.672 C 34.163,155.706 34.091,155.748 34.014,155.797 C 33.938,155.846 33.853,155.899 33.762,155.957 C 33.67,156.014 33.561,156.068 33.436,156.117 C 33.31,156.166 33.163,156.207 32.995,156.241 C 32.826,156.275 32.629,156.292 32.403,156.293 C 32.011,156.292 31.653,156.223 31.329,156.085 C 31.006,155.946 30.727,155.748 30.495,155.49 C 30.263,155.232 30.082,154.92 29.952,154.554 C 29.822,154.187 29.757,153.776 29.757,153.32 C 29.757,152.842 29.822,152.418 29.952,152.047 C 30.082,151.677 30.259,151.364 30.482,151.111 C 30.706,150.857 30.967,150.664 31.266,150.532 C 31.564,150.4 31.883,150.334 32.224,150.334 C 32.42,150.334 32.599,150.344 32.761,150.363 C 32.923,150.382 33.073,150.415 33.212,150.462 C 33.35,150.509 33.483,150.569 33.608,150.644 C 33.734,150.719 33.861,150.811 33.989,150.922 C 34.04,150.965 34.095,151 34.155,151.028 C 34.215,151.055 34.276,151.069 34.34,151.069 Z" marker-start="none" marker-end="none"/>
       <path d="M 45.677,153.321 C 45.677,152.648 45.561,152.021 45.329,151.442 C 45.097,150.862 44.77,150.358 44.348,149.929 C 43.926,149.501 43.418,149.165 42.823,148.922 C 42.229,148.679 41.569,148.558 40.845,148.558 C 40.12,148.558 39.46,148.679 38.863,148.922 C 38.266,149.165 37.756,149.501 37.332,149.929 C 36.908,150.358 36.58,150.862 36.348,151.442 C 36.115,152.021 35.999,152.648 35.999,153.321 C 35.999,153.995 36.115,154.621 36.348,155.201 C 36.58,155.781 36.908,156.283 37.332,156.71 C 37.756,157.136 38.266,157.471 38.863,157.714 C 39.46,157.956 40.12,158.078 40.845,158.078 C 41.569,158.078 42.229,157.955 42.823,157.71 C 43.418,157.465 43.926,157.13 44.348,156.703 C 44.77,156.277 45.097,155.774 45.329,155.194 C 45.561,154.615 45.677,153.99 45.677,153.321 Z M 43.466,153.321 C 43.466,153.781 43.406,154.195 43.287,154.564 C 43.167,154.932 42.996,155.245 42.772,155.5 C 42.548,155.756 42.274,155.952 41.951,156.088 C 41.627,156.224 41.258,156.292 40.845,156.293 C 40.427,156.292 40.055,156.224 39.729,156.088 C 39.403,155.952 39.128,155.756 38.905,155.5 C 38.681,155.245 38.509,154.932 38.39,154.564 C 38.271,154.195 38.211,153.781 38.211,153.321 C 38.211,152.857 38.271,152.44 38.39,152.072 C 38.509,151.703 38.681,151.391 38.905,151.136 C 39.128,150.88 39.403,150.685 39.729,150.551 C 40.055,150.417 40.427,150.35 40.845,150.35 C 41.258,150.35 41.627,150.417 41.951,150.551 C 42.274,150.685 42.548,150.88 42.772,151.136 C 42.996,151.391 43.167,151.703 43.287,152.072 C 43.406,152.44 43.466,152.857 43.466,153.321 Z" marker-start="none" marker-end="none"/>
       <path d="M 47.849,157.978 C 47.943,157.978 48.022,157.974 48.085,157.965 C 48.149,157.957 48.207,157.941 48.258,157.917 C 48.309,157.894 48.358,157.861 48.405,157.818 C 48.452,157.775 48.505,157.718 48.565,157.646 L 52.988,152.052 C 52.971,152.231 52.959,152.405 52.95,152.573 C 52.942,152.741 52.937,152.9 52.937,153.05 L 52.937,157.978 L 54.842,157.978 L 54.842,148.661 L 53.717,148.661 C 53.551,148.661 53.41,148.687 53.295,148.738 C 53.18,148.789 53.069,148.883 52.963,149.019 L 48.571,154.568 C 48.584,154.406 48.595,154.247 48.603,154.091 C 48.612,153.936 48.616,153.79 48.616,153.653 L 48.616,148.661 L 46.711,148.661 L 46.711,157.978 L 47.849,157.978 Z" marker-start="none" marker-end="none"/>
       <path d="M 61.566,156.083 C 61.502,155.98 61.435,155.904 61.364,155.853 C 61.294,155.801 61.203,155.776 61.093,155.776 C 60.995,155.776 60.889,155.807 60.776,155.869 C 60.663,155.93 60.535,156 60.393,156.076 C 60.25,156.153 60.087,156.222 59.904,156.284 C 59.72,156.346 59.512,156.377 59.277,156.377 C 58.872,156.377 58.571,156.291 58.373,156.118 C 58.175,155.945 58.075,155.712 58.075,155.418 C 58.075,155.23 58.135,155.075 58.254,154.951 C 58.374,154.828 58.53,154.721 58.724,154.631 C 58.918,154.542 59.14,154.46 59.389,154.385 C 59.638,154.311 59.893,154.228 60.153,154.136 C 60.413,154.044 60.668,153.937 60.917,153.813 C 61.166,153.69 61.388,153.532 61.582,153.34 C 61.776,153.148 61.932,152.915 62.052,152.64 C 62.171,152.365 62.231,152.034 62.231,151.646 C 62.231,151.215 62.156,150.813 62.007,150.438 C 61.858,150.063 61.641,149.735 61.358,149.456 C 61.075,149.177 60.725,148.958 60.31,148.798 C 59.894,148.638 59.422,148.558 58.894,148.558 C 58.604,148.558 58.309,148.588 58.008,148.648 C 57.708,148.707 57.417,148.791 57.136,148.9 C 56.855,149.009 56.59,149.138 56.343,149.287 C 56.096,149.436 55.881,149.602 55.697,149.786 L 56.337,150.796 C 56.384,150.873 56.45,150.934 56.535,150.981 C 56.62,151.028 56.712,151.052 56.81,151.052 C 56.938,151.052 57.067,151.011 57.197,150.93 C 57.326,150.849 57.474,150.76 57.638,150.662 C 57.802,150.564 57.99,150.474 58.203,150.393 C 58.416,150.312 58.668,150.272 58.958,150.272 C 59.35,150.272 59.654,150.358 59.872,150.53 C 60.089,150.703 60.198,150.977 60.198,151.352 C 60.198,151.57 60.138,151.746 60.019,151.883 C 59.899,152.019 59.743,152.132 59.549,152.222 C 59.355,152.311 59.134,152.39 58.887,152.458 C 58.64,152.526 58.387,152.602 58.127,152.685 C 57.867,152.768 57.613,152.87 57.366,152.992 C 57.119,153.113 56.898,153.273 56.704,153.471 C 56.51,153.67 56.354,153.917 56.234,154.213 C 56.115,154.509 56.055,154.875 56.055,155.31 C 56.055,155.659 56.126,156 56.266,156.333 C 56.407,156.665 56.614,156.961 56.886,157.221 C 57.159,157.481 57.494,157.689 57.89,157.845 C 58.286,158 58.74,158.078 59.252,158.078 C 59.537,158.078 59.815,158.056 60.086,158.011 C 60.356,157.966 60.613,157.9 60.856,157.812 C 61.099,157.725 61.326,157.621 61.537,157.499 C 61.748,157.378 61.936,157.24 62.103,157.087 L 61.566,156.083 Z" marker-start="none" marker-end="none"/>
       <path d="M 67.178,150.368 C 67.468,150.368 67.727,150.416 67.955,150.512 C 68.183,150.608 68.375,150.745 68.533,150.925 C 68.691,151.104 68.811,151.322 68.894,151.58 C 68.977,151.838 69.019,152.131 69.019,152.459 L 69.019,157.976 L 71.18,157.976 L 71.18,152.458 C 71.18,151.887 71.087,151.363 70.901,150.885 C 70.716,150.408 70.451,149.997 70.106,149.651 C 69.76,149.306 69.341,149.038 68.846,148.846 C 68.352,148.654 67.796,148.558 67.178,148.558 C 66.556,148.558 65.997,148.654 65.503,148.846 C 65.009,149.038 64.589,149.306 64.244,149.651 C 63.899,149.997 63.634,150.408 63.451,150.885 C 63.268,151.363 63.176,151.887 63.176,152.458 L 63.176,157.976 L 65.337,157.976 L 65.337,152.465 C 65.337,152.137 65.378,151.844 65.462,151.586 C 65.545,151.328 65.665,151.109 65.823,150.928 C 65.98,150.747 66.173,150.608 66.401,150.512 C 66.629,150.416 66.888,150.368 67.178,150.368 Z" marker-start="none" marker-end="none"/>
       <path d="M 77.349,152.891 C 77.435,152.728 77.517,152.558 77.596,152.382 C 77.674,152.206 77.75,152.026 77.822,151.842 C 77.895,152.031 77.972,152.214 78.053,152.392 C 78.134,152.57 78.217,152.743 78.302,152.91 L 80.693,157.647 C 80.735,157.728 80.779,157.792 80.824,157.837 C 80.868,157.882 80.919,157.915 80.974,157.937 C 81.029,157.958 81.092,157.969 81.162,157.969 C 81.233,157.969 81.315,157.969 81.409,157.969 L 83.058,157.969 L 83.058,148.661 L 81.153,148.661 L 81.153,153.948 C 81.153,154.205 81.166,154.482 81.191,154.781 L 78.724,150.067 C 78.647,149.92 78.544,149.809 78.414,149.733 C 78.284,149.658 78.136,149.62 77.969,149.62 L 77.675,149.62 C 77.509,149.62 77.361,149.658 77.231,149.733 C 77.101,149.809 76.998,149.92 76.921,150.067 L 74.441,154.787 C 74.458,154.64 74.471,154.494 74.479,154.349 C 74.488,154.204 74.492,154.07 74.492,153.948 L 74.492,148.661 L 72.587,148.661 L 72.587,157.969 L 74.236,157.969 C 74.33,157.969 74.412,157.969 74.482,157.969 C 74.553,157.969 74.616,157.958 74.671,157.937 C 74.726,157.915 74.776,157.882 74.821,157.837 C 74.866,157.792 74.91,157.728 74.952,157.647 L 77.349,152.891 Z" marker-start="none" marker-end="none"/>
       <path d="M 90.588,157.978 L 90.588,156.314 L 86.766,156.314 L 86.766,154.139 L 89.693,154.139 L 89.693,152.541 L 86.766,152.541 L 86.766,150.325 L 90.588,150.325 L 90.588,148.661 L 84.592,148.661 L 84.592,157.978 L 90.588,157.978 Z" marker-start="none" marker-end="none"/>
       <path d="M 93.976,152.107 L 93.976,148.661 L 91.815,148.661 L 91.815,157.975 L 94.845,157.975 C 95.518,157.975 96.093,157.906 96.568,157.767 C 97.043,157.628 97.431,157.435 97.731,157.188 C 98.032,156.94 98.25,156.648 98.386,156.311 C 98.523,155.974 98.591,155.607 98.591,155.21 C 98.591,154.907 98.551,154.621 98.47,154.352 C 98.389,154.084 98.268,153.835 98.108,153.607 C 97.949,153.378 97.753,153.175 97.52,152.995 C 97.288,152.816 97.021,152.669 96.718,152.554 C 96.863,152.482 96.998,152.392 97.124,152.286 C 97.25,152.179 97.359,152.05 97.453,151.896 L 99.435,148.661 L 97.479,148.661 C 97.117,148.661 96.857,148.797 96.699,149.07 L 95.152,151.774 C 95.084,151.894 95.004,151.979 94.912,152.03 C 94.821,152.081 94.692,152.107 94.525,152.107 L 93.976,152.107 Z M 93.976,153.596 L 94.845,153.596 C 95.139,153.596 95.39,153.633 95.596,153.708 C 95.803,153.782 95.972,153.886 96.104,154.018 C 96.236,154.15 96.332,154.304 96.392,154.481 C 96.452,154.658 96.482,154.849 96.482,155.054 C 96.482,155.463 96.348,155.783 96.082,156.013 C 95.816,156.243 95.403,156.358 94.845,156.358 L 93.976,156.358 L 93.976,153.596 Z" marker-start="none" marker-end="none"/>
      </g>
     </g>
     <g id="Group_25" fill-rule="nonzero" stroke-linejoin="round" stroke-linecap="round" stroke="none" stroke-width="0.365" fill="#000000" stroke-miterlimit="79.8403193612775">
      <g id="Group_26">
       <path d="M 72.712,177.248 L 70.793,177.248 C 70.578,177.248 70.401,177.298 70.262,177.398 C 70.122,177.498 70.026,177.627 69.972,177.783 L 69.342,179.645 L 65.283,179.645 L 64.653,177.783 C 64.604,177.646 64.509,177.523 64.367,177.413 C 64.225,177.303 64.052,177.248 63.847,177.248 L 61.913,177.248 L 66.045,187.925 L 68.58,187.925 L 72.712,177.248 Z M 65.854,181.33 L 68.771,181.33 L 67.789,184.209 C 67.725,184.391 67.651,184.607 67.565,184.854 C 67.48,185.102 67.396,185.37 67.312,185.659 C 67.234,185.365 67.154,185.094 67.071,184.843 C 66.988,184.594 66.91,184.377 66.836,184.194 L 65.854,181.33 Z" marker-start="none" marker-end="none"/>
       <path d="M 76.285,177.248 L 73.794,177.248 L 73.794,187.927 L 76.285,187.927 L 76.285,177.248 Z" marker-start="none" marker-end="none"/>
       <path d="M 80.738,181.198 L 80.738,177.248 L 78.261,177.248 L 78.261,187.923 L 81.734,187.923 C 82.506,187.923 83.164,187.844 83.709,187.685 C 84.253,187.526 84.698,187.305 85.042,187.021 C 85.387,186.737 85.637,186.402 85.793,186.016 C 85.949,185.63 86.028,185.209 86.028,184.754 C 86.028,184.407 85.981,184.079 85.888,183.771 C 85.796,183.463 85.658,183.178 85.474,182.916 C 85.291,182.655 85.067,182.421 84.8,182.216 C 84.534,182.011 84.228,181.842 83.881,181.71 C 84.047,181.627 84.202,181.524 84.346,181.402 C 84.49,181.281 84.616,181.132 84.723,180.956 L 86.995,177.248 L 84.753,177.248 C 84.338,177.248 84.04,177.404 83.859,177.717 L 82.086,180.817 C 82.008,180.953 81.916,181.051 81.811,181.11 C 81.706,181.168 81.558,181.198 81.368,181.198 L 80.738,181.198 Z M 80.738,182.904 L 81.734,182.904 C 82.071,182.904 82.358,182.947 82.595,183.032 C 82.832,183.118 83.026,183.236 83.177,183.388 C 83.329,183.539 83.439,183.716 83.507,183.919 C 83.576,184.122 83.61,184.341 83.61,184.575 C 83.61,185.044 83.457,185.411 83.152,185.674 C 82.847,185.938 82.374,186.07 81.734,186.07 L 80.738,186.07 L 80.738,182.904 Z" marker-start="none" marker-end="none"/>
       <path d="M 90.484,179.226 L 94.44,179.226 L 94.44,177.248 L 88.007,177.248 L 88.007,187.925 L 90.484,187.925 L 90.484,179.226 Z" marker-start="none" marker-end="none"/>
       <path d="M 98.324,177.248 L 95.833,177.248 L 95.833,187.927 L 98.324,187.927 L 98.324,177.248 Z" marker-start="none" marker-end="none"/>
       <path d="M 101.604,187.927 C 101.712,187.927 101.802,187.922 101.875,187.912 C 101.949,187.903 102.015,187.884 102.073,187.857 C 102.132,187.83 102.188,187.792 102.242,187.744 C 102.296,187.695 102.357,187.629 102.425,187.546 L 107.495,181.135 C 107.476,181.34 107.461,181.539 107.451,181.732 C 107.441,181.925 107.436,182.107 107.436,182.278 L 107.436,187.927 L 109.62,187.927 L 109.62,177.248 L 108.33,177.248 C 108.14,177.248 107.979,177.277 107.847,177.336 C 107.715,177.395 107.588,177.502 107.466,177.658 L 102.432,184.018 C 102.447,183.832 102.459,183.65 102.469,183.472 C 102.479,183.294 102.484,183.127 102.484,182.97 L 102.484,177.248 L 100.3,177.248 L 100.3,187.927 L 101.604,187.927 Z" marker-start="none" marker-end="none"/>
       <path d="M 118.249,187.927 L 118.249,186.02 L 113.867,186.02 L 113.867,183.527 L 117.223,183.527 L 117.223,181.695 L 113.867,181.695 L 113.867,179.155 L 118.249,179.155 L 118.249,177.248 L 111.376,177.248 L 111.376,187.927 L 118.249,187.927 Z" marker-start="none" marker-end="none"/>
       <path d="M 119.274,178.538 C 119.274,178.694 119.304,178.84 119.362,178.974 C 119.421,179.109 119.505,179.226 119.615,179.326 C 119.725,179.426 119.854,179.505 120.003,179.564 C 120.152,179.623 120.32,179.652 120.505,179.652 C 120.725,179.652 120.915,179.614 121.077,179.538 C 121.238,179.463 121.372,179.36 121.48,179.231 C 121.587,179.101 121.666,178.952 121.718,178.784 C 121.769,178.615 121.795,178.438 121.795,178.252 C 121.795,178.008 121.756,177.748 121.677,177.472 C 121.599,177.196 121.483,176.919 121.329,176.64 C 121.176,176.362 120.984,176.088 120.754,175.819 C 120.525,175.551 120.261,175.306 119.963,175.087 L 119.567,175.438 C 119.514,175.492 119.473,175.542 119.446,175.589 C 119.42,175.635 119.406,175.692 119.406,175.761 C 119.406,175.81 119.423,175.862 119.457,175.918 C 119.492,175.975 119.533,176.025 119.582,176.069 C 119.641,176.127 119.709,176.198 119.787,176.281 C 119.865,176.364 119.943,176.457 120.022,176.56 C 120.1,176.662 120.172,176.775 120.238,176.897 C 120.304,177.019 120.354,177.148 120.388,177.285 C 120.217,177.3 120.063,177.341 119.926,177.41 C 119.79,177.478 119.674,177.569 119.578,177.681 C 119.483,177.793 119.409,177.921 119.355,178.066 C 119.301,178.21 119.274,178.367 119.274,178.538 Z" marker-start="none" marker-end="none"/>
       <path d="M 128.648,177.248 L 126.157,177.248 L 126.157,187.927 L 128.648,187.927 L 128.648,177.248 Z" marker-start="none" marker-end="none"/>
       <path d="M 131.928,187.927 C 132.036,187.927 132.126,187.922 132.199,187.912 C 132.273,187.903 132.339,187.884 132.397,187.857 C 132.456,187.83 132.512,187.792 132.566,187.744 C 132.62,187.695 132.681,187.629 132.749,187.546 L 137.819,181.135 C 137.8,181.34 137.785,181.539 137.775,181.732 C 137.765,181.925 137.76,182.107 137.76,182.278 L 137.76,187.927 L 139.944,187.927 L 139.944,177.248 L 138.654,177.248 C 138.464,177.248 138.303,177.277 138.171,177.336 C 138.039,177.395 137.912,177.502 137.79,177.658 L 132.756,184.018 C 132.771,183.832 132.783,183.65 132.793,183.472 C 132.803,183.294 132.808,183.127 132.808,182.97 L 132.808,177.248 L 130.624,177.248 L 130.624,187.927 L 131.928,187.927 Z" marker-start="none" marker-end="none"/>
       <path d="M 148.873,180.008 C 148.932,180.008 148.99,179.997 149.049,179.975 C 149.108,179.952 149.164,179.914 149.217,179.859 L 150.199,178.804 C 149.769,178.251 149.231,177.833 148.584,177.552 C 147.937,177.271 147.171,177.13 146.287,177.13 C 145.476,177.13 144.749,177.268 144.107,177.544 C 143.465,177.82 142.92,178.201 142.473,178.687 C 142.026,179.173 141.683,179.75 141.444,180.417 C 141.204,181.084 141.085,181.808 141.085,182.589 C 141.085,183.386 141.222,184.117 141.495,184.784 C 141.769,185.451 142.151,186.026 142.642,186.51 C 143.133,186.993 143.72,187.37 144.404,187.638 C 145.088,187.907 145.842,188.041 146.668,188.041 C 147.068,188.041 147.446,188.006 147.8,187.935 C 148.154,187.864 148.485,187.766 148.793,187.641 C 149.1,187.517 149.384,187.368 149.642,187.194 C 149.901,187.02 150.131,186.828 150.331,186.618 L 149.496,185.497 C 149.442,185.428 149.379,185.366 149.305,185.31 C 149.232,185.254 149.13,185.226 148.998,185.226 C 148.91,185.226 148.827,185.245 148.749,185.284 C 148.67,185.323 148.587,185.371 148.499,185.427 C 148.412,185.483 148.315,185.544 148.21,185.61 C 148.105,185.676 147.98,185.737 147.836,185.794 C 147.692,185.85 147.524,185.897 147.331,185.937 C 147.138,185.975 146.912,185.995 146.653,185.995 C 146.204,185.995 145.793,185.916 145.422,185.757 C 145.051,185.598 144.732,185.371 144.466,185.075 C 144.2,184.78 143.992,184.422 143.843,184.002 C 143.694,183.582 143.62,183.11 143.62,182.588 C 143.62,182.04 143.694,181.554 143.843,181.129 C 143.992,180.704 144.195,180.347 144.451,180.056 C 144.708,179.765 145.007,179.544 145.349,179.393 C 145.691,179.241 146.057,179.166 146.448,179.166 C 146.673,179.166 146.878,179.177 147.063,179.199 C 147.249,179.221 147.421,179.258 147.58,179.312 C 147.739,179.366 147.89,179.435 148.034,179.521 C 148.178,179.606 148.324,179.713 148.47,179.84 C 148.529,179.889 148.592,179.929 148.661,179.961 C 148.729,179.992 148.8,180.008 148.873,180.008 Z" marker-start="none" marker-end="none"/>
       <path d="M 150.892,178.398 C 150.892,178.574 150.925,178.738 150.991,178.889 C 151.056,179.041 151.147,179.173 151.262,179.285 C 151.376,179.398 151.512,179.487 151.668,179.553 C 151.825,179.619 151.996,179.652 152.181,179.652 C 152.362,179.652 152.53,179.619 152.687,179.553 C 152.843,179.487 152.98,179.398 153.097,179.285 C 153.214,179.173 153.306,179.041 153.372,178.889 C 153.438,178.738 153.471,178.574 153.471,178.398 C 153.471,178.222 153.438,178.057 153.372,177.903 C 153.306,177.749 153.214,177.616 153.097,177.504 C 152.98,177.391 152.843,177.303 152.687,177.24 C 152.53,177.176 152.362,177.144 152.181,177.144 C 151.996,177.144 151.825,177.176 151.668,177.24 C 151.512,177.303 151.376,177.391 151.262,177.504 C 151.147,177.616 151.056,177.749 150.991,177.903 C 150.925,178.057 150.892,178.222 150.892,178.398 Z" marker-start="none" marker-end="none"/>
      </g>
     </g>
    </g>
   </g>
  </g>
 </g>
</svg>
