<?xml version="1.0" standalone="no"?>
<!DOCTYPE svg PUBLIC "-//W3C//DTD SVG 1.1//EN" "http://www.w3.org/Graphics/SVG/1.1/DTD/svg11.dtd">
<!--Generator: Xara Designer (www.xara.com), SVG filter version: 6.2.0.0-->
<svg stroke-width="0.501" stroke-linejoin="bevel" fill-rule="evenodd" xmlns:xlink="http://www.w3.org/1999/xlink" xmlns="http://www.w3.org/2000/svg" version="1.1" overflow="visible" width="215.434pt" height="215.434pt" viewBox="0 0 215.434 215.434">
 <defs>
	</defs>
 <g id="Document" fill="none" stroke="black" font-family="Times New Roman" font-size="16" transform="scale(1 -1)">
  <g id="Spread" transform="translate(0 -215.434)">
   <g id="Layer 1">
    <g id="Group">
     <path d="M 199.757,214.933 L 15.176,214.933 C 6.799,214.933 0,208.134 0,199.757 L 0,15.176 C 0,6.799 6.799,0 15.176,0 L 199.757,0 C 208.134,0 214.933,6.799 214.933,15.176 L 214.933,199.757 C 214.933,208.134 208.134,214.933 199.757,214.933 Z" stroke="#999999" fill="#ffffff" stroke-linejoin="miter" marker-start="none" marker-end="none"/>
     <path d="M 15.005,146.115 L 15.005,180.007 L 118.593,180.007 L 118.593,146.115 L 15.005,146.115 Z" stroke-linejoin="miter" stroke-linecap="round" stroke="#95afc0" fill="#95afc0" stroke-width="1.738" marker-start="none" marker-end="none" stroke-miterlimit="79.8403193612775"/>
     <path d="M 15.005,144.772 L 15.005,154.582 C 15.005,157.153 17.089,159.23 19.651,159.23 L 113.943,159.23 C 116.505,159.23 118.593,157.153 118.593,154.582 L 118.593,144.772 C 118.593,142.196 116.505,140.118 113.943,140.118 L 19.651,140.118 C 17.089,140.118 15.005,142.196 15.005,144.772 Z" stroke-linejoin="miter" stroke-linecap="round" stroke="#95afc0" fill="#95afc0" stroke-width="1.738" marker-start="none" marker-end="none" stroke-miterlimit="79.8403193612775"/>
     <path d="M 15.702,173.665 L 15.702,191.31 C 15.702,195.923 19.446,199.669 24.064,199.669 L 191.11,199.669 C 195.723,199.669 199.471,195.923 199.471,191.31 L 199.471,173.665 C 199.471,169.047 195.723,165.299 191.11,165.299 L 24.064,165.299 C 19.446,165.299 15.702,169.047 15.702,173.665 Z" stroke-linejoin="miter" stroke-linecap="round" stroke="#95afc0" fill="#ffffff" stroke-width="3.13" marker-start="none" marker-end="none" stroke-miterlimit="79.8403193612775"/>
     <path d="M 100.464,0.438 L 91.93,0.438 L 91.93,49.601 L 100.464,49.601 L 100.464,0.438 Z" stroke-linecap="round" stroke="none" fill="#e5e5e5" stroke-width="0.103" stroke-linejoin="miter" marker-start="none" marker-end="none" stroke-miterlimit="79.8403193612775"/>
     <path d="M 120.696,100.043 C 107.257,87.775 100.428,70.962 100.425,54.089 L 91.946,54.089 C 91.951,73.261 99.701,92.374 114.97,106.308 C 128.531,118.682 145.608,124.783 162.631,124.778 L 162.631,116.292 C 147.649,116.299 132.622,110.93 120.696,100.043 Z" stroke-linecap="round" stroke="none" fill="#e5e5e5" stroke-width="0.541" stroke-linejoin="round" marker-start="none" marker-end="none" stroke-miterlimit="79.8403193612775"/>
     <path d="M 200.584,120.551 L 197.539,118.433 L 194.486,116.311 L 194.486,116.258 L 167.209,116.258 L 167.209,124.794 L 194.486,124.794 L 197.539,122.674 L 200.584,120.551 Z" stroke-linecap="round" stroke="none" fill="#e5e5e5" stroke-width="0.103" stroke-linejoin="miter" marker-start="none" marker-end="none" stroke-miterlimit="79.8403193612775"/>
     <path d="M 200.588,109.001 L 197.542,106.881 L 194.486,104.76 L 194.486,109.001 L 194.49,113.242 L 197.542,111.119 L 200.588,109.001 Z M 194.486,104.737 L 167.209,104.737 L 167.209,113.271 L 194.486,113.271 L 194.486,104.737 Z" stroke-linecap="round" stroke="none" fill="#e5e5e5" stroke-width="0.103" stroke-linejoin="miter" marker-start="none" marker-end="none" stroke-miterlimit="79.8403193612775"/>
     <path d="M 128.318,91.689 C 117.327,81.649 111.74,67.894 111.735,54.089 L 103.254,54.089 C 103.258,70.196 109.773,86.246 122.601,97.955 C 133.988,108.349 148.331,113.469 162.631,113.466 L 162.631,104.98 C 150.374,104.99 138.082,100.595 128.318,91.689 Z" stroke-linecap="round" stroke="none" fill="#e5e5e5" stroke-width="0.453" stroke-linejoin="round" marker-start="none" marker-end="none" stroke-miterlimit="79.8403193612775"/>
     <path d="M 111.767,0.438 L 103.235,0.438 L 103.235,49.601 L 111.767,49.601 L 111.767,0.438 Z" stroke-linecap="round" stroke="none" fill="#e5e5e5" stroke-width="0.103" stroke-linejoin="miter" marker-start="none" marker-end="none" stroke-miterlimit="79.8403193612775"/>
     <path d="M 200.588,97.685 L 197.542,95.569 L 194.486,93.448 L 194.486,97.689 L 194.49,101.932 L 197.542,99.812 L 200.588,97.685 Z M 194.486,93.439 L 167.209,93.439 L 167.209,101.974 L 194.486,101.974 L 194.486,93.439 Z" stroke-linecap="round" stroke="none" fill="#e5e5e5" stroke-width="0.103" stroke-linejoin="miter" marker-start="none" marker-end="none" stroke-miterlimit="79.8403193612775"/>
     <path d="M 123.065,0.438 L 114.534,0.438 L 114.534,49.601 L 123.065,49.601 L 123.065,0.438 Z" stroke-linecap="round" stroke="none" fill="#e5e5e5" stroke-width="0.103" stroke-linejoin="miter" marker-start="none" marker-end="none" stroke-miterlimit="79.8403193612775"/>
     <path d="M 135.945,83.334 C 127.393,75.527 123.053,64.822 123.047,54.089 L 114.563,54.089 C 114.566,67.131 119.839,80.121 130.228,89.6 C 139.443,98.011 151.059,102.159 162.631,102.157 L 162.631,93.675 C 153.099,93.675 143.534,90.261 135.945,83.334 Z" stroke-linecap="round" stroke="none" fill="#e5e5e5" stroke-width="0.368" stroke-linejoin="round" marker-start="none" marker-end="none" stroke-miterlimit="79.8403193612775"/>
     <path d="M 134.361,0.438 L 125.827,0.438 L 125.827,49.601 L 134.361,49.601 L 134.361,0.438 Z" stroke-linecap="round" stroke="none" fill="#11a7e0" stroke-width="0.103" stroke-linejoin="miter" marker-start="none" marker-end="none" stroke-miterlimit="79.8403193612775"/>
     <path d="M 143.566,74.979 C 137.459,69.401 134.359,61.763 134.356,54.089 L 125.869,54.089 C 125.878,64.059 129.911,73.998 137.849,81.241 C 144.898,87.68 153.775,90.851 162.631,90.847 L 162.631,82.359 C 155.824,82.366 148.992,79.924 143.566,74.979 Z" stroke-linecap="round" stroke="none" fill="#11a7e0" stroke-width="0.281" stroke-linejoin="round" marker-start="none" marker-end="none" stroke-miterlimit="79.8403193612775"/>
     <path d="M 200.584,86.632 L 197.539,84.5 L 194.486,82.359 L 194.486,82.359 L 167.209,82.359 L 167.209,90.898 L 194.486,90.898 L 194.486,90.898 L 197.542,88.768 L 200.584,86.632 Z" stroke-linecap="round" stroke="none" fill="#11a7e0" stroke-width="0.103" stroke-linejoin="miter" marker-start="none" marker-end="none" stroke-miterlimit="79.8403193612775"/>
     <path d="M 59.5,89.157 C 53.6,96.135 54.479,106.595 61.474,112.504 C 68.456,118.396 78.909,117.517 84.813,110.53 C 90.722,103.538 89.836,93.084 82.839,87.179 C 75.857,81.284 65.4,82.163 59.5,89.157 Z" stroke-linejoin="miter" stroke="none" fill="#000000" stroke-width="0.686" marker-start="none" marker-end="none" stroke-miterlimit="79.8403193612775"/>
     <path d="M 60.278,89.766 C 54.387,96.764 55.259,107.223 62.252,113.116 C 69.241,119.025 79.693,118.142 85.609,111.149 C 91.506,104.167 90.621,93.715 83.627,87.81 C 76.648,81.904 66.184,82.783 60.278,89.766 Z" stroke-linejoin="miter" stroke="#b2b2b2" stroke-width="3.752" marker-start="none" marker-end="none" stroke-miterlimit="79.8403193612775"/>
     <path d="M 18.815,89.144 C 12.915,96.133 13.794,106.601 20.791,112.492 C 27.774,118.403 38.228,117.52 44.13,110.532 C 50.041,103.543 49.155,93.083 42.157,87.179 C 35.174,81.28 24.715,82.163 18.815,89.144 Z" stroke-linejoin="miter" stroke="none" fill="#ffffff" stroke-width="0.689" marker-start="none" marker-end="none" stroke-miterlimit="79.8403193612775"/>
     <path d="M 19.595,89.779 C 13.702,96.771 14.575,107.217 21.567,113.13 C 28.558,119.014 39.013,118.142 44.926,111.154 C 50.824,104.167 49.94,93.701 42.946,87.801 C 35.965,81.902 25.5,82.78 19.595,89.779 Z" stroke-linejoin="miter" stroke="#55bae6" stroke-width="3.752" marker-start="none" marker-end="none" stroke-miterlimit="79.8403193612775"/>
     <path d="M 21.355,24.9 C 12.458,35.44 13.783,51.226 24.335,60.11 C 34.866,69.024 50.631,67.692 59.532,57.154 C 68.446,46.614 67.11,30.84 56.556,21.937 C 46.025,13.041 30.253,14.372 21.355,24.9 Z" stroke-linejoin="miter" stroke="none" fill="#ffffff" stroke-width="1.039" marker-start="none" marker-end="none" stroke-miterlimit="79.8403193612775"/>
     <path d="M 22.532,25.857 C 13.645,36.402 14.961,52.155 25.505,61.072 C 36.048,69.945 51.815,68.63 60.732,58.092 C 69.626,47.555 68.293,31.772 57.746,22.875 C 47.218,13.979 31.437,15.303 22.532,25.857 Z" stroke-linejoin="miter" stroke="#55bae6" stroke-width="5.658" marker-start="none" marker-end="none" stroke-miterlimit="79.8403193612775"/>
     <path d="M 152.945,24.496 C 144.048,35.036 145.373,50.822 155.925,59.706 C 166.456,68.62 182.221,67.288 191.122,56.75 C 200.036,46.21 198.7,30.436 188.146,21.533 C 177.615,12.637 161.843,13.968 152.945,24.496 Z" stroke-linejoin="miter" stroke="none" fill="#000000" stroke-width="1.039" marker-start="none" marker-end="none" stroke-miterlimit="79.8403193612775"/>
     <path d="M 154.122,25.453 C 145.235,35.998 146.551,51.751 157.095,60.668 C 167.638,69.541 183.405,68.226 192.322,57.688 C 201.216,47.151 199.883,31.368 189.336,22.471 C 178.808,13.575 163.027,14.899 154.122,25.453 Z" stroke-linejoin="miter" stroke="#b2b2b2" stroke-width="5.658" marker-start="none" marker-end="none" stroke-miterlimit="79.8403193612775"/>
     <path d="M 102.705,20.796 C 98.18,26.152 98.856,34.168 104.214,38.692 C 109.57,43.215 117.591,42.543 122.11,37.185 C 126.635,31.829 125.96,23.81 120.601,19.29 C 115.247,14.762 107.227,15.445 102.705,20.796 Z" stroke-linejoin="miter" stroke="none" fill="#ffffff" stroke-width="0.526" marker-start="none" marker-end="none" stroke-miterlimit="79.8403193612775"/>
     <path d="M 103.308,21.278 C 98.784,26.627 99.46,34.649 104.816,39.17 C 110.175,43.698 118.191,43.02 122.715,37.661 C 127.243,32.31 126.566,24.287 121.206,19.763 C 115.846,15.242 107.831,15.916 103.308,21.278 Z" fill="none" stroke-linejoin="miter" stroke="#55bae6" stroke-width="2.872" marker-start="none" marker-end="none" stroke-miterlimit="79.8403193612775"/>
     <path d="M 114.656,78.11 C 110.135,83.461 110.81,91.48 116.167,96.008 C 121.524,100.524 129.543,99.851 134.067,94.493 C 138.59,89.139 137.91,81.122 132.556,76.599 C 127.2,72.075 119.181,72.751 114.656,78.11 Z" stroke-linejoin="miter" stroke="none" fill="#ffffff" stroke-width="0.526" marker-start="none" marker-end="none" stroke-miterlimit="79.8403193612775"/>
     <path d="M 115.265,78.588 C 110.737,83.942 111.411,91.958 116.771,96.482 C 122.129,101.007 130.144,100.333 134.669,94.971 C 139.197,89.615 138.512,81.598 133.161,77.072 C 127.801,72.547 119.786,73.228 115.265,78.588 Z" fill="none" stroke-linejoin="miter" stroke="#55bae6" stroke-width="2.872" marker-start="none" marker-end="none" stroke-miterlimit="79.8403193612775"/>
     <path d="M 172.277,94.895 C 167.753,100.251 168.432,108.268 173.787,112.796 C 179.148,117.317 187.167,116.639 191.69,111.281 C 196.218,105.929 195.536,97.906 190.179,93.387 C 184.819,88.868 176.803,89.542 172.277,94.895 Z" stroke-linejoin="miter" stroke="none" fill="#ffffff" stroke-width="0.526" marker-start="none" marker-end="none" stroke-miterlimit="79.8403193612775"/>
     <path d="M 172.884,95.379 C 168.36,100.73 169.037,108.749 174.395,113.274 C 179.755,117.795 187.77,117.121 192.293,111.761 C 196.819,106.408 196.142,98.388 190.786,93.867 C 185.424,89.342 177.407,90.018 172.884,95.379 Z" fill="none" stroke-linejoin="miter" stroke="#55bae6" stroke-width="2.872" marker-start="none" marker-end="none" stroke-miterlimit="79.8403193612775"/>
     <g id="Group_1" fill-rule="nonzero" stroke-linejoin="round" stroke-linecap="round" stroke="none" stroke-width="0.485" fill="#b2b2b2" stroke-miterlimit="79.8403193612775">
      <g id="Group_2">
       <path d="M 72.123,107.718 C 72.824,107.718 73.456,107.616 74.018,107.411 C 74.58,107.207 75.059,106.922 75.456,106.559 C 75.852,106.195 76.156,105.761 76.367,105.258 C 76.578,104.754 76.684,104.2 76.684,103.596 C 76.684,103.076 76.611,102.595 76.464,102.153 C 76.318,101.711 76.118,101.291 75.865,100.891 C 75.612,100.492 75.318,100.105 74.983,99.731 C 74.648,99.358 74.293,98.979 73.916,98.596 L 71.138,95.75 C 71.496,95.855 71.848,95.938 72.196,96 C 72.543,96.063 72.87,96.093 73.175,96.093 L 75.826,96.093 C 76.151,96.093 76.407,96.004 76.596,95.825 C 76.784,95.646 76.879,95.41 76.879,95.118 L 76.879,93.362 L 66.899,93.362 L 66.899,94.337 C 66.899,94.525 66.938,94.726 67.016,94.941 C 67.094,95.155 67.231,95.35 67.425,95.526 L 71.519,99.649 C 71.869,100 72.175,100.335 72.435,100.653 C 72.694,100.971 72.909,101.285 73.078,101.593 C 73.247,101.902 73.373,102.211 73.458,102.519 C 73.542,102.828 73.585,103.155 73.585,103.499 C 73.585,104.064 73.45,104.498 73.18,104.8 C 72.91,105.102 72.5,105.254 71.947,105.254 C 71.72,105.254 71.512,105.221 71.324,105.156 C 71.135,105.091 70.966,105.003 70.817,104.893 C 70.667,104.783 70.539,104.653 70.432,104.503 C 70.325,104.354 70.239,104.191 70.174,104.016 C 70.07,103.724 69.938,103.513 69.779,103.383 C 69.62,103.253 69.404,103.188 69.131,103.188 C 69.066,103.188 68.996,103.191 68.921,103.197 C 68.847,103.204 68.77,103.213 68.692,103.226 L 67.094,103.504 C 67.198,104.213 67.398,104.831 67.693,105.358 C 67.989,105.885 68.356,106.323 68.795,106.675 C 69.233,107.026 69.735,107.287 70.3,107.46 C 70.866,107.632 71.473,107.718 72.123,107.718 Z" marker-start="none" marker-end="none"/>
      </g>
     </g>
     <g id="Group_3" fill-rule="nonzero" stroke-linejoin="round" stroke-linecap="round" stroke="none" stroke-width="0.485" fill="#000000" stroke-miterlimit="79.8403193612775">
      <g id="Group_4">
       <path d="M 36.013,98.877 L 37.474,98.877 L 37.474,97.182 C 37.474,97.032 37.424,96.903 37.323,96.792 C 37.223,96.682 37.078,96.626 36.89,96.626 L 36.013,96.626 L 36.013,93.362 L 33.381,93.362 L 33.381,96.626 L 27.67,96.626 C 27.482,96.626 27.311,96.685 27.159,96.802 C 27.006,96.919 26.91,97.065 26.871,97.24 L 26.559,98.732 L 33.128,107.564 L 36.013,107.564 L 36.013,98.877 Z M 33.381,102.581 C 33.381,102.809 33.389,103.054 33.406,103.317 C 33.422,103.58 33.446,103.851 33.479,104.131 L 29.727,98.877 L 33.381,98.877 L 33.381,102.581 Z" marker-start="none" marker-end="none"/>
      </g>
     </g>
     <g id="Group_5" fill-rule="nonzero" stroke-linejoin="round" stroke-linecap="round" stroke="none" stroke-width="0.319" fill="#ffffff" stroke-miterlimit="79.8403193612775">
      <g id="Group_6">
       <path d="M 27.495,151.776 L 27.495,148.663 L 25.334,148.663 L 25.334,157.978 L 28.62,157.978 C 29.276,157.978 29.84,157.9 30.311,157.745 C 30.781,157.589 31.169,157.375 31.474,157.102 C 31.779,156.829 32.003,156.507 32.148,156.137 C 32.293,155.766 32.366,155.365 32.366,154.935 C 32.366,154.47 32.291,154.044 32.142,153.656 C 31.993,153.268 31.765,152.935 31.458,152.658 C 31.151,152.381 30.762,152.165 30.291,152.009 C 29.82,151.854 29.263,151.776 28.62,151.776 L 27.495,151.776 Z M 27.495,153.405 L 28.62,153.405 C 29.182,153.405 29.587,153.54 29.834,153.808 C 30.082,154.077 30.205,154.453 30.205,154.934 C 30.205,155.148 30.173,155.342 30.109,155.517 C 30.045,155.692 29.948,155.842 29.818,155.968 C 29.688,156.093 29.524,156.191 29.326,156.259 C 29.128,156.327 28.893,156.361 28.62,156.361 L 27.495,156.361 L 27.495,153.405 Z" marker-start="none" marker-end="none"/>
       <path d="M 35.654,152.107 L 35.654,148.661 L 33.493,148.661 L 33.493,157.975 L 36.523,157.975 C 37.196,157.975 37.771,157.906 38.246,157.767 C 38.721,157.628 39.109,157.435 39.409,157.188 C 39.71,156.94 39.928,156.648 40.064,156.311 C 40.201,155.974 40.269,155.607 40.269,155.21 C 40.269,154.907 40.229,154.621 40.148,154.352 C 40.067,154.084 39.946,153.835 39.786,153.607 C 39.627,153.378 39.431,153.175 39.198,152.995 C 38.966,152.816 38.699,152.669 38.396,152.554 C 38.541,152.482 38.676,152.392 38.802,152.286 C 38.928,152.179 39.037,152.05 39.131,151.896 L 41.113,148.661 L 39.157,148.661 C 38.795,148.661 38.535,148.797 38.377,149.07 L 36.83,151.774 C 36.762,151.894 36.682,151.979 36.59,152.03 C 36.499,152.081 36.37,152.107 36.203,152.107 L 35.654,152.107 Z M 35.654,153.596 L 36.523,153.596 C 36.817,153.596 37.068,153.633 37.274,153.708 C 37.481,153.782 37.65,153.886 37.782,154.018 C 37.914,154.15 38.01,154.304 38.07,154.481 C 38.13,154.658 38.16,154.849 38.16,155.054 C 38.16,155.463 38.026,155.783 37.76,156.013 C 37.494,156.243 37.081,156.358 36.523,156.358 L 35.654,156.358 L 35.654,153.596 Z" marker-start="none" marker-end="none"/>
       <path d="M 50.869,153.321 C 50.869,152.648 50.753,152.021 50.521,151.442 C 50.289,150.862 49.962,150.358 49.54,149.929 C 49.118,149.501 48.61,149.165 48.015,148.922 C 47.421,148.679 46.761,148.558 46.037,148.558 C 45.312,148.558 44.652,148.679 44.055,148.922 C 43.458,149.165 42.948,149.501 42.524,149.929 C 42.1,150.358 41.772,150.862 41.54,151.442 C 41.307,152.021 41.191,152.648 41.191,153.321 C 41.191,153.995 41.307,154.621 41.54,155.201 C 41.772,155.781 42.1,156.283 42.524,156.71 C 42.948,157.136 43.458,157.471 44.055,157.714 C 44.652,157.956 45.312,158.078 46.037,158.078 C 46.761,158.078 47.421,157.955 48.015,157.71 C 48.61,157.465 49.118,157.13 49.54,156.703 C 49.962,156.277 50.289,155.774 50.521,155.194 C 50.753,154.615 50.869,153.99 50.869,153.321 Z M 48.658,153.321 C 48.658,153.781 48.598,154.195 48.479,154.564 C 48.359,154.932 48.188,155.245 47.964,155.5 C 47.74,155.756 47.466,155.952 47.143,156.088 C 46.819,156.224 46.45,156.292 46.037,156.293 C 45.619,156.292 45.247,156.224 44.921,156.088 C 44.595,155.952 44.32,155.756 44.097,155.5 C 43.873,155.245 43.701,154.932 43.582,154.564 C 43.463,154.195 43.403,153.781 43.403,153.321 C 43.403,152.857 43.463,152.44 43.582,152.072 C 43.701,151.703 43.873,151.391 44.097,151.136 C 44.32,150.88 44.595,150.685 44.921,150.551 C 45.247,150.417 45.619,150.35 46.037,150.35 C 46.45,150.35 46.819,150.417 47.143,150.551 C 47.466,150.685 47.74,150.88 47.964,151.136 C 48.188,151.391 48.359,151.703 48.479,152.072 C 48.598,152.44 48.658,152.857 48.658,153.321 Z" marker-start="none" marker-end="none"/>
       <path d="M 60.354,153.323 C 60.354,152.649 60.238,152.028 60.005,151.459 C 59.773,150.89 59.446,150.397 59.024,149.982 C 58.602,149.566 58.094,149.242 57.5,149.01 C 56.905,148.777 56.246,148.661 55.521,148.661 L 51.903,148.661 L 51.903,157.978 L 55.521,157.978 C 56.246,157.978 56.905,157.861 57.5,157.626 C 58.094,157.392 58.602,157.068 59.024,156.654 C 59.446,156.241 59.773,155.749 60.005,155.18 C 60.238,154.611 60.354,153.992 60.354,153.323 Z M 58.142,153.323 C 58.142,153.783 58.082,154.198 57.963,154.569 C 57.844,154.94 57.672,155.254 57.448,155.512 C 57.225,155.77 56.951,155.968 56.627,156.107 C 56.303,156.245 55.935,156.314 55.521,156.314 L 54.077,156.314 L 54.077,150.325 L 55.521,150.325 C 55.935,150.325 56.303,150.394 56.627,150.532 C 56.951,150.671 57.225,150.869 57.448,151.127 C 57.672,151.385 57.844,151.699 57.963,152.07 C 58.082,152.441 58.142,152.858 58.142,153.323 Z" marker-start="none" marker-end="none"/>
       <path d="M 65.266,150.368 C 65.556,150.368 65.815,150.416 66.043,150.512 C 66.271,150.608 66.463,150.745 66.621,150.925 C 66.779,151.104 66.899,151.322 66.982,151.58 C 67.065,151.838 67.107,152.131 67.107,152.459 L 67.107,157.976 L 69.268,157.976 L 69.268,152.458 C 69.268,151.887 69.175,151.363 68.989,150.885 C 68.804,150.408 68.539,149.997 68.194,149.651 C 67.848,149.306 67.429,149.038 66.934,148.846 C 66.44,148.654 65.884,148.558 65.266,148.558 C 64.644,148.558 64.085,148.654 63.591,148.846 C 63.097,149.038 62.677,149.306 62.332,149.651 C 61.987,149.997 61.722,150.408 61.539,150.885 C 61.356,151.363 61.264,151.887 61.264,152.458 L 61.264,157.976 L 63.425,157.976 L 63.425,152.465 C 63.425,152.137 63.466,151.844 63.55,151.586 C 63.633,151.328 63.753,151.109 63.911,150.928 C 64.068,150.747 64.261,150.608 64.489,150.512 C 64.717,150.416 64.976,150.368 65.266,150.368 Z" marker-start="none" marker-end="none"/>
       <path d="M 76.933,151.069 C 76.984,151.069 77.036,151.06 77.087,151.04 C 77.138,151.02 77.187,150.987 77.234,150.939 L 78.09,150.018 C 77.715,149.536 77.245,149.172 76.681,148.926 C 76.116,148.681 75.448,148.558 74.677,148.558 C 73.969,148.558 73.335,148.678 72.775,148.919 C 72.215,149.16 71.739,149.493 71.349,149.917 C 70.96,150.341 70.66,150.844 70.451,151.426 C 70.243,152.007 70.138,152.639 70.138,153.321 C 70.138,154.016 70.257,154.654 70.496,155.236 C 70.735,155.818 71.068,156.32 71.497,156.742 C 71.925,157.164 72.437,157.492 73.034,157.726 C 73.631,157.961 74.289,158.078 75.009,158.078 C 75.359,158.078 75.688,158.047 75.997,157.985 C 76.306,157.923 76.594,157.838 76.863,157.729 C 77.131,157.62 77.379,157.49 77.604,157.338 C 77.83,157.187 78.031,157.019 78.205,156.836 L 77.477,155.858 C 77.43,155.798 77.374,155.744 77.31,155.695 C 77.246,155.646 77.157,155.621 77.042,155.621 C 76.965,155.621 76.893,155.638 76.825,155.672 C 76.756,155.706 76.684,155.748 76.607,155.797 C 76.531,155.846 76.446,155.899 76.355,155.957 C 76.263,156.014 76.154,156.068 76.029,156.117 C 75.903,156.166 75.756,156.207 75.588,156.241 C 75.419,156.275 75.222,156.292 74.996,156.293 C 74.604,156.292 74.246,156.223 73.922,156.085 C 73.599,155.946 73.32,155.748 73.088,155.49 C 72.856,155.232 72.675,154.92 72.545,154.554 C 72.415,154.187 72.35,153.776 72.35,153.32 C 72.35,152.842 72.415,152.418 72.545,152.047 C 72.675,151.677 72.852,151.364 73.075,151.111 C 73.299,150.857 73.56,150.664 73.859,150.532 C 74.157,150.4 74.476,150.334 74.817,150.334 C 75.013,150.334 75.192,150.344 75.354,150.363 C 75.516,150.382 75.666,150.415 75.805,150.462 C 75.943,150.509 76.076,150.569 76.201,150.644 C 76.327,150.719 76.454,150.811 76.582,150.922 C 76.633,150.965 76.688,151 76.748,151.028 C 76.808,151.055 76.869,151.069 76.933,151.069 Z" marker-start="none" marker-end="none"/>
       <path d="M 85.841,157.978 L 85.841,156.264 L 83.22,156.264 L 83.22,148.663 L 81.06,148.663 L 81.06,156.264 L 78.439,156.264 L 78.439,157.978 L 85.841,157.978 Z" marker-start="none" marker-end="none"/>
       <path d="M 89.103,148.661 L 86.93,148.661 L 86.93,157.978 L 89.103,157.978 L 89.103,148.661 Z" marker-start="none" marker-end="none"/>
       <path d="M 100.019,153.321 C 100.019,152.648 99.903,152.021 99.671,151.442 C 99.439,150.862 99.112,150.358 98.69,149.929 C 98.268,149.501 97.76,149.165 97.165,148.922 C 96.571,148.679 95.911,148.558 95.187,148.558 C 94.462,148.558 93.802,148.679 93.205,148.922 C 92.608,149.165 92.098,149.501 91.674,149.929 C 91.25,150.358 90.922,150.862 90.69,151.442 C 90.457,152.021 90.341,152.648 90.341,153.321 C 90.341,153.995 90.457,154.621 90.69,155.201 C 90.922,155.781 91.25,156.283 91.674,156.71 C 92.098,157.136 92.608,157.471 93.205,157.714 C 93.802,157.956 94.462,158.078 95.187,158.078 C 95.911,158.078 96.571,157.955 97.165,157.71 C 97.76,157.465 98.268,157.13 98.69,156.703 C 99.112,156.277 99.439,155.774 99.671,155.194 C 99.903,154.615 100.019,153.99 100.019,153.321 Z M 97.808,153.321 C 97.808,153.781 97.748,154.195 97.629,154.564 C 97.509,154.932 97.338,155.245 97.114,155.5 C 96.89,155.756 96.616,155.952 96.293,156.088 C 95.969,156.224 95.6,156.292 95.187,156.293 C 94.769,156.292 94.397,156.224 94.071,156.088 C 93.745,155.952 93.47,155.756 93.247,155.5 C 93.023,155.245 92.851,154.932 92.732,154.564 C 92.613,154.195 92.553,153.781 92.553,153.321 C 92.553,152.857 92.613,152.44 92.732,152.072 C 92.851,151.703 93.023,151.391 93.247,151.136 C 93.47,150.88 93.745,150.685 94.071,150.551 C 94.397,150.417 94.769,150.35 95.187,150.35 C 95.6,150.35 95.969,150.417 96.293,150.551 C 96.616,150.685 96.89,150.88 97.114,151.136 C 97.338,151.391 97.509,151.703 97.629,152.072 C 97.748,152.44 97.808,152.857 97.808,153.321 Z" marker-start="none" marker-end="none"/>
       <path d="M 102.191,157.978 C 102.285,157.978 102.364,157.974 102.427,157.965 C 102.491,157.957 102.549,157.941 102.6,157.917 C 102.651,157.894 102.7,157.861 102.747,157.818 C 102.794,157.775 102.847,157.718 102.907,157.646 L 107.33,152.052 C 107.313,152.231 107.301,152.405 107.292,152.573 C 107.284,152.741 107.279,152.9 107.279,153.05 L 107.279,157.978 L 109.184,157.978 L 109.184,148.661 L 108.059,148.661 C 107.893,148.661 107.752,148.687 107.637,148.738 C 107.522,148.789 107.411,148.883 107.305,149.019 L 102.913,154.568 C 102.926,154.406 102.937,154.247 102.945,154.091 C 102.954,153.936 102.958,153.79 102.958,153.653 L 102.958,148.661 L 101.053,148.661 L 101.053,157.978 L 102.191,157.978 Z" marker-start="none" marker-end="none"/>
      </g>
     </g>
     <g id="Group_7" fill-rule="nonzero" stroke-linejoin="round" stroke-linecap="round" stroke="none" stroke-width="0.365" fill="#000000" stroke-miterlimit="79.8403193612775">
      <g id="Group_8">
       <path d="M 65.275,177.159 L 63.356,177.159 C 63.141,177.159 62.964,177.209 62.825,177.309 C 62.685,177.409 62.589,177.538 62.535,177.694 L 61.905,179.556 L 57.846,179.556 L 57.216,177.694 C 57.167,177.557 57.072,177.434 56.93,177.324 C 56.788,177.214 56.615,177.159 56.41,177.159 L 54.476,177.159 L 58.608,187.836 L 61.143,187.836 L 65.275,177.159 Z M 58.417,181.241 L 61.334,181.241 L 60.352,184.12 C 60.288,184.302 60.214,184.518 60.128,184.765 C 60.043,185.013 59.959,185.281 59.875,185.57 C 59.797,185.276 59.717,185.005 59.634,184.754 C 59.551,184.505 59.473,184.288 59.399,184.105 L 58.417,181.241 Z" marker-start="none" marker-end="none"/>
       <path d="M 68.848,177.159 L 66.357,177.159 L 66.357,187.838 L 68.848,187.838 L 68.848,177.159 Z" marker-start="none" marker-end="none"/>
       <path d="M 73.301,181.109 L 73.301,177.159 L 70.824,177.159 L 70.824,187.834 L 74.297,187.834 C 75.069,187.834 75.727,187.755 76.272,187.596 C 76.816,187.437 77.261,187.216 77.605,186.932 C 77.95,186.648 78.2,186.313 78.356,185.927 C 78.512,185.541 78.591,185.12 78.591,184.665 C 78.591,184.318 78.544,183.99 78.451,183.682 C 78.359,183.374 78.221,183.089 78.037,182.827 C 77.854,182.566 77.63,182.332 77.363,182.127 C 77.097,181.922 76.791,181.753 76.444,181.621 C 76.61,181.538 76.765,181.435 76.909,181.313 C 77.053,181.192 77.179,181.043 77.286,180.867 L 79.558,177.159 L 77.316,177.159 C 76.901,177.159 76.603,177.315 76.422,177.628 L 74.649,180.728 C 74.571,180.864 74.479,180.962 74.374,181.021 C 74.269,181.079 74.121,181.109 73.931,181.109 L 73.301,181.109 Z M 73.301,182.815 L 74.297,182.815 C 74.634,182.815 74.921,182.858 75.158,182.943 C 75.395,183.029 75.589,183.147 75.74,183.299 C 75.892,183.45 76.002,183.627 76.07,183.83 C 76.139,184.033 76.173,184.252 76.173,184.486 C 76.173,184.955 76.02,185.322 75.715,185.585 C 75.41,185.849 74.937,185.981 74.297,185.981 L 73.301,185.981 L 73.301,182.815 Z" marker-start="none" marker-end="none"/>
       <path d="M 87.378,179.919 C 87.437,179.919 87.495,179.908 87.554,179.886 C 87.613,179.863 87.669,179.825 87.722,179.77 L 88.704,178.715 C 88.274,178.162 87.736,177.744 87.089,177.463 C 86.442,177.182 85.676,177.041 84.792,177.041 C 83.981,177.041 83.254,177.179 82.612,177.455 C 81.97,177.731 81.425,178.112 80.978,178.598 C 80.531,179.084 80.188,179.661 79.949,180.328 C 79.709,180.995 79.59,181.719 79.59,182.5 C 79.59,183.297 79.727,184.028 80,184.695 C 80.274,185.362 80.656,185.937 81.147,186.421 C 81.638,186.904 82.225,187.281 82.909,187.549 C 83.593,187.818 84.347,187.952 85.173,187.952 C 85.573,187.952 85.951,187.917 86.305,187.846 C 86.659,187.775 86.99,187.677 87.298,187.552 C 87.605,187.428 87.889,187.279 88.147,187.105 C 88.406,186.931 88.636,186.739 88.836,186.529 L 88.001,185.408 C 87.947,185.339 87.884,185.277 87.81,185.221 C 87.737,185.165 87.635,185.137 87.503,185.137 C 87.415,185.137 87.332,185.156 87.254,185.195 C 87.175,185.234 87.092,185.282 87.004,185.338 C 86.917,185.394 86.82,185.455 86.715,185.521 C 86.61,185.587 86.485,185.648 86.341,185.705 C 86.197,185.761 86.029,185.808 85.836,185.848 C 85.643,185.886 85.417,185.906 85.158,185.906 C 84.709,185.906 84.298,185.827 83.927,185.668 C 83.556,185.509 83.237,185.282 82.971,184.986 C 82.705,184.691 82.497,184.333 82.348,183.913 C 82.199,183.493 82.125,183.021 82.125,182.499 C 82.125,181.951 82.199,181.465 82.348,181.04 C 82.497,180.615 82.7,180.258 82.956,179.967 C 83.213,179.676 83.512,179.455 83.854,179.304 C 84.196,179.152 84.562,179.077 84.953,179.077 C 85.178,179.077 85.383,179.088 85.568,179.11 C 85.754,179.132 85.926,179.169 86.085,179.223 C 86.244,179.277 86.395,179.346 86.539,179.432 C 86.683,179.517 86.829,179.624 86.975,179.751 C 87.034,179.8 87.097,179.84 87.166,179.872 C 87.234,179.903 87.305,179.919 87.378,179.919 Z" marker-start="none" marker-end="none"/>
       <path d="M 92.313,181.109 L 92.313,177.159 L 89.836,177.159 L 89.836,187.834 L 93.309,187.834 C 94.081,187.834 94.739,187.755 95.284,187.596 C 95.828,187.437 96.273,187.216 96.617,186.932 C 96.962,186.648 97.212,186.313 97.368,185.927 C 97.524,185.541 97.603,185.12 97.603,184.665 C 97.603,184.318 97.556,183.99 97.463,183.682 C 97.371,183.374 97.233,183.089 97.049,182.827 C 96.866,182.566 96.642,182.332 96.375,182.127 C 96.109,181.922 95.803,181.753 95.456,181.621 C 95.622,181.538 95.777,181.435 95.921,181.313 C 96.065,181.192 96.191,181.043 96.298,180.867 L 98.57,177.159 L 96.328,177.159 C 95.913,177.159 95.615,177.315 95.434,177.628 L 93.661,180.728 C 93.583,180.864 93.491,180.962 93.386,181.021 C 93.281,181.079 93.133,181.109 92.943,181.109 L 92.313,181.109 Z M 92.313,182.815 L 93.309,182.815 C 93.646,182.815 93.933,182.858 94.17,182.943 C 94.407,183.029 94.601,183.147 94.752,183.299 C 94.904,183.45 95.014,183.627 95.082,183.83 C 95.151,184.033 95.185,184.252 95.185,184.486 C 95.185,184.955 95.032,185.322 94.727,185.585 C 94.422,185.849 93.949,185.981 93.309,185.981 L 92.313,185.981 L 92.313,182.815 Z" marker-start="none" marker-end="none"/>
       <path d="M 109.517,177.159 L 107.598,177.159 C 107.383,177.159 107.206,177.209 107.067,177.309 C 106.927,177.409 106.831,177.538 106.777,177.694 L 106.147,179.556 L 102.088,179.556 L 101.458,177.694 C 101.409,177.557 101.314,177.434 101.172,177.324 C 101.03,177.214 100.857,177.159 100.652,177.159 L 98.718,177.159 L 102.85,187.836 L 105.385,187.836 L 109.517,177.159 Z M 102.659,181.241 L 105.576,181.241 L 104.594,184.12 C 104.53,184.302 104.456,184.518 104.37,184.765 C 104.285,185.013 104.201,185.281 104.117,185.57 C 104.039,185.276 103.959,185.005 103.876,184.754 C 103.793,184.505 103.715,184.288 103.641,184.105 L 102.659,181.241 Z" marker-start="none" marker-end="none"/>
       <path d="M 117.252,187.834 L 117.252,185.928 L 112.87,185.928 L 112.87,183.227 L 116.519,183.227 L 116.519,181.312 L 112.87,181.312 L 112.87,177.157 L 110.379,177.157 L 110.379,187.834 L 117.252,187.834 Z" marker-start="none" marker-end="none"/>
       <path d="M 126.295,187.838 L 126.295,185.874 L 123.291,185.874 L 123.291,177.161 L 120.815,177.161 L 120.815,185.874 L 117.811,185.874 L 117.811,187.838 L 126.295,187.838 Z" marker-start="none" marker-end="none"/>
       <path d="M 125.624,178.449 C 125.624,178.605 125.654,178.751 125.712,178.885 C 125.771,179.02 125.855,179.137 125.965,179.237 C 126.075,179.337 126.204,179.416 126.353,179.475 C 126.502,179.534 126.67,179.563 126.855,179.563 C 127.075,179.563 127.265,179.525 127.427,179.449 C 127.588,179.374 127.722,179.271 127.83,179.142 C 127.937,179.012 128.016,178.863 128.068,178.695 C 128.119,178.526 128.145,178.349 128.145,178.163 C 128.145,177.919 128.106,177.659 128.027,177.383 C 127.949,177.107 127.833,176.83 127.679,176.551 C 127.526,176.273 127.334,175.999 127.104,175.73 C 126.875,175.462 126.611,175.217 126.313,174.998 L 125.917,175.349 C 125.864,175.403 125.823,175.453 125.796,175.5 C 125.77,175.546 125.756,175.603 125.756,175.672 C 125.756,175.721 125.773,175.773 125.807,175.829 C 125.842,175.886 125.883,175.936 125.932,175.98 C 125.991,176.038 126.059,176.109 126.137,176.192 C 126.215,176.275 126.293,176.368 126.372,176.471 C 126.45,176.573 126.522,176.686 126.588,176.808 C 126.654,176.93 126.704,177.059 126.738,177.196 C 126.567,177.211 126.413,177.252 126.276,177.321 C 126.14,177.389 126.024,177.48 125.928,177.592 C 125.833,177.704 125.759,177.832 125.705,177.977 C 125.651,178.121 125.624,178.278 125.624,178.449 Z" marker-start="none" marker-end="none"/>
       <path d="M 134.998,177.159 L 132.507,177.159 L 132.507,187.838 L 134.998,187.838 L 134.998,177.159 Z" marker-start="none" marker-end="none"/>
       <path d="M 138.278,187.838 C 138.386,187.838 138.476,187.833 138.549,187.823 C 138.623,187.814 138.689,187.795 138.747,187.768 C 138.806,187.741 138.862,187.703 138.916,187.655 C 138.97,187.606 139.031,187.54 139.099,187.457 L 144.169,181.046 C 144.15,181.251 144.135,181.45 144.125,181.643 C 144.115,181.836 144.11,182.018 144.11,182.189 L 144.11,187.838 L 146.294,187.838 L 146.294,177.159 L 145.004,177.159 C 144.814,177.159 144.653,177.188 144.521,177.247 C 144.389,177.306 144.262,177.413 144.14,177.569 L 139.106,183.929 C 139.121,183.743 139.133,183.561 139.143,183.383 C 139.153,183.205 139.158,183.038 139.158,182.881 L 139.158,177.159 L 136.974,177.159 L 136.974,187.838 L 138.278,187.838 Z" marker-start="none" marker-end="none"/>
       <path d="M 155.223,179.919 C 155.282,179.919 155.34,179.908 155.399,179.886 C 155.458,179.863 155.514,179.825 155.567,179.77 L 156.549,178.715 C 156.119,178.162 155.581,177.744 154.934,177.463 C 154.287,177.182 153.521,177.041 152.637,177.041 C 151.826,177.041 151.099,177.179 150.457,177.455 C 149.815,177.731 149.27,178.112 148.823,178.598 C 148.376,179.084 148.033,179.661 147.794,180.328 C 147.554,180.995 147.435,181.719 147.435,182.5 C 147.435,183.297 147.572,184.028 147.845,184.695 C 148.119,185.362 148.501,185.937 148.992,186.421 C 149.483,186.904 150.07,187.281 150.754,187.549 C 151.438,187.818 152.192,187.952 153.018,187.952 C 153.418,187.952 153.796,187.917 154.15,187.846 C 154.504,187.775 154.835,187.677 155.143,187.552 C 155.45,187.428 155.734,187.279 155.992,187.105 C 156.251,186.931 156.481,186.739 156.681,186.529 L 155.846,185.408 C 155.792,185.339 155.729,185.277 155.655,185.221 C 155.582,185.165 155.48,185.137 155.348,185.137 C 155.26,185.137 155.177,185.156 155.099,185.195 C 155.02,185.234 154.937,185.282 154.849,185.338 C 154.762,185.394 154.665,185.455 154.56,185.521 C 154.455,185.587 154.33,185.648 154.186,185.705 C 154.042,185.761 153.874,185.808 153.681,185.848 C 153.488,185.886 153.262,185.906 153.003,185.906 C 152.554,185.906 152.143,185.827 151.772,185.668 C 151.401,185.509 151.082,185.282 150.816,184.986 C 150.55,184.691 150.342,184.333 150.193,183.913 C 150.044,183.493 149.97,183.021 149.97,182.499 C 149.97,181.951 150.044,181.465 150.193,181.04 C 150.342,180.615 150.545,180.258 150.801,179.967 C 151.058,179.676 151.357,179.455 151.699,179.304 C 152.041,179.152 152.407,179.077 152.798,179.077 C 153.023,179.077 153.228,179.088 153.413,179.11 C 153.599,179.132 153.771,179.169 153.93,179.223 C 154.089,179.277 154.24,179.346 154.384,179.432 C 154.528,179.517 154.674,179.624 154.82,179.751 C 154.879,179.8 154.942,179.84 155.011,179.872 C 155.079,179.903 155.15,179.919 155.223,179.919 Z" marker-start="none" marker-end="none"/>
       <path d="M 157.242,178.309 C 157.242,178.485 157.275,178.649 157.341,178.8 C 157.406,178.952 157.497,179.084 157.612,179.196 C 157.726,179.309 157.862,179.398 158.018,179.464 C 158.175,179.53 158.346,179.563 158.531,179.563 C 158.712,179.563 158.88,179.53 159.037,179.464 C 159.193,179.398 159.33,179.309 159.447,179.196 C 159.564,179.084 159.656,178.952 159.722,178.8 C 159.788,178.649 159.821,178.485 159.821,178.309 C 159.821,178.133 159.788,177.968 159.722,177.814 C 159.656,177.66 159.564,177.527 159.447,177.415 C 159.33,177.302 159.193,177.214 159.037,177.151 C 158.88,177.087 158.712,177.055 158.531,177.055 C 158.346,177.055 158.175,177.087 158.018,177.151 C 157.862,177.214 157.726,177.302 157.612,177.415 C 157.497,177.527 157.406,177.66 157.341,177.814 C 157.275,177.968 157.242,178.133 157.242,178.309 Z" marker-start="none" marker-end="none"/>
      </g>
     </g>
     <g id="Group_9" fill-rule="nonzero" stroke-linejoin="round" stroke-linecap="round" stroke="none" stroke-width="0.387" fill="#000000" stroke-miterlimit="79.8403193612775">
      <g id="Group_10">
       <path d="M 109.409,32.913 L 109.409,29.831 L 112.288,29.831 L 112.288,28.102 L 109.409,28.102 L 109.409,25.005 L 107.448,25.005 L 107.448,28.102 L 104.584,28.102 L 104.584,29.831 L 107.448,29.831 L 107.448,32.913 L 109.409,32.913 Z" marker-start="none" marker-end="none"/>
       <path d="M 117.643,35.2 C 118.203,35.2 118.708,35.118 119.156,34.955 C 119.605,34.792 119.988,34.565 120.304,34.274 C 120.621,33.984 120.863,33.637 121.032,33.235 C 121.201,32.833 121.285,32.391 121.285,31.908 C 121.285,31.493 121.227,31.109 121.11,30.756 C 120.993,30.403 120.834,30.067 120.631,29.748 C 120.429,29.429 120.194,29.121 119.927,28.822 C 119.66,28.524 119.376,28.222 119.075,27.916 L 116.857,25.643 C 117.142,25.727 117.424,25.793 117.701,25.843 C 117.979,25.893 118.239,25.917 118.483,25.917 L 120.6,25.917 C 120.859,25.917 121.064,25.846 121.215,25.703 C 121.365,25.56 121.441,25.372 121.441,25.138 L 121.441,23.736 L 113.472,23.736 L 113.472,24.514 C 113.472,24.665 113.503,24.826 113.565,24.997 C 113.627,25.168 113.736,25.324 113.892,25.464 L 117.16,28.756 C 117.441,29.037 117.684,29.304 117.892,29.558 C 118.099,29.812 118.271,30.063 118.406,30.309 C 118.54,30.556 118.642,30.802 118.709,31.049 C 118.776,31.295 118.81,31.556 118.81,31.831 C 118.81,32.282 118.703,32.629 118.487,32.87 C 118.272,33.111 117.944,33.232 117.503,33.232 C 117.321,33.232 117.155,33.206 117.005,33.154 C 116.854,33.102 116.719,33.032 116.6,32.944 C 116.481,32.856 116.378,32.752 116.293,32.633 C 116.207,32.513 116.138,32.384 116.086,32.244 C 116.003,32.01 115.898,31.842 115.771,31.738 C 115.644,31.634 115.472,31.582 115.254,31.582 C 115.202,31.582 115.146,31.585 115.086,31.59 C 115.027,31.595 114.966,31.603 114.904,31.613 L 113.627,31.835 C 113.71,32.401 113.87,32.895 114.106,33.315 C 114.342,33.736 114.635,34.086 114.985,34.367 C 115.335,34.647 115.736,34.856 116.188,34.994 C 116.639,35.131 117.124,35.2 117.643,35.2 Z" marker-start="none" marker-end="none"/>
      </g>
     </g>
     <g id="Group_11" fill-rule="nonzero" stroke-linejoin="round" stroke-linecap="round" stroke="none" stroke-width="0.387" fill="#000000" stroke-miterlimit="79.8403193612775">
      <g id="Group_12">
       <path d="M 120.789,91.031 L 120.789,87.949 L 123.668,87.949 L 123.668,86.22 L 120.789,86.22 L 120.789,83.123 L 118.828,83.123 L 118.828,86.22 L 115.964,86.22 L 115.964,87.949 L 118.828,87.949 L 118.828,91.031 L 120.789,91.031 Z" marker-start="none" marker-end="none"/>
       <path d="M 126.299,83.598 L 128.478,83.598 L 128.478,89.318 C 128.478,89.599 128.486,89.892 128.501,90.198 L 127.217,89.131 C 127.134,89.064 127.051,89.016 126.968,88.987 C 126.885,88.959 126.805,88.945 126.727,88.945 C 126.592,88.945 126.472,88.974 126.365,89.034 C 126.259,89.094 126.18,89.157 126.128,89.225 L 125.365,90.237 L 128.898,93.202 L 130.891,93.202 L 130.891,83.598 L 132.758,83.598 L 132.758,81.854 L 126.299,81.854 L 126.299,83.598 Z" marker-start="none" marker-end="none"/>
      </g>
     </g>
     <g id="Group_13" fill-rule="nonzero" stroke-linejoin="round" stroke-linecap="round" stroke="none" stroke-width="0.387" fill="#000000" stroke-miterlimit="79.8403193612775">
      <g id="Group_14">
       <path d="M 178.412,106.594 L 178.412,103.512 L 181.291,103.512 L 181.291,101.783 L 178.412,101.783 L 178.412,98.686 L 176.451,98.686 L 176.451,101.783 L 173.587,101.783 L 173.587,103.512 L 176.451,103.512 L 176.451,106.594 L 178.412,106.594 Z" marker-start="none" marker-end="none"/>
       <path d="M 183.922,99.161 L 186.101,99.161 L 186.101,104.881 C 186.101,105.162 186.109,105.455 186.124,105.761 L 184.84,104.694 C 184.757,104.627 184.674,104.579 184.591,104.55 C 184.508,104.522 184.428,104.508 184.35,104.508 C 184.215,104.508 184.095,104.537 183.988,104.597 C 183.882,104.657 183.803,104.72 183.751,104.788 L 182.988,105.8 L 186.521,108.765 L 188.514,108.765 L 188.514,99.161 L 190.381,99.161 L 190.381,97.417 L 183.922,97.417 L 183.922,99.161 Z" marker-start="none" marker-end="none"/>
      </g>
     </g>
    </g>
   </g>
  </g>
 </g>
</svg>
