<?xml version="1.0" standalone="no"?>
<!DOCTYPE svg PUBLIC "-//W3C//DTD SVG 1.1//EN" "http://www.w3.org/Graphics/SVG/1.1/DTD/svg11.dtd">
<!--Generator: Xara Designer (www.xara.com), SVG filter version: 6.2.0.0-->
<svg stroke-width="0.501" stroke-linejoin="bevel" fill-rule="evenodd" xmlns:xlink="http://www.w3.org/1999/xlink" xmlns="http://www.w3.org/2000/svg" version="1.1" overflow="visible" width="215.434pt" height="215.434pt" viewBox="0 0 215.434 215.434">
 <defs>
	</defs>
 <g id="Document" fill="none" stroke="black" font-family="Times New Roman" font-size="16" transform="scale(1 -1)">
  <g id="Spread" transform="translate(0 -215.434)">
   <g id="Layer 1">
    <g id="Group">
     <path d="M 199.757,214.933 L 15.176,214.933 C 6.799,214.933 0,208.134 0,199.757 L 0,15.176 C 0,6.799 6.799,0 15.176,0 L 199.757,0 C 208.134,0 214.933,6.799 214.933,15.176 L 214.933,199.757 C 214.933,208.134 208.134,214.933 199.757,214.933 Z" stroke="#999999" fill="#ffffff" stroke-linejoin="miter" marker-start="none" marker-end="none"/>
     <g id="Group_1" stroke-linejoin="miter" stroke-linecap="round" stroke="#95afc0">
      <path d="M 15.005,146.115 L 15.005,180.007 L 118.593,180.007 L 118.593,146.115 L 15.005,146.115 Z" fill="#95afc0" stroke-width="1.738" marker-start="none" marker-end="none" stroke-miterlimit="79.8403193612775"/>
      <path d="M 15.005,144.772 L 15.005,154.582 C 15.005,157.153 17.089,159.23 19.651,159.23 L 113.943,159.23 C 116.505,159.23 118.593,157.153 118.593,154.582 L 118.593,144.772 C 118.593,142.196 116.505,140.118 113.943,140.118 L 19.651,140.118 C 17.089,140.118 15.005,142.196 15.005,144.772 Z" fill="#95afc0" stroke-width="1.738" marker-start="none" marker-end="none" stroke-miterlimit="79.8403193612775"/>
      <path d="M 15.702,173.665 L 15.702,191.31 C 15.702,195.923 19.446,199.669 24.064,199.669 L 191.11,199.669 C 195.723,199.669 199.471,195.923 199.471,191.31 L 199.471,173.665 C 199.471,169.047 195.723,165.299 191.11,165.299 L 24.064,165.299 C 19.446,165.299 15.702,169.047 15.702,173.665 Z" fill="#ffffff" stroke-width="3.13" marker-start="none" marker-end="none" stroke-miterlimit="79.8403193612775"/>
     </g>
     <g id="Group_2" fill="#ff3718" stroke-linecap="round" stroke="none">
      <path d="M 100.464,0.438 L 91.93,0.438 L 91.93,49.601 L 100.464,49.601 L 100.464,0.438 Z" stroke-width="0.103" stroke-linejoin="miter" marker-start="none" marker-end="none" stroke-miterlimit="79.8403193612775"/>
      <path d="M 120.696,100.043 C 107.257,87.775 100.428,70.962 100.425,54.089 L 91.946,54.089 C 91.951,73.261 99.701,92.374 114.97,106.308 C 128.531,118.682 145.608,124.783 162.631,124.778 L 162.631,116.292 C 147.649,116.299 132.622,110.93 120.696,100.043 Z" stroke-width="0.541" stroke-linejoin="round" marker-start="none" marker-end="none" stroke-miterlimit="79.8403193612775"/>
      <path d="M 200.584,120.551 L 197.539,118.433 L 194.486,116.311 L 194.486,116.258 L 167.209,116.258 L 167.209,124.794 L 194.486,124.794 L 197.539,122.674 L 200.584,120.551 Z" stroke-width="0.103" stroke-linejoin="miter" marker-start="none" marker-end="none" stroke-miterlimit="79.8403193612775"/>
     </g>
     <g id="Group_3" fill="#ffcd36" stroke-linecap="round" stroke="none">
      <path d="M 200.588,109.001 L 197.542,106.881 L 194.486,104.76 L 194.486,109.001 L 194.49,113.242 L 197.542,111.119 L 200.588,109.001 Z M 194.486,104.737 L 167.209,104.737 L 167.209,113.271 L 194.486,113.271 L 194.486,104.737 Z" stroke-width="0.103" stroke-linejoin="miter" marker-start="none" marker-end="none" stroke-miterlimit="79.8403193612775"/>
      <path d="M 128.318,91.689 C 117.327,81.649 111.74,67.894 111.735,54.089 L 103.254,54.089 C 103.258,70.196 109.773,86.246 122.601,97.955 C 133.988,108.349 148.331,113.469 162.631,113.466 L 162.631,104.98 C 150.374,104.99 138.082,100.595 128.318,91.689 Z" stroke-width="0.453" stroke-linejoin="round" marker-start="none" marker-end="none" stroke-miterlimit="79.8403193612775"/>
      <path d="M 111.767,0.438 L 103.235,0.438 L 103.235,49.601 L 111.767,49.601 L 111.767,0.438 Z" stroke-width="0.103" stroke-linejoin="miter" marker-start="none" marker-end="none" stroke-miterlimit="79.8403193612775"/>
     </g>
     <g id="Group_4" fill="#00d702" stroke-linecap="round" stroke="none">
      <path d="M 200.588,97.685 L 197.542,95.569 L 194.486,93.448 L 194.486,97.689 L 194.49,101.932 L 197.542,99.812 L 200.588,97.685 Z M 194.486,93.439 L 167.209,93.439 L 167.209,101.974 L 194.486,101.974 L 194.486,93.439 Z" stroke-width="0.103" stroke-linejoin="miter" marker-start="none" marker-end="none" stroke-miterlimit="79.8403193612775"/>
      <path d="M 123.065,0.438 L 114.534,0.438 L 114.534,49.601 L 123.065,49.601 L 123.065,0.438 Z" stroke-width="0.103" stroke-linejoin="miter" marker-start="none" marker-end="none" stroke-miterlimit="79.8403193612775"/>
      <path d="M 135.945,83.334 C 127.393,75.527 123.053,64.822 123.047,54.089 L 114.563,54.089 C 114.566,67.131 119.839,80.121 130.228,89.6 C 139.443,98.011 151.059,102.159 162.631,102.157 L 162.631,93.675 C 153.099,93.675 143.534,90.261 135.945,83.334 Z" stroke-width="0.368" stroke-linejoin="round" marker-start="none" marker-end="none" stroke-miterlimit="79.8403193612775"/>
     </g>
     <g id="Group_5" stroke-linecap="round" stroke="none" fill="#11a7e0">
      <path d="M 134.361,0.438 L 125.827,0.438 L 125.827,49.601 L 134.361,49.601 L 134.361,0.438 Z" stroke-width="0.103" stroke-linejoin="miter" marker-start="none" marker-end="none" stroke-miterlimit="79.8403193612775"/>
      <path d="M 143.566,74.979 C 137.459,69.401 134.359,61.763 134.356,54.089 L 125.869,54.089 C 125.878,64.059 129.911,73.998 137.849,81.241 C 144.898,87.68 153.775,90.851 162.631,90.847 L 162.631,82.359 C 155.824,82.366 148.992,79.924 143.566,74.979 Z" stroke-width="0.281" stroke-linejoin="round" marker-start="none" marker-end="none" stroke-miterlimit="79.8403193612775"/>
      <path d="M 200.584,86.632 L 197.539,84.5 L 194.486,82.359 L 194.486,82.359 L 167.209,82.359 L 167.209,90.898 L 194.486,90.898 L 194.486,90.898 L 197.542,88.768 L 200.584,86.632 Z" stroke-width="0.103" stroke-linejoin="miter" marker-start="none" marker-end="none" stroke-miterlimit="79.8403193612775"/>
     </g>
     <g id="Group_6" stroke-linejoin="miter" stroke-miterlimit="79.8403193612775">
      <path d="M 59.5,89.157 C 53.6,96.135 54.479,106.595 61.474,112.504 C 68.456,118.396 78.909,117.517 84.813,110.53 C 90.722,103.538 89.836,93.084 82.839,87.179 C 75.857,81.284 65.4,82.163 59.5,89.157 Z" stroke="none" fill="#000000" stroke-width="0.686" marker-start="none" marker-end="none" stroke-miterlimit="19.9600798403194"/>
      <path d="M 60.278,89.766 C 54.387,96.764 55.259,107.223 62.252,113.116 C 69.241,119.025 79.693,118.142 85.609,111.149 C 91.506,104.167 90.621,93.715 83.627,87.81 C 76.648,81.904 66.184,82.783 60.278,89.766 Z" stroke="#b2b2b2" stroke-width="3.752" marker-start="none" marker-end="none" stroke-miterlimit="19.9600798403194"/>
     </g>
     <g id="Group_7" stroke-linejoin="miter" stroke-miterlimit="79.8403193612775">
      <path d="M 18.815,89.144 C 12.915,96.133 13.794,106.601 20.791,112.492 C 27.774,118.403 38.228,117.52 44.13,110.532 C 50.041,103.543 49.155,93.083 42.157,87.179 C 35.174,81.28 24.715,82.163 18.815,89.144 Z" stroke="none" fill="#ffffff" stroke-width="0.689" marker-start="none" marker-end="none" stroke-miterlimit="19.9600798403194"/>
      <path d="M 19.595,89.779 C 13.702,96.771 14.575,107.217 21.567,113.13 C 28.558,119.014 39.013,118.142 44.926,111.154 C 50.824,104.167 49.94,93.701 42.946,87.801 C 35.965,81.902 25.5,82.78 19.595,89.779 Z" stroke="#55bae6" stroke-width="3.752" marker-start="none" marker-end="none" stroke-miterlimit="19.9600798403194"/>
     </g>
     <g id="Group_8" stroke-linejoin="miter" stroke-miterlimit="79.8403193612775">
      <path d="M 21.355,24.9 C 12.458,35.44 13.783,51.226 24.335,60.11 C 34.866,69.024 50.631,67.692 59.532,57.154 C 68.446,46.614 67.11,30.84 56.556,21.937 C 46.025,13.041 30.253,14.372 21.355,24.9 Z" stroke="none" fill="#ffffff" stroke-width="1.039" marker-start="none" marker-end="none" stroke-miterlimit="19.9600798403194"/>
      <path d="M 22.532,25.857 C 13.645,36.402 14.961,52.155 25.505,61.072 C 36.048,69.945 51.815,68.63 60.732,58.092 C 69.626,47.555 68.293,31.772 57.746,22.875 C 47.218,13.979 31.437,15.303 22.532,25.857 Z" stroke="#55bae6" stroke-width="5.658" marker-start="none" marker-end="none" stroke-miterlimit="19.9600798403194"/>
     </g>
     <g id="Group_9" stroke-linejoin="miter" stroke-miterlimit="79.8403193612775">
      <path d="M 152.945,24.496 C 144.048,35.036 145.373,50.822 155.925,59.706 C 166.456,68.62 182.221,67.288 191.122,56.75 C 200.036,46.21 198.7,30.436 188.146,21.533 C 177.615,12.637 161.843,13.968 152.945,24.496 Z" stroke="none" fill="#000000" stroke-width="1.039" marker-start="none" marker-end="none" stroke-miterlimit="19.9600798403194"/>
      <path d="M 154.122,25.453 C 145.235,35.998 146.551,51.751 157.095,60.668 C 167.638,69.541 183.405,68.226 192.322,57.688 C 201.216,47.151 199.883,31.368 189.336,22.471 C 178.808,13.575 163.027,14.899 154.122,25.453 Z" stroke="#b2b2b2" stroke-width="5.658" marker-start="none" marker-end="none" stroke-miterlimit="19.9600798403194"/>
     </g>
     <g id="Group_10" stroke-linejoin="miter" stroke-miterlimit="79.8403193612775">
      <path d="M 102.705,20.796 C 98.18,26.152 98.856,34.168 104.214,38.692 C 109.57,43.215 117.591,42.543 122.11,37.185 C 126.635,31.829 125.96,23.81 120.601,19.29 C 115.247,14.762 107.227,15.445 102.705,20.796 Z" stroke="none" fill="#ffffff" stroke-width="0.526" marker-start="none" marker-end="none" stroke-miterlimit="19.9600798403194"/>
      <path d="M 103.308,21.278 C 98.784,26.627 99.46,34.649 104.816,39.17 C 110.175,43.698 118.191,43.02 122.715,37.661 C 127.243,32.31 126.566,24.287 121.206,19.763 C 115.846,15.242 107.831,15.916 103.308,21.278 Z" fill="none" stroke="#55bae6" stroke-width="2.872" marker-start="none" marker-end="none" stroke-miterlimit="19.9600798403194"/>
     </g>
     <g id="Group_11" stroke-linejoin="miter" stroke-miterlimit="79.8403193612775">
      <path d="M 114.656,78.11 C 110.135,83.461 110.81,91.48 116.167,96.008 C 121.524,100.524 129.543,99.851 134.067,94.493 C 138.59,89.139 137.91,81.122 132.556,76.599 C 127.2,72.075 119.181,72.751 114.656,78.11 Z" stroke="none" fill="#ffffff" stroke-width="0.526" marker-start="none" marker-end="none" stroke-miterlimit="19.9600798403194"/>
      <path d="M 115.265,78.588 C 110.737,83.942 111.411,91.958 116.771,96.482 C 122.129,101.007 130.144,100.333 134.669,94.971 C 139.197,89.615 138.512,81.598 133.161,77.072 C 127.801,72.547 119.786,73.228 115.265,78.588 Z" fill="none" stroke="#55bae6" stroke-width="2.872" marker-start="none" marker-end="none" stroke-miterlimit="19.9600798403194"/>
     </g>
     <g id="Group_12" stroke-linejoin="miter" stroke-miterlimit="79.8403193612775">
      <path d="M 172.277,94.895 C 167.753,100.251 168.432,108.268 173.787,112.796 C 179.148,117.317 187.167,116.639 191.69,111.281 C 196.218,105.929 195.536,97.906 190.179,93.387 C 184.819,88.868 176.803,89.542 172.277,94.895 Z" stroke="none" fill="#ffffff" stroke-width="0.526" marker-start="none" marker-end="none" stroke-miterlimit="19.9600798403194"/>
      <path d="M 172.884,95.379 C 168.36,100.73 169.037,108.749 174.395,113.274 C 179.755,117.795 187.77,117.121 192.293,111.761 C 196.819,106.408 196.142,98.388 190.786,93.867 C 185.424,89.342 177.407,90.018 172.884,95.379 Z" fill="none" stroke="#55bae6" stroke-width="2.872" marker-start="none" marker-end="none" stroke-miterlimit="19.9600798403194"/>
     </g>
     <g id="Group_13" fill-rule="nonzero" stroke-linejoin="round" stroke-linecap="round" stroke="none" stroke-width="0.485" fill="#b2b2b2" stroke-miterlimit="79.8403193612775">
      <g id="Group_14">
       <path d="M 72.123,107.718 C 72.824,107.718 73.456,107.616 74.018,107.411 C 74.58,107.207 75.059,106.922 75.456,106.559 C 75.852,106.195 76.156,105.761 76.367,105.258 C 76.578,104.754 76.684,104.2 76.684,103.596 C 76.684,103.076 76.611,102.595 76.464,102.153 C 76.318,101.711 76.118,101.291 75.865,100.891 C 75.612,100.492 75.318,100.105 74.983,99.731 C 74.648,99.358 74.293,98.979 73.916,98.596 L 71.138,95.75 C 71.496,95.855 71.848,95.938 72.196,96 C 72.543,96.063 72.87,96.093 73.175,96.093 L 75.826,96.093 C 76.151,96.093 76.407,96.004 76.596,95.825 C 76.784,95.646 76.879,95.41 76.879,95.118 L 76.879,93.362 L 66.899,93.362 L 66.899,94.337 C 66.899,94.525 66.938,94.726 67.016,94.941 C 67.094,95.155 67.231,95.35 67.425,95.526 L 71.519,99.649 C 71.869,100 72.175,100.335 72.435,100.653 C 72.694,100.971 72.909,101.285 73.078,101.593 C 73.247,101.902 73.373,102.211 73.458,102.519 C 73.542,102.828 73.585,103.155 73.585,103.499 C 73.585,104.064 73.45,104.498 73.18,104.8 C 72.91,105.102 72.5,105.254 71.947,105.254 C 71.72,105.254 71.512,105.221 71.324,105.156 C 71.135,105.091 70.966,105.003 70.817,104.893 C 70.667,104.783 70.539,104.653 70.432,104.503 C 70.325,104.354 70.239,104.191 70.174,104.016 C 70.07,103.724 69.938,103.513 69.779,103.383 C 69.62,103.253 69.404,103.188 69.131,103.188 C 69.066,103.188 68.996,103.191 68.921,103.197 C 68.847,103.204 68.77,103.213 68.692,103.226 L 67.094,103.504 C 67.198,104.213 67.398,104.831 67.693,105.358 C 67.989,105.885 68.356,106.323 68.795,106.675 C 69.233,107.026 69.735,107.287 70.3,107.46 C 70.866,107.632 71.473,107.718 72.123,107.718 Z" marker-start="none" marker-end="none"/>
      </g>
     </g>
     <g id="Group_15" fill-rule="nonzero" stroke-linejoin="round" stroke-linecap="round" stroke="none" stroke-width="0.485" fill="#000000" stroke-miterlimit="79.8403193612775">
      <g id="Group_16">
       <path d="M 36.013,98.877 L 37.474,98.877 L 37.474,97.182 C 37.474,97.032 37.424,96.903 37.323,96.792 C 37.223,96.682 37.078,96.626 36.89,96.626 L 36.013,96.626 L 36.013,93.362 L 33.381,93.362 L 33.381,96.626 L 27.67,96.626 C 27.482,96.626 27.311,96.685 27.159,96.802 C 27.006,96.919 26.91,97.065 26.871,97.24 L 26.559,98.732 L 33.128,107.564 L 36.013,107.564 L 36.013,98.877 Z M 33.381,102.581 C 33.381,102.809 33.389,103.054 33.406,103.317 C 33.422,103.58 33.446,103.851 33.479,104.131 L 29.727,98.877 L 33.381,98.877 L 33.381,102.581 Z" marker-start="none" marker-end="none"/>
      </g>
     </g>
     <g id="Group_17" fill-rule="nonzero" stroke-linejoin="round" stroke-linecap="round" stroke="none" stroke-width="0.319" fill="#ffffff" stroke-miterlimit="79.8403193612775">
      <g id="Group_18">
       <path d="M 27.495,151.776 L 27.495,148.663 L 25.334,148.663 L 25.334,157.978 L 28.62,157.978 C 29.276,157.978 29.84,157.9 30.311,157.745 C 30.781,157.589 31.169,157.375 31.474,157.102 C 31.779,156.829 32.003,156.507 32.148,156.137 C 32.293,155.766 32.366,155.365 32.366,154.935 C 32.366,154.47 32.291,154.044 32.142,153.656 C 31.993,153.268 31.765,152.935 31.458,152.658 C 31.151,152.381 30.762,152.165 30.291,152.009 C 29.82,151.854 29.263,151.776 28.62,151.776 L 27.495,151.776 Z M 27.495,153.405 L 28.62,153.405 C 29.182,153.405 29.587,153.54 29.834,153.808 C 30.082,154.077 30.205,154.453 30.205,154.934 C 30.205,155.148 30.173,155.342 30.109,155.517 C 30.045,155.692 29.948,155.842 29.818,155.968 C 29.688,156.093 29.524,156.191 29.326,156.259 C 29.128,156.327 28.893,156.361 28.62,156.361 L 27.495,156.361 L 27.495,153.405 Z" marker-start="none" marker-end="none"/>
       <path d="M 35.654,152.107 L 35.654,148.661 L 33.493,148.661 L 33.493,157.975 L 36.523,157.975 C 37.196,157.975 37.771,157.906 38.246,157.767 C 38.721,157.628 39.109,157.435 39.409,157.188 C 39.71,156.94 39.928,156.648 40.064,156.311 C 40.201,155.974 40.269,155.607 40.269,155.21 C 40.269,154.907 40.229,154.621 40.148,154.352 C 40.067,154.084 39.946,153.835 39.786,153.607 C 39.627,153.378 39.431,153.175 39.198,152.995 C 38.966,152.816 38.699,152.669 38.396,152.554 C 38.541,152.482 38.676,152.392 38.802,152.286 C 38.928,152.179 39.037,152.05 39.131,151.896 L 41.113,148.661 L 39.157,148.661 C 38.795,148.661 38.535,148.797 38.377,149.07 L 36.83,151.774 C 36.762,151.894 36.682,151.979 36.59,152.03 C 36.499,152.081 36.37,152.107 36.203,152.107 L 35.654,152.107 Z M 35.654,153.596 L 36.523,153.596 C 36.817,153.596 37.068,153.633 37.274,153.708 C 37.481,153.782 37.65,153.886 37.782,154.018 C 37.914,154.15 38.01,154.304 38.07,154.481 C 38.13,154.658 38.16,154.849 38.16,155.054 C 38.16,155.463 38.026,155.783 37.76,156.013 C 37.494,156.243 37.081,156.358 36.523,156.358 L 35.654,156.358 L 35.654,153.596 Z" marker-start="none" marker-end="none"/>
       <path d="M 50.869,153.321 C 50.869,152.648 50.753,152.021 50.521,151.442 C 50.289,150.862 49.962,150.358 49.54,149.929 C 49.118,149.501 48.61,149.165 48.015,148.922 C 47.421,148.679 46.761,148.558 46.037,148.558 C 45.312,148.558 44.652,148.679 44.055,148.922 C 43.458,149.165 42.948,149.501 42.524,149.929 C 42.1,150.358 41.772,150.862 41.54,151.442 C 41.307,152.021 41.191,152.648 41.191,153.321 C 41.191,153.995 41.307,154.621 41.54,155.201 C 41.772,155.781 42.1,156.283 42.524,156.71 C 42.948,157.136 43.458,157.471 44.055,157.714 C 44.652,157.956 45.312,158.078 46.037,158.078 C 46.761,158.078 47.421,157.955 48.015,157.71 C 48.61,157.465 49.118,157.13 49.54,156.703 C 49.962,156.277 50.289,155.774 50.521,155.194 C 50.753,154.615 50.869,153.99 50.869,153.321 Z M 48.658,153.321 C 48.658,153.781 48.598,154.195 48.479,154.564 C 48.359,154.932 48.188,155.245 47.964,155.5 C 47.74,155.756 47.466,155.952 47.143,156.088 C 46.819,156.224 46.45,156.292 46.037,156.293 C 45.619,156.292 45.247,156.224 44.921,156.088 C 44.595,155.952 44.32,155.756 44.097,155.5 C 43.873,155.245 43.701,154.932 43.582,154.564 C 43.463,154.195 43.403,153.781 43.403,153.321 C 43.403,152.857 43.463,152.44 43.582,152.072 C 43.701,151.703 43.873,151.391 44.097,151.136 C 44.32,150.88 44.595,150.685 44.921,150.551 C 45.247,150.417 45.619,150.35 46.037,150.35 C 46.45,150.35 46.819,150.417 47.143,150.551 C 47.466,150.685 47.74,150.88 47.964,151.136 C 48.188,151.391 48.359,151.703 48.479,152.072 C 48.598,152.44 48.658,152.857 48.658,153.321 Z" marker-start="none" marker-end="none"/>
       <path d="M 60.354,153.323 C 60.354,152.649 60.238,152.028 60.005,151.459 C 59.773,150.89 59.446,150.397 59.024,149.982 C 58.602,149.566 58.094,149.242 57.5,149.01 C 56.905,148.777 56.246,148.661 55.521,148.661 L 51.903,148.661 L 51.903,157.978 L 55.521,157.978 C 56.246,157.978 56.905,157.861 57.5,157.626 C 58.094,157.392 58.602,157.068 59.024,156.654 C 59.446,156.241 59.773,155.749 60.005,155.18 C 60.238,154.611 60.354,153.992 60.354,153.323 Z M 58.142,153.323 C 58.142,153.783 58.082,154.198 57.963,154.569 C 57.844,154.94 57.672,155.254 57.448,155.512 C 57.225,155.77 56.951,155.968 56.627,156.107 C 56.303,156.245 55.935,156.314 55.521,156.314 L 54.077,156.314 L 54.077,150.325 L 55.521,150.325 C 55.935,150.325 56.303,150.394 56.627,150.532 C 56.951,150.671 57.225,150.869 57.448,151.127 C 57.672,151.385 57.844,151.699 57.963,152.07 C 58.082,152.441 58.142,152.858 58.142,153.323 Z" marker-start="none" marker-end="none"/>
       <path d="M 65.266,150.368 C 65.556,150.368 65.815,150.416 66.043,150.512 C 66.271,150.608 66.463,150.745 66.621,150.925 C 66.779,151.104 66.899,151.322 66.982,151.58 C 67.065,151.838 67.107,152.131 67.107,152.459 L 67.107,157.976 L 69.268,157.976 L 69.268,152.458 C 69.268,151.887 69.175,151.363 68.989,150.885 C 68.804,150.408 68.539,149.997 68.194,149.651 C 67.848,149.306 67.429,149.038 66.934,148.846 C 66.44,148.654 65.884,148.558 65.266,148.558 C 64.644,148.558 64.085,148.654 63.591,148.846 C 63.097,149.038 62.677,149.306 62.332,149.651 C 61.987,149.997 61.722,150.408 61.539,150.885 C 61.356,151.363 61.264,151.887 61.264,152.458 L 61.264,157.976 L 63.425,157.976 L 63.425,152.465 C 63.425,152.137 63.466,151.844 63.55,151.586 C 63.633,151.328 63.753,151.109 63.911,150.928 C 64.068,150.747 64.261,150.608 64.489,150.512 C 64.717,150.416 64.976,150.368 65.266,150.368 Z" marker-start="none" marker-end="none"/>
       <path d="M 76.933,151.069 C 76.984,151.069 77.036,151.06 77.087,151.04 C 77.138,151.02 77.187,150.987 77.234,150.939 L 78.09,150.018 C 77.715,149.536 77.245,149.172 76.681,148.926 C 76.116,148.681 75.448,148.558 74.677,148.558 C 73.969,148.558 73.335,148.678 72.775,148.919 C 72.215,149.16 71.739,149.493 71.349,149.917 C 70.96,150.341 70.66,150.844 70.451,151.426 C 70.243,152.007 70.138,152.639 70.138,153.321 C 70.138,154.016 70.257,154.654 70.496,155.236 C 70.735,155.818 71.068,156.32 71.497,156.742 C 71.925,157.164 72.437,157.492 73.034,157.726 C 73.631,157.961 74.289,158.078 75.009,158.078 C 75.359,158.078 75.688,158.047 75.997,157.985 C 76.306,157.923 76.594,157.838 76.863,157.729 C 77.131,157.62 77.379,157.49 77.604,157.338 C 77.83,157.187 78.031,157.019 78.205,156.836 L 77.477,155.858 C 77.43,155.798 77.374,155.744 77.31,155.695 C 77.246,155.646 77.157,155.621 77.042,155.621 C 76.965,155.621 76.893,155.638 76.825,155.672 C 76.756,155.706 76.684,155.748 76.607,155.797 C 76.531,155.846 76.446,155.899 76.355,155.957 C 76.263,156.014 76.154,156.068 76.029,156.117 C 75.903,156.166 75.756,156.207 75.588,156.241 C 75.419,156.275 75.222,156.292 74.996,156.293 C 74.604,156.292 74.246,156.223 73.922,156.085 C 73.599,155.946 73.32,155.748 73.088,155.49 C 72.856,155.232 72.675,154.92 72.545,154.554 C 72.415,154.187 72.35,153.776 72.35,153.32 C 72.35,152.842 72.415,152.418 72.545,152.047 C 72.675,151.677 72.852,151.364 73.075,151.111 C 73.299,150.857 73.56,150.664 73.859,150.532 C 74.157,150.4 74.476,150.334 74.817,150.334 C 75.013,150.334 75.192,150.344 75.354,150.363 C 75.516,150.382 75.666,150.415 75.805,150.462 C 75.943,150.509 76.076,150.569 76.201,150.644 C 76.327,150.719 76.454,150.811 76.582,150.922 C 76.633,150.965 76.688,151 76.748,151.028 C 76.808,151.055 76.869,151.069 76.933,151.069 Z" marker-start="none" marker-end="none"/>
       <path d="M 85.841,157.978 L 85.841,156.264 L 83.22,156.264 L 83.22,148.663 L 81.06,148.663 L 81.06,156.264 L 78.439,156.264 L 78.439,157.978 L 85.841,157.978 Z" marker-start="none" marker-end="none"/>
       <path d="M 89.103,148.661 L 86.93,148.661 L 86.93,157.978 L 89.103,157.978 L 89.103,148.661 Z" marker-start="none" marker-end="none"/>
       <path d="M 100.019,153.321 C 100.019,152.648 99.903,152.021 99.671,151.442 C 99.439,150.862 99.112,150.358 98.69,149.929 C 98.268,149.501 97.76,149.165 97.165,148.922 C 96.571,148.679 95.911,148.558 95.187,148.558 C 94.462,148.558 93.802,148.679 93.205,148.922 C 92.608,149.165 92.098,149.501 91.674,149.929 C 91.25,150.358 90.922,150.862 90.69,151.442 C 90.457,152.021 90.341,152.648 90.341,153.321 C 90.341,153.995 90.457,154.621 90.69,155.201 C 90.922,155.781 91.25,156.283 91.674,156.71 C 92.098,157.136 92.608,157.471 93.205,157.714 C 93.802,157.956 94.462,158.078 95.187,158.078 C 95.911,158.078 96.571,157.955 97.165,157.71 C 97.76,157.465 98.268,157.13 98.69,156.703 C 99.112,156.277 99.439,155.774 99.671,155.194 C 99.903,154.615 100.019,153.99 100.019,153.321 Z M 97.808,153.321 C 97.808,153.781 97.748,154.195 97.629,154.564 C 97.509,154.932 97.338,155.245 97.114,155.5 C 96.89,155.756 96.616,155.952 96.293,156.088 C 95.969,156.224 95.6,156.292 95.187,156.293 C 94.769,156.292 94.397,156.224 94.071,156.088 C 93.745,155.952 93.47,155.756 93.247,155.5 C 93.023,155.245 92.851,154.932 92.732,154.564 C 92.613,154.195 92.553,153.781 92.553,153.321 C 92.553,152.857 92.613,152.44 92.732,152.072 C 92.851,151.703 93.023,151.391 93.247,151.136 C 93.47,150.88 93.745,150.685 94.071,150.551 C 94.397,150.417 94.769,150.35 95.187,150.35 C 95.6,150.35 95.969,150.417 96.293,150.551 C 96.616,150.685 96.89,150.88 97.114,151.136 C 97.338,151.391 97.509,151.703 97.629,152.072 C 97.748,152.44 97.808,152.857 97.808,153.321 Z" marker-start="none" marker-end="none"/>
       <path d="M 102.191,157.978 C 102.285,157.978 102.364,157.974 102.427,157.965 C 102.491,157.957 102.549,157.941 102.6,157.917 C 102.651,157.894 102.7,157.861 102.747,157.818 C 102.794,157.775 102.847,157.718 102.907,157.646 L 107.33,152.052 C 107.313,152.231 107.301,152.405 107.292,152.573 C 107.284,152.741 107.279,152.9 107.279,153.05 L 107.279,157.978 L 109.184,157.978 L 109.184,148.661 L 108.059,148.661 C 107.893,148.661 107.752,148.687 107.637,148.738 C 107.522,148.789 107.411,148.883 107.305,149.019 L 102.913,154.568 C 102.926,154.406 102.937,154.247 102.945,154.091 C 102.954,153.936 102.958,153.79 102.958,153.653 L 102.958,148.661 L 101.053,148.661 L 101.053,157.978 L 102.191,157.978 Z" marker-start="none" marker-end="none"/>
      </g>
     </g>
     <g id="Group_19" fill-rule="nonzero" stroke-linejoin="round" stroke-linecap="round" stroke="none" stroke-width="0.365" fill="#000000" stroke-miterlimit="79.8403193612775">
      <g id="Group_20">
       <path d="M 58.401,179.919 C 58.46,179.919 58.518,179.908 58.577,179.886 C 58.636,179.863 58.692,179.825 58.745,179.77 L 59.727,178.715 C 59.297,178.162 58.759,177.744 58.112,177.463 C 57.465,177.182 56.699,177.041 55.815,177.041 C 55.004,177.041 54.277,177.179 53.635,177.455 C 52.993,177.731 52.448,178.112 52.001,178.598 C 51.554,179.084 51.211,179.661 50.972,180.328 C 50.732,180.995 50.613,181.719 50.613,182.5 C 50.613,183.297 50.75,184.028 51.023,184.695 C 51.297,185.362 51.679,185.937 52.17,186.421 C 52.661,186.904 53.248,187.281 53.932,187.549 C 54.616,187.818 55.37,187.952 56.196,187.952 C 56.596,187.952 56.974,187.917 57.328,187.846 C 57.682,187.775 58.013,187.677 58.321,187.552 C 58.628,187.428 58.912,187.279 59.17,187.105 C 59.429,186.931 59.659,186.739 59.859,186.529 L 59.024,185.408 C 58.97,185.339 58.907,185.277 58.833,185.221 C 58.76,185.165 58.658,185.137 58.526,185.137 C 58.438,185.137 58.355,185.156 58.277,185.195 C 58.198,185.234 58.115,185.282 58.027,185.338 C 57.94,185.394 57.843,185.455 57.738,185.521 C 57.633,185.587 57.508,185.648 57.364,185.705 C 57.22,185.761 57.052,185.808 56.859,185.848 C 56.666,185.886 56.44,185.906 56.181,185.906 C 55.732,185.906 55.321,185.827 54.95,185.668 C 54.579,185.509 54.26,185.282 53.994,184.986 C 53.728,184.691 53.52,184.333 53.371,183.913 C 53.222,183.493 53.148,183.021 53.148,182.499 C 53.148,181.951 53.222,181.465 53.371,181.04 C 53.52,180.615 53.723,180.258 53.979,179.967 C 54.236,179.676 54.535,179.455 54.877,179.304 C 55.219,179.152 55.585,179.077 55.976,179.077 C 56.201,179.077 56.406,179.088 56.591,179.11 C 56.777,179.132 56.949,179.169 57.108,179.223 C 57.267,179.277 57.418,179.346 57.562,179.432 C 57.706,179.517 57.852,179.624 57.998,179.751 C 58.057,179.8 58.12,179.84 58.189,179.872 C 58.257,179.903 58.328,179.919 58.401,179.919 Z" marker-start="none" marker-end="none"/>
       <path d="M 70.179,177.159 L 67.688,177.159 L 67.688,181.674 L 63.35,181.674 L 63.35,177.159 L 60.859,177.159 L 60.859,187.838 L 63.35,187.838 L 63.35,183.373 L 67.688,183.373 L 67.688,187.838 L 70.179,187.838 L 70.179,177.159 Z" marker-start="none" marker-end="none"/>
       <path d="M 78.808,187.838 L 78.808,185.931 L 74.426,185.931 L 74.426,183.438 L 77.782,183.438 L 77.782,181.606 L 74.426,181.606 L 74.426,179.066 L 78.808,179.066 L 78.808,177.159 L 71.935,177.159 L 71.935,187.838 L 78.808,187.838 Z" marker-start="none" marker-end="none"/>
       <path d="M 85.673,182.007 C 85.77,181.82 85.864,181.626 85.955,181.424 C 86.045,181.223 86.132,181.016 86.215,180.804 C 86.298,181.021 86.386,181.231 86.479,181.435 C 86.571,181.639 86.667,181.837 86.764,182.029 L 89.505,187.458 C 89.553,187.552 89.603,187.624 89.655,187.676 C 89.706,187.728 89.763,187.766 89.827,187.79 C 89.89,187.815 89.962,187.827 90.043,187.827 C 90.124,187.827 90.218,187.827 90.325,187.827 L 92.215,187.827 L 92.215,177.159 L 90.032,177.159 L 90.032,183.219 C 90.032,183.513 90.047,183.831 90.076,184.173 L 87.248,178.77 C 87.16,178.602 87.042,178.475 86.893,178.388 C 86.744,178.301 86.574,178.258 86.383,178.258 L 86.046,178.258 C 85.856,178.258 85.686,178.301 85.537,178.388 C 85.388,178.475 85.27,178.602 85.182,178.77 L 82.339,184.18 C 82.359,184.012 82.373,183.844 82.383,183.678 C 82.393,183.512 82.398,183.359 82.398,183.219 L 82.398,177.159 L 80.214,177.159 L 80.214,187.827 L 82.105,187.827 C 82.212,187.827 82.306,187.827 82.387,187.827 C 82.467,187.827 82.539,187.815 82.603,187.79 C 82.666,187.766 82.724,187.728 82.775,187.676 C 82.826,187.624 82.876,187.552 82.925,187.458 L 85.673,182.007 Z" marker-start="none" marker-end="none"/>
       <path d="M 96.684,177.159 L 94.193,177.159 L 94.193,187.838 L 96.684,187.838 L 96.684,177.159 Z" marker-start="none" marker-end="none"/>
       <path d="M 105.833,179.919 C 105.892,179.919 105.95,179.908 106.009,179.886 C 106.068,179.863 106.124,179.825 106.177,179.77 L 107.159,178.715 C 106.729,178.162 106.191,177.744 105.544,177.463 C 104.897,177.182 104.131,177.041 103.247,177.041 C 102.436,177.041 101.709,177.179 101.067,177.455 C 100.425,177.731 99.88,178.112 99.433,178.598 C 98.986,179.084 98.643,179.661 98.404,180.328 C 98.164,180.995 98.045,181.719 98.045,182.5 C 98.045,183.297 98.182,184.028 98.455,184.695 C 98.729,185.362 99.111,185.937 99.602,186.421 C 100.093,186.904 100.68,187.281 101.364,187.549 C 102.048,187.818 102.802,187.952 103.628,187.952 C 104.028,187.952 104.406,187.917 104.76,187.846 C 105.114,187.775 105.445,187.677 105.753,187.552 C 106.06,187.428 106.344,187.279 106.602,187.105 C 106.861,186.931 107.091,186.739 107.291,186.529 L 106.456,185.408 C 106.402,185.339 106.339,185.277 106.265,185.221 C 106.192,185.165 106.09,185.137 105.958,185.137 C 105.87,185.137 105.787,185.156 105.709,185.195 C 105.63,185.234 105.547,185.282 105.459,185.338 C 105.372,185.394 105.275,185.455 105.17,185.521 C 105.065,185.587 104.94,185.648 104.796,185.705 C 104.652,185.761 104.484,185.808 104.291,185.848 C 104.098,185.886 103.872,185.906 103.613,185.906 C 103.164,185.906 102.753,185.827 102.382,185.668 C 102.011,185.509 101.692,185.282 101.426,184.986 C 101.16,184.691 100.952,184.333 100.803,183.913 C 100.654,183.493 100.58,183.021 100.58,182.499 C 100.58,181.951 100.654,181.465 100.803,181.04 C 100.952,180.615 101.155,180.258 101.411,179.967 C 101.668,179.676 101.967,179.455 102.309,179.304 C 102.651,179.152 103.017,179.077 103.408,179.077 C 103.633,179.077 103.838,179.088 104.023,179.11 C 104.209,179.132 104.381,179.169 104.54,179.223 C 104.699,179.277 104.85,179.346 104.994,179.432 C 105.138,179.517 105.284,179.624 105.43,179.751 C 105.489,179.8 105.552,179.84 105.621,179.872 C 105.689,179.903 105.76,179.919 105.833,179.919 Z" marker-start="none" marker-end="none"/>
       <path d="M 118.226,177.159 L 116.307,177.159 C 116.092,177.159 115.915,177.209 115.776,177.309 C 115.636,177.409 115.54,177.538 115.486,177.694 L 114.856,179.556 L 110.797,179.556 L 110.167,177.694 C 110.118,177.557 110.023,177.434 109.881,177.324 C 109.739,177.214 109.566,177.159 109.361,177.159 L 107.427,177.159 L 111.559,187.836 L 114.094,187.836 L 118.226,177.159 Z M 111.368,181.241 L 114.285,181.241 L 113.303,184.12 C 113.239,184.302 113.165,184.518 113.079,184.765 C 112.994,185.013 112.91,185.281 112.826,185.57 C 112.748,185.276 112.668,185.005 112.585,184.754 C 112.502,184.505 112.424,184.288 112.35,184.105 L 111.368,181.241 Z" marker-start="none" marker-end="none"/>
       <path d="M 121.565,179.137 L 125.521,179.137 L 125.521,177.159 L 119.088,177.159 L 119.088,187.836 L 121.565,187.836 L 121.565,179.137 Z" marker-start="none" marker-end="none"/>
       <path d="M 132.644,185.666 C 132.57,185.548 132.493,185.46 132.413,185.402 C 132.332,185.343 132.228,185.314 132.101,185.314 C 131.989,185.314 131.868,185.349 131.739,185.42 C 131.609,185.491 131.463,185.57 131.299,185.658 C 131.135,185.746 130.949,185.826 130.739,185.896 C 130.529,185.967 130.289,186.003 130.021,186.003 C 129.557,186.003 129.211,185.904 128.984,185.706 C 128.757,185.508 128.643,185.241 128.643,184.904 C 128.643,184.688 128.712,184.51 128.848,184.369 C 128.985,184.227 129.165,184.105 129.387,184.002 C 129.609,183.9 129.863,183.806 130.149,183.72 C 130.435,183.635 130.726,183.539 131.024,183.434 C 131.322,183.329 131.614,183.206 131.9,183.064 C 132.186,182.923 132.44,182.742 132.662,182.522 C 132.884,182.302 133.064,182.035 133.2,181.72 C 133.337,181.405 133.406,181.025 133.406,180.58 C 133.406,180.087 133.32,179.625 133.149,179.195 C 132.978,178.765 132.73,178.391 132.405,178.071 C 132.081,177.751 131.68,177.499 131.204,177.316 C 130.728,177.133 130.187,177.041 129.581,177.041 C 129.249,177.041 128.911,177.075 128.566,177.144 C 128.222,177.212 127.888,177.308 127.566,177.433 C 127.244,177.558 126.941,177.705 126.658,177.876 C 126.374,178.047 126.128,178.238 125.918,178.448 L 126.65,179.606 C 126.704,179.694 126.78,179.765 126.877,179.818 C 126.975,179.872 127.08,179.899 127.192,179.899 C 127.339,179.899 127.487,179.853 127.636,179.76 C 127.785,179.667 127.953,179.564 128.141,179.452 C 128.329,179.34 128.545,179.237 128.79,179.144 C 129.034,179.051 129.322,179.005 129.654,179.005 C 130.104,179.005 130.453,179.104 130.702,179.302 C 130.951,179.499 131.076,179.814 131.076,180.243 C 131.076,180.493 131.007,180.695 130.87,180.852 C 130.734,181.008 130.554,181.137 130.332,181.24 C 130.11,181.343 129.857,181.433 129.574,181.511 C 129.29,181.589 129,181.676 128.702,181.771 C 128.404,181.866 128.113,181.984 127.83,182.123 C 127.547,182.262 127.294,182.445 127.072,182.673 C 126.849,182.9 126.67,183.183 126.533,183.523 C 126.396,183.862 126.328,184.281 126.328,184.779 C 126.328,185.18 126.408,185.571 126.57,185.952 C 126.731,186.333 126.968,186.672 127.28,186.97 C 127.593,187.268 127.976,187.507 128.431,187.685 C 128.885,187.863 129.405,187.952 129.991,187.952 C 130.319,187.952 130.637,187.927 130.947,187.875 C 131.258,187.824 131.552,187.748 131.83,187.648 C 132.109,187.548 132.369,187.428 132.611,187.289 C 132.852,187.15 133.069,186.992 133.259,186.816 L 132.644,185.666 Z" marker-start="none" marker-end="none"/>
       <path d="M 134.255,178.449 C 134.255,178.605 134.285,178.751 134.343,178.885 C 134.402,179.02 134.486,179.137 134.596,179.237 C 134.706,179.337 134.835,179.416 134.984,179.475 C 135.133,179.534 135.301,179.563 135.486,179.563 C 135.706,179.563 135.896,179.525 136.058,179.449 C 136.219,179.374 136.353,179.271 136.461,179.142 C 136.568,179.012 136.647,178.863 136.699,178.695 C 136.75,178.526 136.776,178.349 136.776,178.163 C 136.776,177.919 136.737,177.659 136.658,177.383 C 136.58,177.107 136.464,176.83 136.31,176.551 C 136.157,176.273 135.965,175.999 135.735,175.73 C 135.506,175.462 135.242,175.217 134.944,174.998 L 134.548,175.349 C 134.495,175.403 134.454,175.453 134.427,175.5 C 134.401,175.546 134.387,175.603 134.387,175.672 C 134.387,175.721 134.404,175.773 134.438,175.829 C 134.473,175.886 134.514,175.936 134.563,175.98 C 134.622,176.038 134.69,176.109 134.768,176.192 C 134.846,176.275 134.924,176.368 135.003,176.471 C 135.081,176.573 135.153,176.686 135.219,176.808 C 135.285,176.93 135.335,177.059 135.369,177.196 C 135.198,177.211 135.044,177.252 134.907,177.321 C 134.771,177.389 134.655,177.48 134.559,177.592 C 134.464,177.704 134.39,177.832 134.336,177.977 C 134.282,178.121 134.255,178.278 134.255,178.449 Z" marker-start="none" marker-end="none"/>
       <path d="M 143.629,177.159 L 141.138,177.159 L 141.138,187.838 L 143.629,187.838 L 143.629,177.159 Z" marker-start="none" marker-end="none"/>
       <path d="M 146.909,187.838 C 147.017,187.838 147.107,187.833 147.18,187.823 C 147.254,187.814 147.32,187.795 147.378,187.768 C 147.437,187.741 147.493,187.703 147.547,187.655 C 147.601,187.606 147.662,187.54 147.73,187.457 L 152.8,181.046 C 152.781,181.251 152.766,181.45 152.756,181.643 C 152.746,181.836 152.741,182.018 152.741,182.189 L 152.741,187.838 L 154.925,187.838 L 154.925,177.159 L 153.635,177.159 C 153.445,177.159 153.284,177.188 153.152,177.247 C 153.02,177.306 152.893,177.413 152.771,177.569 L 147.737,183.929 C 147.752,183.743 147.764,183.561 147.774,183.383 C 147.784,183.205 147.789,183.038 147.789,182.881 L 147.789,177.159 L 145.605,177.159 L 145.605,187.838 L 146.909,187.838 Z" marker-start="none" marker-end="none"/>
       <path d="M 163.854,179.919 C 163.913,179.919 163.971,179.908 164.03,179.886 C 164.089,179.863 164.145,179.825 164.198,179.77 L 165.18,178.715 C 164.75,178.162 164.212,177.744 163.565,177.463 C 162.918,177.182 162.152,177.041 161.268,177.041 C 160.457,177.041 159.73,177.179 159.088,177.455 C 158.446,177.731 157.901,178.112 157.454,178.598 C 157.007,179.084 156.664,179.661 156.425,180.328 C 156.185,180.995 156.066,181.719 156.066,182.5 C 156.066,183.297 156.203,184.028 156.476,184.695 C 156.75,185.362 157.132,185.937 157.623,186.421 C 158.114,186.904 158.701,187.281 159.385,187.549 C 160.069,187.818 160.823,187.952 161.649,187.952 C 162.049,187.952 162.427,187.917 162.781,187.846 C 163.135,187.775 163.466,187.677 163.774,187.552 C 164.081,187.428 164.365,187.279 164.623,187.105 C 164.882,186.931 165.112,186.739 165.312,186.529 L 164.477,185.408 C 164.423,185.339 164.36,185.277 164.286,185.221 C 164.213,185.165 164.111,185.137 163.979,185.137 C 163.891,185.137 163.808,185.156 163.73,185.195 C 163.651,185.234 163.568,185.282 163.48,185.338 C 163.393,185.394 163.296,185.455 163.191,185.521 C 163.086,185.587 162.961,185.648 162.817,185.705 C 162.673,185.761 162.505,185.808 162.312,185.848 C 162.119,185.886 161.893,185.906 161.634,185.906 C 161.185,185.906 160.774,185.827 160.403,185.668 C 160.032,185.509 159.713,185.282 159.447,184.986 C 159.181,184.691 158.973,184.333 158.824,183.913 C 158.675,183.493 158.601,183.021 158.601,182.499 C 158.601,181.951 158.675,181.465 158.824,181.04 C 158.973,180.615 159.176,180.258 159.432,179.967 C 159.689,179.676 159.988,179.455 160.33,179.304 C 160.672,179.152 161.038,179.077 161.429,179.077 C 161.654,179.077 161.859,179.088 162.044,179.11 C 162.23,179.132 162.402,179.169 162.561,179.223 C 162.72,179.277 162.871,179.346 163.015,179.432 C 163.159,179.517 163.305,179.624 163.451,179.751 C 163.51,179.8 163.573,179.84 163.642,179.872 C 163.71,179.903 163.781,179.919 163.854,179.919 Z" marker-start="none" marker-end="none"/>
       <path d="M 165.873,178.309 C 165.873,178.485 165.906,178.649 165.972,178.8 C 166.037,178.952 166.128,179.084 166.243,179.196 C 166.357,179.309 166.493,179.398 166.649,179.464 C 166.806,179.53 166.977,179.563 167.162,179.563 C 167.343,179.563 167.511,179.53 167.668,179.464 C 167.824,179.398 167.961,179.309 168.078,179.196 C 168.195,179.084 168.287,178.952 168.353,178.8 C 168.419,178.649 168.452,178.485 168.452,178.309 C 168.452,178.133 168.419,177.968 168.353,177.814 C 168.287,177.66 168.195,177.527 168.078,177.415 C 167.961,177.302 167.824,177.214 167.668,177.151 C 167.511,177.087 167.343,177.055 167.162,177.055 C 166.977,177.055 166.806,177.087 166.649,177.151 C 166.493,177.214 166.357,177.302 166.243,177.415 C 166.128,177.527 166.037,177.66 165.972,177.814 C 165.906,177.968 165.873,178.133 165.873,178.309 Z" marker-start="none" marker-end="none"/>
      </g>
     </g>
     <g id="Group_21" fill-rule="nonzero" stroke-linejoin="round" stroke-linecap="round" stroke="none" stroke-width="0.387" fill="#000000" stroke-miterlimit="79.8403193612775">
      <g id="Group_22">
       <path d="M 109.409,32.913 L 109.409,29.831 L 112.288,29.831 L 112.288,28.102 L 109.409,28.102 L 109.409,25.005 L 107.448,25.005 L 107.448,28.102 L 104.584,28.102 L 104.584,29.831 L 107.448,29.831 L 107.448,32.913 L 109.409,32.913 Z" marker-start="none" marker-end="none"/>
       <path d="M 114.919,25.48 L 117.098,25.48 L 117.098,31.2 C 117.098,31.481 117.106,31.774 117.121,32.08 L 115.837,31.013 C 115.754,30.946 115.671,30.898 115.588,30.869 C 115.505,30.841 115.425,30.827 115.347,30.827 C 115.212,30.827 115.092,30.856 114.985,30.916 C 114.879,30.976 114.8,31.039 114.748,31.107 L 113.985,32.119 L 117.518,35.084 L 119.511,35.084 L 119.511,25.48 L 121.378,25.48 L 121.378,23.736 L 114.919,23.736 L 114.919,25.48 Z" marker-start="none" marker-end="none"/>
      </g>
     </g>
     <g id="Group_23" fill-rule="nonzero" stroke-linejoin="round" stroke-linecap="round" stroke="none" stroke-width="0.387" fill="#000000" stroke-miterlimit="79.8403193612775">
      <g id="Group_24">
       <path d="M 120.789,91.031 L 120.789,87.949 L 123.668,87.949 L 123.668,86.22 L 120.789,86.22 L 120.789,83.123 L 118.828,83.123 L 118.828,86.22 L 115.964,86.22 L 115.964,87.949 L 118.828,87.949 L 118.828,91.031 L 120.789,91.031 Z" marker-start="none" marker-end="none"/>
       <path d="M 129.023,93.318 C 129.583,93.318 130.088,93.236 130.536,93.073 C 130.985,92.91 131.368,92.683 131.684,92.392 C 132.001,92.102 132.243,91.755 132.412,91.353 C 132.581,90.951 132.665,90.509 132.665,90.026 C 132.665,89.611 132.607,89.227 132.49,88.874 C 132.373,88.521 132.214,88.185 132.011,87.866 C 131.809,87.547 131.574,87.239 131.307,86.94 C 131.04,86.642 130.756,86.34 130.455,86.034 L 128.237,83.761 C 128.522,83.845 128.804,83.911 129.081,83.961 C 129.359,84.011 129.619,84.035 129.863,84.035 L 131.98,84.035 C 132.239,84.035 132.444,83.964 132.595,83.821 C 132.745,83.678 132.821,83.49 132.821,83.256 L 132.821,81.854 L 124.852,81.854 L 124.852,82.632 C 124.852,82.783 124.883,82.944 124.945,83.115 C 125.007,83.286 125.116,83.442 125.272,83.582 L 128.54,86.874 C 128.821,87.155 129.064,87.422 129.272,87.676 C 129.479,87.93 129.651,88.181 129.786,88.427 C 129.92,88.674 130.022,88.92 130.089,89.167 C 130.156,89.413 130.19,89.674 130.19,89.949 C 130.19,90.4 130.083,90.747 129.867,90.988 C 129.652,91.229 129.324,91.35 128.883,91.35 C 128.701,91.35 128.535,91.324 128.385,91.272 C 128.234,91.22 128.099,91.15 127.98,91.062 C 127.861,90.974 127.758,90.87 127.673,90.751 C 127.587,90.631 127.518,90.502 127.466,90.362 C 127.383,90.128 127.278,89.96 127.151,89.856 C 127.024,89.752 126.852,89.7 126.634,89.7 C 126.582,89.7 126.526,89.703 126.466,89.708 C 126.407,89.713 126.346,89.721 126.284,89.731 L 125.007,89.953 C 125.09,90.519 125.25,91.013 125.486,91.433 C 125.722,91.854 126.015,92.204 126.365,92.485 C 126.715,92.765 127.116,92.974 127.568,93.112 C 128.019,93.249 128.504,93.318 129.023,93.318 Z" marker-start="none" marker-end="none"/>
      </g>
     </g>
     <g id="Group_25" fill-rule="nonzero" stroke-linejoin="round" stroke-linecap="round" stroke="none" stroke-width="0.387" fill="#000000" stroke-miterlimit="79.8403193612775">
      <g id="Group_26">
       <path d="M 179.017,107.072 L 179.017,103.99 L 181.896,103.99 L 181.896,102.261 L 179.017,102.261 L 179.017,99.164 L 177.056,99.164 L 177.056,102.261 L 174.192,102.261 L 174.192,103.99 L 177.056,103.99 L 177.056,107.072 L 179.017,107.072 Z" marker-start="none" marker-end="none"/>
       <path d="M 184.527,99.639 L 186.706,99.639 L 186.706,105.359 C 186.706,105.64 186.714,105.933 186.729,106.239 L 185.445,105.172 C 185.362,105.105 185.279,105.057 185.196,105.028 C 185.113,105 185.033,104.986 184.955,104.986 C 184.82,104.986 184.7,105.015 184.593,105.075 C 184.487,105.135 184.408,105.198 184.356,105.266 L 183.593,106.278 L 187.126,109.243 L 189.119,109.243 L 189.119,99.639 L 190.986,99.639 L 190.986,97.895 L 184.527,97.895 L 184.527,99.639 Z" marker-start="none" marker-end="none"/>
      </g>
     </g>
    </g>
   </g>
  </g>
 </g>
</svg>
