<?xml version="1.0" standalone="no"?>
<!DOCTYPE svg PUBLIC "-//W3C//DTD SVG 1.1//EN" "http://www.w3.org/Graphics/SVG/1.1/DTD/svg11.dtd">
<!--Generator: Xara Designer (www.xara.com), SVG filter version: 6.2.0.0-->
<svg stroke-width="0.501" stroke-linejoin="bevel" fill-rule="evenodd" xmlns:xlink="http://www.w3.org/1999/xlink" xmlns="http://www.w3.org/2000/svg" version="1.1" overflow="visible" width="215.434pt" height="215.434pt" viewBox="0 0 215.434 215.434">
 <defs>
	</defs>
 <g id="Document" fill="none" stroke="black" font-family="Times New Roman" font-size="16" transform="scale(1 -1)">
  <g id="Spread" transform="translate(0 -215.434)">
   <g id="Layer 1">
    <g id="Group">
     <path d="M 200.576,214.252 L 15.995,214.252 C 7.618,214.252 0.819,207.453 0.819,199.076 L 0.819,14.495 C 0.819,6.118 7.618,-0.681 15.995,-0.681 L 200.576,-0.681 C 208.953,-0.681 215.752,6.118 215.752,14.495 L 215.752,199.076 C 215.752,207.453 208.953,214.252 200.576,214.252 Z" stroke="#999999" fill="#ffffff" stroke-linejoin="miter" marker-start="none" marker-end="none"/>
     <g id="Group_1" stroke-linejoin="miter" stroke-linecap="round" stroke="#95afc0">
      <path d="M 15.005,146.115 L 15.005,180.007 L 118.593,180.007 L 118.593,146.115 L 15.005,146.115 Z" fill="#95afc0" stroke-width="1.738" marker-start="none" marker-end="none" stroke-miterlimit="79.8403193612775"/>
      <path d="M 15.005,144.772 L 15.005,154.582 C 15.005,157.153 17.089,159.23 19.651,159.23 L 113.943,159.23 C 116.505,159.23 118.593,157.153 118.593,154.582 L 118.593,144.772 C 118.593,142.196 116.505,140.118 113.943,140.118 L 19.651,140.118 C 17.089,140.118 15.005,142.196 15.005,144.772 Z" fill="#95afc0" stroke-width="1.738" marker-start="none" marker-end="none" stroke-miterlimit="79.8403193612775"/>
      <path d="M 15.702,173.665 L 15.702,191.31 C 15.702,195.923 19.446,199.669 24.064,199.669 L 191.11,199.669 C 195.723,199.669 199.471,195.923 199.471,191.31 L 199.471,173.665 C 199.471,169.047 195.723,165.299 191.11,165.299 L 24.064,165.299 C 19.446,165.299 15.702,169.047 15.702,173.665 Z" fill="#ffffff" stroke-width="3.13" marker-start="none" marker-end="none" stroke-miterlimit="79.8403193612775"/>
     </g>
     <g id="Group_2" stroke-linecap="round" stroke="none" fill="#e5e5e5">
      <path d="M 100.464,0.438 L 91.93,0.438 L 91.93,49.601 L 100.464,49.601 L 100.464,0.438 Z" stroke-width="0.103" stroke-linejoin="miter" marker-start="none" marker-end="none" stroke-miterlimit="79.8403193612775"/>
      <path d="M 120.696,100.043 C 107.257,87.775 100.428,70.962 100.425,54.089 L 91.946,54.089 C 91.951,73.261 99.701,92.374 114.97,106.308 C 128.531,118.682 145.608,124.783 162.631,124.778 L 162.631,116.292 C 147.649,116.299 132.622,110.93 120.696,100.043 Z" stroke-width="0.541" stroke-linejoin="round" marker-start="none" marker-end="none" stroke-miterlimit="79.8403193612775"/>
      <path d="M 200.584,120.551 L 197.539,118.433 L 194.486,116.311 L 194.486,116.258 L 167.209,116.258 L 167.209,124.794 L 194.486,124.794 L 197.539,122.674 L 200.584,120.551 Z" stroke-width="0.103" stroke-linejoin="miter" marker-start="none" marker-end="none" stroke-miterlimit="79.8403193612775"/>
     </g>
     <g id="Group_3" fill="#ffcd36" stroke-linecap="round" stroke="none">
      <path d="M 200.588,109.001 L 197.542,106.881 L 194.486,104.76 L 194.486,109.001 L 194.49,113.242 L 197.542,111.119 L 200.588,109.001 Z M 194.486,104.737 L 167.209,104.737 L 167.209,113.271 L 194.486,113.271 L 194.486,104.737 Z" stroke-width="0.103" stroke-linejoin="miter" marker-start="none" marker-end="none" stroke-miterlimit="79.8403193612775"/>
      <path d="M 128.318,91.689 C 117.327,81.649 111.74,67.894 111.735,54.089 L 103.254,54.089 C 103.258,70.196 109.773,86.246 122.601,97.955 C 133.988,108.349 148.331,113.469 162.631,113.466 L 162.631,104.98 C 150.374,104.99 138.082,100.595 128.318,91.689 Z" stroke-width="0.453" stroke-linejoin="round" marker-start="none" marker-end="none" stroke-miterlimit="79.8403193612775"/>
      <path d="M 111.767,0.438 L 103.235,0.438 L 103.235,49.601 L 111.767,49.601 L 111.767,0.438 Z" stroke-width="0.103" stroke-linejoin="miter" marker-start="none" marker-end="none" stroke-miterlimit="79.8403193612775"/>
     </g>
     <g id="Group_4" stroke-linecap="round" stroke="none" fill="#e5e5e5">
      <path d="M 200.588,97.685 L 197.542,95.569 L 194.486,93.448 L 194.486,97.689 L 194.49,101.932 L 197.542,99.812 L 200.588,97.685 Z M 194.486,93.439 L 167.209,93.439 L 167.209,101.974 L 194.486,101.974 L 194.486,93.439 Z" stroke-width="0.103" stroke-linejoin="miter" marker-start="none" marker-end="none" stroke-miterlimit="79.8403193612775"/>
      <path d="M 123.065,0.438 L 114.534,0.438 L 114.534,49.601 L 123.065,49.601 L 123.065,0.438 Z" stroke-width="0.103" stroke-linejoin="miter" marker-start="none" marker-end="none" stroke-miterlimit="79.8403193612775"/>
      <path d="M 135.945,83.334 C 127.393,75.527 123.053,64.822 123.047,54.089 L 114.563,54.089 C 114.566,67.131 119.839,80.121 130.228,89.6 C 139.443,98.011 151.059,102.159 162.631,102.157 L 162.631,93.675 C 153.099,93.675 143.534,90.261 135.945,83.334 Z" stroke-width="0.368" stroke-linejoin="round" marker-start="none" marker-end="none" stroke-miterlimit="79.8403193612775"/>
     </g>
     <g id="Group_5" fill="#e5e5e5" stroke-linecap="round" stroke="none">
      <path d="M 134.361,0.438 L 125.827,0.438 L 125.827,49.601 L 134.361,49.601 L 134.361,0.438 Z" stroke-width="0.103" stroke-linejoin="miter" marker-start="none" marker-end="none" stroke-miterlimit="79.8403193612775"/>
      <path d="M 143.566,74.979 C 137.459,69.401 134.359,61.763 134.356,54.089 L 125.869,54.089 C 125.878,64.059 129.911,73.998 137.849,81.241 C 144.898,87.68 153.775,90.851 162.631,90.847 L 162.631,82.359 C 155.824,82.366 148.992,79.924 143.566,74.979 Z" stroke-width="0.281" stroke-linejoin="round" marker-start="none" marker-end="none" stroke-miterlimit="79.8403193612775"/>
      <path d="M 200.584,86.632 L 197.539,84.5 L 194.486,82.359 L 194.486,82.359 L 167.209,82.359 L 167.209,90.898 L 194.486,90.898 L 194.486,90.898 L 197.542,88.768 L 200.584,86.632 Z" stroke-width="0.103" stroke-linejoin="miter" marker-start="none" marker-end="none" stroke-miterlimit="79.8403193612775"/>
     </g>
     <g id="Group_6" stroke-linejoin="miter" stroke-miterlimit="79.8403193612775">
      <path d="M 59.5,89.157 C 53.6,96.135 54.479,106.595 61.474,112.504 C 68.456,118.396 78.909,117.517 84.813,110.53 C 90.722,103.538 89.836,93.084 82.839,87.179 C 75.857,81.284 65.4,82.163 59.5,89.157 Z" stroke="none" fill="#000000" stroke-width="0.686" marker-start="none" marker-end="none" stroke-miterlimit="19.9600798403194"/>
      <path d="M 60.278,89.766 C 54.387,96.764 55.259,107.223 62.252,113.116 C 69.241,119.025 79.693,118.142 85.609,111.149 C 91.506,104.167 90.621,93.715 83.627,87.81 C 76.648,81.904 66.184,82.783 60.278,89.766 Z" stroke="#b2b2b2" stroke-width="3.752" marker-start="none" marker-end="none" stroke-miterlimit="19.9600798403194"/>
     </g>
     <g id="Group_7" stroke-linejoin="miter" stroke-miterlimit="79.8403193612775">
      <path d="M 18.815,89.144 C 12.915,96.133 13.794,106.601 20.791,112.492 C 27.774,118.403 38.228,117.52 44.13,110.532 C 50.041,103.543 49.155,93.083 42.157,87.179 C 35.174,81.28 24.715,82.163 18.815,89.144 Z" stroke="none" fill="#ffffff" stroke-width="0.689" marker-start="none" marker-end="none" stroke-miterlimit="19.9600798403194"/>
      <path d="M 19.595,89.779 C 13.702,96.771 14.575,107.217 21.567,113.13 C 28.558,119.014 39.013,118.142 44.926,111.154 C 50.824,104.167 49.94,93.701 42.946,87.801 C 35.965,81.902 25.5,82.78 19.595,89.779 Z" stroke="#55bae6" stroke-width="3.752" marker-start="none" marker-end="none" stroke-miterlimit="19.9600798403194"/>
     </g>
     <g id="Group_8" stroke-linejoin="miter" stroke-miterlimit="79.8403193612775">
      <path d="M 21.355,24.9 C 12.458,35.44 13.783,51.226 24.335,60.11 C 34.866,69.024 50.631,67.692 59.532,57.154 C 68.446,46.614 67.11,30.84 56.556,21.937 C 46.025,13.041 30.253,14.372 21.355,24.9 Z" stroke="none" fill="#ffffff" stroke-width="1.039" marker-start="none" marker-end="none" stroke-miterlimit="19.9600798403194"/>
      <path d="M 22.532,25.857 C 13.645,36.402 14.961,52.155 25.505,61.072 C 36.048,69.945 51.815,68.63 60.732,58.092 C 69.626,47.555 68.293,31.772 57.746,22.875 C 47.218,13.979 31.437,15.303 22.532,25.857 Z" stroke="#55bae6" stroke-width="5.658" marker-start="none" marker-end="none" stroke-miterlimit="19.9600798403194"/>
     </g>
     <g id="Group_9" stroke-linejoin="miter" stroke-miterlimit="79.8403193612775">
      <path d="M 152.945,24.496 C 144.048,35.036 145.373,50.822 155.925,59.706 C 166.456,68.62 182.221,67.288 191.122,56.75 C 200.036,46.21 198.7,30.436 188.146,21.533 C 177.615,12.637 161.843,13.968 152.945,24.496 Z" stroke="none" fill="#000000" stroke-width="1.039" marker-start="none" marker-end="none" stroke-miterlimit="19.9600798403194"/>
      <path d="M 154.122,25.453 C 145.235,35.998 146.551,51.751 157.095,60.668 C 167.638,69.541 183.405,68.226 192.322,57.688 C 201.216,47.151 199.883,31.368 189.336,22.471 C 178.808,13.575 163.027,14.899 154.122,25.453 Z" stroke="#b2b2b2" stroke-width="5.658" marker-start="none" marker-end="none" stroke-miterlimit="19.9600798403194"/>
     </g>
     <g id="Group_10" stroke-linejoin="miter" stroke-miterlimit="79.8403193612775">
      <path d="M 102.705,20.796 C 98.18,26.152 98.856,34.168 104.214,38.692 C 109.57,43.215 117.591,42.543 122.11,37.185 C 126.635,31.829 125.96,23.81 120.601,19.29 C 115.247,14.762 107.227,15.445 102.705,20.796 Z" stroke="none" fill="#ffffff" stroke-width="0.526" marker-start="none" marker-end="none" stroke-miterlimit="19.9600798403194"/>
      <path d="M 103.308,21.278 C 98.784,26.627 99.46,34.649 104.816,39.17 C 110.175,43.698 118.191,43.02 122.715,37.661 C 127.243,32.31 126.566,24.287 121.206,19.763 C 115.846,15.242 107.831,15.916 103.308,21.278 Z" fill="none" stroke="#55bae6" stroke-width="2.872" marker-start="none" marker-end="none" stroke-miterlimit="19.9600798403194"/>
     </g>
     <g id="Group_11" stroke-linejoin="miter" stroke-miterlimit="79.8403193612775">
      <path d="M 114.656,78.11 C 110.135,83.461 110.81,91.48 116.167,96.008 C 121.524,100.524 129.543,99.851 134.067,94.493 C 138.59,89.139 137.91,81.122 132.556,76.599 C 127.2,72.075 119.181,72.751 114.656,78.11 Z" stroke="none" fill="#ffffff" stroke-width="0.526" marker-start="none" marker-end="none" stroke-miterlimit="19.9600798403194"/>
      <path d="M 115.265,78.588 C 110.737,83.942 111.411,91.958 116.771,96.482 C 122.129,101.007 130.144,100.333 134.669,94.971 C 139.197,89.615 138.512,81.598 133.161,77.072 C 127.801,72.547 119.786,73.228 115.265,78.588 Z" fill="none" stroke="#55bae6" stroke-width="2.872" marker-start="none" marker-end="none" stroke-miterlimit="19.9600798403194"/>
     </g>
     <g id="Group_12" stroke-linejoin="miter" stroke-miterlimit="79.8403193612775">
      <path d="M 172.277,94.895 C 167.753,100.251 168.432,108.268 173.787,112.796 C 179.148,117.317 187.167,116.639 191.69,111.281 C 196.218,105.929 195.536,97.906 190.179,93.387 C 184.819,88.868 176.803,89.542 172.277,94.895 Z" stroke="none" fill="#ffffff" stroke-width="0.526" marker-start="none" marker-end="none" stroke-miterlimit="19.9600798403194"/>
      <path d="M 172.884,95.379 C 168.36,100.73 169.037,108.749 174.395,113.274 C 179.755,117.795 187.77,117.121 192.293,111.761 C 196.819,106.408 196.142,98.388 190.786,93.867 C 185.424,89.342 177.407,90.018 172.884,95.379 Z" fill="none" stroke="#55bae6" stroke-width="2.872" marker-start="none" marker-end="none" stroke-miterlimit="19.9600798403194"/>
     </g>
     <g id="Group_13" fill-rule="nonzero" stroke-linejoin="round" stroke-linecap="round" stroke="none" stroke-width="0.485" fill="#b2b2b2" stroke-miterlimit="79.8403193612775">
      <g id="Group_14">
       <path d="M 72.123,107.718 C 72.824,107.718 73.456,107.616 74.018,107.411 C 74.58,107.207 75.059,106.922 75.456,106.559 C 75.852,106.195 76.156,105.761 76.367,105.258 C 76.578,104.754 76.684,104.2 76.684,103.596 C 76.684,103.076 76.611,102.595 76.464,102.153 C 76.318,101.711 76.118,101.291 75.865,100.891 C 75.612,100.492 75.318,100.105 74.983,99.731 C 74.648,99.358 74.293,98.979 73.916,98.596 L 71.138,95.75 C 71.496,95.855 71.848,95.938 72.196,96 C 72.543,96.063 72.87,96.093 73.175,96.093 L 75.826,96.093 C 76.151,96.093 76.407,96.004 76.596,95.825 C 76.784,95.646 76.879,95.41 76.879,95.118 L 76.879,93.362 L 66.899,93.362 L 66.899,94.337 C 66.899,94.525 66.938,94.726 67.016,94.941 C 67.094,95.155 67.231,95.35 67.425,95.526 L 71.519,99.649 C 71.869,100 72.175,100.335 72.435,100.653 C 72.694,100.971 72.909,101.285 73.078,101.593 C 73.247,101.902 73.373,102.211 73.458,102.519 C 73.542,102.828 73.585,103.155 73.585,103.499 C 73.585,104.064 73.45,104.498 73.18,104.8 C 72.91,105.102 72.5,105.254 71.947,105.254 C 71.72,105.254 71.512,105.221 71.324,105.156 C 71.135,105.091 70.966,105.003 70.817,104.893 C 70.667,104.783 70.539,104.653 70.432,104.503 C 70.325,104.354 70.239,104.191 70.174,104.016 C 70.07,103.724 69.938,103.513 69.779,103.383 C 69.62,103.253 69.404,103.188 69.131,103.188 C 69.066,103.188 68.996,103.191 68.921,103.197 C 68.847,103.204 68.77,103.213 68.692,103.226 L 67.094,103.504 C 67.198,104.213 67.398,104.831 67.693,105.358 C 67.989,105.885 68.356,106.323 68.795,106.675 C 69.233,107.026 69.735,107.287 70.3,107.46 C 70.866,107.632 71.473,107.718 72.123,107.718 Z" marker-start="none" marker-end="none"/>
      </g>
     </g>
     <g id="Group_15" fill-rule="nonzero" stroke-linejoin="round" stroke-linecap="round" stroke="none" stroke-width="0.485" fill="#000000" stroke-miterlimit="79.8403193612775">
      <g id="Group_16">
       <path d="M 32.641,107.718 C 33.342,107.718 33.966,107.619 34.512,107.42 C 35.057,107.222 35.519,106.953 35.896,106.614 C 36.272,106.275 36.558,105.883 36.753,105.436 C 36.948,104.99 37.046,104.519 37.046,104.024 C 37.046,103.575 37,103.179 36.909,102.836 C 36.818,102.494 36.683,102.198 36.505,101.947 C 36.326,101.696 36.105,101.483 35.842,101.307 C 35.579,101.131 35.278,100.985 34.941,100.867 C 36.513,100.323 37.299,99.256 37.299,97.668 C 37.299,96.916 37.162,96.262 36.89,95.704 C 36.617,95.146 36.251,94.683 35.793,94.314 C 35.335,93.944 34.804,93.667 34.2,93.482 C 33.596,93.297 32.965,93.205 32.309,93.205 C 31.634,93.205 31.033,93.278 30.506,93.424 C 29.98,93.57 29.512,93.798 29.103,94.106 C 28.694,94.415 28.335,94.809 28.026,95.29 C 27.718,95.771 27.45,96.342 27.222,97.005 L 28.567,97.552 C 28.684,97.605 28.799,97.64 28.913,97.66 C 29.027,97.679 29.139,97.689 29.249,97.689 C 29.457,97.689 29.644,97.648 29.81,97.567 C 29.975,97.486 30.1,97.367 30.185,97.211 C 30.477,96.671 30.787,96.279 31.115,96.036 C 31.444,95.792 31.828,95.67 32.27,95.67 C 32.608,95.67 32.902,95.727 33.152,95.841 C 33.402,95.954 33.61,96.1 33.776,96.279 C 33.942,96.458 34.067,96.662 34.151,96.889 C 34.236,97.117 34.278,97.348 34.278,97.582 C 34.278,97.887 34.257,98.162 34.215,98.406 C 34.172,98.65 34.054,98.86 33.859,99.035 C 33.664,99.211 33.37,99.346 32.977,99.44 C 32.584,99.534 32.036,99.581 31.335,99.581 L 31.335,101.666 C 31.926,101.666 32.403,101.711 32.767,101.802 C 33.131,101.893 33.412,102.018 33.61,102.178 C 33.808,102.337 33.94,102.53 34.005,102.758 C 34.07,102.985 34.102,103.235 34.102,103.508 C 34.102,104.067 33.968,104.498 33.698,104.8 C 33.428,105.102 33.017,105.254 32.465,105.254 C 32.238,105.254 32.03,105.221 31.841,105.156 C 31.653,105.091 31.484,105.003 31.335,104.893 C 31.185,104.782 31.057,104.652 30.95,104.503 C 30.843,104.353 30.757,104.191 30.692,104.015 C 30.588,103.723 30.456,103.512 30.297,103.382 C 30.138,103.252 29.922,103.186 29.649,103.186 C 29.584,103.186 29.514,103.19 29.439,103.196 C 29.365,103.203 29.288,103.212 29.21,103.225 L 27.612,103.508 C 27.716,104.216 27.916,104.834 28.211,105.36 C 28.507,105.886 28.874,106.325 29.313,106.676 C 29.751,107.026 30.253,107.288 30.818,107.46 C 31.383,107.632 31.991,107.718 32.641,107.718 Z" marker-start="none" marker-end="none"/>
      </g>
     </g>
     <g id="Group_17" fill-rule="nonzero" stroke-linejoin="round" stroke-linecap="round" stroke="none" stroke-width="0.319" fill="#ffffff" stroke-miterlimit="79.8403193612775">
      <g id="Group_18">
       <path d="M 27.495,151.776 L 27.495,148.663 L 25.334,148.663 L 25.334,157.978 L 28.62,157.978 C 29.276,157.978 29.84,157.9 30.311,157.745 C 30.781,157.589 31.169,157.375 31.474,157.102 C 31.779,156.829 32.003,156.507 32.148,156.137 C 32.293,155.766 32.366,155.365 32.366,154.935 C 32.366,154.47 32.291,154.044 32.142,153.656 C 31.993,153.268 31.765,152.935 31.458,152.658 C 31.151,152.381 30.762,152.165 30.291,152.009 C 29.82,151.854 29.263,151.776 28.62,151.776 L 27.495,151.776 Z M 27.495,153.405 L 28.62,153.405 C 29.182,153.405 29.587,153.54 29.834,153.808 C 30.082,154.077 30.205,154.453 30.205,154.934 C 30.205,155.148 30.173,155.342 30.109,155.517 C 30.045,155.692 29.948,155.842 29.818,155.968 C 29.688,156.093 29.524,156.191 29.326,156.259 C 29.128,156.327 28.893,156.361 28.62,156.361 L 27.495,156.361 L 27.495,153.405 Z" marker-start="none" marker-end="none"/>
       <path d="M 35.654,152.107 L 35.654,148.661 L 33.493,148.661 L 33.493,157.975 L 36.523,157.975 C 37.196,157.975 37.771,157.906 38.246,157.767 C 38.721,157.628 39.109,157.435 39.409,157.188 C 39.71,156.94 39.928,156.648 40.064,156.311 C 40.201,155.974 40.269,155.607 40.269,155.21 C 40.269,154.907 40.229,154.621 40.148,154.352 C 40.067,154.084 39.946,153.835 39.786,153.607 C 39.627,153.378 39.431,153.175 39.198,152.995 C 38.966,152.816 38.699,152.669 38.396,152.554 C 38.541,152.482 38.676,152.392 38.802,152.286 C 38.928,152.179 39.037,152.05 39.131,151.896 L 41.113,148.661 L 39.157,148.661 C 38.795,148.661 38.535,148.797 38.377,149.07 L 36.83,151.774 C 36.762,151.894 36.682,151.979 36.59,152.03 C 36.499,152.081 36.37,152.107 36.203,152.107 L 35.654,152.107 Z M 35.654,153.596 L 36.523,153.596 C 36.817,153.596 37.068,153.633 37.274,153.708 C 37.481,153.782 37.65,153.886 37.782,154.018 C 37.914,154.15 38.01,154.304 38.07,154.481 C 38.13,154.658 38.16,154.849 38.16,155.054 C 38.16,155.463 38.026,155.783 37.76,156.013 C 37.494,156.243 37.081,156.358 36.523,156.358 L 35.654,156.358 L 35.654,153.596 Z" marker-start="none" marker-end="none"/>
       <path d="M 50.869,153.321 C 50.869,152.648 50.753,152.021 50.521,151.442 C 50.289,150.862 49.962,150.358 49.54,149.929 C 49.118,149.501 48.61,149.165 48.015,148.922 C 47.421,148.679 46.761,148.558 46.037,148.558 C 45.312,148.558 44.652,148.679 44.055,148.922 C 43.458,149.165 42.948,149.501 42.524,149.929 C 42.1,150.358 41.772,150.862 41.54,151.442 C 41.307,152.021 41.191,152.648 41.191,153.321 C 41.191,153.995 41.307,154.621 41.54,155.201 C 41.772,155.781 42.1,156.283 42.524,156.71 C 42.948,157.136 43.458,157.471 44.055,157.714 C 44.652,157.956 45.312,158.078 46.037,158.078 C 46.761,158.078 47.421,157.955 48.015,157.71 C 48.61,157.465 49.118,157.13 49.54,156.703 C 49.962,156.277 50.289,155.774 50.521,155.194 C 50.753,154.615 50.869,153.99 50.869,153.321 Z M 48.658,153.321 C 48.658,153.781 48.598,154.195 48.479,154.564 C 48.359,154.932 48.188,155.245 47.964,155.5 C 47.74,155.756 47.466,155.952 47.143,156.088 C 46.819,156.224 46.45,156.292 46.037,156.293 C 45.619,156.292 45.247,156.224 44.921,156.088 C 44.595,155.952 44.32,155.756 44.097,155.5 C 43.873,155.245 43.701,154.932 43.582,154.564 C 43.463,154.195 43.403,153.781 43.403,153.321 C 43.403,152.857 43.463,152.44 43.582,152.072 C 43.701,151.703 43.873,151.391 44.097,151.136 C 44.32,150.88 44.595,150.685 44.921,150.551 C 45.247,150.417 45.619,150.35 46.037,150.35 C 46.45,150.35 46.819,150.417 47.143,150.551 C 47.466,150.685 47.74,150.88 47.964,151.136 C 48.188,151.391 48.359,151.703 48.479,152.072 C 48.598,152.44 48.658,152.857 48.658,153.321 Z" marker-start="none" marker-end="none"/>
       <path d="M 60.354,153.323 C 60.354,152.649 60.238,152.028 60.005,151.459 C 59.773,150.89 59.446,150.397 59.024,149.982 C 58.602,149.566 58.094,149.242 57.5,149.01 C 56.905,148.777 56.246,148.661 55.521,148.661 L 51.903,148.661 L 51.903,157.978 L 55.521,157.978 C 56.246,157.978 56.905,157.861 57.5,157.626 C 58.094,157.392 58.602,157.068 59.024,156.654 C 59.446,156.241 59.773,155.749 60.005,155.18 C 60.238,154.611 60.354,153.992 60.354,153.323 Z M 58.142,153.323 C 58.142,153.783 58.082,154.198 57.963,154.569 C 57.844,154.94 57.672,155.254 57.448,155.512 C 57.225,155.77 56.951,155.968 56.627,156.107 C 56.303,156.245 55.935,156.314 55.521,156.314 L 54.077,156.314 L 54.077,150.325 L 55.521,150.325 C 55.935,150.325 56.303,150.394 56.627,150.532 C 56.951,150.671 57.225,150.869 57.448,151.127 C 57.672,151.385 57.844,151.699 57.963,152.07 C 58.082,152.441 58.142,152.858 58.142,153.323 Z" marker-start="none" marker-end="none"/>
       <path d="M 65.266,150.368 C 65.556,150.368 65.815,150.416 66.043,150.512 C 66.271,150.608 66.463,150.745 66.621,150.925 C 66.779,151.104 66.899,151.322 66.982,151.58 C 67.065,151.838 67.107,152.131 67.107,152.459 L 67.107,157.976 L 69.268,157.976 L 69.268,152.458 C 69.268,151.887 69.175,151.363 68.989,150.885 C 68.804,150.408 68.539,149.997 68.194,149.651 C 67.848,149.306 67.429,149.038 66.934,148.846 C 66.44,148.654 65.884,148.558 65.266,148.558 C 64.644,148.558 64.085,148.654 63.591,148.846 C 63.097,149.038 62.677,149.306 62.332,149.651 C 61.987,149.997 61.722,150.408 61.539,150.885 C 61.356,151.363 61.264,151.887 61.264,152.458 L 61.264,157.976 L 63.425,157.976 L 63.425,152.465 C 63.425,152.137 63.466,151.844 63.55,151.586 C 63.633,151.328 63.753,151.109 63.911,150.928 C 64.068,150.747 64.261,150.608 64.489,150.512 C 64.717,150.416 64.976,150.368 65.266,150.368 Z" marker-start="none" marker-end="none"/>
       <path d="M 76.933,151.069 C 76.984,151.069 77.036,151.06 77.087,151.04 C 77.138,151.02 77.187,150.987 77.234,150.939 L 78.09,150.018 C 77.715,149.536 77.245,149.172 76.681,148.926 C 76.116,148.681 75.448,148.558 74.677,148.558 C 73.969,148.558 73.335,148.678 72.775,148.919 C 72.215,149.16 71.739,149.493 71.349,149.917 C 70.96,150.341 70.66,150.844 70.451,151.426 C 70.243,152.007 70.138,152.639 70.138,153.321 C 70.138,154.016 70.257,154.654 70.496,155.236 C 70.735,155.818 71.068,156.32 71.497,156.742 C 71.925,157.164 72.437,157.492 73.034,157.726 C 73.631,157.961 74.289,158.078 75.009,158.078 C 75.359,158.078 75.688,158.047 75.997,157.985 C 76.306,157.923 76.594,157.838 76.863,157.729 C 77.131,157.62 77.379,157.49 77.604,157.338 C 77.83,157.187 78.031,157.019 78.205,156.836 L 77.477,155.858 C 77.43,155.798 77.374,155.744 77.31,155.695 C 77.246,155.646 77.157,155.621 77.042,155.621 C 76.965,155.621 76.893,155.638 76.825,155.672 C 76.756,155.706 76.684,155.748 76.607,155.797 C 76.531,155.846 76.446,155.899 76.355,155.957 C 76.263,156.014 76.154,156.068 76.029,156.117 C 75.903,156.166 75.756,156.207 75.588,156.241 C 75.419,156.275 75.222,156.292 74.996,156.293 C 74.604,156.292 74.246,156.223 73.922,156.085 C 73.599,155.946 73.32,155.748 73.088,155.49 C 72.856,155.232 72.675,154.92 72.545,154.554 C 72.415,154.187 72.35,153.776 72.35,153.32 C 72.35,152.842 72.415,152.418 72.545,152.047 C 72.675,151.677 72.852,151.364 73.075,151.111 C 73.299,150.857 73.56,150.664 73.859,150.532 C 74.157,150.4 74.476,150.334 74.817,150.334 C 75.013,150.334 75.192,150.344 75.354,150.363 C 75.516,150.382 75.666,150.415 75.805,150.462 C 75.943,150.509 76.076,150.569 76.201,150.644 C 76.327,150.719 76.454,150.811 76.582,150.922 C 76.633,150.965 76.688,151 76.748,151.028 C 76.808,151.055 76.869,151.069 76.933,151.069 Z" marker-start="none" marker-end="none"/>
       <path d="M 85.841,157.978 L 85.841,156.264 L 83.22,156.264 L 83.22,148.663 L 81.06,148.663 L 81.06,156.264 L 78.439,156.264 L 78.439,157.978 L 85.841,157.978 Z" marker-start="none" marker-end="none"/>
       <path d="M 89.103,148.661 L 86.93,148.661 L 86.93,157.978 L 89.103,157.978 L 89.103,148.661 Z" marker-start="none" marker-end="none"/>
       <path d="M 100.019,153.321 C 100.019,152.648 99.903,152.021 99.671,151.442 C 99.439,150.862 99.112,150.358 98.69,149.929 C 98.268,149.501 97.76,149.165 97.165,148.922 C 96.571,148.679 95.911,148.558 95.187,148.558 C 94.462,148.558 93.802,148.679 93.205,148.922 C 92.608,149.165 92.098,149.501 91.674,149.929 C 91.25,150.358 90.922,150.862 90.69,151.442 C 90.457,152.021 90.341,152.648 90.341,153.321 C 90.341,153.995 90.457,154.621 90.69,155.201 C 90.922,155.781 91.25,156.283 91.674,156.71 C 92.098,157.136 92.608,157.471 93.205,157.714 C 93.802,157.956 94.462,158.078 95.187,158.078 C 95.911,158.078 96.571,157.955 97.165,157.71 C 97.76,157.465 98.268,157.13 98.69,156.703 C 99.112,156.277 99.439,155.774 99.671,155.194 C 99.903,154.615 100.019,153.99 100.019,153.321 Z M 97.808,153.321 C 97.808,153.781 97.748,154.195 97.629,154.564 C 97.509,154.932 97.338,155.245 97.114,155.5 C 96.89,155.756 96.616,155.952 96.293,156.088 C 95.969,156.224 95.6,156.292 95.187,156.293 C 94.769,156.292 94.397,156.224 94.071,156.088 C 93.745,155.952 93.47,155.756 93.247,155.5 C 93.023,155.245 92.851,154.932 92.732,154.564 C 92.613,154.195 92.553,153.781 92.553,153.321 C 92.553,152.857 92.613,152.44 92.732,152.072 C 92.851,151.703 93.023,151.391 93.247,151.136 C 93.47,150.88 93.745,150.685 94.071,150.551 C 94.397,150.417 94.769,150.35 95.187,150.35 C 95.6,150.35 95.969,150.417 96.293,150.551 C 96.616,150.685 96.89,150.88 97.114,151.136 C 97.338,151.391 97.509,151.703 97.629,152.072 C 97.748,152.44 97.808,152.857 97.808,153.321 Z" marker-start="none" marker-end="none"/>
       <path d="M 102.191,157.978 C 102.285,157.978 102.364,157.974 102.427,157.965 C 102.491,157.957 102.549,157.941 102.6,157.917 C 102.651,157.894 102.7,157.861 102.747,157.818 C 102.794,157.775 102.847,157.718 102.907,157.646 L 107.33,152.052 C 107.313,152.231 107.301,152.405 107.292,152.573 C 107.284,152.741 107.279,152.9 107.279,153.05 L 107.279,157.978 L 109.184,157.978 L 109.184,148.661 L 108.059,148.661 C 107.893,148.661 107.752,148.687 107.637,148.738 C 107.522,148.789 107.411,148.883 107.305,149.019 L 102.913,154.568 C 102.926,154.406 102.937,154.247 102.945,154.091 C 102.954,153.936 102.958,153.79 102.958,153.653 L 102.958,148.661 L 101.053,148.661 L 101.053,157.978 L 102.191,157.978 Z" marker-start="none" marker-end="none"/>
      </g>
     </g>
     <g id="Group_19" fill-rule="nonzero" stroke-linejoin="round" stroke-linecap="round" stroke="none" stroke-width="0.365" fill="#000000" stroke-miterlimit="79.8403193612775">
      <g id="Group_20">
       <path d="M 66.782,179.919 C 66.841,179.919 66.899,179.908 66.958,179.886 C 67.017,179.863 67.073,179.825 67.126,179.77 L 68.108,178.715 C 67.678,178.162 67.14,177.744 66.493,177.463 C 65.846,177.182 65.08,177.041 64.196,177.041 C 63.385,177.041 62.658,177.179 62.016,177.455 C 61.374,177.731 60.829,178.112 60.382,178.598 C 59.935,179.084 59.592,179.661 59.353,180.328 C 59.113,180.995 58.994,181.719 58.994,182.5 C 58.994,183.297 59.131,184.028 59.404,184.695 C 59.678,185.362 60.06,185.937 60.551,186.421 C 61.042,186.904 61.629,187.281 62.313,187.549 C 62.997,187.818 63.751,187.952 64.577,187.952 C 64.977,187.952 65.355,187.917 65.709,187.846 C 66.063,187.775 66.394,187.677 66.702,187.552 C 67.009,187.428 67.293,187.279 67.551,187.105 C 67.81,186.931 68.04,186.739 68.24,186.529 L 67.405,185.408 C 67.351,185.339 67.288,185.277 67.214,185.221 C 67.141,185.165 67.039,185.137 66.907,185.137 C 66.819,185.137 66.736,185.156 66.658,185.195 C 66.579,185.234 66.496,185.282 66.408,185.338 C 66.321,185.394 66.224,185.455 66.119,185.521 C 66.014,185.587 65.889,185.648 65.745,185.705 C 65.601,185.761 65.433,185.808 65.24,185.848 C 65.047,185.886 64.821,185.906 64.562,185.906 C 64.113,185.906 63.702,185.827 63.331,185.668 C 62.96,185.509 62.641,185.282 62.375,184.986 C 62.109,184.691 61.901,184.333 61.752,183.913 C 61.603,183.493 61.529,183.021 61.529,182.499 C 61.529,181.951 61.603,181.465 61.752,181.04 C 61.901,180.615 62.104,180.258 62.36,179.967 C 62.617,179.676 62.916,179.455 63.258,179.304 C 63.6,179.152 63.966,179.077 64.357,179.077 C 64.582,179.077 64.787,179.088 64.972,179.11 C 65.158,179.132 65.33,179.169 65.489,179.223 C 65.648,179.277 65.799,179.346 65.943,179.432 C 66.087,179.517 66.233,179.624 66.379,179.751 C 66.438,179.8 66.501,179.84 66.57,179.872 C 66.638,179.903 66.709,179.919 66.782,179.919 Z" marker-start="none" marker-end="none"/>
       <path d="M 76.113,187.838 L 76.113,185.931 L 71.731,185.931 L 71.731,183.438 L 75.087,183.438 L 75.087,181.606 L 71.731,181.606 L 71.731,179.066 L 76.113,179.066 L 76.113,177.159 L 69.24,177.159 L 69.24,187.838 L 76.113,187.838 Z" marker-start="none" marker-end="none"/>
       <path d="M 82.978,182.007 C 83.075,181.82 83.169,181.626 83.26,181.424 C 83.35,181.223 83.437,181.016 83.52,180.804 C 83.603,181.021 83.691,181.231 83.784,181.435 C 83.876,181.639 83.972,181.837 84.069,182.029 L 86.81,187.458 C 86.858,187.552 86.908,187.624 86.96,187.676 C 87.011,187.728 87.068,187.766 87.132,187.79 C 87.195,187.815 87.267,187.827 87.348,187.827 C 87.429,187.827 87.523,187.827 87.63,187.827 L 89.52,187.827 L 89.52,177.159 L 87.337,177.159 L 87.337,183.219 C 87.337,183.513 87.352,183.831 87.381,184.173 L 84.553,178.77 C 84.465,178.602 84.347,178.475 84.198,178.388 C 84.049,178.301 83.879,178.258 83.688,178.258 L 83.351,178.258 C 83.161,178.258 82.991,178.301 82.842,178.388 C 82.693,178.475 82.575,178.602 82.487,178.77 L 79.644,184.18 C 79.664,184.012 79.678,183.844 79.688,183.678 C 79.698,183.512 79.703,183.359 79.703,183.219 L 79.703,177.159 L 77.519,177.159 L 77.519,187.827 L 79.41,187.827 C 79.517,187.827 79.611,187.827 79.692,187.827 C 79.772,187.827 79.844,187.815 79.908,187.79 C 79.971,187.766 80.029,187.728 80.08,187.676 C 80.131,187.624 80.181,187.552 80.23,187.458 L 82.978,182.007 Z" marker-start="none" marker-end="none"/>
       <path d="M 98.151,187.838 L 98.151,185.931 L 93.769,185.931 L 93.769,183.438 L 97.125,183.438 L 97.125,181.606 L 93.769,181.606 L 93.769,179.066 L 98.151,179.066 L 98.151,177.159 L 91.278,177.159 L 91.278,187.838 L 98.151,187.838 Z" marker-start="none" marker-end="none"/>
       <path d="M 100.861,187.838 C 100.969,187.838 101.059,187.833 101.132,187.823 C 101.206,187.814 101.272,187.795 101.33,187.768 C 101.389,187.741 101.445,187.703 101.499,187.655 C 101.553,187.606 101.614,187.54 101.682,187.457 L 106.752,181.046 C 106.733,181.251 106.718,181.45 106.708,181.643 C 106.698,181.836 106.693,182.018 106.693,182.189 L 106.693,187.838 L 108.877,187.838 L 108.877,177.159 L 107.587,177.159 C 107.397,177.159 107.236,177.188 107.104,177.247 C 106.972,177.306 106.845,177.413 106.723,177.569 L 101.689,183.929 C 101.704,183.743 101.716,183.561 101.726,183.383 C 101.736,183.205 101.741,183.038 101.741,182.881 L 101.741,177.159 L 99.557,177.159 L 99.557,187.838 L 100.861,187.838 Z" marker-start="none" marker-end="none"/>
       <path d="M 118.385,187.838 L 118.385,185.874 L 115.381,185.874 L 115.381,177.161 L 112.905,177.161 L 112.905,185.874 L 109.901,185.874 L 109.901,187.838 L 118.385,187.838 Z" marker-start="none" marker-end="none"/>
       <path d="M 117.714,178.449 C 117.714,178.605 117.744,178.751 117.802,178.885 C 117.861,179.02 117.945,179.137 118.055,179.237 C 118.165,179.337 118.294,179.416 118.443,179.475 C 118.592,179.534 118.76,179.563 118.945,179.563 C 119.165,179.563 119.355,179.525 119.517,179.449 C 119.678,179.374 119.812,179.271 119.92,179.142 C 120.027,179.012 120.106,178.863 120.158,178.695 C 120.209,178.526 120.235,178.349 120.235,178.163 C 120.235,177.919 120.196,177.659 120.117,177.383 C 120.039,177.107 119.923,176.83 119.769,176.551 C 119.616,176.273 119.424,175.999 119.194,175.73 C 118.965,175.462 118.701,175.217 118.403,174.998 L 118.007,175.349 C 117.954,175.403 117.913,175.453 117.886,175.5 C 117.86,175.546 117.846,175.603 117.846,175.672 C 117.846,175.721 117.863,175.773 117.897,175.829 C 117.932,175.886 117.973,175.936 118.022,175.98 C 118.081,176.038 118.149,176.109 118.227,176.192 C 118.305,176.275 118.383,176.368 118.462,176.471 C 118.54,176.573 118.612,176.686 118.678,176.808 C 118.744,176.93 118.794,177.059 118.828,177.196 C 118.657,177.211 118.503,177.252 118.366,177.321 C 118.23,177.389 118.114,177.48 118.018,177.592 C 117.923,177.704 117.849,177.832 117.795,177.977 C 117.741,178.121 117.714,178.278 117.714,178.449 Z" marker-start="none" marker-end="none"/>
       <path d="M 127.088,177.159 L 124.597,177.159 L 124.597,187.838 L 127.088,187.838 L 127.088,177.159 Z" marker-start="none" marker-end="none"/>
       <path d="M 130.368,187.838 C 130.476,187.838 130.566,187.833 130.639,187.823 C 130.713,187.814 130.779,187.795 130.837,187.768 C 130.896,187.741 130.952,187.703 131.006,187.655 C 131.06,187.606 131.121,187.54 131.189,187.457 L 136.259,181.046 C 136.24,181.251 136.225,181.45 136.215,181.643 C 136.205,181.836 136.2,182.018 136.2,182.189 L 136.2,187.838 L 138.384,187.838 L 138.384,177.159 L 137.094,177.159 C 136.904,177.159 136.743,177.188 136.611,177.247 C 136.479,177.306 136.352,177.413 136.23,177.569 L 131.196,183.929 C 131.211,183.743 131.223,183.561 131.233,183.383 C 131.243,183.205 131.248,183.038 131.248,182.881 L 131.248,177.159 L 129.064,177.159 L 129.064,187.838 L 130.368,187.838 Z" marker-start="none" marker-end="none"/>
       <path d="M 147.313,179.919 C 147.372,179.919 147.43,179.908 147.489,179.886 C 147.548,179.863 147.604,179.825 147.657,179.77 L 148.639,178.715 C 148.209,178.162 147.671,177.744 147.024,177.463 C 146.377,177.182 145.611,177.041 144.727,177.041 C 143.916,177.041 143.189,177.179 142.547,177.455 C 141.905,177.731 141.36,178.112 140.913,178.598 C 140.466,179.084 140.123,179.661 139.884,180.328 C 139.644,180.995 139.525,181.719 139.525,182.5 C 139.525,183.297 139.662,184.028 139.935,184.695 C 140.209,185.362 140.591,185.937 141.082,186.421 C 141.573,186.904 142.16,187.281 142.844,187.549 C 143.528,187.818 144.282,187.952 145.108,187.952 C 145.508,187.952 145.886,187.917 146.24,187.846 C 146.594,187.775 146.925,187.677 147.233,187.552 C 147.54,187.428 147.824,187.279 148.082,187.105 C 148.341,186.931 148.571,186.739 148.771,186.529 L 147.936,185.408 C 147.882,185.339 147.819,185.277 147.745,185.221 C 147.672,185.165 147.57,185.137 147.438,185.137 C 147.35,185.137 147.267,185.156 147.189,185.195 C 147.11,185.234 147.027,185.282 146.939,185.338 C 146.852,185.394 146.755,185.455 146.65,185.521 C 146.545,185.587 146.42,185.648 146.276,185.705 C 146.132,185.761 145.964,185.808 145.771,185.848 C 145.578,185.886 145.352,185.906 145.093,185.906 C 144.644,185.906 144.233,185.827 143.862,185.668 C 143.491,185.509 143.172,185.282 142.906,184.986 C 142.64,184.691 142.432,184.333 142.283,183.913 C 142.134,183.493 142.06,183.021 142.06,182.499 C 142.06,181.951 142.134,181.465 142.283,181.04 C 142.432,180.615 142.635,180.258 142.891,179.967 C 143.148,179.676 143.447,179.455 143.789,179.304 C 144.131,179.152 144.497,179.077 144.888,179.077 C 145.113,179.077 145.318,179.088 145.503,179.11 C 145.689,179.132 145.861,179.169 146.02,179.223 C 146.179,179.277 146.33,179.346 146.474,179.432 C 146.618,179.517 146.764,179.624 146.91,179.751 C 146.969,179.8 147.032,179.84 147.101,179.872 C 147.169,179.903 147.24,179.919 147.313,179.919 Z" marker-start="none" marker-end="none"/>
       <path d="M 149.332,178.309 C 149.332,178.485 149.365,178.649 149.431,178.8 C 149.496,178.952 149.587,179.084 149.702,179.196 C 149.816,179.309 149.952,179.398 150.108,179.464 C 150.265,179.53 150.436,179.563 150.621,179.563 C 150.802,179.563 150.97,179.53 151.127,179.464 C 151.283,179.398 151.42,179.309 151.537,179.196 C 151.654,179.084 151.746,178.952 151.812,178.8 C 151.878,178.649 151.911,178.485 151.911,178.309 C 151.911,178.133 151.878,177.968 151.812,177.814 C 151.746,177.66 151.654,177.527 151.537,177.415 C 151.42,177.302 151.283,177.214 151.127,177.151 C 150.97,177.087 150.802,177.055 150.621,177.055 C 150.436,177.055 150.265,177.087 150.108,177.151 C 149.952,177.214 149.816,177.302 149.702,177.415 C 149.587,177.527 149.496,177.66 149.431,177.814 C 149.365,177.968 149.332,178.133 149.332,178.309 Z" marker-start="none" marker-end="none"/>
      </g>
     </g>
     <g id="Group_21" fill-rule="nonzero" stroke-linejoin="round" stroke-linecap="round" stroke="none" stroke-width="0.387" fill="#000000" stroke-miterlimit="79.8403193612775">
      <g id="Group_22">
       <path d="M 117.215,29.472 C 117.215,28.481 117.109,27.622 116.896,26.896 C 116.683,26.169 116.389,25.567 116.013,25.09 C 115.637,24.613 115.19,24.257 114.674,24.024 C 114.158,23.79 113.599,23.674 112.997,23.674 C 112.395,23.674 111.839,23.79 111.328,24.024 C 110.817,24.257 110.375,24.613 110.001,25.09 C 109.627,25.567 109.336,26.169 109.125,26.896 C 108.915,27.622 108.81,28.481 108.81,29.472 C 108.81,30.463 108.915,31.322 109.125,32.049 C 109.336,32.775 109.627,33.377 110.001,33.854 C 110.375,34.332 110.817,34.686 111.328,34.917 C 111.839,35.148 112.395,35.263 112.997,35.263 C 113.599,35.263 114.158,35.148 114.674,34.917 C 115.19,34.686 115.637,34.332 116.013,33.854 C 116.389,33.377 116.683,32.775 116.896,32.049 C 117.109,31.322 117.215,30.463 117.215,29.472 Z M 114.725,29.472 C 114.725,30.256 114.675,30.898 114.577,31.399 C 114.478,31.9 114.347,32.293 114.184,32.578 C 114.02,32.863 113.835,33.059 113.627,33.166 C 113.42,33.272 113.21,33.325 112.997,33.325 C 112.784,33.325 112.576,33.272 112.371,33.166 C 112.166,33.059 111.984,32.863 111.826,32.578 C 111.668,32.293 111.541,31.9 111.445,31.399 C 111.349,30.898 111.301,30.256 111.301,29.472 C 111.301,28.684 111.349,28.04 111.445,27.542 C 111.541,27.044 111.668,26.651 111.826,26.363 C 111.984,26.075 112.166,25.877 112.371,25.771 C 112.576,25.665 112.784,25.612 112.997,25.612 C 113.21,25.612 113.42,25.665 113.627,25.771 C 113.835,25.877 114.02,26.075 114.184,26.363 C 114.347,26.651 114.478,27.044 114.577,27.542 C 114.675,28.04 114.725,28.684 114.725,29.472 Z" marker-start="none" marker-end="none"/>
      </g>
     </g>
     <g id="Group_23" fill-rule="nonzero" stroke-linejoin="round" stroke-linecap="round" stroke="none" stroke-width="0.387" fill="#000000" stroke-miterlimit="79.8403193612775">
      <g id="Group_24">
       <path d="M 120.789,91.031 L 120.789,87.949 L 123.668,87.949 L 123.668,86.22 L 120.789,86.22 L 120.789,83.123 L 118.828,83.123 L 118.828,86.22 L 115.964,86.22 L 115.964,87.949 L 118.828,87.949 L 118.828,91.031 L 120.789,91.031 Z" marker-start="none" marker-end="none"/>
       <path d="M 129.023,93.318 C 129.583,93.318 130.088,93.236 130.536,93.073 C 130.985,92.91 131.368,92.683 131.684,92.392 C 132.001,92.102 132.243,91.755 132.412,91.353 C 132.581,90.951 132.665,90.509 132.665,90.026 C 132.665,89.611 132.607,89.227 132.49,88.874 C 132.373,88.521 132.214,88.185 132.011,87.866 C 131.809,87.547 131.574,87.239 131.307,86.94 C 131.04,86.642 130.756,86.34 130.455,86.034 L 128.237,83.761 C 128.522,83.845 128.804,83.911 129.081,83.961 C 129.359,84.011 129.619,84.035 129.863,84.035 L 131.98,84.035 C 132.239,84.035 132.444,83.964 132.595,83.821 C 132.745,83.678 132.821,83.49 132.821,83.256 L 132.821,81.854 L 124.852,81.854 L 124.852,82.632 C 124.852,82.783 124.883,82.944 124.945,83.115 C 125.007,83.286 125.116,83.442 125.272,83.582 L 128.54,86.874 C 128.821,87.155 129.064,87.422 129.272,87.676 C 129.479,87.93 129.651,88.181 129.786,88.427 C 129.92,88.674 130.022,88.92 130.089,89.167 C 130.156,89.413 130.19,89.674 130.19,89.949 C 130.19,90.4 130.083,90.747 129.867,90.988 C 129.652,91.229 129.324,91.35 128.883,91.35 C 128.701,91.35 128.535,91.324 128.385,91.272 C 128.234,91.22 128.099,91.15 127.98,91.062 C 127.861,90.974 127.758,90.87 127.673,90.751 C 127.587,90.631 127.518,90.502 127.466,90.362 C 127.383,90.128 127.278,89.96 127.151,89.856 C 127.024,89.752 126.852,89.7 126.634,89.7 C 126.582,89.7 126.526,89.703 126.466,89.708 C 126.407,89.713 126.346,89.721 126.284,89.731 L 125.007,89.953 C 125.09,90.519 125.25,91.013 125.486,91.433 C 125.722,91.854 126.015,92.204 126.365,92.485 C 126.715,92.765 127.116,92.974 127.568,93.112 C 128.019,93.249 128.504,93.318 129.023,93.318 Z" marker-start="none" marker-end="none"/>
      </g>
     </g>
     <g id="Group_25" fill-rule="nonzero" stroke-linejoin="round" stroke-linecap="round" stroke="none" stroke-width="0.387" fill="#000000" stroke-miterlimit="79.8403193612775">
      <g id="Group_26">
       <path d="M 178.986,107.014 L 178.986,103.932 L 181.865,103.932 L 181.865,102.203 L 178.986,102.203 L 178.986,99.106 L 177.025,99.106 L 177.025,102.203 L 174.161,102.203 L 174.161,103.932 L 177.025,103.932 L 177.025,107.014 L 178.986,107.014 Z" marker-start="none" marker-end="none"/>
       <path d="M 187.22,109.301 C 187.78,109.301 188.285,109.219 188.733,109.056 C 189.182,108.893 189.565,108.666 189.881,108.375 C 190.198,108.085 190.44,107.738 190.609,107.336 C 190.778,106.934 190.862,106.492 190.862,106.009 C 190.862,105.594 190.804,105.21 190.687,104.857 C 190.57,104.504 190.411,104.168 190.208,103.849 C 190.006,103.53 189.771,103.222 189.504,102.923 C 189.237,102.625 188.953,102.323 188.652,102.017 L 186.434,99.744 C 186.719,99.828 187.001,99.894 187.278,99.944 C 187.556,99.994 187.816,100.018 188.06,100.018 L 190.177,100.018 C 190.436,100.018 190.641,99.947 190.792,99.804 C 190.942,99.661 191.018,99.473 191.018,99.239 L 191.018,97.837 L 183.049,97.837 L 183.049,98.615 C 183.049,98.766 183.08,98.927 183.142,99.098 C 183.204,99.269 183.313,99.425 183.469,99.565 L 186.737,102.857 C 187.018,103.138 187.261,103.405 187.469,103.659 C 187.676,103.913 187.848,104.164 187.983,104.41 C 188.117,104.657 188.219,104.903 188.286,105.15 C 188.353,105.396 188.387,105.657 188.387,105.932 C 188.387,106.383 188.28,106.73 188.064,106.971 C 187.849,107.212 187.521,107.333 187.08,107.333 C 186.898,107.333 186.732,107.307 186.582,107.255 C 186.431,107.203 186.296,107.133 186.177,107.045 C 186.058,106.957 185.955,106.853 185.87,106.734 C 185.784,106.614 185.715,106.485 185.663,106.345 C 185.58,106.111 185.475,105.943 185.348,105.839 C 185.221,105.735 185.049,105.683 184.831,105.683 C 184.779,105.683 184.723,105.686 184.663,105.691 C 184.604,105.696 184.543,105.704 184.481,105.714 L 183.204,105.936 C 183.287,106.502 183.447,106.996 183.683,107.416 C 183.919,107.837 184.212,108.187 184.562,108.468 C 184.912,108.748 185.313,108.957 185.765,109.095 C 186.216,109.232 186.701,109.301 187.22,109.301 Z" marker-start="none" marker-end="none"/>
      </g>
     </g>
    </g>
   </g>
  </g>
 </g>
</svg>
