<?xml version="1.0" standalone="no"?>
<!DOCTYPE svg PUBLIC "-//W3C//DTD SVG 1.1//EN" "http://www.w3.org/Graphics/SVG/1.1/DTD/svg11.dtd">
<!--Generator: Xara Designer (www.xara.com), SVG filter version: 6.2.0.0-->
<svg stroke-width="0.501" stroke-linejoin="bevel" fill-rule="evenodd" xmlns:xlink="http://www.w3.org/1999/xlink" xmlns="http://www.w3.org/2000/svg" version="1.1" overflow="visible" width="107.717pt" height="215.434pt" viewBox="0 0 107.717 215.434">
 <defs>
	</defs>
 <g id="Document" fill="none" stroke="black" font-family="Times New Roman" font-size="16" transform="scale(1 -1)">
  <g id="Spread" transform="translate(0 -215.434)">
   <g id="Layer 1">
    <g id="Group">
     <path d="M 31.528,0 L 31.528,0.002 L 13.448,0.002 C 6.025,0.002 0,6.801 0,15.178 L 0,199.757 C 0,208.134 6.025,214.933 13.448,214.933 L 93.824,214.933 C 101.247,214.933 107.272,208.134 107.272,199.757 L 107.272,15.178 C 107.272,6.801 101.247,0.002 93.824,0.002 L 83.593,0.002 L 83.593,0 L 31.528,0 Z" stroke="#999999" fill="#ffffff" stroke-linejoin="miter" marker-start="none" marker-end="none"/>
     <g id="Group_1" fill-rule="nonzero" stroke-linejoin="round" stroke-linecap="round" stroke="none" stroke-width="0.406" fill="#000000" stroke-miterlimit="79.8403193612775">
      <g id="Group_2">
       <path d="M 15.76,205.58 L 15.755,204.006 L 13.349,204.014 L 13.327,197.035 L 11.344,197.041 L 11.365,204.02 L 8.959,204.027 L 8.964,205.601 L 15.76,205.58 Z" marker-start="none" marker-end="none"/>
       <path d="M 22.089,205.56 L 22.084,204.033 L 18.574,204.044 L 18.568,202.046 L 21.256,202.038 L 21.252,200.571 L 18.564,200.579 L 18.557,198.544 L 22.067,198.533 L 22.062,197.006 L 16.557,197.023 L 16.584,205.577 L 22.089,205.56 Z" marker-start="none" marker-end="none"/>
       <path d="M 31.146,196.978 L 29.609,196.983 C 29.437,196.983 29.295,197.024 29.184,197.104 C 29.072,197.185 28.995,197.288 28.953,197.413 L 28.453,198.906 L 25.201,198.916 L 24.692,197.426 C 24.653,197.317 24.576,197.218 24.462,197.131 C 24.348,197.043 24.209,196.999 24.045,197 L 22.496,197.005 L 25.832,205.547 L 27.863,205.541 L 31.146,196.978 Z M 25.663,200.265 L 27.999,200.258 L 27.22,202.566 C 27.169,202.712 27.11,202.885 27.042,203.084 C 26.974,203.282 26.908,203.497 26.842,203.728 C 26.778,203.494 26.713,203.276 26.646,203.076 C 26.579,202.876 26.516,202.703 26.457,202.556 L 25.663,200.265 Z" marker-start="none" marker-end="none"/>
       <path d="M 36.222,200.845 C 36.299,200.696 36.374,200.54 36.446,200.378 C 36.518,200.216 36.587,200.051 36.653,199.881 C 36.72,200.054 36.791,200.222 36.866,200.385 C 36.941,200.549 37.017,200.707 37.096,200.86 L 39.304,205.203 C 39.344,205.277 39.384,205.335 39.425,205.377 C 39.466,205.418 39.512,205.448 39.563,205.468 C 39.614,205.487 39.672,205.497 39.737,205.497 C 39.801,205.497 39.876,205.496 39.963,205.496 L 41.477,205.491 L 41.451,196.946 L 39.702,196.951 L 39.716,201.805 C 39.717,202.041 39.73,202.296 39.754,202.57 L 37.475,198.249 C 37.405,198.114 37.309,198.013 37.19,197.943 C 37.07,197.875 36.934,197.84 36.782,197.841 L 36.512,197.842 C 36.359,197.842 36.223,197.877 36.104,197.947 C 35.985,198.017 35.89,198.119 35.82,198.254 L 33.556,202.595 C 33.572,202.46 33.583,202.325 33.59,202.192 C 33.598,202.059 33.601,201.936 33.601,201.824 L 33.586,196.97 L 31.837,196.976 L 31.863,205.521 L 33.378,205.516 C 33.464,205.516 33.539,205.516 33.604,205.516 C 33.668,205.516 33.726,205.505 33.777,205.486 C 33.827,205.466 33.873,205.435 33.914,205.394 C 33.955,205.352 33.995,205.294 34.034,205.219 L 36.222,200.845 Z" marker-start="none" marker-end="none"/>
      </g>
     </g>
     <path d="M 58.03,22.209 C 58.15,22.3 58.405,22.522 58.649,22.654 C 59.064,22.929 59.51,23.375 59.948,24.014 C 60.169,24.36 60.2,24.399 60.088,25.932 C 60.047,26.53 60.078,26.835 60.159,27.027 C 60.332,27.322 60.292,29.949 60.108,30.123 C 60.047,30.173 59.998,30.416 59.988,30.67 C 59.988,30.912 59.927,31.299 59.856,31.523 C 59.775,31.745 59.683,32.445 59.622,33.054 C 59.571,33.652 59.459,34.342 59.367,34.576 C 59.298,34.8 59.237,35.124 59.237,35.297 C 59.217,35.459 59.186,35.702 59.135,35.824 C 59.074,35.956 59.034,36.3 59.023,36.605 C 59.013,36.899 58.942,37.336 58.871,37.558 C 58.8,37.772 58.739,38.146 58.739,38.34 C 58.739,38.563 58.669,38.826 58.588,38.928 C 58.496,39.05 58.456,39.355 58.456,40.025 C 58.456,40.562 58.374,41.242 58.283,41.678 C 58.16,42.215 58.12,42.773 58.13,43.951 C 58.15,45.148 58.11,45.614 57.989,45.92 C 57.898,46.203 57.837,46.75 57.837,47.947 C 57.816,48.851 57.776,50.058 57.715,50.615 C 57.664,51.193 57.593,52.097 57.531,52.635 C 57.45,53.811 57.42,53.742 58.557,54.928 C 59.49,55.922 59.713,56.146 60.241,56.805 C 61.407,58.195 61.985,58.834 63.569,60.467 C 64.248,61.198 65.081,61.969 65.384,62.213 C 66.359,62.952 69.463,66.048 70.072,66.868 C 70.507,67.469 70.813,68.432 70.813,69.376 C 70.823,69.659 70.853,70.086 70.915,70.308 C 71.228,71.739 71.279,72.154 71.37,73.302 C 71.411,74.003 71.503,74.965 71.574,75.462 C 71.757,76.579 71.696,87.343 71.523,89.777 C 71.37,91.605 71.309,95.308 71.411,95.44 C 71.564,95.631 71.584,96.099 71.584,98.666 C 71.584,100.624 71.625,101.396 71.706,101.567 C 71.826,101.801 71.778,102.603 71.584,103.932 C 71.543,104.215 71.554,104.469 71.645,104.663 C 71.717,104.864 71.737,104.976 71.655,105.047 C 71.594,105.098 71.584,105.21 71.645,105.302 C 71.778,105.564 71.949,107.655 71.938,108.923 C 71.949,110.089 71.837,110.639 71.605,110.789 C 71.543,110.81 71.513,110.901 71.513,110.972 C 71.503,111.145 70.792,111.886 70.487,112.037 C 70.306,112.129 70.296,112.169 70.398,112.291 C 70.448,112.373 70.589,112.475 70.721,112.515 C 70.935,112.607 70.976,112.737 70.925,113.305 C 70.915,113.6 70.853,113.722 70.398,114.585 C 70.235,114.858 70.001,115.314 69.889,115.599 C 69.779,115.894 69.626,116.238 69.565,116.391 C 69.26,117.06 68.946,119.363 69.129,119.576 C 69.168,119.637 69.412,119.8 69.626,119.9 C 70.163,120.154 70.507,120.61 70.507,121.017 C 70.507,121.188 70.398,121.595 70.245,121.909 C 70.092,122.204 69.899,122.711 69.789,123.016 C 69.687,123.319 69.565,123.625 69.494,123.696 C 69.433,123.755 69.372,123.867 69.372,123.948 C 69.372,124.02 69.331,124.121 69.28,124.182 C 69.15,124.294 68.946,124.608 68.804,124.944 C 68.753,125.064 68.651,125.196 68.59,125.237 C 68.539,125.267 68.49,125.451 68.48,125.654 C 68.47,125.988 68.48,126.008 68.885,126.1 C 69.168,126.161 69.433,126.161 69.718,126.079 C 69.929,126.029 70.459,125.988 70.884,125.988 C 71.676,125.988 72.061,126.12 72.567,126.515 C 72.781,126.698 73.196,127.358 73.176,127.521 C 73.176,127.561 73.257,127.671 73.329,127.742 C 73.41,127.834 73.471,127.966 73.471,128.088 C 73.471,128.2 73.532,128.382 73.603,128.473 C 73.675,128.575 73.744,128.758 73.744,128.87 C 73.744,128.98 73.815,129.194 73.866,129.346 C 73.947,129.489 74.019,129.782 74.019,129.985 C 74.008,130.189 74.08,130.441 74.161,130.523 C 74.222,130.645 74.293,130.91 74.293,131.131 C 74.293,131.345 74.334,131.71 74.413,131.923 C 74.637,132.573 74.851,135.697 74.79,137.199 C 74.729,138.467 74.485,141.024 74.365,141.48 C 74.334,141.592 74.273,142.149 74.212,142.717 C 74.171,143.277 74.09,143.906 74.039,144.107 C 73.937,144.474 73.825,145.194 73.644,146.857 C 73.593,147.275 73.502,147.7 73.451,147.802 C 73.39,147.893 73.349,148.319 73.329,148.714 C 73.329,149.121 73.278,149.678 73.237,149.961 C 73.176,150.236 73.105,150.855 73.035,151.311 C 72.985,151.779 72.903,152.204 72.852,152.245 C 72.822,152.306 72.751,152.691 72.7,153.139 C 72.679,153.574 72.578,154.02 72.506,154.112 C 72.427,154.224 72.376,154.386 72.376,154.517 C 72.376,154.893 71.999,155.359 71.543,155.573 C 71.299,155.705 70.976,155.856 70.823,155.978 C 70.336,156.324 69.758,156.577 69.453,156.577 C 69.28,156.577 69.079,156.627 68.956,156.699 C 68.855,156.76 68.287,156.821 67.729,156.872 C 66.125,156.943 64.847,157.114 64.533,157.287 C 64.248,157.409 64.187,157.409 63.813,157.277 L 63.385,157.124 L 63.123,157.399 C 62.909,157.613 62.797,157.663 62.423,157.663 C 62.036,157.663 61.763,157.743 61.226,158.048 C 61.144,158.089 60.819,158.262 60.515,158.402 C 59.642,158.83 59.52,158.932 58.861,159.499 C 58.618,159.711 58.384,159.986 58.333,160.108 C 58.323,160.2 58.16,160.503 58,160.747 C 57.857,160.991 57.725,161.274 57.725,161.366 C 57.725,161.447 57.664,161.62 57.593,161.791 C 57.391,162.158 57.409,162.563 57.643,163.039 C 57.837,163.446 57.867,163.446 58.16,163.405 C 58.405,163.365 58.496,163.385 58.568,163.538 C 58.649,163.709 58.739,163.729 59.207,163.688 C 59.703,163.648 59.775,163.658 60.139,163.922 C 60.353,164.095 60.526,164.258 60.526,164.307 C 60.526,164.348 60.676,164.572 60.89,164.806 C 61.226,165.16 61.277,165.282 61.317,165.779 C 61.366,166.286 61.407,166.377 61.834,166.794 L 62.301,167.24 L 62.26,167.92 L 62.229,168.61 L 62.545,168.61 C 62.909,168.62 63.021,168.824 62.797,169.076 C 62.596,169.3 62.606,169.443 62.879,169.563 C 63.021,169.624 63.123,169.746 63.133,169.817 C 63.153,170.122 63.174,170.354 63.194,170.589 C 63.194,170.731 63.294,170.933 63.385,171.065 C 63.813,171.521 63.874,171.704 63.864,172.241 C 63.864,172.567 63.813,172.789 63.752,172.819 C 63.691,172.83 63.569,172.931 63.467,173.033 C 63.294,173.226 63.294,173.226 63.569,173.448 C 63.711,173.581 63.833,173.733 63.833,173.774 C 63.833,173.855 63.925,173.978 64.198,174.291 C 64.259,174.362 64.33,174.637 64.33,174.869 C 64.34,175.215 64.289,175.378 64.116,175.569 C 63.854,175.875 63.538,175.905 63.375,175.62 C 63.304,175.498 63.214,175.457 63.082,175.498 C 62.96,175.539 62.909,175.498 62.868,175.358 C 62.838,175.246 62.767,175.174 62.716,175.164 C 62.616,175.164 62.616,175.266 62.655,175.569 C 62.695,175.783 62.716,176.381 62.716,176.898 C 62.695,177.792 62.685,177.863 62.311,178.574 C 62.087,178.989 61.885,179.343 61.855,179.374 C 61.702,179.455 61.366,180.196 61.366,180.41 C 61.366,180.784 61.256,180.835 60.404,180.876 C 59.571,180.916 59.298,181.039 58.608,181.637 C 58.486,181.749 58.323,181.881 58.252,181.922 C 58.16,181.981 57.837,182.205 57.501,182.429 C 57.188,182.661 56.78,182.864 56.62,182.905 C 56.467,182.956 55.563,183.007 54.621,183.027 C 52.986,183.058 52.885,183.068 52.561,183.29 C 52.235,183.503 51.83,183.636 51.008,183.788 C 50.409,183.919 50.045,183.908 49.679,183.748 C 49.498,183.656 49.243,183.595 49.131,183.595 C 48.989,183.595 48.828,183.483 48.685,183.3 C 48.533,183.078 48.36,183.007 48.168,182.976 C 48.016,182.966 47.853,182.925 47.792,182.885 C 47.731,182.864 47.69,182.885 47.69,182.966 C 47.69,183.119 47.478,183.231 47.285,183.18 C 47.183,183.119 46.98,182.834 46.687,182.296 C 46.605,182.195 46.534,182.083 46.473,182.083 C 46.422,182.083 46.381,181.95 46.381,181.8 C 46.381,181.525 46.371,181.515 46.109,181.566 C 45.732,181.647 45.358,181.252 45.358,180.804 C 45.358,180.542 45.317,180.46 45.042,180.359 C 44.861,180.287 44.718,180.175 44.708,180.125 C 44.718,180.084 44.596,180.002 44.444,179.964 C 44.232,179.923 44.191,179.872 44.212,179.699 C 44.252,179.577 44.201,179.353 44.11,179.192 C 44.028,179.03 43.977,178.775 43.977,178.614 C 43.977,178.38 44.008,178.34 44.212,178.34 C 44.403,178.34 44.444,178.278 44.444,178.044 C 44.444,177.761 44.393,177.731 43.998,177.761 C 43.764,177.782 43.613,177.527 43.774,177.375 C 43.906,177.244 43.633,176.786 43.308,176.595 C 42.994,176.422 42.964,176.29 43.247,176.249 C 43.522,176.208 43.562,176.066 43.359,175.793 C 43.196,175.61 43.145,175.6 42.842,175.691 C 42.526,175.773 42.485,175.742 42.345,175.539 C 42.213,175.327 42.152,175.317 41.765,175.368 C 40.873,175.478 40.802,175.001 41.584,174.332 C 42.162,173.815 42.182,173.774 41.806,173.55 C 41.614,173.438 41.482,173.288 41.472,173.216 C 41.482,173.155 41.258,172.669 41.016,172.16 C 40.446,171.004 40.405,170.609 40.853,170.133 C 40.996,169.96 41.238,169.797 41.37,169.756 C 41.614,169.695 41.979,169.463 42.404,169.076 C 42.608,168.883 42.638,168.793 42.577,168.508 C 42.557,168.325 42.506,167.91 42.485,167.584 C 42.445,167.057 42.445,167.006 42.659,166.896 C 42.77,166.835 43.196,166.744 43.623,166.723 C 44.273,166.683 44.372,166.662 44.393,166.499 C 44.423,166.357 44.393,166.336 44.171,166.377 C 43.774,166.459 43.491,166.286 43.491,166.033 C 43.491,165.769 43.623,165.646 44.018,165.557 C 44.191,165.537 44.321,165.455 44.321,165.414 C 44.321,165.353 44.403,165.323 44.494,165.323 C 44.678,165.323 44.912,165.109 45.011,164.836 C 45.062,164.704 45.154,164.694 45.541,164.735 C 45.976,164.796 46.017,164.785 46.017,164.623 C 46.017,164.521 46.088,164.338 46.17,164.228 C 46.31,164.045 46.31,164.034 46.139,164.034 C 45.854,164.034 45.712,163.78 45.773,163.416 C 45.854,163.059 46.251,162.614 46.514,162.614 C 46.687,162.624 47.061,162.209 47.061,162.015 C 47.061,161.944 47.234,161.791 47.438,161.661 C 47.985,161.305 48.563,160.768 48.563,160.615 C 48.574,160.554 48.411,160.401 48.189,160.291 C 47.934,160.128 47.802,159.976 47.721,159.731 C 47.629,159.428 47.214,158.718 47.071,158.606 C 47.051,158.586 46.88,158.453 46.707,158.323 C 46.544,158.191 46.271,157.967 46.109,157.814 C 45.824,157.572 45.742,157.562 45.347,157.613 C 45.011,157.653 44.769,157.623 44.464,157.511 C 44.232,157.419 43.947,157.328 43.815,157.307 C 43.693,157.277 43.522,157.205 43.44,157.124 C 43.369,157.065 43.216,156.994 43.114,156.963 C 43.013,156.933 42.699,156.821 42.414,156.699 C 42.131,156.587 41.714,156.454 41.482,156.416 C 41.258,156.355 41.036,156.283 40.975,156.243 C 40.924,156.182 40.316,156.131 39.656,156.11 C 38.498,156.07 38.408,156.06 37.788,155.746 C 37.434,155.573 36.947,155.349 36.744,155.247 C 36.369,155.076 35.972,154.69 35.972,154.496 C 35.972,154.447 35.86,154.264 35.74,154.112 C 35.252,153.452 35.04,152.367 34.877,149.638 C 34.836,148.846 34.765,147.893 34.704,147.527 C 34.653,147.183 34.592,146.452 34.572,145.945 C 34.531,145.426 34.472,144.94 34.411,144.879 C 34.36,144.818 34.309,144.392 34.289,143.936 C 34.258,143.328 34.187,143.012 34.024,142.648 C 33.802,142.231 33.782,141.999 33.741,140.83 C 33.731,140.089 33.67,139.44 33.609,139.371 C 33.497,139.228 33.477,137.757 33.578,137.281 C 33.619,137.108 33.69,136.448 33.731,135.819 C 33.782,135.2 33.861,134.612 33.912,134.51 C 33.963,134.419 34.024,134.075 34.075,133.78 C 34.116,133.476 34.167,133.191 34.228,133.12 C 34.268,133.069 34.319,132.796 34.35,132.522 C 34.38,132.239 34.462,131.974 34.513,131.913 C 34.551,131.862 34.612,131.74 34.612,131.628 C 34.612,131.366 34.908,130.747 35.323,130.108 C 36.013,129.082 36.186,129.011 37.849,128.941 C 39.198,128.89 39.929,128.819 40.336,128.748 C 40.507,128.717 40.538,128.656 40.497,128.402 C 40.477,128.231 40.405,127.956 40.356,127.814 C 40.051,126.912 39.848,126.242 39.687,125.43 C 39.646,125.196 39.554,124.944 39.524,124.852 C 39.473,124.761 39.412,124.476 39.361,124.203 C 39.331,123.918 39.249,123.604 39.188,123.472 C 39.107,123.34 39.048,123.167 39.048,123.106 C 39.048,123.036 39.017,122.914 38.976,122.823 C 38.398,121.738 38.347,121.188 38.763,120.793 C 38.905,120.661 39.096,120.559 39.188,120.559 C 39.28,120.559 39.493,120.478 39.697,120.399 L 40.021,120.226 L 39.97,119.688 C 39.949,119.383 39.868,119.049 39.817,118.957 C 39.776,118.876 39.738,118.642 39.738,118.44 C 39.738,118.237 39.605,117.822 39.422,117.425 C 39.249,117.071 39.048,116.623 38.987,116.462 C 38.925,116.289 38.742,116.014 38.579,115.833 C 37.91,115.184 37.393,113.783 37.393,112.707 C 37.393,112.047 37.393,112.006 37.698,111.754 C 37.759,111.693 37.818,111.642 37.869,111.612 C 37.668,111.044 37.627,110.415 37.788,109.826 C 37.78,109.816 37.769,109.806 37.759,109.796 C 37.566,109.704 37.393,108.314 37.372,107.005 L 37.372,106.244 L 37.352,106.234 C 37.342,106.022 37.352,105.808 37.393,105.605 L 37.362,105.524 C 37.322,105.393 37.322,105.108 37.342,104.945 C 37.393,104.754 37.413,104.673 37.535,104.652 C 37.525,104.316 37.566,103.962 37.688,103.626 C 37.668,103.565 37.668,103.466 37.668,103.293 C 37.668,103.028 37.657,102.318 37.627,101.719 C 37.586,100.818 37.607,100.573 37.718,100.451 C 37.739,100.431 37.769,100.38 37.798,100.339 C 37.718,99.863 37.739,99.366 37.889,98.898 C 37.889,98.371 37.93,97.63 38.032,97.062 C 38.246,95.774 38.276,95.481 38.164,95.44 C 38.083,95.43 38.185,95.247 38.358,94.982 C 38.691,94.506 39.037,93.775 39.048,93.512 C 39.048,93.441 39.117,93.207 39.229,93.006 C 39.331,92.802 39.473,92.486 39.534,92.316 C 39.656,91.908 39.949,91.086 40.153,90.651 C 40.214,90.498 40.275,90.296 40.275,90.184 C 40.275,90.103 40.367,89.808 40.456,89.545 C 40.568,89.291 40.7,88.825 40.751,88.509 C 40.833,88.206 40.934,87.77 40.996,87.536 C 41.065,87.302 41.156,86.887 41.197,86.582 C 41.217,86.289 41.289,86.024 41.329,85.993 C 41.38,85.973 41.441,85.7 41.482,85.405 C 41.502,85.122 41.584,84.786 41.604,84.685 C 41.918,83.913 42.101,83.213 42.101,82.777 C 42.121,82.454 42.223,81.955 42.384,81.458 C 42.628,80.789 42.679,80.526 42.679,79.724 C 42.689,78.821 42.791,78.304 43.125,77.573 C 43.226,77.32 43.359,76.539 43.491,75.189 C 43.522,74.945 43.654,74.479 43.825,74.153 C 44.079,73.636 44.12,73.443 44.13,72.804 C 44.14,72.409 44.212,71.739 44.283,71.324 C 44.362,70.907 44.464,69.863 44.484,68.979 C 44.535,67.721 44.596,67.275 44.739,66.789 C 44.942,66.13 44.942,65.57 44.688,65.297 C 44.454,65.022 44.494,64.243 44.79,63.907 C 45.032,63.612 45.073,63.217 44.942,62.618 C 44.881,62.344 45.042,61.625 45.195,61.422 C 45.246,61.35 45.327,60.681 45.358,59.909 C 45.439,58.478 45.459,58.256 45.622,57.566 C 45.752,57.029 45.732,56.581 45.592,56.408 C 45.347,56.125 44.79,55.272 44.79,55.191 C 44.79,55.13 44.606,54.837 44.372,54.501 C 43.542,53.294 42.75,52.097 42.74,52.036 C 42.75,51.995 42.618,51.774 42.485,51.539 C 42.06,50.921 41.482,49.673 41.136,48.576 C 41.095,48.446 41.026,48.415 40.792,48.466 C 40.619,48.496 40.426,48.566 40.377,48.606 C 40.336,48.647 40.092,48.708 39.868,48.749 C 39.636,48.79 39.361,48.861 39.249,48.922 C 39.158,49.003 38.987,49.064 38.905,49.064 C 38.814,49.064 38.508,49.125 38.266,49.207 C 37.889,49.327 37.576,49.357 36.906,49.296 C 36.4,49.286 35.972,49.207 35.901,49.156 C 35.84,49.085 35.628,49.034 35.435,49.034 C 35.201,49.024 34.969,48.973 34.857,48.861 C 34.592,48.637 34.248,47.906 34.248,47.562 C 34.258,47.41 34.207,47.239 34.136,47.188 C 34.055,47.086 34.034,46.508 34.034,44.975 C 34.055,42.622 34.116,42.174 34.452,41.678 C 34.694,41.334 34.694,41.293 34.643,40.247 C 34.572,38.39 34.319,35.529 34.187,35.032 C 34.024,34.454 34.024,30.762 34.187,30.173 C 34.248,29.98 34.319,29.614 34.36,29.382 C 34.441,28.964 34.572,28.58 34.958,27.788 C 35.17,27.312 36.074,26.408 36.55,26.186 C 37.069,25.952 37.657,25.993 38.062,26.278 C 38.347,26.469 38.408,26.571 38.347,26.703 C 38.317,26.815 38.276,27.2 38.246,27.576 C 38.235,27.941 38.164,28.417 38.113,28.651 C 38.012,29.036 38.032,29.158 38.297,29.98 C 38.447,30.466 38.661,31.004 38.732,31.197 C 39.048,31.887 39.98,33.013 41.065,34.049 C 43.287,36.168 44.028,37.082 44.942,38.877 C 45.134,39.223 45.429,39.74 45.592,40.035 C 45.773,40.318 45.915,40.603 45.915,40.644 C 45.915,40.674 46.037,40.866 46.2,41.028 C 46.432,41.273 46.575,41.344 46.839,41.344 C 47.183,41.344 47.955,41.8 47.955,42.003 C 47.955,42.052 48.158,42.307 48.411,42.581 C 48.665,42.864 48.948,43.19 49.06,43.322 C 49.202,43.514 49.264,43.534 49.396,43.422 C 49.467,43.361 49.548,43.2 49.548,43.078 C 49.548,42.966 49.577,42.854 49.628,42.803 C 49.679,42.773 49.781,42.622 49.811,42.449 C 50.004,41.851 50.226,41.293 50.582,40.562 C 51.11,39.465 51.79,37.812 51.881,37.397 C 52.003,36.748 52.064,36.027 52.003,35.915 C 51.952,35.834 51.963,35.59 52.024,35.358 C 52.074,35.134 52.115,34.82 52.115,34.627 C 52.115,34.169 52.286,34.008 52.874,33.866 C 53.271,33.744 53.404,33.693 53.363,33.55 C 53.363,33.461 53.404,33.298 53.455,33.206 C 53.554,33.023 53.656,32.04 53.666,30.833 C 53.676,30.324 53.656,30.123 53.524,29.99 C 53.444,29.888 53.363,29.776 53.363,29.695 C 53.363,29.654 53.251,29.483 53.108,29.331 C 52.966,29.158 52.754,28.905 52.622,28.702 C 52.48,28.519 52.296,28.325 52.166,28.256 C 52.064,28.195 51.963,28.083 51.963,28.032 C 51.963,27.971 51.759,27.706 51.507,27.424 C 50.511,26.367 50.267,25.201 50.817,24.146 C 50.947,23.841 51.059,23.517 51.059,23.375 C 51.059,22.98 51.486,22.716 53.007,22.148 C 54.124,21.732 57.552,21.781 58.03,22.209 Z M 55.685,69.376 C 55.96,70.471 55.96,70.614 55.838,71.505 C 55.757,72.124 55.726,73.028 55.757,74.194 C 55.787,75.169 55.818,77.593 55.828,79.551 C 55.858,81.52 55.899,83.144 55.93,83.144 C 56.021,83.144 56.416,82.067 56.416,81.835 C 56.416,81.723 56.477,81.479 56.559,81.296 C 57.249,79.399 57.531,77.471 57.643,74.054 C 57.715,72.045 57.705,71.831 57.562,71.698 C 57.44,71.566 57.409,71.436 57.45,71.212 C 57.542,70.624 57.208,69.903 56.559,69.274 C 55.787,68.523 55.482,68.554 55.685,69.376 Z" fill="#a08b20" stroke="none" stroke-linejoin="miter" marker-start="none" marker-end="none"/>
     <path d="M 63.385,45.077 C 70.336,50.941 80.746,50.068 86.6,43.109 C 92.474,36.129 91.591,25.687 84.642,19.823 C 77.711,13.939 67.302,14.812 61.417,21.781 C 55.563,28.742 56.447,39.182 63.385,45.077 Z" stroke="none" fill="#ffffff" stroke-width="0.68" stroke-linejoin="miter" marker-start="none" marker-end="none" stroke-miterlimit="79.8403193612775"/>
     <path d="M 64.157,45.686 C 71.126,51.58 81.527,50.687 87.381,43.717 C 93.256,36.768 92.372,26.318 85.433,20.434 C 78.472,14.557 68.073,15.431 62.209,22.4 C 56.345,29.371 57.218,39.791 64.157,45.686 Z" stroke="#55bae6" stroke-width="3.743" stroke-linejoin="miter" marker-start="none" marker-end="none" stroke-miterlimit="79.8403193612775"/>
     <g id="Group_3" fill-rule="nonzero" stroke-linejoin="round" stroke-linecap="round" stroke="none" stroke-width="0.782" fill="#000000" stroke-miterlimit="79.8403193612775">
      <g id="Group_4">
       <path d="M 71.23,27.953 L 74.061,27.953 L 74.061,35.384 C 74.061,35.748 74.071,36.129 74.091,36.527 L 72.423,35.141 C 72.315,35.054 72.207,34.991 72.099,34.954 C 71.991,34.917 71.887,34.899 71.786,34.899 C 71.611,34.899 71.454,34.938 71.316,35.015 C 71.178,35.093 71.075,35.175 71.007,35.263 L 70.017,36.577 L 74.607,40.43 L 77.195,40.43 L 77.195,27.953 L 79.621,27.953 L 79.621,25.687 L 71.23,25.687 L 71.23,27.953 Z" marker-start="none" marker-end="none"/>
      </g>
     </g>
     <g id="Group_5" fill-rule="nonzero" stroke-linejoin="round" stroke-linecap="round" stroke="none" stroke-width="0.405" fill="#a08b20" stroke-miterlimit="79.8403193612775">
      <g id="Group_6">
       <path d="M 14.094,36.506 C 14.093,36.775 14.069,37.013 14.022,37.22 C 13.975,37.427 13.914,37.622 13.837,37.806 L 12.563,37.799 L 12.568,36.97 C 12.568,36.847 12.536,36.751 12.471,36.681 C 12.407,36.612 12.324,36.577 12.224,36.576 L 11.153,36.57 L 11.136,39.552 L 14.676,39.573 C 14.835,39.359 14.971,39.136 15.086,38.905 C 15.201,38.673 15.295,38.426 15.37,38.163 C 15.444,37.901 15.5,37.621 15.536,37.324 C 15.572,37.027 15.591,36.707 15.593,36.366 C 15.597,35.751 15.492,35.183 15.278,34.659 C 15.064,34.136 14.767,33.683 14.388,33.298 C 14.008,32.914 13.557,32.612 13.034,32.392 C 12.511,32.172 11.943,32.061 11.329,32.057 C 10.703,32.053 10.127,32.154 9.602,32.358 C 9.077,32.562 8.623,32.856 8.241,33.239 C 7.859,33.623 7.56,34.087 7.346,34.633 C 7.132,35.179 7.022,35.789 7.018,36.465 C 7.016,36.814 7.043,37.142 7.099,37.45 C 7.155,37.757 7.232,38.041 7.331,38.3 C 7.429,38.56 7.547,38.798 7.684,39.014 C 7.821,39.229 7.97,39.422 8.13,39.592 L 8.991,39.033 C 9.072,38.98 9.136,38.916 9.182,38.841 C 9.229,38.766 9.252,38.685 9.253,38.597 C 9.254,38.482 9.216,38.362 9.14,38.239 C 9.049,38.085 8.97,37.94 8.903,37.803 C 8.837,37.666 8.783,37.527 8.742,37.385 C 8.701,37.242 8.671,37.093 8.653,36.935 C 8.634,36.778 8.626,36.601 8.627,36.405 C 8.629,36.041 8.695,35.713 8.825,35.422 C 8.956,35.131 9.138,34.883 9.374,34.679 C 9.609,34.476 9.891,34.319 10.22,34.209 C 10.548,34.1 10.914,34.047 11.317,34.049 C 11.762,34.052 12.157,34.115 12.502,34.24 C 12.846,34.365 13.137,34.537 13.373,34.755 C 13.61,34.973 13.79,35.231 13.913,35.529 C 14.036,35.828 14.096,36.153 14.094,36.506 Z" marker-start="none" marker-end="none"/>
       <path d="M 12.36,42.691 L 15.463,42.709 L 15.475,40.763 L 7.086,40.714 L 7.07,43.443 C 7.067,44.049 7.126,44.567 7.248,44.995 C 7.371,45.424 7.543,45.774 7.764,46.046 C 7.985,46.318 8.247,46.516 8.55,46.641 C 8.853,46.766 9.183,46.829 9.541,46.831 C 9.813,46.833 10.071,46.798 10.314,46.726 C 10.556,46.655 10.781,46.548 10.987,46.405 C 11.194,46.262 11.378,46.087 11.541,45.879 C 11.703,45.67 11.837,45.43 11.943,45.158 C 12.007,45.289 12.087,45.412 12.182,45.525 C 12.277,45.639 12.393,45.739 12.531,45.824 L 15.434,47.626 L 15.445,45.864 C 15.447,45.538 15.325,45.303 15.08,45.159 L 12.653,43.752 C 12.546,43.69 12.47,43.617 12.424,43.535 C 12.378,43.452 12.356,43.336 12.357,43.186 L 12.36,42.691 Z M 11.019,42.683 L 11.014,43.466 C 11.013,43.731 10.978,43.956 10.91,44.142 C 10.841,44.328 10.747,44.48 10.627,44.598 C 10.508,44.716 10.368,44.802 10.208,44.855 C 10.049,44.907 9.877,44.933 9.693,44.932 C 9.324,44.93 9.037,44.808 8.831,44.567 C 8.625,44.326 8.523,43.954 8.526,43.451 L 8.531,42.668 L 11.019,42.683 Z" marker-start="none" marker-end="none"/>
       <path d="M 7.007,53.772 L 8.505,53.781 L 8.525,50.338 L 10.485,50.349 L 10.469,52.986 L 11.908,52.995 L 11.924,50.358 L 13.92,50.37 L 13.9,53.812 L 15.398,53.821 L 15.43,48.421 L 7.038,48.372 L 7.007,53.772 Z" marker-start="none" marker-end="none"/>
       <path d="M 6.968,60.277 L 8.467,60.286 L 8.487,56.843 L 10.446,56.854 L 10.431,59.491 L 11.87,59.5 L 11.886,56.863 L 13.882,56.875 L 13.861,60.317 L 15.36,60.326 L 15.392,54.926 L 7,54.877 L 6.968,60.277 Z" marker-start="none" marker-end="none"/>
       <path d="M 6.956,62.406 C 6.956,62.491 6.959,62.562 6.966,62.619 C 6.973,62.677 6.988,62.729 7.008,62.775 C 7.029,62.821 7.059,62.866 7.097,62.908 C 7.135,62.95 7.187,62.999 7.251,63.053 L 12.266,67.066 C 12.105,67.05 11.948,67.038 11.797,67.029 C 11.645,67.021 11.502,67.016 11.368,67.015 L 6.929,66.989 L 6.919,68.705 L 15.31,68.754 L 15.316,67.741 C 15.317,67.591 15.295,67.464 15.249,67.36 C 15.204,67.256 15.12,67.156 14.998,67.06 L 10.024,63.075 C 10.17,63.087 10.312,63.098 10.452,63.106 C 10.593,63.115 10.724,63.119 10.847,63.12 L 15.343,63.146 L 15.353,61.431 L 6.962,61.381 L 6.956,62.406 Z" marker-start="none" marker-end="none"/>
       <path d="M 6.866,77.707 L 8.364,77.715 L 8.385,74.273 L 10.344,74.284 L 10.328,76.921 L 11.768,76.929 L 11.783,74.293 L 13.779,74.304 L 13.759,77.747 L 15.257,77.756 L 15.289,72.356 L 6.898,72.306 L 6.866,77.707 Z" marker-start="none" marker-end="none"/>
       <path d="M 10.926,80.902 L 6.863,78.282 L 6.851,80.227 C 6.851,80.354 6.866,80.447 6.898,80.507 C 6.931,80.567 6.985,80.62 7.062,80.666 L 9.879,82.353 C 9.829,82.371 9.781,82.393 9.734,82.418 C 9.688,82.443 9.64,82.47 9.59,82.501 L 7.071,83.948 C 6.91,84.043 6.828,84.173 6.827,84.338 L 6.816,86.204 L 10.824,83.596 L 15.207,86.31 L 15.219,84.364 C 15.219,84.238 15.189,84.135 15.128,84.056 C 15.067,83.977 14.995,83.914 14.911,83.868 L 11.984,82.169 C 12.069,82.139 12.142,82.105 12.204,82.067 L 14.93,80.517 C 15.011,80.471 15.084,80.41 15.147,80.334 C 15.211,80.257 15.243,80.162 15.244,80.046 L 15.255,78.227 L 10.926,80.902 Z" marker-start="none" marker-end="none"/>
       <path d="M 6.78,92.409 L 8.278,92.418 L 8.298,88.975 L 10.258,88.987 L 10.242,91.624 L 11.681,91.632 L 11.697,88.995 L 13.693,89.007 L 13.673,92.45 L 15.171,92.459 L 15.203,87.058 L 6.811,87.009 L 6.78,92.409 Z" marker-start="none" marker-end="none"/>
       <path d="M 12.962,99.187 C 12.962,99.233 12.971,99.279 12.988,99.325 C 13.005,99.371 13.036,99.416 13.079,99.458 L 13.903,100.235 C 14.34,99.899 14.67,99.478 14.894,98.971 C 15.118,98.464 15.232,97.863 15.236,97.168 C 15.24,96.531 15.135,95.959 14.921,95.453 C 14.707,94.947 14.41,94.517 14.03,94.164 C 13.65,93.811 13.199,93.538 12.676,93.347 C 12.153,93.156 11.584,93.059 10.97,93.055 C 10.345,93.051 9.769,93.155 9.244,93.367 C 8.718,93.579 8.265,93.877 7.882,94.26 C 7.5,94.644 7.202,95.104 6.987,95.64 C 6.773,96.176 6.664,96.768 6.66,97.417 C 6.658,97.732 6.685,98.028 6.739,98.307 C 6.793,98.585 6.868,98.846 6.965,99.088 C 7.061,99.331 7.177,99.554 7.313,99.758 C 7.448,99.962 7.598,100.144 7.762,100.302 L 8.647,99.651 C 8.701,99.609 8.75,99.559 8.795,99.502 C 8.839,99.445 8.862,99.364 8.862,99.261 C 8.863,99.192 8.848,99.126 8.817,99.065 C 8.787,99.003 8.75,98.938 8.706,98.868 C 8.662,98.799 8.615,98.723 8.564,98.64 C 8.512,98.557 8.465,98.459 8.421,98.346 C 8.378,98.232 8.341,98.099 8.311,97.948 C 8.282,97.796 8.267,97.618 8.268,97.415 C 8.271,97.062 8.335,96.74 8.461,96.449 C 8.588,96.158 8.768,95.908 9.001,95.701 C 9.235,95.493 9.517,95.331 9.848,95.216 C 10.178,95.101 10.549,95.045 10.96,95.047 C 11.39,95.05 11.772,95.11 12.105,95.229 C 12.438,95.348 12.718,95.509 12.946,95.712 C 13.173,95.915 13.345,96.151 13.462,96.421 C 13.58,96.69 13.638,96.978 13.636,97.285 C 13.635,97.462 13.625,97.623 13.607,97.769 C 13.589,97.914 13.558,98.049 13.515,98.174 C 13.473,98.298 13.417,98.417 13.349,98.53 C 13.281,98.643 13.197,98.756 13.097,98.871 C 13.058,98.917 13.026,98.967 13.001,99.02 C 12.976,99.074 12.963,99.129 12.962,99.187 Z" marker-start="none" marker-end="none"/>
       <path d="M 13.562,104.611 C 13.56,104.872 13.516,105.105 13.428,105.31 C 13.341,105.515 13.216,105.688 13.054,105.829 C 12.892,105.97 12.694,106.077 12.462,106.15 C 12.229,106.224 11.965,106.26 11.669,106.258 L 6.7,106.229 L 6.688,108.175 L 11.658,108.204 C 12.173,108.207 12.646,108.126 13.077,107.962 C 13.507,107.797 13.879,107.561 14.192,107.252 C 14.505,106.943 14.749,106.566 14.924,106.122 C 15.1,105.678 15.189,105.177 15.192,104.621 C 15.196,104.06 15.112,103.557 14.942,103.111 C 14.772,102.664 14.532,102.285 14.223,101.972 C 13.914,101.66 13.545,101.419 13.116,101.252 C 12.687,101.084 12.215,100.999 11.701,100.996 L 6.731,100.967 L 6.719,102.913 L 11.683,102.942 C 11.978,102.944 12.242,102.983 12.474,103.059 C 12.706,103.135 12.903,103.245 13.065,103.388 C 13.228,103.531 13.351,103.705 13.436,103.911 C 13.522,104.117 13.563,104.35 13.562,104.611 Z" marker-start="none" marker-end="none"/>
       <path d="M 6.644,115.534 L 8.187,115.543 L 8.201,113.183 L 15.048,113.223 L 15.059,111.277 L 8.213,111.237 L 8.226,108.876 L 6.683,108.867 L 6.644,115.534 Z" marker-start="none" marker-end="none"/>
       <path d="M 15.018,118.521 L 15.029,116.564 L 6.638,116.514 L 6.627,118.472 L 15.018,118.521 Z" marker-start="none" marker-end="none"/>
       <path d="M 6.623,119.334 L 6.614,120.9 C 6.613,121.069 6.65,121.207 6.727,121.315 C 6.804,121.423 6.905,121.5 7.032,121.547 L 11.538,123.197 C 11.734,123.271 11.948,123.346 12.179,123.422 C 12.41,123.499 12.653,123.57 12.908,123.637 C 12.652,123.689 12.409,123.75 12.177,123.82 C 11.945,123.889 11.73,123.958 11.533,124.026 L 7.009,125.612 C 6.9,125.649 6.802,125.724 6.715,125.834 C 6.627,125.945 6.583,126.081 6.582,126.242 L 6.573,127.82 L 14.983,124.507 L 14.993,122.745 L 6.623,119.334 Z" marker-start="none" marker-end="none"/>
       <path d="M 6.536,133.909 L 8.034,133.918 L 8.054,130.475 L 10.014,130.486 L 9.998,133.123 L 11.438,133.132 L 11.453,130.495 L 13.449,130.506 L 13.429,133.949 L 14.927,133.958 L 14.959,128.558 L 6.568,128.508 L 6.536,133.909 Z" marker-start="none" marker-end="none"/>
       <path d="M 10.662,145.538 C 11.268,145.541 11.833,145.44 12.357,145.234 C 12.88,145.028 13.336,144.736 13.724,144.358 C 14.112,143.981 14.417,143.525 14.639,142.991 C 14.861,142.456 14.974,141.863 14.977,141.211 C 14.981,140.558 14.875,139.963 14.66,139.424 C 14.444,138.885 14.144,138.424 13.761,138.04 C 13.377,137.656 12.925,137.357 12.404,137.145 C 11.883,136.933 11.32,136.825 10.713,136.821 C 10.107,136.818 9.542,136.919 9.018,137.125 C 8.495,137.331 8.04,137.624 7.654,138.004 C 7.268,138.384 6.964,138.841 6.742,139.377 C 6.52,139.913 6.407,140.508 6.403,141.16 C 6.4,141.813 6.506,142.407 6.724,142.944 C 6.941,143.481 7.241,143.94 7.623,144.323 C 8.005,144.705 8.456,145.002 8.977,145.214 C 9.497,145.427 10.059,145.534 10.662,145.538 Z M 10.674,143.546 C 10.259,143.543 9.887,143.488 9.555,143.378 C 9.224,143.269 8.944,143.113 8.715,142.91 C 8.486,142.707 8.311,142.459 8.19,142.167 C 8.069,141.874 8.009,141.542 8.011,141.17 C 8.014,140.794 8.077,140.459 8.201,140.166 C 8.326,139.873 8.504,139.627 8.735,139.427 C 8.967,139.226 9.249,139.074 9.581,138.968 C 9.914,138.863 10.287,138.811 10.702,138.813 C 11.12,138.816 11.494,138.872 11.826,138.981 C 12.157,139.091 12.437,139.247 12.666,139.45 C 12.895,139.653 13.069,139.901 13.188,140.195 C 13.307,140.49 13.366,140.825 13.364,141.201 C 13.362,141.573 13.299,141.905 13.177,142.196 C 13.054,142.487 12.877,142.733 12.646,142.933 C 12.414,143.133 12.132,143.286 11.8,143.391 C 11.467,143.497 11.092,143.548 10.674,143.546 Z" marker-start="none" marker-end="none"/>
       <path d="M 6.433,151.845 L 7.932,151.853 L 7.952,148.41 L 10.074,148.423 L 10.057,151.29 L 11.562,151.299 L 11.578,148.432 L 14.844,148.451 L 14.855,146.493 L 6.465,146.444 L 6.433,151.845 Z" marker-start="none" marker-end="none"/>
       <path d="M 6.396,158.259 L 7.894,158.268 L 7.914,154.825 L 10.037,154.838 L 10.02,157.705 L 11.524,157.714 L 11.541,154.847 L 14.806,154.866 L 14.817,152.908 L 6.427,152.859 L 6.396,158.259 Z" marker-start="none" marker-end="none"/>
       <path d="M 14.766,161.453 L 14.777,159.496 L 6.386,159.447 L 6.374,161.404 L 14.766,161.453 Z" marker-start="none" marker-end="none"/>
       <path d="M 12.554,168.63 C 12.554,168.676 12.563,168.722 12.58,168.768 C 12.597,168.814 12.628,168.859 12.671,168.901 L 13.495,169.677 C 13.932,169.342 14.262,168.921 14.486,168.414 C 14.71,167.907 14.824,167.306 14.828,166.611 C 14.832,165.974 14.727,165.402 14.513,164.896 C 14.299,164.39 14.002,163.96 13.622,163.607 C 13.242,163.254 12.791,162.981 12.268,162.79 C 11.745,162.599 11.176,162.502 10.562,162.498 C 9.937,162.494 9.361,162.598 8.836,162.81 C 8.311,163.022 7.857,163.32 7.474,163.703 C 7.092,164.087 6.794,164.547 6.579,165.083 C 6.365,165.619 6.256,166.211 6.252,166.86 C 6.251,167.175 6.277,167.471 6.331,167.75 C 6.385,168.028 6.46,168.289 6.557,168.531 C 6.653,168.774 6.769,168.997 6.905,169.201 C 7.04,169.405 7.19,169.587 7.354,169.745 L 8.239,169.094 C 8.293,169.052 8.342,169.002 8.387,168.945 C 8.431,168.888 8.454,168.807 8.454,168.704 C 8.455,168.635 8.44,168.569 8.409,168.508 C 8.379,168.446 8.342,168.381 8.298,168.311 C 8.254,168.242 8.207,168.166 8.156,168.083 C 8.104,168 8.057,167.902 8.013,167.788 C 7.97,167.675 7.933,167.542 7.903,167.391 C 7.874,167.239 7.859,167.061 7.86,166.858 C 7.863,166.505 7.927,166.183 8.053,165.892 C 8.18,165.601 8.36,165.351 8.593,165.143 C 8.827,164.936 9.109,164.774 9.44,164.659 C 9.77,164.544 10.141,164.488 10.552,164.49 C 10.982,164.492 11.364,164.553 11.697,164.672 C 12.03,164.791 12.31,164.952 12.538,165.155 C 12.765,165.358 12.937,165.594 13.054,165.863 C 13.172,166.133 13.23,166.421 13.228,166.728 C 13.227,166.905 13.217,167.066 13.199,167.212 C 13.181,167.357 13.15,167.492 13.108,167.617 C 13.065,167.741 13.009,167.86 12.941,167.973 C 12.873,168.086 12.789,168.199 12.689,168.314 C 12.65,168.36 12.618,168.41 12.593,168.463 C 12.568,168.517 12.555,168.572 12.554,168.63 Z" marker-start="none" marker-end="none"/>
       <path d="M 6.289,175.925 L 7.787,175.934 L 7.808,172.491 L 9.767,172.503 L 9.751,175.139 L 11.191,175.148 L 11.206,172.511 L 13.202,172.523 L 13.182,175.966 L 14.68,175.974 L 14.712,170.574 L 6.321,170.525 L 6.289,175.925 Z" marker-start="none" marker-end="none"/>
       <path d="M 11.559,179.007 L 14.662,179.025 L 14.674,177.079 L 6.285,177.03 L 6.269,179.759 C 6.266,180.365 6.325,180.883 6.448,181.311 C 6.57,181.74 6.742,182.09 6.963,182.362 C 7.184,182.634 7.447,182.832 7.749,182.957 C 8.052,183.082 8.382,183.145 8.74,183.147 C 9.013,183.149 9.27,183.114 9.513,183.042 C 9.755,182.971 9.98,182.864 10.186,182.721 C 10.393,182.578 10.577,182.403 10.74,182.194 C 10.903,181.986 11.037,181.746 11.142,181.474 C 11.206,181.605 11.286,181.727 11.381,181.841 C 11.476,181.955 11.593,182.055 11.73,182.14 L 14.634,183.942 L 14.644,182.18 C 14.646,181.854 14.524,181.619 14.28,181.475 L 11.852,180.068 C 11.745,180.006 11.669,179.933 11.623,179.851 C 11.577,179.768 11.555,179.652 11.556,179.502 L 11.559,179.007 Z M 10.218,178.999 L 10.213,179.782 C 10.212,180.047 10.177,180.272 10.109,180.458 C 10.04,180.643 9.946,180.796 9.827,180.914 C 9.707,181.032 9.567,181.118 9.408,181.17 C 9.248,181.223 9.076,181.249 8.892,181.248 C 8.523,181.246 8.236,181.124 8.03,180.883 C 7.824,180.642 7.723,180.27 7.725,179.767 L 7.73,178.984 L 10.218,178.999 Z" marker-start="none" marker-end="none"/>
      </g>
     </g>
     <g id="Group_7" fill-rule="nonzero" stroke-linejoin="round" stroke-linecap="round" stroke="none" stroke-width="0.405" fill="#a08b20" stroke-miterlimit="79.8403193612775">
      <g id="Group_8">
       <path d="M 74.737,198.463 C 75.004,198.465 75.24,198.489 75.446,198.535 C 75.651,198.581 75.845,198.642 76.028,198.719 L 76.02,199.984 L 75.197,199.979 C 75.075,199.978 74.98,200.01 74.911,200.075 C 74.842,200.139 74.807,200.221 74.806,200.32 L 74.8,201.384 L 77.762,201.401 L 77.782,197.885 C 77.57,197.728 77.349,197.592 77.119,197.478 C 76.889,197.364 76.643,197.271 76.383,197.197 C 76.122,197.123 75.844,197.068 75.549,197.032 C 75.254,196.996 74.937,196.977 74.597,196.975 C 73.987,196.971 73.423,197.075 72.903,197.288 C 72.384,197.5 71.933,197.795 71.551,198.172 C 71.17,198.549 70.87,198.997 70.652,199.516 C 70.433,200.035 70.322,200.6 70.319,201.21 C 70.315,201.831 70.415,202.402 70.617,202.924 C 70.82,203.446 71.112,203.896 71.493,204.276 C 71.874,204.655 72.335,204.952 72.877,205.165 C 73.419,205.377 74.025,205.486 74.696,205.49 C 75.043,205.492 75.369,205.465 75.674,205.41 C 75.979,205.354 76.261,205.278 76.519,205.18 C 76.777,205.082 77.013,204.965 77.227,204.829 C 77.441,204.693 77.633,204.545 77.801,204.386 L 77.246,203.531 C 77.193,203.45 77.13,203.387 77.056,203.341 C 76.982,203.295 76.901,203.271 76.813,203.271 C 76.699,203.27 76.58,203.308 76.458,203.383 C 76.305,203.474 76.161,203.552 76.025,203.618 C 75.889,203.684 75.751,203.737 75.609,203.778 C 75.468,203.819 75.319,203.849 75.163,203.867 C 75.006,203.885 74.831,203.894 74.637,203.893 C 74.275,203.89 73.949,203.825 73.66,203.695 C 73.371,203.566 73.126,203.385 72.923,203.151 C 72.72,202.917 72.565,202.637 72.456,202.311 C 72.348,201.984 72.294,201.621 72.297,201.221 C 72.299,200.779 72.363,200.387 72.487,200.045 C 72.611,199.703 72.781,199.414 72.998,199.179 C 73.215,198.944 73.471,198.766 73.767,198.643 C 74.063,198.521 74.387,198.461 74.737,198.463 Z" marker-start="none" marker-end="none"/>
       <path d="M 84.278,205.457 L 84.287,203.969 L 80.868,203.949 L 80.879,202.003 L 83.498,202.018 L 83.506,200.589 L 80.888,200.574 L 80.899,198.592 L 84.318,198.612 L 84.327,197.124 L 78.964,197.092 L 78.915,205.425 L 84.278,205.457 Z" marker-start="none" marker-end="none"/>
       <path d="M 93.621,201.347 C 93.625,200.744 93.524,200.183 93.319,199.664 C 93.115,199.144 92.825,198.691 92.45,198.306 C 92.075,197.921 91.622,197.618 91.091,197.397 C 90.561,197.177 89.972,197.065 89.324,197.061 C 88.676,197.057 88.085,197.162 87.55,197.377 C 87.015,197.591 86.557,197.888 86.175,198.269 C 85.794,198.65 85.497,199.099 85.287,199.616 C 85.076,200.134 84.969,200.693 84.965,201.296 C 84.962,201.898 85.062,202.459 85.267,202.979 C 85.472,203.498 85.762,203.95 86.139,204.333 C 86.516,204.717 86.971,205.019 87.503,205.239 C 88.036,205.46 88.626,205.572 89.274,205.575 C 89.922,205.579 90.512,205.473 91.045,205.257 C 91.578,205.041 92.035,204.743 92.414,204.364 C 92.794,203.985 93.089,203.537 93.3,203.02 C 93.51,202.503 93.618,201.945 93.621,201.347 Z M 91.643,201.335 C 91.64,201.746 91.585,202.116 91.476,202.446 C 91.368,202.774 91.213,203.053 91.011,203.28 C 90.81,203.508 90.564,203.681 90.273,203.802 C 89.983,203.922 89.653,203.981 89.283,203.979 C 88.91,203.976 88.578,203.913 88.287,203.79 C 87.996,203.666 87.751,203.49 87.552,203.26 C 87.353,203.03 87.202,202.75 87.097,202.42 C 86.992,202.09 86.941,201.719 86.943,201.307 C 86.946,200.892 87.001,200.52 87.11,200.191 C 87.219,199.862 87.374,199.584 87.575,199.356 C 87.777,199.129 88.023,198.956 88.316,198.838 C 88.608,198.719 88.941,198.661 89.314,198.664 C 89.684,198.666 90.014,198.728 90.302,198.849 C 90.591,198.971 90.835,199.147 91.034,199.377 C 91.233,199.606 91.385,199.886 91.489,200.217 C 91.594,200.547 91.645,200.92 91.643,201.335 Z" marker-start="none" marker-end="none"/>
      </g>
     </g>
    </g>
   </g>
  </g>
 </g>
</svg>
