<?xml version="1.0" standalone="no"?>
<!DOCTYPE svg PUBLIC "-//W3C//DTD SVG 1.1//EN" "http://www.w3.org/Graphics/SVG/1.1/DTD/svg11.dtd">
<!--Generator: Xara Designer (www.xara.com), SVG filter version: 6.2.0.0-->
<svg stroke-width="0.501" stroke-linejoin="bevel" fill-rule="evenodd" xmlns:xlink="http://www.w3.org/1999/xlink" xmlns="http://www.w3.org/2000/svg" version="1.1" overflow="visible" width="107.717pt" height="215.434pt" viewBox="0 0 107.717 215.434">
 <defs>
	</defs>
 <g id="Document" fill="none" stroke="black" font-family="Times New Roman" font-size="16" transform="scale(1 -1)">
  <g id="Spread" transform="translate(0 -215.434)">
   <g id="Layer 1">
    <g id="Group">
     <path d="M 31.528,0 L 31.528,0.002 L 13.448,0.002 C 6.025,0.002 0,6.801 0,15.178 L 0,199.757 C 0,208.134 6.025,214.933 13.448,214.933 L 93.824,214.933 C 101.247,214.933 107.272,208.134 107.272,199.757 L 107.272,15.178 C 107.272,6.801 101.247,0.002 93.824,0.002 L 83.593,0.002 L 83.593,0 L 31.528,0 Z" stroke="#999999" fill="#ffffff" stroke-linejoin="miter" marker-start="none" marker-end="none"/>
     <g id="Group_1" fill-rule="nonzero" stroke-linejoin="round" stroke-linecap="round" stroke="none" stroke-width="0.406" fill="#000000" stroke-miterlimit="79.8403193612775">
      <g id="Group_2">
       <path d="M 15.76,205.58 L 15.755,204.006 L 13.349,204.014 L 13.327,197.035 L 11.344,197.041 L 11.365,204.02 L 8.959,204.027 L 8.964,205.601 L 15.76,205.58 Z" marker-start="none" marker-end="none"/>
       <path d="M 22.089,205.56 L 22.084,204.033 L 18.574,204.044 L 18.568,202.046 L 21.256,202.038 L 21.252,200.571 L 18.564,200.579 L 18.557,198.544 L 22.067,198.533 L 22.062,197.006 L 16.557,197.023 L 16.584,205.577 L 22.089,205.56 Z" marker-start="none" marker-end="none"/>
       <path d="M 31.146,196.978 L 29.609,196.983 C 29.437,196.983 29.295,197.024 29.184,197.104 C 29.072,197.185 28.995,197.288 28.953,197.413 L 28.453,198.906 L 25.201,198.916 L 24.692,197.426 C 24.653,197.317 24.576,197.218 24.462,197.131 C 24.348,197.043 24.209,196.999 24.045,197 L 22.496,197.005 L 25.832,205.547 L 27.863,205.541 L 31.146,196.978 Z M 25.663,200.265 L 27.999,200.258 L 27.22,202.566 C 27.169,202.712 27.11,202.885 27.042,203.084 C 26.974,203.282 26.908,203.497 26.842,203.728 C 26.778,203.494 26.713,203.276 26.646,203.076 C 26.579,202.876 26.516,202.703 26.457,202.556 L 25.663,200.265 Z" marker-start="none" marker-end="none"/>
       <path d="M 36.222,200.845 C 36.299,200.696 36.374,200.54 36.446,200.378 C 36.518,200.216 36.587,200.051 36.653,199.881 C 36.72,200.054 36.791,200.222 36.866,200.385 C 36.941,200.549 37.017,200.707 37.096,200.86 L 39.304,205.203 C 39.344,205.277 39.384,205.335 39.425,205.377 C 39.466,205.418 39.512,205.448 39.563,205.468 C 39.614,205.487 39.672,205.497 39.737,205.497 C 39.801,205.497 39.876,205.496 39.963,205.496 L 41.477,205.491 L 41.451,196.946 L 39.702,196.951 L 39.716,201.805 C 39.717,202.041 39.73,202.296 39.754,202.57 L 37.475,198.249 C 37.405,198.114 37.309,198.013 37.19,197.943 C 37.07,197.875 36.934,197.84 36.782,197.841 L 36.512,197.842 C 36.359,197.842 36.223,197.877 36.104,197.947 C 35.985,198.017 35.89,198.119 35.82,198.254 L 33.556,202.595 C 33.572,202.46 33.583,202.325 33.59,202.192 C 33.598,202.059 33.601,201.936 33.601,201.824 L 33.586,196.97 L 31.837,196.976 L 31.863,205.521 L 33.378,205.516 C 33.464,205.516 33.539,205.516 33.604,205.516 C 33.668,205.516 33.726,205.505 33.777,205.486 C 33.827,205.466 33.873,205.435 33.914,205.394 C 33.955,205.352 33.995,205.294 34.034,205.219 L 36.222,200.845 Z" marker-start="none" marker-end="none"/>
      </g>
     </g>
     <path d="M 57.525,183.473 C 57.393,183.433 57.128,183.331 56.935,183.239 C 56.734,183.148 56.479,183.087 56.357,183.087 C 56.206,183.087 56.074,183.026 56.033,182.954 C 56.013,182.903 55.891,182.855 55.779,182.855 C 55.647,182.855 55.476,182.753 55.353,182.631 C 55.242,182.498 55.058,182.397 54.957,182.397 C 54.745,182.397 53.75,181.9 53.222,181.556 C 53.029,181.434 52.899,181.251 52.899,181.139 C 52.899,181.037 52.817,180.915 52.695,180.876 C 52.481,180.825 52.27,180.53 51.975,179.86 C 51.883,179.667 51.802,179.547 51.751,179.547 C 51.7,179.547 51.641,179.405 51.59,179.232 C 51.559,179.069 51.447,178.888 51.386,178.826 C 51.305,178.776 51.234,178.297 51.224,177.518 C 51.193,176.848 51.122,176.25 51.061,176.189 C 50.93,176.036 50.93,175.122 51.071,175.02 C 51.264,174.931 51.224,173.469 51.002,173.205 C 50.88,173.034 50.849,172.799 50.91,172.12 C 50.951,171.664 51.03,171.226 51.071,171.145 C 51.122,171.096 51.193,170.75 51.234,170.406 C 51.264,170.05 51.356,169.645 51.447,169.492 C 51.7,169.026 52.26,168.478 52.481,168.478 C 52.634,168.478 52.675,168.387 52.675,168.102 C 52.675,167.878 52.705,167.697 52.746,167.656 C 52.777,167.615 52.827,167.098 52.848,166.52 C 52.889,165.443 53.029,164.662 53.243,164.531 C 53.406,164.45 53.406,161.771 53.243,161.68 C 53.192,161.649 53.131,161.415 53.131,161.163 C 53.131,160.684 53.029,160.381 52.899,160.381 C 52.787,160.381 52.817,160.605 52.939,160.807 C 53.161,161.153 52.746,160.878 52.137,160.279 C 51.519,159.671 50.88,159.266 50.159,159.062 C 50.006,159.011 49.752,158.879 49.601,158.767 C 49.459,158.637 49.184,158.545 49.023,158.545 C 48.83,158.545 48.677,158.494 48.677,158.443 C 48.677,158.382 48.474,158.301 48.221,158.27 C 47.967,158.209 47.745,158.148 47.714,158.087 C 47.674,158.036 47.48,157.957 47.267,157.926 C 47.035,157.886 46.729,157.784 46.546,157.692 C 46.375,157.591 46.141,157.519 46.029,157.519 C 45.917,157.519 45.815,157.479 45.815,157.397 C 45.815,157.348 45.644,157.267 45.431,157.226 C 45.217,157.186 45.015,157.104 44.975,157.063 C 44.934,157.002 44.71,156.941 44.468,156.89 C 44.203,156.85 43.979,156.768 43.939,156.709 C 43.898,156.658 43.829,156.618 43.768,156.669 C 43.707,156.709 43.595,156.689 43.513,156.618 C 43.432,156.557 43.188,156.485 42.945,156.445 C 42.711,156.384 42.52,156.312 42.52,156.261 C 42.52,156.2 42.357,156.139 42.184,156.088 C 42.001,156.04 41.83,155.979 41.83,155.907 C 41.83,155.856 41.728,155.806 41.616,155.806 C 41.484,155.806 41.059,155.622 40.641,155.409 C 40.236,155.197 39.78,155.004 39.638,155.004 C 39.111,155.004 38.622,154.212 38.543,153.188 C 38.522,152.773 38.451,152.396 38.41,152.315 C 38.37,152.274 38.278,152.001 38.237,151.757 C 38.197,151.503 38.136,151.25 38.064,151.189 C 38.024,151.128 37.934,150.662 37.904,150.155 C 37.853,149.656 37.781,149.2 37.731,149.139 C 37.68,149.068 37.608,148.745 37.578,148.399 C 37.527,148.065 37.466,147.739 37.405,147.658 C 37.334,147.586 37.254,147.354 37.214,147.13 C 37.173,146.917 37.091,146.695 37.041,146.613 C 36.99,146.563 36.908,146.249 36.878,145.944 C 36.817,145.628 36.735,145.294 36.684,145.233 C 36.605,145.152 36.585,145.02 36.625,144.91 C 36.664,144.818 36.644,144.706 36.605,144.676 C 36.544,144.645 36.462,144.25 36.412,143.802 C 36.361,143.347 36.3,142.931 36.228,142.85 C 36.198,142.799 36.106,142.099 36.076,141.307 C 36.025,140.515 35.945,139.825 35.905,139.774 C 35.844,139.705 35.762,139.196 35.711,138.628 C 35.681,138.06 35.599,137.554 35.559,137.493 C 35.508,137.432 35.437,136.864 35.386,136.235 C 35.345,135.606 35.266,135.048 35.205,134.977 C 35.174,134.926 35.103,134.46 35.062,133.961 C 35.021,133.485 34.94,132.998 34.889,132.937 C 34.828,132.866 34.747,132.481 34.696,132.064 C 34.657,131.659 34.576,131.272 34.535,131.221 C 34.494,131.162 34.392,130.725 34.331,130.269 C 34.23,129.66 34.118,129.334 33.875,129.011 C 33.206,128.148 33.135,127.855 33.185,126.778 C 33.226,126.241 33.297,125.724 33.358,125.652 C 33.428,125.571 33.509,125.156 33.55,124.708 C 33.611,124.272 33.692,123.847 33.763,123.755 C 33.845,123.654 33.916,122.852 33.936,121.634 C 33.977,120.56 34.018,119.585 34.067,119.463 C 34.128,119.332 34.23,118.51 34.291,117.637 C 34.352,116.766 34.423,115.964 34.423,115.862 C 34.443,115.77 34.586,115.508 34.777,115.274 C 34.96,115.05 35.103,114.807 35.103,114.746 C 35.103,114.685 35.184,114.573 35.276,114.492 C 35.355,114.421 35.447,114.258 35.447,114.138 C 35.447,114.016 35.508,113.924 35.569,113.924 C 35.783,113.924 35.62,113.427 35.355,113.285 C 35.194,113.214 34.991,112.969 34.859,112.727 C 34.596,112.231 34.637,111.905 35.021,111.378 C 35.355,110.891 35.65,110.311 35.732,109.926 C 35.772,109.733 35.844,109.593 35.905,109.593 C 35.956,109.593 36.025,109.42 36.076,109.247 C 36.106,109.063 36.3,108.618 36.493,108.274 C 36.664,107.928 36.817,107.594 36.817,107.512 C 36.817,107.431 37.01,107.006 37.224,106.568 C 37.466,106.102 37.608,105.666 37.578,105.514 C 37.558,105.361 37.598,105.198 37.68,105.127 C 37.802,105.017 37.853,104.59 37.853,103.301 C 37.853,101.73 37.812,101.587 37.558,101.091 C 37.405,100.795 37.234,100.39 37.214,100.156 C 37.173,99.943 37.091,99.761 37.041,99.721 C 36.99,99.68 36.908,99.436 36.878,99.173 C 36.817,98.909 36.756,98.644 36.715,98.583 C 36.625,98.432 36.605,98.371 36.462,97.579 C 36.391,97.215 36.3,96.93 36.228,96.93 C 36.198,96.93 36.106,96.645 36.086,96.332 C 36.035,96.006 35.935,95.662 35.864,95.57 C 35.701,95.377 35.742,89.533 35.905,89.332 C 35.945,89.281 36.025,87.962 36.076,86.419 C 36.106,84.876 36.208,83.567 36.269,83.496 C 36.432,83.284 36.442,75.33 36.3,75.116 C 36.208,75.014 36.106,74.396 36.076,73.706 C 36.025,73.007 35.945,72.397 35.905,72.328 C 35.854,72.267 35.772,71.627 35.742,70.897 C 35.701,70.176 35.62,69.578 35.559,69.537 C 35.508,69.507 35.437,68.989 35.386,68.401 C 35.345,67.793 35.266,67.263 35.205,67.192 C 35.174,67.141 35.093,66.584 35.052,65.965 C 34.991,65.366 34.92,64.829 34.879,64.799 C 34.828,64.758 34.747,64.22 34.696,63.581 C 34.657,62.932 34.576,62.354 34.535,62.293 C 34.494,62.242 34.392,61.409 34.301,60.467 C 34.219,59.533 34.118,58.7 34.067,58.631 C 34.036,58.58 33.977,57.982 33.916,57.322 C 33.865,56.673 33.804,56.083 33.743,56.003 C 33.682,55.952 33.611,55.413 33.55,54.815 C 33.509,54.216 33.438,53.658 33.377,53.618 C 33.338,53.547 33.257,53.03 33.206,52.472 C 33.175,51.904 33.094,51.397 33.053,51.336 C 33.012,51.275 32.921,50.748 32.88,50.168 C 32.829,49.59 32.748,49.113 32.699,49.113 C 32.668,49.113 32.577,48.688 32.536,48.179 C 32.495,47.672 32.404,47.165 32.353,47.064 C 32.231,46.832 32.019,44.354 32.019,43.066 C 32.039,41.879 32.098,41.403 32.322,41.23 C 32.404,41.149 32.485,41.026 32.485,40.967 C 32.485,40.876 32.638,40.784 32.839,40.723 L 33.226,40.611 L 33.196,39.819 C 33.175,39.394 33.114,38.989 33.063,38.908 C 33.012,38.836 32.921,38.572 32.88,38.319 C 32.829,38.075 32.748,37.821 32.699,37.749 C 32.668,37.701 32.577,37.436 32.536,37.182 C 32.485,36.929 32.404,36.665 32.363,36.614 C 32.302,36.532 32.241,36.31 32.231,36.097 C 32.21,35.791 32.129,35.702 31.917,35.651 C 31.592,35.559 31.309,35.193 31.531,35.101 C 31.632,35.083 31.592,34.961 31.39,34.747 C 30.72,34.006 30.303,33.499 30.303,33.377 C 30.303,33.326 30.232,33.245 30.13,33.194 C 30.051,33.164 29.959,33.043 29.959,32.911 C 29.959,32.667 29.167,31.926 28.752,31.745 C 28.6,31.694 28.488,31.602 28.488,31.541 C 28.488,31.49 28.345,31.409 28.172,31.368 C 28.001,31.328 27.828,31.256 27.798,31.216 C 27.767,31.167 27.492,31.004 27.199,30.851 C 26.124,30.294 25.931,30.171 25.605,29.858 C 25.302,29.573 25.2,29.532 24.187,29.512 C 23.566,29.492 23.008,29.431 22.937,29.359 C 22.847,29.288 22.735,28.975 22.715,28.659 C 22.654,28.366 22.593,28.112 22.532,28.112 C 22.471,28.112 22.44,28.01 22.44,27.88 C 22.44,27.635 22.735,27.422 23.151,27.422 C 23.293,27.411 23.607,27.33 23.861,27.2 C 24.115,27.078 24.419,26.986 24.51,26.976 C 24.602,26.976 24.724,26.935 24.765,26.874 C 24.816,26.793 25.068,26.721 25.343,26.681 C 25.626,26.64 25.88,26.55 25.921,26.52 C 25.951,26.459 26.652,26.388 27.454,26.337 C 28.284,26.286 28.944,26.225 28.944,26.153 C 28.944,26.021 29.361,26.021 29.442,26.153 C 29.481,26.225 29.857,26.286 30.303,26.337 C 30.751,26.388 31.136,26.479 31.156,26.52 C 31.187,26.55 31.571,26.64 32.019,26.681 C 32.445,26.732 32.819,26.813 32.819,26.854 C 32.819,26.905 32.972,26.976 33.185,27.016 C 33.377,27.047 33.753,27.269 34.036,27.472 C 34.291,27.707 34.555,27.88 34.596,27.88 C 34.647,27.88 35.062,28.224 35.518,28.649 C 36.554,29.573 37.142,29.917 37.853,30.019 C 38.309,30.08 38.441,30.029 38.846,29.746 L 39.312,29.4 L 40.195,29.573 C 40.692,29.634 41.17,29.756 41.26,29.817 C 41.362,29.868 41.616,29.958 41.83,29.988 C 42.052,30.029 42.306,30.121 42.398,30.161 C 42.489,30.212 42.813,30.355 43.118,30.497 L 43.656,30.75 L 43.656,31.865 C 43.656,32.718 43.615,33.023 43.493,33.135 C 43.269,33.326 43.269,34.584 43.493,34.89 C 43.666,35.132 43.717,35.771 43.574,35.913 C 43.534,35.954 43.493,36.188 43.473,36.42 C 43.462,36.654 43.391,37.12 43.32,37.466 C 43.188,38.187 43.249,38.765 43.554,39.374 C 43.666,39.608 43.778,39.87 43.778,39.931 C 43.778,40.023 43.819,40.094 43.857,40.115 C 43.908,40.125 44.061,40.398 44.203,40.672 C 44.478,41.24 44.557,42.417 44.346,42.549 C 44.285,42.58 44.102,42.895 43.929,43.239 L 43.625,43.858 L 44.163,44.365 C 44.448,44.66 44.69,44.904 44.69,44.943 C 44.69,45.024 45.166,45.714 45.278,45.796 C 45.319,45.836 45.4,45.999 45.431,46.172 C 45.482,46.343 45.543,46.486 45.604,46.486 C 45.665,46.486 45.937,47.084 45.988,47.338 C 45.999,47.41 46.07,47.611 46.141,47.774 C 46.222,47.957 46.284,48.189 46.284,48.311 C 46.284,48.423 46.334,48.545 46.395,48.586 C 46.444,48.627 46.526,49.052 46.566,49.549 C 46.607,50.027 46.678,50.493 46.729,50.585 C 46.801,50.697 46.862,51.204 46.912,51.731 C 46.963,52.278 47.035,52.755 47.085,52.816 C 47.124,52.877 47.216,53.406 47.256,53.964 C 47.307,54.532 47.368,55.039 47.429,55.089 C 47.48,55.171 47.552,55.718 47.582,56.347 C 47.643,56.986 47.714,57.534 47.773,57.615 C 47.814,57.666 47.896,58.214 47.936,58.802 C 47.987,59.4 48.069,59.968 48.109,60.06 C 48.16,60.152 48.262,61.127 48.343,62.242 C 48.404,63.327 48.504,64.302 48.565,64.414 C 48.626,64.516 48.698,65.165 48.748,65.843 C 48.779,66.523 48.86,67.141 48.911,67.192 C 48.952,67.263 49.023,67.923 49.082,68.654 C 49.123,69.384 49.204,70.013 49.255,70.044 C 49.296,70.095 49.367,70.673 49.418,71.363 C 49.469,72.053 49.55,72.631 49.601,72.672 C 49.652,72.712 49.713,73.26 49.762,73.919 C 49.813,74.589 49.884,75.157 49.945,75.177 C 49.996,75.218 50.067,75.684 50.108,76.254 C 50.159,76.791 50.23,77.288 50.271,77.349 C 50.332,77.41 50.401,77.917 50.452,78.444 C 50.493,79.022 50.564,79.49 50.615,79.511 C 50.656,79.551 50.676,79.783 50.666,80.058 C 50.656,80.321 50.686,80.606 50.737,80.657 C 50.788,80.728 50.88,81.184 50.91,81.691 C 50.971,82.187 51.03,82.656 51.071,82.706 C 51.122,82.788 51.193,83.213 51.244,83.69 C 51.305,84.145 51.366,84.593 51.417,84.664 C 51.468,84.726 51.549,85.161 51.59,85.648 C 51.641,86.134 51.7,86.562 51.771,86.592 C 51.812,86.633 51.883,86.967 51.934,87.333 C 51.975,87.718 52.056,88.043 52.107,88.082 C 52.158,88.113 52.229,88.408 52.27,88.742 C 52.329,89.057 52.4,89.381 52.441,89.452 C 52.502,89.523 52.563,89.767 52.624,90.012 C 52.654,90.274 52.746,90.539 52.807,90.6 C 52.858,90.679 52.899,90.781 52.899,90.832 C 52.868,90.944 52.96,91.249 53.192,91.736 C 53.283,91.929 53.385,92.222 53.426,92.405 C 53.477,92.589 53.579,92.871 53.658,93.034 C 53.75,93.187 53.811,93.419 53.811,93.531 C 53.811,93.633 53.862,93.724 53.923,93.724 C 53.973,93.724 54.055,93.918 54.096,94.129 C 54.187,94.646 54.328,94.626 54.552,94.099 C 54.663,93.867 54.847,93.48 54.967,93.248 C 55.069,93.014 55.191,92.759 55.191,92.678 C 55.191,92.558 55.626,91.573 56.459,89.92 C 56.51,89.828 56.581,89.472 56.642,89.179 C 56.662,88.884 56.734,88.611 56.784,88.53 C 56.835,88.479 56.915,88.082 56.935,87.687 C 56.986,87.262 57.067,86.844 57.128,86.714 C 57.22,86.48 57.485,84.825 57.515,84.196 C 57.525,84.015 57.556,83.801 57.605,83.74 C 57.645,83.69 57.706,82.969 57.747,82.139 C 57.798,81.326 57.879,80.606 57.951,80.524 C 58.012,80.463 58.083,79.743 58.124,78.92 C 58.144,78.121 58.234,77.41 58.274,77.339 C 58.325,77.268 58.417,75.735 58.447,73.919 C 58.488,72.104 58.57,70.571 58.6,70.51 C 58.651,70.449 58.722,69.649 58.773,68.735 C 58.814,67.831 58.893,67.031 58.944,66.96 C 58.995,66.909 59.076,66.492 59.127,66.046 C 59.168,65.621 59.26,65.193 59.331,65.094 C 59.402,65.002 59.483,64.129 59.494,62.82 C 59.522,61.644 59.583,60.628 59.654,60.569 C 59.746,60.437 59.715,60.243 59.563,59.899 C 59.392,59.512 59.453,54.277 59.614,54.104 C 59.695,54.035 59.746,53.648 59.746,53.101 C 59.746,52.258 59.736,52.238 59.27,51.67 C 58.6,50.898 58.498,50.707 58.427,49.966 C 58.386,49.61 58.295,49.297 58.254,49.266 C 58.124,49.195 58.124,45.796 58.254,45.796 C 58.315,45.796 58.396,45.513 58.427,45.177 C 58.468,44.833 58.549,44.527 58.6,44.487 C 58.651,44.446 58.743,44.234 58.773,44 C 58.824,43.766 58.913,43.504 58.985,43.422 C 59.076,43.31 58.814,42.985 57.839,42.001 C 56.642,40.815 56.55,40.682 56.55,40.277 C 56.55,39.83 56.734,39.414 57.24,38.735 C 57.393,38.5 57.595,38.187 57.686,38.034 C 57.89,37.609 58.083,37.283 58.264,37.07 C 58.356,36.96 58.447,36.665 58.488,36.402 C 58.529,36.097 58.641,35.893 58.793,35.822 C 58.995,35.712 59.025,35.569 59.056,34.544 C 59.076,33.792 59.046,33.347 58.964,33.306 C 58.641,33.105 60.112,31.735 60.64,31.735 C 60.984,31.735 61.35,31.48 61.35,31.226 C 61.35,31.146 61.391,31.075 61.452,31.075 C 61.501,31.075 61.582,30.678 61.633,30.202 C 61.714,29.278 61.969,28.588 62.272,28.478 C 62.353,28.437 62.618,28.264 62.83,28.091 C 63.043,27.908 63.288,27.727 63.359,27.666 C 63.43,27.615 63.672,27.503 63.927,27.411 C 64.159,27.33 64.423,27.23 64.485,27.179 C 64.627,27.047 66.667,27.067 66.766,27.189 C 66.787,27.23 66.949,27.269 67.112,27.251 C 67.275,27.23 67.416,27.251 67.456,27.31 C 67.487,27.36 67.823,27.442 68.218,27.472 C 68.614,27.523 68.989,27.615 69.05,27.656 C 69.121,27.707 69.353,27.768 69.598,27.818 C 69.832,27.859 70.023,27.959 70.023,28.04 C 70.023,28.132 70.104,28.264 70.206,28.356 C 70.369,28.478 70.389,28.659 70.328,29.553 C 70.298,30.121 70.216,30.688 70.145,30.811 C 70.104,30.933 69.944,31.267 69.801,31.572 C 69.659,31.865 69.496,32.109 69.445,32.109 C 69.394,32.109 69.333,32.18 69.333,32.252 C 69.333,32.323 69.121,32.606 68.877,32.85 C 68.625,33.084 68.421,33.326 68.421,33.377 C 68.421,33.438 68.38,33.54 68.309,33.622 C 67.405,34.706 67.082,35.193 66.494,36.351 C 66.147,37.08 66.097,37.243 66.229,37.416 C 66.3,37.538 66.371,37.78 66.371,37.983 C 66.371,38.167 66.412,38.378 66.453,38.45 C 66.514,38.5 66.626,38.928 66.715,39.374 C 66.787,39.83 66.909,40.247 66.96,40.277 C 67,40.318 67.061,40.53 67.061,40.754 C 67.061,40.986 67.133,41.322 67.224,41.515 C 67.316,41.696 67.436,42.124 67.477,42.478 C 67.517,42.824 67.609,43.239 67.701,43.392 C 67.782,43.565 67.853,43.776 67.853,43.878 C 67.853,43.99 67.904,44.092 67.955,44.133 C 68.006,44.163 68.085,44.365 68.116,44.589 C 68.167,44.823 68.279,45.126 68.38,45.309 C 68.452,45.472 68.533,45.755 68.533,45.928 C 68.533,46.091 68.604,46.272 68.655,46.323 C 68.714,46.404 68.796,46.982 68.846,47.611 C 68.877,48.25 68.948,48.8 68.989,48.82 C 69.04,48.859 69.05,49.358 69.02,49.966 C 68.989,50.605 69.009,51.112 69.081,51.194 C 69.142,51.275 69.233,52.238 69.284,53.335 C 69.325,54.42 69.414,55.383 69.455,55.444 C 69.506,55.515 69.587,56.541 69.628,57.727 C 69.669,58.914 69.75,59.958 69.811,60.009 C 69.852,60.08 69.913,61.188 69.933,62.476 C 69.954,64.2 69.992,64.87 70.104,65.002 C 70.206,65.104 70.542,65.204 71.008,65.254 C 71.403,65.295 71.769,65.387 71.79,65.448 C 71.841,65.509 71.961,65.519 72.073,65.489 C 72.195,65.448 72.307,65.468 72.358,65.529 C 72.388,65.59 72.702,65.682 73.037,65.712 C 73.402,65.753 73.697,65.843 73.727,65.883 C 73.768,65.944 74.061,66.006 74.407,66.046 C 74.711,66.107 75.046,66.179 75.108,66.229 C 75.169,66.27 75.502,66.352 75.848,66.392 C 76.182,66.443 76.526,66.523 76.577,66.573 C 76.709,66.655 77.461,66.787 77.866,66.787 C 77.998,66.787 78.151,66.828 78.181,66.899 C 78.222,66.96 78.566,67.042 78.973,67.082 C 79.398,67.123 79.724,67.213 79.724,67.253 C 79.724,67.304 80.048,67.375 80.453,67.426 C 80.87,67.457 81.234,67.538 81.255,67.589 C 81.285,67.63 81.662,67.711 82.118,67.752 C 82.543,67.793 82.92,67.882 82.92,67.933 C 82.92,67.974 83.284,68.076 83.711,68.116 C 84.157,68.157 84.542,68.238 84.572,68.279 C 84.603,68.33 84.969,68.401 85.395,68.45 C 85.83,68.501 86.227,68.562 86.288,68.623 C 86.347,68.674 86.581,68.735 86.795,68.786 C 87.21,68.867 87.707,69.252 87.707,69.507 C 87.707,69.578 87.788,69.751 87.86,69.881 C 87.951,70.044 87.961,70.135 87.87,70.186 C 87.748,70.288 87.475,72.328 87.475,73.007 C 87.475,73.168 87.434,73.372 87.383,73.453 C 87.322,73.524 87.241,74.011 87.19,74.538 C 87.149,75.045 87.068,75.493 87.017,75.533 C 86.978,75.564 86.897,76.183 86.856,76.914 C 86.815,77.652 86.724,78.322 86.673,78.383 C 86.632,78.444 86.571,79.002 86.53,79.621 L 86.439,80.748 L 86.815,81.133 L 87.19,81.528 L 87.17,82.969 C 87.159,83.761 87.088,84.451 87.037,84.532 C 86.978,84.593 86.897,85.587 86.856,86.714 C 86.815,87.83 86.724,88.823 86.673,88.884 C 86.632,88.945 86.571,89.666 86.551,90.478 C 86.48,91.929 86.419,92.222 86.013,92.719 C 85.922,92.841 85.678,92.953 85.466,92.994 C 85.252,93.034 85.049,93.116 85.02,93.167 C 84.939,93.297 84.32,93.297 84.249,93.167 C 84.208,93.126 83.65,93.034 83.001,92.994 C 82.352,92.943 81.761,92.841 81.692,92.77 C 81.59,92.709 80.951,92.668 80.068,92.678 L 78.586,92.678 L 78.242,93.065 C 78.049,93.268 77.896,93.5 77.896,93.572 C 77.896,93.633 77.796,93.796 77.654,93.918 C 77.44,94.089 77.43,94.221 77.471,94.646 C 77.501,94.921 77.623,95.316 77.705,95.499 C 77.827,95.703 77.896,96.128 77.896,96.545 C 77.896,97.093 77.957,97.376 78.12,97.6 C 78.242,97.773 78.354,98.107 78.354,98.361 C 78.374,98.593 78.435,98.868 78.466,98.919 C 78.515,98.99 78.576,99.649 78.627,100.401 C 78.678,101.139 78.739,101.809 78.8,101.88 C 78.861,101.941 78.922,103.209 78.963,104.691 C 79.014,106.163 79.085,107.39 79.144,107.411 C 79.185,107.451 79.266,108.141 79.317,108.964 C 79.358,109.774 79.429,110.505 79.5,110.566 C 79.561,110.647 79.643,111.174 79.673,111.773 C 79.724,112.361 79.785,112.89 79.834,112.949 C 79.895,113.02 79.956,114.148 79.997,115.477 C 80.048,116.796 80.129,117.912 80.16,117.983 C 80.19,118.044 80.302,118.53 80.383,119.068 C 80.453,119.595 80.554,120.234 80.585,120.488 C 80.626,120.733 80.697,122.77 80.758,124.993 C 80.85,128.909 80.758,132.145 80.514,132.471 C 80.463,132.54 80.394,132.897 80.353,133.271 C 80.302,133.648 80.231,134.012 80.17,134.073 C 80.129,134.134 80.068,135.98 80.037,138.152 C 79.997,140.344 79.915,142.201 79.854,142.262 C 79.793,142.341 79.714,142.99 79.673,143.701 C 79.632,144.431 79.551,145.06 79.49,145.142 C 79.449,145.193 79.368,145.618 79.317,146.035 C 79.276,146.481 79.185,146.917 79.126,146.998 C 79.044,147.09 78.993,148.024 78.993,149.424 C 78.973,151.655 78.973,151.696 78.708,151.981 C 78.545,152.123 78.374,152.274 78.313,152.274 C 78.252,152.274 78.018,152.437 77.786,152.61 C 77.542,152.801 77.308,152.954 77.267,152.954 C 77.226,152.954 76.994,153.107 76.76,153.28 C 76.536,153.442 76.152,153.695 75.897,153.817 C 75.655,153.929 75.441,154.071 75.401,154.12 C 75.38,154.181 75.309,154.212 75.238,154.212 C 75.067,154.212 73.949,154.769 73.504,155.065 C 73.3,155.197 73.037,155.36 72.875,155.439 C 72.582,155.582 72.358,155.714 71.79,156.088 C 71.617,156.221 71.352,156.373 71.222,156.445 C 70.165,157.033 69.862,157.175 69.567,157.236 C 69.394,157.277 69.223,157.367 69.223,157.418 C 69.223,157.479 69.142,157.519 69.04,157.519 C 68.775,157.519 67.874,157.957 67.375,158.342 C 67.163,158.515 66.919,158.667 66.858,158.667 C 66.726,158.667 65.348,160.066 65.348,160.208 C 65.348,160.422 64.576,161.051 64.24,161.122 C 63.947,161.183 63.866,161.163 63.825,160.99 C 63.784,160.807 63.764,160.807 63.754,161.02 C 63.754,161.163 63.703,161.313 63.621,161.334 C 63.499,161.436 63.479,163.872 63.611,163.951 C 63.662,163.992 63.733,164.621 63.784,165.352 C 63.825,166.082 63.906,166.742 63.978,166.813 C 64.039,166.884 64.118,167.33 64.159,167.829 C 64.24,168.67 64.362,168.924 64.362,168.224 C 64.362,168.02 64.434,167.847 64.515,167.829 C 64.688,167.747 65.569,168.568 65.569,168.802 C 65.569,168.904 65.651,169.117 65.753,169.248 C 65.875,169.421 65.885,169.502 65.783,169.502 C 65.692,169.502 65.692,169.543 65.763,169.655 C 65.824,169.706 65.915,170.07 65.956,170.416 C 66.007,170.75 66.107,171.096 66.168,171.206 C 66.371,171.419 66.341,172.82 66.147,173.205 C 66.027,173.418 66.017,173.53 66.107,173.632 C 66.209,173.703 66.259,173.844 66.259,173.956 C 66.259,174.047 66.331,174.261 66.412,174.432 C 66.514,174.605 66.544,174.778 66.473,174.798 C 66.331,174.89 66.331,175.539 66.483,175.539 C 66.667,175.539 66.616,177.304 66.402,177.74 C 66.058,178.44 66.027,178.521 66.027,178.745 C 66.027,178.857 65.936,179.038 65.824,179.16 C 65.569,179.405 65.348,179.86 65.348,180.115 C 65.348,180.206 65.195,180.459 65.012,180.622 C 64.829,180.795 64.637,181.057 64.617,181.21 C 64.576,181.383 64.454,181.495 64.281,181.495 C 64.149,181.495 63.917,181.605 63.764,181.768 C 63.621,181.92 63.349,182.073 63.135,182.114 C 62.942,182.165 62.628,182.305 62.435,182.458 C 62.252,182.59 61.928,182.753 61.735,182.804 C 61.521,182.824 61.35,182.903 61.35,182.954 C 61.35,183.015 61.177,183.148 60.984,183.26 C 60.701,183.412 60.273,183.473 59.178,183.494 C 58.396,183.504 57.645,183.494 57.525,183.473 Z" stroke="none" fill="#df56fe" stroke-width="0.01" fill-rule="evenodd" stroke-linejoin="miter" marker-start="none" marker-end="none" stroke-miterlimit="79.8403193612775"/>
     <path d="M 63.227,44.7 C 70.186,50.565 80.585,49.691 86.439,42.732 C 92.313,35.753 91.442,25.311 84.481,19.447 C 77.552,13.562 67.133,14.435 61.269,21.405 C 55.404,28.366 56.286,38.806 63.227,44.7 Z" stroke="none" fill="#ffffff" stroke-width="0.68" stroke-linejoin="miter" marker-start="none" marker-end="none" stroke-miterlimit="79.8403193612775"/>
     <path d="M 64.008,45.309 C 70.957,51.204 81.367,50.31 87.231,43.341 C 93.105,36.392 92.222,25.942 85.283,20.057 C 78.313,14.181 67.914,15.054 62.06,22.024 C 56.186,28.995 57.067,39.414 64.008,45.309 Z" stroke="#55bae6" stroke-width="3.743" stroke-linejoin="miter" marker-start="none" marker-end="none" stroke-miterlimit="79.8403193612775"/>
     <g id="Group_3" fill-rule="nonzero" stroke-linejoin="round" stroke-linecap="round" stroke="none" stroke-width="0.782" fill="#000000" stroke-miterlimit="79.8403193612775">
      <g id="Group_4">
       <path d="M 71.071,27.577 L 73.902,27.577 L 73.902,35.008 C 73.902,35.372 73.912,35.753 73.932,36.151 L 72.264,34.765 C 72.156,34.678 72.048,34.615 71.94,34.578 C 71.832,34.541 71.728,34.523 71.627,34.523 C 71.452,34.523 71.295,34.562 71.157,34.639 C 71.019,34.717 70.916,34.799 70.848,34.887 L 69.858,36.201 L 74.448,40.054 L 77.036,40.054 L 77.036,27.577 L 79.462,27.577 L 79.462,25.311 L 71.071,25.311 L 71.071,27.577 Z" marker-start="none" marker-end="none"/>
      </g>
     </g>
     <g id="Group_5" fill-rule="nonzero" stroke-linejoin="round" stroke-linecap="round" stroke="none" stroke-width="0.375" fill="#df56fe" stroke-miterlimit="79.8403193612775">
      <g id="Group_6">
       <path d="M 12.721,61.606 C 12.721,61.852 12.7,62.07 12.659,62.26 C 12.617,62.45 12.562,62.629 12.492,62.798 L 11.325,62.798 L 11.325,62.038 C 11.325,61.926 11.295,61.838 11.235,61.774 C 11.175,61.711 11.099,61.679 11.008,61.679 L 10.026,61.679 L 10.026,64.413 L 13.271,64.413 C 13.415,64.216 13.539,64.011 13.643,63.798 C 13.747,63.585 13.832,63.358 13.899,63.117 C 13.966,62.876 14.015,62.62 14.047,62.347 C 14.078,62.074 14.094,61.781 14.094,61.468 C 14.094,60.906 13.995,60.385 13.796,59.907 C 13.597,59.428 13.323,59.014 12.973,58.664 C 12.623,58.314 12.207,58.04 11.727,57.841 C 11.247,57.642 10.725,57.543 10.163,57.543 C 9.589,57.543 9.062,57.638 8.582,57.828 C 8.102,58.018 7.688,58.29 7.339,58.643 C 6.991,58.997 6.72,59.424 6.527,59.925 C 6.333,60.426 6.236,60.987 6.236,61.606 C 6.236,61.926 6.263,62.226 6.316,62.508 C 6.369,62.789 6.441,63.049 6.532,63.286 C 6.624,63.523 6.733,63.741 6.86,63.938 C 6.987,64.135 7.124,64.311 7.272,64.465 L 8.058,63.948 C 8.132,63.899 8.19,63.84 8.232,63.771 C 8.275,63.703 8.296,63.628 8.296,63.547 C 8.296,63.442 8.26,63.333 8.19,63.22 C 8.106,63.079 8.033,62.947 7.971,62.822 C 7.91,62.697 7.86,62.569 7.821,62.439 C 7.782,62.309 7.754,62.172 7.736,62.028 C 7.719,61.883 7.71,61.722 7.71,61.542 C 7.71,61.208 7.769,60.907 7.887,60.64 C 8.005,60.373 8.171,60.145 8.385,59.957 C 8.6,59.769 8.857,59.624 9.158,59.522 C 9.459,59.42 9.793,59.369 10.163,59.369 C 10.571,59.369 10.933,59.425 11.249,59.537 C 11.566,59.65 11.833,59.806 12.051,60.004 C 12.269,60.203 12.435,60.439 12.549,60.711 C 12.664,60.984 12.721,61.282 12.721,61.606 Z" marker-start="none" marker-end="none"/>
       <path d="M 11.165,67.281 L 14.009,67.281 L 14.009,65.498 L 6.321,65.498 L 6.321,67.999 C 6.321,68.555 6.379,69.029 6.493,69.421 C 6.608,69.813 6.767,70.133 6.971,70.381 C 7.175,70.629 7.417,70.81 7.695,70.922 C 7.973,71.035 8.276,71.091 8.604,71.091 C 8.854,71.091 9.09,71.057 9.311,70.991 C 9.533,70.924 9.739,70.824 9.927,70.693 C 10.115,70.561 10.284,70.399 10.431,70.207 C 10.579,70.015 10.701,69.795 10.796,69.545 C 10.856,69.665 10.929,69.776 11.017,69.88 C 11.105,69.984 11.212,70.074 11.339,70.152 L 14.009,71.787 L 14.009,70.173 C 14.009,69.874 13.896,69.659 13.671,69.529 L 11.439,68.252 C 11.341,68.196 11.27,68.13 11.228,68.054 C 11.186,67.979 11.165,67.872 11.165,67.735 L 11.165,67.281 Z M 9.936,67.281 L 9.936,67.999 C 9.936,68.242 9.905,68.448 9.844,68.619 C 9.782,68.79 9.697,68.929 9.588,69.038 C 9.479,69.148 9.351,69.227 9.205,69.276 C 9.059,69.325 8.902,69.35 8.733,69.35 C 8.395,69.35 8.131,69.24 7.941,69.02 C 7.751,68.8 7.656,68.46 7.656,67.999 L 7.656,67.281 L 9.936,67.281 Z" marker-start="none" marker-end="none"/>
       <path d="M 6.319,77.465 L 7.692,77.465 L 7.692,74.31 L 9.488,74.31 L 9.488,76.727 L 10.807,76.727 L 10.807,74.31 L 12.636,74.31 L 12.636,77.465 L 14.009,77.465 L 14.009,72.516 L 6.319,72.516 L 6.319,77.465 Z" marker-start="none" marker-end="none"/>
       <path d="M 6.319,83.426 L 7.692,83.426 L 7.692,80.271 L 9.488,80.271 L 9.488,82.688 L 10.807,82.688 L 10.807,80.271 L 12.636,80.271 L 12.636,83.426 L 14.009,83.426 L 14.009,78.477 L 6.319,78.477 L 6.319,83.426 Z" marker-start="none" marker-end="none"/>
       <path d="M 6.319,85.377 C 6.319,85.455 6.322,85.52 6.329,85.573 C 6.336,85.625 6.35,85.673 6.369,85.715 C 6.388,85.757 6.416,85.798 6.451,85.836 C 6.486,85.875 6.534,85.919 6.593,85.968 L 11.21,89.619 C 11.062,89.605 10.919,89.595 10.78,89.588 C 10.641,89.581 10.51,89.577 10.387,89.577 L 6.319,89.577 L 6.319,91.149 L 14.009,91.149 L 14.009,90.221 C 14.009,90.084 13.988,89.968 13.946,89.873 C 13.903,89.778 13.826,89.686 13.714,89.598 L 9.134,85.974 C 9.267,85.984 9.398,85.993 9.527,86 C 9.655,86.007 9.776,86.01 9.888,86.01 L 14.009,86.01 L 14.009,84.438 L 6.319,84.438 L 6.319,85.377 Z" marker-start="none" marker-end="none"/>
       <path d="M 11.165,96.232 L 14.009,96.232 L 14.009,94.449 L 6.321,94.449 L 6.321,96.95 C 6.321,97.506 6.379,97.98 6.493,98.372 C 6.608,98.764 6.767,99.084 6.971,99.332 C 7.175,99.58 7.417,99.761 7.695,99.873 C 7.973,99.986 8.276,100.042 8.604,100.042 C 8.854,100.042 9.09,100.008 9.311,99.942 C 9.533,99.875 9.739,99.775 9.927,99.644 C 10.115,99.512 10.284,99.35 10.431,99.158 C 10.579,98.966 10.701,98.746 10.796,98.496 C 10.856,98.616 10.929,98.727 11.017,98.831 C 11.105,98.935 11.212,99.025 11.339,99.103 L 14.009,100.738 L 14.009,99.124 C 14.009,98.825 13.896,98.61 13.671,98.48 L 11.439,97.203 C 11.341,97.147 11.27,97.081 11.228,97.005 C 11.186,96.93 11.165,96.823 11.165,96.686 L 11.165,96.232 Z M 9.936,96.232 L 9.936,96.95 C 9.936,97.193 9.905,97.399 9.844,97.57 C 9.782,97.741 9.697,97.88 9.588,97.989 C 9.479,98.099 9.351,98.178 9.205,98.227 C 9.059,98.276 8.902,98.301 8.733,98.301 C 8.395,98.301 8.131,98.191 7.941,97.971 C 7.751,97.751 7.656,97.411 7.656,96.95 L 7.656,96.232 L 9.936,96.232 Z" marker-start="none" marker-end="none"/>
       <path d="M 14.009,103.419 L 14.009,101.625 L 6.319,101.625 L 6.319,103.419 L 14.009,103.419 Z" marker-start="none" marker-end="none"/>
       <path d="M 7.883,109.126 C 7.968,109.074 8.031,109.018 8.073,108.96 C 8.115,108.902 8.136,108.827 8.136,108.736 C 8.136,108.655 8.111,108.568 8.06,108.475 C 8.009,108.382 7.952,108.276 7.888,108.158 C 7.825,108.04 7.768,107.906 7.717,107.755 C 7.666,107.603 7.64,107.431 7.64,107.238 C 7.64,106.903 7.712,106.655 7.854,106.491 C 7.997,106.327 8.189,106.246 8.432,106.246 C 8.587,106.246 8.715,106.295 8.817,106.393 C 8.919,106.492 9.007,106.621 9.081,106.781 C 9.155,106.941 9.223,107.124 9.284,107.33 C 9.346,107.536 9.414,107.746 9.49,107.96 C 9.566,108.175 9.654,108.385 9.757,108.591 C 9.859,108.797 9.989,108.98 10.147,109.14 C 10.305,109.3 10.498,109.429 10.725,109.527 C 10.952,109.626 11.225,109.675 11.545,109.675 C 11.901,109.675 12.233,109.614 12.543,109.49 C 12.852,109.367 13.122,109.189 13.353,108.955 C 13.583,108.721 13.764,108.433 13.896,108.09 C 14.028,107.747 14.094,107.357 14.094,106.921 C 14.094,106.682 14.069,106.438 14.02,106.19 C 13.971,105.942 13.901,105.702 13.812,105.47 C 13.722,105.238 13.615,105.02 13.492,104.816 C 13.369,104.612 13.232,104.434 13.081,104.283 L 12.247,104.81 C 12.184,104.849 12.133,104.904 12.094,104.974 C 12.055,105.044 12.036,105.12 12.036,105.201 C 12.036,105.306 12.069,105.413 12.136,105.52 C 12.203,105.627 12.277,105.749 12.358,105.884 C 12.439,106.02 12.513,106.175 12.579,106.351 C 12.646,106.527 12.68,106.735 12.68,106.974 C 12.68,107.297 12.608,107.549 12.466,107.728 C 12.324,107.908 12.097,107.997 11.788,107.997 C 11.608,107.997 11.462,107.948 11.35,107.85 C 11.237,107.751 11.144,107.622 11.07,107.462 C 10.996,107.302 10.931,107.12 10.875,106.916 C 10.819,106.712 10.756,106.502 10.688,106.288 C 10.619,106.073 10.535,105.864 10.434,105.66 C 10.334,105.456 10.202,105.274 10.039,105.114 C 9.875,104.954 9.671,104.825 9.426,104.726 C 9.182,104.628 8.88,104.578 8.521,104.578 C 8.233,104.578 7.952,104.636 7.677,104.752 C 7.403,104.869 7.158,105.039 6.944,105.264 C 6.729,105.489 6.557,105.765 6.429,106.093 C 6.301,106.42 6.236,106.794 6.236,107.216 C 6.236,107.452 6.255,107.682 6.292,107.905 C 6.329,108.128 6.383,108.34 6.456,108.541 C 6.528,108.741 6.614,108.929 6.714,109.103 C 6.814,109.277 6.928,109.432 7.055,109.57 L 7.883,109.126 Z" marker-start="none" marker-end="none"/>
       <path d="M 9.434,112.344 L 9.434,112.629 C 9.434,112.893 9.351,113.083 9.185,113.199 L 6.673,114.93 C 6.535,115.025 6.442,115.133 6.393,115.254 C 6.344,115.376 6.319,115.524 6.319,115.7 L 6.319,117.251 L 9.428,114.972 C 9.541,114.891 9.634,114.807 9.708,114.719 C 9.782,114.631 9.843,114.541 9.893,114.45 C 9.942,114.583 10.01,114.706 10.096,114.816 C 10.182,114.927 10.297,115.028 10.442,115.12 L 14.009,117.441 L 14.009,115.848 C 14.009,115.746 14.002,115.659 13.988,115.587 C 13.974,115.515 13.953,115.452 13.925,115.399 C 13.896,115.347 13.862,115.301 13.822,115.262 C 13.781,115.224 13.735,115.187 13.682,115.151 L 11.006,113.41 C 10.908,113.347 10.838,113.267 10.798,113.17 C 10.757,113.073 10.737,112.942 10.737,112.777 L 10.737,112.344 L 14.009,112.344 L 14.009,110.561 L 6.319,110.561 L 6.319,112.344 L 9.434,112.344 Z" marker-start="none" marker-end="none"/>
       <path d="M 10.163,127.716 C 10.718,127.716 11.235,127.62 11.714,127.429 C 12.192,127.237 12.608,126.967 12.962,126.619 C 13.316,126.271 13.593,125.851 13.793,125.36 C 13.994,124.87 14.094,124.325 14.094,123.727 C 14.094,123.13 13.994,122.584 13.793,122.092 C 13.593,121.599 13.316,121.178 12.962,120.828 C 12.608,120.478 12.192,120.207 11.714,120.016 C 11.235,119.824 10.718,119.728 10.163,119.728 C 9.607,119.728 9.09,119.824 8.611,120.016 C 8.133,120.207 7.718,120.478 7.366,120.828 C 7.014,121.178 6.738,121.599 6.537,122.092 C 6.337,122.584 6.236,123.13 6.236,123.727 C 6.236,124.325 6.338,124.87 6.54,125.36 C 6.742,125.851 7.019,126.271 7.371,126.619 C 7.723,126.967 8.138,127.237 8.616,127.429 C 9.095,127.62 9.61,127.716 10.163,127.716 Z M 10.163,125.891 C 9.783,125.891 9.441,125.841 9.137,125.743 C 8.833,125.645 8.575,125.503 8.364,125.318 C 8.153,125.134 7.991,124.908 7.879,124.64 C 7.766,124.373 7.71,124.069 7.71,123.727 C 7.71,123.383 7.766,123.076 7.879,122.807 C 7.991,122.538 8.153,122.311 8.364,122.126 C 8.575,121.942 8.833,121.8 9.137,121.701 C 9.441,121.603 9.783,121.554 10.163,121.554 C 10.546,121.554 10.89,121.603 11.194,121.701 C 11.498,121.8 11.756,121.942 11.967,122.126 C 12.178,122.311 12.338,122.538 12.449,122.807 C 12.56,123.076 12.615,123.383 12.615,123.727 C 12.615,124.069 12.56,124.373 12.449,124.64 C 12.338,124.908 12.178,125.134 11.967,125.318 C 11.756,125.503 11.498,125.645 11.194,125.743 C 10.89,125.841 10.546,125.891 10.163,125.891 Z" marker-start="none" marker-end="none"/>
       <path d="M 6.321,133.518 L 7.695,133.518 L 7.695,130.363 L 9.64,130.363 L 9.64,132.991 L 11.018,132.991 L 11.018,130.363 L 14.01,130.363 L 14.01,128.569 L 6.321,128.569 L 6.321,133.518 Z" marker-start="none" marker-end="none"/>
       <path d="M 6.321,139.397 L 7.695,139.397 L 7.695,136.242 L 9.64,136.242 L 9.64,138.87 L 11.018,138.87 L 11.018,136.242 L 14.01,136.242 L 14.01,134.448 L 6.321,134.448 L 6.321,139.397 Z" marker-start="none" marker-end="none"/>
       <path d="M 14.009,142.279 L 14.009,140.485 L 6.319,140.485 L 6.319,142.279 L 14.009,142.279 Z" marker-start="none" marker-end="none"/>
       <path d="M 12.021,148.868 C 12.021,148.91 12.029,148.952 12.046,148.994 C 12.062,149.036 12.089,149.077 12.129,149.116 L 12.889,149.823 C 13.287,149.513 13.587,149.125 13.79,148.659 C 13.993,148.193 14.094,147.642 14.094,147.005 C 14.094,146.421 13.995,145.898 13.796,145.435 C 13.597,144.973 13.323,144.581 12.973,144.259 C 12.623,143.937 12.207,143.69 11.727,143.517 C 11.247,143.345 10.725,143.259 10.163,143.259 C 9.589,143.259 9.062,143.357 8.582,143.554 C 8.102,143.751 7.688,144.027 7.339,144.38 C 6.991,144.734 6.72,145.157 6.527,145.649 C 6.333,146.141 6.236,146.685 6.236,147.279 C 6.236,147.568 6.262,147.84 6.313,148.095 C 6.364,148.35 6.435,148.588 6.524,148.809 C 6.614,149.031 6.722,149.235 6.847,149.422 C 6.972,149.608 7.11,149.773 7.261,149.917 L 8.069,149.316 C 8.118,149.277 8.163,149.232 8.203,149.179 C 8.244,149.126 8.264,149.052 8.264,148.957 C 8.264,148.894 8.25,148.834 8.222,148.778 C 8.194,148.722 8.159,148.662 8.119,148.598 C 8.079,148.535 8.035,148.466 7.987,148.39 C 7.94,148.314 7.896,148.225 7.855,148.121 C 7.815,148.017 7.78,147.896 7.752,147.757 C 7.724,147.618 7.71,147.455 7.71,147.269 C 7.71,146.945 7.767,146.65 7.882,146.382 C 7.996,146.115 8.159,145.886 8.372,145.694 C 8.585,145.502 8.843,145.353 9.145,145.245 C 9.448,145.138 9.787,145.085 10.164,145.085 C 10.558,145.085 10.908,145.138 11.214,145.245 C 11.52,145.353 11.778,145.499 11.987,145.683 C 12.196,145.868 12.355,146.083 12.465,146.33 C 12.574,146.576 12.628,146.84 12.628,147.121 C 12.628,147.283 12.62,147.431 12.604,147.564 C 12.589,147.698 12.561,147.822 12.523,147.936 C 12.484,148.051 12.434,148.16 12.372,148.263 C 12.311,148.367 12.234,148.472 12.143,148.577 C 12.107,148.62 12.078,148.665 12.055,148.715 C 12.033,148.764 12.021,148.815 12.021,148.868 Z" marker-start="none" marker-end="none"/>
       <path d="M 6.319,155.586 L 7.692,155.586 L 7.692,152.431 L 9.488,152.431 L 9.488,154.848 L 10.807,154.848 L 10.807,152.431 L 12.636,152.431 L 12.636,155.586 L 14.009,155.586 L 14.009,150.637 L 6.319,150.637 L 6.319,155.586 Z" marker-start="none" marker-end="none"/>
       <path d="M 11.165,158.381 L 14.009,158.381 L 14.009,156.598 L 6.321,156.598 L 6.321,159.099 C 6.321,159.655 6.379,160.129 6.493,160.521 C 6.608,160.913 6.767,161.233 6.971,161.481 C 7.175,161.729 7.417,161.91 7.695,162.022 C 7.973,162.135 8.276,162.191 8.604,162.191 C 8.854,162.191 9.09,162.157 9.311,162.091 C 9.533,162.024 9.739,161.924 9.927,161.793 C 10.115,161.661 10.284,161.499 10.431,161.307 C 10.579,161.115 10.701,160.895 10.796,160.645 C 10.856,160.765 10.929,160.876 11.017,160.98 C 11.105,161.084 11.212,161.174 11.339,161.252 L 14.009,162.887 L 14.009,161.273 C 14.009,160.974 13.896,160.759 13.671,160.629 L 11.439,159.352 C 11.341,159.296 11.27,159.23 11.228,159.154 C 11.186,159.079 11.165,158.972 11.165,158.835 L 11.165,158.381 Z M 9.936,158.381 L 9.936,159.099 C 9.936,159.342 9.905,159.548 9.844,159.719 C 9.782,159.89 9.697,160.029 9.588,160.138 C 9.479,160.248 9.351,160.327 9.205,160.376 C 9.059,160.425 8.902,160.45 8.733,160.45 C 8.395,160.45 8.131,160.34 7.941,160.12 C 7.751,159.9 7.656,159.56 7.656,159.099 L 7.656,158.381 L 9.936,158.381 Z" marker-start="none" marker-end="none"/>
      </g>
     </g>
     <g id="Group_7" fill-rule="nonzero" stroke-linejoin="round" stroke-linecap="round" stroke="none" stroke-width="0.405" fill="#df56fe" stroke-miterlimit="79.8403193612775">
      <g id="Group_8">
       <path d="M 73.047,198.457 C 73.318,198.457 73.559,198.48 73.768,198.526 C 73.977,198.571 74.175,198.633 74.361,198.709 L 74.361,199.995 L 73.524,199.995 C 73.4,199.995 73.303,200.029 73.233,200.094 C 73.163,200.16 73.129,200.244 73.129,200.344 L 73.129,201.426 L 76.14,201.426 L 76.14,197.851 C 75.923,197.692 75.697,197.556 75.462,197.441 C 75.228,197.327 74.978,197.233 74.713,197.159 C 74.447,197.086 74.164,197.032 73.864,196.997 C 73.564,196.962 73.241,196.944 72.896,196.944 C 72.276,196.944 71.702,197.054 71.175,197.273 C 70.648,197.492 70.192,197.794 69.806,198.18 C 69.421,198.565 69.119,199.023 68.9,199.552 C 68.681,200.081 68.571,200.656 68.571,201.276 C 68.571,201.907 68.676,202.488 68.885,203.017 C 69.094,203.546 69.394,204.002 69.783,204.386 C 70.173,204.77 70.644,205.068 71.196,205.281 C 71.748,205.495 72.365,205.601 73.047,205.601 C 73.4,205.601 73.731,205.572 74.041,205.514 C 74.351,205.456 74.637,205.376 74.899,205.275 C 75.16,205.174 75.399,205.054 75.616,204.914 C 75.833,204.775 76.027,204.623 76.198,204.46 L 75.628,203.594 C 75.574,203.513 75.509,203.449 75.433,203.402 C 75.358,203.356 75.275,203.333 75.186,203.333 C 75.07,203.333 74.95,203.371 74.826,203.449 C 74.671,203.542 74.525,203.622 74.387,203.69 C 74.249,203.758 74.109,203.813 73.966,203.856 C 73.822,203.898 73.671,203.929 73.512,203.949 C 73.353,203.968 73.175,203.978 72.977,203.978 C 72.609,203.978 72.278,203.913 71.983,203.783 C 71.689,203.653 71.438,203.47 71.231,203.234 C 71.023,202.998 70.863,202.714 70.751,202.383 C 70.639,202.051 70.583,201.682 70.583,201.276 C 70.583,200.826 70.645,200.427 70.769,200.078 C 70.893,199.73 71.064,199.435 71.283,199.195 C 71.502,198.955 71.762,198.772 72.062,198.646 C 72.362,198.52 72.691,198.457 73.047,198.457 Z" marker-start="none" marker-end="none"/>
       <path d="M 79.301,200.171 L 79.301,197.038 L 77.337,197.038 L 77.337,205.508 L 80.092,205.508 C 80.704,205.508 81.226,205.445 81.658,205.318 C 82.09,205.192 82.443,205.017 82.716,204.792 C 82.99,204.567 83.188,204.301 83.312,203.994 C 83.436,203.688 83.498,203.354 83.498,202.993 C 83.498,202.718 83.461,202.458 83.388,202.213 C 83.314,201.969 83.205,201.743 83.059,201.535 C 82.914,201.328 82.736,201.142 82.525,200.979 C 82.313,200.817 82.07,200.683 81.795,200.578 C 81.927,200.512 82.05,200.431 82.164,200.334 C 82.278,200.237 82.378,200.119 82.463,199.98 L 84.265,197.038 L 82.487,197.038 C 82.157,197.038 81.921,197.162 81.778,197.41 L 80.371,199.869 C 80.309,199.978 80.236,200.055 80.153,200.102 C 80.07,200.148 79.952,200.172 79.801,200.171 L 79.301,200.171 Z M 79.301,201.525 L 80.092,201.525 C 80.359,201.525 80.587,201.559 80.775,201.627 C 80.963,201.695 81.117,201.789 81.237,201.909 C 81.357,202.029 81.444,202.17 81.499,202.331 C 81.553,202.492 81.58,202.665 81.58,202.851 C 81.58,203.223 81.459,203.514 81.217,203.723 C 80.974,203.933 80.599,204.037 80.092,204.037 L 79.301,204.037 L 79.301,201.525 Z" marker-start="none" marker-end="none"/>
       <path d="M 93.137,201.276 C 93.137,200.663 93.032,200.094 92.821,199.566 C 92.609,199.039 92.312,198.581 91.928,198.191 C 91.545,197.802 91.083,197.497 90.542,197.276 C 90.001,197.055 89.402,196.944 88.743,196.944 C 88.084,196.944 87.483,197.055 86.941,197.276 C 86.398,197.497 85.934,197.802 85.549,198.191 C 85.163,198.581 84.865,199.039 84.654,199.566 C 84.442,200.094 84.337,200.663 84.337,201.276 C 84.337,201.888 84.442,202.458 84.654,202.985 C 84.865,203.512 85.163,203.969 85.549,204.357 C 85.934,204.745 86.398,205.049 86.941,205.27 C 87.483,205.491 88.084,205.601 88.743,205.601 C 89.402,205.601 90.001,205.49 90.542,205.267 C 91.083,205.044 91.545,204.739 91.928,204.351 C 92.312,203.964 92.609,203.506 92.821,202.979 C 93.032,202.452 93.137,201.884 93.137,201.276 Z M 91.126,201.276 C 91.126,201.694 91.072,202.071 90.963,202.406 C 90.855,202.741 90.699,203.025 90.495,203.257 C 90.292,203.49 90.043,203.668 89.749,203.792 C 89.454,203.916 89.119,203.978 88.743,203.978 C 88.363,203.978 88.025,203.916 87.729,203.792 C 87.432,203.668 87.182,203.49 86.979,203.257 C 86.775,203.025 86.619,202.741 86.511,202.406 C 86.402,202.071 86.348,201.694 86.348,201.276 C 86.348,200.853 86.402,200.475 86.511,200.14 C 86.619,199.804 86.775,199.521 86.979,199.288 C 87.182,199.056 87.432,198.879 87.729,198.757 C 88.025,198.635 88.363,198.574 88.743,198.574 C 89.119,198.574 89.454,198.635 89.749,198.757 C 90.043,198.879 90.292,199.056 90.495,199.288 C 90.699,199.521 90.855,199.804 90.963,200.14 C 91.072,200.475 91.126,200.853 91.126,201.276 Z" marker-start="none" marker-end="none"/>
      </g>
     </g>
    </g>
   </g>
  </g>
 </g>
</svg>
