<?xml version="1.0" standalone="no"?>
<!DOCTYPE svg PUBLIC "-//W3C//DTD SVG 1.1//EN" "http://www.w3.org/Graphics/SVG/1.1/DTD/svg11.dtd">
<!--Generator: Xara Designer (www.xara.com), SVG filter version: 6.2.0.0-->
<svg stroke-width="0.501" stroke-linejoin="bevel" fill-rule="evenodd" xmlns:xlink="http://www.w3.org/1999/xlink" xmlns="http://www.w3.org/2000/svg" version="1.1" overflow="visible" width="215.434pt" height="215.434pt" viewBox="0 0 215.434 215.434">
 <defs>
	</defs>
 <g id="Document" fill="none" stroke="black" font-family="Times New Roman" font-size="16" transform="scale(1 -1)">
  <g id="Spread" transform="translate(0 -215.434)">
   <g id="Layer 1">
    <path d="M 199.757,214.933 L 15.176,214.933 C 6.799,214.933 0,208.134 0,199.757 L 0,15.176 C 0,6.799 6.799,0 15.176,0 L 199.757,0 C 208.134,0 214.933,6.799 214.933,15.176 L 214.933,199.757 C 214.933,208.134 208.134,214.933 199.757,214.933 Z" stroke="#999999" fill="#ffffff" stroke-linejoin="miter" marker-start="none" marker-end="none"/>
    <g id="Group" stroke-linejoin="miter" stroke-linecap="round" stroke="#ff7979">
     <path d="M 15.005,146.115 L 15.005,180.007 L 118.593,180.007 L 118.593,146.115 L 15.005,146.115 Z" fill="#ff7979" stroke-width="1.738" marker-start="none" marker-end="none" stroke-miterlimit="79.8403193612775"/>
     <path d="M 15.005,144.772 L 15.005,154.582 C 15.005,157.153 17.089,159.23 19.651,159.23 L 113.943,159.23 C 116.505,159.23 118.593,157.153 118.593,154.582 L 118.593,144.772 C 118.593,142.196 116.505,140.118 113.943,140.118 L 19.651,140.118 C 17.089,140.118 15.005,142.196 15.005,144.772 Z" fill="#ff7979" stroke-width="1.738" marker-start="none" marker-end="none" stroke-miterlimit="79.8403193612775"/>
     <path d="M 15.702,173.665 L 15.702,191.31 C 15.702,195.923 19.446,199.669 24.064,199.669 L 191.11,199.669 C 195.723,199.669 199.471,195.923 199.471,191.31 L 199.471,173.665 C 199.471,169.047 195.723,165.299 191.11,165.299 L 24.064,165.299 C 19.446,165.299 15.702,169.047 15.702,173.665 Z" fill="#ffffff" stroke-width="3.13" marker-start="none" marker-end="none" stroke-miterlimit="79.8403193612775"/>
    </g>
    <g id="Group_1" stroke-linecap="round" stroke="none" fill="#e5e5e5">
     <path d="M 0.505,114.725 L 0.505,123.259 L 49.668,123.259 L 49.668,114.725 L 0.505,114.725 Z" stroke-width="0.103" stroke-linejoin="miter" marker-start="none" marker-end="none" stroke-miterlimit="79.8403193612775"/>
     <path d="M 100.11,94.493 C 87.842,107.932 71.029,114.761 54.156,114.764 L 54.156,123.243 C 73.328,123.238 92.441,115.488 106.375,100.219 C 118.749,86.658 124.85,69.581 124.845,52.558 L 116.359,52.558 C 116.366,67.54 110.997,82.567 100.11,94.493 Z" stroke-width="0.541" stroke-linejoin="round" marker-start="none" marker-end="none" stroke-miterlimit="79.8403193612775"/>
     <path d="M 120.618,14.605 L 118.5,17.65 L 116.378,20.703 L 116.325,20.703 L 116.325,47.98 L 124.861,47.98 L 124.861,20.703 L 122.741,17.65 L 120.618,14.605 Z" stroke-width="0.103" stroke-linejoin="miter" marker-start="none" marker-end="none" stroke-miterlimit="79.8403193612775"/>
    </g>
    <g id="Group_2" stroke-linecap="round" stroke="none" fill="#e5e5e5">
     <path d="M 109.068,14.601 L 106.948,17.647 L 104.827,20.703 L 109.068,20.703 L 113.309,20.699 L 111.186,17.647 L 109.068,14.601 Z M 104.804,20.703 L 104.804,47.98 L 113.338,47.98 L 113.338,20.703 L 104.804,20.703 Z" stroke-width="0.103" stroke-linejoin="miter" marker-start="none" marker-end="none" stroke-miterlimit="79.8403193612775"/>
     <path d="M 91.756,86.871 C 81.716,97.862 67.961,103.449 54.156,103.454 L 54.156,111.935 C 70.263,111.931 86.313,105.416 98.022,92.588 C 108.416,81.201 113.536,66.858 113.533,52.558 L 105.047,52.558 C 105.057,64.815 100.662,77.107 91.756,86.871 Z" stroke-width="0.453" stroke-linejoin="round" marker-start="none" marker-end="none" stroke-miterlimit="79.8403193612775"/>
     <path d="M 0.505,103.422 L 0.505,111.954 L 49.668,111.954 L 49.668,103.422 L 0.505,103.422 Z" stroke-width="0.103" stroke-linejoin="miter" marker-start="none" marker-end="none" stroke-miterlimit="79.8403193612775"/>
    </g>
    <g id="Group_3" stroke-linecap="round" stroke="none" fill="#e5e5e5">
     <path d="M 97.752,14.601 L 95.636,17.647 L 93.515,20.703 L 97.756,20.703 L 101.999,20.699 L 99.879,17.647 L 97.752,14.601 Z M 93.506,20.703 L 93.506,47.98 L 102.041,47.98 L 102.041,20.703 L 93.506,20.703 Z" stroke-width="0.103" stroke-linejoin="miter" marker-start="none" marker-end="none" stroke-miterlimit="79.8403193612775"/>
     <path d="M 0.505,92.124 L 0.505,100.655 L 49.668,100.655 L 49.668,92.124 L 0.505,92.124 Z" stroke-width="0.103" stroke-linejoin="miter" marker-start="none" marker-end="none" stroke-miterlimit="79.8403193612775"/>
     <path d="M 83.401,79.244 C 75.594,87.796 64.889,92.136 54.156,92.142 L 54.156,100.626 C 67.198,100.623 80.188,95.35 89.667,84.961 C 98.078,75.746 102.226,64.13 102.224,52.558 L 93.742,52.558 C 93.742,62.09 90.328,71.655 83.401,79.244 Z" stroke-width="0.368" stroke-linejoin="round" marker-start="none" marker-end="none" stroke-miterlimit="79.8403193612775"/>
    </g>
    <g id="Group_4" stroke-linecap="round" stroke="none" fill="#11a7e0">
     <path d="M 0.505,80.828 L 0.505,89.362 L 49.668,89.362 L 49.668,80.828 L 0.505,80.828 Z" stroke-width="0.103" stroke-linejoin="miter" marker-start="none" marker-end="none" stroke-miterlimit="79.8403193612775"/>
     <path d="M 75.046,71.623 C 69.468,77.73 61.83,80.83 54.156,80.833 L 54.156,89.32 C 64.126,89.311 74.065,85.278 81.308,77.34 C 87.747,70.291 90.918,61.414 90.914,52.558 L 82.426,52.558 C 82.433,59.365 79.991,66.197 75.046,71.623 Z" stroke-width="0.281" stroke-linejoin="round" marker-start="none" marker-end="none" stroke-miterlimit="79.8403193612775"/>
     <path d="M 86.699,14.605 L 84.567,17.65 L 82.426,20.703 L 82.426,20.703 L 82.426,47.98 L 90.965,47.98 L 90.965,20.703 L 90.965,20.703 L 88.835,17.647 L 86.699,14.605 Z" stroke-width="0.103" stroke-linejoin="miter" marker-start="none" marker-end="none" stroke-miterlimit="79.8403193612775"/>
    </g>
    <g id="Group_5" stroke-linejoin="miter" stroke-miterlimit="79.8403193612775">
     <path d="M 21.355,24.9 C 12.458,35.44 13.783,51.226 24.335,60.11 C 34.866,69.024 50.631,67.692 59.532,57.154 C 68.446,46.614 67.11,30.84 56.556,21.937 C 46.025,13.041 30.253,14.372 21.355,24.9 Z" stroke="none" fill="#000000" stroke-width="1.039" marker-start="none" marker-end="none" stroke-miterlimit="19.9600798403194"/>
     <path d="M 22.532,25.857 C 13.645,36.402 14.961,52.155 25.505,61.072 C 36.048,69.945 51.815,68.63 60.732,58.092 C 69.626,47.555 68.293,31.772 57.746,22.875 C 47.218,13.979 31.437,15.303 22.532,25.857 Z" stroke="#b2b2b2" stroke-width="5.658" marker-start="none" marker-end="none" stroke-miterlimit="19.9600798403194"/>
    </g>
    <g id="Group_6" stroke-linejoin="miter" stroke-miterlimit="79.8403193612775">
     <path d="M 168.726,100.697 C 162.826,107.675 163.705,118.135 170.7,124.044 C 177.682,129.936 188.135,129.057 194.039,122.07 C 199.948,115.078 199.062,104.624 192.065,98.719 C 185.083,92.824 174.626,93.703 168.726,100.697 Z" stroke="none" fill="#000000" stroke-width="0.686" marker-start="none" marker-end="none" stroke-miterlimit="19.9600798403194"/>
     <path d="M 169.504,101.306 C 163.613,108.304 164.485,118.763 171.478,124.656 C 178.467,130.565 188.919,129.682 194.835,122.689 C 200.732,115.707 199.847,105.255 192.853,99.35 C 185.874,93.444 175.41,94.323 169.504,101.306 Z" stroke="#b2b2b2" stroke-width="3.752" marker-start="none" marker-end="none" stroke-miterlimit="19.9600798403194"/>
    </g>
    <g id="Group_7" stroke-linejoin="miter" stroke-miterlimit="79.8403193612775">
     <path d="M 19.229,93.504 C 14.704,98.86 15.38,106.876 20.738,111.4 C 26.094,115.923 34.115,115.251 38.634,109.893 C 43.159,104.537 42.484,96.518 37.125,91.998 C 31.771,87.47 23.751,88.153 19.229,93.504 Z" stroke="none" fill="#ffffff" stroke-width="0.526" marker-start="none" marker-end="none" stroke-miterlimit="19.9600798403194"/>
     <path d="M 19.832,93.986 C 15.308,99.335 15.984,107.357 21.34,111.878 C 26.699,116.406 34.715,115.728 39.239,110.369 C 43.767,105.018 43.09,96.995 37.73,92.471 C 32.37,87.95 24.355,88.624 19.832,93.986 Z" fill="none" stroke="#55bae6" stroke-width="2.872" marker-start="none" marker-end="none" stroke-miterlimit="19.9600798403194"/>
    </g>
    <g id="Group_8" stroke-linejoin="miter" stroke-miterlimit="79.8403193612775">
     <path d="M 76.537,81.555 C 72.016,86.906 72.691,94.925 78.048,99.453 C 83.405,103.969 91.424,103.296 95.948,97.938 C 100.471,92.584 99.791,84.567 94.437,80.044 C 89.081,75.52 81.062,76.196 76.537,81.555 Z" stroke="none" fill="#ffffff" stroke-width="0.526" marker-start="none" marker-end="none" stroke-miterlimit="19.9600798403194"/>
     <path d="M 77.146,82.033 C 72.618,87.387 73.292,95.403 78.652,99.927 C 84.01,104.452 92.025,103.778 96.55,98.416 C 101.078,93.06 100.393,85.043 95.042,80.517 C 89.682,75.992 81.667,76.673 77.146,82.033 Z" fill="none" stroke="#55bae6" stroke-width="2.872" marker-start="none" marker-end="none" stroke-miterlimit="19.9600798403194"/>
    </g>
    <g id="Group_9" stroke-linejoin="miter" stroke-miterlimit="79.8403193612775">
     <path d="M 93.325,23.925 C 88.801,29.281 89.48,37.298 94.835,41.826 C 100.196,46.347 108.215,45.669 112.738,40.311 C 117.266,34.959 116.584,26.936 111.227,22.417 C 105.867,17.898 97.851,18.572 93.325,23.925 Z" stroke="none" fill="#ffffff" stroke-width="0.526" marker-start="none" marker-end="none" stroke-miterlimit="19.9600798403194"/>
     <path d="M 93.932,24.409 C 89.408,29.76 90.085,37.779 95.443,42.304 C 100.803,46.825 108.818,46.151 113.341,40.791 C 117.867,35.438 117.19,27.418 111.834,22.897 C 106.472,18.372 98.455,19.048 93.932,24.409 Z" fill="none" stroke="#55bae6" stroke-width="2.872" marker-start="none" marker-end="none" stroke-miterlimit="19.9600798403194"/>
    </g>
    <g id="Group_10" stroke-linejoin="miter" stroke-miterlimit="79.8403193612775">
     <path d="M 128.041,100.684 C 122.141,107.673 123.02,118.141 130.017,124.032 C 137,129.943 147.454,129.06 153.356,122.072 C 159.267,115.083 158.381,104.623 151.383,98.719 C 144.4,92.82 133.941,93.703 128.041,100.684 Z" stroke="none" fill="#ffffff" stroke-width="0.689" marker-start="none" marker-end="none" stroke-miterlimit="19.9600798403194"/>
     <path d="M 128.821,101.319 C 122.928,108.311 123.801,118.757 130.793,124.67 C 137.784,130.554 148.239,129.682 154.152,122.694 C 160.05,115.707 159.166,105.241 152.172,99.341 C 145.191,93.442 134.726,94.32 128.821,101.319 Z" stroke="#55bae6" stroke-width="3.752" marker-start="none" marker-end="none" stroke-miterlimit="19.9600798403194"/>
    </g>
    <g id="Group_11" stroke-linejoin="miter" stroke-miterlimit="79.8403193612775">
     <path d="M 152.066,24.889 C 143.169,35.429 144.494,51.215 155.046,60.099 C 165.577,69.013 181.342,67.681 190.243,57.143 C 199.157,46.603 197.821,30.829 187.267,21.926 C 176.736,13.03 160.964,14.361 152.066,24.889 Z" stroke="none" fill="#ffffff" stroke-width="1.039" marker-start="none" marker-end="none" stroke-miterlimit="19.9600798403194"/>
     <path d="M 153.243,25.846 C 144.356,36.391 145.672,52.144 156.216,61.061 C 166.759,69.934 182.526,68.619 191.443,58.081 C 200.337,47.544 199.004,31.761 188.457,22.864 C 177.929,13.968 162.148,15.292 153.243,25.846 Z" stroke="#55bae6" stroke-width="5.658" marker-start="none" marker-end="none" stroke-miterlimit="19.9600798403194"/>
    </g>
    <text xml:space="preserve" transform="translate(175.482 104.902) scale(1 -1)" font-family="Lato Black" stroke="none" fill="#b2b2b2" stroke-width="0.485" stroke-linejoin="round" stroke-linecap="round" font-weight="bold" font-size="19.491" stroke-miterlimit="79.8403193612775"><tspan x="0" y="0">2</tspan></text>
    <text xml:space="preserve" transform="translate(20.454 96.444) scale(1 -1)" font-family="Lato Black" stroke="none" fill="#000000" stroke-width="0.387" stroke-linejoin="round" stroke-linecap="round" font-weight="bold" font-size="15.564" stroke-miterlimit="79.8403193612775"><tspan x="0" y="0">+1</tspan></text>
    <text xml:space="preserve" transform="translate(135.727 104.902) scale(1 -1)" font-family="Lato Black" stroke="none" fill="#000000" stroke-width="0.485" stroke-linejoin="round" stroke-linecap="round" font-weight="bold" font-size="19.491" stroke-miterlimit="79.8403193612775"><tspan x="0" y="0">4</tspan></text>
    <text xml:space="preserve" transform="translate(77.191 85.299) scale(1 -1)" font-family="Lato Black" stroke="none" fill="#000000" stroke-width="0.387" stroke-linejoin="round" stroke-linecap="round" font-weight="bold" font-size="15.564" stroke-miterlimit="79.8403193612775"><tspan x="0" y="0">+1</tspan></text>
    <text xml:space="preserve" transform="translate(93.455 26.93) scale(1 -1)" font-family="Lato Black" stroke="none" fill="#000000" stroke-width="0.387" stroke-linejoin="round" stroke-linecap="round" font-weight="bold" font-size="15.564" stroke-miterlimit="79.8403193612775"><tspan x="0" y="0">+1</tspan></text>
    <text xml:space="preserve" transform="translate(27.315 148.661) scale(1 -1)" font-family="Lato Black" stroke="none" fill="#ffffff" stroke-width="0.319" stroke-linejoin="round" stroke-linecap="round" font-weight="bold" font-size="12.785" stroke-miterlimit="79.8403193612775"><tspan x="0" y="0">CONSUMER</tspan></text>
    <text xml:space="preserve" transform="translate(61.898 177.248) scale(1 -1)" font-family="Lato Black" stroke="none" fill="#000000" stroke-width="0.365" stroke-linejoin="round" stroke-linecap="round" font-weight="bold" font-size="14.654" stroke-miterlimit="79.8403193612775"><tspan x="0" y="0">AIRLINE, INC.</tspan></text>
   </g>
  </g>
 </g>
</svg>
