<?xml version="1.0" standalone="no"?>
<!DOCTYPE svg PUBLIC "-//W3C//DTD SVG 1.1//EN" "http://www.w3.org/Graphics/SVG/1.1/DTD/svg11.dtd">
<!--Generator: Xara Designer (www.xara.com), SVG filter version: 6.6.0.0-->
<svg fill="none" fill-rule="evenodd" stroke="black" stroke-width="0.501" stroke-linejoin="bevel" stroke-miterlimit="10" font-family="Times New Roman" font-size="16" style="font-variant-ligatures:none" xmlns:xlink="http://www.w3.org/1999/xlink" xmlns="http://www.w3.org/2000/svg" version="1.1" overflow="visible" width="3554.66pt" height="2154.34pt" viewBox="-0.004 -2154.34 3554.66 2154.34">
 <defs>
	</defs>
 <g id="Layer 1" transform="scale(1 -1)">
  <g id="Group">
   <g id="Group_1" stroke="#ff7ffe" stroke-linejoin="miter" fill="#ffffff">
    <rect x="0.247" y="2046.871" width="107.217" height="107.218" rx="0" ry="0"/>
    <rect x="107.964" y="2046.871" width="107.217" height="107.218" rx="0" ry="0"/>
    <rect x="215.681" y="2046.871" width="107.217" height="107.218" rx="0" ry="0"/>
    <rect x="323.398" y="2046.871" width="107.217" height="107.218" rx="0" ry="0"/>
    <rect x="431.115" y="2046.871" width="107.217" height="107.218" rx="0" ry="0"/>
    <rect x="538.832" y="2046.871" width="107.217" height="107.218" rx="0" ry="0"/>
    <rect x="646.549" y="2046.871" width="107.217" height="107.218" rx="0" ry="0"/>
    <rect x="754.266" y="2046.871" width="107.217" height="107.218" rx="0" ry="0"/>
    <rect x="861.983" y="2046.871" width="107.217" height="107.218" rx="0" ry="0"/>
    <rect x="969.7" y="2046.871" width="107.217" height="107.218" rx="0" ry="0"/>
    <rect x="1077.417" y="2046.871" width="107.217" height="107.218" rx="0" ry="0"/>
    <rect x="1185.134" y="2046.871" width="107.217" height="107.218" rx="0" ry="0"/>
    <rect x="1292.851" y="2046.871" width="107.217" height="107.218" rx="0" ry="0"/>
    <rect x="1400.568" y="2046.871" width="107.217" height="107.218" rx="0" ry="0"/>
    <rect x="1508.285" y="2046.871" width="107.217" height="107.218" rx="0" ry="0"/>
    <rect x="1616.002" y="2046.871" width="107.217" height="107.218" rx="0" ry="0"/>
    <rect x="1723.719" y="2046.871" width="107.217" height="107.218" rx="0" ry="0"/>
    <rect x="1831.436" y="2046.871" width="107.217" height="107.218" rx="0" ry="0"/>
    <rect x="1939.153" y="2046.871" width="107.217" height="107.218" rx="0" ry="0"/>
    <rect x="2046.87" y="2046.871" width="107.217" height="107.218" rx="0" ry="0"/>
    <rect x="2154.587" y="2046.871" width="107.217" height="107.218" rx="0" ry="0"/>
    <rect x="2262.304" y="2046.871" width="107.217" height="107.218" rx="0" ry="0"/>
    <rect x="2370.021" y="2046.871" width="107.217" height="107.218" rx="0" ry="0"/>
    <rect x="2477.738" y="2046.871" width="107.217" height="107.218" rx="0" ry="0"/>
    <rect x="2585.455" y="2046.871" width="107.217" height="107.218" rx="0" ry="0"/>
    <rect x="2693.172" y="2046.871" width="107.217" height="107.218" rx="0" ry="0"/>
    <rect x="2800.889" y="2046.871" width="107.217" height="107.218" rx="0" ry="0"/>
    <rect x="2908.606" y="2046.871" width="107.217" height="107.218" rx="0" ry="0"/>
    <rect x="3016.323" y="2046.871" width="107.217" height="107.218" rx="0" ry="0"/>
    <rect x="3124.04" y="2046.871" width="107.217" height="107.218" rx="0" ry="0"/>
    <rect x="3231.757" y="2046.871" width="107.217" height="107.218" rx="0" ry="0"/>
    <rect x="3339.474" y="2046.871" width="107.217" height="107.218" rx="0" ry="0"/>
    <rect x="3447.191" y="2046.871" width="107.217" height="107.218" rx="0" ry="0"/>
   </g>
   <g id="Group_2" stroke-linejoin="miter" stroke="#7f7f7f" fill="#ffffff">
    <rect x="0.247" y="1723.72" width="107.217" height="107.218" rx="0" ry="0"/>
    <rect x="107.964" y="1723.72" width="107.217" height="107.218" rx="0" ry="0"/>
    <rect x="215.681" y="1723.72" width="107.217" height="107.218" rx="0" ry="0"/>
    <rect x="323.398" y="1723.72" width="107.217" height="107.218" rx="0" ry="0"/>
    <rect x="431.115" y="1723.72" width="107.217" height="107.218" rx="0" ry="0"/>
    <rect x="538.832" y="1723.72" width="107.217" height="107.218" rx="0" ry="0"/>
    <rect x="646.549" y="1723.72" width="107.217" height="107.218" rx="0" ry="0"/>
    <rect x="754.266" y="1723.72" width="107.217" height="107.218" rx="0" ry="0"/>
    <rect x="861.983" y="1723.72" width="107.217" height="107.218" rx="0" ry="0"/>
    <rect x="969.7" y="1723.72" width="107.217" height="107.218" rx="0" ry="0"/>
    <rect x="1077.417" y="1723.72" width="107.217" height="107.218" rx="0" ry="0"/>
    <rect x="1185.134" y="1723.72" width="107.217" height="107.218" rx="0" ry="0"/>
    <rect x="1292.851" y="1723.72" width="107.217" height="107.218" rx="0" ry="0"/>
    <rect x="1400.568" y="1723.72" width="107.217" height="107.218" rx="0" ry="0"/>
    <rect x="1508.285" y="1723.72" width="107.217" height="107.218" rx="0" ry="0"/>
    <rect x="1616.002" y="1723.72" width="107.217" height="107.218" rx="0" ry="0"/>
    <rect x="1723.719" y="1723.72" width="107.217" height="107.218" rx="0" ry="0"/>
    <rect x="1831.436" y="1723.72" width="107.217" height="107.218" rx="0" ry="0"/>
    <rect x="1939.153" y="1723.72" width="107.217" height="107.218" rx="0" ry="0"/>
    <rect x="2046.87" y="1723.72" width="107.217" height="107.218" rx="0" ry="0"/>
    <rect x="2154.587" y="1723.72" width="107.217" height="107.218" rx="0" ry="0"/>
    <rect x="2262.304" y="1723.72" width="107.217" height="107.218" rx="0" ry="0"/>
    <rect x="2370.021" y="1723.72" width="107.217" height="107.218" rx="0" ry="0"/>
    <rect x="2477.738" y="1723.72" width="107.217" height="107.218" rx="0" ry="0"/>
    <rect x="2585.455" y="1723.72" width="107.217" height="107.218" rx="0" ry="0"/>
    <rect x="2693.172" y="1723.72" width="107.217" height="107.218" rx="0" ry="0"/>
    <rect x="2800.889" y="1723.72" width="107.217" height="107.218" rx="0" ry="0"/>
    <rect x="2908.606" y="1723.72" width="107.217" height="107.218" rx="0" ry="0"/>
    <rect x="3016.323" y="1723.72" width="107.217" height="107.218" rx="0" ry="0"/>
    <rect x="3124.04" y="1723.72" width="107.217" height="107.218" rx="0" ry="0"/>
    <rect x="3231.757" y="1723.72" width="107.217" height="107.218" rx="0" ry="0"/>
    <rect x="3339.474" y="1723.72" width="107.217" height="107.218" rx="0" ry="0"/>
    <rect x="3447.191" y="1723.72" width="107.217" height="107.218" rx="0" ry="0"/>
   </g>
   <g id="Group_3" stroke="#ff00fc" stroke-linejoin="miter" fill="#ffffff">
    <rect x="0.247" y="1831.437" width="107.217" height="107.218" rx="0" ry="0"/>
    <rect x="107.964" y="1831.437" width="107.217" height="107.218" rx="0" ry="0"/>
    <rect x="215.681" y="1831.437" width="107.217" height="107.218" rx="0" ry="0"/>
    <rect x="323.398" y="1831.437" width="107.217" height="107.218" rx="0" ry="0"/>
    <rect x="431.115" y="1831.437" width="107.217" height="107.218" rx="0" ry="0"/>
    <rect x="538.832" y="1831.437" width="107.217" height="107.218" rx="0" ry="0"/>
    <rect x="646.549" y="1831.437" width="107.217" height="107.218" rx="0" ry="0"/>
    <rect x="754.266" y="1831.437" width="107.217" height="107.218" rx="0" ry="0"/>
    <rect x="861.983" y="1831.437" width="107.217" height="107.218" rx="0" ry="0"/>
    <rect x="969.7" y="1831.437" width="107.217" height="107.218" rx="0" ry="0"/>
    <rect x="1077.417" y="1831.437" width="107.217" height="107.218" rx="0" ry="0"/>
    <rect x="1185.134" y="1831.437" width="107.217" height="107.218" rx="0" ry="0"/>
    <rect x="1292.851" y="1831.437" width="107.217" height="107.218" rx="0" ry="0"/>
    <rect x="1400.568" y="1831.437" width="107.217" height="107.218" rx="0" ry="0"/>
    <rect x="1508.285" y="1831.437" width="107.217" height="107.218" rx="0" ry="0"/>
    <rect x="1616.002" y="1831.437" width="107.217" height="107.218" rx="0" ry="0"/>
    <rect x="1723.719" y="1831.437" width="107.217" height="107.218" rx="0" ry="0"/>
    <rect x="1831.436" y="1831.437" width="107.217" height="107.218" rx="0" ry="0"/>
    <rect x="1939.153" y="1831.437" width="107.217" height="107.218" rx="0" ry="0"/>
    <rect x="2046.87" y="1831.437" width="107.217" height="107.218" rx="0" ry="0"/>
    <rect x="2154.587" y="1831.437" width="107.217" height="107.218" rx="0" ry="0"/>
    <rect x="2262.304" y="1831.437" width="107.217" height="107.218" rx="0" ry="0"/>
    <rect x="2370.021" y="1831.437" width="107.217" height="107.218" rx="0" ry="0"/>
    <rect x="2477.738" y="1831.437" width="107.217" height="107.218" rx="0" ry="0"/>
    <rect x="2585.455" y="1831.437" width="107.217" height="107.218" rx="0" ry="0"/>
    <rect x="2693.172" y="1831.437" width="107.217" height="107.218" rx="0" ry="0"/>
    <rect x="2800.889" y="1831.437" width="107.217" height="107.218" rx="0" ry="0"/>
    <rect x="2908.606" y="1831.437" width="107.217" height="107.218" rx="0" ry="0"/>
    <rect x="3016.323" y="1831.437" width="107.217" height="107.218" rx="0" ry="0"/>
    <rect x="3124.04" y="1831.437" width="107.217" height="107.218" rx="0" ry="0"/>
    <rect x="3231.757" y="1831.437" width="107.217" height="107.218" rx="0" ry="0"/>
    <rect x="3339.474" y="1831.437" width="107.217" height="107.218" rx="0" ry="0"/>
    <rect x="3447.191" y="1831.437" width="107.217" height="107.218" rx="0" ry="0"/>
   </g>
   <g id="Group_4" stroke-linejoin="miter" stroke="#7f7f7f" fill="#ffffff">
    <rect x="0.247" y="1616.003" width="107.217" height="107.218" rx="0" ry="0"/>
    <rect x="107.964" y="1616.003" width="107.217" height="107.218" rx="0" ry="0"/>
    <rect x="215.681" y="1616.003" width="107.217" height="107.218" rx="0" ry="0"/>
    <rect x="323.398" y="1616.003" width="107.217" height="107.218" rx="0" ry="0"/>
    <rect x="431.115" y="1616.003" width="107.217" height="107.218" rx="0" ry="0"/>
    <rect x="538.832" y="1616.003" width="107.217" height="107.218" rx="0" ry="0"/>
    <rect x="646.549" y="1616.003" width="107.217" height="107.218" rx="0" ry="0"/>
    <rect x="754.266" y="1616.003" width="107.217" height="107.218" rx="0" ry="0"/>
    <rect x="861.983" y="1616.003" width="107.217" height="107.218" rx="0" ry="0"/>
    <rect x="969.7" y="1616.003" width="107.217" height="107.218" rx="0" ry="0"/>
    <rect x="1077.417" y="1616.003" width="107.217" height="107.218" rx="0" ry="0"/>
    <rect x="1185.134" y="1616.003" width="107.217" height="107.218" rx="0" ry="0"/>
    <rect x="1292.851" y="1616.003" width="107.217" height="107.218" rx="0" ry="0"/>
    <rect x="1400.568" y="1616.003" width="107.217" height="107.218" rx="0" ry="0"/>
    <rect x="1508.285" y="1616.003" width="107.217" height="107.218" rx="0" ry="0"/>
    <rect x="1616.002" y="1616.003" width="107.217" height="107.218" rx="0" ry="0"/>
    <rect x="1723.719" y="1616.003" width="107.217" height="107.218" rx="0" ry="0"/>
    <rect x="1831.436" y="1616.003" width="107.217" height="107.218" rx="0" ry="0"/>
    <rect x="1939.153" y="1616.003" width="107.217" height="107.218" rx="0" ry="0"/>
    <rect x="2046.87" y="1616.003" width="107.217" height="107.218" rx="0" ry="0"/>
    <rect x="2154.587" y="1616.003" width="107.217" height="107.218" rx="0" ry="0"/>
    <rect x="2262.304" y="1616.003" width="107.217" height="107.218" rx="0" ry="0"/>
    <rect x="2370.021" y="1616.003" width="107.217" height="107.218" rx="0" ry="0"/>
    <rect x="2477.738" y="1616.003" width="107.217" height="107.218" rx="0" ry="0"/>
    <rect x="2585.455" y="1616.003" width="107.217" height="107.218" rx="0" ry="0"/>
    <rect x="2693.172" y="1616.003" width="107.217" height="107.218" rx="0" ry="0"/>
    <rect x="2800.889" y="1616.003" width="107.217" height="107.218" rx="0" ry="0"/>
    <rect x="2908.606" y="1616.003" width="107.217" height="107.218" rx="0" ry="0"/>
    <rect x="3016.323" y="1616.003" width="107.217" height="107.218" rx="0" ry="0"/>
    <rect x="3124.04" y="1616.003" width="107.217" height="107.218" rx="0" ry="0"/>
    <rect x="3231.757" y="1616.003" width="107.217" height="107.218" rx="0" ry="0"/>
    <rect x="3339.474" y="1616.003" width="107.217" height="107.218" rx="0" ry="0"/>
    <rect x="3447.191" y="1616.003" width="107.217" height="107.218" rx="0" ry="0"/>
   </g>
   <g id="Group_5" stroke-linejoin="miter" stroke="#7f7f7f" fill="#ffffff">
    <rect x="0.247" y="1508.286" width="107.217" height="107.218" rx="0" ry="0"/>
    <rect x="107.964" y="1508.286" width="107.217" height="107.218" rx="0" ry="0"/>
    <rect x="215.681" y="1508.286" width="107.217" height="107.218" rx="0" ry="0"/>
    <rect x="323.398" y="1508.286" width="107.217" height="107.218" rx="0" ry="0"/>
    <rect x="431.115" y="1508.286" width="107.217" height="107.218" rx="0" ry="0"/>
    <rect x="538.832" y="1508.286" width="107.217" height="107.218" rx="0" ry="0"/>
    <rect x="646.549" y="1508.286" width="107.217" height="107.218" rx="0" ry="0"/>
    <rect x="754.266" y="1508.286" width="107.217" height="107.218" rx="0" ry="0"/>
    <rect x="861.983" y="1508.286" width="107.217" height="107.218" rx="0" ry="0"/>
    <rect x="969.7" y="1508.286" width="107.217" height="107.218" rx="0" ry="0"/>
    <rect x="1077.417" y="1508.286" width="107.217" height="107.218" rx="0" ry="0"/>
    <rect x="1185.134" y="1508.286" width="107.217" height="107.218" rx="0" ry="0"/>
    <rect x="1292.851" y="1508.286" width="107.217" height="107.218" rx="0" ry="0"/>
    <rect x="1400.568" y="1508.286" width="107.217" height="107.218" rx="0" ry="0"/>
    <rect x="1508.285" y="1508.286" width="107.217" height="107.218" rx="0" ry="0"/>
    <rect x="1616.002" y="1508.286" width="107.217" height="107.218" rx="0" ry="0"/>
    <rect x="1723.719" y="1508.286" width="107.217" height="107.218" rx="0" ry="0"/>
    <rect x="1831.436" y="1508.286" width="107.217" height="107.218" rx="0" ry="0"/>
    <rect x="1939.153" y="1508.286" width="107.217" height="107.218" rx="0" ry="0"/>
    <rect x="2046.87" y="1508.286" width="107.217" height="107.218" rx="0" ry="0"/>
    <rect x="2154.587" y="1508.286" width="107.217" height="107.218" rx="0" ry="0"/>
    <rect x="2262.304" y="1508.286" width="107.217" height="107.218" rx="0" ry="0"/>
    <rect x="2370.021" y="1508.286" width="107.217" height="107.218" rx="0" ry="0"/>
    <rect x="2477.738" y="1508.286" width="107.217" height="107.218" rx="0" ry="0"/>
    <rect x="2585.455" y="1508.286" width="107.217" height="107.218" rx="0" ry="0"/>
    <rect x="2693.172" y="1508.286" width="107.217" height="107.218" rx="0" ry="0"/>
    <rect x="2800.889" y="1508.286" width="107.217" height="107.218" rx="0" ry="0"/>
    <rect x="2908.606" y="1508.286" width="107.217" height="107.218" rx="0" ry="0"/>
    <rect x="3016.323" y="1508.286" width="107.217" height="107.218" rx="0" ry="0"/>
    <rect x="3124.04" y="1508.286" width="107.217" height="107.218" rx="0" ry="0"/>
    <rect x="3231.757" y="1508.286" width="107.217" height="107.218" rx="0" ry="0"/>
    <rect x="3339.474" y="1508.286" width="107.217" height="107.218" rx="0" ry="0"/>
    <rect x="3447.191" y="1508.286" width="107.217" height="107.218" rx="0" ry="0"/>
   </g>
   <g id="Group_6" stroke-linejoin="miter" stroke="#7f7f7f" fill="#ffffff">
    <rect x="0.247" y="1292.852" width="107.217" height="107.218" rx="0" ry="0"/>
    <rect x="107.964" y="1292.852" width="107.217" height="107.218" rx="0" ry="0"/>
    <rect x="215.681" y="1292.852" width="107.217" height="107.218" rx="0" ry="0"/>
    <rect x="323.398" y="1292.852" width="107.217" height="107.218" rx="0" ry="0"/>
    <rect x="431.115" y="1292.852" width="107.217" height="107.218" rx="0" ry="0"/>
    <rect x="538.832" y="1292.852" width="107.217" height="107.218" rx="0" ry="0"/>
    <rect x="646.549" y="1292.852" width="107.217" height="107.218" rx="0" ry="0"/>
    <rect x="754.266" y="1292.852" width="107.217" height="107.218" rx="0" ry="0"/>
    <rect x="861.983" y="1292.852" width="107.217" height="107.218" rx="0" ry="0"/>
    <rect x="969.7" y="1292.852" width="107.217" height="107.218" rx="0" ry="0"/>
    <rect x="1077.417" y="1292.852" width="107.217" height="107.218" rx="0" ry="0"/>
    <rect x="1185.134" y="1292.852" width="107.217" height="107.218" rx="0" ry="0"/>
    <rect x="1292.851" y="1292.852" width="107.217" height="107.218" rx="0" ry="0"/>
    <rect x="1400.568" y="1292.852" width="107.217" height="107.218" rx="0" ry="0"/>
    <rect x="1508.285" y="1292.852" width="107.217" height="107.218" rx="0" ry="0"/>
    <rect x="1616.002" y="1292.852" width="107.217" height="107.218" rx="0" ry="0"/>
    <rect x="1723.719" y="1292.852" width="107.217" height="107.218" rx="0" ry="0"/>
    <rect x="1831.436" y="1292.852" width="107.217" height="107.218" rx="0" ry="0"/>
    <rect x="1939.153" y="1292.852" width="107.217" height="107.218" rx="0" ry="0"/>
    <rect x="2046.87" y="1292.852" width="107.217" height="107.218" rx="0" ry="0"/>
    <rect x="2154.587" y="1292.852" width="107.217" height="107.218" rx="0" ry="0"/>
    <rect x="2262.304" y="1292.852" width="107.217" height="107.218" rx="0" ry="0"/>
    <rect x="2370.021" y="1292.852" width="107.217" height="107.218" rx="0" ry="0"/>
    <rect x="2477.738" y="1292.852" width="107.217" height="107.218" rx="0" ry="0"/>
    <rect x="2585.455" y="1292.852" width="107.217" height="107.218" rx="0" ry="0"/>
    <rect x="2693.172" y="1292.852" width="107.217" height="107.218" rx="0" ry="0"/>
    <rect x="2800.889" y="1292.852" width="107.217" height="107.218" rx="0" ry="0"/>
    <rect x="2908.606" y="1292.852" width="107.217" height="107.218" rx="0" ry="0"/>
    <rect x="3016.323" y="1292.852" width="107.217" height="107.218" rx="0" ry="0"/>
    <rect x="3124.04" y="1292.852" width="107.217" height="107.218" rx="0" ry="0"/>
    <rect x="3231.757" y="1292.852" width="107.217" height="107.218" rx="0" ry="0"/>
    <rect x="3339.474" y="1292.852" width="107.217" height="107.218" rx="0" ry="0"/>
    <rect x="3447.191" y="1292.852" width="107.217" height="107.218" rx="0" ry="0"/>
   </g>
   <g id="Group_7" stroke-linejoin="miter" stroke="#7f7f7f" fill="#ffffff">
    <rect x="0.247" y="1077.418" width="107.217" height="107.218" rx="0" ry="0"/>
    <rect x="107.964" y="1077.418" width="107.217" height="107.218" rx="0" ry="0"/>
    <rect x="215.681" y="1077.418" width="107.217" height="107.218" rx="0" ry="0"/>
    <rect x="323.398" y="1077.418" width="107.217" height="107.218" rx="0" ry="0"/>
    <rect x="431.115" y="1077.418" width="107.217" height="107.218" rx="0" ry="0"/>
    <rect x="538.832" y="1077.418" width="107.217" height="107.218" rx="0" ry="0"/>
    <rect x="646.549" y="1077.418" width="107.217" height="107.218" rx="0" ry="0"/>
    <rect x="754.266" y="1077.418" width="107.217" height="107.218" rx="0" ry="0"/>
    <rect x="861.983" y="1077.418" width="107.217" height="107.218" rx="0" ry="0"/>
    <rect x="969.7" y="1077.418" width="107.217" height="107.218" rx="0" ry="0"/>
    <rect x="1077.417" y="1077.418" width="107.217" height="107.218" rx="0" ry="0"/>
    <rect x="1185.134" y="1077.418" width="107.217" height="107.218" rx="0" ry="0"/>
    <rect x="1292.851" y="1077.418" width="107.217" height="107.218" rx="0" ry="0"/>
    <rect x="1400.568" y="1077.418" width="107.217" height="107.218" rx="0" ry="0"/>
    <rect x="1508.285" y="1077.418" width="107.217" height="107.218" rx="0" ry="0"/>
    <rect x="1616.002" y="1077.418" width="107.217" height="107.218" rx="0" ry="0"/>
    <rect x="1723.719" y="1077.418" width="107.217" height="107.218" rx="0" ry="0"/>
    <rect x="1831.436" y="1077.418" width="107.217" height="107.218" rx="0" ry="0"/>
    <rect x="1939.153" y="1077.418" width="107.217" height="107.218" rx="0" ry="0"/>
    <rect x="2046.87" y="1077.418" width="107.217" height="107.218" rx="0" ry="0"/>
    <rect x="2154.587" y="1077.418" width="107.217" height="107.218" rx="0" ry="0"/>
    <rect x="2262.304" y="1077.418" width="107.217" height="107.218" rx="0" ry="0"/>
    <rect x="2370.021" y="1077.418" width="107.217" height="107.218" rx="0" ry="0"/>
    <rect x="2477.738" y="1077.418" width="107.217" height="107.218" rx="0" ry="0"/>
    <rect x="2585.455" y="1077.418" width="107.217" height="107.218" rx="0" ry="0"/>
    <rect x="2693.172" y="1077.418" width="107.217" height="107.218" rx="0" ry="0"/>
    <rect x="2800.889" y="1077.418" width="107.217" height="107.218" rx="0" ry="0"/>
    <rect x="2908.606" y="1077.418" width="107.217" height="107.218" rx="0" ry="0"/>
    <rect x="3016.323" y="1077.418" width="107.217" height="107.218" rx="0" ry="0"/>
    <rect x="3124.04" y="1077.418" width="107.217" height="107.218" rx="0" ry="0"/>
    <rect x="3231.757" y="1077.418" width="107.217" height="107.218" rx="0" ry="0"/>
    <rect x="3339.474" y="1077.418" width="107.217" height="107.218" rx="0" ry="0"/>
    <rect x="3447.191" y="1077.418" width="107.217" height="107.218" rx="0" ry="0"/>
   </g>
   <g id="Group_8" stroke-linejoin="miter" stroke="#7f7f7f" fill="#ffffff">
    <rect x="0.247" y="861.984" width="107.217" height="107.218" rx="0" ry="0"/>
    <rect x="107.964" y="861.984" width="107.217" height="107.218" rx="0" ry="0"/>
    <rect x="215.681" y="861.984" width="107.217" height="107.218" rx="0" ry="0"/>
    <rect x="323.398" y="861.984" width="107.217" height="107.218" rx="0" ry="0"/>
    <rect x="431.115" y="861.984" width="107.217" height="107.218" rx="0" ry="0"/>
    <rect x="538.832" y="861.984" width="107.217" height="107.218" rx="0" ry="0"/>
    <rect x="646.549" y="861.984" width="107.217" height="107.218" rx="0" ry="0"/>
    <rect x="754.266" y="861.984" width="107.217" height="107.218" rx="0" ry="0"/>
    <rect x="861.983" y="861.984" width="107.217" height="107.218" rx="0" ry="0"/>
    <rect x="969.7" y="861.984" width="107.217" height="107.218" rx="0" ry="0"/>
    <rect x="1077.417" y="861.984" width="107.217" height="107.218" rx="0" ry="0"/>
    <rect x="1185.134" y="861.984" width="107.217" height="107.218" rx="0" ry="0"/>
    <rect x="1292.851" y="861.984" width="107.217" height="107.218" rx="0" ry="0"/>
    <rect x="1400.568" y="861.984" width="107.217" height="107.218" rx="0" ry="0"/>
    <rect x="1508.285" y="861.984" width="107.217" height="107.218" rx="0" ry="0"/>
    <rect x="1616.002" y="861.984" width="107.217" height="107.218" rx="0" ry="0"/>
    <rect x="1723.719" y="861.984" width="107.217" height="107.218" rx="0" ry="0"/>
    <rect x="1831.436" y="861.984" width="107.217" height="107.218" rx="0" ry="0"/>
    <rect x="1939.153" y="861.984" width="107.217" height="107.218" rx="0" ry="0"/>
    <rect x="2046.87" y="861.984" width="107.217" height="107.218" rx="0" ry="0"/>
    <rect x="2154.587" y="861.984" width="107.217" height="107.218" rx="0" ry="0"/>
    <rect x="2262.304" y="861.984" width="107.217" height="107.218" rx="0" ry="0"/>
    <rect x="2370.021" y="861.984" width="107.217" height="107.218" rx="0" ry="0"/>
    <rect x="2477.738" y="861.984" width="107.217" height="107.218" rx="0" ry="0"/>
    <rect x="2585.455" y="861.984" width="107.217" height="107.218" rx="0" ry="0"/>
    <rect x="2693.172" y="861.984" width="107.217" height="107.218" rx="0" ry="0"/>
    <rect x="2800.889" y="861.984" width="107.217" height="107.218" rx="0" ry="0"/>
    <rect x="2908.606" y="861.984" width="107.217" height="107.218" rx="0" ry="0"/>
    <rect x="3016.323" y="861.984" width="107.217" height="107.218" rx="0" ry="0"/>
    <rect x="3124.04" y="861.984" width="107.217" height="107.218" rx="0" ry="0"/>
    <rect x="3231.757" y="861.984" width="107.217" height="107.218" rx="0" ry="0"/>
    <rect x="3339.474" y="861.984" width="107.217" height="107.218" rx="0" ry="0"/>
    <rect x="3447.191" y="861.984" width="107.217" height="107.218" rx="0" ry="0"/>
   </g>
   <g id="Group_9" stroke-linejoin="miter" stroke="#7f7f7f" fill="#ffffff">
    <rect x="0.247" y="646.55" width="107.217" height="107.218" rx="0" ry="0"/>
    <rect x="107.964" y="646.55" width="107.217" height="107.218" rx="0" ry="0"/>
    <rect x="215.681" y="646.55" width="107.217" height="107.218" rx="0" ry="0"/>
    <rect x="323.398" y="646.55" width="107.217" height="107.218" rx="0" ry="0"/>
    <rect x="431.115" y="646.55" width="107.217" height="107.218" rx="0" ry="0"/>
    <rect x="538.832" y="646.55" width="107.217" height="107.218" rx="0" ry="0"/>
    <rect x="646.549" y="646.55" width="107.217" height="107.218" rx="0" ry="0"/>
    <rect x="754.266" y="646.55" width="107.217" height="107.218" rx="0" ry="0"/>
    <rect x="861.983" y="646.55" width="107.217" height="107.218" rx="0" ry="0"/>
    <rect x="969.7" y="646.55" width="107.217" height="107.218" rx="0" ry="0"/>
    <rect x="1077.417" y="646.55" width="107.217" height="107.218" rx="0" ry="0"/>
    <rect x="1185.134" y="646.55" width="107.217" height="107.218" rx="0" ry="0"/>
    <rect x="1292.851" y="646.55" width="107.217" height="107.218" rx="0" ry="0"/>
    <rect x="1400.568" y="646.55" width="107.217" height="107.218" rx="0" ry="0"/>
    <rect x="1508.285" y="646.55" width="107.217" height="107.218" rx="0" ry="0"/>
    <rect x="1616.002" y="646.55" width="107.217" height="107.218" rx="0" ry="0"/>
    <rect x="1723.719" y="646.55" width="107.217" height="107.218" rx="0" ry="0"/>
    <rect x="1831.436" y="646.55" width="107.217" height="107.218" rx="0" ry="0"/>
    <rect x="1939.153" y="646.55" width="107.217" height="107.218" rx="0" ry="0"/>
    <rect x="2046.87" y="646.55" width="107.217" height="107.218" rx="0" ry="0"/>
    <rect x="2154.587" y="646.55" width="107.217" height="107.218" rx="0" ry="0"/>
    <rect x="2262.304" y="646.55" width="107.217" height="107.218" rx="0" ry="0"/>
    <rect x="2370.021" y="646.55" width="107.217" height="107.218" rx="0" ry="0"/>
    <rect x="2477.738" y="646.55" width="107.217" height="107.218" rx="0" ry="0"/>
    <rect x="2585.455" y="646.55" width="107.217" height="107.218" rx="0" ry="0"/>
    <rect x="2693.172" y="646.55" width="107.217" height="107.218" rx="0" ry="0"/>
    <rect x="2800.889" y="646.55" width="107.217" height="107.218" rx="0" ry="0"/>
    <rect x="2908.606" y="646.55" width="107.217" height="107.218" rx="0" ry="0"/>
    <rect x="3016.323" y="646.55" width="107.217" height="107.218" rx="0" ry="0"/>
    <rect x="3124.04" y="646.55" width="107.217" height="107.218" rx="0" ry="0"/>
    <rect x="3231.757" y="646.55" width="107.217" height="107.218" rx="0" ry="0"/>
    <rect x="3339.474" y="646.55" width="107.217" height="107.218" rx="0" ry="0"/>
    <rect x="3447.191" y="646.55" width="107.217" height="107.218" rx="0" ry="0"/>
   </g>
   <g id="Group_10" stroke-linejoin="miter" stroke="#7f7f7f" fill="#ffffff">
    <rect x="0.247" y="538.833" width="107.217" height="107.218" rx="0" ry="0"/>
    <rect x="107.964" y="538.833" width="107.217" height="107.218" rx="0" ry="0"/>
    <rect x="215.681" y="538.833" width="107.217" height="107.218" rx="0" ry="0"/>
    <rect x="323.398" y="538.833" width="107.217" height="107.218" rx="0" ry="0"/>
    <rect x="431.115" y="538.833" width="107.217" height="107.218" rx="0" ry="0"/>
    <rect x="538.832" y="538.833" width="107.217" height="107.218" rx="0" ry="0"/>
    <rect x="646.549" y="538.833" width="107.217" height="107.218" rx="0" ry="0"/>
    <rect x="754.266" y="538.833" width="107.217" height="107.218" rx="0" ry="0"/>
    <rect x="861.983" y="538.833" width="107.217" height="107.218" rx="0" ry="0"/>
    <rect x="969.7" y="538.833" width="107.217" height="107.218" rx="0" ry="0"/>
    <rect x="1077.417" y="538.833" width="107.217" height="107.218" rx="0" ry="0"/>
    <rect x="1185.134" y="538.833" width="107.217" height="107.218" rx="0" ry="0"/>
    <rect x="1292.851" y="538.833" width="107.217" height="107.218" rx="0" ry="0"/>
    <rect x="1400.568" y="538.833" width="107.217" height="107.218" rx="0" ry="0"/>
    <rect x="1508.285" y="538.833" width="107.217" height="107.218" rx="0" ry="0"/>
    <rect x="1616.002" y="538.833" width="107.217" height="107.218" rx="0" ry="0"/>
    <rect x="1723.719" y="538.833" width="107.217" height="107.218" rx="0" ry="0"/>
    <rect x="1831.436" y="538.833" width="107.217" height="107.218" rx="0" ry="0"/>
    <rect x="1939.153" y="538.833" width="107.217" height="107.218" rx="0" ry="0"/>
    <rect x="2046.87" y="538.833" width="107.217" height="107.218" rx="0" ry="0"/>
    <rect x="2154.587" y="538.833" width="107.217" height="107.218" rx="0" ry="0"/>
    <rect x="2262.304" y="538.833" width="107.217" height="107.218" rx="0" ry="0"/>
    <rect x="2370.021" y="538.833" width="107.217" height="107.218" rx="0" ry="0"/>
    <rect x="2477.738" y="538.833" width="107.217" height="107.218" rx="0" ry="0"/>
    <rect x="2585.455" y="538.833" width="107.217" height="107.218" rx="0" ry="0"/>
    <rect x="2693.172" y="538.833" width="107.217" height="107.218" rx="0" ry="0"/>
    <rect x="2800.889" y="538.833" width="107.217" height="107.218" rx="0" ry="0"/>
    <rect x="2908.606" y="538.833" width="107.217" height="107.218" rx="0" ry="0"/>
    <rect x="3016.323" y="538.833" width="107.217" height="107.218" rx="0" ry="0"/>
    <rect x="3124.04" y="538.833" width="107.217" height="107.218" rx="0" ry="0"/>
    <rect x="3231.757" y="538.833" width="107.217" height="107.218" rx="0" ry="0"/>
    <rect x="3339.474" y="538.833" width="107.217" height="107.218" rx="0" ry="0"/>
    <rect x="3447.191" y="538.833" width="107.217" height="107.218" rx="0" ry="0"/>
   </g>
   <g id="Group_11" stroke-linejoin="miter" stroke="#7f7f7f" fill="#ffffff">
    <rect x="0.247" y="431.116" width="107.217" height="107.218" rx="0" ry="0"/>
    <rect x="107.964" y="431.116" width="107.217" height="107.218" rx="0" ry="0"/>
    <rect x="215.681" y="431.116" width="107.217" height="107.218" rx="0" ry="0"/>
    <rect x="323.398" y="431.116" width="107.217" height="107.218" rx="0" ry="0"/>
    <rect x="431.115" y="431.116" width="107.217" height="107.218" rx="0" ry="0"/>
    <rect x="538.832" y="431.116" width="107.217" height="107.218" rx="0" ry="0"/>
    <rect x="646.549" y="431.116" width="107.217" height="107.218" rx="0" ry="0"/>
    <rect x="754.266" y="431.116" width="107.217" height="107.218" rx="0" ry="0"/>
    <rect x="861.983" y="431.116" width="107.217" height="107.218" rx="0" ry="0"/>
    <rect x="969.7" y="431.116" width="107.217" height="107.218" rx="0" ry="0"/>
    <rect x="1077.417" y="431.116" width="107.217" height="107.218" rx="0" ry="0"/>
    <rect x="1185.134" y="431.116" width="107.217" height="107.218" rx="0" ry="0"/>
    <rect x="1292.851" y="431.116" width="107.217" height="107.218" rx="0" ry="0"/>
    <rect x="1400.568" y="431.116" width="107.217" height="107.218" rx="0" ry="0"/>
    <rect x="1508.285" y="431.116" width="107.217" height="107.218" rx="0" ry="0"/>
    <rect x="1616.002" y="431.116" width="107.217" height="107.218" rx="0" ry="0"/>
    <rect x="1723.719" y="431.116" width="107.217" height="107.218" rx="0" ry="0"/>
    <rect x="1831.436" y="431.116" width="107.217" height="107.218" rx="0" ry="0"/>
    <rect x="1939.153" y="431.116" width="107.217" height="107.218" rx="0" ry="0"/>
    <rect x="2046.87" y="431.116" width="107.217" height="107.218" rx="0" ry="0"/>
    <rect x="2154.587" y="431.116" width="107.217" height="107.218" rx="0" ry="0"/>
    <rect x="2262.304" y="431.116" width="107.217" height="107.218" rx="0" ry="0"/>
    <rect x="2370.021" y="431.116" width="107.217" height="107.218" rx="0" ry="0"/>
    <rect x="2477.738" y="431.116" width="107.217" height="107.218" rx="0" ry="0"/>
    <rect x="2585.455" y="431.116" width="107.217" height="107.218" rx="0" ry="0"/>
    <rect x="2693.172" y="431.116" width="107.217" height="107.218" rx="0" ry="0"/>
    <rect x="2800.889" y="431.116" width="107.217" height="107.218" rx="0" ry="0"/>
    <rect x="2908.606" y="431.116" width="107.217" height="107.218" rx="0" ry="0"/>
    <rect x="3016.323" y="431.116" width="107.217" height="107.218" rx="0" ry="0"/>
    <rect x="3124.04" y="431.116" width="107.217" height="107.218" rx="0" ry="0"/>
    <rect x="3231.757" y="431.116" width="107.217" height="107.218" rx="0" ry="0"/>
    <rect x="3339.474" y="431.116" width="107.217" height="107.218" rx="0" ry="0"/>
    <rect x="3447.191" y="431.116" width="107.217" height="107.218" rx="0" ry="0"/>
   </g>
   <g id="Group_12" stroke-linejoin="miter" stroke="#7f7f7f" fill="#ffffff">
    <rect x="0.247" y="323.399" width="107.217" height="107.218" rx="0" ry="0"/>
    <rect x="107.964" y="323.399" width="107.217" height="107.218" rx="0" ry="0"/>
    <rect x="215.681" y="323.399" width="107.217" height="107.218" rx="0" ry="0"/>
    <rect x="323.398" y="323.399" width="107.217" height="107.218" rx="0" ry="0"/>
    <rect x="431.115" y="323.399" width="107.217" height="107.218" rx="0" ry="0"/>
    <rect x="538.832" y="323.399" width="107.217" height="107.218" rx="0" ry="0"/>
    <rect x="646.549" y="323.399" width="107.217" height="107.218" rx="0" ry="0"/>
    <rect x="754.266" y="323.399" width="107.217" height="107.218" rx="0" ry="0"/>
    <rect x="861.983" y="323.399" width="107.217" height="107.218" rx="0" ry="0"/>
    <rect x="969.7" y="323.399" width="107.217" height="107.218" rx="0" ry="0"/>
    <rect x="1077.417" y="323.399" width="107.217" height="107.218" rx="0" ry="0"/>
    <rect x="1185.134" y="323.399" width="107.217" height="107.218" rx="0" ry="0"/>
    <rect x="1292.851" y="323.399" width="107.217" height="107.218" rx="0" ry="0"/>
    <rect x="1400.568" y="323.399" width="107.217" height="107.218" rx="0" ry="0"/>
    <rect x="1508.285" y="323.399" width="107.217" height="107.218" rx="0" ry="0"/>
    <rect x="1616.002" y="323.399" width="107.217" height="107.218" rx="0" ry="0"/>
    <rect x="1723.719" y="323.399" width="107.217" height="107.218" rx="0" ry="0"/>
    <rect x="1831.436" y="323.399" width="107.217" height="107.218" rx="0" ry="0"/>
    <rect x="1939.153" y="323.399" width="107.217" height="107.218" rx="0" ry="0"/>
    <rect x="2046.87" y="323.399" width="107.217" height="107.218" rx="0" ry="0"/>
    <rect x="2154.587" y="323.399" width="107.217" height="107.218" rx="0" ry="0"/>
    <rect x="2262.304" y="323.399" width="107.217" height="107.218" rx="0" ry="0"/>
    <rect x="2370.021" y="323.399" width="107.217" height="107.218" rx="0" ry="0"/>
    <rect x="2477.738" y="323.399" width="107.217" height="107.218" rx="0" ry="0"/>
    <rect x="2585.455" y="323.399" width="107.217" height="107.218" rx="0" ry="0"/>
    <rect x="2693.172" y="323.399" width="107.217" height="107.218" rx="0" ry="0"/>
    <rect x="2800.889" y="323.399" width="107.217" height="107.218" rx="0" ry="0"/>
    <rect x="2908.606" y="323.399" width="107.217" height="107.218" rx="0" ry="0"/>
    <rect x="3016.323" y="323.399" width="107.217" height="107.218" rx="0" ry="0"/>
    <rect x="3124.04" y="323.399" width="107.217" height="107.218" rx="0" ry="0"/>
    <rect x="3231.757" y="323.399" width="107.217" height="107.218" rx="0" ry="0"/>
    <rect x="3339.474" y="323.399" width="107.217" height="107.218" rx="0" ry="0"/>
    <rect x="3447.191" y="323.399" width="107.217" height="107.218" rx="0" ry="0"/>
   </g>
   <g id="Group_13" stroke-linejoin="miter" stroke="#7f7f7f" fill="#ffffff">
    <rect x="0.247" y="215.682" width="107.217" height="107.218" rx="0" ry="0"/>
    <rect x="107.964" y="215.682" width="107.217" height="107.218" rx="0" ry="0"/>
    <rect x="215.681" y="215.682" width="107.217" height="107.218" rx="0" ry="0"/>
    <rect x="323.398" y="215.682" width="107.217" height="107.218" rx="0" ry="0"/>
    <rect x="431.115" y="215.682" width="107.217" height="107.218" rx="0" ry="0"/>
    <rect x="538.832" y="215.682" width="107.217" height="107.218" rx="0" ry="0"/>
    <rect x="646.549" y="215.682" width="107.217" height="107.218" rx="0" ry="0"/>
    <rect x="754.266" y="215.682" width="107.217" height="107.218" rx="0" ry="0"/>
    <rect x="861.983" y="215.682" width="107.217" height="107.218" rx="0" ry="0"/>
    <rect x="969.7" y="215.682" width="107.217" height="107.218" rx="0" ry="0"/>
    <rect x="1077.417" y="215.682" width="107.217" height="107.218" rx="0" ry="0"/>
    <rect x="1185.134" y="215.682" width="107.217" height="107.218" rx="0" ry="0"/>
    <rect x="1292.851" y="215.682" width="107.217" height="107.218" rx="0" ry="0"/>
    <rect x="1400.568" y="215.682" width="107.217" height="107.218" rx="0" ry="0"/>
    <rect x="1508.285" y="215.682" width="107.217" height="107.218" rx="0" ry="0"/>
    <rect x="1616.002" y="215.682" width="107.217" height="107.218" rx="0" ry="0"/>
    <rect x="1723.719" y="215.682" width="107.217" height="107.218" rx="0" ry="0"/>
    <rect x="1831.436" y="215.682" width="107.217" height="107.218" rx="0" ry="0"/>
    <rect x="1939.153" y="215.682" width="107.217" height="107.218" rx="0" ry="0"/>
    <rect x="2046.87" y="215.682" width="107.217" height="107.218" rx="0" ry="0"/>
    <rect x="2154.587" y="215.682" width="107.217" height="107.218" rx="0" ry="0"/>
    <rect x="2262.304" y="215.682" width="107.217" height="107.218" rx="0" ry="0"/>
    <rect x="2370.021" y="215.682" width="107.217" height="107.218" rx="0" ry="0"/>
    <rect x="2477.738" y="215.682" width="107.217" height="107.218" rx="0" ry="0"/>
    <rect x="2585.455" y="215.682" width="107.217" height="107.218" rx="0" ry="0"/>
    <rect x="2693.172" y="215.682" width="107.217" height="107.218" rx="0" ry="0"/>
    <rect x="2800.889" y="215.682" width="107.217" height="107.218" rx="0" ry="0"/>
    <rect x="2908.606" y="215.682" width="107.217" height="107.218" rx="0" ry="0"/>
    <rect x="3016.323" y="215.682" width="107.217" height="107.218" rx="0" ry="0"/>
    <rect x="3124.04" y="215.682" width="107.217" height="107.218" rx="0" ry="0"/>
    <rect x="3231.757" y="215.682" width="107.217" height="107.218" rx="0" ry="0"/>
    <rect x="3339.474" y="215.682" width="107.217" height="107.218" rx="0" ry="0"/>
    <rect x="3447.191" y="215.682" width="107.217" height="107.218" rx="0" ry="0"/>
   </g>
   <g id="Group_14" stroke-linejoin="miter" stroke="#7f7f7f" fill="#ffffff">
    <rect x="0.247" y="107.965" width="107.217" height="107.218" rx="0" ry="0"/>
    <rect x="107.964" y="107.965" width="107.217" height="107.218" rx="0" ry="0"/>
    <rect x="215.681" y="107.965" width="107.217" height="107.218" rx="0" ry="0"/>
    <rect x="323.398" y="107.965" width="107.217" height="107.218" rx="0" ry="0"/>
    <rect x="431.115" y="107.965" width="107.217" height="107.218" rx="0" ry="0"/>
    <rect x="538.832" y="107.965" width="107.217" height="107.218" rx="0" ry="0"/>
    <rect x="646.549" y="107.965" width="107.217" height="107.218" rx="0" ry="0"/>
    <rect x="754.266" y="107.965" width="107.217" height="107.218" rx="0" ry="0"/>
    <rect x="861.983" y="107.965" width="107.217" height="107.218" rx="0" ry="0"/>
    <rect x="969.7" y="107.965" width="107.217" height="107.218" rx="0" ry="0"/>
    <rect x="1077.417" y="107.965" width="107.217" height="107.218" rx="0" ry="0"/>
    <rect x="1185.134" y="107.965" width="107.217" height="107.218" rx="0" ry="0"/>
    <rect x="1292.851" y="107.965" width="107.217" height="107.218" rx="0" ry="0"/>
    <rect x="1400.568" y="107.965" width="107.217" height="107.218" rx="0" ry="0"/>
    <rect x="1508.285" y="107.965" width="107.217" height="107.218" rx="0" ry="0"/>
    <rect x="1616.002" y="107.965" width="107.217" height="107.218" rx="0" ry="0"/>
    <rect x="1723.719" y="107.965" width="107.217" height="107.218" rx="0" ry="0"/>
    <rect x="1831.436" y="107.965" width="107.217" height="107.218" rx="0" ry="0"/>
    <rect x="1939.153" y="107.965" width="107.217" height="107.218" rx="0" ry="0"/>
    <rect x="2046.87" y="107.965" width="107.217" height="107.218" rx="0" ry="0"/>
    <rect x="2154.587" y="107.965" width="107.217" height="107.218" rx="0" ry="0"/>
    <rect x="2262.304" y="107.965" width="107.217" height="107.218" rx="0" ry="0"/>
    <rect x="2370.021" y="107.965" width="107.217" height="107.218" rx="0" ry="0"/>
    <rect x="2477.738" y="107.965" width="107.217" height="107.218" rx="0" ry="0"/>
    <rect x="2585.455" y="107.965" width="107.217" height="107.218" rx="0" ry="0"/>
    <rect x="2693.172" y="107.965" width="107.217" height="107.218" rx="0" ry="0"/>
    <rect x="2800.889" y="107.965" width="107.217" height="107.218" rx="0" ry="0"/>
    <rect x="2908.606" y="107.965" width="107.217" height="107.218" rx="0" ry="0"/>
    <rect x="3016.323" y="107.965" width="107.217" height="107.218" rx="0" ry="0"/>
    <rect x="3124.04" y="107.965" width="107.217" height="107.218" rx="0" ry="0"/>
    <rect x="3231.757" y="107.965" width="107.217" height="107.218" rx="0" ry="0"/>
    <rect x="3339.474" y="107.965" width="107.217" height="107.218" rx="0" ry="0"/>
    <rect x="3447.191" y="107.965" width="107.217" height="107.218" rx="0" ry="0"/>
   </g>
   <g id="Group_15" stroke="#0002bf" stroke-linejoin="miter" fill="#ffffff">
    <rect x="0.247" y="1939.154" width="107.217" height="107.218" rx="0" ry="0"/>
    <rect x="107.964" y="1939.154" width="107.217" height="107.218" rx="0" ry="0"/>
    <rect x="215.681" y="1939.154" width="107.217" height="107.218" rx="0" ry="0"/>
    <rect x="323.398" y="1939.154" width="107.217" height="107.218" rx="0" ry="0"/>
    <rect x="431.115" y="1939.154" width="107.217" height="107.218" rx="0" ry="0"/>
    <rect x="538.832" y="1939.154" width="107.217" height="107.218" rx="0" ry="0"/>
    <rect x="646.549" y="1939.154" width="107.217" height="107.218" rx="0" ry="0"/>
    <rect x="754.266" y="1939.154" width="107.217" height="107.218" rx="0" ry="0"/>
    <rect x="861.983" y="1939.154" width="107.217" height="107.218" rx="0" ry="0"/>
    <rect x="969.7" y="1939.154" width="107.217" height="107.218" rx="0" ry="0"/>
    <rect x="1077.417" y="1939.154" width="107.217" height="107.218" rx="0" ry="0"/>
    <rect x="1185.134" y="1939.154" width="107.217" height="107.218" rx="0" ry="0"/>
    <rect x="1292.851" y="1939.154" width="107.217" height="107.218" rx="0" ry="0"/>
    <rect x="1400.568" y="1939.154" width="107.217" height="107.218" rx="0" ry="0"/>
    <rect x="1508.285" y="1939.154" width="107.217" height="107.218" rx="0" ry="0"/>
    <rect x="1616.002" y="1939.154" width="107.217" height="107.218" rx="0" ry="0"/>
    <rect x="1723.719" y="1939.154" width="107.217" height="107.218" rx="0" ry="0"/>
    <rect x="1831.436" y="1939.154" width="107.217" height="107.218" rx="0" ry="0"/>
    <rect x="1939.153" y="1939.154" width="107.217" height="107.218" rx="0" ry="0"/>
    <rect x="2046.87" y="1939.154" width="107.217" height="107.218" rx="0" ry="0"/>
    <rect x="2154.587" y="1939.154" width="107.217" height="107.218" rx="0" ry="0"/>
    <rect x="2262.304" y="1939.154" width="107.217" height="107.218" rx="0" ry="0"/>
    <rect x="2370.021" y="1939.154" width="107.217" height="107.218" rx="0" ry="0"/>
    <rect x="2477.738" y="1939.154" width="107.217" height="107.218" rx="0" ry="0"/>
    <rect x="2585.455" y="1939.154" width="107.217" height="107.218" rx="0" ry="0"/>
    <rect x="2693.172" y="1939.154" width="107.217" height="107.218" rx="0" ry="0"/>
    <rect x="2800.889" y="1939.154" width="107.217" height="107.218" rx="0" ry="0"/>
    <rect x="2908.606" y="1939.154" width="107.217" height="107.218" rx="0" ry="0"/>
    <rect x="3016.323" y="1939.154" width="107.217" height="107.218" rx="0" ry="0"/>
    <rect x="3124.04" y="1939.154" width="107.217" height="107.218" rx="0" ry="0"/>
    <rect x="3231.757" y="1939.154" width="107.217" height="107.218" rx="0" ry="0"/>
    <rect x="3339.474" y="1939.154" width="107.217" height="107.218" rx="0" ry="0"/>
    <rect x="3447.191" y="1939.154" width="107.217" height="107.218" rx="0" ry="0"/>
   </g>
   <g id="Group_16" stroke-linejoin="miter" stroke="#7f7f7f" fill="#ffffff">
    <rect x="0.247" y="0.248" width="107.217" height="107.218" rx="0" ry="0"/>
    <rect x="107.964" y="0.248" width="107.217" height="107.218" rx="0" ry="0"/>
    <rect x="215.681" y="0.248" width="107.217" height="107.218" rx="0" ry="0"/>
    <rect x="323.398" y="0.248" width="107.217" height="107.218" rx="0" ry="0"/>
    <rect x="431.115" y="0.248" width="107.217" height="107.218" rx="0" ry="0"/>
    <rect x="538.832" y="0.248" width="107.217" height="107.218" rx="0" ry="0"/>
    <rect x="646.549" y="0.248" width="107.217" height="107.218" rx="0" ry="0"/>
    <rect x="754.266" y="0.248" width="107.217" height="107.218" rx="0" ry="0"/>
    <rect x="861.983" y="0.248" width="107.217" height="107.218" rx="0" ry="0"/>
    <rect x="969.7" y="0.248" width="107.217" height="107.218" rx="0" ry="0"/>
    <rect x="1077.417" y="0.248" width="107.217" height="107.218" rx="0" ry="0"/>
    <rect x="1185.134" y="0.248" width="107.217" height="107.218" rx="0" ry="0"/>
    <rect x="1292.851" y="0.248" width="107.217" height="107.218" rx="0" ry="0"/>
    <rect x="1400.568" y="0.248" width="107.217" height="107.218" rx="0" ry="0"/>
    <rect x="1508.285" y="0.248" width="107.217" height="107.218" rx="0" ry="0"/>
    <rect x="1616.002" y="0.248" width="107.217" height="107.218" rx="0" ry="0"/>
    <rect x="1723.719" y="0.248" width="107.217" height="107.218" rx="0" ry="0"/>
    <rect x="1831.436" y="0.248" width="107.217" height="107.218" rx="0" ry="0"/>
    <rect x="1939.153" y="0.248" width="107.217" height="107.218" rx="0" ry="0"/>
    <rect x="2046.87" y="0.248" width="107.217" height="107.218" rx="0" ry="0"/>
    <rect x="2154.587" y="0.248" width="107.217" height="107.218" rx="0" ry="0"/>
    <rect x="2262.304" y="0.248" width="107.217" height="107.218" rx="0" ry="0"/>
    <rect x="2370.021" y="0.248" width="107.217" height="107.218" rx="0" ry="0"/>
    <rect x="2477.738" y="0.248" width="107.217" height="107.218" rx="0" ry="0"/>
    <rect x="2585.455" y="0.248" width="107.217" height="107.218" rx="0" ry="0"/>
    <rect x="2693.172" y="0.248" width="107.217" height="107.218" rx="0" ry="0"/>
    <rect x="2800.889" y="0.248" width="107.217" height="107.218" rx="0" ry="0"/>
    <rect x="2908.606" y="0.248" width="107.217" height="107.218" rx="0" ry="0"/>
    <rect x="3016.323" y="0.248" width="107.217" height="107.218" rx="0" ry="0"/>
    <rect x="3124.04" y="0.248" width="107.217" height="107.218" rx="0" ry="0"/>
    <rect x="3231.757" y="0.248" width="107.217" height="107.218" rx="0" ry="0"/>
    <rect x="3339.474" y="0.248" width="107.217" height="107.218" rx="0" ry="0"/>
    <rect x="3447.191" y="0.248" width="107.217" height="107.218" rx="0" ry="0"/>
   </g>
   <g id="Group_17" stroke-linejoin="miter" stroke="#7f7f7f" fill="#ffffff">
    <rect x="0.247" y="1400.569" width="107.217" height="107.218" rx="0" ry="0"/>
    <rect x="107.964" y="1400.569" width="107.217" height="107.218" rx="0" ry="0"/>
    <rect x="215.681" y="1400.569" width="107.217" height="107.218" rx="0" ry="0"/>
    <rect x="323.398" y="1400.569" width="107.217" height="107.218" rx="0" ry="0"/>
    <rect x="431.115" y="1400.569" width="107.217" height="107.218" rx="0" ry="0"/>
    <rect x="538.832" y="1400.569" width="107.217" height="107.218" rx="0" ry="0"/>
    <rect x="646.549" y="1400.569" width="107.217" height="107.218" rx="0" ry="0"/>
    <rect x="754.266" y="1400.569" width="107.217" height="107.218" rx="0" ry="0"/>
    <rect x="861.983" y="1400.569" width="107.217" height="107.218" rx="0" ry="0"/>
    <rect x="969.7" y="1400.569" width="107.217" height="107.218" rx="0" ry="0"/>
    <rect x="1077.417" y="1400.569" width="107.217" height="107.218" rx="0" ry="0"/>
    <rect x="1185.134" y="1400.569" width="107.217" height="107.218" rx="0" ry="0"/>
    <rect x="1292.851" y="1400.569" width="107.217" height="107.218" rx="0" ry="0"/>
    <rect x="1400.568" y="1400.569" width="107.217" height="107.218" rx="0" ry="0"/>
    <rect x="1508.285" y="1400.569" width="107.217" height="107.218" rx="0" ry="0"/>
    <rect x="1616.002" y="1400.569" width="107.217" height="107.218" rx="0" ry="0"/>
    <rect x="1723.719" y="1400.569" width="107.217" height="107.218" rx="0" ry="0"/>
    <rect x="1831.436" y="1400.569" width="107.217" height="107.218" rx="0" ry="0"/>
    <rect x="1939.153" y="1400.569" width="107.217" height="107.218" rx="0" ry="0"/>
    <rect x="2046.87" y="1400.569" width="107.217" height="107.218" rx="0" ry="0"/>
    <rect x="2154.587" y="1400.569" width="107.217" height="107.218" rx="0" ry="0"/>
    <rect x="2262.304" y="1400.569" width="107.217" height="107.218" rx="0" ry="0"/>
    <rect x="2370.021" y="1400.569" width="107.217" height="107.218" rx="0" ry="0"/>
    <rect x="2477.738" y="1400.569" width="107.217" height="107.218" rx="0" ry="0"/>
    <rect x="2585.455" y="1400.569" width="107.217" height="107.218" rx="0" ry="0"/>
    <rect x="2693.172" y="1400.569" width="107.217" height="107.218" rx="0" ry="0"/>
    <rect x="2800.889" y="1400.569" width="107.217" height="107.218" rx="0" ry="0"/>
    <rect x="2908.606" y="1400.569" width="107.217" height="107.218" rx="0" ry="0"/>
    <rect x="3016.323" y="1400.569" width="107.217" height="107.218" rx="0" ry="0"/>
    <rect x="3124.04" y="1400.569" width="107.217" height="107.218" rx="0" ry="0"/>
    <rect x="3231.757" y="1400.569" width="107.217" height="107.218" rx="0" ry="0"/>
    <rect x="3339.474" y="1400.569" width="107.217" height="107.218" rx="0" ry="0"/>
    <rect x="3447.191" y="1400.569" width="107.217" height="107.218" rx="0" ry="0"/>
   </g>
   <g id="Group_18" stroke-linejoin="miter" stroke="#7f7f7f" fill="#ffffff">
    <rect x="0.247" y="1185.135" width="107.217" height="107.218" rx="0" ry="0"/>
    <rect x="107.964" y="1185.135" width="107.217" height="107.218" rx="0" ry="0"/>
    <rect x="215.681" y="1185.135" width="107.217" height="107.218" rx="0" ry="0"/>
    <rect x="323.398" y="1185.135" width="107.217" height="107.218" rx="0" ry="0"/>
    <rect x="431.115" y="1185.135" width="107.217" height="107.218" rx="0" ry="0"/>
    <rect x="538.832" y="1185.135" width="107.217" height="107.218" rx="0" ry="0"/>
    <rect x="646.549" y="1185.135" width="107.217" height="107.218" rx="0" ry="0"/>
    <rect x="754.266" y="1185.135" width="107.217" height="107.218" rx="0" ry="0"/>
    <rect x="861.983" y="1185.135" width="107.217" height="107.218" rx="0" ry="0"/>
    <rect x="969.7" y="1185.135" width="107.217" height="107.218" rx="0" ry="0"/>
    <rect x="1077.417" y="1185.135" width="107.217" height="107.218" rx="0" ry="0"/>
    <rect x="1185.134" y="1185.135" width="107.217" height="107.218" rx="0" ry="0"/>
    <rect x="1292.851" y="1185.135" width="107.217" height="107.218" rx="0" ry="0"/>
    <rect x="1400.568" y="1185.135" width="107.217" height="107.218" rx="0" ry="0"/>
    <rect x="1508.285" y="1185.135" width="107.217" height="107.218" rx="0" ry="0"/>
    <rect x="1616.002" y="1185.135" width="107.217" height="107.218" rx="0" ry="0"/>
    <rect x="1723.719" y="1185.135" width="107.217" height="107.218" rx="0" ry="0"/>
    <rect x="1831.436" y="1185.135" width="107.217" height="107.218" rx="0" ry="0"/>
    <rect x="1939.153" y="1185.135" width="107.217" height="107.218" rx="0" ry="0"/>
    <rect x="2046.87" y="1185.135" width="107.217" height="107.218" rx="0" ry="0"/>
    <rect x="2154.587" y="1185.135" width="107.217" height="107.218" rx="0" ry="0"/>
    <rect x="2262.304" y="1185.135" width="107.217" height="107.218" rx="0" ry="0"/>
    <rect x="2370.021" y="1185.135" width="107.217" height="107.218" rx="0" ry="0"/>
    <rect x="2477.738" y="1185.135" width="107.217" height="107.218" rx="0" ry="0"/>
    <rect x="2585.455" y="1185.135" width="107.217" height="107.218" rx="0" ry="0"/>
    <rect x="2693.172" y="1185.135" width="107.217" height="107.218" rx="0" ry="0"/>
    <rect x="2800.889" y="1185.135" width="107.217" height="107.218" rx="0" ry="0"/>
    <rect x="2908.606" y="1185.135" width="107.217" height="107.218" rx="0" ry="0"/>
    <rect x="3016.323" y="1185.135" width="107.217" height="107.218" rx="0" ry="0"/>
    <rect x="3124.04" y="1185.135" width="107.217" height="107.218" rx="0" ry="0"/>
    <rect x="3231.757" y="1185.135" width="107.217" height="107.218" rx="0" ry="0"/>
    <rect x="3339.474" y="1185.135" width="107.217" height="107.218" rx="0" ry="0"/>
    <rect x="3447.191" y="1185.135" width="107.217" height="107.218" rx="0" ry="0"/>
   </g>
   <g id="Group_19" stroke-linejoin="miter" stroke="#7f7f7f" fill="#ffffff">
    <rect x="0.247" y="969.701" width="107.217" height="107.218" rx="0" ry="0"/>
    <rect x="107.964" y="969.701" width="107.217" height="107.218" rx="0" ry="0"/>
    <rect x="215.681" y="969.701" width="107.217" height="107.218" rx="0" ry="0"/>
    <rect x="323.398" y="969.701" width="107.217" height="107.218" rx="0" ry="0"/>
    <rect x="431.115" y="969.701" width="107.217" height="107.218" rx="0" ry="0"/>
    <rect x="538.832" y="969.701" width="107.217" height="107.218" rx="0" ry="0"/>
    <rect x="646.549" y="969.701" width="107.217" height="107.218" rx="0" ry="0"/>
    <rect x="754.266" y="969.701" width="107.217" height="107.218" rx="0" ry="0"/>
    <rect x="861.983" y="969.701" width="107.217" height="107.218" rx="0" ry="0"/>
    <rect x="969.7" y="969.701" width="107.217" height="107.218" rx="0" ry="0"/>
    <rect x="1077.417" y="969.701" width="107.217" height="107.218" rx="0" ry="0"/>
    <rect x="1185.134" y="969.701" width="107.217" height="107.218" rx="0" ry="0"/>
    <rect x="1292.851" y="969.701" width="107.217" height="107.218" rx="0" ry="0"/>
    <rect x="1400.568" y="969.701" width="107.217" height="107.218" rx="0" ry="0"/>
    <rect x="1508.285" y="969.701" width="107.217" height="107.218" rx="0" ry="0"/>
    <rect x="1616.002" y="969.701" width="107.217" height="107.218" rx="0" ry="0"/>
    <rect x="1723.719" y="969.701" width="107.217" height="107.218" rx="0" ry="0"/>
    <rect x="1831.436" y="969.701" width="107.217" height="107.218" rx="0" ry="0"/>
    <rect x="1939.153" y="969.701" width="107.217" height="107.218" rx="0" ry="0"/>
    <rect x="2046.87" y="969.701" width="107.217" height="107.218" rx="0" ry="0"/>
    <rect x="2154.587" y="969.701" width="107.217" height="107.218" rx="0" ry="0"/>
    <rect x="2262.304" y="969.701" width="107.217" height="107.218" rx="0" ry="0"/>
    <rect x="2370.021" y="969.701" width="107.217" height="107.218" rx="0" ry="0"/>
    <rect x="2477.738" y="969.701" width="107.217" height="107.218" rx="0" ry="0"/>
    <rect x="2585.455" y="969.701" width="107.217" height="107.218" rx="0" ry="0"/>
    <rect x="2693.172" y="969.701" width="107.217" height="107.218" rx="0" ry="0"/>
    <rect x="2800.889" y="969.701" width="107.217" height="107.218" rx="0" ry="0"/>
    <rect x="2908.606" y="969.701" width="107.217" height="107.218" rx="0" ry="0"/>
    <rect x="3016.323" y="969.701" width="107.217" height="107.218" rx="0" ry="0"/>
    <rect x="3124.04" y="969.701" width="107.217" height="107.218" rx="0" ry="0"/>
    <rect x="3231.757" y="969.701" width="107.217" height="107.218" rx="0" ry="0"/>
    <rect x="3339.474" y="969.701" width="107.217" height="107.218" rx="0" ry="0"/>
    <rect x="3447.191" y="969.701" width="107.217" height="107.218" rx="0" ry="0"/>
   </g>
   <g id="Group_20" stroke-linejoin="miter" stroke="#7f7f7f" fill="#ffffff">
    <rect x="0.247" y="754.267" width="107.217" height="107.218" rx="0" ry="0"/>
    <rect x="107.964" y="754.267" width="107.217" height="107.218" rx="0" ry="0"/>
    <rect x="215.681" y="754.267" width="107.217" height="107.218" rx="0" ry="0"/>
    <rect x="323.398" y="754.267" width="107.217" height="107.218" rx="0" ry="0"/>
    <rect x="431.115" y="754.267" width="107.217" height="107.218" rx="0" ry="0"/>
    <rect x="538.832" y="754.267" width="107.217" height="107.218" rx="0" ry="0"/>
    <rect x="646.549" y="754.267" width="107.217" height="107.218" rx="0" ry="0"/>
    <rect x="754.266" y="754.267" width="107.217" height="107.218" rx="0" ry="0"/>
    <rect x="861.983" y="754.267" width="107.217" height="107.218" rx="0" ry="0"/>
    <rect x="969.7" y="754.267" width="107.217" height="107.218" rx="0" ry="0"/>
    <rect x="1077.417" y="754.267" width="107.217" height="107.218" rx="0" ry="0"/>
    <rect x="1185.134" y="754.267" width="107.217" height="107.218" rx="0" ry="0"/>
    <rect x="1292.851" y="754.267" width="107.217" height="107.218" rx="0" ry="0"/>
    <rect x="1400.568" y="754.267" width="107.217" height="107.218" rx="0" ry="0"/>
    <rect x="1508.285" y="754.267" width="107.217" height="107.218" rx="0" ry="0"/>
    <rect x="1616.002" y="754.267" width="107.217" height="107.218" rx="0" ry="0"/>
    <rect x="1723.719" y="754.267" width="107.217" height="107.218" rx="0" ry="0"/>
    <rect x="1831.436" y="754.267" width="107.217" height="107.218" rx="0" ry="0"/>
    <rect x="1939.153" y="754.267" width="107.217" height="107.218" rx="0" ry="0"/>
    <rect x="2046.87" y="754.267" width="107.217" height="107.218" rx="0" ry="0"/>
    <rect x="2154.587" y="754.267" width="107.217" height="107.218" rx="0" ry="0"/>
    <rect x="2262.304" y="754.267" width="107.217" height="107.218" rx="0" ry="0"/>
    <rect x="2370.021" y="754.267" width="107.217" height="107.218" rx="0" ry="0"/>
    <rect x="2477.738" y="754.267" width="107.217" height="107.218" rx="0" ry="0"/>
    <rect x="2585.455" y="754.267" width="107.217" height="107.218" rx="0" ry="0"/>
    <rect x="2693.172" y="754.267" width="107.217" height="107.218" rx="0" ry="0"/>
    <rect x="2800.889" y="754.267" width="107.217" height="107.218" rx="0" ry="0"/>
    <rect x="2908.606" y="754.267" width="107.217" height="107.218" rx="0" ry="0"/>
    <rect x="3016.323" y="754.267" width="107.217" height="107.218" rx="0" ry="0"/>
    <rect x="3124.04" y="754.267" width="107.217" height="107.218" rx="0" ry="0"/>
    <rect x="3231.757" y="754.267" width="107.217" height="107.218" rx="0" ry="0"/>
    <rect x="3339.474" y="754.267" width="107.217" height="107.218" rx="0" ry="0"/>
    <rect x="3447.191" y="754.267" width="107.217" height="107.218" rx="0" ry="0"/>
   </g>
   <g id="Group_21" font-size="10" font-family="Open Sans">
    <rect x="107.968" y="1831.437" width="214.933" height="214.933" rx="15.1769164626576" ry="15.1769164626576" stroke="#ff0000" fill="#cccccc" stroke-linejoin="miter"/>
    <text xml:space="preserve" transform="translate(196.508 1937.1) scale(1 -1)" kerning="auto" stroke="none" stroke-width="0.25" stroke-linecap="round" stroke-linejoin="round" fill="#000000"><tspan x="0" y="0">76x76mm</tspan><tspan x="0" y="32.682">200x200</tspan></text>
   </g>
   <g id="Group_22" font-size="10" font-family="Open Sans">
    <path d="M 354.928,1831.44 L 354.928,1831.44 L 336.848,1831.44 C 329.425,1831.44 323.4,1838.24 323.4,1846.61 L 323.4,2031.19 C 323.4,2039.57 329.425,2046.37 336.848,2046.37 L 417.224,2046.37 C 424.647,2046.37 430.672,2039.57 430.672,2031.19 L 430.672,1846.61 C 430.672,1838.24 424.647,1831.44 417.224,1831.44 L 406.993,1831.44 L 406.993,1831.44 L 354.928,1831.44 Z" fill="#e5e5e5" stroke="#00ff03" stroke-linejoin="miter" marker-start="none" marker-end="none"/>
    <text xml:space="preserve" transform="translate(356.771 1937.1) scale(1 -1)" kerning="auto" stroke="none" stroke-width="0.25" stroke-linecap="round" stroke-linejoin="round" fill="#000000"><tspan x="0" y="0">76x38mm</tspan><tspan x="0" y="32.682">200x100</tspan></text>
   </g>
   <g id="Group_23" font-size="10" font-family="Open Sans">
    <path d="M 1723.74,1631.2 L 1723.74,2031.22 C 1723.74,2039.59 1730.54,2046.39 1738.92,2046.39 L 2138.93,2046.39 C 2147.31,2046.39 2154.11,2039.59 2154.11,2031.22 L 2154.11,1631.2 C 2154.11,1622.83 2147.31,1616.03 2138.93,1616.03 L 1738.92,1616.03 C 1730.54,1616.03 1723.74,1622.83 1723.74,1631.2 Z" stroke="#fffc00" fill="#cccccc" stroke-linejoin="miter" marker-start="none" marker-end="none"/>
    <text xml:space="preserve" transform="translate(1904.63 1863.74) scale(1 -1)" kerning="auto" fill="#000000" stroke-linejoin="round" stroke-linecap="round" stroke-width="0.25" stroke="none"><tspan x="0" y="0">152x152mm</tspan><tspan x="0" y="32.682">400x400</tspan></text>
   </g>
   <g id="Group_24" font-size="10" font-family="Open Sans">
    <path d="M 1292.83,1631.27 L 1292.83,2031.28 C 1292.83,2039.66 1299.63,2046.46 1308.01,2046.46 L 1708.02,2046.46 C 1716.4,2046.46 1723.19,2039.66 1723.19,2031.28 L 1723.19,1631.27 C 1723.19,1622.9 1716.4,1616.1 1708.02,1616.1 L 1308.01,1616.1 C 1299.63,1616.1 1292.83,1622.9 1292.83,1631.27 Z" stroke="#fffc00" fill="#cccccc" stroke-linejoin="miter" marker-start="none" marker-end="none"/>
    <text xml:space="preserve" transform="translate(1473.71 1863.81) scale(1 -1)" kerning="auto" fill="#000000" stroke-linejoin="round" stroke-linecap="round" stroke-width="0.25" stroke="none"><tspan x="0" y="0">152x152mm</tspan><tspan x="0" y="32.682">400x400</tspan></text>
   </g>
   <g id="Group_25" font-size="10" font-family="Open Sans">
    <rect x="108.089" y="1616.178" width="214.933" height="214.933" rx="15.1769164626576" ry="15.1769164626576" stroke="#ff0000" fill="#cccccc" stroke-linejoin="miter"/>
    <text xml:space="preserve" transform="translate(196.629 1721.84) scale(1 -1)" kerning="auto" stroke="none" stroke-width="0.25" stroke-linecap="round" stroke-linejoin="round" fill="#000000"><tspan x="0" y="0">76x76mm</tspan><tspan x="0" y="32.682">200x200</tspan></text>
   </g>
   <g id="Group_26" font-size="10" font-family="Open Sans">
    <rect x="323.846" y="1615.908" width="214.933" height="214.933" rx="15.1769164626576" ry="15.1769164626576" stroke="#ff0000" fill="#cccccc" stroke-linejoin="miter"/>
    <text xml:space="preserve" transform="translate(412.386 1721.57) scale(1 -1)" kerning="auto" stroke="none" stroke-width="0.25" stroke-linecap="round" stroke-linejoin="round" fill="#000000"><tspan x="0" y="0">76x76mm</tspan><tspan x="0" y="32.682">200x200</tspan></text>
   </g>
   <g id="Group_27" font-size="10" font-family="Open Sans">
    <rect x="108.089" y="1400.595" width="214.933" height="214.933" rx="15.1769164626576" ry="15.1769164626576" stroke="#ff0000" fill="#cccccc" stroke-linejoin="miter"/>
    <text xml:space="preserve" transform="translate(196.629 1506.26) scale(1 -1)" kerning="auto" stroke="none" stroke-width="0.25" stroke-linecap="round" stroke-linejoin="round" fill="#000000"><tspan x="0" y="0">76x76mm</tspan><tspan x="0" y="32.682">200x200</tspan></text>
   </g>
   <g id="Group_28" font-size="10" font-family="Open Sans">
    <rect x="323.523" y="1400.744" width="214.933" height="214.933" rx="15.1769164626576" ry="15.1769164626576" stroke="#ff0000" fill="#cccccc" stroke-linejoin="miter"/>
    <text xml:space="preserve" transform="translate(412.063 1506.41) scale(1 -1)" kerning="auto" stroke="none" stroke-width="0.25" stroke-linecap="round" stroke-linejoin="round" fill="#000000"><tspan x="0" y="0">76x76mm</tspan><tspan x="0" y="32.682">200x200</tspan></text>
   </g>
   <g id="Group_29" font-size="10" font-family="Open Sans">
    <rect x="538.957" y="1616.178" width="214.933" height="214.933" rx="15.1769164626576" ry="15.1769164626576" stroke="#ff0000" fill="#cccccc" stroke-linejoin="miter"/>
    <text xml:space="preserve" transform="translate(627.497 1721.84) scale(1 -1)" kerning="auto" stroke="none" stroke-width="0.25" stroke-linecap="round" stroke-linejoin="round" fill="#000000"><tspan x="0" y="0">76x76mm</tspan><tspan x="0" y="32.682">200x200</tspan></text>
   </g>
   <g id="Group_30" font-size="10" font-family="Open Sans">
    <rect x="538.957" y="1400.744" width="214.933" height="214.933" rx="15.1769164626576" ry="15.1769164626576" stroke="#ff0000" fill="#cccccc" stroke-linejoin="miter"/>
    <text xml:space="preserve" transform="translate(627.497 1506.41) scale(1 -1)" kerning="auto" stroke="none" stroke-width="0.25" stroke-linecap="round" stroke-linejoin="round" fill="#000000"><tspan x="0" y="0">76x76mm</tspan><tspan x="0" y="32.682">200x200</tspan></text>
   </g>
   <g id="Group_31" font-size="10" font-family="Open Sans">
    <rect x="754.391" y="1616.029" width="214.933" height="214.933" rx="15.1769164626576" ry="15.1769164626576" stroke="#ff0000" fill="#cccccc" stroke-linejoin="miter"/>
    <text xml:space="preserve" transform="translate(842.931 1721.69) scale(1 -1)" kerning="auto" stroke="none" stroke-width="0.25" stroke-linecap="round" stroke-linejoin="round" fill="#000000"><tspan x="0" y="0">76x76mm</tspan><tspan x="0" y="32.682">200x200</tspan></text>
   </g>
   <g id="Group_32" font-size="10" font-family="Open Sans">
    <rect x="754.391" y="1400.595" width="214.933" height="214.933" rx="15.1769164626576" ry="15.1769164626576" stroke="#ff0000" fill="#cccccc" stroke-linejoin="miter"/>
    <text xml:space="preserve" transform="translate(842.931 1506.26) scale(1 -1)" kerning="auto" stroke="none" stroke-width="0.25" stroke-linecap="round" stroke-linejoin="round" fill="#000000"><tspan x="0" y="0">76x76mm</tspan><tspan x="0" y="32.682">200x200</tspan></text>
   </g>
   <g id="Group_33" font-size="10" font-family="Open Sans">
    <rect x="969.825" y="1616.029" width="214.933" height="214.933" rx="15.1769164626576" ry="15.1769164626576" stroke="#ff0000" fill="#cccccc" stroke-linejoin="miter"/>
    <text xml:space="preserve" transform="translate(1058.37 1721.69) scale(1 -1)" kerning="auto" stroke="none" stroke-width="0.25" stroke-linecap="round" stroke-linejoin="round" fill="#000000"><tspan x="0" y="0">76x76mm</tspan><tspan x="0" y="32.682">200x200</tspan></text>
   </g>
   <g id="Group_34" font-size="10" font-family="Open Sans">
    <rect x="969.825" y="1400.595" width="214.933" height="214.933" rx="15.1769164626576" ry="15.1769164626576" stroke="#ff0000" fill="#cccccc" stroke-linejoin="miter"/>
    <text xml:space="preserve" transform="translate(1058.37 1506.26) scale(1 -1)" kerning="auto" stroke="none" stroke-width="0.25" stroke-linecap="round" stroke-linejoin="round" fill="#000000"><tspan x="0" y="0">76x76mm</tspan><tspan x="0" y="32.682">200x200</tspan></text>
   </g>
   <g id="Group_35" font-size="10" font-family="Open Sans">
    <path d="M 462.645,1831.44 L 462.645,1831.44 L 444.565,1831.44 C 437.142,1831.44 431.117,1838.24 431.117,1846.61 L 431.117,2031.19 C 431.117,2039.57 437.142,2046.37 444.565,2046.37 L 524.941,2046.37 C 532.364,2046.37 538.389,2039.57 538.389,2031.19 L 538.389,1846.61 C 538.389,1838.24 532.364,1831.44 524.941,1831.44 L 514.71,1831.44 L 514.71,1831.44 L 462.645,1831.44 Z" fill="#e5e5e5" stroke="#00ff03" stroke-linejoin="miter" marker-start="none" marker-end="none"/>
    <text xml:space="preserve" transform="translate(464.488 1937.1) scale(1 -1)" kerning="auto" stroke="none" stroke-width="0.25" stroke-linecap="round" stroke-linejoin="round" fill="#000000"><tspan x="0" y="0">76x38mm</tspan><tspan x="0" y="32.682">200x100</tspan></text>
   </g>
   <g id="Group_36" font-size="10" font-family="Open Sans">
    <path d="M 570.362,1831.44 L 570.362,1831.44 L 552.282,1831.44 C 544.859,1831.44 538.834,1838.24 538.834,1846.61 L 538.834,2031.19 C 538.834,2039.57 544.859,2046.37 552.282,2046.37 L 632.658,2046.37 C 640.081,2046.37 646.106,2039.57 646.106,2031.19 L 646.106,1846.61 C 646.106,1838.24 640.081,1831.44 632.658,1831.44 L 622.427,1831.44 L 622.427,1831.44 L 570.362,1831.44 Z" fill="#e5e5e5" stroke="#00ff03" stroke-linejoin="miter" marker-start="none" marker-end="none"/>
    <text xml:space="preserve" transform="translate(572.205 1937.1) scale(1 -1)" kerning="auto" stroke="none" stroke-width="0.25" stroke-linecap="round" stroke-linejoin="round" fill="#000000"><tspan x="0" y="0">76x38mm</tspan><tspan x="0" y="32.682">200x100</tspan></text>
   </g>
   <g id="Group_37" font-size="10" font-family="Open Sans">
    <path d="M 678.079,1831.44 L 678.079,1831.44 L 659.999,1831.44 C 652.576,1831.44 646.551,1838.24 646.551,1846.61 L 646.551,2031.19 C 646.551,2039.57 652.576,2046.37 659.999,2046.37 L 740.375,2046.37 C 747.798,2046.37 753.823,2039.57 753.823,2031.19 L 753.823,1846.61 C 753.823,1838.24 747.798,1831.44 740.375,1831.44 L 730.144,1831.44 L 730.144,1831.44 L 678.079,1831.44 Z" fill="#e5e5e5" stroke="#00ff03" stroke-linejoin="miter" marker-start="none" marker-end="none"/>
    <text xml:space="preserve" transform="translate(679.922 1937.1) scale(1 -1)" kerning="auto" stroke="none" stroke-width="0.25" stroke-linecap="round" stroke-linejoin="round" fill="#000000"><tspan x="0" y="0">76x38mm</tspan><tspan x="0" y="32.682">200x100</tspan></text>
   </g>
   <g id="Group_38" font-size="10" font-family="Open Sans">
    <path d="M 785.796,1831.44 L 785.796,1831.44 L 767.716,1831.44 C 760.293,1831.44 754.268,1838.24 754.268,1846.61 L 754.268,2031.19 C 754.268,2039.57 760.293,2046.37 767.716,2046.37 L 848.092,2046.37 C 855.515,2046.37 861.54,2039.57 861.54,2031.19 L 861.54,1846.61 C 861.54,1838.24 855.515,1831.44 848.092,1831.44 L 837.861,1831.44 L 837.861,1831.44 L 785.796,1831.44 Z" fill="#e5e5e5" stroke="#00ff03" stroke-linejoin="miter" marker-start="none" marker-end="none"/>
    <text xml:space="preserve" transform="translate(787.639 1937.1) scale(1 -1)" kerning="auto" stroke="none" stroke-width="0.25" stroke-linecap="round" stroke-linejoin="round" fill="#000000"><tspan x="0" y="0">76x38mm</tspan><tspan x="0" y="32.682">200x100</tspan></text>
   </g>
   <g id="Group_39" font-size="10" font-family="Open Sans">
    <path d="M 893.512,1831.44 L 893.512,1831.44 L 875.432,1831.44 C 868.009,1831.44 861.984,1838.24 861.984,1846.61 L 861.984,2031.19 C 861.984,2039.57 868.009,2046.37 875.432,2046.37 L 955.808,2046.37 C 963.231,2046.37 969.256,2039.57 969.256,2031.19 L 969.256,1846.61 C 969.256,1838.24 963.231,1831.44 955.808,1831.44 L 945.577,1831.44 L 945.577,1831.44 L 893.512,1831.44 Z" fill="#e5e5e5" stroke="#00ff03" stroke-linejoin="miter" marker-start="none" marker-end="none"/>
    <text xml:space="preserve" transform="translate(895.355 1937.1) scale(1 -1)" kerning="auto" stroke="none" stroke-width="0.25" stroke-linecap="round" stroke-linejoin="round" fill="#000000"><tspan x="0" y="0">76x38mm</tspan><tspan x="0" y="32.682">200x100</tspan></text>
   </g>
   <g id="Group_40" font-size="10" font-family="Open Sans">
    <path d="M 1001.23,1831.44 L 1001.23,1831.44 L 983.149,1831.44 C 975.726,1831.44 969.701,1838.24 969.701,1846.61 L 969.701,2031.19 C 969.701,2039.57 975.726,2046.37 983.149,2046.37 L 1063.53,2046.37 C 1070.95,2046.37 1076.97,2039.57 1076.97,2031.19 L 1076.97,1846.61 C 1076.97,1838.24 1070.95,1831.44 1063.53,1831.44 L 1053.29,1831.44 L 1053.29,1831.44 L 1001.23,1831.44 Z" fill="#e5e5e5" stroke="#00ff03" stroke-linejoin="miter" marker-start="none" marker-end="none"/>
    <text xml:space="preserve" transform="translate(1003.07 1937.1) scale(1 -1)" kerning="auto" stroke="none" stroke-width="0.25" stroke-linecap="round" stroke-linejoin="round" fill="#000000"><tspan x="0" y="0">76x38mm</tspan><tspan x="0" y="32.682">200x100</tspan></text>
   </g>
   <g id="Group_41" font-size="10" font-family="Open Sans">
    <path d="M 1108.81,1831.44 L 1108.81,1831.44 L 1090.73,1831.44 C 1083.31,1831.44 1077.28,1838.24 1077.28,1846.62 L 1077.28,2031.2 C 1077.28,2039.57 1083.31,2046.37 1090.73,2046.37 L 1171.11,2046.37 C 1178.53,2046.37 1184.55,2039.57 1184.55,2031.2 L 1184.55,1846.62 C 1184.55,1838.24 1178.53,1831.44 1171.11,1831.44 L 1160.88,1831.44 L 1160.88,1831.44 L 1108.81,1831.44 Z" fill="#e5e5e5" stroke="#00ff03" stroke-linejoin="miter" marker-start="none" marker-end="none"/>
    <text xml:space="preserve" transform="translate(1110.65 1937.1) scale(1 -1)" kerning="auto" stroke="none" stroke-width="0.25" stroke-linecap="round" stroke-linejoin="round" fill="#000000"><tspan x="0" y="0">76x38mm</tspan><tspan x="0" y="32.682">200x100</tspan></text>
   </g>
  </g>
 </g>
</svg>
