<?xml version="1.0" standalone="no"?>
<!DOCTYPE svg PUBLIC "-//W3C//DTD SVG 1.1//EN" "http://www.w3.org/Graphics/SVG/1.1/DTD/svg11.dtd">
<!--Generator: Xara Designer (www.xara.com), SVG filter version: 6.6.0.0-->
<svg fill="none" fill-rule="evenodd" stroke="black" stroke-width="0.501" stroke-linejoin="bevel" stroke-miterlimit="10" font-family="Times New Roman" font-size="16" style="font-variant-ligatures:none" xmlns:xlink="http://www.w3.org/1999/xlink" xmlns="http://www.w3.org/2000/svg" version="1.1" overflow="visible" width="595.277pt" height="841.891pt" viewBox="0 -841.891 595.277 841.891">
 <defs>
	</defs>
 <g id="Layer 1" transform="scale(1 -1)">
  <g id="Group" font-size="10" font-family="Open Sans">
   <rect x="82.455" y="562.208" width="214.933" height="214.933" rx="15.1769164626576" ry="15.1769164626576" stroke="#ff0000" fill="#cccccc" stroke-linejoin="miter"/>
   <text xml:space="preserve" transform="translate(170.995 667.869) scale(1 -1)" kerning="auto" stroke="none" stroke-width="0.25" stroke-linecap="round" stroke-linejoin="round" fill="#000000"><tspan x="0" y="0">76x76mm</tspan><tspan x="0" y="32.682">“200x200”</tspan></text>
  </g>
  <g id="Group_1" font-size="10" font-family="Open Sans">
   <path d="M 383.303,562.207 L 383.303,562.209 L 365.223,562.209 C 357.8,562.209 351.775,569.008 351.775,577.385 L 351.775,761.964 C 351.775,770.341 357.8,777.14 365.223,777.14 L 445.599,777.14 C 453.022,777.14 459.047,770.341 459.047,761.964 L 459.047,577.385 C 459.047,569.008 453.022,562.209 445.599,562.209 L 435.368,562.209 L 435.368,562.207 L 383.303,562.207 Z" fill="#e5e5e5" stroke="#00ff03" stroke-linejoin="miter" marker-start="none" marker-end="none"/>
   <text xml:space="preserve" transform="translate(385.146 667.87) scale(1 -1)" kerning="auto" stroke="none" stroke-width="0.25" stroke-linecap="round" stroke-linejoin="round" fill="#000000"><tspan x="0" y="0">76x38mm</tspan><tspan x="0" y="32.682">“200x100”</tspan></text>
  </g>
  <g id="Group_2" font-size="10" font-family="Open Sans">
   <path d="M 82.454,117.308 L 82.454,517.32 C 82.454,525.697 89.253,532.496 97.63,532.496 L 497.642,532.496 C 506.019,532.496 512.818,525.697 512.818,517.32 L 512.818,117.308 C 512.818,108.931 506.019,102.132 497.642,102.132 L 97.63,102.132 C 89.253,102.132 82.454,108.931 82.454,117.308 Z" stroke="#fffc00" fill="#cccccc" stroke-linejoin="miter" marker-start="none" marker-end="none"/>
   <text xml:space="preserve" transform="translate(263.336 349.843) scale(1 -1)" kerning="auto" fill="#000000" stroke-linejoin="round" stroke-linecap="round" stroke-width="0.25" stroke="none"><tspan x="0" y="0">152x152mm</tspan><tspan x="0" y="32.682">“400x400”</tspan></text>
  </g>
 </g>
</svg>
