<?xml version="1.0" standalone="no"?>
<!DOCTYPE svg PUBLIC "-//W3C//DTD SVG 1.1//EN" "http://www.w3.org/Graphics/SVG/1.1/DTD/svg11.dtd">
<!--Generator: Xara Designer (www.xara.com), SVG filter version: 6.2.0.0-->
<svg stroke-width="0.501" stroke-linejoin="bevel" fill-rule="evenodd" xmlns:xlink="http://www.w3.org/1999/xlink" xmlns="http://www.w3.org/2000/svg" version="1.1" overflow="visible" width="215.434pt" height="215.434pt" viewBox="0 0 215.434 215.434">
 <defs>
	</defs>
 <g id="Document" fill="none" stroke="black" font-family="Times New Roman" font-size="16" transform="scale(1 -1)">
  <g id="Spread" transform="translate(0 -215.434)">
   <g id="Layer 1">
    <g id="Group">
     <path d="M 199.757,214.933 L 15.176,214.933 C 6.799,214.933 0,208.134 0,199.757 L 0,15.176 C 0,6.799 6.799,0 15.176,0 L 199.757,0 C 208.134,0 214.933,6.799 214.933,15.176 L 214.933,199.757 C 214.933,208.134 208.134,214.933 199.757,214.933 Z" stroke="#999999" fill="#ffffff" stroke-linejoin="miter" marker-start="none" marker-end="none"/>
     <g id="Group_1" stroke="#30336b" stroke-linejoin="miter" stroke-linecap="round">
      <path d="M 15.549,68.362 L 15.549,34.47 L 119.137,34.47 L 119.137,68.362 L 15.549,68.362 Z" fill="#30336b" stroke-width="1.738" marker-start="none" marker-end="none" stroke-miterlimit="79.8403193612775"/>
      <path d="M 15.549,69.705 L 15.549,59.895 C 15.549,57.324 17.633,55.247 20.195,55.247 L 114.487,55.247 C 117.049,55.247 119.137,57.324 119.137,59.895 L 119.137,69.705 C 119.137,72.281 117.049,74.359 114.487,74.359 L 20.195,74.359 C 17.633,74.359 15.549,72.281 15.549,69.705 Z" fill="#30336b" stroke-width="1.738" marker-start="none" marker-end="none" stroke-miterlimit="79.8403193612775"/>
      <path d="M 16.246,40.812 L 16.246,23.167 C 16.246,18.554 19.99,14.808 24.608,14.808 L 191.654,14.808 C 196.267,14.808 200.015,18.554 200.015,23.167 L 200.015,40.812 C 200.015,45.43 196.267,49.178 191.654,49.178 L 24.608,49.178 C 19.99,49.178 16.246,45.43 16.246,40.812 Z" fill="#ffffff" stroke-width="3.13" marker-start="none" marker-end="none" stroke-miterlimit="79.8403193612775"/>
     </g>
     <g id="Group_2" stroke-linejoin="miter" stroke-miterlimit="79.8403193612775">
      <path d="M 59.5,101.396 C 53.6,108.374 54.479,118.834 61.474,124.743 C 68.456,130.635 78.909,129.756 84.813,122.769 C 90.722,115.777 89.836,105.323 82.839,99.418 C 75.857,93.523 65.4,94.402 59.5,101.396 Z" stroke="none" fill="#000000" stroke-width="0.686" marker-start="none" marker-end="none" stroke-miterlimit="19.9600798403194"/>
      <path d="M 60.278,102.005 C 54.387,109.003 55.259,119.462 62.252,125.355 C 69.241,131.264 79.693,130.381 85.609,123.388 C 91.506,116.406 90.621,105.954 83.627,100.049 C 76.648,94.143 66.184,95.022 60.278,102.005 Z" stroke="#b2b2b2" stroke-width="3.752" marker-start="none" marker-end="none" stroke-miterlimit="19.9600798403194"/>
     </g>
     <g id="Group_3" stroke-linejoin="miter" stroke-miterlimit="79.8403193612775">
      <path d="M 18.815,101.383 C 12.915,108.372 13.794,118.84 20.791,124.731 C 27.774,130.642 38.228,129.759 44.13,122.771 C 50.041,115.782 49.155,105.322 42.157,99.418 C 35.174,93.519 24.715,94.402 18.815,101.383 Z" stroke="none" fill="#ffffff" stroke-width="0.689" marker-start="none" marker-end="none" stroke-miterlimit="19.9600798403194"/>
      <path d="M 19.595,102.018 C 13.702,109.01 14.575,119.456 21.567,125.369 C 28.558,131.253 39.013,130.381 44.926,123.393 C 50.824,116.406 49.94,105.94 42.946,100.04 C 35.965,94.141 25.5,95.019 19.595,102.018 Z" stroke="#55bae6" stroke-width="3.752" marker-start="none" marker-end="none" stroke-miterlimit="19.9600798403194"/>
     </g>
     <g id="Group_4" stroke-linejoin="miter" stroke-miterlimit="79.8403193612775">
      <path d="M 21.355,158.033 C 12.458,168.573 13.783,184.359 24.335,193.243 C 34.866,202.157 50.631,200.825 59.532,190.287 C 68.446,179.747 67.11,163.973 56.556,155.07 C 46.025,146.174 30.253,147.505 21.355,158.033 Z" stroke="none" fill="#ffffff" stroke-width="1.039" marker-start="none" marker-end="none" stroke-miterlimit="19.9600798403194"/>
      <path d="M 22.532,158.99 C 13.645,169.535 14.961,185.288 25.505,194.205 C 36.048,203.078 51.815,201.763 60.732,191.225 C 69.626,180.688 68.293,164.905 57.746,156.008 C 47.218,147.112 31.437,148.436 22.532,158.99 Z" stroke="#55bae6" stroke-width="5.658" marker-start="none" marker-end="none" stroke-miterlimit="19.9600798403194"/>
     </g>
     <g id="Group_5" fill-rule="nonzero" stroke-linejoin="round" stroke-linecap="round" stroke="none" stroke-width="0.485" fill="#b2b2b2" stroke-miterlimit="79.8403193612775">
      <g id="Group_6">
       <path d="M 72.396,119.957 C 73.097,119.957 73.721,119.858 74.267,119.659 C 74.812,119.461 75.274,119.192 75.651,118.853 C 76.027,118.514 76.313,118.122 76.508,117.675 C 76.703,117.229 76.801,116.758 76.801,116.263 C 76.801,115.814 76.755,115.418 76.664,115.075 C 76.573,114.733 76.438,114.437 76.26,114.186 C 76.081,113.935 75.86,113.722 75.597,113.546 C 75.334,113.37 75.033,113.224 74.696,113.106 C 76.268,112.562 77.054,111.495 77.054,109.907 C 77.054,109.155 76.917,108.501 76.645,107.943 C 76.372,107.385 76.006,106.922 75.548,106.553 C 75.09,106.183 74.559,105.906 73.955,105.721 C 73.351,105.536 72.72,105.444 72.064,105.444 C 71.389,105.444 70.788,105.517 70.261,105.663 C 69.735,105.809 69.267,106.037 68.858,106.345 C 68.449,106.654 68.09,107.048 67.781,107.529 C 67.473,108.01 67.205,108.581 66.977,109.244 L 68.322,109.791 C 68.439,109.844 68.554,109.879 68.668,109.899 C 68.782,109.918 68.894,109.928 69.004,109.928 C 69.212,109.928 69.399,109.887 69.565,109.806 C 69.73,109.725 69.855,109.606 69.94,109.45 C 70.232,108.91 70.542,108.518 70.87,108.275 C 71.199,108.031 71.583,107.909 72.025,107.909 C 72.363,107.909 72.657,107.966 72.907,108.08 C 73.157,108.193 73.365,108.339 73.531,108.518 C 73.697,108.697 73.822,108.901 73.906,109.128 C 73.991,109.356 74.033,109.587 74.033,109.821 C 74.033,110.126 74.012,110.401 73.97,110.645 C 73.927,110.889 73.809,111.099 73.614,111.274 C 73.419,111.45 73.125,111.585 72.732,111.679 C 72.339,111.773 71.791,111.82 71.09,111.82 L 71.09,113.905 C 71.681,113.905 72.158,113.95 72.522,114.041 C 72.886,114.132 73.167,114.257 73.365,114.417 C 73.563,114.576 73.695,114.769 73.76,114.997 C 73.825,115.224 73.857,115.474 73.857,115.747 C 73.857,116.306 73.723,116.737 73.453,117.039 C 73.183,117.341 72.772,117.493 72.22,117.493 C 71.993,117.493 71.785,117.46 71.596,117.395 C 71.408,117.33 71.239,117.242 71.09,117.132 C 70.94,117.021 70.812,116.891 70.705,116.742 C 70.598,116.592 70.512,116.43 70.447,116.254 C 70.343,115.962 70.211,115.751 70.052,115.621 C 69.893,115.491 69.677,115.425 69.404,115.425 C 69.339,115.425 69.269,115.429 69.194,115.435 C 69.12,115.442 69.043,115.451 68.965,115.464 L 67.367,115.747 C 67.471,116.455 67.671,117.073 67.966,117.599 C 68.262,118.125 68.629,118.564 69.068,118.915 C 69.506,119.265 70.008,119.527 70.573,119.699 C 71.138,119.871 71.746,119.957 72.396,119.957 Z" marker-start="none" marker-end="none"/>
      </g>
     </g>
     <g id="Group_7" fill-rule="nonzero" stroke-linejoin="round" stroke-linecap="round" stroke="none" stroke-width="0.485" fill="#000000" stroke-miterlimit="79.8403193612775">
      <g id="Group_8">
       <path d="M 36.013,111.116 L 37.474,111.116 L 37.474,109.421 C 37.474,109.271 37.424,109.142 37.323,109.031 C 37.223,108.921 37.078,108.865 36.89,108.865 L 36.013,108.865 L 36.013,105.601 L 33.381,105.601 L 33.381,108.865 L 27.67,108.865 C 27.482,108.865 27.311,108.924 27.159,109.041 C 27.006,109.158 26.91,109.304 26.871,109.479 L 26.559,110.971 L 33.128,119.803 L 36.013,119.803 L 36.013,111.116 Z M 33.381,114.82 C 33.381,115.048 33.389,115.293 33.406,115.556 C 33.422,115.819 33.446,116.09 33.479,116.37 L 29.727,111.116 L 33.381,111.116 L 33.381,114.82 Z" marker-start="none" marker-end="none"/>
      </g>
     </g>
     <g id="Group_9" fill="#ff3718" stroke-linecap="round" stroke="none">
      <path d="M 214.917,102.79 L 214.917,94.256 L 165.754,94.256 L 165.754,102.791 L 214.917,102.79 Z" stroke-width="0.103" stroke-linejoin="miter" marker-start="none" marker-end="none" stroke-miterlimit="79.8403193612775"/>
      <path d="M 115.312,123.022 C 127.579,109.583 144.393,102.754 161.266,102.751 L 161.266,94.271 C 142.094,94.277 122.981,102.027 109.047,117.296 C 96.674,130.857 90.572,147.934 90.577,164.957 L 99.063,164.957 C 99.056,149.975 104.425,134.948 115.312,123.022 Z" stroke-width="0.541" stroke-linejoin="round" marker-start="none" marker-end="none" stroke-miterlimit="79.8403193612775"/>
      <path d="M 94.804,202.91 L 96.922,199.865 L 99.044,196.813 L 99.097,196.812 L 99.097,169.535 L 90.561,169.536 L 90.561,196.812 L 92.681,199.865 L 94.804,202.91 Z" stroke-width="0.103" stroke-linejoin="miter" marker-start="none" marker-end="none" stroke-miterlimit="79.8403193612775"/>
     </g>
     <g id="Group_10" stroke-linecap="round" stroke="none" fill="#e5e5e5">
      <path d="M 106.354,202.914 L 108.474,199.867 L 110.595,196.812 L 106.354,196.812 L 102.113,196.816 L 104.235,199.868 L 106.354,202.914 Z M 110.618,196.812 L 110.619,169.535 L 102.084,169.535 L 102.084,196.812 L 110.618,196.812 Z" stroke-width="0.103" stroke-linejoin="miter" marker-start="none" marker-end="none" stroke-miterlimit="79.8403193612775"/>
      <path d="M 123.666,130.644 C 133.706,119.653 147.461,114.066 161.266,114.06 L 161.266,105.58 C 145.158,105.585 129.109,112.099 117.4,124.927 C 107.006,136.313 101.886,150.656 101.889,164.956 L 110.375,164.957 C 110.365,152.7 114.76,140.408 123.666,130.644 Z" stroke-width="0.453" stroke-linejoin="round" marker-start="none" marker-end="none" stroke-miterlimit="79.8403193612775"/>
      <path d="M 214.917,114.092 L 214.917,105.561 L 165.754,105.561 L 165.754,114.093 L 214.917,114.092 Z" stroke-width="0.103" stroke-linejoin="miter" marker-start="none" marker-end="none" stroke-miterlimit="79.8403193612775"/>
     </g>
     <g id="Group_11" fill="#00d702" stroke-linecap="round" stroke="none">
      <path d="M 117.67,202.914 L 119.785,199.868 L 121.907,196.812 L 117.666,196.812 L 113.423,196.816 L 115.543,199.868 L 117.67,202.914 Z M 121.917,196.812 L 121.916,169.535 L 113.381,169.535 L 113.381,196.812 L 121.917,196.812 Z" stroke-width="0.103" stroke-linejoin="miter" marker-start="none" marker-end="none" stroke-miterlimit="79.8403193612775"/>
      <path d="M 214.917,125.39 L 214.917,116.86 L 165.755,116.86 L 165.754,125.391 L 214.917,125.39 Z" stroke-width="0.103" stroke-linejoin="miter" marker-start="none" marker-end="none" stroke-miterlimit="79.8403193612775"/>
      <path d="M 132.021,138.271 C 139.828,129.719 150.533,125.38 161.266,125.373 L 161.265,116.888 C 148.224,116.892 135.234,122.165 125.755,132.554 C 117.344,141.769 113.196,153.385 113.198,164.957 L 121.68,164.957 C 121.68,155.424 125.094,145.86 132.021,138.271 Z" stroke-width="0.368" stroke-linejoin="round" marker-start="none" marker-end="none" stroke-miterlimit="79.8403193612775"/>
     </g>
     <g id="Group_12" fill="#e5e5e5" stroke-linecap="round" stroke="none">
      <path d="M 214.917,136.687 L 214.917,128.153 L 165.753,128.153 L 165.754,136.687 L 214.917,136.687 Z" stroke-width="0.103" stroke-linejoin="miter" marker-start="none" marker-end="none" stroke-miterlimit="79.8403193612775"/>
      <path d="M 140.376,145.892 C 145.954,139.785 153.592,136.685 161.265,136.682 L 161.266,128.195 C 151.296,128.205 141.357,132.237 134.114,140.175 C 127.675,147.225 124.504,156.101 124.508,164.957 L 132.996,164.957 C 132.989,158.15 135.431,151.318 140.376,145.892 Z" stroke-width="0.281" stroke-linejoin="round" marker-start="none" marker-end="none" stroke-miterlimit="79.8403193612775"/>
      <path d="M 128.723,202.91 L 130.855,199.866 L 132.996,196.813 L 132.996,196.813 L 132.996,169.536 L 124.457,169.535 L 124.457,196.812 L 124.457,196.812 L 126.587,199.867 L 128.723,202.91 Z" stroke-width="0.103" stroke-linejoin="miter" marker-start="none" marker-end="none" stroke-miterlimit="79.8403193612775"/>
     </g>
     <g id="Group_13" stroke-linejoin="miter" stroke-miterlimit="79.8403193612775">
      <path d="M 153.514,158.48 C 144.617,169.02 145.942,184.806 156.494,193.689 C 167.025,202.604 182.79,201.272 191.691,190.735 C 200.605,180.194 199.269,164.42 188.716,155.517 C 178.184,146.621 162.412,147.952 153.514,158.48 Z" stroke="none" fill="#000000" stroke-width="1.039" marker-start="none" marker-end="none" stroke-miterlimit="19.9600798403194"/>
      <path d="M 154.691,159.437 C 145.804,169.982 147.12,185.734 157.664,194.652 C 168.208,203.524 183.974,202.21 192.891,191.673 C 201.785,181.135 200.452,165.352 189.905,156.455 C 179.377,147.559 163.596,148.883 154.691,159.437 Z" stroke="#b2b2b2" stroke-width="5.658" marker-start="none" marker-end="none" stroke-miterlimit="19.9600798403194"/>
     </g>
     <g id="Group_14" stroke-linejoin="miter" stroke-miterlimit="79.8403193612775">
      <path d="M 175.579,106.665 C 171.054,112.021 171.731,120.037 177.088,124.56 C 182.444,129.085 190.464,128.413 194.984,123.055 C 199.509,117.698 198.834,109.678 193.475,105.159 C 188.121,100.631 180.101,101.314 175.579,106.665 Z" stroke="none" fill="#ffffff" stroke-width="0.526" marker-start="none" marker-end="none" stroke-miterlimit="19.9600798403194"/>
      <path d="M 176.182,107.147 C 171.658,112.496 172.334,120.518 177.69,125.039 C 183.049,129.567 191.065,128.889 195.588,123.53 C 200.117,118.179 199.44,110.156 194.08,105.632 C 188.721,101.111 180.705,101.785 176.182,107.147 Z" fill="none" stroke="#55bae6" stroke-width="2.872" marker-start="none" marker-end="none" stroke-miterlimit="19.9600798403194"/>
     </g>
     <g id="Group_15" stroke-linejoin="miter" stroke-miterlimit="79.8403193612775">
      <path d="M 137.245,116.982 C 131.894,112.46 123.874,113.137 119.347,118.493 C 114.831,123.85 115.504,131.869 120.861,136.393 C 126.216,140.916 134.233,140.236 138.756,134.882 C 143.28,129.525 142.604,121.507 137.245,116.982 Z" stroke="none" fill="#ffffff" stroke-width="0.526" marker-start="none" marker-end="none" stroke-miterlimit="19.9600798403194"/>
      <path d="M 136.767,117.59 C 131.413,113.063 123.397,113.737 118.873,119.097 C 114.349,124.455 115.022,132.47 120.385,136.995 C 125.74,141.522 133.757,140.838 138.283,135.487 C 142.808,130.127 142.127,122.112 136.767,117.59 Z" fill="none" stroke="#55bae6" stroke-width="2.872" marker-start="none" marker-end="none" stroke-miterlimit="19.9600798403194"/>
     </g>
     <g id="Group_16" stroke-linejoin="miter" stroke-miterlimit="79.8403193612775">
      <path d="M 101.473,176.24 C 96.949,181.596 97.628,189.613 102.983,194.141 C 108.343,198.662 116.363,197.984 120.886,192.626 C 125.414,187.273 124.731,179.251 119.375,174.732 C 114.016,170.213 106,170.887 101.473,176.24 Z" stroke="none" fill="#ffffff" stroke-width="0.526" marker-start="none" marker-end="none" stroke-miterlimit="19.9600798403194"/>
      <path d="M 102.08,176.724 C 97.556,182.075 98.232,190.095 103.592,194.619 C 108.951,199.14 116.966,198.466 121.489,193.106 C 126.016,187.753 125.338,179.733 119.982,175.212 C 114.619,170.687 106.603,171.363 102.08,176.724 Z" fill="none" stroke="#55bae6" stroke-width="2.872" marker-start="none" marker-end="none" stroke-miterlimit="19.9600798403194"/>
     </g>
     <g id="Group_17" fill-rule="nonzero" stroke-linejoin="round" stroke-linecap="round" stroke="none" stroke-width="0.387" fill="#000000" stroke-miterlimit="79.8403193612775">
      <g id="Group_18">
       <path d="M 182.284,118.783 L 182.284,115.701 L 185.163,115.701 L 185.163,113.972 L 182.284,113.972 L 182.284,110.875 L 180.323,110.875 L 180.323,113.972 L 177.459,113.972 L 177.459,115.701 L 180.323,115.701 L 180.323,118.783 L 182.284,118.783 Z" marker-start="none" marker-end="none"/>
       <path d="M 187.794,111.35 L 189.973,111.35 L 189.973,117.07 C 189.973,117.351 189.981,117.644 189.996,117.95 L 188.712,116.883 C 188.629,116.816 188.546,116.768 188.463,116.739 C 188.38,116.711 188.3,116.697 188.222,116.697 C 188.087,116.697 187.967,116.726 187.86,116.786 C 187.754,116.846 187.675,116.909 187.623,116.977 L 186.86,117.989 L 190.393,120.954 L 192.386,120.954 L 192.386,111.35 L 194.253,111.35 L 194.253,109.606 L 187.794,109.606 L 187.794,111.35 Z" marker-start="none" marker-end="none"/>
      </g>
     </g>
     <g id="Group_19" fill-rule="nonzero" stroke-linejoin="round" stroke-linecap="round" stroke="none" stroke-width="0.387" fill="#000000" stroke-miterlimit="79.8403193612775">
      <g id="Group_20">
       <path d="M 124.255,130.19 L 124.255,127.108 L 127.134,127.108 L 127.134,125.379 L 124.255,125.379 L 124.255,122.282 L 122.294,122.282 L 122.294,125.379 L 119.43,125.379 L 119.43,127.108 L 122.294,127.108 L 122.294,130.19 L 124.255,130.19 Z" marker-start="none" marker-end="none"/>
       <path d="M 132.489,132.477 C 133.049,132.477 133.554,132.395 134.002,132.232 C 134.451,132.069 134.834,131.842 135.15,131.551 C 135.467,131.261 135.709,130.914 135.878,130.512 C 136.047,130.11 136.131,129.668 136.131,129.185 C 136.131,128.77 136.073,128.386 135.956,128.033 C 135.839,127.68 135.68,127.344 135.477,127.025 C 135.275,126.706 135.04,126.398 134.773,126.099 C 134.506,125.801 134.222,125.499 133.921,125.193 L 131.703,122.92 C 131.988,123.004 132.27,123.07 132.547,123.12 C 132.825,123.17 133.085,123.194 133.329,123.194 L 135.446,123.194 C 135.705,123.194 135.91,123.123 136.061,122.98 C 136.211,122.837 136.287,122.649 136.287,122.415 L 136.287,121.013 L 128.318,121.013 L 128.318,121.791 C 128.318,121.942 128.349,122.103 128.411,122.274 C 128.473,122.445 128.582,122.601 128.738,122.741 L 132.006,126.033 C 132.287,126.314 132.53,126.581 132.738,126.835 C 132.945,127.089 133.117,127.34 133.252,127.586 C 133.386,127.833 133.488,128.079 133.555,128.326 C 133.622,128.572 133.656,128.833 133.656,129.108 C 133.656,129.559 133.549,129.906 133.333,130.147 C 133.118,130.388 132.79,130.509 132.349,130.509 C 132.167,130.509 132.001,130.483 131.851,130.431 C 131.7,130.379 131.565,130.309 131.446,130.221 C 131.327,130.133 131.224,130.029 131.139,129.91 C 131.053,129.79 130.984,129.661 130.932,129.521 C 130.849,129.287 130.744,129.119 130.617,129.015 C 130.49,128.911 130.318,128.859 130.1,128.859 C 130.048,128.859 129.992,128.862 129.932,128.867 C 129.873,128.872 129.812,128.88 129.75,128.89 L 128.473,129.112 C 128.556,129.678 128.716,130.172 128.952,130.592 C 129.188,131.013 129.481,131.363 129.831,131.644 C 130.181,131.924 130.582,132.133 131.034,132.271 C 131.485,132.408 131.97,132.477 132.489,132.477 Z" marker-start="none" marker-end="none"/>
      </g>
     </g>
     <g id="Group_21" fill-rule="nonzero" stroke-linejoin="round" stroke-linecap="round" stroke="none" stroke-width="0.387" fill="#000000" stroke-miterlimit="79.8403193612775">
      <g id="Group_22">
       <path d="M 108.213,188.417 L 108.213,185.335 L 111.092,185.335 L 111.092,183.606 L 108.213,183.606 L 108.213,180.509 L 106.252,180.509 L 106.252,183.606 L 103.388,183.606 L 103.388,185.335 L 106.252,185.335 L 106.252,188.417 L 108.213,188.417 Z" marker-start="none" marker-end="none"/>
       <path d="M 113.723,180.984 L 115.902,180.984 L 115.902,186.704 C 115.902,186.985 115.91,187.278 115.925,187.584 L 114.641,186.517 C 114.558,186.45 114.475,186.402 114.392,186.373 C 114.309,186.345 114.229,186.331 114.151,186.331 C 114.016,186.331 113.896,186.36 113.789,186.42 C 113.683,186.48 113.604,186.543 113.552,186.611 L 112.789,187.623 L 116.322,190.588 L 118.315,190.588 L 118.315,180.984 L 120.182,180.984 L 120.182,179.24 L 113.723,179.24 L 113.723,180.984 Z" marker-start="none" marker-end="none"/>
      </g>
     </g>
     <g id="Group_23" fill-rule="nonzero" stroke-linejoin="round" stroke-linecap="round" stroke="none" stroke-width="0.319" fill="#ffffff" stroke-miterlimit="79.8403193612775">
      <g id="Group_24">
       <path d="M 30.747,61.164 C 30.747,60.49 30.631,59.869 30.398,59.3 C 30.166,58.731 29.839,58.238 29.417,57.823 C 28.995,57.407 28.487,57.083 27.893,56.851 C 27.298,56.618 26.639,56.502 25.914,56.502 L 22.296,56.502 L 22.296,65.819 L 25.914,65.819 C 26.639,65.819 27.298,65.702 27.893,65.467 C 28.487,65.233 28.995,64.909 29.417,64.495 C 29.839,64.082 30.166,63.59 30.398,63.021 C 30.631,62.452 30.747,61.833 30.747,61.164 Z M 28.535,61.164 C 28.535,61.624 28.475,62.039 28.356,62.41 C 28.237,62.781 28.065,63.095 27.841,63.353 C 27.618,63.611 27.344,63.809 27.02,63.948 C 26.696,64.086 26.328,64.155 25.914,64.155 L 24.47,64.155 L 24.47,58.166 L 25.914,58.166 C 26.328,58.166 26.696,58.235 27.02,58.373 C 27.344,58.512 27.618,58.71 27.841,58.968 C 28.065,59.226 28.237,59.54 28.356,59.911 C 28.475,60.282 28.535,60.699 28.535,61.164 Z" marker-start="none" marker-end="none"/>
       <path d="M 34.15,56.502 L 31.977,56.502 L 31.977,65.819 L 34.15,65.819 L 34.15,56.502 Z" marker-start="none" marker-end="none"/>
       <path d="M 41.065,63.924 C 41.001,63.821 40.934,63.745 40.863,63.694 C 40.793,63.642 40.702,63.617 40.592,63.617 C 40.494,63.617 40.388,63.648 40.275,63.71 C 40.162,63.771 40.034,63.841 39.892,63.917 C 39.749,63.994 39.586,64.063 39.403,64.125 C 39.219,64.187 39.011,64.218 38.776,64.218 C 38.371,64.218 38.07,64.132 37.872,63.959 C 37.674,63.786 37.574,63.553 37.574,63.259 C 37.574,63.071 37.634,62.916 37.753,62.792 C 37.873,62.669 38.029,62.562 38.223,62.472 C 38.417,62.383 38.639,62.301 38.888,62.226 C 39.137,62.152 39.392,62.069 39.652,61.977 C 39.912,61.885 40.167,61.778 40.416,61.654 C 40.665,61.531 40.887,61.373 41.081,61.181 C 41.275,60.989 41.431,60.756 41.551,60.481 C 41.67,60.206 41.73,59.875 41.73,59.487 C 41.73,59.056 41.655,58.654 41.506,58.279 C 41.357,57.904 41.14,57.576 40.857,57.297 C 40.574,57.018 40.224,56.799 39.809,56.639 C 39.393,56.479 38.921,56.399 38.393,56.399 C 38.103,56.399 37.808,56.429 37.507,56.489 C 37.207,56.548 36.916,56.632 36.635,56.741 C 36.354,56.85 36.089,56.979 35.842,57.128 C 35.595,57.277 35.38,57.443 35.196,57.627 L 35.836,58.637 C 35.883,58.714 35.949,58.775 36.034,58.822 C 36.119,58.869 36.211,58.893 36.309,58.893 C 36.437,58.893 36.566,58.852 36.696,58.771 C 36.825,58.69 36.973,58.601 37.137,58.503 C 37.301,58.405 37.489,58.315 37.702,58.234 C 37.915,58.153 38.167,58.113 38.457,58.113 C 38.849,58.113 39.153,58.199 39.371,58.371 C 39.588,58.544 39.697,58.818 39.697,59.193 C 39.697,59.411 39.637,59.587 39.518,59.724 C 39.398,59.86 39.242,59.973 39.048,60.063 C 38.854,60.152 38.633,60.231 38.386,60.299 C 38.139,60.367 37.886,60.443 37.626,60.526 C 37.366,60.609 37.112,60.711 36.865,60.833 C 36.618,60.954 36.397,61.114 36.203,61.312 C 36.009,61.511 35.853,61.758 35.733,62.054 C 35.614,62.35 35.554,62.716 35.554,63.151 C 35.554,63.5 35.625,63.841 35.765,64.174 C 35.906,64.506 36.113,64.802 36.385,65.062 C 36.658,65.322 36.993,65.53 37.389,65.686 C 37.785,65.841 38.239,65.919 38.751,65.919 C 39.036,65.919 39.314,65.897 39.585,65.852 C 39.855,65.807 40.112,65.741 40.355,65.653 C 40.598,65.566 40.825,65.462 41.036,65.34 C 41.247,65.219 41.435,65.081 41.602,64.928 L 41.065,63.924 Z" marker-start="none" marker-end="none"/>
       <path d="M 49.566,65.819 L 49.566,64.105 L 46.945,64.105 L 46.945,56.504 L 44.785,56.504 L 44.785,64.105 L 42.164,64.105 L 42.164,65.819 L 49.566,65.819 Z" marker-start="none" marker-end="none"/>
       <path d="M 52.624,59.948 L 52.624,56.502 L 50.463,56.502 L 50.463,65.816 L 53.493,65.816 C 54.166,65.816 54.741,65.747 55.216,65.608 C 55.691,65.469 56.079,65.276 56.379,65.029 C 56.68,64.781 56.898,64.489 57.034,64.152 C 57.171,63.815 57.239,63.448 57.239,63.051 C 57.239,62.748 57.199,62.462 57.118,62.193 C 57.037,61.925 56.916,61.676 56.756,61.448 C 56.597,61.219 56.401,61.016 56.168,60.836 C 55.936,60.657 55.669,60.51 55.366,60.395 C 55.511,60.323 55.646,60.233 55.772,60.127 C 55.898,60.02 56.007,59.891 56.101,59.737 L 58.083,56.502 L 56.127,56.502 C 55.765,56.502 55.505,56.638 55.347,56.911 L 53.8,59.615 C 53.732,59.735 53.652,59.82 53.56,59.871 C 53.469,59.922 53.34,59.948 53.173,59.948 L 52.624,59.948 Z M 52.624,61.437 L 53.493,61.437 C 53.787,61.437 54.038,61.474 54.244,61.549 C 54.451,61.623 54.62,61.727 54.752,61.859 C 54.884,61.991 54.98,62.145 55.04,62.322 C 55.1,62.499 55.13,62.69 55.13,62.895 C 55.13,63.304 54.996,63.624 54.73,63.854 C 54.464,64.084 54.051,64.199 53.493,64.199 L 52.624,64.199 L 52.624,61.437 Z" marker-start="none" marker-end="none"/>
       <path d="M 61.331,56.502 L 59.158,56.502 L 59.158,65.819 L 61.331,65.819 L 61.331,56.502 Z" marker-start="none" marker-end="none"/>
       <path d="M 63.055,56.502 L 63.055,65.816 L 66.481,65.816 C 67.125,65.816 67.673,65.756 68.124,65.637 C 68.576,65.518 68.945,65.349 69.23,65.132 C 69.516,64.915 69.723,64.651 69.853,64.34 C 69.983,64.029 70.048,63.681 70.048,63.298 C 70.048,63.089 70.019,62.888 69.959,62.694 C 69.899,62.5 69.805,62.318 69.678,62.148 C 69.55,61.977 69.386,61.823 69.185,61.684 C 68.985,61.546 68.744,61.425 68.463,61.323 C 69.077,61.174 69.531,60.932 69.825,60.597 C 70.119,60.263 70.266,59.833 70.266,59.309 C 70.266,58.912 70.189,58.544 70.036,58.203 C 69.882,57.862 69.657,57.564 69.361,57.311 C 69.065,57.057 68.7,56.859 68.265,56.716 C 67.83,56.573 67.334,56.502 66.775,56.502 L 63.055,56.502 Z M 65.216,60.454 L 65.216,58.131 L 66.737,58.131 C 67.023,58.131 67.256,58.168 67.437,58.24 C 67.618,58.313 67.76,58.406 67.862,58.521 C 67.964,58.637 68.035,58.767 68.073,58.912 C 68.111,59.057 68.131,59.204 68.131,59.353 C 68.131,59.524 68.108,59.677 68.064,59.814 C 68.019,59.95 67.942,60.066 67.833,60.159 C 67.725,60.253 67.581,60.326 67.402,60.377 C 67.223,60.428 66.997,60.454 66.724,60.454 L 65.216,60.454 Z M 65.216,61.899 L 66.341,61.899 C 66.579,61.899 66.795,61.916 66.986,61.95 C 67.178,61.984 67.341,62.044 67.475,62.129 C 67.61,62.214 67.712,62.331 67.782,62.48 C 67.853,62.629 67.888,62.817 67.888,63.042 C 67.888,63.264 67.86,63.448 67.805,63.595 C 67.749,63.742 67.664,63.86 67.549,63.95 C 67.434,64.039 67.288,64.103 67.111,64.142 C 66.934,64.18 66.724,64.199 66.481,64.199 L 65.216,64.199 L 65.216,61.899 Z" marker-start="none" marker-end="none"/>
       <path d="M 75.313,58.209 C 75.603,58.209 75.862,58.257 76.09,58.353 C 76.318,58.449 76.51,58.586 76.668,58.766 C 76.826,58.945 76.946,59.163 77.029,59.421 C 77.112,59.679 77.154,59.972 77.154,60.3 L 77.154,65.817 L 79.315,65.817 L 79.315,60.299 C 79.315,59.728 79.222,59.204 79.036,58.726 C 78.851,58.249 78.586,57.838 78.241,57.492 C 77.895,57.147 77.476,56.879 76.981,56.687 C 76.487,56.495 75.931,56.399 75.313,56.399 C 74.691,56.399 74.132,56.495 73.638,56.687 C 73.144,56.879 72.724,57.147 72.379,57.492 C 72.034,57.838 71.769,58.249 71.586,58.726 C 71.403,59.204 71.311,59.728 71.311,60.299 L 71.311,65.817 L 73.472,65.817 L 73.472,60.306 C 73.472,59.978 73.513,59.685 73.597,59.427 C 73.68,59.169 73.8,58.95 73.958,58.769 C 74.115,58.588 74.308,58.449 74.536,58.353 C 74.764,58.257 75.023,58.209 75.313,58.209 Z" marker-start="none" marker-end="none"/>
       <path d="M 87.485,65.819 L 87.485,64.105 L 84.864,64.105 L 84.864,56.504 L 82.704,56.504 L 82.704,64.105 L 80.083,64.105 L 80.083,65.819 L 87.485,65.819 Z" marker-start="none" marker-end="none"/>
       <path d="M 90.747,56.502 L 88.574,56.502 L 88.574,65.819 L 90.747,65.819 L 90.747,56.502 Z" marker-start="none" marker-end="none"/>
       <path d="M 101.663,61.162 C 101.663,60.489 101.547,59.862 101.315,59.283 C 101.083,58.703 100.756,58.199 100.334,57.77 C 99.912,57.342 99.404,57.006 98.809,56.763 C 98.215,56.52 97.555,56.399 96.831,56.399 C 96.106,56.399 95.446,56.52 94.849,56.763 C 94.252,57.006 93.742,57.342 93.318,57.77 C 92.894,58.199 92.566,58.703 92.334,59.283 C 92.101,59.862 91.985,60.489 91.985,61.162 C 91.985,61.836 92.101,62.462 92.334,63.042 C 92.566,63.622 92.894,64.124 93.318,64.551 C 93.742,64.977 94.252,65.312 94.849,65.555 C 95.446,65.797 96.106,65.919 96.831,65.919 C 97.555,65.919 98.215,65.796 98.809,65.551 C 99.404,65.306 99.912,64.971 100.334,64.544 C 100.756,64.118 101.083,63.615 101.315,63.035 C 101.547,62.456 101.663,61.831 101.663,61.162 Z M 99.452,61.162 C 99.452,61.622 99.392,62.036 99.273,62.405 C 99.153,62.773 98.982,63.086 98.758,63.341 C 98.534,63.597 98.26,63.793 97.937,63.929 C 97.613,64.065 97.244,64.133 96.831,64.134 C 96.413,64.133 96.041,64.065 95.715,63.929 C 95.389,63.793 95.114,63.597 94.891,63.341 C 94.667,63.086 94.495,62.773 94.376,62.405 C 94.257,62.036 94.197,61.622 94.197,61.162 C 94.197,60.698 94.257,60.281 94.376,59.913 C 94.495,59.544 94.667,59.232 94.891,58.977 C 95.114,58.721 95.389,58.526 95.715,58.392 C 96.041,58.258 96.413,58.191 96.831,58.191 C 97.244,58.191 97.613,58.258 97.937,58.392 C 98.26,58.526 98.534,58.721 98.758,58.977 C 98.982,59.232 99.153,59.544 99.273,59.913 C 99.392,60.281 99.452,60.698 99.452,61.162 Z" marker-start="none" marker-end="none"/>
       <path d="M 103.835,65.819 C 103.929,65.819 104.008,65.815 104.071,65.806 C 104.135,65.798 104.193,65.782 104.244,65.758 C 104.295,65.735 104.344,65.702 104.391,65.659 C 104.438,65.616 104.491,65.559 104.551,65.487 L 108.974,59.893 C 108.957,60.072 108.945,60.246 108.936,60.414 C 108.928,60.582 108.923,60.741 108.923,60.891 L 108.923,65.819 L 110.828,65.819 L 110.828,56.502 L 109.703,56.502 C 109.537,56.502 109.396,56.528 109.281,56.579 C 109.166,56.63 109.055,56.724 108.949,56.86 L 104.557,62.409 C 104.57,62.247 104.581,62.088 104.589,61.932 C 104.598,61.777 104.602,61.631 104.602,61.494 L 104.602,56.502 L 102.697,56.502 L 102.697,65.819 L 103.835,65.819 Z" marker-start="none" marker-end="none"/>
      </g>
     </g>
     <g id="Group_25" fill-rule="nonzero" stroke-linejoin="round" stroke-linecap="round" stroke="none" stroke-width="0.365" fill="#000000" stroke-miterlimit="79.8403193612775">
      <g id="Group_26">
       <path d="M 61.834,35.553 C 61.76,35.435 61.683,35.347 61.603,35.289 C 61.522,35.23 61.418,35.201 61.291,35.201 C 61.179,35.201 61.058,35.236 60.929,35.307 C 60.799,35.378 60.653,35.457 60.489,35.545 C 60.325,35.633 60.139,35.713 59.929,35.783 C 59.719,35.854 59.479,35.89 59.211,35.89 C 58.747,35.89 58.401,35.791 58.174,35.593 C 57.947,35.395 57.833,35.128 57.833,34.791 C 57.833,34.575 57.902,34.397 58.038,34.256 C 58.175,34.114 58.355,33.992 58.577,33.889 C 58.799,33.787 59.053,33.693 59.339,33.607 C 59.625,33.522 59.916,33.426 60.214,33.321 C 60.512,33.216 60.804,33.093 61.09,32.951 C 61.376,32.81 61.63,32.629 61.852,32.409 C 62.074,32.189 62.254,31.922 62.39,31.607 C 62.527,31.292 62.596,30.912 62.596,30.467 C 62.596,29.974 62.51,29.512 62.339,29.082 C 62.168,28.652 61.92,28.278 61.595,27.958 C 61.271,27.638 60.87,27.386 60.394,27.203 C 59.918,27.02 59.377,26.928 58.771,26.928 C 58.439,26.928 58.101,26.962 57.756,27.031 C 57.412,27.099 57.078,27.195 56.756,27.32 C 56.434,27.445 56.131,27.592 55.848,27.763 C 55.564,27.934 55.318,28.125 55.108,28.335 L 55.84,29.493 C 55.894,29.581 55.97,29.652 56.067,29.705 C 56.165,29.759 56.27,29.786 56.382,29.786 C 56.529,29.786 56.677,29.74 56.826,29.647 C 56.975,29.554 57.143,29.451 57.331,29.339 C 57.519,29.227 57.735,29.124 57.98,29.031 C 58.224,28.938 58.512,28.892 58.844,28.892 C 59.294,28.892 59.643,28.991 59.892,29.189 C 60.141,29.386 60.266,29.701 60.266,30.13 C 60.266,30.38 60.197,30.582 60.06,30.739 C 59.924,30.895 59.744,31.024 59.522,31.127 C 59.3,31.23 59.047,31.32 58.764,31.398 C 58.48,31.476 58.19,31.563 57.892,31.658 C 57.594,31.753 57.303,31.871 57.02,32.01 C 56.737,32.149 56.484,32.332 56.262,32.56 C 56.039,32.787 55.86,33.07 55.723,33.41 C 55.586,33.749 55.518,34.168 55.518,34.666 C 55.518,35.067 55.598,35.458 55.76,35.839 C 55.921,36.22 56.158,36.559 56.47,36.857 C 56.783,37.155 57.166,37.394 57.621,37.572 C 58.075,37.75 58.595,37.839 59.181,37.839 C 59.509,37.839 59.827,37.814 60.137,37.762 C 60.448,37.711 60.742,37.635 61.02,37.535 C 61.299,37.435 61.559,37.315 61.801,37.176 C 62.042,37.037 62.259,36.879 62.449,36.703 L 61.834,35.553 Z" marker-start="none" marker-end="none"/>
       <path d="M 73.146,27.046 L 70.655,27.046 L 70.655,31.561 L 66.317,31.561 L 66.317,27.046 L 63.826,27.046 L 63.826,37.725 L 66.317,37.725 L 66.317,33.26 L 70.655,33.26 L 70.655,37.725 L 73.146,37.725 L 73.146,27.046 Z" marker-start="none" marker-end="none"/>
       <path d="M 77.613,27.046 L 75.122,27.046 L 75.122,37.725 L 77.613,37.725 L 77.613,27.046 Z" marker-start="none" marker-end="none"/>
       <path d="M 82.066,30.616 L 82.066,27.048 L 79.589,27.048 L 79.589,37.725 L 83.355,37.725 C 84.107,37.725 84.753,37.636 85.293,37.457 C 85.833,37.279 86.277,37.034 86.627,36.721 C 86.976,36.408 87.233,36.039 87.4,35.614 C 87.566,35.189 87.649,34.73 87.649,34.237 C 87.649,33.704 87.563,33.215 87.392,32.771 C 87.221,32.326 86.96,31.945 86.608,31.628 C 86.257,31.31 85.811,31.062 85.271,30.884 C 84.731,30.706 84.093,30.616 83.355,30.616 L 82.066,30.616 Z M 82.066,32.484 L 83.355,32.484 C 84,32.484 84.464,32.638 84.747,32.946 C 85.031,33.254 85.172,33.684 85.172,34.236 C 85.172,34.481 85.136,34.704 85.062,34.904 C 84.989,35.104 84.878,35.276 84.729,35.421 C 84.58,35.565 84.392,35.676 84.165,35.754 C 83.938,35.833 83.668,35.872 83.355,35.872 L 82.066,35.872 L 82.066,32.484 Z" marker-start="none" marker-end="none"/>
       <path d="M 91.418,30.616 L 91.418,27.048 L 88.941,27.048 L 88.941,37.725 L 92.707,37.725 C 93.459,37.725 94.105,37.636 94.645,37.457 C 95.185,37.279 95.629,37.034 95.979,36.721 C 96.328,36.408 96.585,36.039 96.752,35.614 C 96.918,35.189 97.001,34.73 97.001,34.237 C 97.001,33.704 96.915,33.215 96.744,32.771 C 96.573,32.326 96.312,31.945 95.96,31.628 C 95.609,31.31 95.163,31.062 94.623,30.884 C 94.083,30.706 93.445,30.616 92.707,30.616 L 91.418,30.616 Z M 91.418,32.484 L 92.707,32.484 C 93.352,32.484 93.816,32.638 94.099,32.946 C 94.383,33.254 94.524,33.684 94.524,34.236 C 94.524,34.481 94.488,34.704 94.414,34.904 C 94.341,35.104 94.23,35.276 94.081,35.421 C 93.932,35.565 93.744,35.676 93.517,35.754 C 93.29,35.833 93.02,35.872 92.707,35.872 L 91.418,35.872 L 91.418,32.484 Z" marker-start="none" marker-end="none"/>
       <path d="M 101.004,27.046 L 98.513,27.046 L 98.513,37.725 L 101.004,37.725 L 101.004,27.046 Z" marker-start="none" marker-end="none"/>
       <path d="M 104.284,37.725 C 104.392,37.725 104.482,37.72 104.555,37.71 C 104.629,37.701 104.695,37.682 104.753,37.655 C 104.812,37.628 104.868,37.59 104.922,37.542 C 104.976,37.493 105.037,37.427 105.105,37.344 L 110.175,30.933 C 110.156,31.138 110.141,31.337 110.131,31.53 C 110.121,31.723 110.116,31.905 110.116,32.076 L 110.116,37.725 L 112.3,37.725 L 112.3,27.046 L 111.01,27.046 C 110.82,27.046 110.659,27.075 110.527,27.134 C 110.395,27.193 110.268,27.3 110.146,27.456 L 105.112,33.816 C 105.127,33.63 105.139,33.448 105.149,33.27 C 105.159,33.092 105.164,32.925 105.164,32.768 L 105.164,27.046 L 102.98,27.046 L 102.98,37.725 L 104.284,37.725 Z" marker-start="none" marker-end="none"/>
       <path d="M 119.082,28.835 C 119.424,28.835 119.727,28.863 119.991,28.921 C 120.255,28.979 120.504,29.056 120.738,29.152 L 120.738,30.774 L 119.683,30.774 C 119.527,30.774 119.405,30.815 119.317,30.898 C 119.229,30.981 119.185,31.087 119.185,31.214 L 119.185,32.577 L 122.98,32.577 L 122.98,28.071 C 122.707,27.871 122.422,27.699 122.127,27.554 C 121.831,27.41 121.516,27.292 121.182,27.199 C 120.847,27.106 120.49,27.038 120.112,26.994 C 119.733,26.95 119.327,26.928 118.892,26.928 C 118.11,26.928 117.387,27.066 116.723,27.342 C 116.059,27.618 115.484,27.999 114.998,28.485 C 114.512,28.971 114.131,29.548 113.855,30.215 C 113.579,30.882 113.441,31.606 113.441,32.387 C 113.441,33.184 113.573,33.915 113.836,34.582 C 114.1,35.249 114.478,35.824 114.968,36.308 C 115.459,36.791 116.053,37.168 116.749,37.436 C 117.445,37.705 118.223,37.839 119.082,37.839 C 119.527,37.839 119.945,37.803 120.335,37.729 C 120.726,37.656 121.086,37.556 121.416,37.428 C 121.746,37.301 122.047,37.15 122.321,36.974 C 122.594,36.798 122.839,36.607 123.054,36.401 L 122.335,35.31 C 122.267,35.207 122.185,35.126 122.09,35.068 C 121.995,35.009 121.891,34.98 121.779,34.98 C 121.632,34.98 121.481,35.029 121.324,35.126 C 121.129,35.243 120.945,35.345 120.771,35.43 C 120.598,35.516 120.421,35.585 120.24,35.639 C 120.059,35.693 119.869,35.732 119.669,35.756 C 119.468,35.781 119.244,35.793 118.994,35.793 C 118.53,35.793 118.113,35.711 117.742,35.548 C 117.37,35.384 117.054,35.153 116.793,34.856 C 116.531,34.558 116.33,34.2 116.188,33.783 C 116.047,33.365 115.976,32.9 115.976,32.387 C 115.976,31.821 116.054,31.318 116.21,30.878 C 116.367,30.439 116.583,30.068 116.859,29.765 C 117.135,29.462 117.462,29.232 117.84,29.073 C 118.219,28.914 118.633,28.835 119.082,28.835 Z" marker-start="none" marker-end="none"/>
       <path d="M 124.107,28.336 C 124.107,28.492 124.137,28.638 124.195,28.772 C 124.254,28.907 124.338,29.024 124.448,29.124 C 124.558,29.224 124.687,29.303 124.836,29.362 C 124.985,29.421 125.153,29.45 125.338,29.45 C 125.558,29.45 125.748,29.412 125.91,29.336 C 126.071,29.261 126.205,29.158 126.313,29.029 C 126.42,28.899 126.499,28.75 126.551,28.582 C 126.602,28.413 126.628,28.236 126.628,28.05 C 126.628,27.806 126.589,27.546 126.51,27.27 C 126.432,26.994 126.316,26.717 126.162,26.438 C 126.009,26.16 125.817,25.886 125.587,25.617 C 125.358,25.349 125.094,25.104 124.796,24.885 L 124.4,25.236 C 124.347,25.29 124.306,25.34 124.279,25.387 C 124.253,25.433 124.239,25.49 124.239,25.559 C 124.239,25.608 124.256,25.66 124.29,25.716 C 124.325,25.773 124.366,25.823 124.415,25.867 C 124.474,25.925 124.542,25.996 124.62,26.079 C 124.698,26.162 124.776,26.255 124.855,26.358 C 124.933,26.46 125.005,26.573 125.071,26.695 C 125.137,26.817 125.187,26.946 125.221,27.083 C 125.05,27.098 124.896,27.139 124.759,27.208 C 124.623,27.276 124.507,27.367 124.411,27.479 C 124.316,27.591 124.242,27.719 124.188,27.864 C 124.134,28.008 124.107,28.165 124.107,28.336 Z" marker-start="none" marker-end="none"/>
       <path d="M 133.481,27.046 L 130.99,27.046 L 130.99,37.725 L 133.481,37.725 L 133.481,27.046 Z" marker-start="none" marker-end="none"/>
       <path d="M 136.761,37.725 C 136.869,37.725 136.959,37.72 137.032,37.71 C 137.106,37.701 137.172,37.682 137.23,37.655 C 137.289,37.628 137.345,37.59 137.399,37.542 C 137.453,37.493 137.514,37.427 137.582,37.344 L 142.652,30.933 C 142.633,31.138 142.618,31.337 142.608,31.53 C 142.598,31.723 142.593,31.905 142.593,32.076 L 142.593,37.725 L 144.777,37.725 L 144.777,27.046 L 143.487,27.046 C 143.297,27.046 143.136,27.075 143.004,27.134 C 142.872,27.193 142.745,27.3 142.623,27.456 L 137.589,33.816 C 137.604,33.63 137.616,33.448 137.626,33.27 C 137.636,33.092 137.641,32.925 137.641,32.768 L 137.641,27.046 L 135.457,27.046 L 135.457,37.725 L 136.761,37.725 Z" marker-start="none" marker-end="none"/>
       <path d="M 153.706,29.806 C 153.765,29.806 153.823,29.795 153.882,29.773 C 153.941,29.75 153.997,29.712 154.05,29.657 L 155.032,28.602 C 154.602,28.049 154.064,27.631 153.417,27.35 C 152.77,27.069 152.004,26.928 151.12,26.928 C 150.309,26.928 149.582,27.066 148.94,27.342 C 148.298,27.618 147.753,27.999 147.306,28.485 C 146.859,28.971 146.516,29.548 146.277,30.215 C 146.037,30.882 145.918,31.606 145.918,32.387 C 145.918,33.184 146.055,33.915 146.328,34.582 C 146.602,35.249 146.984,35.824 147.475,36.308 C 147.966,36.791 148.553,37.168 149.237,37.436 C 149.921,37.705 150.675,37.839 151.501,37.839 C 151.901,37.839 152.279,37.804 152.633,37.733 C 152.987,37.662 153.318,37.564 153.626,37.439 C 153.933,37.315 154.217,37.166 154.475,36.992 C 154.734,36.818 154.964,36.626 155.164,36.416 L 154.329,35.295 C 154.275,35.226 154.212,35.164 154.138,35.108 C 154.065,35.052 153.963,35.024 153.831,35.024 C 153.743,35.024 153.66,35.043 153.582,35.082 C 153.503,35.121 153.42,35.169 153.332,35.225 C 153.245,35.281 153.148,35.342 153.043,35.408 C 152.938,35.474 152.813,35.535 152.669,35.592 C 152.525,35.648 152.357,35.695 152.164,35.735 C 151.971,35.773 151.745,35.793 151.486,35.793 C 151.037,35.793 150.626,35.714 150.255,35.555 C 149.884,35.396 149.565,35.169 149.299,34.873 C 149.033,34.578 148.825,34.22 148.676,33.8 C 148.527,33.38 148.453,32.908 148.453,32.386 C 148.453,31.838 148.527,31.352 148.676,30.927 C 148.825,30.502 149.028,30.145 149.284,29.854 C 149.541,29.563 149.84,29.342 150.182,29.191 C 150.524,29.039 150.89,28.964 151.281,28.964 C 151.506,28.964 151.711,28.975 151.896,28.997 C 152.082,29.019 152.254,29.056 152.413,29.11 C 152.572,29.164 152.723,29.233 152.867,29.319 C 153.011,29.404 153.157,29.511 153.303,29.638 C 153.362,29.687 153.425,29.727 153.494,29.759 C 153.562,29.79 153.633,29.806 153.706,29.806 Z" marker-start="none" marker-end="none"/>
       <path d="M 155.725,28.196 C 155.725,28.372 155.758,28.536 155.824,28.687 C 155.889,28.839 155.98,28.971 156.095,29.083 C 156.209,29.196 156.345,29.285 156.501,29.351 C 156.658,29.417 156.829,29.45 157.014,29.45 C 157.195,29.45 157.363,29.417 157.52,29.351 C 157.676,29.285 157.813,29.196 157.93,29.083 C 158.047,28.971 158.139,28.839 158.205,28.687 C 158.271,28.536 158.304,28.372 158.304,28.196 C 158.304,28.02 158.271,27.855 158.205,27.701 C 158.139,27.547 158.047,27.414 157.93,27.302 C 157.813,27.189 157.676,27.101 157.52,27.038 C 157.363,26.974 157.195,26.942 157.014,26.942 C 156.829,26.942 156.658,26.974 156.501,27.038 C 156.345,27.101 156.209,27.189 156.095,27.302 C 155.98,27.414 155.889,27.547 155.824,27.701 C 155.758,27.855 155.725,28.02 155.725,28.196 Z" marker-start="none" marker-end="none"/>
      </g>
     </g>
    </g>
   </g>
  </g>
 </g>
</svg>
