<?xml version="1.0" standalone="no"?>
<!DOCTYPE svg PUBLIC "-//W3C//DTD SVG 1.1//EN" "http://www.w3.org/Graphics/SVG/1.1/DTD/svg11.dtd">
<!--Generator: Xara Designer (www.xara.com), SVG filter version: 6.2.0.0-->
<svg stroke-width="0.501" stroke-linejoin="bevel" fill-rule="evenodd" xmlns:xlink="http://www.w3.org/1999/xlink" xmlns="http://www.w3.org/2000/svg" version="1.1" overflow="visible" width="215.434pt" height="215.434pt" viewBox="0 0 215.434 215.434">
 <defs>
	</defs>
 <g id="Document" fill="none" stroke="black" font-family="Times New Roman" font-size="16" transform="scale(1 -1)">
  <g id="Spread" transform="translate(0 -215.434)">
   <g id="Layer 1">
    <g id="Group">
     <path d="M 199.757,214.933 L 15.176,214.933 C 6.799,214.933 0,208.134 0,199.757 L 0,15.176 C 0,6.799 6.799,0 15.176,0 L 199.757,0 C 208.134,0 214.933,6.799 214.933,15.176 L 214.933,199.757 C 214.933,208.134 208.134,214.933 199.757,214.933 Z" stroke="#999999" fill="#ffffff" stroke-linejoin="miter" marker-start="none" marker-end="none"/>
     <g id="Group_1" stroke="#30336b" stroke-linejoin="miter" stroke-linecap="round">
      <path d="M 15.549,68.362 L 15.549,34.47 L 119.137,34.47 L 119.137,68.362 L 15.549,68.362 Z" fill="#30336b" stroke-width="1.738" marker-start="none" marker-end="none" stroke-miterlimit="79.8403193612775"/>
      <path d="M 15.549,69.705 L 15.549,59.895 C 15.549,57.324 17.633,55.247 20.195,55.247 L 114.487,55.247 C 117.049,55.247 119.137,57.324 119.137,59.895 L 119.137,69.705 C 119.137,72.281 117.049,74.359 114.487,74.359 L 20.195,74.359 C 17.633,74.359 15.549,72.281 15.549,69.705 Z" fill="#30336b" stroke-width="1.738" marker-start="none" marker-end="none" stroke-miterlimit="79.8403193612775"/>
      <path d="M 16.246,40.812 L 16.246,23.167 C 16.246,18.554 19.99,14.808 24.608,14.808 L 191.654,14.808 C 196.267,14.808 200.015,18.554 200.015,23.167 L 200.015,40.812 C 200.015,45.43 196.267,49.178 191.654,49.178 L 24.608,49.178 C 19.99,49.178 16.246,45.43 16.246,40.812 Z" fill="#ffffff" stroke-width="3.13" marker-start="none" marker-end="none" stroke-miterlimit="79.8403193612775"/>
     </g>
     <g id="Group_2" stroke-linejoin="miter" stroke-miterlimit="79.8403193612775">
      <path d="M 59.5,101.396 C 53.6,108.374 54.479,118.834 61.474,124.743 C 68.456,130.635 78.909,129.756 84.813,122.769 C 90.722,115.777 89.836,105.323 82.839,99.418 C 75.857,93.523 65.4,94.402 59.5,101.396 Z" stroke="none" fill="#000000" stroke-width="0.686" marker-start="none" marker-end="none" stroke-miterlimit="19.9600798403194"/>
      <path d="M 60.278,102.005 C 54.387,109.003 55.259,119.462 62.252,125.355 C 69.241,131.264 79.693,130.381 85.609,123.388 C 91.506,116.406 90.621,105.954 83.627,100.049 C 76.648,94.143 66.184,95.022 60.278,102.005 Z" stroke="#b2b2b2" stroke-width="3.752" marker-start="none" marker-end="none" stroke-miterlimit="19.9600798403194"/>
     </g>
     <g id="Group_3" stroke-linejoin="miter" stroke-miterlimit="79.8403193612775">
      <path d="M 18.815,101.383 C 12.915,108.372 13.794,118.84 20.791,124.731 C 27.774,130.642 38.228,129.759 44.13,122.771 C 50.041,115.782 49.155,105.322 42.157,99.418 C 35.174,93.519 24.715,94.402 18.815,101.383 Z" stroke="none" fill="#ffffff" stroke-width="0.689" marker-start="none" marker-end="none" stroke-miterlimit="19.9600798403194"/>
      <path d="M 19.595,102.018 C 13.702,109.01 14.575,119.456 21.567,125.369 C 28.558,131.253 39.013,130.381 44.926,123.393 C 50.824,116.406 49.94,105.94 42.946,100.04 C 35.965,94.141 25.5,95.019 19.595,102.018 Z" stroke="#55bae6" stroke-width="3.752" marker-start="none" marker-end="none" stroke-miterlimit="19.9600798403194"/>
     </g>
     <g id="Group_4" stroke-linejoin="miter" stroke-miterlimit="79.8403193612775">
      <path d="M 21.355,158.033 C 12.458,168.573 13.783,184.359 24.335,193.243 C 34.866,202.157 50.631,200.825 59.532,190.287 C 68.446,179.747 67.11,163.973 56.556,155.07 C 46.025,146.174 30.253,147.505 21.355,158.033 Z" stroke="none" fill="#ffffff" stroke-width="1.039" marker-start="none" marker-end="none" stroke-miterlimit="19.9600798403194"/>
      <path d="M 22.532,158.99 C 13.645,169.535 14.961,185.288 25.505,194.205 C 36.048,203.078 51.815,201.763 60.732,191.225 C 69.626,180.688 68.293,164.905 57.746,156.008 C 47.218,147.112 31.437,148.436 22.532,158.99 Z" stroke="#55bae6" stroke-width="5.658" marker-start="none" marker-end="none" stroke-miterlimit="19.9600798403194"/>
     </g>
     <g id="Group_5" fill-rule="nonzero" stroke-linejoin="round" stroke-linecap="round" stroke="none" stroke-width="0.485" fill="#b2b2b2" stroke-miterlimit="79.8403193612775">
      <g id="Group_6">
       <path d="M 68.712,107.785 L 71.441,107.785 L 71.441,114.948 C 71.441,115.299 71.45,115.666 71.47,116.05 L 69.862,114.714 C 69.758,114.63 69.654,114.57 69.55,114.534 C 69.446,114.498 69.345,114.48 69.248,114.48 C 69.079,114.48 68.928,114.518 68.795,114.593 C 68.661,114.667 68.562,114.747 68.497,114.831 L 67.542,116.098 L 71.967,119.812 L 74.462,119.812 L 74.462,107.785 L 76.801,107.785 L 76.801,105.601 L 68.712,105.601 L 68.712,107.785 Z" marker-start="none" marker-end="none"/>
      </g>
     </g>
     <g id="Group_7" fill-rule="nonzero" stroke-linejoin="round" stroke-linecap="round" stroke="none" stroke-width="0.485" fill="#000000" stroke-miterlimit="79.8403193612775">
      <g id="Group_8">
       <path d="M 32.641,119.957 C 33.342,119.957 33.966,119.858 34.512,119.659 C 35.057,119.461 35.519,119.192 35.896,118.853 C 36.272,118.514 36.558,118.122 36.753,117.675 C 36.948,117.229 37.046,116.758 37.046,116.263 C 37.046,115.814 37,115.418 36.909,115.075 C 36.818,114.733 36.683,114.437 36.505,114.186 C 36.326,113.935 36.105,113.722 35.842,113.546 C 35.579,113.37 35.278,113.224 34.941,113.106 C 36.513,112.562 37.299,111.495 37.299,109.907 C 37.299,109.155 37.162,108.501 36.89,107.943 C 36.617,107.385 36.251,106.922 35.793,106.553 C 35.335,106.183 34.804,105.906 34.2,105.721 C 33.596,105.536 32.965,105.444 32.309,105.444 C 31.634,105.444 31.033,105.517 30.506,105.663 C 29.98,105.809 29.512,106.037 29.103,106.345 C 28.694,106.654 28.335,107.048 28.026,107.529 C 27.718,108.01 27.45,108.581 27.222,109.244 L 28.567,109.791 C 28.684,109.844 28.799,109.879 28.913,109.899 C 29.027,109.918 29.139,109.928 29.249,109.928 C 29.457,109.928 29.644,109.887 29.81,109.806 C 29.975,109.725 30.1,109.606 30.185,109.45 C 30.477,108.91 30.787,108.518 31.115,108.275 C 31.444,108.031 31.828,107.909 32.27,107.909 C 32.608,107.909 32.902,107.966 33.152,108.08 C 33.402,108.193 33.61,108.339 33.776,108.518 C 33.942,108.697 34.067,108.901 34.151,109.128 C 34.236,109.356 34.278,109.587 34.278,109.821 C 34.278,110.126 34.257,110.401 34.215,110.645 C 34.172,110.889 34.054,111.099 33.859,111.274 C 33.664,111.45 33.37,111.585 32.977,111.679 C 32.584,111.773 32.036,111.82 31.335,111.82 L 31.335,113.905 C 31.926,113.905 32.403,113.95 32.767,114.041 C 33.131,114.132 33.412,114.257 33.61,114.417 C 33.808,114.576 33.94,114.769 34.005,114.997 C 34.07,115.224 34.102,115.474 34.102,115.747 C 34.102,116.306 33.968,116.737 33.698,117.039 C 33.428,117.341 33.017,117.493 32.465,117.493 C 32.238,117.493 32.03,117.46 31.841,117.395 C 31.653,117.33 31.484,117.242 31.335,117.132 C 31.185,117.021 31.057,116.891 30.95,116.742 C 30.843,116.592 30.757,116.43 30.692,116.254 C 30.588,115.962 30.456,115.751 30.297,115.621 C 30.138,115.491 29.922,115.425 29.649,115.425 C 29.584,115.425 29.514,115.429 29.439,115.435 C 29.365,115.442 29.288,115.451 29.21,115.464 L 27.612,115.747 C 27.716,116.455 27.916,117.073 28.211,117.599 C 28.507,118.125 28.874,118.564 29.313,118.915 C 29.751,119.265 30.253,119.527 30.818,119.699 C 31.383,119.871 31.991,119.957 32.641,119.957 Z" marker-start="none" marker-end="none"/>
      </g>
     </g>
     <path d="M 214.917,102.79 L 214.917,94.256 L 165.754,94.256 L 165.754,102.791 L 214.917,102.79 Z" fill="#e5e5e5" stroke-linecap="round" stroke="none" stroke-width="0.103" stroke-linejoin="miter" marker-start="none" marker-end="none" stroke-miterlimit="79.8403193612775"/>
     <path d="M 115.312,123.022 C 127.579,109.583 144.393,102.754 161.266,102.751 L 161.266,94.271 C 142.094,94.277 122.981,102.027 109.047,117.296 C 96.674,130.857 90.572,147.934 90.577,164.957 L 99.063,164.957 C 99.056,149.975 104.425,134.948 115.312,123.022 Z" fill="#e5e5e5" stroke-linecap="round" stroke="none" stroke-width="0.541" stroke-linejoin="round" marker-start="none" marker-end="none" stroke-miterlimit="79.8403193612775"/>
     <path d="M 94.804,202.91 L 96.922,199.865 L 99.044,196.813 L 99.097,196.812 L 99.097,169.535 L 90.561,169.536 L 90.561,196.812 L 92.681,199.865 L 94.804,202.91 Z" fill="#e5e5e5" stroke-linecap="round" stroke="none" stroke-width="0.103" stroke-linejoin="miter" marker-start="none" marker-end="none" stroke-miterlimit="79.8403193612775"/>
     <g id="Group_9" fill="#ffcd36" stroke-linecap="round" stroke="none">
      <path d="M 106.354,202.914 L 108.474,199.867 L 110.595,196.812 L 106.354,196.812 L 102.113,196.816 L 104.235,199.868 L 106.354,202.914 Z M 110.618,196.812 L 110.619,169.535 L 102.084,169.535 L 102.084,196.812 L 110.618,196.812 Z" stroke-width="0.103" stroke-linejoin="miter" marker-start="none" marker-end="none" stroke-miterlimit="79.8403193612775"/>
      <path d="M 123.666,130.644 C 133.706,119.653 147.461,114.066 161.266,114.06 L 161.266,105.58 C 145.158,105.585 129.109,112.099 117.4,124.927 C 107.006,136.313 101.886,150.656 101.889,164.956 L 110.375,164.957 C 110.365,152.7 114.76,140.408 123.666,130.644 Z" stroke-width="0.453" stroke-linejoin="round" marker-start="none" marker-end="none" stroke-miterlimit="79.8403193612775"/>
      <path d="M 214.917,114.092 L 214.917,105.561 L 165.754,105.561 L 165.754,114.093 L 214.917,114.092 Z" stroke-width="0.103" stroke-linejoin="miter" marker-start="none" marker-end="none" stroke-miterlimit="79.8403193612775"/>
     </g>
     <g id="Group_10" fill="#00d702" stroke-linecap="round" stroke="none">
      <path d="M 117.67,202.914 L 119.785,199.868 L 121.907,196.812 L 117.666,196.812 L 113.423,196.816 L 115.543,199.868 L 117.67,202.914 Z M 121.917,196.812 L 121.916,169.535 L 113.381,169.535 L 113.381,196.812 L 121.917,196.812 Z" stroke-width="0.103" stroke-linejoin="miter" marker-start="none" marker-end="none" stroke-miterlimit="79.8403193612775"/>
      <path d="M 214.917,125.39 L 214.917,116.86 L 165.755,116.86 L 165.754,125.391 L 214.917,125.39 Z" stroke-width="0.103" stroke-linejoin="miter" marker-start="none" marker-end="none" stroke-miterlimit="79.8403193612775"/>
      <path d="M 132.021,138.271 C 139.828,129.719 150.533,125.38 161.266,125.373 L 161.265,116.888 C 148.224,116.892 135.234,122.165 125.755,132.554 C 117.344,141.769 113.196,153.385 113.198,164.957 L 121.68,164.957 C 121.68,155.424 125.094,145.86 132.021,138.271 Z" stroke-width="0.368" stroke-linejoin="round" marker-start="none" marker-end="none" stroke-miterlimit="79.8403193612775"/>
     </g>
     <g id="Group_11" fill="#11a7e0" stroke-linecap="round" stroke="none">
      <path d="M 214.917,136.687 L 214.917,128.153 L 165.753,128.153 L 165.754,136.687 L 214.917,136.687 Z" stroke-width="0.103" stroke-linejoin="miter" marker-start="none" marker-end="none" stroke-miterlimit="79.8403193612775"/>
      <path d="M 140.376,145.892 C 145.954,139.785 153.592,136.685 161.265,136.682 L 161.266,128.195 C 151.296,128.205 141.357,132.237 134.114,140.175 C 127.675,147.225 124.504,156.101 124.508,164.957 L 132.996,164.957 C 132.989,158.15 135.431,151.318 140.376,145.892 Z" stroke-width="0.281" stroke-linejoin="round" marker-start="none" marker-end="none" stroke-miterlimit="79.8403193612775"/>
      <path d="M 128.723,202.91 L 130.855,199.866 L 132.996,196.813 L 132.996,196.813 L 132.996,169.536 L 124.457,169.535 L 124.457,196.812 L 124.457,196.812 L 126.587,199.867 L 128.723,202.91 Z" stroke-width="0.103" stroke-linejoin="miter" marker-start="none" marker-end="none" stroke-miterlimit="79.8403193612775"/>
     </g>
     <g id="Group_12" stroke-linejoin="miter" stroke-miterlimit="79.8403193612775">
      <path d="M 153.514,158.48 C 144.617,169.02 145.942,184.806 156.494,193.689 C 167.025,202.604 182.79,201.272 191.691,190.735 C 200.605,180.194 199.269,164.42 188.716,155.517 C 178.184,146.621 162.412,147.952 153.514,158.48 Z" stroke="none" fill="#000000" stroke-width="1.039" marker-start="none" marker-end="none" stroke-miterlimit="19.9600798403194"/>
      <path d="M 154.691,159.437 C 145.804,169.982 147.12,185.734 157.664,194.652 C 168.208,203.524 183.974,202.21 192.891,191.673 C 201.785,181.135 200.452,165.352 189.905,156.455 C 179.377,147.559 163.596,148.883 154.691,159.437 Z" stroke="#b2b2b2" stroke-width="5.658" marker-start="none" marker-end="none" stroke-miterlimit="19.9600798403194"/>
     </g>
     <g id="Group_13" stroke-linejoin="miter" stroke-miterlimit="79.8403193612775">
      <path d="M 175.579,106.665 C 171.054,112.021 171.731,120.037 177.088,124.56 C 182.444,129.085 190.464,128.413 194.984,123.055 C 199.509,117.698 198.834,109.678 193.475,105.159 C 188.121,100.631 180.101,101.314 175.579,106.665 Z" stroke="none" fill="#ffffff" stroke-width="0.526" marker-start="none" marker-end="none" stroke-miterlimit="19.9600798403194"/>
      <path d="M 176.182,107.147 C 171.658,112.496 172.334,120.518 177.69,125.039 C 183.049,129.567 191.065,128.889 195.588,123.53 C 200.117,118.179 199.44,110.156 194.08,105.632 C 188.721,101.111 180.705,101.785 176.182,107.147 Z" fill="none" stroke="#55bae6" stroke-width="2.872" marker-start="none" marker-end="none" stroke-miterlimit="19.9600798403194"/>
     </g>
     <g id="Group_14" stroke-linejoin="miter" stroke-miterlimit="79.8403193612775">
      <path d="M 137.245,116.982 C 131.894,112.46 123.874,113.137 119.347,118.493 C 114.831,123.85 115.504,131.869 120.861,136.393 C 126.216,140.916 134.233,140.236 138.756,134.882 C 143.28,129.525 142.604,121.507 137.245,116.982 Z" stroke="none" fill="#ffffff" stroke-width="0.526" marker-start="none" marker-end="none" stroke-miterlimit="19.9600798403194"/>
      <path d="M 136.767,117.59 C 131.413,113.063 123.397,113.737 118.873,119.097 C 114.349,124.455 115.022,132.47 120.385,136.995 C 125.74,141.522 133.757,140.838 138.283,135.487 C 142.808,130.127 142.127,122.112 136.767,117.59 Z" fill="none" stroke="#55bae6" stroke-width="2.872" marker-start="none" marker-end="none" stroke-miterlimit="19.9600798403194"/>
     </g>
     <g id="Group_15" stroke-linejoin="miter" stroke-miterlimit="79.8403193612775">
      <path d="M 101.473,176.24 C 96.949,181.596 97.628,189.613 102.983,194.141 C 108.343,198.662 116.363,197.984 120.886,192.626 C 125.414,187.273 124.731,179.251 119.375,174.732 C 114.016,170.213 106,170.887 101.473,176.24 Z" stroke="none" fill="#ffffff" stroke-width="0.526" marker-start="none" marker-end="none" stroke-miterlimit="19.9600798403194"/>
      <path d="M 102.08,176.724 C 97.556,182.075 98.232,190.095 103.592,194.619 C 108.951,199.14 116.966,198.466 121.489,193.106 C 126.016,187.753 125.338,179.733 119.982,175.212 C 114.619,170.687 106.603,171.363 102.08,176.724 Z" fill="none" stroke="#55bae6" stroke-width="2.872" marker-start="none" marker-end="none" stroke-miterlimit="19.9600798403194"/>
     </g>
     <g id="Group_16" fill-rule="nonzero" stroke-linejoin="round" stroke-linecap="round" stroke="none" stroke-width="0.387" fill="#000000" stroke-miterlimit="79.8403193612775">
      <g id="Group_17">
       <path d="M 182.284,118.783 L 182.284,115.701 L 185.163,115.701 L 185.163,113.972 L 182.284,113.972 L 182.284,110.875 L 180.323,110.875 L 180.323,113.972 L 177.459,113.972 L 177.459,115.701 L 180.323,115.701 L 180.323,118.783 L 182.284,118.783 Z" marker-start="none" marker-end="none"/>
       <path d="M 187.794,111.35 L 189.973,111.35 L 189.973,117.07 C 189.973,117.351 189.981,117.644 189.996,117.95 L 188.712,116.883 C 188.629,116.816 188.546,116.768 188.463,116.739 C 188.38,116.711 188.3,116.697 188.222,116.697 C 188.087,116.697 187.967,116.726 187.86,116.786 C 187.754,116.846 187.675,116.909 187.623,116.977 L 186.86,117.989 L 190.393,120.954 L 192.386,120.954 L 192.386,111.35 L 194.253,111.35 L 194.253,109.606 L 187.794,109.606 L 187.794,111.35 Z" marker-start="none" marker-end="none"/>
      </g>
     </g>
     <g id="Group_18" fill-rule="nonzero" stroke-linejoin="round" stroke-linecap="round" stroke="none" stroke-width="0.387" fill="#000000" stroke-miterlimit="79.8403193612775">
      <g id="Group_19">
       <path d="M 124.255,130.19 L 124.255,127.108 L 127.134,127.108 L 127.134,125.379 L 124.255,125.379 L 124.255,122.282 L 122.294,122.282 L 122.294,125.379 L 119.43,125.379 L 119.43,127.108 L 122.294,127.108 L 122.294,130.19 L 124.255,130.19 Z" marker-start="none" marker-end="none"/>
       <path d="M 129.765,122.757 L 131.944,122.757 L 131.944,128.477 C 131.944,128.758 131.952,129.051 131.967,129.357 L 130.683,128.29 C 130.6,128.223 130.517,128.175 130.434,128.146 C 130.351,128.118 130.271,128.104 130.193,128.104 C 130.058,128.104 129.938,128.133 129.831,128.193 C 129.725,128.253 129.646,128.316 129.594,128.384 L 128.831,129.396 L 132.364,132.361 L 134.357,132.361 L 134.357,122.757 L 136.224,122.757 L 136.224,121.013 L 129.765,121.013 L 129.765,122.757 Z" marker-start="none" marker-end="none"/>
      </g>
     </g>
     <g id="Group_20" fill-rule="nonzero" stroke-linejoin="round" stroke-linecap="round" stroke="none" stroke-width="0.387" fill="#000000" stroke-miterlimit="79.8403193612775">
      <g id="Group_21">
       <path d="M 108.213,188.417 L 108.213,185.335 L 111.092,185.335 L 111.092,183.606 L 108.213,183.606 L 108.213,180.509 L 106.252,180.509 L 106.252,183.606 L 103.388,183.606 L 103.388,185.335 L 106.252,185.335 L 106.252,188.417 L 108.213,188.417 Z" marker-start="none" marker-end="none"/>
       <path d="M 113.723,180.984 L 115.902,180.984 L 115.902,186.704 C 115.902,186.985 115.91,187.278 115.925,187.584 L 114.641,186.517 C 114.558,186.45 114.475,186.402 114.392,186.373 C 114.309,186.345 114.229,186.331 114.151,186.331 C 114.016,186.331 113.896,186.36 113.789,186.42 C 113.683,186.48 113.604,186.543 113.552,186.611 L 112.789,187.623 L 116.322,190.588 L 118.315,190.588 L 118.315,180.984 L 120.182,180.984 L 120.182,179.24 L 113.723,179.24 L 113.723,180.984 Z" marker-start="none" marker-end="none"/>
      </g>
     </g>
     <g id="Group_22" fill-rule="nonzero" stroke-linejoin="round" stroke-linecap="round" stroke="none" stroke-width="0.319" fill="#ffffff" stroke-miterlimit="79.8403193612775">
      <g id="Group_23">
       <path d="M 30.747,61.164 C 30.747,60.49 30.631,59.869 30.398,59.3 C 30.166,58.731 29.839,58.238 29.417,57.823 C 28.995,57.407 28.487,57.083 27.893,56.851 C 27.298,56.618 26.639,56.502 25.914,56.502 L 22.296,56.502 L 22.296,65.819 L 25.914,65.819 C 26.639,65.819 27.298,65.702 27.893,65.467 C 28.487,65.233 28.995,64.909 29.417,64.495 C 29.839,64.082 30.166,63.59 30.398,63.021 C 30.631,62.452 30.747,61.833 30.747,61.164 Z M 28.535,61.164 C 28.535,61.624 28.475,62.039 28.356,62.41 C 28.237,62.781 28.065,63.095 27.841,63.353 C 27.618,63.611 27.344,63.809 27.02,63.948 C 26.696,64.086 26.328,64.155 25.914,64.155 L 24.47,64.155 L 24.47,58.166 L 25.914,58.166 C 26.328,58.166 26.696,58.235 27.02,58.373 C 27.344,58.512 27.618,58.71 27.841,58.968 C 28.065,59.226 28.237,59.54 28.356,59.911 C 28.475,60.282 28.535,60.699 28.535,61.164 Z" marker-start="none" marker-end="none"/>
       <path d="M 34.15,56.502 L 31.977,56.502 L 31.977,65.819 L 34.15,65.819 L 34.15,56.502 Z" marker-start="none" marker-end="none"/>
       <path d="M 41.065,63.924 C 41.001,63.821 40.934,63.745 40.863,63.694 C 40.793,63.642 40.702,63.617 40.592,63.617 C 40.494,63.617 40.388,63.648 40.275,63.71 C 40.162,63.771 40.034,63.841 39.892,63.917 C 39.749,63.994 39.586,64.063 39.403,64.125 C 39.219,64.187 39.011,64.218 38.776,64.218 C 38.371,64.218 38.07,64.132 37.872,63.959 C 37.674,63.786 37.574,63.553 37.574,63.259 C 37.574,63.071 37.634,62.916 37.753,62.792 C 37.873,62.669 38.029,62.562 38.223,62.472 C 38.417,62.383 38.639,62.301 38.888,62.226 C 39.137,62.152 39.392,62.069 39.652,61.977 C 39.912,61.885 40.167,61.778 40.416,61.654 C 40.665,61.531 40.887,61.373 41.081,61.181 C 41.275,60.989 41.431,60.756 41.551,60.481 C 41.67,60.206 41.73,59.875 41.73,59.487 C 41.73,59.056 41.655,58.654 41.506,58.279 C 41.357,57.904 41.14,57.576 40.857,57.297 C 40.574,57.018 40.224,56.799 39.809,56.639 C 39.393,56.479 38.921,56.399 38.393,56.399 C 38.103,56.399 37.808,56.429 37.507,56.489 C 37.207,56.548 36.916,56.632 36.635,56.741 C 36.354,56.85 36.089,56.979 35.842,57.128 C 35.595,57.277 35.38,57.443 35.196,57.627 L 35.836,58.637 C 35.883,58.714 35.949,58.775 36.034,58.822 C 36.119,58.869 36.211,58.893 36.309,58.893 C 36.437,58.893 36.566,58.852 36.696,58.771 C 36.825,58.69 36.973,58.601 37.137,58.503 C 37.301,58.405 37.489,58.315 37.702,58.234 C 37.915,58.153 38.167,58.113 38.457,58.113 C 38.849,58.113 39.153,58.199 39.371,58.371 C 39.588,58.544 39.697,58.818 39.697,59.193 C 39.697,59.411 39.637,59.587 39.518,59.724 C 39.398,59.86 39.242,59.973 39.048,60.063 C 38.854,60.152 38.633,60.231 38.386,60.299 C 38.139,60.367 37.886,60.443 37.626,60.526 C 37.366,60.609 37.112,60.711 36.865,60.833 C 36.618,60.954 36.397,61.114 36.203,61.312 C 36.009,61.511 35.853,61.758 35.733,62.054 C 35.614,62.35 35.554,62.716 35.554,63.151 C 35.554,63.5 35.625,63.841 35.765,64.174 C 35.906,64.506 36.113,64.802 36.385,65.062 C 36.658,65.322 36.993,65.53 37.389,65.686 C 37.785,65.841 38.239,65.919 38.751,65.919 C 39.036,65.919 39.314,65.897 39.585,65.852 C 39.855,65.807 40.112,65.741 40.355,65.653 C 40.598,65.566 40.825,65.462 41.036,65.34 C 41.247,65.219 41.435,65.081 41.602,64.928 L 41.065,63.924 Z" marker-start="none" marker-end="none"/>
       <path d="M 49.566,65.819 L 49.566,64.105 L 46.945,64.105 L 46.945,56.504 L 44.785,56.504 L 44.785,64.105 L 42.164,64.105 L 42.164,65.819 L 49.566,65.819 Z" marker-start="none" marker-end="none"/>
       <path d="M 52.624,59.948 L 52.624,56.502 L 50.463,56.502 L 50.463,65.816 L 53.493,65.816 C 54.166,65.816 54.741,65.747 55.216,65.608 C 55.691,65.469 56.079,65.276 56.379,65.029 C 56.68,64.781 56.898,64.489 57.034,64.152 C 57.171,63.815 57.239,63.448 57.239,63.051 C 57.239,62.748 57.199,62.462 57.118,62.193 C 57.037,61.925 56.916,61.676 56.756,61.448 C 56.597,61.219 56.401,61.016 56.168,60.836 C 55.936,60.657 55.669,60.51 55.366,60.395 C 55.511,60.323 55.646,60.233 55.772,60.127 C 55.898,60.02 56.007,59.891 56.101,59.737 L 58.083,56.502 L 56.127,56.502 C 55.765,56.502 55.505,56.638 55.347,56.911 L 53.8,59.615 C 53.732,59.735 53.652,59.82 53.56,59.871 C 53.469,59.922 53.34,59.948 53.173,59.948 L 52.624,59.948 Z M 52.624,61.437 L 53.493,61.437 C 53.787,61.437 54.038,61.474 54.244,61.549 C 54.451,61.623 54.62,61.727 54.752,61.859 C 54.884,61.991 54.98,62.145 55.04,62.322 C 55.1,62.499 55.13,62.69 55.13,62.895 C 55.13,63.304 54.996,63.624 54.73,63.854 C 54.464,64.084 54.051,64.199 53.493,64.199 L 52.624,64.199 L 52.624,61.437 Z" marker-start="none" marker-end="none"/>
       <path d="M 61.331,56.502 L 59.158,56.502 L 59.158,65.819 L 61.331,65.819 L 61.331,56.502 Z" marker-start="none" marker-end="none"/>
       <path d="M 63.055,56.502 L 63.055,65.816 L 66.481,65.816 C 67.125,65.816 67.673,65.756 68.124,65.637 C 68.576,65.518 68.945,65.349 69.23,65.132 C 69.516,64.915 69.723,64.651 69.853,64.34 C 69.983,64.029 70.048,63.681 70.048,63.298 C 70.048,63.089 70.019,62.888 69.959,62.694 C 69.899,62.5 69.805,62.318 69.678,62.148 C 69.55,61.977 69.386,61.823 69.185,61.684 C 68.985,61.546 68.744,61.425 68.463,61.323 C 69.077,61.174 69.531,60.932 69.825,60.597 C 70.119,60.263 70.266,59.833 70.266,59.309 C 70.266,58.912 70.189,58.544 70.036,58.203 C 69.882,57.862 69.657,57.564 69.361,57.311 C 69.065,57.057 68.7,56.859 68.265,56.716 C 67.83,56.573 67.334,56.502 66.775,56.502 L 63.055,56.502 Z M 65.216,60.454 L 65.216,58.131 L 66.737,58.131 C 67.023,58.131 67.256,58.168 67.437,58.24 C 67.618,58.313 67.76,58.406 67.862,58.521 C 67.964,58.637 68.035,58.767 68.073,58.912 C 68.111,59.057 68.131,59.204 68.131,59.353 C 68.131,59.524 68.108,59.677 68.064,59.814 C 68.019,59.95 67.942,60.066 67.833,60.159 C 67.725,60.253 67.581,60.326 67.402,60.377 C 67.223,60.428 66.997,60.454 66.724,60.454 L 65.216,60.454 Z M 65.216,61.899 L 66.341,61.899 C 66.579,61.899 66.795,61.916 66.986,61.95 C 67.178,61.984 67.341,62.044 67.475,62.129 C 67.61,62.214 67.712,62.331 67.782,62.48 C 67.853,62.629 67.888,62.817 67.888,63.042 C 67.888,63.264 67.86,63.448 67.805,63.595 C 67.749,63.742 67.664,63.86 67.549,63.95 C 67.434,64.039 67.288,64.103 67.111,64.142 C 66.934,64.18 66.724,64.199 66.481,64.199 L 65.216,64.199 L 65.216,61.899 Z" marker-start="none" marker-end="none"/>
       <path d="M 75.313,58.209 C 75.603,58.209 75.862,58.257 76.09,58.353 C 76.318,58.449 76.51,58.586 76.668,58.766 C 76.826,58.945 76.946,59.163 77.029,59.421 C 77.112,59.679 77.154,59.972 77.154,60.3 L 77.154,65.817 L 79.315,65.817 L 79.315,60.299 C 79.315,59.728 79.222,59.204 79.036,58.726 C 78.851,58.249 78.586,57.838 78.241,57.492 C 77.895,57.147 77.476,56.879 76.981,56.687 C 76.487,56.495 75.931,56.399 75.313,56.399 C 74.691,56.399 74.132,56.495 73.638,56.687 C 73.144,56.879 72.724,57.147 72.379,57.492 C 72.034,57.838 71.769,58.249 71.586,58.726 C 71.403,59.204 71.311,59.728 71.311,60.299 L 71.311,65.817 L 73.472,65.817 L 73.472,60.306 C 73.472,59.978 73.513,59.685 73.597,59.427 C 73.68,59.169 73.8,58.95 73.958,58.769 C 74.115,58.588 74.308,58.449 74.536,58.353 C 74.764,58.257 75.023,58.209 75.313,58.209 Z" marker-start="none" marker-end="none"/>
       <path d="M 87.485,65.819 L 87.485,64.105 L 84.864,64.105 L 84.864,56.504 L 82.704,56.504 L 82.704,64.105 L 80.083,64.105 L 80.083,65.819 L 87.485,65.819 Z" marker-start="none" marker-end="none"/>
       <path d="M 90.747,56.502 L 88.574,56.502 L 88.574,65.819 L 90.747,65.819 L 90.747,56.502 Z" marker-start="none" marker-end="none"/>
       <path d="M 101.663,61.162 C 101.663,60.489 101.547,59.862 101.315,59.283 C 101.083,58.703 100.756,58.199 100.334,57.77 C 99.912,57.342 99.404,57.006 98.809,56.763 C 98.215,56.52 97.555,56.399 96.831,56.399 C 96.106,56.399 95.446,56.52 94.849,56.763 C 94.252,57.006 93.742,57.342 93.318,57.77 C 92.894,58.199 92.566,58.703 92.334,59.283 C 92.101,59.862 91.985,60.489 91.985,61.162 C 91.985,61.836 92.101,62.462 92.334,63.042 C 92.566,63.622 92.894,64.124 93.318,64.551 C 93.742,64.977 94.252,65.312 94.849,65.555 C 95.446,65.797 96.106,65.919 96.831,65.919 C 97.555,65.919 98.215,65.796 98.809,65.551 C 99.404,65.306 99.912,64.971 100.334,64.544 C 100.756,64.118 101.083,63.615 101.315,63.035 C 101.547,62.456 101.663,61.831 101.663,61.162 Z M 99.452,61.162 C 99.452,61.622 99.392,62.036 99.273,62.405 C 99.153,62.773 98.982,63.086 98.758,63.341 C 98.534,63.597 98.26,63.793 97.937,63.929 C 97.613,64.065 97.244,64.133 96.831,64.134 C 96.413,64.133 96.041,64.065 95.715,63.929 C 95.389,63.793 95.114,63.597 94.891,63.341 C 94.667,63.086 94.495,62.773 94.376,62.405 C 94.257,62.036 94.197,61.622 94.197,61.162 C 94.197,60.698 94.257,60.281 94.376,59.913 C 94.495,59.544 94.667,59.232 94.891,58.977 C 95.114,58.721 95.389,58.526 95.715,58.392 C 96.041,58.258 96.413,58.191 96.831,58.191 C 97.244,58.191 97.613,58.258 97.937,58.392 C 98.26,58.526 98.534,58.721 98.758,58.977 C 98.982,59.232 99.153,59.544 99.273,59.913 C 99.392,60.281 99.452,60.698 99.452,61.162 Z" marker-start="none" marker-end="none"/>
       <path d="M 103.835,65.819 C 103.929,65.819 104.008,65.815 104.071,65.806 C 104.135,65.798 104.193,65.782 104.244,65.758 C 104.295,65.735 104.344,65.702 104.391,65.659 C 104.438,65.616 104.491,65.559 104.551,65.487 L 108.974,59.893 C 108.957,60.072 108.945,60.246 108.936,60.414 C 108.928,60.582 108.923,60.741 108.923,60.891 L 108.923,65.819 L 110.828,65.819 L 110.828,56.502 L 109.703,56.502 C 109.537,56.502 109.396,56.528 109.281,56.579 C 109.166,56.63 109.055,56.724 108.949,56.86 L 104.557,62.409 C 104.57,62.247 104.581,62.088 104.589,61.932 C 104.598,61.777 104.602,61.631 104.602,61.494 L 104.602,56.502 L 102.697,56.502 L 102.697,65.819 L 103.835,65.819 Z" marker-start="none" marker-end="none"/>
      </g>
     </g>
     <g id="Group_24" fill-rule="nonzero" stroke-linejoin="round" stroke-linecap="round" stroke="none" stroke-width="0.365" fill="#000000" stroke-miterlimit="79.8403193612775">
      <g id="Group_25">
       <path d="M 38.23,28.835 C 38.572,28.835 38.875,28.863 39.139,28.921 C 39.403,28.979 39.652,29.056 39.886,29.152 L 39.886,30.774 L 38.831,30.774 C 38.675,30.774 38.553,30.815 38.465,30.898 C 38.377,30.981 38.333,31.087 38.333,31.214 L 38.333,32.577 L 42.128,32.577 L 42.128,28.071 C 41.855,27.871 41.57,27.699 41.275,27.554 C 40.979,27.41 40.664,27.292 40.33,27.199 C 39.995,27.106 39.638,27.038 39.26,26.994 C 38.881,26.95 38.475,26.928 38.04,26.928 C 37.258,26.928 36.535,27.066 35.871,27.342 C 35.207,27.618 34.632,27.999 34.146,28.485 C 33.66,28.971 33.279,29.548 33.003,30.215 C 32.727,30.882 32.589,31.606 32.589,32.387 C 32.589,33.184 32.721,33.915 32.984,34.582 C 33.248,35.249 33.626,35.824 34.116,36.308 C 34.607,36.791 35.201,37.168 35.897,37.436 C 36.593,37.705 37.371,37.839 38.23,37.839 C 38.675,37.839 39.093,37.803 39.483,37.729 C 39.874,37.656 40.234,37.556 40.564,37.428 C 40.894,37.301 41.195,37.15 41.469,36.974 C 41.742,36.798 41.987,36.607 42.202,36.401 L 41.483,35.31 C 41.415,35.207 41.333,35.126 41.238,35.068 C 41.143,35.009 41.039,34.98 40.927,34.98 C 40.78,34.98 40.629,35.029 40.472,35.126 C 40.277,35.243 40.093,35.345 39.919,35.43 C 39.746,35.516 39.569,35.585 39.388,35.639 C 39.207,35.693 39.017,35.732 38.817,35.756 C 38.616,35.781 38.392,35.793 38.142,35.793 C 37.678,35.793 37.261,35.711 36.89,35.548 C 36.518,35.384 36.202,35.153 35.941,34.856 C 35.679,34.558 35.478,34.2 35.336,33.783 C 35.195,33.365 35.124,32.9 35.124,32.387 C 35.124,31.821 35.202,31.318 35.358,30.878 C 35.515,30.439 35.731,30.068 36.007,29.765 C 36.283,29.462 36.61,29.232 36.988,29.073 C 37.367,28.914 37.781,28.835 38.23,28.835 Z" marker-start="none" marker-end="none"/>
       <path d="M 46.113,30.996 L 46.113,27.046 L 43.636,27.046 L 43.636,37.721 L 47.109,37.721 C 47.881,37.721 48.539,37.642 49.084,37.483 C 49.628,37.324 50.073,37.103 50.417,36.819 C 50.762,36.535 51.012,36.2 51.168,35.814 C 51.324,35.428 51.403,35.007 51.403,34.552 C 51.403,34.205 51.356,33.877 51.263,33.569 C 51.171,33.261 51.033,32.976 50.849,32.714 C 50.666,32.453 50.442,32.219 50.175,32.014 C 49.909,31.809 49.603,31.64 49.256,31.508 C 49.422,31.425 49.577,31.322 49.721,31.2 C 49.865,31.079 49.991,30.93 50.098,30.754 L 52.37,27.046 L 50.128,27.046 C 49.713,27.046 49.415,27.202 49.234,27.515 L 47.461,30.615 C 47.383,30.751 47.291,30.849 47.186,30.908 C 47.081,30.966 46.933,30.996 46.743,30.996 L 46.113,30.996 Z M 46.113,32.702 L 47.109,32.702 C 47.446,32.702 47.733,32.745 47.97,32.83 C 48.207,32.916 48.401,33.034 48.552,33.186 C 48.704,33.337 48.814,33.514 48.882,33.717 C 48.951,33.92 48.985,34.139 48.985,34.373 C 48.985,34.842 48.832,35.209 48.527,35.472 C 48.222,35.736 47.749,35.868 47.109,35.868 L 46.113,35.868 L 46.113,32.702 Z" marker-start="none" marker-end="none"/>
       <path d="M 56.093,27.046 L 53.602,27.046 L 53.602,37.725 L 56.093,37.725 L 56.093,27.046 Z" marker-start="none" marker-end="none"/>
       <path d="M 67.755,32.389 C 67.755,31.617 67.622,30.905 67.356,30.253 C 67.09,29.6 66.715,29.036 66.231,28.56 C 65.748,28.083 65.165,27.712 64.484,27.446 C 63.802,27.179 63.047,27.046 62.216,27.046 L 58.069,27.046 L 58.069,37.725 L 62.216,37.725 C 63.047,37.725 63.802,37.59 64.484,37.322 C 65.165,37.053 65.748,36.682 66.231,36.208 C 66.715,35.734 67.09,35.171 67.356,34.518 C 67.622,33.866 67.755,33.156 67.755,32.389 Z M 65.22,32.389 C 65.22,32.917 65.152,33.393 65.015,33.818 C 64.878,34.243 64.682,34.603 64.425,34.898 C 64.169,35.194 63.855,35.421 63.484,35.58 C 63.112,35.739 62.69,35.818 62.216,35.818 L 60.56,35.818 L 60.56,28.953 L 62.216,28.953 C 62.69,28.953 63.112,29.032 63.484,29.191 C 63.855,29.35 64.169,29.577 64.425,29.872 C 64.682,30.168 64.878,30.528 65.015,30.953 C 65.152,31.378 65.22,31.857 65.22,32.389 Z" marker-start="none" marker-end="none"/>
       <path d="M 75.757,37.839 C 76.231,37.839 76.648,37.77 77.01,37.631 C 77.371,37.491 77.677,37.308 77.926,37.081 C 78.175,36.854 78.37,36.591 78.512,36.293 C 78.654,35.996 78.741,35.69 78.776,35.378 L 77.31,35.084 C 77.286,35.08 77.265,35.076 77.248,35.074 C 77.231,35.071 77.213,35.07 77.193,35.07 C 76.988,35.07 76.836,35.178 76.739,35.392 C 76.626,35.646 76.496,35.839 76.347,35.971 C 76.198,36.103 76.001,36.169 75.757,36.169 C 75.586,36.169 75.437,36.137 75.31,36.073 C 75.183,36.009 75.077,35.925 74.991,35.822 C 74.906,35.719 74.841,35.599 74.797,35.461 C 74.753,35.324 74.731,35.181 74.731,35.034 C 74.731,34.906 74.742,34.783 74.764,34.665 C 74.786,34.547 74.823,34.428 74.874,34.308 C 74.925,34.188 74.996,34.063 75.087,33.936 C 75.177,33.808 75.293,33.67 75.435,33.523 L 78.072,30.722 C 78.204,31.019 78.309,31.329 78.387,31.651 C 78.465,31.973 78.522,32.307 78.556,32.654 C 78.566,32.792 78.611,32.901 78.691,32.98 C 78.772,33.059 78.878,33.099 79.01,33.099 L 80.446,33.099 C 80.446,32.384 80.351,31.716 80.16,31.096 C 79.97,30.477 79.699,29.91 79.347,29.395 L 81.589,27.046 L 79.347,27.046 C 79.235,27.046 79.135,27.052 79.047,27.064 C 78.959,27.077 78.877,27.097 78.801,27.127 C 78.726,27.156 78.654,27.197 78.585,27.251 C 78.517,27.305 78.443,27.373 78.365,27.457 L 77.904,27.94 C 77.44,27.617 76.933,27.368 76.383,27.192 C 75.834,27.016 75.249,26.928 74.629,26.928 C 74.204,26.928 73.787,27 73.379,27.145 C 72.972,27.29 72.609,27.497 72.291,27.765 C 71.974,28.033 71.717,28.359 71.522,28.74 C 71.327,29.122 71.229,29.55 71.229,30.023 C 71.229,30.342 71.279,30.644 71.379,30.929 C 71.479,31.214 71.62,31.479 71.801,31.723 C 71.981,31.967 72.197,32.189 72.449,32.39 C 72.7,32.59 72.975,32.766 73.273,32.915 C 73.044,33.277 72.878,33.631 72.775,33.978 C 72.672,34.324 72.621,34.661 72.621,34.987 C 72.621,35.374 72.691,35.739 72.83,36.083 C 72.969,36.427 73.172,36.729 73.438,36.989 C 73.704,37.249 74.032,37.456 74.42,37.609 C 74.808,37.763 75.254,37.839 75.757,37.839 Z M 73.544,30.217 C 73.544,29.986 73.58,29.777 73.651,29.59 C 73.721,29.402 73.823,29.241 73.955,29.106 C 74.086,28.972 74.244,28.867 74.427,28.793 C 74.61,28.718 74.814,28.681 75.039,28.681 C 75.366,28.681 75.67,28.723 75.951,28.807 C 76.232,28.892 76.495,29.01 76.739,29.164 L 74.284,31.725 C 74.016,31.509 73.825,31.273 73.713,31.018 C 73.6,30.763 73.544,30.496 73.544,30.217 Z" marker-start="none" marker-end="none"/>
       <path d="M 87.671,30.616 L 87.671,27.048 L 85.194,27.048 L 85.194,37.725 L 88.96,37.725 C 89.712,37.725 90.358,37.636 90.898,37.457 C 91.438,37.279 91.882,37.034 92.232,36.721 C 92.581,36.408 92.838,36.039 93.005,35.614 C 93.171,35.189 93.254,34.73 93.254,34.237 C 93.254,33.704 93.168,33.215 92.997,32.771 C 92.826,32.326 92.565,31.945 92.213,31.628 C 91.862,31.31 91.416,31.062 90.876,30.884 C 90.336,30.706 89.698,30.616 88.96,30.616 L 87.671,30.616 Z M 87.671,32.484 L 88.96,32.484 C 89.605,32.484 90.069,32.638 90.352,32.946 C 90.636,33.254 90.777,33.684 90.777,34.236 C 90.777,34.481 90.741,34.704 90.667,34.904 C 90.594,35.104 90.483,35.276 90.334,35.421 C 90.185,35.565 89.997,35.676 89.77,35.754 C 89.543,35.833 89.273,35.872 88.96,35.872 L 87.671,35.872 L 87.671,32.484 Z" marker-start="none" marker-end="none"/>
       <path d="M 97.257,27.046 L 94.766,27.046 L 94.766,37.725 L 97.257,37.725 L 97.257,27.046 Z" marker-start="none" marker-end="none"/>
       <path d="M 101.71,30.616 L 101.71,27.048 L 99.233,27.048 L 99.233,37.725 L 102.999,37.725 C 103.751,37.725 104.397,37.636 104.937,37.457 C 105.477,37.279 105.921,37.034 106.271,36.721 C 106.62,36.408 106.877,36.039 107.044,35.614 C 107.21,35.189 107.293,34.73 107.293,34.237 C 107.293,33.704 107.207,33.215 107.036,32.771 C 106.865,32.326 106.604,31.945 106.252,31.628 C 105.901,31.31 105.455,31.062 104.915,30.884 C 104.375,30.706 103.737,30.616 102.999,30.616 L 101.71,30.616 Z M 101.71,32.484 L 102.999,32.484 C 103.644,32.484 104.108,32.638 104.391,32.946 C 104.675,33.254 104.816,33.684 104.816,34.236 C 104.816,34.481 104.78,34.704 104.706,34.904 C 104.633,35.104 104.522,35.276 104.373,35.421 C 104.224,35.565 104.036,35.676 103.809,35.754 C 103.582,35.833 103.312,35.872 102.999,35.872 L 101.71,35.872 L 101.71,32.484 Z" marker-start="none" marker-end="none"/>
       <path d="M 115.458,37.725 L 115.458,35.818 L 111.076,35.818 L 111.076,33.325 L 114.432,33.325 L 114.432,31.493 L 111.076,31.493 L 111.076,28.953 L 115.458,28.953 L 115.458,27.046 L 108.585,27.046 L 108.585,37.725 L 115.458,37.725 Z" marker-start="none" marker-end="none"/>
       <path d="M 119.341,29.024 L 123.297,29.024 L 123.297,27.046 L 116.864,27.046 L 116.864,37.723 L 119.341,37.723 L 119.341,29.024 Z" marker-start="none" marker-end="none"/>
       <path d="M 127.181,27.046 L 124.69,27.046 L 124.69,37.725 L 127.181,37.725 L 127.181,27.046 Z" marker-start="none" marker-end="none"/>
       <path d="M 130.461,37.725 C 130.569,37.725 130.659,37.72 130.732,37.71 C 130.806,37.701 130.872,37.682 130.93,37.655 C 130.989,37.628 131.045,37.59 131.099,37.542 C 131.153,37.493 131.214,37.427 131.282,37.344 L 136.352,30.933 C 136.333,31.138 136.318,31.337 136.308,31.53 C 136.298,31.723 136.293,31.905 136.293,32.076 L 136.293,37.725 L 138.477,37.725 L 138.477,27.046 L 137.187,27.046 C 136.997,27.046 136.836,27.075 136.704,27.134 C 136.572,27.193 136.445,27.3 136.323,27.456 L 131.289,33.816 C 131.304,33.63 131.316,33.448 131.326,33.27 C 131.336,33.092 131.341,32.925 131.341,32.768 L 131.341,27.046 L 129.157,27.046 L 129.157,37.725 L 130.461,37.725 Z" marker-start="none" marker-end="none"/>
       <path d="M 147.106,37.725 L 147.106,35.818 L 142.724,35.818 L 142.724,33.325 L 146.08,33.325 L 146.08,31.493 L 142.724,31.493 L 142.724,28.953 L 147.106,28.953 L 147.106,27.046 L 140.233,27.046 L 140.233,37.725 L 147.106,37.725 Z" marker-start="none" marker-end="none"/>
       <path d="M 148.131,28.336 C 148.131,28.492 148.161,28.638 148.219,28.772 C 148.278,28.907 148.362,29.024 148.472,29.124 C 148.582,29.224 148.711,29.303 148.86,29.362 C 149.009,29.421 149.177,29.45 149.362,29.45 C 149.582,29.45 149.772,29.412 149.934,29.336 C 150.095,29.261 150.229,29.158 150.337,29.029 C 150.444,28.899 150.523,28.75 150.575,28.582 C 150.626,28.413 150.652,28.236 150.652,28.05 C 150.652,27.806 150.613,27.546 150.534,27.27 C 150.456,26.994 150.34,26.717 150.186,26.438 C 150.033,26.16 149.841,25.886 149.611,25.617 C 149.382,25.349 149.118,25.104 148.82,24.885 L 148.424,25.236 C 148.371,25.29 148.33,25.34 148.303,25.387 C 148.277,25.433 148.263,25.49 148.263,25.559 C 148.263,25.608 148.28,25.66 148.314,25.716 C 148.349,25.773 148.39,25.823 148.439,25.867 C 148.498,25.925 148.566,25.996 148.644,26.079 C 148.722,26.162 148.8,26.255 148.879,26.358 C 148.957,26.46 149.029,26.573 149.095,26.695 C 149.161,26.817 149.211,26.946 149.245,27.083 C 149.074,27.098 148.92,27.139 148.783,27.208 C 148.647,27.276 148.531,27.367 148.435,27.479 C 148.34,27.591 148.266,27.719 148.212,27.864 C 148.158,28.008 148.131,28.165 148.131,28.336 Z" marker-start="none" marker-end="none"/>
       <path d="M 157.505,27.046 L 155.014,27.046 L 155.014,37.725 L 157.505,37.725 L 157.505,27.046 Z" marker-start="none" marker-end="none"/>
       <path d="M 160.785,37.725 C 160.893,37.725 160.983,37.72 161.056,37.71 C 161.13,37.701 161.196,37.682 161.254,37.655 C 161.313,37.628 161.369,37.59 161.423,37.542 C 161.477,37.493 161.538,37.427 161.606,37.344 L 166.676,30.933 C 166.657,31.138 166.642,31.337 166.632,31.53 C 166.622,31.723 166.617,31.905 166.617,32.076 L 166.617,37.725 L 168.801,37.725 L 168.801,27.046 L 167.511,27.046 C 167.321,27.046 167.16,27.075 167.028,27.134 C 166.896,27.193 166.769,27.3 166.647,27.456 L 161.613,33.816 C 161.628,33.63 161.64,33.448 161.65,33.27 C 161.66,33.092 161.665,32.925 161.665,32.768 L 161.665,27.046 L 159.481,27.046 L 159.481,37.725 L 160.785,37.725 Z" marker-start="none" marker-end="none"/>
       <path d="M 177.73,29.806 C 177.789,29.806 177.847,29.795 177.906,29.773 C 177.965,29.75 178.021,29.712 178.074,29.657 L 179.056,28.602 C 178.626,28.049 178.088,27.631 177.441,27.35 C 176.794,27.069 176.028,26.928 175.144,26.928 C 174.333,26.928 173.606,27.066 172.964,27.342 C 172.322,27.618 171.777,27.999 171.33,28.485 C 170.883,28.971 170.54,29.548 170.301,30.215 C 170.061,30.882 169.942,31.606 169.942,32.387 C 169.942,33.184 170.079,33.915 170.352,34.582 C 170.626,35.249 171.008,35.824 171.499,36.308 C 171.99,36.791 172.577,37.168 173.261,37.436 C 173.945,37.705 174.699,37.839 175.525,37.839 C 175.925,37.839 176.303,37.804 176.657,37.733 C 177.011,37.662 177.342,37.564 177.65,37.439 C 177.957,37.315 178.241,37.166 178.499,36.992 C 178.758,36.818 178.988,36.626 179.188,36.416 L 178.353,35.295 C 178.299,35.226 178.236,35.164 178.162,35.108 C 178.089,35.052 177.987,35.024 177.855,35.024 C 177.767,35.024 177.684,35.043 177.606,35.082 C 177.527,35.121 177.444,35.169 177.356,35.225 C 177.269,35.281 177.172,35.342 177.067,35.408 C 176.962,35.474 176.837,35.535 176.693,35.592 C 176.549,35.648 176.381,35.695 176.188,35.735 C 175.995,35.773 175.769,35.793 175.51,35.793 C 175.061,35.793 174.65,35.714 174.279,35.555 C 173.908,35.396 173.589,35.169 173.323,34.873 C 173.057,34.578 172.849,34.22 172.7,33.8 C 172.551,33.38 172.477,32.908 172.477,32.386 C 172.477,31.838 172.551,31.352 172.7,30.927 C 172.849,30.502 173.052,30.145 173.308,29.854 C 173.565,29.563 173.864,29.342 174.206,29.191 C 174.548,29.039 174.914,28.964 175.305,28.964 C 175.53,28.964 175.735,28.975 175.92,28.997 C 176.106,29.019 176.278,29.056 176.437,29.11 C 176.596,29.164 176.747,29.233 176.891,29.319 C 177.035,29.404 177.181,29.511 177.327,29.638 C 177.386,29.687 177.449,29.727 177.518,29.759 C 177.586,29.79 177.657,29.806 177.73,29.806 Z" marker-start="none" marker-end="none"/>
       <path d="M 179.749,28.196 C 179.749,28.372 179.782,28.536 179.848,28.687 C 179.913,28.839 180.004,28.971 180.119,29.083 C 180.233,29.196 180.369,29.285 180.525,29.351 C 180.682,29.417 180.853,29.45 181.038,29.45 C 181.219,29.45 181.387,29.417 181.544,29.351 C 181.7,29.285 181.837,29.196 181.954,29.083 C 182.071,28.971 182.163,28.839 182.229,28.687 C 182.295,28.536 182.328,28.372 182.328,28.196 C 182.328,28.02 182.295,27.855 182.229,27.701 C 182.163,27.547 182.071,27.414 181.954,27.302 C 181.837,27.189 181.7,27.101 181.544,27.038 C 181.387,26.974 181.219,26.942 181.038,26.942 C 180.853,26.942 180.682,26.974 180.525,27.038 C 180.369,27.101 180.233,27.189 180.119,27.302 C 180.004,27.414 179.913,27.547 179.848,27.701 C 179.782,27.855 179.749,28.02 179.749,28.196 Z" marker-start="none" marker-end="none"/>
      </g>
     </g>
    </g>
   </g>
  </g>
 </g>
</svg>
