<?xml version="1.0" standalone="no"?>
<!DOCTYPE svg PUBLIC "-//W3C//DTD SVG 1.1//EN" "http://www.w3.org/Graphics/SVG/1.1/DTD/svg11.dtd">
<!--Generator: Xara Designer (www.xara.com), SVG filter version: 6.2.0.0-->
<svg stroke-width="0.501" stroke-linejoin="bevel" fill-rule="evenodd" xmlns:xlink="http://www.w3.org/1999/xlink" xmlns="http://www.w3.org/2000/svg" version="1.1" overflow="visible" width="215.434pt" height="215.434pt" viewBox="0 0 215.434 215.434">
 <defs>
	</defs>
 <g id="Document" fill="none" stroke="black" font-family="Times New Roman" font-size="16" transform="scale(1 -1)">
  <g id="Spread" transform="translate(0 -215.434)">
   <g id="Layer 1">
    <g id="Group">
     <path d="M 199.757,214.933 L 15.176,214.933 C 6.799,214.933 0,208.134 0,199.757 L 0,15.176 C 0,6.799 6.799,0 15.176,0 L 199.757,0 C 208.134,0 214.933,6.799 214.933,15.176 L 214.933,199.757 C 214.933,208.134 208.134,214.933 199.757,214.933 Z" stroke="#999999" fill="#ffffff" stroke-linejoin="miter" marker-start="none" marker-end="none"/>
     <g id="Group_1" stroke-linejoin="miter" stroke-miterlimit="79.8403193612775">
      <path d="M 21.384,158.062 C 12.487,168.602 13.812,184.388 24.364,193.271 C 34.895,202.186 50.66,200.854 59.561,190.317 C 68.475,179.776 67.139,164.002 56.586,155.099 C 46.054,146.203 30.282,147.534 21.384,158.062 Z" stroke="none" fill="#000000" stroke-width="1.039" marker-start="none" marker-end="none" stroke-miterlimit="19.9600798403194"/>
      <path d="M 22.561,159.019 C 13.674,169.564 14.99,185.316 25.534,194.234 C 36.078,203.106 51.844,201.792 60.761,191.255 C 69.655,180.717 68.322,164.934 57.775,156.037 C 47.247,147.141 31.466,148.465 22.561,159.019 Z" stroke="#b2b2b2" stroke-width="5.658" marker-start="none" marker-end="none" stroke-miterlimit="19.9600798403194"/>
     </g>
     <g id="Group_2" stroke-linejoin="miter" stroke-miterlimit="79.8403193612775">
      <path d="M 153.514,158.508 C 144.617,169.048 145.942,184.834 156.494,193.717 C 167.025,202.632 182.79,201.3 191.691,190.763 C 200.605,180.222 199.269,164.448 188.716,155.545 C 178.184,146.649 162.412,147.98 153.514,158.508 Z" stroke="none" fill="#000000" stroke-width="1.039" marker-start="none" marker-end="none" stroke-miterlimit="19.9600798403194"/>
      <path d="M 154.691,159.465 C 145.804,170.01 147.12,185.762 157.664,194.68 C 168.208,203.552 183.974,202.238 192.891,191.701 C 201.785,181.163 200.452,165.38 189.905,156.483 C 179.377,147.587 163.596,148.911 154.691,159.465 Z" stroke="#b2b2b2" stroke-width="5.658" marker-start="none" marker-end="none" stroke-miterlimit="19.9600798403194"/>
     </g>
     <text xml:space="preserve" transform="translate(164.894 164.676) scale(1 -1)" font-family="Lato Black" stroke="none" fill="#b2b2b2" stroke-width="0.773" stroke-linejoin="round" stroke-linecap="round" font-weight="bold" font-size="30.96" stroke-miterlimit="79.8403193612775"><tspan x="0" y="0">3</tspan></text>
     <path d="M 94.18,115.807 C 107.619,128.074 114.448,144.888 114.451,161.761 L 122.931,161.761 C 122.925,142.589 115.175,123.476 99.906,109.542 C 86.345,97.169 69.268,91.067 52.245,91.072 L 52.245,99.558 C 67.227,99.551 82.254,104.92 94.18,115.807 Z" fill="#ff3718" stroke-linecap="round" stroke="none" stroke-width="0.541" stroke-linejoin="round" marker-start="none" marker-end="none" stroke-miterlimit="79.8403193612775"/>
     <path d="M 14.292,95.299 L 17.337,97.417 L 20.389,99.539 L 20.39,99.592 L 47.667,99.592 L 47.666,91.056 L 20.39,91.056 L 17.337,93.176 L 14.292,95.299 Z" fill="#ff3718" stroke-linecap="round" stroke="none" stroke-width="0.103" stroke-linejoin="miter" marker-start="none" marker-end="none" stroke-miterlimit="79.8403193612775"/>
     <path d="M 14.288,106.849 L 17.335,108.969 L 20.39,111.09 L 20.39,106.849 L 20.386,102.608 L 17.334,104.73 L 14.288,106.849 Z M 20.39,111.113 L 47.667,111.114 L 47.667,102.579 L 20.39,102.579 L 20.39,111.113 Z" fill="#ffcd36" stroke-linecap="round" stroke="none" stroke-width="0.103" stroke-linejoin="miter" marker-start="none" marker-end="none" stroke-miterlimit="79.8403193612775"/>
     <path d="M 86.558,124.161 C 97.549,134.201 103.136,147.956 103.142,161.761 L 111.622,161.761 C 111.617,145.653 105.103,129.604 92.275,117.895 C 80.889,107.501 66.546,102.381 52.246,102.384 L 52.245,110.87 C 64.502,110.86 76.794,115.255 86.558,124.161 Z" fill="#ffcd36" stroke-linecap="round" stroke="none" stroke-width="0.453" stroke-linejoin="round" marker-start="none" marker-end="none" stroke-miterlimit="79.8403193612775"/>
     <g id="Group_3" stroke-linecap="round" stroke="none" fill="#00d702">
      <path d="M 14.288,118.165 L 17.334,120.28 L 20.39,122.402 L 20.39,118.161 L 20.386,113.918 L 17.334,116.038 L 14.288,118.165 Z M 20.39,122.412 L 47.667,122.411 L 47.667,113.876 L 20.39,113.876 L 20.39,122.412 Z" stroke-width="0.103" stroke-linejoin="miter" marker-start="none" marker-end="none" stroke-miterlimit="79.8403193612775"/>
      <path d="M 78.931,132.516 C 87.483,140.323 91.822,151.028 91.829,161.761 L 100.314,161.76 C 100.31,148.719 95.037,135.729 84.648,126.25 C 75.433,117.839 63.817,113.691 52.245,113.693 L 52.245,122.175 C 61.778,122.175 71.342,125.589 78.931,132.516 Z" stroke-width="0.368" stroke-linejoin="round" marker-start="none" marker-end="none" stroke-miterlimit="79.8403193612775"/>
     </g>
     <path d="M 71.31,140.871 C 77.417,146.449 80.517,154.087 80.52,161.76 L 89.007,161.761 C 88.997,151.791 84.965,141.852 77.027,134.609 C 69.977,128.17 61.101,124.999 52.245,125.003 L 52.245,133.491 C 59.052,133.484 65.884,135.926 71.31,140.871 Z" fill="#11a7e0" stroke-linecap="round" stroke="none" stroke-width="0.281" stroke-linejoin="round" marker-start="none" marker-end="none" stroke-miterlimit="79.8403193612775"/>
     <path d="M 14.292,129.218 L 17.336,131.35 L 20.389,133.491 L 20.389,133.491 L 47.666,133.491 L 47.667,124.952 L 20.39,124.952 L 20.39,124.952 L 17.335,127.082 L 14.292,129.218 Z" fill="#11a7e0" stroke-linecap="round" stroke="none" stroke-width="0.103" stroke-linejoin="miter" marker-start="none" marker-end="none" stroke-miterlimit="79.8403193612775"/>
     <g id="Group_4" stroke-linejoin="miter" stroke-miterlimit="79.8403193612775">
      <path d="M 79.602,120.402 C 75.08,125.753 75.757,133.773 81.113,138.3 C 86.47,142.816 94.489,142.143 99.013,136.786 C 103.536,131.431 102.856,123.414 97.502,118.891 C 92.145,114.367 84.127,115.043 79.602,120.402 Z" stroke="none" fill="#ffffff" stroke-width="0.526" marker-start="none" marker-end="none" stroke-miterlimit="19.9600798403194"/>
      <path d="M 80.21,120.88 C 75.683,126.234 76.357,134.25 81.717,138.774 C 87.075,143.298 95.09,142.625 99.615,137.262 C 104.142,131.907 103.458,123.89 98.107,119.364 C 92.747,114.839 84.732,115.52 80.21,120.88 Z" fill="none" stroke="#55bae6" stroke-width="2.872" marker-start="none" marker-end="none" stroke-miterlimit="19.9600798403194"/>
     </g>
     <g id="Group_5" stroke-linejoin="miter" stroke-miterlimit="79.8403193612775">
      <path d="M 21.975,103.605 C 17.451,108.961 18.13,116.978 23.485,121.506 C 28.845,126.027 36.865,125.349 41.388,119.991 C 45.916,114.638 45.233,106.616 39.877,102.097 C 34.518,97.578 26.502,98.252 21.975,103.605 Z" stroke="none" fill="#ffffff" stroke-width="0.526" marker-start="none" marker-end="none" stroke-miterlimit="19.9600798403194"/>
      <path d="M 22.582,104.089 C 18.058,109.44 18.734,117.46 24.094,121.984 C 29.453,126.505 37.468,125.831 41.991,120.471 C 46.518,115.118 45.84,107.098 40.484,102.577 C 35.121,98.052 27.105,98.728 22.582,104.089 Z" fill="none" stroke="#55bae6" stroke-width="2.872" marker-start="none" marker-end="none" stroke-miterlimit="19.9600798403194"/>
     </g>
     <g id="Group_6" fill-rule="nonzero" stroke-linejoin="round" stroke-linecap="round" stroke="none" stroke-width="0.387" fill="#000000" stroke-miterlimit="79.8403193612775">
      <g id="Group_7">
       <path d="M 86.339,132.573 L 86.339,129.491 L 89.218,129.491 L 89.218,127.762 L 86.339,127.762 L 86.339,124.665 L 84.378,124.665 L 84.378,127.762 L 81.514,127.762 L 81.514,129.491 L 84.378,129.491 L 84.378,132.573 L 86.339,132.573 Z" marker-start="none" marker-end="none"/>
       <path d="M 94.791,134.86 C 95.351,134.86 95.849,134.781 96.285,134.622 C 96.721,134.464 97.089,134.249 97.39,133.978 C 97.691,133.708 97.919,133.394 98.075,133.038 C 98.23,132.682 98.308,132.306 98.308,131.91 C 98.308,131.551 98.272,131.235 98.199,130.962 C 98.127,130.689 98.019,130.452 97.876,130.252 C 97.734,130.051 97.557,129.881 97.347,129.74 C 97.137,129.6 96.897,129.483 96.627,129.389 C 97.883,128.955 98.511,128.103 98.511,126.835 C 98.511,126.234 98.402,125.711 98.184,125.266 C 97.966,124.821 97.674,124.451 97.308,124.156 C 96.943,123.861 96.518,123.639 96.036,123.492 C 95.553,123.344 95.05,123.271 94.526,123.271 C 93.987,123.271 93.507,123.329 93.086,123.446 C 92.666,123.562 92.293,123.744 91.966,123.99 C 91.639,124.237 91.352,124.552 91.106,124.936 C 90.859,125.319 90.645,125.776 90.464,126.305 L 91.538,126.742 C 91.631,126.784 91.723,126.812 91.814,126.828 C 91.905,126.843 91.994,126.851 92.083,126.851 C 92.249,126.851 92.398,126.819 92.53,126.754 C 92.662,126.689 92.762,126.594 92.83,126.47 C 93.063,126.039 93.311,125.726 93.573,125.531 C 93.835,125.336 94.142,125.239 94.495,125.239 C 94.765,125.239 95,125.284 95.199,125.375 C 95.399,125.466 95.565,125.583 95.697,125.726 C 95.83,125.869 95.93,126.031 95.997,126.213 C 96.064,126.394 96.098,126.579 96.098,126.766 C 96.098,127.01 96.081,127.229 96.048,127.424 C 96.014,127.619 95.919,127.786 95.764,127.926 C 95.608,128.067 95.373,128.174 95.059,128.249 C 94.745,128.325 94.308,128.362 93.748,128.363 L 93.748,130.027 C 94.22,130.027 94.601,130.063 94.892,130.136 C 95.182,130.209 95.407,130.309 95.565,130.436 C 95.723,130.563 95.828,130.717 95.88,130.899 C 95.932,131.08 95.958,131.28 95.958,131.498 C 95.958,131.945 95.85,132.288 95.635,132.53 C 95.42,132.771 95.092,132.892 94.651,132.892 C 94.469,132.892 94.303,132.866 94.153,132.814 C 94.002,132.762 93.867,132.692 93.748,132.604 C 93.629,132.516 93.526,132.412 93.441,132.293 C 93.355,132.173 93.286,132.043 93.234,131.903 C 93.151,131.67 93.046,131.501 92.919,131.397 C 92.792,131.293 92.62,131.241 92.402,131.241 C 92.35,131.241 92.294,131.244 92.234,131.249 C 92.175,131.254 92.114,131.262 92.051,131.272 L 90.775,131.498 C 90.858,132.064 91.018,132.557 91.254,132.977 C 91.49,133.397 91.783,133.747 92.133,134.028 C 92.483,134.308 92.884,134.516 93.335,134.654 C 93.787,134.791 94.272,134.86 94.791,134.86 Z" marker-start="none" marker-end="none"/>
      </g>
     </g>
     <g id="Group_8" fill-rule="nonzero" stroke-linejoin="round" stroke-linecap="round" stroke="none" stroke-width="0.387" fill="#000000" stroke-miterlimit="79.8403193612775">
      <g id="Group_9">
       <path d="M 28.715,115.782 L 28.715,112.7 L 31.594,112.7 L 31.594,110.971 L 28.715,110.971 L 28.715,107.874 L 26.754,107.874 L 26.754,110.971 L 23.89,110.971 L 23.89,112.7 L 26.754,112.7 L 26.754,115.782 L 28.715,115.782 Z" marker-start="none" marker-end="none"/>
       <path d="M 37.167,118.069 C 37.727,118.069 38.225,117.99 38.661,117.831 C 39.097,117.673 39.465,117.458 39.766,117.187 C 40.067,116.917 40.295,116.603 40.451,116.247 C 40.606,115.891 40.684,115.515 40.684,115.119 C 40.684,114.76 40.648,114.444 40.575,114.171 C 40.503,113.898 40.395,113.661 40.252,113.461 C 40.11,113.26 39.933,113.09 39.723,112.949 C 39.513,112.809 39.273,112.692 39.003,112.598 C 40.259,112.164 40.887,111.312 40.887,110.044 C 40.887,109.443 40.778,108.92 40.56,108.475 C 40.342,108.03 40.05,107.66 39.684,107.365 C 39.319,107.07 38.894,106.848 38.412,106.701 C 37.929,106.553 37.426,106.48 36.902,106.48 C 36.363,106.48 35.883,106.538 35.462,106.655 C 35.042,106.771 34.669,106.953 34.342,107.199 C 34.015,107.446 33.728,107.761 33.482,108.145 C 33.235,108.528 33.021,108.985 32.84,109.514 L 33.914,109.951 C 34.007,109.993 34.099,110.021 34.19,110.037 C 34.281,110.052 34.37,110.06 34.459,110.06 C 34.625,110.06 34.774,110.028 34.906,109.963 C 35.038,109.898 35.138,109.803 35.206,109.679 C 35.439,109.248 35.687,108.935 35.949,108.74 C 36.211,108.545 36.518,108.448 36.871,108.448 C 37.141,108.448 37.376,108.493 37.575,108.584 C 37.775,108.675 37.941,108.792 38.073,108.935 C 38.206,109.078 38.306,109.24 38.373,109.422 C 38.44,109.603 38.474,109.788 38.474,109.975 C 38.474,110.219 38.457,110.438 38.424,110.633 C 38.39,110.828 38.295,110.995 38.14,111.135 C 37.984,111.276 37.749,111.383 37.435,111.458 C 37.121,111.534 36.684,111.571 36.124,111.572 L 36.124,113.236 C 36.596,113.236 36.977,113.272 37.268,113.345 C 37.558,113.418 37.783,113.518 37.941,113.645 C 38.099,113.772 38.204,113.926 38.256,114.108 C 38.308,114.289 38.334,114.489 38.334,114.707 C 38.334,115.154 38.226,115.497 38.011,115.739 C 37.796,115.98 37.468,116.101 37.027,116.101 C 36.845,116.101 36.679,116.075 36.529,116.023 C 36.378,115.971 36.243,115.901 36.124,115.813 C 36.005,115.725 35.902,115.621 35.817,115.502 C 35.731,115.382 35.662,115.252 35.61,115.112 C 35.527,114.879 35.422,114.71 35.295,114.606 C 35.168,114.502 34.996,114.45 34.778,114.45 C 34.726,114.45 34.67,114.453 34.61,114.458 C 34.551,114.463 34.49,114.471 34.427,114.481 L 33.151,114.707 C 33.234,115.273 33.394,115.766 33.63,116.186 C 33.866,116.606 34.159,116.956 34.509,117.237 C 34.859,117.517 35.26,117.725 35.711,117.863 C 36.163,118 36.648,118.069 37.167,118.069 Z" marker-start="none" marker-end="none"/>
      </g>
     </g>
     <path d="M 90.222,200.6 C 98.074,207.227 109.821,206.236 116.448,198.387 C 123.079,190.541 122.087,178.789 114.238,172.162 C 106.388,165.532 94.639,166.523 88.012,174.378 C 81.382,182.222 82.373,193.97 90.222,200.6 Z" stroke="#ff0000" fill="#ffffff" stroke-width="4.212" stroke-linejoin="miter" marker-start="none" marker-end="none" stroke-miterlimit="79.8403193612775"/>
     <g id="Group_10" fill-rule="nonzero" stroke-linejoin="round" stroke-linecap="round" stroke="none" stroke-width="0.248" fill="#000000" stroke-miterlimit="79.8403193612775">
      <g id="Group_11">
       <path d="M 95.056,196.935 C 95.115,196.935 95.164,196.933 95.204,196.927 C 95.244,196.922 95.28,196.912 95.312,196.897 C 95.344,196.883 95.375,196.862 95.404,196.835 C 95.433,196.809 95.467,196.773 95.504,196.727 L 98.27,193.23 C 98.259,193.342 98.251,193.45 98.246,193.556 C 98.241,193.661 98.238,193.76 98.238,193.853 L 98.238,196.935 L 99.429,196.935 L 99.429,191.109 L 98.726,191.109 C 98.622,191.109 98.534,191.125 98.462,191.157 C 98.39,191.189 98.321,191.248 98.254,191.333 L 95.508,194.803 C 95.516,194.701 95.523,194.602 95.528,194.505 C 95.533,194.408 95.536,194.316 95.536,194.231 L 95.536,191.109 L 94.345,191.109 L 94.345,196.935 L 95.056,196.935 Z" marker-start="none" marker-end="none"/>
       <path d="M 106.136,194.023 C 106.136,193.602 106.063,193.21 105.918,192.848 C 105.773,192.485 105.568,192.17 105.304,191.902 C 105.041,191.634 104.723,191.424 104.351,191.272 C 103.979,191.121 103.567,191.045 103.114,191.045 C 102.661,191.045 102.248,191.121 101.875,191.272 C 101.502,191.424 101.182,191.634 100.917,191.902 C 100.652,192.17 100.447,192.485 100.302,192.848 C 100.157,193.21 100.084,193.602 100.084,194.023 C 100.084,194.444 100.157,194.836 100.302,195.199 C 100.447,195.561 100.652,195.876 100.917,196.142 C 101.182,196.409 101.502,196.618 101.875,196.77 C 102.248,196.922 102.661,196.998 103.114,196.998 C 103.567,196.998 103.979,196.921 104.351,196.768 C 104.723,196.615 105.041,196.405 105.304,196.138 C 105.568,195.872 105.773,195.557 105.918,195.195 C 106.063,194.832 106.136,194.442 106.136,194.023 Z M 104.753,194.023 C 104.753,194.311 104.716,194.57 104.641,194.8 C 104.566,195.031 104.459,195.226 104.319,195.386 C 104.179,195.546 104.008,195.668 103.805,195.753 C 103.603,195.839 103.372,195.881 103.114,195.881 C 102.853,195.881 102.62,195.839 102.416,195.753 C 102.212,195.668 102.041,195.546 101.901,195.386 C 101.761,195.226 101.654,195.031 101.579,194.8 C 101.504,194.57 101.467,194.311 101.467,194.023 C 101.467,193.733 101.504,193.472 101.579,193.242 C 101.654,193.011 101.761,192.816 101.901,192.656 C 102.041,192.497 102.212,192.375 102.416,192.291 C 102.62,192.207 102.853,192.165 103.114,192.165 C 103.372,192.165 103.603,192.207 103.805,192.291 C 104.008,192.375 104.179,192.497 104.319,192.656 C 104.459,192.816 104.566,193.011 104.641,193.242 C 104.716,193.472 104.753,193.733 104.753,194.023 Z" marker-start="none" marker-end="none"/>
       <path d="M 110.772,196.935 L 110.772,195.864 L 109.133,195.864 L 109.133,191.11 L 107.782,191.11 L 107.782,195.864 L 106.143,195.864 L 106.143,196.935 L 110.772,196.935 Z" marker-start="none" marker-end="none"/>
      </g>
      <g id="Group_12">
       <path d="M 93.279,184.942 C 93.311,184.942 93.343,184.936 93.375,184.924 C 93.407,184.911 93.438,184.89 93.467,184.86 L 94.003,184.285 C 93.768,183.983 93.474,183.755 93.121,183.602 C 92.768,183.448 92.35,183.372 91.868,183.372 C 91.426,183.372 91.029,183.447 90.679,183.597 C 90.328,183.748 90.031,183.956 89.787,184.221 C 89.544,184.486 89.356,184.801 89.226,185.165 C 89.095,185.529 89.03,185.924 89.03,186.35 C 89.03,186.785 89.105,187.184 89.254,187.548 C 89.403,187.911 89.612,188.225 89.879,188.489 C 90.147,188.753 90.468,188.958 90.841,189.105 C 91.214,189.251 91.626,189.325 92.076,189.325 C 92.294,189.325 92.5,189.305 92.694,189.267 C 92.887,189.228 93.067,189.175 93.235,189.106 C 93.403,189.039 93.558,188.957 93.699,188.862 C 93.84,188.768 93.965,188.663 94.075,188.548 L 93.619,187.936 C 93.59,187.899 93.555,187.865 93.515,187.834 C 93.475,187.804 93.419,187.788 93.347,187.788 C 93.299,187.788 93.254,187.799 93.211,187.82 C 93.169,187.842 93.123,187.868 93.075,187.898 C 93.027,187.929 92.975,187.962 92.917,187.998 C 92.86,188.034 92.792,188.068 92.713,188.098 C 92.635,188.129 92.543,188.155 92.438,188.176 C 92.332,188.198 92.209,188.208 92.068,188.208 C 91.823,188.208 91.599,188.165 91.396,188.078 C 91.194,187.992 91.02,187.868 90.875,187.707 C 90.729,187.545 90.616,187.35 90.535,187.121 C 90.454,186.892 90.413,186.634 90.413,186.349 C 90.413,186.051 90.454,185.785 90.535,185.554 C 90.616,185.322 90.727,185.127 90.867,184.968 C 91.007,184.809 91.17,184.689 91.356,184.606 C 91.543,184.524 91.743,184.482 91.956,184.482 C 92.079,184.482 92.19,184.488 92.292,184.5 C 92.393,184.512 92.487,184.533 92.574,184.562 C 92.66,184.591 92.743,184.629 92.821,184.676 C 92.9,184.723 92.979,184.781 93.059,184.85 C 93.091,184.877 93.126,184.899 93.163,184.916 C 93.201,184.933 93.239,184.942 93.279,184.942 Z" marker-start="none" marker-end="none"/>
       <path d="M 96.099,183.436 L 94.74,183.436 L 94.74,189.262 L 96.099,189.262 L 96.099,183.436 Z" marker-start="none" marker-end="none"/>
       <path d="M 98.528,185.591 L 98.528,183.436 L 97.177,183.436 L 97.177,189.26 L 99.071,189.26 C 99.492,189.26 99.852,189.217 100.149,189.13 C 100.446,189.044 100.688,188.923 100.876,188.768 C 101.064,188.613 101.201,188.43 101.286,188.22 C 101.371,188.009 101.414,187.779 101.414,187.531 C 101.414,187.342 101.389,187.163 101.338,186.995 C 101.287,186.827 101.212,186.671 101.112,186.529 C 101.012,186.386 100.89,186.258 100.744,186.146 C 100.599,186.034 100.432,185.942 100.243,185.87 C 100.333,185.825 100.418,185.769 100.497,185.703 C 100.575,185.636 100.644,185.555 100.702,185.459 L 101.942,183.436 L 100.718,183.436 C 100.492,183.436 100.329,183.521 100.231,183.692 L 99.263,185.383 C 99.221,185.458 99.171,185.511 99.113,185.543 C 99.056,185.575 98.976,185.591 98.872,185.591 L 98.528,185.591 Z M 98.528,186.522 L 99.071,186.522 C 99.255,186.522 99.412,186.545 99.541,186.592 C 99.67,186.639 99.776,186.703 99.859,186.786 C 99.942,186.868 100.001,186.965 100.039,187.076 C 100.076,187.186 100.095,187.306 100.095,187.433 C 100.095,187.689 100.011,187.889 99.845,188.033 C 99.678,188.177 99.421,188.249 99.071,188.249 L 98.528,188.249 L 98.528,186.522 Z" marker-start="none" marker-end="none"/>
       <path d="M 106.208,184.942 C 106.24,184.942 106.272,184.936 106.304,184.924 C 106.336,184.911 106.367,184.89 106.396,184.86 L 106.932,184.285 C 106.697,183.983 106.403,183.755 106.05,183.602 C 105.697,183.448 105.279,183.372 104.797,183.372 C 104.355,183.372 103.958,183.447 103.608,183.597 C 103.257,183.748 102.96,183.956 102.716,184.221 C 102.473,184.486 102.285,184.801 102.155,185.165 C 102.024,185.529 101.959,185.924 101.959,186.35 C 101.959,186.785 102.034,187.184 102.183,187.548 C 102.332,187.911 102.541,188.225 102.808,188.489 C 103.076,188.753 103.397,188.958 103.77,189.105 C 104.143,189.251 104.555,189.325 105.005,189.325 C 105.223,189.325 105.429,189.305 105.623,189.267 C 105.816,189.228 105.996,189.175 106.164,189.106 C 106.332,189.039 106.487,188.957 106.628,188.862 C 106.769,188.768 106.894,188.663 107.004,188.548 L 106.548,187.936 C 106.519,187.899 106.484,187.865 106.444,187.834 C 106.404,187.804 106.348,187.788 106.276,187.788 C 106.228,187.788 106.183,187.799 106.14,187.82 C 106.098,187.842 106.052,187.868 106.004,187.898 C 105.956,187.929 105.904,187.962 105.846,187.998 C 105.789,188.034 105.721,188.068 105.642,188.098 C 105.564,188.129 105.472,188.155 105.367,188.176 C 105.261,188.198 105.138,188.208 104.997,188.208 C 104.752,188.208 104.528,188.165 104.325,188.078 C 104.123,187.992 103.949,187.868 103.804,187.707 C 103.658,187.545 103.545,187.35 103.464,187.121 C 103.383,186.892 103.342,186.634 103.342,186.349 C 103.342,186.051 103.383,185.785 103.464,185.554 C 103.545,185.322 103.656,185.127 103.796,184.968 C 103.936,184.809 104.099,184.689 104.285,184.606 C 104.472,184.524 104.672,184.482 104.885,184.482 C 105.008,184.482 105.119,184.488 105.221,184.5 C 105.322,184.512 105.416,184.533 105.503,184.562 C 105.589,184.591 105.672,184.629 105.75,184.676 C 105.829,184.723 105.908,184.781 105.988,184.85 C 106.02,184.877 106.055,184.899 106.092,184.916 C 106.13,184.933 106.168,184.942 106.208,184.942 Z" marker-start="none" marker-end="none"/>
       <path d="M 109.971,184.504 C 110.152,184.504 110.314,184.534 110.457,184.594 C 110.599,184.654 110.72,184.739 110.819,184.852 C 110.917,184.963 110.992,185.1 111.044,185.261 C 111.096,185.422 111.122,185.606 111.122,185.811 L 111.122,189.261 L 112.473,189.261 L 112.473,185.811 C 112.473,185.453 112.415,185.126 112.3,184.827 C 112.184,184.529 112.018,184.271 111.802,184.055 C 111.586,183.839 111.324,183.672 111.014,183.551 C 110.705,183.432 110.358,183.372 109.971,183.372 C 109.582,183.372 109.233,183.432 108.924,183.551 C 108.615,183.672 108.352,183.839 108.136,184.055 C 107.92,184.271 107.755,184.529 107.641,184.827 C 107.526,185.126 107.469,185.453 107.469,185.811 L 107.469,189.261 L 108.82,189.261 L 108.82,185.815 C 108.82,185.61 108.846,185.426 108.898,185.265 C 108.95,185.104 109.025,184.967 109.124,184.854 C 109.222,184.74 109.343,184.654 109.485,184.594 C 109.628,184.534 109.79,184.504 109.971,184.504 Z" marker-start="none" marker-end="none"/>
       <path d="M 113.274,186.366 L 115.432,186.366 L 115.432,185.366 L 113.274,185.366 L 113.274,186.366 Z" marker-start="none" marker-end="none"/>
      </g>
      <g id="Group_13">
       <path d="M 96.511,176.842 L 98.669,176.842 L 98.669,175.763 L 95.16,175.763 L 95.16,181.588 L 96.511,181.588 L 96.511,176.842 Z" marker-start="none" marker-end="none"/>
       <path d="M 104.73,175.763 L 103.683,175.763 C 103.566,175.763 103.469,175.79 103.393,175.845 C 103.317,175.9 103.264,175.97 103.235,176.055 L 102.891,177.071 L 100.677,177.071 L 100.333,176.055 C 100.306,175.98 100.254,175.913 100.177,175.853 C 100.1,175.793 100.005,175.763 99.893,175.763 L 98.838,175.763 L 101.093,181.588 L 102.476,181.588 L 104.73,175.763 Z M 100.989,177.99 L 102.58,177.99 L 102.044,179.561 C 102.009,179.66 101.969,179.778 101.922,179.913 C 101.875,180.048 101.829,180.194 101.784,180.352 C 101.741,180.192 101.697,180.043 101.652,179.907 C 101.607,179.771 101.564,179.653 101.524,179.553 L 100.989,177.99 Z" marker-start="none" marker-end="none"/>
       <path d="M 106.552,177.918 L 106.552,175.763 L 105.201,175.763 L 105.201,181.587 L 107.095,181.587 C 107.516,181.587 107.876,181.544 108.173,181.457 C 108.47,181.371 108.712,181.25 108.9,181.095 C 109.088,180.94 109.225,180.757 109.31,180.547 C 109.395,180.336 109.438,180.106 109.438,179.858 C 109.438,179.669 109.413,179.49 109.362,179.322 C 109.311,179.154 109.236,178.998 109.136,178.856 C 109.036,178.713 108.914,178.585 108.768,178.473 C 108.623,178.361 108.456,178.269 108.267,178.197 C 108.357,178.152 108.442,178.096 108.521,178.03 C 108.599,177.963 108.668,177.882 108.726,177.786 L 109.966,175.763 L 108.742,175.763 C 108.516,175.763 108.353,175.848 108.255,176.019 L 107.287,177.71 C 107.245,177.785 107.195,177.838 107.137,177.87 C 107.08,177.902 107,177.918 106.896,177.918 L 106.552,177.918 Z M 106.552,178.849 L 107.095,178.849 C 107.279,178.849 107.436,178.872 107.565,178.919 C 107.694,178.966 107.8,179.03 107.883,179.113 C 107.966,179.195 108.025,179.292 108.063,179.403 C 108.1,179.513 108.119,179.633 108.119,179.76 C 108.119,180.016 108.035,180.216 107.869,180.36 C 107.702,180.504 107.445,180.576 107.095,180.576 L 106.552,180.576 L 106.552,178.849 Z" marker-start="none" marker-end="none"/>
      </g>
     </g>
     <path d="M 15.578,68.39 L 15.578,34.498 L 119.166,34.498 L 119.166,68.39 L 15.578,68.39 Z" stroke="#f0942b" stroke-linejoin="miter" stroke-linecap="round" fill="#f0942b" stroke-width="1.738" marker-start="none" marker-end="none" stroke-miterlimit="79.8403193612775"/>
     <path d="M 15.578,69.733 L 15.578,59.923 C 15.578,57.352 17.662,55.275 20.224,55.275 L 114.516,55.275 C 117.078,55.275 119.166,57.352 119.166,59.923 L 119.166,69.733 C 119.166,72.309 117.078,74.387 114.516,74.387 L 20.224,74.387 C 17.662,74.387 15.578,72.309 15.578,69.733 Z" stroke="#f0942b" stroke-linejoin="miter" stroke-linecap="round" fill="#f0942b" stroke-width="1.738" marker-start="none" marker-end="none" stroke-miterlimit="79.8403193612775"/>
     <path d="M 16.275,40.84 L 16.275,23.195 C 16.275,18.582 20.019,14.836 24.637,14.836 L 191.683,14.836 C 196.296,14.836 200.044,18.582 200.044,23.195 L 200.044,40.84 C 200.044,45.458 196.296,49.206 191.683,49.206 L 24.637,49.206 C 20.019,49.206 16.275,45.458 16.275,40.84 Z" stroke="#f0942b" stroke-linejoin="miter" stroke-linecap="round" fill="#ffffff" stroke-width="3.13" marker-start="none" marker-end="none" stroke-miterlimit="79.8403193612775"/>
     <g id="Group_14" stroke-linejoin="miter" stroke-miterlimit="79.8403193612775">
      <path d="M 169.72,93.739 C 163.82,100.717 164.699,111.177 171.694,117.086 C 178.676,122.978 189.129,122.099 195.033,115.112 C 200.942,108.12 200.056,97.666 193.059,91.761 C 186.077,85.866 175.62,86.745 169.72,93.739 Z" stroke="none" fill="#000000" stroke-width="0.686" marker-start="none" marker-end="none" stroke-miterlimit="19.9600798403194"/>
      <path d="M 170.498,94.348 C 164.607,101.346 165.479,111.805 172.472,117.698 C 179.461,123.607 189.913,122.724 195.829,115.731 C 201.726,108.749 200.841,98.297 193.847,92.392 C 186.868,86.486 176.404,87.365 170.498,94.348 Z" stroke="#b2b2b2" stroke-width="3.752" marker-start="none" marker-end="none" stroke-miterlimit="19.9600798403194"/>
     </g>
     <g id="Group_15" stroke-linejoin="miter" stroke-miterlimit="79.8403193612775">
      <path d="M 129.035,93.726 C 123.135,100.715 124.014,111.183 131.011,117.074 C 137.994,122.985 148.448,122.102 154.35,115.114 C 160.261,108.125 159.375,97.665 152.377,91.761 C 145.394,85.862 134.935,86.745 129.035,93.726 Z" stroke="none" fill="#ffffff" stroke-width="0.689" marker-start="none" marker-end="none" stroke-miterlimit="19.9600798403194"/>
      <path d="M 129.815,94.361 C 123.922,101.353 124.795,111.799 131.787,117.712 C 138.778,123.596 149.233,122.724 155.146,115.736 C 161.044,108.749 160.16,98.283 153.166,92.383 C 146.185,86.484 135.72,87.362 129.815,94.361 Z" stroke="#55bae6" stroke-width="3.752" marker-start="none" marker-end="none" stroke-miterlimit="19.9600798403194"/>
     </g>
     <g id="Group_16" stroke-linejoin="miter" stroke-miterlimit="79.8403193612775">
      <path d="M 153.514,158.507 C 144.617,169.047 145.942,184.833 156.494,193.717 C 167.025,202.631 182.79,201.299 191.691,190.761 C 200.605,180.221 199.269,164.447 188.715,155.544 C 178.184,146.648 162.412,147.979 153.514,158.507 Z" stroke="none" fill="#ffffff" stroke-width="1.039" marker-start="none" marker-end="none" stroke-miterlimit="19.9600798403194"/>
      <path d="M 154.691,159.464 C 145.804,170.009 147.12,185.762 157.664,194.679 C 168.207,203.552 183.974,202.237 192.891,191.699 C 201.785,181.162 200.452,165.379 189.905,156.482 C 179.377,147.586 163.596,148.91 154.691,159.464 Z" stroke="#55bae6" stroke-width="5.658" marker-start="none" marker-end="none" stroke-miterlimit="19.9600798403194"/>
     </g>
     <g id="Group_17" fill-rule="nonzero" stroke-linejoin="round" stroke-linecap="round" stroke="none" stroke-width="0.485" fill="#b2b2b2" stroke-miterlimit="79.8403193612775">
      <g id="Group_18">
       <path d="M 182.616,112.3 C 183.317,112.3 183.941,112.201 184.487,112.002 C 185.032,111.804 185.494,111.535 185.871,111.196 C 186.247,110.857 186.533,110.465 186.728,110.018 C 186.923,109.572 187.021,109.101 187.021,108.606 C 187.021,108.157 186.975,107.761 186.884,107.418 C 186.793,107.076 186.658,106.78 186.48,106.529 C 186.301,106.278 186.08,106.065 185.817,105.889 C 185.554,105.713 185.253,105.567 184.916,105.449 C 186.488,104.905 187.274,103.838 187.274,102.25 C 187.274,101.498 187.137,100.844 186.865,100.286 C 186.592,99.728 186.226,99.265 185.768,98.896 C 185.31,98.526 184.779,98.249 184.175,98.064 C 183.571,97.879 182.94,97.787 182.284,97.787 C 181.609,97.787 181.008,97.86 180.481,98.006 C 179.955,98.152 179.487,98.38 179.078,98.688 C 178.669,98.997 178.31,99.391 178.001,99.872 C 177.693,100.353 177.425,100.924 177.197,101.587 L 178.542,102.134 C 178.659,102.187 178.774,102.222 178.888,102.242 C 179.002,102.261 179.114,102.271 179.224,102.271 C 179.432,102.271 179.619,102.23 179.785,102.149 C 179.95,102.068 180.075,101.949 180.16,101.793 C 180.452,101.253 180.762,100.861 181.09,100.618 C 181.419,100.374 181.803,100.252 182.245,100.252 C 182.583,100.252 182.877,100.309 183.127,100.423 C 183.377,100.536 183.585,100.682 183.751,100.861 C 183.917,101.04 184.042,101.244 184.126,101.471 C 184.211,101.699 184.253,101.93 184.253,102.164 C 184.253,102.469 184.232,102.744 184.19,102.988 C 184.147,103.232 184.029,103.442 183.834,103.617 C 183.639,103.793 183.345,103.928 182.952,104.022 C 182.559,104.116 182.011,104.163 181.31,104.163 L 181.31,106.248 C 181.901,106.248 182.378,106.293 182.742,106.384 C 183.106,106.475 183.387,106.6 183.585,106.76 C 183.783,106.919 183.915,107.112 183.98,107.34 C 184.045,107.567 184.077,107.817 184.077,108.09 C 184.077,108.649 183.943,109.08 183.673,109.382 C 183.403,109.684 182.992,109.836 182.44,109.836 C 182.213,109.836 182.005,109.803 181.816,109.738 C 181.628,109.673 181.459,109.585 181.31,109.475 C 181.16,109.364 181.032,109.234 180.925,109.085 C 180.818,108.935 180.732,108.773 180.667,108.597 C 180.563,108.305 180.431,108.094 180.272,107.964 C 180.113,107.834 179.897,107.768 179.624,107.768 C 179.559,107.768 179.489,107.772 179.414,107.778 C 179.34,107.785 179.263,107.794 179.185,107.807 L 177.587,108.09 C 177.691,108.798 177.891,109.416 178.186,109.942 C 178.482,110.468 178.849,110.907 179.288,111.258 C 179.726,111.608 180.228,111.87 180.793,112.042 C 181.358,112.214 181.966,112.3 182.616,112.3 Z" marker-start="none" marker-end="none"/>
      </g>
     </g>
     <g id="Group_19" fill-rule="nonzero" stroke-linejoin="round" stroke-linecap="round" stroke="none" stroke-width="0.485" fill="#000000" stroke-miterlimit="79.8403193612775">
      <g id="Group_20">
       <path d="M 143.426,106.94 C 143.939,106.94 144.446,106.855 144.946,106.686 C 145.446,106.518 145.895,106.258 146.291,105.907 C 146.687,105.556 147.007,105.112 147.251,104.576 C 147.495,104.04 147.616,103.408 147.616,102.68 C 147.616,102.017 147.493,101.388 147.246,100.794 C 146.999,100.199 146.65,99.679 146.198,99.234 C 145.747,98.789 145.203,98.437 144.566,98.177 C 143.929,97.917 143.224,97.787 142.451,97.787 C 141.659,97.787 140.947,97.912 140.317,98.162 C 139.687,98.413 139.152,98.762 138.714,99.21 C 138.275,99.659 137.941,100.195 137.71,100.819 C 137.48,101.443 137.364,102.128 137.364,102.875 C 137.364,103.584 137.501,104.289 137.774,104.991 C 138.046,105.693 138.449,106.408 138.982,107.135 L 142.178,111.454 C 142.321,111.649 142.536,111.813 142.822,111.946 C 143.108,112.079 143.432,112.146 143.796,112.146 L 146.486,112.146 L 142.276,107.115 C 142.211,107.043 142.148,106.97 142.086,106.895 C 142.024,106.82 141.964,106.747 141.906,106.676 C 142.133,106.761 142.372,106.826 142.622,106.872 C 142.872,106.917 143.14,106.94 143.426,106.94 Z M 140.268,102.466 C 140.268,102.115 140.311,101.8 140.395,101.521 C 140.479,101.241 140.609,101.001 140.785,100.799 C 140.96,100.598 141.181,100.444 141.448,100.337 C 141.714,100.229 142.029,100.176 142.393,100.176 C 142.705,100.176 142.995,100.234 143.265,100.351 C 143.535,100.468 143.767,100.629 143.962,100.834 C 144.157,101.038 144.311,101.279 144.425,101.555 C 144.538,101.831 144.595,102.131 144.595,102.456 C 144.595,102.82 144.542,103.145 144.435,103.43 C 144.327,103.717 144.176,103.957 143.981,104.152 C 143.786,104.346 143.551,104.496 143.275,104.6 C 142.999,104.704 142.692,104.756 142.354,104.756 C 142.048,104.756 141.769,104.702 141.516,104.595 C 141.262,104.488 141.043,104.333 140.858,104.132 C 140.673,103.931 140.528,103.691 140.424,103.411 C 140.32,103.132 140.268,102.817 140.268,102.466 Z" marker-start="none" marker-end="none"/>
      </g>
     </g>
     <g id="Group_21" fill-rule="nonzero" stroke-linejoin="round" stroke-linecap="round" stroke="none" stroke-width="0.319" fill="#ffffff" stroke-miterlimit="79.8403193612775">
      <g id="Group_22">
       <path d="M 37.756,59.976 L 37.756,56.53 L 35.595,56.53 L 35.595,65.844 L 38.625,65.844 C 39.298,65.844 39.873,65.775 40.348,65.636 C 40.823,65.497 41.211,65.304 41.511,65.057 C 41.812,64.809 42.03,64.517 42.166,64.18 C 42.303,63.843 42.371,63.476 42.371,63.079 C 42.371,62.776 42.331,62.49 42.25,62.221 C 42.169,61.953 42.048,61.704 41.888,61.476 C 41.729,61.247 41.533,61.044 41.3,60.864 C 41.068,60.685 40.801,60.538 40.498,60.423 C 40.643,60.351 40.778,60.261 40.904,60.155 C 41.03,60.048 41.139,59.919 41.233,59.765 L 43.215,56.53 L 41.259,56.53 C 40.897,56.53 40.637,56.666 40.479,56.939 L 38.932,59.643 C 38.864,59.763 38.784,59.848 38.692,59.899 C 38.601,59.95 38.472,59.976 38.305,59.976 L 37.756,59.976 Z M 37.756,61.465 L 38.625,61.465 C 38.919,61.465 39.17,61.502 39.376,61.577 C 39.583,61.651 39.752,61.755 39.884,61.887 C 40.016,62.019 40.112,62.173 40.172,62.35 C 40.232,62.527 40.262,62.718 40.262,62.923 C 40.262,63.332 40.128,63.652 39.862,63.882 C 39.596,64.112 39.183,64.227 38.625,64.227 L 37.756,64.227 L 37.756,61.465 Z" marker-start="none" marker-end="none"/>
       <path d="M 50.094,65.847 L 50.094,64.183 L 46.272,64.183 L 46.272,62.008 L 49.199,62.008 L 49.199,60.41 L 46.272,60.41 L 46.272,58.194 L 50.094,58.194 L 50.094,56.53 L 44.098,56.53 L 44.098,65.847 L 50.094,65.847 Z" marker-start="none" marker-end="none"/>
       <path d="M 56.512,63.952 C 56.448,63.849 56.381,63.773 56.31,63.722 C 56.24,63.67 56.149,63.645 56.039,63.645 C 55.941,63.645 55.835,63.676 55.722,63.738 C 55.609,63.799 55.481,63.869 55.339,63.945 C 55.196,64.022 55.033,64.091 54.85,64.153 C 54.666,64.215 54.458,64.246 54.223,64.246 C 53.818,64.246 53.517,64.16 53.319,63.987 C 53.121,63.814 53.021,63.581 53.021,63.287 C 53.021,63.099 53.081,62.944 53.2,62.82 C 53.32,62.697 53.476,62.59 53.67,62.5 C 53.864,62.411 54.086,62.329 54.335,62.254 C 54.584,62.18 54.839,62.097 55.099,62.005 C 55.359,61.913 55.614,61.806 55.863,61.682 C 56.112,61.559 56.334,61.401 56.528,61.209 C 56.722,61.017 56.878,60.784 56.998,60.509 C 57.117,60.234 57.177,59.903 57.177,59.515 C 57.177,59.084 57.102,58.682 56.953,58.307 C 56.804,57.932 56.587,57.604 56.304,57.325 C 56.021,57.046 55.671,56.827 55.256,56.667 C 54.84,56.507 54.368,56.427 53.84,56.427 C 53.55,56.427 53.255,56.457 52.954,56.517 C 52.654,56.576 52.363,56.66 52.082,56.769 C 51.801,56.878 51.536,57.007 51.289,57.156 C 51.042,57.305 50.827,57.471 50.643,57.655 L 51.283,58.665 C 51.33,58.742 51.396,58.803 51.481,58.85 C 51.566,58.897 51.658,58.921 51.756,58.921 C 51.884,58.921 52.013,58.88 52.143,58.799 C 52.272,58.718 52.42,58.629 52.584,58.531 C 52.748,58.433 52.936,58.343 53.149,58.262 C 53.362,58.181 53.614,58.141 53.904,58.141 C 54.296,58.141 54.6,58.227 54.818,58.399 C 55.035,58.572 55.144,58.846 55.144,59.221 C 55.144,59.439 55.084,59.615 54.965,59.752 C 54.845,59.888 54.689,60.001 54.495,60.091 C 54.301,60.18 54.08,60.259 53.833,60.327 C 53.586,60.395 53.333,60.471 53.073,60.554 C 52.813,60.637 52.559,60.739 52.312,60.861 C 52.065,60.982 51.844,61.142 51.65,61.34 C 51.456,61.539 51.3,61.786 51.18,62.082 C 51.061,62.378 51.001,62.744 51.001,63.179 C 51.001,63.528 51.072,63.869 51.212,64.202 C 51.353,64.534 51.56,64.83 51.832,65.09 C 52.105,65.35 52.44,65.558 52.836,65.714 C 53.232,65.869 53.686,65.947 54.198,65.947 C 54.483,65.947 54.761,65.925 55.032,65.88 C 55.302,65.835 55.559,65.769 55.802,65.681 C 56.045,65.594 56.272,65.49 56.483,65.368 C 56.694,65.247 56.882,65.109 57.049,64.956 L 56.512,63.952 Z" marker-start="none" marker-end="none"/>
       <path d="M 67.442,61.19 C 67.442,60.517 67.326,59.89 67.094,59.311 C 66.862,58.731 66.535,58.227 66.113,57.798 C 65.691,57.37 65.183,57.034 64.588,56.791 C 63.994,56.548 63.334,56.427 62.61,56.427 C 61.885,56.427 61.225,56.548 60.628,56.791 C 60.031,57.034 59.521,57.37 59.097,57.798 C 58.673,58.227 58.345,58.731 58.113,59.311 C 57.88,59.89 57.764,60.517 57.764,61.19 C 57.764,61.864 57.88,62.49 58.113,63.07 C 58.345,63.65 58.673,64.152 59.097,64.579 C 59.521,65.005 60.031,65.34 60.628,65.583 C 61.225,65.825 61.885,65.947 62.61,65.947 C 63.334,65.947 63.994,65.824 64.588,65.579 C 65.183,65.334 65.691,64.999 66.113,64.572 C 66.535,64.146 66.862,63.643 67.094,63.063 C 67.326,62.484 67.442,61.859 67.442,61.19 Z M 65.231,61.19 C 65.231,61.65 65.171,62.064 65.052,62.433 C 64.932,62.801 64.761,63.114 64.537,63.369 C 64.313,63.625 64.039,63.821 63.716,63.957 C 63.392,64.093 63.023,64.161 62.61,64.162 C 62.192,64.161 61.82,64.093 61.494,63.957 C 61.168,63.821 60.893,63.625 60.67,63.369 C 60.446,63.114 60.274,62.801 60.155,62.433 C 60.036,62.064 59.976,61.65 59.976,61.19 C 59.976,60.726 60.036,60.309 60.155,59.941 C 60.274,59.572 60.446,59.26 60.67,59.005 C 60.893,58.749 61.168,58.554 61.494,58.42 C 61.82,58.286 62.192,58.219 62.61,58.219 C 63.023,58.219 63.392,58.286 63.716,58.42 C 64.039,58.554 64.313,58.749 64.537,59.005 C 64.761,59.26 64.932,59.572 65.052,59.941 C 65.171,60.309 65.231,60.726 65.231,61.19 Z" marker-start="none" marker-end="none"/>
       <path d="M 72.35,58.237 C 72.64,58.237 72.899,58.285 73.127,58.381 C 73.355,58.477 73.547,58.614 73.705,58.794 C 73.863,58.973 73.983,59.191 74.066,59.449 C 74.149,59.707 74.191,60 74.191,60.328 L 74.191,65.845 L 76.352,65.845 L 76.352,60.327 C 76.352,59.756 76.259,59.232 76.073,58.754 C 75.888,58.277 75.623,57.866 75.278,57.52 C 74.932,57.175 74.513,56.907 74.018,56.715 C 73.524,56.523 72.968,56.427 72.35,56.427 C 71.728,56.427 71.169,56.523 70.675,56.715 C 70.181,56.907 69.761,57.175 69.416,57.52 C 69.071,57.866 68.806,58.277 68.623,58.754 C 68.44,59.232 68.348,59.756 68.348,60.327 L 68.348,65.845 L 70.509,65.845 L 70.509,60.334 C 70.509,60.006 70.55,59.713 70.634,59.455 C 70.717,59.197 70.837,58.978 70.995,58.797 C 71.152,58.616 71.345,58.477 71.573,58.381 C 71.801,58.285 72.06,58.237 72.35,58.237 Z" marker-start="none" marker-end="none"/>
       <path d="M 79.92,59.976 L 79.92,56.53 L 77.759,56.53 L 77.759,65.844 L 80.789,65.844 C 81.462,65.844 82.037,65.775 82.512,65.636 C 82.987,65.497 83.375,65.304 83.675,65.057 C 83.976,64.809 84.194,64.517 84.33,64.18 C 84.467,63.843 84.535,63.476 84.535,63.079 C 84.535,62.776 84.495,62.49 84.414,62.221 C 84.333,61.953 84.212,61.704 84.052,61.476 C 83.893,61.247 83.697,61.044 83.464,60.864 C 83.232,60.685 82.965,60.538 82.662,60.423 C 82.807,60.351 82.942,60.261 83.068,60.155 C 83.194,60.048 83.303,59.919 83.397,59.765 L 85.379,56.53 L 83.423,56.53 C 83.061,56.53 82.801,56.666 82.643,56.939 L 81.096,59.643 C 81.028,59.763 80.948,59.848 80.856,59.899 C 80.765,59.95 80.636,59.976 80.469,59.976 L 79.92,59.976 Z M 79.92,61.465 L 80.789,61.465 C 81.083,61.465 81.334,61.502 81.54,61.577 C 81.747,61.651 81.916,61.755 82.048,61.887 C 82.18,62.019 82.276,62.173 82.336,62.35 C 82.396,62.527 82.426,62.718 82.426,62.923 C 82.426,63.332 82.292,63.652 82.026,63.882 C 81.76,64.112 81.347,64.227 80.789,64.227 L 79.92,64.227 L 79.92,61.465 Z" marker-start="none" marker-end="none"/>
       <path d="M 92.201,58.938 C 92.252,58.938 92.304,58.929 92.355,58.909 C 92.406,58.889 92.455,58.856 92.502,58.808 L 93.358,57.887 C 92.983,57.405 92.513,57.041 91.949,56.795 C 91.384,56.55 90.716,56.427 89.945,56.427 C 89.237,56.427 88.603,56.547 88.043,56.788 C 87.483,57.029 87.007,57.362 86.617,57.786 C 86.228,58.21 85.928,58.713 85.719,59.295 C 85.511,59.876 85.406,60.508 85.406,61.19 C 85.406,61.885 85.525,62.523 85.764,63.105 C 86.003,63.687 86.336,64.189 86.765,64.611 C 87.193,65.033 87.705,65.361 88.302,65.595 C 88.899,65.83 89.557,65.947 90.277,65.947 C 90.627,65.947 90.956,65.916 91.265,65.854 C 91.574,65.792 91.862,65.707 92.131,65.598 C 92.399,65.489 92.647,65.359 92.872,65.207 C 93.098,65.056 93.299,64.888 93.473,64.705 L 92.745,63.727 C 92.698,63.667 92.642,63.613 92.578,63.564 C 92.514,63.515 92.425,63.49 92.31,63.49 C 92.233,63.49 92.161,63.507 92.093,63.541 C 92.024,63.575 91.952,63.617 91.875,63.666 C 91.799,63.715 91.714,63.768 91.623,63.826 C 91.531,63.883 91.422,63.937 91.297,63.986 C 91.171,64.035 91.024,64.076 90.856,64.11 C 90.687,64.144 90.49,64.161 90.264,64.162 C 89.872,64.161 89.514,64.092 89.19,63.954 C 88.867,63.815 88.588,63.617 88.356,63.359 C 88.124,63.101 87.943,62.789 87.813,62.423 C 87.683,62.056 87.618,61.645 87.618,61.189 C 87.618,60.711 87.683,60.287 87.813,59.916 C 87.943,59.546 88.12,59.233 88.343,58.98 C 88.567,58.726 88.828,58.533 89.127,58.401 C 89.425,58.269 89.744,58.203 90.085,58.203 C 90.281,58.203 90.46,58.213 90.622,58.232 C 90.784,58.251 90.934,58.284 91.073,58.331 C 91.211,58.378 91.344,58.438 91.469,58.513 C 91.595,58.588 91.722,58.68 91.85,58.791 C 91.901,58.834 91.956,58.869 92.016,58.897 C 92.076,58.924 92.137,58.938 92.201,58.938 Z" marker-start="none" marker-end="none"/>
       <path d="M 100.342,65.847 L 100.342,64.183 L 96.52,64.183 L 96.52,62.008 L 99.447,62.008 L 99.447,60.41 L 96.52,60.41 L 96.52,58.194 L 100.342,58.194 L 100.342,56.53 L 94.346,56.53 L 94.346,65.847 L 100.342,65.847 Z" marker-start="none" marker-end="none"/>
      </g>
     </g>
     <g id="Group_23" fill-rule="nonzero" stroke-linejoin="round" stroke-linecap="round" stroke="none" stroke-width="0.365" fill="#000000" stroke-miterlimit="79.8403193612775">
      <g id="Group_24">
       <path d="M 72.005,32.221 C 72.005,31.449 71.872,30.731 71.606,30.067 C 71.34,29.403 70.965,28.825 70.481,28.334 C 69.998,27.843 69.415,27.458 68.734,27.18 C 68.052,26.901 67.296,26.762 66.466,26.762 C 65.636,26.762 64.879,26.901 64.195,27.18 C 63.511,27.458 62.926,27.843 62.44,28.334 C 61.954,28.825 61.578,29.403 61.312,30.067 C 61.045,30.731 60.912,31.449 60.912,32.221 C 60.912,32.993 61.045,33.711 61.312,34.376 C 61.578,35.04 61.954,35.617 62.44,36.105 C 62.926,36.594 63.511,36.977 64.195,37.256 C 64.879,37.534 65.636,37.673 66.466,37.673 C 67.296,37.673 68.052,37.533 68.734,37.252 C 69.415,36.971 69.998,36.586 70.481,36.098 C 70.965,35.609 71.34,35.033 71.606,34.368 C 71.872,33.704 72.005,32.988 72.005,32.221 Z M 69.47,32.221 C 69.47,32.749 69.402,33.223 69.265,33.646 C 69.128,34.068 68.932,34.426 68.675,34.719 C 68.419,35.012 68.105,35.236 67.734,35.393 C 67.362,35.549 66.94,35.627 66.466,35.627 C 65.987,35.627 65.561,35.549 65.188,35.393 C 64.814,35.236 64.499,35.012 64.242,34.719 C 63.986,34.426 63.789,34.068 63.653,33.646 C 63.516,33.223 63.447,32.749 63.447,32.221 C 63.447,31.689 63.516,31.212 63.653,30.789 C 63.789,30.367 63.986,30.009 64.242,29.716 C 64.499,29.423 64.814,29.2 65.188,29.046 C 65.561,28.892 65.987,28.815 66.466,28.815 C 66.94,28.815 67.362,28.892 67.734,29.046 C 68.105,29.2 68.419,29.423 68.675,29.716 C 68.932,30.009 69.128,30.367 69.265,30.789 C 69.402,31.212 69.47,31.689 69.47,32.221 Z" marker-start="none" marker-end="none"/>
       <path d="M 75.9,26.88 L 73.409,26.88 L 73.409,37.559 L 75.9,37.559 L 75.9,26.88 Z" marker-start="none" marker-end="none"/>
       <path d="M 80.353,28.858 L 84.309,28.858 L 84.309,26.88 L 77.876,26.88 L 77.876,37.557 L 80.353,37.557 L 80.353,28.858 Z" marker-start="none" marker-end="none"/>
       <path d="M 92.294,37.673 C 92.768,37.673 93.185,37.604 93.547,37.465 C 93.908,37.325 94.214,37.142 94.463,36.915 C 94.712,36.688 94.907,36.425 95.049,36.127 C 95.191,35.83 95.278,35.524 95.313,35.212 L 93.847,34.918 C 93.823,34.914 93.802,34.91 93.785,34.908 C 93.768,34.905 93.75,34.904 93.73,34.904 C 93.525,34.904 93.373,35.012 93.276,35.226 C 93.163,35.48 93.033,35.673 92.884,35.805 C 92.735,35.937 92.538,36.003 92.294,36.003 C 92.123,36.003 91.974,35.971 91.847,35.907 C 91.72,35.843 91.614,35.759 91.528,35.656 C 91.443,35.553 91.378,35.433 91.334,35.295 C 91.29,35.158 91.268,35.015 91.268,34.868 C 91.268,34.74 91.279,34.617 91.301,34.499 C 91.323,34.381 91.36,34.262 91.411,34.142 C 91.462,34.022 91.533,33.897 91.624,33.77 C 91.714,33.642 91.83,33.504 91.972,33.357 L 94.609,30.556 C 94.741,30.853 94.846,31.163 94.924,31.485 C 95.002,31.807 95.059,32.141 95.093,32.488 C 95.103,32.626 95.148,32.735 95.228,32.814 C 95.309,32.893 95.415,32.933 95.547,32.933 L 96.983,32.933 C 96.983,32.218 96.888,31.55 96.697,30.93 C 96.507,30.311 96.236,29.744 95.884,29.229 L 98.126,26.88 L 95.884,26.88 C 95.772,26.88 95.672,26.886 95.584,26.898 C 95.496,26.911 95.414,26.931 95.338,26.961 C 95.263,26.99 95.191,27.031 95.122,27.085 C 95.054,27.139 94.98,27.207 94.902,27.291 L 94.441,27.774 C 93.977,27.451 93.47,27.202 92.92,27.026 C 92.371,26.85 91.786,26.762 91.166,26.762 C 90.741,26.762 90.324,26.834 89.916,26.979 C 89.509,27.124 89.146,27.331 88.828,27.599 C 88.511,27.867 88.254,28.193 88.059,28.574 C 87.864,28.956 87.766,29.384 87.766,29.857 C 87.766,30.176 87.816,30.478 87.916,30.763 C 88.016,31.048 88.157,31.313 88.338,31.557 C 88.518,31.801 88.734,32.023 88.986,32.224 C 89.237,32.424 89.512,32.6 89.81,32.749 C 89.581,33.111 89.415,33.465 89.312,33.812 C 89.209,34.158 89.158,34.495 89.158,34.821 C 89.158,35.208 89.228,35.573 89.367,35.917 C 89.506,36.261 89.709,36.563 89.975,36.823 C 90.241,37.083 90.569,37.29 90.957,37.443 C 91.345,37.597 91.791,37.673 92.294,37.673 Z M 90.081,30.051 C 90.081,29.82 90.117,29.611 90.188,29.424 C 90.258,29.236 90.36,29.075 90.492,28.94 C 90.623,28.806 90.781,28.701 90.964,28.627 C 91.147,28.552 91.351,28.515 91.576,28.515 C 91.903,28.515 92.207,28.557 92.488,28.641 C 92.769,28.726 93.032,28.844 93.276,28.998 L 90.821,31.559 C 90.553,31.343 90.362,31.107 90.25,30.852 C 90.137,30.597 90.081,30.33 90.081,30.051 Z" marker-start="none" marker-end="none"/>
       <path d="M 106.757,28.669 C 107.099,28.669 107.402,28.697 107.666,28.755 C 107.93,28.813 108.179,28.89 108.413,28.986 L 108.413,30.608 L 107.358,30.608 C 107.202,30.608 107.08,30.649 106.992,30.732 C 106.904,30.815 106.86,30.921 106.86,31.048 L 106.86,32.411 L 110.655,32.411 L 110.655,27.905 C 110.382,27.705 110.097,27.533 109.802,27.388 C 109.506,27.244 109.191,27.126 108.857,27.033 C 108.522,26.94 108.165,26.872 107.787,26.828 C 107.408,26.784 107.002,26.762 106.567,26.762 C 105.785,26.762 105.062,26.9 104.398,27.176 C 103.734,27.452 103.159,27.833 102.673,28.319 C 102.187,28.805 101.806,29.382 101.53,30.049 C 101.254,30.716 101.116,31.44 101.116,32.221 C 101.116,33.018 101.248,33.749 101.511,34.416 C 101.775,35.083 102.153,35.658 102.643,36.142 C 103.134,36.625 103.728,37.002 104.424,37.27 C 105.12,37.539 105.898,37.673 106.757,37.673 C 107.202,37.673 107.62,37.637 108.01,37.563 C 108.401,37.49 108.761,37.39 109.091,37.262 C 109.421,37.135 109.722,36.984 109.996,36.808 C 110.269,36.632 110.514,36.441 110.729,36.235 L 110.01,35.144 C 109.942,35.041 109.86,34.96 109.765,34.902 C 109.67,34.843 109.566,34.814 109.454,34.814 C 109.307,34.814 109.156,34.863 108.999,34.96 C 108.804,35.077 108.62,35.179 108.446,35.264 C 108.273,35.35 108.096,35.419 107.915,35.473 C 107.734,35.527 107.544,35.566 107.344,35.59 C 107.143,35.615 106.919,35.627 106.669,35.627 C 106.205,35.627 105.788,35.545 105.417,35.382 C 105.045,35.218 104.729,34.987 104.468,34.69 C 104.206,34.392 104.005,34.034 103.863,33.617 C 103.722,33.199 103.651,32.734 103.651,32.221 C 103.651,31.655 103.729,31.152 103.885,30.712 C 104.042,30.273 104.258,29.902 104.534,29.599 C 104.81,29.296 105.137,29.066 105.515,28.907 C 105.894,28.748 106.308,28.669 106.757,28.669 Z" marker-start="none" marker-end="none"/>
       <path d="M 122.098,26.88 L 120.179,26.88 C 119.964,26.88 119.787,26.93 119.648,27.03 C 119.508,27.13 119.412,27.259 119.358,27.415 L 118.728,29.277 L 114.669,29.277 L 114.039,27.415 C 113.99,27.278 113.895,27.155 113.753,27.045 C 113.611,26.935 113.438,26.88 113.233,26.88 L 111.299,26.88 L 115.431,37.557 L 117.966,37.557 L 122.098,26.88 Z M 115.24,30.962 L 118.157,30.962 L 117.175,33.841 C 117.111,34.023 117.037,34.239 116.951,34.486 C 116.866,34.734 116.782,35.002 116.698,35.291 C 116.62,34.997 116.54,34.726 116.457,34.475 C 116.374,34.226 116.296,34.009 116.222,33.826 L 115.24,30.962 Z" marker-start="none" marker-end="none"/>
       <path d="M 128.91,35.387 C 128.836,35.269 128.759,35.181 128.679,35.123 C 128.598,35.064 128.494,35.035 128.367,35.035 C 128.255,35.035 128.134,35.07 128.005,35.141 C 127.875,35.212 127.729,35.291 127.565,35.379 C 127.401,35.467 127.215,35.547 127.005,35.617 C 126.795,35.688 126.555,35.724 126.287,35.724 C 125.823,35.724 125.477,35.625 125.25,35.427 C 125.023,35.229 124.909,34.962 124.909,34.625 C 124.909,34.409 124.978,34.231 125.114,34.09 C 125.251,33.948 125.431,33.826 125.653,33.723 C 125.875,33.621 126.129,33.527 126.415,33.441 C 126.701,33.356 126.992,33.26 127.29,33.155 C 127.588,33.05 127.88,32.927 128.166,32.785 C 128.452,32.644 128.706,32.463 128.928,32.243 C 129.15,32.023 129.33,31.756 129.466,31.441 C 129.603,31.126 129.672,30.746 129.672,30.301 C 129.672,29.808 129.586,29.346 129.415,28.916 C 129.244,28.486 128.996,28.112 128.671,27.792 C 128.347,27.472 127.946,27.22 127.47,27.037 C 126.994,26.854 126.453,26.762 125.847,26.762 C 125.515,26.762 125.177,26.796 124.832,26.865 C 124.488,26.933 124.154,27.029 123.832,27.154 C 123.51,27.279 123.207,27.426 122.924,27.597 C 122.64,27.768 122.394,27.959 122.184,28.169 L 122.916,29.327 C 122.97,29.415 123.046,29.486 123.143,29.539 C 123.241,29.593 123.346,29.62 123.458,29.62 C 123.605,29.62 123.753,29.574 123.902,29.481 C 124.051,29.388 124.219,29.285 124.407,29.173 C 124.595,29.061 124.811,28.958 125.056,28.865 C 125.3,28.772 125.588,28.726 125.92,28.726 C 126.37,28.726 126.719,28.825 126.968,29.023 C 127.217,29.22 127.342,29.535 127.342,29.964 C 127.342,30.214 127.273,30.416 127.136,30.573 C 127,30.729 126.82,30.858 126.598,30.961 C 126.376,31.064 126.123,31.154 125.84,31.232 C 125.556,31.31 125.266,31.397 124.968,31.492 C 124.67,31.587 124.379,31.705 124.096,31.844 C 123.813,31.983 123.56,32.166 123.338,32.394 C 123.115,32.621 122.936,32.904 122.799,33.244 C 122.662,33.583 122.594,34.002 122.594,34.5 C 122.594,34.901 122.674,35.292 122.836,35.673 C 122.997,36.054 123.234,36.393 123.546,36.691 C 123.859,36.989 124.242,37.228 124.697,37.406 C 125.151,37.584 125.671,37.673 126.257,37.673 C 126.585,37.673 126.903,37.648 127.213,37.596 C 127.524,37.545 127.818,37.469 128.096,37.369 C 128.375,37.269 128.635,37.149 128.877,37.01 C 129.118,36.871 129.335,36.713 129.525,36.537 L 128.91,35.387 Z" marker-start="none" marker-end="none"/>
       <path d="M 130.521,28.17 C 130.521,28.326 130.551,28.472 130.609,28.606 C 130.668,28.741 130.752,28.858 130.862,28.958 C 130.972,29.058 131.101,29.137 131.25,29.196 C 131.399,29.255 131.567,29.284 131.752,29.284 C 131.972,29.284 132.162,29.246 132.324,29.17 C 132.485,29.095 132.619,28.992 132.727,28.863 C 132.834,28.733 132.913,28.584 132.965,28.416 C 133.016,28.247 133.042,28.07 133.042,27.884 C 133.042,27.64 133.003,27.38 132.924,27.104 C 132.846,26.828 132.73,26.551 132.576,26.272 C 132.423,25.994 132.231,25.72 132.001,25.451 C 131.772,25.183 131.508,24.938 131.21,24.719 L 130.814,25.07 C 130.761,25.124 130.72,25.174 130.693,25.221 C 130.667,25.267 130.653,25.324 130.653,25.393 C 130.653,25.442 130.67,25.494 130.704,25.55 C 130.739,25.607 130.78,25.657 130.829,25.701 C 130.888,25.759 130.956,25.83 131.034,25.913 C 131.112,25.996 131.19,26.089 131.269,26.192 C 131.347,26.294 131.419,26.407 131.485,26.529 C 131.551,26.651 131.601,26.78 131.635,26.917 C 131.464,26.932 131.31,26.973 131.173,27.042 C 131.037,27.11 130.921,27.201 130.825,27.313 C 130.73,27.425 130.656,27.553 130.602,27.698 C 130.548,27.842 130.521,27.999 130.521,28.17 Z" marker-start="none" marker-end="none"/>
       <path d="M 139.895,26.88 L 137.404,26.88 L 137.404,37.559 L 139.895,37.559 L 139.895,26.88 Z" marker-start="none" marker-end="none"/>
       <path d="M 143.175,37.559 C 143.283,37.559 143.373,37.554 143.446,37.544 C 143.52,37.535 143.586,37.516 143.644,37.489 C 143.703,37.462 143.759,37.424 143.813,37.376 C 143.867,37.327 143.928,37.261 143.996,37.178 L 149.066,30.767 C 149.047,30.972 149.032,31.171 149.022,31.364 C 149.012,31.557 149.007,31.739 149.007,31.91 L 149.007,37.559 L 151.191,37.559 L 151.191,26.88 L 149.901,26.88 C 149.711,26.88 149.55,26.909 149.418,26.968 C 149.286,27.027 149.159,27.134 149.037,27.29 L 144.003,33.65 C 144.018,33.464 144.03,33.282 144.04,33.104 C 144.05,32.926 144.055,32.759 144.055,32.602 L 144.055,26.88 L 141.871,26.88 L 141.871,37.559 L 143.175,37.559 Z" marker-start="none" marker-end="none"/>
       <path d="M 160.12,29.64 C 160.179,29.64 160.237,29.629 160.296,29.607 C 160.355,29.584 160.411,29.546 160.464,29.491 L 161.446,28.436 C 161.016,27.883 160.478,27.465 159.831,27.184 C 159.184,26.903 158.418,26.762 157.534,26.762 C 156.723,26.762 155.996,26.9 155.354,27.176 C 154.712,27.452 154.167,27.833 153.72,28.319 C 153.273,28.805 152.93,29.382 152.691,30.049 C 152.451,30.716 152.332,31.44 152.332,32.221 C 152.332,33.018 152.469,33.749 152.742,34.416 C 153.016,35.083 153.398,35.658 153.889,36.142 C 154.38,36.625 154.967,37.002 155.651,37.27 C 156.335,37.539 157.089,37.673 157.915,37.673 C 158.315,37.673 158.693,37.638 159.047,37.567 C 159.401,37.496 159.732,37.398 160.04,37.273 C 160.347,37.149 160.631,37 160.889,36.826 C 161.148,36.652 161.378,36.46 161.578,36.25 L 160.743,35.129 C 160.689,35.06 160.626,34.998 160.552,34.942 C 160.479,34.886 160.377,34.858 160.245,34.858 C 160.157,34.858 160.074,34.877 159.996,34.916 C 159.917,34.955 159.834,35.003 159.746,35.059 C 159.659,35.115 159.562,35.176 159.457,35.242 C 159.352,35.308 159.227,35.369 159.083,35.426 C 158.939,35.482 158.771,35.529 158.578,35.569 C 158.385,35.607 158.159,35.627 157.9,35.627 C 157.451,35.627 157.04,35.548 156.669,35.389 C 156.298,35.23 155.979,35.003 155.713,34.707 C 155.447,34.412 155.239,34.054 155.09,33.634 C 154.941,33.214 154.867,32.742 154.867,32.22 C 154.867,31.672 154.941,31.186 155.09,30.761 C 155.239,30.336 155.442,29.979 155.698,29.688 C 155.955,29.397 156.254,29.176 156.596,29.025 C 156.938,28.873 157.304,28.798 157.695,28.798 C 157.92,28.798 158.125,28.809 158.31,28.831 C 158.496,28.853 158.668,28.89 158.827,28.944 C 158.986,28.998 159.137,29.067 159.281,29.153 C 159.425,29.238 159.571,29.345 159.717,29.472 C 159.776,29.521 159.839,29.561 159.908,29.593 C 159.976,29.624 160.047,29.64 160.12,29.64 Z" marker-start="none" marker-end="none"/>
       <path d="M 162.139,28.03 C 162.139,28.206 162.172,28.37 162.238,28.521 C 162.303,28.673 162.394,28.805 162.509,28.917 C 162.623,29.03 162.759,29.119 162.915,29.185 C 163.072,29.251 163.243,29.284 163.428,29.284 C 163.609,29.284 163.777,29.251 163.934,29.185 C 164.09,29.119 164.227,29.03 164.344,28.917 C 164.461,28.805 164.553,28.673 164.619,28.521 C 164.685,28.37 164.718,28.206 164.718,28.03 C 164.718,27.854 164.685,27.689 164.619,27.535 C 164.553,27.381 164.461,27.248 164.344,27.136 C 164.227,27.023 164.09,26.935 163.934,26.872 C 163.777,26.808 163.609,26.776 163.428,26.776 C 163.243,26.776 163.072,26.808 162.915,26.872 C 162.759,26.935 162.623,27.023 162.509,27.136 C 162.394,27.248 162.303,27.381 162.238,27.535 C 162.172,27.689 162.139,27.854 162.139,28.03 Z" marker-start="none" marker-end="none"/>
      </g>
     </g>
    </g>
   </g>
  </g>
 </g>
</svg>
