<?xml version="1.0" standalone="no"?>
<!DOCTYPE svg PUBLIC "-//W3C//DTD SVG 1.1//EN" "http://www.w3.org/Graphics/SVG/1.1/DTD/svg11.dtd">
<!--Generator: Xara Designer (www.xara.com), SVG filter version: 6.2.0.0-->
<svg stroke-width="0.501" stroke-linejoin="bevel" fill-rule="evenodd" xmlns:xlink="http://www.w3.org/1999/xlink" xmlns="http://www.w3.org/2000/svg" version="1.1" overflow="visible" width="215.434pt" height="215.434pt" viewBox="0 0 215.434 215.434">
 <defs>
	</defs>
 <g id="Document" fill="none" stroke="black" font-family="Times New Roman" font-size="16" transform="scale(1 -1)">
  <g id="Spread" transform="translate(0 -215.434)">
   <g id="Layer 1">
    <g id="Group">
     <path d="M 199.757,214.933 L 15.176,214.933 C 6.799,214.933 0,208.134 0,199.757 L 0,15.176 C 0,6.799 6.799,0 15.176,0 L 199.757,0 C 208.134,0 214.933,6.799 214.933,15.176 L 214.933,199.757 C 214.933,208.134 208.134,214.933 199.757,214.933 Z" stroke="#999999" fill="#ffffff" stroke-linejoin="miter" marker-start="none" marker-end="none"/>
     <g id="Group_1" stroke-linejoin="miter" stroke-miterlimit="79.8403193612775">
      <path d="M 153.485,158.48 C 144.588,169.02 145.913,184.806 156.465,193.689 C 166.996,202.604 182.761,201.272 191.662,190.735 C 200.576,180.194 199.24,164.42 188.687,155.517 C 178.155,146.621 162.383,147.952 153.485,158.48 Z" stroke="none" fill="#000000" stroke-width="1.039" marker-start="none" marker-end="none" stroke-miterlimit="19.9600798403194"/>
      <path d="M 154.662,159.437 C 145.775,169.982 147.091,185.734 157.635,194.652 C 168.179,203.524 183.945,202.21 192.862,191.673 C 201.756,181.135 200.423,165.352 189.876,156.455 C 179.348,147.559 163.567,148.883 154.662,159.437 Z" stroke="#b2b2b2" stroke-width="5.658" marker-start="none" marker-end="none" stroke-miterlimit="19.9600798403194"/>
     </g>
     <text xml:space="preserve" transform="translate(164.865 164.648) scale(1 -1)" font-family="Lato Black" stroke="none" fill="#b2b2b2" stroke-width="0.773" stroke-linejoin="round" stroke-linecap="round" font-weight="bold" font-size="30.96" stroke-miterlimit="79.8403193612775"><tspan x="0" y="0">3</tspan></text>
     <g id="Group_2" stroke-linejoin="miter" stroke-miterlimit="79.8403193612775">
      <path d="M 22.442,158.05 C 13.545,168.59 14.87,184.376 25.422,193.259 C 35.953,202.174 51.718,200.842 60.619,190.305 C 69.533,179.764 68.197,163.99 57.644,155.087 C 47.112,146.191 31.34,147.522 22.442,158.05 Z" stroke="none" fill="#000000" stroke-width="1.039" marker-start="none" marker-end="none" stroke-miterlimit="19.9600798403194"/>
      <path d="M 23.619,159.007 C 14.732,169.552 16.048,185.304 26.592,194.222 C 37.136,203.094 52.902,201.78 61.819,191.243 C 70.713,180.705 69.38,164.922 58.833,156.025 C 48.305,147.129 32.524,148.453 23.619,159.007 Z" stroke="#b2b2b2" stroke-width="5.658" marker-start="none" marker-end="none" stroke-miterlimit="19.9600798403194"/>
     </g>
     <path d="M 95.238,115.795 C 108.677,128.062 115.506,144.876 115.509,161.749 L 123.989,161.749 C 123.983,142.577 116.233,123.464 100.964,109.53 C 87.403,97.157 70.326,91.055 53.303,91.06 L 53.303,99.546 C 68.285,99.539 83.312,104.908 95.238,115.795 Z" fill="#e5e5e5" stroke-linecap="round" stroke="none" stroke-width="0.541" stroke-linejoin="round" marker-start="none" marker-end="none" stroke-miterlimit="79.8403193612775"/>
     <path d="M 15.35,95.287 L 18.395,97.405 L 21.447,99.527 L 21.448,99.58 L 48.725,99.58 L 48.724,91.044 L 21.448,91.044 L 18.395,93.164 L 15.35,95.287 Z" fill="#e5e5e5" stroke-linecap="round" stroke="none" stroke-width="0.103" stroke-linejoin="miter" marker-start="none" marker-end="none" stroke-miterlimit="79.8403193612775"/>
     <path d="M 15.346,106.837 L 18.393,108.957 L 21.448,111.078 L 21.448,106.837 L 21.444,102.596 L 18.392,104.718 L 15.346,106.837 Z M 21.448,111.101 L 48.725,111.102 L 48.725,102.567 L 21.448,102.567 L 21.448,111.101 Z" fill="#e5e5e5" stroke-linecap="round" stroke="none" stroke-width="0.103" stroke-linejoin="miter" marker-start="none" marker-end="none" stroke-miterlimit="79.8403193612775"/>
     <path d="M 87.616,124.149 C 98.607,134.189 104.194,147.944 104.2,161.749 L 112.68,161.749 C 112.675,145.641 106.161,129.592 93.333,117.883 C 81.947,107.489 67.604,102.369 53.304,102.372 L 53.303,110.858 C 65.56,110.848 77.852,115.243 87.616,124.149 Z" fill="#e5e5e5" stroke-linecap="round" stroke="none" stroke-width="0.453" stroke-linejoin="round" marker-start="none" marker-end="none" stroke-miterlimit="79.8403193612775"/>
     <g id="Group_3" fill="#00d702" stroke-linecap="round" stroke="none">
      <path d="M 15.346,118.153 L 18.392,120.268 L 21.448,122.39 L 21.448,118.149 L 21.444,113.906 L 18.392,116.026 L 15.346,118.153 Z M 21.448,122.4 L 48.725,122.399 L 48.725,113.864 L 21.448,113.864 L 21.448,122.4 Z" stroke-width="0.103" stroke-linejoin="miter" marker-start="none" marker-end="none" stroke-miterlimit="79.8403193612775"/>
      <path d="M 79.989,132.504 C 88.541,140.311 92.88,151.016 92.887,161.749 L 101.372,161.748 C 101.368,148.707 96.095,135.717 85.706,126.238 C 76.491,117.827 64.875,113.679 53.303,113.681 L 53.303,122.163 C 62.836,122.163 72.4,125.577 79.989,132.504 Z" stroke-width="0.368" stroke-linejoin="round" marker-start="none" marker-end="none" stroke-miterlimit="79.8403193612775"/>
     </g>
     <path d="M 72.368,140.859 C 78.475,146.437 81.575,154.075 81.578,161.748 L 90.065,161.749 C 90.055,151.779 86.023,141.84 78.085,134.597 C 71.035,128.158 62.159,124.987 53.303,124.991 L 53.303,133.479 C 60.11,133.472 66.942,135.914 72.368,140.859 Z" fill="#e5e5e5" stroke-linecap="round" stroke="none" stroke-width="0.281" stroke-linejoin="round" marker-start="none" marker-end="none" stroke-miterlimit="79.8403193612775"/>
     <path d="M 15.35,129.206 L 18.394,131.338 L 21.447,133.479 L 21.447,133.479 L 48.724,133.479 L 48.725,124.94 L 21.448,124.94 L 21.448,124.94 L 18.393,127.07 L 15.35,129.206 Z" fill="#e5e5e5" stroke-linecap="round" stroke="none" stroke-width="0.103" stroke-linejoin="miter" marker-start="none" marker-end="none" stroke-miterlimit="79.8403193612775"/>
     <g id="Group_4" stroke-linejoin="miter" stroke-miterlimit="79.8403193612775">
      <path d="M 80.66,120.39 C 76.138,125.741 76.815,133.761 82.171,138.288 C 87.528,142.804 95.547,142.131 100.071,136.774 C 104.594,131.419 103.914,123.402 98.56,118.879 C 93.203,114.355 85.185,115.031 80.66,120.39 Z" stroke="none" fill="#ffffff" stroke-width="0.526" marker-start="none" marker-end="none" stroke-miterlimit="19.9600798403194"/>
      <path d="M 81.268,120.868 C 76.741,126.222 77.415,134.238 82.775,138.762 C 88.133,143.286 96.148,142.613 100.673,137.25 C 105.2,131.895 104.516,123.878 99.165,119.352 C 93.805,114.827 85.79,115.508 81.268,120.868 Z" fill="none" stroke="#55bae6" stroke-width="2.872" marker-start="none" marker-end="none" stroke-miterlimit="19.9600798403194"/>
     </g>
     <g id="Group_5" stroke-linejoin="miter" stroke-miterlimit="79.8403193612775">
      <path d="M 23.033,103.593 C 18.509,108.949 19.188,116.966 24.543,121.494 C 29.903,126.015 37.923,125.337 42.446,119.979 C 46.974,114.626 46.291,106.604 40.935,102.085 C 35.576,97.566 27.56,98.24 23.033,103.593 Z" stroke="none" fill="#ffffff" stroke-width="0.526" marker-start="none" marker-end="none" stroke-miterlimit="19.9600798403194"/>
      <path d="M 23.64,104.077 C 19.116,109.428 19.792,117.448 25.152,121.972 C 30.511,126.493 38.526,125.819 43.049,120.459 C 47.576,115.106 46.898,107.086 41.542,102.565 C 36.179,98.04 28.163,98.716 23.64,104.077 Z" fill="none" stroke="#55bae6" stroke-width="2.872" marker-start="none" marker-end="none" stroke-miterlimit="19.9600798403194"/>
     </g>
     <g id="Group_6" fill-rule="nonzero" stroke-linejoin="round" stroke-linecap="round" stroke="none" stroke-width="0.387" fill="#000000" stroke-miterlimit="79.8403193612775">
      <g id="Group_7">
       <path d="M 87.397,132.561 L 87.397,129.479 L 90.276,129.479 L 90.276,127.75 L 87.397,127.75 L 87.397,124.653 L 85.436,124.653 L 85.436,127.75 L 82.572,127.75 L 82.572,129.479 L 85.436,129.479 L 85.436,132.561 L 87.397,132.561 Z" marker-start="none" marker-end="none"/>
       <path d="M 92.907,125.128 L 95.086,125.128 L 95.086,130.848 C 95.086,131.129 95.094,131.422 95.109,131.728 L 93.825,130.661 C 93.742,130.594 93.659,130.546 93.576,130.517 C 93.493,130.489 93.413,130.475 93.335,130.475 C 93.2,130.475 93.08,130.504 92.973,130.564 C 92.867,130.624 92.788,130.687 92.736,130.755 L 91.973,131.767 L 95.506,134.732 L 97.499,134.732 L 97.499,125.128 L 99.366,125.128 L 99.366,123.384 L 92.907,123.384 L 92.907,125.128 Z" marker-start="none" marker-end="none"/>
      </g>
     </g>
     <g id="Group_8" fill-rule="nonzero" stroke-linejoin="round" stroke-linecap="round" stroke="none" stroke-width="0.387" fill="#000000" stroke-miterlimit="79.8403193612775">
      <g id="Group_9">
       <path d="M 37.548,112.271 C 37.548,111.28 37.442,110.421 37.229,109.695 C 37.016,108.968 36.722,108.366 36.346,107.889 C 35.97,107.412 35.523,107.056 35.007,106.823 C 34.491,106.589 33.932,106.473 33.33,106.473 C 32.728,106.473 32.172,106.589 31.661,106.823 C 31.15,107.056 30.708,107.412 30.334,107.889 C 29.96,108.366 29.669,108.968 29.458,109.695 C 29.248,110.421 29.143,111.28 29.143,112.271 C 29.143,113.262 29.248,114.121 29.458,114.848 C 29.669,115.574 29.96,116.176 30.334,116.653 C 30.708,117.131 31.15,117.485 31.661,117.716 C 32.172,117.947 32.728,118.062 33.33,118.062 C 33.932,118.062 34.491,117.947 35.007,117.716 C 35.523,117.485 35.97,117.131 36.346,116.653 C 36.722,116.176 37.016,115.574 37.229,114.848 C 37.442,114.121 37.548,113.262 37.548,112.271 Z M 35.058,112.271 C 35.058,113.055 35.008,113.697 34.91,114.198 C 34.811,114.699 34.68,115.092 34.517,115.377 C 34.353,115.662 34.168,115.858 33.96,115.965 C 33.753,116.071 33.543,116.124 33.33,116.124 C 33.117,116.124 32.909,116.071 32.704,115.965 C 32.499,115.858 32.317,115.662 32.159,115.377 C 32.001,115.092 31.874,114.699 31.778,114.198 C 31.682,113.697 31.634,113.055 31.634,112.271 C 31.634,111.483 31.682,110.839 31.778,110.341 C 31.874,109.843 32.001,109.45 32.159,109.162 C 32.317,108.874 32.499,108.676 32.704,108.57 C 32.909,108.464 33.117,108.411 33.33,108.411 C 33.543,108.411 33.753,108.464 33.96,108.57 C 34.168,108.676 34.353,108.874 34.517,109.162 C 34.68,109.45 34.811,109.843 34.91,110.341 C 35.008,110.839 35.058,111.483 35.058,112.271 Z" marker-start="none" marker-end="none"/>
      </g>
     </g>
     <g id="Group_10" stroke="#f0942b" stroke-linejoin="miter" stroke-linecap="round">
      <path d="M 15.549,68.362 L 15.549,34.47 L 119.137,34.47 L 119.137,68.362 L 15.549,68.362 Z" fill="#f0942b" stroke-width="1.738" marker-start="none" marker-end="none" stroke-miterlimit="79.8403193612775"/>
      <path d="M 15.549,69.705 L 15.549,59.895 C 15.549,57.324 17.633,55.247 20.195,55.247 L 114.487,55.247 C 117.049,55.247 119.137,57.324 119.137,59.895 L 119.137,69.705 C 119.137,72.281 117.049,74.359 114.487,74.359 L 20.195,74.359 C 17.633,74.359 15.549,72.281 15.549,69.705 Z" fill="#f0942b" stroke-width="1.738" marker-start="none" marker-end="none" stroke-miterlimit="79.8403193612775"/>
      <path d="M 16.246,40.812 L 16.246,23.167 C 16.246,18.554 19.99,14.808 24.608,14.808 L 191.654,14.808 C 196.267,14.808 200.015,18.554 200.015,23.167 L 200.015,40.812 C 200.015,45.43 196.267,49.178 191.654,49.178 L 24.608,49.178 C 19.99,49.178 16.246,45.43 16.246,40.812 Z" fill="#ffffff" stroke-width="3.13" marker-start="none" marker-end="none" stroke-miterlimit="79.8403193612775"/>
     </g>
     <g id="Group_11" stroke-linejoin="miter" stroke-miterlimit="79.8403193612775">
      <path d="M 169.691,93.711 C 163.791,100.689 164.67,111.149 171.665,117.058 C 178.647,122.95 189.1,122.071 195.004,115.084 C 200.913,108.092 200.027,97.638 193.03,91.733 C 186.048,85.838 175.591,86.717 169.691,93.711 Z" stroke="none" fill="#000000" stroke-width="0.686" marker-start="none" marker-end="none" stroke-miterlimit="19.9600798403194"/>
      <path d="M 170.469,94.32 C 164.578,101.318 165.45,111.777 172.443,117.67 C 179.432,123.579 189.884,122.696 195.8,115.703 C 201.697,108.721 200.812,98.269 193.818,92.364 C 186.839,86.458 176.375,87.337 170.469,94.32 Z" stroke="#b2b2b2" stroke-width="3.752" marker-start="none" marker-end="none" stroke-miterlimit="19.9600798403194"/>
     </g>
     <g id="Group_12" stroke-linejoin="miter" stroke-miterlimit="79.8403193612775">
      <path d="M 129.006,93.698 C 123.106,100.687 123.985,111.155 130.982,117.046 C 137.965,122.957 148.419,122.074 154.321,115.086 C 160.232,108.097 159.346,97.637 152.348,91.733 C 145.365,85.834 134.906,86.717 129.006,93.698 Z" stroke="none" fill="#ffffff" stroke-width="0.689" marker-start="none" marker-end="none" stroke-miterlimit="19.9600798403194"/>
      <path d="M 129.786,94.333 C 123.893,101.325 124.766,111.771 131.758,117.684 C 138.749,123.568 149.204,122.696 155.117,115.708 C 161.015,108.721 160.131,98.255 153.137,92.355 C 146.156,86.456 135.691,87.334 129.786,94.333 Z" stroke="#55bae6" stroke-width="3.752" marker-start="none" marker-end="none" stroke-miterlimit="19.9600798403194"/>
     </g>
     <g id="Group_13" stroke-linejoin="miter" stroke-miterlimit="79.8403193612775">
      <path d="M 153.485,158.479 C 144.588,169.019 145.913,184.805 156.465,193.689 C 166.996,202.603 182.761,201.271 191.662,190.733 C 200.576,180.193 199.24,164.419 188.686,155.516 C 178.155,146.62 162.383,147.951 153.485,158.479 Z" stroke="none" fill="#ffffff" stroke-width="1.039" marker-start="none" marker-end="none" stroke-miterlimit="19.9600798403194"/>
      <path d="M 154.662,159.436 C 145.775,169.981 147.091,185.734 157.635,194.651 C 168.178,203.524 183.945,202.209 192.862,191.671 C 201.756,181.134 200.423,165.351 189.876,156.454 C 179.348,147.558 163.567,148.882 154.662,159.436 Z" stroke="#55bae6" stroke-width="5.658" marker-start="none" marker-end="none" stroke-miterlimit="19.9600798403194"/>
     </g>
     <g id="Group_14" fill-rule="nonzero" stroke-linejoin="round" stroke-linecap="round" stroke="none" stroke-width="0.485" fill="#b2b2b2" stroke-miterlimit="79.8403193612775">
      <g id="Group_15">
       <path d="M 182.314,112.272 C 183.015,112.272 183.647,112.17 184.209,111.965 C 184.771,111.761 185.25,111.476 185.647,111.113 C 186.043,110.749 186.347,110.315 186.558,109.812 C 186.769,109.308 186.875,108.754 186.875,108.15 C 186.875,107.63 186.802,107.149 186.655,106.707 C 186.509,106.265 186.309,105.845 186.056,105.445 C 185.803,105.046 185.509,104.659 185.174,104.285 C 184.839,103.912 184.484,103.533 184.107,103.15 L 181.329,100.304 C 181.687,100.409 182.039,100.492 182.387,100.554 C 182.734,100.617 183.061,100.647 183.366,100.647 L 186.017,100.647 C 186.342,100.647 186.598,100.558 186.787,100.379 C 186.975,100.2 187.07,99.964 187.07,99.672 L 187.07,97.916 L 177.09,97.916 L 177.09,98.891 C 177.09,99.079 177.129,99.28 177.207,99.495 C 177.285,99.709 177.422,99.904 177.616,100.08 L 181.71,104.203 C 182.06,104.554 182.366,104.889 182.626,105.207 C 182.885,105.525 183.1,105.839 183.269,106.147 C 183.438,106.456 183.564,106.765 183.649,107.073 C 183.733,107.382 183.776,107.709 183.776,108.053 C 183.776,108.618 183.641,109.052 183.371,109.354 C 183.101,109.656 182.691,109.808 182.138,109.808 C 181.911,109.808 181.703,109.775 181.515,109.71 C 181.326,109.645 181.157,109.557 181.008,109.447 C 180.858,109.337 180.73,109.207 180.623,109.057 C 180.516,108.908 180.43,108.745 180.365,108.57 C 180.261,108.278 180.129,108.067 179.97,107.937 C 179.811,107.807 179.595,107.742 179.322,107.742 C 179.257,107.742 179.187,107.745 179.112,107.751 C 179.038,107.758 178.961,107.767 178.883,107.78 L 177.285,108.058 C 177.389,108.767 177.589,109.385 177.884,109.912 C 178.18,110.439 178.547,110.877 178.986,111.229 C 179.424,111.58 179.926,111.841 180.491,112.014 C 181.057,112.186 181.664,112.272 182.314,112.272 Z" marker-start="none" marker-end="none"/>
      </g>
     </g>
     <g id="Group_16" fill-rule="nonzero" stroke-linejoin="round" stroke-linecap="round" stroke="none" stroke-width="0.485" fill="#000000" stroke-miterlimit="79.8403193612775">
      <g id="Group_17">
       <path d="M 142.832,112.272 C 143.533,112.272 144.157,112.173 144.703,111.974 C 145.248,111.776 145.71,111.507 146.087,111.168 C 146.463,110.829 146.749,110.437 146.944,109.99 C 147.139,109.544 147.237,109.073 147.237,108.578 C 147.237,108.129 147.191,107.733 147.1,107.39 C 147.009,107.048 146.874,106.752 146.696,106.501 C 146.517,106.25 146.296,106.037 146.033,105.861 C 145.77,105.685 145.469,105.539 145.132,105.421 C 146.704,104.877 147.49,103.81 147.49,102.222 C 147.49,101.47 147.353,100.816 147.081,100.258 C 146.808,99.7 146.442,99.237 145.984,98.868 C 145.526,98.498 144.995,98.221 144.391,98.036 C 143.787,97.851 143.156,97.759 142.5,97.759 C 141.825,97.759 141.224,97.832 140.697,97.978 C 140.171,98.124 139.703,98.352 139.294,98.66 C 138.885,98.969 138.526,99.363 138.217,99.844 C 137.909,100.325 137.641,100.896 137.413,101.559 L 138.758,102.106 C 138.875,102.159 138.99,102.194 139.104,102.214 C 139.218,102.233 139.33,102.243 139.44,102.243 C 139.648,102.243 139.835,102.202 140.001,102.121 C 140.166,102.04 140.291,101.921 140.376,101.765 C 140.668,101.225 140.978,100.833 141.306,100.59 C 141.635,100.346 142.019,100.224 142.461,100.224 C 142.799,100.224 143.093,100.281 143.343,100.395 C 143.593,100.508 143.801,100.654 143.967,100.833 C 144.133,101.012 144.258,101.216 144.342,101.443 C 144.427,101.671 144.469,101.902 144.469,102.136 C 144.469,102.441 144.448,102.716 144.406,102.96 C 144.363,103.204 144.245,103.414 144.05,103.589 C 143.855,103.765 143.561,103.9 143.168,103.994 C 142.775,104.088 142.227,104.135 141.526,104.135 L 141.526,106.22 C 142.117,106.22 142.594,106.265 142.958,106.356 C 143.322,106.447 143.603,106.572 143.801,106.732 C 143.999,106.891 144.131,107.084 144.196,107.312 C 144.261,107.539 144.293,107.789 144.293,108.062 C 144.293,108.621 144.159,109.052 143.889,109.354 C 143.619,109.656 143.208,109.808 142.656,109.808 C 142.429,109.808 142.221,109.775 142.032,109.71 C 141.844,109.645 141.675,109.557 141.526,109.447 C 141.376,109.336 141.248,109.206 141.141,109.057 C 141.034,108.907 140.948,108.745 140.883,108.569 C 140.779,108.277 140.647,108.066 140.488,107.936 C 140.329,107.806 140.113,107.74 139.84,107.74 C 139.775,107.74 139.705,107.744 139.63,107.75 C 139.556,107.757 139.479,107.766 139.401,107.779 L 137.803,108.062 C 137.907,108.77 138.107,109.388 138.402,109.914 C 138.698,110.44 139.065,110.879 139.504,111.23 C 139.942,111.58 140.444,111.842 141.009,112.014 C 141.574,112.186 142.182,112.272 142.832,112.272 Z" marker-start="none" marker-end="none"/>
      </g>
     </g>
     <g id="Group_18" fill-rule="nonzero" stroke-linejoin="round" stroke-linecap="round" stroke="none" stroke-width="0.319" fill="#ffffff" stroke-miterlimit="79.8403193612775">
      <g id="Group_19">
       <path d="M 37.727,59.948 L 37.727,56.502 L 35.566,56.502 L 35.566,65.816 L 38.596,65.816 C 39.269,65.816 39.844,65.747 40.319,65.608 C 40.794,65.469 41.182,65.276 41.482,65.029 C 41.783,64.781 42.001,64.489 42.137,64.152 C 42.274,63.815 42.342,63.448 42.342,63.051 C 42.342,62.748 42.302,62.462 42.221,62.193 C 42.14,61.925 42.019,61.676 41.859,61.448 C 41.7,61.219 41.504,61.016 41.271,60.836 C 41.039,60.657 40.772,60.51 40.469,60.395 C 40.614,60.323 40.749,60.233 40.875,60.127 C 41.001,60.02 41.11,59.891 41.204,59.737 L 43.186,56.502 L 41.23,56.502 C 40.868,56.502 40.608,56.638 40.45,56.911 L 38.903,59.615 C 38.835,59.735 38.755,59.82 38.663,59.871 C 38.572,59.922 38.443,59.948 38.276,59.948 L 37.727,59.948 Z M 37.727,61.437 L 38.596,61.437 C 38.89,61.437 39.141,61.474 39.347,61.549 C 39.554,61.623 39.723,61.727 39.855,61.859 C 39.987,61.991 40.083,62.145 40.143,62.322 C 40.203,62.499 40.233,62.69 40.233,62.895 C 40.233,63.304 40.099,63.624 39.833,63.854 C 39.567,64.084 39.154,64.199 38.596,64.199 L 37.727,64.199 L 37.727,61.437 Z" marker-start="none" marker-end="none"/>
       <path d="M 50.065,65.819 L 50.065,64.155 L 46.243,64.155 L 46.243,61.98 L 49.17,61.98 L 49.17,60.382 L 46.243,60.382 L 46.243,58.166 L 50.065,58.166 L 50.065,56.502 L 44.069,56.502 L 44.069,65.819 L 50.065,65.819 Z" marker-start="none" marker-end="none"/>
       <path d="M 56.483,63.924 C 56.419,63.821 56.352,63.745 56.281,63.694 C 56.211,63.642 56.12,63.617 56.01,63.617 C 55.912,63.617 55.806,63.648 55.693,63.71 C 55.58,63.771 55.452,63.841 55.31,63.917 C 55.167,63.994 55.004,64.063 54.821,64.125 C 54.637,64.187 54.429,64.218 54.194,64.218 C 53.789,64.218 53.488,64.132 53.29,63.959 C 53.092,63.786 52.992,63.553 52.992,63.259 C 52.992,63.071 53.052,62.916 53.171,62.792 C 53.291,62.669 53.447,62.562 53.641,62.472 C 53.835,62.383 54.057,62.301 54.306,62.226 C 54.555,62.152 54.81,62.069 55.07,61.977 C 55.33,61.885 55.585,61.778 55.834,61.654 C 56.083,61.531 56.305,61.373 56.499,61.181 C 56.693,60.989 56.849,60.756 56.969,60.481 C 57.088,60.206 57.148,59.875 57.148,59.487 C 57.148,59.056 57.073,58.654 56.924,58.279 C 56.775,57.904 56.558,57.576 56.275,57.297 C 55.992,57.018 55.642,56.799 55.227,56.639 C 54.811,56.479 54.339,56.399 53.811,56.399 C 53.521,56.399 53.226,56.429 52.925,56.489 C 52.625,56.548 52.334,56.632 52.053,56.741 C 51.772,56.85 51.507,56.979 51.26,57.128 C 51.013,57.277 50.798,57.443 50.614,57.627 L 51.254,58.637 C 51.301,58.714 51.367,58.775 51.452,58.822 C 51.537,58.869 51.629,58.893 51.727,58.893 C 51.855,58.893 51.984,58.852 52.114,58.771 C 52.243,58.69 52.391,58.601 52.555,58.503 C 52.719,58.405 52.907,58.315 53.12,58.234 C 53.333,58.153 53.585,58.113 53.875,58.113 C 54.267,58.113 54.571,58.199 54.789,58.371 C 55.006,58.544 55.115,58.818 55.115,59.193 C 55.115,59.411 55.055,59.587 54.936,59.724 C 54.816,59.86 54.66,59.973 54.466,60.063 C 54.272,60.152 54.051,60.231 53.804,60.299 C 53.557,60.367 53.304,60.443 53.044,60.526 C 52.784,60.609 52.53,60.711 52.283,60.833 C 52.036,60.954 51.815,61.114 51.621,61.312 C 51.427,61.511 51.271,61.758 51.151,62.054 C 51.032,62.35 50.972,62.716 50.972,63.151 C 50.972,63.5 51.043,63.841 51.183,64.174 C 51.324,64.506 51.531,64.802 51.803,65.062 C 52.076,65.322 52.411,65.53 52.807,65.686 C 53.203,65.841 53.657,65.919 54.169,65.919 C 54.454,65.919 54.732,65.897 55.003,65.852 C 55.273,65.807 55.53,65.741 55.773,65.653 C 56.016,65.566 56.243,65.462 56.454,65.34 C 56.665,65.219 56.853,65.081 57.02,64.928 L 56.483,63.924 Z" marker-start="none" marker-end="none"/>
       <path d="M 67.413,61.162 C 67.413,60.489 67.297,59.862 67.065,59.283 C 66.833,58.703 66.506,58.199 66.084,57.77 C 65.662,57.342 65.154,57.006 64.559,56.763 C 63.965,56.52 63.305,56.399 62.581,56.399 C 61.856,56.399 61.196,56.52 60.599,56.763 C 60.002,57.006 59.492,57.342 59.068,57.77 C 58.644,58.199 58.316,58.703 58.084,59.283 C 57.851,59.862 57.735,60.489 57.735,61.162 C 57.735,61.836 57.851,62.462 58.084,63.042 C 58.316,63.622 58.644,64.124 59.068,64.551 C 59.492,64.977 60.002,65.312 60.599,65.555 C 61.196,65.797 61.856,65.919 62.581,65.919 C 63.305,65.919 63.965,65.796 64.559,65.551 C 65.154,65.306 65.662,64.971 66.084,64.544 C 66.506,64.118 66.833,63.615 67.065,63.035 C 67.297,62.456 67.413,61.831 67.413,61.162 Z M 65.202,61.162 C 65.202,61.622 65.142,62.036 65.023,62.405 C 64.903,62.773 64.732,63.086 64.508,63.341 C 64.284,63.597 64.01,63.793 63.687,63.929 C 63.363,64.065 62.994,64.133 62.581,64.134 C 62.163,64.133 61.791,64.065 61.465,63.929 C 61.139,63.793 60.864,63.597 60.641,63.341 C 60.417,63.086 60.245,62.773 60.126,62.405 C 60.007,62.036 59.947,61.622 59.947,61.162 C 59.947,60.698 60.007,60.281 60.126,59.913 C 60.245,59.544 60.417,59.232 60.641,58.977 C 60.864,58.721 61.139,58.526 61.465,58.392 C 61.791,58.258 62.163,58.191 62.581,58.191 C 62.994,58.191 63.363,58.258 63.687,58.392 C 64.01,58.526 64.284,58.721 64.508,58.977 C 64.732,59.232 64.903,59.544 65.023,59.913 C 65.142,60.281 65.202,60.698 65.202,61.162 Z" marker-start="none" marker-end="none"/>
       <path d="M 72.321,58.209 C 72.611,58.209 72.87,58.257 73.098,58.353 C 73.326,58.449 73.518,58.586 73.676,58.766 C 73.834,58.945 73.954,59.163 74.037,59.421 C 74.12,59.679 74.162,59.972 74.162,60.3 L 74.162,65.817 L 76.323,65.817 L 76.323,60.299 C 76.323,59.728 76.23,59.204 76.044,58.726 C 75.859,58.249 75.594,57.838 75.249,57.492 C 74.903,57.147 74.484,56.879 73.989,56.687 C 73.495,56.495 72.939,56.399 72.321,56.399 C 71.699,56.399 71.14,56.495 70.646,56.687 C 70.152,56.879 69.732,57.147 69.387,57.492 C 69.042,57.838 68.777,58.249 68.594,58.726 C 68.411,59.204 68.319,59.728 68.319,60.299 L 68.319,65.817 L 70.48,65.817 L 70.48,60.306 C 70.48,59.978 70.521,59.685 70.605,59.427 C 70.688,59.169 70.808,58.95 70.966,58.769 C 71.123,58.588 71.316,58.449 71.544,58.353 C 71.772,58.257 72.031,58.209 72.321,58.209 Z" marker-start="none" marker-end="none"/>
       <path d="M 79.891,59.948 L 79.891,56.502 L 77.73,56.502 L 77.73,65.816 L 80.76,65.816 C 81.433,65.816 82.008,65.747 82.483,65.608 C 82.958,65.469 83.346,65.276 83.646,65.029 C 83.947,64.781 84.165,64.489 84.301,64.152 C 84.438,63.815 84.506,63.448 84.506,63.051 C 84.506,62.748 84.466,62.462 84.385,62.193 C 84.304,61.925 84.183,61.676 84.023,61.448 C 83.864,61.219 83.668,61.016 83.435,60.836 C 83.203,60.657 82.936,60.51 82.633,60.395 C 82.778,60.323 82.913,60.233 83.039,60.127 C 83.165,60.02 83.274,59.891 83.368,59.737 L 85.35,56.502 L 83.394,56.502 C 83.032,56.502 82.772,56.638 82.614,56.911 L 81.067,59.615 C 80.999,59.735 80.919,59.82 80.827,59.871 C 80.736,59.922 80.607,59.948 80.44,59.948 L 79.891,59.948 Z M 79.891,61.437 L 80.76,61.437 C 81.054,61.437 81.305,61.474 81.511,61.549 C 81.718,61.623 81.887,61.727 82.019,61.859 C 82.151,61.991 82.247,62.145 82.307,62.322 C 82.367,62.499 82.397,62.69 82.397,62.895 C 82.397,63.304 82.263,63.624 81.997,63.854 C 81.731,64.084 81.318,64.199 80.76,64.199 L 79.891,64.199 L 79.891,61.437 Z" marker-start="none" marker-end="none"/>
       <path d="M 92.172,58.91 C 92.223,58.91 92.275,58.901 92.326,58.881 C 92.377,58.861 92.426,58.828 92.473,58.78 L 93.329,57.859 C 92.954,57.377 92.484,57.013 91.92,56.767 C 91.355,56.522 90.687,56.399 89.916,56.399 C 89.208,56.399 88.574,56.519 88.014,56.76 C 87.454,57.001 86.978,57.334 86.588,57.758 C 86.199,58.182 85.899,58.685 85.69,59.267 C 85.482,59.848 85.377,60.48 85.377,61.162 C 85.377,61.857 85.496,62.495 85.735,63.077 C 85.974,63.659 86.307,64.161 86.736,64.583 C 87.164,65.005 87.676,65.333 88.273,65.567 C 88.87,65.802 89.528,65.919 90.248,65.919 C 90.598,65.919 90.927,65.888 91.236,65.826 C 91.545,65.764 91.833,65.679 92.102,65.57 C 92.37,65.461 92.618,65.331 92.843,65.179 C 93.069,65.028 93.27,64.86 93.444,64.677 L 92.716,63.699 C 92.669,63.639 92.613,63.585 92.549,63.536 C 92.485,63.487 92.396,63.462 92.281,63.462 C 92.204,63.462 92.132,63.479 92.064,63.513 C 91.995,63.547 91.923,63.589 91.846,63.638 C 91.77,63.687 91.685,63.74 91.594,63.798 C 91.502,63.855 91.393,63.909 91.268,63.958 C 91.142,64.007 90.995,64.048 90.827,64.082 C 90.658,64.116 90.461,64.133 90.235,64.134 C 89.843,64.133 89.485,64.064 89.161,63.926 C 88.838,63.787 88.559,63.589 88.327,63.331 C 88.095,63.073 87.914,62.761 87.784,62.395 C 87.654,62.028 87.589,61.617 87.589,61.161 C 87.589,60.683 87.654,60.259 87.784,59.888 C 87.914,59.518 88.091,59.205 88.314,58.952 C 88.538,58.698 88.799,58.505 89.098,58.373 C 89.396,58.241 89.715,58.175 90.056,58.175 C 90.252,58.175 90.431,58.185 90.593,58.204 C 90.755,58.223 90.905,58.256 91.044,58.303 C 91.182,58.35 91.315,58.41 91.44,58.485 C 91.566,58.56 91.693,58.652 91.821,58.763 C 91.872,58.806 91.927,58.841 91.987,58.869 C 92.047,58.896 92.108,58.91 92.172,58.91 Z" marker-start="none" marker-end="none"/>
       <path d="M 100.313,65.819 L 100.313,64.155 L 96.491,64.155 L 96.491,61.98 L 99.418,61.98 L 99.418,60.382 L 96.491,60.382 L 96.491,58.166 L 100.313,58.166 L 100.313,56.502 L 94.317,56.502 L 94.317,65.819 L 100.313,65.819 Z" marker-start="none" marker-end="none"/>
      </g>
     </g>
     <g id="Group_20" fill-rule="nonzero" stroke-linejoin="round" stroke-linecap="round" stroke="none" stroke-width="0.365" fill="#000000" stroke-miterlimit="79.8403193612775">
      <g id="Group_21">
       <path d="M 54.046,37.527 L 54.046,35.621 L 49.664,35.621 L 49.664,32.92 L 53.313,32.92 L 53.313,31.005 L 49.664,31.005 L 49.664,26.85 L 47.173,26.85 L 47.173,37.527 L 54.046,37.527 Z" marker-start="none" marker-end="none"/>
       <path d="M 64.101,26.852 L 62.182,26.852 C 61.967,26.852 61.79,26.902 61.651,27.002 C 61.511,27.102 61.415,27.231 61.361,27.387 L 60.731,29.249 L 56.672,29.249 L 56.042,27.387 C 55.993,27.25 55.898,27.127 55.756,27.017 C 55.614,26.907 55.441,26.852 55.236,26.852 L 53.302,26.852 L 57.434,37.529 L 59.969,37.529 L 64.101,26.852 Z M 57.243,30.934 L 60.16,30.934 L 59.178,33.813 C 59.114,33.995 59.04,34.211 58.954,34.458 C 58.869,34.706 58.785,34.974 58.701,35.263 C 58.623,34.969 58.543,34.698 58.46,34.447 C 58.377,34.198 58.299,33.981 58.225,33.798 L 57.243,30.934 Z" marker-start="none" marker-end="none"/>
       <path d="M 67.44,30.802 L 67.44,26.852 L 64.963,26.852 L 64.963,37.527 L 68.436,37.527 C 69.208,37.527 69.866,37.448 70.411,37.289 C 70.955,37.13 71.4,36.909 71.744,36.625 C 72.089,36.341 72.339,36.006 72.495,35.62 C 72.651,35.234 72.73,34.813 72.73,34.358 C 72.73,34.011 72.683,33.683 72.59,33.375 C 72.498,33.067 72.36,32.782 72.176,32.52 C 71.993,32.259 71.769,32.025 71.502,31.82 C 71.236,31.615 70.93,31.446 70.583,31.314 C 70.749,31.231 70.904,31.128 71.048,31.006 C 71.192,30.885 71.318,30.736 71.425,30.56 L 73.697,26.852 L 71.455,26.852 C 71.04,26.852 70.742,27.008 70.561,27.321 L 68.788,30.421 C 68.71,30.557 68.618,30.655 68.513,30.714 C 68.408,30.772 68.26,30.802 68.07,30.802 L 67.44,30.802 Z M 67.44,32.508 L 68.436,32.508 C 68.773,32.508 69.06,32.551 69.297,32.636 C 69.534,32.722 69.728,32.84 69.879,32.992 C 70.031,33.143 70.141,33.32 70.209,33.523 C 70.278,33.726 70.312,33.945 70.312,34.179 C 70.312,34.648 70.159,35.015 69.854,35.278 C 69.549,35.542 69.076,35.674 68.436,35.674 L 67.44,35.674 L 67.44,32.508 Z" marker-start="none" marker-end="none"/>
       <path d="M 80.168,31.7 C 80.265,31.513 80.359,31.319 80.45,31.117 C 80.54,30.916 80.627,30.709 80.71,30.497 C 80.793,30.714 80.881,30.924 80.974,31.128 C 81.066,31.332 81.162,31.53 81.259,31.722 L 84,37.151 C 84.048,37.245 84.098,37.317 84.15,37.369 C 84.201,37.421 84.258,37.459 84.322,37.483 C 84.385,37.508 84.457,37.52 84.538,37.52 C 84.619,37.52 84.713,37.52 84.82,37.52 L 86.71,37.52 L 86.71,26.852 L 84.527,26.852 L 84.527,32.912 C 84.527,33.206 84.542,33.524 84.571,33.866 L 81.743,28.463 C 81.655,28.295 81.537,28.168 81.388,28.081 C 81.239,27.994 81.069,27.951 80.878,27.951 L 80.541,27.951 C 80.351,27.951 80.181,27.994 80.032,28.081 C 79.883,28.168 79.765,28.295 79.677,28.463 L 76.834,33.873 C 76.854,33.705 76.868,33.537 76.878,33.371 C 76.888,33.205 76.893,33.052 76.893,32.912 L 76.893,26.852 L 74.709,26.852 L 74.709,37.52 L 76.6,37.52 C 76.707,37.52 76.801,37.52 76.882,37.52 C 76.962,37.52 77.034,37.508 77.098,37.483 C 77.161,37.459 77.219,37.421 77.27,37.369 C 77.321,37.317 77.371,37.245 77.42,37.151 L 80.168,31.7 Z" marker-start="none" marker-end="none"/>
       <path d="M 88.087,28.142 C 88.087,28.298 88.117,28.444 88.175,28.578 C 88.234,28.713 88.318,28.83 88.428,28.93 C 88.538,29.03 88.667,29.109 88.816,29.168 C 88.965,29.227 89.133,29.256 89.318,29.256 C 89.538,29.256 89.728,29.218 89.89,29.142 C 90.051,29.067 90.185,28.964 90.293,28.835 C 90.4,28.705 90.479,28.556 90.531,28.388 C 90.582,28.219 90.608,28.042 90.608,27.856 C 90.608,27.612 90.569,27.352 90.49,27.076 C 90.412,26.8 90.296,26.523 90.142,26.244 C 89.989,25.966 89.797,25.692 89.567,25.423 C 89.338,25.155 89.074,24.91 88.776,24.691 L 88.38,25.042 C 88.327,25.096 88.286,25.146 88.259,25.193 C 88.233,25.239 88.219,25.296 88.219,25.365 C 88.219,25.414 88.236,25.466 88.27,25.522 C 88.305,25.579 88.346,25.629 88.395,25.673 C 88.454,25.731 88.522,25.802 88.6,25.885 C 88.678,25.968 88.756,26.061 88.835,26.164 C 88.913,26.266 88.985,26.379 89.051,26.501 C 89.117,26.623 89.167,26.752 89.201,26.889 C 89.03,26.904 88.876,26.945 88.739,27.014 C 88.603,27.082 88.487,27.173 88.391,27.285 C 88.296,27.397 88.222,27.525 88.168,27.67 C 88.114,27.814 88.087,27.971 88.087,28.142 Z" marker-start="none" marker-end="none"/>
       <path d="M 97.461,26.852 L 94.97,26.852 L 94.97,37.531 L 97.461,37.531 L 97.461,26.852 Z" marker-start="none" marker-end="none"/>
       <path d="M 100.741,37.531 C 100.849,37.531 100.939,37.526 101.012,37.516 C 101.086,37.507 101.152,37.488 101.21,37.461 C 101.269,37.434 101.325,37.396 101.379,37.348 C 101.433,37.299 101.494,37.233 101.562,37.15 L 106.632,30.739 C 106.613,30.944 106.598,31.143 106.588,31.336 C 106.578,31.529 106.573,31.711 106.573,31.882 L 106.573,37.531 L 108.757,37.531 L 108.757,26.852 L 107.467,26.852 C 107.277,26.852 107.116,26.881 106.984,26.94 C 106.852,26.999 106.725,27.106 106.603,27.262 L 101.569,33.622 C 101.584,33.436 101.596,33.254 101.606,33.076 C 101.616,32.898 101.621,32.731 101.621,32.574 L 101.621,26.852 L 99.437,26.852 L 99.437,37.531 L 100.741,37.531 Z" marker-start="none" marker-end="none"/>
       <path d="M 117.686,29.612 C 117.745,29.612 117.803,29.601 117.862,29.579 C 117.921,29.556 117.977,29.518 118.03,29.463 L 119.012,28.408 C 118.582,27.855 118.044,27.437 117.397,27.156 C 116.75,26.875 115.984,26.734 115.1,26.734 C 114.289,26.734 113.562,26.872 112.92,27.148 C 112.278,27.424 111.733,27.805 111.286,28.291 C 110.839,28.777 110.496,29.354 110.257,30.021 C 110.017,30.688 109.898,31.412 109.898,32.193 C 109.898,32.99 110.035,33.721 110.308,34.388 C 110.582,35.055 110.964,35.63 111.455,36.114 C 111.946,36.597 112.533,36.974 113.217,37.242 C 113.901,37.511 114.655,37.645 115.481,37.645 C 115.881,37.645 116.259,37.61 116.613,37.539 C 116.967,37.468 117.298,37.37 117.606,37.245 C 117.913,37.121 118.197,36.972 118.455,36.798 C 118.714,36.624 118.944,36.432 119.144,36.222 L 118.309,35.101 C 118.255,35.032 118.192,34.97 118.118,34.914 C 118.045,34.858 117.943,34.83 117.811,34.83 C 117.723,34.83 117.64,34.849 117.562,34.888 C 117.483,34.927 117.4,34.975 117.312,35.031 C 117.225,35.087 117.128,35.148 117.023,35.214 C 116.918,35.28 116.793,35.341 116.649,35.398 C 116.505,35.454 116.337,35.501 116.144,35.541 C 115.951,35.579 115.725,35.599 115.466,35.599 C 115.017,35.599 114.606,35.52 114.235,35.361 C 113.864,35.202 113.545,34.975 113.279,34.679 C 113.013,34.384 112.805,34.026 112.656,33.606 C 112.507,33.186 112.433,32.714 112.433,32.192 C 112.433,31.644 112.507,31.158 112.656,30.733 C 112.805,30.308 113.008,29.951 113.264,29.66 C 113.521,29.369 113.82,29.148 114.162,28.997 C 114.504,28.845 114.87,28.77 115.261,28.77 C 115.486,28.77 115.691,28.781 115.876,28.803 C 116.062,28.825 116.234,28.862 116.393,28.916 C 116.552,28.97 116.703,29.039 116.847,29.125 C 116.991,29.21 117.137,29.317 117.283,29.444 C 117.342,29.493 117.405,29.533 117.474,29.565 C 117.542,29.596 117.613,29.612 117.686,29.612 Z" marker-start="none" marker-end="none"/>
       <path d="M 119.705,28.002 C 119.705,28.178 119.738,28.342 119.804,28.493 C 119.869,28.645 119.96,28.777 120.075,28.889 C 120.189,29.002 120.325,29.091 120.481,29.157 C 120.638,29.223 120.809,29.256 120.994,29.256 C 121.175,29.256 121.343,29.223 121.5,29.157 C 121.656,29.091 121.793,29.002 121.91,28.889 C 122.027,28.777 122.119,28.645 122.185,28.493 C 122.251,28.342 122.284,28.178 122.284,28.002 C 122.284,27.826 122.251,27.661 122.185,27.507 C 122.119,27.353 122.027,27.22 121.91,27.108 C 121.793,26.995 121.656,26.907 121.5,26.844 C 121.343,26.78 121.175,26.748 120.994,26.748 C 120.809,26.748 120.638,26.78 120.481,26.844 C 120.325,26.907 120.189,26.995 120.075,27.108 C 119.96,27.22 119.869,27.353 119.804,27.507 C 119.738,27.661 119.705,27.826 119.705,28.002 Z" marker-start="none" marker-end="none"/>
      </g>
     </g>
     <path d="M 115.455,215.434 L 123.989,215.434 L 123.989,166.271 L 115.454,166.271 L 115.455,215.434 Z" fill="#e5e5e5" stroke-linecap="round" stroke="none" stroke-width="0.103" stroke-linejoin="miter" marker-start="none" marker-end="none" stroke-miterlimit="79.8403193612775"/>
     <path d="M 92.855,215.434 L 101.385,215.434 L 101.385,166.272 L 92.854,166.271 L 92.855,215.434 Z" fill="#00d702" stroke-linecap="round" stroke="none" stroke-width="0.103" stroke-linejoin="miter" marker-start="none" marker-end="none" stroke-miterlimit="79.8403193612775"/>
     <path d="M 81.558,215.434 L 90.092,215.434 L 90.092,166.27 L 81.558,166.271 L 81.558,215.434 Z" fill="#e5e5e5" stroke-linecap="round" stroke="none" stroke-width="0.103" stroke-linejoin="miter" marker-start="none" marker-end="none" stroke-miterlimit="79.8403193612775"/>
     <path d="M 104.153,215.434 L 112.684,215.434 L 112.684,166.271 L 104.152,166.271 L 104.153,215.434 Z" fill="#e5e5e5" stroke-linecap="round" stroke="none" stroke-width="0.103" stroke-linejoin="miter" marker-start="none" marker-end="none" stroke-miterlimit="79.8403193612775"/>
     <path d="M 92.6,177.73 C 88.075,183.086 88.752,191.102 94.109,195.625 C 99.465,200.15 107.485,199.478 112.005,194.12 C 116.53,188.763 115.855,180.743 110.496,176.224 C 105.142,171.696 97.122,172.379 92.6,177.73 Z" stroke-linejoin="miter" stroke="none" fill="#ffffff" stroke-width="0.526" marker-start="none" marker-end="none" stroke-miterlimit="79.8403193612775"/>
     <path d="M 93.203,178.212 C 88.679,183.561 89.355,191.583 94.711,196.104 C 100.07,200.632 108.086,199.954 112.609,194.595 C 117.138,189.244 116.461,181.221 111.101,176.697 C 105.742,172.176 97.726,172.85 93.203,178.212 Z" fill="none" stroke-linejoin="miter" stroke="#55bae6" stroke-width="2.872" marker-start="none" marker-end="none" stroke-miterlimit="79.8403193612775"/>
     <g id="Group_22" fill-rule="nonzero" stroke-linejoin="round" stroke-linecap="round" stroke="none" stroke-width="0.387" fill="#000000" stroke-miterlimit="79.8403193612775">
      <g id="Group_23">
       <path d="M 99.305,189.848 L 99.305,186.766 L 102.184,186.766 L 102.184,185.037 L 99.305,185.037 L 99.305,181.94 L 97.344,181.94 L 97.344,185.037 L 94.48,185.037 L 94.48,186.766 L 97.344,186.766 L 97.344,189.848 L 99.305,189.848 Z" marker-start="none" marker-end="none"/>
       <path d="M 107.757,192.135 C 108.317,192.135 108.815,192.056 109.251,191.897 C 109.687,191.739 110.055,191.524 110.356,191.253 C 110.657,190.983 110.885,190.669 111.041,190.313 C 111.196,189.957 111.274,189.581 111.274,189.185 C 111.274,188.826 111.238,188.51 111.165,188.237 C 111.093,187.964 110.985,187.727 110.842,187.527 C 110.7,187.326 110.523,187.156 110.313,187.015 C 110.103,186.875 109.863,186.758 109.593,186.664 C 110.849,186.23 111.477,185.378 111.477,184.11 C 111.477,183.509 111.368,182.986 111.15,182.541 C 110.932,182.096 110.64,181.726 110.274,181.431 C 109.909,181.136 109.484,180.914 109.002,180.767 C 108.519,180.619 108.016,180.546 107.492,180.546 C 106.953,180.546 106.473,180.604 106.052,180.721 C 105.632,180.837 105.259,181.019 104.932,181.265 C 104.605,181.512 104.318,181.827 104.072,182.211 C 103.825,182.594 103.611,183.051 103.43,183.58 L 104.504,184.017 C 104.597,184.059 104.689,184.087 104.78,184.103 C 104.871,184.118 104.96,184.126 105.049,184.126 C 105.215,184.126 105.364,184.094 105.496,184.029 C 105.628,183.964 105.728,183.869 105.796,183.745 C 106.029,183.314 106.277,183.001 106.539,182.806 C 106.801,182.611 107.108,182.514 107.461,182.514 C 107.731,182.514 107.966,182.559 108.165,182.65 C 108.365,182.741 108.531,182.858 108.663,183.001 C 108.796,183.144 108.896,183.306 108.963,183.488 C 109.03,183.669 109.064,183.854 109.064,184.041 C 109.064,184.285 109.047,184.504 109.014,184.699 C 108.98,184.894 108.885,185.061 108.73,185.201 C 108.574,185.342 108.339,185.449 108.025,185.524 C 107.711,185.6 107.274,185.637 106.714,185.638 L 106.714,187.302 C 107.186,187.302 107.567,187.338 107.858,187.411 C 108.148,187.484 108.373,187.584 108.531,187.711 C 108.689,187.838 108.794,187.992 108.846,188.174 C 108.898,188.355 108.924,188.555 108.924,188.773 C 108.924,189.22 108.816,189.563 108.601,189.805 C 108.386,190.046 108.058,190.167 107.617,190.167 C 107.435,190.167 107.269,190.141 107.119,190.089 C 106.968,190.037 106.833,189.967 106.714,189.879 C 106.595,189.791 106.492,189.687 106.407,189.568 C 106.321,189.448 106.252,189.318 106.2,189.178 C 106.117,188.945 106.012,188.776 105.885,188.672 C 105.758,188.568 105.586,188.516 105.368,188.516 C 105.316,188.516 105.26,188.519 105.2,188.524 C 105.141,188.529 105.08,188.537 105.017,188.547 L 103.741,188.773 C 103.824,189.339 103.984,189.832 104.22,190.252 C 104.456,190.672 104.749,191.022 105.099,191.303 C 105.449,191.583 105.85,191.791 106.301,191.929 C 106.753,192.066 107.238,192.135 107.757,192.135 Z" marker-start="none" marker-end="none"/>
      </g>
     </g>
    </g>
   </g>
  </g>
 </g>
</svg>
