<?xml version="1.0" standalone="no"?>
<!DOCTYPE svg PUBLIC "-//W3C//DTD SVG 1.1//EN" "http://www.w3.org/Graphics/SVG/1.1/DTD/svg11.dtd">
<!--Generator: Xara Designer (www.xara.com), SVG filter version: 6.2.0.0-->
<svg stroke-width="0.501" stroke-linejoin="bevel" fill-rule="evenodd" xmlns:xlink="http://www.w3.org/1999/xlink" xmlns="http://www.w3.org/2000/svg" version="1.1" overflow="visible" width="215.434pt" height="215.434pt" viewBox="0 0 215.434 215.434">
 <defs>
	</defs>
 <g id="Document" fill="none" stroke="black" font-family="Times New Roman" font-size="16" transform="scale(1 -1)">
  <g id="Spread" transform="translate(0 -215.434)">
   <g id="Layer 1">
    <path d="M 199.757,214.933 L 15.176,214.933 C 6.799,214.933 0,208.134 0,199.757 L 0,15.176 C 0,6.799 6.799,0 15.176,0 L 199.757,0 C 208.134,0 214.933,6.799 214.933,15.176 L 214.933,199.757 C 214.933,208.134 208.134,214.933 199.757,214.933 Z" stroke="#999999" fill="#ffffff" stroke-linejoin="miter" marker-start="none" marker-end="none"/>
    <g id="Group">
     <g id="Group_1" stroke-linejoin="miter" stroke-linecap="round" stroke="#ff7979">
      <path d="M 15.03,146.14 L 15.03,180.032 L 118.618,180.032 L 118.618,146.14 L 15.03,146.14 Z" fill="#ff7979" stroke-width="1.738" marker-start="none" marker-end="none" stroke-miterlimit="79.8403193612775"/>
      <path d="M 15.03,144.797 L 15.03,154.607 C 15.03,157.178 17.114,159.255 19.676,159.255 L 113.968,159.255 C 116.53,159.255 118.618,157.178 118.618,154.607 L 118.618,144.797 C 118.618,142.221 116.53,140.143 113.968,140.143 L 19.676,140.143 C 17.114,140.143 15.03,142.221 15.03,144.797 Z" fill="#ff7979" stroke-width="1.738" marker-start="none" marker-end="none" stroke-miterlimit="79.8403193612775"/>
      <path d="M 15.727,173.69 L 15.727,191.335 C 15.727,195.948 19.471,199.694 24.089,199.694 L 191.135,199.694 C 195.748,199.694 199.496,195.948 199.496,191.335 L 199.496,173.69 C 199.496,169.072 195.748,165.324 191.135,165.324 L 24.089,165.324 C 19.471,165.324 15.727,169.072 15.727,173.69 Z" fill="#ffffff" stroke-width="3.13" marker-start="none" marker-end="none" stroke-miterlimit="79.8403193612775"/>
     </g>
     <g id="Group_2" stroke-linecap="round" stroke="none" fill="#e5e5e5">
      <path d="M 0.53,114.75 L 0.53,123.284 L 49.693,123.284 L 49.693,114.75 L 0.53,114.75 Z" stroke-width="0.103" stroke-linejoin="miter" marker-start="none" marker-end="none" stroke-miterlimit="79.8403193612775"/>
      <path d="M 100.135,94.518 C 87.867,107.957 71.054,114.786 54.181,114.789 L 54.181,123.268 C 73.353,123.263 92.466,115.513 106.4,100.244 C 118.774,86.683 124.875,69.606 124.87,52.583 L 116.384,52.583 C 116.391,67.565 111.022,82.592 100.135,94.518 Z" stroke-width="0.541" stroke-linejoin="round" marker-start="none" marker-end="none" stroke-miterlimit="79.8403193612775"/>
      <path d="M 120.643,14.63 L 118.525,17.675 L 116.403,20.728 L 116.35,20.728 L 116.35,48.005 L 124.886,48.005 L 124.886,20.728 L 122.766,17.675 L 120.643,14.63 Z" stroke-width="0.103" stroke-linejoin="miter" marker-start="none" marker-end="none" stroke-miterlimit="79.8403193612775"/>
     </g>
     <g id="Group_3" stroke-linecap="round" stroke="none" fill="#e5e5e5">
      <path d="M 109.093,14.626 L 106.973,17.672 L 104.852,20.728 L 109.093,20.728 L 113.334,20.724 L 111.211,17.672 L 109.093,14.626 Z M 104.829,20.728 L 104.829,48.005 L 113.363,48.005 L 113.363,20.728 L 104.829,20.728 Z" stroke-width="0.103" stroke-linejoin="miter" marker-start="none" marker-end="none" stroke-miterlimit="79.8403193612775"/>
      <path d="M 91.781,86.896 C 81.741,97.887 67.986,103.474 54.181,103.479 L 54.181,111.96 C 70.288,111.956 86.338,105.441 98.047,92.613 C 108.441,81.226 113.561,66.883 113.558,52.583 L 105.072,52.583 C 105.082,64.84 100.687,77.132 91.781,86.896 Z" stroke-width="0.453" stroke-linejoin="round" marker-start="none" marker-end="none" stroke-miterlimit="79.8403193612775"/>
      <path d="M 0.53,103.447 L 0.53,111.979 L 49.693,111.979 L 49.693,103.447 L 0.53,103.447 Z" stroke-width="0.103" stroke-linejoin="miter" marker-start="none" marker-end="none" stroke-miterlimit="79.8403193612775"/>
     </g>
     <g id="Group_4" fill="#00d702" stroke-linecap="round" stroke="none">
      <path d="M 97.777,14.626 L 95.661,17.672 L 93.54,20.728 L 97.781,20.728 L 102.024,20.724 L 99.904,17.672 L 97.777,14.626 Z M 93.531,20.728 L 93.531,48.005 L 102.066,48.005 L 102.066,20.728 L 93.531,20.728 Z" stroke-width="0.103" stroke-linejoin="miter" marker-start="none" marker-end="none" stroke-miterlimit="79.8403193612775"/>
      <path d="M 0.53,92.149 L 0.53,100.68 L 49.693,100.68 L 49.693,92.149 L 0.53,92.149 Z" stroke-width="0.103" stroke-linejoin="miter" marker-start="none" marker-end="none" stroke-miterlimit="79.8403193612775"/>
      <path d="M 83.426,79.269 C 75.619,87.821 64.914,92.161 54.181,92.167 L 54.181,100.651 C 67.223,100.648 80.213,95.375 89.692,84.986 C 98.103,75.771 102.251,64.155 102.249,52.583 L 93.767,52.583 C 93.767,62.115 90.353,71.68 83.426,79.269 Z" stroke-width="0.368" stroke-linejoin="round" marker-start="none" marker-end="none" stroke-miterlimit="79.8403193612775"/>
     </g>
     <g id="Group_5" fill="#e5e5e5" stroke-linecap="round" stroke="none">
      <path d="M 0.53,80.853 L 0.53,89.387 L 49.693,89.387 L 49.693,80.853 L 0.53,80.853 Z" stroke-width="0.103" stroke-linejoin="miter" marker-start="none" marker-end="none" stroke-miterlimit="79.8403193612775"/>
      <path d="M 75.071,71.648 C 69.493,77.755 61.855,80.855 54.181,80.858 L 54.181,89.345 C 64.151,89.336 74.09,85.303 81.333,77.365 C 87.772,70.316 90.943,61.439 90.939,52.583 L 82.451,52.583 C 82.458,59.39 80.016,66.222 75.071,71.648 Z" stroke-width="0.281" stroke-linejoin="round" marker-start="none" marker-end="none" stroke-miterlimit="79.8403193612775"/>
      <path d="M 86.724,14.63 L 84.592,17.675 L 82.451,20.728 L 82.451,20.728 L 82.451,48.005 L 90.99,48.005 L 90.99,20.728 L 90.99,20.728 L 88.86,17.672 L 86.724,14.63 Z" stroke-width="0.103" stroke-linejoin="miter" marker-start="none" marker-end="none" stroke-miterlimit="79.8403193612775"/>
     </g>
     <g id="Group_6" stroke-linejoin="miter" stroke-miterlimit="79.8403193612775">
      <path d="M 21.38,24.925 C 12.483,35.465 13.808,51.251 24.36,60.135 C 34.891,69.049 50.656,67.717 59.557,57.179 C 68.471,46.639 67.135,30.865 56.581,21.962 C 46.05,13.066 30.278,14.397 21.38,24.925 Z" stroke="none" fill="#000000" stroke-width="1.039" marker-start="none" marker-end="none" stroke-miterlimit="19.9600798403194"/>
      <path d="M 22.557,25.882 C 13.67,36.427 14.986,52.18 25.53,61.097 C 36.073,69.97 51.84,68.655 60.757,58.117 C 69.651,47.58 68.318,31.797 57.771,22.9 C 47.243,14.004 31.462,15.328 22.557,25.882 Z" stroke="#b2b2b2" stroke-width="5.658" marker-start="none" marker-end="none" stroke-miterlimit="19.9600798403194"/>
     </g>
     <g id="Group_7" stroke-linejoin="miter" stroke-miterlimit="79.8403193612775">
      <path d="M 168.751,100.722 C 162.851,107.7 163.73,118.16 170.725,124.069 C 177.707,129.961 188.16,129.082 194.064,122.095 C 199.973,115.103 199.087,104.649 192.09,98.744 C 185.108,92.849 174.651,93.728 168.751,100.722 Z" stroke="none" fill="#000000" stroke-width="0.686" marker-start="none" marker-end="none" stroke-miterlimit="19.9600798403194"/>
      <path d="M 169.529,101.331 C 163.638,108.329 164.51,118.788 171.503,124.681 C 178.492,130.59 188.944,129.707 194.86,122.714 C 200.757,115.732 199.872,105.28 192.878,99.375 C 185.899,93.469 175.435,94.348 169.529,101.331 Z" stroke="#b2b2b2" stroke-width="3.752" marker-start="none" marker-end="none" stroke-miterlimit="19.9600798403194"/>
     </g>
     <g id="Group_8" stroke-linejoin="miter" stroke-miterlimit="79.8403193612775">
      <path d="M 19.254,93.529 C 14.729,98.885 15.405,106.901 20.763,111.425 C 26.119,115.948 34.14,115.276 38.659,109.918 C 43.184,104.562 42.509,96.543 37.15,92.023 C 31.796,87.495 23.776,88.178 19.254,93.529 Z" stroke="none" fill="#ffffff" stroke-width="0.526" marker-start="none" marker-end="none" stroke-miterlimit="19.9600798403194"/>
      <path d="M 19.857,94.011 C 15.333,99.36 16.009,107.382 21.365,111.903 C 26.724,116.431 34.74,115.753 39.264,110.394 C 43.792,105.043 43.115,97.02 37.755,92.496 C 32.395,87.975 24.38,88.649 19.857,94.011 Z" fill="none" stroke="#55bae6" stroke-width="2.872" marker-start="none" marker-end="none" stroke-miterlimit="19.9600798403194"/>
     </g>
     <g id="Group_9" stroke-linejoin="miter" stroke-miterlimit="79.8403193612775">
      <path d="M 76.562,81.58 C 72.041,86.931 72.716,94.95 78.073,99.478 C 83.43,103.994 91.449,103.321 95.973,97.963 C 100.496,92.609 99.816,84.592 94.462,80.069 C 89.106,75.545 81.087,76.221 76.562,81.58 Z" stroke="none" fill="#ffffff" stroke-width="0.526" marker-start="none" marker-end="none" stroke-miterlimit="19.9600798403194"/>
      <path d="M 77.171,82.058 C 72.643,87.412 73.317,95.428 78.677,99.952 C 84.035,104.477 92.05,103.803 96.575,98.441 C 101.103,93.085 100.418,85.068 95.067,80.542 C 89.707,76.017 81.692,76.698 77.171,82.058 Z" fill="none" stroke="#55bae6" stroke-width="2.872" marker-start="none" marker-end="none" stroke-miterlimit="19.9600798403194"/>
     </g>
     <g id="Group_10" stroke-linejoin="miter" stroke-miterlimit="79.8403193612775">
      <path d="M 93.35,23.95 C 88.826,29.306 89.505,37.323 94.86,41.851 C 100.221,46.372 108.24,45.694 112.763,40.336 C 117.291,34.984 116.609,26.961 111.252,22.442 C 105.892,17.923 97.876,18.597 93.35,23.95 Z" stroke="none" fill="#ffffff" stroke-width="0.526" marker-start="none" marker-end="none" stroke-miterlimit="19.9600798403194"/>
      <path d="M 93.957,24.434 C 89.433,29.785 90.11,37.804 95.468,42.329 C 100.828,46.85 108.843,46.176 113.366,40.816 C 117.892,35.463 117.215,27.443 111.859,22.922 C 106.497,18.397 98.48,19.073 93.957,24.434 Z" fill="none" stroke="#55bae6" stroke-width="2.872" marker-start="none" marker-end="none" stroke-miterlimit="19.9600798403194"/>
     </g>
     <g id="Group_11" stroke-linejoin="miter" stroke-miterlimit="79.8403193612775">
      <path d="M 128.066,100.709 C 122.166,107.698 123.045,118.166 130.042,124.057 C 137.025,129.968 147.479,129.085 153.381,122.097 C 159.292,115.108 158.406,104.648 151.408,98.744 C 144.425,92.845 133.966,93.728 128.066,100.709 Z" stroke="none" fill="#ffffff" stroke-width="0.689" marker-start="none" marker-end="none" stroke-miterlimit="19.9600798403194"/>
      <path d="M 128.846,101.344 C 122.953,108.336 123.826,118.782 130.818,124.695 C 137.809,130.579 148.264,129.707 154.177,122.719 C 160.075,115.732 159.191,105.266 152.197,99.366 C 145.216,93.467 134.751,94.345 128.846,101.344 Z" stroke="#55bae6" stroke-width="3.752" marker-start="none" marker-end="none" stroke-miterlimit="19.9600798403194"/>
     </g>
     <g id="Group_12" stroke-linejoin="miter" stroke-miterlimit="79.8403193612775">
      <path d="M 152.091,24.914 C 143.194,35.454 144.519,51.24 155.071,60.124 C 165.602,69.038 181.367,67.706 190.268,57.168 C 199.182,46.628 197.846,30.854 187.292,21.951 C 176.761,13.055 160.989,14.386 152.091,24.914 Z" stroke="none" fill="#ffffff" stroke-width="1.039" marker-start="none" marker-end="none" stroke-miterlimit="19.9600798403194"/>
      <path d="M 153.268,25.871 C 144.381,36.416 145.697,52.169 156.241,61.086 C 166.784,69.959 182.551,68.644 191.468,58.106 C 200.362,47.569 199.029,31.786 188.482,22.889 C 177.954,13.993 162.173,15.317 153.268,25.871 Z" stroke="#55bae6" stroke-width="5.658" marker-start="none" marker-end="none" stroke-miterlimit="19.9600798403194"/>
     </g>
     <g id="Group_13" fill-rule="nonzero" stroke-linejoin="round" stroke-linecap="round" stroke="none" stroke-width="0.485" fill="#b2b2b2" stroke-miterlimit="79.8403193612775">
      <g id="Group_14">
       <path d="M 177.963,107.111 L 180.692,107.111 L 180.692,114.274 C 180.692,114.625 180.701,114.992 180.721,115.376 L 179.113,114.04 C 179.009,113.956 178.905,113.896 178.801,113.86 C 178.697,113.824 178.596,113.806 178.499,113.806 C 178.33,113.806 178.179,113.844 178.046,113.919 C 177.912,113.993 177.813,114.073 177.748,114.157 L 176.793,115.424 L 181.218,119.138 L 183.713,119.138 L 183.713,107.111 L 186.052,107.111 L 186.052,104.927 L 177.963,104.927 L 177.963,107.111 Z" marker-start="none" marker-end="none"/>
      </g>
     </g>
     <g id="Group_15" fill-rule="nonzero" stroke-linejoin="round" stroke-linecap="round" stroke="none" stroke-width="0.387" fill="#000000" stroke-miterlimit="79.8403193612775">
      <g id="Group_16">
       <path d="M 25.958,105.646 L 25.958,102.564 L 28.837,102.564 L 28.837,100.835 L 25.958,100.835 L 25.958,97.738 L 23.997,97.738 L 23.997,100.835 L 21.133,100.835 L 21.133,102.564 L 23.997,102.564 L 23.997,105.646 L 25.958,105.646 Z" marker-start="none" marker-end="none"/>
       <path d="M 34.192,107.933 C 34.752,107.933 35.257,107.851 35.705,107.688 C 36.154,107.525 36.537,107.298 36.853,107.007 C 37.17,106.717 37.412,106.37 37.581,105.968 C 37.75,105.566 37.834,105.124 37.834,104.641 C 37.834,104.226 37.776,103.842 37.659,103.489 C 37.542,103.136 37.383,102.8 37.18,102.481 C 36.978,102.162 36.743,101.854 36.476,101.555 C 36.209,101.257 35.925,100.955 35.624,100.649 L 33.406,98.376 C 33.691,98.46 33.973,98.526 34.25,98.576 C 34.528,98.626 34.788,98.65 35.032,98.65 L 37.149,98.65 C 37.408,98.65 37.613,98.579 37.764,98.436 C 37.914,98.293 37.99,98.105 37.99,97.871 L 37.99,96.469 L 30.021,96.469 L 30.021,97.247 C 30.021,97.398 30.052,97.559 30.114,97.73 C 30.176,97.901 30.285,98.057 30.441,98.197 L 33.709,101.489 C 33.99,101.77 34.233,102.037 34.441,102.291 C 34.648,102.545 34.82,102.796 34.955,103.042 C 35.089,103.289 35.191,103.535 35.258,103.782 C 35.325,104.028 35.359,104.289 35.359,104.564 C 35.359,105.015 35.252,105.362 35.036,105.603 C 34.821,105.844 34.493,105.965 34.052,105.965 C 33.87,105.965 33.704,105.939 33.554,105.887 C 33.403,105.835 33.268,105.765 33.149,105.677 C 33.03,105.589 32.927,105.485 32.842,105.366 C 32.756,105.246 32.687,105.117 32.635,104.977 C 32.552,104.743 32.447,104.575 32.32,104.471 C 32.193,104.367 32.021,104.315 31.803,104.315 C 31.751,104.315 31.695,104.318 31.635,104.323 C 31.576,104.328 31.515,104.336 31.453,104.346 L 30.176,104.568 C 30.259,105.134 30.419,105.628 30.655,106.048 C 30.891,106.469 31.184,106.819 31.534,107.1 C 31.884,107.38 32.285,107.589 32.737,107.727 C 33.188,107.864 33.673,107.933 34.192,107.933 Z" marker-start="none" marker-end="none"/>
      </g>
     </g>
     <g id="Group_17" fill-rule="nonzero" stroke-linejoin="round" stroke-linecap="round" stroke="none" stroke-width="0.485" fill="#000000" stroke-miterlimit="79.8403193612775">
      <g id="Group_18">
       <path d="M 138.208,107.111 L 140.937,107.111 L 140.937,114.274 C 140.937,114.625 140.946,114.992 140.966,115.376 L 139.358,114.04 C 139.254,113.956 139.15,113.896 139.046,113.86 C 138.942,113.824 138.841,113.806 138.744,113.806 C 138.575,113.806 138.424,113.844 138.291,113.919 C 138.157,113.993 138.058,114.073 137.993,114.157 L 137.038,115.424 L 141.463,119.138 L 143.958,119.138 L 143.958,107.111 L 146.297,107.111 L 146.297,104.927 L 138.208,104.927 L 138.208,107.111 Z" marker-start="none" marker-end="none"/>
      </g>
     </g>
     <g id="Group_19" fill-rule="nonzero" stroke-linejoin="round" stroke-linecap="round" stroke="none" stroke-width="0.387" fill="#000000" stroke-miterlimit="79.8403193612775">
      <g id="Group_20">
       <path d="M 82.695,94.501 L 82.695,91.419 L 85.574,91.419 L 85.574,89.69 L 82.695,89.69 L 82.695,86.593 L 80.734,86.593 L 80.734,89.69 L 77.87,89.69 L 77.87,91.419 L 80.734,91.419 L 80.734,94.501 L 82.695,94.501 Z" marker-start="none" marker-end="none"/>
       <path d="M 88.205,87.068 L 90.384,87.068 L 90.384,92.788 C 90.384,93.069 90.392,93.362 90.407,93.668 L 89.123,92.601 C 89.04,92.534 88.957,92.486 88.874,92.457 C 88.791,92.429 88.711,92.415 88.633,92.415 C 88.498,92.415 88.378,92.444 88.271,92.504 C 88.165,92.564 88.086,92.627 88.034,92.695 L 87.271,93.707 L 90.804,96.672 L 92.797,96.672 L 92.797,87.068 L 94.664,87.068 L 94.664,85.324 L 88.205,85.324 L 88.205,87.068 Z" marker-start="none" marker-end="none"/>
      </g>
     </g>
     <g id="Group_21" fill-rule="nonzero" stroke-linejoin="round" stroke-linecap="round" stroke="none" stroke-width="0.387" fill="#000000" stroke-miterlimit="79.8403193612775">
      <g id="Group_22">
       <path d="M 107.865,32.628 C 107.865,31.637 107.759,30.778 107.546,30.052 C 107.333,29.325 107.039,28.723 106.663,28.246 C 106.287,27.769 105.84,27.413 105.324,27.18 C 104.808,26.946 104.249,26.83 103.647,26.83 C 103.045,26.83 102.489,26.946 101.978,27.18 C 101.467,27.413 101.025,27.769 100.651,28.246 C 100.277,28.723 99.986,29.325 99.775,30.052 C 99.565,30.778 99.46,31.637 99.46,32.628 C 99.46,33.619 99.565,34.478 99.775,35.205 C 99.986,35.931 100.277,36.533 100.651,37.01 C 101.025,37.488 101.467,37.842 101.978,38.073 C 102.489,38.304 103.045,38.419 103.647,38.419 C 104.249,38.419 104.808,38.304 105.324,38.073 C 105.84,37.842 106.287,37.488 106.663,37.01 C 107.039,36.533 107.333,35.931 107.546,35.205 C 107.759,34.478 107.865,33.619 107.865,32.628 Z M 105.375,32.628 C 105.375,33.412 105.325,34.054 105.227,34.555 C 105.128,35.056 104.997,35.449 104.834,35.734 C 104.67,36.019 104.485,36.215 104.277,36.322 C 104.07,36.428 103.86,36.481 103.647,36.481 C 103.434,36.481 103.226,36.428 103.021,36.322 C 102.816,36.215 102.634,36.019 102.476,35.734 C 102.318,35.449 102.191,35.056 102.095,34.555 C 101.999,34.054 101.951,33.412 101.951,32.628 C 101.951,31.84 101.999,31.196 102.095,30.698 C 102.191,30.2 102.318,29.807 102.476,29.519 C 102.634,29.231 102.816,29.033 103.021,28.927 C 103.226,28.821 103.434,28.768 103.647,28.768 C 103.86,28.768 104.07,28.821 104.277,28.927 C 104.485,29.033 104.67,29.231 104.834,29.519 C 104.997,29.807 105.128,30.2 105.227,30.698 C 105.325,31.196 105.375,31.84 105.375,32.628 Z" marker-start="none" marker-end="none"/>
      </g>
     </g>
     <path d="M 34.365,151.094 C 34.416,151.094 34.468,151.085 34.519,151.065 C 34.57,151.045 34.619,151.012 34.666,150.964 L 35.522,150.043 C 35.147,149.561 34.677,149.197 34.113,148.951 C 33.548,148.706 32.88,148.583 32.109,148.583 C 31.401,148.583 30.767,148.703 30.207,148.944 C 29.647,149.185 29.171,149.518 28.781,149.942 C 28.392,150.366 28.092,150.869 27.883,151.451 C 27.675,152.032 27.57,152.664 27.57,153.346 C 27.57,154.041 27.689,154.679 27.928,155.261 C 28.167,155.843 28.5,156.345 28.929,156.767 C 29.357,157.189 29.869,157.517 30.466,157.751 C 31.063,157.986 31.721,158.103 32.441,158.103 C 32.791,158.103 33.12,158.072 33.429,158.01 C 33.738,157.948 34.026,157.863 34.295,157.754 C 34.563,157.645 34.811,157.515 35.036,157.363 C 35.262,157.212 35.463,157.044 35.637,156.861 L 34.909,155.883 C 34.862,155.823 34.806,155.769 34.742,155.72 C 34.678,155.671 34.589,155.646 34.474,155.646 C 34.397,155.646 34.325,155.663 34.257,155.697 C 34.188,155.731 34.116,155.773 34.039,155.822 C 33.963,155.871 33.878,155.924 33.787,155.982 C 33.695,156.039 33.586,156.093 33.461,156.142 C 33.335,156.191 33.188,156.232 33.02,156.266 C 32.851,156.3 32.654,156.317 32.428,156.318 C 32.036,156.317 31.678,156.248 31.354,156.11 C 31.031,155.971 30.752,155.773 30.52,155.515 C 30.288,155.257 30.107,154.945 29.977,154.579 C 29.847,154.212 29.782,153.801 29.782,153.345 C 29.782,152.867 29.847,152.443 29.977,152.072 C 30.107,151.702 30.284,151.389 30.507,151.136 C 30.731,150.882 30.992,150.689 31.291,150.557 C 31.589,150.425 31.908,150.359 32.249,150.359 C 32.445,150.359 32.624,150.369 32.786,150.388 C 32.948,150.407 33.098,150.44 33.237,150.487 C 33.375,150.534 33.508,150.594 33.633,150.669 C 33.759,150.744 33.886,150.836 34.014,150.947 C 34.065,150.99 34.12,151.025 34.18,151.053 C 34.24,151.08 34.301,151.094 34.365,151.094 Z" fill-rule="nonzero" stroke-linejoin="round" stroke-linecap="round" stroke="none" stroke-width="0.319" fill="#ffffff" marker-start="none" marker-end="none" stroke-miterlimit="79.8403193612775"/>
     <path d="M 45.702,153.346 C 45.702,152.673 45.586,152.046 45.354,151.467 C 45.122,150.887 44.795,150.383 44.373,149.954 C 43.951,149.526 43.443,149.19 42.848,148.947 C 42.254,148.704 41.594,148.583 40.87,148.583 C 40.145,148.583 39.485,148.704 38.888,148.947 C 38.291,149.19 37.781,149.526 37.357,149.954 C 36.933,150.383 36.605,150.887 36.373,151.467 C 36.14,152.046 36.024,152.673 36.024,153.346 C 36.024,154.02 36.14,154.646 36.373,155.226 C 36.605,155.806 36.933,156.308 37.357,156.735 C 37.781,157.161 38.291,157.496 38.888,157.739 C 39.485,157.981 40.145,158.103 40.87,158.103 C 41.594,158.103 42.254,157.98 42.848,157.735 C 43.443,157.49 43.951,157.155 44.373,156.728 C 44.795,156.302 45.122,155.799 45.354,155.219 C 45.586,154.64 45.702,154.015 45.702,153.346 Z M 43.491,153.346 C 43.491,153.806 43.431,154.22 43.312,154.589 C 43.192,154.957 43.021,155.27 42.797,155.525 C 42.573,155.781 42.299,155.977 41.976,156.113 C 41.652,156.249 41.283,156.317 40.87,156.318 C 40.452,156.317 40.08,156.249 39.754,156.113 C 39.428,155.977 39.153,155.781 38.93,155.525 C 38.706,155.27 38.534,154.957 38.415,154.589 C 38.296,154.22 38.236,153.806 38.236,153.346 C 38.236,152.882 38.296,152.465 38.415,152.097 C 38.534,151.728 38.706,151.416 38.93,151.161 C 39.153,150.905 39.428,150.71 39.754,150.576 C 40.08,150.442 40.452,150.375 40.87,150.375 C 41.283,150.375 41.652,150.442 41.976,150.576 C 42.299,150.71 42.573,150.905 42.797,151.161 C 43.021,151.416 43.192,151.728 43.312,152.097 C 43.431,152.465 43.491,152.882 43.491,153.346 Z" fill-rule="nonzero" stroke-linejoin="round" stroke-linecap="round" stroke="none" stroke-width="0.319" fill="#ffffff" marker-start="none" marker-end="none" stroke-miterlimit="79.8403193612775"/>
     <path d="M 47.874,158.003 C 47.968,158.003 48.047,157.999 48.11,157.99 C 48.174,157.982 48.232,157.966 48.283,157.942 C 48.334,157.919 48.383,157.886 48.43,157.843 C 48.477,157.8 48.53,157.743 48.59,157.671 L 53.013,152.077 C 52.996,152.256 52.984,152.43 52.975,152.598 C 52.967,152.766 52.962,152.925 52.962,153.075 L 52.962,158.003 L 54.867,158.003 L 54.867,148.686 L 53.742,148.686 C 53.576,148.686 53.435,148.712 53.32,148.763 C 53.205,148.814 53.094,148.908 52.988,149.044 L 48.596,154.593 C 48.609,154.431 48.62,154.272 48.628,154.116 C 48.637,153.961 48.641,153.815 48.641,153.678 L 48.641,148.686 L 46.736,148.686 L 46.736,158.003 L 47.874,158.003 Z" fill-rule="nonzero" stroke-linejoin="round" stroke-linecap="round" stroke="none" stroke-width="0.319" fill="#ffffff" marker-start="none" marker-end="none" stroke-miterlimit="79.8403193612775"/>
     <path d="M 61.591,156.108 C 61.527,156.005 61.46,155.929 61.389,155.878 C 61.319,155.826 61.228,155.801 61.118,155.801 C 61.02,155.801 60.914,155.832 60.801,155.894 C 60.688,155.955 60.56,156.025 60.418,156.101 C 60.275,156.178 60.112,156.247 59.929,156.309 C 59.745,156.371 59.537,156.402 59.302,156.402 C 58.897,156.402 58.596,156.316 58.398,156.143 C 58.2,155.97 58.1,155.737 58.1,155.443 C 58.1,155.255 58.16,155.1 58.279,154.976 C 58.399,154.853 58.555,154.746 58.749,154.656 C 58.943,154.567 59.165,154.485 59.414,154.41 C 59.663,154.336 59.918,154.253 60.178,154.161 C 60.438,154.069 60.693,153.962 60.942,153.838 C 61.191,153.715 61.413,153.557 61.607,153.365 C 61.801,153.173 61.957,152.94 62.077,152.665 C 62.196,152.39 62.256,152.059 62.256,151.671 C 62.256,151.24 62.181,150.838 62.032,150.463 C 61.883,150.088 61.666,149.76 61.383,149.481 C 61.1,149.202 60.75,148.983 60.335,148.823 C 59.919,148.663 59.447,148.583 58.919,148.583 C 58.629,148.583 58.334,148.613 58.033,148.673 C 57.733,148.732 57.442,148.816 57.161,148.925 C 56.88,149.034 56.615,149.163 56.368,149.312 C 56.121,149.461 55.906,149.627 55.722,149.811 L 56.362,150.821 C 56.409,150.898 56.475,150.959 56.56,151.006 C 56.645,151.053 56.737,151.077 56.835,151.077 C 56.963,151.077 57.092,151.036 57.222,150.955 C 57.351,150.874 57.499,150.785 57.663,150.687 C 57.827,150.589 58.015,150.499 58.228,150.418 C 58.441,150.337 58.693,150.297 58.983,150.297 C 59.375,150.297 59.679,150.383 59.897,150.555 C 60.114,150.728 60.223,151.002 60.223,151.377 C 60.223,151.595 60.163,151.771 60.044,151.908 C 59.924,152.044 59.768,152.157 59.574,152.247 C 59.38,152.336 59.159,152.415 58.912,152.483 C 58.665,152.551 58.412,152.627 58.152,152.71 C 57.892,152.793 57.638,152.895 57.391,153.017 C 57.144,153.138 56.923,153.298 56.729,153.496 C 56.535,153.695 56.379,153.942 56.259,154.238 C 56.14,154.534 56.08,154.9 56.08,155.335 C 56.08,155.684 56.151,156.025 56.291,156.358 C 56.432,156.69 56.639,156.986 56.911,157.246 C 57.184,157.506 57.519,157.714 57.915,157.87 C 58.311,158.025 58.765,158.103 59.277,158.103 C 59.562,158.103 59.84,158.081 60.111,158.036 C 60.381,157.991 60.638,157.925 60.881,157.837 C 61.124,157.75 61.351,157.646 61.562,157.524 C 61.773,157.403 61.961,157.265 62.128,157.112 L 61.591,156.108 Z" fill-rule="nonzero" stroke-linejoin="round" stroke-linecap="round" stroke="none" stroke-width="0.319" fill="#ffffff" marker-start="none" marker-end="none" stroke-miterlimit="79.8403193612775"/>
     <path d="M 67.203,150.393 C 67.493,150.393 67.752,150.441 67.98,150.537 C 68.208,150.633 68.4,150.77 68.558,150.95 C 68.716,151.129 68.836,151.347 68.919,151.605 C 69.002,151.863 69.044,152.156 69.044,152.484 L 69.044,158.001 L 71.205,158.001 L 71.205,152.483 C 71.205,151.912 71.112,151.388 70.926,150.91 C 70.741,150.433 70.476,150.022 70.131,149.676 C 69.785,149.331 69.366,149.063 68.871,148.871 C 68.377,148.679 67.821,148.583 67.203,148.583 C 66.581,148.583 66.022,148.679 65.528,148.871 C 65.034,149.063 64.614,149.331 64.269,149.676 C 63.924,150.022 63.659,150.433 63.476,150.91 C 63.293,151.388 63.201,151.912 63.201,152.483 L 63.201,158.001 L 65.362,158.001 L 65.362,152.49 C 65.362,152.162 65.403,151.869 65.487,151.611 C 65.57,151.353 65.69,151.134 65.848,150.953 C 66.005,150.772 66.198,150.633 66.426,150.537 C 66.654,150.441 66.913,150.393 67.203,150.393 Z" fill-rule="nonzero" stroke-linejoin="round" stroke-linecap="round" stroke="none" stroke-width="0.319" fill="#ffffff" marker-start="none" marker-end="none" stroke-miterlimit="79.8403193612775"/>
     <path d="M 77.374,152.916 C 77.46,152.753 77.542,152.583 77.621,152.407 C 77.699,152.231 77.775,152.051 77.847,151.867 C 77.92,152.056 77.997,152.239 78.078,152.417 C 78.159,152.595 78.242,152.768 78.327,152.935 L 80.718,157.672 C 80.76,157.753 80.804,157.817 80.849,157.862 C 80.893,157.907 80.944,157.94 80.999,157.962 C 81.054,157.983 81.117,157.994 81.187,157.994 C 81.258,157.994 81.34,157.994 81.434,157.994 L 83.083,157.994 L 83.083,148.686 L 81.178,148.686 L 81.178,153.973 C 81.178,154.23 81.191,154.507 81.216,154.806 L 78.749,150.092 C 78.672,149.945 78.569,149.834 78.439,149.758 C 78.309,149.683 78.161,149.645 77.994,149.645 L 77.7,149.645 C 77.534,149.645 77.386,149.683 77.256,149.758 C 77.126,149.834 77.023,149.945 76.946,150.092 L 74.466,154.812 C 74.483,154.665 74.496,154.519 74.504,154.374 C 74.513,154.229 74.517,154.095 74.517,153.973 L 74.517,148.686 L 72.612,148.686 L 72.612,157.994 L 74.261,157.994 C 74.355,157.994 74.437,157.994 74.507,157.994 C 74.578,157.994 74.641,157.983 74.696,157.962 C 74.751,157.94 74.801,157.907 74.846,157.862 C 74.891,157.817 74.935,157.753 74.977,157.672 L 77.374,152.916 Z" fill-rule="nonzero" stroke-linejoin="round" stroke-linecap="round" stroke="none" stroke-width="0.319" fill="#ffffff" marker-start="none" marker-end="none" stroke-miterlimit="79.8403193612775"/>
     <path d="M 90.613,158.003 L 90.613,156.339 L 86.791,156.339 L 86.791,154.164 L 89.718,154.164 L 89.718,152.566 L 86.791,152.566 L 86.791,150.35 L 90.613,150.35 L 90.613,148.686 L 84.617,148.686 L 84.617,158.003 L 90.613,158.003 Z" fill-rule="nonzero" stroke-linejoin="round" stroke-linecap="round" stroke="none" stroke-width="0.319" fill="#ffffff" marker-start="none" marker-end="none" stroke-miterlimit="79.8403193612775"/>
     <path d="M 94.001,152.132 L 94.001,148.686 L 91.84,148.686 L 91.84,158 L 94.87,158 C 95.543,158 96.118,157.931 96.593,157.792 C 97.068,157.653 97.456,157.46 97.756,157.213 C 98.057,156.965 98.275,156.673 98.411,156.336 C 98.548,155.999 98.616,155.632 98.616,155.235 C 98.616,154.932 98.576,154.646 98.495,154.377 C 98.414,154.109 98.293,153.86 98.133,153.632 C 97.974,153.403 97.778,153.2 97.545,153.02 C 97.313,152.841 97.046,152.694 96.743,152.579 C 96.888,152.507 97.023,152.417 97.149,152.311 C 97.275,152.204 97.384,152.075 97.478,151.921 L 99.46,148.686 L 97.504,148.686 C 97.142,148.686 96.882,148.822 96.724,149.095 L 95.177,151.799 C 95.109,151.919 95.029,152.004 94.937,152.055 C 94.846,152.106 94.717,152.132 94.55,152.132 L 94.001,152.132 Z M 94.001,153.621 L 94.87,153.621 C 95.164,153.621 95.415,153.658 95.621,153.733 C 95.828,153.807 95.997,153.911 96.129,154.043 C 96.261,154.175 96.357,154.329 96.417,154.506 C 96.477,154.683 96.507,154.874 96.507,155.079 C 96.507,155.488 96.373,155.808 96.107,156.038 C 95.841,156.268 95.428,156.383 94.87,156.383 L 94.001,156.383 L 94.001,153.621 Z" fill-rule="nonzero" stroke-linejoin="round" stroke-linecap="round" stroke="none" stroke-width="0.319" fill="#ffffff" marker-start="none" marker-end="none" stroke-miterlimit="79.8403193612775"/>
     <g id="Group_23" fill-rule="nonzero" stroke-linejoin="round" stroke-linecap="round" stroke="none" stroke-width="0.365" fill="#000000" stroke-miterlimit="79.8403193612775">
      <path d="M 68.752,185.78 C 68.678,185.662 68.601,185.574 68.521,185.516 C 68.44,185.457 68.336,185.428 68.209,185.428 C 68.097,185.428 67.976,185.463 67.847,185.534 C 67.717,185.605 67.571,185.684 67.407,185.772 C 67.243,185.86 67.057,185.94 66.847,186.01 C 66.637,186.081 66.397,186.117 66.129,186.117 C 65.665,186.117 65.319,186.018 65.092,185.82 C 64.865,185.622 64.751,185.355 64.751,185.018 C 64.751,184.802 64.82,184.624 64.956,184.483 C 65.093,184.341 65.273,184.219 65.495,184.116 C 65.717,184.014 65.971,183.92 66.257,183.834 C 66.543,183.749 66.834,183.653 67.132,183.548 C 67.43,183.443 67.722,183.32 68.008,183.178 C 68.294,183.037 68.548,182.856 68.77,182.636 C 68.992,182.416 69.172,182.149 69.308,181.834 C 69.445,181.519 69.514,181.139 69.514,180.694 C 69.514,180.201 69.428,179.739 69.257,179.309 C 69.086,178.879 68.838,178.505 68.513,178.185 C 68.189,177.865 67.788,177.613 67.312,177.43 C 66.836,177.247 66.295,177.155 65.689,177.155 C 65.357,177.155 65.019,177.189 64.674,177.258 C 64.33,177.326 63.996,177.422 63.674,177.547 C 63.352,177.672 63.049,177.819 62.766,177.99 C 62.482,178.161 62.236,178.352 62.026,178.562 L 62.758,179.72 C 62.812,179.808 62.888,179.879 62.985,179.932 C 63.083,179.986 63.188,180.013 63.3,180.013 C 63.447,180.013 63.595,179.967 63.744,179.874 C 63.893,179.781 64.061,179.678 64.249,179.566 C 64.437,179.454 64.653,179.351 64.898,179.258 C 65.142,179.165 65.43,179.119 65.762,179.119 C 66.212,179.119 66.561,179.218 66.81,179.416 C 67.059,179.613 67.184,179.928 67.184,180.357 C 67.184,180.607 67.115,180.809 66.978,180.966 C 66.842,181.122 66.662,181.251 66.44,181.354 C 66.218,181.457 65.965,181.547 65.682,181.625 C 65.398,181.703 65.108,181.79 64.81,181.885 C 64.512,181.98 64.221,182.098 63.938,182.237 C 63.655,182.376 63.402,182.559 63.18,182.787 C 62.957,183.014 62.778,183.297 62.641,183.637 C 62.504,183.976 62.436,184.395 62.436,184.893 C 62.436,185.294 62.516,185.685 62.678,186.066 C 62.839,186.447 63.076,186.786 63.388,187.084 C 63.701,187.382 64.084,187.621 64.539,187.799 C 64.993,187.977 65.513,188.066 66.099,188.066 C 66.427,188.066 66.745,188.041 67.055,187.989 C 67.366,187.938 67.66,187.862 67.938,187.762 C 68.217,187.662 68.477,187.542 68.719,187.403 C 68.96,187.264 69.177,187.106 69.367,186.93 L 68.752,185.78 Z" marker-start="none" marker-end="none"/>
      <path d="M 78.496,187.952 L 78.496,185.988 L 75.492,185.988 L 75.492,177.275 L 73.016,177.275 L 73.016,185.988 L 70.012,185.988 L 70.012,187.952 L 78.496,187.952 Z" marker-start="none" marker-end="none"/>
      <path d="M 86.397,187.952 L 86.397,186.045 L 82.015,186.045 L 82.015,183.552 L 85.371,183.552 L 85.371,181.72 L 82.015,181.72 L 82.015,179.18 L 86.397,179.18 L 86.397,177.273 L 79.524,177.273 L 79.524,187.952 L 86.397,187.952 Z" marker-start="none" marker-end="none"/>
      <path d="M 97.738,177.273 L 95.819,177.273 C 95.604,177.273 95.427,177.323 95.288,177.423 C 95.148,177.523 95.052,177.652 94.998,177.808 L 94.368,179.67 L 90.309,179.67 L 89.679,177.808 C 89.63,177.671 89.535,177.548 89.393,177.438 C 89.251,177.328 89.078,177.273 88.873,177.273 L 86.939,177.273 L 91.071,187.95 L 93.606,187.95 L 97.738,177.273 Z M 90.88,181.355 L 93.797,181.355 L 92.815,184.234 C 92.751,184.416 92.677,184.632 92.591,184.879 C 92.506,185.127 92.422,185.395 92.338,185.684 C 92.26,185.39 92.18,185.119 92.097,184.868 C 92.014,184.619 91.936,184.402 91.862,184.219 L 90.88,181.355 Z" marker-start="none" marker-end="none"/>
      <path d="M 101.077,183.627 L 101.472,183.627 C 101.839,183.627 102.102,183.742 102.264,183.971 L 104.667,187.461 C 104.799,187.651 104.949,187.781 105.117,187.849 C 105.286,187.918 105.492,187.952 105.736,187.952 L 107.891,187.952 L 104.725,183.634 C 104.613,183.478 104.496,183.348 104.374,183.246 C 104.252,183.143 104.127,183.057 104,182.989 C 104.186,182.921 104.355,182.826 104.509,182.707 C 104.663,182.587 104.804,182.427 104.931,182.227 L 108.154,177.273 L 105.942,177.273 C 105.8,177.273 105.679,177.283 105.579,177.302 C 105.479,177.322 105.392,177.351 105.319,177.39 C 105.246,177.429 105.182,177.477 105.128,177.533 C 105.075,177.589 105.023,177.654 104.975,177.727 L 102.557,181.443 C 102.469,181.58 102.358,181.676 102.223,181.732 C 102.089,181.788 101.907,181.816 101.677,181.816 L 101.077,181.816 L 101.077,177.273 L 98.6,177.273 L 98.6,187.952 L 101.077,187.952 L 101.077,183.627 Z" marker-start="none" marker-end="none"/>
      <path d="M 115.011,185.78 C 114.937,185.662 114.86,185.574 114.78,185.516 C 114.699,185.457 114.595,185.428 114.468,185.428 C 114.356,185.428 114.235,185.463 114.106,185.534 C 113.976,185.605 113.83,185.684 113.666,185.772 C 113.502,185.86 113.316,185.94 113.106,186.01 C 112.896,186.081 112.656,186.117 112.388,186.117 C 111.924,186.117 111.578,186.018 111.351,185.82 C 111.124,185.622 111.01,185.355 111.01,185.018 C 111.01,184.802 111.079,184.624 111.215,184.483 C 111.352,184.341 111.532,184.219 111.754,184.116 C 111.976,184.014 112.23,183.92 112.516,183.834 C 112.802,183.749 113.093,183.653 113.391,183.548 C 113.689,183.443 113.981,183.32 114.267,183.178 C 114.553,183.037 114.807,182.856 115.029,182.636 C 115.251,182.416 115.431,182.149 115.567,181.834 C 115.704,181.519 115.773,181.139 115.773,180.694 C 115.773,180.201 115.687,179.739 115.516,179.309 C 115.345,178.879 115.097,178.505 114.772,178.185 C 114.448,177.865 114.047,177.613 113.571,177.43 C 113.095,177.247 112.554,177.155 111.948,177.155 C 111.616,177.155 111.278,177.189 110.933,177.258 C 110.589,177.326 110.255,177.422 109.933,177.547 C 109.611,177.672 109.308,177.819 109.025,177.99 C 108.741,178.161 108.495,178.352 108.285,178.562 L 109.017,179.72 C 109.071,179.808 109.147,179.879 109.244,179.932 C 109.342,179.986 109.447,180.013 109.559,180.013 C 109.706,180.013 109.854,179.967 110.003,179.874 C 110.152,179.781 110.32,179.678 110.508,179.566 C 110.696,179.454 110.912,179.351 111.157,179.258 C 111.401,179.165 111.689,179.119 112.021,179.119 C 112.471,179.119 112.82,179.218 113.069,179.416 C 113.318,179.613 113.443,179.928 113.443,180.357 C 113.443,180.607 113.374,180.809 113.237,180.966 C 113.101,181.122 112.921,181.251 112.699,181.354 C 112.477,181.457 112.224,181.547 111.941,181.625 C 111.657,181.703 111.367,181.79 111.069,181.885 C 110.771,181.98 110.48,182.098 110.197,182.237 C 109.914,182.376 109.661,182.559 109.439,182.787 C 109.216,183.014 109.037,183.297 108.9,183.637 C 108.763,183.976 108.695,184.395 108.695,184.893 C 108.695,185.294 108.775,185.685 108.937,186.066 C 109.098,186.447 109.335,186.786 109.647,187.084 C 109.96,187.382 110.343,187.621 110.798,187.799 C 111.252,187.977 111.772,188.066 112.358,188.066 C 112.686,188.066 113.004,188.041 113.314,187.989 C 113.625,187.938 113.919,187.862 114.197,187.762 C 114.476,187.662 114.736,187.542 114.978,187.403 C 115.219,187.264 115.436,187.106 115.626,186.93 L 115.011,185.78 Z" marker-start="none" marker-end="none"/>
      <path d="M 116.622,178.563 C 116.622,178.719 116.652,178.865 116.71,178.999 C 116.769,179.134 116.853,179.251 116.963,179.351 C 117.073,179.451 117.202,179.53 117.351,179.589 C 117.5,179.648 117.668,179.677 117.853,179.677 C 118.073,179.677 118.263,179.639 118.425,179.563 C 118.586,179.488 118.72,179.385 118.828,179.256 C 118.935,179.126 119.014,178.977 119.066,178.809 C 119.117,178.64 119.143,178.463 119.143,178.277 C 119.143,178.033 119.104,177.773 119.025,177.497 C 118.947,177.221 118.831,176.944 118.677,176.665 C 118.524,176.387 118.332,176.113 118.102,175.844 C 117.873,175.576 117.609,175.331 117.311,175.112 L 116.915,175.463 C 116.862,175.517 116.821,175.567 116.794,175.614 C 116.768,175.66 116.754,175.717 116.754,175.786 C 116.754,175.835 116.771,175.887 116.805,175.943 C 116.84,176 116.881,176.05 116.93,176.094 C 116.989,176.152 117.057,176.223 117.135,176.306 C 117.213,176.389 117.291,176.482 117.37,176.585 C 117.448,176.687 117.52,176.8 117.586,176.922 C 117.652,177.044 117.702,177.173 117.736,177.31 C 117.565,177.325 117.411,177.366 117.274,177.435 C 117.138,177.503 117.022,177.594 116.926,177.706 C 116.831,177.818 116.757,177.946 116.703,178.091 C 116.649,178.235 116.622,178.392 116.622,178.563 Z" marker-start="none" marker-end="none"/>
      <path d="M 125.996,177.273 L 123.505,177.273 L 123.505,187.952 L 125.996,187.952 L 125.996,177.273 Z" marker-start="none" marker-end="none"/>
      <path d="M 129.276,187.952 C 129.384,187.952 129.474,187.947 129.547,187.937 C 129.621,187.928 129.687,187.909 129.745,187.882 C 129.804,187.855 129.86,187.817 129.914,187.769 C 129.968,187.72 130.029,187.654 130.097,187.571 L 135.167,181.16 C 135.148,181.365 135.133,181.564 135.123,181.757 C 135.113,181.95 135.108,182.132 135.108,182.303 L 135.108,187.952 L 137.292,187.952 L 137.292,177.273 L 136.002,177.273 C 135.812,177.273 135.651,177.302 135.519,177.361 C 135.387,177.42 135.26,177.527 135.138,177.683 L 130.104,184.043 C 130.119,183.857 130.131,183.675 130.141,183.497 C 130.151,183.319 130.156,183.152 130.156,182.995 L 130.156,177.273 L 127.972,177.273 L 127.972,187.952 L 129.276,187.952 Z" marker-start="none" marker-end="none"/>
      <path d="M 146.221,180.033 C 146.28,180.033 146.338,180.022 146.397,180 C 146.456,179.977 146.512,179.939 146.565,179.884 L 147.547,178.829 C 147.117,178.276 146.579,177.858 145.932,177.577 C 145.285,177.296 144.519,177.155 143.635,177.155 C 142.824,177.155 142.097,177.293 141.455,177.569 C 140.813,177.845 140.268,178.226 139.821,178.712 C 139.374,179.198 139.031,179.775 138.792,180.442 C 138.552,181.109 138.433,181.833 138.433,182.614 C 138.433,183.411 138.57,184.142 138.843,184.809 C 139.117,185.476 139.499,186.051 139.99,186.535 C 140.481,187.018 141.068,187.395 141.752,187.663 C 142.436,187.932 143.19,188.066 144.016,188.066 C 144.416,188.066 144.794,188.031 145.148,187.96 C 145.502,187.889 145.833,187.791 146.141,187.666 C 146.448,187.542 146.732,187.393 146.99,187.219 C 147.249,187.045 147.479,186.853 147.679,186.643 L 146.844,185.522 C 146.79,185.453 146.727,185.391 146.653,185.335 C 146.58,185.279 146.478,185.251 146.346,185.251 C 146.258,185.251 146.175,185.27 146.097,185.309 C 146.018,185.348 145.935,185.396 145.847,185.452 C 145.76,185.508 145.663,185.569 145.558,185.635 C 145.453,185.701 145.328,185.762 145.184,185.819 C 145.04,185.875 144.872,185.922 144.679,185.962 C 144.486,186 144.26,186.02 144.001,186.02 C 143.552,186.02 143.141,185.941 142.77,185.782 C 142.399,185.623 142.08,185.396 141.814,185.1 C 141.548,184.805 141.34,184.447 141.191,184.027 C 141.042,183.607 140.968,183.135 140.968,182.613 C 140.968,182.065 141.042,181.579 141.191,181.154 C 141.34,180.729 141.543,180.372 141.799,180.081 C 142.056,179.79 142.355,179.569 142.697,179.418 C 143.039,179.266 143.405,179.191 143.796,179.191 C 144.021,179.191 144.226,179.202 144.411,179.224 C 144.597,179.246 144.769,179.283 144.928,179.337 C 145.087,179.391 145.238,179.46 145.382,179.546 C 145.526,179.631 145.672,179.738 145.818,179.865 C 145.877,179.914 145.94,179.954 146.009,179.986 C 146.077,180.017 146.148,180.033 146.221,180.033 Z" marker-start="none" marker-end="none"/>
      <path d="M 148.24,178.423 C 148.24,178.599 148.273,178.763 148.339,178.914 C 148.404,179.066 148.495,179.198 148.61,179.31 C 148.724,179.423 148.86,179.512 149.016,179.578 C 149.173,179.644 149.344,179.677 149.529,179.677 C 149.71,179.677 149.878,179.644 150.035,179.578 C 150.191,179.512 150.328,179.423 150.445,179.31 C 150.562,179.198 150.654,179.066 150.72,178.914 C 150.786,178.763 150.819,178.599 150.819,178.423 C 150.819,178.247 150.786,178.082 150.72,177.928 C 150.654,177.774 150.562,177.641 150.445,177.529 C 150.328,177.416 150.191,177.328 150.035,177.265 C 149.878,177.201 149.71,177.169 149.529,177.169 C 149.344,177.169 149.173,177.201 149.016,177.265 C 148.86,177.328 148.724,177.416 148.61,177.529 C 148.495,177.641 148.404,177.774 148.339,177.928 C 148.273,178.082 148.24,178.247 148.24,178.423 Z" marker-start="none" marker-end="none"/>
     </g>
    </g>
   </g>
  </g>
 </g>
</svg>
