<?xml version="1.0" standalone="no"?>
<!DOCTYPE svg PUBLIC "-//W3C//DTD SVG 1.1//EN" "http://www.w3.org/Graphics/SVG/1.1/DTD/svg11.dtd">
<!--Generator: Xara Designer (www.xara.com), SVG filter version: 6.2.0.0-->
<svg stroke-width="0.501" stroke-linejoin="bevel" fill-rule="evenodd" xmlns:xlink="http://www.w3.org/1999/xlink" xmlns="http://www.w3.org/2000/svg" version="1.1" overflow="visible" width="215.434pt" height="215.434pt" viewBox="0 0 215.434 215.434">
 <defs>
	</defs>
 <g id="Document" fill="none" stroke="black" font-family="Times New Roman" font-size="16" transform="scale(1 -1)">
  <g id="Spread" transform="translate(0 -215.434)">
   <g id="Layer 1">
    <g id="Group">
     <path d="M 199.757,214.933 L 15.176,214.933 C 6.799,214.933 0,208.134 0,199.757 L 0,15.176 C 0,6.799 6.799,0 15.176,0 L 199.757,0 C 208.134,0 214.933,6.799 214.933,15.176 L 214.933,199.757 C 214.933,208.134 208.134,214.933 199.757,214.933 Z" stroke="#999999" fill="#ffffff" stroke-linejoin="miter" marker-start="none" marker-end="none"/>
     <path d="M 15.005,146.115 L 15.005,180.007 L 118.593,180.007 L 118.593,146.115 L 15.005,146.115 Z" stroke-linejoin="miter" stroke-linecap="round" stroke="#95afc0" fill="#95afc0" stroke-width="1.738" marker-start="none" marker-end="none" stroke-miterlimit="79.8403193612775"/>
     <path d="M 15.005,144.772 L 15.005,154.582 C 15.005,157.153 17.089,159.23 19.651,159.23 L 113.943,159.23 C 116.505,159.23 118.593,157.153 118.593,154.582 L 118.593,144.772 C 118.593,142.196 116.505,140.118 113.943,140.118 L 19.651,140.118 C 17.089,140.118 15.005,142.196 15.005,144.772 Z" stroke-linejoin="miter" stroke-linecap="round" stroke="#95afc0" fill="#95afc0" stroke-width="1.738" marker-start="none" marker-end="none" stroke-miterlimit="79.8403193612775"/>
     <path d="M 15.702,173.665 L 15.702,191.31 C 15.702,195.923 19.446,199.669 24.064,199.669 L 191.11,199.669 C 195.723,199.669 199.471,195.923 199.471,191.31 L 199.471,173.665 C 199.471,169.047 195.723,165.299 191.11,165.299 L 24.064,165.299 C 19.446,165.299 15.702,169.047 15.702,173.665 Z" stroke-linejoin="miter" stroke-linecap="round" stroke="#95afc0" fill="#ffffff" stroke-width="3.13" marker-start="none" marker-end="none" stroke-miterlimit="79.8403193612775"/>
     <path d="M 100.464,0.438 L 91.93,0.438 L 91.93,49.601 L 100.464,49.601 L 100.464,0.438 Z" fill="#ff3718" stroke-linecap="round" stroke="none" stroke-width="0.103" stroke-linejoin="miter" marker-start="none" marker-end="none" stroke-miterlimit="79.8403193612775"/>
     <path d="M 120.696,100.043 C 107.257,87.775 100.428,70.962 100.425,54.089 L 91.946,54.089 C 91.951,73.261 99.701,92.374 114.97,106.308 C 128.531,118.682 145.608,124.783 162.631,124.778 L 162.631,116.292 C 147.649,116.299 132.622,110.93 120.696,100.043 Z" fill="#ff3718" stroke-linecap="round" stroke="none" stroke-width="0.541" stroke-linejoin="round" marker-start="none" marker-end="none" stroke-miterlimit="79.8403193612775"/>
     <path d="M 200.584,120.551 L 197.539,118.433 L 194.486,116.311 L 194.486,116.258 L 167.209,116.258 L 167.209,124.794 L 194.486,124.794 L 197.539,122.674 L 200.584,120.551 Z" fill="#ff3718" stroke-linecap="round" stroke="none" stroke-width="0.103" stroke-linejoin="miter" marker-start="none" marker-end="none" stroke-miterlimit="79.8403193612775"/>
     <path d="M 200.588,109.001 L 197.542,106.881 L 194.486,104.76 L 194.486,109.001 L 194.49,113.242 L 197.542,111.119 L 200.588,109.001 Z M 194.486,104.737 L 167.209,104.737 L 167.209,113.271 L 194.486,113.271 L 194.486,104.737 Z" stroke-linecap="round" stroke="none" fill="#e5e5e5" stroke-width="0.103" stroke-linejoin="miter" marker-start="none" marker-end="none" stroke-miterlimit="79.8403193612775"/>
     <path d="M 128.318,91.689 C 117.327,81.649 111.74,67.894 111.735,54.089 L 103.254,54.089 C 103.258,70.196 109.773,86.246 122.601,97.955 C 133.988,108.349 148.331,113.469 162.631,113.466 L 162.631,104.98 C 150.374,104.99 138.082,100.595 128.318,91.689 Z" stroke-linecap="round" stroke="none" fill="#e5e5e5" stroke-width="0.453" stroke-linejoin="round" marker-start="none" marker-end="none" stroke-miterlimit="79.8403193612775"/>
     <path d="M 111.767,0.438 L 103.235,0.438 L 103.235,49.601 L 111.767,49.601 L 111.767,0.438 Z" stroke-linecap="round" stroke="none" fill="#e5e5e5" stroke-width="0.103" stroke-linejoin="miter" marker-start="none" marker-end="none" stroke-miterlimit="79.8403193612775"/>
     <path d="M 200.588,97.685 L 197.542,95.569 L 194.486,93.448 L 194.486,97.689 L 194.49,101.932 L 197.542,99.812 L 200.588,97.685 Z M 194.486,93.439 L 167.209,93.439 L 167.209,101.974 L 194.486,101.974 L 194.486,93.439 Z" fill="#00d702" stroke-linecap="round" stroke="none" stroke-width="0.103" stroke-linejoin="miter" marker-start="none" marker-end="none" stroke-miterlimit="79.8403193612775"/>
     <path d="M 123.065,0.438 L 114.534,0.438 L 114.534,49.601 L 123.065,49.601 L 123.065,0.438 Z" fill="#00d702" stroke-linecap="round" stroke="none" stroke-width="0.103" stroke-linejoin="miter" marker-start="none" marker-end="none" stroke-miterlimit="79.8403193612775"/>
     <path d="M 135.945,83.334 C 127.393,75.527 123.053,64.822 123.047,54.089 L 114.563,54.089 C 114.566,67.131 119.839,80.121 130.228,89.6 C 139.443,98.011 151.059,102.159 162.631,102.157 L 162.631,93.675 C 153.099,93.675 143.534,90.261 135.945,83.334 Z" fill="#00d702" stroke-linecap="round" stroke="none" stroke-width="0.368" stroke-linejoin="round" marker-start="none" marker-end="none" stroke-miterlimit="79.8403193612775"/>
     <path d="M 134.361,0.438 L 125.827,0.438 L 125.827,49.601 L 134.361,49.601 L 134.361,0.438 Z" fill="#e5e5e5" stroke-linecap="round" stroke="none" stroke-width="0.103" stroke-linejoin="miter" marker-start="none" marker-end="none" stroke-miterlimit="79.8403193612775"/>
     <path d="M 143.566,74.979 C 137.459,69.401 134.359,61.763 134.356,54.089 L 125.869,54.089 C 125.878,64.059 129.911,73.998 137.849,81.241 C 144.898,87.68 153.775,90.851 162.631,90.847 L 162.631,82.359 C 155.824,82.366 148.992,79.924 143.566,74.979 Z" fill="#e5e5e5" stroke-linecap="round" stroke="none" stroke-width="0.281" stroke-linejoin="round" marker-start="none" marker-end="none" stroke-miterlimit="79.8403193612775"/>
     <path d="M 200.584,86.632 L 197.539,84.5 L 194.486,82.359 L 194.486,82.359 L 167.209,82.359 L 167.209,90.898 L 194.486,90.898 L 194.486,90.898 L 197.542,88.768 L 200.584,86.632 Z" fill="#e5e5e5" stroke-linecap="round" stroke="none" stroke-width="0.103" stroke-linejoin="miter" marker-start="none" marker-end="none" stroke-miterlimit="79.8403193612775"/>
     <path d="M 59.5,89.157 C 53.6,96.135 54.479,106.595 61.474,112.504 C 68.456,118.396 78.909,117.517 84.813,110.53 C 90.722,103.538 89.836,93.084 82.839,87.179 C 75.857,81.284 65.4,82.163 59.5,89.157 Z" stroke-linejoin="miter" stroke="none" fill="#000000" stroke-width="0.686" marker-start="none" marker-end="none" stroke-miterlimit="79.8403193612775"/>
     <path d="M 60.278,89.766 C 54.387,96.764 55.259,107.223 62.252,113.116 C 69.241,119.025 79.693,118.142 85.609,111.149 C 91.506,104.167 90.621,93.715 83.627,87.81 C 76.648,81.904 66.184,82.783 60.278,89.766 Z" stroke-linejoin="miter" stroke="#b2b2b2" stroke-width="3.752" marker-start="none" marker-end="none" stroke-miterlimit="79.8403193612775"/>
     <path d="M 18.815,89.144 C 12.915,96.133 13.794,106.601 20.791,112.492 C 27.774,118.403 38.228,117.52 44.13,110.532 C 50.041,103.543 49.155,93.083 42.157,87.179 C 35.174,81.28 24.715,82.163 18.815,89.144 Z" stroke-linejoin="miter" stroke="none" fill="#ffffff" stroke-width="0.689" marker-start="none" marker-end="none" stroke-miterlimit="79.8403193612775"/>
     <path d="M 19.595,89.779 C 13.702,96.771 14.575,107.217 21.567,113.13 C 28.558,119.014 39.013,118.142 44.926,111.154 C 50.824,104.167 49.94,93.701 42.946,87.801 C 35.965,81.902 25.5,82.78 19.595,89.779 Z" stroke-linejoin="miter" stroke="#55bae6" stroke-width="3.752" marker-start="none" marker-end="none" stroke-miterlimit="79.8403193612775"/>
     <path d="M 21.355,24.9 C 12.458,35.44 13.783,51.226 24.335,60.11 C 34.866,69.024 50.631,67.692 59.532,57.154 C 68.446,46.614 67.11,30.84 56.556,21.937 C 46.025,13.041 30.253,14.372 21.355,24.9 Z" stroke-linejoin="miter" stroke="none" fill="#ffffff" stroke-width="1.039" marker-start="none" marker-end="none" stroke-miterlimit="79.8403193612775"/>
     <path d="M 22.532,25.857 C 13.645,36.402 14.961,52.155 25.505,61.072 C 36.048,69.945 51.815,68.63 60.732,58.092 C 69.626,47.555 68.293,31.772 57.746,22.875 C 47.218,13.979 31.437,15.303 22.532,25.857 Z" stroke-linejoin="miter" stroke="#55bae6" stroke-width="5.658" marker-start="none" marker-end="none" stroke-miterlimit="79.8403193612775"/>
     <path d="M 152.945,24.496 C 144.048,35.036 145.373,50.822 155.925,59.706 C 166.456,68.62 182.221,67.288 191.122,56.75 C 200.036,46.21 198.7,30.436 188.146,21.533 C 177.615,12.637 161.843,13.968 152.945,24.496 Z" stroke-linejoin="miter" stroke="none" fill="#000000" stroke-width="1.039" marker-start="none" marker-end="none" stroke-miterlimit="79.8403193612775"/>
     <path d="M 154.122,25.453 C 145.235,35.998 146.551,51.751 157.095,60.668 C 167.638,69.541 183.405,68.226 192.322,57.688 C 201.216,47.151 199.883,31.368 189.336,22.471 C 178.808,13.575 163.027,14.899 154.122,25.453 Z" stroke-linejoin="miter" stroke="#b2b2b2" stroke-width="5.658" marker-start="none" marker-end="none" stroke-miterlimit="79.8403193612775"/>
     <path d="M 102.705,20.796 C 98.18,26.152 98.856,34.168 104.214,38.692 C 109.57,43.215 117.591,42.543 122.11,37.185 C 126.635,31.829 125.96,23.81 120.601,19.29 C 115.247,14.762 107.227,15.445 102.705,20.796 Z" stroke-linejoin="miter" stroke="none" fill="#ffffff" stroke-width="0.526" marker-start="none" marker-end="none" stroke-miterlimit="79.8403193612775"/>
     <path d="M 103.308,21.278 C 98.784,26.627 99.46,34.649 104.816,39.17 C 110.175,43.698 118.191,43.02 122.715,37.661 C 127.243,32.31 126.566,24.287 121.206,19.763 C 115.846,15.242 107.831,15.916 103.308,21.278 Z" fill="none" stroke-linejoin="miter" stroke="#55bae6" stroke-width="2.872" marker-start="none" marker-end="none" stroke-miterlimit="79.8403193612775"/>
     <path d="M 114.656,78.11 C 110.135,83.461 110.81,91.48 116.167,96.008 C 121.524,100.524 129.543,99.851 134.067,94.493 C 138.59,89.139 137.91,81.122 132.556,76.599 C 127.2,72.075 119.181,72.751 114.656,78.11 Z" stroke-linejoin="miter" stroke="none" fill="#ffffff" stroke-width="0.526" marker-start="none" marker-end="none" stroke-miterlimit="79.8403193612775"/>
     <path d="M 115.265,78.588 C 110.737,83.942 111.411,91.958 116.771,96.482 C 122.129,101.007 130.144,100.333 134.669,94.971 C 139.197,89.615 138.512,81.598 133.161,77.072 C 127.801,72.547 119.786,73.228 115.265,78.588 Z" fill="none" stroke-linejoin="miter" stroke="#55bae6" stroke-width="2.872" marker-start="none" marker-end="none" stroke-miterlimit="79.8403193612775"/>
     <path d="M 172.277,94.895 C 167.753,100.251 168.432,108.268 173.787,112.796 C 179.148,117.317 187.167,116.639 191.69,111.281 C 196.218,105.929 195.536,97.906 190.179,93.387 C 184.819,88.868 176.803,89.542 172.277,94.895 Z" stroke-linejoin="miter" stroke="none" fill="#ffffff" stroke-width="0.526" marker-start="none" marker-end="none" stroke-miterlimit="79.8403193612775"/>
     <path d="M 172.884,95.379 C 168.36,100.73 169.037,108.749 174.395,113.274 C 179.755,117.795 187.77,117.121 192.293,111.761 C 196.819,106.408 196.142,98.388 190.786,93.867 C 185.424,89.342 177.407,90.018 172.884,95.379 Z" fill="none" stroke-linejoin="miter" stroke="#55bae6" stroke-width="2.872" marker-start="none" marker-end="none" stroke-miterlimit="79.8403193612775"/>
     <g id="Group_1" fill-rule="nonzero" stroke-linejoin="round" stroke-linecap="round" stroke="none" stroke-width="0.485" fill="#b2b2b2" stroke-miterlimit="79.8403193612775">
      <g id="Group_2">
       <path d="M 68.712,95.546 L 71.441,95.546 L 71.441,102.709 C 71.441,103.06 71.45,103.427 71.47,103.811 L 69.862,102.475 C 69.758,102.391 69.654,102.331 69.55,102.295 C 69.446,102.259 69.345,102.241 69.248,102.241 C 69.079,102.241 68.928,102.279 68.795,102.354 C 68.661,102.428 68.562,102.508 68.497,102.592 L 67.542,103.859 L 71.967,107.573 L 74.462,107.573 L 74.462,95.546 L 76.801,95.546 L 76.801,93.362 L 68.712,93.362 L 68.712,95.546 Z" marker-start="none" marker-end="none"/>
      </g>
     </g>
     <g id="Group_3" fill-rule="nonzero" stroke-linejoin="round" stroke-linecap="round" stroke="none" stroke-width="0.485" fill="#000000" stroke-miterlimit="79.8403193612775">
      <g id="Group_4">
       <path d="M 32.368,107.718 C 33.069,107.718 33.701,107.616 34.263,107.411 C 34.825,107.207 35.304,106.922 35.701,106.559 C 36.097,106.195 36.401,105.761 36.612,105.258 C 36.823,104.754 36.929,104.2 36.929,103.596 C 36.929,103.076 36.856,102.595 36.709,102.153 C 36.563,101.711 36.363,101.291 36.11,100.891 C 35.857,100.492 35.563,100.105 35.228,99.731 C 34.893,99.358 34.538,98.979 34.161,98.596 L 31.383,95.75 C 31.741,95.855 32.093,95.938 32.441,96 C 32.788,96.063 33.115,96.093 33.42,96.093 L 36.071,96.093 C 36.396,96.093 36.652,96.004 36.841,95.825 C 37.029,95.646 37.124,95.41 37.124,95.118 L 37.124,93.362 L 27.144,93.362 L 27.144,94.337 C 27.144,94.525 27.183,94.726 27.261,94.941 C 27.339,95.155 27.476,95.35 27.67,95.526 L 31.764,99.649 C 32.114,100 32.42,100.335 32.68,100.653 C 32.939,100.971 33.154,101.285 33.323,101.593 C 33.492,101.902 33.618,102.211 33.703,102.519 C 33.787,102.828 33.83,103.155 33.83,103.499 C 33.83,104.064 33.695,104.498 33.425,104.8 C 33.155,105.102 32.745,105.254 32.192,105.254 C 31.965,105.254 31.757,105.221 31.569,105.156 C 31.38,105.091 31.211,105.003 31.062,104.893 C 30.912,104.783 30.784,104.653 30.677,104.503 C 30.57,104.354 30.484,104.191 30.419,104.016 C 30.315,103.724 30.183,103.513 30.024,103.383 C 29.865,103.253 29.649,103.188 29.376,103.188 C 29.311,103.188 29.241,103.191 29.166,103.197 C 29.092,103.204 29.015,103.213 28.937,103.226 L 27.339,103.504 C 27.443,104.213 27.643,104.831 27.938,105.358 C 28.234,105.885 28.601,106.323 29.04,106.675 C 29.478,107.026 29.98,107.287 30.545,107.46 C 31.111,107.632 31.718,107.718 32.368,107.718 Z" marker-start="none" marker-end="none"/>
      </g>
     </g>
     <g id="Group_5" fill-rule="nonzero" stroke-linejoin="round" stroke-linecap="round" stroke="none" stroke-width="0.319" fill="#ffffff" stroke-miterlimit="79.8403193612775">
      <g id="Group_6">
       <path d="M 27.495,151.776 L 27.495,148.663 L 25.334,148.663 L 25.334,157.978 L 28.62,157.978 C 29.276,157.978 29.84,157.9 30.311,157.745 C 30.781,157.589 31.169,157.375 31.474,157.102 C 31.779,156.829 32.003,156.507 32.148,156.137 C 32.293,155.766 32.366,155.365 32.366,154.935 C 32.366,154.47 32.291,154.044 32.142,153.656 C 31.993,153.268 31.765,152.935 31.458,152.658 C 31.151,152.381 30.762,152.165 30.291,152.009 C 29.82,151.854 29.263,151.776 28.62,151.776 L 27.495,151.776 Z M 27.495,153.405 L 28.62,153.405 C 29.182,153.405 29.587,153.54 29.834,153.808 C 30.082,154.077 30.205,154.453 30.205,154.934 C 30.205,155.148 30.173,155.342 30.109,155.517 C 30.045,155.692 29.948,155.842 29.818,155.968 C 29.688,156.093 29.524,156.191 29.326,156.259 C 29.128,156.327 28.893,156.361 28.62,156.361 L 27.495,156.361 L 27.495,153.405 Z" marker-start="none" marker-end="none"/>
       <path d="M 35.654,152.107 L 35.654,148.661 L 33.493,148.661 L 33.493,157.975 L 36.523,157.975 C 37.196,157.975 37.771,157.906 38.246,157.767 C 38.721,157.628 39.109,157.435 39.409,157.188 C 39.71,156.94 39.928,156.648 40.064,156.311 C 40.201,155.974 40.269,155.607 40.269,155.21 C 40.269,154.907 40.229,154.621 40.148,154.352 C 40.067,154.084 39.946,153.835 39.786,153.607 C 39.627,153.378 39.431,153.175 39.198,152.995 C 38.966,152.816 38.699,152.669 38.396,152.554 C 38.541,152.482 38.676,152.392 38.802,152.286 C 38.928,152.179 39.037,152.05 39.131,151.896 L 41.113,148.661 L 39.157,148.661 C 38.795,148.661 38.535,148.797 38.377,149.07 L 36.83,151.774 C 36.762,151.894 36.682,151.979 36.59,152.03 C 36.499,152.081 36.37,152.107 36.203,152.107 L 35.654,152.107 Z M 35.654,153.596 L 36.523,153.596 C 36.817,153.596 37.068,153.633 37.274,153.708 C 37.481,153.782 37.65,153.886 37.782,154.018 C 37.914,154.15 38.01,154.304 38.07,154.481 C 38.13,154.658 38.16,154.849 38.16,155.054 C 38.16,155.463 38.026,155.783 37.76,156.013 C 37.494,156.243 37.081,156.358 36.523,156.358 L 35.654,156.358 L 35.654,153.596 Z" marker-start="none" marker-end="none"/>
       <path d="M 50.869,153.321 C 50.869,152.648 50.753,152.021 50.521,151.442 C 50.289,150.862 49.962,150.358 49.54,149.929 C 49.118,149.501 48.61,149.165 48.015,148.922 C 47.421,148.679 46.761,148.558 46.037,148.558 C 45.312,148.558 44.652,148.679 44.055,148.922 C 43.458,149.165 42.948,149.501 42.524,149.929 C 42.1,150.358 41.772,150.862 41.54,151.442 C 41.307,152.021 41.191,152.648 41.191,153.321 C 41.191,153.995 41.307,154.621 41.54,155.201 C 41.772,155.781 42.1,156.283 42.524,156.71 C 42.948,157.136 43.458,157.471 44.055,157.714 C 44.652,157.956 45.312,158.078 46.037,158.078 C 46.761,158.078 47.421,157.955 48.015,157.71 C 48.61,157.465 49.118,157.13 49.54,156.703 C 49.962,156.277 50.289,155.774 50.521,155.194 C 50.753,154.615 50.869,153.99 50.869,153.321 Z M 48.658,153.321 C 48.658,153.781 48.598,154.195 48.479,154.564 C 48.359,154.932 48.188,155.245 47.964,155.5 C 47.74,155.756 47.466,155.952 47.143,156.088 C 46.819,156.224 46.45,156.292 46.037,156.293 C 45.619,156.292 45.247,156.224 44.921,156.088 C 44.595,155.952 44.32,155.756 44.097,155.5 C 43.873,155.245 43.701,154.932 43.582,154.564 C 43.463,154.195 43.403,153.781 43.403,153.321 C 43.403,152.857 43.463,152.44 43.582,152.072 C 43.701,151.703 43.873,151.391 44.097,151.136 C 44.32,150.88 44.595,150.685 44.921,150.551 C 45.247,150.417 45.619,150.35 46.037,150.35 C 46.45,150.35 46.819,150.417 47.143,150.551 C 47.466,150.685 47.74,150.88 47.964,151.136 C 48.188,151.391 48.359,151.703 48.479,152.072 C 48.598,152.44 48.658,152.857 48.658,153.321 Z" marker-start="none" marker-end="none"/>
       <path d="M 60.354,153.323 C 60.354,152.649 60.238,152.028 60.005,151.459 C 59.773,150.89 59.446,150.397 59.024,149.982 C 58.602,149.566 58.094,149.242 57.5,149.01 C 56.905,148.777 56.246,148.661 55.521,148.661 L 51.903,148.661 L 51.903,157.978 L 55.521,157.978 C 56.246,157.978 56.905,157.861 57.5,157.626 C 58.094,157.392 58.602,157.068 59.024,156.654 C 59.446,156.241 59.773,155.749 60.005,155.18 C 60.238,154.611 60.354,153.992 60.354,153.323 Z M 58.142,153.323 C 58.142,153.783 58.082,154.198 57.963,154.569 C 57.844,154.94 57.672,155.254 57.448,155.512 C 57.225,155.77 56.951,155.968 56.627,156.107 C 56.303,156.245 55.935,156.314 55.521,156.314 L 54.077,156.314 L 54.077,150.325 L 55.521,150.325 C 55.935,150.325 56.303,150.394 56.627,150.532 C 56.951,150.671 57.225,150.869 57.448,151.127 C 57.672,151.385 57.844,151.699 57.963,152.07 C 58.082,152.441 58.142,152.858 58.142,153.323 Z" marker-start="none" marker-end="none"/>
       <path d="M 65.266,150.368 C 65.556,150.368 65.815,150.416 66.043,150.512 C 66.271,150.608 66.463,150.745 66.621,150.925 C 66.779,151.104 66.899,151.322 66.982,151.58 C 67.065,151.838 67.107,152.131 67.107,152.459 L 67.107,157.976 L 69.268,157.976 L 69.268,152.458 C 69.268,151.887 69.175,151.363 68.989,150.885 C 68.804,150.408 68.539,149.997 68.194,149.651 C 67.848,149.306 67.429,149.038 66.934,148.846 C 66.44,148.654 65.884,148.558 65.266,148.558 C 64.644,148.558 64.085,148.654 63.591,148.846 C 63.097,149.038 62.677,149.306 62.332,149.651 C 61.987,149.997 61.722,150.408 61.539,150.885 C 61.356,151.363 61.264,151.887 61.264,152.458 L 61.264,157.976 L 63.425,157.976 L 63.425,152.465 C 63.425,152.137 63.466,151.844 63.55,151.586 C 63.633,151.328 63.753,151.109 63.911,150.928 C 64.068,150.747 64.261,150.608 64.489,150.512 C 64.717,150.416 64.976,150.368 65.266,150.368 Z" marker-start="none" marker-end="none"/>
       <path d="M 76.933,151.069 C 76.984,151.069 77.036,151.06 77.087,151.04 C 77.138,151.02 77.187,150.987 77.234,150.939 L 78.09,150.018 C 77.715,149.536 77.245,149.172 76.681,148.926 C 76.116,148.681 75.448,148.558 74.677,148.558 C 73.969,148.558 73.335,148.678 72.775,148.919 C 72.215,149.16 71.739,149.493 71.349,149.917 C 70.96,150.341 70.66,150.844 70.451,151.426 C 70.243,152.007 70.138,152.639 70.138,153.321 C 70.138,154.016 70.257,154.654 70.496,155.236 C 70.735,155.818 71.068,156.32 71.497,156.742 C 71.925,157.164 72.437,157.492 73.034,157.726 C 73.631,157.961 74.289,158.078 75.009,158.078 C 75.359,158.078 75.688,158.047 75.997,157.985 C 76.306,157.923 76.594,157.838 76.863,157.729 C 77.131,157.62 77.379,157.49 77.604,157.338 C 77.83,157.187 78.031,157.019 78.205,156.836 L 77.477,155.858 C 77.43,155.798 77.374,155.744 77.31,155.695 C 77.246,155.646 77.157,155.621 77.042,155.621 C 76.965,155.621 76.893,155.638 76.825,155.672 C 76.756,155.706 76.684,155.748 76.607,155.797 C 76.531,155.846 76.446,155.899 76.355,155.957 C 76.263,156.014 76.154,156.068 76.029,156.117 C 75.903,156.166 75.756,156.207 75.588,156.241 C 75.419,156.275 75.222,156.292 74.996,156.293 C 74.604,156.292 74.246,156.223 73.922,156.085 C 73.599,155.946 73.32,155.748 73.088,155.49 C 72.856,155.232 72.675,154.92 72.545,154.554 C 72.415,154.187 72.35,153.776 72.35,153.32 C 72.35,152.842 72.415,152.418 72.545,152.047 C 72.675,151.677 72.852,151.364 73.075,151.111 C 73.299,150.857 73.56,150.664 73.859,150.532 C 74.157,150.4 74.476,150.334 74.817,150.334 C 75.013,150.334 75.192,150.344 75.354,150.363 C 75.516,150.382 75.666,150.415 75.805,150.462 C 75.943,150.509 76.076,150.569 76.201,150.644 C 76.327,150.719 76.454,150.811 76.582,150.922 C 76.633,150.965 76.688,151 76.748,151.028 C 76.808,151.055 76.869,151.069 76.933,151.069 Z" marker-start="none" marker-end="none"/>
       <path d="M 85.841,157.978 L 85.841,156.264 L 83.22,156.264 L 83.22,148.663 L 81.06,148.663 L 81.06,156.264 L 78.439,156.264 L 78.439,157.978 L 85.841,157.978 Z" marker-start="none" marker-end="none"/>
       <path d="M 89.103,148.661 L 86.93,148.661 L 86.93,157.978 L 89.103,157.978 L 89.103,148.661 Z" marker-start="none" marker-end="none"/>
       <path d="M 100.019,153.321 C 100.019,152.648 99.903,152.021 99.671,151.442 C 99.439,150.862 99.112,150.358 98.69,149.929 C 98.268,149.501 97.76,149.165 97.165,148.922 C 96.571,148.679 95.911,148.558 95.187,148.558 C 94.462,148.558 93.802,148.679 93.205,148.922 C 92.608,149.165 92.098,149.501 91.674,149.929 C 91.25,150.358 90.922,150.862 90.69,151.442 C 90.457,152.021 90.341,152.648 90.341,153.321 C 90.341,153.995 90.457,154.621 90.69,155.201 C 90.922,155.781 91.25,156.283 91.674,156.71 C 92.098,157.136 92.608,157.471 93.205,157.714 C 93.802,157.956 94.462,158.078 95.187,158.078 C 95.911,158.078 96.571,157.955 97.165,157.71 C 97.76,157.465 98.268,157.13 98.69,156.703 C 99.112,156.277 99.439,155.774 99.671,155.194 C 99.903,154.615 100.019,153.99 100.019,153.321 Z M 97.808,153.321 C 97.808,153.781 97.748,154.195 97.629,154.564 C 97.509,154.932 97.338,155.245 97.114,155.5 C 96.89,155.756 96.616,155.952 96.293,156.088 C 95.969,156.224 95.6,156.292 95.187,156.293 C 94.769,156.292 94.397,156.224 94.071,156.088 C 93.745,155.952 93.47,155.756 93.247,155.5 C 93.023,155.245 92.851,154.932 92.732,154.564 C 92.613,154.195 92.553,153.781 92.553,153.321 C 92.553,152.857 92.613,152.44 92.732,152.072 C 92.851,151.703 93.023,151.391 93.247,151.136 C 93.47,150.88 93.745,150.685 94.071,150.551 C 94.397,150.417 94.769,150.35 95.187,150.35 C 95.6,150.35 95.969,150.417 96.293,150.551 C 96.616,150.685 96.89,150.88 97.114,151.136 C 97.338,151.391 97.509,151.703 97.629,152.072 C 97.748,152.44 97.808,152.857 97.808,153.321 Z" marker-start="none" marker-end="none"/>
       <path d="M 102.191,157.978 C 102.285,157.978 102.364,157.974 102.427,157.965 C 102.491,157.957 102.549,157.941 102.6,157.917 C 102.651,157.894 102.7,157.861 102.747,157.818 C 102.794,157.775 102.847,157.718 102.907,157.646 L 107.33,152.052 C 107.313,152.231 107.301,152.405 107.292,152.573 C 107.284,152.741 107.279,152.9 107.279,153.05 L 107.279,157.978 L 109.184,157.978 L 109.184,148.661 L 108.059,148.661 C 107.893,148.661 107.752,148.687 107.637,148.738 C 107.522,148.789 107.411,148.883 107.305,149.019 L 102.913,154.568 C 102.926,154.406 102.937,154.247 102.945,154.091 C 102.954,153.936 102.958,153.79 102.958,153.653 L 102.958,148.661 L 101.053,148.661 L 101.053,157.978 L 102.191,157.978 Z" marker-start="none" marker-end="none"/>
      </g>
     </g>
     <g id="Group_7" fill-rule="nonzero" stroke-linejoin="round" stroke-linecap="round" stroke="none" stroke-width="0.365" fill="#000000" stroke-miterlimit="79.8403193612775">
      <g id="Group_8">
       <path d="M 53.184,180.781 L 53.184,177.213 L 50.707,177.213 L 50.707,187.89 L 54.473,187.89 C 55.225,187.89 55.871,187.801 56.411,187.622 C 56.951,187.444 57.395,187.199 57.745,186.886 C 58.094,186.573 58.351,186.204 58.518,185.779 C 58.684,185.354 58.767,184.895 58.767,184.402 C 58.767,183.869 58.681,183.38 58.51,182.936 C 58.339,182.491 58.078,182.11 57.726,181.793 C 57.375,181.475 56.929,181.227 56.389,181.049 C 55.849,180.871 55.211,180.781 54.473,180.781 L 53.184,180.781 Z M 53.184,182.649 L 54.473,182.649 C 55.118,182.649 55.582,182.803 55.865,183.111 C 56.149,183.419 56.29,183.849 56.29,184.401 C 56.29,184.646 56.254,184.869 56.18,185.069 C 56.107,185.269 55.996,185.441 55.847,185.586 C 55.698,185.73 55.51,185.841 55.283,185.919 C 55.056,185.998 54.786,186.037 54.473,186.037 L 53.184,186.037 L 53.184,182.649 Z" marker-start="none" marker-end="none"/>
       <path d="M 68.749,177.211 L 66.83,177.211 C 66.615,177.211 66.438,177.261 66.299,177.361 C 66.159,177.461 66.063,177.59 66.009,177.746 L 65.379,179.608 L 61.32,179.608 L 60.69,177.746 C 60.641,177.609 60.546,177.486 60.404,177.376 C 60.262,177.266 60.089,177.211 59.884,177.211 L 57.95,177.211 L 62.082,187.888 L 64.617,187.888 L 68.749,177.211 Z M 61.891,181.293 L 64.808,181.293 L 63.826,184.172 C 63.762,184.354 63.688,184.57 63.602,184.817 C 63.517,185.065 63.433,185.333 63.349,185.622 C 63.271,185.328 63.191,185.057 63.108,184.806 C 63.025,184.557 62.947,184.34 62.873,184.157 L 61.891,181.293 Z" marker-start="none" marker-end="none"/>
       <path d="M 76.345,179.971 C 76.404,179.971 76.462,179.96 76.521,179.938 C 76.58,179.915 76.636,179.877 76.689,179.822 L 77.671,178.767 C 77.241,178.214 76.703,177.796 76.056,177.515 C 75.409,177.234 74.643,177.093 73.759,177.093 C 72.948,177.093 72.221,177.231 71.579,177.507 C 70.937,177.783 70.392,178.164 69.945,178.65 C 69.498,179.136 69.155,179.713 68.916,180.38 C 68.676,181.047 68.557,181.771 68.557,182.552 C 68.557,183.349 68.694,184.08 68.967,184.747 C 69.241,185.414 69.623,185.989 70.114,186.473 C 70.605,186.956 71.192,187.333 71.876,187.601 C 72.56,187.87 73.314,188.004 74.14,188.004 C 74.54,188.004 74.918,187.969 75.272,187.898 C 75.626,187.827 75.957,187.729 76.265,187.604 C 76.572,187.48 76.856,187.331 77.114,187.157 C 77.373,186.983 77.603,186.791 77.803,186.581 L 76.968,185.46 C 76.914,185.391 76.851,185.329 76.777,185.273 C 76.704,185.217 76.602,185.189 76.47,185.189 C 76.382,185.189 76.299,185.208 76.221,185.247 C 76.142,185.286 76.059,185.334 75.971,185.39 C 75.884,185.446 75.787,185.507 75.682,185.573 C 75.577,185.639 75.452,185.7 75.308,185.757 C 75.164,185.813 74.996,185.86 74.803,185.9 C 74.61,185.938 74.384,185.958 74.125,185.958 C 73.676,185.958 73.265,185.879 72.894,185.72 C 72.523,185.561 72.204,185.334 71.938,185.038 C 71.672,184.743 71.464,184.385 71.315,183.965 C 71.166,183.545 71.092,183.073 71.092,182.551 C 71.092,182.003 71.166,181.517 71.315,181.092 C 71.464,180.667 71.667,180.31 71.923,180.019 C 72.18,179.728 72.479,179.507 72.821,179.356 C 73.163,179.204 73.529,179.129 73.92,179.129 C 74.145,179.129 74.35,179.14 74.535,179.162 C 74.721,179.184 74.893,179.221 75.052,179.275 C 75.211,179.329 75.362,179.398 75.506,179.484 C 75.65,179.569 75.796,179.676 75.942,179.803 C 76.001,179.852 76.064,179.892 76.133,179.924 C 76.201,179.955 76.272,179.971 76.345,179.971 Z" marker-start="none" marker-end="none"/>
       <path d="M 81.28,183.565 L 81.675,183.565 C 82.042,183.565 82.305,183.68 82.467,183.909 L 84.87,187.399 C 85.002,187.589 85.152,187.719 85.32,187.787 C 85.489,187.856 85.695,187.89 85.939,187.89 L 88.094,187.89 L 84.928,183.572 C 84.816,183.416 84.699,183.286 84.577,183.184 C 84.455,183.081 84.33,182.995 84.203,182.927 C 84.389,182.859 84.558,182.764 84.712,182.645 C 84.866,182.525 85.007,182.365 85.134,182.165 L 88.357,177.211 L 86.145,177.211 C 86.003,177.211 85.882,177.221 85.782,177.24 C 85.682,177.26 85.595,177.289 85.522,177.328 C 85.449,177.367 85.385,177.415 85.331,177.471 C 85.278,177.527 85.226,177.592 85.178,177.665 L 82.76,181.381 C 82.672,181.518 82.561,181.614 82.426,181.67 C 82.292,181.726 82.11,181.754 81.88,181.754 L 81.28,181.754 L 81.28,177.211 L 78.803,177.211 L 78.803,187.89 L 81.28,187.89 L 81.28,183.565 Z" marker-start="none" marker-end="none"/>
       <path d="M 99.199,177.211 L 97.28,177.211 C 97.065,177.211 96.888,177.261 96.749,177.361 C 96.609,177.461 96.513,177.59 96.459,177.746 L 95.829,179.608 L 91.77,179.608 L 91.14,177.746 C 91.091,177.609 90.996,177.486 90.854,177.376 C 90.712,177.266 90.539,177.211 90.334,177.211 L 88.4,177.211 L 92.532,187.888 L 95.067,187.888 L 99.199,177.211 Z M 92.341,181.293 L 95.258,181.293 L 94.276,184.172 C 94.212,184.354 94.138,184.57 94.052,184.817 C 93.967,185.065 93.883,185.333 93.799,185.622 C 93.721,185.328 93.641,185.057 93.558,184.806 C 93.475,184.557 93.397,184.34 93.323,184.157 L 92.341,181.293 Z" marker-start="none" marker-end="none"/>
       <path d="M 104.648,179 C 104.99,179 105.293,179.028 105.557,179.086 C 105.821,179.144 106.07,179.221 106.304,179.317 L 106.304,180.939 L 105.249,180.939 C 105.093,180.939 104.971,180.98 104.883,181.063 C 104.795,181.146 104.751,181.252 104.751,181.379 L 104.751,182.742 L 108.546,182.742 L 108.546,178.236 C 108.273,178.036 107.988,177.864 107.693,177.719 C 107.397,177.575 107.082,177.457 106.748,177.364 C 106.413,177.271 106.056,177.203 105.678,177.159 C 105.299,177.115 104.893,177.093 104.458,177.093 C 103.676,177.093 102.953,177.231 102.289,177.507 C 101.625,177.783 101.05,178.164 100.564,178.65 C 100.078,179.136 99.697,179.713 99.421,180.38 C 99.145,181.047 99.007,181.771 99.007,182.552 C 99.007,183.349 99.139,184.08 99.402,184.747 C 99.666,185.414 100.044,185.989 100.534,186.473 C 101.025,186.956 101.619,187.333 102.315,187.601 C 103.011,187.87 103.789,188.004 104.648,188.004 C 105.093,188.004 105.511,187.968 105.901,187.894 C 106.292,187.821 106.652,187.721 106.982,187.593 C 107.312,187.466 107.613,187.315 107.887,187.139 C 108.16,186.963 108.405,186.772 108.62,186.566 L 107.901,185.475 C 107.833,185.372 107.751,185.291 107.656,185.233 C 107.561,185.174 107.457,185.145 107.345,185.145 C 107.198,185.145 107.047,185.194 106.89,185.291 C 106.695,185.408 106.511,185.51 106.337,185.595 C 106.164,185.681 105.987,185.75 105.806,185.804 C 105.625,185.858 105.435,185.897 105.235,185.921 C 105.034,185.946 104.81,185.958 104.56,185.958 C 104.096,185.958 103.679,185.876 103.308,185.713 C 102.936,185.549 102.62,185.318 102.359,185.021 C 102.097,184.723 101.896,184.365 101.754,183.948 C 101.613,183.53 101.542,183.065 101.542,182.552 C 101.542,181.986 101.62,181.483 101.776,181.043 C 101.933,180.604 102.149,180.233 102.425,179.93 C 102.701,179.627 103.028,179.397 103.406,179.238 C 103.785,179.079 104.199,179 104.648,179 Z" marker-start="none" marker-end="none"/>
       <path d="M 112.765,177.211 L 110.274,177.211 L 110.274,187.89 L 112.765,187.89 L 112.765,177.211 Z" marker-start="none" marker-end="none"/>
       <path d="M 116.045,187.89 C 116.153,187.89 116.243,187.885 116.316,187.875 C 116.39,187.866 116.456,187.847 116.514,187.82 C 116.573,187.793 116.629,187.755 116.683,187.707 C 116.737,187.658 116.798,187.592 116.866,187.509 L 121.936,181.098 C 121.917,181.303 121.902,181.502 121.892,181.695 C 121.882,181.888 121.877,182.07 121.877,182.241 L 121.877,187.89 L 124.061,187.89 L 124.061,177.211 L 122.771,177.211 C 122.581,177.211 122.42,177.24 122.288,177.299 C 122.156,177.358 122.029,177.465 121.907,177.621 L 116.873,183.981 C 116.888,183.795 116.9,183.613 116.91,183.435 C 116.92,183.257 116.925,183.09 116.925,182.933 L 116.925,177.211 L 114.741,177.211 L 114.741,187.89 L 116.045,187.89 Z" marker-start="none" marker-end="none"/>
       <path d="M 130.843,179 C 131.185,179 131.488,179.028 131.752,179.086 C 132.016,179.144 132.265,179.221 132.499,179.317 L 132.499,180.939 L 131.444,180.939 C 131.288,180.939 131.166,180.98 131.078,181.063 C 130.99,181.146 130.946,181.252 130.946,181.379 L 130.946,182.742 L 134.741,182.742 L 134.741,178.236 C 134.468,178.036 134.183,177.864 133.888,177.719 C 133.592,177.575 133.277,177.457 132.943,177.364 C 132.608,177.271 132.251,177.203 131.873,177.159 C 131.494,177.115 131.088,177.093 130.653,177.093 C 129.871,177.093 129.148,177.231 128.484,177.507 C 127.82,177.783 127.245,178.164 126.759,178.65 C 126.273,179.136 125.892,179.713 125.616,180.38 C 125.34,181.047 125.202,181.771 125.202,182.552 C 125.202,183.349 125.334,184.08 125.597,184.747 C 125.861,185.414 126.239,185.989 126.729,186.473 C 127.22,186.956 127.814,187.333 128.51,187.601 C 129.206,187.87 129.984,188.004 130.843,188.004 C 131.288,188.004 131.706,187.968 132.096,187.894 C 132.487,187.821 132.847,187.721 133.177,187.593 C 133.507,187.466 133.808,187.315 134.082,187.139 C 134.355,186.963 134.6,186.772 134.815,186.566 L 134.096,185.475 C 134.028,185.372 133.946,185.291 133.851,185.233 C 133.756,185.174 133.652,185.145 133.54,185.145 C 133.393,185.145 133.242,185.194 133.085,185.291 C 132.89,185.408 132.706,185.51 132.532,185.595 C 132.359,185.681 132.182,185.75 132.001,185.804 C 131.82,185.858 131.63,185.897 131.43,185.921 C 131.229,185.946 131.005,185.958 130.755,185.958 C 130.291,185.958 129.874,185.876 129.503,185.713 C 129.131,185.549 128.815,185.318 128.554,185.021 C 128.292,184.723 128.091,184.365 127.949,183.948 C 127.808,183.53 127.737,183.065 127.737,182.552 C 127.737,181.986 127.815,181.483 127.971,181.043 C 128.128,180.604 128.344,180.233 128.62,179.93 C 128.896,179.627 129.223,179.397 129.601,179.238 C 129.98,179.079 130.394,179 130.843,179 Z" marker-start="none" marker-end="none"/>
       <path d="M 135.868,178.501 C 135.868,178.657 135.898,178.803 135.956,178.937 C 136.015,179.072 136.099,179.189 136.209,179.289 C 136.319,179.389 136.448,179.468 136.597,179.527 C 136.746,179.586 136.914,179.615 137.099,179.615 C 137.319,179.615 137.509,179.577 137.671,179.501 C 137.832,179.426 137.966,179.323 138.074,179.194 C 138.181,179.064 138.26,178.915 138.312,178.747 C 138.363,178.578 138.389,178.401 138.389,178.215 C 138.389,177.971 138.35,177.711 138.271,177.435 C 138.193,177.159 138.077,176.882 137.923,176.603 C 137.77,176.325 137.578,176.051 137.348,175.782 C 137.119,175.514 136.855,175.269 136.557,175.05 L 136.161,175.401 C 136.108,175.455 136.067,175.505 136.04,175.552 C 136.014,175.598 136,175.655 136,175.724 C 136,175.773 136.017,175.825 136.051,175.881 C 136.086,175.938 136.127,175.988 136.176,176.032 C 136.235,176.09 136.303,176.161 136.381,176.244 C 136.459,176.327 136.537,176.42 136.616,176.523 C 136.694,176.625 136.766,176.738 136.832,176.86 C 136.898,176.982 136.948,177.111 136.982,177.248 C 136.811,177.263 136.657,177.304 136.52,177.373 C 136.384,177.441 136.268,177.532 136.172,177.644 C 136.077,177.756 136.003,177.884 135.949,178.029 C 135.895,178.173 135.868,178.33 135.868,178.501 Z" marker-start="none" marker-end="none"/>
       <path d="M 145.242,177.211 L 142.751,177.211 L 142.751,187.89 L 145.242,187.89 L 145.242,177.211 Z" marker-start="none" marker-end="none"/>
       <path d="M 148.522,187.89 C 148.63,187.89 148.72,187.885 148.793,187.875 C 148.867,187.866 148.933,187.847 148.991,187.82 C 149.05,187.793 149.106,187.755 149.16,187.707 C 149.214,187.658 149.275,187.592 149.343,187.509 L 154.413,181.098 C 154.394,181.303 154.379,181.502 154.369,181.695 C 154.359,181.888 154.354,182.07 154.354,182.241 L 154.354,187.89 L 156.538,187.89 L 156.538,177.211 L 155.248,177.211 C 155.058,177.211 154.897,177.24 154.765,177.299 C 154.633,177.358 154.506,177.465 154.384,177.621 L 149.35,183.981 C 149.365,183.795 149.377,183.613 149.387,183.435 C 149.397,183.257 149.402,183.09 149.402,182.933 L 149.402,177.211 L 147.218,177.211 L 147.218,187.89 L 148.522,187.89 Z" marker-start="none" marker-end="none"/>
       <path d="M 165.467,179.971 C 165.526,179.971 165.584,179.96 165.643,179.938 C 165.702,179.915 165.758,179.877 165.811,179.822 L 166.793,178.767 C 166.363,178.214 165.825,177.796 165.178,177.515 C 164.531,177.234 163.765,177.093 162.881,177.093 C 162.07,177.093 161.343,177.231 160.701,177.507 C 160.059,177.783 159.514,178.164 159.067,178.65 C 158.62,179.136 158.277,179.713 158.038,180.38 C 157.798,181.047 157.679,181.771 157.679,182.552 C 157.679,183.349 157.816,184.08 158.089,184.747 C 158.363,185.414 158.745,185.989 159.236,186.473 C 159.727,186.956 160.314,187.333 160.998,187.601 C 161.682,187.87 162.436,188.004 163.262,188.004 C 163.662,188.004 164.04,187.969 164.394,187.898 C 164.748,187.827 165.079,187.729 165.387,187.604 C 165.694,187.48 165.978,187.331 166.236,187.157 C 166.495,186.983 166.725,186.791 166.925,186.581 L 166.09,185.46 C 166.036,185.391 165.973,185.329 165.899,185.273 C 165.826,185.217 165.724,185.189 165.592,185.189 C 165.504,185.189 165.421,185.208 165.343,185.247 C 165.264,185.286 165.181,185.334 165.093,185.39 C 165.006,185.446 164.909,185.507 164.804,185.573 C 164.699,185.639 164.574,185.7 164.43,185.757 C 164.286,185.813 164.118,185.86 163.925,185.9 C 163.732,185.938 163.506,185.958 163.247,185.958 C 162.798,185.958 162.387,185.879 162.016,185.72 C 161.645,185.561 161.326,185.334 161.06,185.038 C 160.794,184.743 160.586,184.385 160.437,183.965 C 160.288,183.545 160.214,183.073 160.214,182.551 C 160.214,182.003 160.288,181.517 160.437,181.092 C 160.586,180.667 160.789,180.31 161.045,180.019 C 161.302,179.728 161.601,179.507 161.943,179.356 C 162.285,179.204 162.651,179.129 163.042,179.129 C 163.267,179.129 163.472,179.14 163.657,179.162 C 163.843,179.184 164.015,179.221 164.174,179.275 C 164.333,179.329 164.484,179.398 164.628,179.484 C 164.772,179.569 164.918,179.676 165.064,179.803 C 165.123,179.852 165.186,179.892 165.255,179.924 C 165.323,179.955 165.394,179.971 165.467,179.971 Z" marker-start="none" marker-end="none"/>
       <path d="M 167.486,178.361 C 167.486,178.537 167.519,178.701 167.585,178.852 C 167.65,179.004 167.741,179.136 167.856,179.248 C 167.97,179.361 168.106,179.45 168.262,179.516 C 168.419,179.582 168.59,179.615 168.775,179.615 C 168.956,179.615 169.124,179.582 169.281,179.516 C 169.437,179.45 169.574,179.361 169.691,179.248 C 169.808,179.136 169.9,179.004 169.966,178.852 C 170.032,178.701 170.065,178.537 170.065,178.361 C 170.065,178.185 170.032,178.02 169.966,177.866 C 169.9,177.712 169.808,177.579 169.691,177.467 C 169.574,177.354 169.437,177.266 169.281,177.203 C 169.124,177.139 168.956,177.107 168.775,177.107 C 168.59,177.107 168.419,177.139 168.262,177.203 C 168.106,177.266 167.97,177.354 167.856,177.467 C 167.741,177.579 167.65,177.712 167.585,177.866 C 167.519,178.02 167.486,178.185 167.486,178.361 Z" marker-start="none" marker-end="none"/>
      </g>
     </g>
     <g id="Group_9" fill-rule="nonzero" stroke-linejoin="round" stroke-linecap="round" stroke="none" stroke-width="0.387" fill="#000000" stroke-miterlimit="79.8403193612775">
      <g id="Group_10">
       <path d="M 109.44,32.971 L 109.44,29.889 L 112.319,29.889 L 112.319,28.16 L 109.44,28.16 L 109.44,25.063 L 107.479,25.063 L 107.479,28.16 L 104.615,28.16 L 104.615,29.889 L 107.479,29.889 L 107.479,32.971 L 109.44,32.971 Z" marker-start="none" marker-end="none"/>
       <path d="M 114.95,25.538 L 117.129,25.538 L 117.129,31.258 C 117.129,31.539 117.137,31.832 117.152,32.138 L 115.868,31.071 C 115.785,31.004 115.702,30.956 115.619,30.927 C 115.536,30.899 115.456,30.885 115.378,30.885 C 115.243,30.885 115.123,30.914 115.016,30.974 C 114.91,31.034 114.831,31.097 114.779,31.165 L 114.016,32.177 L 117.549,35.142 L 119.542,35.142 L 119.542,25.538 L 121.409,25.538 L 121.409,23.794 L 114.95,23.794 L 114.95,25.538 Z" marker-start="none" marker-end="none"/>
      </g>
     </g>
     <g id="Group_11" fill-rule="nonzero" stroke-linejoin="round" stroke-linecap="round" stroke="none" stroke-width="0.387" fill="#000000" stroke-miterlimit="79.8403193612775">
      <g id="Group_12">
       <path d="M 120.789,91.031 L 120.789,87.949 L 123.668,87.949 L 123.668,86.22 L 120.789,86.22 L 120.789,83.123 L 118.828,83.123 L 118.828,86.22 L 115.964,86.22 L 115.964,87.949 L 118.828,87.949 L 118.828,91.031 L 120.789,91.031 Z" marker-start="none" marker-end="none"/>
       <path d="M 126.299,83.598 L 128.478,83.598 L 128.478,89.318 C 128.478,89.599 128.486,89.892 128.501,90.198 L 127.217,89.131 C 127.134,89.064 127.051,89.016 126.968,88.987 C 126.885,88.959 126.805,88.945 126.727,88.945 C 126.592,88.945 126.472,88.974 126.365,89.034 C 126.259,89.094 126.18,89.157 126.128,89.225 L 125.365,90.237 L 128.898,93.202 L 130.891,93.202 L 130.891,83.598 L 132.758,83.598 L 132.758,81.854 L 126.299,81.854 L 126.299,83.598 Z" marker-start="none" marker-end="none"/>
      </g>
     </g>
     <g id="Group_13" fill-rule="nonzero" stroke-linejoin="round" stroke-linecap="round" stroke="none" stroke-width="0.387" fill="#000000" stroke-miterlimit="79.8403193612775">
      <g id="Group_14">
       <path d="M 186.792,103.573 C 186.792,102.582 186.686,101.723 186.473,100.997 C 186.26,100.27 185.966,99.668 185.59,99.191 C 185.214,98.714 184.767,98.358 184.251,98.125 C 183.735,97.891 183.176,97.775 182.574,97.775 C 181.972,97.775 181.416,97.891 180.905,98.125 C 180.394,98.358 179.952,98.714 179.578,99.191 C 179.204,99.668 178.913,100.27 178.702,100.997 C 178.492,101.723 178.387,102.582 178.387,103.573 C 178.387,104.564 178.492,105.423 178.702,106.15 C 178.913,106.876 179.204,107.478 179.578,107.955 C 179.952,108.433 180.394,108.787 180.905,109.018 C 181.416,109.249 181.972,109.364 182.574,109.364 C 183.176,109.364 183.735,109.249 184.251,109.018 C 184.767,108.787 185.214,108.433 185.59,107.955 C 185.966,107.478 186.26,106.876 186.473,106.15 C 186.686,105.423 186.792,104.564 186.792,103.573 Z M 184.302,103.573 C 184.302,104.357 184.252,104.999 184.154,105.5 C 184.055,106.001 183.924,106.394 183.761,106.679 C 183.597,106.964 183.412,107.16 183.204,107.267 C 182.997,107.373 182.787,107.426 182.574,107.426 C 182.361,107.426 182.153,107.373 181.948,107.267 C 181.743,107.16 181.561,106.964 181.403,106.679 C 181.245,106.394 181.118,106.001 181.022,105.5 C 180.926,104.999 180.878,104.357 180.878,103.573 C 180.878,102.785 180.926,102.141 181.022,101.643 C 181.118,101.145 181.245,100.752 181.403,100.464 C 181.561,100.176 181.743,99.978 181.948,99.872 C 182.153,99.766 182.361,99.713 182.574,99.713 C 182.787,99.713 182.997,99.766 183.204,99.872 C 183.412,99.978 183.597,100.176 183.761,100.464 C 183.924,100.752 184.055,101.145 184.154,101.643 C 184.252,102.141 184.302,102.785 184.302,103.573 Z" marker-start="none" marker-end="none"/>
      </g>
     </g>
    </g>
   </g>
  </g>
 </g>
</svg>
