<?xml version="1.0" standalone="no"?>
<!DOCTYPE svg PUBLIC "-//W3C//DTD SVG 1.1//EN" "http://www.w3.org/Graphics/SVG/1.1/DTD/svg11.dtd">
<!--Generator: Xara Designer (www.xara.com), SVG filter version: 6.2.0.0-->
<svg stroke-width="0.501" stroke-linejoin="bevel" fill-rule="evenodd" xmlns:xlink="http://www.w3.org/1999/xlink" xmlns="http://www.w3.org/2000/svg" version="1.1" overflow="visible" width="215.434pt" height="215.434pt" viewBox="0 0 215.434 215.434">
 <defs>
	</defs>
 <g id="Document" fill="none" stroke="black" font-family="Times New Roman" font-size="16" transform="scale(1 -1)">
  <g id="Spread" transform="translate(0 -215.434)">
   <g id="Layer 1">
    <g id="Group">
     <g id="Group_1" stroke-linejoin="miter" stroke="#999999" fill="#ffffff">
      <path d="M 199.757,214.933 L 15.176,214.933 C 6.799,214.933 0,208.134 0,199.757 L 0,15.176 C 0,6.799 6.799,0 15.176,0 L 199.757,0 C 208.134,0 214.933,6.799 214.933,15.176 L 214.933,199.757 C 214.933,208.134 208.134,214.933 199.757,214.933 Z" marker-start="none" marker-end="none"/>
     </g>
     <g id="Group_2" stroke-linejoin="miter" stroke-linecap="round" stroke="#95afc0">
      <path d="M 15.005,146.115 L 15.005,180.007 L 118.593,180.007 L 118.593,146.115 L 15.005,146.115 Z" fill="#95afc0" stroke-width="1.738" marker-start="none" marker-end="none" stroke-miterlimit="79.8403193612775"/>
      <path d="M 15.005,144.772 L 15.005,154.582 C 15.005,157.153 17.089,159.23 19.651,159.23 L 113.943,159.23 C 116.505,159.23 118.593,157.153 118.593,154.582 L 118.593,144.772 C 118.593,142.196 116.505,140.118 113.943,140.118 L 19.651,140.118 C 17.089,140.118 15.005,142.196 15.005,144.772 Z" fill="#95afc0" stroke-width="1.738" marker-start="none" marker-end="none" stroke-miterlimit="79.8403193612775"/>
      <path d="M 15.702,173.665 L 15.702,191.31 C 15.702,195.923 19.446,199.669 24.064,199.669 L 191.11,199.669 C 195.723,199.669 199.471,195.923 199.471,191.31 L 199.471,173.665 C 199.471,169.047 195.723,165.299 191.11,165.299 L 24.064,165.299 C 19.446,165.299 15.702,169.047 15.702,173.665 Z" fill="#ffffff" stroke-width="3.13" marker-start="none" marker-end="none" stroke-miterlimit="79.8403193612775"/>
     </g>
     <g id="Group_3" fill="#ff3718" stroke-linecap="round" stroke="none">
      <path d="M 100.464,0.438 L 91.93,0.438 L 91.93,49.601 L 100.464,49.601 L 100.464,0.438 Z" stroke-width="0.103" stroke-linejoin="miter" marker-start="none" marker-end="none" stroke-miterlimit="79.8403193612775"/>
      <path d="M 120.696,100.043 C 107.257,87.775 100.428,70.962 100.425,54.089 L 91.946,54.089 C 91.951,73.261 99.701,92.374 114.97,106.308 C 128.531,118.682 145.608,124.783 162.631,124.778 L 162.631,116.292 C 147.649,116.299 132.622,110.93 120.696,100.043 Z" stroke-width="0.541" stroke-linejoin="round" marker-start="none" marker-end="none" stroke-miterlimit="79.8403193612775"/>
      <path d="M 200.584,120.551 L 197.539,118.433 L 194.486,116.311 L 194.486,116.258 L 167.209,116.258 L 167.209,124.794 L 194.486,124.794 L 197.539,122.674 L 200.584,120.551 Z" stroke-width="0.103" stroke-linejoin="miter" marker-start="none" marker-end="none" stroke-miterlimit="79.8403193612775"/>
     </g>
     <g id="Group_4" stroke-linecap="round" stroke="none" fill="#e5e5e5">
      <path d="M 200.588,109.001 L 197.542,106.881 L 194.486,104.76 L 194.486,109.001 L 194.49,113.242 L 197.542,111.119 L 200.588,109.001 Z M 194.486,104.737 L 167.209,104.737 L 167.209,113.271 L 194.486,113.271 L 194.486,104.737 Z" stroke-width="0.103" stroke-linejoin="miter" marker-start="none" marker-end="none" stroke-miterlimit="79.8403193612775"/>
      <path d="M 128.318,91.689 C 117.327,81.649 111.74,67.894 111.735,54.089 L 103.254,54.089 C 103.258,70.196 109.773,86.246 122.601,97.955 C 133.988,108.349 148.331,113.469 162.631,113.466 L 162.631,104.98 C 150.374,104.99 138.082,100.595 128.318,91.689 Z" stroke-width="0.453" stroke-linejoin="round" marker-start="none" marker-end="none" stroke-miterlimit="79.8403193612775"/>
      <path d="M 111.767,0.438 L 103.235,0.438 L 103.235,49.601 L 111.767,49.601 L 111.767,0.438 Z" stroke-width="0.103" stroke-linejoin="miter" marker-start="none" marker-end="none" stroke-miterlimit="79.8403193612775"/>
     </g>
     <g id="Group_5" stroke-linecap="round" stroke="none" fill="#e5e5e5">
      <path d="M 200.588,97.685 L 197.542,95.569 L 194.486,93.448 L 194.486,97.689 L 194.49,101.932 L 197.542,99.812 L 200.588,97.685 Z M 194.486,93.439 L 167.209,93.439 L 167.209,101.974 L 194.486,101.974 L 194.486,93.439 Z" stroke-width="0.103" stroke-linejoin="miter" marker-start="none" marker-end="none" stroke-miterlimit="79.8403193612775"/>
      <path d="M 123.065,0.438 L 114.534,0.438 L 114.534,49.601 L 123.065,49.601 L 123.065,0.438 Z" stroke-width="0.103" stroke-linejoin="miter" marker-start="none" marker-end="none" stroke-miterlimit="79.8403193612775"/>
      <path d="M 135.945,83.334 C 127.393,75.527 123.053,64.822 123.047,54.089 L 114.563,54.089 C 114.566,67.131 119.839,80.121 130.228,89.6 C 139.443,98.011 151.059,102.159 162.631,102.157 L 162.631,93.675 C 153.099,93.675 143.534,90.261 135.945,83.334 Z" stroke-width="0.368" stroke-linejoin="round" marker-start="none" marker-end="none" stroke-miterlimit="79.8403193612775"/>
     </g>
     <g id="Group_6" stroke-linecap="round" stroke="none" fill="#11a7e0">
      <path d="M 134.361,0.438 L 125.827,0.438 L 125.827,49.601 L 134.361,49.601 L 134.361,0.438 Z" stroke-width="0.103" stroke-linejoin="miter" marker-start="none" marker-end="none" stroke-miterlimit="79.8403193612775"/>
      <path d="M 143.566,74.979 C 137.459,69.401 134.359,61.763 134.356,54.089 L 125.869,54.089 C 125.878,64.059 129.911,73.998 137.849,81.241 C 144.898,87.68 153.775,90.851 162.631,90.847 L 162.631,82.359 C 155.824,82.366 148.992,79.924 143.566,74.979 Z" stroke-width="0.281" stroke-linejoin="round" marker-start="none" marker-end="none" stroke-miterlimit="79.8403193612775"/>
      <path d="M 200.584,86.632 L 197.539,84.5 L 194.486,82.359 L 194.486,82.359 L 167.209,82.359 L 167.209,90.898 L 194.486,90.898 L 194.486,90.898 L 197.542,88.768 L 200.584,86.632 Z" stroke-width="0.103" stroke-linejoin="miter" marker-start="none" marker-end="none" stroke-miterlimit="79.8403193612775"/>
     </g>
     <g id="Group_7" stroke-linejoin="miter" stroke-miterlimit="79.8403193612775">
      <path d="M 59.5,89.157 C 53.6,96.135 54.479,106.595 61.474,112.504 C 68.456,118.396 78.909,117.517 84.813,110.53 C 90.722,103.538 89.836,93.084 82.839,87.179 C 75.857,81.284 65.4,82.163 59.5,89.157 Z" stroke="none" fill="#000000" stroke-width="0.686" marker-start="none" marker-end="none" stroke-miterlimit="19.9600798403194"/>
      <path d="M 60.278,89.766 C 54.387,96.764 55.259,107.223 62.252,113.116 C 69.241,119.025 79.693,118.142 85.609,111.149 C 91.506,104.167 90.621,93.715 83.627,87.81 C 76.648,81.904 66.184,82.783 60.278,89.766 Z" stroke="#b2b2b2" stroke-width="3.752" marker-start="none" marker-end="none" stroke-miterlimit="19.9600798403194"/>
     </g>
     <g id="Group_8" stroke-linejoin="miter" stroke-miterlimit="79.8403193612775">
      <path d="M 18.815,89.144 C 12.915,96.133 13.794,106.601 20.791,112.492 C 27.774,118.403 38.228,117.52 44.13,110.532 C 50.041,103.543 49.155,93.083 42.157,87.179 C 35.174,81.28 24.715,82.163 18.815,89.144 Z" stroke="none" fill="#ffffff" stroke-width="0.689" marker-start="none" marker-end="none" stroke-miterlimit="19.9600798403194"/>
      <path d="M 19.595,89.779 C 13.702,96.771 14.575,107.217 21.567,113.13 C 28.558,119.014 39.013,118.142 44.926,111.154 C 50.824,104.167 49.94,93.701 42.946,87.801 C 35.965,81.902 25.5,82.78 19.595,89.779 Z" stroke="#55bae6" stroke-width="3.752" marker-start="none" marker-end="none" stroke-miterlimit="19.9600798403194"/>
     </g>
     <g id="Group_9" stroke-linejoin="miter" stroke-miterlimit="79.8403193612775">
      <path d="M 21.355,24.9 C 12.458,35.44 13.783,51.226 24.335,60.11 C 34.866,69.024 50.631,67.692 59.532,57.154 C 68.446,46.614 67.11,30.84 56.556,21.937 C 46.025,13.041 30.253,14.372 21.355,24.9 Z" stroke="none" fill="#ffffff" stroke-width="1.039" marker-start="none" marker-end="none" stroke-miterlimit="19.9600798403194"/>
      <path d="M 22.532,25.857 C 13.645,36.402 14.961,52.155 25.505,61.072 C 36.048,69.945 51.815,68.63 60.732,58.092 C 69.626,47.555 68.293,31.772 57.746,22.875 C 47.218,13.979 31.437,15.303 22.532,25.857 Z" stroke="#55bae6" stroke-width="5.658" marker-start="none" marker-end="none" stroke-miterlimit="19.9600798403194"/>
     </g>
     <g id="Group_10" stroke-linejoin="miter" stroke-miterlimit="79.8403193612775">
      <path d="M 152.945,24.496 C 144.048,35.036 145.373,50.822 155.925,59.706 C 166.456,68.62 182.221,67.288 191.122,56.75 C 200.036,46.21 198.7,30.436 188.146,21.533 C 177.615,12.637 161.843,13.968 152.945,24.496 Z" stroke="none" fill="#000000" stroke-width="1.039" marker-start="none" marker-end="none" stroke-miterlimit="19.9600798403194"/>
      <path d="M 154.122,25.453 C 145.235,35.998 146.551,51.751 157.095,60.668 C 167.638,69.541 183.405,68.226 192.322,57.688 C 201.216,47.151 199.883,31.368 189.336,22.471 C 178.808,13.575 163.027,14.899 154.122,25.453 Z" stroke="#b2b2b2" stroke-width="5.658" marker-start="none" marker-end="none" stroke-miterlimit="19.9600798403194"/>
     </g>
     <g id="Group_11" stroke-linejoin="miter" stroke-miterlimit="79.8403193612775">
      <path d="M 102.705,20.796 C 98.18,26.152 98.856,34.168 104.214,38.692 C 109.57,43.215 117.591,42.543 122.11,37.185 C 126.635,31.829 125.96,23.81 120.601,19.29 C 115.247,14.762 107.227,15.445 102.705,20.796 Z" stroke="none" fill="#ffffff" stroke-width="0.526" marker-start="none" marker-end="none" stroke-miterlimit="19.9600798403194"/>
      <path d="M 103.308,21.278 C 98.784,26.627 99.46,34.649 104.816,39.17 C 110.175,43.698 118.191,43.02 122.715,37.661 C 127.243,32.31 126.566,24.287 121.206,19.763 C 115.846,15.242 107.831,15.916 103.308,21.278 Z" fill="none" stroke="#55bae6" stroke-width="2.872" marker-start="none" marker-end="none" stroke-miterlimit="19.9600798403194"/>
     </g>
     <g id="Group_12" stroke-linejoin="miter" stroke-miterlimit="79.8403193612775">
      <path d="M 114.656,78.11 C 110.135,83.461 110.81,91.48 116.167,96.008 C 121.524,100.524 129.543,99.851 134.067,94.493 C 138.59,89.139 137.91,81.122 132.556,76.599 C 127.2,72.075 119.181,72.751 114.656,78.11 Z" stroke="none" fill="#ffffff" stroke-width="0.526" marker-start="none" marker-end="none" stroke-miterlimit="19.9600798403194"/>
      <path d="M 115.265,78.588 C 110.737,83.942 111.411,91.958 116.771,96.482 C 122.129,101.007 130.144,100.333 134.669,94.971 C 139.197,89.615 138.512,81.598 133.161,77.072 C 127.801,72.547 119.786,73.228 115.265,78.588 Z" fill="none" stroke="#55bae6" stroke-width="2.872" marker-start="none" marker-end="none" stroke-miterlimit="19.9600798403194"/>
     </g>
     <g id="Group_13" stroke-linejoin="miter" stroke-miterlimit="79.8403193612775">
      <path d="M 172.277,94.895 C 167.753,100.251 168.432,108.268 173.787,112.796 C 179.148,117.317 187.167,116.639 191.69,111.281 C 196.218,105.929 195.536,97.906 190.179,93.387 C 184.819,88.868 176.803,89.542 172.277,94.895 Z" stroke="none" fill="#ffffff" stroke-width="0.526" marker-start="none" marker-end="none" stroke-miterlimit="19.9600798403194"/>
      <path d="M 172.884,95.379 C 168.36,100.73 169.037,108.749 174.395,113.274 C 179.755,117.795 187.77,117.121 192.293,111.761 C 196.819,106.408 196.142,98.388 190.786,93.867 C 185.424,89.342 177.407,90.018 172.884,95.379 Z" fill="none" stroke="#55bae6" stroke-width="2.872" marker-start="none" marker-end="none" stroke-miterlimit="19.9600798403194"/>
     </g>
     <g id="Group_14" fill-rule="nonzero" stroke-linejoin="round" stroke-linecap="round" stroke="none" stroke-width="0.485" fill="#b2b2b2" stroke-miterlimit="79.8403193612775">
      <g id="Group_15">
       <path d="M 69.484,95.542 L 72.213,95.542 L 72.213,102.705 C 72.213,103.056 72.222,103.423 72.242,103.807 L 70.634,102.471 C 70.53,102.387 70.426,102.327 70.322,102.291 C 70.218,102.255 70.117,102.237 70.02,102.237 C 69.851,102.237 69.7,102.275 69.567,102.35 C 69.433,102.424 69.334,102.504 69.269,102.588 L 68.314,103.855 L 72.739,107.569 L 75.234,107.569 L 75.234,95.542 L 77.573,95.542 L 77.573,93.358 L 69.484,93.358 L 69.484,95.542 Z" marker-start="none" marker-end="none"/>
      </g>
     </g>
     <g id="Group_16" fill-rule="nonzero" stroke-linejoin="round" stroke-linecap="round" stroke="none" stroke-width="0.485" fill="#000000" stroke-miterlimit="79.8403193612775">
      <g id="Group_17">
       <path d="M 36.013,98.877 L 37.474,98.877 L 37.474,97.182 C 37.474,97.032 37.424,96.903 37.323,96.792 C 37.223,96.682 37.078,96.626 36.89,96.626 L 36.013,96.626 L 36.013,93.362 L 33.381,93.362 L 33.381,96.626 L 27.67,96.626 C 27.482,96.626 27.311,96.685 27.159,96.802 C 27.006,96.919 26.91,97.065 26.871,97.24 L 26.559,98.732 L 33.128,107.564 L 36.013,107.564 L 36.013,98.877 Z M 33.381,102.581 C 33.381,102.809 33.389,103.054 33.406,103.317 C 33.422,103.58 33.446,103.851 33.479,104.131 L 29.727,98.877 L 33.381,98.877 L 33.381,102.581 Z" marker-start="none" marker-end="none"/>
      </g>
     </g>
     <g id="Group_18" fill-rule="nonzero" stroke-linejoin="round" stroke-linecap="round" stroke="none" stroke-width="0.319" fill="#ffffff" stroke-miterlimit="79.8403193612775">
      <g id="Group_19">
       <path d="M 27.495,151.776 L 27.495,148.663 L 25.334,148.663 L 25.334,157.978 L 28.62,157.978 C 29.276,157.978 29.84,157.9 30.311,157.745 C 30.781,157.589 31.169,157.375 31.474,157.102 C 31.779,156.829 32.003,156.507 32.148,156.137 C 32.293,155.766 32.366,155.365 32.366,154.935 C 32.366,154.47 32.291,154.044 32.142,153.656 C 31.993,153.268 31.765,152.935 31.458,152.658 C 31.151,152.381 30.762,152.165 30.291,152.009 C 29.82,151.854 29.263,151.776 28.62,151.776 L 27.495,151.776 Z M 27.495,153.405 L 28.62,153.405 C 29.182,153.405 29.587,153.54 29.834,153.808 C 30.082,154.077 30.205,154.453 30.205,154.934 C 30.205,155.148 30.173,155.342 30.109,155.517 C 30.045,155.692 29.948,155.842 29.818,155.968 C 29.688,156.093 29.524,156.191 29.326,156.259 C 29.128,156.327 28.893,156.361 28.62,156.361 L 27.495,156.361 L 27.495,153.405 Z" marker-start="none" marker-end="none"/>
       <path d="M 35.654,152.107 L 35.654,148.661 L 33.493,148.661 L 33.493,157.975 L 36.523,157.975 C 37.196,157.975 37.771,157.906 38.246,157.767 C 38.721,157.628 39.109,157.435 39.409,157.188 C 39.71,156.94 39.928,156.648 40.064,156.311 C 40.201,155.974 40.269,155.607 40.269,155.21 C 40.269,154.907 40.229,154.621 40.148,154.352 C 40.067,154.084 39.946,153.835 39.786,153.607 C 39.627,153.378 39.431,153.175 39.198,152.995 C 38.966,152.816 38.699,152.669 38.396,152.554 C 38.541,152.482 38.676,152.392 38.802,152.286 C 38.928,152.179 39.037,152.05 39.131,151.896 L 41.113,148.661 L 39.157,148.661 C 38.795,148.661 38.535,148.797 38.377,149.07 L 36.83,151.774 C 36.762,151.894 36.682,151.979 36.59,152.03 C 36.499,152.081 36.37,152.107 36.203,152.107 L 35.654,152.107 Z M 35.654,153.596 L 36.523,153.596 C 36.817,153.596 37.068,153.633 37.274,153.708 C 37.481,153.782 37.65,153.886 37.782,154.018 C 37.914,154.15 38.01,154.304 38.07,154.481 C 38.13,154.658 38.16,154.849 38.16,155.054 C 38.16,155.463 38.026,155.783 37.76,156.013 C 37.494,156.243 37.081,156.358 36.523,156.358 L 35.654,156.358 L 35.654,153.596 Z" marker-start="none" marker-end="none"/>
       <path d="M 50.869,153.321 C 50.869,152.648 50.753,152.021 50.521,151.442 C 50.289,150.862 49.962,150.358 49.54,149.929 C 49.118,149.501 48.61,149.165 48.015,148.922 C 47.421,148.679 46.761,148.558 46.037,148.558 C 45.312,148.558 44.652,148.679 44.055,148.922 C 43.458,149.165 42.948,149.501 42.524,149.929 C 42.1,150.358 41.772,150.862 41.54,151.442 C 41.307,152.021 41.191,152.648 41.191,153.321 C 41.191,153.995 41.307,154.621 41.54,155.201 C 41.772,155.781 42.1,156.283 42.524,156.71 C 42.948,157.136 43.458,157.471 44.055,157.714 C 44.652,157.956 45.312,158.078 46.037,158.078 C 46.761,158.078 47.421,157.955 48.015,157.71 C 48.61,157.465 49.118,157.13 49.54,156.703 C 49.962,156.277 50.289,155.774 50.521,155.194 C 50.753,154.615 50.869,153.99 50.869,153.321 Z M 48.658,153.321 C 48.658,153.781 48.598,154.195 48.479,154.564 C 48.359,154.932 48.188,155.245 47.964,155.5 C 47.74,155.756 47.466,155.952 47.143,156.088 C 46.819,156.224 46.45,156.292 46.037,156.293 C 45.619,156.292 45.247,156.224 44.921,156.088 C 44.595,155.952 44.32,155.756 44.097,155.5 C 43.873,155.245 43.701,154.932 43.582,154.564 C 43.463,154.195 43.403,153.781 43.403,153.321 C 43.403,152.857 43.463,152.44 43.582,152.072 C 43.701,151.703 43.873,151.391 44.097,151.136 C 44.32,150.88 44.595,150.685 44.921,150.551 C 45.247,150.417 45.619,150.35 46.037,150.35 C 46.45,150.35 46.819,150.417 47.143,150.551 C 47.466,150.685 47.74,150.88 47.964,151.136 C 48.188,151.391 48.359,151.703 48.479,152.072 C 48.598,152.44 48.658,152.857 48.658,153.321 Z" marker-start="none" marker-end="none"/>
       <path d="M 60.354,153.323 C 60.354,152.649 60.238,152.028 60.005,151.459 C 59.773,150.89 59.446,150.397 59.024,149.982 C 58.602,149.566 58.094,149.242 57.5,149.01 C 56.905,148.777 56.246,148.661 55.521,148.661 L 51.903,148.661 L 51.903,157.978 L 55.521,157.978 C 56.246,157.978 56.905,157.861 57.5,157.626 C 58.094,157.392 58.602,157.068 59.024,156.654 C 59.446,156.241 59.773,155.749 60.005,155.18 C 60.238,154.611 60.354,153.992 60.354,153.323 Z M 58.142,153.323 C 58.142,153.783 58.082,154.198 57.963,154.569 C 57.844,154.94 57.672,155.254 57.448,155.512 C 57.225,155.77 56.951,155.968 56.627,156.107 C 56.303,156.245 55.935,156.314 55.521,156.314 L 54.077,156.314 L 54.077,150.325 L 55.521,150.325 C 55.935,150.325 56.303,150.394 56.627,150.532 C 56.951,150.671 57.225,150.869 57.448,151.127 C 57.672,151.385 57.844,151.699 57.963,152.07 C 58.082,152.441 58.142,152.858 58.142,153.323 Z" marker-start="none" marker-end="none"/>
       <path d="M 65.266,150.368 C 65.556,150.368 65.815,150.416 66.043,150.512 C 66.271,150.608 66.463,150.745 66.621,150.925 C 66.779,151.104 66.899,151.322 66.982,151.58 C 67.065,151.838 67.107,152.131 67.107,152.459 L 67.107,157.976 L 69.268,157.976 L 69.268,152.458 C 69.268,151.887 69.175,151.363 68.989,150.885 C 68.804,150.408 68.539,149.997 68.194,149.651 C 67.848,149.306 67.429,149.038 66.934,148.846 C 66.44,148.654 65.884,148.558 65.266,148.558 C 64.644,148.558 64.085,148.654 63.591,148.846 C 63.097,149.038 62.677,149.306 62.332,149.651 C 61.987,149.997 61.722,150.408 61.539,150.885 C 61.356,151.363 61.264,151.887 61.264,152.458 L 61.264,157.976 L 63.425,157.976 L 63.425,152.465 C 63.425,152.137 63.466,151.844 63.55,151.586 C 63.633,151.328 63.753,151.109 63.911,150.928 C 64.068,150.747 64.261,150.608 64.489,150.512 C 64.717,150.416 64.976,150.368 65.266,150.368 Z" marker-start="none" marker-end="none"/>
       <path d="M 76.933,151.069 C 76.984,151.069 77.036,151.06 77.087,151.04 C 77.138,151.02 77.187,150.987 77.234,150.939 L 78.09,150.018 C 77.715,149.536 77.245,149.172 76.681,148.926 C 76.116,148.681 75.448,148.558 74.677,148.558 C 73.969,148.558 73.335,148.678 72.775,148.919 C 72.215,149.16 71.739,149.493 71.349,149.917 C 70.96,150.341 70.66,150.844 70.451,151.426 C 70.243,152.007 70.138,152.639 70.138,153.321 C 70.138,154.016 70.257,154.654 70.496,155.236 C 70.735,155.818 71.068,156.32 71.497,156.742 C 71.925,157.164 72.437,157.492 73.034,157.726 C 73.631,157.961 74.289,158.078 75.009,158.078 C 75.359,158.078 75.688,158.047 75.997,157.985 C 76.306,157.923 76.594,157.838 76.863,157.729 C 77.131,157.62 77.379,157.49 77.604,157.338 C 77.83,157.187 78.031,157.019 78.205,156.836 L 77.477,155.858 C 77.43,155.798 77.374,155.744 77.31,155.695 C 77.246,155.646 77.157,155.621 77.042,155.621 C 76.965,155.621 76.893,155.638 76.825,155.672 C 76.756,155.706 76.684,155.748 76.607,155.797 C 76.531,155.846 76.446,155.899 76.355,155.957 C 76.263,156.014 76.154,156.068 76.029,156.117 C 75.903,156.166 75.756,156.207 75.588,156.241 C 75.419,156.275 75.222,156.292 74.996,156.293 C 74.604,156.292 74.246,156.223 73.922,156.085 C 73.599,155.946 73.32,155.748 73.088,155.49 C 72.856,155.232 72.675,154.92 72.545,154.554 C 72.415,154.187 72.35,153.776 72.35,153.32 C 72.35,152.842 72.415,152.418 72.545,152.047 C 72.675,151.677 72.852,151.364 73.075,151.111 C 73.299,150.857 73.56,150.664 73.859,150.532 C 74.157,150.4 74.476,150.334 74.817,150.334 C 75.013,150.334 75.192,150.344 75.354,150.363 C 75.516,150.382 75.666,150.415 75.805,150.462 C 75.943,150.509 76.076,150.569 76.201,150.644 C 76.327,150.719 76.454,150.811 76.582,150.922 C 76.633,150.965 76.688,151 76.748,151.028 C 76.808,151.055 76.869,151.069 76.933,151.069 Z" marker-start="none" marker-end="none"/>
       <path d="M 85.841,157.978 L 85.841,156.264 L 83.22,156.264 L 83.22,148.663 L 81.06,148.663 L 81.06,156.264 L 78.439,156.264 L 78.439,157.978 L 85.841,157.978 Z" marker-start="none" marker-end="none"/>
       <path d="M 89.103,148.661 L 86.93,148.661 L 86.93,157.978 L 89.103,157.978 L 89.103,148.661 Z" marker-start="none" marker-end="none"/>
       <path d="M 100.019,153.321 C 100.019,152.648 99.903,152.021 99.671,151.442 C 99.439,150.862 99.112,150.358 98.69,149.929 C 98.268,149.501 97.76,149.165 97.165,148.922 C 96.571,148.679 95.911,148.558 95.187,148.558 C 94.462,148.558 93.802,148.679 93.205,148.922 C 92.608,149.165 92.098,149.501 91.674,149.929 C 91.25,150.358 90.922,150.862 90.69,151.442 C 90.457,152.021 90.341,152.648 90.341,153.321 C 90.341,153.995 90.457,154.621 90.69,155.201 C 90.922,155.781 91.25,156.283 91.674,156.71 C 92.098,157.136 92.608,157.471 93.205,157.714 C 93.802,157.956 94.462,158.078 95.187,158.078 C 95.911,158.078 96.571,157.955 97.165,157.71 C 97.76,157.465 98.268,157.13 98.69,156.703 C 99.112,156.277 99.439,155.774 99.671,155.194 C 99.903,154.615 100.019,153.99 100.019,153.321 Z M 97.808,153.321 C 97.808,153.781 97.748,154.195 97.629,154.564 C 97.509,154.932 97.338,155.245 97.114,155.5 C 96.89,155.756 96.616,155.952 96.293,156.088 C 95.969,156.224 95.6,156.292 95.187,156.293 C 94.769,156.292 94.397,156.224 94.071,156.088 C 93.745,155.952 93.47,155.756 93.247,155.5 C 93.023,155.245 92.851,154.932 92.732,154.564 C 92.613,154.195 92.553,153.781 92.553,153.321 C 92.553,152.857 92.613,152.44 92.732,152.072 C 92.851,151.703 93.023,151.391 93.247,151.136 C 93.47,150.88 93.745,150.685 94.071,150.551 C 94.397,150.417 94.769,150.35 95.187,150.35 C 95.6,150.35 95.969,150.417 96.293,150.551 C 96.616,150.685 96.89,150.88 97.114,151.136 C 97.338,151.391 97.509,151.703 97.629,152.072 C 97.748,152.44 97.808,152.857 97.808,153.321 Z" marker-start="none" marker-end="none"/>
       <path d="M 102.191,157.978 C 102.285,157.978 102.364,157.974 102.427,157.965 C 102.491,157.957 102.549,157.941 102.6,157.917 C 102.651,157.894 102.7,157.861 102.747,157.818 C 102.794,157.775 102.847,157.718 102.907,157.646 L 107.33,152.052 C 107.313,152.231 107.301,152.405 107.292,152.573 C 107.284,152.741 107.279,152.9 107.279,153.05 L 107.279,157.978 L 109.184,157.978 L 109.184,148.661 L 108.059,148.661 C 107.893,148.661 107.752,148.687 107.637,148.738 C 107.522,148.789 107.411,148.883 107.305,149.019 L 102.913,154.568 C 102.926,154.406 102.937,154.247 102.945,154.091 C 102.954,153.936 102.958,153.79 102.958,153.653 L 102.958,148.661 L 101.053,148.661 L 101.053,157.978 L 102.191,157.978 Z" marker-start="none" marker-end="none"/>
      </g>
     </g>
     <g id="Group_20" fill-rule="nonzero" stroke-linejoin="round" stroke-linecap="round" stroke="none" stroke-width="0.365" fill="#000000" stroke-miterlimit="79.8403193612775">
      <g id="Group_21">
       <path d="M 56.386,185.666 C 56.312,185.548 56.235,185.46 56.155,185.402 C 56.074,185.343 55.97,185.314 55.843,185.314 C 55.731,185.314 55.61,185.349 55.481,185.42 C 55.351,185.491 55.205,185.57 55.041,185.658 C 54.877,185.746 54.691,185.826 54.481,185.896 C 54.271,185.967 54.031,186.003 53.763,186.003 C 53.299,186.003 52.953,185.904 52.726,185.706 C 52.499,185.508 52.385,185.241 52.385,184.904 C 52.385,184.688 52.454,184.51 52.59,184.369 C 52.727,184.227 52.907,184.105 53.129,184.002 C 53.351,183.9 53.605,183.806 53.891,183.72 C 54.177,183.635 54.468,183.539 54.766,183.434 C 55.064,183.329 55.356,183.206 55.642,183.064 C 55.928,182.923 56.182,182.742 56.404,182.522 C 56.626,182.302 56.806,182.035 56.942,181.72 C 57.079,181.405 57.148,181.025 57.148,180.58 C 57.148,180.087 57.062,179.625 56.891,179.195 C 56.72,178.765 56.472,178.391 56.147,178.071 C 55.823,177.751 55.422,177.499 54.946,177.316 C 54.47,177.133 53.929,177.041 53.323,177.041 C 52.991,177.041 52.653,177.075 52.308,177.144 C 51.964,177.212 51.63,177.308 51.308,177.433 C 50.986,177.558 50.683,177.705 50.4,177.876 C 50.116,178.047 49.87,178.238 49.66,178.448 L 50.392,179.606 C 50.446,179.694 50.522,179.765 50.619,179.818 C 50.717,179.872 50.822,179.899 50.934,179.899 C 51.081,179.899 51.229,179.853 51.378,179.76 C 51.527,179.667 51.695,179.564 51.883,179.452 C 52.071,179.34 52.287,179.237 52.532,179.144 C 52.776,179.051 53.064,179.005 53.396,179.005 C 53.846,179.005 54.195,179.104 54.444,179.302 C 54.693,179.499 54.818,179.814 54.818,180.243 C 54.818,180.493 54.749,180.695 54.612,180.852 C 54.476,181.008 54.296,181.137 54.074,181.24 C 53.852,181.343 53.599,181.433 53.316,181.511 C 53.032,181.589 52.742,181.676 52.444,181.771 C 52.146,181.866 51.855,181.984 51.572,182.123 C 51.289,182.262 51.036,182.445 50.814,182.673 C 50.591,182.9 50.412,183.183 50.275,183.523 C 50.138,183.862 50.07,184.281 50.07,184.779 C 50.07,185.18 50.15,185.571 50.312,185.952 C 50.473,186.333 50.71,186.672 51.022,186.97 C 51.335,187.268 51.718,187.507 52.173,187.685 C 52.627,187.863 53.147,187.952 53.733,187.952 C 54.061,187.952 54.379,187.927 54.689,187.875 C 55,187.824 55.294,187.748 55.572,187.648 C 55.851,187.548 56.111,187.428 56.353,187.289 C 56.594,187.15 56.811,186.992 57.001,186.816 L 56.386,185.666 Z" marker-start="none" marker-end="none"/>
       <path d="M 68.914,182.5 C 68.914,181.728 68.781,181.01 68.515,180.346 C 68.249,179.682 67.874,179.104 67.39,178.613 C 66.907,178.122 66.324,177.737 65.643,177.459 C 64.961,177.18 64.205,177.041 63.375,177.041 C 62.545,177.041 61.788,177.18 61.104,177.459 C 60.42,177.737 59.835,178.122 59.349,178.613 C 58.863,179.104 58.487,179.682 58.221,180.346 C 57.954,181.01 57.821,181.728 57.821,182.5 C 57.821,183.272 57.954,183.99 58.221,184.655 C 58.487,185.319 58.863,185.896 59.349,186.384 C 59.835,186.873 60.42,187.256 61.104,187.535 C 61.788,187.813 62.545,187.952 63.375,187.952 C 64.205,187.952 64.961,187.812 65.643,187.531 C 66.324,187.25 66.907,186.865 67.39,186.377 C 67.874,185.888 68.249,185.312 68.515,184.647 C 68.781,183.983 68.914,183.267 68.914,182.5 Z M 66.379,182.5 C 66.379,183.028 66.311,183.502 66.174,183.925 C 66.037,184.347 65.841,184.705 65.584,184.998 C 65.328,185.291 65.014,185.515 64.643,185.672 C 64.271,185.828 63.849,185.906 63.375,185.906 C 62.896,185.906 62.47,185.828 62.097,185.672 C 61.723,185.515 61.408,185.291 61.151,184.998 C 60.895,184.705 60.698,184.347 60.562,183.925 C 60.425,183.502 60.356,183.028 60.356,182.5 C 60.356,181.968 60.425,181.491 60.562,181.068 C 60.698,180.646 60.895,180.288 61.151,179.995 C 61.408,179.702 61.723,179.479 62.097,179.325 C 62.47,179.171 62.896,179.094 63.375,179.094 C 63.849,179.094 64.271,179.171 64.643,179.325 C 65.014,179.479 65.328,179.702 65.584,179.995 C 65.841,180.288 66.037,180.646 66.174,181.068 C 66.311,181.491 66.379,181.968 66.379,182.5 Z" marker-start="none" marker-end="none"/>
       <path d="M 76.971,187.834 L 76.971,185.928 L 72.589,185.928 L 72.589,183.227 L 76.238,183.227 L 76.238,181.312 L 72.589,181.312 L 72.589,177.157 L 70.098,177.157 L 70.098,187.834 L 76.971,187.834 Z" marker-start="none" marker-end="none"/>
       <path d="M 86.014,187.838 L 86.014,185.874 L 83.01,185.874 L 83.01,177.161 L 80.534,177.161 L 80.534,185.874 L 77.53,185.874 L 77.53,187.838 L 86.014,187.838 Z" marker-start="none" marker-end="none"/>
       <path d="M 86.236,187.836 L 88.317,187.836 C 88.532,187.836 88.711,187.787 88.856,187.689 C 89,187.59 89.094,187.46 89.138,187.297 L 90.603,181.688 C 90.652,181.506 90.701,181.312 90.75,181.105 C 90.798,180.899 90.835,180.682 90.859,180.456 C 90.908,180.687 90.962,180.905 91.021,181.109 C 91.079,181.313 91.135,181.506 91.189,181.688 L 92.918,187.297 C 92.962,187.435 93.056,187.559 93.2,187.67 C 93.344,187.781 93.519,187.836 93.724,187.836 L 94.457,187.836 C 94.672,187.836 94.849,187.788 94.988,187.692 C 95.127,187.596 95.224,187.465 95.278,187.297 L 96.992,181.687 C 97.046,181.515 97.102,181.332 97.161,181.137 C 97.219,180.943 97.27,180.735 97.314,180.513 C 97.353,180.73 97.394,180.937 97.435,181.133 C 97.477,181.33 97.52,181.515 97.563,181.687 L 99.029,187.297 C 99.068,187.44 99.161,187.565 99.307,187.674 C 99.454,187.782 99.63,187.836 99.835,187.836 L 101.784,187.836 L 98.487,177.159 L 96.245,177.159 L 94.237,183.673 C 94.203,183.774 94.168,183.885 94.131,184.005 C 94.094,184.125 94.059,184.252 94.025,184.387 C 93.99,184.252 93.955,184.125 93.918,184.005 C 93.882,183.885 93.846,183.774 93.812,183.673 L 91.775,177.159 L 89.533,177.159 L 86.236,187.836 Z" marker-start="none" marker-end="none"/>
       <path d="M 111.644,177.159 L 109.725,177.159 C 109.51,177.159 109.333,177.209 109.194,177.309 C 109.054,177.409 108.958,177.538 108.904,177.694 L 108.274,179.556 L 104.215,179.556 L 103.585,177.694 C 103.536,177.557 103.441,177.434 103.299,177.324 C 103.157,177.214 102.984,177.159 102.779,177.159 L 100.845,177.159 L 104.977,187.836 L 107.512,187.836 L 111.644,177.159 Z M 104.786,181.241 L 107.703,181.241 L 106.721,184.12 C 106.657,184.302 106.583,184.518 106.497,184.765 C 106.412,185.013 106.328,185.281 106.244,185.57 C 106.166,185.276 106.086,185.005 106.003,184.754 C 105.92,184.505 105.842,184.288 105.768,184.105 L 104.786,181.241 Z" marker-start="none" marker-end="none"/>
       <path d="M 114.983,181.109 L 114.983,177.159 L 112.506,177.159 L 112.506,187.834 L 115.979,187.834 C 116.751,187.834 117.409,187.755 117.954,187.596 C 118.498,187.437 118.943,187.216 119.287,186.932 C 119.632,186.648 119.882,186.313 120.038,185.927 C 120.194,185.541 120.273,185.12 120.273,184.665 C 120.273,184.318 120.226,183.99 120.133,183.682 C 120.041,183.374 119.903,183.089 119.719,182.827 C 119.536,182.566 119.312,182.332 119.045,182.127 C 118.779,181.922 118.473,181.753 118.126,181.621 C 118.292,181.538 118.447,181.435 118.591,181.313 C 118.735,181.192 118.861,181.043 118.968,180.867 L 121.24,177.159 L 118.998,177.159 C 118.583,177.159 118.285,177.315 118.104,177.628 L 116.331,180.728 C 116.253,180.864 116.161,180.962 116.056,181.021 C 115.951,181.079 115.803,181.109 115.613,181.109 L 114.983,181.109 Z M 114.983,182.815 L 115.979,182.815 C 116.316,182.815 116.603,182.858 116.84,182.943 C 117.077,183.029 117.271,183.147 117.422,183.299 C 117.574,183.45 117.684,183.627 117.752,183.83 C 117.821,184.033 117.855,184.252 117.855,184.486 C 117.855,184.955 117.702,185.322 117.397,185.585 C 117.092,185.849 116.619,185.981 115.979,185.981 L 114.983,185.981 L 114.983,182.815 Z" marker-start="none" marker-end="none"/>
       <path d="M 129.125,187.838 L 129.125,185.931 L 124.743,185.931 L 124.743,183.438 L 128.099,183.438 L 128.099,181.606 L 124.743,181.606 L 124.743,179.066 L 129.125,179.066 L 129.125,177.159 L 122.252,177.159 L 122.252,187.838 L 129.125,187.838 Z" marker-start="none" marker-end="none"/>
       <path d="M 130.15,178.449 C 130.15,178.605 130.18,178.751 130.238,178.885 C 130.297,179.02 130.381,179.137 130.491,179.237 C 130.601,179.337 130.73,179.416 130.879,179.475 C 131.028,179.534 131.196,179.563 131.381,179.563 C 131.601,179.563 131.791,179.525 131.953,179.449 C 132.114,179.374 132.248,179.271 132.356,179.142 C 132.463,179.012 132.542,178.863 132.594,178.695 C 132.645,178.526 132.671,178.349 132.671,178.163 C 132.671,177.919 132.632,177.659 132.553,177.383 C 132.475,177.107 132.359,176.83 132.205,176.551 C 132.052,176.273 131.86,175.999 131.63,175.73 C 131.401,175.462 131.137,175.217 130.839,174.998 L 130.443,175.349 C 130.39,175.403 130.349,175.453 130.322,175.5 C 130.296,175.546 130.282,175.603 130.282,175.672 C 130.282,175.721 130.299,175.773 130.333,175.829 C 130.368,175.886 130.409,175.936 130.458,175.98 C 130.517,176.038 130.585,176.109 130.663,176.192 C 130.741,176.275 130.819,176.368 130.898,176.471 C 130.976,176.573 131.048,176.686 131.114,176.808 C 131.18,176.93 131.23,177.059 131.264,177.196 C 131.093,177.211 130.939,177.252 130.802,177.321 C 130.666,177.389 130.55,177.48 130.454,177.592 C 130.359,177.704 130.285,177.832 130.231,177.977 C 130.177,178.121 130.15,178.278 130.15,178.449 Z" marker-start="none" marker-end="none"/>
       <path d="M 139.524,177.159 L 137.033,177.159 L 137.033,187.838 L 139.524,187.838 L 139.524,177.159 Z" marker-start="none" marker-end="none"/>
       <path d="M 142.804,187.838 C 142.912,187.838 143.002,187.833 143.075,187.823 C 143.149,187.814 143.215,187.795 143.273,187.768 C 143.332,187.741 143.388,187.703 143.442,187.655 C 143.496,187.606 143.557,187.54 143.625,187.457 L 148.695,181.046 C 148.676,181.251 148.661,181.45 148.651,181.643 C 148.641,181.836 148.636,182.018 148.636,182.189 L 148.636,187.838 L 150.82,187.838 L 150.82,177.159 L 149.53,177.159 C 149.34,177.159 149.179,177.188 149.047,177.247 C 148.915,177.306 148.788,177.413 148.666,177.569 L 143.632,183.929 C 143.647,183.743 143.659,183.561 143.669,183.383 C 143.679,183.205 143.684,183.038 143.684,182.881 L 143.684,177.159 L 141.5,177.159 L 141.5,187.838 L 142.804,187.838 Z" marker-start="none" marker-end="none"/>
       <path d="M 159.749,179.919 C 159.808,179.919 159.866,179.908 159.925,179.886 C 159.984,179.863 160.04,179.825 160.093,179.77 L 161.075,178.715 C 160.645,178.162 160.107,177.744 159.46,177.463 C 158.813,177.182 158.047,177.041 157.163,177.041 C 156.352,177.041 155.625,177.179 154.983,177.455 C 154.341,177.731 153.796,178.112 153.349,178.598 C 152.902,179.084 152.559,179.661 152.32,180.328 C 152.08,180.995 151.961,181.719 151.961,182.5 C 151.961,183.297 152.098,184.028 152.371,184.695 C 152.645,185.362 153.027,185.937 153.518,186.421 C 154.009,186.904 154.596,187.281 155.28,187.549 C 155.964,187.818 156.718,187.952 157.544,187.952 C 157.944,187.952 158.322,187.917 158.676,187.846 C 159.03,187.775 159.361,187.677 159.669,187.552 C 159.976,187.428 160.26,187.279 160.518,187.105 C 160.777,186.931 161.007,186.739 161.207,186.529 L 160.372,185.408 C 160.318,185.339 160.255,185.277 160.181,185.221 C 160.108,185.165 160.006,185.137 159.874,185.137 C 159.786,185.137 159.703,185.156 159.625,185.195 C 159.546,185.234 159.463,185.282 159.375,185.338 C 159.288,185.394 159.191,185.455 159.086,185.521 C 158.981,185.587 158.856,185.648 158.712,185.705 C 158.568,185.761 158.4,185.808 158.207,185.848 C 158.014,185.886 157.788,185.906 157.529,185.906 C 157.08,185.906 156.669,185.827 156.298,185.668 C 155.927,185.509 155.608,185.282 155.342,184.986 C 155.076,184.691 154.868,184.333 154.719,183.913 C 154.57,183.493 154.496,183.021 154.496,182.499 C 154.496,181.951 154.57,181.465 154.719,181.04 C 154.868,180.615 155.071,180.258 155.327,179.967 C 155.584,179.676 155.883,179.455 156.225,179.304 C 156.567,179.152 156.933,179.077 157.324,179.077 C 157.549,179.077 157.754,179.088 157.939,179.11 C 158.125,179.132 158.297,179.169 158.456,179.223 C 158.615,179.277 158.766,179.346 158.91,179.432 C 159.054,179.517 159.2,179.624 159.346,179.751 C 159.405,179.8 159.468,179.84 159.537,179.872 C 159.605,179.903 159.676,179.919 159.749,179.919 Z" marker-start="none" marker-end="none"/>
       <path d="M 161.768,178.309 C 161.768,178.485 161.801,178.649 161.867,178.8 C 161.932,178.952 162.023,179.084 162.138,179.196 C 162.252,179.309 162.388,179.398 162.544,179.464 C 162.701,179.53 162.872,179.563 163.057,179.563 C 163.238,179.563 163.406,179.53 163.563,179.464 C 163.719,179.398 163.856,179.309 163.973,179.196 C 164.09,179.084 164.182,178.952 164.248,178.8 C 164.314,178.649 164.347,178.485 164.347,178.309 C 164.347,178.133 164.314,177.968 164.248,177.814 C 164.182,177.66 164.09,177.527 163.973,177.415 C 163.856,177.302 163.719,177.214 163.563,177.151 C 163.406,177.087 163.238,177.055 163.057,177.055 C 162.872,177.055 162.701,177.087 162.544,177.151 C 162.388,177.214 162.252,177.302 162.138,177.415 C 162.023,177.527 161.932,177.66 161.867,177.814 C 161.801,177.968 161.768,178.133 161.768,178.309 Z" marker-start="none" marker-end="none"/>
      </g>
     </g>
     <g id="Group_22" fill-rule="nonzero" stroke-linejoin="round" stroke-linecap="round" stroke="none" stroke-width="0.387" fill="#000000" stroke-miterlimit="79.8403193612775">
      <g id="Group_23">
       <path d="M 117.215,29.472 C 117.215,28.481 117.109,27.622 116.896,26.896 C 116.683,26.169 116.389,25.567 116.013,25.09 C 115.637,24.613 115.19,24.257 114.674,24.024 C 114.158,23.79 113.599,23.674 112.997,23.674 C 112.395,23.674 111.839,23.79 111.328,24.024 C 110.817,24.257 110.375,24.613 110.001,25.09 C 109.627,25.567 109.336,26.169 109.125,26.896 C 108.915,27.622 108.81,28.481 108.81,29.472 C 108.81,30.463 108.915,31.322 109.125,32.049 C 109.336,32.775 109.627,33.377 110.001,33.854 C 110.375,34.332 110.817,34.686 111.328,34.917 C 111.839,35.148 112.395,35.263 112.997,35.263 C 113.599,35.263 114.158,35.148 114.674,34.917 C 115.19,34.686 115.637,34.332 116.013,33.854 C 116.389,33.377 116.683,32.775 116.896,32.049 C 117.109,31.322 117.215,30.463 117.215,29.472 Z M 114.725,29.472 C 114.725,30.256 114.675,30.898 114.577,31.399 C 114.478,31.9 114.347,32.293 114.184,32.578 C 114.02,32.863 113.835,33.059 113.627,33.166 C 113.42,33.272 113.21,33.325 112.997,33.325 C 112.784,33.325 112.576,33.272 112.371,33.166 C 112.166,33.059 111.984,32.863 111.826,32.578 C 111.668,32.293 111.541,31.9 111.445,31.399 C 111.349,30.898 111.301,30.256 111.301,29.472 C 111.301,28.684 111.349,28.04 111.445,27.542 C 111.541,27.044 111.668,26.651 111.826,26.363 C 111.984,26.075 112.166,25.877 112.371,25.771 C 112.576,25.665 112.784,25.612 112.997,25.612 C 113.21,25.612 113.42,25.665 113.627,25.771 C 113.835,25.877 114.02,26.075 114.184,26.363 C 114.347,26.651 114.478,27.044 114.577,27.542 C 114.675,28.04 114.725,28.684 114.725,29.472 Z" marker-start="none" marker-end="none"/>
      </g>
     </g>
     <g id="Group_24" fill-rule="nonzero" stroke-linejoin="round" stroke-linecap="round" stroke="none" stroke-width="0.387" fill="#000000" stroke-miterlimit="79.8403193612775">
      <g id="Group_25">
       <path d="M 120.789,91.031 L 120.789,87.949 L 123.668,87.949 L 123.668,86.22 L 120.789,86.22 L 120.789,83.123 L 118.828,83.123 L 118.828,86.22 L 115.964,86.22 L 115.964,87.949 L 118.828,87.949 L 118.828,91.031 L 120.789,91.031 Z" marker-start="none" marker-end="none"/>
       <path d="M 129.023,93.318 C 129.583,93.318 130.088,93.236 130.536,93.073 C 130.985,92.91 131.368,92.683 131.684,92.392 C 132.001,92.102 132.243,91.755 132.412,91.353 C 132.581,90.951 132.665,90.509 132.665,90.026 C 132.665,89.611 132.607,89.227 132.49,88.874 C 132.373,88.521 132.214,88.185 132.011,87.866 C 131.809,87.547 131.574,87.239 131.307,86.94 C 131.04,86.642 130.756,86.34 130.455,86.034 L 128.237,83.761 C 128.522,83.845 128.804,83.911 129.081,83.961 C 129.359,84.011 129.619,84.035 129.863,84.035 L 131.98,84.035 C 132.239,84.035 132.444,83.964 132.595,83.821 C 132.745,83.678 132.821,83.49 132.821,83.256 L 132.821,81.854 L 124.852,81.854 L 124.852,82.632 C 124.852,82.783 124.883,82.944 124.945,83.115 C 125.007,83.286 125.116,83.442 125.272,83.582 L 128.54,86.874 C 128.821,87.155 129.064,87.422 129.272,87.676 C 129.479,87.93 129.651,88.181 129.786,88.427 C 129.92,88.674 130.022,88.92 130.089,89.167 C 130.156,89.413 130.19,89.674 130.19,89.949 C 130.19,90.4 130.083,90.747 129.867,90.988 C 129.652,91.229 129.324,91.35 128.883,91.35 C 128.701,91.35 128.535,91.324 128.385,91.272 C 128.234,91.22 128.099,91.15 127.98,91.062 C 127.861,90.974 127.758,90.87 127.673,90.751 C 127.587,90.631 127.518,90.502 127.466,90.362 C 127.383,90.128 127.278,89.96 127.151,89.856 C 127.024,89.752 126.852,89.7 126.634,89.7 C 126.582,89.7 126.526,89.703 126.466,89.708 C 126.407,89.713 126.346,89.721 126.284,89.731 L 125.007,89.953 C 125.09,90.519 125.25,91.013 125.486,91.433 C 125.722,91.854 126.015,92.204 126.365,92.485 C 126.715,92.765 127.116,92.974 127.568,93.112 C 128.019,93.249 128.504,93.318 129.023,93.318 Z" marker-start="none" marker-end="none"/>
      </g>
     </g>
     <g id="Group_26" fill-rule="nonzero" stroke-linejoin="round" stroke-linecap="round" stroke="none" stroke-width="0.387" fill="#000000" stroke-miterlimit="79.8403193612775">
      <g id="Group_27">
       <path d="M 178.986,107.014 L 178.986,103.932 L 181.865,103.932 L 181.865,102.203 L 178.986,102.203 L 178.986,99.106 L 177.025,99.106 L 177.025,102.203 L 174.161,102.203 L 174.161,103.932 L 177.025,103.932 L 177.025,107.014 L 178.986,107.014 Z" marker-start="none" marker-end="none"/>
       <path d="M 187.22,109.301 C 187.78,109.301 188.285,109.219 188.733,109.056 C 189.182,108.893 189.565,108.666 189.881,108.375 C 190.198,108.085 190.44,107.738 190.609,107.336 C 190.778,106.934 190.862,106.492 190.862,106.009 C 190.862,105.594 190.804,105.21 190.687,104.857 C 190.57,104.504 190.411,104.168 190.208,103.849 C 190.006,103.53 189.771,103.222 189.504,102.923 C 189.237,102.625 188.953,102.323 188.652,102.017 L 186.434,99.744 C 186.719,99.828 187.001,99.894 187.278,99.944 C 187.556,99.994 187.816,100.018 188.06,100.018 L 190.177,100.018 C 190.436,100.018 190.641,99.947 190.792,99.804 C 190.942,99.661 191.018,99.473 191.018,99.239 L 191.018,97.837 L 183.049,97.837 L 183.049,98.615 C 183.049,98.766 183.08,98.927 183.142,99.098 C 183.204,99.269 183.313,99.425 183.469,99.565 L 186.737,102.857 C 187.018,103.138 187.261,103.405 187.469,103.659 C 187.676,103.913 187.848,104.164 187.983,104.41 C 188.117,104.657 188.219,104.903 188.286,105.15 C 188.353,105.396 188.387,105.657 188.387,105.932 C 188.387,106.383 188.28,106.73 188.064,106.971 C 187.849,107.212 187.521,107.333 187.08,107.333 C 186.898,107.333 186.732,107.307 186.582,107.255 C 186.431,107.203 186.296,107.133 186.177,107.045 C 186.058,106.957 185.955,106.853 185.87,106.734 C 185.784,106.614 185.715,106.485 185.663,106.345 C 185.58,106.111 185.475,105.943 185.348,105.839 C 185.221,105.735 185.049,105.683 184.831,105.683 C 184.779,105.683 184.723,105.686 184.663,105.691 C 184.604,105.696 184.543,105.704 184.481,105.714 L 183.204,105.936 C 183.287,106.502 183.447,106.996 183.683,107.416 C 183.919,107.837 184.212,108.187 184.562,108.468 C 184.912,108.748 185.313,108.957 185.765,109.095 C 186.216,109.232 186.701,109.301 187.22,109.301 Z" marker-start="none" marker-end="none"/>
      </g>
     </g>
    </g>
   </g>
  </g>
 </g>
</svg>
