<?xml version="1.0" standalone="no"?>
<!DOCTYPE svg PUBLIC "-//W3C//DTD SVG 1.1//EN" "http://www.w3.org/Graphics/SVG/1.1/DTD/svg11.dtd">
<!--Generator: Xara Designer (www.xara.com), SVG filter version: 6.7.0.0-->
<svg fill="none" fill-rule="evenodd" stroke="black" stroke-width="0.501" stroke-linejoin="bevel" stroke-miterlimit="10" font-family="Times New Roman" font-size="16" style="font-variant-ligatures:none" xmlns:xlink="http://www.w3.org/1999/xlink" xmlns="http://www.w3.org/2000/svg" version="1.1" overflow="visible" width="430.866pt" height="430.87pt" viewBox="94.434 -498.9 430.866 430.87">
 <defs>
	</defs>
 <g id="Layer 1" transform="scale(1 -1)">
  <g id="Group" stroke="none">
   <g id="Group_1" stroke-linejoin="miter">
    <path d="M 94.434,83.244 L 94.434,483.686 C 94.434,492.084 101.25,498.9 109.646,498.9 L 510.088,498.9 C 518.486,498.9 525.3,492.084 525.3,483.686 L 525.3,83.244 C 525.3,81.144 524.874,79.144 524.104,77.324 C 522.564,73.684 519.646,70.766 516.008,69.226 C 514.188,68.456 512.188,68.03 510.088,68.03 L 109.646,68.03 C 101.25,68.03 94.434,74.846 94.434,83.244 Z" stroke-width="0.802" fill="#4c4c4c" marker-start="none" marker-end="none"/>
    <path d="M 95.286,83.978 L 95.286,482.952 C 95.286,491.284 102.048,498.046 110.378,498.046 L 509.356,498.046 C 517.686,498.046 524.448,491.284 524.448,482.952 L 524.448,83.978 C 524.448,75.646 517.686,68.884 509.356,68.884 L 110.378,68.884 C 102.048,68.884 95.286,75.646 95.286,83.978 Z" fill="#ffffff" stroke-width="0.802" marker-start="none" marker-end="none"/>
   </g>
   <g id="Group_2">
    <g id="Group_3" stroke-linejoin="miter" stroke-linecap="round" stroke-width="0.17">
     <path d="M 323.735,166.181 L 323.735,179.949 L 367.644,179.949 L 367.644,179.925 C 378.68,179.925 389.764,183.895 398.536,191.908 C 408.423,200.932 413.447,213.322 413.447,225.724 L 413.363,275.715 L 427.209,275.715 L 427.209,225.724 L 427.197,225.724 C 427.197,209.618 420.665,193.484 407.812,181.733 C 396.398,171.325 381.994,166.181 367.644,166.197 L 323.737,166.181 L 323.735,166.181 Z" fill="#c9ebc6" marker-start="none" marker-end="none"/>
     <path d="M 370.48,129.579 L 370.48,143.317 C 389.388,143.963 408.181,151.073 423.231,164.827 C 441.069,181.081 450.125,203.382 450.125,225.724 L 450.019,275.715 L 463.867,275.715 L 463.867,225.724 L 463.853,225.724 C 463.853,199.662 453.299,173.641 432.505,154.667 C 414.809,138.529 392.706,130.219 370.48,129.579 Z" fill="#788c76" marker-start="none" marker-end="none"/>
     <path d="M 330.317,111.22 L 330.315,125.027 L 367.644,124.959 C 391.924,124.959 416.267,133.627 435.591,151.295 C 457.357,171.165 468.433,198.386 468.433,225.724 L 468.343,275.715 L 482.182,275.715 L 482.182,225.724 C 482.16,194.69 469.625,163.725 444.879,141.137 C 422.903,121.109 395.244,111.22 367.644,111.22 L 330.317,111.22 Z" fill="#505d4f" marker-start="none" marker-end="none"/>
     <path d="M 370.48,147.901 L 370.48,161.661 C 384.974,162.297 399.336,167.819 410.881,178.365 C 424.749,190.996 431.763,208.368 431.805,225.724 L 431.701,275.715 L 445.533,275.715 L 445.533,225.724 C 445.517,204.63 436.997,183.551 420.161,168.213 C 405.974,155.263 388.28,148.545 370.48,147.901 Z" fill="#9fbb9e" marker-start="none" marker-end="none"/>
     <path d="M 208.073,185.584 C 197.649,197.008 192.509,211.424 192.521,225.764 L 192.509,275.727 L 206.287,275.727 L 206.265,225.764 C 206.265,214.73 210.205,203.656 218.234,194.872 C 227.262,184.973 239.652,179.949 252.066,179.949 L 295.917,180.019 L 295.917,166.197 L 252.066,166.197 C 235.942,166.197 219.806,172.727 208.073,185.584 Z" fill="#c9ebc6" marker-start="none" marker-end="none"/>
     <path d="M 180.993,160.903 C 164.185,179.337 155.859,202.576 155.869,225.764 L 155.869,275.727 L 169.703,275.727 L 169.599,225.764 C 169.599,205.906 176.711,185.974 191.169,170.165 C 206.431,153.407 227.078,144.401 248.084,143.379 L 248.086,129.651 L 248.084,129.631 C 223.346,130.651 199.001,141.165 180.993,160.903 Z" fill="#788c76" marker-start="none" marker-end="none"/>
     <path d="M 167.449,148.541 C 147.427,170.505 137.54,198.166 137.552,225.764 L 137.552,275.727 L 151.381,275.727 L 151.289,225.764 C 151.289,201.482 159.969,177.141 177.625,157.815 C 197.497,136.037 224.728,124.973 252.066,124.973 L 288.767,125.029 L 288.767,111.22 L 252.066,111.22 C 221.02,111.25 190.051,123.803 167.449,148.541 Z" fill="#505d4f" marker-start="none" marker-end="none"/>
     <path d="M 194.539,173.247 C 180.901,188.184 174.179,207.004 174.179,225.764 L 174.099,275.727 L 187.941,275.727 L 187.941,225.764 C 187.917,210.316 193.461,194.824 204.701,182.513 C 216.366,169.711 232.078,162.745 248.084,161.743 L 248.084,147.979 C 228.32,148.995 208.929,157.483 194.539,173.247 Z" fill="#9fbb9e" marker-start="none" marker-end="none"/>
    </g>
    <g id="Group_4" stroke-linejoin="miter" stroke-linecap="round" stroke-width="0.17">
     <path d="M 413.381,291.375 L 413.457,341.346 C 413.457,353.756 408.437,366.144 398.548,375.174 C 389.738,383.189 378.68,387.145 367.632,387.145 L 317.667,387.129 L 317.667,400.899 L 367.632,400.885 C 381.998,400.899 396.388,395.759 407.812,385.351 C 420.665,373.6 427.197,357.48 427.197,341.346 L 427.209,341.346 L 427.209,291.375 L 413.381,291.375 Z" fill="#c9ebc6" marker-start="none" marker-end="none"/>
     <path d="M 450.033,291.375 L 450.125,341.346 C 450.111,363.682 441.057,386.003 423.243,402.249 C 407.422,416.681 387.516,423.811 367.632,423.811 L 317.667,423.707 L 317.667,437.537 L 367.632,437.537 C 390.818,437.551 414.057,429.237 432.505,412.395 C 453.287,393.437 463.853,367.418 463.853,341.346 L 463.867,291.375 L 450.033,291.375 Z" fill="#788c76" marker-start="none" marker-end="none"/>
     <path d="M 468.359,291.375 L 468.433,341.346 C 468.433,368.68 457.373,395.911 435.591,415.795 C 416.267,433.441 391.924,442.117 367.632,442.117 L 317.667,442.027 L 317.667,455.844 L 367.632,455.844 C 395.244,455.856 422.919,445.979 444.881,425.943 C 469.617,403.357 482.16,372.402 482.182,341.346 L 482.182,291.375 L 468.359,291.375 Z" fill="#505d4f" marker-start="none" marker-end="none"/>
     <path d="M 431.701,291.375 L 431.795,341.346 C 431.777,358.716 424.755,376.086 410.893,388.719 C 398.6,399.949 383.09,405.489 367.632,405.479 L 317.667,405.479 L 317.667,419.307 L 367.632,419.215 C 386.408,419.215 405.222,412.487 420.161,398.867 C 436.997,383.513 445.517,362.446 445.533,341.346 L 445.533,291.375 L 431.701,291.375 Z" fill="#9fbb9e" marker-start="none" marker-end="none"/>
    </g>
    <g id="Group_5" stroke-linejoin="miter" stroke-linecap="round" stroke-width="0.17">
     <path d="M 192.509,291.353 L 192.509,341.316 L 192.525,341.316 C 192.509,355.656 197.649,370.062 208.045,381.494 C 219.822,394.341 235.942,400.871 252.066,400.871 L 252.066,400.885 L 302.029,400.885 L 302.029,387.053 L 252.066,387.129 C 239.652,387.129 227.262,382.107 218.234,372.206 C 210.219,363.412 206.251,352.352 206.251,341.316 L 206.287,341.316 L 206.287,291.353 L 192.509,291.353 Z" fill="#c9ebc6" marker-start="none" marker-end="none"/>
     <path d="M 155.869,291.353 L 155.869,341.316 C 155.859,364.502 164.185,387.727 180.993,406.179 C 199.967,426.955 225.99,437.525 252.066,437.525 L 302.029,437.537 L 302.029,423.707 L 252.066,423.797 C 229.71,423.783 207.407,414.727 191.169,396.915 C 176.715,381.106 169.599,361.172 169.599,341.316 L 169.715,291.353 L 155.869,291.353 Z" fill="#788c76" marker-start="none" marker-end="none"/>
     <path d="M 137.552,291.353 L 137.552,341.316 C 137.54,368.918 147.427,396.573 167.461,418.541 C 190.051,443.287 221.02,455.818 252.066,455.844 L 302.029,455.844 L 302.029,442.027 L 252.066,442.105 C 224.728,442.105 197.497,431.049 177.625,409.261 C 159.969,389.941 151.289,365.61 151.289,341.316 L 151.395,291.353 L 137.552,291.353 Z" fill="#505d4f" marker-start="none" marker-end="none"/>
     <path d="M 174.099,291.353 L 174.193,341.316 C 174.193,360.068 180.903,378.88 194.539,393.831 C 209.881,410.655 230.958,419.195 252.066,419.203 L 302.029,419.203 L 302.029,405.375 L 252.066,405.467 C 234.69,405.451 217.338,398.423 204.691,384.563 C 193.461,372.258 187.917,356.764 187.929,341.316 L 187.929,291.353 L 174.099,291.353 Z" fill="#9fbb9e" marker-start="none" marker-end="none"/>
    </g>
    <g id="Group_6" fill-rule="nonzero" stroke-linejoin="round" stroke-linecap="round" stroke-width="0.614" fill="#000000">
     <g id="Group_7">
      <path d="M 301.239,166.205 L 301.239,177.357 L 299.599,177.357 L 299.599,180.005 L 305.641,180.005 L 305.641,177.357 L 304.001,177.357 L 304.001,166.205 L 301.239,166.205 Z" marker-start="none" marker-end="none"/>
      <path d="M 306.411,166.205 L 306.411,180.005 L 309.159,180.005 L 309.159,175.075 L 310.459,175.075 L 310.459,180.005 L 313.209,180.005 L 313.209,166.205 L 310.459,166.205 L 310.459,172.471 L 309.159,172.471 L 309.159,166.205 L 306.411,166.205 Z" marker-start="none" marker-end="none"/>
      <path d="M 314.429,166.205 L 314.429,180.005 L 319.957,180.005 L 319.957,177.341 L 317.243,177.341 L 317.243,174.655 L 319.845,174.655 L 319.845,172.053 L 317.243,172.053 L 317.243,168.887 L 320.133,168.887 L 320.133,166.205 L 314.429,166.205 Z" marker-start="none" marker-end="none"/>
     </g>
    </g>
    <g id="Group_8" fill-rule="nonzero" stroke-linejoin="round" stroke-linecap="round" stroke-width="0.88" fill="#000000">
     <g id="Group_9">
      <path d="M 253.956,129.585 L 253.956,161.827 L 260.272,161.827 L 263.092,146.401 L 263.092,161.827 L 269.014,161.827 L 269.014,129.585 L 263.022,129.585 L 259.956,145.727 L 259.956,129.585 L 253.956,129.585 Z" marker-start="none" marker-end="none"/>
      <path d="M 271.728,129.585 L 271.728,161.827 L 284.003,161.827 L 284.003,155.593 L 277.971,155.593 L 277.971,149.325 L 283.755,149.325 L 283.755,143.249 L 277.971,143.249 L 277.971,135.855 L 284.395,135.855 L 284.395,129.585 L 271.728,129.585 Z" marker-start="none" marker-end="none"/>
      <path d="M 289.073,129.585 L 289.073,155.633 L 285.435,155.633 L 285.435,161.827 L 298.851,161.827 L 298.851,155.633 L 295.213,155.633 L 295.213,129.585 L 289.073,129.585 Z" marker-start="none" marker-end="none"/>
      <path d="M 303.123,129.585 L 303.123,135.443 L 310.119,155.893 L 303.807,155.893 L 303.807,161.827 L 316.619,161.827 L 316.619,156.191 L 309.439,135.517 L 316.293,135.517 L 316.293,129.585 L 303.123,129.585 Z" marker-start="none" marker-end="none"/>
      <path d="M 318.547,129.585 L 318.547,161.827 L 330.825,161.827 L 330.825,155.593 L 324.791,155.593 L 324.791,149.325 L 330.569,149.325 L 330.569,143.249 L 324.791,143.249 L 324.791,135.855 L 331.215,135.855 L 331.215,129.585 L 318.547,129.585 Z" marker-start="none" marker-end="none"/>
      <path d="M 333.251,129.585 L 333.251,161.827 L 342.674,161.827 C 344.17,161.827 345.328,161.469 346.15,160.751 C 346.97,160.039 347.524,159.037 347.81,157.751 C 348.096,156.459 348.244,154.817 348.244,152.817 C 348.244,150.991 348.01,149.563 347.56,148.541 C 347.11,147.509 346.322,146.801 345.204,146.401 C 346.132,146.197 346.802,145.715 347.222,144.935 C 347.638,144.163 347.846,143.111 347.846,141.781 L 347.778,129.585 L 341.781,129.585 L 341.781,142.197 C 341.781,143.099 341.613,143.673 341.283,143.923 C 340.945,144.169 340.341,144.299 339.461,144.299 L 339.461,129.585 L 333.251,129.585 Z M 342.247,152.817 C 342.247,153.667 342.211,154.303 342.137,154.727 C 342.063,155.151 341.937,155.449 341.743,155.617 C 341.555,155.773 341.283,155.857 340.921,155.857 L 339.495,155.857 L 339.495,149.887 L 340.961,149.887 C 341.817,149.887 342.247,150.861 342.247,152.817 Z" marker-start="none" marker-end="none"/>
      <path d="M 351.954,131.671 C 350.662,133.257 350.026,135.493 350.026,138.369 L 350.026,153.719 C 350.026,156.495 350.662,158.587 351.954,160.003 C 353.236,161.419 355.116,162.121 357.59,162.121 C 360.066,162.121 361.944,161.419 363.226,160.003 C 364.514,158.587 365.154,156.495 365.154,153.719 L 365.154,138.369 C 365.154,135.467 364.514,133.233 363.226,131.653 C 361.944,130.075 360.066,129.283 357.59,129.283 C 355.116,129.283 353.236,130.083 351.954,131.671 Z M 358.698,135.967 C 358.888,136.469 358.978,137.169 358.978,138.067 L 358.978,153.829 C 358.978,154.533 358.896,155.097 358.714,155.537 C 358.532,155.975 358.172,156.191 357.624,156.191 C 356.6,156.191 356.09,155.383 356.09,153.751 L 356.09,138.033 C 356.09,137.105 356.194,136.403 356.412,135.931 C 356.626,135.453 357.022,135.219 357.59,135.219 C 358.138,135.219 358.506,135.467 358.698,135.967 Z" marker-start="none" marker-end="none"/>
     </g>
    </g>
    <g id="Group_10" fill-rule="nonzero" stroke-linejoin="round" stroke-linecap="round" stroke-width="0.608" fill="#000000">
     <g id="Group_11">
      <path d="M 293.881,112.142 C 293.391,112.844 293.149,113.908 293.149,115.336 L 293.149,121.289 C 293.149,122.563 293.435,123.529 294.001,124.185 C 294.573,124.839 295.419,125.165 296.543,125.165 C 297.457,125.165 298.163,124.985 298.669,124.621 C 299.173,124.255 299.521,123.723 299.715,123.027 C 299.907,122.329 300.005,121.431 300.005,120.339 L 297.301,120.339 L 297.301,121.579 C 297.301,121.909 297.255,122.169 297.163,122.351 C 297.073,122.533 296.909,122.625 296.673,122.625 C 296.149,122.625 295.883,122.281 295.883,121.595 L 295.883,114.902 C 295.883,114.484 295.939,114.166 296.045,113.952 C 296.153,113.736 296.341,113.628 296.607,113.628 C 296.879,113.628 297.063,113.736 297.175,113.952 C 297.281,114.166 297.333,114.484 297.333,114.902 L 297.333,116.88 L 296.593,116.88 L 296.593,119.262 L 299.973,119.262 L 299.973,111.214 L 298.863,111.214 L 298.395,112.372 C 297.903,111.516 297.137,111.086 296.111,111.086 C 295.113,111.086 294.371,111.436 293.881,112.142 Z" marker-start="none" marker-end="none"/>
      <path d="M 300.693,111.214 L 302.027,125.037 L 306.711,125.037 L 308.031,111.214 L 305.409,111.214 L 305.217,113.454 L 303.543,113.454 L 303.379,111.214 L 300.693,111.214 Z M 305.007,115.658 L 304.395,122.689 L 304.267,122.689 L 303.751,115.658 L 305.007,115.658 Z" marker-start="none" marker-end="none"/>
      <path d="M 308.865,111.214 L 308.865,125.037 L 313.081,125.037 L 314.241,116.606 L 315.399,125.037 L 319.645,125.037 L 319.645,111.214 L 317.119,111.214 L 317.119,121.177 L 315.527,111.214 L 313.049,111.214 L 311.359,121.177 L 311.359,111.214 L 308.865,111.214 Z" marker-start="none" marker-end="none"/>
      <path d="M 320.873,111.214 L 320.873,125.037 L 326.405,125.037 L 326.405,122.365 L 323.689,122.365 L 323.689,119.679 L 326.295,119.679 L 326.295,117.074 L 323.689,117.074 L 323.689,113.904 L 326.583,113.904 L 326.583,111.214 L 320.873,111.214 Z" marker-start="none" marker-end="none"/>
     </g>
    </g>
    <path d="M 271.06,173.791 L 271.06,245.724 L 194.163,245.724 L 194.163,443.469 L 367.772,443.469 C 395.632,444.071 423.585,432.957 443.625,410.585 C 459.857,392.459 468.167,369.976 468.791,347.4 L 468.807,347.4 L 468.807,173.791 L 271.06,173.791 Z" stroke-opacity="0.607843" stroke-width="1.804" stroke-linejoin="miter" marker-start="none" marker-end="none" fill-opacity="0.607843"/>
    <text xml:space="preserve" transform="translate(310.433 301.865) scale(1 -1)" kerning="auto" font-size="28.074" fill="#000000" stroke-width="0.844" stroke-linejoin="round" stroke-linecap="round" font-family="Lato Black"><tspan x="-59.945" y="0">CARBON</tspan><tspan x="-45.222" y="28.629">EVENT</tspan><tspan x="-39.321" y="57.258">CARD</tspan></text>
   </g>
  </g>
 </g>
</svg>
