<?xml version="1.0" standalone="no"?>
<!DOCTYPE svg PUBLIC "-//W3C//DTD SVG 1.1//EN" "http://www.w3.org/Graphics/SVG/1.1/DTD/svg11.dtd">
<!--Generator: Xara Designer (www.xara.com), SVG filter version: 6.2.0.0-->
<svg stroke-width="0.501" stroke-linejoin="bevel" fill-rule="evenodd" xmlns:xlink="http://www.w3.org/1999/xlink" xmlns="http://www.w3.org/2000/svg" version="1.1" overflow="visible" width="215.434pt" height="215.434pt" viewBox="0 0 215.434 215.434">
 <defs>
	</defs>
 <g id="Document" fill="none" stroke="black" font-family="Times New Roman" font-size="16" transform="scale(1 -1)">
  <g id="Spread" transform="translate(0 -215.434)">
   <g id="Layer 1">
    <g id="Group">
     <path d="M 199.757,214.933 L 15.176,214.933 C 6.799,214.933 0,208.134 0,199.757 L 0,15.176 C 0,6.799 6.799,0 15.176,0 L 199.757,0 C 208.134,0 214.933,6.799 214.933,15.176 L 214.933,199.757 C 214.933,208.134 208.134,214.933 199.757,214.933 Z" stroke="#999999" fill="#ffffff" stroke-linejoin="miter" marker-start="none" marker-end="none"/>
     <g id="Group_1" stroke="none" stroke-linejoin="miter" stroke-linecap="round" stroke-width="0.085" stroke-miterlimit="79.8403193612775">
      <path d="M 112.169,49.658 L 112.169,56.542 L 137.158,56.542 L 137.158,56.53 C 142.676,56.53 148.218,58.515 152.604,62.522 C 157.548,67.034 160.06,73.229 160.06,79.43 L 160.018,104.426 L 166.941,104.426 L 166.941,79.43 L 166.935,79.43 C 166.935,71.377 163.669,63.31 157.242,57.434 C 151.535,52.23 144.333,49.658 137.158,49.666 L 112.169,49.658 Z" fill="#c9ebc6" marker-start="none" marker-end="none"/>
      <path d="M 112.169,31.338 L 112.169,38.253 L 137.158,38.202 C 147.086,38.202 157.051,41.761 164.952,48.981 C 173.871,57.108 178.399,68.259 178.399,79.43 L 178.346,104.426 L 185.27,104.426 L 185.27,79.43 L 185.263,79.43 C 185.263,66.399 179.986,53.388 169.589,43.901 C 160.365,35.489 148.745,31.331 137.158,31.338 L 112.169,31.338 Z" fill="#788c76" marker-start="none" marker-end="none"/>
      <path d="M 112.169,22.177 L 112.169,29.093 L 137.158,29.047 C 149.298,29.047 161.47,33.381 171.132,42.215 C 182.015,52.15 187.553,65.761 187.553,79.43 L 187.508,104.426 L 194.428,104.426 L 194.428,79.43 C 194.417,63.913 188.149,48.43 175.776,37.136 C 164.788,27.122 150.958,22.177 137.158,22.177 L 112.169,22.177 Z" fill="#505d4f" marker-start="none" marker-end="none"/>
      <path d="M 112.169,40.46 L 112.169,47.367 L 137.158,47.367 C 144.881,47.367 152.628,50.134 158.777,55.75 C 165.711,62.066 169.218,70.752 169.239,79.43 L 169.187,104.426 L 176.103,104.426 L 176.103,79.43 C 176.095,68.883 171.835,58.343 163.417,50.674 C 155.947,43.856 146.532,40.493 137.158,40.493 L 112.169,40.46 Z" fill="#9fbb9e" marker-start="none" marker-end="none"/>
      <path d="M 57.371,59.36 C 52.159,65.072 49.589,72.28 49.595,79.45 L 49.589,104.432 L 56.478,104.432 L 56.467,79.45 C 56.467,73.933 58.437,68.396 62.452,64.004 C 66.966,59.054 73.161,56.542 79.368,56.542 L 104.363,56.583 L 104.363,49.666 L 79.368,49.666 C 71.306,49.666 63.238,52.931 57.371,59.36 Z" fill="#c9ebc6" marker-start="none" marker-end="none"/>
      <path d="M 79.368,31.338 L 79.368,31.343 C 66.323,31.343 53.318,36.622 43.831,47.019 C 35.427,56.236 31.264,67.856 31.269,79.45 L 31.269,104.432 L 38.186,104.432 L 38.134,79.45 C 38.134,69.521 41.69,59.555 48.919,51.65 C 57.032,42.743 68.188,38.216 79.368,38.208 L 104.363,38.253 L 104.363,31.338 L 79.368,31.338 Z" fill="#788c76" marker-start="none" marker-end="none"/>
      <path d="M 37.059,40.838 C 27.048,51.82 22.104,65.651 22.11,79.45 L 22.11,104.432 L 29.025,104.432 L 28.979,79.45 C 28.979,67.309 33.319,55.138 42.147,45.475 C 52.083,34.586 65.699,29.054 79.368,29.054 L 104.363,29.093 L 104.363,22.177 L 79.368,22.177 C 63.845,22.192 48.36,28.469 37.059,40.838 Z" fill="#505d4f" marker-start="none" marker-end="none"/>
      <path d="M 50.604,53.191 C 43.785,60.66 40.424,70.07 40.424,79.45 L 40.384,104.432 L 47.305,104.432 L 47.305,79.45 C 47.293,71.726 50.065,63.98 55.685,57.824 C 62.002,50.894 70.689,47.384 79.368,47.376 L 104.363,47.421 L 104.363,40.506 L 79.368,40.506 C 68.808,40.513 58.282,44.781 50.604,53.191 Z" fill="#9fbb9e" marker-start="none" marker-end="none"/>
     </g>
     <g id="Group_2" stroke="none" stroke-linejoin="miter" stroke-linecap="round" stroke-width="0.085" stroke-miterlimit="79.8403193612775">
      <path d="M 160.027,112.256 L 160.065,137.242 C 160.065,143.447 157.555,149.641 152.61,154.156 C 148.205,158.164 142.676,160.142 137.152,160.142 L 112.169,160.134 L 112.169,167.019 L 137.152,167.012 C 144.335,167.019 151.53,164.449 157.242,159.245 C 163.669,153.369 166.935,145.309 166.935,137.242 L 166.941,137.242 L 166.941,112.256 L 160.027,112.256 Z" fill="#c9ebc6" marker-start="none" marker-end="none"/>
      <path d="M 178.353,112.256 L 178.399,137.242 C 178.392,148.41 173.865,159.571 164.958,167.694 C 157.047,174.91 147.094,178.475 137.152,178.475 L 112.169,178.423 L 112.169,185.338 L 137.152,185.338 C 148.745,185.345 160.365,181.188 169.589,172.767 C 179.98,163.288 185.263,150.278 185.263,137.242 L 185.27,112.256 L 178.353,112.256 Z" fill="#788c76" marker-start="none" marker-end="none"/>
      <path d="M 187.516,112.256 L 187.553,137.242 C 187.553,150.909 182.023,164.525 171.132,174.467 C 161.47,183.29 149.298,187.628 137.152,187.628 L 112.169,187.583 L 112.169,194.492 L 137.152,194.492 C 150.958,194.498 164.796,189.559 175.777,179.541 C 188.145,168.248 194.417,152.77 194.428,137.242 L 194.428,112.256 L 187.516,112.256 Z" fill="#505d4f" marker-start="none" marker-end="none"/>
      <path d="M 169.187,112.256 L 169.234,137.242 C 169.225,145.927 165.714,154.612 158.783,160.929 C 152.636,166.544 144.881,169.314 137.152,169.309 L 112.169,169.309 L 112.169,176.223 L 137.152,176.177 C 146.54,176.177 155.947,172.813 163.417,166.003 C 171.835,158.326 176.095,147.792 176.103,137.242 L 176.103,112.256 L 169.187,112.256 Z" fill="#9fbb9e" marker-start="none" marker-end="none"/>
     </g>
     <g id="Group_3" stroke="none" stroke-linejoin="miter" stroke-linecap="round" stroke-width="0.085" stroke-miterlimit="79.8403193612775">
      <path d="M 49.589,112.245 L 49.589,137.227 L 49.597,137.227 C 49.589,144.397 52.159,151.6 57.357,157.316 C 63.246,163.74 71.306,167.005 79.368,167.005 L 79.368,167.012 L 104.35,167.012 L 104.35,160.096 L 79.368,160.134 C 73.161,160.134 66.966,157.623 62.452,152.672 C 58.444,148.275 56.46,142.745 56.46,137.227 L 56.478,137.227 L 56.478,112.245 L 49.589,112.245 Z" fill="#c9ebc6" marker-start="none" marker-end="none"/>
      <path d="M 31.269,112.245 L 31.269,137.227 C 31.264,148.82 35.427,160.433 43.831,169.659 C 53.318,180.047 66.33,185.332 79.368,185.332 L 104.35,185.338 L 104.35,178.423 L 79.368,178.468 C 68.19,178.461 57.038,173.933 48.919,165.027 C 41.692,157.122 38.134,147.155 38.134,137.227 L 38.192,112.245 L 31.269,112.245 Z" fill="#788c76" marker-start="none" marker-end="none"/>
      <path d="M 22.11,112.245 L 22.11,137.227 C 22.104,151.028 27.048,164.856 37.065,175.84 C 48.36,188.213 63.845,194.479 79.368,194.492 L 104.35,194.492 L 104.35,187.583 L 79.368,187.622 C 65.699,187.622 52.083,182.094 42.147,171.2 C 33.319,161.54 28.979,149.374 28.979,137.227 L 29.032,112.245 L 22.11,112.245 Z" fill="#505d4f" marker-start="none" marker-end="none"/>
      <path d="M 40.384,112.245 L 40.431,137.227 C 40.431,146.603 43.786,156.009 50.604,163.485 C 58.275,171.897 68.814,176.167 79.368,176.171 L 104.35,176.171 L 104.35,169.257 L 79.368,169.303 C 70.68,169.295 62.004,165.781 55.68,158.851 C 50.065,152.698 47.293,144.951 47.299,137.227 L 47.299,112.245 L 40.384,112.245 Z" fill="#9fbb9e" marker-start="none" marker-end="none"/>
     </g>
     <path d="M 101.294,48.897 L 101.294,57.105 L 108.266,57.105 L 108.266,48.897 L 101.294,48.897 Z" stroke="none" fill="#ffffff" stroke-width="0.468" stroke-linejoin="miter" marker-start="none" marker-end="none" stroke-miterlimit="79.8403193612775"/>
     <path d="M 108.266,48.897 L 108.266,57.105 L 115.203,57.105 L 115.203,48.897 L 108.266,48.897 Z" stroke="none" fill="#ffffff" stroke-width="0.468" stroke-linejoin="miter" marker-start="none" marker-end="none" stroke-miterlimit="79.8403193612775"/>
     <g id="Group_4" stroke="none" fill="#000000" fill-rule="nonzero" stroke-linejoin="round" stroke-linecap="round" stroke-width="0.307" stroke-miterlimit="79.8403193612775">
      <path d="M 103.955,49.67 L 103.955,55.246 L 103.135,55.246 L 103.135,56.57 L 106.156,56.57 L 106.156,55.246 L 105.336,55.246 L 105.336,49.67 L 103.955,49.67 Z" marker-start="none" marker-end="none"/>
      <path d="M 106.541,49.67 L 106.541,56.57 L 107.915,56.57 L 107.915,54.105 L 108.565,54.105 L 108.565,56.57 L 109.94,56.57 L 109.94,49.67 L 108.565,49.67 L 108.565,52.803 L 107.915,52.803 L 107.915,49.67 L 106.541,49.67 Z" marker-start="none" marker-end="none"/>
      <path d="M 110.55,49.67 L 110.55,56.57 L 113.314,56.57 L 113.314,55.238 L 111.957,55.238 L 111.957,53.895 L 113.258,53.895 L 113.258,52.594 L 111.957,52.594 L 111.957,51.011 L 113.402,51.011 L 113.402,49.67 L 110.55,49.67 Z" marker-start="none" marker-end="none"/>
     </g>
     <path d="M 77.378,31.209 L 77.378,47.628 L 104.781,47.628 L 104.781,31.209 L 77.378,31.209 Z" stroke="none" fill="#ffffff" stroke-width="0.468" stroke-linejoin="miter" marker-start="none" marker-end="none" stroke-miterlimit="79.8403193612775"/>
     <path d="M 112.013,30.806 L 112.013,48.897 L 138.576,48.897 L 138.576,30.806 L 112.013,30.806 Z" stroke="none" fill="#ffffff" stroke-width="0.468" stroke-linejoin="miter" marker-start="none" marker-end="none" stroke-miterlimit="79.8403193612775"/>
     <g id="Group_5" stroke="none" fill="#000000" fill-rule="nonzero" stroke-linejoin="round" stroke-linecap="round" stroke-width="0.44" stroke-miterlimit="79.8403193612775">
      <path d="M 80.313,31.36 L 80.313,47.481 L 83.471,47.481 L 84.881,39.768 L 84.881,47.481 L 87.842,47.481 L 87.842,31.36 L 84.846,31.36 L 83.313,39.431 L 83.313,31.36 L 80.313,31.36 Z" marker-start="none" marker-end="none"/>
      <path d="M 89.199,31.36 L 89.199,47.481 L 95.337,47.481 L 95.337,44.364 L 92.321,44.364 L 92.321,41.23 L 95.213,41.23 L 95.213,38.192 L 92.321,38.192 L 92.321,34.495 L 95.533,34.495 L 95.533,31.36 L 89.199,31.36 Z" marker-start="none" marker-end="none"/>
      <path d="M 97.872,31.36 L 97.872,44.384 L 96.053,44.384 L 96.053,47.481 L 102.761,47.481 L 102.761,44.384 L 100.942,44.384 L 100.942,31.36 L 97.872,31.36 Z" marker-start="none" marker-end="none"/>
      <path d="M 104.897,31.36 L 104.897,34.289 L 108.395,44.514 L 105.239,44.514 L 105.239,47.481 L 111.645,47.481 L 111.645,44.663 L 108.055,34.326 L 111.482,34.326 L 111.482,31.36 L 104.897,31.36 Z" marker-start="none" marker-end="none"/>
      <path d="M 112.609,31.36 L 112.609,47.481 L 118.748,47.481 L 118.748,44.364 L 115.731,44.364 L 115.731,41.23 L 118.62,41.23 L 118.62,38.192 L 115.731,38.192 L 115.731,34.495 L 118.943,34.495 L 118.943,31.36 L 112.609,31.36 Z" marker-start="none" marker-end="none"/>
      <path d="M 119.961,31.36 L 119.961,47.481 L 124.673,47.481 C 125.421,47.481 126,47.302 126.411,46.943 C 126.821,46.587 127.098,46.086 127.241,45.443 C 127.384,44.797 127.458,43.976 127.458,42.976 C 127.458,42.063 127.341,41.349 127.116,40.838 C 126.891,40.322 126.497,39.968 125.938,39.768 C 126.402,39.666 126.737,39.425 126.947,39.035 C 127.155,38.649 127.259,38.123 127.259,37.458 L 127.225,31.36 L 124.226,31.36 L 124.226,37.666 C 124.226,38.117 124.142,38.404 123.977,38.529 C 123.808,38.652 123.506,38.717 123.066,38.717 L 123.066,31.36 L 119.961,31.36 Z M 124.459,42.976 C 124.459,43.401 124.441,43.719 124.404,43.931 C 124.367,44.143 124.304,44.292 124.207,44.376 C 124.113,44.454 123.977,44.496 123.796,44.496 L 123.083,44.496 L 123.083,41.511 L 123.816,41.511 C 124.244,41.511 124.459,41.998 124.459,42.976 Z" marker-start="none" marker-end="none"/>
      <path d="M 129.313,32.403 C 128.667,33.196 128.349,34.314 128.349,35.752 L 128.349,43.427 C 128.349,44.815 128.667,45.861 129.313,46.569 C 129.954,47.277 130.894,47.628 132.131,47.628 C 133.369,47.628 134.308,47.277 134.949,46.569 C 135.593,45.861 135.913,44.815 135.913,43.427 L 135.913,35.752 C 135.913,34.301 135.593,33.184 134.949,32.394 C 134.308,31.605 133.369,31.209 132.131,31.209 C 130.894,31.209 129.954,31.609 129.313,32.403 Z M 132.685,34.551 C 132.78,34.802 132.825,35.152 132.825,35.601 L 132.825,43.482 C 132.825,43.834 132.784,44.116 132.693,44.336 C 132.602,44.555 132.422,44.663 132.148,44.663 C 131.636,44.663 131.381,44.259 131.381,43.443 L 131.381,35.584 C 131.381,35.12 131.433,34.769 131.542,34.533 C 131.649,34.294 131.847,34.177 132.131,34.177 C 132.405,34.177 132.589,34.301 132.685,34.551 Z" marker-start="none" marker-end="none"/>
     </g>
     <path d="M 97.719,22.11 L 97.719,29.149 L 108.265,29.149 L 108.265,22.11 L 97.719,22.11 Z" stroke="none" fill="#ffffff" stroke-width="0.468" stroke-linejoin="miter" marker-start="none" marker-end="none" stroke-miterlimit="79.8403193612775"/>
     <path d="M 108.265,22.11 L 108.265,29.149 L 118.494,29.149 L 118.494,22.11 L 108.265,22.11 Z" stroke="none" fill="#ffffff" stroke-width="0.468" stroke-linejoin="miter" marker-start="none" marker-end="none" stroke-miterlimit="79.8403193612775"/>
     <g id="Group_6" stroke="none" fill="#000000" fill-rule="nonzero" stroke-linejoin="round" stroke-linecap="round" stroke-width="0.304" stroke-miterlimit="79.8403193612775">
      <g id="Group_7">
       <path d="M 100.276,22.638 C 100.031,22.989 99.91,23.521 99.91,24.235 L 99.91,27.212 C 99.91,27.849 100.053,28.332 100.336,28.66 C 100.622,28.987 101.045,29.15 101.607,29.15 C 102.064,29.15 102.417,29.06 102.67,28.878 C 102.922,28.695 103.096,28.429 103.193,28.081 C 103.289,27.732 103.338,27.283 103.338,26.737 L 101.986,26.737 L 101.986,27.357 C 101.986,27.522 101.963,27.652 101.917,27.743 C 101.872,27.834 101.79,27.88 101.672,27.88 C 101.41,27.88 101.277,27.708 101.277,27.365 L 101.277,24.018 C 101.277,23.809 101.305,23.65 101.358,23.543 C 101.412,23.435 101.506,23.381 101.639,23.381 C 101.775,23.381 101.867,23.435 101.923,23.543 C 101.976,23.65 102.002,23.809 102.002,24.018 L 102.002,25.007 L 101.632,25.007 L 101.632,26.198 L 103.322,26.198 L 103.322,22.174 L 102.767,22.174 L 102.533,22.753 C 102.287,22.325 101.904,22.11 101.391,22.11 C 100.892,22.11 100.521,22.285 100.276,22.638 Z" marker-start="none" marker-end="none"/>
       <path d="M 103.682,22.174 L 104.349,29.086 L 106.691,29.086 L 107.351,22.174 L 106.04,22.174 L 105.944,23.294 L 105.107,23.294 L 105.025,22.174 L 103.682,22.174 Z M 105.839,24.396 L 105.533,27.912 L 105.469,27.912 L 105.211,24.396 L 105.839,24.396 Z" marker-start="none" marker-end="none"/>
       <path d="M 107.768,22.174 L 107.768,29.086 L 109.876,29.086 L 110.456,24.87 L 111.035,29.086 L 113.158,29.086 L 113.158,22.174 L 111.895,22.174 L 111.895,27.156 L 111.099,22.174 L 109.86,22.174 L 109.015,27.156 L 109.015,22.174 L 107.768,22.174 Z" marker-start="none" marker-end="none"/>
       <path d="M 113.772,22.174 L 113.772,29.086 L 116.538,29.086 L 116.538,27.75 L 115.18,27.75 L 115.18,26.407 L 116.483,26.407 L 116.483,25.104 L 115.18,25.104 L 115.18,23.519 L 116.627,23.519 L 116.627,22.174 L 113.772,22.174 Z" marker-start="none" marker-end="none"/>
      </g>
     </g>
     <path d="M 88.865,53.463 L 88.865,89.43 L 50.416,89.43 L 50.416,188.304 L 137.222,188.304 C 151.152,188.605 165.129,183.048 175.149,171.862 C 183.265,162.799 187.42,151.557 187.732,140.269 L 187.74,140.269 L 187.74,53.463 L 88.865,53.463 Z" stroke="none" stroke-opacity="0.607843" stroke-width="0.902" stroke-linejoin="miter" marker-start="none" marker-end="none" stroke-miterlimit="79.8403193612775" fill-opacity="0.607843"/>
     <g id="Group_8" fill-rule="nonzero" stroke-linejoin="round" stroke-linecap="round" stroke="none" stroke-width="0.422" fill="#000000" stroke-miterlimit="79.8403193612775">
      <g id="Group_9">
       <path d="M 86.293,120.145 C 86.35,120.145 86.406,120.135 86.462,120.113 C 86.518,120.091 86.572,120.054 86.623,120.002 L 87.564,118.991 C 87.152,118.461 86.636,118.062 86.016,117.792 C 85.396,117.523 84.663,117.388 83.816,117.388 C 83.039,117.388 82.343,117.52 81.728,117.784 C 81.113,118.049 80.591,118.414 80.163,118.88 C 79.735,119.345 79.406,119.898 79.177,120.536 C 78.947,121.175 78.833,121.869 78.833,122.618 C 78.833,123.38 78.964,124.081 79.226,124.72 C 79.488,125.359 79.854,125.91 80.324,126.373 C 80.794,126.837 81.357,127.197 82.012,127.454 C 82.667,127.712 83.39,127.84 84.181,127.84 C 84.565,127.84 84.926,127.806 85.265,127.738 C 85.604,127.67 85.921,127.577 86.216,127.457 C 86.511,127.338 86.782,127.195 87.03,127.029 C 87.278,126.862 87.498,126.678 87.69,126.477 L 86.89,125.403 C 86.839,125.337 86.778,125.278 86.708,125.224 C 86.637,125.17 86.539,125.143 86.413,125.143 C 86.329,125.143 86.249,125.162 86.174,125.199 C 86.099,125.237 86.02,125.282 85.936,125.336 C 85.851,125.39 85.759,125.448 85.658,125.512 C 85.558,125.575 85.438,125.633 85.3,125.687 C 85.162,125.741 85.001,125.786 84.816,125.824 C 84.631,125.861 84.415,125.88 84.167,125.88 C 83.736,125.88 83.343,125.804 82.988,125.652 C 82.632,125.5 82.327,125.282 82.072,124.999 C 81.817,124.716 81.618,124.373 81.475,123.971 C 81.332,123.568 81.261,123.117 81.261,122.616 C 81.261,122.092 81.332,121.626 81.475,121.219 C 81.618,120.812 81.812,120.469 82.058,120.191 C 82.303,119.912 82.59,119.701 82.918,119.556 C 83.245,119.41 83.596,119.338 83.97,119.338 C 84.186,119.338 84.382,119.348 84.56,119.37 C 84.738,119.391 84.903,119.427 85.055,119.478 C 85.207,119.53 85.352,119.596 85.49,119.678 C 85.628,119.76 85.767,119.862 85.907,119.984 C 85.964,120.031 86.024,120.069 86.09,120.1 C 86.155,120.13 86.223,120.145 86.293,120.145 Z" marker-start="none" marker-end="none"/>
       <path d="M 98.164,117.501 L 96.326,117.501 C 96.12,117.501 95.95,117.549 95.817,117.645 C 95.683,117.741 95.591,117.864 95.54,118.014 L 94.936,119.797 L 91.048,119.797 L 90.444,118.014 C 90.397,117.883 90.306,117.764 90.17,117.659 C 90.035,117.554 89.868,117.501 89.672,117.501 L 87.819,117.501 L 91.778,127.729 L 94.206,127.729 L 98.164,117.501 Z M 91.595,121.412 L 94.388,121.412 L 93.448,124.169 C 93.387,124.344 93.316,124.55 93.234,124.787 C 93.152,125.025 93.071,125.282 92.992,125.558 C 92.917,125.277 92.84,125.017 92.76,124.777 C 92.681,124.538 92.606,124.33 92.536,124.155 L 91.595,121.412 Z" marker-start="none" marker-end="none"/>
       <path d="M 101.363,121.284 L 101.363,117.501 L 98.99,117.501 L 98.99,127.727 L 102.317,127.727 C 103.056,127.727 103.687,127.651 104.209,127.499 C 104.73,127.347 105.156,127.135 105.486,126.863 C 105.816,126.591 106.056,126.27 106.205,125.9 C 106.355,125.53 106.43,125.127 106.43,124.691 C 106.43,124.359 106.386,124.045 106.297,123.75 C 106.208,123.455 106.076,123.182 105.9,122.931 C 105.725,122.68 105.509,122.457 105.254,122.26 C 104.999,122.063 104.706,121.902 104.374,121.775 C 104.533,121.696 104.681,121.598 104.819,121.481 C 104.957,121.364 105.078,121.222 105.181,121.053 L 107.356,117.501 L 105.209,117.501 C 104.811,117.501 104.526,117.651 104.352,117.95 L 102.654,120.919 C 102.579,121.05 102.491,121.144 102.391,121.2 C 102.29,121.257 102.149,121.285 101.966,121.284 L 101.363,121.284 Z M 101.363,122.919 L 102.317,122.919 C 102.64,122.919 102.915,122.96 103.142,123.042 C 103.369,123.124 103.555,123.238 103.7,123.383 C 103.845,123.528 103.95,123.697 104.016,123.892 C 104.081,124.086 104.114,124.295 104.114,124.52 C 104.114,124.969 103.968,125.32 103.675,125.573 C 103.383,125.826 102.93,125.952 102.317,125.952 L 101.363,125.952 L 101.363,122.919 Z" marker-start="none" marker-end="none"/>
       <path d="M 108.325,117.501 L 108.325,127.727 L 112.087,127.727 C 112.794,127.727 113.395,127.662 113.891,127.531 C 114.387,127.4 114.792,127.215 115.105,126.977 C 115.419,126.738 115.647,126.448 115.79,126.106 C 115.932,125.765 116.004,125.383 116.004,124.963 C 116.004,124.733 115.971,124.512 115.905,124.3 C 115.84,124.087 115.737,123.887 115.597,123.7 C 115.456,123.512 115.276,123.343 115.056,123.191 C 114.836,123.039 114.572,122.907 114.263,122.794 C 114.937,122.63 115.435,122.365 115.758,121.998 C 116.081,121.63 116.242,121.158 116.242,120.583 C 116.242,120.148 116.158,119.743 115.99,119.368 C 115.821,118.994 115.574,118.667 115.249,118.389 C 114.924,118.11 114.523,117.893 114.045,117.736 C 113.568,117.579 113.023,117.501 112.41,117.501 L 108.325,117.501 Z M 110.698,121.84 L 110.698,119.29 L 112.368,119.29 C 112.681,119.29 112.938,119.33 113.136,119.409 C 113.335,119.489 113.491,119.592 113.603,119.718 C 113.716,119.845 113.793,119.988 113.835,120.147 C 113.877,120.306 113.898,120.468 113.898,120.631 C 113.898,120.819 113.873,120.987 113.824,121.137 C 113.775,121.287 113.691,121.414 113.572,121.517 C 113.452,121.62 113.294,121.699 113.098,121.755 C 112.901,121.812 112.653,121.84 112.354,121.84 L 110.698,121.84 Z M 110.698,123.426 L 111.933,123.426 C 112.195,123.426 112.431,123.445 112.642,123.482 C 112.852,123.52 113.031,123.586 113.179,123.679 C 113.326,123.773 113.438,123.901 113.516,124.065 C 113.593,124.229 113.631,124.434 113.631,124.682 C 113.631,124.926 113.601,125.128 113.54,125.289 C 113.479,125.451 113.386,125.58 113.259,125.678 C 113.133,125.777 112.973,125.847 112.779,125.889 C 112.584,125.931 112.354,125.952 112.087,125.952 L 110.698,125.952 L 110.698,123.426 Z" marker-start="none" marker-end="none"/>
       <path d="M 127.623,122.618 C 127.623,121.878 127.495,121.19 127.24,120.554 C 126.985,119.918 126.626,119.364 126.163,118.894 C 125.7,118.423 125.142,118.055 124.489,117.788 C 123.836,117.521 123.112,117.388 122.317,117.388 C 121.521,117.388 120.796,117.521 120.141,117.788 C 119.486,118.055 118.926,118.423 118.46,118.894 C 117.995,119.364 117.634,119.918 117.379,120.554 C 117.124,121.19 116.997,121.878 116.997,122.618 C 116.997,123.357 117.124,124.045 117.379,124.681 C 117.634,125.318 117.995,125.87 118.46,126.338 C 118.926,126.806 119.486,127.174 120.141,127.44 C 120.796,127.707 121.521,127.84 122.317,127.84 C 123.112,127.84 123.836,127.706 124.489,127.437 C 125.142,127.168 125.7,126.799 126.163,126.331 C 126.626,125.863 126.985,125.311 127.24,124.674 C 127.495,124.038 127.623,123.352 127.623,122.618 Z M 125.195,122.618 C 125.195,123.123 125.129,123.578 124.998,123.982 C 124.867,124.387 124.679,124.73 124.433,125.01 C 124.187,125.291 123.887,125.506 123.531,125.656 C 123.176,125.805 122.771,125.88 122.317,125.88 C 121.858,125.88 121.45,125.805 121.092,125.656 C 120.734,125.506 120.432,125.291 120.187,125.01 C 119.941,124.73 119.753,124.387 119.622,123.982 C 119.491,123.578 119.425,123.123 119.425,122.618 C 119.425,122.108 119.491,121.651 119.622,121.246 C 119.753,120.841 119.941,120.499 120.187,120.218 C 120.432,119.937 120.734,119.723 121.092,119.576 C 121.45,119.429 121.858,119.355 122.317,119.355 C 122.771,119.355 123.176,119.429 123.531,119.576 C 123.887,119.723 124.187,119.937 124.433,120.218 C 124.679,120.499 124.867,120.841 124.998,121.246 C 125.129,121.651 125.195,122.108 125.195,122.618 Z" marker-start="none" marker-end="none"/>
       <path d="M 130.007,127.731 C 130.109,127.731 130.196,127.726 130.266,127.717 C 130.336,127.707 130.4,127.69 130.456,127.664 C 130.512,127.638 130.566,127.602 130.617,127.555 C 130.669,127.508 130.727,127.445 130.793,127.366 L 135.65,121.225 C 135.631,121.421 135.617,121.612 135.607,121.797 C 135.598,121.981 135.593,122.156 135.593,122.319 L 135.593,127.731 L 137.685,127.731 L 137.685,117.501 L 136.45,117.501 C 136.267,117.501 136.113,117.529 135.986,117.585 C 135.86,117.641 135.738,117.744 135.621,117.894 L 130.8,123.986 C 130.814,123.808 130.825,123.634 130.835,123.463 C 130.844,123.293 130.849,123.132 130.849,122.983 L 130.849,117.501 L 128.757,117.501 L 128.757,127.731 L 130.007,127.731 Z" marker-start="none" marker-end="none"/>
      </g>
      <g id="Group_10">
       <path d="M 93.367,113.418 L 93.367,111.591 L 89.17,111.591 L 89.17,109.203 L 92.384,109.203 L 92.384,107.448 L 89.17,107.448 L 89.17,105.015 L 93.367,105.015 L 93.367,103.188 L 86.783,103.188 L 86.783,113.418 L 93.367,113.418 Z" marker-start="none" marker-end="none"/>
       <path d="M 93.871,113.416 L 95.78,113.416 C 95.986,113.416 96.154,113.369 96.285,113.275 C 96.416,113.181 96.51,113.056 96.566,112.901 L 98.545,107.396 C 98.634,107.157 98.724,106.895 98.816,106.613 C 98.907,106.331 98.992,106.035 99.072,105.724 C 99.137,106.035 99.213,106.331 99.3,106.613 C 99.386,106.895 99.472,107.157 99.556,107.396 L 101.521,112.901 C 101.568,113.033 101.659,113.152 101.795,113.257 C 101.931,113.363 102.097,113.416 102.293,113.416 L 104.216,113.416 L 100.118,103.188 L 97.97,103.188 L 93.871,113.416 Z" marker-start="none" marker-end="none"/>
       <path d="M 111.64,113.418 L 111.64,111.591 L 107.443,111.591 L 107.443,109.203 L 110.657,109.203 L 110.657,107.448 L 107.443,107.448 L 107.443,105.015 L 111.64,105.015 L 111.64,103.188 L 105.056,103.188 L 105.056,113.418 L 111.64,113.418 Z" marker-start="none" marker-end="none"/>
       <path d="M 114.236,113.418 C 114.338,113.418 114.425,113.413 114.495,113.404 C 114.565,113.394 114.629,113.377 114.685,113.351 C 114.741,113.325 114.795,113.289 114.846,113.242 C 114.898,113.195 114.956,113.132 115.022,113.053 L 119.879,106.912 C 119.86,107.108 119.846,107.299 119.836,107.484 C 119.827,107.668 119.822,107.843 119.822,108.006 L 119.822,113.418 L 121.914,113.418 L 121.914,103.188 L 120.679,103.188 C 120.496,103.188 120.342,103.216 120.215,103.272 C 120.089,103.328 119.967,103.431 119.85,103.581 L 115.029,109.673 C 115.043,109.495 115.054,109.321 115.064,109.15 C 115.073,108.98 115.078,108.819 115.078,108.67 L 115.078,103.188 L 112.986,103.188 L 112.986,113.418 L 114.236,113.418 Z" marker-start="none" marker-end="none"/>
       <path d="M 131.022,113.418 L 131.022,111.536 L 128.144,111.536 L 128.144,103.19 L 125.772,103.19 L 125.772,111.536 L 122.894,111.536 L 122.894,113.418 L 131.022,113.418 Z" marker-start="none" marker-end="none"/>
      </g>
      <g id="Group_11">
       <path d="M 96.605,91.519 C 96.662,91.519 96.718,91.509 96.774,91.487 C 96.83,91.465 96.884,91.428 96.935,91.376 L 97.876,90.365 C 97.464,89.835 96.948,89.436 96.328,89.166 C 95.708,88.897 94.975,88.762 94.128,88.762 C 93.351,88.762 92.655,88.894 92.04,89.158 C 91.425,89.423 90.903,89.788 90.475,90.254 C 90.047,90.719 89.718,91.272 89.489,91.91 C 89.259,92.549 89.145,93.243 89.145,93.992 C 89.145,94.754 89.276,95.455 89.538,96.094 C 89.8,96.733 90.166,97.284 90.636,97.747 C 91.106,98.211 91.669,98.571 92.324,98.828 C 92.979,99.086 93.702,99.214 94.493,99.214 C 94.877,99.214 95.238,99.18 95.577,99.112 C 95.916,99.044 96.233,98.951 96.528,98.831 C 96.823,98.712 97.094,98.569 97.342,98.403 C 97.59,98.236 97.81,98.052 98.002,97.851 L 97.202,96.777 C 97.151,96.711 97.09,96.652 97.02,96.598 C 96.949,96.544 96.851,96.517 96.725,96.517 C 96.641,96.517 96.561,96.536 96.486,96.573 C 96.411,96.611 96.332,96.656 96.248,96.71 C 96.163,96.764 96.071,96.822 95.97,96.886 C 95.87,96.949 95.75,97.007 95.612,97.061 C 95.474,97.115 95.313,97.16 95.128,97.198 C 94.943,97.235 94.727,97.254 94.479,97.254 C 94.048,97.254 93.655,97.178 93.3,97.026 C 92.944,96.874 92.639,96.656 92.384,96.373 C 92.129,96.09 91.93,95.747 91.787,95.345 C 91.644,94.942 91.573,94.491 91.573,93.99 C 91.573,93.466 91.644,93 91.787,92.593 C 91.93,92.186 92.124,91.843 92.37,91.565 C 92.615,91.286 92.902,91.075 93.23,90.93 C 93.557,90.784 93.908,90.712 94.282,90.712 C 94.498,90.712 94.694,90.722 94.872,90.744 C 95.05,90.765 95.215,90.801 95.367,90.852 C 95.519,90.904 95.664,90.97 95.802,91.052 C 95.94,91.134 96.079,91.236 96.219,91.358 C 96.276,91.405 96.336,91.443 96.402,91.474 C 96.467,91.504 96.535,91.519 96.605,91.519 Z" marker-start="none" marker-end="none"/>
       <path d="M 108.476,88.875 L 106.638,88.875 C 106.432,88.875 106.262,88.923 106.129,89.019 C 105.995,89.115 105.903,89.238 105.852,89.388 L 105.248,91.171 L 101.36,91.171 L 100.756,89.388 C 100.709,89.257 100.618,89.138 100.482,89.033 C 100.347,88.928 100.18,88.875 99.984,88.875 L 98.131,88.875 L 102.09,99.103 L 104.518,99.103 L 108.476,88.875 Z M 101.907,92.786 L 104.7,92.786 L 103.76,95.543 C 103.699,95.718 103.628,95.924 103.546,96.161 C 103.464,96.399 103.383,96.656 103.304,96.932 C 103.229,96.651 103.152,96.391 103.072,96.151 C 102.993,95.912 102.918,95.704 102.848,95.529 L 101.907,92.786 Z" marker-start="none" marker-end="none"/>
       <path d="M 111.675,92.658 L 111.675,88.875 L 109.302,88.875 L 109.302,99.101 L 112.629,99.101 C 113.368,99.101 113.999,99.025 114.521,98.873 C 115.042,98.721 115.468,98.509 115.798,98.237 C 116.128,97.965 116.368,97.644 116.517,97.274 C 116.667,96.904 116.742,96.501 116.742,96.065 C 116.742,95.733 116.698,95.419 116.609,95.124 C 116.52,94.829 116.388,94.556 116.212,94.305 C 116.037,94.054 115.821,93.831 115.566,93.634 C 115.311,93.437 115.018,93.276 114.686,93.149 C 114.845,93.07 114.993,92.972 115.131,92.855 C 115.269,92.738 115.39,92.596 115.493,92.427 L 117.668,88.875 L 115.521,88.875 C 115.123,88.875 114.838,89.025 114.664,89.324 L 112.966,92.293 C 112.891,92.424 112.803,92.518 112.703,92.574 C 112.602,92.631 112.461,92.659 112.278,92.658 L 111.675,92.658 Z M 111.675,94.293 L 112.629,94.293 C 112.952,94.293 113.227,94.334 113.454,94.416 C 113.681,94.498 113.867,94.612 114.012,94.757 C 114.157,94.902 114.262,95.071 114.328,95.266 C 114.393,95.46 114.426,95.669 114.426,95.894 C 114.426,96.343 114.28,96.694 113.987,96.947 C 113.695,97.2 113.242,97.326 112.629,97.326 L 111.675,97.326 L 111.675,94.293 Z" marker-start="none" marker-end="none"/>
       <path d="M 127.916,93.993 C 127.916,93.254 127.788,92.572 127.533,91.947 C 127.278,91.322 126.919,90.781 126.456,90.325 C 125.993,89.869 125.435,89.513 124.782,89.258 C 124.129,89.003 123.405,88.875 122.61,88.875 L 118.637,88.875 L 118.637,99.105 L 122.61,99.105 C 123.405,99.105 124.129,98.976 124.782,98.719 C 125.435,98.461 125.993,98.105 126.456,97.651 C 126.919,97.197 127.278,96.658 127.533,96.033 C 127.788,95.408 127.916,94.728 127.916,93.993 Z M 125.487,93.993 C 125.487,94.499 125.422,94.955 125.291,95.362 C 125.16,95.769 124.972,96.114 124.726,96.397 C 124.48,96.68 124.18,96.898 123.824,97.05 C 123.468,97.202 123.064,97.278 122.61,97.278 L 121.024,97.278 L 121.024,90.702 L 122.61,90.702 C 123.064,90.702 123.468,90.778 123.824,90.93 C 124.18,91.082 124.48,91.299 124.726,91.582 C 124.972,91.866 125.16,92.211 125.291,92.618 C 125.422,93.025 125.487,93.483 125.487,93.993 Z" marker-start="none" marker-end="none"/>
      </g>
     </g>
    </g>
   </g>
  </g>
 </g>
</svg>
