<?xml version="1.0" standalone="no"?>
<!DOCTYPE svg PUBLIC "-//W3C//DTD SVG 1.1//EN" "http://www.w3.org/Graphics/SVG/1.1/DTD/svg11.dtd">
<!--Generator: Xara Designer (www.xara.com), SVG filter version: 6.6.0.0-->
<svg fill="none" fill-rule="evenodd" stroke="black" stroke-width="0.501" stroke-linejoin="bevel" stroke-miterlimit="10" font-family="Times New Roman" font-size="16" style="font-variant-ligatures:none" xmlns:xlink="http://www.w3.org/1999/xlink" xmlns="http://www.w3.org/2000/svg" version="1.1" overflow="visible" width="107.72pt" height="215.438pt" viewBox="3996.68 -1599.43 107.72 215.438">
 <defs>
	</defs>
 <g id="Grid 36x36mm" transform="scale(1 -1)"/>
 <g id="Layer 2 - grids" transform="scale(1 -1)"/>
 <g id="Layer 1" transform="scale(1 -1)">
  <path d="M 3996.68,1399.2 L 3996.68,1584.21 C 3996.68,1592.61 4003.49,1599.43 4011.89,1599.43 L 4089.18,1599.43 C 4097.58,1599.43 4104.4,1592.61 4104.4,1584.21 L 4104.4,1399.2 C 4104.4,1398.15 4104.29,1397.13 4104.09,1396.14 C 4102.87,1390.2 4098.19,1385.52 4092.25,1384.3 C 4091.26,1384.1 4090.23,1383.99 4089.18,1383.99 L 4011.89,1383.99 C 4003.49,1383.99 3996.68,1390.81 3996.68,1399.2 Z M 4103.51,1399.93 L 4103.51,1583.48 C 4103.51,1591.81 4096.74,1598.58 4088.41,1598.58 L 4012.66,1598.58 C 4004.33,1598.58 3997.57,1591.81 3997.57,1583.48 L 3997.57,1399.93 C 3997.57,1391.6 4004.33,1384.84 4012.66,1384.84 L 4088.41,1384.84 C 4096.74,1384.84 4103.51,1391.6 4103.51,1399.93 Z" stroke-linejoin="miter" stroke-width="0.802" stroke="none" fill="#4c4c4c" marker-start="none" marker-end="none"/>
  <g id="Group" stroke-linejoin="miter" stroke-linecap="round" stroke="none" stroke-width="0.034">
   <path d="M 4071.67,1490.08 L 4071.67,1479.9 L 4071.69,1479.9 C 4071.69,1477.38 4070.67,1474.86 4068.65,1473.02 C 4066.87,1471.39 4064.61,1470.58 4062.37,1470.58 L 4062.37,1470.59 L 4052.19,1470.59 L 4052.19,1467.78 L 4062.37,1467.78 L 4062.37,1467.79 C 4065.29,1467.78 4068.22,1468.83 4070.54,1470.95 C 4073.16,1473.34 4074.49,1476.63 4074.49,1479.9 L 4074.49,1479.9 L 4074.49,1490.08 L 4071.67,1490.08 Z" fill="#11a7e0" marker-start="none" marker-end="none"/>
   <path d="M 4079.14,1490.04 L 4079.14,1479.87 L 4079.16,1479.87 C 4079.16,1475.32 4077.31,1470.78 4073.68,1467.47 C 4070.47,1464.53 4066.41,1463.08 4062.37,1463.08 L 4062.37,1463.1 L 4052.19,1463.1 L 4052.19,1460.29 L 4062.37,1460.29 C 4067.08,1460.28 4071.81,1461.98 4075.57,1465.4 C 4079.8,1469.26 4081.95,1474.56 4081.95,1479.87 L 4081.95,1479.87 L 4081.95,1490.04 L 4079.14,1490.04 Z" fill="#ffcd36" marker-start="none" marker-end="none"/>
   <path d="M 4082.87,1490.04 L 4082.87,1479.86 L 4082.88,1479.86 C 4082.88,1474.3 4080.63,1468.76 4076.2,1464.71 C 4072.26,1461.12 4067.31,1459.35 4062.37,1459.35 L 4062.37,1459.37 L 4052.19,1459.37 L 4052.19,1456.55 L 4062.37,1456.55 C 4067.98,1456.55 4073.62,1458.57 4078.09,1462.64 C 4083.13,1467.24 4085.68,1473.55 4085.68,1479.86 L 4085.68,1490.04 L 4082.87,1490.04 Z" fill="#ff3718" marker-start="none" marker-end="none"/>
   <path d="M 4075.41,1490.07 L 4075.41,1479.89 L 4075.43,1479.89 C 4075.42,1476.36 4073.99,1472.82 4071.17,1470.25 C 4068.66,1467.96 4065.51,1466.84 4062.37,1466.84 L 4052.19,1466.84 L 4052.19,1464.03 L 4062.37,1464.03 L 4062.37,1464.04 C 4066.18,1464.04 4070.01,1465.41 4073.06,1468.18 C 4076.48,1471.31 4078.22,1475.6 4078.22,1479.89 L 4078.22,1490.07 L 4075.41,1490.07 Z" fill="#00d702" marker-start="none" marker-end="none"/>
   <path d="M 4071.68,1493.38 L 4071.68,1503.55 L 4071.69,1503.55 C 4071.69,1506.08 4070.67,1508.6 4068.66,1510.44 C 4066.86,1512.07 4064.61,1512.88 4062.36,1512.88 L 4062.36,1512.88 L 4052.19,1512.88 L 4052.19,1515.68 L 4062.36,1515.68 L 4062.36,1515.68 C 4065.29,1515.68 4068.22,1514.63 4070.54,1512.51 C 4073.16,1510.12 4074.49,1506.84 4074.49,1503.55 L 4074.49,1503.55 L 4074.49,1493.38 L 4071.68,1493.38 Z" fill="#11a7e0" marker-start="none" marker-end="none"/>
   <path d="M 4079.14,1493.38 L 4079.14,1503.55 L 4079.16,1503.55 C 4079.15,1508.1 4077.31,1512.64 4073.68,1515.95 C 4070.46,1518.89 4066.41,1520.34 4062.36,1520.34 L 4062.36,1520.32 L 4052.19,1520.32 L 4052.19,1523.14 L 4062.36,1523.14 C 4067.08,1523.14 4071.81,1521.45 4075.57,1518.02 C 4079.8,1514.16 4081.95,1508.86 4081.95,1503.55 L 4081.95,1503.55 L 4081.95,1493.38 L 4079.14,1493.38 Z" fill="#ffcd36" marker-start="none" marker-end="none"/>
   <path d="M 4082.87,1493.38 L 4082.87,1503.55 L 4082.88,1503.55 C 4082.88,1509.12 4080.63,1514.66 4076.2,1518.71 C 4072.26,1522.3 4067.31,1524.07 4062.36,1524.07 L 4062.36,1524.05 L 4052.19,1524.05 L 4052.19,1526.86 L 4062.36,1526.86 C 4067.98,1526.87 4073.62,1524.86 4078.09,1520.78 C 4083.12,1516.18 4085.68,1509.88 4085.68,1503.55 L 4085.68,1493.38 L 4082.87,1493.38 Z" fill="#ff3718" marker-start="none" marker-end="none"/>
   <path d="M 4075.41,1493.38 L 4075.41,1503.55 L 4075.42,1503.55 C 4075.42,1507.09 4073.99,1510.63 4071.17,1513.2 C 4068.67,1515.48 4065.51,1516.61 4062.36,1516.61 L 4052.19,1516.61 L 4052.19,1519.43 L 4062.36,1519.43 L 4062.36,1519.41 C 4066.18,1519.41 4070.01,1518.04 4073.06,1515.26 C 4076.48,1512.14 4078.22,1507.85 4078.22,1503.55 L 4078.22,1493.38 L 4075.41,1493.38 Z" fill="#00d702" marker-start="none" marker-end="none"/>
   <path d="M 4048.87,1512.8 L 4038.7,1512.8 L 4038.7,1512.81 C 4036.18,1512.81 4033.65,1511.79 4031.82,1509.78 C 4030.18,1507.99 4029.38,1505.73 4029.38,1503.49 L 4029.38,1503.49 L 4029.38,1493.32 L 4026.58,1493.32 L 4026.58,1503.49 L 4026.58,1503.49 C 4026.58,1506.41 4027.63,1509.34 4029.74,1511.67 C 4032.14,1514.28 4035.42,1515.61 4038.7,1515.61 L 4038.7,1515.61 L 4048.87,1515.61 L 4048.87,1512.8 Z" fill="#11a7e0" marker-start="none" marker-end="none"/>
   <path d="M 4048.87,1520.26 L 4038.7,1520.26 L 4038.7,1520.28 C 4034.15,1520.28 4029.61,1518.43 4026.31,1514.81 C 4023.36,1511.59 4021.91,1507.53 4021.91,1503.49 L 4021.94,1503.49 L 4021.94,1493.32 L 4019.12,1493.32 L 4019.12,1503.49 C 4019.12,1508.21 4020.81,1512.94 4024.23,1516.69 C 4028.1,1520.92 4033.39,1523.07 4038.7,1523.07 L 4038.7,1523.08 L 4048.87,1523.08 L 4048.87,1520.26 Z" fill="#ffcd36" marker-start="none" marker-end="none"/>
   <path d="M 4048.87,1523.99 L 4038.7,1523.99 L 4038.7,1524.01 C 4033.14,1524.01 4027.59,1521.75 4023.55,1517.32 C 4019.95,1513.39 4018.19,1508.43 4018.19,1503.49 L 4018.21,1503.49 L 4018.21,1493.32 L 4015.39,1493.32 L 4015.39,1503.49 C 4015.39,1509.11 4017.4,1514.74 4021.48,1519.21 C 4026.08,1524.25 4032.38,1526.8 4038.7,1526.8 L 4048.87,1526.8 L 4048.87,1523.99 Z" fill="#ff3718" marker-start="none" marker-end="none"/>
   <path d="M 4048.87,1516.53 L 4038.7,1516.53 L 4038.7,1516.55 C 4035.17,1516.54 4031.63,1515.11 4029.06,1512.29 C 4026.77,1509.79 4025.64,1506.63 4025.65,1503.49 L 4025.65,1493.32 L 4022.83,1493.32 L 4022.83,1503.49 L 4022.85,1503.49 C 4022.85,1507.3 4024.22,1511.13 4026.99,1514.18 C 4030.12,1517.6 4034.41,1519.34 4038.7,1519.34 L 4048.87,1519.34 L 4048.87,1516.53 Z" fill="#00d702" marker-start="none" marker-end="none"/>
   <path d="M 4048.87,1470.6 L 4038.7,1470.6 L 4038.7,1470.58 C 4036.18,1470.58 4033.65,1471.61 4031.82,1473.62 C 4030.18,1475.41 4029.38,1477.66 4029.38,1479.91 L 4029.38,1479.91 L 4029.38,1490.08 L 4026.58,1490.08 L 4026.58,1479.91 L 4026.58,1479.91 C 4026.58,1476.99 4027.63,1474.06 4029.74,1471.73 C 4032.14,1469.12 4035.42,1467.79 4038.7,1467.79 L 4038.7,1467.78 L 4048.87,1467.78 L 4048.87,1470.6 Z" fill="#11a7e0" marker-start="none" marker-end="none"/>
   <path d="M 4048.87,1463.14 L 4038.7,1463.14 L 4038.7,1463.12 C 4034.15,1463.12 4029.61,1464.96 4026.31,1468.59 C 4023.36,1471.81 4021.91,1475.87 4021.91,1479.91 L 4021.94,1479.91 L 4021.94,1490.08 L 4019.12,1490.08 L 4019.12,1479.91 C 4019.12,1475.19 4020.81,1470.46 4024.23,1466.7 C 4028.1,1462.47 4033.39,1460.32 4038.7,1460.32 L 4038.7,1460.32 L 4048.87,1460.32 L 4048.87,1463.14 Z" fill="#ffcd36" marker-start="none" marker-end="none"/>
   <path d="M 4048.87,1459.41 L 4038.7,1459.41 L 4038.7,1459.39 C 4033.14,1459.39 4027.59,1461.64 4023.55,1466.08 C 4019.95,1470.01 4018.19,1474.96 4018.19,1479.91 L 4018.21,1479.91 L 4018.21,1490.08 L 4015.39,1490.08 L 4015.39,1479.91 C 4015.39,1474.29 4017.4,1468.66 4021.48,1464.19 C 4026.08,1459.15 4032.38,1456.6 4038.7,1456.59 L 4048.87,1456.59 L 4048.87,1459.41 Z" fill="#ff3718" marker-start="none" marker-end="none"/>
   <path d="M 4048.87,1466.87 L 4038.7,1466.87 L 4038.7,1466.85 C 4035.17,1466.85 4031.63,1468.28 4029.06,1471.1 C 4026.77,1473.61 4025.64,1476.77 4025.65,1479.91 L 4025.65,1490.08 L 4022.83,1490.08 L 4022.83,1479.91 L 4022.85,1479.91 C 4022.85,1476.09 4024.22,1472.26 4026.99,1469.22 C 4030.12,1465.79 4034.41,1464.06 4038.7,1464.05 L 4048.87,1464.05 L 4048.87,1466.87 Z" fill="#00d702" marker-start="none" marker-end="none"/>
  </g>
  <g id="Group_1" fill="#000000" fill-rule="nonzero" stroke-linejoin="round" stroke-linecap="round" stroke="none" stroke-width="0.669">
   <g id="Group_2">
    <path d="M 4042.99,1481.96 L 4042.99,1501.46 L 4050.16,1501.46 C 4051.51,1501.46 4052.66,1501.34 4053.6,1501.09 C 4054.55,1500.84 4055.32,1500.49 4055.92,1500.03 C 4056.52,1499.58 4056.95,1499.02 4057.22,1498.37 C 4057.5,1497.72 4057.63,1496.99 4057.63,1496.19 C 4057.63,1495.75 4057.57,1495.33 4057.45,1494.92 C 4057.32,1494.52 4057.12,1494.14 4056.86,1493.78 C 4056.59,1493.42 4056.24,1493.1 4055.83,1492.81 C 4055.41,1492.52 4054.9,1492.27 4054.31,1492.05 C 4055.6,1491.74 4056.55,1491.23 4057.16,1490.53 C 4057.78,1489.83 4058.09,1488.93 4058.09,1487.84 C 4058.09,1487 4057.93,1486.23 4057.61,1485.52 C 4057.28,1484.8 4056.81,1484.18 4056.19,1483.65 C 4055.57,1483.12 4054.81,1482.7 4053.9,1482.4 C 4052.99,1482.11 4051.95,1481.96 4050.78,1481.96 L 4042.99,1481.96 Z M 4047.51,1490.23 L 4047.51,1485.37 L 4050.7,1485.37 C 4051.3,1485.37 4051.78,1485.44 4052.16,1485.6 C 4052.54,1485.75 4052.84,1485.94 4053.05,1486.18 C 4053.27,1486.43 4053.42,1486.7 4053.5,1487 C 4053.58,1487.31 4053.62,1487.61 4053.62,1487.93 C 4053.62,1488.28 4053.57,1488.61 4053.48,1488.89 C 4053.38,1489.18 4053.22,1489.42 4052.99,1489.62 C 4052.77,1489.81 4052.47,1489.96 4052.09,1490.07 C 4051.72,1490.18 4051.24,1490.23 4050.67,1490.23 L 4047.51,1490.23 Z M 4047.51,1493.26 L 4049.87,1493.26 C 4050.37,1493.26 4050.82,1493.29 4051.22,1493.37 C 4051.62,1493.44 4051.96,1493.56 4052.24,1493.74 C 4052.53,1493.92 4052.74,1494.16 4052.89,1494.48 C 4053.03,1494.79 4053.11,1495.18 4053.11,1495.65 C 4053.11,1496.12 4053.05,1496.5 4052.93,1496.81 C 4052.82,1497.12 4052.64,1497.37 4052.4,1497.55 C 4052.16,1497.74 4051.85,1497.88 4051.48,1497.95 C 4051.11,1498.04 4050.67,1498.08 4050.16,1498.08 L 4047.51,1498.08 L 4047.51,1493.26 Z" marker-start="none" marker-end="none"/>
   </g>
  </g>
 </g>
</svg>
