<?xml version="1.0" standalone="no"?>
<!DOCTYPE svg PUBLIC "-//W3C//DTD SVG 1.1//EN" "http://www.w3.org/Graphics/SVG/1.1/DTD/svg11.dtd">
<!--Generator: Xara Designer (www.xara.com), SVG filter version: 6.6.0.0-->
<svg fill="none" fill-rule="evenodd" stroke="black" stroke-width="0.501" stroke-linejoin="bevel" stroke-miterlimit="10" font-family="Times New Roman" font-size="16" style="font-variant-ligatures:none" xmlns:xlink="http://www.w3.org/1999/xlink" xmlns="http://www.w3.org/2000/svg" version="1.1" overflow="visible" width="215.435pt" height="215.436pt" viewBox="31.569 -574.755 215.435 215.436">
 <defs>
	</defs>
 <g id="Page background" transform="scale(1 -1)"/>
 <g id="Layer 1" transform="scale(1 -1)">
  <g id="Group">
   <g id="Group_1">
    <g id="Group_2" stroke-linejoin="miter" stroke="none" stroke-width="0.802">
     <path d="M 31.569,559.542 L 31.569,374.532 C 31.569,366.135 38.384,359.319 46.781,359.319 L 231.792,359.319 C 240.189,359.319 247.004,366.135 247.004,374.532 L 247.004,559.542 C 247.004,567.939 240.189,574.755 231.792,574.755 L 46.781,574.755 C 38.384,574.755 31.569,567.939 31.569,559.542 Z" fill="#7f7f7f" marker-start="none" marker-end="none"/>
     <path d="M 32.278,558.933 L 32.278,375.141 C 32.278,366.799 39.048,360.028 47.39,360.028 L 231.183,360.028 C 239.525,360.028 246.295,366.799 246.295,375.141 L 246.295,558.933 C 246.295,567.275 239.525,574.046 231.183,574.046 L 47.39,574.046 C 39.048,574.046 32.278,567.275 32.278,558.933 Z" marker-start="none" marker-end="none"/>
     <path d="M 32.278,558.933 L 32.278,375.141 C 32.278,366.799 39.048,360.028 47.39,360.028 L 231.183,360.028 C 239.525,360.028 246.295,366.799 246.295,375.141 L 246.295,558.933 C 246.295,567.275 239.525,574.046 231.183,574.046 L 47.39,574.046 C 39.048,574.046 32.278,567.275 32.278,558.933 Z" fill="#ffffff" marker-start="none" marker-end="none"/>
    </g>
    <g id="Group_3" stroke="#30336b" stroke-linejoin="miter" stroke-linecap="round">
     <path d="M 47.118,427.682 L 47.118,393.79 L 150.706,393.79 L 150.706,427.682 L 47.118,427.682 Z" fill="#30336b" stroke-width="1.738" marker-start="none" marker-end="none"/>
     <path d="M 47.118,429.025 L 47.118,419.215 C 47.118,416.644 49.202,414.567 51.764,414.567 L 146.056,414.567 C 148.618,414.567 150.706,416.644 150.706,419.215 L 150.706,429.025 C 150.706,431.601 148.618,433.679 146.056,433.679 L 51.764,433.679 C 49.202,433.679 47.118,431.601 47.118,429.025 Z" fill="#30336b" stroke-width="1.738" marker-start="none" marker-end="none"/>
     <path d="M 47.815,400.132 L 47.815,382.487 C 47.815,377.874 51.559,374.128 56.177,374.128 L 223.223,374.128 C 227.836,374.128 231.584,377.874 231.584,382.487 L 231.584,400.132 C 231.584,404.75 227.836,408.498 223.223,408.498 L 56.177,408.498 C 51.559,408.498 47.815,404.75 47.815,400.132 Z" fill="#ffffff" stroke-width="3.13" marker-start="none" marker-end="none"/>
    </g>
    <g id="Group_4" stroke-linejoin="miter">
     <path d="M 91.069,460.716 C 85.169,467.694 86.048,478.154 93.043,484.063 C 100.025,489.955 110.478,489.076 116.382,482.089 C 122.291,475.097 121.405,464.643 114.408,458.738 C 107.426,452.843 96.969,453.722 91.069,460.716 Z" stroke="none" fill="#000000" stroke-width="0.686" marker-start="none" marker-end="none"/>
     <path d="M 91.847,461.325 C 85.956,468.323 86.828,478.782 93.821,484.675 C 100.81,490.584 111.262,489.701 117.178,482.708 C 123.075,475.726 122.19,465.274 115.196,459.369 C 108.217,453.463 97.753,454.342 91.847,461.325 Z" stroke="#b2b2b2" stroke-width="3.752" marker-start="none" marker-end="none"/>
    </g>
    <g id="Group_5" stroke-linejoin="miter">
     <path d="M 50.384,460.703 C 44.484,467.692 45.363,478.16 52.36,484.051 C 59.343,489.962 69.797,489.079 75.699,482.091 C 81.61,475.102 80.724,464.642 73.726,458.738 C 66.743,452.839 56.284,453.722 50.384,460.703 Z" stroke="none" fill="#ffffff" stroke-width="0.689" marker-start="none" marker-end="none"/>
     <path d="M 51.164,461.338 C 45.271,468.33 46.144,478.776 53.136,484.689 C 60.127,490.573 70.582,489.701 76.495,482.713 C 82.393,475.726 81.509,465.26 74.515,459.36 C 67.534,453.461 57.069,454.339 51.164,461.338 Z" stroke="#539bc5" stroke-width="3.752" marker-start="none" marker-end="none"/>
    </g>
    <g id="Group_6" stroke-linejoin="miter">
     <path d="M 52.924,517.353 C 44.027,527.893 45.352,543.679 55.904,552.563 C 66.435,561.477 82.2,560.145 91.101,549.607 C 100.015,539.067 98.679,523.293 88.125,514.39 C 77.594,505.494 61.822,506.825 52.924,517.353 Z" stroke="none" fill="#ffffff" stroke-width="1.039" marker-start="none" marker-end="none"/>
     <path d="M 54.101,518.31 C 45.214,528.855 46.53,544.608 57.074,553.525 C 67.617,562.398 83.384,561.083 92.301,550.545 C 101.195,540.008 99.862,524.225 89.315,515.328 C 78.787,506.432 63.006,507.756 54.101,518.31 Z" stroke="#539bc5" stroke-width="5.658" marker-start="none" marker-end="none"/>
    </g>
    <g id="Group_7" fill-rule="nonzero" stroke-linejoin="round" stroke-linecap="round" stroke="none" stroke-width="0.485" fill="#b2b2b2">
     <g id="Group_8">
      <path d="M 103.965,479.277 C 104.666,479.277 105.29,479.178 105.836,478.979 C 106.381,478.781 106.843,478.512 107.22,478.173 C 107.596,477.834 107.882,477.442 108.077,476.995 C 108.272,476.549 108.37,476.078 108.37,475.583 C 108.37,475.134 108.324,474.738 108.233,474.395 C 108.142,474.053 108.007,473.757 107.829,473.506 C 107.65,473.255 107.429,473.042 107.166,472.866 C 106.903,472.69 106.602,472.544 106.265,472.426 C 107.837,471.882 108.623,470.815 108.623,469.227 C 108.623,468.475 108.486,467.821 108.214,467.263 C 107.941,466.705 107.575,466.242 107.117,465.873 C 106.659,465.503 106.128,465.226 105.524,465.041 C 104.92,464.856 104.289,464.764 103.633,464.764 C 102.958,464.764 102.357,464.837 101.83,464.983 C 101.304,465.129 100.836,465.357 100.427,465.665 C 100.018,465.974 99.659,466.368 99.35,466.849 C 99.042,467.33 98.774,467.901 98.546,468.564 L 99.891,469.111 C 100.008,469.164 100.123,469.199 100.237,469.219 C 100.351,469.238 100.463,469.248 100.573,469.248 C 100.781,469.248 100.968,469.207 101.134,469.126 C 101.299,469.045 101.424,468.926 101.509,468.77 C 101.801,468.23 102.111,467.838 102.439,467.595 C 102.768,467.351 103.152,467.229 103.594,467.229 C 103.932,467.229 104.226,467.286 104.476,467.4 C 104.726,467.513 104.934,467.659 105.1,467.838 C 105.266,468.017 105.391,468.221 105.475,468.448 C 105.56,468.676 105.602,468.907 105.602,469.141 C 105.602,469.446 105.581,469.721 105.539,469.965 C 105.496,470.209 105.378,470.419 105.183,470.594 C 104.988,470.77 104.694,470.905 104.301,470.999 C 103.908,471.093 103.36,471.14 102.659,471.14 L 102.659,473.225 C 103.25,473.225 103.727,473.27 104.091,473.361 C 104.455,473.452 104.736,473.577 104.934,473.737 C 105.132,473.896 105.264,474.089 105.329,474.317 C 105.394,474.544 105.426,474.794 105.426,475.067 C 105.426,475.626 105.292,476.057 105.022,476.359 C 104.752,476.661 104.341,476.813 103.789,476.813 C 103.562,476.813 103.354,476.78 103.165,476.715 C 102.977,476.65 102.808,476.562 102.659,476.452 C 102.509,476.341 102.381,476.211 102.274,476.062 C 102.167,475.912 102.081,475.75 102.016,475.574 C 101.912,475.282 101.78,475.071 101.621,474.941 C 101.462,474.811 101.246,474.745 100.973,474.745 C 100.908,474.745 100.838,474.749 100.763,474.755 C 100.689,474.762 100.612,474.771 100.534,474.784 L 98.936,475.067 C 99.04,475.775 99.24,476.393 99.535,476.919 C 99.831,477.445 100.198,477.884 100.637,478.235 C 101.075,478.585 101.577,478.847 102.142,479.019 C 102.707,479.191 103.315,479.277 103.965,479.277 Z" marker-start="none" marker-end="none"/>
     </g>
    </g>
    <g id="Group_9" fill-rule="nonzero" stroke-linejoin="round" stroke-linecap="round" stroke="none" stroke-width="0.485" fill="#000000">
     <g id="Group_10">
      <path d="M 67.582,470.436 L 69.043,470.436 L 69.043,468.741 C 69.043,468.591 68.993,468.462 68.892,468.351 C 68.792,468.241 68.647,468.185 68.459,468.185 L 67.582,468.185 L 67.582,464.921 L 64.95,464.921 L 64.95,468.185 L 59.239,468.185 C 59.051,468.185 58.88,468.244 58.728,468.361 C 58.575,468.478 58.479,468.624 58.44,468.799 L 58.128,470.291 L 64.697,479.123 L 67.582,479.123 L 67.582,470.436 Z M 64.95,474.14 C 64.95,474.368 64.958,474.613 64.975,474.876 C 64.991,475.139 65.015,475.41 65.048,475.69 L 61.296,470.436 L 64.95,470.436 L 64.95,474.14 Z" marker-start="none" marker-end="none"/>
     </g>
    </g>
    <g id="Group_11" fill="#ff3718" stroke-linecap="round" stroke="none">
     <path d="M 246.486,462.11 L 246.486,453.576 L 197.323,453.576 L 197.323,462.111 L 246.486,462.11 Z" stroke-width="0.103" stroke-linejoin="miter" marker-start="none" marker-end="none"/>
     <path d="M 146.881,482.342 C 159.148,468.903 175.962,462.074 192.835,462.071 L 192.835,453.591 C 173.663,453.597 154.55,461.347 140.616,476.616 C 128.243,490.177 122.141,507.254 122.146,524.277 L 130.632,524.277 C 130.625,509.295 135.994,494.268 146.881,482.342 Z" stroke-width="0.541" stroke-linejoin="round" marker-start="none" marker-end="none"/>
     <path d="M 126.373,562.23 L 128.491,559.185 L 130.613,556.133 L 130.666,556.132 L 130.666,528.855 L 122.13,528.856 L 122.13,556.132 L 124.25,559.185 L 126.373,562.23 Z" stroke-width="0.103" stroke-linejoin="miter" marker-start="none" marker-end="none"/>
    </g>
    <g id="Group_12" stroke-linecap="round" stroke="none" fill="#e5e5e5">
     <path d="M 137.923,562.234 L 140.043,559.187 L 142.164,556.132 L 137.923,556.132 L 133.682,556.136 L 135.804,559.188 L 137.923,562.234 Z M 142.187,556.132 L 142.188,528.855 L 133.653,528.855 L 133.653,556.132 L 142.187,556.132 Z" stroke-width="0.103" stroke-linejoin="miter" marker-start="none" marker-end="none"/>
     <path d="M 155.235,489.964 C 165.275,478.973 179.03,473.386 192.835,473.38 L 192.835,464.9 C 176.727,464.905 160.678,471.419 148.969,484.247 C 138.575,495.633 133.455,509.976 133.458,524.276 L 141.944,524.277 C 141.934,512.02 146.329,499.728 155.235,489.964 Z" stroke-width="0.453" stroke-linejoin="round" marker-start="none" marker-end="none"/>
     <path d="M 246.486,473.412 L 246.486,464.881 L 197.323,464.881 L 197.323,473.413 L 246.486,473.412 Z" stroke-width="0.103" stroke-linejoin="miter" marker-start="none" marker-end="none"/>
    </g>
    <g id="Group_13" fill="#00d702" stroke-linecap="round" stroke="none">
     <path d="M 149.239,562.234 L 151.354,559.188 L 153.476,556.132 L 149.235,556.132 L 144.992,556.136 L 147.112,559.188 L 149.239,562.234 Z M 153.486,556.132 L 153.485,528.855 L 144.95,528.855 L 144.95,556.132 L 153.486,556.132 Z" stroke-width="0.103" stroke-linejoin="miter" marker-start="none" marker-end="none"/>
     <path d="M 246.486,484.71 L 246.486,476.18 L 197.324,476.18 L 197.323,484.711 L 246.486,484.71 Z" stroke-width="0.103" stroke-linejoin="miter" marker-start="none" marker-end="none"/>
     <path d="M 163.59,497.591 C 171.397,489.039 182.102,484.7 192.835,484.693 L 192.834,476.208 C 179.793,476.212 166.803,481.485 157.324,491.874 C 148.913,501.089 144.765,512.705 144.767,524.277 L 153.249,524.277 C 153.249,514.744 156.663,505.18 163.59,497.591 Z" stroke-width="0.368" stroke-linejoin="round" marker-start="none" marker-end="none"/>
    </g>
    <g id="Group_14" fill="#e5e5e5" stroke-linecap="round" stroke="none">
     <path d="M 246.486,496.007 L 246.486,487.473 L 197.322,487.473 L 197.323,496.007 L 246.486,496.007 Z" stroke-width="0.103" stroke-linejoin="miter" marker-start="none" marker-end="none"/>
     <path d="M 171.945,505.212 C 177.523,499.105 185.161,496.005 192.834,496.002 L 192.835,487.515 C 182.865,487.525 172.926,491.557 165.683,499.495 C 159.244,506.545 156.073,515.421 156.077,524.277 L 164.565,524.277 C 164.558,517.47 167,510.638 171.945,505.212 Z" stroke-width="0.281" stroke-linejoin="round" marker-start="none" marker-end="none"/>
     <path d="M 160.292,562.23 L 162.424,559.186 L 164.565,556.133 L 164.565,556.133 L 164.565,528.856 L 156.026,528.855 L 156.026,556.132 L 156.026,556.132 L 158.156,559.187 L 160.292,562.23 Z" stroke-width="0.103" stroke-linejoin="miter" marker-start="none" marker-end="none"/>
    </g>
    <g id="Group_15" stroke-linejoin="miter">
     <path d="M 185.083,517.8 C 176.186,528.34 177.511,544.126 188.063,553.009 C 198.594,561.924 214.359,560.592 223.26,550.055 C 232.174,539.514 230.838,523.74 220.285,514.837 C 209.753,505.941 193.981,507.272 185.083,517.8 Z" stroke="none" fill="#000000" stroke-width="1.039" marker-start="none" marker-end="none"/>
     <path d="M 186.26,518.757 C 177.373,529.302 178.689,545.054 189.233,553.972 C 199.777,562.844 215.543,561.53 224.46,550.993 C 233.354,540.455 232.021,524.672 221.474,515.775 C 210.946,506.879 195.165,508.203 186.26,518.757 Z" stroke="#b2b2b2" stroke-width="5.658" marker-start="none" marker-end="none"/>
    </g>
    <g id="Group_16" stroke-linejoin="miter">
     <path d="M 207.148,465.985 C 202.623,471.341 203.3,479.357 208.657,483.88 C 214.013,488.405 222.033,487.733 226.553,482.375 C 231.078,477.018 230.403,468.998 225.044,464.479 C 219.69,459.951 211.67,460.634 207.148,465.985 Z" stroke="none" fill="#ffffff" stroke-width="0.526" marker-start="none" marker-end="none"/>
     <path d="M 207.751,466.467 C 203.227,471.816 203.903,479.838 209.259,484.359 C 214.618,488.887 222.634,488.209 227.157,482.85 C 231.686,477.499 231.009,469.476 225.649,464.952 C 220.29,460.431 212.274,461.105 207.751,466.467 Z" fill="none" stroke="#539bc5" stroke-width="2.872" marker-start="none" marker-end="none"/>
    </g>
    <g id="Group_17" stroke-linejoin="miter">
     <path d="M 168.814,476.302 C 163.463,471.78 155.443,472.457 150.916,477.813 C 146.4,483.17 147.073,491.189 152.43,495.713 C 157.785,500.236 165.802,499.556 170.325,494.202 C 174.849,488.845 174.173,480.827 168.814,476.302 Z" stroke="none" fill="#ffffff" stroke-width="0.526" marker-start="none" marker-end="none"/>
     <path d="M 168.336,476.91 C 162.982,472.383 154.966,473.057 150.442,478.417 C 145.918,483.775 146.591,491.79 151.954,496.315 C 157.309,500.842 165.326,500.158 169.852,494.807 C 174.377,489.447 173.696,481.432 168.336,476.91 Z" fill="none" stroke="#539bc5" stroke-width="2.872" marker-start="none" marker-end="none"/>
    </g>
    <g id="Group_18" stroke-linejoin="miter">
     <path d="M 133.042,535.56 C 128.518,540.916 129.197,548.933 134.552,553.461 C 139.912,557.982 147.932,557.304 152.455,551.946 C 156.983,546.593 156.3,538.571 150.944,534.052 C 145.585,529.533 137.569,530.207 133.042,535.56 Z" stroke="none" fill="#ffffff" stroke-width="0.526" marker-start="none" marker-end="none"/>
     <path d="M 133.649,536.044 C 129.125,541.395 129.801,549.415 135.161,553.939 C 140.52,558.46 148.535,557.786 153.058,552.426 C 157.585,547.073 156.907,539.053 151.551,534.532 C 146.188,530.007 138.172,530.683 133.649,536.044 Z" fill="none" stroke="#539bc5" stroke-width="2.872" marker-start="none" marker-end="none"/>
    </g>
    <g id="Group_19" fill-rule="nonzero" stroke-linejoin="round" stroke-linecap="round" stroke="none" stroke-width="0.387" fill="#000000">
     <g id="Group_20">
      <path d="M 213.853,478.103 L 213.853,475.021 L 216.732,475.021 L 216.732,473.292 L 213.853,473.292 L 213.853,470.195 L 211.892,470.195 L 211.892,473.292 L 209.028,473.292 L 209.028,475.021 L 211.892,475.021 L 211.892,478.103 L 213.853,478.103 Z" marker-start="none" marker-end="none"/>
      <path d="M 219.363,470.67 L 221.542,470.67 L 221.542,476.39 C 221.542,476.671 221.55,476.964 221.565,477.27 L 220.281,476.203 C 220.198,476.136 220.115,476.088 220.032,476.059 C 219.949,476.031 219.869,476.017 219.791,476.017 C 219.656,476.017 219.536,476.046 219.429,476.106 C 219.323,476.166 219.244,476.229 219.192,476.297 L 218.429,477.309 L 221.962,480.274 L 223.955,480.274 L 223.955,470.67 L 225.822,470.67 L 225.822,468.926 L 219.363,468.926 L 219.363,470.67 Z" marker-start="none" marker-end="none"/>
     </g>
    </g>
    <g id="Group_21" fill-rule="nonzero" stroke-linejoin="round" stroke-linecap="round" stroke="none" stroke-width="0.387" fill="#000000">
     <g id="Group_22">
      <path d="M 155.824,489.51 L 155.824,486.428 L 158.703,486.428 L 158.703,484.699 L 155.824,484.699 L 155.824,481.602 L 153.863,481.602 L 153.863,484.699 L 150.999,484.699 L 150.999,486.428 L 153.863,486.428 L 153.863,489.51 L 155.824,489.51 Z" marker-start="none" marker-end="none"/>
      <path d="M 164.058,491.797 C 164.618,491.797 165.123,491.715 165.571,491.552 C 166.02,491.389 166.403,491.162 166.719,490.871 C 167.036,490.581 167.278,490.234 167.447,489.832 C 167.616,489.43 167.7,488.988 167.7,488.505 C 167.7,488.09 167.642,487.706 167.525,487.353 C 167.408,487 167.249,486.664 167.046,486.345 C 166.844,486.026 166.609,485.718 166.342,485.419 C 166.075,485.121 165.791,484.819 165.49,484.513 L 163.272,482.24 C 163.557,482.324 163.839,482.39 164.116,482.44 C 164.394,482.49 164.654,482.514 164.898,482.514 L 167.015,482.514 C 167.274,482.514 167.479,482.443 167.63,482.3 C 167.78,482.157 167.856,481.969 167.856,481.735 L 167.856,480.333 L 159.887,480.333 L 159.887,481.111 C 159.887,481.262 159.918,481.423 159.98,481.594 C 160.042,481.765 160.151,481.921 160.307,482.061 L 163.575,485.353 C 163.856,485.634 164.099,485.901 164.307,486.155 C 164.514,486.409 164.686,486.66 164.821,486.906 C 164.955,487.153 165.057,487.399 165.124,487.646 C 165.191,487.892 165.225,488.153 165.225,488.428 C 165.225,488.879 165.118,489.226 164.902,489.467 C 164.687,489.708 164.359,489.829 163.918,489.829 C 163.736,489.829 163.57,489.803 163.42,489.751 C 163.269,489.699 163.134,489.629 163.015,489.541 C 162.896,489.453 162.793,489.349 162.708,489.23 C 162.622,489.11 162.553,488.981 162.501,488.841 C 162.418,488.607 162.313,488.439 162.186,488.335 C 162.059,488.231 161.887,488.179 161.669,488.179 C 161.617,488.179 161.561,488.182 161.501,488.187 C 161.442,488.192 161.381,488.2 161.319,488.21 L 160.042,488.432 C 160.125,488.998 160.285,489.492 160.521,489.912 C 160.757,490.333 161.05,490.683 161.4,490.964 C 161.75,491.244 162.151,491.453 162.603,491.591 C 163.054,491.728 163.539,491.797 164.058,491.797 Z" marker-start="none" marker-end="none"/>
     </g>
    </g>
    <g id="Group_23" fill-rule="nonzero" stroke-linejoin="round" stroke-linecap="round" stroke="none" stroke-width="0.387" fill="#000000">
     <g id="Group_24">
      <path d="M 139.782,547.737 L 139.782,544.655 L 142.661,544.655 L 142.661,542.926 L 139.782,542.926 L 139.782,539.829 L 137.821,539.829 L 137.821,542.926 L 134.957,542.926 L 134.957,544.655 L 137.821,544.655 L 137.821,547.737 L 139.782,547.737 Z" marker-start="none" marker-end="none"/>
      <path d="M 145.292,540.304 L 147.471,540.304 L 147.471,546.024 C 147.471,546.305 147.479,546.598 147.494,546.904 L 146.21,545.837 C 146.127,545.77 146.044,545.722 145.961,545.693 C 145.878,545.665 145.798,545.651 145.72,545.651 C 145.585,545.651 145.465,545.68 145.358,545.74 C 145.252,545.8 145.173,545.863 145.121,545.931 L 144.358,546.943 L 147.891,549.908 L 149.884,549.908 L 149.884,540.304 L 151.751,540.304 L 151.751,538.56 L 145.292,538.56 L 145.292,540.304 Z" marker-start="none" marker-end="none"/>
     </g>
    </g>
    <g id="Group_25" fill-rule="nonzero" stroke-linejoin="round" stroke-linecap="round" stroke="none" stroke-width="0.319" fill="#ffffff">
     <g id="Group_26">
      <path d="M 62.316,420.484 C 62.316,419.81 62.2,419.189 61.967,418.62 C 61.735,418.051 61.408,417.558 60.986,417.143 C 60.564,416.727 60.056,416.403 59.462,416.171 C 58.867,415.938 58.208,415.822 57.483,415.822 L 53.865,415.822 L 53.865,425.139 L 57.483,425.139 C 58.208,425.139 58.867,425.022 59.462,424.787 C 60.056,424.553 60.564,424.229 60.986,423.815 C 61.408,423.402 61.735,422.91 61.967,422.341 C 62.2,421.772 62.316,421.153 62.316,420.484 Z M 60.104,420.484 C 60.104,420.944 60.044,421.359 59.925,421.73 C 59.806,422.101 59.634,422.415 59.41,422.673 C 59.187,422.931 58.913,423.129 58.589,423.268 C 58.265,423.406 57.897,423.475 57.483,423.475 L 56.039,423.475 L 56.039,417.486 L 57.483,417.486 C 57.897,417.486 58.265,417.555 58.589,417.693 C 58.913,417.832 59.187,418.03 59.41,418.288 C 59.634,418.546 59.806,418.86 59.925,419.231 C 60.044,419.602 60.104,420.019 60.104,420.484 Z" marker-start="none" marker-end="none"/>
      <path d="M 65.719,415.822 L 63.546,415.822 L 63.546,425.139 L 65.719,425.139 L 65.719,415.822 Z" marker-start="none" marker-end="none"/>
      <path d="M 72.634,423.244 C 72.57,423.141 72.503,423.065 72.432,423.014 C 72.362,422.962 72.271,422.937 72.161,422.937 C 72.063,422.937 71.957,422.968 71.844,423.03 C 71.731,423.091 71.603,423.161 71.461,423.237 C 71.318,423.314 71.155,423.383 70.972,423.445 C 70.788,423.507 70.58,423.538 70.345,423.538 C 69.94,423.538 69.639,423.452 69.441,423.279 C 69.243,423.106 69.143,422.873 69.143,422.579 C 69.143,422.391 69.203,422.236 69.322,422.112 C 69.442,421.989 69.598,421.882 69.792,421.792 C 69.986,421.703 70.208,421.621 70.457,421.546 C 70.706,421.472 70.961,421.389 71.221,421.297 C 71.481,421.205 71.736,421.098 71.985,420.974 C 72.234,420.851 72.456,420.693 72.65,420.501 C 72.844,420.309 73,420.076 73.12,419.801 C 73.239,419.526 73.299,419.195 73.299,418.807 C 73.299,418.376 73.224,417.974 73.075,417.599 C 72.926,417.224 72.709,416.896 72.426,416.617 C 72.143,416.338 71.793,416.119 71.378,415.959 C 70.962,415.799 70.49,415.719 69.962,415.719 C 69.672,415.719 69.377,415.749 69.076,415.809 C 68.776,415.868 68.485,415.952 68.204,416.061 C 67.923,416.17 67.658,416.299 67.411,416.448 C 67.164,416.597 66.949,416.763 66.765,416.947 L 67.405,417.957 C 67.452,418.034 67.518,418.095 67.603,418.142 C 67.688,418.189 67.78,418.213 67.878,418.213 C 68.006,418.213 68.135,418.172 68.265,418.091 C 68.394,418.01 68.542,417.921 68.706,417.823 C 68.87,417.725 69.058,417.635 69.271,417.554 C 69.484,417.473 69.736,417.433 70.026,417.433 C 70.418,417.433 70.722,417.519 70.94,417.691 C 71.157,417.864 71.266,418.138 71.266,418.513 C 71.266,418.731 71.206,418.907 71.087,419.044 C 70.967,419.18 70.811,419.293 70.617,419.383 C 70.423,419.472 70.202,419.551 69.955,419.619 C 69.708,419.687 69.455,419.763 69.195,419.846 C 68.935,419.929 68.681,420.031 68.434,420.153 C 68.187,420.274 67.966,420.434 67.772,420.632 C 67.578,420.831 67.422,421.078 67.302,421.374 C 67.183,421.67 67.123,422.036 67.123,422.471 C 67.123,422.82 67.194,423.161 67.334,423.494 C 67.475,423.826 67.682,424.122 67.954,424.382 C 68.227,424.642 68.562,424.85 68.958,425.006 C 69.354,425.161 69.808,425.239 70.32,425.239 C 70.605,425.239 70.883,425.217 71.154,425.172 C 71.424,425.127 71.681,425.061 71.924,424.973 C 72.167,424.886 72.394,424.782 72.605,424.66 C 72.816,424.539 73.004,424.401 73.171,424.248 L 72.634,423.244 Z" marker-start="none" marker-end="none"/>
      <path d="M 81.135,425.139 L 81.135,423.425 L 78.514,423.425 L 78.514,415.824 L 76.354,415.824 L 76.354,423.425 L 73.733,423.425 L 73.733,425.139 L 81.135,425.139 Z" marker-start="none" marker-end="none"/>
      <path d="M 84.193,419.268 L 84.193,415.822 L 82.032,415.822 L 82.032,425.136 L 85.062,425.136 C 85.735,425.136 86.31,425.067 86.785,424.928 C 87.26,424.789 87.648,424.596 87.948,424.349 C 88.249,424.101 88.467,423.809 88.603,423.472 C 88.74,423.135 88.808,422.768 88.808,422.371 C 88.808,422.068 88.768,421.782 88.687,421.513 C 88.606,421.245 88.485,420.996 88.325,420.768 C 88.166,420.539 87.97,420.336 87.737,420.156 C 87.505,419.977 87.238,419.83 86.935,419.715 C 87.08,419.643 87.215,419.553 87.341,419.447 C 87.467,419.34 87.576,419.211 87.67,419.057 L 89.652,415.822 L 87.696,415.822 C 87.334,415.822 87.074,415.958 86.916,416.231 L 85.369,418.935 C 85.301,419.055 85.221,419.14 85.129,419.191 C 85.038,419.242 84.909,419.268 84.742,419.268 L 84.193,419.268 Z M 84.193,420.757 L 85.062,420.757 C 85.356,420.757 85.607,420.794 85.813,420.869 C 86.02,420.943 86.189,421.047 86.321,421.179 C 86.453,421.311 86.549,421.465 86.609,421.642 C 86.669,421.819 86.699,422.01 86.699,422.215 C 86.699,422.624 86.565,422.944 86.299,423.174 C 86.033,423.404 85.62,423.519 85.062,423.519 L 84.193,423.519 L 84.193,420.757 Z" marker-start="none" marker-end="none"/>
      <path d="M 92.9,415.822 L 90.727,415.822 L 90.727,425.139 L 92.9,425.139 L 92.9,415.822 Z" marker-start="none" marker-end="none"/>
      <path d="M 94.624,415.822 L 94.624,425.136 L 98.05,425.136 C 98.694,425.136 99.242,425.076 99.693,424.957 C 100.145,424.838 100.514,424.669 100.799,424.452 C 101.085,424.235 101.292,423.971 101.422,423.66 C 101.552,423.349 101.617,423.001 101.617,422.618 C 101.617,422.409 101.588,422.208 101.528,422.014 C 101.468,421.82 101.374,421.638 101.247,421.468 C 101.119,421.297 100.955,421.143 100.754,421.004 C 100.554,420.866 100.313,420.745 100.032,420.643 C 100.646,420.494 101.1,420.252 101.394,419.917 C 101.688,419.583 101.835,419.153 101.835,418.629 C 101.835,418.232 101.758,417.864 101.605,417.523 C 101.451,417.182 101.226,416.884 100.93,416.631 C 100.634,416.377 100.269,416.179 99.834,416.036 C 99.399,415.893 98.903,415.822 98.344,415.822 L 94.624,415.822 Z M 96.785,419.774 L 96.785,417.451 L 98.306,417.451 C 98.592,417.451 98.825,417.488 99.006,417.56 C 99.187,417.633 99.329,417.726 99.431,417.841 C 99.533,417.957 99.604,418.087 99.642,418.232 C 99.68,418.377 99.7,418.524 99.7,418.673 C 99.7,418.844 99.677,418.997 99.633,419.134 C 99.588,419.27 99.511,419.386 99.402,419.479 C 99.294,419.573 99.15,419.646 98.971,419.697 C 98.792,419.748 98.566,419.774 98.293,419.774 L 96.785,419.774 Z M 96.785,421.219 L 97.91,421.219 C 98.148,421.219 98.364,421.236 98.555,421.27 C 98.747,421.304 98.91,421.364 99.044,421.449 C 99.179,421.534 99.281,421.651 99.351,421.8 C 99.422,421.949 99.457,422.137 99.457,422.362 C 99.457,422.584 99.429,422.768 99.374,422.915 C 99.318,423.062 99.233,423.18 99.118,423.27 C 99.003,423.359 98.857,423.423 98.68,423.462 C 98.503,423.5 98.293,423.519 98.05,423.519 L 96.785,423.519 L 96.785,421.219 Z" marker-start="none" marker-end="none"/>
      <path d="M 106.882,417.529 C 107.172,417.529 107.431,417.577 107.659,417.673 C 107.887,417.769 108.079,417.906 108.237,418.086 C 108.395,418.265 108.515,418.483 108.598,418.741 C 108.681,418.999 108.723,419.292 108.723,419.62 L 108.723,425.137 L 110.884,425.137 L 110.884,419.619 C 110.884,419.048 110.791,418.524 110.605,418.046 C 110.42,417.569 110.155,417.158 109.81,416.812 C 109.464,416.467 109.045,416.199 108.55,416.007 C 108.056,415.815 107.5,415.719 106.882,415.719 C 106.26,415.719 105.701,415.815 105.207,416.007 C 104.713,416.199 104.293,416.467 103.948,416.812 C 103.603,417.158 103.338,417.569 103.155,418.046 C 102.972,418.524 102.88,419.048 102.88,419.619 L 102.88,425.137 L 105.041,425.137 L 105.041,419.626 C 105.041,419.298 105.082,419.005 105.166,418.747 C 105.249,418.489 105.369,418.27 105.527,418.089 C 105.684,417.908 105.877,417.769 106.105,417.673 C 106.333,417.577 106.592,417.529 106.882,417.529 Z" marker-start="none" marker-end="none"/>
      <path d="M 119.054,425.139 L 119.054,423.425 L 116.433,423.425 L 116.433,415.824 L 114.273,415.824 L 114.273,423.425 L 111.652,423.425 L 111.652,425.139 L 119.054,425.139 Z" marker-start="none" marker-end="none"/>
      <path d="M 122.316,415.822 L 120.143,415.822 L 120.143,425.139 L 122.316,425.139 L 122.316,415.822 Z" marker-start="none" marker-end="none"/>
      <path d="M 133.232,420.482 C 133.232,419.809 133.116,419.182 132.884,418.603 C 132.652,418.023 132.325,417.519 131.903,417.09 C 131.481,416.662 130.973,416.326 130.378,416.083 C 129.784,415.84 129.124,415.719 128.4,415.719 C 127.675,415.719 127.015,415.84 126.418,416.083 C 125.821,416.326 125.311,416.662 124.887,417.09 C 124.463,417.519 124.135,418.023 123.903,418.603 C 123.67,419.182 123.554,419.809 123.554,420.482 C 123.554,421.156 123.67,421.782 123.903,422.362 C 124.135,422.942 124.463,423.444 124.887,423.871 C 125.311,424.297 125.821,424.632 126.418,424.875 C 127.015,425.117 127.675,425.239 128.4,425.239 C 129.124,425.239 129.784,425.116 130.378,424.871 C 130.973,424.626 131.481,424.291 131.903,423.864 C 132.325,423.438 132.652,422.935 132.884,422.355 C 133.116,421.776 133.232,421.151 133.232,420.482 Z M 131.021,420.482 C 131.021,420.942 130.961,421.356 130.842,421.725 C 130.722,422.093 130.551,422.406 130.327,422.661 C 130.103,422.917 129.829,423.113 129.506,423.249 C 129.182,423.385 128.813,423.453 128.4,423.454 C 127.982,423.453 127.61,423.385 127.284,423.249 C 126.958,423.113 126.683,422.917 126.46,422.661 C 126.236,422.406 126.064,422.093 125.945,421.725 C 125.826,421.356 125.766,420.942 125.766,420.482 C 125.766,420.018 125.826,419.601 125.945,419.233 C 126.064,418.864 126.236,418.552 126.46,418.297 C 126.683,418.041 126.958,417.846 127.284,417.712 C 127.61,417.578 127.982,417.511 128.4,417.511 C 128.813,417.511 129.182,417.578 129.506,417.712 C 129.829,417.846 130.103,418.041 130.327,418.297 C 130.551,418.552 130.722,418.864 130.842,419.233 C 130.961,419.601 131.021,420.018 131.021,420.482 Z" marker-start="none" marker-end="none"/>
      <path d="M 135.404,425.139 C 135.498,425.139 135.577,425.135 135.64,425.126 C 135.704,425.118 135.762,425.102 135.813,425.078 C 135.864,425.055 135.913,425.022 135.96,424.979 C 136.007,424.936 136.06,424.879 136.12,424.807 L 140.543,419.213 C 140.526,419.392 140.514,419.566 140.505,419.734 C 140.497,419.902 140.492,420.061 140.492,420.211 L 140.492,425.139 L 142.397,425.139 L 142.397,415.822 L 141.272,415.822 C 141.106,415.822 140.965,415.848 140.85,415.899 C 140.735,415.95 140.624,416.044 140.518,416.18 L 136.126,421.729 C 136.139,421.567 136.15,421.408 136.158,421.252 C 136.167,421.097 136.171,420.951 136.171,420.814 L 136.171,415.822 L 134.266,415.822 L 134.266,425.139 L 135.404,425.139 Z" marker-start="none" marker-end="none"/>
     </g>
    </g>
    <g id="Group_27" fill-rule="nonzero" stroke-linejoin="round" stroke-linecap="round" stroke="none" stroke-width="0.365" fill="#000000">
     <g id="Group_28">
      <path d="M 93.403,394.873 C 93.329,394.755 93.252,394.667 93.172,394.609 C 93.091,394.55 92.987,394.521 92.86,394.521 C 92.748,394.521 92.627,394.556 92.498,394.627 C 92.368,394.698 92.222,394.777 92.058,394.865 C 91.894,394.953 91.708,395.033 91.498,395.103 C 91.288,395.174 91.048,395.21 90.78,395.21 C 90.316,395.21 89.97,395.111 89.743,394.913 C 89.516,394.715 89.402,394.448 89.402,394.111 C 89.402,393.895 89.471,393.717 89.607,393.576 C 89.744,393.434 89.924,393.312 90.146,393.209 C 90.368,393.107 90.622,393.013 90.908,392.927 C 91.194,392.842 91.485,392.746 91.783,392.641 C 92.081,392.536 92.373,392.413 92.659,392.271 C 92.945,392.13 93.199,391.949 93.421,391.729 C 93.643,391.509 93.823,391.242 93.959,390.927 C 94.096,390.612 94.165,390.232 94.165,389.787 C 94.165,389.294 94.079,388.832 93.908,388.402 C 93.737,387.972 93.489,387.598 93.164,387.278 C 92.84,386.958 92.439,386.706 91.963,386.523 C 91.487,386.34 90.946,386.248 90.34,386.248 C 90.008,386.248 89.67,386.282 89.325,386.351 C 88.981,386.419 88.647,386.515 88.325,386.64 C 88.003,386.765 87.7,386.912 87.417,387.083 C 87.133,387.254 86.887,387.445 86.677,387.655 L 87.409,388.813 C 87.463,388.901 87.539,388.972 87.636,389.025 C 87.734,389.079 87.839,389.106 87.951,389.106 C 88.098,389.106 88.246,389.06 88.395,388.967 C 88.544,388.874 88.712,388.771 88.9,388.659 C 89.088,388.547 89.304,388.444 89.549,388.351 C 89.793,388.258 90.081,388.212 90.413,388.212 C 90.863,388.212 91.212,388.311 91.461,388.509 C 91.71,388.706 91.835,389.021 91.835,389.45 C 91.835,389.7 91.766,389.902 91.629,390.059 C 91.493,390.215 91.313,390.344 91.091,390.447 C 90.869,390.55 90.616,390.64 90.333,390.718 C 90.049,390.796 89.759,390.883 89.461,390.978 C 89.163,391.073 88.872,391.191 88.589,391.33 C 88.306,391.469 88.053,391.652 87.831,391.88 C 87.608,392.107 87.429,392.39 87.292,392.73 C 87.155,393.069 87.087,393.488 87.087,393.986 C 87.087,394.387 87.167,394.778 87.329,395.159 C 87.49,395.54 87.727,395.879 88.039,396.177 C 88.352,396.475 88.735,396.714 89.19,396.892 C 89.644,397.07 90.164,397.159 90.75,397.159 C 91.078,397.159 91.396,397.134 91.706,397.082 C 92.017,397.031 92.311,396.955 92.589,396.855 C 92.868,396.755 93.128,396.635 93.37,396.496 C 93.611,396.357 93.828,396.199 94.018,396.023 L 93.403,394.873 Z" marker-start="none" marker-end="none"/>
      <path d="M 104.715,386.366 L 102.224,386.366 L 102.224,390.881 L 97.886,390.881 L 97.886,386.366 L 95.395,386.366 L 95.395,397.045 L 97.886,397.045 L 97.886,392.58 L 102.224,392.58 L 102.224,397.045 L 104.715,397.045 L 104.715,386.366 Z" marker-start="none" marker-end="none"/>
      <path d="M 109.182,386.366 L 106.691,386.366 L 106.691,397.045 L 109.182,397.045 L 109.182,386.366 Z" marker-start="none" marker-end="none"/>
      <path d="M 113.635,389.936 L 113.635,386.368 L 111.158,386.368 L 111.158,397.045 L 114.924,397.045 C 115.676,397.045 116.322,396.956 116.862,396.777 C 117.402,396.599 117.846,396.354 118.196,396.041 C 118.545,395.728 118.802,395.359 118.969,394.934 C 119.135,394.509 119.218,394.05 119.218,393.557 C 119.218,393.024 119.132,392.535 118.961,392.091 C 118.79,391.646 118.529,391.265 118.177,390.948 C 117.826,390.63 117.38,390.382 116.84,390.204 C 116.3,390.026 115.662,389.936 114.924,389.936 L 113.635,389.936 Z M 113.635,391.804 L 114.924,391.804 C 115.569,391.804 116.033,391.958 116.316,392.266 C 116.6,392.574 116.741,393.004 116.741,393.556 C 116.741,393.801 116.705,394.024 116.631,394.224 C 116.558,394.424 116.447,394.596 116.298,394.741 C 116.149,394.885 115.961,394.996 115.734,395.074 C 115.507,395.153 115.237,395.192 114.924,395.192 L 113.635,395.192 L 113.635,391.804 Z" marker-start="none" marker-end="none"/>
      <path d="M 122.987,389.936 L 122.987,386.368 L 120.51,386.368 L 120.51,397.045 L 124.276,397.045 C 125.028,397.045 125.674,396.956 126.214,396.777 C 126.754,396.599 127.198,396.354 127.548,396.041 C 127.897,395.728 128.154,395.359 128.321,394.934 C 128.487,394.509 128.57,394.05 128.57,393.557 C 128.57,393.024 128.484,392.535 128.313,392.091 C 128.142,391.646 127.881,391.265 127.529,390.948 C 127.178,390.63 126.732,390.382 126.192,390.204 C 125.652,390.026 125.014,389.936 124.276,389.936 L 122.987,389.936 Z M 122.987,391.804 L 124.276,391.804 C 124.921,391.804 125.385,391.958 125.668,392.266 C 125.952,392.574 126.093,393.004 126.093,393.556 C 126.093,393.801 126.057,394.024 125.983,394.224 C 125.91,394.424 125.799,394.596 125.65,394.741 C 125.501,394.885 125.313,394.996 125.086,395.074 C 124.859,395.153 124.589,395.192 124.276,395.192 L 122.987,395.192 L 122.987,391.804 Z" marker-start="none" marker-end="none"/>
      <path d="M 132.573,386.366 L 130.082,386.366 L 130.082,397.045 L 132.573,397.045 L 132.573,386.366 Z" marker-start="none" marker-end="none"/>
      <path d="M 135.853,397.045 C 135.961,397.045 136.051,397.04 136.124,397.03 C 136.198,397.021 136.264,397.002 136.322,396.975 C 136.381,396.948 136.437,396.91 136.491,396.862 C 136.545,396.813 136.606,396.747 136.674,396.664 L 141.744,390.253 C 141.725,390.458 141.71,390.657 141.7,390.85 C 141.69,391.043 141.685,391.225 141.685,391.396 L 141.685,397.045 L 143.869,397.045 L 143.869,386.366 L 142.579,386.366 C 142.389,386.366 142.228,386.395 142.096,386.454 C 141.964,386.513 141.837,386.62 141.715,386.776 L 136.681,393.136 C 136.696,392.95 136.708,392.768 136.718,392.59 C 136.728,392.412 136.733,392.245 136.733,392.088 L 136.733,386.366 L 134.549,386.366 L 134.549,397.045 L 135.853,397.045 Z" marker-start="none" marker-end="none"/>
      <path d="M 150.651,388.155 C 150.993,388.155 151.296,388.183 151.56,388.241 C 151.824,388.299 152.073,388.376 152.307,388.472 L 152.307,390.094 L 151.252,390.094 C 151.096,390.094 150.974,390.135 150.886,390.218 C 150.798,390.301 150.754,390.407 150.754,390.534 L 150.754,391.897 L 154.549,391.897 L 154.549,387.391 C 154.276,387.191 153.991,387.019 153.696,386.874 C 153.4,386.73 153.085,386.612 152.751,386.519 C 152.416,386.426 152.059,386.358 151.681,386.314 C 151.302,386.27 150.896,386.248 150.461,386.248 C 149.679,386.248 148.956,386.386 148.292,386.662 C 147.628,386.938 147.053,387.319 146.567,387.805 C 146.081,388.291 145.7,388.868 145.424,389.535 C 145.148,390.202 145.01,390.926 145.01,391.707 C 145.01,392.504 145.142,393.235 145.405,393.902 C 145.669,394.569 146.047,395.144 146.537,395.628 C 147.028,396.111 147.622,396.488 148.318,396.756 C 149.014,397.025 149.792,397.159 150.651,397.159 C 151.096,397.159 151.514,397.123 151.904,397.049 C 152.295,396.976 152.655,396.876 152.985,396.748 C 153.315,396.621 153.616,396.47 153.89,396.294 C 154.163,396.118 154.408,395.927 154.623,395.721 L 153.904,394.63 C 153.836,394.527 153.754,394.446 153.659,394.388 C 153.564,394.329 153.46,394.3 153.348,394.3 C 153.201,394.3 153.05,394.349 152.893,394.446 C 152.698,394.563 152.514,394.665 152.34,394.75 C 152.167,394.836 151.99,394.905 151.809,394.959 C 151.628,395.013 151.438,395.052 151.238,395.076 C 151.037,395.101 150.813,395.113 150.563,395.113 C 150.099,395.113 149.682,395.031 149.311,394.868 C 148.939,394.704 148.623,394.473 148.362,394.176 C 148.1,393.878 147.899,393.52 147.757,393.103 C 147.616,392.685 147.545,392.22 147.545,391.707 C 147.545,391.141 147.623,390.638 147.779,390.198 C 147.936,389.759 148.152,389.388 148.428,389.085 C 148.704,388.782 149.031,388.552 149.409,388.393 C 149.788,388.234 150.202,388.155 150.651,388.155 Z" marker-start="none" marker-end="none"/>
      <path d="M 155.676,387.656 C 155.676,387.812 155.706,387.958 155.764,388.092 C 155.823,388.227 155.907,388.344 156.017,388.444 C 156.127,388.544 156.256,388.623 156.405,388.682 C 156.554,388.741 156.722,388.77 156.907,388.77 C 157.127,388.77 157.317,388.732 157.479,388.656 C 157.64,388.581 157.774,388.478 157.882,388.349 C 157.989,388.219 158.068,388.07 158.12,387.902 C 158.171,387.733 158.197,387.556 158.197,387.37 C 158.197,387.126 158.158,386.866 158.079,386.59 C 158.001,386.314 157.885,386.037 157.731,385.758 C 157.578,385.48 157.386,385.206 157.156,384.937 C 156.927,384.669 156.663,384.424 156.365,384.205 L 155.969,384.556 C 155.916,384.61 155.875,384.66 155.848,384.707 C 155.822,384.753 155.808,384.81 155.808,384.879 C 155.808,384.928 155.825,384.98 155.859,385.036 C 155.894,385.093 155.935,385.143 155.984,385.187 C 156.043,385.245 156.111,385.316 156.189,385.399 C 156.267,385.482 156.345,385.575 156.424,385.678 C 156.502,385.78 156.574,385.893 156.64,386.015 C 156.706,386.137 156.756,386.266 156.79,386.403 C 156.619,386.418 156.465,386.459 156.328,386.528 C 156.192,386.596 156.076,386.687 155.98,386.799 C 155.885,386.911 155.811,387.039 155.757,387.184 C 155.703,387.328 155.676,387.485 155.676,387.656 Z" marker-start="none" marker-end="none"/>
      <path d="M 165.05,386.366 L 162.559,386.366 L 162.559,397.045 L 165.05,397.045 L 165.05,386.366 Z" marker-start="none" marker-end="none"/>
      <path d="M 168.33,397.045 C 168.438,397.045 168.528,397.04 168.601,397.03 C 168.675,397.021 168.741,397.002 168.799,396.975 C 168.858,396.948 168.914,396.91 168.968,396.862 C 169.022,396.813 169.083,396.747 169.151,396.664 L 174.221,390.253 C 174.202,390.458 174.187,390.657 174.177,390.85 C 174.167,391.043 174.162,391.225 174.162,391.396 L 174.162,397.045 L 176.346,397.045 L 176.346,386.366 L 175.056,386.366 C 174.866,386.366 174.705,386.395 174.573,386.454 C 174.441,386.513 174.314,386.62 174.192,386.776 L 169.158,393.136 C 169.173,392.95 169.185,392.768 169.195,392.59 C 169.205,392.412 169.21,392.245 169.21,392.088 L 169.21,386.366 L 167.026,386.366 L 167.026,397.045 L 168.33,397.045 Z" marker-start="none" marker-end="none"/>
      <path d="M 185.275,389.126 C 185.334,389.126 185.392,389.115 185.451,389.093 C 185.51,389.07 185.566,389.032 185.619,388.977 L 186.601,387.922 C 186.171,387.369 185.633,386.951 184.986,386.67 C 184.339,386.389 183.573,386.248 182.689,386.248 C 181.878,386.248 181.151,386.386 180.509,386.662 C 179.867,386.938 179.322,387.319 178.875,387.805 C 178.428,388.291 178.085,388.868 177.846,389.535 C 177.606,390.202 177.487,390.926 177.487,391.707 C 177.487,392.504 177.624,393.235 177.897,393.902 C 178.171,394.569 178.553,395.144 179.044,395.628 C 179.535,396.111 180.122,396.488 180.806,396.756 C 181.49,397.025 182.244,397.159 183.07,397.159 C 183.47,397.159 183.848,397.124 184.202,397.053 C 184.556,396.982 184.887,396.884 185.195,396.759 C 185.502,396.635 185.786,396.486 186.044,396.312 C 186.303,396.138 186.533,395.946 186.733,395.736 L 185.898,394.615 C 185.844,394.546 185.781,394.484 185.707,394.428 C 185.634,394.372 185.532,394.344 185.4,394.344 C 185.312,394.344 185.229,394.363 185.151,394.402 C 185.072,394.441 184.989,394.489 184.901,394.545 C 184.814,394.601 184.717,394.662 184.612,394.728 C 184.507,394.794 184.382,394.855 184.238,394.912 C 184.094,394.968 183.926,395.015 183.733,395.055 C 183.54,395.093 183.314,395.113 183.055,395.113 C 182.606,395.113 182.195,395.034 181.824,394.875 C 181.453,394.716 181.134,394.489 180.868,394.193 C 180.602,393.898 180.394,393.54 180.245,393.12 C 180.096,392.7 180.022,392.228 180.022,391.706 C 180.022,391.158 180.096,390.672 180.245,390.247 C 180.394,389.822 180.597,389.465 180.853,389.174 C 181.11,388.883 181.409,388.662 181.751,388.511 C 182.093,388.359 182.459,388.284 182.85,388.284 C 183.075,388.284 183.28,388.295 183.465,388.317 C 183.651,388.339 183.823,388.376 183.982,388.43 C 184.141,388.484 184.292,388.553 184.436,388.639 C 184.58,388.724 184.726,388.831 184.872,388.958 C 184.931,389.007 184.994,389.047 185.063,389.079 C 185.131,389.11 185.202,389.126 185.275,389.126 Z" marker-start="none" marker-end="none"/>
      <path d="M 187.294,387.516 C 187.294,387.692 187.327,387.856 187.393,388.007 C 187.458,388.159 187.549,388.291 187.664,388.403 C 187.778,388.516 187.914,388.605 188.07,388.671 C 188.227,388.737 188.398,388.77 188.583,388.77 C 188.764,388.77 188.932,388.737 189.089,388.671 C 189.245,388.605 189.382,388.516 189.499,388.403 C 189.616,388.291 189.708,388.159 189.774,388.007 C 189.84,387.856 189.873,387.692 189.873,387.516 C 189.873,387.34 189.84,387.175 189.774,387.021 C 189.708,386.867 189.616,386.734 189.499,386.622 C 189.382,386.509 189.245,386.421 189.089,386.358 C 188.932,386.294 188.764,386.262 188.583,386.262 C 188.398,386.262 188.227,386.294 188.07,386.358 C 187.914,386.421 187.778,386.509 187.664,386.622 C 187.549,386.734 187.458,386.867 187.393,387.021 C 187.327,387.175 187.294,387.34 187.294,387.516 Z" marker-start="none" marker-end="none"/>
     </g>
    </g>
   </g>
   <path d="M 31.569,374.532 L 31.569,559.542 C 31.569,567.939 38.384,574.755 46.781,574.755 L 231.792,574.755 C 240.189,574.755 247.004,567.939 247.004,559.542 L 247.004,374.532 C 247.004,366.135 240.189,359.319 231.792,359.319 L 46.781,359.319 C 38.384,359.319 31.569,366.135 31.569,374.532 Z M 246.295,375.141 L 246.295,558.933 C 246.295,567.275 239.525,574.046 231.183,574.046 L 47.39,574.046 C 39.048,574.046 32.278,567.275 32.278,558.933 L 32.278,375.141 C 32.278,366.799 39.048,360.028 47.39,360.028 L 231.183,360.028 C 239.525,360.028 246.295,366.799 246.295,375.141 Z" stroke-linejoin="miter" stroke-width="0.802" fill="#7f7f7f" stroke="none" marker-start="none" marker-end="none"/>
  </g>
 </g>
</svg>
