<?xml version="1.0" standalone="no"?>
<!DOCTYPE svg PUBLIC "-//W3C//DTD SVG 1.1//EN" "http://www.w3.org/Graphics/SVG/1.1/DTD/svg11.dtd">
<!--Generator: Xara Designer (www.xara.com), SVG filter version: 6.2.0.0-->
<svg stroke-width="0.501" stroke-linejoin="bevel" fill-rule="evenodd" xmlns:xlink="http://www.w3.org/1999/xlink" xmlns="http://www.w3.org/2000/svg" version="1.1" overflow="visible" width="215.434pt" height="215.434pt" viewBox="0 0 215.434 215.434">
 <defs>
	</defs>
 <g id="Document" fill="none" stroke="black" font-family="Times New Roman" font-size="16" transform="scale(1 -1)">
  <g id="Spread" transform="translate(0 -215.434)">
   <g id="Layer 1">
    <path d="M 199.757,214.933 L 15.176,214.933 C 6.799,214.933 0,208.134 0,199.757 L 0,15.176 C 0,6.799 6.799,0 15.176,0 L 199.757,0 C 208.134,0 214.933,6.799 214.933,15.176 L 214.933,199.757 C 214.933,208.134 208.134,214.933 199.757,214.933 Z" stroke="#999999" fill="#ffffff" stroke-linejoin="miter" marker-start="none" marker-end="none"/>
    <g id="Group" font-weight="bold" font-family="Lato Black">
     <path d="M 15.549,68.362 L 15.549,34.47 L 119.137,34.47 L 119.137,68.362 L 15.549,68.362 Z" stroke="#30336b" stroke-linejoin="miter" stroke-linecap="round" fill="#30336b" stroke-width="1.738" marker-start="none" marker-end="none" stroke-miterlimit="79.8403193612775"/>
     <path d="M 15.549,69.705 L 15.549,59.895 C 15.549,57.324 17.633,55.247 20.195,55.247 L 114.487,55.247 C 117.049,55.247 119.137,57.324 119.137,59.895 L 119.137,69.705 C 119.137,72.281 117.049,74.359 114.487,74.359 L 20.195,74.359 C 17.633,74.359 15.549,72.281 15.549,69.705 Z" stroke="#30336b" stroke-linejoin="miter" stroke-linecap="round" fill="#30336b" stroke-width="1.738" marker-start="none" marker-end="none" stroke-miterlimit="79.8403193612775"/>
     <path d="M 16.246,40.812 L 16.246,23.167 C 16.246,18.554 19.99,14.808 24.608,14.808 L 191.654,14.808 C 196.267,14.808 200.015,18.554 200.015,23.167 L 200.015,40.812 C 200.015,45.43 196.267,49.178 191.654,49.178 L 24.608,49.178 C 19.99,49.178 16.246,45.43 16.246,40.812 Z" stroke="#30336b" stroke-linejoin="miter" stroke-linecap="round" fill="#ffffff" stroke-width="3.13" marker-start="none" marker-end="none" stroke-miterlimit="79.8403193612775"/>
     <path d="M 59.5,101.396 C 53.6,108.374 54.479,118.834 61.474,124.743 C 68.456,130.635 78.909,129.756 84.813,122.769 C 90.722,115.777 89.836,105.323 82.839,99.418 C 75.857,93.523 65.4,94.402 59.5,101.396 Z" stroke-linejoin="miter" stroke="none" fill="#000000" stroke-width="0.686" marker-start="none" marker-end="none" stroke-miterlimit="79.8403193612775"/>
     <path d="M 60.278,102.005 C 54.387,109.003 55.259,119.462 62.252,125.355 C 69.241,131.264 79.693,130.381 85.609,123.388 C 91.506,116.406 90.621,105.954 83.627,100.049 C 76.648,94.143 66.184,95.022 60.278,102.005 Z" stroke-linejoin="miter" stroke="#b2b2b2" stroke-width="3.752" marker-start="none" marker-end="none" stroke-miterlimit="79.8403193612775"/>
     <path d="M 18.815,101.383 C 12.915,108.372 13.794,118.84 20.791,124.731 C 27.774,130.642 38.228,129.759 44.13,122.771 C 50.041,115.782 49.155,105.322 42.157,99.418 C 35.174,93.519 24.715,94.402 18.815,101.383 Z" stroke-linejoin="miter" stroke="none" fill="#ffffff" stroke-width="0.689" marker-start="none" marker-end="none" stroke-miterlimit="79.8403193612775"/>
     <path d="M 19.595,102.018 C 13.702,109.01 14.575,119.456 21.567,125.369 C 28.558,131.253 39.013,130.381 44.926,123.393 C 50.824,116.406 49.94,105.94 42.946,100.04 C 35.965,94.141 25.5,95.019 19.595,102.018 Z" stroke-linejoin="miter" stroke="#55bae6" stroke-width="3.752" marker-start="none" marker-end="none" stroke-miterlimit="79.8403193612775"/>
     <path d="M 21.355,158.033 C 12.458,168.573 13.783,184.359 24.335,193.243 C 34.866,202.157 50.631,200.825 59.532,190.287 C 68.446,179.747 67.11,163.973 56.556,155.07 C 46.025,146.174 30.253,147.505 21.355,158.033 Z" stroke-linejoin="miter" stroke="none" fill="#ffffff" stroke-width="1.039" marker-start="none" marker-end="none" stroke-miterlimit="79.8403193612775"/>
     <path d="M 22.532,158.99 C 13.645,169.535 14.961,185.288 25.505,194.205 C 36.048,203.078 51.815,201.763 60.732,191.225 C 69.626,180.688 68.293,164.905 57.746,156.008 C 47.218,147.112 31.437,148.436 22.532,158.99 Z" stroke-linejoin="miter" stroke="#55bae6" stroke-width="5.658" marker-start="none" marker-end="none" stroke-miterlimit="79.8403193612775"/>
     <text xml:space="preserve" transform="translate(66.256 105.601) scale(1 -1)" stroke="none" fill="#b2b2b2" stroke-width="0.485" stroke-linejoin="round" stroke-linecap="round" font-size="19.491" stroke-miterlimit="79.8403193612775"><tspan x="0" y="0">2</tspan></text>
     <text xml:space="preserve" transform="translate(26.501 105.601) scale(1 -1)" stroke="none" fill="#000000" stroke-width="0.485" stroke-linejoin="round" stroke-linecap="round" font-size="19.491" stroke-miterlimit="79.8403193612775"><tspan x="0" y="0">3</tspan></text>
     <path d="M 214.917,102.79 L 214.917,94.256 L 165.754,94.256 L 165.754,102.791 L 214.917,102.79 Z" fill="#ff3718" stroke-linecap="round" stroke="none" stroke-width="0.103" stroke-linejoin="miter" marker-start="none" marker-end="none" stroke-miterlimit="79.8403193612775"/>
     <path d="M 115.312,123.022 C 127.579,109.583 144.393,102.754 161.266,102.751 L 161.266,94.271 C 142.094,94.277 122.981,102.027 109.047,117.296 C 96.674,130.857 90.572,147.934 90.577,164.957 L 99.063,164.957 C 99.056,149.975 104.425,134.948 115.312,123.022 Z" fill="#ff3718" stroke-linecap="round" stroke="none" stroke-width="0.541" stroke-linejoin="round" marker-start="none" marker-end="none" stroke-miterlimit="79.8403193612775"/>
     <path d="M 94.804,202.91 L 96.922,199.865 L 99.044,196.813 L 99.097,196.812 L 99.097,169.535 L 90.561,169.536 L 90.561,196.812 L 92.681,199.865 L 94.804,202.91 Z" fill="#ff3718" stroke-linecap="round" stroke="none" stroke-width="0.103" stroke-linejoin="miter" marker-start="none" marker-end="none" stroke-miterlimit="79.8403193612775"/>
     <path d="M 106.354,202.914 L 108.474,199.867 L 110.595,196.812 L 106.354,196.812 L 102.113,196.816 L 104.235,199.868 L 106.354,202.914 Z M 110.618,196.812 L 110.619,169.535 L 102.084,169.535 L 102.084,196.812 L 110.618,196.812 Z" stroke-linecap="round" stroke="none" fill="#e5e5e5" stroke-width="0.103" stroke-linejoin="miter" marker-start="none" marker-end="none" stroke-miterlimit="79.8403193612775"/>
     <path d="M 123.666,130.644 C 133.706,119.653 147.461,114.066 161.266,114.06 L 161.266,105.58 C 145.158,105.585 129.109,112.099 117.4,124.927 C 107.006,136.313 101.886,150.656 101.889,164.956 L 110.375,164.957 C 110.365,152.7 114.76,140.408 123.666,130.644 Z" stroke-linecap="round" stroke="none" fill="#e5e5e5" stroke-width="0.453" stroke-linejoin="round" marker-start="none" marker-end="none" stroke-miterlimit="79.8403193612775"/>
     <path d="M 214.917,114.092 L 214.917,105.561 L 165.754,105.561 L 165.754,114.093 L 214.917,114.092 Z" stroke-linecap="round" stroke="none" fill="#e5e5e5" stroke-width="0.103" stroke-linejoin="miter" marker-start="none" marker-end="none" stroke-miterlimit="79.8403193612775"/>
     <path d="M 117.67,202.914 L 119.785,199.868 L 121.907,196.812 L 117.666,196.812 L 113.423,196.816 L 115.543,199.868 L 117.67,202.914 Z M 121.917,196.812 L 121.916,169.535 L 113.381,169.535 L 113.381,196.812 L 121.917,196.812 Z" fill="#e5e5e5" stroke-linecap="round" stroke="none" stroke-width="0.103" stroke-linejoin="miter" marker-start="none" marker-end="none" stroke-miterlimit="79.8403193612775"/>
     <path d="M 214.917,125.39 L 214.917,116.86 L 165.755,116.86 L 165.754,125.391 L 214.917,125.39 Z" fill="#e5e5e5" stroke-linecap="round" stroke="none" stroke-width="0.103" stroke-linejoin="miter" marker-start="none" marker-end="none" stroke-miterlimit="79.8403193612775"/>
     <path d="M 132.021,138.271 C 139.828,129.719 150.533,125.38 161.266,125.373 L 161.265,116.888 C 148.224,116.892 135.234,122.165 125.755,132.554 C 117.344,141.769 113.196,153.385 113.198,164.957 L 121.68,164.957 C 121.68,155.424 125.094,145.86 132.021,138.271 Z" fill="#e5e5e5" stroke-linecap="round" stroke="none" stroke-width="0.368" stroke-linejoin="round" marker-start="none" marker-end="none" stroke-miterlimit="79.8403193612775"/>
     <path d="M 214.917,136.687 L 214.917,128.153 L 165.753,128.153 L 165.754,136.687 L 214.917,136.687 Z" fill="#11a7e0" stroke-linecap="round" stroke="none" stroke-width="0.103" stroke-linejoin="miter" marker-start="none" marker-end="none" stroke-miterlimit="79.8403193612775"/>
     <path d="M 140.376,145.892 C 145.954,139.785 153.592,136.685 161.265,136.682 L 161.266,128.195 C 151.296,128.205 141.357,132.237 134.114,140.175 C 127.675,147.225 124.504,156.101 124.508,164.957 L 132.996,164.957 C 132.989,158.15 135.431,151.318 140.376,145.892 Z" fill="#11a7e0" stroke-linecap="round" stroke="none" stroke-width="0.281" stroke-linejoin="round" marker-start="none" marker-end="none" stroke-miterlimit="79.8403193612775"/>
     <path d="M 128.723,202.91 L 130.855,199.866 L 132.996,196.813 L 132.996,196.813 L 132.996,169.536 L 124.457,169.535 L 124.457,196.812 L 124.457,196.812 L 126.587,199.867 L 128.723,202.91 Z" fill="#11a7e0" stroke-linecap="round" stroke="none" stroke-width="0.103" stroke-linejoin="miter" marker-start="none" marker-end="none" stroke-miterlimit="79.8403193612775"/>
     <path d="M 153.514,158.48 C 144.617,169.02 145.942,184.806 156.494,193.689 C 167.025,202.604 182.79,201.272 191.691,190.735 C 200.605,180.194 199.269,164.42 188.716,155.517 C 178.184,146.621 162.412,147.952 153.514,158.48 Z" stroke-linejoin="miter" stroke="none" fill="#000000" stroke-width="1.039" marker-start="none" marker-end="none" stroke-miterlimit="79.8403193612775"/>
     <path d="M 154.691,159.437 C 145.804,169.982 147.12,185.734 157.664,194.652 C 168.208,203.524 183.974,202.21 192.891,191.673 C 201.785,181.135 200.452,165.352 189.905,156.455 C 179.377,147.559 163.596,148.883 154.691,159.437 Z" stroke-linejoin="miter" stroke="#b2b2b2" stroke-width="5.658" marker-start="none" marker-end="none" stroke-miterlimit="79.8403193612775"/>
     <path d="M 175.579,106.665 C 171.054,112.021 171.731,120.037 177.088,124.56 C 182.444,129.085 190.464,128.413 194.984,123.055 C 199.509,117.698 198.834,109.678 193.475,105.159 C 188.121,100.631 180.101,101.314 175.579,106.665 Z" stroke-linejoin="miter" stroke="none" fill="#ffffff" stroke-width="0.526" marker-start="none" marker-end="none" stroke-miterlimit="79.8403193612775"/>
     <path d="M 176.182,107.147 C 171.658,112.496 172.334,120.518 177.69,125.039 C 183.049,129.567 191.065,128.889 195.588,123.53 C 200.117,118.179 199.44,110.156 194.08,105.632 C 188.721,101.111 180.705,101.785 176.182,107.147 Z" fill="none" stroke-linejoin="miter" stroke="#55bae6" stroke-width="2.872" marker-start="none" marker-end="none" stroke-miterlimit="79.8403193612775"/>
     <path d="M 137.245,116.982 C 131.894,112.46 123.874,113.137 119.347,118.493 C 114.831,123.85 115.504,131.869 120.861,136.393 C 126.216,140.916 134.233,140.236 138.756,134.882 C 143.28,129.525 142.604,121.507 137.245,116.982 Z" stroke-linejoin="miter" stroke="none" fill="#ffffff" stroke-width="0.526" marker-start="none" marker-end="none" stroke-miterlimit="79.8403193612775"/>
     <path d="M 136.767,117.59 C 131.413,113.063 123.397,113.737 118.873,119.097 C 114.349,124.455 115.022,132.47 120.385,136.995 C 125.74,141.522 133.757,140.838 138.283,135.487 C 142.808,130.127 142.127,122.112 136.767,117.59 Z" fill="none" stroke-linejoin="miter" stroke="#55bae6" stroke-width="2.872" marker-start="none" marker-end="none" stroke-miterlimit="79.8403193612775"/>
     <path d="M 101.473,176.24 C 96.949,181.596 97.628,189.613 102.983,194.141 C 108.343,198.662 116.363,197.984 120.886,192.626 C 125.414,187.273 124.731,179.251 119.375,174.732 C 114.016,170.213 106,170.887 101.473,176.24 Z" stroke-linejoin="miter" stroke="none" fill="#ffffff" stroke-width="0.526" marker-start="none" marker-end="none" stroke-miterlimit="79.8403193612775"/>
     <path d="M 102.08,176.724 C 97.556,182.075 98.232,190.095 103.592,194.619 C 108.951,199.14 116.966,198.466 121.489,193.106 C 126.016,187.753 125.338,179.733 119.982,175.212 C 114.619,170.687 106.603,171.363 102.08,176.724 Z" fill="none" stroke-linejoin="miter" stroke="#55bae6" stroke-width="2.872" marker-start="none" marker-end="none" stroke-miterlimit="79.8403193612775"/>
     <text xml:space="preserve" transform="translate(176.805 109.606) scale(1 -1)" stroke="none" fill="#000000" stroke-width="0.387" stroke-linejoin="round" stroke-linecap="round" font-size="15.564" stroke-miterlimit="79.8403193612775"><tspan x="0" y="0">+1</tspan></text>
     <text xml:space="preserve" transform="translate(118.776 121.013) scale(1 -1)" stroke="none" fill="#000000" stroke-width="0.387" stroke-linejoin="round" stroke-linecap="round" font-size="15.564" stroke-miterlimit="79.8403193612775"><tspan x="0" y="0">+1</tspan></text>
     <text xml:space="preserve" transform="translate(102.734 179.24) scale(1 -1)" stroke="none" fill="#000000" stroke-width="0.387" stroke-linejoin="round" stroke-linecap="round" font-size="15.564" stroke-miterlimit="79.8403193612775"><tspan x="0" y="0">+1</tspan></text>
     <text xml:space="preserve" transform="translate(21.529 56.502) scale(1 -1)" stroke="none" fill="#ffffff" stroke-width="0.319" stroke-linejoin="round" stroke-linecap="round" font-size="12.785" stroke-miterlimit="79.8403193612775"><tspan x="0" y="0">DISTRIBUTION</tspan></text>
     <text xml:space="preserve" transform="translate(26.655 27.046) scale(1 -1)" stroke="none" fill="#000000" stroke-width="0.365" stroke-linejoin="round" stroke-linecap="round" font-size="14.654" stroke-miterlimit="79.8403193612775"><tspan x="0" y="0">D</tspan><tspan x="10.437" y="0">A</tspan><tspan x="20.063" y="0">T</tspan><tspan x="27.672" y="0">A &amp; WIRELESS, INC.</tspan></text>
    </g>
   </g>
  </g>
 </g>
</svg>
