<?xml version="1.0" standalone="no"?>
<!DOCTYPE svg PUBLIC "-//W3C//DTD SVG 1.1//EN" "http://www.w3.org/Graphics/SVG/1.1/DTD/svg11.dtd">
<!--Generator: Xara Designer (www.xara.com), SVG filter version: 6.6.0.0-->
<svg fill="none" fill-rule="evenodd" stroke="black" stroke-width="0.501" stroke-linejoin="bevel" stroke-miterlimit="10" font-family="Times New Roman" font-size="16" style="font-variant-ligatures:none" xmlns:xlink="http://www.w3.org/1999/xlink" xmlns="http://www.w3.org/2000/svg" version="1.1" overflow="visible" width="215.435pt" height="215.436pt" viewBox="543.069 -574.755 215.435 215.436">
 <defs>
	</defs>
 <g id="Page background" transform="scale(1 -1)"/>
 <g id="Layer 1" transform="scale(1 -1)">
  <g id="Group">
   <g id="Group_1">
    <g id="Group_2" stroke-linejoin="miter" stroke="none" stroke-width="0.802">
     <path d="M 543.069,559.542 L 543.069,374.532 C 543.069,366.135 549.884,359.319 558.281,359.319 L 743.292,359.319 C 751.689,359.319 758.504,366.135 758.504,374.532 L 758.504,559.542 C 758.504,567.939 751.689,574.755 743.292,574.755 L 558.281,574.755 C 549.884,574.755 543.069,567.939 543.069,559.542 Z" fill="#7f7f7f" marker-start="none" marker-end="none"/>
     <path d="M 543.778,558.933 L 543.778,375.141 C 543.778,366.799 550.548,360.028 558.89,360.028 L 742.683,360.028 C 751.025,360.028 757.795,366.799 757.795,375.141 L 757.795,558.933 C 757.795,567.275 751.025,574.046 742.683,574.046 L 558.89,574.046 C 550.548,574.046 543.778,567.275 543.778,558.933 Z" marker-start="none" marker-end="none"/>
     <path d="M 543.778,558.933 L 543.778,375.141 C 543.778,366.799 550.548,360.028 558.89,360.028 L 742.683,360.028 C 751.025,360.028 757.795,366.799 757.795,375.141 L 757.795,558.933 C 757.795,567.275 751.025,574.046 742.683,574.046 L 558.89,574.046 C 550.548,574.046 543.778,567.275 543.778,558.933 Z" fill="#ffffff" marker-start="none" marker-end="none"/>
    </g>
    <path d="M 558.618,427.682 L 558.618,393.79 L 662.206,393.79 L 662.206,427.682 L 558.618,427.682 Z" stroke="#30336b" stroke-linejoin="miter" stroke-linecap="round" fill="#30336b" stroke-width="1.738" marker-start="none" marker-end="none"/>
    <path d="M 558.618,429.025 L 558.618,419.215 C 558.618,416.644 560.702,414.567 563.264,414.567 L 657.556,414.567 C 660.118,414.567 662.206,416.644 662.206,419.215 L 662.206,429.025 C 662.206,431.601 660.118,433.679 657.556,433.679 L 563.264,433.679 C 560.702,433.679 558.618,431.601 558.618,429.025 Z" stroke="#30336b" stroke-linejoin="miter" stroke-linecap="round" fill="#30336b" stroke-width="1.738" marker-start="none" marker-end="none"/>
    <path d="M 559.315,400.132 L 559.315,382.487 C 559.315,377.874 563.059,374.128 567.677,374.128 L 734.723,374.128 C 739.336,374.128 743.084,377.874 743.084,382.487 L 743.084,400.132 C 743.084,404.75 739.336,408.498 734.723,408.498 L 567.677,408.498 C 563.059,408.498 559.315,404.75 559.315,400.132 Z" stroke="#30336b" stroke-linejoin="miter" stroke-linecap="round" fill="#ffffff" stroke-width="3.13" marker-start="none" marker-end="none"/>
    <path d="M 602.569,460.716 C 596.669,467.694 597.548,478.154 604.543,484.063 C 611.525,489.955 621.978,489.076 627.882,482.089 C 633.791,475.097 632.905,464.643 625.908,458.738 C 618.926,452.843 608.469,453.722 602.569,460.716 Z" stroke-linejoin="miter" stroke="none" fill="#000000" stroke-width="0.686" marker-start="none" marker-end="none"/>
    <path d="M 603.347,461.325 C 597.456,468.323 598.328,478.782 605.321,484.675 C 612.31,490.584 622.762,489.701 628.678,482.708 C 634.575,475.726 633.69,465.274 626.696,459.369 C 619.717,453.463 609.253,454.342 603.347,461.325 Z" stroke-linejoin="miter" stroke="#b2b2b2" stroke-width="3.752" marker-start="none" marker-end="none"/>
    <path d="M 561.884,460.703 C 555.984,467.692 556.863,478.16 563.86,484.051 C 570.843,489.962 581.297,489.079 587.199,482.091 C 593.11,475.102 592.224,464.642 585.226,458.738 C 578.243,452.839 567.784,453.722 561.884,460.703 Z" stroke-linejoin="miter" stroke="none" fill="#ffffff" stroke-width="0.689" marker-start="none" marker-end="none"/>
    <path d="M 562.664,461.338 C 556.771,468.33 557.644,478.776 564.636,484.689 C 571.627,490.573 582.082,489.701 587.995,482.713 C 593.893,475.726 593.009,465.26 586.015,459.36 C 579.034,453.461 568.569,454.339 562.664,461.338 Z" stroke-linejoin="miter" stroke="#539bc5" stroke-width="3.752" marker-start="none" marker-end="none"/>
    <path d="M 564.424,517.353 C 555.527,527.893 556.852,543.679 567.404,552.563 C 577.935,561.477 593.7,560.145 602.601,549.607 C 611.515,539.067 610.179,523.293 599.625,514.39 C 589.094,505.494 573.322,506.825 564.424,517.353 Z" stroke-linejoin="miter" stroke="none" fill="#ffffff" stroke-width="1.039" marker-start="none" marker-end="none"/>
    <path d="M 565.601,518.31 C 556.714,528.855 558.03,544.608 568.574,553.525 C 579.117,562.398 594.884,561.083 603.801,550.545 C 612.695,540.008 611.362,524.225 600.815,515.328 C 590.287,506.432 574.506,507.756 565.601,518.31 Z" stroke-linejoin="miter" stroke="#539bc5" stroke-width="5.658" marker-start="none" marker-end="none"/>
    <g id="Group_3" fill-rule="nonzero" stroke-linejoin="round" stroke-linecap="round" stroke="none" stroke-width="0.485" fill="#b2b2b2">
     <g id="Group_4">
      <path d="M 615.192,479.277 C 615.893,479.277 616.525,479.175 617.087,478.97 C 617.649,478.766 618.128,478.481 618.525,478.118 C 618.921,477.754 619.225,477.32 619.436,476.817 C 619.647,476.313 619.753,475.759 619.753,475.155 C 619.753,474.635 619.68,474.154 619.533,473.712 C 619.387,473.27 619.187,472.85 618.934,472.45 C 618.681,472.051 618.387,471.664 618.052,471.29 C 617.717,470.917 617.362,470.538 616.985,470.155 L 614.207,467.309 C 614.565,467.414 614.917,467.497 615.265,467.559 C 615.612,467.622 615.939,467.652 616.244,467.652 L 618.895,467.652 C 619.22,467.652 619.476,467.563 619.665,467.384 C 619.853,467.205 619.948,466.969 619.948,466.677 L 619.948,464.921 L 609.968,464.921 L 609.968,465.896 C 609.968,466.084 610.007,466.285 610.085,466.5 C 610.163,466.714 610.3,466.909 610.494,467.085 L 614.588,471.208 C 614.938,471.559 615.244,471.894 615.504,472.212 C 615.763,472.53 615.978,472.844 616.147,473.152 C 616.316,473.461 616.442,473.77 616.527,474.078 C 616.611,474.387 616.654,474.714 616.654,475.058 C 616.654,475.623 616.519,476.057 616.249,476.359 C 615.979,476.661 615.569,476.813 615.016,476.813 C 614.789,476.813 614.581,476.78 614.393,476.715 C 614.204,476.65 614.035,476.562 613.886,476.452 C 613.736,476.342 613.608,476.212 613.501,476.062 C 613.394,475.913 613.308,475.75 613.243,475.575 C 613.139,475.283 613.007,475.072 612.848,474.942 C 612.689,474.812 612.473,474.747 612.2,474.747 C 612.135,474.747 612.065,474.75 611.99,474.756 C 611.916,474.763 611.839,474.772 611.761,474.785 L 610.163,475.063 C 610.267,475.772 610.467,476.39 610.762,476.917 C 611.058,477.444 611.425,477.882 611.864,478.234 C 612.302,478.585 612.804,478.846 613.369,479.019 C 613.935,479.191 614.542,479.277 615.192,479.277 Z" marker-start="none" marker-end="none"/>
     </g>
    </g>
    <g id="Group_5" fill-rule="nonzero" stroke-linejoin="round" stroke-linecap="round" stroke="none" stroke-width="0.485" fill="#000000">
     <g id="Group_6">
      <path d="M 575.71,479.277 C 576.411,479.277 577.035,479.178 577.581,478.979 C 578.126,478.781 578.588,478.512 578.965,478.173 C 579.341,477.834 579.627,477.442 579.822,476.995 C 580.017,476.549 580.115,476.078 580.115,475.583 C 580.115,475.134 580.069,474.738 579.978,474.395 C 579.887,474.053 579.752,473.757 579.574,473.506 C 579.395,473.255 579.174,473.042 578.911,472.866 C 578.648,472.69 578.347,472.544 578.01,472.426 C 579.582,471.882 580.368,470.815 580.368,469.227 C 580.368,468.475 580.231,467.821 579.959,467.263 C 579.686,466.705 579.32,466.242 578.862,465.873 C 578.404,465.503 577.873,465.226 577.269,465.041 C 576.665,464.856 576.034,464.764 575.378,464.764 C 574.703,464.764 574.102,464.837 573.575,464.983 C 573.049,465.129 572.581,465.357 572.172,465.665 C 571.763,465.974 571.404,466.368 571.095,466.849 C 570.787,467.33 570.519,467.901 570.291,468.564 L 571.636,469.111 C 571.753,469.164 571.868,469.199 571.982,469.219 C 572.096,469.238 572.208,469.248 572.318,469.248 C 572.526,469.248 572.713,469.207 572.879,469.126 C 573.044,469.045 573.169,468.926 573.254,468.77 C 573.546,468.23 573.856,467.838 574.184,467.595 C 574.513,467.351 574.897,467.229 575.339,467.229 C 575.677,467.229 575.971,467.286 576.221,467.4 C 576.471,467.513 576.679,467.659 576.845,467.838 C 577.011,468.017 577.136,468.221 577.22,468.448 C 577.305,468.676 577.347,468.907 577.347,469.141 C 577.347,469.446 577.326,469.721 577.284,469.965 C 577.241,470.209 577.123,470.419 576.928,470.594 C 576.733,470.77 576.439,470.905 576.046,470.999 C 575.653,471.093 575.105,471.14 574.404,471.14 L 574.404,473.225 C 574.995,473.225 575.472,473.27 575.836,473.361 C 576.2,473.452 576.481,473.577 576.679,473.737 C 576.877,473.896 577.009,474.089 577.074,474.317 C 577.139,474.544 577.171,474.794 577.171,475.067 C 577.171,475.626 577.037,476.057 576.767,476.359 C 576.497,476.661 576.086,476.813 575.534,476.813 C 575.307,476.813 575.099,476.78 574.91,476.715 C 574.722,476.65 574.553,476.562 574.404,476.452 C 574.254,476.341 574.126,476.211 574.019,476.062 C 573.912,475.912 573.826,475.75 573.761,475.574 C 573.657,475.282 573.525,475.071 573.366,474.941 C 573.207,474.811 572.991,474.745 572.718,474.745 C 572.653,474.745 572.583,474.749 572.508,474.755 C 572.434,474.762 572.357,474.771 572.279,474.784 L 570.681,475.067 C 570.785,475.775 570.985,476.393 571.28,476.919 C 571.576,477.445 571.943,477.884 572.382,478.235 C 572.82,478.585 573.322,478.847 573.887,479.019 C 574.452,479.191 575.06,479.277 575.71,479.277 Z" marker-start="none" marker-end="none"/>
     </g>
    </g>
    <path d="M 757.986,462.11 L 757.986,453.576 L 708.823,453.576 L 708.823,462.111 L 757.986,462.11 Z" fill="#ff3718" stroke-linecap="round" stroke="none" stroke-width="0.103" stroke-linejoin="miter" marker-start="none" marker-end="none"/>
    <path d="M 658.381,482.342 C 670.648,468.903 687.462,462.074 704.335,462.071 L 704.335,453.591 C 685.163,453.597 666.05,461.347 652.116,476.616 C 639.743,490.177 633.641,507.254 633.646,524.277 L 642.132,524.277 C 642.125,509.295 647.494,494.268 658.381,482.342 Z" fill="#ff3718" stroke-linecap="round" stroke="none" stroke-width="0.541" stroke-linejoin="round" marker-start="none" marker-end="none"/>
    <path d="M 637.873,562.23 L 639.991,559.185 L 642.113,556.133 L 642.166,556.132 L 642.166,528.855 L 633.63,528.856 L 633.63,556.132 L 635.75,559.185 L 637.873,562.23 Z" fill="#ff3718" stroke-linecap="round" stroke="none" stroke-width="0.103" stroke-linejoin="miter" marker-start="none" marker-end="none"/>
    <path d="M 649.423,562.234 L 651.543,559.187 L 653.664,556.132 L 649.423,556.132 L 645.182,556.136 L 647.304,559.188 L 649.423,562.234 Z M 653.687,556.132 L 653.688,528.855 L 645.153,528.855 L 645.153,556.132 L 653.687,556.132 Z" stroke-linecap="round" stroke="none" fill="#e5e5e5" stroke-width="0.103" stroke-linejoin="miter" marker-start="none" marker-end="none"/>
    <path d="M 666.735,489.964 C 676.775,478.973 690.53,473.386 704.335,473.38 L 704.335,464.9 C 688.227,464.905 672.178,471.419 660.469,484.247 C 650.075,495.633 644.955,509.976 644.958,524.276 L 653.444,524.277 C 653.434,512.02 657.829,499.728 666.735,489.964 Z" stroke-linecap="round" stroke="none" fill="#e5e5e5" stroke-width="0.453" stroke-linejoin="round" marker-start="none" marker-end="none"/>
    <path d="M 757.986,473.412 L 757.986,464.881 L 708.823,464.881 L 708.823,473.413 L 757.986,473.412 Z" stroke-linecap="round" stroke="none" fill="#e5e5e5" stroke-width="0.103" stroke-linejoin="miter" marker-start="none" marker-end="none"/>
    <path d="M 660.739,562.234 L 662.854,559.188 L 664.976,556.132 L 660.735,556.132 L 656.492,556.136 L 658.612,559.188 L 660.739,562.234 Z M 664.986,556.132 L 664.985,528.855 L 656.45,528.855 L 656.45,556.132 L 664.986,556.132 Z" fill="#e5e5e5" stroke-linecap="round" stroke="none" stroke-width="0.103" stroke-linejoin="miter" marker-start="none" marker-end="none"/>
    <path d="M 757.986,484.71 L 757.986,476.18 L 708.824,476.18 L 708.823,484.711 L 757.986,484.71 Z" fill="#e5e5e5" stroke-linecap="round" stroke="none" stroke-width="0.103" stroke-linejoin="miter" marker-start="none" marker-end="none"/>
    <path d="M 675.09,497.591 C 682.897,489.039 693.602,484.7 704.335,484.693 L 704.334,476.208 C 691.293,476.212 678.303,481.485 668.824,491.874 C 660.413,501.089 656.265,512.705 656.267,524.277 L 664.749,524.277 C 664.749,514.744 668.163,505.18 675.09,497.591 Z" fill="#e5e5e5" stroke-linecap="round" stroke="none" stroke-width="0.368" stroke-linejoin="round" marker-start="none" marker-end="none"/>
    <path d="M 757.986,496.007 L 757.986,487.473 L 708.822,487.473 L 708.823,496.007 L 757.986,496.007 Z" fill="#11a7e0" stroke-linecap="round" stroke="none" stroke-width="0.103" stroke-linejoin="miter" marker-start="none" marker-end="none"/>
    <path d="M 683.445,505.212 C 689.023,499.105 696.661,496.005 704.334,496.002 L 704.335,487.515 C 694.365,487.525 684.426,491.557 677.183,499.495 C 670.744,506.545 667.573,515.421 667.577,524.277 L 676.065,524.277 C 676.058,517.47 678.5,510.638 683.445,505.212 Z" fill="#11a7e0" stroke-linecap="round" stroke="none" stroke-width="0.281" stroke-linejoin="round" marker-start="none" marker-end="none"/>
    <path d="M 671.792,562.23 L 673.924,559.186 L 676.065,556.133 L 676.065,556.133 L 676.065,528.856 L 667.526,528.855 L 667.526,556.132 L 667.526,556.132 L 669.656,559.187 L 671.792,562.23 Z" fill="#11a7e0" stroke-linecap="round" stroke="none" stroke-width="0.103" stroke-linejoin="miter" marker-start="none" marker-end="none"/>
    <path d="M 696.583,517.8 C 687.686,528.34 689.011,544.126 699.563,553.009 C 710.094,561.924 725.859,560.592 734.76,550.055 C 743.674,539.514 742.338,523.74 731.785,514.837 C 721.253,505.941 705.481,507.272 696.583,517.8 Z" stroke-linejoin="miter" stroke="none" fill="#000000" stroke-width="1.039" marker-start="none" marker-end="none"/>
    <path d="M 697.76,518.757 C 688.873,529.302 690.189,545.054 700.733,553.972 C 711.277,562.844 727.043,561.53 735.96,550.993 C 744.854,540.455 743.521,524.672 732.974,515.775 C 722.446,506.879 706.665,508.203 697.76,518.757 Z" stroke-linejoin="miter" stroke="#b2b2b2" stroke-width="5.658" marker-start="none" marker-end="none"/>
    <path d="M 718.648,465.985 C 714.123,471.341 714.8,479.357 720.157,483.88 C 725.513,488.405 733.533,487.733 738.053,482.375 C 742.578,477.018 741.903,468.998 736.544,464.479 C 731.19,459.951 723.17,460.634 718.648,465.985 Z" stroke-linejoin="miter" stroke="none" fill="#ffffff" stroke-width="0.526" marker-start="none" marker-end="none"/>
    <path d="M 719.251,466.467 C 714.727,471.816 715.403,479.838 720.759,484.359 C 726.118,488.887 734.134,488.209 738.657,482.85 C 743.186,477.499 742.509,469.476 737.149,464.952 C 731.79,460.431 723.774,461.105 719.251,466.467 Z" fill="none" stroke-linejoin="miter" stroke="#539bc5" stroke-width="2.872" marker-start="none" marker-end="none"/>
    <path d="M 680.314,476.302 C 674.963,471.78 666.943,472.457 662.416,477.813 C 657.9,483.17 658.573,491.189 663.93,495.713 C 669.285,500.236 677.302,499.556 681.825,494.202 C 686.349,488.845 685.673,480.827 680.314,476.302 Z" stroke-linejoin="miter" stroke="none" fill="#ffffff" stroke-width="0.526" marker-start="none" marker-end="none"/>
    <path d="M 679.836,476.91 C 674.482,472.383 666.466,473.057 661.942,478.417 C 657.418,483.775 658.091,491.79 663.454,496.315 C 668.809,500.842 676.826,500.158 681.352,494.807 C 685.877,489.447 685.196,481.432 679.836,476.91 Z" fill="none" stroke-linejoin="miter" stroke="#539bc5" stroke-width="2.872" marker-start="none" marker-end="none"/>
    <path d="M 644.542,535.56 C 640.018,540.916 640.697,548.933 646.052,553.461 C 651.412,557.982 659.432,557.304 663.955,551.946 C 668.483,546.593 667.8,538.571 662.444,534.052 C 657.085,529.533 649.069,530.207 644.542,535.56 Z" stroke-linejoin="miter" stroke="none" fill="#ffffff" stroke-width="0.526" marker-start="none" marker-end="none"/>
    <path d="M 645.149,536.044 C 640.625,541.395 641.301,549.415 646.661,553.939 C 652.02,558.46 660.035,557.786 664.558,552.426 C 669.085,547.073 668.407,539.053 663.051,534.532 C 657.688,530.007 649.672,530.683 645.149,536.044 Z" fill="none" stroke-linejoin="miter" stroke="#539bc5" stroke-width="2.872" marker-start="none" marker-end="none"/>
    <g id="Group_7" fill-rule="nonzero" stroke-linejoin="round" stroke-linecap="round" stroke="none" stroke-width="0.387" fill="#000000">
     <g id="Group_8">
      <path d="M 725.353,478.103 L 725.353,475.021 L 728.232,475.021 L 728.232,473.292 L 725.353,473.292 L 725.353,470.195 L 723.392,470.195 L 723.392,473.292 L 720.528,473.292 L 720.528,475.021 L 723.392,475.021 L 723.392,478.103 L 725.353,478.103 Z" marker-start="none" marker-end="none"/>
      <path d="M 730.863,470.67 L 733.042,470.67 L 733.042,476.39 C 733.042,476.671 733.05,476.964 733.065,477.27 L 731.781,476.203 C 731.698,476.136 731.615,476.088 731.532,476.059 C 731.449,476.031 731.369,476.017 731.291,476.017 C 731.156,476.017 731.036,476.046 730.929,476.106 C 730.823,476.166 730.744,476.229 730.692,476.297 L 729.929,477.309 L 733.462,480.274 L 735.455,480.274 L 735.455,470.67 L 737.322,470.67 L 737.322,468.926 L 730.863,468.926 L 730.863,470.67 Z" marker-start="none" marker-end="none"/>
     </g>
    </g>
    <g id="Group_9" fill-rule="nonzero" stroke-linejoin="round" stroke-linecap="round" stroke="none" stroke-width="0.387" fill="#000000">
     <g id="Group_10">
      <path d="M 667.324,489.51 L 667.324,486.428 L 670.203,486.428 L 670.203,484.699 L 667.324,484.699 L 667.324,481.602 L 665.363,481.602 L 665.363,484.699 L 662.499,484.699 L 662.499,486.428 L 665.363,486.428 L 665.363,489.51 L 667.324,489.51 Z" marker-start="none" marker-end="none"/>
      <path d="M 672.834,482.077 L 675.013,482.077 L 675.013,487.797 C 675.013,488.078 675.021,488.371 675.036,488.677 L 673.752,487.61 C 673.669,487.543 673.586,487.495 673.503,487.466 C 673.42,487.438 673.34,487.424 673.262,487.424 C 673.127,487.424 673.007,487.453 672.9,487.513 C 672.794,487.573 672.715,487.636 672.663,487.704 L 671.9,488.716 L 675.433,491.681 L 677.426,491.681 L 677.426,482.077 L 679.293,482.077 L 679.293,480.333 L 672.834,480.333 L 672.834,482.077 Z" marker-start="none" marker-end="none"/>
     </g>
    </g>
    <g id="Group_11" fill-rule="nonzero" stroke-linejoin="round" stroke-linecap="round" stroke="none" stroke-width="0.387" fill="#000000">
     <g id="Group_12">
      <path d="M 651.282,547.737 L 651.282,544.655 L 654.161,544.655 L 654.161,542.926 L 651.282,542.926 L 651.282,539.829 L 649.321,539.829 L 649.321,542.926 L 646.457,542.926 L 646.457,544.655 L 649.321,544.655 L 649.321,547.737 L 651.282,547.737 Z" marker-start="none" marker-end="none"/>
      <path d="M 656.792,540.304 L 658.971,540.304 L 658.971,546.024 C 658.971,546.305 658.979,546.598 658.994,546.904 L 657.71,545.837 C 657.627,545.77 657.544,545.722 657.461,545.693 C 657.378,545.665 657.298,545.651 657.22,545.651 C 657.085,545.651 656.965,545.68 656.858,545.74 C 656.752,545.8 656.673,545.863 656.621,545.931 L 655.858,546.943 L 659.391,549.908 L 661.384,549.908 L 661.384,540.304 L 663.251,540.304 L 663.251,538.56 L 656.792,538.56 L 656.792,540.304 Z" marker-start="none" marker-end="none"/>
     </g>
    </g>
    <g id="Group_13" fill-rule="nonzero" stroke-linejoin="round" stroke-linecap="round" stroke="none" stroke-width="0.319" fill="#ffffff">
     <g id="Group_14">
      <path d="M 573.816,420.484 C 573.816,419.81 573.7,419.189 573.467,418.62 C 573.235,418.051 572.908,417.558 572.486,417.143 C 572.064,416.727 571.556,416.403 570.962,416.171 C 570.367,415.938 569.708,415.822 568.983,415.822 L 565.365,415.822 L 565.365,425.139 L 568.983,425.139 C 569.708,425.139 570.367,425.022 570.962,424.787 C 571.556,424.553 572.064,424.229 572.486,423.815 C 572.908,423.402 573.235,422.91 573.467,422.341 C 573.7,421.772 573.816,421.153 573.816,420.484 Z M 571.604,420.484 C 571.604,420.944 571.544,421.359 571.425,421.73 C 571.306,422.101 571.134,422.415 570.91,422.673 C 570.687,422.931 570.413,423.129 570.089,423.268 C 569.765,423.406 569.397,423.475 568.983,423.475 L 567.539,423.475 L 567.539,417.486 L 568.983,417.486 C 569.397,417.486 569.765,417.555 570.089,417.693 C 570.413,417.832 570.687,418.03 570.91,418.288 C 571.134,418.546 571.306,418.86 571.425,419.231 C 571.544,419.602 571.604,420.019 571.604,420.484 Z" marker-start="none" marker-end="none"/>
      <path d="M 577.219,415.822 L 575.046,415.822 L 575.046,425.139 L 577.219,425.139 L 577.219,415.822 Z" marker-start="none" marker-end="none"/>
      <path d="M 584.134,423.244 C 584.07,423.141 584.003,423.065 583.932,423.014 C 583.862,422.962 583.771,422.937 583.661,422.937 C 583.563,422.937 583.457,422.968 583.344,423.03 C 583.231,423.091 583.103,423.161 582.961,423.237 C 582.818,423.314 582.655,423.383 582.472,423.445 C 582.288,423.507 582.08,423.538 581.845,423.538 C 581.44,423.538 581.139,423.452 580.941,423.279 C 580.743,423.106 580.643,422.873 580.643,422.579 C 580.643,422.391 580.703,422.236 580.822,422.112 C 580.942,421.989 581.098,421.882 581.292,421.792 C 581.486,421.703 581.708,421.621 581.957,421.546 C 582.206,421.472 582.461,421.389 582.721,421.297 C 582.981,421.205 583.236,421.098 583.485,420.974 C 583.734,420.851 583.956,420.693 584.15,420.501 C 584.344,420.309 584.5,420.076 584.62,419.801 C 584.739,419.526 584.799,419.195 584.799,418.807 C 584.799,418.376 584.724,417.974 584.575,417.599 C 584.426,417.224 584.209,416.896 583.926,416.617 C 583.643,416.338 583.293,416.119 582.878,415.959 C 582.462,415.799 581.99,415.719 581.462,415.719 C 581.172,415.719 580.877,415.749 580.576,415.809 C 580.276,415.868 579.985,415.952 579.704,416.061 C 579.423,416.17 579.158,416.299 578.911,416.448 C 578.664,416.597 578.449,416.763 578.265,416.947 L 578.905,417.957 C 578.952,418.034 579.018,418.095 579.103,418.142 C 579.188,418.189 579.28,418.213 579.378,418.213 C 579.506,418.213 579.635,418.172 579.765,418.091 C 579.894,418.01 580.042,417.921 580.206,417.823 C 580.37,417.725 580.558,417.635 580.771,417.554 C 580.984,417.473 581.236,417.433 581.526,417.433 C 581.918,417.433 582.222,417.519 582.44,417.691 C 582.657,417.864 582.766,418.138 582.766,418.513 C 582.766,418.731 582.706,418.907 582.587,419.044 C 582.467,419.18 582.311,419.293 582.117,419.383 C 581.923,419.472 581.702,419.551 581.455,419.619 C 581.208,419.687 580.955,419.763 580.695,419.846 C 580.435,419.929 580.181,420.031 579.934,420.153 C 579.687,420.274 579.466,420.434 579.272,420.632 C 579.078,420.831 578.922,421.078 578.802,421.374 C 578.683,421.67 578.623,422.036 578.623,422.471 C 578.623,422.82 578.694,423.161 578.834,423.494 C 578.975,423.826 579.182,424.122 579.454,424.382 C 579.727,424.642 580.062,424.85 580.458,425.006 C 580.854,425.161 581.308,425.239 581.82,425.239 C 582.105,425.239 582.383,425.217 582.654,425.172 C 582.924,425.127 583.181,425.061 583.424,424.973 C 583.667,424.886 583.894,424.782 584.105,424.66 C 584.316,424.539 584.504,424.401 584.671,424.248 L 584.134,423.244 Z" marker-start="none" marker-end="none"/>
      <path d="M 592.635,425.139 L 592.635,423.425 L 590.014,423.425 L 590.014,415.824 L 587.854,415.824 L 587.854,423.425 L 585.233,423.425 L 585.233,425.139 L 592.635,425.139 Z" marker-start="none" marker-end="none"/>
      <path d="M 595.693,419.268 L 595.693,415.822 L 593.532,415.822 L 593.532,425.136 L 596.562,425.136 C 597.235,425.136 597.81,425.067 598.285,424.928 C 598.76,424.789 599.148,424.596 599.448,424.349 C 599.749,424.101 599.967,423.809 600.103,423.472 C 600.24,423.135 600.308,422.768 600.308,422.371 C 600.308,422.068 600.268,421.782 600.187,421.513 C 600.106,421.245 599.985,420.996 599.825,420.768 C 599.666,420.539 599.47,420.336 599.237,420.156 C 599.005,419.977 598.738,419.83 598.435,419.715 C 598.58,419.643 598.715,419.553 598.841,419.447 C 598.967,419.34 599.076,419.211 599.17,419.057 L 601.152,415.822 L 599.196,415.822 C 598.834,415.822 598.574,415.958 598.416,416.231 L 596.869,418.935 C 596.801,419.055 596.721,419.14 596.629,419.191 C 596.538,419.242 596.409,419.268 596.242,419.268 L 595.693,419.268 Z M 595.693,420.757 L 596.562,420.757 C 596.856,420.757 597.107,420.794 597.313,420.869 C 597.52,420.943 597.689,421.047 597.821,421.179 C 597.953,421.311 598.049,421.465 598.109,421.642 C 598.169,421.819 598.199,422.01 598.199,422.215 C 598.199,422.624 598.065,422.944 597.799,423.174 C 597.533,423.404 597.12,423.519 596.562,423.519 L 595.693,423.519 L 595.693,420.757 Z" marker-start="none" marker-end="none"/>
      <path d="M 604.4,415.822 L 602.227,415.822 L 602.227,425.139 L 604.4,425.139 L 604.4,415.822 Z" marker-start="none" marker-end="none"/>
      <path d="M 606.124,415.822 L 606.124,425.136 L 609.55,425.136 C 610.194,425.136 610.742,425.076 611.193,424.957 C 611.645,424.838 612.014,424.669 612.299,424.452 C 612.585,424.235 612.792,423.971 612.922,423.66 C 613.052,423.349 613.117,423.001 613.117,422.618 C 613.117,422.409 613.088,422.208 613.028,422.014 C 612.968,421.82 612.874,421.638 612.747,421.468 C 612.619,421.297 612.455,421.143 612.254,421.004 C 612.054,420.866 611.813,420.745 611.532,420.643 C 612.146,420.494 612.6,420.252 612.894,419.917 C 613.188,419.583 613.335,419.153 613.335,418.629 C 613.335,418.232 613.258,417.864 613.105,417.523 C 612.951,417.182 612.726,416.884 612.43,416.631 C 612.134,416.377 611.769,416.179 611.334,416.036 C 610.899,415.893 610.403,415.822 609.844,415.822 L 606.124,415.822 Z M 608.285,419.774 L 608.285,417.451 L 609.806,417.451 C 610.092,417.451 610.325,417.488 610.506,417.56 C 610.687,417.633 610.829,417.726 610.931,417.841 C 611.033,417.957 611.104,418.087 611.142,418.232 C 611.18,418.377 611.2,418.524 611.2,418.673 C 611.2,418.844 611.177,418.997 611.133,419.134 C 611.088,419.27 611.011,419.386 610.902,419.479 C 610.794,419.573 610.65,419.646 610.471,419.697 C 610.292,419.748 610.066,419.774 609.793,419.774 L 608.285,419.774 Z M 608.285,421.219 L 609.41,421.219 C 609.648,421.219 609.864,421.236 610.055,421.27 C 610.247,421.304 610.41,421.364 610.544,421.449 C 610.679,421.534 610.781,421.651 610.851,421.8 C 610.922,421.949 610.957,422.137 610.957,422.362 C 610.957,422.584 610.929,422.768 610.874,422.915 C 610.818,423.062 610.733,423.18 610.618,423.27 C 610.503,423.359 610.357,423.423 610.18,423.462 C 610.003,423.5 609.793,423.519 609.55,423.519 L 608.285,423.519 L 608.285,421.219 Z" marker-start="none" marker-end="none"/>
      <path d="M 618.382,417.529 C 618.672,417.529 618.931,417.577 619.159,417.673 C 619.387,417.769 619.579,417.906 619.737,418.086 C 619.895,418.265 620.015,418.483 620.098,418.741 C 620.181,418.999 620.223,419.292 620.223,419.62 L 620.223,425.137 L 622.384,425.137 L 622.384,419.619 C 622.384,419.048 622.291,418.524 622.105,418.046 C 621.92,417.569 621.655,417.158 621.31,416.812 C 620.964,416.467 620.545,416.199 620.05,416.007 C 619.556,415.815 619,415.719 618.382,415.719 C 617.76,415.719 617.201,415.815 616.707,416.007 C 616.213,416.199 615.793,416.467 615.448,416.812 C 615.103,417.158 614.838,417.569 614.655,418.046 C 614.472,418.524 614.38,419.048 614.38,419.619 L 614.38,425.137 L 616.541,425.137 L 616.541,419.626 C 616.541,419.298 616.582,419.005 616.666,418.747 C 616.749,418.489 616.869,418.27 617.027,418.089 C 617.184,417.908 617.377,417.769 617.605,417.673 C 617.833,417.577 618.092,417.529 618.382,417.529 Z" marker-start="none" marker-end="none"/>
      <path d="M 630.554,425.139 L 630.554,423.425 L 627.933,423.425 L 627.933,415.824 L 625.773,415.824 L 625.773,423.425 L 623.152,423.425 L 623.152,425.139 L 630.554,425.139 Z" marker-start="none" marker-end="none"/>
      <path d="M 633.816,415.822 L 631.643,415.822 L 631.643,425.139 L 633.816,425.139 L 633.816,415.822 Z" marker-start="none" marker-end="none"/>
      <path d="M 644.732,420.482 C 644.732,419.809 644.616,419.182 644.384,418.603 C 644.152,418.023 643.825,417.519 643.403,417.09 C 642.981,416.662 642.473,416.326 641.878,416.083 C 641.284,415.84 640.624,415.719 639.9,415.719 C 639.175,415.719 638.515,415.84 637.918,416.083 C 637.321,416.326 636.811,416.662 636.387,417.09 C 635.963,417.519 635.635,418.023 635.403,418.603 C 635.17,419.182 635.054,419.809 635.054,420.482 C 635.054,421.156 635.17,421.782 635.403,422.362 C 635.635,422.942 635.963,423.444 636.387,423.871 C 636.811,424.297 637.321,424.632 637.918,424.875 C 638.515,425.117 639.175,425.239 639.9,425.239 C 640.624,425.239 641.284,425.116 641.878,424.871 C 642.473,424.626 642.981,424.291 643.403,423.864 C 643.825,423.438 644.152,422.935 644.384,422.355 C 644.616,421.776 644.732,421.151 644.732,420.482 Z M 642.521,420.482 C 642.521,420.942 642.461,421.356 642.342,421.725 C 642.222,422.093 642.051,422.406 641.827,422.661 C 641.603,422.917 641.329,423.113 641.006,423.249 C 640.682,423.385 640.313,423.453 639.9,423.454 C 639.482,423.453 639.11,423.385 638.784,423.249 C 638.458,423.113 638.183,422.917 637.96,422.661 C 637.736,422.406 637.564,422.093 637.445,421.725 C 637.326,421.356 637.266,420.942 637.266,420.482 C 637.266,420.018 637.326,419.601 637.445,419.233 C 637.564,418.864 637.736,418.552 637.96,418.297 C 638.183,418.041 638.458,417.846 638.784,417.712 C 639.11,417.578 639.482,417.511 639.9,417.511 C 640.313,417.511 640.682,417.578 641.006,417.712 C 641.329,417.846 641.603,418.041 641.827,418.297 C 642.051,418.552 642.222,418.864 642.342,419.233 C 642.461,419.601 642.521,420.018 642.521,420.482 Z" marker-start="none" marker-end="none"/>
      <path d="M 646.904,425.139 C 646.998,425.139 647.077,425.135 647.14,425.126 C 647.204,425.118 647.262,425.102 647.313,425.078 C 647.364,425.055 647.413,425.022 647.46,424.979 C 647.507,424.936 647.56,424.879 647.62,424.807 L 652.043,419.213 C 652.026,419.392 652.014,419.566 652.005,419.734 C 651.997,419.902 651.992,420.061 651.992,420.211 L 651.992,425.139 L 653.897,425.139 L 653.897,415.822 L 652.772,415.822 C 652.606,415.822 652.465,415.848 652.35,415.899 C 652.235,415.95 652.124,416.044 652.018,416.18 L 647.626,421.729 C 647.639,421.567 647.65,421.408 647.658,421.252 C 647.667,421.097 647.671,420.951 647.671,420.814 L 647.671,415.822 L 645.766,415.822 L 645.766,425.139 L 646.904,425.139 Z" marker-start="none" marker-end="none"/>
     </g>
    </g>
    <g id="Group_15" fill-rule="nonzero" stroke-linejoin="round" stroke-linecap="round" stroke="none" stroke-width="0.365" fill="#000000">
     <g id="Group_16">
      <path d="M 580.289,391.709 C 580.289,390.937 580.156,390.225 579.89,389.573 C 579.624,388.92 579.249,388.356 578.765,387.88 C 578.282,387.403 577.699,387.032 577.018,386.766 C 576.336,386.499 575.581,386.366 574.75,386.366 L 570.603,386.366 L 570.603,397.045 L 574.75,397.045 C 575.581,397.045 576.336,396.91 577.018,396.642 C 577.699,396.373 578.282,396.002 578.765,395.528 C 579.249,395.054 579.624,394.491 579.89,393.838 C 580.156,393.186 580.289,392.476 580.289,391.709 Z M 577.754,391.709 C 577.754,392.237 577.686,392.713 577.549,393.138 C 577.412,393.563 577.216,393.923 576.959,394.218 C 576.703,394.514 576.389,394.741 576.018,394.9 C 575.646,395.059 575.224,395.138 574.75,395.138 L 573.094,395.138 L 573.094,388.273 L 574.75,388.273 C 575.224,388.273 575.646,388.352 576.018,388.511 C 576.389,388.67 576.703,388.897 576.959,389.192 C 577.216,389.488 577.412,389.848 577.549,390.273 C 577.686,390.698 577.754,391.177 577.754,391.709 Z" marker-start="none" marker-end="none"/>
      <path d="M 590.975,386.366 L 589.056,386.366 C 588.841,386.366 588.664,386.416 588.525,386.516 C 588.385,386.616 588.289,386.745 588.235,386.901 L 587.605,388.763 L 583.546,388.763 L 582.916,386.901 C 582.867,386.764 582.772,386.641 582.63,386.531 C 582.488,386.421 582.315,386.366 582.11,386.366 L 580.176,386.366 L 584.308,397.043 L 586.843,397.043 L 590.975,386.366 Z M 584.117,390.448 L 587.034,390.448 L 586.052,393.327 C 585.988,393.509 585.914,393.725 585.828,393.972 C 585.743,394.22 585.659,394.488 585.575,394.777 C 585.497,394.483 585.417,394.212 585.334,393.961 C 585.251,393.712 585.173,393.495 585.099,393.312 L 584.117,390.448 Z" marker-start="none" marker-end="none"/>
      <path d="M 598.418,397.045 L 598.418,395.081 L 595.414,395.081 L 595.414,386.368 L 592.938,386.368 L 592.938,395.081 L 589.934,395.081 L 589.934,397.045 L 598.418,397.045 Z" marker-start="none" marker-end="none"/>
      <path d="M 608.21,386.366 L 606.291,386.366 C 606.076,386.366 605.899,386.416 605.76,386.516 C 605.62,386.616 605.524,386.745 605.47,386.901 L 604.84,388.763 L 600.781,388.763 L 600.151,386.901 C 600.102,386.764 600.007,386.641 599.865,386.531 C 599.723,386.421 599.55,386.366 599.345,386.366 L 597.411,386.366 L 601.543,397.043 L 604.078,397.043 L 608.21,386.366 Z M 601.352,390.448 L 604.269,390.448 L 603.287,393.327 C 603.223,393.509 603.149,393.725 603.063,393.972 C 602.978,394.22 602.894,394.488 602.81,394.777 C 602.732,394.483 602.652,394.212 602.569,393.961 C 602.486,393.712 602.408,393.495 602.334,393.312 L 601.352,390.448 Z" marker-start="none" marker-end="none"/>
      <path d="M 615.884,397.159 C 616.358,397.159 616.775,397.09 617.137,396.951 C 617.498,396.811 617.804,396.628 618.053,396.401 C 618.302,396.174 618.497,395.911 618.639,395.613 C 618.781,395.316 618.868,395.01 618.903,394.698 L 617.437,394.404 C 617.413,394.4 617.392,394.396 617.375,394.394 C 617.358,394.391 617.34,394.39 617.32,394.39 C 617.115,394.39 616.963,394.498 616.866,394.712 C 616.753,394.966 616.623,395.159 616.474,395.291 C 616.325,395.423 616.128,395.489 615.884,395.489 C 615.713,395.489 615.564,395.457 615.437,395.393 C 615.31,395.329 615.204,395.245 615.118,395.142 C 615.033,395.039 614.968,394.919 614.924,394.781 C 614.88,394.644 614.858,394.501 614.858,394.354 C 614.858,394.226 614.869,394.103 614.891,393.985 C 614.913,393.867 614.95,393.748 615.001,393.628 C 615.052,393.508 615.123,393.383 615.214,393.256 C 615.304,393.128 615.42,392.99 615.562,392.843 L 618.199,390.042 C 618.331,390.339 618.436,390.649 618.514,390.971 C 618.592,391.293 618.649,391.627 618.683,391.974 C 618.693,392.112 618.738,392.221 618.818,392.3 C 618.899,392.379 619.005,392.419 619.137,392.419 L 620.573,392.419 C 620.573,391.704 620.478,391.036 620.287,390.416 C 620.097,389.797 619.826,389.23 619.474,388.715 L 621.716,386.366 L 619.474,386.366 C 619.362,386.366 619.262,386.372 619.174,386.384 C 619.086,386.397 619.004,386.417 618.928,386.447 C 618.853,386.476 618.781,386.517 618.712,386.571 C 618.644,386.625 618.57,386.693 618.492,386.777 L 618.031,387.26 C 617.567,386.937 617.06,386.688 616.51,386.512 C 615.961,386.336 615.376,386.248 614.756,386.248 C 614.331,386.248 613.914,386.32 613.506,386.465 C 613.099,386.61 612.736,386.817 612.418,387.085 C 612.101,387.353 611.844,387.679 611.649,388.06 C 611.454,388.442 611.356,388.87 611.356,389.343 C 611.356,389.662 611.406,389.964 611.506,390.249 C 611.606,390.534 611.747,390.799 611.928,391.043 C 612.108,391.287 612.324,391.509 612.576,391.71 C 612.827,391.91 613.102,392.086 613.4,392.235 C 613.171,392.597 613.005,392.951 612.902,393.298 C 612.799,393.644 612.748,393.981 612.748,394.307 C 612.748,394.694 612.818,395.059 612.957,395.403 C 613.096,395.747 613.299,396.049 613.565,396.309 C 613.831,396.569 614.159,396.776 614.547,396.929 C 614.935,397.083 615.381,397.159 615.884,397.159 Z M 613.671,389.537 C 613.671,389.306 613.707,389.097 613.778,388.91 C 613.848,388.722 613.95,388.561 614.082,388.426 C 614.213,388.292 614.371,388.187 614.554,388.113 C 614.737,388.038 614.941,388.001 615.166,388.001 C 615.493,388.001 615.797,388.043 616.078,388.127 C 616.359,388.212 616.622,388.33 616.866,388.484 L 614.411,391.045 C 614.143,390.829 613.952,390.593 613.84,390.338 C 613.727,390.083 613.671,389.816 613.671,389.537 Z" marker-start="none" marker-end="none"/>
      <path d="M 624.515,397.043 L 626.596,397.043 C 626.811,397.043 626.99,396.994 627.135,396.896 C 627.279,396.797 627.373,396.667 627.417,396.504 L 628.882,390.895 C 628.931,390.713 628.98,390.519 629.029,390.312 C 629.077,390.106 629.114,389.889 629.138,389.663 C 629.187,389.894 629.241,390.112 629.3,390.316 C 629.358,390.52 629.414,390.713 629.468,390.895 L 631.197,396.504 C 631.241,396.642 631.335,396.766 631.479,396.877 C 631.623,396.988 631.798,397.043 632.003,397.043 L 632.736,397.043 C 632.951,397.043 633.128,396.995 633.267,396.899 C 633.406,396.803 633.503,396.672 633.557,396.504 L 635.271,390.894 C 635.325,390.722 635.381,390.539 635.44,390.344 C 635.498,390.15 635.549,389.942 635.593,389.72 C 635.632,389.937 635.673,390.144 635.714,390.34 C 635.756,390.537 635.799,390.722 635.842,390.894 L 637.308,396.504 C 637.347,396.647 637.44,396.772 637.586,396.881 C 637.733,396.989 637.909,397.043 638.114,397.043 L 640.063,397.043 L 636.766,386.366 L 634.524,386.366 L 632.516,392.88 C 632.482,392.981 632.447,393.092 632.41,393.212 C 632.373,393.332 632.338,393.459 632.304,393.594 C 632.269,393.459 632.234,393.332 632.197,393.212 C 632.161,393.092 632.125,392.981 632.091,392.88 L 630.054,386.366 L 627.812,386.366 L 624.515,397.043 Z" marker-start="none" marker-end="none"/>
      <path d="M 643.724,386.366 L 641.233,386.366 L 641.233,397.045 L 643.724,397.045 L 643.724,386.366 Z" marker-start="none" marker-end="none"/>
      <path d="M 648.177,390.316 L 648.177,386.366 L 645.7,386.366 L 645.7,397.041 L 649.173,397.041 C 649.945,397.041 650.603,396.962 651.148,396.803 C 651.692,396.644 652.137,396.423 652.481,396.139 C 652.826,395.855 653.076,395.52 653.232,395.134 C 653.388,394.748 653.467,394.327 653.467,393.872 C 653.467,393.525 653.42,393.197 653.327,392.889 C 653.235,392.581 653.097,392.296 652.913,392.034 C 652.73,391.773 652.506,391.539 652.239,391.334 C 651.973,391.129 651.667,390.96 651.32,390.828 C 651.486,390.745 651.641,390.642 651.785,390.52 C 651.929,390.399 652.055,390.25 652.162,390.074 L 654.434,386.366 L 652.192,386.366 C 651.777,386.366 651.479,386.522 651.298,386.835 L 649.525,389.935 C 649.447,390.071 649.355,390.169 649.25,390.228 C 649.145,390.286 648.997,390.316 648.807,390.316 L 648.177,390.316 Z M 648.177,392.022 L 649.173,392.022 C 649.51,392.022 649.797,392.065 650.034,392.15 C 650.271,392.236 650.465,392.354 650.616,392.506 C 650.768,392.657 650.878,392.834 650.946,393.037 C 651.015,393.24 651.049,393.459 651.049,393.693 C 651.049,394.162 650.896,394.529 650.591,394.792 C 650.286,395.056 649.813,395.188 649.173,395.188 L 648.177,395.188 L 648.177,392.022 Z" marker-start="none" marker-end="none"/>
      <path d="M 662.319,397.045 L 662.319,395.138 L 657.937,395.138 L 657.937,392.645 L 661.293,392.645 L 661.293,390.813 L 657.937,390.813 L 657.937,388.273 L 662.319,388.273 L 662.319,386.366 L 655.446,386.366 L 655.446,397.045 L 662.319,397.045 Z" marker-start="none" marker-end="none"/>
      <path d="M 666.202,388.344 L 670.158,388.344 L 670.158,386.366 L 663.725,386.366 L 663.725,397.043 L 666.202,397.043 L 666.202,388.344 Z" marker-start="none" marker-end="none"/>
      <path d="M 678.204,397.045 L 678.204,395.138 L 673.822,395.138 L 673.822,392.645 L 677.178,392.645 L 677.178,390.813 L 673.822,390.813 L 673.822,388.273 L 678.204,388.273 L 678.204,386.366 L 671.331,386.366 L 671.331,397.045 L 678.204,397.045 Z" marker-start="none" marker-end="none"/>
      <path d="M 685.56,394.873 C 685.486,394.755 685.409,394.667 685.329,394.609 C 685.248,394.55 685.144,394.521 685.017,394.521 C 684.905,394.521 684.784,394.556 684.655,394.627 C 684.525,394.698 684.379,394.777 684.215,394.865 C 684.051,394.953 683.865,395.033 683.655,395.103 C 683.445,395.174 683.205,395.21 682.937,395.21 C 682.473,395.21 682.127,395.111 681.9,394.913 C 681.673,394.715 681.559,394.448 681.559,394.111 C 681.559,393.895 681.628,393.717 681.764,393.576 C 681.901,393.434 682.081,393.312 682.303,393.209 C 682.525,393.107 682.779,393.013 683.065,392.927 C 683.351,392.842 683.642,392.746 683.94,392.641 C 684.238,392.536 684.53,392.413 684.816,392.271 C 685.102,392.13 685.356,391.949 685.578,391.729 C 685.8,391.509 685.98,391.242 686.116,390.927 C 686.253,390.612 686.322,390.232 686.322,389.787 C 686.322,389.294 686.236,388.832 686.065,388.402 C 685.894,387.972 685.646,387.598 685.321,387.278 C 684.997,386.958 684.596,386.706 684.12,386.523 C 683.644,386.34 683.103,386.248 682.497,386.248 C 682.165,386.248 681.827,386.282 681.482,386.351 C 681.138,386.419 680.804,386.515 680.482,386.64 C 680.16,386.765 679.857,386.912 679.574,387.083 C 679.29,387.254 679.044,387.445 678.834,387.655 L 679.566,388.813 C 679.62,388.901 679.696,388.972 679.793,389.025 C 679.891,389.079 679.996,389.106 680.108,389.106 C 680.255,389.106 680.403,389.06 680.552,388.967 C 680.701,388.874 680.869,388.771 681.057,388.659 C 681.245,388.547 681.461,388.444 681.706,388.351 C 681.95,388.258 682.238,388.212 682.57,388.212 C 683.02,388.212 683.369,388.311 683.618,388.509 C 683.867,388.706 683.992,389.021 683.992,389.45 C 683.992,389.7 683.923,389.902 683.786,390.059 C 683.65,390.215 683.47,390.344 683.248,390.447 C 683.026,390.55 682.773,390.64 682.49,390.718 C 682.206,390.796 681.916,390.883 681.618,390.978 C 681.32,391.073 681.029,391.191 680.746,391.33 C 680.463,391.469 680.21,391.652 679.988,391.88 C 679.765,392.107 679.586,392.39 679.449,392.73 C 679.312,393.069 679.244,393.488 679.244,393.986 C 679.244,394.387 679.324,394.778 679.486,395.159 C 679.647,395.54 679.884,395.879 680.196,396.177 C 680.509,396.475 680.892,396.714 681.347,396.892 C 681.801,397.07 682.321,397.159 682.907,397.159 C 683.235,397.159 683.553,397.134 683.863,397.082 C 684.174,397.031 684.468,396.955 684.746,396.855 C 685.025,396.755 685.285,396.635 685.527,396.496 C 685.768,396.357 685.985,396.199 686.175,396.023 L 685.56,394.873 Z" marker-start="none" marker-end="none"/>
      <path d="M 693.502,394.873 C 693.428,394.755 693.351,394.667 693.271,394.609 C 693.19,394.55 693.086,394.521 692.959,394.521 C 692.847,394.521 692.726,394.556 692.597,394.627 C 692.467,394.698 692.321,394.777 692.157,394.865 C 691.993,394.953 691.807,395.033 691.597,395.103 C 691.387,395.174 691.147,395.21 690.879,395.21 C 690.415,395.21 690.069,395.111 689.842,394.913 C 689.615,394.715 689.501,394.448 689.501,394.111 C 689.501,393.895 689.57,393.717 689.706,393.576 C 689.843,393.434 690.023,393.312 690.245,393.209 C 690.467,393.107 690.721,393.013 691.007,392.927 C 691.293,392.842 691.584,392.746 691.882,392.641 C 692.18,392.536 692.472,392.413 692.758,392.271 C 693.044,392.13 693.298,391.949 693.52,391.729 C 693.742,391.509 693.922,391.242 694.058,390.927 C 694.195,390.612 694.264,390.232 694.264,389.787 C 694.264,389.294 694.178,388.832 694.007,388.402 C 693.836,387.972 693.588,387.598 693.263,387.278 C 692.939,386.958 692.538,386.706 692.062,386.523 C 691.586,386.34 691.045,386.248 690.439,386.248 C 690.107,386.248 689.769,386.282 689.424,386.351 C 689.08,386.419 688.746,386.515 688.424,386.64 C 688.102,386.765 687.799,386.912 687.516,387.083 C 687.232,387.254 686.986,387.445 686.776,387.655 L 687.508,388.813 C 687.562,388.901 687.638,388.972 687.735,389.025 C 687.833,389.079 687.938,389.106 688.05,389.106 C 688.197,389.106 688.345,389.06 688.494,388.967 C 688.643,388.874 688.811,388.771 688.999,388.659 C 689.187,388.547 689.403,388.444 689.648,388.351 C 689.892,388.258 690.18,388.212 690.512,388.212 C 690.962,388.212 691.311,388.311 691.56,388.509 C 691.809,388.706 691.934,389.021 691.934,389.45 C 691.934,389.7 691.865,389.902 691.728,390.059 C 691.592,390.215 691.412,390.344 691.19,390.447 C 690.968,390.55 690.715,390.64 690.432,390.718 C 690.148,390.796 689.858,390.883 689.56,390.978 C 689.262,391.073 688.971,391.191 688.688,391.33 C 688.405,391.469 688.152,391.652 687.93,391.88 C 687.707,392.107 687.528,392.39 687.391,392.73 C 687.254,393.069 687.186,393.488 687.186,393.986 C 687.186,394.387 687.266,394.778 687.428,395.159 C 687.589,395.54 687.826,395.879 688.138,396.177 C 688.451,396.475 688.834,396.714 689.289,396.892 C 689.743,397.07 690.263,397.159 690.849,397.159 C 691.177,397.159 691.495,397.134 691.805,397.082 C 692.116,397.031 692.41,396.955 692.688,396.855 C 692.967,396.755 693.227,396.635 693.469,396.496 C 693.71,396.357 693.927,396.199 694.117,396.023 L 693.502,394.873 Z" marker-start="none" marker-end="none"/>
      <path d="M 695.113,387.656 C 695.113,387.812 695.143,387.958 695.201,388.092 C 695.26,388.227 695.344,388.344 695.454,388.444 C 695.564,388.544 695.693,388.623 695.842,388.682 C 695.991,388.741 696.159,388.77 696.344,388.77 C 696.564,388.77 696.754,388.732 696.916,388.656 C 697.077,388.581 697.211,388.478 697.319,388.349 C 697.426,388.219 697.505,388.07 697.557,387.902 C 697.608,387.733 697.634,387.556 697.634,387.37 C 697.634,387.126 697.595,386.866 697.516,386.59 C 697.438,386.314 697.322,386.037 697.168,385.758 C 697.015,385.48 696.823,385.206 696.593,384.937 C 696.364,384.669 696.1,384.424 695.802,384.205 L 695.406,384.556 C 695.353,384.61 695.312,384.66 695.285,384.707 C 695.259,384.753 695.245,384.81 695.245,384.879 C 695.245,384.928 695.262,384.98 695.296,385.036 C 695.331,385.093 695.372,385.143 695.421,385.187 C 695.48,385.245 695.548,385.316 695.626,385.399 C 695.704,385.482 695.782,385.575 695.861,385.678 C 695.939,385.78 696.011,385.893 696.077,386.015 C 696.143,386.137 696.193,386.266 696.227,386.403 C 696.056,386.418 695.902,386.459 695.765,386.528 C 695.629,386.596 695.513,386.687 695.417,386.799 C 695.322,386.911 695.248,387.039 695.194,387.184 C 695.14,387.328 695.113,387.485 695.113,387.656 Z" marker-start="none" marker-end="none"/>
      <path d="M 704.487,386.366 L 701.996,386.366 L 701.996,397.045 L 704.487,397.045 L 704.487,386.366 Z" marker-start="none" marker-end="none"/>
      <path d="M 707.767,397.045 C 707.875,397.045 707.965,397.04 708.038,397.03 C 708.112,397.021 708.178,397.002 708.236,396.975 C 708.295,396.948 708.351,396.91 708.405,396.862 C 708.459,396.813 708.52,396.747 708.588,396.664 L 713.658,390.253 C 713.639,390.458 713.624,390.657 713.614,390.85 C 713.604,391.043 713.599,391.225 713.599,391.396 L 713.599,397.045 L 715.783,397.045 L 715.783,386.366 L 714.493,386.366 C 714.303,386.366 714.142,386.395 714.01,386.454 C 713.878,386.513 713.751,386.62 713.629,386.776 L 708.595,393.136 C 708.61,392.95 708.622,392.768 708.632,392.59 C 708.642,392.412 708.647,392.245 708.647,392.088 L 708.647,386.366 L 706.463,386.366 L 706.463,397.045 L 707.767,397.045 Z" marker-start="none" marker-end="none"/>
      <path d="M 724.712,389.126 C 724.771,389.126 724.829,389.115 724.888,389.093 C 724.947,389.07 725.003,389.032 725.056,388.977 L 726.038,387.922 C 725.608,387.369 725.07,386.951 724.423,386.67 C 723.776,386.389 723.01,386.248 722.126,386.248 C 721.315,386.248 720.588,386.386 719.946,386.662 C 719.304,386.938 718.759,387.319 718.312,387.805 C 717.865,388.291 717.522,388.868 717.283,389.535 C 717.043,390.202 716.924,390.926 716.924,391.707 C 716.924,392.504 717.061,393.235 717.334,393.902 C 717.608,394.569 717.99,395.144 718.481,395.628 C 718.972,396.111 719.559,396.488 720.243,396.756 C 720.927,397.025 721.681,397.159 722.507,397.159 C 722.907,397.159 723.285,397.124 723.639,397.053 C 723.993,396.982 724.324,396.884 724.632,396.759 C 724.939,396.635 725.223,396.486 725.481,396.312 C 725.74,396.138 725.97,395.946 726.17,395.736 L 725.335,394.615 C 725.281,394.546 725.218,394.484 725.144,394.428 C 725.071,394.372 724.969,394.344 724.837,394.344 C 724.749,394.344 724.666,394.363 724.588,394.402 C 724.509,394.441 724.426,394.489 724.338,394.545 C 724.251,394.601 724.154,394.662 724.049,394.728 C 723.944,394.794 723.819,394.855 723.675,394.912 C 723.531,394.968 723.363,395.015 723.17,395.055 C 722.977,395.093 722.751,395.113 722.492,395.113 C 722.043,395.113 721.632,395.034 721.261,394.875 C 720.89,394.716 720.571,394.489 720.305,394.193 C 720.039,393.898 719.831,393.54 719.682,393.12 C 719.533,392.7 719.459,392.228 719.459,391.706 C 719.459,391.158 719.533,390.672 719.682,390.247 C 719.831,389.822 720.034,389.465 720.29,389.174 C 720.547,388.883 720.846,388.662 721.188,388.511 C 721.53,388.359 721.896,388.284 722.287,388.284 C 722.512,388.284 722.717,388.295 722.902,388.317 C 723.088,388.339 723.26,388.376 723.419,388.43 C 723.578,388.484 723.729,388.553 723.873,388.639 C 724.017,388.724 724.163,388.831 724.309,388.958 C 724.368,389.007 724.431,389.047 724.5,389.079 C 724.568,389.11 724.639,389.126 724.712,389.126 Z" marker-start="none" marker-end="none"/>
      <path d="M 726.731,387.516 C 726.731,387.692 726.764,387.856 726.83,388.007 C 726.895,388.159 726.986,388.291 727.101,388.403 C 727.215,388.516 727.351,388.605 727.507,388.671 C 727.664,388.737 727.835,388.77 728.02,388.77 C 728.201,388.77 728.369,388.737 728.526,388.671 C 728.682,388.605 728.819,388.516 728.936,388.403 C 729.053,388.291 729.145,388.159 729.211,388.007 C 729.277,387.856 729.31,387.692 729.31,387.516 C 729.31,387.34 729.277,387.175 729.211,387.021 C 729.145,386.867 729.053,386.734 728.936,386.622 C 728.819,386.509 728.682,386.421 728.526,386.358 C 728.369,386.294 728.201,386.262 728.02,386.262 C 727.835,386.262 727.664,386.294 727.507,386.358 C 727.351,386.421 727.215,386.509 727.101,386.622 C 726.986,386.734 726.895,386.867 726.83,387.021 C 726.764,387.175 726.731,387.34 726.731,387.516 Z" marker-start="none" marker-end="none"/>
     </g>
    </g>
   </g>
   <path d="M 543.069,374.532 L 543.069,559.542 C 543.069,567.939 549.884,574.755 558.281,574.755 L 743.292,574.755 C 751.689,574.755 758.504,567.939 758.504,559.542 L 758.504,374.532 C 758.504,366.135 751.689,359.319 743.292,359.319 L 558.281,359.319 C 549.884,359.319 543.069,366.135 543.069,374.532 Z M 757.795,375.141 L 757.795,558.933 C 757.795,567.275 751.025,574.046 742.683,574.046 L 558.89,574.046 C 550.548,574.046 543.778,567.275 543.778,558.933 L 543.778,375.141 C 543.778,366.799 550.548,360.028 558.89,360.028 L 742.683,360.028 C 751.025,360.028 757.795,366.799 757.795,375.141 Z" stroke-linejoin="miter" stroke-width="0.802" fill="#7f7f7f" stroke="none" marker-start="none" marker-end="none"/>
  </g>
 </g>
</svg>
