<?xml version="1.0" standalone="no"?>
<!DOCTYPE svg PUBLIC "-//W3C//DTD SVG 1.1//EN" "http://www.w3.org/Graphics/SVG/1.1/DTD/svg11.dtd">
<!--Generator: Xara Designer (www.xara.com), SVG filter version: 6.2.0.0-->
<svg stroke-width="0.501" stroke-linejoin="bevel" fill-rule="evenodd" xmlns:xlink="http://www.w3.org/1999/xlink" xmlns="http://www.w3.org/2000/svg" version="1.1" overflow="visible" width="215.434pt" height="215.434pt" viewBox="0 0 215.434 215.434">
 <defs>
	</defs>
 <g id="Document" fill="none" stroke="black" font-family="Times New Roman" font-size="16" transform="scale(1 -1)">
  <g id="Spread" transform="translate(0 -215.434)">
   <g id="Layer 1">
    <path d="M 199.757,214.933 L 15.176,214.933 C 6.799,214.933 0,208.134 0,199.757 L 0,15.176 C 0,6.799 6.799,0 15.176,0 L 199.757,0 C 208.134,0 214.933,6.799 214.933,15.176 L 214.933,199.757 C 214.933,208.134 208.134,214.933 199.757,214.933 Z" stroke="#999999" fill="#ffffff" stroke-linejoin="miter" marker-start="none" marker-end="none"/>
    <g id="Group">
     <g id="Group_1" stroke-linejoin="miter" stroke-miterlimit="79.8403193612775">
      <path d="M 153.485,158.48 C 144.588,169.02 145.913,184.806 156.465,193.689 C 166.996,202.604 182.761,201.272 191.662,190.735 C 200.576,180.194 199.24,164.42 188.687,155.517 C 178.155,146.621 162.383,147.952 153.485,158.48 Z" stroke="none" fill="#000000" stroke-width="1.039" marker-start="none" marker-end="none" stroke-miterlimit="19.9600798403194"/>
      <path d="M 154.662,159.437 C 145.775,169.982 147.091,185.734 157.635,194.652 C 168.179,203.524 183.945,202.21 192.862,191.673 C 201.756,181.135 200.423,165.352 189.876,156.455 C 179.348,147.559 163.567,148.883 154.662,159.437 Z" stroke="#b2b2b2" stroke-width="5.658" marker-start="none" marker-end="none" stroke-miterlimit="19.9600798403194"/>
     </g>
     <text xml:space="preserve" transform="translate(164.865 164.648) scale(1 -1)" font-family="Lato Black" stroke="none" fill="#b2b2b2" stroke-width="0.773" stroke-linejoin="round" stroke-linecap="round" font-weight="bold" font-size="30.96" stroke-miterlimit="79.8403193612775"><tspan x="0" y="0">3</tspan></text>
     <g id="Group_2" stroke-linejoin="miter" stroke-miterlimit="79.8403193612775">
      <path d="M 22.442,158.05 C 13.545,168.59 14.87,184.376 25.422,193.259 C 35.953,202.174 51.718,200.842 60.619,190.305 C 69.533,179.764 68.197,163.99 57.644,155.087 C 47.112,146.191 31.34,147.522 22.442,158.05 Z" stroke="none" fill="#000000" stroke-width="1.039" marker-start="none" marker-end="none" stroke-miterlimit="19.9600798403194"/>
      <path d="M 23.619,159.007 C 14.732,169.552 16.048,185.304 26.592,194.222 C 37.136,203.094 52.902,201.78 61.819,191.243 C 70.713,180.705 69.38,164.922 58.833,156.025 C 48.305,147.129 32.524,148.453 23.619,159.007 Z" stroke="#b2b2b2" stroke-width="5.658" marker-start="none" marker-end="none" stroke-miterlimit="19.9600798403194"/>
     </g>
     <path d="M 95.238,115.795 C 108.677,128.062 115.506,144.876 115.509,161.749 L 123.989,161.749 C 123.983,142.577 116.233,123.464 100.964,109.53 C 87.403,97.157 70.326,91.055 53.303,91.06 L 53.303,99.546 C 68.285,99.539 83.312,104.908 95.238,115.795 Z" fill="#ff3718" stroke-linecap="round" stroke="none" stroke-width="0.541" stroke-linejoin="round" marker-start="none" marker-end="none" stroke-miterlimit="79.8403193612775"/>
     <path d="M 15.35,95.287 L 18.395,97.405 L 21.447,99.527 L 21.448,99.58 L 48.725,99.58 L 48.724,91.044 L 21.448,91.044 L 18.395,93.164 L 15.35,95.287 Z" fill="#ff3718" stroke-linecap="round" stroke="none" stroke-width="0.103" stroke-linejoin="miter" marker-start="none" marker-end="none" stroke-miterlimit="79.8403193612775"/>
     <path d="M 15.346,106.837 L 18.393,108.957 L 21.448,111.078 L 21.448,106.837 L 21.444,102.596 L 18.392,104.718 L 15.346,106.837 Z M 21.448,111.101 L 48.725,111.102 L 48.725,102.567 L 21.448,102.567 L 21.448,111.101 Z" fill="#ffcd36" stroke-linecap="round" stroke="none" stroke-width="0.103" stroke-linejoin="miter" marker-start="none" marker-end="none" stroke-miterlimit="79.8403193612775"/>
     <path d="M 87.616,124.149 C 98.607,134.189 104.194,147.944 104.2,161.749 L 112.68,161.749 C 112.675,145.641 106.161,129.592 93.333,117.883 C 81.947,107.489 67.604,102.369 53.304,102.372 L 53.303,110.858 C 65.56,110.848 77.852,115.243 87.616,124.149 Z" fill="#ffcd36" stroke-linecap="round" stroke="none" stroke-width="0.453" stroke-linejoin="round" marker-start="none" marker-end="none" stroke-miterlimit="79.8403193612775"/>
     <g id="Group_3" fill="#e5e5e5" stroke-linecap="round" stroke="none">
      <path d="M 15.346,118.153 L 18.392,120.268 L 21.448,122.39 L 21.448,118.149 L 21.444,113.906 L 18.392,116.026 L 15.346,118.153 Z M 21.448,122.4 L 48.725,122.399 L 48.725,113.864 L 21.448,113.864 L 21.448,122.4 Z" stroke-width="0.103" stroke-linejoin="miter" marker-start="none" marker-end="none" stroke-miterlimit="79.8403193612775"/>
      <path d="M 79.989,132.504 C 88.541,140.311 92.88,151.016 92.887,161.749 L 101.372,161.748 C 101.368,148.707 96.095,135.717 85.706,126.238 C 76.491,117.827 64.875,113.679 53.303,113.681 L 53.303,122.163 C 62.836,122.163 72.4,125.577 79.989,132.504 Z" stroke-width="0.368" stroke-linejoin="round" marker-start="none" marker-end="none" stroke-miterlimit="79.8403193612775"/>
     </g>
     <path d="M 72.368,140.859 C 78.475,146.437 81.575,154.075 81.578,161.748 L 90.065,161.749 C 90.055,151.779 86.023,141.84 78.085,134.597 C 71.035,128.158 62.159,124.987 53.303,124.991 L 53.303,133.479 C 60.11,133.472 66.942,135.914 72.368,140.859 Z" fill="#11a7e0" stroke-linecap="round" stroke="none" stroke-width="0.281" stroke-linejoin="round" marker-start="none" marker-end="none" stroke-miterlimit="79.8403193612775"/>
     <path d="M 15.35,129.206 L 18.394,131.338 L 21.447,133.479 L 21.447,133.479 L 48.724,133.479 L 48.725,124.94 L 21.448,124.94 L 21.448,124.94 L 18.393,127.07 L 15.35,129.206 Z" fill="#11a7e0" stroke-linecap="round" stroke="none" stroke-width="0.103" stroke-linejoin="miter" marker-start="none" marker-end="none" stroke-miterlimit="79.8403193612775"/>
     <g id="Group_4" stroke-linejoin="miter" stroke-miterlimit="79.8403193612775">
      <path d="M 80.66,120.39 C 76.138,125.741 76.815,133.761 82.171,138.288 C 87.528,142.804 95.547,142.131 100.071,136.774 C 104.594,131.419 103.914,123.402 98.56,118.879 C 93.203,114.355 85.185,115.031 80.66,120.39 Z" stroke="none" fill="#ffffff" stroke-width="0.526" marker-start="none" marker-end="none" stroke-miterlimit="19.9600798403194"/>
      <path d="M 81.268,120.868 C 76.741,126.222 77.415,134.238 82.775,138.762 C 88.133,143.286 96.148,142.613 100.673,137.25 C 105.2,131.895 104.516,123.878 99.165,119.352 C 93.805,114.827 85.79,115.508 81.268,120.868 Z" fill="none" stroke="#55bae6" stroke-width="2.872" marker-start="none" marker-end="none" stroke-miterlimit="19.9600798403194"/>
     </g>
     <g id="Group_5" stroke-linejoin="miter" stroke-miterlimit="79.8403193612775">
      <path d="M 23.033,103.593 C 18.509,108.949 19.188,116.966 24.543,121.494 C 29.903,126.015 37.923,125.337 42.446,119.979 C 46.974,114.626 46.291,106.604 40.935,102.085 C 35.576,97.566 27.56,98.24 23.033,103.593 Z" stroke="none" fill="#ffffff" stroke-width="0.526" marker-start="none" marker-end="none" stroke-miterlimit="19.9600798403194"/>
      <path d="M 23.64,104.077 C 19.116,109.428 19.792,117.448 25.152,121.972 C 30.511,126.493 38.526,125.819 43.049,120.459 C 47.576,115.106 46.898,107.086 41.542,102.565 C 36.179,98.04 28.163,98.716 23.64,104.077 Z" fill="none" stroke="#55bae6" stroke-width="2.872" marker-start="none" marker-end="none" stroke-miterlimit="19.9600798403194"/>
     </g>
     <text xml:space="preserve" transform="translate(81.918 123.384) scale(1 -1)" font-family="Lato Black" stroke="none" fill="#000000" stroke-width="0.387" stroke-linejoin="round" stroke-linecap="round" font-weight="bold" font-size="15.564" stroke-miterlimit="79.8403193612775"><tspan x="0" y="0">+1</tspan></text>
     <text xml:space="preserve" transform="translate(24.294 106.593) scale(1 -1)" font-family="Lato Black" stroke="none" fill="#000000" stroke-width="0.387" stroke-linejoin="round" stroke-linecap="round" font-weight="bold" font-size="15.564" stroke-miterlimit="79.8403193612775"><tspan x="0" y="0">+1</tspan></text>
     <g id="Group_6" font-size="7.995" font-family="Lato Black">
      <path d="M 91.28,200.588 C 99.132,207.215 110.879,206.224 117.506,198.375 C 124.137,190.529 123.145,178.777 115.296,172.15 C 107.446,165.52 95.697,166.511 89.07,174.366 C 82.44,182.21 83.431,193.958 91.28,200.588 Z" stroke="#ff0000" fill="#ffffff" stroke-width="4.212" stroke-linejoin="miter" marker-start="none" marker-end="none" stroke-miterlimit="79.8403193612775"/>
      <text xml:space="preserve" transform="translate(103.417 191.097) scale(1 -1)" stroke="none" fill="#000000" stroke-width="0.248" stroke-linejoin="round" stroke-linecap="round" stroke-miterlimit="79.8403193612775"><tspan x="-8.494" y="0">NO</tspan><tspan x="3.704" y="0">T</tspan><tspan x="-13.473" y="7.673">CIR</tspan><tspan x="-0.544" y="7.673">CU-</tspan><tspan x="-7.679" y="15.346">LAR</tspan></text>
     </g>
     <g id="Group_7" stroke="#f0942b" stroke-linejoin="miter" stroke-linecap="round">
      <path d="M 15.549,68.362 L 15.549,34.47 L 119.137,34.47 L 119.137,68.362 L 15.549,68.362 Z" fill="#f0942b" stroke-width="1.738" marker-start="none" marker-end="none" stroke-miterlimit="79.8403193612775"/>
      <path d="M 15.549,69.705 L 15.549,59.895 C 15.549,57.324 17.633,55.247 20.195,55.247 L 114.487,55.247 C 117.049,55.247 119.137,57.324 119.137,59.895 L 119.137,69.705 C 119.137,72.281 117.049,74.359 114.487,74.359 L 20.195,74.359 C 17.633,74.359 15.549,72.281 15.549,69.705 Z" fill="#f0942b" stroke-width="1.738" marker-start="none" marker-end="none" stroke-miterlimit="79.8403193612775"/>
      <path d="M 16.246,40.812 L 16.246,23.167 C 16.246,18.554 19.99,14.808 24.608,14.808 L 191.654,14.808 C 196.267,14.808 200.015,18.554 200.015,23.167 L 200.015,40.812 C 200.015,45.43 196.267,49.178 191.654,49.178 L 24.608,49.178 C 19.99,49.178 16.246,45.43 16.246,40.812 Z" fill="#ffffff" stroke-width="3.13" marker-start="none" marker-end="none" stroke-miterlimit="79.8403193612775"/>
     </g>
     <g id="Group_8" stroke-linejoin="miter" stroke-miterlimit="79.8403193612775">
      <path d="M 169.691,93.711 C 163.791,100.689 164.67,111.149 171.665,117.058 C 178.647,122.95 189.1,122.071 195.004,115.084 C 200.913,108.092 200.027,97.638 193.03,91.733 C 186.048,85.838 175.591,86.717 169.691,93.711 Z" stroke="none" fill="#000000" stroke-width="0.686" marker-start="none" marker-end="none" stroke-miterlimit="19.9600798403194"/>
      <path d="M 170.469,94.32 C 164.578,101.318 165.45,111.777 172.443,117.67 C 179.432,123.579 189.884,122.696 195.8,115.703 C 201.697,108.721 200.812,98.269 193.818,92.364 C 186.839,86.458 176.375,87.337 170.469,94.32 Z" stroke="#b2b2b2" stroke-width="3.752" marker-start="none" marker-end="none" stroke-miterlimit="19.9600798403194"/>
     </g>
     <g id="Group_9" stroke-linejoin="miter" stroke-miterlimit="79.8403193612775">
      <path d="M 129.006,93.698 C 123.106,100.687 123.985,111.155 130.982,117.046 C 137.965,122.957 148.419,122.074 154.321,115.086 C 160.232,108.097 159.346,97.637 152.348,91.733 C 145.365,85.834 134.906,86.717 129.006,93.698 Z" stroke="none" fill="#ffffff" stroke-width="0.689" marker-start="none" marker-end="none" stroke-miterlimit="19.9600798403194"/>
      <path d="M 129.786,94.333 C 123.893,101.325 124.766,111.771 131.758,117.684 C 138.749,123.568 149.204,122.696 155.117,115.708 C 161.015,108.721 160.131,98.255 153.137,92.355 C 146.156,86.456 135.691,87.334 129.786,94.333 Z" stroke="#55bae6" stroke-width="3.752" marker-start="none" marker-end="none" stroke-miterlimit="19.9600798403194"/>
     </g>
     <g id="Group_10" stroke-linejoin="miter" stroke-miterlimit="79.8403193612775">
      <path d="M 153.485,158.479 C 144.588,169.019 145.913,184.805 156.465,193.689 C 166.996,202.603 182.761,201.271 191.662,190.733 C 200.576,180.193 199.24,164.419 188.686,155.516 C 178.155,146.62 162.383,147.951 153.485,158.479 Z" stroke="none" fill="#ffffff" stroke-width="1.039" marker-start="none" marker-end="none" stroke-miterlimit="19.9600798403194"/>
      <path d="M 154.662,159.436 C 145.775,169.981 147.091,185.734 157.635,194.651 C 168.178,203.524 183.945,202.209 192.862,191.671 C 201.756,181.134 200.423,165.351 189.876,156.454 C 179.348,147.558 163.567,148.882 154.662,159.436 Z" stroke="#55bae6" stroke-width="5.658" marker-start="none" marker-end="none" stroke-miterlimit="19.9600798403194"/>
     </g>
     <text xml:space="preserve" transform="translate(176.447 97.916) scale(1 -1)" font-family="Lato Black" stroke="none" fill="#b2b2b2" stroke-width="0.485" stroke-linejoin="round" stroke-linecap="round" font-weight="bold" font-size="19.491" stroke-miterlimit="79.8403193612775"><tspan x="0" y="0">1</tspan></text>
     <text xml:space="preserve" transform="translate(136.692 97.916) scale(1 -1)" font-family="Lato Black" stroke="none" fill="#000000" stroke-width="0.485" stroke-linejoin="round" stroke-linecap="round" font-weight="bold" font-size="19.491" stroke-miterlimit="79.8403193612775"><tspan x="0" y="0">2</tspan></text>
     <text xml:space="preserve" transform="translate(34.799 56.502) scale(1 -1)" font-family="Lato Black" stroke="none" fill="#ffffff" stroke-width="0.319" stroke-linejoin="round" stroke-linecap="round" font-weight="bold" font-size="12.785" stroke-miterlimit="79.8403193612775"><tspan x="0" y="0">RESOUR</tspan><tspan x="50.348" y="0">CE</tspan></text>
     <text xml:space="preserve" transform="translate(46.294 26.852) scale(1 -1)" font-family="Lato Black" stroke="none" fill="#000000" stroke-width="0.365" stroke-linejoin="round" stroke-linecap="round" font-weight="bold" font-size="14.654" stroke-miterlimit="79.8403193612775"><tspan x="-3" y="0">SAND &amp; MET</tspan><tspan x="87.587" y="0">AL</tspan><tspan x="105.43" y="0">, INC.</tspan></text>
    </g>
   </g>
  </g>
 </g>
</svg>
