<?xml version="1.0" standalone="no"?>
<!DOCTYPE svg PUBLIC "-//W3C//DTD SVG 1.1//EN" "http://www.w3.org/Graphics/SVG/1.1/DTD/svg11.dtd">
<!--Generator: Xara Designer (www.xara.com), SVG filter version: 6.6.0.0-->
<svg fill="none" fill-rule="evenodd" stroke="black" stroke-width="0.501" stroke-linejoin="bevel" stroke-miterlimit="10" font-family="Times New Roman" font-size="16" style="font-variant-ligatures:none" xmlns:xlink="http://www.w3.org/1999/xlink" xmlns="http://www.w3.org/2000/svg" version="1.1" overflow="visible" width="215.435pt" height="215.436pt" viewBox="274.569 -568.755 215.435 215.436">
 <defs>
	</defs>
 <g id="Page background" transform="scale(1 -1)"/>
 <g id="Layer 1" transform="scale(1 -1)">
  <g id="Group">
   <g id="Group_1" stroke-linejoin="miter" stroke="none" stroke-width="0.802">
    <path d="M 274.569,553.542 L 274.569,368.532 C 274.569,360.135 281.384,353.319 289.781,353.319 L 474.792,353.319 C 483.189,353.319 490.004,360.135 490.004,368.532 L 490.004,553.542 C 490.004,561.939 483.189,568.755 474.792,568.755 L 289.781,568.755 C 281.384,568.755 274.569,561.939 274.569,553.542 Z" fill="#7f7f7f" marker-start="none" marker-end="none"/>
    <path d="M 275.278,552.933 L 275.278,369.141 C 275.278,360.799 282.048,354.028 290.39,354.028 L 474.183,354.028 C 482.525,354.028 489.295,360.799 489.295,369.141 L 489.295,552.933 C 489.295,561.275 482.525,568.046 474.183,568.046 L 290.39,568.046 C 282.048,568.046 275.278,561.275 275.278,552.933 Z" marker-start="none" marker-end="none"/>
    <path d="M 275.278,552.933 L 275.278,369.141 C 275.278,360.799 282.048,354.028 290.39,354.028 L 474.183,354.028 C 482.525,354.028 489.295,360.799 489.295,369.141 L 489.295,552.933 C 489.295,561.275 482.525,568.046 474.183,568.046 L 290.39,568.046 C 282.048,568.046 275.278,561.275 275.278,552.933 Z" fill="#ffffff" marker-start="none" marker-end="none"/>
   </g>
   <g id="Group_2" stroke-linejoin="miter">
    <path d="M 428.054,511.8 C 419.157,522.34 420.482,538.126 431.034,547.009 C 441.565,555.924 457.33,554.592 466.231,544.055 C 475.145,533.514 473.809,517.74 463.256,508.837 C 452.724,499.941 436.952,501.272 428.054,511.8 Z" stroke="none" fill="#000000" stroke-width="1.039" marker-start="none" marker-end="none"/>
    <path d="M 429.231,512.757 C 420.344,523.302 421.66,539.054 432.204,547.972 C 442.748,556.844 458.514,555.53 467.431,544.993 C 476.325,534.455 474.992,518.672 464.445,509.775 C 453.917,500.879 438.136,502.203 429.231,512.757 Z" stroke="#b2b2b2" stroke-width="5.658" marker-start="none" marker-end="none"/>
   </g>
   <g id="Group_3" stroke-linejoin="miter">
    <path d="M 297.011,511.37 C 288.114,521.91 289.439,537.696 299.991,546.579 C 310.522,555.494 326.287,554.162 335.188,543.625 C 344.102,533.084 342.766,517.31 332.213,508.407 C 321.681,499.511 305.909,500.842 297.011,511.37 Z" stroke="none" fill="#000000" stroke-width="1.039" marker-start="none" marker-end="none"/>
    <path d="M 298.188,512.327 C 289.301,522.872 290.617,538.624 301.161,547.542 C 311.705,556.414 327.471,555.1 336.388,544.563 C 345.282,534.025 343.949,518.242 333.402,509.345 C 322.874,500.449 307.093,501.773 298.188,512.327 Z" stroke="#b2b2b2" stroke-width="5.658" marker-start="none" marker-end="none"/>
   </g>
   <path d="M 369.807,469.115 C 383.246,481.382 390.075,498.196 390.078,515.069 L 398.558,515.069 C 398.552,495.897 390.802,476.784 375.533,462.85 C 361.972,450.477 344.895,444.375 327.872,444.38 L 327.872,452.866 C 342.854,452.859 357.881,458.228 369.807,469.115 Z" fill="#ff3718" stroke-linecap="round" stroke="none" stroke-width="0.541" stroke-linejoin="round" marker-start="none" marker-end="none"/>
   <path d="M 289.919,448.607 L 292.964,450.725 L 296.016,452.847 L 296.017,452.9 L 323.294,452.9 L 323.293,444.364 L 296.017,444.364 L 292.964,446.484 L 289.919,448.607 Z" fill="#ff3718" stroke-linecap="round" stroke="none" stroke-width="0.103" stroke-linejoin="miter" marker-start="none" marker-end="none"/>
   <path d="M 289.915,460.157 L 292.962,462.277 L 296.017,464.398 L 296.017,460.157 L 296.013,455.916 L 292.961,458.038 L 289.915,460.157 Z M 296.017,464.421 L 323.294,464.422 L 323.294,455.887 L 296.017,455.887 L 296.017,464.421 Z" fill="#ffcd36" stroke-linecap="round" stroke="none" stroke-width="0.103" stroke-linejoin="miter" marker-start="none" marker-end="none"/>
   <path d="M 362.185,477.469 C 373.176,487.509 378.763,501.264 378.769,515.069 L 387.249,515.069 C 387.244,498.961 380.73,482.912 367.902,471.203 C 356.516,460.809 342.173,455.689 327.873,455.692 L 327.872,464.178 C 340.129,464.168 352.421,468.563 362.185,477.469 Z" fill="#ffcd36" stroke-linecap="round" stroke="none" stroke-width="0.453" stroke-linejoin="round" marker-start="none" marker-end="none"/>
   <g id="Group_4" fill="#e5e5e5" stroke-linecap="round" stroke="none">
    <path d="M 289.915,471.473 L 292.961,473.588 L 296.017,475.71 L 296.017,471.469 L 296.013,467.226 L 292.961,469.346 L 289.915,471.473 Z M 296.017,475.72 L 323.294,475.719 L 323.294,467.184 L 296.017,467.184 L 296.017,475.72 Z" stroke-width="0.103" stroke-linejoin="miter" marker-start="none" marker-end="none"/>
    <path d="M 354.558,485.824 C 363.11,493.631 367.449,504.336 367.456,515.069 L 375.941,515.068 C 375.937,502.027 370.664,489.037 360.275,479.558 C 351.06,471.147 339.444,466.999 327.872,467.001 L 327.872,475.483 C 337.405,475.483 346.969,478.897 354.558,485.824 Z" stroke-width="0.368" stroke-linejoin="round" marker-start="none" marker-end="none"/>
   </g>
   <path d="M 346.937,494.179 C 353.044,499.757 356.144,507.395 356.147,515.068 L 364.634,515.069 C 364.624,505.099 360.592,495.16 352.654,487.917 C 345.604,481.478 336.728,478.307 327.872,478.311 L 327.872,486.799 C 334.679,486.792 341.511,489.234 346.937,494.179 Z" fill="#11a7e0" stroke-linecap="round" stroke="none" stroke-width="0.281" stroke-linejoin="round" marker-start="none" marker-end="none"/>
   <path d="M 289.919,482.526 L 292.963,484.658 L 296.016,486.799 L 296.016,486.799 L 323.293,486.799 L 323.294,478.26 L 296.017,478.26 L 296.017,478.26 L 292.962,480.39 L 289.919,482.526 Z" fill="#11a7e0" stroke-linecap="round" stroke="none" stroke-width="0.103" stroke-linejoin="miter" marker-start="none" marker-end="none"/>
   <g id="Group_5" stroke-linejoin="miter">
    <path d="M 355.229,473.71 C 350.707,479.061 351.384,487.081 356.74,491.608 C 362.097,496.124 370.116,495.451 374.64,490.094 C 379.163,484.739 378.483,476.722 373.129,472.199 C 367.772,467.675 359.754,468.351 355.229,473.71 Z" stroke="none" fill="#ffffff" stroke-width="0.526" marker-start="none" marker-end="none"/>
    <path d="M 355.837,474.188 C 351.31,479.542 351.984,487.558 357.344,492.082 C 362.702,496.606 370.717,495.933 375.242,490.57 C 379.769,485.215 379.085,477.198 373.734,472.672 C 368.374,468.147 360.359,468.828 355.837,474.188 Z" fill="none" stroke="#539bc5" stroke-width="2.872" marker-start="none" marker-end="none"/>
   </g>
   <g id="Group_6" stroke-linejoin="miter">
    <path d="M 297.602,456.913 C 293.078,462.269 293.757,470.286 299.112,474.814 C 304.472,479.335 312.492,478.657 317.015,473.299 C 321.543,467.946 320.86,459.924 315.504,455.405 C 310.145,450.886 302.129,451.56 297.602,456.913 Z" stroke="none" fill="#ffffff" stroke-width="0.526" marker-start="none" marker-end="none"/>
    <path d="M 298.209,457.397 C 293.685,462.748 294.361,470.768 299.721,475.292 C 305.08,479.813 313.095,479.139 317.618,473.779 C 322.145,468.426 321.467,460.406 316.111,455.885 C 310.748,451.36 302.732,452.036 298.209,457.397 Z" fill="none" stroke="#539bc5" stroke-width="2.872" marker-start="none" marker-end="none"/>
   </g>
   <g id="Group_7" fill-rule="nonzero" stroke-linejoin="round" stroke-linecap="round" stroke="none" stroke-width="0.387" fill="#000000">
    <g id="Group_8">
     <path d="M 361.966,485.881 L 361.966,482.799 L 364.845,482.799 L 364.845,481.07 L 361.966,481.07 L 361.966,477.973 L 360.005,477.973 L 360.005,481.07 L 357.141,481.07 L 357.141,482.799 L 360.005,482.799 L 360.005,485.881 L 361.966,485.881 Z" marker-start="none" marker-end="none"/>
     <path d="M 367.476,478.448 L 369.655,478.448 L 369.655,484.168 C 369.655,484.449 369.663,484.742 369.678,485.048 L 368.394,483.981 C 368.311,483.914 368.228,483.866 368.145,483.837 C 368.062,483.809 367.982,483.795 367.904,483.795 C 367.769,483.795 367.649,483.824 367.542,483.884 C 367.436,483.944 367.357,484.007 367.305,484.075 L 366.542,485.087 L 370.075,488.052 L 372.068,488.052 L 372.068,478.448 L 373.935,478.448 L 373.935,476.704 L 367.476,476.704 L 367.476,478.448 Z" marker-start="none" marker-end="none"/>
    </g>
   </g>
   <g id="Group_9" fill-rule="nonzero" stroke-linejoin="round" stroke-linecap="round" stroke="none" stroke-width="0.387" fill="#000000">
    <g id="Group_10">
     <path d="M 304.342,469.09 L 304.342,466.008 L 307.221,466.008 L 307.221,464.279 L 304.342,464.279 L 304.342,461.182 L 302.381,461.182 L 302.381,464.279 L 299.517,464.279 L 299.517,466.008 L 302.381,466.008 L 302.381,469.09 L 304.342,469.09 Z" marker-start="none" marker-end="none"/>
     <path d="M 309.852,461.657 L 312.031,461.657 L 312.031,467.377 C 312.031,467.658 312.039,467.951 312.054,468.257 L 310.77,467.19 C 310.687,467.123 310.604,467.075 310.521,467.046 C 310.438,467.018 310.358,467.004 310.28,467.004 C 310.145,467.004 310.025,467.033 309.918,467.093 C 309.812,467.153 309.733,467.216 309.681,467.284 L 308.918,468.296 L 312.451,471.261 L 314.444,471.261 L 314.444,461.657 L 316.311,461.657 L 316.311,459.913 L 309.852,459.913 L 309.852,461.657 Z" marker-start="none" marker-end="none"/>
    </g>
   </g>
   <path d="M 365.849,553.908 C 373.701,560.535 385.448,559.544 392.075,551.695 C 398.706,543.849 397.714,532.097 389.865,525.47 C 382.015,518.84 370.266,519.831 363.639,527.686 C 357.009,535.53 358,547.278 365.849,553.908 Z" stroke="#ff0000" fill="#ffffff" stroke-width="4.212" stroke-linejoin="miter" marker-start="none" marker-end="none"/>
   <g id="Group_11" fill-rule="nonzero" stroke-linejoin="round" stroke-linecap="round" stroke="none" stroke-width="0.248" fill="#000000">
    <g id="Group_12">
     <path d="M 370.683,550.243 C 370.742,550.243 370.791,550.241 370.831,550.235 C 370.871,550.23 370.907,550.22 370.939,550.205 C 370.971,550.191 371.002,550.17 371.031,550.143 C 371.06,550.117 371.094,550.081 371.131,550.035 L 373.897,546.538 C 373.886,546.65 373.878,546.758 373.873,546.864 C 373.868,546.969 373.865,547.068 373.865,547.161 L 373.865,550.243 L 375.056,550.243 L 375.056,544.417 L 374.353,544.417 C 374.249,544.417 374.161,544.433 374.089,544.465 C 374.017,544.497 373.948,544.556 373.881,544.641 L 371.135,548.111 C 371.143,548.009 371.15,547.91 371.155,547.813 C 371.16,547.716 371.163,547.624 371.163,547.539 L 371.163,544.417 L 369.972,544.417 L 369.972,550.243 L 370.683,550.243 Z" marker-start="none" marker-end="none"/>
     <path d="M 381.763,547.331 C 381.763,546.91 381.69,546.518 381.545,546.156 C 381.4,545.793 381.195,545.478 380.931,545.21 C 380.668,544.942 380.35,544.732 379.978,544.58 C 379.606,544.429 379.194,544.353 378.741,544.353 C 378.288,544.353 377.875,544.429 377.502,544.58 C 377.129,544.732 376.809,544.942 376.544,545.21 C 376.279,545.478 376.074,545.793 375.929,546.156 C 375.784,546.518 375.711,546.91 375.711,547.331 C 375.711,547.752 375.784,548.144 375.929,548.507 C 376.074,548.869 376.279,549.184 376.544,549.45 C 376.809,549.717 377.129,549.926 377.502,550.078 C 377.875,550.23 378.288,550.306 378.741,550.306 C 379.194,550.306 379.606,550.229 379.978,550.076 C 380.35,549.923 380.668,549.713 380.931,549.446 C 381.195,549.18 381.4,548.865 381.545,548.503 C 381.69,548.14 381.763,547.75 381.763,547.331 Z M 380.38,547.331 C 380.38,547.619 380.343,547.878 380.268,548.108 C 380.193,548.339 380.086,548.534 379.946,548.694 C 379.806,548.854 379.635,548.976 379.432,549.061 C 379.23,549.147 378.999,549.189 378.741,549.189 C 378.48,549.189 378.247,549.147 378.043,549.061 C 377.839,548.976 377.668,548.854 377.528,548.694 C 377.388,548.534 377.281,548.339 377.206,548.108 C 377.131,547.878 377.094,547.619 377.094,547.331 C 377.094,547.041 377.131,546.78 377.206,546.55 C 377.281,546.319 377.388,546.124 377.528,545.964 C 377.668,545.805 377.839,545.683 378.043,545.599 C 378.247,545.515 378.48,545.473 378.741,545.473 C 378.999,545.473 379.23,545.515 379.432,545.599 C 379.635,545.683 379.806,545.805 379.946,545.964 C 380.086,546.124 380.193,546.319 380.268,546.55 C 380.343,546.78 380.38,547.041 380.38,547.331 Z" marker-start="none" marker-end="none"/>
     <path d="M 386.399,550.243 L 386.399,549.172 L 384.76,549.172 L 384.76,544.418 L 383.409,544.418 L 383.409,549.172 L 381.77,549.172 L 381.77,550.243 L 386.399,550.243 Z" marker-start="none" marker-end="none"/>
    </g>
    <g id="Group_13">
     <path d="M 368.906,538.25 C 368.938,538.25 368.97,538.244 369.002,538.232 C 369.034,538.219 369.065,538.198 369.094,538.168 L 369.63,537.593 C 369.395,537.291 369.101,537.063 368.748,536.91 C 368.395,536.756 367.977,536.68 367.495,536.68 C 367.053,536.68 366.656,536.755 366.306,536.905 C 365.955,537.056 365.658,537.264 365.414,537.529 C 365.171,537.794 364.983,538.109 364.853,538.473 C 364.722,538.837 364.657,539.232 364.657,539.658 C 364.657,540.093 364.732,540.492 364.881,540.856 C 365.03,541.219 365.239,541.533 365.506,541.797 C 365.774,542.061 366.095,542.266 366.468,542.413 C 366.841,542.559 367.253,542.633 367.703,542.633 C 367.921,542.633 368.127,542.613 368.321,542.575 C 368.514,542.536 368.694,542.483 368.862,542.414 C 369.03,542.347 369.185,542.265 369.326,542.17 C 369.467,542.076 369.592,541.971 369.702,541.856 L 369.246,541.244 C 369.217,541.207 369.182,541.173 369.142,541.142 C 369.102,541.112 369.046,541.096 368.974,541.096 C 368.926,541.096 368.881,541.107 368.838,541.128 C 368.796,541.15 368.75,541.176 368.702,541.206 C 368.654,541.237 368.602,541.27 368.544,541.306 C 368.487,541.342 368.419,541.376 368.34,541.406 C 368.262,541.437 368.17,541.463 368.065,541.484 C 367.959,541.506 367.836,541.516 367.695,541.516 C 367.45,541.516 367.226,541.473 367.023,541.386 C 366.821,541.3 366.647,541.176 366.502,541.015 C 366.356,540.853 366.243,540.658 366.162,540.429 C 366.081,540.2 366.04,539.942 366.04,539.657 C 366.04,539.359 366.081,539.093 366.162,538.862 C 366.243,538.63 366.354,538.435 366.494,538.276 C 366.634,538.117 366.797,537.997 366.983,537.914 C 367.17,537.832 367.37,537.79 367.583,537.79 C 367.706,537.79 367.817,537.796 367.919,537.808 C 368.02,537.82 368.114,537.841 368.201,537.87 C 368.287,537.899 368.37,537.937 368.448,537.984 C 368.527,538.031 368.606,538.089 368.686,538.158 C 368.718,538.185 368.753,538.207 368.79,538.224 C 368.828,538.241 368.866,538.25 368.906,538.25 Z" marker-start="none" marker-end="none"/>
     <path d="M 371.726,536.744 L 370.367,536.744 L 370.367,542.57 L 371.726,542.57 L 371.726,536.744 Z" marker-start="none" marker-end="none"/>
     <path d="M 374.155,538.899 L 374.155,536.744 L 372.804,536.744 L 372.804,542.568 L 374.698,542.568 C 375.119,542.568 375.479,542.525 375.776,542.438 C 376.073,542.352 376.315,542.231 376.503,542.076 C 376.691,541.921 376.828,541.738 376.913,541.528 C 376.998,541.317 377.041,541.087 377.041,540.839 C 377.041,540.65 377.016,540.471 376.965,540.303 C 376.914,540.135 376.839,539.979 376.739,539.837 C 376.639,539.694 376.517,539.566 376.371,539.454 C 376.226,539.342 376.059,539.25 375.87,539.178 C 375.96,539.133 376.045,539.077 376.124,539.011 C 376.202,538.944 376.271,538.863 376.329,538.767 L 377.569,536.744 L 376.345,536.744 C 376.119,536.744 375.956,536.829 375.858,537 L 374.89,538.691 C 374.848,538.766 374.798,538.819 374.74,538.851 C 374.683,538.883 374.603,538.899 374.499,538.899 L 374.155,538.899 Z M 374.155,539.83 L 374.698,539.83 C 374.882,539.83 375.039,539.853 375.168,539.9 C 375.297,539.947 375.403,540.011 375.486,540.094 C 375.569,540.176 375.628,540.273 375.666,540.384 C 375.703,540.494 375.722,540.614 375.722,540.741 C 375.722,540.997 375.638,541.197 375.472,541.341 C 375.305,541.485 375.048,541.557 374.698,541.557 L 374.155,541.557 L 374.155,539.83 Z" marker-start="none" marker-end="none"/>
     <path d="M 381.835,538.25 C 381.867,538.25 381.899,538.244 381.931,538.232 C 381.963,538.219 381.994,538.198 382.023,538.168 L 382.559,537.593 C 382.324,537.291 382.03,537.063 381.677,536.91 C 381.324,536.756 380.906,536.68 380.424,536.68 C 379.982,536.68 379.585,536.755 379.235,536.905 C 378.884,537.056 378.587,537.264 378.343,537.529 C 378.1,537.794 377.912,538.109 377.782,538.473 C 377.651,538.837 377.586,539.232 377.586,539.658 C 377.586,540.093 377.661,540.492 377.81,540.856 C 377.959,541.219 378.168,541.533 378.435,541.797 C 378.703,542.061 379.024,542.266 379.397,542.413 C 379.77,542.559 380.182,542.633 380.632,542.633 C 380.85,542.633 381.056,542.613 381.25,542.575 C 381.443,542.536 381.623,542.483 381.791,542.414 C 381.959,542.347 382.114,542.265 382.255,542.17 C 382.396,542.076 382.521,541.971 382.631,541.856 L 382.175,541.244 C 382.146,541.207 382.111,541.173 382.071,541.142 C 382.031,541.112 381.975,541.096 381.903,541.096 C 381.855,541.096 381.81,541.107 381.767,541.128 C 381.725,541.15 381.679,541.176 381.631,541.206 C 381.583,541.237 381.531,541.27 381.473,541.306 C 381.416,541.342 381.348,541.376 381.269,541.406 C 381.191,541.437 381.099,541.463 380.994,541.484 C 380.888,541.506 380.765,541.516 380.624,541.516 C 380.379,541.516 380.155,541.473 379.952,541.386 C 379.75,541.3 379.576,541.176 379.431,541.015 C 379.285,540.853 379.172,540.658 379.091,540.429 C 379.01,540.2 378.969,539.942 378.969,539.657 C 378.969,539.359 379.01,539.093 379.091,538.862 C 379.172,538.63 379.283,538.435 379.423,538.276 C 379.563,538.117 379.726,537.997 379.912,537.914 C 380.099,537.832 380.299,537.79 380.512,537.79 C 380.635,537.79 380.746,537.796 380.848,537.808 C 380.949,537.82 381.043,537.841 381.13,537.87 C 381.216,537.899 381.299,537.937 381.377,537.984 C 381.456,538.031 381.535,538.089 381.615,538.158 C 381.647,538.185 381.682,538.207 381.719,538.224 C 381.757,538.241 381.795,538.25 381.835,538.25 Z" marker-start="none" marker-end="none"/>
     <path d="M 385.598,537.812 C 385.779,537.812 385.941,537.842 386.084,537.902 C 386.226,537.962 386.347,538.047 386.446,538.16 C 386.544,538.271 386.619,538.408 386.671,538.569 C 386.723,538.73 386.749,538.914 386.749,539.119 L 386.749,542.569 L 388.1,542.569 L 388.1,539.119 C 388.1,538.761 388.042,538.434 387.927,538.135 C 387.811,537.837 387.645,537.579 387.429,537.363 C 387.213,537.147 386.951,536.98 386.641,536.859 C 386.332,536.74 385.985,536.68 385.598,536.68 C 385.209,536.68 384.86,536.74 384.551,536.859 C 384.242,536.98 383.979,537.147 383.763,537.363 C 383.547,537.579 383.382,537.837 383.268,538.135 C 383.153,538.434 383.096,538.761 383.096,539.119 L 383.096,542.569 L 384.447,542.569 L 384.447,539.123 C 384.447,538.918 384.473,538.734 384.525,538.573 C 384.577,538.412 384.652,538.275 384.751,538.162 C 384.849,538.048 384.97,537.962 385.112,537.902 C 385.255,537.842 385.417,537.812 385.598,537.812 Z" marker-start="none" marker-end="none"/>
     <path d="M 388.901,539.674 L 391.059,539.674 L 391.059,538.674 L 388.901,538.674 L 388.901,539.674 Z" marker-start="none" marker-end="none"/>
    </g>
    <g id="Group_14">
     <path d="M 372.138,530.15 L 374.296,530.15 L 374.296,529.071 L 370.787,529.071 L 370.787,534.896 L 372.138,534.896 L 372.138,530.15 Z" marker-start="none" marker-end="none"/>
     <path d="M 380.357,529.071 L 379.31,529.071 C 379.193,529.071 379.096,529.098 379.02,529.153 C 378.944,529.208 378.891,529.278 378.862,529.363 L 378.518,530.379 L 376.304,530.379 L 375.96,529.363 C 375.933,529.288 375.881,529.221 375.804,529.161 C 375.727,529.101 375.632,529.071 375.52,529.071 L 374.465,529.071 L 376.72,534.896 L 378.103,534.896 L 380.357,529.071 Z M 376.616,531.298 L 378.207,531.298 L 377.671,532.869 C 377.636,532.968 377.596,533.086 377.549,533.221 C 377.502,533.356 377.456,533.502 377.411,533.66 C 377.368,533.5 377.324,533.351 377.279,533.215 C 377.234,533.079 377.191,532.961 377.151,532.861 L 376.616,531.298 Z" marker-start="none" marker-end="none"/>
     <path d="M 382.179,531.226 L 382.179,529.071 L 380.828,529.071 L 380.828,534.895 L 382.722,534.895 C 383.143,534.895 383.503,534.852 383.8,534.765 C 384.097,534.679 384.339,534.558 384.527,534.403 C 384.715,534.248 384.852,534.065 384.937,533.855 C 385.022,533.644 385.065,533.414 385.065,533.166 C 385.065,532.977 385.04,532.798 384.989,532.63 C 384.938,532.462 384.863,532.306 384.763,532.164 C 384.663,532.021 384.541,531.893 384.395,531.781 C 384.25,531.669 384.083,531.577 383.894,531.505 C 383.984,531.46 384.069,531.404 384.148,531.338 C 384.226,531.271 384.295,531.19 384.353,531.094 L 385.593,529.071 L 384.369,529.071 C 384.143,529.071 383.98,529.156 383.882,529.327 L 382.914,531.018 C 382.872,531.093 382.822,531.146 382.764,531.178 C 382.707,531.21 382.627,531.226 382.523,531.226 L 382.179,531.226 Z M 382.179,532.157 L 382.722,532.157 C 382.906,532.157 383.063,532.18 383.192,532.227 C 383.321,532.274 383.427,532.338 383.51,532.421 C 383.593,532.503 383.652,532.6 383.69,532.711 C 383.727,532.821 383.746,532.941 383.746,533.068 C 383.746,533.324 383.662,533.524 383.496,533.668 C 383.329,533.812 383.072,533.884 382.722,533.884 L 382.179,533.884 L 382.179,532.157 Z" marker-start="none" marker-end="none"/>
    </g>
   </g>
   <g id="Group_15" stroke="#f0942b" stroke-linejoin="miter" stroke-linecap="round">
    <path d="M 290.118,421.682 L 290.118,387.79 L 393.706,387.79 L 393.706,421.682 L 290.118,421.682 Z" fill="#f0942b" stroke-width="1.738" marker-start="none" marker-end="none"/>
    <path d="M 290.118,423.025 L 290.118,413.215 C 290.118,410.644 292.202,408.567 294.764,408.567 L 389.056,408.567 C 391.618,408.567 393.706,410.644 393.706,413.215 L 393.706,423.025 C 393.706,425.601 391.618,427.679 389.056,427.679 L 294.764,427.679 C 292.202,427.679 290.118,425.601 290.118,423.025 Z" fill="#f0942b" stroke-width="1.738" marker-start="none" marker-end="none"/>
    <path d="M 290.815,394.132 L 290.815,376.487 C 290.815,371.874 294.559,368.128 299.177,368.128 L 466.223,368.128 C 470.836,368.128 474.584,371.874 474.584,376.487 L 474.584,394.132 C 474.584,398.75 470.836,402.498 466.223,402.498 L 299.177,402.498 C 294.559,402.498 290.815,398.75 290.815,394.132 Z" fill="#ffffff" stroke-width="3.13" marker-start="none" marker-end="none"/>
   </g>
   <g id="Group_16" stroke-linejoin="miter">
    <path d="M 444.26,447.031 C 438.36,454.009 439.239,464.469 446.234,470.378 C 453.216,476.27 463.669,475.391 469.573,468.404 C 475.482,461.412 474.596,450.958 467.599,445.053 C 460.617,439.158 450.16,440.037 444.26,447.031 Z" stroke="none" fill="#000000" stroke-width="0.686" marker-start="none" marker-end="none"/>
    <path d="M 445.038,447.64 C 439.147,454.638 440.019,465.097 447.012,470.99 C 454.001,476.899 464.453,476.016 470.369,469.023 C 476.266,462.041 475.381,451.589 468.387,445.684 C 461.408,439.778 450.944,440.657 445.038,447.64 Z" stroke="#b2b2b2" stroke-width="3.752" marker-start="none" marker-end="none"/>
   </g>
   <g id="Group_17" stroke-linejoin="miter">
    <path d="M 403.575,447.018 C 397.675,454.007 398.554,464.475 405.551,470.366 C 412.534,476.277 422.988,475.394 428.89,468.406 C 434.801,461.417 433.915,450.957 426.917,445.053 C 419.934,439.154 409.475,440.037 403.575,447.018 Z" stroke="none" fill="#ffffff" stroke-width="0.689" marker-start="none" marker-end="none"/>
    <path d="M 404.355,447.653 C 398.462,454.645 399.335,465.091 406.327,471.004 C 413.318,476.888 423.773,476.016 429.686,469.028 C 435.584,462.041 434.7,451.575 427.706,445.675 C 420.725,439.776 410.26,440.654 404.355,447.653 Z" stroke="#539bc5" stroke-width="3.752" marker-start="none" marker-end="none"/>
   </g>
   <g id="Group_18" stroke-linejoin="miter">
    <path d="M 428.054,511.799 C 419.157,522.339 420.482,538.125 431.034,547.009 C 441.565,555.923 457.33,554.591 466.231,544.053 C 475.145,533.513 473.809,517.739 463.255,508.836 C 452.724,499.94 436.952,501.271 428.054,511.799 Z" stroke="none" fill="#ffffff" stroke-width="1.039" marker-start="none" marker-end="none"/>
    <path d="M 429.231,512.756 C 420.344,523.301 421.66,539.054 432.204,547.971 C 442.747,556.844 458.514,555.529 467.431,544.991 C 476.325,534.454 474.992,518.671 464.445,509.774 C 453.917,500.878 438.136,502.202 429.231,512.756 Z" stroke="#539bc5" stroke-width="5.658" marker-start="none" marker-end="none"/>
   </g>
   <g id="Group_19" fill-rule="nonzero" stroke-linejoin="round" stroke-linecap="round" stroke="none" stroke-width="0.485" fill="#b2b2b2">
    <g id="Group_20">
     <path d="M 453.472,453.42 L 456.201,453.42 L 456.201,460.583 C 456.201,460.934 456.21,461.301 456.23,461.685 L 454.622,460.349 C 454.518,460.265 454.414,460.205 454.31,460.169 C 454.206,460.133 454.105,460.115 454.008,460.115 C 453.839,460.115 453.688,460.153 453.555,460.228 C 453.421,460.302 453.322,460.382 453.257,460.466 L 452.302,461.733 L 456.727,465.447 L 459.222,465.447 L 459.222,453.42 L 461.561,453.42 L 461.561,451.236 L 453.472,451.236 L 453.472,453.42 Z" marker-start="none" marker-end="none"/>
    </g>
   </g>
   <g id="Group_21" fill-rule="nonzero" stroke-linejoin="round" stroke-linecap="round" stroke="none" stroke-width="0.485" fill="#000000">
    <g id="Group_22">
     <path d="M 417.128,465.592 C 417.829,465.592 418.461,465.49 419.023,465.285 C 419.585,465.081 420.064,464.796 420.461,464.433 C 420.857,464.069 421.161,463.635 421.372,463.132 C 421.583,462.628 421.689,462.074 421.689,461.47 C 421.689,460.95 421.616,460.469 421.469,460.027 C 421.323,459.585 421.123,459.165 420.87,458.765 C 420.617,458.366 420.323,457.979 419.988,457.605 C 419.653,457.232 419.298,456.853 418.921,456.47 L 416.143,453.624 C 416.501,453.729 416.853,453.812 417.201,453.874 C 417.548,453.937 417.875,453.967 418.18,453.967 L 420.831,453.967 C 421.156,453.967 421.412,453.878 421.601,453.699 C 421.789,453.52 421.884,453.284 421.884,452.992 L 421.884,451.236 L 411.904,451.236 L 411.904,452.211 C 411.904,452.399 411.943,452.6 412.021,452.815 C 412.099,453.029 412.236,453.224 412.43,453.4 L 416.524,457.523 C 416.874,457.874 417.18,458.209 417.44,458.527 C 417.699,458.845 417.914,459.159 418.083,459.467 C 418.252,459.776 418.378,460.085 418.463,460.393 C 418.547,460.702 418.59,461.029 418.59,461.373 C 418.59,461.938 418.455,462.372 418.185,462.674 C 417.915,462.976 417.505,463.128 416.952,463.128 C 416.725,463.128 416.517,463.095 416.329,463.03 C 416.14,462.965 415.971,462.877 415.822,462.767 C 415.672,462.657 415.544,462.527 415.437,462.377 C 415.33,462.228 415.244,462.065 415.179,461.89 C 415.075,461.598 414.943,461.387 414.784,461.257 C 414.625,461.127 414.409,461.062 414.136,461.062 C 414.071,461.062 414.001,461.065 413.926,461.071 C 413.852,461.078 413.775,461.087 413.697,461.1 L 412.099,461.378 C 412.203,462.087 412.403,462.705 412.698,463.232 C 412.994,463.759 413.361,464.197 413.8,464.549 C 414.238,464.9 414.74,465.161 415.305,465.334 C 415.871,465.506 416.478,465.592 417.128,465.592 Z" marker-start="none" marker-end="none"/>
    </g>
   </g>
   <g id="Group_23" fill-rule="nonzero" stroke-linejoin="round" stroke-linecap="round" stroke="none" stroke-width="0.319" fill="#ffffff">
    <g id="Group_24">
     <path d="M 312.296,413.268 L 312.296,409.822 L 310.135,409.822 L 310.135,419.136 L 313.165,419.136 C 313.838,419.136 314.413,419.067 314.888,418.928 C 315.363,418.789 315.751,418.596 316.051,418.349 C 316.352,418.101 316.57,417.809 316.706,417.472 C 316.843,417.135 316.911,416.768 316.911,416.371 C 316.911,416.068 316.871,415.782 316.79,415.513 C 316.709,415.245 316.588,414.996 316.428,414.768 C 316.269,414.539 316.073,414.336 315.84,414.156 C 315.608,413.977 315.341,413.83 315.038,413.715 C 315.183,413.643 315.318,413.553 315.444,413.447 C 315.57,413.34 315.679,413.211 315.773,413.057 L 317.755,409.822 L 315.799,409.822 C 315.437,409.822 315.177,409.958 315.019,410.231 L 313.472,412.935 C 313.404,413.055 313.324,413.14 313.232,413.191 C 313.141,413.242 313.012,413.268 312.845,413.268 L 312.296,413.268 Z M 312.296,414.757 L 313.165,414.757 C 313.459,414.757 313.71,414.794 313.916,414.869 C 314.123,414.943 314.292,415.047 314.424,415.179 C 314.556,415.311 314.652,415.465 314.712,415.642 C 314.772,415.819 314.802,416.01 314.802,416.215 C 314.802,416.624 314.668,416.944 314.402,417.174 C 314.136,417.404 313.723,417.519 313.165,417.519 L 312.296,417.519 L 312.296,414.757 Z" marker-start="none" marker-end="none"/>
     <path d="M 324.634,419.139 L 324.634,417.475 L 320.812,417.475 L 320.812,415.3 L 323.739,415.3 L 323.739,413.702 L 320.812,413.702 L 320.812,411.486 L 324.634,411.486 L 324.634,409.822 L 318.638,409.822 L 318.638,419.139 L 324.634,419.139 Z" marker-start="none" marker-end="none"/>
     <path d="M 331.052,417.244 C 330.988,417.141 330.921,417.065 330.85,417.014 C 330.78,416.962 330.689,416.937 330.579,416.937 C 330.481,416.937 330.375,416.968 330.262,417.03 C 330.149,417.091 330.021,417.161 329.879,417.237 C 329.736,417.314 329.573,417.383 329.39,417.445 C 329.206,417.507 328.998,417.538 328.763,417.538 C 328.358,417.538 328.057,417.452 327.859,417.279 C 327.661,417.106 327.561,416.873 327.561,416.579 C 327.561,416.391 327.621,416.236 327.74,416.112 C 327.86,415.989 328.016,415.882 328.21,415.792 C 328.404,415.703 328.626,415.621 328.875,415.546 C 329.124,415.472 329.379,415.389 329.639,415.297 C 329.899,415.205 330.154,415.098 330.403,414.974 C 330.652,414.851 330.874,414.693 331.068,414.501 C 331.262,414.309 331.418,414.076 331.538,413.801 C 331.657,413.526 331.717,413.195 331.717,412.807 C 331.717,412.376 331.642,411.974 331.493,411.599 C 331.344,411.224 331.127,410.896 330.844,410.617 C 330.561,410.338 330.211,410.119 329.796,409.959 C 329.38,409.799 328.908,409.719 328.38,409.719 C 328.09,409.719 327.795,409.749 327.494,409.809 C 327.194,409.868 326.903,409.952 326.622,410.061 C 326.341,410.17 326.076,410.299 325.829,410.448 C 325.582,410.597 325.367,410.763 325.183,410.947 L 325.823,411.957 C 325.87,412.034 325.936,412.095 326.021,412.142 C 326.106,412.189 326.198,412.213 326.296,412.213 C 326.424,412.213 326.553,412.172 326.683,412.091 C 326.812,412.01 326.96,411.921 327.124,411.823 C 327.288,411.725 327.476,411.635 327.689,411.554 C 327.902,411.473 328.154,411.433 328.444,411.433 C 328.836,411.433 329.14,411.519 329.358,411.691 C 329.575,411.864 329.684,412.138 329.684,412.513 C 329.684,412.731 329.624,412.907 329.505,413.044 C 329.385,413.18 329.229,413.293 329.035,413.383 C 328.841,413.472 328.62,413.551 328.373,413.619 C 328.126,413.687 327.873,413.763 327.613,413.846 C 327.353,413.929 327.099,414.031 326.852,414.153 C 326.605,414.274 326.384,414.434 326.19,414.632 C 325.996,414.831 325.84,415.078 325.72,415.374 C 325.601,415.67 325.541,416.036 325.541,416.471 C 325.541,416.82 325.612,417.161 325.752,417.494 C 325.893,417.826 326.1,418.122 326.372,418.382 C 326.645,418.642 326.98,418.85 327.376,419.006 C 327.772,419.161 328.226,419.239 328.738,419.239 C 329.023,419.239 329.301,419.217 329.572,419.172 C 329.842,419.127 330.099,419.061 330.342,418.973 C 330.585,418.886 330.812,418.782 331.023,418.66 C 331.234,418.539 331.422,418.401 331.589,418.248 L 331.052,417.244 Z" marker-start="none" marker-end="none"/>
     <path d="M 341.982,414.482 C 341.982,413.809 341.866,413.182 341.634,412.603 C 341.402,412.023 341.075,411.519 340.653,411.09 C 340.231,410.662 339.723,410.326 339.128,410.083 C 338.534,409.84 337.874,409.719 337.15,409.719 C 336.425,409.719 335.765,409.84 335.168,410.083 C 334.571,410.326 334.061,410.662 333.637,411.09 C 333.213,411.519 332.885,412.023 332.653,412.603 C 332.42,413.182 332.304,413.809 332.304,414.482 C 332.304,415.156 332.42,415.782 332.653,416.362 C 332.885,416.942 333.213,417.444 333.637,417.871 C 334.061,418.297 334.571,418.632 335.168,418.875 C 335.765,419.117 336.425,419.239 337.15,419.239 C 337.874,419.239 338.534,419.116 339.128,418.871 C 339.723,418.626 340.231,418.291 340.653,417.864 C 341.075,417.438 341.402,416.935 341.634,416.355 C 341.866,415.776 341.982,415.151 341.982,414.482 Z M 339.771,414.482 C 339.771,414.942 339.711,415.356 339.592,415.725 C 339.472,416.093 339.301,416.406 339.077,416.661 C 338.853,416.917 338.579,417.113 338.256,417.249 C 337.932,417.385 337.563,417.453 337.15,417.454 C 336.732,417.453 336.36,417.385 336.034,417.249 C 335.708,417.113 335.433,416.917 335.21,416.661 C 334.986,416.406 334.814,416.093 334.695,415.725 C 334.576,415.356 334.516,414.942 334.516,414.482 C 334.516,414.018 334.576,413.601 334.695,413.233 C 334.814,412.864 334.986,412.552 335.21,412.297 C 335.433,412.041 335.708,411.846 336.034,411.712 C 336.36,411.578 336.732,411.511 337.15,411.511 C 337.563,411.511 337.932,411.578 338.256,411.712 C 338.579,411.846 338.853,412.041 339.077,412.297 C 339.301,412.552 339.472,412.864 339.592,413.233 C 339.711,413.601 339.771,414.018 339.771,414.482 Z" marker-start="none" marker-end="none"/>
     <path d="M 346.89,411.529 C 347.18,411.529 347.439,411.577 347.667,411.673 C 347.895,411.769 348.087,411.906 348.245,412.086 C 348.403,412.265 348.523,412.483 348.606,412.741 C 348.689,412.999 348.731,413.292 348.731,413.62 L 348.731,419.137 L 350.892,419.137 L 350.892,413.619 C 350.892,413.048 350.799,412.524 350.613,412.046 C 350.428,411.569 350.163,411.158 349.818,410.812 C 349.472,410.467 349.053,410.199 348.558,410.007 C 348.064,409.815 347.508,409.719 346.89,409.719 C 346.268,409.719 345.709,409.815 345.215,410.007 C 344.721,410.199 344.301,410.467 343.956,410.812 C 343.611,411.158 343.346,411.569 343.163,412.046 C 342.98,412.524 342.888,413.048 342.888,413.619 L 342.888,419.137 L 345.049,419.137 L 345.049,413.626 C 345.049,413.298 345.09,413.005 345.174,412.747 C 345.257,412.489 345.377,412.27 345.535,412.089 C 345.692,411.908 345.885,411.769 346.113,411.673 C 346.341,411.577 346.6,411.529 346.89,411.529 Z" marker-start="none" marker-end="none"/>
     <path d="M 354.46,413.268 L 354.46,409.822 L 352.299,409.822 L 352.299,419.136 L 355.329,419.136 C 356.002,419.136 356.577,419.067 357.052,418.928 C 357.527,418.789 357.915,418.596 358.215,418.349 C 358.516,418.101 358.734,417.809 358.87,417.472 C 359.007,417.135 359.075,416.768 359.075,416.371 C 359.075,416.068 359.035,415.782 358.954,415.513 C 358.873,415.245 358.752,414.996 358.592,414.768 C 358.433,414.539 358.237,414.336 358.004,414.156 C 357.772,413.977 357.505,413.83 357.202,413.715 C 357.347,413.643 357.482,413.553 357.608,413.447 C 357.734,413.34 357.843,413.211 357.937,413.057 L 359.919,409.822 L 357.963,409.822 C 357.601,409.822 357.341,409.958 357.183,410.231 L 355.636,412.935 C 355.568,413.055 355.488,413.14 355.396,413.191 C 355.305,413.242 355.176,413.268 355.009,413.268 L 354.46,413.268 Z M 354.46,414.757 L 355.329,414.757 C 355.623,414.757 355.874,414.794 356.08,414.869 C 356.287,414.943 356.456,415.047 356.588,415.179 C 356.72,415.311 356.816,415.465 356.876,415.642 C 356.936,415.819 356.966,416.01 356.966,416.215 C 356.966,416.624 356.832,416.944 356.566,417.174 C 356.3,417.404 355.887,417.519 355.329,417.519 L 354.46,417.519 L 354.46,414.757 Z" marker-start="none" marker-end="none"/>
     <path d="M 366.741,412.23 C 366.792,412.23 366.844,412.221 366.895,412.201 C 366.946,412.181 366.995,412.148 367.042,412.1 L 367.898,411.179 C 367.523,410.697 367.053,410.333 366.489,410.087 C 365.924,409.842 365.256,409.719 364.485,409.719 C 363.777,409.719 363.143,409.839 362.583,410.08 C 362.023,410.321 361.547,410.654 361.157,411.078 C 360.768,411.502 360.468,412.005 360.259,412.587 C 360.051,413.168 359.946,413.8 359.946,414.482 C 359.946,415.177 360.065,415.815 360.304,416.397 C 360.543,416.979 360.876,417.481 361.305,417.903 C 361.733,418.325 362.245,418.653 362.842,418.887 C 363.439,419.122 364.097,419.239 364.817,419.239 C 365.167,419.239 365.496,419.208 365.805,419.146 C 366.114,419.084 366.402,418.999 366.671,418.89 C 366.939,418.781 367.187,418.651 367.412,418.499 C 367.638,418.348 367.839,418.18 368.013,417.997 L 367.285,417.019 C 367.238,416.959 367.182,416.905 367.118,416.856 C 367.054,416.807 366.965,416.782 366.85,416.782 C 366.773,416.782 366.701,416.799 366.633,416.833 C 366.564,416.867 366.492,416.909 366.415,416.958 C 366.339,417.007 366.254,417.06 366.163,417.118 C 366.071,417.175 365.962,417.229 365.837,417.278 C 365.711,417.327 365.564,417.368 365.396,417.402 C 365.227,417.436 365.03,417.453 364.804,417.454 C 364.412,417.453 364.054,417.384 363.73,417.246 C 363.407,417.107 363.128,416.909 362.896,416.651 C 362.664,416.393 362.483,416.081 362.353,415.715 C 362.223,415.348 362.158,414.937 362.158,414.481 C 362.158,414.003 362.223,413.579 362.353,413.208 C 362.483,412.838 362.66,412.525 362.883,412.272 C 363.107,412.018 363.368,411.825 363.667,411.693 C 363.965,411.561 364.284,411.495 364.625,411.495 C 364.821,411.495 365,411.505 365.162,411.524 C 365.324,411.543 365.474,411.576 365.613,411.623 C 365.751,411.67 365.884,411.73 366.009,411.805 C 366.135,411.88 366.262,411.972 366.39,412.083 C 366.441,412.126 366.496,412.161 366.556,412.189 C 366.616,412.216 366.677,412.23 366.741,412.23 Z" marker-start="none" marker-end="none"/>
     <path d="M 374.882,419.139 L 374.882,417.475 L 371.06,417.475 L 371.06,415.3 L 373.987,415.3 L 373.987,413.702 L 371.06,413.702 L 371.06,411.486 L 374.882,411.486 L 374.882,409.822 L 368.886,409.822 L 368.886,419.139 L 374.882,419.139 Z" marker-start="none" marker-end="none"/>
    </g>
   </g>
   <g id="Group_25" fill-rule="nonzero" stroke-linejoin="round" stroke-linecap="round" stroke="none" stroke-width="0.365" fill="#000000">
    <g id="Group_26">
     <path d="M 327.692,388.679 C 327.618,388.561 327.541,388.473 327.461,388.415 C 327.38,388.356 327.276,388.327 327.149,388.327 C 327.037,388.327 326.916,388.362 326.787,388.433 C 326.657,388.504 326.511,388.583 326.347,388.671 C 326.183,388.759 325.997,388.839 325.787,388.909 C 325.577,388.98 325.337,389.016 325.069,389.016 C 324.605,389.016 324.259,388.917 324.032,388.719 C 323.805,388.521 323.691,388.254 323.691,387.917 C 323.691,387.701 323.76,387.523 323.896,387.382 C 324.033,387.24 324.213,387.118 324.435,387.015 C 324.657,386.913 324.911,386.819 325.197,386.733 C 325.483,386.648 325.774,386.552 326.072,386.447 C 326.37,386.342 326.662,386.219 326.948,386.077 C 327.234,385.936 327.488,385.755 327.71,385.535 C 327.932,385.315 328.112,385.048 328.248,384.733 C 328.385,384.418 328.454,384.038 328.454,383.593 C 328.454,383.1 328.368,382.638 328.197,382.208 C 328.026,381.778 327.778,381.404 327.453,381.084 C 327.129,380.764 326.728,380.512 326.252,380.329 C 325.776,380.146 325.235,380.054 324.629,380.054 C 324.297,380.054 323.959,380.088 323.614,380.157 C 323.27,380.225 322.936,380.321 322.614,380.446 C 322.292,380.571 321.989,380.718 321.706,380.889 C 321.422,381.06 321.176,381.251 320.966,381.461 L 321.698,382.619 C 321.752,382.707 321.828,382.778 321.925,382.831 C 322.023,382.885 322.128,382.912 322.24,382.912 C 322.387,382.912 322.535,382.866 322.684,382.773 C 322.833,382.68 323.001,382.577 323.189,382.465 C 323.377,382.353 323.593,382.25 323.838,382.157 C 324.082,382.064 324.37,382.018 324.702,382.018 C 325.152,382.018 325.501,382.117 325.75,382.315 C 325.999,382.512 326.124,382.827 326.124,383.256 C 326.124,383.506 326.055,383.708 325.918,383.865 C 325.782,384.021 325.602,384.15 325.38,384.253 C 325.158,384.356 324.905,384.446 324.622,384.524 C 324.338,384.602 324.048,384.689 323.75,384.784 C 323.452,384.879 323.161,384.997 322.878,385.136 C 322.595,385.275 322.342,385.458 322.12,385.686 C 321.897,385.913 321.718,386.196 321.581,386.536 C 321.444,386.875 321.376,387.294 321.376,387.792 C 321.376,388.193 321.456,388.584 321.618,388.965 C 321.779,389.346 322.016,389.685 322.328,389.983 C 322.641,390.281 323.024,390.52 323.479,390.698 C 323.933,390.876 324.453,390.965 325.039,390.965 C 325.367,390.965 325.685,390.94 325.995,390.888 C 326.306,390.837 326.6,390.761 326.878,390.661 C 327.157,390.561 327.417,390.441 327.659,390.302 C 327.9,390.163 328.117,390.005 328.307,389.829 L 327.692,388.679 Z" marker-start="none" marker-end="none"/>
     <path d="M 339.619,380.172 L 337.7,380.172 C 337.485,380.172 337.308,380.222 337.169,380.322 C 337.029,380.422 336.933,380.551 336.879,380.707 L 336.249,382.569 L 332.19,382.569 L 331.56,380.707 C 331.511,380.57 331.416,380.447 331.274,380.337 C 331.132,380.227 330.959,380.172 330.754,380.172 L 328.82,380.172 L 332.952,390.849 L 335.487,390.849 L 339.619,380.172 Z M 332.761,384.254 L 335.678,384.254 L 334.696,387.133 C 334.632,387.315 334.558,387.531 334.472,387.778 C 334.387,388.026 334.303,388.294 334.219,388.583 C 334.141,388.289 334.061,388.018 333.978,387.767 C 333.895,387.518 333.817,387.301 333.743,387.118 L 332.761,384.254 Z" marker-start="none" marker-end="none"/>
     <path d="M 341.785,390.851 C 341.893,390.851 341.983,390.846 342.056,390.836 C 342.13,390.827 342.196,390.808 342.254,390.781 C 342.313,390.754 342.369,390.716 342.423,390.668 C 342.477,390.619 342.538,390.553 342.606,390.47 L 347.676,384.059 C 347.657,384.264 347.642,384.463 347.632,384.656 C 347.622,384.849 347.617,385.031 347.617,385.202 L 347.617,390.851 L 349.801,390.851 L 349.801,380.172 L 348.511,380.172 C 348.321,380.172 348.16,380.201 348.028,380.26 C 347.896,380.319 347.769,380.426 347.647,380.582 L 342.613,386.942 C 342.628,386.756 342.64,386.574 342.65,386.396 C 342.66,386.218 342.665,386.051 342.665,385.894 L 342.665,380.172 L 340.481,380.172 L 340.481,390.851 L 341.785,390.851 Z" marker-start="none" marker-end="none"/>
     <path d="M 361.243,385.515 C 361.243,384.743 361.11,384.031 360.844,383.379 C 360.578,382.726 360.203,382.162 359.719,381.686 C 359.236,381.209 358.653,380.838 357.972,380.572 C 357.29,380.305 356.535,380.172 355.704,380.172 L 351.557,380.172 L 351.557,390.851 L 355.704,390.851 C 356.535,390.851 357.29,390.716 357.972,390.448 C 358.653,390.179 359.236,389.808 359.719,389.334 C 360.203,388.86 360.578,388.297 360.844,387.644 C 361.11,386.992 361.243,386.282 361.243,385.515 Z M 358.708,385.515 C 358.708,386.043 358.64,386.519 358.503,386.944 C 358.366,387.369 358.17,387.729 357.913,388.024 C 357.657,388.32 357.343,388.547 356.972,388.706 C 356.6,388.865 356.178,388.944 355.704,388.944 L 354.048,388.944 L 354.048,382.079 L 355.704,382.079 C 356.178,382.079 356.6,382.158 356.972,382.317 C 357.343,382.476 357.657,382.703 357.913,382.998 C 358.17,383.294 358.366,383.654 358.503,384.079 C 358.64,384.504 358.708,384.983 358.708,385.515 Z" marker-start="none" marker-end="none"/>
     <path d="M 369.245,390.965 C 369.719,390.965 370.136,390.896 370.498,390.757 C 370.859,390.617 371.165,390.434 371.414,390.207 C 371.663,389.98 371.858,389.717 372,389.419 C 372.142,389.122 372.229,388.816 372.264,388.504 L 370.798,388.21 C 370.774,388.206 370.753,388.202 370.736,388.2 C 370.719,388.197 370.701,388.196 370.681,388.196 C 370.476,388.196 370.324,388.304 370.227,388.518 C 370.114,388.772 369.984,388.965 369.835,389.097 C 369.686,389.229 369.489,389.295 369.245,389.295 C 369.074,389.295 368.925,389.263 368.798,389.199 C 368.671,389.135 368.565,389.051 368.479,388.948 C 368.394,388.845 368.329,388.725 368.285,388.587 C 368.241,388.45 368.219,388.307 368.219,388.16 C 368.219,388.032 368.23,387.909 368.252,387.791 C 368.274,387.673 368.311,387.554 368.362,387.434 C 368.413,387.314 368.484,387.189 368.575,387.062 C 368.665,386.934 368.781,386.796 368.923,386.649 L 371.56,383.848 C 371.692,384.145 371.797,384.455 371.875,384.777 C 371.953,385.099 372.01,385.433 372.044,385.78 C 372.054,385.918 372.099,386.027 372.179,386.106 C 372.26,386.185 372.366,386.225 372.498,386.225 L 373.934,386.225 C 373.934,385.51 373.839,384.842 373.648,384.222 C 373.458,383.603 373.187,383.036 372.835,382.521 L 375.077,380.172 L 372.835,380.172 C 372.723,380.172 372.623,380.178 372.535,380.19 C 372.447,380.203 372.365,380.223 372.289,380.253 C 372.214,380.282 372.142,380.323 372.073,380.377 C 372.005,380.431 371.931,380.499 371.853,380.583 L 371.392,381.066 C 370.928,380.743 370.421,380.494 369.871,380.318 C 369.322,380.142 368.737,380.054 368.117,380.054 C 367.692,380.054 367.275,380.126 366.867,380.271 C 366.46,380.416 366.097,380.623 365.779,380.891 C 365.462,381.159 365.205,381.485 365.01,381.866 C 364.815,382.248 364.717,382.676 364.717,383.149 C 364.717,383.468 364.767,383.77 364.867,384.055 C 364.967,384.34 365.108,384.605 365.289,384.849 C 365.469,385.093 365.685,385.315 365.937,385.516 C 366.188,385.716 366.463,385.892 366.761,386.041 C 366.532,386.403 366.366,386.757 366.263,387.104 C 366.16,387.45 366.109,387.787 366.109,388.113 C 366.109,388.5 366.179,388.865 366.318,389.209 C 366.457,389.553 366.66,389.855 366.926,390.115 C 367.192,390.375 367.52,390.582 367.908,390.735 C 368.296,390.889 368.742,390.965 369.245,390.965 Z M 367.032,383.343 C 367.032,383.112 367.068,382.903 367.139,382.716 C 367.209,382.528 367.311,382.367 367.443,382.232 C 367.574,382.098 367.732,381.993 367.915,381.919 C 368.098,381.844 368.302,381.807 368.527,381.807 C 368.854,381.807 369.158,381.849 369.439,381.933 C 369.72,382.018 369.983,382.136 370.227,382.29 L 367.772,384.851 C 367.504,384.635 367.313,384.399 367.201,384.144 C 367.088,383.889 367.032,383.622 367.032,383.343 Z" marker-start="none" marker-end="none"/>
     <path d="M 384.141,385.02 C 384.238,384.833 384.332,384.639 384.423,384.437 C 384.513,384.236 384.6,384.029 384.683,383.817 C 384.766,384.034 384.854,384.244 384.947,384.448 C 385.039,384.652 385.135,384.85 385.232,385.042 L 387.973,390.471 C 388.021,390.565 388.071,390.637 388.123,390.689 C 388.174,390.741 388.231,390.779 388.295,390.803 C 388.358,390.828 388.43,390.84 388.511,390.84 C 388.592,390.84 388.686,390.84 388.793,390.84 L 390.683,390.84 L 390.683,380.172 L 388.5,380.172 L 388.5,386.232 C 388.5,386.526 388.515,386.844 388.544,387.186 L 385.716,381.783 C 385.628,381.615 385.51,381.488 385.361,381.401 C 385.212,381.314 385.042,381.271 384.851,381.271 L 384.514,381.271 C 384.324,381.271 384.154,381.314 384.005,381.401 C 383.856,381.488 383.738,381.615 383.65,381.783 L 380.807,387.193 C 380.827,387.025 380.841,386.857 380.851,386.691 C 380.861,386.525 380.866,386.372 380.866,386.232 L 380.866,380.172 L 378.682,380.172 L 378.682,390.84 L 380.573,390.84 C 380.68,390.84 380.774,390.84 380.855,390.84 C 380.935,390.84 381.007,390.828 381.071,390.803 C 381.134,390.779 381.192,390.741 381.243,390.689 C 381.294,390.637 381.344,390.565 381.393,390.471 L 384.141,385.02 Z" marker-start="none" marker-end="none"/>
     <path d="M 399.314,390.851 L 399.314,388.944 L 394.932,388.944 L 394.932,386.451 L 398.288,386.451 L 398.288,384.619 L 394.932,384.619 L 394.932,382.079 L 399.314,382.079 L 399.314,380.172 L 392.441,380.172 L 392.441,390.851 L 399.314,390.851 Z" marker-start="none" marker-end="none"/>
     <path d="M 408.472,390.851 L 408.472,388.887 L 405.468,388.887 L 405.468,380.174 L 402.992,380.174 L 402.992,388.887 L 399.988,388.887 L 399.988,390.851 L 408.472,390.851 Z" marker-start="none" marker-end="none"/>
     <path d="M 418.264,380.172 L 416.345,380.172 C 416.13,380.172 415.953,380.222 415.814,380.322 C 415.674,380.422 415.578,380.551 415.524,380.707 L 414.894,382.569 L 410.835,382.569 L 410.205,380.707 C 410.156,380.57 410.061,380.447 409.919,380.337 C 409.777,380.227 409.604,380.172 409.399,380.172 L 407.465,380.172 L 411.597,390.849 L 414.132,390.849 L 418.264,380.172 Z M 411.406,384.254 L 414.323,384.254 L 413.341,387.133 C 413.277,387.315 413.203,387.531 413.117,387.778 C 413.032,388.026 412.948,388.294 412.864,388.583 C 412.786,388.289 412.706,388.018 412.623,387.767 C 412.54,387.518 412.462,387.301 412.388,387.118 L 411.406,384.254 Z" marker-start="none" marker-end="none"/>
     <path d="M 421.603,382.15 L 425.559,382.15 L 425.559,380.172 L 419.126,380.172 L 419.126,390.849 L 421.603,390.849 L 421.603,382.15 Z" marker-start="none" marker-end="none"/>
     <path d="M 426.791,381.462 C 426.791,381.618 426.821,381.764 426.879,381.898 C 426.938,382.033 427.022,382.15 427.132,382.25 C 427.242,382.35 427.371,382.429 427.52,382.488 C 427.669,382.547 427.837,382.576 428.022,382.576 C 428.242,382.576 428.432,382.538 428.594,382.462 C 428.755,382.387 428.889,382.284 428.997,382.155 C 429.104,382.025 429.183,381.876 429.235,381.708 C 429.286,381.539 429.312,381.362 429.312,381.176 C 429.312,380.932 429.273,380.672 429.194,380.396 C 429.116,380.12 429,379.843 428.846,379.564 C 428.693,379.286 428.501,379.012 428.271,378.743 C 428.042,378.475 427.778,378.23 427.48,378.011 L 427.084,378.362 C 427.031,378.416 426.99,378.466 426.963,378.513 C 426.937,378.559 426.923,378.616 426.923,378.685 C 426.923,378.734 426.94,378.786 426.974,378.842 C 427.009,378.899 427.05,378.949 427.099,378.993 C 427.158,379.051 427.226,379.122 427.304,379.205 C 427.382,379.288 427.46,379.381 427.539,379.484 C 427.617,379.586 427.689,379.699 427.755,379.821 C 427.821,379.943 427.871,380.072 427.905,380.209 C 427.734,380.224 427.58,380.265 427.443,380.334 C 427.307,380.402 427.191,380.493 427.095,380.605 C 427,380.717 426.926,380.845 426.872,380.99 C 426.818,381.134 426.791,381.291 426.791,381.462 Z" marker-start="none" marker-end="none"/>
     <path d="M 436.165,380.172 L 433.674,380.172 L 433.674,390.851 L 436.165,390.851 L 436.165,380.172 Z" marker-start="none" marker-end="none"/>
     <path d="M 439.445,390.851 C 439.553,390.851 439.643,390.846 439.716,390.836 C 439.79,390.827 439.856,390.808 439.914,390.781 C 439.973,390.754 440.029,390.716 440.083,390.668 C 440.137,390.619 440.198,390.553 440.266,390.47 L 445.336,384.059 C 445.317,384.264 445.302,384.463 445.292,384.656 C 445.282,384.849 445.277,385.031 445.277,385.202 L 445.277,390.851 L 447.461,390.851 L 447.461,380.172 L 446.171,380.172 C 445.981,380.172 445.82,380.201 445.688,380.26 C 445.556,380.319 445.429,380.426 445.307,380.582 L 440.273,386.942 C 440.288,386.756 440.3,386.574 440.31,386.396 C 440.32,386.218 440.325,386.051 440.325,385.894 L 440.325,380.172 L 438.141,380.172 L 438.141,390.851 L 439.445,390.851 Z" marker-start="none" marker-end="none"/>
     <path d="M 456.39,382.932 C 456.449,382.932 456.507,382.921 456.566,382.899 C 456.625,382.876 456.681,382.838 456.734,382.783 L 457.716,381.728 C 457.286,381.175 456.748,380.757 456.101,380.476 C 455.454,380.195 454.688,380.054 453.804,380.054 C 452.993,380.054 452.266,380.192 451.624,380.468 C 450.982,380.744 450.437,381.125 449.99,381.611 C 449.543,382.097 449.2,382.674 448.961,383.341 C 448.721,384.008 448.602,384.732 448.602,385.513 C 448.602,386.31 448.739,387.041 449.012,387.708 C 449.286,388.375 449.668,388.95 450.159,389.434 C 450.65,389.917 451.237,390.294 451.921,390.562 C 452.605,390.831 453.359,390.965 454.185,390.965 C 454.585,390.965 454.963,390.93 455.317,390.859 C 455.671,390.788 456.002,390.69 456.31,390.565 C 456.617,390.441 456.901,390.292 457.159,390.118 C 457.418,389.944 457.648,389.752 457.848,389.542 L 457.013,388.421 C 456.959,388.352 456.896,388.29 456.822,388.234 C 456.749,388.178 456.647,388.15 456.515,388.15 C 456.427,388.15 456.344,388.169 456.266,388.208 C 456.187,388.247 456.104,388.295 456.016,388.351 C 455.929,388.407 455.832,388.468 455.727,388.534 C 455.622,388.6 455.497,388.661 455.353,388.718 C 455.209,388.774 455.041,388.821 454.848,388.861 C 454.655,388.899 454.429,388.919 454.17,388.919 C 453.721,388.919 453.31,388.84 452.939,388.681 C 452.568,388.522 452.249,388.295 451.983,387.999 C 451.717,387.704 451.509,387.346 451.36,386.926 C 451.211,386.506 451.137,386.034 451.137,385.512 C 451.137,384.964 451.211,384.478 451.36,384.053 C 451.509,383.628 451.712,383.271 451.968,382.98 C 452.225,382.689 452.524,382.468 452.866,382.317 C 453.208,382.165 453.574,382.09 453.965,382.09 C 454.19,382.09 454.395,382.101 454.58,382.123 C 454.766,382.145 454.938,382.182 455.097,382.236 C 455.256,382.29 455.407,382.359 455.551,382.445 C 455.695,382.53 455.841,382.637 455.987,382.764 C 456.046,382.813 456.109,382.853 456.178,382.885 C 456.246,382.916 456.317,382.932 456.39,382.932 Z" marker-start="none" marker-end="none"/>
     <path d="M 458.409,381.322 C 458.409,381.498 458.442,381.662 458.508,381.813 C 458.573,381.965 458.664,382.097 458.779,382.209 C 458.893,382.322 459.029,382.411 459.185,382.477 C 459.342,382.543 459.513,382.576 459.698,382.576 C 459.879,382.576 460.047,382.543 460.204,382.477 C 460.36,382.411 460.497,382.322 460.614,382.209 C 460.731,382.097 460.823,381.965 460.889,381.813 C 460.955,381.662 460.988,381.498 460.988,381.322 C 460.988,381.146 460.955,380.981 460.889,380.827 C 460.823,380.673 460.731,380.54 460.614,380.428 C 460.497,380.315 460.36,380.227 460.204,380.164 C 460.047,380.1 459.879,380.068 459.698,380.068 C 459.513,380.068 459.342,380.1 459.185,380.164 C 459.029,380.227 458.893,380.315 458.779,380.428 C 458.664,380.54 458.573,380.673 458.508,380.827 C 458.442,380.981 458.409,381.146 458.409,381.322 Z" marker-start="none" marker-end="none"/>
    </g>
   </g>
  </g>
 </g>
</svg>
