<?xml version="1.0" standalone="no"?>
<!DOCTYPE svg PUBLIC "-//W3C//DTD SVG 1.1//EN" "http://www.w3.org/Graphics/SVG/1.1/DTD/svg11.dtd">
<!--Generator: Xara Designer (www.xara.com), SVG filter version: 6.6.0.0-->
<svg fill="none" fill-rule="evenodd" stroke="black" stroke-width="0.501" stroke-linejoin="bevel" stroke-miterlimit="10" font-family="Times New Roman" font-size="16" style="font-variant-ligatures:none" xmlns:xlink="http://www.w3.org/1999/xlink" xmlns="http://www.w3.org/2000/svg" version="1.1" overflow="visible" width="215.435pt" height="215.436pt" viewBox="30.069 -297.638 215.435 215.436">
 <defs>
	</defs>
 <g id="Page background" transform="scale(1 -1)"/>
 <g id="Layer 1" transform="scale(1 -1)">
  <g id="Group">
   <g id="Group_1" stroke-linejoin="miter" stroke="none" stroke-width="0.802">
    <path d="M 30.069,282.425 L 30.069,97.415 C 30.069,89.018 36.884,82.202 45.281,82.202 L 230.292,82.202 C 238.689,82.202 245.504,89.018 245.504,97.415 L 245.504,282.425 C 245.504,290.822 238.689,297.638 230.292,297.638 L 45.281,297.638 C 36.884,297.638 30.069,290.822 30.069,282.425 Z" fill="#7f7f7f" marker-start="none" marker-end="none"/>
    <path d="M 30.778,281.816 L 30.778,98.024 C 30.778,89.682 37.548,82.911 45.89,82.911 L 229.683,82.911 C 238.025,82.911 244.795,89.682 244.795,98.024 L 244.795,281.816 C 244.795,290.158 238.025,296.929 229.683,296.929 L 45.89,296.929 C 37.548,296.929 30.778,290.158 30.778,281.816 Z" marker-start="none" marker-end="none"/>
    <path d="M 30.778,281.816 L 30.778,98.024 C 30.778,89.682 37.548,82.911 45.89,82.911 L 229.683,82.911 C 238.025,82.911 244.795,89.682 244.795,98.024 L 244.795,281.816 C 244.795,290.158 238.025,296.929 229.683,296.929 L 45.89,296.929 C 37.548,296.929 30.778,290.158 30.778,281.816 Z" fill="#ffffff" marker-start="none" marker-end="none"/>
   </g>
   <g id="Group_2" stroke-linejoin="miter">
    <path d="M 183.554,240.683 C 174.657,251.223 175.982,267.009 186.534,275.892 C 197.065,284.807 212.83,283.475 221.731,272.938 C 230.645,262.397 229.309,246.623 218.756,237.72 C 208.224,228.824 192.452,230.155 183.554,240.683 Z" stroke="none" fill="#000000" stroke-width="1.039" marker-start="none" marker-end="none"/>
    <path d="M 184.731,241.64 C 175.844,252.185 177.16,267.937 187.704,276.855 C 198.248,285.727 214.014,284.413 222.931,273.876 C 231.825,263.338 230.492,247.555 219.945,238.658 C 209.417,229.762 193.636,231.086 184.731,241.64 Z" stroke="#b2b2b2" stroke-width="5.658" marker-start="none" marker-end="none"/>
   </g>
   <g id="Group_3" stroke-linejoin="miter">
    <path d="M 52.291,240.679 C 43.394,251.219 44.719,267.005 55.271,275.888 C 65.802,284.803 81.567,283.471 90.468,272.934 C 99.382,262.393 98.046,246.619 87.493,237.716 C 76.961,228.82 61.189,230.151 52.291,240.679 Z" stroke="none" fill="#000000" stroke-width="1.039" marker-start="none" marker-end="none"/>
    <path d="M 53.468,241.636 C 44.581,252.181 45.897,267.933 56.441,276.851 C 66.985,285.723 82.751,284.409 91.668,273.872 C 100.562,263.334 99.229,247.551 88.682,238.654 C 78.154,229.758 62.373,231.082 53.468,241.636 Z" stroke="#b2b2b2" stroke-width="5.658" marker-start="none" marker-end="none"/>
   </g>
   <path d="M 125.087,198.424 C 138.526,210.691 145.355,227.505 145.358,244.378 L 153.838,244.378 C 153.832,225.206 146.082,206.093 130.813,192.159 C 117.252,179.786 100.175,173.684 83.152,173.689 L 83.152,182.175 C 98.134,182.168 113.161,187.537 125.087,198.424 Z" fill="#ff3718" stroke-linecap="round" stroke="none" stroke-width="0.541" stroke-linejoin="round" marker-start="none" marker-end="none"/>
   <path d="M 45.199,177.916 L 48.244,180.034 L 51.296,182.156 L 51.297,182.209 L 78.574,182.209 L 78.573,173.673 L 51.297,173.673 L 48.244,175.793 L 45.199,177.916 Z" fill="#ff3718" stroke-linecap="round" stroke="none" stroke-width="0.103" stroke-linejoin="miter" marker-start="none" marker-end="none"/>
   <path d="M 45.195,189.466 L 48.242,191.586 L 51.297,193.707 L 51.297,189.466 L 51.293,185.225 L 48.241,187.347 L 45.195,189.466 Z M 51.297,193.73 L 78.574,193.731 L 78.574,185.196 L 51.297,185.196 L 51.297,193.73 Z" fill="#ffcd36" stroke-linecap="round" stroke="none" stroke-width="0.103" stroke-linejoin="miter" marker-start="none" marker-end="none"/>
   <path d="M 117.465,206.778 C 128.456,216.818 134.043,230.573 134.049,244.378 L 142.529,244.378 C 142.524,228.27 136.01,212.221 123.182,200.512 C 111.796,190.118 97.453,184.998 83.153,185.001 L 83.152,193.487 C 95.409,193.477 107.701,197.872 117.465,206.778 Z" fill="#ffcd36" stroke-linecap="round" stroke="none" stroke-width="0.453" stroke-linejoin="round" marker-start="none" marker-end="none"/>
   <g id="Group_4" fill="#e5e5e5" stroke-linecap="round" stroke="none">
    <path d="M 45.195,200.782 L 48.241,202.897 L 51.297,205.019 L 51.297,200.778 L 51.293,196.535 L 48.241,198.655 L 45.195,200.782 Z M 51.297,205.029 L 78.574,205.028 L 78.574,196.493 L 51.297,196.493 L 51.297,205.029 Z" stroke-width="0.103" stroke-linejoin="miter" marker-start="none" marker-end="none"/>
    <path d="M 109.838,215.133 C 118.39,222.94 122.729,233.645 122.736,244.378 L 131.221,244.377 C 131.217,231.336 125.944,218.346 115.555,208.867 C 106.34,200.456 94.724,196.308 83.152,196.31 L 83.152,204.792 C 92.685,204.792 102.249,208.206 109.838,215.133 Z" stroke-width="0.368" stroke-linejoin="round" marker-start="none" marker-end="none"/>
   </g>
   <g id="Group_5" fill="#e5e5e5" stroke-linecap="round" stroke="none">
    <path d="M 102.217,223.488 C 108.324,229.066 111.424,236.704 111.427,244.377 L 119.914,244.378 C 119.904,234.408 115.872,224.469 107.934,217.226 C 100.884,210.787 92.008,207.616 83.152,207.62 L 83.152,216.108 C 89.959,216.101 96.791,218.543 102.217,223.488 Z" stroke-width="0.281" stroke-linejoin="round" marker-start="none" marker-end="none"/>
    <path d="M 45.199,211.835 L 48.243,213.967 L 51.296,216.108 L 51.296,216.108 L 78.573,216.108 L 78.574,207.569 L 51.297,207.569 L 51.297,207.569 L 48.242,209.699 L 45.199,211.835 Z" stroke-width="0.103" stroke-linejoin="miter" marker-start="none" marker-end="none"/>
   </g>
   <g id="Group_6" stroke-linejoin="miter">
    <path d="M 110.509,203.019 C 105.987,208.37 106.664,216.39 112.02,220.917 C 117.377,225.433 125.396,224.76 129.92,219.403 C 134.443,214.048 133.763,206.031 128.409,201.508 C 123.052,196.984 115.034,197.66 110.509,203.019 Z" stroke="none" fill="#ffffff" stroke-width="0.526" marker-start="none" marker-end="none"/>
    <path d="M 111.117,203.497 C 106.59,208.851 107.264,216.867 112.624,221.391 C 117.982,225.915 125.997,225.242 130.522,219.879 C 135.049,214.524 134.365,206.507 129.014,201.981 C 123.654,197.456 115.639,198.137 111.117,203.497 Z" fill="none" stroke="#539bc5" stroke-width="2.872" marker-start="none" marker-end="none"/>
   </g>
   <g id="Group_7" stroke-linejoin="miter">
    <path d="M 52.882,186.222 C 48.358,191.578 49.037,199.595 54.392,204.123 C 59.752,208.644 67.772,207.966 72.295,202.608 C 76.823,197.255 76.14,189.233 70.784,184.714 C 65.425,180.195 57.409,180.869 52.882,186.222 Z" stroke="none" fill="#ffffff" stroke-width="0.526" marker-start="none" marker-end="none"/>
    <path d="M 53.489,186.706 C 48.965,192.057 49.641,200.077 55.001,204.601 C 60.36,209.122 68.375,208.448 72.898,203.088 C 77.425,197.735 76.747,189.715 71.391,185.194 C 66.028,180.669 58.012,181.345 53.489,186.706 Z" fill="none" stroke="#539bc5" stroke-width="2.872" marker-start="none" marker-end="none"/>
   </g>
   <g id="Group_8" fill-rule="nonzero" stroke-linejoin="round" stroke-linecap="round" stroke="none" stroke-width="0.387" fill="#000000">
    <g id="Group_9">
     <path d="M 117.246,215.19 L 117.246,212.108 L 120.125,212.108 L 120.125,210.379 L 117.246,210.379 L 117.246,207.282 L 115.285,207.282 L 115.285,210.379 L 112.421,210.379 L 112.421,212.108 L 115.285,212.108 L 115.285,215.19 L 117.246,215.19 Z" marker-start="none" marker-end="none"/>
     <path d="M 125.48,217.477 C 126.04,217.477 126.545,217.395 126.993,217.232 C 127.442,217.069 127.825,216.842 128.141,216.551 C 128.458,216.261 128.7,215.914 128.869,215.512 C 129.038,215.11 129.122,214.668 129.122,214.185 C 129.122,213.77 129.064,213.386 128.947,213.033 C 128.83,212.68 128.671,212.344 128.468,212.025 C 128.266,211.706 128.031,211.398 127.764,211.099 C 127.497,210.801 127.213,210.499 126.912,210.193 L 124.694,207.92 C 124.979,208.004 125.261,208.07 125.538,208.12 C 125.816,208.17 126.076,208.194 126.32,208.194 L 128.437,208.194 C 128.696,208.194 128.901,208.123 129.052,207.98 C 129.202,207.837 129.278,207.649 129.278,207.415 L 129.278,206.013 L 121.309,206.013 L 121.309,206.791 C 121.309,206.942 121.34,207.103 121.402,207.274 C 121.464,207.445 121.573,207.601 121.729,207.741 L 124.997,211.033 C 125.278,211.314 125.521,211.581 125.729,211.835 C 125.936,212.089 126.108,212.34 126.243,212.586 C 126.377,212.833 126.479,213.079 126.546,213.326 C 126.613,213.572 126.647,213.833 126.647,214.108 C 126.647,214.559 126.54,214.906 126.324,215.147 C 126.109,215.388 125.781,215.509 125.34,215.509 C 125.158,215.509 124.992,215.483 124.842,215.431 C 124.691,215.379 124.556,215.309 124.437,215.221 C 124.318,215.133 124.215,215.029 124.13,214.91 C 124.044,214.79 123.975,214.661 123.923,214.521 C 123.84,214.287 123.735,214.119 123.608,214.015 C 123.481,213.911 123.309,213.859 123.091,213.859 C 123.039,213.859 122.983,213.862 122.923,213.867 C 122.864,213.872 122.803,213.88 122.741,213.89 L 121.464,214.112 C 121.547,214.678 121.707,215.172 121.943,215.592 C 122.179,216.013 122.472,216.363 122.822,216.644 C 123.172,216.924 123.573,217.133 124.025,217.271 C 124.476,217.408 124.961,217.477 125.48,217.477 Z" marker-start="none" marker-end="none"/>
    </g>
   </g>
   <g id="Group_10" fill-rule="nonzero" stroke-linejoin="round" stroke-linecap="round" stroke="none" stroke-width="0.387" fill="#000000">
    <g id="Group_11">
     <path d="M 59.622,198.399 L 59.622,195.317 L 62.501,195.317 L 62.501,193.588 L 59.622,193.588 L 59.622,190.491 L 57.661,190.491 L 57.661,193.588 L 54.797,193.588 L 54.797,195.317 L 57.661,195.317 L 57.661,198.399 L 59.622,198.399 Z" marker-start="none" marker-end="none"/>
     <path d="M 65.132,190.966 L 67.311,190.966 L 67.311,196.686 C 67.311,196.967 67.319,197.26 67.334,197.566 L 66.05,196.499 C 65.967,196.432 65.884,196.384 65.801,196.355 C 65.718,196.327 65.638,196.313 65.56,196.313 C 65.425,196.313 65.305,196.342 65.198,196.402 C 65.092,196.462 65.013,196.525 64.961,196.593 L 64.198,197.605 L 67.731,200.57 L 69.724,200.57 L 69.724,190.966 L 71.591,190.966 L 71.591,189.222 L 65.132,189.222 L 65.132,190.966 Z" marker-start="none" marker-end="none"/>
    </g>
   </g>
   <path d="M 121.129,283.217 C 128.981,289.844 140.728,288.853 147.355,281.004 C 153.986,273.158 152.994,261.406 145.145,254.779 C 137.295,248.149 125.546,249.14 118.919,256.995 C 112.289,264.839 113.28,276.587 121.129,283.217 Z" stroke="#ff0000" fill="#ffffff" stroke-width="4.212" stroke-linejoin="miter" marker-start="none" marker-end="none"/>
   <g id="Group_12" fill-rule="nonzero" stroke-linejoin="round" stroke-linecap="round" stroke="none" stroke-width="0.248" fill="#000000">
    <g id="Group_13">
     <path d="M 125.963,279.552 C 126.022,279.552 126.071,279.55 126.111,279.544 C 126.151,279.539 126.187,279.529 126.219,279.514 C 126.251,279.5 126.282,279.479 126.311,279.452 C 126.34,279.426 126.374,279.39 126.411,279.344 L 129.177,275.847 C 129.166,275.959 129.158,276.067 129.153,276.173 C 129.148,276.278 129.145,276.377 129.145,276.47 L 129.145,279.552 L 130.336,279.552 L 130.336,273.726 L 129.633,273.726 C 129.529,273.726 129.441,273.742 129.369,273.774 C 129.297,273.806 129.228,273.865 129.161,273.95 L 126.415,277.42 C 126.423,277.318 126.43,277.219 126.435,277.122 C 126.44,277.025 126.443,276.933 126.443,276.848 L 126.443,273.726 L 125.252,273.726 L 125.252,279.552 L 125.963,279.552 Z" marker-start="none" marker-end="none"/>
     <path d="M 137.043,276.64 C 137.043,276.219 136.97,275.827 136.825,275.465 C 136.68,275.102 136.475,274.787 136.211,274.519 C 135.948,274.251 135.63,274.041 135.258,273.889 C 134.886,273.738 134.474,273.662 134.021,273.662 C 133.568,273.662 133.155,273.738 132.782,273.889 C 132.409,274.041 132.089,274.251 131.824,274.519 C 131.559,274.787 131.354,275.102 131.209,275.465 C 131.064,275.827 130.991,276.219 130.991,276.64 C 130.991,277.061 131.064,277.453 131.209,277.816 C 131.354,278.178 131.559,278.493 131.824,278.759 C 132.089,279.026 132.409,279.235 132.782,279.387 C 133.155,279.539 133.568,279.615 134.021,279.615 C 134.474,279.615 134.886,279.538 135.258,279.385 C 135.63,279.232 135.948,279.022 136.211,278.755 C 136.475,278.489 136.68,278.174 136.825,277.812 C 136.97,277.449 137.043,277.059 137.043,276.64 Z M 135.66,276.64 C 135.66,276.928 135.623,277.187 135.548,277.417 C 135.473,277.648 135.366,277.843 135.226,278.003 C 135.086,278.163 134.915,278.285 134.712,278.37 C 134.51,278.456 134.279,278.498 134.021,278.498 C 133.76,278.498 133.527,278.456 133.323,278.37 C 133.119,278.285 132.948,278.163 132.808,278.003 C 132.668,277.843 132.561,277.648 132.486,277.417 C 132.411,277.187 132.374,276.928 132.374,276.64 C 132.374,276.35 132.411,276.089 132.486,275.859 C 132.561,275.628 132.668,275.433 132.808,275.273 C 132.948,275.114 133.119,274.992 133.323,274.908 C 133.527,274.824 133.76,274.782 134.021,274.782 C 134.279,274.782 134.51,274.824 134.712,274.908 C 134.915,274.992 135.086,275.114 135.226,275.273 C 135.366,275.433 135.473,275.628 135.548,275.859 C 135.623,276.089 135.66,276.35 135.66,276.64 Z" marker-start="none" marker-end="none"/>
     <path d="M 141.679,279.552 L 141.679,278.481 L 140.04,278.481 L 140.04,273.727 L 138.689,273.727 L 138.689,278.481 L 137.05,278.481 L 137.05,279.552 L 141.679,279.552 Z" marker-start="none" marker-end="none"/>
    </g>
    <g id="Group_14">
     <path d="M 124.186,267.559 C 124.218,267.559 124.25,267.553 124.282,267.541 C 124.314,267.528 124.345,267.507 124.374,267.477 L 124.91,266.902 C 124.675,266.6 124.381,266.372 124.028,266.219 C 123.675,266.065 123.257,265.989 122.775,265.989 C 122.333,265.989 121.936,266.064 121.586,266.214 C 121.235,266.365 120.938,266.573 120.694,266.838 C 120.451,267.103 120.263,267.418 120.133,267.782 C 120.002,268.146 119.937,268.541 119.937,268.967 C 119.937,269.402 120.012,269.801 120.161,270.165 C 120.31,270.528 120.519,270.842 120.786,271.106 C 121.054,271.37 121.375,271.575 121.748,271.722 C 122.121,271.868 122.533,271.942 122.983,271.942 C 123.201,271.942 123.407,271.922 123.601,271.884 C 123.794,271.845 123.974,271.792 124.142,271.723 C 124.31,271.656 124.465,271.574 124.606,271.479 C 124.747,271.385 124.872,271.28 124.982,271.165 L 124.526,270.553 C 124.497,270.516 124.462,270.482 124.422,270.451 C 124.382,270.421 124.326,270.405 124.254,270.405 C 124.206,270.405 124.161,270.416 124.118,270.437 C 124.076,270.459 124.03,270.485 123.982,270.515 C 123.934,270.546 123.882,270.579 123.824,270.615 C 123.767,270.651 123.699,270.685 123.62,270.715 C 123.542,270.746 123.45,270.772 123.345,270.793 C 123.239,270.815 123.116,270.825 122.975,270.825 C 122.73,270.825 122.506,270.782 122.303,270.695 C 122.101,270.609 121.927,270.485 121.782,270.324 C 121.636,270.162 121.523,269.967 121.442,269.738 C 121.361,269.509 121.32,269.251 121.32,268.966 C 121.32,268.668 121.361,268.402 121.442,268.171 C 121.523,267.939 121.634,267.744 121.774,267.585 C 121.914,267.426 122.077,267.306 122.263,267.223 C 122.45,267.141 122.65,267.099 122.863,267.099 C 122.986,267.099 123.097,267.105 123.199,267.117 C 123.3,267.129 123.394,267.15 123.481,267.179 C 123.567,267.208 123.65,267.246 123.728,267.293 C 123.807,267.34 123.886,267.398 123.966,267.467 C 123.998,267.494 124.033,267.516 124.07,267.533 C 124.108,267.55 124.146,267.559 124.186,267.559 Z" marker-start="none" marker-end="none"/>
     <path d="M 127.006,266.053 L 125.647,266.053 L 125.647,271.879 L 127.006,271.879 L 127.006,266.053 Z" marker-start="none" marker-end="none"/>
     <path d="M 129.435,268.208 L 129.435,266.053 L 128.084,266.053 L 128.084,271.877 L 129.978,271.877 C 130.399,271.877 130.759,271.834 131.056,271.747 C 131.353,271.661 131.595,271.54 131.783,271.385 C 131.971,271.23 132.108,271.047 132.193,270.837 C 132.278,270.626 132.321,270.396 132.321,270.148 C 132.321,269.959 132.296,269.78 132.245,269.612 C 132.194,269.444 132.119,269.288 132.019,269.146 C 131.919,269.003 131.797,268.875 131.651,268.763 C 131.506,268.651 131.339,268.559 131.15,268.487 C 131.24,268.442 131.325,268.386 131.404,268.32 C 131.482,268.253 131.551,268.172 131.609,268.076 L 132.849,266.053 L 131.625,266.053 C 131.399,266.053 131.236,266.138 131.138,266.309 L 130.17,268 C 130.128,268.075 130.078,268.128 130.02,268.16 C 129.963,268.192 129.883,268.208 129.779,268.208 L 129.435,268.208 Z M 129.435,269.139 L 129.978,269.139 C 130.162,269.139 130.319,269.162 130.448,269.209 C 130.577,269.256 130.683,269.32 130.766,269.403 C 130.849,269.485 130.908,269.582 130.946,269.693 C 130.983,269.803 131.002,269.923 131.002,270.05 C 131.002,270.306 130.918,270.506 130.752,270.65 C 130.585,270.794 130.328,270.866 129.978,270.866 L 129.435,270.866 L 129.435,269.139 Z" marker-start="none" marker-end="none"/>
     <path d="M 137.115,267.559 C 137.147,267.559 137.179,267.553 137.211,267.541 C 137.243,267.528 137.274,267.507 137.303,267.477 L 137.839,266.902 C 137.604,266.6 137.31,266.372 136.957,266.219 C 136.604,266.065 136.186,265.989 135.704,265.989 C 135.262,265.989 134.865,266.064 134.515,266.214 C 134.164,266.365 133.867,266.573 133.623,266.838 C 133.38,267.103 133.192,267.418 133.062,267.782 C 132.931,268.146 132.866,268.541 132.866,268.967 C 132.866,269.402 132.941,269.801 133.09,270.165 C 133.239,270.528 133.448,270.842 133.715,271.106 C 133.983,271.37 134.304,271.575 134.677,271.722 C 135.05,271.868 135.462,271.942 135.912,271.942 C 136.13,271.942 136.336,271.922 136.53,271.884 C 136.723,271.845 136.903,271.792 137.071,271.723 C 137.239,271.656 137.394,271.574 137.535,271.479 C 137.676,271.385 137.801,271.28 137.911,271.165 L 137.455,270.553 C 137.426,270.516 137.391,270.482 137.351,270.451 C 137.311,270.421 137.255,270.405 137.183,270.405 C 137.135,270.405 137.09,270.416 137.047,270.437 C 137.005,270.459 136.959,270.485 136.911,270.515 C 136.863,270.546 136.811,270.579 136.753,270.615 C 136.696,270.651 136.628,270.685 136.549,270.715 C 136.471,270.746 136.379,270.772 136.274,270.793 C 136.168,270.815 136.045,270.825 135.904,270.825 C 135.659,270.825 135.435,270.782 135.232,270.695 C 135.03,270.609 134.856,270.485 134.711,270.324 C 134.565,270.162 134.452,269.967 134.371,269.738 C 134.29,269.509 134.249,269.251 134.249,268.966 C 134.249,268.668 134.29,268.402 134.371,268.171 C 134.452,267.939 134.563,267.744 134.703,267.585 C 134.843,267.426 135.006,267.306 135.192,267.223 C 135.379,267.141 135.579,267.099 135.792,267.099 C 135.915,267.099 136.026,267.105 136.128,267.117 C 136.229,267.129 136.323,267.15 136.41,267.179 C 136.496,267.208 136.579,267.246 136.657,267.293 C 136.736,267.34 136.815,267.398 136.895,267.467 C 136.927,267.494 136.962,267.516 136.999,267.533 C 137.037,267.55 137.075,267.559 137.115,267.559 Z" marker-start="none" marker-end="none"/>
     <path d="M 140.878,267.121 C 141.059,267.121 141.221,267.151 141.364,267.211 C 141.506,267.271 141.627,267.356 141.726,267.469 C 141.824,267.58 141.899,267.717 141.951,267.878 C 142.003,268.039 142.029,268.223 142.029,268.428 L 142.029,271.878 L 143.38,271.878 L 143.38,268.428 C 143.38,268.07 143.322,267.743 143.207,267.444 C 143.091,267.146 142.925,266.888 142.709,266.672 C 142.493,266.456 142.231,266.289 141.921,266.168 C 141.612,266.049 141.265,265.989 140.878,265.989 C 140.489,265.989 140.14,266.049 139.831,266.168 C 139.522,266.289 139.259,266.456 139.043,266.672 C 138.827,266.888 138.662,267.146 138.548,267.444 C 138.433,267.743 138.376,268.07 138.376,268.428 L 138.376,271.878 L 139.727,271.878 L 139.727,268.432 C 139.727,268.227 139.753,268.043 139.805,267.882 C 139.857,267.721 139.932,267.584 140.031,267.471 C 140.129,267.357 140.25,267.271 140.392,267.211 C 140.535,267.151 140.697,267.121 140.878,267.121 Z" marker-start="none" marker-end="none"/>
     <path d="M 144.181,268.983 L 146.339,268.983 L 146.339,267.983 L 144.181,267.983 L 144.181,268.983 Z" marker-start="none" marker-end="none"/>
    </g>
    <g id="Group_15">
     <path d="M 127.418,259.459 L 129.576,259.459 L 129.576,258.38 L 126.067,258.38 L 126.067,264.205 L 127.418,264.205 L 127.418,259.459 Z" marker-start="none" marker-end="none"/>
     <path d="M 135.637,258.38 L 134.59,258.38 C 134.473,258.38 134.376,258.407 134.3,258.462 C 134.224,258.517 134.171,258.587 134.142,258.672 L 133.798,259.688 L 131.584,259.688 L 131.24,258.672 C 131.213,258.597 131.161,258.53 131.084,258.47 C 131.007,258.41 130.912,258.38 130.8,258.38 L 129.745,258.38 L 132,264.205 L 133.383,264.205 L 135.637,258.38 Z M 131.896,260.607 L 133.487,260.607 L 132.951,262.178 C 132.916,262.277 132.876,262.395 132.829,262.53 C 132.782,262.665 132.736,262.811 132.691,262.969 C 132.648,262.809 132.604,262.66 132.559,262.524 C 132.514,262.388 132.471,262.27 132.431,262.17 L 131.896,260.607 Z" marker-start="none" marker-end="none"/>
     <path d="M 137.459,260.535 L 137.459,258.38 L 136.108,258.38 L 136.108,264.204 L 138.002,264.204 C 138.423,264.204 138.783,264.161 139.08,264.074 C 139.377,263.988 139.619,263.867 139.807,263.712 C 139.995,263.557 140.132,263.374 140.217,263.164 C 140.302,262.953 140.345,262.723 140.345,262.475 C 140.345,262.286 140.32,262.107 140.269,261.939 C 140.218,261.771 140.143,261.615 140.043,261.473 C 139.943,261.33 139.821,261.202 139.675,261.09 C 139.53,260.978 139.363,260.886 139.174,260.814 C 139.264,260.769 139.349,260.713 139.428,260.647 C 139.506,260.58 139.575,260.499 139.633,260.403 L 140.873,258.38 L 139.649,258.38 C 139.423,258.38 139.26,258.465 139.162,258.636 L 138.194,260.327 C 138.152,260.402 138.102,260.455 138.044,260.487 C 137.987,260.519 137.907,260.535 137.803,260.535 L 137.459,260.535 Z M 137.459,261.466 L 138.002,261.466 C 138.186,261.466 138.343,261.489 138.472,261.536 C 138.601,261.583 138.707,261.647 138.79,261.73 C 138.873,261.812 138.932,261.909 138.97,262.02 C 139.007,262.13 139.026,262.25 139.026,262.377 C 139.026,262.633 138.942,262.833 138.776,262.977 C 138.609,263.121 138.352,263.193 138.002,263.193 L 137.459,263.193 L 137.459,261.466 Z" marker-start="none" marker-end="none"/>
    </g>
   </g>
   <g id="Group_16" stroke="#f0942b" stroke-linejoin="miter" stroke-linecap="round">
    <path d="M 45.618,150.565 L 45.618,116.673 L 149.206,116.673 L 149.206,150.565 L 45.618,150.565 Z" fill="#f0942b" stroke-width="1.738" marker-start="none" marker-end="none"/>
    <path d="M 45.618,151.908 L 45.618,142.098 C 45.618,139.527 47.702,137.45 50.264,137.45 L 144.556,137.45 C 147.118,137.45 149.206,139.527 149.206,142.098 L 149.206,151.908 C 149.206,154.484 147.118,156.562 144.556,156.562 L 50.264,156.562 C 47.702,156.562 45.618,154.484 45.618,151.908 Z" fill="#f0942b" stroke-width="1.738" marker-start="none" marker-end="none"/>
    <path d="M 46.315,123.015 L 46.315,105.37 C 46.315,100.757 50.059,97.011 54.677,97.011 L 221.723,97.011 C 226.336,97.011 230.084,100.757 230.084,105.37 L 230.084,123.015 C 230.084,127.633 226.336,131.381 221.723,131.381 L 54.677,131.381 C 50.059,131.381 46.315,127.633 46.315,123.015 Z" fill="#ffffff" stroke-width="3.13" marker-start="none" marker-end="none"/>
   </g>
   <g id="Group_17" stroke-linejoin="miter">
    <path d="M 199.76,175.914 C 193.86,182.892 194.739,193.352 201.734,199.261 C 208.716,205.153 219.169,204.274 225.073,197.287 C 230.982,190.295 230.096,179.841 223.099,173.936 C 216.117,168.041 205.66,168.92 199.76,175.914 Z" stroke="none" fill="#000000" stroke-width="0.686" marker-start="none" marker-end="none"/>
    <path d="M 200.538,176.523 C 194.647,183.521 195.519,193.98 202.512,199.873 C 209.501,205.782 219.953,204.899 225.869,197.906 C 231.766,190.924 230.881,180.472 223.887,174.567 C 216.908,168.661 206.444,169.54 200.538,176.523 Z" stroke="#b2b2b2" stroke-width="3.752" marker-start="none" marker-end="none"/>
   </g>
   <g id="Group_18" stroke-linejoin="miter">
    <path d="M 159.075,175.901 C 153.175,182.89 154.054,193.358 161.051,199.249 C 168.034,205.16 178.488,204.277 184.39,197.289 C 190.301,190.3 189.415,179.84 182.417,173.936 C 175.434,168.037 164.975,168.92 159.075,175.901 Z" stroke="none" fill="#ffffff" stroke-width="0.689" marker-start="none" marker-end="none"/>
    <path d="M 159.855,176.536 C 153.962,183.528 154.835,193.974 161.827,199.887 C 168.818,205.771 179.273,204.899 185.186,197.911 C 191.084,190.924 190.2,180.458 183.206,174.558 C 176.225,168.659 165.76,169.537 159.855,176.536 Z" stroke="#539bc5" stroke-width="3.752" marker-start="none" marker-end="none"/>
   </g>
   <g id="Group_19" stroke-linejoin="miter">
    <path d="M 183.554,240.682 C 174.657,251.222 175.982,267.008 186.534,275.892 C 197.065,284.806 212.83,283.474 221.731,272.936 C 230.645,262.396 229.309,246.622 218.755,237.719 C 208.224,228.823 192.452,230.154 183.554,240.682 Z" stroke="none" fill="#ffffff" stroke-width="1.039" marker-start="none" marker-end="none"/>
    <path d="M 184.731,241.639 C 175.844,252.184 177.16,267.937 187.704,276.854 C 198.247,285.727 214.014,284.412 222.931,273.874 C 231.825,263.337 230.492,247.554 219.945,238.657 C 209.417,229.761 193.636,231.085 184.731,241.639 Z" stroke="#539bc5" stroke-width="5.658" marker-start="none" marker-end="none"/>
   </g>
   <g id="Group_20" fill-rule="nonzero" stroke-linejoin="round" stroke-linecap="round" stroke="none" stroke-width="0.485" fill="#b2b2b2">
    <g id="Group_21">
     <path d="M 217.431,187.224 C 217.431,185.982 217.298,184.907 217.031,183.997 C 216.765,183.087 216.396,182.334 215.925,181.736 C 215.454,181.138 214.895,180.693 214.249,180.401 C 213.603,180.108 212.903,179.962 212.149,179.962 C 211.395,179.962 210.698,180.108 210.058,180.401 C 209.419,180.693 208.865,181.138 208.397,181.736 C 207.929,182.334 207.564,183.087 207.301,183.997 C 207.037,184.907 206.906,185.982 206.906,187.224 C 206.906,188.465 207.037,189.54 207.301,190.45 C 207.564,191.36 207.929,192.113 208.397,192.711 C 208.865,193.309 209.419,193.753 210.058,194.042 C 210.698,194.331 211.395,194.475 212.149,194.475 C 212.903,194.475 213.603,194.331 214.249,194.042 C 214.895,193.753 215.454,193.309 215.925,192.711 C 216.396,192.113 216.765,191.36 217.031,190.45 C 217.298,189.54 217.431,188.465 217.431,187.224 Z M 214.312,187.224 C 214.312,188.205 214.251,189.009 214.127,189.636 C 214.004,190.263 213.84,190.755 213.635,191.113 C 213.43,191.47 213.198,191.716 212.938,191.849 C 212.678,191.982 212.415,192.048 212.149,192.048 C 211.882,192.048 211.621,191.982 211.364,191.849 C 211.108,191.716 210.88,191.47 210.682,191.113 C 210.484,190.755 210.325,190.263 210.205,189.636 C 210.084,189.009 210.024,188.205 210.024,187.224 C 210.024,186.236 210.084,185.43 210.205,184.806 C 210.325,184.183 210.484,183.69 210.682,183.329 C 210.88,182.969 211.108,182.722 211.364,182.589 C 211.621,182.455 211.882,182.389 212.149,182.389 C 212.415,182.389 212.678,182.455 212.938,182.589 C 213.198,182.722 213.43,182.969 213.635,183.329 C 213.84,183.69 214.004,184.183 214.127,184.806 C 214.251,185.43 214.312,186.236 214.312,187.224 Z" marker-start="none" marker-end="none"/>
    </g>
   </g>
   <g id="Group_22" fill-rule="nonzero" stroke-linejoin="round" stroke-linecap="round" stroke="none" stroke-width="0.485" fill="#000000">
    <g id="Group_23">
     <path d="M 172.901,194.475 C 173.602,194.475 174.226,194.376 174.772,194.177 C 175.317,193.979 175.779,193.71 176.156,193.371 C 176.532,193.032 176.818,192.64 177.013,192.193 C 177.208,191.747 177.306,191.276 177.306,190.781 C 177.306,190.332 177.26,189.936 177.169,189.593 C 177.078,189.251 176.943,188.955 176.765,188.704 C 176.586,188.453 176.365,188.24 176.102,188.064 C 175.839,187.888 175.538,187.742 175.201,187.624 C 176.773,187.08 177.559,186.013 177.559,184.425 C 177.559,183.673 177.422,183.019 177.15,182.461 C 176.877,181.903 176.511,181.44 176.053,181.071 C 175.595,180.701 175.064,180.424 174.46,180.239 C 173.856,180.054 173.225,179.962 172.569,179.962 C 171.894,179.962 171.293,180.035 170.766,180.181 C 170.24,180.327 169.772,180.555 169.363,180.863 C 168.954,181.172 168.595,181.566 168.286,182.047 C 167.978,182.528 167.71,183.099 167.482,183.762 L 168.827,184.309 C 168.944,184.362 169.059,184.397 169.173,184.417 C 169.287,184.436 169.399,184.446 169.509,184.446 C 169.717,184.446 169.904,184.405 170.07,184.324 C 170.235,184.243 170.36,184.124 170.445,183.968 C 170.737,183.428 171.047,183.036 171.375,182.793 C 171.704,182.549 172.088,182.427 172.53,182.427 C 172.868,182.427 173.162,182.484 173.412,182.598 C 173.662,182.711 173.87,182.857 174.036,183.036 C 174.202,183.215 174.327,183.419 174.411,183.646 C 174.496,183.874 174.538,184.105 174.538,184.339 C 174.538,184.644 174.517,184.919 174.475,185.163 C 174.432,185.407 174.314,185.617 174.119,185.792 C 173.924,185.968 173.63,186.103 173.237,186.197 C 172.844,186.291 172.296,186.338 171.595,186.338 L 171.595,188.423 C 172.186,188.423 172.663,188.468 173.027,188.559 C 173.391,188.65 173.672,188.775 173.87,188.935 C 174.068,189.094 174.2,189.287 174.265,189.515 C 174.33,189.742 174.362,189.992 174.362,190.265 C 174.362,190.824 174.228,191.255 173.958,191.557 C 173.688,191.859 173.277,192.011 172.725,192.011 C 172.498,192.011 172.29,191.978 172.101,191.913 C 171.913,191.848 171.744,191.76 171.595,191.65 C 171.445,191.539 171.317,191.409 171.21,191.26 C 171.103,191.11 171.017,190.948 170.952,190.772 C 170.848,190.48 170.716,190.269 170.557,190.139 C 170.398,190.009 170.182,189.943 169.909,189.943 C 169.844,189.943 169.774,189.947 169.699,189.953 C 169.625,189.96 169.548,189.969 169.47,189.982 L 167.872,190.265 C 167.976,190.973 168.176,191.591 168.471,192.117 C 168.767,192.643 169.134,193.082 169.573,193.433 C 170.011,193.783 170.513,194.045 171.078,194.217 C 171.643,194.389 172.251,194.475 172.901,194.475 Z" marker-start="none" marker-end="none"/>
    </g>
   </g>
   <g id="Group_24" fill-rule="nonzero" stroke-linejoin="round" stroke-linecap="round" stroke="none" stroke-width="0.319" fill="#ffffff">
    <g id="Group_25">
     <path d="M 67.796,142.151 L 67.796,138.705 L 65.635,138.705 L 65.635,148.019 L 68.665,148.019 C 69.338,148.019 69.913,147.95 70.388,147.811 C 70.863,147.672 71.251,147.479 71.551,147.232 C 71.852,146.984 72.07,146.692 72.206,146.355 C 72.343,146.018 72.411,145.651 72.411,145.254 C 72.411,144.951 72.371,144.665 72.29,144.396 C 72.209,144.128 72.088,143.879 71.928,143.651 C 71.769,143.422 71.573,143.219 71.34,143.039 C 71.108,142.86 70.841,142.713 70.538,142.598 C 70.683,142.526 70.818,142.436 70.944,142.33 C 71.07,142.223 71.179,142.094 71.273,141.94 L 73.255,138.705 L 71.299,138.705 C 70.937,138.705 70.677,138.841 70.519,139.114 L 68.972,141.818 C 68.904,141.938 68.824,142.023 68.732,142.074 C 68.641,142.125 68.512,142.151 68.345,142.151 L 67.796,142.151 Z M 67.796,143.64 L 68.665,143.64 C 68.959,143.64 69.21,143.677 69.416,143.752 C 69.623,143.826 69.792,143.93 69.924,144.062 C 70.056,144.194 70.152,144.348 70.212,144.525 C 70.272,144.702 70.302,144.893 70.302,145.098 C 70.302,145.507 70.168,145.827 69.902,146.057 C 69.636,146.287 69.223,146.402 68.665,146.402 L 67.796,146.402 L 67.796,143.64 Z" marker-start="none" marker-end="none"/>
     <path d="M 80.134,148.022 L 80.134,146.358 L 76.312,146.358 L 76.312,144.183 L 79.239,144.183 L 79.239,142.585 L 76.312,142.585 L 76.312,140.369 L 80.134,140.369 L 80.134,138.705 L 74.138,138.705 L 74.138,148.022 L 80.134,148.022 Z" marker-start="none" marker-end="none"/>
     <path d="M 86.552,146.127 C 86.488,146.024 86.421,145.948 86.35,145.897 C 86.28,145.845 86.189,145.82 86.079,145.82 C 85.981,145.82 85.875,145.851 85.762,145.913 C 85.649,145.974 85.521,146.044 85.379,146.12 C 85.236,146.197 85.073,146.266 84.89,146.328 C 84.706,146.39 84.498,146.421 84.263,146.421 C 83.858,146.421 83.557,146.335 83.359,146.162 C 83.161,145.989 83.061,145.756 83.061,145.462 C 83.061,145.274 83.121,145.119 83.24,144.995 C 83.36,144.872 83.516,144.765 83.71,144.675 C 83.904,144.586 84.126,144.504 84.375,144.429 C 84.624,144.355 84.879,144.272 85.139,144.18 C 85.399,144.088 85.654,143.981 85.903,143.857 C 86.152,143.734 86.374,143.576 86.568,143.384 C 86.762,143.192 86.918,142.959 87.038,142.684 C 87.157,142.409 87.217,142.078 87.217,141.69 C 87.217,141.259 87.142,140.857 86.993,140.482 C 86.844,140.107 86.627,139.779 86.344,139.5 C 86.061,139.221 85.711,139.002 85.296,138.842 C 84.88,138.682 84.408,138.602 83.88,138.602 C 83.59,138.602 83.295,138.632 82.994,138.692 C 82.694,138.751 82.403,138.835 82.122,138.944 C 81.841,139.053 81.576,139.182 81.329,139.331 C 81.082,139.48 80.867,139.646 80.683,139.83 L 81.323,140.84 C 81.37,140.917 81.436,140.978 81.521,141.025 C 81.606,141.072 81.698,141.096 81.796,141.096 C 81.924,141.096 82.053,141.055 82.183,140.974 C 82.312,140.893 82.46,140.804 82.624,140.706 C 82.788,140.608 82.976,140.518 83.189,140.437 C 83.402,140.356 83.654,140.316 83.944,140.316 C 84.336,140.316 84.64,140.402 84.858,140.574 C 85.075,140.747 85.184,141.021 85.184,141.396 C 85.184,141.614 85.124,141.79 85.005,141.927 C 84.885,142.063 84.729,142.176 84.535,142.266 C 84.341,142.355 84.12,142.434 83.873,142.502 C 83.626,142.57 83.373,142.646 83.113,142.729 C 82.853,142.812 82.599,142.914 82.352,143.036 C 82.105,143.157 81.884,143.317 81.69,143.515 C 81.496,143.714 81.34,143.961 81.22,144.257 C 81.101,144.553 81.041,144.919 81.041,145.354 C 81.041,145.703 81.112,146.044 81.252,146.377 C 81.393,146.709 81.6,147.005 81.872,147.265 C 82.145,147.525 82.48,147.733 82.876,147.889 C 83.272,148.044 83.726,148.122 84.238,148.122 C 84.523,148.122 84.801,148.1 85.072,148.055 C 85.342,148.01 85.599,147.944 85.842,147.856 C 86.085,147.769 86.312,147.665 86.523,147.543 C 86.734,147.422 86.922,147.284 87.089,147.131 L 86.552,146.127 Z" marker-start="none" marker-end="none"/>
     <path d="M 97.482,143.365 C 97.482,142.692 97.366,142.065 97.134,141.486 C 96.902,140.906 96.575,140.402 96.153,139.973 C 95.731,139.545 95.223,139.209 94.628,138.966 C 94.034,138.723 93.374,138.602 92.65,138.602 C 91.925,138.602 91.265,138.723 90.668,138.966 C 90.071,139.209 89.561,139.545 89.137,139.973 C 88.713,140.402 88.385,140.906 88.153,141.486 C 87.92,142.065 87.804,142.692 87.804,143.365 C 87.804,144.039 87.92,144.665 88.153,145.245 C 88.385,145.825 88.713,146.327 89.137,146.754 C 89.561,147.18 90.071,147.515 90.668,147.758 C 91.265,148 91.925,148.122 92.65,148.122 C 93.374,148.122 94.034,147.999 94.628,147.754 C 95.223,147.509 95.731,147.174 96.153,146.747 C 96.575,146.321 96.902,145.818 97.134,145.238 C 97.366,144.659 97.482,144.034 97.482,143.365 Z M 95.271,143.365 C 95.271,143.825 95.211,144.239 95.092,144.608 C 94.972,144.976 94.801,145.289 94.577,145.544 C 94.353,145.8 94.079,145.996 93.756,146.132 C 93.432,146.268 93.063,146.336 92.65,146.337 C 92.232,146.336 91.86,146.268 91.534,146.132 C 91.208,145.996 90.933,145.8 90.71,145.544 C 90.486,145.289 90.314,144.976 90.195,144.608 C 90.076,144.239 90.016,143.825 90.016,143.365 C 90.016,142.901 90.076,142.484 90.195,142.116 C 90.314,141.747 90.486,141.435 90.71,141.18 C 90.933,140.924 91.208,140.729 91.534,140.595 C 91.86,140.461 92.232,140.394 92.65,140.394 C 93.063,140.394 93.432,140.461 93.756,140.595 C 94.079,140.729 94.353,140.924 94.577,141.18 C 94.801,141.435 94.972,141.747 95.092,142.116 C 95.211,142.484 95.271,142.901 95.271,143.365 Z" marker-start="none" marker-end="none"/>
     <path d="M 102.39,140.412 C 102.68,140.412 102.939,140.46 103.167,140.556 C 103.395,140.652 103.587,140.789 103.745,140.969 C 103.903,141.148 104.023,141.366 104.106,141.624 C 104.189,141.882 104.231,142.175 104.231,142.503 L 104.231,148.02 L 106.392,148.02 L 106.392,142.502 C 106.392,141.931 106.299,141.407 106.113,140.929 C 105.928,140.452 105.663,140.041 105.318,139.695 C 104.972,139.35 104.553,139.082 104.058,138.89 C 103.564,138.698 103.008,138.602 102.39,138.602 C 101.768,138.602 101.209,138.698 100.715,138.89 C 100.221,139.082 99.801,139.35 99.456,139.695 C 99.111,140.041 98.846,140.452 98.663,140.929 C 98.48,141.407 98.388,141.931 98.388,142.502 L 98.388,148.02 L 100.549,148.02 L 100.549,142.509 C 100.549,142.181 100.59,141.888 100.674,141.63 C 100.757,141.372 100.877,141.153 101.035,140.972 C 101.192,140.791 101.385,140.652 101.613,140.556 C 101.841,140.46 102.1,140.412 102.39,140.412 Z" marker-start="none" marker-end="none"/>
     <path d="M 109.96,142.151 L 109.96,138.705 L 107.799,138.705 L 107.799,148.019 L 110.829,148.019 C 111.502,148.019 112.077,147.95 112.552,147.811 C 113.027,147.672 113.415,147.479 113.715,147.232 C 114.016,146.984 114.234,146.692 114.37,146.355 C 114.507,146.018 114.575,145.651 114.575,145.254 C 114.575,144.951 114.535,144.665 114.454,144.396 C 114.373,144.128 114.252,143.879 114.092,143.651 C 113.933,143.422 113.737,143.219 113.504,143.039 C 113.272,142.86 113.005,142.713 112.702,142.598 C 112.847,142.526 112.982,142.436 113.108,142.33 C 113.234,142.223 113.343,142.094 113.437,141.94 L 115.419,138.705 L 113.463,138.705 C 113.101,138.705 112.841,138.841 112.683,139.114 L 111.136,141.818 C 111.068,141.938 110.988,142.023 110.896,142.074 C 110.805,142.125 110.676,142.151 110.509,142.151 L 109.96,142.151 Z M 109.96,143.64 L 110.829,143.64 C 111.123,143.64 111.374,143.677 111.58,143.752 C 111.787,143.826 111.956,143.93 112.088,144.062 C 112.22,144.194 112.316,144.348 112.376,144.525 C 112.436,144.702 112.466,144.893 112.466,145.098 C 112.466,145.507 112.332,145.827 112.066,146.057 C 111.8,146.287 111.387,146.402 110.829,146.402 L 109.96,146.402 L 109.96,143.64 Z" marker-start="none" marker-end="none"/>
     <path d="M 122.241,141.113 C 122.292,141.113 122.344,141.104 122.395,141.084 C 122.446,141.064 122.495,141.031 122.542,140.983 L 123.398,140.062 C 123.023,139.58 122.553,139.216 121.989,138.97 C 121.424,138.725 120.756,138.602 119.985,138.602 C 119.277,138.602 118.643,138.722 118.083,138.963 C 117.523,139.204 117.047,139.537 116.657,139.961 C 116.268,140.385 115.968,140.888 115.759,141.47 C 115.551,142.051 115.446,142.683 115.446,143.365 C 115.446,144.06 115.565,144.698 115.804,145.28 C 116.043,145.862 116.376,146.364 116.805,146.786 C 117.233,147.208 117.745,147.536 118.342,147.77 C 118.939,148.005 119.597,148.122 120.317,148.122 C 120.667,148.122 120.996,148.091 121.305,148.029 C 121.614,147.967 121.902,147.882 122.171,147.773 C 122.439,147.664 122.687,147.534 122.912,147.382 C 123.138,147.231 123.339,147.063 123.513,146.88 L 122.785,145.902 C 122.738,145.842 122.682,145.788 122.618,145.739 C 122.554,145.69 122.465,145.665 122.35,145.665 C 122.273,145.665 122.201,145.682 122.133,145.716 C 122.064,145.75 121.992,145.792 121.915,145.841 C 121.839,145.89 121.754,145.943 121.663,146.001 C 121.571,146.058 121.462,146.112 121.337,146.161 C 121.211,146.21 121.064,146.251 120.896,146.285 C 120.727,146.319 120.53,146.336 120.304,146.337 C 119.912,146.336 119.554,146.267 119.23,146.129 C 118.907,145.99 118.628,145.792 118.396,145.534 C 118.164,145.276 117.983,144.964 117.853,144.598 C 117.723,144.231 117.658,143.82 117.658,143.364 C 117.658,142.886 117.723,142.462 117.853,142.091 C 117.983,141.721 118.16,141.408 118.383,141.155 C 118.607,140.901 118.868,140.708 119.167,140.576 C 119.465,140.444 119.784,140.378 120.125,140.378 C 120.321,140.378 120.5,140.388 120.662,140.407 C 120.824,140.426 120.974,140.459 121.113,140.506 C 121.251,140.553 121.384,140.613 121.509,140.688 C 121.635,140.763 121.762,140.855 121.89,140.966 C 121.941,141.009 121.996,141.044 122.056,141.072 C 122.116,141.099 122.177,141.113 122.241,141.113 Z" marker-start="none" marker-end="none"/>
     <path d="M 130.382,148.022 L 130.382,146.358 L 126.56,146.358 L 126.56,144.183 L 129.487,144.183 L 129.487,142.585 L 126.56,142.585 L 126.56,140.369 L 130.382,140.369 L 130.382,138.705 L 124.386,138.705 L 124.386,148.022 L 130.382,148.022 Z" marker-start="none" marker-end="none"/>
    </g>
   </g>
   <g id="Group_26" fill-rule="nonzero" stroke-linejoin="round" stroke-linecap="round" stroke="none" stroke-width="0.365" fill="#000000">
    <g id="Group_27">
     <path d="M 76.466,119.732 L 78.547,119.732 C 78.762,119.732 78.941,119.683 79.086,119.585 C 79.23,119.486 79.324,119.356 79.368,119.193 L 80.833,113.584 C 80.882,113.402 80.931,113.208 80.98,113.001 C 81.028,112.795 81.065,112.578 81.089,112.352 C 81.138,112.583 81.192,112.801 81.251,113.005 C 81.309,113.209 81.365,113.402 81.419,113.584 L 83.148,119.193 C 83.192,119.331 83.286,119.455 83.43,119.566 C 83.574,119.677 83.749,119.732 83.954,119.732 L 84.687,119.732 C 84.902,119.732 85.079,119.684 85.218,119.588 C 85.357,119.492 85.454,119.361 85.508,119.193 L 87.222,113.583 C 87.276,113.411 87.332,113.228 87.391,113.033 C 87.449,112.839 87.5,112.631 87.544,112.409 C 87.583,112.626 87.624,112.833 87.665,113.029 C 87.707,113.226 87.75,113.411 87.793,113.583 L 89.259,119.193 C 89.298,119.336 89.391,119.461 89.537,119.57 C 89.684,119.678 89.86,119.732 90.065,119.732 L 92.014,119.732 L 88.717,109.055 L 86.475,109.055 L 84.467,115.569 C 84.433,115.67 84.398,115.781 84.361,115.901 C 84.324,116.021 84.289,116.148 84.255,116.283 C 84.22,116.148 84.185,116.021 84.148,115.901 C 84.112,115.781 84.076,115.67 84.042,115.569 L 82.005,109.055 L 79.763,109.055 L 76.466,119.732 Z" marker-start="none" marker-end="none"/>
     <path d="M 95.675,109.055 L 93.184,109.055 L 93.184,119.734 L 95.675,119.734 L 95.675,109.055 Z" marker-start="none" marker-end="none"/>
     <path d="M 98.955,119.734 C 99.063,119.734 99.153,119.729 99.226,119.719 C 99.3,119.71 99.366,119.691 99.424,119.664 C 99.483,119.637 99.539,119.599 99.593,119.551 C 99.647,119.502 99.708,119.436 99.776,119.353 L 104.846,112.942 C 104.827,113.147 104.812,113.346 104.802,113.539 C 104.792,113.732 104.787,113.914 104.787,114.085 L 104.787,119.734 L 106.971,119.734 L 106.971,109.055 L 105.681,109.055 C 105.491,109.055 105.33,109.084 105.198,109.143 C 105.066,109.202 104.939,109.309 104.817,109.465 L 99.783,115.825 C 99.798,115.639 99.81,115.457 99.82,115.279 C 99.83,115.101 99.835,114.934 99.835,114.777 L 99.835,109.055 L 97.651,109.055 L 97.651,119.734 L 98.955,119.734 Z" marker-start="none" marker-end="none"/>
     <path d="M 118.413,114.398 C 118.413,113.626 118.28,112.914 118.014,112.262 C 117.748,111.609 117.373,111.045 116.889,110.569 C 116.406,110.092 115.823,109.721 115.142,109.455 C 114.46,109.188 113.705,109.055 112.874,109.055 L 108.727,109.055 L 108.727,119.734 L 112.874,119.734 C 113.705,119.734 114.46,119.599 115.142,119.331 C 115.823,119.062 116.406,118.691 116.889,118.217 C 117.373,117.743 117.748,117.18 118.014,116.527 C 118.28,115.875 118.413,115.165 118.413,114.398 Z M 115.878,114.398 C 115.878,114.926 115.81,115.402 115.673,115.827 C 115.536,116.252 115.34,116.612 115.083,116.907 C 114.827,117.203 114.513,117.43 114.142,117.589 C 113.77,117.748 113.348,117.827 112.874,117.827 L 111.218,117.827 L 111.218,110.962 L 112.874,110.962 C 113.348,110.962 113.77,111.041 114.142,111.2 C 114.513,111.359 114.827,111.586 115.083,111.881 C 115.34,112.177 115.536,112.537 115.673,112.962 C 115.81,113.387 115.878,113.866 115.878,114.398 Z" marker-start="none" marker-end="none"/>
     <path d="M 124.906,112.625 L 124.906,109.057 L 122.429,109.057 L 122.429,119.734 L 126.195,119.734 C 126.947,119.734 127.593,119.645 128.133,119.466 C 128.673,119.288 129.117,119.043 129.467,118.73 C 129.816,118.417 130.073,118.048 130.24,117.623 C 130.406,117.198 130.489,116.739 130.489,116.246 C 130.489,115.713 130.403,115.224 130.232,114.78 C 130.061,114.335 129.8,113.954 129.448,113.637 C 129.097,113.319 128.651,113.071 128.111,112.893 C 127.571,112.715 126.933,112.625 126.195,112.625 L 124.906,112.625 Z M 124.906,114.493 L 126.195,114.493 C 126.84,114.493 127.304,114.647 127.587,114.955 C 127.871,115.263 128.012,115.693 128.012,116.245 C 128.012,116.49 127.976,116.713 127.902,116.913 C 127.829,117.113 127.718,117.285 127.569,117.43 C 127.42,117.574 127.232,117.685 127.005,117.763 C 126.778,117.842 126.508,117.881 126.195,117.881 L 124.906,117.881 L 124.906,114.493 Z" marker-start="none" marker-end="none"/>
     <path d="M 142.317,114.396 C 142.317,113.624 142.184,112.906 141.918,112.242 C 141.652,111.578 141.277,111 140.793,110.509 C 140.31,110.018 139.727,109.633 139.046,109.355 C 138.364,109.076 137.608,108.937 136.778,108.937 C 135.948,108.937 135.191,109.076 134.507,109.355 C 133.823,109.633 133.238,110.018 132.752,110.509 C 132.266,111 131.89,111.578 131.624,112.242 C 131.357,112.906 131.224,113.624 131.224,114.396 C 131.224,115.168 131.357,115.886 131.624,116.551 C 131.89,117.215 132.266,117.792 132.752,118.28 C 133.238,118.769 133.823,119.152 134.507,119.431 C 135.191,119.709 135.948,119.848 136.778,119.848 C 137.608,119.848 138.364,119.708 139.046,119.427 C 139.727,119.146 140.31,118.761 140.793,118.273 C 141.277,117.784 141.652,117.208 141.918,116.543 C 142.184,115.879 142.317,115.163 142.317,114.396 Z M 139.782,114.396 C 139.782,114.924 139.714,115.398 139.577,115.821 C 139.44,116.243 139.244,116.601 138.987,116.894 C 138.731,117.187 138.417,117.411 138.046,117.568 C 137.674,117.724 137.252,117.802 136.778,117.802 C 136.299,117.802 135.873,117.724 135.5,117.568 C 135.126,117.411 134.811,117.187 134.554,116.894 C 134.298,116.601 134.101,116.243 133.965,115.821 C 133.828,115.398 133.759,114.924 133.759,114.396 C 133.759,113.864 133.828,113.387 133.965,112.964 C 134.101,112.542 134.298,112.184 134.554,111.891 C 134.811,111.598 135.126,111.375 135.5,111.221 C 135.873,111.067 136.299,110.99 136.778,110.99 C 137.252,110.99 137.674,111.067 138.046,111.221 C 138.417,111.375 138.731,111.598 138.987,111.891 C 139.244,112.184 139.44,112.542 139.577,112.964 C 139.714,113.387 139.782,113.864 139.782,114.396 Z" marker-start="none" marker-end="none"/>
     <path d="M 142.695,119.732 L 144.776,119.732 C 144.991,119.732 145.17,119.683 145.315,119.585 C 145.459,119.486 145.553,119.356 145.597,119.193 L 147.062,113.584 C 147.111,113.402 147.16,113.208 147.209,113.001 C 147.257,112.795 147.294,112.578 147.318,112.352 C 147.367,112.583 147.421,112.801 147.48,113.005 C 147.538,113.209 147.594,113.402 147.648,113.584 L 149.377,119.193 C 149.421,119.331 149.515,119.455 149.659,119.566 C 149.803,119.677 149.978,119.732 150.183,119.732 L 150.916,119.732 C 151.131,119.732 151.308,119.684 151.447,119.588 C 151.586,119.492 151.683,119.361 151.737,119.193 L 153.451,113.583 C 153.505,113.411 153.561,113.228 153.62,113.033 C 153.678,112.839 153.729,112.631 153.773,112.409 C 153.812,112.626 153.853,112.833 153.894,113.029 C 153.936,113.226 153.979,113.411 154.022,113.583 L 155.488,119.193 C 155.527,119.336 155.62,119.461 155.766,119.57 C 155.913,119.678 156.089,119.732 156.294,119.732 L 158.243,119.732 L 154.946,109.055 L 152.704,109.055 L 150.696,115.569 C 150.662,115.67 150.627,115.781 150.59,115.901 C 150.553,116.021 150.518,116.148 150.484,116.283 C 150.449,116.148 150.414,116.021 150.377,115.901 C 150.341,115.781 150.305,115.67 150.271,115.569 L 148.234,109.055 L 145.992,109.055 L 142.695,119.732 Z" marker-start="none" marker-end="none"/>
     <path d="M 166.066,119.734 L 166.066,117.827 L 161.684,117.827 L 161.684,115.334 L 165.04,115.334 L 165.04,113.502 L 161.684,113.502 L 161.684,110.962 L 166.066,110.962 L 166.066,109.055 L 159.193,109.055 L 159.193,119.734 L 166.066,119.734 Z" marker-start="none" marker-end="none"/>
     <path d="M 169.949,113.005 L 169.949,109.055 L 167.472,109.055 L 167.472,119.73 L 170.945,119.73 C 171.717,119.73 172.375,119.651 172.92,119.492 C 173.464,119.333 173.909,119.112 174.253,118.828 C 174.598,118.544 174.848,118.209 175.004,117.823 C 175.16,117.437 175.239,117.016 175.239,116.561 C 175.239,116.214 175.192,115.886 175.099,115.578 C 175.007,115.27 174.869,114.985 174.685,114.723 C 174.502,114.462 174.278,114.228 174.011,114.023 C 173.745,113.818 173.439,113.649 173.092,113.517 C 173.258,113.434 173.413,113.331 173.557,113.209 C 173.701,113.088 173.827,112.939 173.934,112.763 L 176.206,109.055 L 173.964,109.055 C 173.549,109.055 173.251,109.211 173.07,109.524 L 171.297,112.624 C 171.219,112.76 171.127,112.858 171.022,112.917 C 170.917,112.975 170.769,113.005 170.579,113.005 L 169.949,113.005 Z M 169.949,114.711 L 170.945,114.711 C 171.282,114.711 171.569,114.754 171.806,114.839 C 172.043,114.925 172.237,115.043 172.388,115.195 C 172.54,115.346 172.65,115.523 172.718,115.726 C 172.787,115.929 172.821,116.148 172.821,116.382 C 172.821,116.851 172.668,117.218 172.363,117.481 C 172.058,117.745 171.585,117.877 170.945,117.877 L 169.949,117.877 L 169.949,114.711 Z" marker-start="none" marker-end="none"/>
     <path d="M 176.837,110.345 C 176.837,110.501 176.867,110.647 176.925,110.781 C 176.984,110.916 177.068,111.033 177.178,111.133 C 177.288,111.233 177.417,111.312 177.566,111.371 C 177.715,111.43 177.883,111.459 178.068,111.459 C 178.288,111.459 178.478,111.421 178.64,111.345 C 178.801,111.27 178.935,111.167 179.043,111.038 C 179.15,110.908 179.229,110.759 179.281,110.591 C 179.332,110.422 179.358,110.245 179.358,110.059 C 179.358,109.815 179.319,109.555 179.24,109.279 C 179.162,109.003 179.046,108.726 178.892,108.447 C 178.739,108.169 178.547,107.895 178.317,107.626 C 178.088,107.358 177.824,107.113 177.526,106.894 L 177.13,107.245 C 177.077,107.299 177.036,107.349 177.009,107.396 C 176.983,107.442 176.969,107.499 176.969,107.568 C 176.969,107.617 176.986,107.669 177.02,107.725 C 177.055,107.782 177.096,107.832 177.145,107.876 C 177.204,107.934 177.272,108.005 177.35,108.088 C 177.428,108.171 177.506,108.264 177.585,108.367 C 177.663,108.469 177.735,108.582 177.801,108.704 C 177.867,108.826 177.917,108.955 177.951,109.092 C 177.78,109.107 177.626,109.148 177.489,109.217 C 177.353,109.285 177.237,109.376 177.141,109.488 C 177.046,109.6 176.972,109.728 176.918,109.873 C 176.864,110.017 176.837,110.174 176.837,110.345 Z" marker-start="none" marker-end="none"/>
     <path d="M 186.211,109.055 L 183.72,109.055 L 183.72,119.734 L 186.211,119.734 L 186.211,109.055 Z" marker-start="none" marker-end="none"/>
     <path d="M 189.491,119.734 C 189.599,119.734 189.689,119.729 189.762,119.719 C 189.836,119.71 189.902,119.691 189.96,119.664 C 190.019,119.637 190.075,119.599 190.129,119.551 C 190.183,119.502 190.244,119.436 190.312,119.353 L 195.382,112.942 C 195.363,113.147 195.348,113.346 195.338,113.539 C 195.328,113.732 195.323,113.914 195.323,114.085 L 195.323,119.734 L 197.507,119.734 L 197.507,109.055 L 196.217,109.055 C 196.027,109.055 195.866,109.084 195.734,109.143 C 195.602,109.202 195.475,109.309 195.353,109.465 L 190.319,115.825 C 190.334,115.639 190.346,115.457 190.356,115.279 C 190.366,115.101 190.371,114.934 190.371,114.777 L 190.371,109.055 L 188.187,109.055 L 188.187,119.734 L 189.491,119.734 Z" marker-start="none" marker-end="none"/>
     <path d="M 206.436,111.815 C 206.495,111.815 206.553,111.804 206.612,111.782 C 206.671,111.759 206.727,111.721 206.78,111.666 L 207.762,110.611 C 207.332,110.058 206.794,109.64 206.147,109.359 C 205.5,109.078 204.734,108.937 203.85,108.937 C 203.039,108.937 202.312,109.075 201.67,109.351 C 201.028,109.627 200.483,110.008 200.036,110.494 C 199.589,110.98 199.246,111.557 199.007,112.224 C 198.767,112.891 198.648,113.615 198.648,114.396 C 198.648,115.193 198.785,115.924 199.058,116.591 C 199.332,117.258 199.714,117.833 200.205,118.317 C 200.696,118.8 201.283,119.177 201.967,119.445 C 202.651,119.714 203.405,119.848 204.231,119.848 C 204.631,119.848 205.009,119.813 205.363,119.742 C 205.717,119.671 206.048,119.573 206.356,119.448 C 206.663,119.324 206.947,119.175 207.205,119.001 C 207.464,118.827 207.694,118.635 207.894,118.425 L 207.059,117.304 C 207.005,117.235 206.942,117.173 206.868,117.117 C 206.795,117.061 206.693,117.033 206.561,117.033 C 206.473,117.033 206.39,117.052 206.312,117.091 C 206.233,117.13 206.15,117.178 206.062,117.234 C 205.975,117.29 205.878,117.351 205.773,117.417 C 205.668,117.483 205.543,117.544 205.399,117.601 C 205.255,117.657 205.087,117.704 204.894,117.744 C 204.701,117.782 204.475,117.802 204.216,117.802 C 203.767,117.802 203.356,117.723 202.985,117.564 C 202.614,117.405 202.295,117.178 202.029,116.882 C 201.763,116.587 201.555,116.229 201.406,115.809 C 201.257,115.389 201.183,114.917 201.183,114.395 C 201.183,113.847 201.257,113.361 201.406,112.936 C 201.555,112.511 201.758,112.154 202.014,111.863 C 202.271,111.572 202.57,111.351 202.912,111.2 C 203.254,111.048 203.62,110.973 204.011,110.973 C 204.236,110.973 204.441,110.984 204.626,111.006 C 204.812,111.028 204.984,111.065 205.143,111.119 C 205.302,111.173 205.453,111.242 205.597,111.328 C 205.741,111.413 205.887,111.52 206.033,111.647 C 206.092,111.696 206.155,111.736 206.224,111.768 C 206.292,111.799 206.363,111.815 206.436,111.815 Z" marker-start="none" marker-end="none"/>
     <path d="M 208.455,110.205 C 208.455,110.381 208.488,110.545 208.554,110.696 C 208.619,110.848 208.71,110.98 208.825,111.092 C 208.939,111.205 209.075,111.294 209.231,111.36 C 209.388,111.426 209.559,111.459 209.744,111.459 C 209.925,111.459 210.093,111.426 210.25,111.36 C 210.406,111.294 210.543,111.205 210.66,111.092 C 210.777,110.98 210.869,110.848 210.935,110.696 C 211.001,110.545 211.034,110.381 211.034,110.205 C 211.034,110.029 211.001,109.864 210.935,109.71 C 210.869,109.556 210.777,109.423 210.66,109.311 C 210.543,109.198 210.406,109.11 210.25,109.047 C 210.093,108.983 209.925,108.951 209.744,108.951 C 209.559,108.951 209.388,108.983 209.231,109.047 C 209.075,109.11 208.939,109.198 208.825,109.311 C 208.71,109.423 208.619,109.556 208.554,109.71 C 208.488,109.864 208.455,110.029 208.455,110.205 Z" marker-start="none" marker-end="none"/>
    </g>
   </g>
  </g>
 </g>
</svg>
