<?xml version="1.0" standalone="no"?>
<!DOCTYPE svg PUBLIC "-//W3C//DTD SVG 1.1//EN" "http://www.w3.org/Graphics/SVG/1.1/DTD/svg11.dtd">
<!--Generator: Xara Designer (www.xara.com), SVG filter version: 6.6.0.0-->
<svg fill="none" fill-rule="evenodd" stroke="black" stroke-width="0.501" stroke-linejoin="bevel" stroke-miterlimit="10" font-family="Times New Roman" font-size="16" style="font-variant-ligatures:none" xmlns:xlink="http://www.w3.org/1999/xlink" xmlns="http://www.w3.org/2000/svg" version="1.1" overflow="visible" width="215.435pt" height="215.436pt" viewBox="274.569 -297.638 215.435 215.436">
 <defs>
	</defs>
 <g id="Page background" transform="scale(1 -1)"/>
 <g id="Layer 1" transform="scale(1 -1)">
  <g id="Group">
   <g id="Group_1" stroke-linejoin="miter" stroke="none" stroke-width="0.802">
    <path d="M 274.569,282.425 L 274.569,97.415 C 274.569,89.018 281.384,82.202 289.781,82.202 L 474.792,82.202 C 483.189,82.202 490.004,89.018 490.004,97.415 L 490.004,282.425 C 490.004,290.822 483.189,297.638 474.792,297.638 L 289.781,297.638 C 281.384,297.638 274.569,290.822 274.569,282.425 Z" fill="#7f7f7f" marker-start="none" marker-end="none"/>
    <path d="M 275.278,281.816 L 275.278,98.024 C 275.278,89.682 282.048,82.911 290.39,82.911 L 474.183,82.911 C 482.525,82.911 489.295,89.682 489.295,98.024 L 489.295,281.816 C 489.295,290.158 482.525,296.929 474.183,296.929 L 290.39,296.929 C 282.048,296.929 275.278,290.158 275.278,281.816 Z" marker-start="none" marker-end="none"/>
    <path d="M 275.278,281.816 L 275.278,98.024 C 275.278,89.682 282.048,82.911 290.39,82.911 L 474.183,82.911 C 482.525,82.911 489.295,89.682 489.295,98.024 L 489.295,281.816 C 489.295,290.158 482.525,296.929 474.183,296.929 L 290.39,296.929 C 282.048,296.929 275.278,290.158 275.278,281.816 Z" fill="#ffffff" marker-start="none" marker-end="none"/>
   </g>
   <g id="Group_2" stroke-linejoin="miter">
    <path d="M 295.924,240.237 C 287.027,250.777 288.352,266.563 298.904,275.446 C 309.435,284.361 325.2,283.029 334.101,272.492 C 343.015,261.951 341.679,246.177 331.126,237.274 C 320.594,228.378 304.822,229.709 295.924,240.237 Z" stroke="none" fill="#000000" stroke-width="1.039" marker-start="none" marker-end="none"/>
    <path d="M 297.101,241.194 C 288.214,251.739 289.53,267.491 300.074,276.409 C 310.618,285.281 326.384,283.967 335.301,273.43 C 344.195,262.892 342.862,247.109 332.315,238.212 C 321.787,229.316 306.006,230.64 297.101,241.194 Z" stroke="#b2b2b2" stroke-width="5.658" marker-start="none" marker-end="none"/>
   </g>
   <g id="Group_3" stroke-linejoin="miter">
    <path d="M 428.054,240.683 C 419.157,251.223 420.482,267.009 431.034,275.892 C 441.565,284.807 457.33,283.475 466.231,272.938 C 475.145,262.397 473.809,246.623 463.256,237.72 C 452.724,228.824 436.952,230.155 428.054,240.683 Z" stroke="none" fill="#000000" stroke-width="1.039" marker-start="none" marker-end="none"/>
    <path d="M 429.231,241.64 C 420.344,252.185 421.66,267.937 432.204,276.855 C 442.748,285.727 458.514,284.413 467.431,273.876 C 476.325,263.338 474.992,247.555 464.445,238.658 C 453.917,229.762 438.136,231.086 429.231,241.64 Z" stroke="#b2b2b2" stroke-width="5.658" marker-start="none" marker-end="none"/>
   </g>
   <g id="Group_4" fill="#ff3718" stroke-linecap="round" stroke="none">
    <path d="M 388.952,297.587 L 397.486,297.587 L 397.486,248.424 L 388.951,248.424 L 388.952,297.587 Z" stroke-width="0.103" stroke-linejoin="miter" marker-start="none" marker-end="none"/>
    <path d="M 368.72,197.982 C 382.159,210.249 388.988,227.063 388.991,243.936 L 397.471,243.936 C 397.465,224.764 389.715,205.651 374.446,191.717 C 360.885,179.344 343.808,173.242 326.785,173.247 L 326.785,181.733 C 341.767,181.726 356.794,187.095 368.72,197.982 Z" stroke-width="0.541" stroke-linejoin="round" marker-start="none" marker-end="none"/>
    <path d="M 288.832,177.474 L 291.877,179.592 L 294.929,181.714 L 294.93,181.767 L 322.207,181.767 L 322.206,173.231 L 294.93,173.231 L 291.877,175.351 L 288.832,177.474 Z" stroke-width="0.103" stroke-linejoin="miter" marker-start="none" marker-end="none"/>
   </g>
   <g id="Group_5" fill="#ffcd36" stroke-linecap="round" stroke="none">
    <path d="M 288.828,189.024 L 291.875,191.144 L 294.93,193.265 L 294.93,189.024 L 294.926,184.783 L 291.874,186.905 L 288.828,189.024 Z M 294.93,193.288 L 322.207,193.289 L 322.207,184.754 L 294.93,184.754 L 294.93,193.288 Z" stroke-width="0.103" stroke-linejoin="miter" marker-start="none" marker-end="none"/>
    <path d="M 361.098,206.336 C 372.089,216.376 377.676,230.131 377.682,243.936 L 386.162,243.936 C 386.157,227.828 379.643,211.779 366.815,200.07 C 355.429,189.676 341.086,184.556 326.786,184.559 L 326.785,193.045 C 339.042,193.035 351.334,197.43 361.098,206.336 Z" stroke-width="0.453" stroke-linejoin="round" marker-start="none" marker-end="none"/>
    <path d="M 377.65,297.587 L 386.181,297.587 L 386.181,248.424 L 377.649,248.424 L 377.65,297.587 Z" stroke-width="0.103" stroke-linejoin="miter" marker-start="none" marker-end="none"/>
   </g>
   <g id="Group_6" fill="#e5e5e5" stroke-linecap="round" stroke="none">
    <path d="M 288.828,200.34 L 291.874,202.455 L 294.93,204.577 L 294.93,200.336 L 294.926,196.093 L 291.874,198.213 L 288.828,200.34 Z M 294.93,204.587 L 322.207,204.586 L 322.207,196.051 L 294.93,196.051 L 294.93,204.587 Z" stroke-width="0.103" stroke-linejoin="miter" marker-start="none" marker-end="none"/>
    <path d="M 366.352,297.587 L 374.882,297.587 L 374.882,248.425 L 366.351,248.424 L 366.352,297.587 Z" stroke-width="0.103" stroke-linejoin="miter" marker-start="none" marker-end="none"/>
    <path d="M 353.471,214.691 C 362.023,222.498 366.362,233.203 366.369,243.936 L 374.854,243.935 C 374.85,230.894 369.577,217.904 359.188,208.425 C 349.973,200.014 338.357,195.866 326.785,195.868 L 326.785,204.35 C 336.318,204.35 345.882,207.764 353.471,214.691 Z" stroke-width="0.368" stroke-linejoin="round" marker-start="none" marker-end="none"/>
   </g>
   <g id="Group_7" fill="#11a7e0" stroke-linecap="round" stroke="none">
    <path d="M 355.055,297.587 L 363.589,297.587 L 363.589,248.423 L 355.055,248.424 L 355.055,297.587 Z" stroke-width="0.103" stroke-linejoin="miter" marker-start="none" marker-end="none"/>
    <path d="M 345.85,223.046 C 351.957,228.624 355.057,236.262 355.06,243.935 L 363.547,243.936 C 363.537,233.966 359.505,224.027 351.567,216.784 C 344.517,210.345 335.641,207.174 326.785,207.178 L 326.785,215.666 C 333.592,215.659 340.424,218.101 345.85,223.046 Z" stroke-width="0.281" stroke-linejoin="round" marker-start="none" marker-end="none"/>
    <path d="M 288.832,211.393 L 291.876,213.525 L 294.929,215.666 L 294.929,215.666 L 322.206,215.666 L 322.207,207.127 L 294.93,207.127 L 294.93,207.127 L 291.875,209.257 L 288.832,211.393 Z" stroke-width="0.103" stroke-linejoin="miter" marker-start="none" marker-end="none"/>
   </g>
   <g id="Group_8" stroke-linejoin="miter">
    <path d="M 366.097,259.883 C 361.572,265.239 362.249,273.255 367.606,277.778 C 372.962,282.303 380.982,281.631 385.502,276.273 C 390.027,270.916 389.352,262.896 383.993,258.377 C 378.639,253.849 370.619,254.532 366.097,259.883 Z" stroke="none" fill="#ffffff" stroke-width="0.526" marker-start="none" marker-end="none"/>
    <path d="M 366.7,260.365 C 362.176,265.714 362.852,273.736 368.208,278.257 C 373.567,282.785 381.583,282.107 386.106,276.748 C 390.635,271.397 389.958,263.374 384.598,258.85 C 379.239,254.329 371.223,255.003 366.7,260.365 Z" fill="none" stroke="#539bc5" stroke-width="2.872" marker-start="none" marker-end="none"/>
   </g>
   <g id="Group_9" stroke-linejoin="miter">
    <path d="M 354.142,202.577 C 349.62,207.928 350.297,215.948 355.653,220.475 C 361.01,224.991 369.029,224.318 373.553,218.961 C 378.076,213.606 377.396,205.589 372.042,201.066 C 366.685,196.542 358.667,197.218 354.142,202.577 Z" stroke="none" fill="#ffffff" stroke-width="0.526" marker-start="none" marker-end="none"/>
    <path d="M 354.75,203.055 C 350.223,208.409 350.897,216.425 356.257,220.949 C 361.615,225.473 369.63,224.8 374.155,219.437 C 378.682,214.082 377.998,206.065 372.647,201.539 C 367.287,197.014 359.272,197.695 354.75,203.055 Z" fill="none" stroke="#539bc5" stroke-width="2.872" marker-start="none" marker-end="none"/>
   </g>
   <g id="Group_10" stroke-linejoin="miter">
    <path d="M 296.515,185.78 C 291.991,191.136 292.67,199.153 298.025,203.681 C 303.385,208.202 311.405,207.524 315.928,202.166 C 320.456,196.813 319.773,188.791 314.417,184.272 C 309.058,179.753 301.042,180.427 296.515,185.78 Z" stroke="none" fill="#ffffff" stroke-width="0.526" marker-start="none" marker-end="none"/>
    <path d="M 297.122,186.264 C 292.598,191.615 293.274,199.635 298.634,204.159 C 303.993,208.68 312.008,208.006 316.531,202.646 C 321.058,197.293 320.38,189.273 315.024,184.752 C 309.661,180.227 301.645,180.903 297.122,186.264 Z" fill="none" stroke="#539bc5" stroke-width="2.872" marker-start="none" marker-end="none"/>
   </g>
   <g id="Group_11" fill-rule="nonzero" stroke-linejoin="round" stroke-linecap="round" stroke="none" stroke-width="0.387" fill="#000000">
    <g id="Group_12">
     <path d="M 372.802,272.001 L 372.802,268.919 L 375.681,268.919 L 375.681,267.19 L 372.802,267.19 L 372.802,264.093 L 370.841,264.093 L 370.841,267.19 L 367.977,267.19 L 367.977,268.919 L 370.841,268.919 L 370.841,272.001 L 372.802,272.001 Z" marker-start="none" marker-end="none"/>
     <path d="M 381.254,274.288 C 381.814,274.288 382.312,274.209 382.748,274.05 C 383.184,273.892 383.552,273.677 383.853,273.406 C 384.154,273.136 384.382,272.822 384.538,272.466 C 384.693,272.11 384.771,271.734 384.771,271.338 C 384.771,270.979 384.735,270.663 384.662,270.39 C 384.59,270.117 384.482,269.88 384.339,269.68 C 384.197,269.479 384.02,269.309 383.81,269.168 C 383.6,269.028 383.36,268.911 383.09,268.817 C 384.346,268.383 384.974,267.531 384.974,266.263 C 384.974,265.662 384.865,265.139 384.647,264.694 C 384.429,264.249 384.137,263.879 383.771,263.584 C 383.406,263.289 382.981,263.067 382.499,262.92 C 382.016,262.772 381.513,262.699 380.989,262.699 C 380.45,262.699 379.97,262.757 379.549,262.874 C 379.129,262.99 378.756,263.172 378.429,263.418 C 378.102,263.665 377.815,263.98 377.569,264.364 C 377.322,264.747 377.108,265.204 376.927,265.733 L 378.001,266.17 C 378.094,266.212 378.186,266.24 378.277,266.256 C 378.368,266.271 378.457,266.279 378.546,266.279 C 378.712,266.279 378.861,266.247 378.993,266.182 C 379.125,266.117 379.225,266.022 379.293,265.898 C 379.526,265.467 379.774,265.154 380.036,264.959 C 380.298,264.764 380.605,264.667 380.958,264.667 C 381.228,264.667 381.463,264.712 381.662,264.803 C 381.862,264.894 382.028,265.011 382.16,265.154 C 382.293,265.297 382.393,265.459 382.46,265.641 C 382.527,265.822 382.561,266.007 382.561,266.194 C 382.561,266.438 382.544,266.657 382.511,266.852 C 382.477,267.047 382.382,267.214 382.227,267.354 C 382.071,267.495 381.836,267.602 381.522,267.677 C 381.208,267.753 380.771,267.79 380.211,267.791 L 380.211,269.455 C 380.683,269.455 381.064,269.491 381.355,269.564 C 381.645,269.637 381.87,269.737 382.028,269.864 C 382.186,269.991 382.291,270.145 382.343,270.327 C 382.395,270.508 382.421,270.708 382.421,270.926 C 382.421,271.373 382.313,271.716 382.098,271.958 C 381.883,272.199 381.555,272.32 381.114,272.32 C 380.932,272.32 380.766,272.294 380.616,272.242 C 380.465,272.19 380.33,272.12 380.211,272.032 C 380.092,271.944 379.989,271.84 379.904,271.721 C 379.818,271.601 379.749,271.471 379.697,271.331 C 379.614,271.098 379.509,270.929 379.382,270.825 C 379.255,270.721 379.083,270.669 378.865,270.669 C 378.813,270.669 378.757,270.672 378.697,270.677 C 378.638,270.682 378.577,270.69 378.514,270.7 L 377.238,270.926 C 377.321,271.492 377.481,271.985 377.717,272.405 C 377.953,272.825 378.246,273.175 378.596,273.456 C 378.946,273.736 379.347,273.944 379.798,274.082 C 380.25,274.219 380.735,274.288 381.254,274.288 Z" marker-start="none" marker-end="none"/>
    </g>
   </g>
   <g id="Group_13" fill-rule="nonzero" stroke-linejoin="round" stroke-linecap="round" stroke="none" stroke-width="0.387" fill="#000000">
    <g id="Group_14">
     <path d="M 368.654,211.249 C 368.654,210.258 368.548,209.399 368.335,208.673 C 368.122,207.946 367.828,207.344 367.452,206.867 C 367.076,206.39 366.629,206.034 366.113,205.801 C 365.597,205.567 365.038,205.451 364.436,205.451 C 363.834,205.451 363.278,205.567 362.767,205.801 C 362.256,206.034 361.814,206.39 361.44,206.867 C 361.066,207.344 360.775,207.946 360.564,208.673 C 360.354,209.399 360.249,210.258 360.249,211.249 C 360.249,212.24 360.354,213.099 360.564,213.826 C 360.775,214.552 361.066,215.154 361.44,215.631 C 361.814,216.109 362.256,216.463 362.767,216.694 C 363.278,216.925 363.834,217.04 364.436,217.04 C 365.038,217.04 365.597,216.925 366.113,216.694 C 366.629,216.463 367.076,216.109 367.452,215.631 C 367.828,215.154 368.122,214.552 368.335,213.826 C 368.548,213.099 368.654,212.24 368.654,211.249 Z M 366.164,211.249 C 366.164,212.033 366.114,212.675 366.016,213.176 C 365.917,213.677 365.786,214.07 365.623,214.355 C 365.459,214.64 365.274,214.836 365.066,214.943 C 364.859,215.049 364.649,215.102 364.436,215.102 C 364.223,215.102 364.015,215.049 363.81,214.943 C 363.605,214.836 363.423,214.64 363.265,214.355 C 363.107,214.07 362.98,213.677 362.884,213.176 C 362.788,212.675 362.74,212.033 362.74,211.249 C 362.74,210.461 362.788,209.817 362.884,209.319 C 362.98,208.821 363.107,208.428 363.265,208.14 C 363.423,207.852 363.605,207.654 363.81,207.548 C 364.015,207.442 364.223,207.389 364.436,207.389 C 364.649,207.389 364.859,207.442 365.066,207.548 C 365.274,207.654 365.459,207.852 365.623,208.14 C 365.786,208.428 365.917,208.821 366.016,209.319 C 366.114,209.817 366.164,210.461 366.164,211.249 Z" marker-start="none" marker-end="none"/>
    </g>
   </g>
   <g id="Group_15" fill-rule="nonzero" stroke-linejoin="round" stroke-linecap="round" stroke="none" stroke-width="0.387" fill="#000000">
    <g id="Group_16">
     <path d="M 303.255,197.957 L 303.255,194.875 L 306.134,194.875 L 306.134,193.146 L 303.255,193.146 L 303.255,190.049 L 301.294,190.049 L 301.294,193.146 L 298.43,193.146 L 298.43,194.875 L 301.294,194.875 L 301.294,197.957 L 303.255,197.957 Z" marker-start="none" marker-end="none"/>
     <path d="M 311.489,200.244 C 312.049,200.244 312.554,200.162 313.002,199.999 C 313.451,199.836 313.834,199.609 314.15,199.318 C 314.467,199.028 314.709,198.681 314.878,198.279 C 315.047,197.877 315.131,197.435 315.131,196.952 C 315.131,196.537 315.073,196.153 314.956,195.8 C 314.839,195.447 314.68,195.111 314.477,194.792 C 314.275,194.473 314.04,194.165 313.773,193.866 C 313.506,193.568 313.222,193.266 312.921,192.96 L 310.703,190.687 C 310.988,190.771 311.27,190.837 311.547,190.887 C 311.825,190.937 312.085,190.961 312.329,190.961 L 314.446,190.961 C 314.705,190.961 314.91,190.89 315.061,190.747 C 315.211,190.604 315.287,190.416 315.287,190.182 L 315.287,188.78 L 307.318,188.78 L 307.318,189.558 C 307.318,189.709 307.349,189.87 307.411,190.041 C 307.473,190.212 307.582,190.368 307.738,190.508 L 311.006,193.8 C 311.287,194.081 311.53,194.348 311.738,194.602 C 311.945,194.856 312.117,195.107 312.252,195.353 C 312.386,195.6 312.488,195.846 312.555,196.093 C 312.622,196.339 312.656,196.6 312.656,196.875 C 312.656,197.326 312.549,197.673 312.333,197.914 C 312.118,198.155 311.79,198.276 311.349,198.276 C 311.167,198.276 311.001,198.25 310.851,198.198 C 310.7,198.146 310.565,198.076 310.446,197.988 C 310.327,197.9 310.224,197.796 310.139,197.677 C 310.053,197.557 309.984,197.428 309.932,197.288 C 309.849,197.054 309.744,196.886 309.617,196.782 C 309.49,196.678 309.318,196.626 309.1,196.626 C 309.048,196.626 308.992,196.629 308.932,196.634 C 308.873,196.639 308.812,196.647 308.75,196.657 L 307.473,196.879 C 307.556,197.445 307.716,197.939 307.952,198.359 C 308.188,198.78 308.481,199.13 308.831,199.411 C 309.181,199.691 309.582,199.9 310.034,200.038 C 310.485,200.175 310.97,200.244 311.489,200.244 Z" marker-start="none" marker-end="none"/>
    </g>
   </g>
   <g id="Group_17" stroke="#f0942b" stroke-linejoin="miter" stroke-linecap="round">
    <path d="M 290.118,150.565 L 290.118,116.673 L 393.706,116.673 L 393.706,150.565 L 290.118,150.565 Z" fill="#f0942b" stroke-width="1.738" marker-start="none" marker-end="none"/>
    <path d="M 290.118,151.908 L 290.118,142.098 C 290.118,139.527 292.202,137.45 294.764,137.45 L 389.056,137.45 C 391.618,137.45 393.706,139.527 393.706,142.098 L 393.706,151.908 C 393.706,154.484 391.618,156.562 389.056,156.562 L 294.764,156.562 C 292.202,156.562 290.118,154.484 290.118,151.908 Z" fill="#f0942b" stroke-width="1.738" marker-start="none" marker-end="none"/>
    <path d="M 290.815,123.015 L 290.815,105.37 C 290.815,100.757 294.559,97.011 299.177,97.011 L 466.223,97.011 C 470.836,97.011 474.584,100.757 474.584,105.37 L 474.584,123.015 C 474.584,127.633 470.836,131.381 466.223,131.381 L 299.177,131.381 C 294.559,131.381 290.815,127.633 290.815,123.015 Z" fill="#ffffff" stroke-width="3.13" marker-start="none" marker-end="none"/>
   </g>
   <g id="Group_18" stroke-linejoin="miter">
    <path d="M 444.26,175.914 C 438.36,182.892 439.239,193.352 446.234,199.261 C 453.216,205.153 463.669,204.274 469.573,197.287 C 475.482,190.295 474.596,179.841 467.599,173.936 C 460.617,168.041 450.16,168.92 444.26,175.914 Z" stroke="none" fill="#000000" stroke-width="0.686" marker-start="none" marker-end="none"/>
    <path d="M 445.038,176.523 C 439.147,183.521 440.019,193.98 447.012,199.873 C 454.001,205.782 464.453,204.899 470.369,197.906 C 476.266,190.924 475.381,180.472 468.387,174.567 C 461.408,168.661 450.944,169.54 445.038,176.523 Z" stroke="#b2b2b2" stroke-width="3.752" marker-start="none" marker-end="none"/>
   </g>
   <g id="Group_19" stroke-linejoin="miter">
    <path d="M 403.575,175.901 C 397.675,182.89 398.554,193.358 405.551,199.249 C 412.534,205.16 422.988,204.277 428.89,197.289 C 434.801,190.3 433.915,179.84 426.917,173.936 C 419.934,168.037 409.475,168.92 403.575,175.901 Z" stroke="none" fill="#ffffff" stroke-width="0.689" marker-start="none" marker-end="none"/>
    <path d="M 404.355,176.536 C 398.462,183.528 399.335,193.974 406.327,199.887 C 413.318,205.771 423.773,204.899 429.686,197.911 C 435.584,190.924 434.7,180.458 427.706,174.558 C 420.725,168.659 410.26,169.537 404.355,176.536 Z" stroke="#539bc5" stroke-width="3.752" marker-start="none" marker-end="none"/>
   </g>
   <g id="Group_20" stroke-linejoin="miter">
    <path d="M 428.054,240.682 C 419.157,251.222 420.482,267.008 431.034,275.892 C 441.565,284.806 457.33,283.474 466.231,272.936 C 475.145,262.396 473.809,246.622 463.255,237.719 C 452.724,228.823 436.952,230.154 428.054,240.682 Z" stroke="none" fill="#ffffff" stroke-width="1.039" marker-start="none" marker-end="none"/>
    <path d="M 429.231,241.639 C 420.344,252.184 421.66,267.937 432.204,276.854 C 442.747,285.727 458.514,284.412 467.431,273.874 C 476.325,263.337 474.992,247.554 464.445,238.657 C 453.917,229.761 438.136,231.085 429.231,241.639 Z" stroke="#539bc5" stroke-width="5.658" marker-start="none" marker-end="none"/>
   </g>
   <g id="Group_21" fill-rule="nonzero" stroke-linejoin="round" stroke-linecap="round" stroke="none" stroke-width="0.485" fill="#b2b2b2">
    <g id="Group_22">
     <path d="M 453.472,182.303 L 456.201,182.303 L 456.201,189.466 C 456.201,189.817 456.21,190.184 456.23,190.568 L 454.622,189.232 C 454.518,189.148 454.414,189.088 454.31,189.052 C 454.206,189.016 454.105,188.998 454.008,188.998 C 453.839,188.998 453.688,189.036 453.555,189.111 C 453.421,189.185 453.322,189.265 453.257,189.349 L 452.302,190.616 L 456.727,194.33 L 459.222,194.33 L 459.222,182.303 L 461.561,182.303 L 461.561,180.119 L 453.472,180.119 L 453.472,182.303 Z" marker-start="none" marker-end="none"/>
    </g>
   </g>
   <g id="Group_23" fill-rule="nonzero" stroke-linejoin="round" stroke-linecap="round" stroke="none" stroke-width="0.485" fill="#000000">
    <g id="Group_24">
     <path d="M 420.987,193.071 C 420.987,192.863 420.954,192.675 420.889,192.506 C 420.825,192.337 420.722,192.189 420.582,192.063 C 420.443,191.936 420.259,191.838 420.032,191.77 C 419.804,191.702 419.532,191.668 419.213,191.668 L 415.822,191.668 L 415.422,189.318 C 415.689,189.364 415.945,189.398 416.192,189.421 C 416.439,189.444 416.679,189.455 416.913,189.455 C 417.66,189.455 418.32,189.341 418.892,189.114 C 419.463,188.887 419.944,188.576 420.334,188.183 C 420.724,187.79 421.018,187.329 421.216,186.799 C 421.414,186.27 421.513,185.703 421.513,185.098 C 421.513,184.338 421.378,183.644 421.109,183.017 C 420.839,182.39 420.464,181.85 419.983,181.395 C 419.502,180.94 418.929,180.588 418.263,180.337 C 417.597,180.087 416.868,179.962 416.075,179.962 C 415.614,179.962 415.174,180.01 414.755,180.106 C 414.336,180.202 413.943,180.331 413.576,180.494 C 413.208,180.657 412.869,180.846 412.557,181.061 C 412.245,181.275 411.963,181.503 411.709,181.746 L 412.645,183.015 C 412.742,183.147 412.856,183.248 412.986,183.317 C 413.116,183.387 413.256,183.421 413.405,183.421 C 413.6,183.421 413.783,183.368 413.956,183.261 C 414.128,183.153 414.316,183.036 414.521,182.91 C 414.725,182.783 414.964,182.668 415.237,182.564 C 415.51,182.46 415.848,182.408 416.251,182.408 C 416.653,182.408 416.998,182.474 417.284,182.608 C 417.57,182.741 417.802,182.923 417.98,183.153 C 418.159,183.384 418.289,183.654 418.37,183.962 C 418.451,184.271 418.492,184.601 418.492,184.952 C 418.492,185.64 418.297,186.165 417.907,186.526 C 417.518,186.886 416.965,187.066 416.251,187.066 C 415.614,187.066 414.99,186.929 414.38,186.655 L 412.508,187.213 L 413.717,194.318 L 420.987,194.318 L 420.987,193.071 Z" marker-start="none" marker-end="none"/>
    </g>
   </g>
   <g id="Group_25" fill-rule="nonzero" stroke-linejoin="round" stroke-linecap="round" stroke="none" stroke-width="0.319" fill="#ffffff">
    <g id="Group_26">
     <path d="M 312.296,142.151 L 312.296,138.705 L 310.135,138.705 L 310.135,148.019 L 313.165,148.019 C 313.838,148.019 314.413,147.95 314.888,147.811 C 315.363,147.672 315.751,147.479 316.051,147.232 C 316.352,146.984 316.57,146.692 316.706,146.355 C 316.843,146.018 316.911,145.651 316.911,145.254 C 316.911,144.951 316.871,144.665 316.79,144.396 C 316.709,144.128 316.588,143.879 316.428,143.651 C 316.269,143.422 316.073,143.219 315.84,143.039 C 315.608,142.86 315.341,142.713 315.038,142.598 C 315.183,142.526 315.318,142.436 315.444,142.33 C 315.57,142.223 315.679,142.094 315.773,141.94 L 317.755,138.705 L 315.799,138.705 C 315.437,138.705 315.177,138.841 315.019,139.114 L 313.472,141.818 C 313.404,141.938 313.324,142.023 313.232,142.074 C 313.141,142.125 313.012,142.151 312.845,142.151 L 312.296,142.151 Z M 312.296,143.64 L 313.165,143.64 C 313.459,143.64 313.71,143.677 313.916,143.752 C 314.123,143.826 314.292,143.93 314.424,144.062 C 314.556,144.194 314.652,144.348 314.712,144.525 C 314.772,144.702 314.802,144.893 314.802,145.098 C 314.802,145.507 314.668,145.827 314.402,146.057 C 314.136,146.287 313.723,146.402 313.165,146.402 L 312.296,146.402 L 312.296,143.64 Z" marker-start="none" marker-end="none"/>
     <path d="M 324.634,148.022 L 324.634,146.358 L 320.812,146.358 L 320.812,144.183 L 323.739,144.183 L 323.739,142.585 L 320.812,142.585 L 320.812,140.369 L 324.634,140.369 L 324.634,138.705 L 318.638,138.705 L 318.638,148.022 L 324.634,148.022 Z" marker-start="none" marker-end="none"/>
     <path d="M 331.052,146.127 C 330.988,146.024 330.921,145.948 330.85,145.897 C 330.78,145.845 330.689,145.82 330.579,145.82 C 330.481,145.82 330.375,145.851 330.262,145.913 C 330.149,145.974 330.021,146.044 329.879,146.12 C 329.736,146.197 329.573,146.266 329.39,146.328 C 329.206,146.39 328.998,146.421 328.763,146.421 C 328.358,146.421 328.057,146.335 327.859,146.162 C 327.661,145.989 327.561,145.756 327.561,145.462 C 327.561,145.274 327.621,145.119 327.74,144.995 C 327.86,144.872 328.016,144.765 328.21,144.675 C 328.404,144.586 328.626,144.504 328.875,144.429 C 329.124,144.355 329.379,144.272 329.639,144.18 C 329.899,144.088 330.154,143.981 330.403,143.857 C 330.652,143.734 330.874,143.576 331.068,143.384 C 331.262,143.192 331.418,142.959 331.538,142.684 C 331.657,142.409 331.717,142.078 331.717,141.69 C 331.717,141.259 331.642,140.857 331.493,140.482 C 331.344,140.107 331.127,139.779 330.844,139.5 C 330.561,139.221 330.211,139.002 329.796,138.842 C 329.38,138.682 328.908,138.602 328.38,138.602 C 328.09,138.602 327.795,138.632 327.494,138.692 C 327.194,138.751 326.903,138.835 326.622,138.944 C 326.341,139.053 326.076,139.182 325.829,139.331 C 325.582,139.48 325.367,139.646 325.183,139.83 L 325.823,140.84 C 325.87,140.917 325.936,140.978 326.021,141.025 C 326.106,141.072 326.198,141.096 326.296,141.096 C 326.424,141.096 326.553,141.055 326.683,140.974 C 326.812,140.893 326.96,140.804 327.124,140.706 C 327.288,140.608 327.476,140.518 327.689,140.437 C 327.902,140.356 328.154,140.316 328.444,140.316 C 328.836,140.316 329.14,140.402 329.358,140.574 C 329.575,140.747 329.684,141.021 329.684,141.396 C 329.684,141.614 329.624,141.79 329.505,141.927 C 329.385,142.063 329.229,142.176 329.035,142.266 C 328.841,142.355 328.62,142.434 328.373,142.502 C 328.126,142.57 327.873,142.646 327.613,142.729 C 327.353,142.812 327.099,142.914 326.852,143.036 C 326.605,143.157 326.384,143.317 326.19,143.515 C 325.996,143.714 325.84,143.961 325.72,144.257 C 325.601,144.553 325.541,144.919 325.541,145.354 C 325.541,145.703 325.612,146.044 325.752,146.377 C 325.893,146.709 326.1,147.005 326.372,147.265 C 326.645,147.525 326.98,147.733 327.376,147.889 C 327.772,148.044 328.226,148.122 328.738,148.122 C 329.023,148.122 329.301,148.1 329.572,148.055 C 329.842,148.01 330.099,147.944 330.342,147.856 C 330.585,147.769 330.812,147.665 331.023,147.543 C 331.234,147.422 331.422,147.284 331.589,147.131 L 331.052,146.127 Z" marker-start="none" marker-end="none"/>
     <path d="M 341.982,143.365 C 341.982,142.692 341.866,142.065 341.634,141.486 C 341.402,140.906 341.075,140.402 340.653,139.973 C 340.231,139.545 339.723,139.209 339.128,138.966 C 338.534,138.723 337.874,138.602 337.15,138.602 C 336.425,138.602 335.765,138.723 335.168,138.966 C 334.571,139.209 334.061,139.545 333.637,139.973 C 333.213,140.402 332.885,140.906 332.653,141.486 C 332.42,142.065 332.304,142.692 332.304,143.365 C 332.304,144.039 332.42,144.665 332.653,145.245 C 332.885,145.825 333.213,146.327 333.637,146.754 C 334.061,147.18 334.571,147.515 335.168,147.758 C 335.765,148 336.425,148.122 337.15,148.122 C 337.874,148.122 338.534,147.999 339.128,147.754 C 339.723,147.509 340.231,147.174 340.653,146.747 C 341.075,146.321 341.402,145.818 341.634,145.238 C 341.866,144.659 341.982,144.034 341.982,143.365 Z M 339.771,143.365 C 339.771,143.825 339.711,144.239 339.592,144.608 C 339.472,144.976 339.301,145.289 339.077,145.544 C 338.853,145.8 338.579,145.996 338.256,146.132 C 337.932,146.268 337.563,146.336 337.15,146.337 C 336.732,146.336 336.36,146.268 336.034,146.132 C 335.708,145.996 335.433,145.8 335.21,145.544 C 334.986,145.289 334.814,144.976 334.695,144.608 C 334.576,144.239 334.516,143.825 334.516,143.365 C 334.516,142.901 334.576,142.484 334.695,142.116 C 334.814,141.747 334.986,141.435 335.21,141.18 C 335.433,140.924 335.708,140.729 336.034,140.595 C 336.36,140.461 336.732,140.394 337.15,140.394 C 337.563,140.394 337.932,140.461 338.256,140.595 C 338.579,140.729 338.853,140.924 339.077,141.18 C 339.301,141.435 339.472,141.747 339.592,142.116 C 339.711,142.484 339.771,142.901 339.771,143.365 Z" marker-start="none" marker-end="none"/>
     <path d="M 346.89,140.412 C 347.18,140.412 347.439,140.46 347.667,140.556 C 347.895,140.652 348.087,140.789 348.245,140.969 C 348.403,141.148 348.523,141.366 348.606,141.624 C 348.689,141.882 348.731,142.175 348.731,142.503 L 348.731,148.02 L 350.892,148.02 L 350.892,142.502 C 350.892,141.931 350.799,141.407 350.613,140.929 C 350.428,140.452 350.163,140.041 349.818,139.695 C 349.472,139.35 349.053,139.082 348.558,138.89 C 348.064,138.698 347.508,138.602 346.89,138.602 C 346.268,138.602 345.709,138.698 345.215,138.89 C 344.721,139.082 344.301,139.35 343.956,139.695 C 343.611,140.041 343.346,140.452 343.163,140.929 C 342.98,141.407 342.888,141.931 342.888,142.502 L 342.888,148.02 L 345.049,148.02 L 345.049,142.509 C 345.049,142.181 345.09,141.888 345.174,141.63 C 345.257,141.372 345.377,141.153 345.535,140.972 C 345.692,140.791 345.885,140.652 346.113,140.556 C 346.341,140.46 346.6,140.412 346.89,140.412 Z" marker-start="none" marker-end="none"/>
     <path d="M 354.46,142.151 L 354.46,138.705 L 352.299,138.705 L 352.299,148.019 L 355.329,148.019 C 356.002,148.019 356.577,147.95 357.052,147.811 C 357.527,147.672 357.915,147.479 358.215,147.232 C 358.516,146.984 358.734,146.692 358.87,146.355 C 359.007,146.018 359.075,145.651 359.075,145.254 C 359.075,144.951 359.035,144.665 358.954,144.396 C 358.873,144.128 358.752,143.879 358.592,143.651 C 358.433,143.422 358.237,143.219 358.004,143.039 C 357.772,142.86 357.505,142.713 357.202,142.598 C 357.347,142.526 357.482,142.436 357.608,142.33 C 357.734,142.223 357.843,142.094 357.937,141.94 L 359.919,138.705 L 357.963,138.705 C 357.601,138.705 357.341,138.841 357.183,139.114 L 355.636,141.818 C 355.568,141.938 355.488,142.023 355.396,142.074 C 355.305,142.125 355.176,142.151 355.009,142.151 L 354.46,142.151 Z M 354.46,143.64 L 355.329,143.64 C 355.623,143.64 355.874,143.677 356.08,143.752 C 356.287,143.826 356.456,143.93 356.588,144.062 C 356.72,144.194 356.816,144.348 356.876,144.525 C 356.936,144.702 356.966,144.893 356.966,145.098 C 356.966,145.507 356.832,145.827 356.566,146.057 C 356.3,146.287 355.887,146.402 355.329,146.402 L 354.46,146.402 L 354.46,143.64 Z" marker-start="none" marker-end="none"/>
     <path d="M 366.741,141.113 C 366.792,141.113 366.844,141.104 366.895,141.084 C 366.946,141.064 366.995,141.031 367.042,140.983 L 367.898,140.062 C 367.523,139.58 367.053,139.216 366.489,138.97 C 365.924,138.725 365.256,138.602 364.485,138.602 C 363.777,138.602 363.143,138.722 362.583,138.963 C 362.023,139.204 361.547,139.537 361.157,139.961 C 360.768,140.385 360.468,140.888 360.259,141.47 C 360.051,142.051 359.946,142.683 359.946,143.365 C 359.946,144.06 360.065,144.698 360.304,145.28 C 360.543,145.862 360.876,146.364 361.305,146.786 C 361.733,147.208 362.245,147.536 362.842,147.77 C 363.439,148.005 364.097,148.122 364.817,148.122 C 365.167,148.122 365.496,148.091 365.805,148.029 C 366.114,147.967 366.402,147.882 366.671,147.773 C 366.939,147.664 367.187,147.534 367.412,147.382 C 367.638,147.231 367.839,147.063 368.013,146.88 L 367.285,145.902 C 367.238,145.842 367.182,145.788 367.118,145.739 C 367.054,145.69 366.965,145.665 366.85,145.665 C 366.773,145.665 366.701,145.682 366.633,145.716 C 366.564,145.75 366.492,145.792 366.415,145.841 C 366.339,145.89 366.254,145.943 366.163,146.001 C 366.071,146.058 365.962,146.112 365.837,146.161 C 365.711,146.21 365.564,146.251 365.396,146.285 C 365.227,146.319 365.03,146.336 364.804,146.337 C 364.412,146.336 364.054,146.267 363.73,146.129 C 363.407,145.99 363.128,145.792 362.896,145.534 C 362.664,145.276 362.483,144.964 362.353,144.598 C 362.223,144.231 362.158,143.82 362.158,143.364 C 362.158,142.886 362.223,142.462 362.353,142.091 C 362.483,141.721 362.66,141.408 362.883,141.155 C 363.107,140.901 363.368,140.708 363.667,140.576 C 363.965,140.444 364.284,140.378 364.625,140.378 C 364.821,140.378 365,140.388 365.162,140.407 C 365.324,140.426 365.474,140.459 365.613,140.506 C 365.751,140.553 365.884,140.613 366.009,140.688 C 366.135,140.763 366.262,140.855 366.39,140.966 C 366.441,141.009 366.496,141.044 366.556,141.072 C 366.616,141.099 366.677,141.113 366.741,141.113 Z" marker-start="none" marker-end="none"/>
     <path d="M 374.882,148.022 L 374.882,146.358 L 371.06,146.358 L 371.06,144.183 L 373.987,144.183 L 373.987,142.585 L 371.06,142.585 L 371.06,140.369 L 374.882,140.369 L 374.882,138.705 L 368.886,138.705 L 368.886,148.022 L 374.882,148.022 Z" marker-start="none" marker-end="none"/>
    </g>
   </g>
   <g id="Group_27" fill-rule="nonzero" stroke-linejoin="round" stroke-linecap="round" stroke="none" stroke-width="0.365" fill="#000000">
    <g id="Group_28">
     <path d="M 328.814,113.005 L 328.814,109.055 L 326.337,109.055 L 326.337,119.73 L 329.81,119.73 C 330.582,119.73 331.24,119.651 331.785,119.492 C 332.329,119.333 332.774,119.112 333.118,118.828 C 333.463,118.544 333.713,118.209 333.869,117.823 C 334.025,117.437 334.104,117.016 334.104,116.561 C 334.104,116.214 334.057,115.886 333.964,115.578 C 333.872,115.27 333.734,114.985 333.55,114.723 C 333.367,114.462 333.143,114.228 332.876,114.023 C 332.61,113.818 332.304,113.649 331.957,113.517 C 332.123,113.434 332.278,113.331 332.422,113.209 C 332.566,113.088 332.692,112.939 332.799,112.763 L 335.071,109.055 L 332.829,109.055 C 332.414,109.055 332.116,109.211 331.935,109.524 L 330.162,112.624 C 330.084,112.76 329.992,112.858 329.887,112.917 C 329.782,112.975 329.634,113.005 329.444,113.005 L 328.814,113.005 Z M 328.814,114.711 L 329.81,114.711 C 330.147,114.711 330.434,114.754 330.671,114.839 C 330.908,114.925 331.102,115.043 331.253,115.195 C 331.405,115.346 331.515,115.523 331.583,115.726 C 331.652,115.929 331.686,116.148 331.686,116.382 C 331.686,116.851 331.533,117.218 331.228,117.481 C 330.923,117.745 330.45,117.877 329.81,117.877 L 328.814,117.877 L 328.814,114.711 Z" marker-start="none" marker-end="none"/>
     <path d="M 342.956,119.734 L 342.956,117.827 L 338.574,117.827 L 338.574,115.334 L 341.93,115.334 L 341.93,113.502 L 338.574,113.502 L 338.574,110.962 L 342.956,110.962 L 342.956,109.055 L 336.083,109.055 L 336.083,119.734 L 342.956,119.734 Z" marker-start="none" marker-end="none"/>
     <path d="M 351.535,111.815 C 351.594,111.815 351.652,111.804 351.711,111.782 C 351.77,111.759 351.826,111.721 351.879,111.666 L 352.861,110.611 C 352.431,110.058 351.893,109.64 351.246,109.359 C 350.599,109.078 349.833,108.937 348.949,108.937 C 348.138,108.937 347.411,109.075 346.769,109.351 C 346.127,109.627 345.582,110.008 345.135,110.494 C 344.688,110.98 344.345,111.557 344.106,112.224 C 343.866,112.891 343.747,113.615 343.747,114.396 C 343.747,115.193 343.884,115.924 344.157,116.591 C 344.431,117.258 344.813,117.833 345.304,118.317 C 345.795,118.8 346.382,119.177 347.066,119.445 C 347.75,119.714 348.504,119.848 349.33,119.848 C 349.73,119.848 350.108,119.813 350.462,119.742 C 350.816,119.671 351.147,119.573 351.455,119.448 C 351.762,119.324 352.046,119.175 352.304,119.001 C 352.563,118.827 352.793,118.635 352.993,118.425 L 352.158,117.304 C 352.104,117.235 352.041,117.173 351.967,117.117 C 351.894,117.061 351.792,117.033 351.66,117.033 C 351.572,117.033 351.489,117.052 351.411,117.091 C 351.332,117.13 351.249,117.178 351.161,117.234 C 351.074,117.29 350.977,117.351 350.872,117.417 C 350.767,117.483 350.642,117.544 350.498,117.601 C 350.354,117.657 350.186,117.704 349.993,117.744 C 349.8,117.782 349.574,117.802 349.315,117.802 C 348.866,117.802 348.455,117.723 348.084,117.564 C 347.713,117.405 347.394,117.178 347.128,116.882 C 346.862,116.587 346.654,116.229 346.505,115.809 C 346.356,115.389 346.282,114.917 346.282,114.395 C 346.282,113.847 346.356,113.361 346.505,112.936 C 346.654,112.511 346.857,112.154 347.113,111.863 C 347.37,111.572 347.669,111.351 348.011,111.2 C 348.353,111.048 348.719,110.973 349.11,110.973 C 349.335,110.973 349.54,110.984 349.725,111.006 C 349.911,111.028 350.083,111.065 350.242,111.119 C 350.401,111.173 350.552,111.242 350.696,111.328 C 350.84,111.413 350.986,111.52 351.132,111.647 C 351.191,111.696 351.254,111.736 351.323,111.768 C 351.391,111.799 351.462,111.815 351.535,111.815 Z" marker-start="none" marker-end="none"/>
     <path d="M 359.312,113.051 L 359.312,109.055 L 356.836,109.055 L 356.836,113.051 L 352.967,119.732 L 355.151,119.732 C 355.366,119.732 355.537,119.681 355.664,119.579 C 355.791,119.477 355.893,119.347 355.971,119.188 L 357.481,116.024 C 357.603,115.771 357.715,115.537 357.818,115.323 C 357.92,115.109 358.011,114.898 358.089,114.689 C 358.162,114.903 358.25,115.116 358.353,115.33 C 358.455,115.544 358.565,115.776 358.682,116.024 L 360.177,119.188 C 360.206,119.252 360.247,119.317 360.298,119.381 C 360.349,119.446 360.408,119.505 360.474,119.557 C 360.54,119.609 360.615,119.651 360.701,119.684 C 360.786,119.716 360.88,119.732 360.983,119.732 L 363.181,119.732 L 359.312,113.051 Z" marker-start="none" marker-end="none"/>
     <path d="M 370.505,111.815 C 370.564,111.815 370.622,111.804 370.681,111.782 C 370.74,111.759 370.796,111.721 370.849,111.666 L 371.831,110.611 C 371.401,110.058 370.863,109.64 370.216,109.359 C 369.569,109.078 368.803,108.937 367.919,108.937 C 367.108,108.937 366.381,109.075 365.739,109.351 C 365.097,109.627 364.552,110.008 364.105,110.494 C 363.658,110.98 363.315,111.557 363.076,112.224 C 362.836,112.891 362.717,113.615 362.717,114.396 C 362.717,115.193 362.854,115.924 363.127,116.591 C 363.401,117.258 363.783,117.833 364.274,118.317 C 364.765,118.8 365.352,119.177 366.036,119.445 C 366.72,119.714 367.474,119.848 368.3,119.848 C 368.7,119.848 369.078,119.813 369.432,119.742 C 369.786,119.671 370.117,119.573 370.425,119.448 C 370.732,119.324 371.016,119.175 371.274,119.001 C 371.533,118.827 371.763,118.635 371.963,118.425 L 371.128,117.304 C 371.074,117.235 371.011,117.173 370.937,117.117 C 370.864,117.061 370.762,117.033 370.63,117.033 C 370.542,117.033 370.459,117.052 370.381,117.091 C 370.302,117.13 370.219,117.178 370.131,117.234 C 370.044,117.29 369.947,117.351 369.842,117.417 C 369.737,117.483 369.612,117.544 369.468,117.601 C 369.324,117.657 369.156,117.704 368.963,117.744 C 368.77,117.782 368.544,117.802 368.285,117.802 C 367.836,117.802 367.425,117.723 367.054,117.564 C 366.683,117.405 366.364,117.178 366.098,116.882 C 365.832,116.587 365.624,116.229 365.475,115.809 C 365.326,115.389 365.252,114.917 365.252,114.395 C 365.252,113.847 365.326,113.361 365.475,112.936 C 365.624,112.511 365.827,112.154 366.083,111.863 C 366.34,111.572 366.639,111.351 366.981,111.2 C 367.323,111.048 367.689,110.973 368.08,110.973 C 368.305,110.973 368.51,110.984 368.695,111.006 C 368.881,111.028 369.053,111.065 369.212,111.119 C 369.371,111.173 369.522,111.242 369.666,111.328 C 369.81,111.413 369.956,111.52 370.102,111.647 C 370.161,111.696 370.224,111.736 370.293,111.768 C 370.361,111.799 370.432,111.815 370.505,111.815 Z" marker-start="none" marker-end="none"/>
     <path d="M 375.44,111.033 L 379.396,111.033 L 379.396,109.055 L 372.963,109.055 L 372.963,119.732 L 375.44,119.732 L 375.44,111.033 Z" marker-start="none" marker-end="none"/>
     <path d="M 383.28,109.055 L 380.789,109.055 L 380.789,119.734 L 383.28,119.734 L 383.28,109.055 Z" marker-start="none" marker-end="none"/>
     <path d="M 386.56,119.734 C 386.668,119.734 386.758,119.729 386.831,119.719 C 386.905,119.71 386.971,119.691 387.029,119.664 C 387.088,119.637 387.144,119.599 387.198,119.551 C 387.252,119.502 387.313,119.436 387.381,119.353 L 392.451,112.942 C 392.432,113.147 392.417,113.346 392.407,113.539 C 392.397,113.732 392.392,113.914 392.392,114.085 L 392.392,119.734 L 394.576,119.734 L 394.576,109.055 L 393.286,109.055 C 393.096,109.055 392.935,109.084 392.803,109.143 C 392.671,109.202 392.544,109.309 392.422,109.465 L 387.388,115.825 C 387.403,115.639 387.415,115.457 387.425,115.279 C 387.435,115.101 387.44,114.934 387.44,114.777 L 387.44,109.055 L 385.256,109.055 L 385.256,119.734 L 386.56,119.734 Z" marker-start="none" marker-end="none"/>
     <path d="M 401.358,110.844 C 401.7,110.844 402.003,110.872 402.267,110.93 C 402.531,110.988 402.78,111.065 403.014,111.161 L 403.014,112.783 L 401.959,112.783 C 401.803,112.783 401.681,112.824 401.593,112.907 C 401.505,112.99 401.461,113.096 401.461,113.223 L 401.461,114.586 L 405.256,114.586 L 405.256,110.08 C 404.983,109.88 404.698,109.708 404.403,109.563 C 404.107,109.419 403.792,109.301 403.458,109.208 C 403.123,109.115 402.766,109.047 402.388,109.003 C 402.009,108.959 401.603,108.937 401.168,108.937 C 400.386,108.937 399.663,109.075 398.999,109.351 C 398.335,109.627 397.76,110.008 397.274,110.494 C 396.788,110.98 396.407,111.557 396.131,112.224 C 395.855,112.891 395.717,113.615 395.717,114.396 C 395.717,115.193 395.849,115.924 396.112,116.591 C 396.376,117.258 396.754,117.833 397.244,118.317 C 397.735,118.8 398.329,119.177 399.025,119.445 C 399.721,119.714 400.499,119.848 401.358,119.848 C 401.803,119.848 402.221,119.812 402.611,119.738 C 403.002,119.665 403.362,119.565 403.692,119.437 C 404.022,119.31 404.323,119.159 404.597,118.983 C 404.87,118.807 405.115,118.616 405.33,118.41 L 404.611,117.319 C 404.543,117.216 404.461,117.135 404.366,117.077 C 404.271,117.018 404.167,116.989 404.055,116.989 C 403.908,116.989 403.757,117.038 403.6,117.135 C 403.405,117.252 403.221,117.354 403.047,117.439 C 402.874,117.525 402.697,117.594 402.516,117.648 C 402.335,117.702 402.145,117.741 401.945,117.765 C 401.744,117.79 401.52,117.802 401.27,117.802 C 400.806,117.802 400.389,117.72 400.018,117.557 C 399.646,117.393 399.33,117.162 399.069,116.865 C 398.807,116.567 398.606,116.209 398.464,115.792 C 398.323,115.374 398.252,114.909 398.252,114.396 C 398.252,113.83 398.33,113.327 398.486,112.887 C 398.643,112.448 398.859,112.077 399.135,111.774 C 399.411,111.471 399.738,111.241 400.116,111.082 C 400.495,110.923 400.909,110.844 401.358,110.844 Z" marker-start="none" marker-end="none"/>
     <path d="M 406.383,110.345 C 406.383,110.501 406.413,110.647 406.471,110.781 C 406.53,110.916 406.614,111.033 406.724,111.133 C 406.834,111.233 406.963,111.312 407.112,111.371 C 407.261,111.43 407.429,111.459 407.614,111.459 C 407.834,111.459 408.024,111.421 408.186,111.345 C 408.347,111.27 408.481,111.167 408.589,111.038 C 408.696,110.908 408.775,110.759 408.827,110.591 C 408.878,110.422 408.904,110.245 408.904,110.059 C 408.904,109.815 408.865,109.555 408.786,109.279 C 408.708,109.003 408.592,108.726 408.438,108.447 C 408.285,108.169 408.093,107.895 407.863,107.626 C 407.634,107.358 407.37,107.113 407.072,106.894 L 406.676,107.245 C 406.623,107.299 406.582,107.349 406.555,107.396 C 406.529,107.442 406.515,107.499 406.515,107.568 C 406.515,107.617 406.532,107.669 406.566,107.725 C 406.601,107.782 406.642,107.832 406.691,107.876 C 406.75,107.934 406.818,108.005 406.896,108.088 C 406.974,108.171 407.052,108.264 407.131,108.367 C 407.209,108.469 407.281,108.582 407.347,108.704 C 407.413,108.826 407.463,108.955 407.497,109.092 C 407.326,109.107 407.172,109.148 407.035,109.217 C 406.899,109.285 406.783,109.376 406.687,109.488 C 406.592,109.6 406.518,109.728 406.464,109.873 C 406.41,110.017 406.383,110.174 406.383,110.345 Z" marker-start="none" marker-end="none"/>
     <path d="M 415.757,109.055 L 413.266,109.055 L 413.266,119.734 L 415.757,119.734 L 415.757,109.055 Z" marker-start="none" marker-end="none"/>
     <path d="M 419.037,119.734 C 419.145,119.734 419.235,119.729 419.308,119.719 C 419.382,119.71 419.448,119.691 419.506,119.664 C 419.565,119.637 419.621,119.599 419.675,119.551 C 419.729,119.502 419.79,119.436 419.858,119.353 L 424.928,112.942 C 424.909,113.147 424.894,113.346 424.884,113.539 C 424.874,113.732 424.869,113.914 424.869,114.085 L 424.869,119.734 L 427.053,119.734 L 427.053,109.055 L 425.763,109.055 C 425.573,109.055 425.412,109.084 425.28,109.143 C 425.148,109.202 425.021,109.309 424.899,109.465 L 419.865,115.825 C 419.88,115.639 419.892,115.457 419.902,115.279 C 419.912,115.101 419.917,114.934 419.917,114.777 L 419.917,109.055 L 417.733,109.055 L 417.733,119.734 L 419.037,119.734 Z" marker-start="none" marker-end="none"/>
     <path d="M 435.982,111.815 C 436.041,111.815 436.099,111.804 436.158,111.782 C 436.217,111.759 436.273,111.721 436.326,111.666 L 437.308,110.611 C 436.878,110.058 436.34,109.64 435.693,109.359 C 435.046,109.078 434.28,108.937 433.396,108.937 C 432.585,108.937 431.858,109.075 431.216,109.351 C 430.574,109.627 430.029,110.008 429.582,110.494 C 429.135,110.98 428.792,111.557 428.553,112.224 C 428.313,112.891 428.194,113.615 428.194,114.396 C 428.194,115.193 428.331,115.924 428.604,116.591 C 428.878,117.258 429.26,117.833 429.751,118.317 C 430.242,118.8 430.829,119.177 431.513,119.445 C 432.197,119.714 432.951,119.848 433.777,119.848 C 434.177,119.848 434.555,119.813 434.909,119.742 C 435.263,119.671 435.594,119.573 435.902,119.448 C 436.209,119.324 436.493,119.175 436.751,119.001 C 437.01,118.827 437.24,118.635 437.44,118.425 L 436.605,117.304 C 436.551,117.235 436.488,117.173 436.414,117.117 C 436.341,117.061 436.239,117.033 436.107,117.033 C 436.019,117.033 435.936,117.052 435.858,117.091 C 435.779,117.13 435.696,117.178 435.608,117.234 C 435.521,117.29 435.424,117.351 435.319,117.417 C 435.214,117.483 435.089,117.544 434.945,117.601 C 434.801,117.657 434.633,117.704 434.44,117.744 C 434.247,117.782 434.021,117.802 433.762,117.802 C 433.313,117.802 432.902,117.723 432.531,117.564 C 432.16,117.405 431.841,117.178 431.575,116.882 C 431.309,116.587 431.101,116.229 430.952,115.809 C 430.803,115.389 430.729,114.917 430.729,114.395 C 430.729,113.847 430.803,113.361 430.952,112.936 C 431.101,112.511 431.304,112.154 431.56,111.863 C 431.817,111.572 432.116,111.351 432.458,111.2 C 432.8,111.048 433.166,110.973 433.557,110.973 C 433.782,110.973 433.987,110.984 434.172,111.006 C 434.358,111.028 434.53,111.065 434.689,111.119 C 434.848,111.173 434.999,111.242 435.143,111.328 C 435.287,111.413 435.433,111.52 435.579,111.647 C 435.638,111.696 435.701,111.736 435.77,111.768 C 435.838,111.799 435.909,111.815 435.982,111.815 Z" marker-start="none" marker-end="none"/>
     <path d="M 438.001,110.205 C 438.001,110.381 438.034,110.545 438.1,110.696 C 438.165,110.848 438.256,110.98 438.371,111.092 C 438.485,111.205 438.621,111.294 438.777,111.36 C 438.934,111.426 439.105,111.459 439.29,111.459 C 439.471,111.459 439.639,111.426 439.796,111.36 C 439.952,111.294 440.089,111.205 440.206,111.092 C 440.323,110.98 440.415,110.848 440.481,110.696 C 440.547,110.545 440.58,110.381 440.58,110.205 C 440.58,110.029 440.547,109.864 440.481,109.71 C 440.415,109.556 440.323,109.423 440.206,109.311 C 440.089,109.198 439.952,109.11 439.796,109.047 C 439.639,108.983 439.471,108.951 439.29,108.951 C 439.105,108.951 438.934,108.983 438.777,109.047 C 438.621,109.11 438.485,109.198 438.371,109.311 C 438.256,109.423 438.165,109.556 438.1,109.71 C 438.034,109.864 438.001,110.029 438.001,110.205 Z" marker-start="none" marker-end="none"/>
    </g>
   </g>
   <path d="M 274.569,97.415 L 274.569,282.425 C 274.569,290.822 281.384,297.638 289.781,297.638 L 474.792,297.638 C 483.189,297.638 490.004,290.822 490.004,282.425 L 490.004,97.415 C 490.004,89.018 483.189,82.202 474.792,82.202 L 289.781,82.202 C 281.384,82.202 274.569,89.018 274.569,97.415 Z M 489.295,98.024 L 489.295,281.816 C 489.295,290.158 482.525,296.929 474.183,296.929 L 290.39,296.929 C 282.048,296.929 275.278,290.158 275.278,281.816 L 275.278,98.024 C 275.278,89.682 282.048,82.911 290.39,82.911 L 474.183,82.911 C 482.525,82.911 489.295,89.682 489.295,98.024 Z" stroke-linejoin="miter" stroke-width="0.802" fill="#7f7f7f" stroke="none" marker-start="none" marker-end="none"/>
  </g>
 </g>
</svg>
