<?xml version="1.0" standalone="no"?>
<!DOCTYPE svg PUBLIC "-//W3C//DTD SVG 1.1//EN" "http://www.w3.org/Graphics/SVG/1.1/DTD/svg11.dtd">
<!--Generator: Xara Designer (www.xara.com), SVG filter version: 6.6.0.0-->
<svg fill="none" fill-rule="evenodd" stroke="black" stroke-width="0.501" stroke-linejoin="bevel" stroke-miterlimit="10" font-family="Times New Roman" font-size="16" style="font-variant-ligatures:none" xmlns:xlink="http://www.w3.org/1999/xlink" xmlns="http://www.w3.org/2000/svg" version="1.1" overflow="visible" width="215.435pt" height="215.436pt" viewBox="250.569 -583.089 215.435 215.436">
 <defs>
	</defs>
 <g id="Page background" transform="scale(1 -1)"/>
 <g id="Layer 1" transform="scale(1 -1)">
  <g id="Group">
   <g id="Group_1">
    <path d="M 250.569,567.876 L 250.569,382.866 C 250.569,374.469 257.384,367.653 265.781,367.653 L 450.792,367.653 C 459.189,367.653 466.004,374.469 466.004,382.866 L 466.004,567.876 C 466.004,576.273 459.189,583.089 450.792,583.089 L 265.781,583.089 C 257.384,583.089 250.569,576.273 250.569,567.876 Z" stroke-linejoin="miter" stroke="none" stroke-width="0.802" fill="#7f7f7f" marker-start="none" marker-end="none"/>
    <path d="M 251.278,567.267 L 251.278,383.475 C 251.278,375.133 258.048,368.362 266.39,368.362 L 450.183,368.362 C 458.525,368.362 465.295,375.133 465.295,383.475 L 465.295,567.267 C 465.295,575.609 458.525,582.38 450.183,582.38 L 266.39,582.38 C 258.048,582.38 251.278,575.609 251.278,567.267 Z" stroke-linejoin="miter" stroke="none" stroke-width="0.802" marker-start="none" marker-end="none"/>
    <path d="M 251.278,567.267 L 251.278,383.475 C 251.278,375.133 258.048,368.362 266.39,368.362 L 450.183,368.362 C 458.525,368.362 465.295,375.133 465.295,383.475 L 465.295,567.267 C 465.295,575.609 458.525,582.38 450.183,582.38 L 266.39,582.38 C 258.048,582.38 251.278,575.609 251.278,567.267 Z" stroke-linejoin="miter" stroke="none" stroke-width="0.802" fill="#ffffff" marker-start="none" marker-end="none"/>
    <path d="M 265.599,513.794 L 265.599,547.686 L 369.187,547.686 L 369.187,513.794 L 265.599,513.794 Z" stroke-linejoin="miter" stroke-linecap="round" stroke="#ff7979" fill="#ff7979" stroke-width="1.738" marker-start="none" marker-end="none"/>
    <path d="M 265.599,512.451 L 265.599,522.261 C 265.599,524.832 267.683,526.909 270.245,526.909 L 364.537,526.909 C 367.099,526.909 369.187,524.832 369.187,522.261 L 369.187,512.451 C 369.187,509.875 367.099,507.797 364.537,507.797 L 270.245,507.797 C 267.683,507.797 265.599,509.875 265.599,512.451 Z" stroke-linejoin="miter" stroke-linecap="round" stroke="#ff7979" fill="#ff7979" stroke-width="1.738" marker-start="none" marker-end="none"/>
    <path d="M 266.296,541.344 L 266.296,558.989 C 266.296,563.602 270.04,567.348 274.658,567.348 L 441.704,567.348 C 446.317,567.348 450.065,563.602 450.065,558.989 L 450.065,541.344 C 450.065,536.726 446.317,532.978 441.704,532.978 L 274.658,532.978 C 270.04,532.978 266.296,536.726 266.296,541.344 Z" stroke-linejoin="miter" stroke-linecap="round" stroke="#ff7979" fill="#ffffff" stroke-width="3.13" marker-start="none" marker-end="none"/>
    <path d="M 251.099,482.404 L 251.099,490.938 L 300.262,490.938 L 300.262,482.404 L 251.099,482.404 Z" stroke-linecap="round" stroke="none" fill="#e5e5e5" stroke-width="0.103" stroke-linejoin="miter" marker-start="none" marker-end="none"/>
    <path d="M 350.704,462.172 C 338.436,475.611 321.623,482.44 304.75,482.443 L 304.75,490.922 C 323.922,490.917 343.035,483.167 356.969,467.898 C 369.343,454.337 375.444,437.26 375.439,420.237 L 366.953,420.237 C 366.96,435.219 361.591,450.246 350.704,462.172 Z" stroke-linecap="round" stroke="none" fill="#e5e5e5" stroke-width="0.541" stroke-linejoin="round" marker-start="none" marker-end="none"/>
    <path d="M 371.212,382.284 L 369.094,385.329 L 366.972,388.382 L 366.919,388.382 L 366.919,415.659 L 375.455,415.659 L 375.455,388.382 L 373.335,385.329 L 371.212,382.284 Z" stroke-linecap="round" stroke="none" fill="#e5e5e5" stroke-width="0.103" stroke-linejoin="miter" marker-start="none" marker-end="none"/>
    <path d="M 359.662,382.28 L 357.542,385.326 L 355.421,388.382 L 359.662,388.382 L 363.903,388.378 L 361.78,385.326 L 359.662,382.28 Z M 355.398,388.382 L 355.398,415.659 L 363.932,415.659 L 363.932,388.382 L 355.398,388.382 Z" stroke-linecap="round" stroke="none" fill="#e5e5e5" stroke-width="0.103" stroke-linejoin="miter" marker-start="none" marker-end="none"/>
    <path d="M 342.35,454.55 C 332.31,465.541 318.555,471.128 304.75,471.133 L 304.75,479.614 C 320.857,479.61 336.907,473.095 348.616,460.267 C 359.01,448.88 364.13,434.537 364.127,420.237 L 355.641,420.237 C 355.651,432.494 351.256,444.786 342.35,454.55 Z" stroke-linecap="round" stroke="none" fill="#e5e5e5" stroke-width="0.453" stroke-linejoin="round" marker-start="none" marker-end="none"/>
    <path d="M 251.099,471.101 L 251.099,479.633 L 300.262,479.633 L 300.262,471.101 L 251.099,471.101 Z" stroke-linecap="round" stroke="none" fill="#e5e5e5" stroke-width="0.103" stroke-linejoin="miter" marker-start="none" marker-end="none"/>
    <path d="M 348.346,382.28 L 346.23,385.326 L 344.109,388.382 L 348.35,388.382 L 352.593,388.378 L 350.473,385.326 L 348.346,382.28 Z M 344.1,388.382 L 344.1,415.659 L 352.635,415.659 L 352.635,388.382 L 344.1,388.382 Z" fill="#00d702" stroke-linecap="round" stroke="none" stroke-width="0.103" stroke-linejoin="miter" marker-start="none" marker-end="none"/>
    <path d="M 251.099,459.803 L 251.099,468.334 L 300.262,468.334 L 300.262,459.803 L 251.099,459.803 Z" fill="#00d702" stroke-linecap="round" stroke="none" stroke-width="0.103" stroke-linejoin="miter" marker-start="none" marker-end="none"/>
    <path d="M 333.995,446.923 C 326.188,455.475 315.483,459.815 304.75,459.821 L 304.75,468.305 C 317.792,468.302 330.782,463.029 340.261,452.64 C 348.672,443.425 352.82,431.809 352.818,420.237 L 344.336,420.237 C 344.336,429.769 340.922,439.334 333.995,446.923 Z" fill="#00d702" stroke-linecap="round" stroke="none" stroke-width="0.368" stroke-linejoin="round" marker-start="none" marker-end="none"/>
    <path d="M 251.099,448.507 L 251.099,457.041 L 300.262,457.041 L 300.262,448.507 L 251.099,448.507 Z" fill="#e5e5e5" stroke-linecap="round" stroke="none" stroke-width="0.103" stroke-linejoin="miter" marker-start="none" marker-end="none"/>
    <path d="M 325.64,439.302 C 320.062,445.409 312.424,448.509 304.75,448.512 L 304.75,456.999 C 314.72,456.99 324.659,452.957 331.902,445.019 C 338.341,437.97 341.512,429.093 341.508,420.237 L 333.02,420.237 C 333.027,427.044 330.585,433.876 325.64,439.302 Z" fill="#e5e5e5" stroke-linecap="round" stroke="none" stroke-width="0.281" stroke-linejoin="round" marker-start="none" marker-end="none"/>
    <path d="M 337.293,382.284 L 335.161,385.329 L 333.02,388.382 L 333.02,388.382 L 333.02,415.659 L 341.559,415.659 L 341.559,388.382 L 341.559,388.382 L 339.429,385.326 L 337.293,382.284 Z" fill="#e5e5e5" stroke-linecap="round" stroke="none" stroke-width="0.103" stroke-linejoin="miter" marker-start="none" marker-end="none"/>
    <path d="M 271.949,392.579 C 263.052,403.119 264.377,418.905 274.929,427.789 C 285.46,436.703 301.225,435.371 310.126,424.833 C 319.04,414.293 317.704,398.519 307.15,389.616 C 296.619,380.72 280.847,382.051 271.949,392.579 Z" stroke-linejoin="miter" stroke="none" fill="#000000" stroke-width="1.039" marker-start="none" marker-end="none"/>
    <path d="M 273.126,393.536 C 264.239,404.081 265.555,419.834 276.099,428.751 C 286.642,437.624 302.409,436.309 311.326,425.771 C 320.22,415.234 318.887,399.451 308.34,390.554 C 297.812,381.658 282.031,382.982 273.126,393.536 Z" stroke-linejoin="miter" stroke="#b2b2b2" stroke-width="5.658" marker-start="none" marker-end="none"/>
    <path d="M 419.32,468.376 C 413.42,475.354 414.299,485.814 421.294,491.723 C 428.276,497.615 438.729,496.736 444.633,489.749 C 450.542,482.757 449.656,472.303 442.659,466.398 C 435.677,460.503 425.22,461.382 419.32,468.376 Z" stroke-linejoin="miter" stroke="none" fill="#000000" stroke-width="0.686" marker-start="none" marker-end="none"/>
    <path d="M 420.098,468.985 C 414.207,475.983 415.079,486.442 422.072,492.335 C 429.061,498.244 439.513,497.361 445.429,490.368 C 451.326,483.386 450.441,472.934 443.447,467.029 C 436.468,461.123 426.004,462.002 420.098,468.985 Z" stroke-linejoin="miter" stroke="#b2b2b2" stroke-width="3.752" marker-start="none" marker-end="none"/>
    <path d="M 269.823,461.183 C 265.298,466.539 265.974,474.555 271.332,479.079 C 276.688,483.602 284.709,482.93 289.228,477.572 C 293.753,472.216 293.078,464.197 287.719,459.677 C 282.365,455.149 274.345,455.832 269.823,461.183 Z" stroke-linejoin="miter" stroke="none" fill="#ffffff" stroke-width="0.526" marker-start="none" marker-end="none"/>
    <path d="M 270.426,461.665 C 265.902,467.014 266.578,475.036 271.934,479.557 C 277.293,484.085 285.309,483.407 289.833,478.048 C 294.361,472.697 293.684,464.674 288.324,460.15 C 282.964,455.629 274.949,456.303 270.426,461.665 Z" fill="none" stroke-linejoin="miter" stroke="#539bc5" stroke-width="2.872" marker-start="none" marker-end="none"/>
    <path d="M 327.131,449.234 C 322.61,454.585 323.285,462.604 328.642,467.132 C 333.999,471.648 342.018,470.975 346.542,465.617 C 351.065,460.263 350.385,452.246 345.031,447.723 C 339.675,443.199 331.656,443.875 327.131,449.234 Z" stroke-linejoin="miter" stroke="none" fill="#ffffff" stroke-width="0.526" marker-start="none" marker-end="none"/>
    <path d="M 327.74,449.712 C 323.212,455.066 323.886,463.082 329.246,467.606 C 334.604,472.131 342.619,471.457 347.144,466.095 C 351.672,460.739 350.987,452.722 345.636,448.196 C 340.276,443.671 332.261,444.352 327.74,449.712 Z" fill="none" stroke-linejoin="miter" stroke="#539bc5" stroke-width="2.872" marker-start="none" marker-end="none"/>
    <path d="M 343.919,391.604 C 339.395,396.96 340.074,404.977 345.429,409.505 C 350.79,414.026 358.809,413.348 363.332,407.99 C 367.86,402.638 367.178,394.615 361.821,390.096 C 356.461,385.577 348.445,386.251 343.919,391.604 Z" stroke-linejoin="miter" stroke="none" fill="#ffffff" stroke-width="0.526" marker-start="none" marker-end="none"/>
    <path d="M 344.526,392.088 C 340.002,397.439 340.679,405.458 346.037,409.983 C 351.397,414.504 359.412,413.83 363.935,408.47 C 368.461,403.117 367.784,395.097 362.428,390.576 C 357.066,386.051 349.049,386.727 344.526,392.088 Z" fill="none" stroke-linejoin="miter" stroke="#539bc5" stroke-width="2.872" marker-start="none" marker-end="none"/>
    <path d="M 378.635,468.363 C 372.735,475.352 373.614,485.82 380.611,491.711 C 387.594,497.622 398.048,496.739 403.95,489.751 C 409.861,482.762 408.975,472.302 401.977,466.398 C 394.994,460.499 384.535,461.382 378.635,468.363 Z" stroke-linejoin="miter" stroke="none" fill="#ffffff" stroke-width="0.689" marker-start="none" marker-end="none"/>
    <path d="M 379.415,468.998 C 373.522,475.99 374.395,486.436 381.387,492.349 C 388.378,498.233 398.833,497.361 404.746,490.373 C 410.644,483.386 409.76,472.92 402.766,467.02 C 395.785,461.121 385.32,461.999 379.415,468.998 Z" stroke-linejoin="miter" stroke="#539bc5" stroke-width="3.752" marker-start="none" marker-end="none"/>
    <path d="M 402.66,392.568 C 393.763,403.108 395.088,418.894 405.64,427.778 C 416.171,436.692 431.936,435.36 440.837,424.822 C 449.751,414.282 448.415,398.508 437.861,389.605 C 427.33,380.709 411.558,382.04 402.66,392.568 Z" stroke-linejoin="miter" stroke="none" fill="#ffffff" stroke-width="1.039" marker-start="none" marker-end="none"/>
    <path d="M 403.837,393.525 C 394.95,404.07 396.266,419.823 406.81,428.74 C 417.353,437.613 433.12,436.298 442.037,425.76 C 450.931,415.223 449.598,399.44 439.051,390.543 C 428.523,381.647 412.742,382.971 403.837,393.525 Z" stroke-linejoin="miter" stroke="#539bc5" stroke-width="5.658" marker-start="none" marker-end="none"/>
    <g id="Group_2" fill-rule="nonzero" stroke-linejoin="round" stroke-linecap="round" stroke="none" stroke-width="0.485" fill="#b2b2b2">
     <path d="M 428.532,474.765 L 431.261,474.765 L 431.261,481.928 C 431.261,482.279 431.27,482.646 431.29,483.03 L 429.682,481.694 C 429.578,481.61 429.474,481.55 429.37,481.514 C 429.266,481.478 429.165,481.46 429.068,481.46 C 428.899,481.46 428.748,481.498 428.615,481.573 C 428.481,481.647 428.382,481.727 428.317,481.811 L 427.362,483.078 L 431.787,486.792 L 434.282,486.792 L 434.282,474.765 L 436.621,474.765 L 436.621,472.581 L 428.532,472.581 L 428.532,474.765 Z" marker-start="none" marker-end="none"/>
    </g>
    <g id="Group_3" fill-rule="nonzero" stroke-linejoin="round" stroke-linecap="round" stroke="none" stroke-width="0.387" fill="#000000">
     <path d="M 276.527,473.3 L 276.527,470.218 L 279.406,470.218 L 279.406,468.489 L 276.527,468.489 L 276.527,465.392 L 274.566,465.392 L 274.566,468.489 L 271.702,468.489 L 271.702,470.218 L 274.566,470.218 L 274.566,473.3 L 276.527,473.3 Z" marker-start="none" marker-end="none"/>
     <path d="M 284.761,475.587 C 285.321,475.587 285.826,475.505 286.274,475.342 C 286.723,475.179 287.106,474.952 287.422,474.661 C 287.739,474.371 287.981,474.024 288.15,473.622 C 288.319,473.22 288.403,472.778 288.403,472.295 C 288.403,471.88 288.345,471.496 288.228,471.143 C 288.111,470.79 287.952,470.454 287.749,470.135 C 287.547,469.816 287.312,469.508 287.045,469.209 C 286.778,468.911 286.494,468.609 286.193,468.303 L 283.975,466.03 C 284.26,466.114 284.542,466.18 284.819,466.23 C 285.097,466.28 285.357,466.304 285.601,466.304 L 287.718,466.304 C 287.977,466.304 288.182,466.233 288.333,466.09 C 288.483,465.947 288.559,465.759 288.559,465.525 L 288.559,464.123 L 280.59,464.123 L 280.59,464.901 C 280.59,465.052 280.621,465.213 280.683,465.384 C 280.745,465.555 280.854,465.711 281.01,465.851 L 284.278,469.143 C 284.559,469.424 284.802,469.691 285.01,469.945 C 285.217,470.199 285.389,470.45 285.524,470.696 C 285.658,470.943 285.76,471.189 285.827,471.436 C 285.894,471.682 285.928,471.943 285.928,472.218 C 285.928,472.669 285.821,473.016 285.605,473.257 C 285.39,473.498 285.062,473.619 284.621,473.619 C 284.439,473.619 284.273,473.593 284.123,473.541 C 283.972,473.489 283.837,473.419 283.718,473.331 C 283.599,473.243 283.496,473.139 283.411,473.02 C 283.325,472.9 283.256,472.771 283.204,472.631 C 283.121,472.397 283.016,472.229 282.889,472.125 C 282.762,472.021 282.59,471.969 282.372,471.969 C 282.32,471.969 282.264,471.972 282.204,471.977 C 282.145,471.982 282.084,471.99 282.022,472 L 280.745,472.222 C 280.828,472.788 280.988,473.282 281.224,473.702 C 281.46,474.123 281.753,474.473 282.103,474.754 C 282.453,475.034 282.854,475.243 283.306,475.381 C 283.757,475.518 284.242,475.587 284.761,475.587 Z" marker-start="none" marker-end="none"/>
    </g>
    <g id="Group_4" fill-rule="nonzero" stroke-linejoin="round" stroke-linecap="round" stroke="none" stroke-width="0.485" fill="#000000">
     <path d="M 388.777,474.765 L 391.506,474.765 L 391.506,481.928 C 391.506,482.279 391.515,482.646 391.535,483.03 L 389.927,481.694 C 389.823,481.61 389.719,481.55 389.615,481.514 C 389.511,481.478 389.41,481.46 389.313,481.46 C 389.144,481.46 388.993,481.498 388.86,481.573 C 388.726,481.647 388.627,481.727 388.562,481.811 L 387.607,483.078 L 392.032,486.792 L 394.527,486.792 L 394.527,474.765 L 396.866,474.765 L 396.866,472.581 L 388.777,472.581 L 388.777,474.765 Z" marker-start="none" marker-end="none"/>
    </g>
    <g id="Group_5" fill-rule="nonzero" stroke-linejoin="round" stroke-linecap="round" stroke="none" stroke-width="0.387" fill="#000000">
     <path d="M 333.264,462.155 L 333.264,459.073 L 336.143,459.073 L 336.143,457.344 L 333.264,457.344 L 333.264,454.247 L 331.303,454.247 L 331.303,457.344 L 328.439,457.344 L 328.439,459.073 L 331.303,459.073 L 331.303,462.155 L 333.264,462.155 Z" marker-start="none" marker-end="none"/>
     <path d="M 338.774,454.722 L 340.953,454.722 L 340.953,460.442 C 340.953,460.723 340.961,461.016 340.976,461.322 L 339.692,460.255 C 339.609,460.188 339.526,460.14 339.443,460.111 C 339.36,460.083 339.28,460.069 339.202,460.069 C 339.067,460.069 338.947,460.098 338.84,460.158 C 338.734,460.218 338.655,460.281 338.603,460.349 L 337.84,461.361 L 341.373,464.326 L 343.366,464.326 L 343.366,454.722 L 345.233,454.722 L 345.233,452.978 L 338.774,452.978 L 338.774,454.722 Z" marker-start="none" marker-end="none"/>
    </g>
    <g id="Group_6" fill-rule="nonzero" stroke-linejoin="round" stroke-linecap="round" stroke="none" stroke-width="0.387" fill="#000000">
     <path d="M 358.434,400.282 C 358.434,399.291 358.328,398.432 358.115,397.706 C 357.902,396.979 357.608,396.377 357.232,395.9 C 356.856,395.423 356.409,395.067 355.893,394.834 C 355.377,394.6 354.818,394.484 354.216,394.484 C 353.614,394.484 353.058,394.6 352.547,394.834 C 352.036,395.067 351.594,395.423 351.22,395.9 C 350.846,396.377 350.555,396.979 350.344,397.706 C 350.134,398.432 350.029,399.291 350.029,400.282 C 350.029,401.273 350.134,402.132 350.344,402.859 C 350.555,403.585 350.846,404.187 351.22,404.664 C 351.594,405.142 352.036,405.496 352.547,405.727 C 353.058,405.958 353.614,406.073 354.216,406.073 C 354.818,406.073 355.377,405.958 355.893,405.727 C 356.409,405.496 356.856,405.142 357.232,404.664 C 357.608,404.187 357.902,403.585 358.115,402.859 C 358.328,402.132 358.434,401.273 358.434,400.282 Z M 355.944,400.282 C 355.944,401.066 355.894,401.708 355.796,402.209 C 355.697,402.71 355.566,403.103 355.403,403.388 C 355.239,403.673 355.054,403.869 354.846,403.976 C 354.639,404.082 354.429,404.135 354.216,404.135 C 354.003,404.135 353.795,404.082 353.59,403.976 C 353.385,403.869 353.203,403.673 353.045,403.388 C 352.887,403.103 352.76,402.71 352.664,402.209 C 352.568,401.708 352.52,401.066 352.52,400.282 C 352.52,399.494 352.568,398.85 352.664,398.352 C 352.76,397.854 352.887,397.461 353.045,397.173 C 353.203,396.885 353.385,396.687 353.59,396.581 C 353.795,396.475 354.003,396.422 354.216,396.422 C 354.429,396.422 354.639,396.475 354.846,396.581 C 355.054,396.687 355.239,396.885 355.403,397.173 C 355.566,397.461 355.697,397.854 355.796,398.352 C 355.894,398.85 355.944,399.494 355.944,400.282 Z" marker-start="none" marker-end="none"/>
    </g>
    <g id="Group_7" fill-rule="nonzero" stroke-linejoin="round" stroke-linecap="round" stroke="none" stroke-width="0.319" fill="#ffffff">
     <path d="M 284.934,518.748 C 284.985,518.748 285.037,518.739 285.088,518.719 C 285.139,518.699 285.188,518.666 285.235,518.618 L 286.091,517.697 C 285.716,517.215 285.246,516.851 284.682,516.605 C 284.117,516.36 283.449,516.237 282.678,516.237 C 281.97,516.237 281.336,516.357 280.776,516.598 C 280.216,516.839 279.74,517.172 279.35,517.596 C 278.961,518.02 278.661,518.523 278.452,519.105 C 278.244,519.686 278.139,520.318 278.139,521 C 278.139,521.695 278.258,522.333 278.497,522.915 C 278.736,523.497 279.069,523.999 279.498,524.421 C 279.926,524.843 280.438,525.171 281.035,525.405 C 281.632,525.64 282.29,525.757 283.01,525.757 C 283.36,525.757 283.689,525.726 283.998,525.664 C 284.307,525.602 284.595,525.517 284.864,525.408 C 285.132,525.299 285.38,525.169 285.605,525.017 C 285.831,524.866 286.032,524.698 286.206,524.515 L 285.478,523.537 C 285.431,523.477 285.375,523.423 285.311,523.374 C 285.247,523.325 285.158,523.3 285.043,523.3 C 284.966,523.3 284.894,523.317 284.826,523.351 C 284.757,523.385 284.685,523.427 284.608,523.476 C 284.532,523.525 284.447,523.578 284.356,523.636 C 284.264,523.693 284.155,523.747 284.03,523.796 C 283.904,523.845 283.757,523.886 283.589,523.92 C 283.42,523.954 283.223,523.971 282.997,523.972 C 282.605,523.971 282.247,523.902 281.923,523.764 C 281.6,523.625 281.321,523.427 281.089,523.169 C 280.857,522.911 280.676,522.599 280.546,522.233 C 280.416,521.866 280.351,521.455 280.351,520.999 C 280.351,520.521 280.416,520.097 280.546,519.726 C 280.676,519.356 280.853,519.043 281.076,518.79 C 281.3,518.536 281.561,518.343 281.86,518.211 C 282.158,518.079 282.477,518.013 282.818,518.013 C 283.014,518.013 283.193,518.023 283.355,518.042 C 283.517,518.061 283.667,518.094 283.806,518.141 C 283.944,518.188 284.077,518.248 284.202,518.323 C 284.328,518.398 284.455,518.49 284.583,518.601 C 284.634,518.644 284.689,518.679 284.749,518.707 C 284.809,518.734 284.87,518.748 284.934,518.748 Z" marker-start="none" marker-end="none"/>
     <path d="M 296.271,521 C 296.271,520.327 296.155,519.7 295.923,519.121 C 295.691,518.541 295.364,518.037 294.942,517.608 C 294.52,517.18 294.012,516.844 293.417,516.601 C 292.823,516.358 292.163,516.237 291.439,516.237 C 290.714,516.237 290.054,516.358 289.457,516.601 C 288.86,516.844 288.35,517.18 287.926,517.608 C 287.502,518.037 287.174,518.541 286.942,519.121 C 286.709,519.7 286.593,520.327 286.593,521 C 286.593,521.674 286.709,522.3 286.942,522.88 C 287.174,523.46 287.502,523.962 287.926,524.389 C 288.35,524.815 288.86,525.15 289.457,525.393 C 290.054,525.635 290.714,525.757 291.439,525.757 C 292.163,525.757 292.823,525.634 293.417,525.389 C 294.012,525.144 294.52,524.809 294.942,524.382 C 295.364,523.956 295.691,523.453 295.923,522.873 C 296.155,522.294 296.271,521.669 296.271,521 Z M 294.06,521 C 294.06,521.46 294,521.874 293.881,522.243 C 293.761,522.611 293.59,522.924 293.366,523.179 C 293.142,523.435 292.868,523.631 292.545,523.767 C 292.221,523.903 291.852,523.971 291.439,523.972 C 291.021,523.971 290.649,523.903 290.323,523.767 C 289.997,523.631 289.722,523.435 289.499,523.179 C 289.275,522.924 289.103,522.611 288.984,522.243 C 288.865,521.874 288.805,521.46 288.805,521 C 288.805,520.536 288.865,520.119 288.984,519.751 C 289.103,519.382 289.275,519.07 289.499,518.815 C 289.722,518.559 289.997,518.364 290.323,518.23 C 290.649,518.096 291.021,518.029 291.439,518.029 C 291.852,518.029 292.221,518.096 292.545,518.23 C 292.868,518.364 293.142,518.559 293.366,518.815 C 293.59,519.07 293.761,519.382 293.881,519.751 C 294,520.119 294.06,520.536 294.06,521 Z" marker-start="none" marker-end="none"/>
     <path d="M 298.443,525.657 C 298.537,525.657 298.616,525.653 298.679,525.644 C 298.743,525.636 298.801,525.62 298.852,525.596 C 298.903,525.573 298.952,525.54 298.999,525.497 C 299.046,525.454 299.099,525.397 299.159,525.325 L 303.582,519.731 C 303.565,519.91 303.553,520.084 303.544,520.252 C 303.536,520.42 303.531,520.579 303.531,520.729 L 303.531,525.657 L 305.436,525.657 L 305.436,516.34 L 304.311,516.34 C 304.145,516.34 304.004,516.366 303.889,516.417 C 303.774,516.468 303.663,516.562 303.557,516.698 L 299.165,522.247 C 299.178,522.085 299.189,521.926 299.197,521.77 C 299.206,521.615 299.21,521.469 299.21,521.332 L 299.21,516.34 L 297.305,516.34 L 297.305,525.657 L 298.443,525.657 Z" marker-start="none" marker-end="none"/>
     <path d="M 312.16,523.762 C 312.096,523.659 312.029,523.583 311.958,523.532 C 311.888,523.48 311.797,523.455 311.687,523.455 C 311.589,523.455 311.483,523.486 311.37,523.548 C 311.257,523.609 311.129,523.679 310.987,523.755 C 310.844,523.832 310.681,523.901 310.498,523.963 C 310.314,524.025 310.106,524.056 309.871,524.056 C 309.466,524.056 309.165,523.97 308.967,523.797 C 308.769,523.624 308.669,523.391 308.669,523.097 C 308.669,522.909 308.729,522.754 308.848,522.63 C 308.968,522.507 309.124,522.4 309.318,522.31 C 309.512,522.221 309.734,522.139 309.983,522.064 C 310.232,521.99 310.487,521.907 310.747,521.815 C 311.007,521.723 311.262,521.616 311.511,521.492 C 311.76,521.369 311.982,521.211 312.176,521.019 C 312.37,520.827 312.526,520.594 312.646,520.319 C 312.765,520.044 312.825,519.713 312.825,519.325 C 312.825,518.894 312.75,518.492 312.601,518.117 C 312.452,517.742 312.235,517.414 311.952,517.135 C 311.669,516.856 311.319,516.637 310.904,516.477 C 310.488,516.317 310.016,516.237 309.488,516.237 C 309.198,516.237 308.903,516.267 308.602,516.327 C 308.302,516.386 308.011,516.47 307.73,516.579 C 307.449,516.688 307.184,516.817 306.937,516.966 C 306.69,517.115 306.475,517.281 306.291,517.465 L 306.931,518.475 C 306.978,518.552 307.044,518.613 307.129,518.66 C 307.214,518.707 307.306,518.731 307.404,518.731 C 307.532,518.731 307.661,518.69 307.791,518.609 C 307.92,518.528 308.068,518.439 308.232,518.341 C 308.396,518.243 308.584,518.153 308.797,518.072 C 309.01,517.991 309.262,517.951 309.552,517.951 C 309.944,517.951 310.248,518.037 310.466,518.209 C 310.683,518.382 310.792,518.656 310.792,519.031 C 310.792,519.249 310.732,519.425 310.613,519.562 C 310.493,519.698 310.337,519.811 310.143,519.901 C 309.949,519.99 309.728,520.069 309.481,520.137 C 309.234,520.205 308.981,520.281 308.721,520.364 C 308.461,520.447 308.207,520.549 307.96,520.671 C 307.713,520.792 307.492,520.952 307.298,521.15 C 307.104,521.349 306.948,521.596 306.828,521.892 C 306.709,522.188 306.649,522.554 306.649,522.989 C 306.649,523.338 306.72,523.679 306.86,524.012 C 307.001,524.344 307.208,524.64 307.48,524.9 C 307.753,525.16 308.088,525.368 308.484,525.524 C 308.88,525.679 309.334,525.757 309.846,525.757 C 310.131,525.757 310.409,525.735 310.68,525.69 C 310.95,525.645 311.207,525.579 311.45,525.491 C 311.693,525.404 311.92,525.3 312.131,525.178 C 312.342,525.057 312.53,524.919 312.697,524.766 L 312.16,523.762 Z" marker-start="none" marker-end="none"/>
     <path d="M 317.772,518.047 C 318.062,518.047 318.321,518.095 318.549,518.191 C 318.777,518.287 318.969,518.424 319.127,518.604 C 319.285,518.783 319.405,519.001 319.488,519.259 C 319.571,519.517 319.613,519.81 319.613,520.138 L 319.613,525.655 L 321.774,525.655 L 321.774,520.137 C 321.774,519.566 321.681,519.042 321.495,518.564 C 321.31,518.087 321.045,517.676 320.7,517.33 C 320.354,516.985 319.935,516.717 319.44,516.525 C 318.946,516.333 318.39,516.237 317.772,516.237 C 317.15,516.237 316.591,516.333 316.097,516.525 C 315.603,516.717 315.183,516.985 314.838,517.33 C 314.493,517.676 314.228,518.087 314.045,518.564 C 313.862,519.042 313.77,519.566 313.77,520.137 L 313.77,525.655 L 315.931,525.655 L 315.931,520.144 C 315.931,519.816 315.972,519.523 316.056,519.265 C 316.139,519.007 316.259,518.788 316.417,518.607 C 316.574,518.426 316.767,518.287 316.995,518.191 C 317.223,518.095 317.482,518.047 317.772,518.047 Z" marker-start="none" marker-end="none"/>
     <path d="M 327.943,520.57 C 328.029,520.407 328.111,520.237 328.19,520.061 C 328.268,519.885 328.344,519.705 328.416,519.521 C 328.489,519.71 328.566,519.893 328.647,520.071 C 328.728,520.249 328.811,520.422 328.896,520.589 L 331.287,525.326 C 331.329,525.407 331.373,525.471 331.418,525.516 C 331.462,525.561 331.513,525.594 331.568,525.616 C 331.623,525.637 331.686,525.648 331.756,525.648 C 331.827,525.648 331.909,525.648 332.003,525.648 L 333.652,525.648 L 333.652,516.34 L 331.747,516.34 L 331.747,521.627 C 331.747,521.884 331.76,522.161 331.785,522.46 L 329.318,517.746 C 329.241,517.599 329.138,517.488 329.008,517.412 C 328.878,517.337 328.73,517.299 328.563,517.299 L 328.269,517.299 C 328.103,517.299 327.955,517.337 327.825,517.412 C 327.695,517.488 327.592,517.599 327.515,517.746 L 325.035,522.466 C 325.052,522.319 325.065,522.173 325.073,522.028 C 325.082,521.883 325.086,521.749 325.086,521.627 L 325.086,516.34 L 323.181,516.34 L 323.181,525.648 L 324.83,525.648 C 324.924,525.648 325.006,525.648 325.076,525.648 C 325.147,525.648 325.21,525.637 325.265,525.616 C 325.32,525.594 325.37,525.561 325.415,525.516 C 325.46,525.471 325.504,525.407 325.546,525.326 L 327.943,520.57 Z" marker-start="none" marker-end="none"/>
     <path d="M 341.182,525.657 L 341.182,523.993 L 337.36,523.993 L 337.36,521.818 L 340.287,521.818 L 340.287,520.22 L 337.36,520.22 L 337.36,518.004 L 341.182,518.004 L 341.182,516.34 L 335.186,516.34 L 335.186,525.657 L 341.182,525.657 Z" marker-start="none" marker-end="none"/>
     <path d="M 344.57,519.786 L 344.57,516.34 L 342.409,516.34 L 342.409,525.654 L 345.439,525.654 C 346.112,525.654 346.687,525.585 347.162,525.446 C 347.637,525.307 348.025,525.114 348.325,524.867 C 348.626,524.619 348.844,524.327 348.98,523.99 C 349.117,523.653 349.185,523.286 349.185,522.889 C 349.185,522.586 349.145,522.3 349.064,522.031 C 348.983,521.763 348.862,521.514 348.702,521.286 C 348.543,521.057 348.347,520.854 348.114,520.674 C 347.882,520.495 347.615,520.348 347.312,520.233 C 347.457,520.161 347.592,520.071 347.718,519.965 C 347.844,519.858 347.953,519.729 348.047,519.575 L 350.029,516.34 L 348.073,516.34 C 347.711,516.34 347.451,516.476 347.293,516.749 L 345.746,519.453 C 345.678,519.573 345.598,519.658 345.506,519.709 C 345.415,519.76 345.286,519.786 345.119,519.786 L 344.57,519.786 Z M 344.57,521.275 L 345.439,521.275 C 345.733,521.275 345.984,521.312 346.19,521.387 C 346.397,521.461 346.566,521.565 346.698,521.697 C 346.83,521.829 346.926,521.983 346.986,522.16 C 347.046,522.337 347.076,522.528 347.076,522.733 C 347.076,523.142 346.942,523.462 346.676,523.692 C 346.41,523.922 345.997,524.037 345.439,524.037 L 344.57,524.037 L 344.57,521.275 Z" marker-start="none" marker-end="none"/>
    </g>
    <g id="Group_8" fill-rule="nonzero" stroke-linejoin="round" stroke-linecap="round" stroke="none" stroke-width="0.365" fill="#000000">
     <path d="M 319.321,553.434 C 319.247,553.316 319.17,553.228 319.09,553.17 C 319.009,553.111 318.905,553.082 318.778,553.082 C 318.666,553.082 318.545,553.117 318.416,553.188 C 318.286,553.259 318.14,553.338 317.976,553.426 C 317.812,553.514 317.626,553.594 317.416,553.664 C 317.206,553.735 316.966,553.771 316.698,553.771 C 316.234,553.771 315.888,553.672 315.661,553.474 C 315.434,553.276 315.32,553.009 315.32,552.672 C 315.32,552.456 315.389,552.278 315.525,552.137 C 315.662,551.995 315.842,551.873 316.064,551.77 C 316.286,551.668 316.54,551.574 316.826,551.488 C 317.112,551.403 317.403,551.307 317.701,551.202 C 317.999,551.097 318.291,550.974 318.577,550.832 C 318.863,550.691 319.117,550.51 319.339,550.29 C 319.561,550.07 319.741,549.803 319.877,549.488 C 320.014,549.173 320.083,548.793 320.083,548.348 C 320.083,547.855 319.997,547.393 319.826,546.963 C 319.655,546.533 319.407,546.159 319.082,545.839 C 318.758,545.519 318.357,545.267 317.881,545.084 C 317.405,544.901 316.864,544.809 316.258,544.809 C 315.926,544.809 315.588,544.843 315.243,544.912 C 314.899,544.98 314.565,545.076 314.243,545.201 C 313.921,545.326 313.618,545.473 313.335,545.644 C 313.051,545.815 312.805,546.006 312.595,546.216 L 313.327,547.374 C 313.381,547.462 313.457,547.533 313.554,547.586 C 313.652,547.64 313.757,547.667 313.869,547.667 C 314.016,547.667 314.164,547.621 314.313,547.528 C 314.462,547.435 314.63,547.332 314.818,547.22 C 315.006,547.108 315.222,547.005 315.467,546.912 C 315.711,546.819 315.999,546.773 316.331,546.773 C 316.781,546.773 317.13,546.872 317.379,547.07 C 317.628,547.267 317.753,547.582 317.753,548.011 C 317.753,548.261 317.684,548.463 317.547,548.62 C 317.411,548.776 317.231,548.905 317.009,549.008 C 316.787,549.111 316.534,549.201 316.251,549.279 C 315.967,549.357 315.677,549.444 315.379,549.539 C 315.081,549.634 314.79,549.752 314.507,549.891 C 314.224,550.03 313.971,550.213 313.749,550.441 C 313.526,550.668 313.347,550.951 313.21,551.291 C 313.073,551.63 313.005,552.049 313.005,552.547 C 313.005,552.948 313.085,553.339 313.247,553.72 C 313.408,554.101 313.645,554.44 313.957,554.738 C 314.27,555.036 314.653,555.275 315.108,555.453 C 315.562,555.631 316.082,555.72 316.668,555.72 C 316.996,555.72 317.314,555.695 317.624,555.643 C 317.935,555.592 318.229,555.516 318.507,555.416 C 318.786,555.316 319.046,555.196 319.288,555.057 C 319.529,554.918 319.746,554.76 319.936,554.584 L 319.321,553.434 Z" marker-start="none" marker-end="none"/>
     <path d="M 329.065,555.606 L 329.065,553.642 L 326.061,553.642 L 326.061,544.929 L 323.585,544.929 L 323.585,553.642 L 320.581,553.642 L 320.581,555.606 L 329.065,555.606 Z" marker-start="none" marker-end="none"/>
     <path d="M 336.966,555.606 L 336.966,553.699 L 332.584,553.699 L 332.584,551.206 L 335.94,551.206 L 335.94,549.374 L 332.584,549.374 L 332.584,546.834 L 336.966,546.834 L 336.966,544.927 L 330.093,544.927 L 330.093,555.606 L 336.966,555.606 Z" marker-start="none" marker-end="none"/>
     <path d="M 348.307,544.927 L 346.388,544.927 C 346.173,544.927 345.996,544.977 345.857,545.077 C 345.717,545.177 345.621,545.306 345.567,545.462 L 344.937,547.324 L 340.878,547.324 L 340.248,545.462 C 340.199,545.325 340.104,545.202 339.962,545.092 C 339.82,544.982 339.647,544.927 339.442,544.927 L 337.508,544.927 L 341.64,555.604 L 344.175,555.604 L 348.307,544.927 Z M 341.449,549.009 L 344.366,549.009 L 343.384,551.888 C 343.32,552.07 343.246,552.286 343.16,552.533 C 343.075,552.781 342.991,553.049 342.907,553.338 C 342.829,553.044 342.749,552.773 342.666,552.522 C 342.583,552.273 342.505,552.056 342.431,551.873 L 341.449,549.009 Z" marker-start="none" marker-end="none"/>
     <path d="M 351.646,551.281 L 352.041,551.281 C 352.408,551.281 352.671,551.396 352.833,551.625 L 355.236,555.115 C 355.368,555.305 355.518,555.435 355.686,555.503 C 355.855,555.572 356.061,555.606 356.305,555.606 L 358.46,555.606 L 355.294,551.288 C 355.182,551.132 355.065,551.002 354.943,550.9 C 354.821,550.797 354.696,550.711 354.569,550.643 C 354.755,550.575 354.924,550.48 355.078,550.361 C 355.232,550.241 355.373,550.081 355.5,549.881 L 358.723,544.927 L 356.511,544.927 C 356.369,544.927 356.248,544.937 356.148,544.956 C 356.048,544.976 355.961,545.005 355.888,545.044 C 355.815,545.083 355.751,545.131 355.697,545.187 C 355.644,545.243 355.592,545.308 355.544,545.381 L 353.126,549.097 C 353.038,549.234 352.927,549.33 352.792,549.386 C 352.658,549.442 352.476,549.47 352.246,549.47 L 351.646,549.47 L 351.646,544.927 L 349.169,544.927 L 349.169,555.606 L 351.646,555.606 L 351.646,551.281 Z" marker-start="none" marker-end="none"/>
     <path d="M 365.58,553.434 C 365.506,553.316 365.429,553.228 365.349,553.17 C 365.268,553.111 365.164,553.082 365.037,553.082 C 364.925,553.082 364.804,553.117 364.675,553.188 C 364.545,553.259 364.399,553.338 364.235,553.426 C 364.071,553.514 363.885,553.594 363.675,553.664 C 363.465,553.735 363.225,553.771 362.957,553.771 C 362.493,553.771 362.147,553.672 361.92,553.474 C 361.693,553.276 361.579,553.009 361.579,552.672 C 361.579,552.456 361.648,552.278 361.784,552.137 C 361.921,551.995 362.101,551.873 362.323,551.77 C 362.545,551.668 362.799,551.574 363.085,551.488 C 363.371,551.403 363.662,551.307 363.96,551.202 C 364.258,551.097 364.55,550.974 364.836,550.832 C 365.122,550.691 365.376,550.51 365.598,550.29 C 365.82,550.07 366,549.803 366.136,549.488 C 366.273,549.173 366.342,548.793 366.342,548.348 C 366.342,547.855 366.256,547.393 366.085,546.963 C 365.914,546.533 365.666,546.159 365.341,545.839 C 365.017,545.519 364.616,545.267 364.14,545.084 C 363.664,544.901 363.123,544.809 362.517,544.809 C 362.185,544.809 361.847,544.843 361.502,544.912 C 361.158,544.98 360.824,545.076 360.502,545.201 C 360.18,545.326 359.877,545.473 359.594,545.644 C 359.31,545.815 359.064,546.006 358.854,546.216 L 359.586,547.374 C 359.64,547.462 359.716,547.533 359.813,547.586 C 359.911,547.64 360.016,547.667 360.128,547.667 C 360.275,547.667 360.423,547.621 360.572,547.528 C 360.721,547.435 360.889,547.332 361.077,547.22 C 361.265,547.108 361.481,547.005 361.726,546.912 C 361.97,546.819 362.258,546.773 362.59,546.773 C 363.04,546.773 363.389,546.872 363.638,547.07 C 363.887,547.267 364.012,547.582 364.012,548.011 C 364.012,548.261 363.943,548.463 363.806,548.62 C 363.67,548.776 363.49,548.905 363.268,549.008 C 363.046,549.111 362.793,549.201 362.51,549.279 C 362.226,549.357 361.936,549.444 361.638,549.539 C 361.34,549.634 361.049,549.752 360.766,549.891 C 360.483,550.03 360.23,550.213 360.008,550.441 C 359.785,550.668 359.606,550.951 359.469,551.291 C 359.332,551.63 359.264,552.049 359.264,552.547 C 359.264,552.948 359.344,553.339 359.506,553.72 C 359.667,554.101 359.904,554.44 360.216,554.738 C 360.529,555.036 360.912,555.275 361.367,555.453 C 361.821,555.631 362.341,555.72 362.927,555.72 C 363.255,555.72 363.573,555.695 363.883,555.643 C 364.194,555.592 364.488,555.516 364.766,555.416 C 365.045,555.316 365.305,555.196 365.547,555.057 C 365.788,554.918 366.005,554.76 366.195,554.584 L 365.58,553.434 Z" marker-start="none" marker-end="none"/>
     <path d="M 367.191,546.217 C 367.191,546.373 367.221,546.519 367.279,546.653 C 367.338,546.788 367.422,546.905 367.532,547.005 C 367.642,547.105 367.771,547.184 367.92,547.243 C 368.069,547.302 368.237,547.331 368.422,547.331 C 368.642,547.331 368.832,547.293 368.994,547.217 C 369.155,547.142 369.289,547.039 369.397,546.91 C 369.504,546.78 369.583,546.631 369.635,546.463 C 369.686,546.294 369.712,546.117 369.712,545.931 C 369.712,545.687 369.673,545.427 369.594,545.151 C 369.516,544.875 369.4,544.598 369.246,544.319 C 369.093,544.041 368.901,543.767 368.671,543.498 C 368.442,543.23 368.178,542.985 367.88,542.766 L 367.484,543.117 C 367.431,543.171 367.39,543.221 367.363,543.268 C 367.337,543.314 367.323,543.371 367.323,543.44 C 367.323,543.489 367.34,543.541 367.374,543.597 C 367.409,543.654 367.45,543.704 367.499,543.748 C 367.558,543.806 367.626,543.877 367.704,543.96 C 367.782,544.043 367.86,544.136 367.939,544.239 C 368.017,544.341 368.089,544.454 368.155,544.576 C 368.221,544.698 368.271,544.827 368.305,544.964 C 368.134,544.979 367.98,545.02 367.843,545.089 C 367.707,545.157 367.591,545.248 367.495,545.36 C 367.4,545.472 367.326,545.6 367.272,545.745 C 367.218,545.889 367.191,546.046 367.191,546.217 Z" marker-start="none" marker-end="none"/>
     <path d="M 376.565,544.927 L 374.074,544.927 L 374.074,555.606 L 376.565,555.606 L 376.565,544.927 Z" marker-start="none" marker-end="none"/>
     <path d="M 379.845,555.606 C 379.953,555.606 380.043,555.601 380.116,555.591 C 380.19,555.582 380.256,555.563 380.314,555.536 C 380.373,555.509 380.429,555.471 380.483,555.423 C 380.537,555.374 380.598,555.308 380.666,555.225 L 385.736,548.814 C 385.717,549.019 385.702,549.218 385.692,549.411 C 385.682,549.604 385.677,549.786 385.677,549.957 L 385.677,555.606 L 387.861,555.606 L 387.861,544.927 L 386.571,544.927 C 386.381,544.927 386.22,544.956 386.088,545.015 C 385.956,545.074 385.829,545.181 385.707,545.337 L 380.673,551.697 C 380.688,551.511 380.7,551.329 380.71,551.151 C 380.72,550.973 380.725,550.806 380.725,550.649 L 380.725,544.927 L 378.541,544.927 L 378.541,555.606 L 379.845,555.606 Z" marker-start="none" marker-end="none"/>
     <path d="M 396.79,547.687 C 396.849,547.687 396.907,547.676 396.966,547.654 C 397.025,547.631 397.081,547.593 397.134,547.538 L 398.116,546.483 C 397.686,545.93 397.148,545.512 396.501,545.231 C 395.854,544.95 395.088,544.809 394.204,544.809 C 393.393,544.809 392.666,544.947 392.024,545.223 C 391.382,545.499 390.837,545.88 390.39,546.366 C 389.943,546.852 389.6,547.429 389.361,548.096 C 389.121,548.763 389.002,549.487 389.002,550.268 C 389.002,551.065 389.139,551.796 389.412,552.463 C 389.686,553.13 390.068,553.705 390.559,554.189 C 391.05,554.672 391.637,555.049 392.321,555.317 C 393.005,555.586 393.759,555.72 394.585,555.72 C 394.985,555.72 395.363,555.685 395.717,555.614 C 396.071,555.543 396.402,555.445 396.71,555.32 C 397.017,555.196 397.301,555.047 397.559,554.873 C 397.818,554.699 398.048,554.507 398.248,554.297 L 397.413,553.176 C 397.359,553.107 397.296,553.045 397.222,552.989 C 397.149,552.933 397.047,552.905 396.915,552.905 C 396.827,552.905 396.744,552.924 396.666,552.963 C 396.587,553.002 396.504,553.05 396.416,553.106 C 396.329,553.162 396.232,553.223 396.127,553.289 C 396.022,553.355 395.897,553.416 395.753,553.473 C 395.609,553.529 395.441,553.576 395.248,553.616 C 395.055,553.654 394.829,553.674 394.57,553.674 C 394.121,553.674 393.71,553.595 393.339,553.436 C 392.968,553.277 392.649,553.05 392.383,552.754 C 392.117,552.459 391.909,552.101 391.76,551.681 C 391.611,551.261 391.537,550.789 391.537,550.267 C 391.537,549.719 391.611,549.233 391.76,548.808 C 391.909,548.383 392.112,548.026 392.368,547.735 C 392.625,547.444 392.924,547.223 393.266,547.072 C 393.608,546.92 393.974,546.845 394.365,546.845 C 394.59,546.845 394.795,546.856 394.98,546.878 C 395.166,546.9 395.338,546.937 395.497,546.991 C 395.656,547.045 395.807,547.114 395.951,547.2 C 396.095,547.285 396.241,547.392 396.387,547.519 C 396.446,547.568 396.509,547.608 396.578,547.64 C 396.646,547.671 396.717,547.687 396.79,547.687 Z" marker-start="none" marker-end="none"/>
     <path d="M 398.809,546.077 C 398.809,546.253 398.842,546.417 398.908,546.568 C 398.973,546.72 399.064,546.852 399.179,546.964 C 399.293,547.077 399.429,547.166 399.585,547.232 C 399.742,547.298 399.913,547.331 400.098,547.331 C 400.279,547.331 400.447,547.298 400.604,547.232 C 400.76,547.166 400.897,547.077 401.014,546.964 C 401.131,546.852 401.223,546.72 401.289,546.568 C 401.355,546.417 401.388,546.253 401.388,546.077 C 401.388,545.901 401.355,545.736 401.289,545.582 C 401.223,545.428 401.131,545.295 401.014,545.183 C 400.897,545.07 400.76,544.982 400.604,544.919 C 400.447,544.855 400.279,544.823 400.098,544.823 C 399.913,544.823 399.742,544.855 399.585,544.919 C 399.429,544.982 399.293,545.07 399.179,545.183 C 399.064,545.295 398.973,545.428 398.908,545.582 C 398.842,545.736 398.809,545.901 398.809,546.077 Z" marker-start="none" marker-end="none"/>
    </g>
   </g>
   <path d="M 250.569,382.866 L 250.569,567.876 C 250.569,576.273 257.384,583.089 265.781,583.089 L 450.792,583.089 C 459.189,583.089 466.004,576.273 466.004,567.876 L 466.004,382.866 C 466.004,374.469 459.189,367.653 450.792,367.653 L 265.781,367.653 C 257.384,367.653 250.569,374.469 250.569,382.866 Z M 465.295,383.475 L 465.295,567.267 C 465.295,575.609 458.525,582.38 450.183,582.38 L 266.39,582.38 C 258.048,582.38 251.278,575.609 251.278,567.267 L 251.278,383.475 C 251.278,375.133 258.048,368.362 266.39,368.362 L 450.183,368.362 C 458.525,368.362 465.295,375.133 465.295,383.475 Z" stroke-linejoin="miter" stroke-width="0.802" fill="#7f7f7f" stroke="none" marker-start="none" marker-end="none"/>
  </g>
 </g>
</svg>
