<?xml version="1.0" standalone="no"?>
<!DOCTYPE svg PUBLIC "-//W3C//DTD SVG 1.1//EN" "http://www.w3.org/Graphics/SVG/1.1/DTD/svg11.dtd">
<!--Generator: Xara Designer (www.xara.com), SVG filter version: 6.2.0.0-->
<svg stroke-width="0.501" stroke-linejoin="bevel" fill-rule="evenodd" xmlns:xlink="http://www.w3.org/1999/xlink" xmlns="http://www.w3.org/2000/svg" version="1.1" overflow="visible" width="215.434pt" height="215.434pt" viewBox="0 0 215.434 215.434">
 <defs>
	</defs>
 <g id="Document" fill="none" stroke="black" font-family="Times New Roman" font-size="16" transform="scale(1 -1)">
  <g id="Spread" transform="translate(0 -215.434)">
   <g id="Layer 1">
    <path d="M 199.757,214.933 L 15.176,214.933 C 6.799,214.933 0,208.134 0,199.757 L 0,15.176 C 0,6.799 6.799,0 15.176,0 L 199.757,0 C 208.134,0 214.933,6.799 214.933,15.176 L 214.933,199.757 C 214.933,208.134 208.134,214.933 199.757,214.933 Z" stroke="#999999" fill="#ffffff" stroke-linejoin="miter" marker-start="none" marker-end="none"/>
    <g id="Group">
     <g id="Group_1" stroke-linejoin="miter" stroke-linecap="round" stroke="#ff7979">
      <path d="M 15.034,146.143 L 15.034,180.035 L 118.622,180.035 L 118.622,146.143 L 15.034,146.143 Z" fill="#ff7979" stroke-width="1.738" marker-start="none" marker-end="none" stroke-miterlimit="79.8403193612775"/>
      <path d="M 15.034,144.8 L 15.034,154.61 C 15.034,157.181 17.118,159.258 19.68,159.258 L 113.972,159.258 C 116.534,159.258 118.622,157.181 118.622,154.61 L 118.622,144.8 C 118.622,142.224 116.534,140.146 113.972,140.146 L 19.68,140.146 C 17.118,140.146 15.034,142.224 15.034,144.8 Z" fill="#ff7979" stroke-width="1.738" marker-start="none" marker-end="none" stroke-miterlimit="79.8403193612775"/>
      <path d="M 15.731,173.693 L 15.731,191.338 C 15.731,195.951 19.475,199.697 24.093,199.697 L 191.139,199.697 C 195.752,199.697 199.5,195.951 199.5,191.338 L 199.5,173.693 C 199.5,169.075 195.752,165.327 191.139,165.327 L 24.093,165.327 C 19.475,165.327 15.731,169.075 15.731,173.693 Z" fill="#ffffff" stroke-width="3.13" marker-start="none" marker-end="none" stroke-miterlimit="79.8403193612775"/>
     </g>
     <g id="Group_2" fill="#ff3718" stroke-linecap="round" stroke="none">
      <path d="M 0.534,114.753 L 0.534,123.287 L 49.697,123.287 L 49.697,114.753 L 0.534,114.753 Z" stroke-width="0.103" stroke-linejoin="miter" marker-start="none" marker-end="none" stroke-miterlimit="79.8403193612775"/>
      <path d="M 100.139,94.521 C 87.871,107.96 71.058,114.789 54.185,114.792 L 54.185,123.271 C 73.357,123.266 92.47,115.516 106.404,100.247 C 118.778,86.686 124.879,69.609 124.874,52.586 L 116.388,52.586 C 116.395,67.568 111.026,82.595 100.139,94.521 Z" stroke-width="0.541" stroke-linejoin="round" marker-start="none" marker-end="none" stroke-miterlimit="79.8403193612775"/>
      <path d="M 120.647,14.633 L 118.529,17.678 L 116.407,20.731 L 116.354,20.731 L 116.354,48.008 L 124.89,48.008 L 124.89,20.731 L 122.77,17.678 L 120.647,14.633 Z" stroke-width="0.103" stroke-linejoin="miter" marker-start="none" marker-end="none" stroke-miterlimit="79.8403193612775"/>
     </g>
     <g id="Group_3" stroke-linecap="round" stroke="none" fill="#e5e5e5">
      <path d="M 109.097,14.629 L 106.977,17.675 L 104.856,20.731 L 109.097,20.731 L 113.338,20.727 L 111.215,17.675 L 109.097,14.629 Z M 104.833,20.731 L 104.833,48.008 L 113.367,48.008 L 113.367,20.731 L 104.833,20.731 Z" stroke-width="0.103" stroke-linejoin="miter" marker-start="none" marker-end="none" stroke-miterlimit="79.8403193612775"/>
      <path d="M 91.785,86.899 C 81.745,97.89 67.99,103.477 54.185,103.482 L 54.185,111.963 C 70.292,111.959 86.342,105.444 98.051,92.616 C 108.445,81.229 113.565,66.886 113.562,52.586 L 105.076,52.586 C 105.086,64.843 100.691,77.135 91.785,86.899 Z" stroke-width="0.453" stroke-linejoin="round" marker-start="none" marker-end="none" stroke-miterlimit="79.8403193612775"/>
      <path d="M 0.534,103.45 L 0.534,111.982 L 49.697,111.982 L 49.697,103.45 L 0.534,103.45 Z" stroke-width="0.103" stroke-linejoin="miter" marker-start="none" marker-end="none" stroke-miterlimit="79.8403193612775"/>
     </g>
     <g id="Group_4" stroke-linecap="round" stroke="none" fill="#e5e5e5">
      <path d="M 97.781,14.629 L 95.665,17.675 L 93.544,20.731 L 97.785,20.731 L 102.028,20.727 L 99.908,17.675 L 97.781,14.629 Z M 93.535,20.731 L 93.535,48.008 L 102.07,48.008 L 102.07,20.731 L 93.535,20.731 Z" stroke-width="0.103" stroke-linejoin="miter" marker-start="none" marker-end="none" stroke-miterlimit="79.8403193612775"/>
      <path d="M 0.534,92.152 L 0.534,100.683 L 49.697,100.683 L 49.697,92.152 L 0.534,92.152 Z" stroke-width="0.103" stroke-linejoin="miter" marker-start="none" marker-end="none" stroke-miterlimit="79.8403193612775"/>
      <path d="M 83.43,79.272 C 75.623,87.824 64.918,92.164 54.185,92.17 L 54.185,100.654 C 67.227,100.651 80.217,95.378 89.696,84.989 C 98.107,75.774 102.255,64.158 102.253,52.586 L 93.771,52.586 C 93.771,62.118 90.357,71.683 83.43,79.272 Z" stroke-width="0.368" stroke-linejoin="round" marker-start="none" marker-end="none" stroke-miterlimit="79.8403193612775"/>
     </g>
     <g id="Group_5" fill="#e5e5e5" stroke-linecap="round" stroke="none">
      <path d="M 0.534,80.856 L 0.534,89.39 L 49.697,89.39 L 49.697,80.856 L 0.534,80.856 Z" stroke-width="0.103" stroke-linejoin="miter" marker-start="none" marker-end="none" stroke-miterlimit="79.8403193612775"/>
      <path d="M 75.075,71.651 C 69.497,77.758 61.859,80.858 54.185,80.861 L 54.185,89.348 C 64.155,89.339 74.094,85.306 81.337,77.368 C 87.776,70.319 90.947,61.442 90.943,52.586 L 82.455,52.586 C 82.462,59.393 80.02,66.225 75.075,71.651 Z" stroke-width="0.281" stroke-linejoin="round" marker-start="none" marker-end="none" stroke-miterlimit="79.8403193612775"/>
      <path d="M 86.728,14.633 L 84.596,17.678 L 82.455,20.731 L 82.455,20.731 L 82.455,48.008 L 90.994,48.008 L 90.994,20.731 L 90.994,20.731 L 88.864,17.675 L 86.728,14.633 Z" stroke-width="0.103" stroke-linejoin="miter" marker-start="none" marker-end="none" stroke-miterlimit="79.8403193612775"/>
     </g>
     <g id="Group_6" stroke-linejoin="miter" stroke-miterlimit="79.8403193612775">
      <path d="M 21.384,24.928 C 12.487,35.468 13.812,51.254 24.364,60.138 C 34.895,69.052 50.66,67.72 59.561,57.182 C 68.475,46.642 67.139,30.868 56.585,21.965 C 46.054,13.069 30.282,14.4 21.384,24.928 Z" stroke="none" fill="#000000" stroke-width="1.039" marker-start="none" marker-end="none" stroke-miterlimit="19.9600798403194"/>
      <path d="M 22.561,25.885 C 13.674,36.43 14.99,52.183 25.534,61.1 C 36.077,69.973 51.844,68.658 60.761,58.12 C 69.655,47.583 68.322,31.8 57.775,22.903 C 47.247,14.007 31.466,15.331 22.561,25.885 Z" stroke="#b2b2b2" stroke-width="5.658" marker-start="none" marker-end="none" stroke-miterlimit="19.9600798403194"/>
     </g>
     <g id="Group_7" stroke-linejoin="miter" stroke-miterlimit="79.8403193612775">
      <path d="M 168.755,100.725 C 162.855,107.703 163.734,118.163 170.729,124.072 C 177.711,129.964 188.164,129.085 194.068,122.098 C 199.977,115.106 199.091,104.652 192.094,98.747 C 185.112,92.852 174.655,93.731 168.755,100.725 Z" stroke="none" fill="#000000" stroke-width="0.686" marker-start="none" marker-end="none" stroke-miterlimit="19.9600798403194"/>
      <path d="M 169.533,101.334 C 163.642,108.332 164.514,118.791 171.507,124.684 C 178.496,130.593 188.948,129.71 194.864,122.717 C 200.761,115.735 199.876,105.283 192.882,99.378 C 185.903,93.472 175.439,94.351 169.533,101.334 Z" stroke="#b2b2b2" stroke-width="3.752" marker-start="none" marker-end="none" stroke-miterlimit="19.9600798403194"/>
     </g>
     <g id="Group_8" stroke-linejoin="miter" stroke-miterlimit="79.8403193612775">
      <path d="M 19.258,93.532 C 14.733,98.888 15.409,106.904 20.767,111.428 C 26.123,115.951 34.144,115.279 38.663,109.921 C 43.188,104.565 42.513,96.546 37.154,92.026 C 31.8,87.498 23.78,88.181 19.258,93.532 Z" stroke="none" fill="#ffffff" stroke-width="0.526" marker-start="none" marker-end="none" stroke-miterlimit="19.9600798403194"/>
      <path d="M 19.861,94.014 C 15.337,99.363 16.013,107.385 21.369,111.906 C 26.728,116.434 34.744,115.756 39.268,110.397 C 43.796,105.046 43.119,97.023 37.759,92.499 C 32.399,87.978 24.384,88.652 19.861,94.014 Z" fill="none" stroke="#55bae6" stroke-width="2.872" marker-start="none" marker-end="none" stroke-miterlimit="19.9600798403194"/>
     </g>
     <g id="Group_9" stroke-linejoin="miter" stroke-miterlimit="79.8403193612775">
      <path d="M 76.566,81.583 C 72.045,86.934 72.72,94.953 78.077,99.481 C 83.434,103.997 91.453,103.324 95.977,97.966 C 100.5,92.612 99.82,84.595 94.466,80.072 C 89.11,75.548 81.091,76.224 76.566,81.583 Z" stroke="none" fill="#ffffff" stroke-width="0.526" marker-start="none" marker-end="none" stroke-miterlimit="19.9600798403194"/>
      <path d="M 77.175,82.061 C 72.647,87.415 73.321,95.431 78.681,99.955 C 84.039,104.48 92.054,103.806 96.579,98.444 C 101.107,93.088 100.422,85.071 95.071,80.545 C 89.711,76.02 81.696,76.701 77.175,82.061 Z" fill="none" stroke="#55bae6" stroke-width="2.872" marker-start="none" marker-end="none" stroke-miterlimit="19.9600798403194"/>
     </g>
     <g id="Group_10" stroke-linejoin="miter" stroke-miterlimit="79.8403193612775">
      <path d="M 93.354,23.953 C 88.83,29.309 89.509,37.326 94.864,41.854 C 100.225,46.375 108.244,45.697 112.767,40.339 C 117.295,34.987 116.613,26.964 111.256,22.445 C 105.896,17.926 97.88,18.6 93.354,23.953 Z" stroke="none" fill="#ffffff" stroke-width="0.526" marker-start="none" marker-end="none" stroke-miterlimit="19.9600798403194"/>
      <path d="M 93.961,24.437 C 89.437,29.788 90.114,37.807 95.472,42.332 C 100.832,46.853 108.847,46.179 113.37,40.819 C 117.896,35.466 117.219,27.446 111.863,22.925 C 106.501,18.4 98.484,19.076 93.961,24.437 Z" fill="none" stroke="#55bae6" stroke-width="2.872" marker-start="none" marker-end="none" stroke-miterlimit="19.9600798403194"/>
     </g>
     <g id="Group_11" stroke-linejoin="miter" stroke-miterlimit="79.8403193612775">
      <path d="M 128.07,100.712 C 122.17,107.701 123.049,118.169 130.046,124.06 C 137.029,129.971 147.483,129.088 153.385,122.1 C 159.296,115.111 158.41,104.651 151.412,98.747 C 144.429,92.848 133.97,93.731 128.07,100.712 Z" stroke="none" fill="#ffffff" stroke-width="0.689" marker-start="none" marker-end="none" stroke-miterlimit="19.9600798403194"/>
      <path d="M 128.85,101.347 C 122.957,108.339 123.83,118.785 130.822,124.698 C 137.813,130.582 148.268,129.71 154.181,122.722 C 160.079,115.735 159.195,105.269 152.201,99.369 C 145.22,93.47 134.755,94.348 128.85,101.347 Z" stroke="#55bae6" stroke-width="3.752" marker-start="none" marker-end="none" stroke-miterlimit="19.9600798403194"/>
     </g>
     <g id="Group_12" stroke-linejoin="miter" stroke-miterlimit="79.8403193612775">
      <path d="M 152.095,24.917 C 143.198,35.457 144.523,51.243 155.075,60.127 C 165.606,69.041 181.371,67.709 190.272,57.171 C 199.186,46.631 197.85,30.857 187.296,21.954 C 176.765,13.058 160.993,14.389 152.095,24.917 Z" stroke="none" fill="#ffffff" stroke-width="1.039" marker-start="none" marker-end="none" stroke-miterlimit="19.9600798403194"/>
      <path d="M 153.272,25.874 C 144.385,36.419 145.701,52.172 156.245,61.089 C 166.788,69.962 182.555,68.647 191.472,58.109 C 200.366,47.572 199.033,31.789 188.486,22.892 C 177.958,13.996 162.177,15.32 153.272,25.874 Z" stroke="#55bae6" stroke-width="5.658" marker-start="none" marker-end="none" stroke-miterlimit="19.9600798403194"/>
     </g>
     <text xml:space="preserve" transform="translate(175.511 104.93) scale(1 -1)" font-family="Lato Black" stroke="none" fill="#b2b2b2" stroke-width="0.485" stroke-linejoin="round" stroke-linecap="round" font-weight="bold" font-size="19.491" stroke-miterlimit="79.8403193612775"><tspan x="0" y="0">1</tspan></text>
     <text xml:space="preserve" transform="translate(20.483 96.472) scale(1 -1)" font-family="Lato Black" stroke="none" fill="#000000" stroke-width="0.387" stroke-linejoin="round" stroke-linecap="round" font-weight="bold" font-size="15.564" stroke-miterlimit="79.8403193612775"><tspan x="0" y="0">+1</tspan></text>
     <text xml:space="preserve" transform="translate(135.756 104.93) scale(1 -1)" font-family="Lato Black" stroke="none" fill="#000000" stroke-width="0.485" stroke-linejoin="round" stroke-linecap="round" font-weight="bold" font-size="19.491" stroke-miterlimit="79.8403193612775"><tspan x="0" y="0">3</tspan></text>
     <text xml:space="preserve" transform="translate(77.22 85.327) scale(1 -1)" font-family="Lato Black" stroke="none" fill="#000000" stroke-width="0.387" stroke-linejoin="round" stroke-linecap="round" font-weight="bold" font-size="15.564" stroke-miterlimit="79.8403193612775"><tspan x="0" y="0">+1</tspan></text>
     <text xml:space="preserve" transform="translate(94.615 26.953) scale(1 -1)" font-family="Lato Black" stroke="none" fill="#000000" stroke-width="0.387" stroke-linejoin="round" stroke-linecap="round" font-weight="bold" font-size="15.564" stroke-miterlimit="79.8403193612775"><tspan x="0" y="0">+1</tspan></text>
     <text xml:space="preserve" transform="translate(27.344 148.689) scale(1 -1)" font-family="Lato Black" stroke="none" fill="#ffffff" stroke-width="0.319" stroke-linejoin="round" stroke-linecap="round" font-weight="bold" font-size="12.785" stroke-miterlimit="79.8403193612775"><tspan x="0" y="0">CONSUMER</tspan></text>
     <text xml:space="preserve" transform="translate(43.6 177.276) scale(1 -1)" font-family="Lato Black" stroke="none" fill="#000000" stroke-width="0.365" stroke-linejoin="round" stroke-linecap="round" font-weight="bold" font-size="14.654" stroke-miterlimit="79.8403193612775"><tspan x="0" y="0">SMAR</tspan><tspan x="41.805" y="0">TPHONE, INC.</tspan></text>
    </g>
   </g>
  </g>
 </g>
</svg>
