<?xml version="1.0" standalone="no"?>
<!DOCTYPE svg PUBLIC "-//W3C//DTD SVG 1.1//EN" "http://www.w3.org/Graphics/SVG/1.1/DTD/svg11.dtd">
<!--Generator: Xara Designer (www.xara.com), SVG filter version: 6.6.0.0-->
<svg fill="none" fill-rule="evenodd" stroke="black" stroke-width="0.501" stroke-linejoin="bevel" stroke-miterlimit="10" font-family="Times New Roman" font-size="16" style="font-variant-ligatures:none" xmlns:xlink="http://www.w3.org/1999/xlink" xmlns="http://www.w3.org/2000/svg" version="1.1" overflow="visible" width="215.435pt" height="215.436pt" viewBox="24.039 -562.755 215.435 215.436">
 <defs>
	</defs>
 <g id="Page background" transform="scale(1 -1)"/>
 <g id="Layer 1" transform="scale(1 -1)">
  <g id="Group">
   <g id="Group_1">
    <g id="Group_2" stroke-linejoin="miter" stroke="none" stroke-width="0.802">
     <path d="M 24.039,547.542 L 24.039,362.532 C 24.039,354.135 30.854,347.319 39.251,347.319 L 224.262,347.319 C 232.659,347.319 239.474,354.135 239.474,362.532 L 239.474,547.542 C 239.474,555.939 232.659,562.755 224.262,562.755 L 39.251,562.755 C 30.854,562.755 24.039,555.939 24.039,547.542 Z" fill="#7f7f7f" marker-start="none" marker-end="none"/>
     <path d="M 24.748,546.933 L 24.748,363.141 C 24.748,354.799 31.518,348.028 39.86,348.028 L 223.653,348.028 C 231.995,348.028 238.765,354.799 238.765,363.141 L 238.765,546.933 C 238.765,555.275 231.995,562.046 223.653,562.046 L 39.86,562.046 C 31.518,562.046 24.748,555.275 24.748,546.933 Z" marker-start="none" marker-end="none"/>
     <path d="M 24.748,546.933 L 24.748,363.141 C 24.748,354.799 31.518,348.028 39.86,348.028 L 223.653,348.028 C 231.995,348.028 238.765,354.799 238.765,363.141 L 238.765,546.933 C 238.765,555.275 231.995,562.046 223.653,562.046 L 39.86,562.046 C 31.518,562.046 24.748,555.275 24.748,546.933 Z" fill="#ffffff" marker-start="none" marker-end="none"/>
    </g>
    <path d="M 39.044,493.435 L 39.044,527.327 L 142.632,527.327 L 142.632,493.435 L 39.044,493.435 Z" stroke-linejoin="miter" stroke-linecap="round" stroke="#95afc0" fill="#95afc0" stroke-width="1.738" marker-start="none" marker-end="none"/>
    <path d="M 39.044,492.092 L 39.044,501.902 C 39.044,504.473 41.128,506.55 43.69,506.55 L 137.982,506.55 C 140.544,506.55 142.632,504.473 142.632,501.902 L 142.632,492.092 C 142.632,489.516 140.544,487.438 137.982,487.438 L 43.69,487.438 C 41.128,487.438 39.044,489.516 39.044,492.092 Z" stroke-linejoin="miter" stroke-linecap="round" stroke="#95afc0" fill="#95afc0" stroke-width="1.738" marker-start="none" marker-end="none"/>
    <path d="M 39.741,520.985 L 39.741,538.63 C 39.741,543.243 43.485,546.989 48.103,546.989 L 215.149,546.989 C 219.762,546.989 223.51,543.243 223.51,538.63 L 223.51,520.985 C 223.51,516.367 219.762,512.619 215.149,512.619 L 48.103,512.619 C 43.485,512.619 39.741,516.367 39.741,520.985 Z" stroke-linejoin="miter" stroke-linecap="round" stroke="#95afc0" fill="#ffffff" stroke-width="3.13" marker-start="none" marker-end="none"/>
    <path d="M 124.503,347.758 L 115.969,347.758 L 115.969,396.921 L 124.503,396.921 L 124.503,347.758 Z" stroke-linecap="round" stroke="none" fill="#e5e5e5" stroke-width="0.103" stroke-linejoin="miter" marker-start="none" marker-end="none"/>
    <path d="M 144.735,447.363 C 131.296,435.095 124.467,418.282 124.464,401.409 L 115.985,401.409 C 115.99,420.581 123.74,439.694 139.009,453.628 C 152.57,466.002 169.647,472.103 186.67,472.098 L 186.67,463.612 C 171.688,463.619 156.661,458.25 144.735,447.363 Z" stroke-linecap="round" stroke="none" fill="#e5e5e5" stroke-width="0.541" stroke-linejoin="round" marker-start="none" marker-end="none"/>
    <path d="M 224.623,467.871 L 221.578,465.753 L 218.525,463.631 L 218.525,463.578 L 191.248,463.578 L 191.248,472.114 L 218.525,472.114 L 221.578,469.994 L 224.623,467.871 Z" stroke-linecap="round" stroke="none" fill="#e5e5e5" stroke-width="0.103" stroke-linejoin="miter" marker-start="none" marker-end="none"/>
    <path d="M 224.627,456.321 L 221.581,454.201 L 218.525,452.08 L 218.525,456.321 L 218.529,460.562 L 221.581,458.439 L 224.627,456.321 Z M 218.525,452.057 L 191.248,452.057 L 191.248,460.591 L 218.525,460.591 L 218.525,452.057 Z" stroke-linecap="round" stroke="none" fill="#e5e5e5" stroke-width="0.103" stroke-linejoin="miter" marker-start="none" marker-end="none"/>
    <path d="M 152.357,439.009 C 141.366,428.969 135.779,415.214 135.774,401.409 L 127.293,401.409 C 127.297,417.516 133.812,433.566 146.64,445.275 C 158.027,455.669 172.37,460.789 186.67,460.786 L 186.67,452.3 C 174.413,452.31 162.121,447.915 152.357,439.009 Z" stroke-linecap="round" stroke="none" fill="#e5e5e5" stroke-width="0.453" stroke-linejoin="round" marker-start="none" marker-end="none"/>
    <path d="M 135.806,347.758 L 127.274,347.758 L 127.274,396.921 L 135.806,396.921 L 135.806,347.758 Z" stroke-linecap="round" stroke="none" fill="#e5e5e5" stroke-width="0.103" stroke-linejoin="miter" marker-start="none" marker-end="none"/>
    <path d="M 224.627,445.005 L 221.581,442.889 L 218.525,440.768 L 218.525,445.009 L 218.529,449.252 L 221.581,447.132 L 224.627,445.005 Z M 218.525,440.759 L 191.248,440.759 L 191.248,449.294 L 218.525,449.294 L 218.525,440.759 Z" stroke-linecap="round" stroke="none" fill="#e5e5e5" stroke-width="0.103" stroke-linejoin="miter" marker-start="none" marker-end="none"/>
    <path d="M 147.104,347.758 L 138.573,347.758 L 138.573,396.921 L 147.104,396.921 L 147.104,347.758 Z" stroke-linecap="round" stroke="none" fill="#e5e5e5" stroke-width="0.103" stroke-linejoin="miter" marker-start="none" marker-end="none"/>
    <path d="M 159.984,430.654 C 151.432,422.847 147.092,412.142 147.086,401.409 L 138.602,401.409 C 138.605,414.451 143.878,427.441 154.267,436.92 C 163.482,445.331 175.098,449.479 186.67,449.477 L 186.67,440.995 C 177.138,440.995 167.573,437.581 159.984,430.654 Z" stroke-linecap="round" stroke="none" fill="#e5e5e5" stroke-width="0.368" stroke-linejoin="round" marker-start="none" marker-end="none"/>
    <path d="M 158.4,347.758 L 149.866,347.758 L 149.866,396.921 L 158.4,396.921 L 158.4,347.758 Z" stroke-linecap="round" stroke="none" fill="#11a7e0" stroke-width="0.103" stroke-linejoin="miter" marker-start="none" marker-end="none"/>
    <path d="M 167.605,422.299 C 161.498,416.721 158.398,409.083 158.395,401.409 L 149.908,401.409 C 149.917,411.379 153.95,421.318 161.888,428.561 C 168.937,435 177.814,438.171 186.67,438.167 L 186.67,429.679 C 179.863,429.686 173.031,427.244 167.605,422.299 Z" stroke-linecap="round" stroke="none" fill="#11a7e0" stroke-width="0.281" stroke-linejoin="round" marker-start="none" marker-end="none"/>
    <path d="M 224.623,433.952 L 221.578,431.82 L 218.525,429.679 L 218.525,429.679 L 191.248,429.679 L 191.248,438.218 L 218.525,438.218 L 218.525,438.218 L 221.581,436.088 L 224.623,433.952 Z" stroke-linecap="round" stroke="none" fill="#11a7e0" stroke-width="0.103" stroke-linejoin="miter" marker-start="none" marker-end="none"/>
    <path d="M 83.539,436.477 C 77.639,443.455 78.518,453.915 85.513,459.824 C 92.495,465.716 102.948,464.837 108.852,457.85 C 114.761,450.858 113.875,440.404 106.878,434.499 C 99.896,428.604 89.439,429.483 83.539,436.477 Z" stroke-linejoin="miter" stroke="none" fill="#000000" stroke-width="0.686" marker-start="none" marker-end="none"/>
    <path d="M 84.317,437.086 C 78.426,444.084 79.298,454.543 86.291,460.436 C 93.28,466.345 103.732,465.462 109.648,458.469 C 115.545,451.487 114.66,441.035 107.666,435.13 C 100.687,429.224 90.223,430.103 84.317,437.086 Z" stroke-linejoin="miter" stroke="#b2b2b2" stroke-width="3.752" marker-start="none" marker-end="none"/>
    <path d="M 42.854,436.464 C 36.954,443.453 37.833,453.921 44.83,459.812 C 51.813,465.723 62.267,464.84 68.169,457.852 C 74.08,450.863 73.194,440.403 66.196,434.499 C 59.213,428.6 48.754,429.483 42.854,436.464 Z" stroke-linejoin="miter" stroke="none" fill="#ffffff" stroke-width="0.689" marker-start="none" marker-end="none"/>
    <path d="M 43.634,437.099 C 37.741,444.091 38.614,454.537 45.606,460.45 C 52.597,466.334 63.052,465.462 68.965,458.474 C 74.863,451.487 73.979,441.021 66.985,435.121 C 60.004,429.222 49.539,430.1 43.634,437.099 Z" stroke-linejoin="miter" stroke="#539bc5" stroke-width="3.752" marker-start="none" marker-end="none"/>
    <path d="M 45.394,372.22 C 36.497,382.76 37.822,398.546 48.374,407.43 C 58.905,416.344 74.67,415.012 83.571,404.474 C 92.485,393.934 91.149,378.16 80.595,369.257 C 70.064,360.361 54.292,361.692 45.394,372.22 Z" stroke-linejoin="miter" stroke="none" fill="#ffffff" stroke-width="1.039" marker-start="none" marker-end="none"/>
    <path d="M 46.571,373.177 C 37.684,383.722 39,399.475 49.544,408.392 C 60.087,417.265 75.854,415.95 84.771,405.412 C 93.665,394.875 92.332,379.092 81.785,370.195 C 71.257,361.299 55.476,362.623 46.571,373.177 Z" stroke-linejoin="miter" stroke="#539bc5" stroke-width="5.658" marker-start="none" marker-end="none"/>
    <path d="M 176.984,371.816 C 168.087,382.356 169.412,398.142 179.964,407.026 C 190.495,415.94 206.26,414.608 215.161,404.07 C 224.075,393.53 222.739,377.756 212.185,368.853 C 201.654,359.957 185.882,361.288 176.984,371.816 Z" stroke-linejoin="miter" stroke="none" fill="#000000" stroke-width="1.039" marker-start="none" marker-end="none"/>
    <path d="M 178.161,372.773 C 169.274,383.318 170.59,399.071 181.134,407.988 C 191.677,416.861 207.444,415.546 216.361,405.008 C 225.255,394.471 223.922,378.688 213.375,369.791 C 202.847,360.895 187.066,362.219 178.161,372.773 Z" stroke-linejoin="miter" stroke="#b2b2b2" stroke-width="5.658" marker-start="none" marker-end="none"/>
    <path d="M 126.744,368.116 C 122.219,373.472 122.895,381.488 128.253,386.012 C 133.609,390.535 141.63,389.863 146.149,384.505 C 150.674,379.149 149.999,371.13 144.64,366.61 C 139.286,362.082 131.266,362.765 126.744,368.116 Z" stroke-linejoin="miter" stroke="none" fill="#ffffff" stroke-width="0.526" marker-start="none" marker-end="none"/>
    <path d="M 127.347,368.598 C 122.823,373.947 123.499,381.969 128.855,386.49 C 134.214,391.018 142.23,390.34 146.754,384.981 C 151.282,379.63 150.605,371.607 145.245,367.083 C 139.885,362.562 131.87,363.236 127.347,368.598 Z" fill="none" stroke-linejoin="miter" stroke="#539bc5" stroke-width="2.872" marker-start="none" marker-end="none"/>
    <path d="M 138.695,425.43 C 134.174,430.781 134.849,438.8 140.206,443.328 C 145.563,447.844 153.582,447.171 158.106,441.813 C 162.629,436.459 161.949,428.442 156.595,423.919 C 151.239,419.395 143.22,420.071 138.695,425.43 Z" stroke-linejoin="miter" stroke="none" fill="#ffffff" stroke-width="0.526" marker-start="none" marker-end="none"/>
    <path d="M 139.304,425.908 C 134.776,431.262 135.45,439.278 140.81,443.802 C 146.168,448.327 154.183,447.653 158.708,442.291 C 163.236,436.935 162.551,428.918 157.2,424.392 C 151.84,419.867 143.825,420.548 139.304,425.908 Z" fill="none" stroke-linejoin="miter" stroke="#539bc5" stroke-width="2.872" marker-start="none" marker-end="none"/>
    <path d="M 196.316,442.215 C 191.792,447.571 192.471,455.588 197.826,460.116 C 203.187,464.637 211.206,463.959 215.729,458.601 C 220.257,453.249 219.575,445.226 214.218,440.707 C 208.858,436.188 200.842,436.862 196.316,442.215 Z" stroke-linejoin="miter" stroke="none" fill="#ffffff" stroke-width="0.526" marker-start="none" marker-end="none"/>
    <path d="M 196.923,442.699 C 192.399,448.05 193.076,456.069 198.434,460.594 C 203.794,465.115 211.809,464.441 216.332,459.081 C 220.858,453.728 220.181,445.708 214.825,441.187 C 209.463,436.662 201.446,437.338 196.923,442.699 Z" fill="none" stroke-linejoin="miter" stroke="#539bc5" stroke-width="2.872" marker-start="none" marker-end="none"/>
    <g id="Group_3" fill-rule="nonzero" stroke-linejoin="round" stroke-linecap="round" stroke="none" stroke-width="0.485" fill="#b2b2b2">
     <g id="Group_4">
      <path d="M 96.162,455.038 C 96.863,455.038 97.495,454.936 98.057,454.731 C 98.619,454.527 99.098,454.242 99.495,453.879 C 99.891,453.515 100.195,453.081 100.406,452.578 C 100.617,452.074 100.723,451.52 100.723,450.916 C 100.723,450.396 100.65,449.915 100.503,449.473 C 100.357,449.031 100.157,448.611 99.904,448.211 C 99.651,447.812 99.357,447.425 99.022,447.051 C 98.687,446.678 98.332,446.299 97.955,445.916 L 95.177,443.07 C 95.535,443.175 95.887,443.258 96.235,443.32 C 96.582,443.383 96.909,443.413 97.214,443.413 L 99.865,443.413 C 100.19,443.413 100.446,443.324 100.635,443.145 C 100.823,442.966 100.918,442.73 100.918,442.438 L 100.918,440.682 L 90.938,440.682 L 90.938,441.657 C 90.938,441.845 90.977,442.046 91.055,442.261 C 91.133,442.475 91.27,442.67 91.464,442.846 L 95.558,446.969 C 95.908,447.32 96.214,447.655 96.474,447.973 C 96.733,448.291 96.948,448.605 97.117,448.913 C 97.286,449.222 97.412,449.531 97.497,449.839 C 97.581,450.148 97.624,450.475 97.624,450.819 C 97.624,451.384 97.489,451.818 97.219,452.12 C 96.949,452.422 96.539,452.574 95.986,452.574 C 95.759,452.574 95.551,452.541 95.363,452.476 C 95.174,452.411 95.005,452.323 94.856,452.213 C 94.706,452.103 94.578,451.973 94.471,451.823 C 94.364,451.674 94.278,451.511 94.213,451.336 C 94.109,451.044 93.977,450.833 93.818,450.703 C 93.659,450.573 93.443,450.508 93.17,450.508 C 93.105,450.508 93.035,450.511 92.96,450.517 C 92.886,450.524 92.809,450.533 92.731,450.546 L 91.133,450.824 C 91.237,451.533 91.437,452.151 91.732,452.678 C 92.028,453.205 92.395,453.643 92.834,453.995 C 93.272,454.346 93.774,454.607 94.339,454.78 C 94.905,454.952 95.512,455.038 96.162,455.038 Z" marker-start="none" marker-end="none"/>
     </g>
    </g>
    <g id="Group_5" fill-rule="nonzero" stroke-linejoin="round" stroke-linecap="round" stroke="none" stroke-width="0.485" fill="#000000">
     <g id="Group_6">
      <path d="M 60.052,446.197 L 61.513,446.197 L 61.513,444.502 C 61.513,444.352 61.463,444.223 61.362,444.112 C 61.262,444.002 61.117,443.946 60.929,443.946 L 60.052,443.946 L 60.052,440.682 L 57.42,440.682 L 57.42,443.946 L 51.709,443.946 C 51.521,443.946 51.35,444.005 51.198,444.122 C 51.045,444.239 50.949,444.385 50.91,444.56 L 50.598,446.052 L 57.167,454.884 L 60.052,454.884 L 60.052,446.197 Z M 57.42,449.901 C 57.42,450.129 57.428,450.374 57.445,450.637 C 57.461,450.9 57.485,451.171 57.518,451.451 L 53.766,446.197 L 57.42,446.197 L 57.42,449.901 Z" marker-start="none" marker-end="none"/>
     </g>
    </g>
    <g id="Group_7" fill-rule="nonzero" stroke-linejoin="round" stroke-linecap="round" stroke="none" stroke-width="0.319" fill="#ffffff">
     <g id="Group_8">
      <path d="M 51.534,499.096 L 51.534,495.983 L 49.373,495.983 L 49.373,505.298 L 52.659,505.298 C 53.315,505.298 53.879,505.22 54.35,505.065 C 54.82,504.909 55.208,504.695 55.513,504.422 C 55.818,504.149 56.042,503.827 56.187,503.457 C 56.332,503.086 56.405,502.685 56.405,502.255 C 56.405,501.79 56.33,501.364 56.181,500.976 C 56.032,500.588 55.804,500.255 55.497,499.978 C 55.19,499.701 54.801,499.485 54.33,499.329 C 53.859,499.174 53.302,499.096 52.659,499.096 L 51.534,499.096 Z M 51.534,500.725 L 52.659,500.725 C 53.221,500.725 53.626,500.86 53.873,501.128 C 54.121,501.397 54.244,501.773 54.244,502.254 C 54.244,502.468 54.212,502.662 54.148,502.837 C 54.084,503.012 53.987,503.162 53.857,503.288 C 53.727,503.413 53.563,503.511 53.365,503.579 C 53.167,503.647 52.932,503.681 52.659,503.681 L 51.534,503.681 L 51.534,500.725 Z" marker-start="none" marker-end="none"/>
      <path d="M 59.693,499.427 L 59.693,495.981 L 57.532,495.981 L 57.532,505.295 L 60.562,505.295 C 61.235,505.295 61.81,505.226 62.285,505.087 C 62.76,504.948 63.148,504.755 63.448,504.508 C 63.749,504.26 63.967,503.968 64.103,503.631 C 64.24,503.294 64.308,502.927 64.308,502.53 C 64.308,502.227 64.268,501.941 64.187,501.672 C 64.106,501.404 63.985,501.155 63.825,500.927 C 63.666,500.698 63.47,500.495 63.237,500.315 C 63.005,500.136 62.738,499.989 62.435,499.874 C 62.58,499.802 62.715,499.712 62.841,499.606 C 62.967,499.499 63.076,499.37 63.17,499.216 L 65.152,495.981 L 63.196,495.981 C 62.834,495.981 62.574,496.117 62.416,496.39 L 60.869,499.094 C 60.801,499.214 60.721,499.299 60.629,499.35 C 60.538,499.401 60.409,499.427 60.242,499.427 L 59.693,499.427 Z M 59.693,500.916 L 60.562,500.916 C 60.856,500.916 61.107,500.953 61.313,501.028 C 61.52,501.102 61.689,501.206 61.821,501.338 C 61.953,501.47 62.049,501.624 62.109,501.801 C 62.169,501.978 62.199,502.169 62.199,502.374 C 62.199,502.783 62.065,503.103 61.799,503.333 C 61.533,503.563 61.12,503.678 60.562,503.678 L 59.693,503.678 L 59.693,500.916 Z" marker-start="none" marker-end="none"/>
      <path d="M 74.908,500.641 C 74.908,499.968 74.792,499.341 74.56,498.762 C 74.328,498.182 74.001,497.678 73.579,497.249 C 73.157,496.821 72.649,496.485 72.054,496.242 C 71.46,495.999 70.8,495.878 70.076,495.878 C 69.351,495.878 68.691,495.999 68.094,496.242 C 67.497,496.485 66.987,496.821 66.563,497.249 C 66.139,497.678 65.811,498.182 65.579,498.762 C 65.346,499.341 65.23,499.968 65.23,500.641 C 65.23,501.315 65.346,501.941 65.579,502.521 C 65.811,503.101 66.139,503.603 66.563,504.03 C 66.987,504.456 67.497,504.791 68.094,505.034 C 68.691,505.276 69.351,505.398 70.076,505.398 C 70.8,505.398 71.46,505.275 72.054,505.03 C 72.649,504.785 73.157,504.45 73.579,504.023 C 74.001,503.597 74.328,503.094 74.56,502.514 C 74.792,501.935 74.908,501.31 74.908,500.641 Z M 72.697,500.641 C 72.697,501.101 72.637,501.515 72.518,501.884 C 72.398,502.252 72.227,502.565 72.003,502.82 C 71.779,503.076 71.505,503.272 71.182,503.408 C 70.858,503.544 70.489,503.612 70.076,503.613 C 69.658,503.612 69.286,503.544 68.96,503.408 C 68.634,503.272 68.359,503.076 68.136,502.82 C 67.912,502.565 67.74,502.252 67.621,501.884 C 67.502,501.515 67.442,501.101 67.442,500.641 C 67.442,500.177 67.502,499.76 67.621,499.392 C 67.74,499.023 67.912,498.711 68.136,498.456 C 68.359,498.2 68.634,498.005 68.96,497.871 C 69.286,497.737 69.658,497.67 70.076,497.67 C 70.489,497.67 70.858,497.737 71.182,497.871 C 71.505,498.005 71.779,498.2 72.003,498.456 C 72.227,498.711 72.398,499.023 72.518,499.392 C 72.637,499.76 72.697,500.177 72.697,500.641 Z" marker-start="none" marker-end="none"/>
      <path d="M 84.393,500.643 C 84.393,499.969 84.277,499.348 84.044,498.779 C 83.812,498.21 83.485,497.717 83.063,497.302 C 82.641,496.886 82.133,496.562 81.539,496.33 C 80.944,496.097 80.285,495.981 79.56,495.981 L 75.942,495.981 L 75.942,505.298 L 79.56,505.298 C 80.285,505.298 80.944,505.181 81.539,504.946 C 82.133,504.712 82.641,504.388 83.063,503.974 C 83.485,503.561 83.812,503.069 84.044,502.5 C 84.277,501.931 84.393,501.312 84.393,500.643 Z M 82.181,500.643 C 82.181,501.103 82.121,501.518 82.002,501.889 C 81.883,502.26 81.711,502.574 81.487,502.832 C 81.264,503.09 80.99,503.288 80.666,503.427 C 80.342,503.565 79.974,503.634 79.56,503.634 L 78.116,503.634 L 78.116,497.645 L 79.56,497.645 C 79.974,497.645 80.342,497.714 80.666,497.852 C 80.99,497.991 81.264,498.189 81.487,498.447 C 81.711,498.705 81.883,499.019 82.002,499.39 C 82.121,499.761 82.181,500.178 82.181,500.643 Z" marker-start="none" marker-end="none"/>
      <path d="M 89.305,497.688 C 89.595,497.688 89.854,497.736 90.082,497.832 C 90.31,497.928 90.502,498.065 90.66,498.245 C 90.818,498.424 90.938,498.642 91.021,498.9 C 91.104,499.158 91.146,499.451 91.146,499.779 L 91.146,505.296 L 93.307,505.296 L 93.307,499.778 C 93.307,499.207 93.214,498.683 93.028,498.205 C 92.843,497.728 92.578,497.317 92.233,496.971 C 91.887,496.626 91.468,496.358 90.973,496.166 C 90.479,495.974 89.923,495.878 89.305,495.878 C 88.683,495.878 88.124,495.974 87.63,496.166 C 87.136,496.358 86.716,496.626 86.371,496.971 C 86.026,497.317 85.761,497.728 85.578,498.205 C 85.395,498.683 85.303,499.207 85.303,499.778 L 85.303,505.296 L 87.464,505.296 L 87.464,499.785 C 87.464,499.457 87.505,499.164 87.589,498.906 C 87.672,498.648 87.792,498.429 87.95,498.248 C 88.107,498.067 88.3,497.928 88.528,497.832 C 88.756,497.736 89.015,497.688 89.305,497.688 Z" marker-start="none" marker-end="none"/>
      <path d="M 100.972,498.389 C 101.023,498.389 101.075,498.38 101.126,498.36 C 101.177,498.34 101.226,498.307 101.273,498.259 L 102.129,497.338 C 101.754,496.856 101.284,496.492 100.72,496.246 C 100.155,496.001 99.487,495.878 98.716,495.878 C 98.008,495.878 97.374,495.998 96.814,496.239 C 96.254,496.48 95.778,496.813 95.388,497.237 C 94.999,497.661 94.699,498.164 94.49,498.746 C 94.282,499.327 94.177,499.959 94.177,500.641 C 94.177,501.336 94.296,501.974 94.535,502.556 C 94.774,503.138 95.107,503.64 95.536,504.062 C 95.964,504.484 96.476,504.812 97.073,505.046 C 97.67,505.281 98.328,505.398 99.048,505.398 C 99.398,505.398 99.727,505.367 100.036,505.305 C 100.345,505.243 100.633,505.158 100.902,505.049 C 101.17,504.94 101.418,504.81 101.643,504.658 C 101.869,504.507 102.07,504.339 102.244,504.156 L 101.516,503.178 C 101.469,503.118 101.413,503.064 101.349,503.015 C 101.285,502.966 101.196,502.941 101.081,502.941 C 101.004,502.941 100.932,502.958 100.864,502.992 C 100.795,503.026 100.723,503.068 100.646,503.117 C 100.57,503.166 100.485,503.219 100.394,503.277 C 100.302,503.334 100.193,503.388 100.068,503.437 C 99.942,503.486 99.795,503.527 99.627,503.561 C 99.458,503.595 99.261,503.612 99.035,503.613 C 98.643,503.612 98.285,503.543 97.961,503.405 C 97.638,503.266 97.359,503.068 97.127,502.81 C 96.895,502.552 96.714,502.24 96.584,501.874 C 96.454,501.507 96.389,501.096 96.389,500.64 C 96.389,500.162 96.454,499.738 96.584,499.367 C 96.714,498.997 96.891,498.684 97.114,498.431 C 97.338,498.177 97.599,497.984 97.898,497.852 C 98.196,497.72 98.515,497.654 98.856,497.654 C 99.052,497.654 99.231,497.664 99.393,497.683 C 99.555,497.702 99.705,497.735 99.844,497.782 C 99.982,497.829 100.115,497.889 100.24,497.964 C 100.366,498.039 100.493,498.131 100.621,498.242 C 100.672,498.285 100.727,498.32 100.787,498.348 C 100.847,498.375 100.908,498.389 100.972,498.389 Z" marker-start="none" marker-end="none"/>
      <path d="M 109.88,505.298 L 109.88,503.584 L 107.259,503.584 L 107.259,495.983 L 105.099,495.983 L 105.099,503.584 L 102.478,503.584 L 102.478,505.298 L 109.88,505.298 Z" marker-start="none" marker-end="none"/>
      <path d="M 113.142,495.981 L 110.969,495.981 L 110.969,505.298 L 113.142,505.298 L 113.142,495.981 Z" marker-start="none" marker-end="none"/>
      <path d="M 124.058,500.641 C 124.058,499.968 123.942,499.341 123.71,498.762 C 123.478,498.182 123.151,497.678 122.729,497.249 C 122.307,496.821 121.799,496.485 121.204,496.242 C 120.61,495.999 119.95,495.878 119.226,495.878 C 118.501,495.878 117.841,495.999 117.244,496.242 C 116.647,496.485 116.137,496.821 115.713,497.249 C 115.289,497.678 114.961,498.182 114.729,498.762 C 114.496,499.341 114.38,499.968 114.38,500.641 C 114.38,501.315 114.496,501.941 114.729,502.521 C 114.961,503.101 115.289,503.603 115.713,504.03 C 116.137,504.456 116.647,504.791 117.244,505.034 C 117.841,505.276 118.501,505.398 119.226,505.398 C 119.95,505.398 120.61,505.275 121.204,505.03 C 121.799,504.785 122.307,504.45 122.729,504.023 C 123.151,503.597 123.478,503.094 123.71,502.514 C 123.942,501.935 124.058,501.31 124.058,500.641 Z M 121.847,500.641 C 121.847,501.101 121.787,501.515 121.668,501.884 C 121.548,502.252 121.377,502.565 121.153,502.82 C 120.929,503.076 120.655,503.272 120.332,503.408 C 120.008,503.544 119.639,503.612 119.226,503.613 C 118.808,503.612 118.436,503.544 118.11,503.408 C 117.784,503.272 117.509,503.076 117.286,502.82 C 117.062,502.565 116.89,502.252 116.771,501.884 C 116.652,501.515 116.592,501.101 116.592,500.641 C 116.592,500.177 116.652,499.76 116.771,499.392 C 116.89,499.023 117.062,498.711 117.286,498.456 C 117.509,498.2 117.784,498.005 118.11,497.871 C 118.436,497.737 118.808,497.67 119.226,497.67 C 119.639,497.67 120.008,497.737 120.332,497.871 C 120.655,498.005 120.929,498.2 121.153,498.456 C 121.377,498.711 121.548,499.023 121.668,499.392 C 121.787,499.76 121.847,500.177 121.847,500.641 Z" marker-start="none" marker-end="none"/>
      <path d="M 126.23,505.298 C 126.324,505.298 126.403,505.294 126.466,505.285 C 126.53,505.277 126.588,505.261 126.639,505.237 C 126.69,505.214 126.739,505.181 126.786,505.138 C 126.833,505.095 126.886,505.038 126.946,504.966 L 131.369,499.372 C 131.352,499.551 131.34,499.725 131.331,499.893 C 131.323,500.061 131.318,500.22 131.318,500.37 L 131.318,505.298 L 133.223,505.298 L 133.223,495.981 L 132.098,495.981 C 131.932,495.981 131.791,496.007 131.676,496.058 C 131.561,496.109 131.45,496.203 131.344,496.339 L 126.952,501.888 C 126.965,501.726 126.976,501.567 126.984,501.411 C 126.993,501.256 126.997,501.11 126.997,500.973 L 126.997,495.981 L 125.092,495.981 L 125.092,505.298 L 126.23,505.298 Z" marker-start="none" marker-end="none"/>
     </g>
    </g>
    <g id="Group_9" fill-rule="nonzero" stroke-linejoin="round" stroke-linecap="round" stroke="none" stroke-width="0.365" fill="#000000">
     <g id="Group_10">
      <path d="M 89.314,524.479 L 87.395,524.479 C 87.18,524.479 87.003,524.529 86.864,524.629 C 86.724,524.729 86.628,524.858 86.574,525.014 L 85.944,526.876 L 81.885,526.876 L 81.255,525.014 C 81.206,524.877 81.111,524.754 80.969,524.644 C 80.827,524.534 80.654,524.479 80.449,524.479 L 78.515,524.479 L 82.647,535.156 L 85.182,535.156 L 89.314,524.479 Z M 82.456,528.561 L 85.373,528.561 L 84.391,531.44 C 84.327,531.622 84.253,531.838 84.167,532.085 C 84.082,532.333 83.998,532.601 83.914,532.89 C 83.836,532.596 83.756,532.325 83.673,532.074 C 83.59,531.825 83.512,531.608 83.438,531.425 L 82.456,528.561 Z" marker-start="none" marker-end="none"/>
      <path d="M 92.887,524.479 L 90.396,524.479 L 90.396,535.158 L 92.887,535.158 L 92.887,524.479 Z" marker-start="none" marker-end="none"/>
      <path d="M 97.34,528.429 L 97.34,524.479 L 94.863,524.479 L 94.863,535.154 L 98.336,535.154 C 99.108,535.154 99.766,535.075 100.311,534.916 C 100.855,534.757 101.3,534.536 101.644,534.252 C 101.989,533.968 102.239,533.633 102.395,533.247 C 102.551,532.861 102.63,532.44 102.63,531.985 C 102.63,531.638 102.583,531.31 102.49,531.002 C 102.398,530.694 102.26,530.409 102.076,530.147 C 101.893,529.886 101.669,529.652 101.402,529.447 C 101.136,529.242 100.83,529.073 100.483,528.941 C 100.649,528.858 100.804,528.755 100.948,528.633 C 101.092,528.512 101.218,528.363 101.325,528.187 L 103.597,524.479 L 101.355,524.479 C 100.94,524.479 100.642,524.635 100.461,524.948 L 98.688,528.048 C 98.61,528.184 98.518,528.282 98.413,528.341 C 98.308,528.399 98.16,528.429 97.97,528.429 L 97.34,528.429 Z M 97.34,530.135 L 98.336,530.135 C 98.673,530.135 98.96,530.178 99.197,530.263 C 99.434,530.349 99.628,530.467 99.779,530.619 C 99.931,530.77 100.041,530.947 100.109,531.15 C 100.178,531.353 100.212,531.572 100.212,531.806 C 100.212,532.275 100.059,532.642 99.754,532.905 C 99.449,533.169 98.976,533.301 98.336,533.301 L 97.34,533.301 L 97.34,530.135 Z" marker-start="none" marker-end="none"/>
      <path d="M 111.417,527.239 C 111.476,527.239 111.534,527.228 111.593,527.206 C 111.652,527.183 111.708,527.145 111.761,527.09 L 112.743,526.035 C 112.313,525.482 111.775,525.064 111.128,524.783 C 110.481,524.502 109.715,524.361 108.831,524.361 C 108.02,524.361 107.293,524.499 106.651,524.775 C 106.009,525.051 105.464,525.432 105.017,525.918 C 104.57,526.404 104.227,526.981 103.988,527.648 C 103.748,528.315 103.629,529.039 103.629,529.82 C 103.629,530.617 103.766,531.348 104.039,532.015 C 104.313,532.682 104.695,533.257 105.186,533.741 C 105.677,534.224 106.264,534.601 106.948,534.869 C 107.632,535.138 108.386,535.272 109.212,535.272 C 109.612,535.272 109.99,535.237 110.344,535.166 C 110.698,535.095 111.029,534.997 111.337,534.872 C 111.644,534.748 111.928,534.599 112.186,534.425 C 112.445,534.251 112.675,534.059 112.875,533.849 L 112.04,532.728 C 111.986,532.659 111.923,532.597 111.849,532.541 C 111.776,532.485 111.674,532.457 111.542,532.457 C 111.454,532.457 111.371,532.476 111.293,532.515 C 111.214,532.554 111.131,532.602 111.043,532.658 C 110.956,532.714 110.859,532.775 110.754,532.841 C 110.649,532.907 110.524,532.968 110.38,533.025 C 110.236,533.081 110.068,533.128 109.875,533.168 C 109.682,533.206 109.456,533.226 109.197,533.226 C 108.748,533.226 108.337,533.147 107.966,532.988 C 107.595,532.829 107.276,532.602 107.01,532.306 C 106.744,532.011 106.536,531.653 106.387,531.233 C 106.238,530.813 106.164,530.341 106.164,529.819 C 106.164,529.271 106.238,528.785 106.387,528.36 C 106.536,527.935 106.739,527.578 106.995,527.287 C 107.252,526.996 107.551,526.775 107.893,526.624 C 108.235,526.472 108.601,526.397 108.992,526.397 C 109.217,526.397 109.422,526.408 109.607,526.43 C 109.793,526.452 109.965,526.489 110.124,526.543 C 110.283,526.597 110.434,526.666 110.578,526.752 C 110.722,526.837 110.868,526.944 111.014,527.071 C 111.073,527.12 111.136,527.16 111.205,527.192 C 111.273,527.223 111.344,527.239 111.417,527.239 Z" marker-start="none" marker-end="none"/>
      <path d="M 116.352,528.429 L 116.352,524.479 L 113.875,524.479 L 113.875,535.154 L 117.348,535.154 C 118.12,535.154 118.778,535.075 119.323,534.916 C 119.867,534.757 120.312,534.536 120.656,534.252 C 121.001,533.968 121.251,533.633 121.407,533.247 C 121.563,532.861 121.642,532.44 121.642,531.985 C 121.642,531.638 121.595,531.31 121.502,531.002 C 121.41,530.694 121.272,530.409 121.088,530.147 C 120.905,529.886 120.681,529.652 120.414,529.447 C 120.148,529.242 119.842,529.073 119.495,528.941 C 119.661,528.858 119.816,528.755 119.96,528.633 C 120.104,528.512 120.23,528.363 120.337,528.187 L 122.609,524.479 L 120.367,524.479 C 119.952,524.479 119.654,524.635 119.473,524.948 L 117.7,528.048 C 117.622,528.184 117.53,528.282 117.425,528.341 C 117.32,528.399 117.172,528.429 116.982,528.429 L 116.352,528.429 Z M 116.352,530.135 L 117.348,530.135 C 117.685,530.135 117.972,530.178 118.209,530.263 C 118.446,530.349 118.64,530.467 118.791,530.619 C 118.943,530.77 119.053,530.947 119.121,531.15 C 119.19,531.353 119.224,531.572 119.224,531.806 C 119.224,532.275 119.071,532.642 118.766,532.905 C 118.461,533.169 117.988,533.301 117.348,533.301 L 116.352,533.301 L 116.352,530.135 Z" marker-start="none" marker-end="none"/>
      <path d="M 133.556,524.479 L 131.637,524.479 C 131.422,524.479 131.245,524.529 131.106,524.629 C 130.966,524.729 130.87,524.858 130.816,525.014 L 130.186,526.876 L 126.127,526.876 L 125.497,525.014 C 125.448,524.877 125.353,524.754 125.211,524.644 C 125.069,524.534 124.896,524.479 124.691,524.479 L 122.757,524.479 L 126.889,535.156 L 129.424,535.156 L 133.556,524.479 Z M 126.698,528.561 L 129.615,528.561 L 128.633,531.44 C 128.569,531.622 128.495,531.838 128.409,532.085 C 128.324,532.333 128.24,532.601 128.156,532.89 C 128.078,532.596 127.998,532.325 127.915,532.074 C 127.832,531.825 127.754,531.608 127.68,531.425 L 126.698,528.561 Z" marker-start="none" marker-end="none"/>
      <path d="M 141.291,535.154 L 141.291,533.248 L 136.909,533.248 L 136.909,530.547 L 140.558,530.547 L 140.558,528.632 L 136.909,528.632 L 136.909,524.477 L 134.418,524.477 L 134.418,535.154 L 141.291,535.154 Z" marker-start="none" marker-end="none"/>
      <path d="M 150.334,535.158 L 150.334,533.194 L 147.33,533.194 L 147.33,524.481 L 144.854,524.481 L 144.854,533.194 L 141.85,533.194 L 141.85,535.158 L 150.334,535.158 Z" marker-start="none" marker-end="none"/>
      <path d="M 149.663,525.769 C 149.663,525.925 149.693,526.071 149.751,526.205 C 149.81,526.34 149.894,526.457 150.004,526.557 C 150.114,526.657 150.243,526.736 150.392,526.795 C 150.541,526.854 150.709,526.883 150.894,526.883 C 151.114,526.883 151.304,526.845 151.466,526.769 C 151.627,526.694 151.761,526.591 151.869,526.462 C 151.976,526.332 152.055,526.183 152.107,526.015 C 152.158,525.846 152.184,525.669 152.184,525.483 C 152.184,525.239 152.145,524.979 152.066,524.703 C 151.988,524.427 151.872,524.15 151.718,523.871 C 151.565,523.593 151.373,523.319 151.143,523.05 C 150.914,522.782 150.65,522.537 150.352,522.318 L 149.956,522.669 C 149.903,522.723 149.862,522.773 149.835,522.82 C 149.809,522.866 149.795,522.923 149.795,522.992 C 149.795,523.041 149.812,523.093 149.846,523.149 C 149.881,523.206 149.922,523.256 149.971,523.3 C 150.03,523.358 150.098,523.429 150.176,523.512 C 150.254,523.595 150.332,523.688 150.411,523.791 C 150.489,523.893 150.561,524.006 150.627,524.128 C 150.693,524.25 150.743,524.379 150.777,524.516 C 150.606,524.531 150.452,524.572 150.315,524.641 C 150.179,524.709 150.063,524.8 149.967,524.912 C 149.872,525.024 149.798,525.152 149.744,525.297 C 149.69,525.441 149.663,525.598 149.663,525.769 Z" marker-start="none" marker-end="none"/>
      <path d="M 159.037,524.479 L 156.546,524.479 L 156.546,535.158 L 159.037,535.158 L 159.037,524.479 Z" marker-start="none" marker-end="none"/>
      <path d="M 162.317,535.158 C 162.425,535.158 162.515,535.153 162.588,535.143 C 162.662,535.134 162.728,535.115 162.786,535.088 C 162.845,535.061 162.901,535.023 162.955,534.975 C 163.009,534.926 163.07,534.86 163.138,534.777 L 168.208,528.366 C 168.189,528.571 168.174,528.77 168.164,528.963 C 168.154,529.156 168.149,529.338 168.149,529.509 L 168.149,535.158 L 170.333,535.158 L 170.333,524.479 L 169.043,524.479 C 168.853,524.479 168.692,524.508 168.56,524.567 C 168.428,524.626 168.301,524.733 168.179,524.889 L 163.145,531.249 C 163.16,531.063 163.172,530.881 163.182,530.703 C 163.192,530.525 163.197,530.358 163.197,530.201 L 163.197,524.479 L 161.013,524.479 L 161.013,535.158 L 162.317,535.158 Z" marker-start="none" marker-end="none"/>
      <path d="M 179.262,527.239 C 179.321,527.239 179.379,527.228 179.438,527.206 C 179.497,527.183 179.553,527.145 179.606,527.09 L 180.588,526.035 C 180.158,525.482 179.62,525.064 178.973,524.783 C 178.326,524.502 177.56,524.361 176.676,524.361 C 175.865,524.361 175.138,524.499 174.496,524.775 C 173.854,525.051 173.309,525.432 172.862,525.918 C 172.415,526.404 172.072,526.981 171.833,527.648 C 171.593,528.315 171.474,529.039 171.474,529.82 C 171.474,530.617 171.611,531.348 171.884,532.015 C 172.158,532.682 172.54,533.257 173.031,533.741 C 173.522,534.224 174.109,534.601 174.793,534.869 C 175.477,535.138 176.231,535.272 177.057,535.272 C 177.457,535.272 177.835,535.237 178.189,535.166 C 178.543,535.095 178.874,534.997 179.182,534.872 C 179.489,534.748 179.773,534.599 180.031,534.425 C 180.29,534.251 180.52,534.059 180.72,533.849 L 179.885,532.728 C 179.831,532.659 179.768,532.597 179.694,532.541 C 179.621,532.485 179.519,532.457 179.387,532.457 C 179.299,532.457 179.216,532.476 179.138,532.515 C 179.059,532.554 178.976,532.602 178.888,532.658 C 178.801,532.714 178.704,532.775 178.599,532.841 C 178.494,532.907 178.369,532.968 178.225,533.025 C 178.081,533.081 177.913,533.128 177.72,533.168 C 177.527,533.206 177.301,533.226 177.042,533.226 C 176.593,533.226 176.182,533.147 175.811,532.988 C 175.44,532.829 175.121,532.602 174.855,532.306 C 174.589,532.011 174.381,531.653 174.232,531.233 C 174.083,530.813 174.009,530.341 174.009,529.819 C 174.009,529.271 174.083,528.785 174.232,528.36 C 174.381,527.935 174.584,527.578 174.84,527.287 C 175.097,526.996 175.396,526.775 175.738,526.624 C 176.08,526.472 176.446,526.397 176.837,526.397 C 177.062,526.397 177.267,526.408 177.452,526.43 C 177.638,526.452 177.81,526.489 177.969,526.543 C 178.128,526.597 178.279,526.666 178.423,526.752 C 178.567,526.837 178.713,526.944 178.859,527.071 C 178.918,527.12 178.981,527.16 179.05,527.192 C 179.118,527.223 179.189,527.239 179.262,527.239 Z" marker-start="none" marker-end="none"/>
      <path d="M 181.281,525.629 C 181.281,525.805 181.314,525.969 181.38,526.12 C 181.445,526.272 181.536,526.404 181.651,526.516 C 181.765,526.629 181.901,526.718 182.057,526.784 C 182.214,526.85 182.385,526.883 182.57,526.883 C 182.751,526.883 182.919,526.85 183.076,526.784 C 183.232,526.718 183.369,526.629 183.486,526.516 C 183.603,526.404 183.695,526.272 183.761,526.12 C 183.827,525.969 183.86,525.805 183.86,525.629 C 183.86,525.453 183.827,525.288 183.761,525.134 C 183.695,524.98 183.603,524.847 183.486,524.735 C 183.369,524.622 183.232,524.534 183.076,524.471 C 182.919,524.407 182.751,524.375 182.57,524.375 C 182.385,524.375 182.214,524.407 182.057,524.471 C 181.901,524.534 181.765,524.622 181.651,524.735 C 181.536,524.847 181.445,524.98 181.38,525.134 C 181.314,525.288 181.281,525.453 181.281,525.629 Z" marker-start="none" marker-end="none"/>
     </g>
    </g>
    <g id="Group_11" fill-rule="nonzero" stroke-linejoin="round" stroke-linecap="round" stroke="none" stroke-width="0.387" fill="#000000">
     <g id="Group_12">
      <path d="M 133.448,380.233 L 133.448,377.151 L 136.327,377.151 L 136.327,375.422 L 133.448,375.422 L 133.448,372.325 L 131.487,372.325 L 131.487,375.422 L 128.623,375.422 L 128.623,377.151 L 131.487,377.151 L 131.487,380.233 L 133.448,380.233 Z" marker-start="none" marker-end="none"/>
      <path d="M 141.682,382.52 C 142.242,382.52 142.747,382.438 143.195,382.275 C 143.644,382.112 144.027,381.885 144.343,381.594 C 144.66,381.304 144.902,380.957 145.071,380.555 C 145.24,380.153 145.324,379.711 145.324,379.228 C 145.324,378.813 145.266,378.429 145.149,378.076 C 145.032,377.723 144.873,377.387 144.67,377.068 C 144.468,376.749 144.233,376.441 143.966,376.142 C 143.699,375.844 143.415,375.542 143.114,375.236 L 140.896,372.963 C 141.181,373.047 141.463,373.113 141.74,373.163 C 142.018,373.213 142.278,373.237 142.522,373.237 L 144.639,373.237 C 144.898,373.237 145.103,373.166 145.254,373.023 C 145.404,372.88 145.48,372.692 145.48,372.458 L 145.48,371.056 L 137.511,371.056 L 137.511,371.834 C 137.511,371.985 137.542,372.146 137.604,372.317 C 137.666,372.488 137.775,372.644 137.931,372.784 L 141.199,376.076 C 141.48,376.357 141.723,376.624 141.931,376.878 C 142.138,377.132 142.31,377.383 142.445,377.629 C 142.579,377.876 142.681,378.122 142.748,378.369 C 142.815,378.615 142.849,378.876 142.849,379.151 C 142.849,379.602 142.742,379.949 142.526,380.19 C 142.311,380.431 141.983,380.552 141.542,380.552 C 141.36,380.552 141.194,380.526 141.044,380.474 C 140.893,380.422 140.758,380.352 140.639,380.264 C 140.52,380.176 140.417,380.072 140.332,379.953 C 140.246,379.833 140.177,379.704 140.125,379.564 C 140.042,379.33 139.937,379.162 139.81,379.058 C 139.683,378.954 139.511,378.902 139.293,378.902 C 139.241,378.902 139.185,378.905 139.125,378.91 C 139.066,378.915 139.005,378.923 138.943,378.933 L 137.666,379.155 C 137.749,379.721 137.909,380.215 138.145,380.635 C 138.381,381.056 138.674,381.406 139.024,381.687 C 139.374,381.967 139.775,382.176 140.227,382.314 C 140.678,382.451 141.163,382.52 141.682,382.52 Z" marker-start="none" marker-end="none"/>
     </g>
    </g>
    <g id="Group_13" fill-rule="nonzero" stroke-linejoin="round" stroke-linecap="round" stroke="none" stroke-width="0.387" fill="#000000">
     <g id="Group_14">
      <path d="M 144.828,438.351 L 144.828,435.269 L 147.707,435.269 L 147.707,433.54 L 144.828,433.54 L 144.828,430.443 L 142.867,430.443 L 142.867,433.54 L 140.003,433.54 L 140.003,435.269 L 142.867,435.269 L 142.867,438.351 L 144.828,438.351 Z" marker-start="none" marker-end="none"/>
      <path d="M 150.338,430.918 L 152.517,430.918 L 152.517,436.638 C 152.517,436.919 152.525,437.212 152.54,437.518 L 151.256,436.451 C 151.173,436.384 151.09,436.336 151.007,436.307 C 150.924,436.279 150.844,436.265 150.766,436.265 C 150.631,436.265 150.511,436.294 150.404,436.354 C 150.298,436.414 150.219,436.477 150.167,436.545 L 149.404,437.557 L 152.937,440.522 L 154.93,440.522 L 154.93,430.918 L 156.797,430.918 L 156.797,429.174 L 150.338,429.174 L 150.338,430.918 Z" marker-start="none" marker-end="none"/>
     </g>
    </g>
    <g id="Group_15" fill-rule="nonzero" stroke-linejoin="round" stroke-linecap="round" stroke="none" stroke-width="0.387" fill="#000000">
     <g id="Group_16">
      <path d="M 202.451,453.914 L 202.451,450.832 L 205.33,450.832 L 205.33,449.103 L 202.451,449.103 L 202.451,446.006 L 200.49,446.006 L 200.49,449.103 L 197.626,449.103 L 197.626,450.832 L 200.49,450.832 L 200.49,453.914 L 202.451,453.914 Z" marker-start="none" marker-end="none"/>
      <path d="M 207.961,446.481 L 210.14,446.481 L 210.14,452.201 C 210.14,452.482 210.148,452.775 210.163,453.081 L 208.879,452.014 C 208.796,451.947 208.713,451.899 208.63,451.87 C 208.547,451.842 208.467,451.828 208.389,451.828 C 208.254,451.828 208.134,451.857 208.027,451.917 C 207.921,451.977 207.842,452.04 207.79,452.108 L 207.027,453.12 L 210.56,456.085 L 212.553,456.085 L 212.553,446.481 L 214.42,446.481 L 214.42,444.737 L 207.961,444.737 L 207.961,446.481 Z" marker-start="none" marker-end="none"/>
     </g>
    </g>
   </g>
   <path d="M 24.039,362.532 L 24.039,547.542 C 24.039,555.939 30.854,562.755 39.251,562.755 L 224.262,562.755 C 232.659,562.755 239.474,555.939 239.474,547.542 L 239.474,362.532 C 239.474,354.135 232.659,347.319 224.262,347.319 L 39.251,347.319 C 30.854,347.319 24.039,354.135 24.039,362.532 Z M 238.765,363.141 L 238.765,546.933 C 238.765,555.275 231.995,562.046 223.653,562.046 L 39.86,562.046 C 31.518,562.046 24.748,555.275 24.748,546.933 L 24.748,363.141 C 24.748,354.799 31.518,348.028 39.86,348.028 L 223.653,348.028 C 231.995,348.028 238.765,354.799 238.765,363.141 Z" stroke-linejoin="miter" stroke-width="0.802" fill="#7f7f7f" stroke="none" marker-start="none" marker-end="none"/>
  </g>
 </g>
</svg>
