<?xml version="1.0" standalone="no"?>
<!DOCTYPE svg PUBLIC "-//W3C//DTD SVG 1.1//EN" "http://www.w3.org/Graphics/SVG/1.1/DTD/svg11.dtd">
<!--Generator: Xara Designer (www.xara.com), SVG filter version: 6.6.0.0-->
<svg fill="none" fill-rule="evenodd" stroke="black" stroke-width="0.501" stroke-linejoin="bevel" stroke-miterlimit="10" font-family="Times New Roman" font-size="16" style="font-variant-ligatures:none" xmlns:xlink="http://www.w3.org/1999/xlink" xmlns="http://www.w3.org/2000/svg" version="1.1" overflow="visible" width="215.435pt" height="215.436pt" viewBox="280.721 -562.753 215.435 215.436">
 <defs>
	</defs>
 <g id="Page background" transform="scale(1 -1)"/>
 <g id="Layer 1" transform="scale(1 -1)">
  <g id="Group" stroke-linejoin="miter">
   <g id="Group_1">
    <path d="M 280.721,547.54 L 280.721,362.53 C 280.721,354.133 287.536,347.317 295.933,347.317 L 480.944,347.317 C 489.341,347.317 496.156,354.133 496.156,362.53 L 496.156,547.54 C 496.156,555.937 489.341,562.753 480.944,562.753 L 295.933,562.753 C 287.536,562.753 280.721,555.937 280.721,547.54 Z" stroke="none" stroke-width="0.802" fill="#7f7f7f" marker-start="none" marker-end="none"/>
    <path d="M 281.43,546.931 L 281.43,363.139 C 281.43,354.797 288.2,348.026 296.542,348.026 L 480.335,348.026 C 488.677,348.026 495.447,354.797 495.447,363.139 L 495.447,546.931 C 495.447,555.273 488.677,562.044 480.335,562.044 L 296.542,562.044 C 288.2,562.044 281.43,555.273 281.43,546.931 Z" stroke="none" stroke-width="0.802" marker-start="none" marker-end="none"/>
    <path d="M 281.43,546.931 L 281.43,363.139 C 281.43,354.797 288.2,348.026 296.542,348.026 L 480.335,348.026 C 488.677,348.026 495.447,354.797 495.447,363.139 L 495.447,546.931 C 495.447,555.273 488.677,562.044 480.335,562.044 L 296.542,562.044 C 288.2,562.044 281.43,555.273 281.43,546.931 Z" stroke="none" stroke-width="0.802" fill="#ffffff" marker-start="none" marker-end="none"/>
    <path d="M 295.723,493.432 L 295.723,527.324 L 399.311,527.324 L 399.311,493.432 L 295.723,493.432 Z" fill="#95afc0" stroke="#95afc0" stroke-linecap="round" stroke-width="1.737" marker-start="none" marker-end="none"/>
    <path d="M 295.723,492.089 L 295.723,501.899 C 295.723,504.47 297.807,506.546 300.369,506.546 L 394.661,506.546 C 397.223,506.546 399.311,504.47 399.311,501.899 L 399.311,492.089 C 399.311,489.513 397.223,487.434 394.661,487.434 L 300.369,487.434 C 297.807,487.434 295.723,489.513 295.723,492.089 Z" fill="#95afc0" stroke="#95afc0" stroke-linecap="round" stroke-width="1.737" marker-start="none" marker-end="none"/>
    <path d="M 296.42,520.981 L 296.42,538.626 C 296.42,543.24 300.164,546.986 304.782,546.986 L 471.828,546.986 C 476.441,546.986 480.189,543.24 480.189,538.626 L 480.189,520.981 C 480.189,516.363 476.441,512.615 471.828,512.615 L 304.782,512.615 C 300.164,512.615 296.42,516.363 296.42,520.981 Z" stroke="#95afc0" stroke-linecap="round" stroke-width="3.13" fill="#ffffff" marker-start="none" marker-end="none"/>
    <path d="M 381.182,347.754 L 372.648,347.754 L 372.648,396.917 L 381.182,396.917 L 381.182,347.754 Z" fill="#ff3718" stroke="none" stroke-width="0.103" stroke-linecap="round" marker-start="none" marker-end="none"/>
    <path d="M 401.414,447.359 C 387.975,435.091 381.146,418.278 381.143,401.405 L 372.664,401.405 C 372.669,420.577 380.419,439.69 395.688,453.624 C 409.249,465.998 426.326,472.099 443.349,472.094 L 443.349,463.608 C 428.367,463.616 413.34,458.246 401.414,447.359 Z" fill="#ff3718" stroke="none" stroke-width="0.54" stroke-linecap="round" marker-start="none" marker-end="none"/>
    <path d="M 481.302,467.868 L 478.257,465.749 L 475.204,463.627 L 475.204,463.575 L 447.927,463.575 L 447.927,472.11 L 475.204,472.11 L 478.257,469.991 L 481.302,467.868 Z" fill="#ff3718" stroke="none" stroke-width="0.103" stroke-linecap="round" marker-start="none" marker-end="none"/>
    <path d="M 481.306,456.317 L 478.26,454.197 L 475.204,452.077 L 475.204,456.317 L 475.208,460.558 L 478.26,458.436 L 481.306,456.317 Z M 475.204,452.053 L 447.927,452.053 L 447.927,460.588 L 475.204,460.588 L 475.204,452.053 Z" stroke="none" fill="#e5e5e5" stroke-width="0.103" stroke-linecap="round" marker-start="none" marker-end="none"/>
    <path d="M 409.035,439.006 C 398.045,428.966 392.458,415.21 392.453,401.405 L 383.972,401.405 C 383.976,417.512 390.491,433.563 403.319,445.272 C 414.706,455.665 429.049,460.785 443.349,460.783 L 443.349,452.297 C 431.092,452.306 418.8,447.911 409.035,439.006 Z" stroke="none" fill="#e5e5e5" stroke-width="0.452" stroke-linecap="round" marker-start="none" marker-end="none"/>
    <path d="M 392.485,347.754 L 383.953,347.754 L 383.953,396.917 L 392.485,396.917 L 392.485,347.754 Z" stroke="none" fill="#e5e5e5" stroke-width="0.103" stroke-linecap="round" marker-start="none" marker-end="none"/>
    <path d="M 481.306,445.001 L 478.26,442.885 L 475.204,440.764 L 475.204,445.006 L 475.208,449.248 L 478.26,447.128 L 481.306,445.001 Z M 475.204,440.756 L 447.927,440.756 L 447.927,449.29 L 475.204,449.29 L 475.204,440.756 Z" fill="#00d702" stroke="none" stroke-width="0.103" stroke-linecap="round" marker-start="none" marker-end="none"/>
    <path d="M 403.783,347.754 L 395.252,347.754 L 395.252,396.917 L 403.783,396.917 L 403.783,347.754 Z" fill="#00d702" stroke="none" stroke-width="0.103" stroke-linecap="round" marker-start="none" marker-end="none"/>
    <path d="M 416.663,430.65 C 408.111,422.843 403.771,412.138 403.765,401.405 L 395.281,401.405 C 395.284,414.447 400.557,427.438 410.946,436.916 C 420.161,445.327 431.777,449.475 443.349,449.473 L 443.349,440.992 C 433.817,440.992 424.252,437.577 416.663,430.65 Z" fill="#00d702" stroke="none" stroke-width="0.367" stroke-linecap="round" marker-start="none" marker-end="none"/>
    <path d="M 415.079,347.754 L 406.545,347.754 L 406.545,396.917 L 415.079,396.917 L 415.079,347.754 Z" stroke="none" fill="#e5e5e5" stroke-width="0.103" stroke-linecap="round" marker-start="none" marker-end="none"/>
    <path d="M 424.284,422.295 C 418.177,416.717 415.077,409.079 415.074,401.405 L 406.587,401.405 C 406.596,411.375 410.628,421.314 418.567,428.557 C 425.616,434.996 434.493,438.167 443.349,438.163 L 443.349,429.675 C 436.542,429.682 429.71,427.241 424.284,422.295 Z" stroke="none" fill="#e5e5e5" stroke-width="0.28" stroke-linecap="round" marker-start="none" marker-end="none"/>
    <path d="M 481.302,433.949 L 478.257,431.816 L 475.204,429.675 L 475.204,429.675 L 447.927,429.675 L 447.927,438.215 L 475.204,438.215 L 475.204,438.215 L 478.26,436.084 L 481.302,433.949 Z" stroke="none" fill="#e5e5e5" stroke-width="0.103" stroke-linecap="round" marker-start="none" marker-end="none"/>
    <path d="M 340.218,436.473 C 334.318,443.452 335.197,453.911 342.192,459.82 C 349.174,465.713 359.627,464.833 365.531,457.846 C 371.44,450.855 370.554,440.4 363.557,434.495 C 356.575,428.6 346.118,429.48 340.218,436.473 Z" stroke="none" fill="#000000" stroke-width="0.686" marker-start="none" marker-end="none"/>
    <path d="M 340.996,437.082 C 335.105,444.08 335.977,454.539 342.97,460.432 C 349.959,466.341 360.411,465.458 366.327,458.466 C 372.224,451.483 371.339,441.031 364.345,435.126 C 357.366,429.22 346.902,430.099 340.996,437.082 Z" fill="none" stroke="#b2b2b2" stroke-width="3.752" marker-start="none" marker-end="none"/>
    <path d="M 299.533,436.46 C 293.633,443.45 294.512,453.917 301.509,459.808 C 308.492,465.719 318.946,464.836 324.848,457.848 C 330.759,450.859 329.873,440.399 322.875,434.495 C 315.892,428.596 305.433,429.48 299.533,436.46 Z" stroke="none" fill="#ffffff" stroke-width="0.688" marker-start="none" marker-end="none"/>
    <path d="M 300.313,437.095 C 294.42,444.088 295.293,454.534 302.285,460.446 C 309.276,466.33 319.731,465.458 325.644,458.47 C 331.542,451.483 330.658,441.017 323.664,435.118 C 316.683,429.218 306.218,430.096 300.313,437.095 Z" fill="none" stroke="#55ade6" stroke-width="3.752" marker-start="none" marker-end="none"/>
    <path d="M 302.073,372.216 C 293.176,382.756 294.501,398.542 305.053,407.426 C 315.584,416.341 331.349,415.008 340.25,404.47 C 349.164,393.93 347.828,378.156 337.274,369.253 C 326.743,360.357 310.971,361.688 302.073,372.216 Z" stroke="none" fill="#ffffff" stroke-width="1.038" marker-start="none" marker-end="none"/>
    <path d="M 303.25,373.173 C 294.363,383.718 295.679,399.471 306.223,408.388 C 316.766,417.261 332.533,415.946 341.45,405.408 C 350.344,394.871 349.011,379.088 338.464,370.191 C 327.936,361.295 312.155,362.619 303.25,373.173 Z" fill="none" stroke="#55ade6" stroke-width="5.657" marker-start="none" marker-end="none"/>
    <path d="M 433.663,371.812 C 424.766,382.352 426.091,398.138 436.643,407.022 C 447.174,415.937 462.939,414.605 471.84,404.066 C 480.754,393.526 479.418,377.752 468.864,368.849 C 458.333,359.953 442.561,361.284 433.663,371.812 Z" stroke="none" fill="#000000" stroke-width="1.038" marker-start="none" marker-end="none"/>
    <path d="M 434.84,372.769 C 425.953,383.314 427.269,399.067 437.813,407.984 C 448.356,416.857 464.123,415.542 473.04,405.004 C 481.934,394.467 480.601,378.684 470.054,369.787 C 459.526,360.891 443.745,362.215 434.84,372.769 Z" fill="none" stroke="#b2b2b2" stroke-width="5.657" marker-start="none" marker-end="none"/>
    <path d="M 383.423,368.112 C 378.898,373.468 379.574,381.484 384.932,386.008 C 390.288,390.531 398.309,389.859 402.828,384.501 C 407.353,379.145 406.678,371.126 401.319,366.606 C 395.965,362.078 387.945,362.761 383.423,368.112 Z" stroke="none" fill="#ffffff" stroke-width="0.525" marker-start="none" marker-end="none"/>
    <path d="M 384.026,368.594 C 379.502,373.943 380.178,381.965 385.534,386.486 C 390.893,391.014 398.909,390.336 403.433,384.977 C 407.961,379.626 407.284,371.603 401.924,367.079 C 396.564,362.558 388.549,363.232 384.026,368.594 Z" fill="none" stroke="#55ade6" stroke-width="2.871" marker-start="none" marker-end="none"/>
    <path d="M 395.374,425.426 C 390.853,430.777 391.528,438.797 396.885,443.325 C 402.242,447.841 410.261,447.167 414.785,441.809 C 419.308,436.455 418.628,428.438 413.274,423.915 C 407.918,419.391 399.899,420.067 395.374,425.426 Z" stroke="none" fill="#ffffff" stroke-width="0.525" marker-start="none" marker-end="none"/>
    <path d="M 395.983,425.904 C 391.455,431.258 392.129,439.274 397.489,443.799 C 402.847,448.324 410.862,447.649 415.387,442.287 C 419.915,436.931 419.23,428.914 413.879,424.388 C 408.519,419.863 400.504,420.544 395.983,425.904 Z" fill="none" stroke="#55ade6" stroke-width="2.871" marker-start="none" marker-end="none"/>
    <path d="M 452.995,442.211 C 448.471,447.567 449.15,455.584 454.505,460.112 C 459.866,464.633 467.885,463.955 472.408,458.597 C 476.936,453.245 476.254,445.222 470.897,440.703 C 465.537,436.184 457.521,436.858 452.995,442.211 Z" stroke="none" fill="#ffffff" stroke-width="0.525" marker-start="none" marker-end="none"/>
    <path d="M 453.602,442.695 C 449.078,448.047 449.755,456.065 455.113,460.591 C 460.473,465.111 468.488,464.438 473.011,459.077 C 477.537,453.724 476.86,445.704 471.504,441.183 C 466.142,436.659 458.125,437.334 453.602,442.695 Z" fill="none" stroke="#55ade6" stroke-width="2.871" marker-start="none" marker-end="none"/>
    <g id="Group_2" fill-rule="nonzero" stroke-linecap="round" stroke="none" stroke-width="0.484" fill="#b2b2b2">
     <path d="M 349.43,442.862 L 352.159,442.862 L 352.159,450.025 C 352.159,450.376 352.168,450.744 352.188,451.127 L 350.58,449.791 C 350.476,449.707 350.372,449.647 350.268,449.611 C 350.164,449.576 350.063,449.557 349.966,449.557 C 349.797,449.557 349.646,449.595 349.513,449.67 C 349.379,449.744 349.28,449.825 349.215,449.909 L 348.26,451.175 L 352.685,454.889 L 355.18,454.889 L 355.18,442.862 L 357.519,442.862 L 357.519,440.678 L 349.43,440.678 L 349.43,442.862 Z" marker-start="none" marker-end="none"/>
    </g>
    <g id="Group_3" fill-rule="nonzero" stroke-linecap="round" stroke="none" stroke-width="0.484" fill="#000000">
     <path d="M 313.086,455.035 C 313.787,455.035 314.419,454.932 314.981,454.728 C 315.543,454.523 316.022,454.238 316.419,453.875 C 316.815,453.511 317.119,453.077 317.33,452.575 C 317.541,452.07 317.647,451.516 317.647,450.912 C 317.647,450.392 317.574,449.911 317.427,449.469 C 317.281,449.027 317.081,448.607 316.828,448.207 C 316.575,447.808 316.281,447.422 315.946,447.048 C 315.611,446.674 315.256,446.295 314.879,445.912 L 312.101,443.066 C 312.459,443.172 312.81,443.255 313.159,443.316 C 313.506,443.38 313.833,443.41 314.138,443.41 L 316.789,443.41 C 317.114,443.41 317.37,443.32 317.559,443.141 C 317.747,442.963 317.842,442.727 317.842,442.434 L 317.842,440.678 L 307.862,440.678 L 307.862,441.653 C 307.862,441.841 307.901,442.042 307.979,442.258 C 308.057,442.471 308.194,442.666 308.388,442.842 L 312.482,446.966 C 312.831,447.316 313.137,447.651 313.398,447.969 C 313.657,448.287 313.872,448.602 314.041,448.91 C 314.21,449.218 314.336,449.527 314.421,449.835 C 314.505,450.145 314.548,450.471 314.548,450.815 C 314.548,451.381 314.413,451.814 314.143,452.117 C 313.873,452.418 313.462,452.57 312.91,452.57 C 312.683,452.57 312.475,452.537 312.287,452.472 C 312.098,452.408 311.929,452.319 311.78,452.209 C 311.63,452.099 311.502,451.969 311.395,451.819 C 311.288,451.67 311.202,451.508 311.137,451.332 C 311.033,451.04 310.901,450.829 310.742,450.7 C 310.583,450.569 310.367,450.505 310.094,450.505 C 310.029,450.505 309.959,450.508 309.884,450.513 C 309.81,450.521 309.733,450.529 309.655,450.542 L 308.057,450.82 C 308.161,451.529 308.361,452.147 308.656,452.674 C 308.952,453.202 309.319,453.639 309.758,453.992 C 310.196,454.342 310.698,454.604 311.263,454.776 C 311.829,454.949 312.436,455.035 313.086,455.035 Z" marker-start="none" marker-end="none"/>
    </g>
    <g id="Group_4" fill-rule="nonzero" stroke-linecap="round" stroke="none" stroke-width="0.318" fill="#ffffff">
     <path d="M 308.213,499.093 L 308.213,495.979 L 306.052,495.979 L 306.052,505.294 L 309.338,505.294 C 309.994,505.294 310.558,505.216 311.029,505.061 C 311.499,504.906 311.887,504.692 312.192,504.419 C 312.497,504.145 312.72,503.824 312.865,503.453 C 313.011,503.083 313.084,502.682 313.084,502.251 C 313.084,501.787 313.009,501.361 312.859,500.973 C 312.711,500.585 312.483,500.251 312.176,499.975 C 311.869,499.697 311.48,499.481 311.009,499.326 C 310.538,499.171 309.981,499.093 309.338,499.093 L 308.213,499.093 Z M 308.213,500.722 L 309.338,500.722 C 309.9,500.722 310.305,500.856 310.552,501.125 C 310.8,501.393 310.923,501.77 310.923,502.251 C 310.923,502.464 310.891,502.658 310.827,502.834 C 310.763,503.009 310.666,503.158 310.536,503.285 C 310.406,503.41 310.242,503.507 310.044,503.576 C 309.846,503.643 309.611,503.677 309.338,503.677 L 308.213,503.677 L 308.213,500.722 Z" marker-start="none" marker-end="none"/>
     <path d="M 316.372,499.423 L 316.372,495.977 L 314.211,495.977 L 314.211,505.292 L 317.241,505.292 C 317.914,505.292 318.489,505.223 318.964,505.084 C 319.439,504.945 319.827,504.751 320.127,504.505 C 320.428,504.257 320.646,503.964 320.782,503.628 C 320.919,503.291 320.987,502.923 320.987,502.527 C 320.987,502.223 320.947,501.938 320.866,501.669 C 320.785,501.401 320.664,501.152 320.504,500.923 C 320.345,500.695 320.149,500.492 319.916,500.311 C 319.684,500.132 319.417,499.986 319.114,499.871 C 319.259,499.798 319.394,499.709 319.52,499.602 C 319.646,499.496 319.755,499.367 319.849,499.212 L 321.831,495.977 L 319.875,495.977 C 319.513,495.977 319.253,496.113 319.095,496.387 L 317.548,499.091 C 317.48,499.21 317.4,499.296 317.308,499.347 C 317.217,499.397 317.088,499.423 316.921,499.423 L 316.372,499.423 Z M 316.372,500.912 L 317.241,500.912 C 317.535,500.912 317.786,500.949 317.992,501.024 C 318.199,501.098 318.368,501.203 318.5,501.335 C 318.632,501.466 318.728,501.621 318.788,501.798 C 318.848,501.975 318.878,502.166 318.878,502.371 C 318.878,502.779 318.744,503.1 318.478,503.33 C 318.212,503.559 317.799,503.675 317.241,503.675 L 316.372,503.675 L 316.372,500.912 Z" marker-start="none" marker-end="none"/>
     <path d="M 331.587,500.638 C 331.587,499.964 331.471,499.337 331.239,498.759 C 331.007,498.179 330.68,497.675 330.258,497.246 C 329.836,496.818 329.328,496.481 328.733,496.238 C 328.139,495.996 327.479,495.875 326.755,495.875 C 326.03,495.875 325.37,495.996 324.773,496.238 C 324.176,496.481 323.666,496.818 323.242,497.246 C 322.818,497.675 322.49,498.179 322.258,498.759 C 322.025,499.337 321.909,499.964 321.909,500.638 C 321.909,501.311 322.025,501.938 322.258,502.518 C 322.49,503.098 322.818,503.6 323.242,504.027 C 323.666,504.453 324.176,504.787 324.773,505.031 C 325.37,505.272 326.03,505.395 326.755,505.395 C 327.479,505.395 328.139,505.272 328.733,505.027 C 329.328,504.781 329.836,504.447 330.258,504.02 C 330.68,503.593 331.007,503.091 331.239,502.511 C 331.471,501.932 331.587,501.307 331.587,500.638 Z M 329.376,500.638 C 329.376,501.098 329.316,501.512 329.197,501.88 C 329.077,502.249 328.906,502.561 328.682,502.817 C 328.458,503.072 328.184,503.268 327.861,503.404 C 327.537,503.541 327.168,503.609 326.755,503.61 C 326.337,503.609 325.965,503.541 325.639,503.404 C 325.313,503.268 325.038,503.072 324.815,502.817 C 324.591,502.561 324.419,502.249 324.3,501.88 C 324.181,501.512 324.121,501.098 324.121,500.638 C 324.121,500.173 324.181,499.757 324.3,499.389 C 324.419,499.02 324.591,498.708 324.815,498.453 C 325.038,498.197 325.313,498.001 325.639,497.867 C 325.965,497.734 326.337,497.667 326.755,497.667 C 327.168,497.667 327.537,497.734 327.861,497.867 C 328.184,498.001 328.458,498.197 328.682,498.453 C 328.906,498.708 329.077,499.02 329.197,499.389 C 329.316,499.757 329.376,500.173 329.376,500.638 Z" marker-start="none" marker-end="none"/>
     <path d="M 341.072,500.64 C 341.072,499.966 340.956,499.345 340.723,498.776 C 340.491,498.207 340.164,497.714 339.742,497.298 C 339.32,496.882 338.812,496.559 338.218,496.326 C 337.623,496.093 336.964,495.977 336.239,495.977 L 332.621,495.977 L 332.621,505.294 L 336.239,505.294 C 336.964,505.294 337.623,505.177 338.218,504.943 C 338.812,504.709 339.32,504.384 339.742,503.971 C 340.164,503.557 340.491,503.065 340.723,502.496 C 340.956,501.927 341.072,501.309 341.072,500.64 Z M 338.86,500.64 C 338.86,501.1 338.8,501.515 338.681,501.886 C 338.562,502.257 338.39,502.57 338.166,502.828 C 337.943,503.087 337.669,503.285 337.345,503.423 C 337.021,503.561 336.653,503.63 336.239,503.63 L 334.795,503.63 L 334.795,497.641 L 336.239,497.641 C 336.653,497.641 337.021,497.71 337.345,497.848 C 337.669,497.988 337.943,498.186 338.166,498.444 C 338.39,498.701 338.562,499.016 338.681,499.387 C 338.8,499.757 338.86,500.175 338.86,500.64 Z" marker-start="none" marker-end="none"/>
     <path d="M 345.984,497.684 C 346.274,497.684 346.533,497.733 346.761,497.828 C 346.989,497.925 347.181,498.061 347.339,498.242 C 347.497,498.421 347.617,498.639 347.7,498.897 C 347.783,499.154 347.825,499.447 347.825,499.776 L 347.825,505.293 L 349.986,505.293 L 349.986,499.774 C 349.986,499.203 349.893,498.68 349.707,498.201 C 349.522,497.725 349.257,497.313 348.912,496.968 C 348.566,496.623 348.147,496.354 347.652,496.162 C 347.158,495.971 346.602,495.875 345.984,495.875 C 345.361,495.875 344.803,495.971 344.309,496.162 C 343.815,496.354 343.395,496.623 343.05,496.968 C 342.705,497.313 342.44,497.725 342.257,498.201 C 342.074,498.68 341.982,499.203 341.982,499.774 L 341.982,505.293 L 344.143,505.293 L 344.143,499.781 C 344.143,499.453 344.184,499.16 344.268,498.903 C 344.351,498.645 344.471,498.425 344.629,498.244 C 344.786,498.063 344.979,497.925 345.207,497.828 C 345.435,497.733 345.693,497.684 345.984,497.684 Z" marker-start="none" marker-end="none"/>
     <path d="M 357.651,498.386 C 357.702,498.386 357.754,498.376 357.805,498.356 C 357.856,498.337 357.905,498.304 357.952,498.255 L 358.808,497.335 C 358.433,496.852 357.963,496.488 357.399,496.242 C 356.834,495.998 356.166,495.875 355.395,495.875 C 354.687,495.875 354.053,495.994 353.493,496.236 C 352.933,496.477 352.457,496.809 352.067,497.234 C 351.678,497.658 351.378,498.16 351.169,498.742 C 350.961,499.324 350.856,499.956 350.856,500.638 C 350.856,501.333 350.975,501.971 351.214,502.552 C 351.453,503.134 351.786,503.637 352.215,504.059 C 352.643,504.481 353.155,504.809 353.752,505.043 C 354.349,505.278 355.007,505.395 355.727,505.395 C 356.077,505.395 356.406,505.363 356.715,505.302 C 357.024,505.24 357.312,505.154 357.581,505.046 C 357.849,504.936 358.097,504.807 358.322,504.654 C 358.548,504.503 358.749,504.335 358.923,504.153 L 358.195,503.175 C 358.148,503.115 358.092,503.061 358.028,503.012 C 357.964,502.962 357.875,502.938 357.76,502.938 C 357.683,502.938 357.611,502.955 357.543,502.988 C 357.474,503.022 357.402,503.065 357.325,503.113 C 357.249,503.162 357.164,503.216 357.073,503.274 C 356.981,503.331 356.872,503.384 356.747,503.434 C 356.621,503.483 356.474,503.524 356.306,503.557 C 356.137,503.591 355.94,503.609 355.714,503.61 C 355.322,503.609 354.964,503.54 354.64,503.402 C 354.317,503.263 354.038,503.065 353.806,502.807 C 353.574,502.548 353.393,502.237 353.263,501.871 C 353.133,501.503 353.068,501.093 353.068,500.637 C 353.068,500.158 353.133,499.735 353.263,499.363 C 353.393,498.994 353.57,498.681 353.793,498.427 C 354.017,498.173 354.278,497.981 354.577,497.848 C 354.875,497.716 355.194,497.651 355.535,497.651 C 355.731,497.651 355.91,497.66 356.072,497.68 C 356.234,497.699 356.384,497.731 356.523,497.779 C 356.661,497.826 356.794,497.886 356.919,497.96 C 357.045,498.035 357.172,498.128 357.3,498.238 C 357.351,498.281 357.406,498.317 357.466,498.345 C 357.526,498.371 357.587,498.386 357.651,498.386 Z" marker-start="none" marker-end="none"/>
     <path d="M 366.559,505.294 L 366.559,503.581 L 363.938,503.581 L 363.938,495.979 L 361.778,495.979 L 361.778,503.581 L 359.157,503.581 L 359.157,505.294 L 366.559,505.294 Z" marker-start="none" marker-end="none"/>
     <path d="M 369.821,495.977 L 367.648,495.977 L 367.648,505.294 L 369.821,505.294 L 369.821,495.977 Z" marker-start="none" marker-end="none"/>
     <path d="M 380.737,500.638 C 380.737,499.964 380.621,499.337 380.389,498.759 C 380.157,498.179 379.83,497.675 379.408,497.246 C 378.986,496.818 378.478,496.481 377.883,496.238 C 377.289,495.996 376.629,495.875 375.905,495.875 C 375.18,495.875 374.52,495.996 373.923,496.238 C 373.326,496.481 372.816,496.818 372.392,497.246 C 371.968,497.675 371.64,498.179 371.408,498.759 C 371.175,499.337 371.059,499.964 371.059,500.638 C 371.059,501.311 371.175,501.938 371.408,502.518 C 371.64,503.098 371.968,503.6 372.392,504.027 C 372.816,504.453 373.326,504.787 373.923,505.031 C 374.52,505.272 375.18,505.395 375.905,505.395 C 376.629,505.395 377.289,505.272 377.883,505.027 C 378.478,504.781 378.986,504.447 379.408,504.02 C 379.83,503.593 380.157,503.091 380.389,502.511 C 380.621,501.932 380.737,501.307 380.737,500.638 Z M 378.526,500.638 C 378.526,501.098 378.466,501.512 378.347,501.88 C 378.227,502.249 378.056,502.561 377.832,502.817 C 377.608,503.072 377.334,503.268 377.011,503.404 C 376.687,503.541 376.318,503.609 375.905,503.61 C 375.487,503.609 375.115,503.541 374.789,503.404 C 374.463,503.268 374.188,503.072 373.965,502.817 C 373.741,502.561 373.569,502.249 373.45,501.88 C 373.331,501.512 373.271,501.098 373.271,500.638 C 373.271,500.173 373.331,499.757 373.45,499.389 C 373.569,499.02 373.741,498.708 373.965,498.453 C 374.188,498.197 374.463,498.001 374.789,497.867 C 375.115,497.734 375.487,497.667 375.905,497.667 C 376.318,497.667 376.687,497.734 377.011,497.867 C 377.334,498.001 377.608,498.197 377.832,498.453 C 378.056,498.708 378.227,499.02 378.347,499.389 C 378.466,499.757 378.526,500.173 378.526,500.638 Z" marker-start="none" marker-end="none"/>
     <path d="M 382.909,505.294 C 383.003,505.294 383.082,505.291 383.145,505.281 C 383.209,505.274 383.267,505.257 383.318,505.234 C 383.369,505.21 383.418,505.177 383.465,505.134 C 383.512,505.091 383.565,505.035 383.625,504.962 L 388.048,499.369 C 388.031,499.548 388.019,499.722 388.01,499.89 C 388.002,500.057 387.997,500.216 387.997,500.367 L 387.997,505.294 L 389.902,505.294 L 389.902,495.977 L 388.777,495.977 C 388.611,495.977 388.47,496.003 388.355,496.055 C 388.24,496.106 388.129,496.199 388.023,496.335 L 383.631,501.884 C 383.644,501.723 383.655,501.563 383.663,501.408 C 383.672,501.253 383.676,501.106 383.676,500.97 L 383.676,495.977 L 381.771,495.977 L 381.771,505.294 L 382.909,505.294 Z" marker-start="none" marker-end="none"/>
    </g>
    <g id="Group_5" fill-rule="nonzero" stroke-linecap="round" stroke="none" stroke-width="0.364" fill="#000000">
     <path d="M 333.902,528.098 L 333.902,524.529 L 331.425,524.529 L 331.425,535.207 L 335.191,535.207 C 335.943,535.207 336.589,535.117 337.129,534.938 C 337.669,534.761 338.113,534.516 338.463,534.203 C 338.812,533.89 339.069,533.52 339.236,533.096 C 339.402,532.671 339.485,532.212 339.485,531.718 C 339.485,531.186 339.399,530.697 339.228,530.253 C 339.057,529.807 338.796,529.427 338.444,529.11 C 338.093,528.792 337.647,528.544 337.107,528.365 C 336.567,528.188 335.929,528.098 335.191,528.098 L 333.902,528.098 Z M 333.902,529.966 L 335.191,529.966 C 335.836,529.966 336.3,530.119 336.583,530.427 C 336.867,530.736 337.008,531.166 337.008,531.718 C 337.008,531.962 336.972,532.186 336.898,532.386 C 336.825,532.585 336.714,532.757 336.565,532.903 C 336.416,533.046 336.228,533.158 336.001,533.236 C 335.774,533.315 335.504,533.354 335.191,533.354 L 333.902,533.354 L 333.902,529.966 Z" marker-start="none" marker-end="none"/>
     <path d="M 349.467,524.528 L 347.548,524.528 C 347.333,524.528 347.156,524.578 347.017,524.677 C 346.877,524.778 346.781,524.906 346.727,525.063 L 346.096,526.925 L 342.038,526.925 L 341.408,525.063 C 341.359,524.925 341.264,524.802 341.122,524.693 C 340.98,524.583 340.807,524.528 340.602,524.528 L 338.668,524.528 L 342.8,535.205 L 345.334,535.205 L 349.467,524.528 Z M 342.609,528.61 L 345.526,528.61 L 344.544,531.488 C 344.48,531.671 344.406,531.887 344.32,532.134 C 344.235,532.382 344.151,532.649 344.067,532.938 C 343.989,532.645 343.909,532.374 343.826,532.123 C 343.743,531.874 343.665,531.656 343.591,531.473 L 342.609,528.61 Z" marker-start="none" marker-end="none"/>
     <path d="M 357.063,527.287 C 357.122,527.287 357.18,527.277 357.239,527.255 C 357.298,527.231 357.354,527.194 357.407,527.139 L 358.389,526.084 C 357.959,525.531 357.421,525.113 356.774,524.832 C 356.127,524.55 355.361,524.41 354.477,524.41 C 353.666,524.41 352.939,524.548 352.297,524.824 C 351.655,525.1 351.11,525.481 350.663,525.966 C 350.216,526.453 349.873,527.029 349.634,527.697 C 349.394,528.363 349.275,529.087 349.275,529.869 C 349.275,530.666 349.412,531.397 349.685,532.063 C 349.959,532.731 350.341,533.306 350.832,533.79 C 351.323,534.272 351.91,534.649 352.594,534.918 C 353.278,535.186 354.032,535.32 354.858,535.32 C 355.258,535.32 355.636,535.285 355.99,535.214 C 356.344,535.143 356.675,535.046 356.983,534.921 C 357.29,534.796 357.574,534.647 357.832,534.473 C 358.091,534.3 358.321,534.108 358.521,533.897 L 357.686,532.777 C 357.632,532.708 357.569,532.645 357.495,532.589 C 357.422,532.533 357.32,532.505 357.188,532.505 C 357.1,532.505 357.017,532.524 356.939,532.563 C 356.86,532.602 356.777,532.651 356.689,532.707 C 356.602,532.763 356.505,532.824 356.4,532.89 C 356.295,532.956 356.17,533.016 356.026,533.074 C 355.882,533.13 355.714,533.177 355.521,533.216 C 355.328,533.255 355.102,533.274 354.843,533.274 C 354.394,533.274 353.983,533.195 353.612,533.037 C 353.241,532.878 352.922,532.651 352.656,532.354 C 352.39,532.059 352.182,531.701 352.033,531.281 C 351.884,530.862 351.81,530.39 351.81,529.867 C 351.81,529.32 351.884,528.834 352.033,528.408 C 352.182,527.984 352.385,527.626 352.641,527.335 C 352.898,527.044 353.197,526.824 353.539,526.673 C 353.881,526.52 354.247,526.445 354.638,526.445 C 354.863,526.445 355.068,526.457 355.253,526.479 C 355.439,526.501 355.611,526.537 355.77,526.591 C 355.929,526.645 356.08,526.714 356.224,526.8 C 356.368,526.886 356.514,526.992 356.66,527.119 C 356.719,527.169 356.782,527.209 356.851,527.24 C 356.919,527.272 356.99,527.287 357.063,527.287 Z" marker-start="none" marker-end="none"/>
     <path d="M 361.998,530.882 L 362.393,530.882 C 362.76,530.882 363.023,530.996 363.185,531.225 L 365.588,534.716 C 365.72,534.906 365.87,535.035 366.038,535.104 C 366.207,535.173 366.413,535.207 366.657,535.207 L 368.812,535.207 L 365.646,530.889 C 365.534,530.733 365.417,530.602 365.295,530.501 C 365.173,530.397 365.048,530.311 364.921,530.244 C 365.107,530.175 365.276,530.081 365.43,529.962 C 365.584,529.841 365.725,529.682 365.852,529.481 L 369.075,524.528 L 366.863,524.528 C 366.721,524.528 366.6,524.537 366.5,524.557 C 366.4,524.576 366.313,524.606 366.24,524.645 C 366.167,524.684 366.103,524.731 366.049,524.787 C 365.996,524.843 365.944,524.908 365.896,524.981 L 363.478,528.697 C 363.39,528.835 363.279,528.931 363.144,528.987 C 363.01,529.043 362.828,529.07 362.598,529.07 L 361.998,529.07 L 361.998,524.528 L 359.521,524.528 L 359.521,535.207 L 361.998,535.207 L 361.998,530.882 Z" marker-start="none" marker-end="none"/>
     <path d="M 379.917,524.528 L 377.998,524.528 C 377.783,524.528 377.606,524.578 377.467,524.677 C 377.327,524.778 377.231,524.906 377.177,525.063 L 376.547,526.925 L 372.488,526.925 L 371.858,525.063 C 371.809,524.925 371.714,524.802 371.572,524.693 C 371.43,524.583 371.257,524.528 371.052,524.528 L 369.118,524.528 L 373.25,535.205 L 375.785,535.205 L 379.917,524.528 Z M 373.059,528.61 L 375.976,528.61 L 374.994,531.488 C 374.93,531.671 374.856,531.887 374.77,532.134 C 374.685,532.382 374.601,532.649 374.517,532.938 C 374.439,532.645 374.359,532.374 374.276,532.123 C 374.193,531.874 374.115,531.656 374.041,531.473 L 373.059,528.61 Z" marker-start="none" marker-end="none"/>
     <path d="M 385.366,526.317 C 385.708,526.317 386.011,526.345 386.275,526.403 C 386.539,526.46 386.788,526.537 387.022,526.634 L 387.022,528.255 L 385.967,528.255 C 385.811,528.255 385.689,528.296 385.601,528.38 C 385.513,528.462 385.469,528.569 385.469,528.695 L 385.469,530.059 L 389.264,530.059 L 389.264,525.552 C 388.991,525.352 388.706,525.181 388.411,525.035 C 388.115,524.891 387.8,524.774 387.466,524.681 C 387.131,524.587 386.774,524.52 386.396,524.475 C 386.017,524.432 385.611,524.41 385.176,524.41 C 384.394,524.41 383.671,524.548 383.007,524.824 C 382.343,525.1 381.768,525.481 381.282,525.966 C 380.796,526.453 380.415,527.029 380.139,527.697 C 379.863,528.363 379.725,529.087 379.725,529.869 C 379.725,530.666 379.857,531.397 380.12,532.063 C 380.384,532.731 380.762,533.306 381.252,533.79 C 381.743,534.272 382.337,534.649 383.033,534.918 C 383.729,535.186 384.507,535.32 385.366,535.32 C 385.811,535.32 386.229,535.285 386.619,535.21 C 387.01,535.138 387.37,535.037 387.7,534.91 C 388.03,534.783 388.331,534.632 388.605,534.456 C 388.878,534.279 389.123,534.089 389.338,533.882 L 388.619,532.792 C 388.551,532.688 388.469,532.608 388.374,532.55 C 388.279,532.49 388.175,532.462 388.063,532.462 C 387.916,532.462 387.765,532.511 387.608,532.608 C 387.413,532.725 387.229,532.826 387.055,532.912 C 386.882,532.998 386.705,533.067 386.524,533.121 C 386.343,533.175 386.153,533.214 385.953,533.238 C 385.752,533.263 385.528,533.274 385.278,533.274 C 384.814,533.274 384.397,533.193 384.026,533.029 C 383.654,532.865 383.338,532.634 383.077,532.337 C 382.815,532.04 382.614,531.682 382.472,531.265 C 382.331,530.847 382.26,530.382 382.26,529.869 C 382.26,529.302 382.338,528.8 382.494,528.36 C 382.651,527.921 382.867,527.55 383.143,527.246 C 383.419,526.944 383.746,526.714 384.124,526.555 C 384.503,526.395 384.917,526.317 385.366,526.317 Z" marker-start="none" marker-end="none"/>
     <path d="M 393.483,524.528 L 390.992,524.528 L 390.992,535.207 L 393.483,535.207 L 393.483,524.528 Z" marker-start="none" marker-end="none"/>
     <path d="M 396.763,535.207 C 396.871,535.207 396.961,535.201 397.034,535.192 C 397.108,535.182 397.174,535.164 397.232,535.137 C 397.291,535.11 397.347,535.072 397.401,535.024 C 397.455,534.975 397.516,534.908 397.584,534.826 L 402.654,528.415 C 402.635,528.619 402.62,528.819 402.61,529.012 C 402.6,529.205 402.595,529.387 402.595,529.557 L 402.595,535.207 L 404.779,535.207 L 404.779,524.528 L 403.489,524.528 C 403.299,524.528 403.138,524.557 403.006,524.615 C 402.874,524.675 402.747,524.781 402.625,524.938 L 397.591,531.298 C 397.606,531.112 397.618,530.93 397.628,530.751 C 397.638,530.574 397.643,530.406 397.643,530.25 L 397.643,524.528 L 395.459,524.528 L 395.459,535.207 L 396.763,535.207 Z" marker-start="none" marker-end="none"/>
     <path d="M 411.561,526.317 C 411.903,526.317 412.206,526.345 412.47,526.403 C 412.734,526.46 412.983,526.537 413.217,526.634 L 413.217,528.255 L 412.162,528.255 C 412.006,528.255 411.884,528.296 411.796,528.38 C 411.708,528.462 411.664,528.569 411.664,528.695 L 411.664,530.059 L 415.459,530.059 L 415.459,525.552 C 415.186,525.352 414.901,525.181 414.606,525.035 C 414.31,524.891 413.995,524.774 413.661,524.681 C 413.326,524.587 412.969,524.52 412.591,524.475 C 412.212,524.432 411.806,524.41 411.371,524.41 C 410.589,524.41 409.865,524.548 409.201,524.824 C 408.538,525.1 407.963,525.481 407.477,525.966 C 406.991,526.453 406.61,527.029 406.334,527.697 C 406.058,528.363 405.92,529.087 405.92,529.869 C 405.92,530.666 406.052,531.397 406.315,532.063 C 406.579,532.731 406.957,533.306 407.447,533.79 C 407.938,534.272 408.532,534.649 409.227,534.918 C 409.923,535.186 410.701,535.32 411.561,535.32 C 412.006,535.32 412.424,535.285 412.814,535.21 C 413.205,535.138 413.565,535.037 413.895,534.91 C 414.225,534.783 414.526,534.632 414.8,534.456 C 415.073,534.279 415.318,534.089 415.533,533.882 L 414.814,532.792 C 414.746,532.688 414.664,532.608 414.569,532.55 C 414.474,532.49 414.37,532.462 414.258,532.462 C 414.111,532.462 413.96,532.511 413.803,532.608 C 413.608,532.725 413.424,532.826 413.25,532.912 C 413.077,532.998 412.9,533.067 412.719,533.121 C 412.538,533.175 412.348,533.214 412.148,533.238 C 411.947,533.263 411.723,533.274 411.473,533.274 C 411.009,533.274 410.591,533.193 410.221,533.029 C 409.849,532.865 409.533,532.634 409.272,532.337 C 409.01,532.04 408.809,531.682 408.667,531.265 C 408.526,530.847 408.455,530.382 408.455,529.869 C 408.455,529.302 408.533,528.8 408.689,528.36 C 408.846,527.921 409.061,527.55 409.337,527.246 C 409.614,526.944 409.941,526.714 410.319,526.555 C 410.697,526.395 411.112,526.317 411.561,526.317 Z" marker-start="none" marker-end="none"/>
     <path d="M 416.586,525.818 C 416.586,525.973 416.616,526.119 416.674,526.253 C 416.733,526.389 416.817,526.505 416.927,526.606 C 417.037,526.706 417.166,526.785 417.315,526.843 C 417.464,526.903 417.632,526.932 417.817,526.932 C 418.037,526.932 418.227,526.893 418.389,526.818 C 418.55,526.742 418.684,526.64 418.792,526.511 C 418.899,526.38 418.978,526.231 419.03,526.063 C 419.081,525.895 419.107,525.718 419.107,525.531 C 419.107,525.287 419.068,525.028 418.989,524.751 C 418.911,524.475 418.795,524.199 418.641,523.919 C 418.488,523.641 418.296,523.367 418.066,523.098 C 417.837,522.831 417.573,522.585 417.275,522.367 L 416.879,522.718 C 416.826,522.772 416.785,522.822 416.758,522.869 C 416.732,522.915 416.718,522.972 416.718,523.041 C 416.718,523.089 416.735,523.141 416.769,523.197 C 416.804,523.255 416.845,523.305 416.894,523.348 C 416.953,523.406 417.021,523.477 417.099,523.561 C 417.177,523.643 417.255,523.737 417.334,523.839 C 417.412,523.942 417.484,524.055 417.55,524.177 C 417.616,524.298 417.666,524.427 417.7,524.565 C 417.529,524.58 417.375,524.621 417.238,524.69 C 417.102,524.757 416.986,524.848 416.89,524.96 C 416.795,525.072 416.721,525.201 416.667,525.346 C 416.613,525.49 416.586,525.647 416.586,525.818 Z" marker-start="none" marker-end="none"/>
     <path d="M 425.96,524.528 L 423.469,524.528 L 423.469,535.207 L 425.96,535.207 L 425.96,524.528 Z" marker-start="none" marker-end="none"/>
     <path d="M 429.24,535.207 C 429.348,535.207 429.438,535.201 429.511,535.192 C 429.585,535.182 429.651,535.164 429.709,535.137 C 429.768,535.11 429.824,535.072 429.878,535.024 C 429.932,534.975 429.993,534.908 430.061,534.826 L 435.131,528.415 C 435.112,528.619 435.097,528.819 435.087,529.012 C 435.077,529.205 435.072,529.387 435.072,529.557 L 435.072,535.207 L 437.256,535.207 L 437.256,524.528 L 435.966,524.528 C 435.776,524.528 435.615,524.557 435.483,524.615 C 435.351,524.675 435.224,524.781 435.102,524.938 L 430.068,531.298 C 430.083,531.112 430.095,530.93 430.105,530.751 C 430.115,530.574 430.12,530.406 430.12,530.25 L 430.12,524.528 L 427.936,524.528 L 427.936,535.207 L 429.24,535.207 Z" marker-start="none" marker-end="none"/>
     <path d="M 446.185,527.287 C 446.244,527.287 446.302,527.277 446.361,527.255 C 446.42,527.231 446.476,527.194 446.529,527.139 L 447.511,526.084 C 447.081,525.531 446.543,525.113 445.896,524.832 C 445.249,524.55 444.483,524.41 443.599,524.41 C 442.788,524.41 442.061,524.548 441.419,524.824 C 440.777,525.1 440.232,525.481 439.785,525.966 C 439.338,526.453 438.995,527.029 438.756,527.697 C 438.516,528.363 438.397,529.087 438.397,529.869 C 438.397,530.666 438.534,531.397 438.807,532.063 C 439.081,532.731 439.463,533.306 439.954,533.79 C 440.445,534.272 441.032,534.649 441.716,534.918 C 442.4,535.186 443.154,535.32 443.98,535.32 C 444.38,535.32 444.758,535.285 445.112,535.214 C 445.466,535.143 445.797,535.046 446.105,534.921 C 446.412,534.796 446.696,534.647 446.954,534.473 C 447.213,534.3 447.443,534.108 447.643,533.897 L 446.808,532.777 C 446.754,532.708 446.691,532.645 446.617,532.589 C 446.544,532.533 446.442,532.505 446.31,532.505 C 446.222,532.505 446.139,532.524 446.061,532.563 C 445.982,532.602 445.899,532.651 445.811,532.707 C 445.724,532.763 445.627,532.824 445.522,532.89 C 445.417,532.956 445.292,533.016 445.148,533.074 C 445.004,533.13 444.836,533.177 444.643,533.216 C 444.45,533.255 444.224,533.274 443.965,533.274 C 443.516,533.274 443.105,533.195 442.734,533.037 C 442.363,532.878 442.044,532.651 441.778,532.354 C 441.512,532.059 441.304,531.701 441.155,531.281 C 441.006,530.862 440.932,530.39 440.932,529.867 C 440.932,529.32 441.006,528.834 441.155,528.408 C 441.304,527.984 441.507,527.626 441.763,527.335 C 442.02,527.044 442.319,526.824 442.661,526.673 C 443.003,526.52 443.369,526.445 443.76,526.445 C 443.985,526.445 444.19,526.457 444.375,526.479 C 444.561,526.501 444.733,526.537 444.892,526.591 C 445.051,526.645 445.202,526.714 445.346,526.8 C 445.49,526.886 445.636,526.992 445.782,527.119 C 445.841,527.169 445.904,527.209 445.973,527.24 C 446.041,527.272 446.112,527.287 446.185,527.287 Z" marker-start="none" marker-end="none"/>
     <path d="M 448.204,525.677 C 448.204,525.854 448.237,526.018 448.303,526.169 C 448.368,526.32 448.459,526.453 448.574,526.565 C 448.688,526.677 448.824,526.766 448.98,526.833 C 449.137,526.899 449.308,526.932 449.493,526.932 C 449.674,526.932 449.842,526.899 449.999,526.833 C 450.155,526.766 450.292,526.677 450.409,526.565 C 450.526,526.453 450.618,526.32 450.684,526.169 C 450.75,526.018 450.783,525.854 450.783,525.677 C 450.783,525.501 450.75,525.337 450.684,525.182 C 450.618,525.029 450.526,524.895 450.409,524.783 C 450.292,524.671 450.155,524.583 449.999,524.52 C 449.842,524.456 449.674,524.423 449.493,524.423 C 449.308,524.423 449.137,524.456 448.98,524.52 C 448.824,524.583 448.688,524.671 448.574,524.783 C 448.459,524.895 448.368,525.029 448.303,525.182 C 448.237,525.337 448.204,525.501 448.204,525.677 Z" marker-start="none" marker-end="none"/>
    </g>
    <g id="Group_6" fill-rule="nonzero" stroke-linecap="round" stroke="none" stroke-width="0.387" fill="#000000">
     <path d="M 390.158,380.287 L 390.158,377.205 L 393.037,377.205 L 393.037,375.476 L 390.158,375.476 L 390.158,372.379 L 388.197,372.379 L 388.197,375.476 L 385.333,375.476 L 385.333,377.205 L 388.197,377.205 L 388.197,380.287 L 390.158,380.287 Z" marker-start="none" marker-end="none"/>
     <path d="M 395.668,372.854 L 397.847,372.854 L 397.847,378.574 C 397.847,378.855 397.855,379.148 397.87,379.454 L 396.586,378.387 C 396.503,378.32 396.42,378.272 396.337,378.243 C 396.254,378.215 396.174,378.201 396.096,378.201 C 395.961,378.201 395.841,378.23 395.734,378.29 C 395.628,378.35 395.549,378.413 395.497,378.481 L 394.734,379.493 L 398.267,382.458 L 400.26,382.458 L 400.26,372.854 L 402.127,372.854 L 402.127,371.11 L 395.668,371.11 L 395.668,372.854 Z" marker-start="none" marker-end="none"/>
    </g>
    <g id="Group_7" fill-rule="nonzero" stroke-linecap="round" stroke="none" stroke-width="0.387" fill="#000000">
     <path d="M 401.507,438.347 L 401.507,435.265 L 404.386,435.265 L 404.386,433.536 L 401.507,433.536 L 401.507,430.439 L 399.546,430.439 L 399.546,433.536 L 396.682,433.536 L 396.682,435.265 L 399.546,435.265 L 399.546,438.347 L 401.507,438.347 Z" marker-start="none" marker-end="none"/>
     <path d="M 407.017,430.914 L 409.196,430.914 L 409.196,436.634 C 409.196,436.915 409.203,437.208 409.219,437.514 L 407.935,436.447 C 407.852,436.381 407.769,436.332 407.686,436.303 C 407.603,436.275 407.523,436.261 407.445,436.261 C 407.31,436.261 407.19,436.29 407.083,436.35 C 406.977,436.41 406.898,436.473 406.846,436.541 L 406.083,437.553 L 409.615,440.519 L 411.609,440.519 L 411.609,430.914 L 413.476,430.914 L 413.476,429.17 L 407.017,429.17 L 407.017,430.914 Z" marker-start="none" marker-end="none"/>
    </g>
    <g id="Group_8" fill-rule="nonzero" stroke-linecap="round" stroke="none" stroke-width="0.387" fill="#000000">
     <path d="M 467.51,450.889 C 467.51,449.898 467.404,449.039 467.191,448.313 C 466.978,447.586 466.684,446.984 466.308,446.508 C 465.932,446.03 465.485,445.674 464.969,445.441 C 464.453,445.207 463.894,445.091 463.292,445.091 C 462.69,445.091 462.134,445.207 461.623,445.441 C 461.112,445.674 460.67,446.03 460.296,446.508 C 459.922,446.984 459.631,447.586 459.42,448.313 C 459.21,449.039 459.105,449.898 459.105,450.889 C 459.105,451.881 459.21,452.739 459.42,453.466 C 459.631,454.192 459.922,454.794 460.296,455.272 C 460.67,455.749 461.112,456.104 461.623,456.334 C 462.134,456.565 462.69,456.68 463.292,456.68 C 463.894,456.68 464.453,456.565 464.969,456.334 C 465.485,456.104 465.932,455.749 466.308,455.272 C 466.684,454.794 466.978,454.192 467.191,453.466 C 467.404,452.739 467.51,451.881 467.51,450.889 Z M 465.02,450.889 C 465.02,451.674 464.97,452.315 464.872,452.816 C 464.773,453.317 464.642,453.71 464.479,453.995 C 464.315,454.28 464.13,454.477 463.922,454.583 C 463.715,454.689 463.505,454.743 463.292,454.743 C 463.079,454.743 462.871,454.689 462.666,454.583 C 462.461,454.477 462.279,454.28 462.121,453.995 C 461.963,453.71 461.836,453.317 461.74,452.816 C 461.644,452.315 461.596,451.674 461.596,450.889 C 461.596,450.102 461.644,449.457 461.74,448.959 C 461.836,448.461 461.963,448.068 462.121,447.78 C 462.279,447.493 462.461,447.294 462.666,447.188 C 462.871,447.082 463.079,447.029 463.292,447.029 C 463.505,447.029 463.715,447.082 463.922,447.188 C 464.13,447.294 464.315,447.493 464.479,447.78 C 464.642,448.068 464.773,448.461 464.872,448.959 C 464.97,449.457 465.02,450.102 465.02,450.889 Z" marker-start="none" marker-end="none"/>
    </g>
   </g>
   <path d="M 280.721,362.53 L 280.721,547.54 C 280.721,555.937 287.536,562.753 295.933,562.753 L 480.944,562.753 C 489.341,562.753 496.156,555.937 496.156,547.54 L 496.156,362.53 C 496.156,354.133 489.341,347.317 480.944,347.317 L 295.933,347.317 C 287.536,347.317 280.721,354.133 280.721,362.53 Z M 495.447,363.139 L 495.447,546.931 C 495.447,555.273 488.677,562.044 480.335,562.044 L 296.542,562.044 C 288.2,562.044 281.43,555.273 281.43,546.931 L 281.43,363.139 C 281.43,354.797 288.2,348.026 296.542,348.026 L 480.335,348.026 C 488.677,348.026 495.447,354.797 495.447,363.139 Z" stroke-width="0.802" fill="#7f7f7f" stroke="none" marker-start="none" marker-end="none"/>
  </g>
 </g>
</svg>
