<?xml version="1.0" standalone="no"?>
<!DOCTYPE svg PUBLIC "-//W3C//DTD SVG 1.1//EN" "http://www.w3.org/Graphics/SVG/1.1/DTD/svg11.dtd">
<!--Generator: Xara Designer (www.xara.com), SVG filter version: 6.6.0.0-->
<svg fill="none" fill-rule="evenodd" stroke="black" stroke-width="0.501" stroke-linejoin="bevel" stroke-miterlimit="10" font-family="Times New Roman" font-size="16" style="font-variant-ligatures:none" xmlns:xlink="http://www.w3.org/1999/xlink" xmlns="http://www.w3.org/2000/svg" version="1.1" overflow="visible" width="215.435pt" height="215.436pt" viewBox="534.069 -563.194 215.435 215.436">
 <defs>
	</defs>
 <g id="Page background" transform="scale(1 -1)"/>
 <g id="Layer 1" transform="scale(1 -1)">
  <g id="Group">
   <g id="Group_1">
    <g id="Group_2" stroke-linejoin="miter" stroke="none" stroke-width="0.802">
     <path d="M 534.069,547.981 L 534.069,362.971 C 534.069,354.574 540.884,347.758 549.281,347.758 L 734.292,347.758 C 742.689,347.758 749.504,354.574 749.504,362.971 L 749.504,547.981 C 749.504,556.378 742.689,563.194 734.292,563.194 L 549.281,563.194 C 540.884,563.194 534.069,556.378 534.069,547.981 Z" fill="#7f7f7f" marker-start="none" marker-end="none"/>
     <path d="M 534.778,547.372 L 534.778,363.58 C 534.778,355.238 541.548,348.467 549.89,348.467 L 733.683,348.467 C 742.025,348.467 748.795,355.238 748.795,363.58 L 748.795,547.372 C 748.795,555.714 742.025,562.485 733.683,562.485 L 549.89,562.485 C 541.548,562.485 534.778,555.714 534.778,547.372 Z" marker-start="none" marker-end="none"/>
     <path d="M 534.778,547.372 L 534.778,363.58 C 534.778,355.238 541.548,348.467 549.89,348.467 L 733.683,348.467 C 742.025,348.467 748.795,355.238 748.795,363.58 L 748.795,547.372 C 748.795,555.714 742.025,562.485 733.683,562.485 L 549.89,562.485 C 541.548,562.485 534.778,555.714 534.778,547.372 Z" fill="#ffffff" marker-start="none" marker-end="none"/>
    </g>
    <g id="Group_3" stroke-linejoin="miter" stroke-linecap="round" stroke="#95afc0">
     <path d="M 549.074,493.874 L 549.074,527.766 L 652.662,527.766 L 652.662,493.874 L 549.074,493.874 Z" fill="#95afc0" stroke-width="1.738" marker-start="none" marker-end="none"/>
     <path d="M 549.074,492.531 L 549.074,502.341 C 549.074,504.912 551.158,506.989 553.72,506.989 L 648.012,506.989 C 650.574,506.989 652.662,504.912 652.662,502.341 L 652.662,492.531 C 652.662,489.955 650.574,487.877 648.012,487.877 L 553.72,487.877 C 551.158,487.877 549.074,489.955 549.074,492.531 Z" fill="#95afc0" stroke-width="1.738" marker-start="none" marker-end="none"/>
     <path d="M 549.771,521.424 L 549.771,539.069 C 549.771,543.682 553.515,547.428 558.133,547.428 L 725.179,547.428 C 729.792,547.428 733.54,543.682 733.54,539.069 L 733.54,521.424 C 733.54,516.806 729.792,513.058 725.179,513.058 L 558.133,513.058 C 553.515,513.058 549.771,516.806 549.771,521.424 Z" fill="#ffffff" stroke-width="3.13" marker-start="none" marker-end="none"/>
    </g>
    <g id="Group_4" fill="#ff3718" stroke-linecap="round" stroke="none">
     <path d="M 634.533,348.197 L 625.999,348.197 L 625.999,397.36 L 634.533,397.36 L 634.533,348.197 Z" stroke-width="0.103" stroke-linejoin="miter" marker-start="none" marker-end="none"/>
     <path d="M 654.765,447.802 C 641.326,435.534 634.497,418.721 634.494,401.848 L 626.015,401.848 C 626.02,421.02 633.77,440.133 649.039,454.067 C 662.6,466.441 679.677,472.542 696.7,472.537 L 696.7,464.051 C 681.718,464.058 666.691,458.689 654.765,447.802 Z" stroke-width="0.541" stroke-linejoin="round" marker-start="none" marker-end="none"/>
     <path d="M 734.653,468.31 L 731.608,466.192 L 728.555,464.07 L 728.555,464.017 L 701.278,464.017 L 701.278,472.553 L 728.555,472.553 L 731.608,470.433 L 734.653,468.31 Z" stroke-width="0.103" stroke-linejoin="miter" marker-start="none" marker-end="none"/>
    </g>
    <g id="Group_5" fill="#ffcd36" stroke-linecap="round" stroke="none">
     <path d="M 734.657,456.76 L 731.611,454.64 L 728.555,452.519 L 728.555,456.76 L 728.559,461.001 L 731.611,458.878 L 734.657,456.76 Z M 728.555,452.496 L 701.278,452.496 L 701.278,461.03 L 728.555,461.03 L 728.555,452.496 Z" stroke-width="0.103" stroke-linejoin="miter" marker-start="none" marker-end="none"/>
     <path d="M 662.387,439.448 C 651.396,429.408 645.809,415.653 645.804,401.848 L 637.323,401.848 C 637.327,417.955 643.842,434.005 656.67,445.714 C 668.057,456.108 682.4,461.228 696.7,461.225 L 696.7,452.739 C 684.443,452.749 672.151,448.354 662.387,439.448 Z" stroke-width="0.453" stroke-linejoin="round" marker-start="none" marker-end="none"/>
     <path d="M 645.836,348.197 L 637.304,348.197 L 637.304,397.36 L 645.836,397.36 L 645.836,348.197 Z" stroke-width="0.103" stroke-linejoin="miter" marker-start="none" marker-end="none"/>
    </g>
    <g id="Group_6" fill="#00d702" stroke-linecap="round" stroke="none">
     <path d="M 734.657,445.444 L 731.611,443.328 L 728.555,441.207 L 728.555,445.448 L 728.559,449.691 L 731.611,447.571 L 734.657,445.444 Z M 728.555,441.198 L 701.278,441.198 L 701.278,449.733 L 728.555,449.733 L 728.555,441.198 Z" stroke-width="0.103" stroke-linejoin="miter" marker-start="none" marker-end="none"/>
     <path d="M 657.134,348.197 L 648.603,348.197 L 648.603,397.36 L 657.134,397.36 L 657.134,348.197 Z" stroke-width="0.103" stroke-linejoin="miter" marker-start="none" marker-end="none"/>
     <path d="M 670.014,431.093 C 661.462,423.286 657.122,412.581 657.116,401.848 L 648.632,401.848 C 648.635,414.89 653.908,427.88 664.297,437.359 C 673.512,445.77 685.128,449.918 696.7,449.916 L 696.7,441.434 C 687.168,441.434 677.603,438.02 670.014,431.093 Z" stroke-width="0.368" stroke-linejoin="round" marker-start="none" marker-end="none"/>
    </g>
    <g id="Group_7" stroke-linecap="round" stroke="none" fill="#11a7e0">
     <path d="M 668.43,348.197 L 659.896,348.197 L 659.896,397.36 L 668.43,397.36 L 668.43,348.197 Z" stroke-width="0.103" stroke-linejoin="miter" marker-start="none" marker-end="none"/>
     <path d="M 677.635,422.738 C 671.528,417.16 668.428,409.522 668.425,401.848 L 659.938,401.848 C 659.947,411.818 663.98,421.757 671.918,429 C 678.967,435.439 687.844,438.61 696.7,438.606 L 696.7,430.118 C 689.893,430.125 683.061,427.683 677.635,422.738 Z" stroke-width="0.281" stroke-linejoin="round" marker-start="none" marker-end="none"/>
     <path d="M 734.653,434.391 L 731.608,432.259 L 728.555,430.118 L 728.555,430.118 L 701.278,430.118 L 701.278,438.657 L 728.555,438.657 L 728.555,438.657 L 731.611,436.527 L 734.653,434.391 Z" stroke-width="0.103" stroke-linejoin="miter" marker-start="none" marker-end="none"/>
    </g>
    <g id="Group_8" stroke-linejoin="miter">
     <path d="M 593.569,436.916 C 587.669,443.894 588.548,454.354 595.543,460.263 C 602.525,466.155 612.978,465.276 618.882,458.289 C 624.791,451.297 623.905,440.843 616.908,434.938 C 609.926,429.043 599.469,429.922 593.569,436.916 Z" stroke="none" fill="#000000" stroke-width="0.686" marker-start="none" marker-end="none"/>
     <path d="M 594.347,437.525 C 588.456,444.523 589.328,454.982 596.321,460.875 C 603.31,466.784 613.762,465.901 619.678,458.908 C 625.575,451.926 624.69,441.474 617.696,435.569 C 610.717,429.663 600.253,430.542 594.347,437.525 Z" stroke="#b2b2b2" stroke-width="3.752" marker-start="none" marker-end="none"/>
    </g>
    <g id="Group_9" stroke-linejoin="miter">
     <path d="M 552.884,436.903 C 546.984,443.892 547.863,454.36 554.86,460.251 C 561.843,466.162 572.297,465.279 578.199,458.291 C 584.11,451.302 583.224,440.842 576.226,434.938 C 569.243,429.039 558.784,429.922 552.884,436.903 Z" stroke="none" fill="#ffffff" stroke-width="0.689" marker-start="none" marker-end="none"/>
     <path d="M 553.664,437.538 C 547.771,444.53 548.644,454.976 555.636,460.889 C 562.627,466.773 573.082,465.901 578.995,458.913 C 584.893,451.926 584.009,441.46 577.015,435.56 C 570.034,429.661 559.569,430.539 553.664,437.538 Z" stroke="#539bc5" stroke-width="3.752" marker-start="none" marker-end="none"/>
    </g>
    <g id="Group_10" stroke-linejoin="miter">
     <path d="M 555.424,372.659 C 546.527,383.199 547.852,398.985 558.404,407.869 C 568.935,416.783 584.7,415.451 593.601,404.913 C 602.515,394.373 601.179,378.599 590.625,369.696 C 580.094,360.8 564.322,362.131 555.424,372.659 Z" stroke="none" fill="#ffffff" stroke-width="1.039" marker-start="none" marker-end="none"/>
     <path d="M 556.601,373.616 C 547.714,384.161 549.03,399.914 559.574,408.831 C 570.117,417.704 585.884,416.389 594.801,405.851 C 603.695,395.314 602.362,379.531 591.815,370.634 C 581.287,361.738 565.506,363.062 556.601,373.616 Z" stroke="#539bc5" stroke-width="5.658" marker-start="none" marker-end="none"/>
    </g>
    <g id="Group_11" stroke-linejoin="miter">
     <path d="M 687.014,372.255 C 678.117,382.795 679.442,398.581 689.994,407.465 C 700.525,416.379 716.29,415.047 725.191,404.509 C 734.105,393.969 732.769,378.195 722.215,369.292 C 711.684,360.396 695.912,361.727 687.014,372.255 Z" stroke="none" fill="#000000" stroke-width="1.039" marker-start="none" marker-end="none"/>
     <path d="M 688.191,373.212 C 679.304,383.757 680.62,399.51 691.164,408.427 C 701.707,417.3 717.474,415.985 726.391,405.447 C 735.285,394.91 733.952,379.127 723.405,370.23 C 712.877,361.334 697.096,362.658 688.191,373.212 Z" stroke="#b2b2b2" stroke-width="5.658" marker-start="none" marker-end="none"/>
    </g>
    <g id="Group_12" stroke-linejoin="miter">
     <path d="M 636.774,368.555 C 632.249,373.911 632.925,381.927 638.283,386.451 C 643.639,390.974 651.66,390.302 656.179,384.944 C 660.704,379.588 660.029,371.569 654.67,367.049 C 649.316,362.521 641.296,363.204 636.774,368.555 Z" stroke="none" fill="#ffffff" stroke-width="0.526" marker-start="none" marker-end="none"/>
     <path d="M 637.377,369.037 C 632.853,374.386 633.529,382.408 638.885,386.929 C 644.244,391.457 652.26,390.779 656.784,385.42 C 661.312,380.069 660.635,372.046 655.275,367.522 C 649.915,363.001 641.9,363.675 637.377,369.037 Z" fill="none" stroke="#539bc5" stroke-width="2.872" marker-start="none" marker-end="none"/>
    </g>
    <g id="Group_13" stroke-linejoin="miter">
     <path d="M 648.725,425.869 C 644.204,431.22 644.879,439.239 650.236,443.767 C 655.593,448.283 663.612,447.61 668.136,442.252 C 672.659,436.898 671.979,428.881 666.625,424.358 C 661.269,419.834 653.25,420.51 648.725,425.869 Z" stroke="none" fill="#ffffff" stroke-width="0.526" marker-start="none" marker-end="none"/>
     <path d="M 649.334,426.347 C 644.806,431.701 645.48,439.717 650.84,444.241 C 656.198,448.766 664.213,448.092 668.738,442.73 C 673.266,437.374 672.581,429.357 667.23,424.831 C 661.87,420.306 653.855,420.987 649.334,426.347 Z" fill="none" stroke="#539bc5" stroke-width="2.872" marker-start="none" marker-end="none"/>
    </g>
    <g id="Group_14" stroke-linejoin="miter">
     <path d="M 706.346,442.654 C 701.822,448.01 702.501,456.027 707.856,460.555 C 713.217,465.076 721.236,464.398 725.759,459.04 C 730.287,453.688 729.605,445.665 724.248,441.146 C 718.888,436.627 710.872,437.301 706.346,442.654 Z" stroke="none" fill="#ffffff" stroke-width="0.526" marker-start="none" marker-end="none"/>
     <path d="M 706.953,443.138 C 702.429,448.489 703.106,456.508 708.464,461.033 C 713.824,465.554 721.839,464.88 726.362,459.52 C 730.888,454.167 730.211,446.147 724.855,441.626 C 719.493,437.101 711.476,437.777 706.953,443.138 Z" fill="none" stroke="#539bc5" stroke-width="2.872" marker-start="none" marker-end="none"/>
    </g>
    <g id="Group_15" fill-rule="nonzero" stroke-linejoin="round" stroke-linecap="round" stroke="none" stroke-width="0.485" fill="#b2b2b2">
     <g id="Group_16">
      <path d="M 606.192,455.477 C 606.893,455.477 607.525,455.375 608.087,455.17 C 608.649,454.966 609.128,454.681 609.525,454.318 C 609.921,453.954 610.225,453.52 610.436,453.017 C 610.647,452.513 610.753,451.959 610.753,451.355 C 610.753,450.835 610.68,450.354 610.533,449.912 C 610.387,449.47 610.187,449.05 609.934,448.65 C 609.681,448.251 609.387,447.864 609.052,447.49 C 608.717,447.117 608.362,446.738 607.985,446.355 L 605.207,443.509 C 605.565,443.614 605.917,443.697 606.265,443.759 C 606.612,443.822 606.939,443.852 607.244,443.852 L 609.895,443.852 C 610.22,443.852 610.476,443.763 610.665,443.584 C 610.853,443.405 610.948,443.169 610.948,442.877 L 610.948,441.121 L 600.968,441.121 L 600.968,442.096 C 600.968,442.284 601.007,442.485 601.085,442.7 C 601.163,442.914 601.3,443.109 601.494,443.285 L 605.588,447.408 C 605.938,447.759 606.244,448.094 606.504,448.412 C 606.763,448.73 606.978,449.044 607.147,449.352 C 607.316,449.661 607.442,449.97 607.527,450.278 C 607.611,450.587 607.654,450.914 607.654,451.258 C 607.654,451.823 607.519,452.257 607.249,452.559 C 606.979,452.861 606.569,453.013 606.016,453.013 C 605.789,453.013 605.581,452.98 605.393,452.915 C 605.204,452.85 605.035,452.762 604.886,452.652 C 604.736,452.542 604.608,452.412 604.501,452.262 C 604.394,452.113 604.308,451.95 604.243,451.775 C 604.139,451.483 604.007,451.272 603.848,451.142 C 603.689,451.012 603.473,450.947 603.2,450.947 C 603.135,450.947 603.065,450.95 602.99,450.956 C 602.916,450.963 602.839,450.972 602.761,450.985 L 601.163,451.263 C 601.267,451.972 601.467,452.59 601.762,453.117 C 602.058,453.644 602.425,454.082 602.864,454.434 C 603.302,454.785 603.804,455.046 604.369,455.219 C 604.935,455.391 605.542,455.477 606.192,455.477 Z" marker-start="none" marker-end="none"/>
     </g>
    </g>
    <g id="Group_17" fill-rule="nonzero" stroke-linejoin="round" stroke-linecap="round" stroke="none" stroke-width="0.485" fill="#000000">
     <g id="Group_18">
      <path d="M 570.082,446.636 L 571.543,446.636 L 571.543,444.941 C 571.543,444.791 571.493,444.662 571.392,444.551 C 571.292,444.441 571.147,444.385 570.959,444.385 L 570.082,444.385 L 570.082,441.121 L 567.45,441.121 L 567.45,444.385 L 561.739,444.385 C 561.551,444.385 561.38,444.444 561.228,444.561 C 561.075,444.678 560.979,444.824 560.94,444.999 L 560.628,446.491 L 567.197,455.323 L 570.082,455.323 L 570.082,446.636 Z M 567.45,450.34 C 567.45,450.568 567.458,450.813 567.475,451.076 C 567.491,451.339 567.515,451.61 567.548,451.89 L 563.796,446.636 L 567.45,446.636 L 567.45,450.34 Z" marker-start="none" marker-end="none"/>
     </g>
    </g>
    <g id="Group_19" fill-rule="nonzero" stroke-linejoin="round" stroke-linecap="round" stroke="none" stroke-width="0.319" fill="#ffffff">
     <g id="Group_20">
      <path d="M 561.564,499.535 L 561.564,496.422 L 559.403,496.422 L 559.403,505.737 L 562.689,505.737 C 563.345,505.737 563.909,505.659 564.38,505.504 C 564.85,505.348 565.238,505.134 565.543,504.861 C 565.848,504.588 566.072,504.266 566.217,503.896 C 566.362,503.525 566.435,503.124 566.435,502.694 C 566.435,502.229 566.36,501.803 566.211,501.415 C 566.062,501.027 565.834,500.694 565.527,500.417 C 565.22,500.14 564.831,499.924 564.36,499.768 C 563.889,499.613 563.332,499.535 562.689,499.535 L 561.564,499.535 Z M 561.564,501.164 L 562.689,501.164 C 563.251,501.164 563.656,501.299 563.903,501.567 C 564.151,501.836 564.274,502.212 564.274,502.693 C 564.274,502.907 564.242,503.101 564.178,503.276 C 564.114,503.451 564.017,503.601 563.887,503.727 C 563.757,503.852 563.593,503.95 563.395,504.018 C 563.197,504.086 562.962,504.12 562.689,504.12 L 561.564,504.12 L 561.564,501.164 Z" marker-start="none" marker-end="none"/>
      <path d="M 569.723,499.866 L 569.723,496.42 L 567.562,496.42 L 567.562,505.734 L 570.592,505.734 C 571.265,505.734 571.84,505.665 572.315,505.526 C 572.79,505.387 573.178,505.194 573.478,504.947 C 573.779,504.699 573.997,504.407 574.133,504.07 C 574.27,503.733 574.338,503.366 574.338,502.969 C 574.338,502.666 574.298,502.38 574.217,502.111 C 574.136,501.843 574.015,501.594 573.855,501.366 C 573.696,501.137 573.5,500.934 573.267,500.754 C 573.035,500.575 572.768,500.428 572.465,500.313 C 572.61,500.241 572.745,500.151 572.871,500.045 C 572.997,499.938 573.106,499.809 573.2,499.655 L 575.182,496.42 L 573.226,496.42 C 572.864,496.42 572.604,496.556 572.446,496.829 L 570.899,499.533 C 570.831,499.653 570.751,499.738 570.659,499.789 C 570.568,499.84 570.439,499.866 570.272,499.866 L 569.723,499.866 Z M 569.723,501.355 L 570.592,501.355 C 570.886,501.355 571.137,501.392 571.343,501.467 C 571.55,501.541 571.719,501.645 571.851,501.777 C 571.983,501.909 572.079,502.063 572.139,502.24 C 572.199,502.417 572.229,502.608 572.229,502.813 C 572.229,503.222 572.095,503.542 571.829,503.772 C 571.563,504.002 571.15,504.117 570.592,504.117 L 569.723,504.117 L 569.723,501.355 Z" marker-start="none" marker-end="none"/>
      <path d="M 584.938,501.08 C 584.938,500.407 584.822,499.78 584.59,499.201 C 584.358,498.621 584.031,498.117 583.609,497.688 C 583.187,497.26 582.679,496.924 582.084,496.681 C 581.49,496.438 580.83,496.317 580.106,496.317 C 579.381,496.317 578.721,496.438 578.124,496.681 C 577.527,496.924 577.017,497.26 576.593,497.688 C 576.169,498.117 575.841,498.621 575.609,499.201 C 575.376,499.78 575.26,500.407 575.26,501.08 C 575.26,501.754 575.376,502.38 575.609,502.96 C 575.841,503.54 576.169,504.042 576.593,504.469 C 577.017,504.895 577.527,505.23 578.124,505.473 C 578.721,505.715 579.381,505.837 580.106,505.837 C 580.83,505.837 581.49,505.714 582.084,505.469 C 582.679,505.224 583.187,504.889 583.609,504.462 C 584.031,504.036 584.358,503.533 584.59,502.953 C 584.822,502.374 584.938,501.749 584.938,501.08 Z M 582.727,501.08 C 582.727,501.54 582.667,501.954 582.548,502.323 C 582.428,502.691 582.257,503.004 582.033,503.259 C 581.809,503.515 581.535,503.711 581.212,503.847 C 580.888,503.983 580.519,504.051 580.106,504.052 C 579.688,504.051 579.316,503.983 578.99,503.847 C 578.664,503.711 578.389,503.515 578.166,503.259 C 577.942,503.004 577.77,502.691 577.651,502.323 C 577.532,501.954 577.472,501.54 577.472,501.08 C 577.472,500.616 577.532,500.199 577.651,499.831 C 577.77,499.462 577.942,499.15 578.166,498.895 C 578.389,498.639 578.664,498.444 578.99,498.31 C 579.316,498.176 579.688,498.109 580.106,498.109 C 580.519,498.109 580.888,498.176 581.212,498.31 C 581.535,498.444 581.809,498.639 582.033,498.895 C 582.257,499.15 582.428,499.462 582.548,499.831 C 582.667,500.199 582.727,500.616 582.727,501.08 Z" marker-start="none" marker-end="none"/>
      <path d="M 594.423,501.082 C 594.423,500.408 594.307,499.787 594.074,499.218 C 593.842,498.649 593.515,498.156 593.093,497.741 C 592.671,497.325 592.163,497.001 591.569,496.769 C 590.974,496.536 590.315,496.42 589.59,496.42 L 585.972,496.42 L 585.972,505.737 L 589.59,505.737 C 590.315,505.737 590.974,505.62 591.569,505.385 C 592.163,505.151 592.671,504.827 593.093,504.413 C 593.515,504 593.842,503.508 594.074,502.939 C 594.307,502.37 594.423,501.751 594.423,501.082 Z M 592.211,501.082 C 592.211,501.542 592.151,501.957 592.032,502.328 C 591.913,502.699 591.741,503.013 591.517,503.271 C 591.294,503.529 591.02,503.727 590.696,503.866 C 590.372,504.004 590.004,504.073 589.59,504.073 L 588.146,504.073 L 588.146,498.084 L 589.59,498.084 C 590.004,498.084 590.372,498.153 590.696,498.291 C 591.02,498.43 591.294,498.628 591.517,498.886 C 591.741,499.144 591.913,499.458 592.032,499.829 C 592.151,500.2 592.211,500.617 592.211,501.082 Z" marker-start="none" marker-end="none"/>
      <path d="M 599.335,498.127 C 599.625,498.127 599.884,498.175 600.112,498.271 C 600.34,498.367 600.532,498.504 600.69,498.684 C 600.848,498.863 600.968,499.081 601.051,499.339 C 601.134,499.597 601.176,499.89 601.176,500.218 L 601.176,505.735 L 603.337,505.735 L 603.337,500.217 C 603.337,499.646 603.244,499.122 603.058,498.644 C 602.873,498.167 602.608,497.756 602.263,497.41 C 601.917,497.065 601.498,496.797 601.003,496.605 C 600.509,496.413 599.953,496.317 599.335,496.317 C 598.713,496.317 598.154,496.413 597.66,496.605 C 597.166,496.797 596.746,497.065 596.401,497.41 C 596.056,497.756 595.791,498.167 595.608,498.644 C 595.425,499.122 595.333,499.646 595.333,500.217 L 595.333,505.735 L 597.494,505.735 L 597.494,500.224 C 597.494,499.896 597.535,499.603 597.619,499.345 C 597.702,499.087 597.822,498.868 597.98,498.687 C 598.137,498.506 598.33,498.367 598.558,498.271 C 598.786,498.175 599.045,498.127 599.335,498.127 Z" marker-start="none" marker-end="none"/>
      <path d="M 611.002,498.828 C 611.053,498.828 611.105,498.819 611.156,498.799 C 611.207,498.779 611.256,498.746 611.303,498.698 L 612.159,497.777 C 611.784,497.295 611.314,496.931 610.75,496.685 C 610.185,496.44 609.517,496.317 608.746,496.317 C 608.038,496.317 607.404,496.437 606.844,496.678 C 606.284,496.919 605.808,497.252 605.418,497.676 C 605.029,498.1 604.729,498.603 604.52,499.185 C 604.312,499.766 604.207,500.398 604.207,501.08 C 604.207,501.775 604.326,502.413 604.565,502.995 C 604.804,503.577 605.137,504.079 605.566,504.501 C 605.994,504.923 606.506,505.251 607.103,505.485 C 607.7,505.72 608.358,505.837 609.078,505.837 C 609.428,505.837 609.757,505.806 610.066,505.744 C 610.375,505.682 610.663,505.597 610.932,505.488 C 611.2,505.379 611.448,505.249 611.673,505.097 C 611.899,504.946 612.1,504.778 612.274,504.595 L 611.546,503.617 C 611.499,503.557 611.443,503.503 611.379,503.454 C 611.315,503.405 611.226,503.38 611.111,503.38 C 611.034,503.38 610.962,503.397 610.894,503.431 C 610.825,503.465 610.753,503.507 610.676,503.556 C 610.6,503.605 610.515,503.658 610.424,503.716 C 610.332,503.773 610.223,503.827 610.098,503.876 C 609.972,503.925 609.825,503.966 609.657,504 C 609.488,504.034 609.291,504.051 609.065,504.052 C 608.673,504.051 608.315,503.982 607.991,503.844 C 607.668,503.705 607.389,503.507 607.157,503.249 C 606.925,502.991 606.744,502.679 606.614,502.313 C 606.484,501.946 606.419,501.535 606.419,501.079 C 606.419,500.601 606.484,500.177 606.614,499.806 C 606.744,499.436 606.921,499.123 607.144,498.87 C 607.368,498.616 607.629,498.423 607.928,498.291 C 608.226,498.159 608.545,498.093 608.886,498.093 C 609.082,498.093 609.261,498.103 609.423,498.122 C 609.585,498.141 609.735,498.174 609.874,498.221 C 610.012,498.268 610.145,498.328 610.27,498.403 C 610.396,498.478 610.523,498.57 610.651,498.681 C 610.702,498.724 610.757,498.759 610.817,498.787 C 610.877,498.814 610.938,498.828 611.002,498.828 Z" marker-start="none" marker-end="none"/>
      <path d="M 619.91,505.737 L 619.91,504.023 L 617.289,504.023 L 617.289,496.422 L 615.129,496.422 L 615.129,504.023 L 612.508,504.023 L 612.508,505.737 L 619.91,505.737 Z" marker-start="none" marker-end="none"/>
      <path d="M 623.172,496.42 L 620.999,496.42 L 620.999,505.737 L 623.172,505.737 L 623.172,496.42 Z" marker-start="none" marker-end="none"/>
      <path d="M 634.088,501.08 C 634.088,500.407 633.972,499.78 633.74,499.201 C 633.508,498.621 633.181,498.117 632.759,497.688 C 632.337,497.26 631.829,496.924 631.234,496.681 C 630.64,496.438 629.98,496.317 629.256,496.317 C 628.531,496.317 627.871,496.438 627.274,496.681 C 626.677,496.924 626.167,497.26 625.743,497.688 C 625.319,498.117 624.991,498.621 624.759,499.201 C 624.526,499.78 624.41,500.407 624.41,501.08 C 624.41,501.754 624.526,502.38 624.759,502.96 C 624.991,503.54 625.319,504.042 625.743,504.469 C 626.167,504.895 626.677,505.23 627.274,505.473 C 627.871,505.715 628.531,505.837 629.256,505.837 C 629.98,505.837 630.64,505.714 631.234,505.469 C 631.829,505.224 632.337,504.889 632.759,504.462 C 633.181,504.036 633.508,503.533 633.74,502.953 C 633.972,502.374 634.088,501.749 634.088,501.08 Z M 631.877,501.08 C 631.877,501.54 631.817,501.954 631.698,502.323 C 631.578,502.691 631.407,503.004 631.183,503.259 C 630.959,503.515 630.685,503.711 630.362,503.847 C 630.038,503.983 629.669,504.051 629.256,504.052 C 628.838,504.051 628.466,503.983 628.14,503.847 C 627.814,503.711 627.539,503.515 627.316,503.259 C 627.092,503.004 626.92,502.691 626.801,502.323 C 626.682,501.954 626.622,501.54 626.622,501.08 C 626.622,500.616 626.682,500.199 626.801,499.831 C 626.92,499.462 627.092,499.15 627.316,498.895 C 627.539,498.639 627.814,498.444 628.14,498.31 C 628.466,498.176 628.838,498.109 629.256,498.109 C 629.669,498.109 630.038,498.176 630.362,498.31 C 630.685,498.444 630.959,498.639 631.183,498.895 C 631.407,499.15 631.578,499.462 631.698,499.831 C 631.817,500.199 631.877,500.616 631.877,501.08 Z" marker-start="none" marker-end="none"/>
      <path d="M 636.26,505.737 C 636.354,505.737 636.433,505.733 636.496,505.724 C 636.56,505.716 636.618,505.7 636.669,505.676 C 636.72,505.653 636.769,505.62 636.816,505.577 C 636.863,505.534 636.916,505.477 636.976,505.405 L 641.399,499.811 C 641.382,499.99 641.37,500.164 641.361,500.332 C 641.353,500.5 641.348,500.659 641.348,500.809 L 641.348,505.737 L 643.253,505.737 L 643.253,496.42 L 642.128,496.42 C 641.962,496.42 641.821,496.446 641.706,496.497 C 641.591,496.548 641.48,496.642 641.374,496.778 L 636.982,502.327 C 636.995,502.165 637.006,502.006 637.014,501.85 C 637.023,501.695 637.027,501.549 637.027,501.412 L 637.027,496.42 L 635.122,496.42 L 635.122,505.737 L 636.26,505.737 Z" marker-start="none" marker-end="none"/>
     </g>
    </g>
    <g id="Group_21" fill-rule="nonzero" stroke-linejoin="round" stroke-linecap="round" stroke="none" stroke-width="0.365" fill="#000000">
     <g id="Group_22">
      <path d="M 592.47,527.678 C 592.529,527.678 592.587,527.667 592.646,527.645 C 592.705,527.622 592.761,527.584 592.814,527.529 L 593.796,526.474 C 593.366,525.921 592.828,525.503 592.181,525.222 C 591.534,524.941 590.768,524.8 589.884,524.8 C 589.073,524.8 588.346,524.938 587.704,525.214 C 587.062,525.49 586.517,525.871 586.07,526.357 C 585.623,526.843 585.28,527.42 585.041,528.087 C 584.801,528.754 584.682,529.478 584.682,530.259 C 584.682,531.056 584.819,531.787 585.092,532.454 C 585.366,533.121 585.748,533.696 586.239,534.18 C 586.73,534.663 587.317,535.04 588.001,535.308 C 588.685,535.577 589.439,535.711 590.265,535.711 C 590.665,535.711 591.043,535.676 591.397,535.605 C 591.751,535.534 592.082,535.436 592.39,535.311 C 592.697,535.187 592.981,535.038 593.239,534.864 C 593.498,534.69 593.728,534.498 593.928,534.288 L 593.093,533.167 C 593.039,533.098 592.976,533.036 592.902,532.98 C 592.829,532.924 592.727,532.896 592.595,532.896 C 592.507,532.896 592.424,532.915 592.346,532.954 C 592.267,532.993 592.184,533.041 592.096,533.097 C 592.009,533.153 591.912,533.214 591.807,533.28 C 591.702,533.346 591.577,533.407 591.433,533.464 C 591.289,533.52 591.121,533.567 590.928,533.607 C 590.735,533.645 590.509,533.665 590.25,533.665 C 589.801,533.665 589.39,533.586 589.019,533.427 C 588.648,533.268 588.329,533.041 588.063,532.745 C 587.797,532.45 587.589,532.092 587.44,531.672 C 587.291,531.252 587.217,530.78 587.217,530.258 C 587.217,529.71 587.291,529.224 587.44,528.799 C 587.589,528.374 587.792,528.017 588.048,527.726 C 588.305,527.435 588.604,527.214 588.946,527.063 C 589.288,526.911 589.654,526.836 590.045,526.836 C 590.27,526.836 590.475,526.847 590.66,526.869 C 590.846,526.891 591.018,526.928 591.177,526.982 C 591.336,527.036 591.487,527.105 591.631,527.191 C 591.775,527.276 591.921,527.383 592.067,527.51 C 592.126,527.559 592.189,527.599 592.258,527.631 C 592.326,527.662 592.397,527.678 592.47,527.678 Z" marker-start="none" marker-end="none"/>
      <path d="M 604.248,524.918 L 601.757,524.918 L 601.757,529.433 L 597.419,529.433 L 597.419,524.918 L 594.928,524.918 L 594.928,535.597 L 597.419,535.597 L 597.419,531.132 L 601.757,531.132 L 601.757,535.597 L 604.248,535.597 L 604.248,524.918 Z" marker-start="none" marker-end="none"/>
      <path d="M 612.877,535.597 L 612.877,533.69 L 608.495,533.69 L 608.495,531.197 L 611.851,531.197 L 611.851,529.365 L 608.495,529.365 L 608.495,526.825 L 612.877,526.825 L 612.877,524.918 L 606.004,524.918 L 606.004,535.597 L 612.877,535.597 Z" marker-start="none" marker-end="none"/>
      <path d="M 619.742,529.766 C 619.839,529.579 619.933,529.385 620.024,529.183 C 620.114,528.982 620.201,528.775 620.284,528.563 C 620.367,528.78 620.455,528.99 620.548,529.194 C 620.64,529.398 620.736,529.596 620.833,529.788 L 623.574,535.217 C 623.622,535.311 623.672,535.383 623.724,535.435 C 623.775,535.487 623.832,535.525 623.896,535.549 C 623.959,535.574 624.031,535.586 624.112,535.586 C 624.193,535.586 624.287,535.586 624.394,535.586 L 626.284,535.586 L 626.284,524.918 L 624.101,524.918 L 624.101,530.978 C 624.101,531.272 624.116,531.59 624.145,531.932 L 621.317,526.529 C 621.229,526.361 621.111,526.234 620.962,526.147 C 620.813,526.06 620.643,526.017 620.452,526.017 L 620.115,526.017 C 619.925,526.017 619.755,526.06 619.606,526.147 C 619.457,526.234 619.339,526.361 619.251,526.529 L 616.408,531.939 C 616.428,531.771 616.442,531.603 616.452,531.437 C 616.462,531.271 616.467,531.118 616.467,530.978 L 616.467,524.918 L 614.283,524.918 L 614.283,535.586 L 616.174,535.586 C 616.281,535.586 616.375,535.586 616.456,535.586 C 616.536,535.586 616.608,535.574 616.672,535.549 C 616.735,535.525 616.793,535.487 616.844,535.435 C 616.895,535.383 616.945,535.311 616.994,535.217 L 619.742,529.766 Z" marker-start="none" marker-end="none"/>
      <path d="M 630.753,524.918 L 628.262,524.918 L 628.262,535.597 L 630.753,535.597 L 630.753,524.918 Z" marker-start="none" marker-end="none"/>
      <path d="M 639.902,527.678 C 639.961,527.678 640.019,527.667 640.078,527.645 C 640.137,527.622 640.193,527.584 640.246,527.529 L 641.228,526.474 C 640.798,525.921 640.26,525.503 639.613,525.222 C 638.966,524.941 638.2,524.8 637.316,524.8 C 636.505,524.8 635.778,524.938 635.136,525.214 C 634.494,525.49 633.949,525.871 633.502,526.357 C 633.055,526.843 632.712,527.42 632.473,528.087 C 632.233,528.754 632.114,529.478 632.114,530.259 C 632.114,531.056 632.251,531.787 632.524,532.454 C 632.798,533.121 633.18,533.696 633.671,534.18 C 634.162,534.663 634.749,535.04 635.433,535.308 C 636.117,535.577 636.871,535.711 637.697,535.711 C 638.097,535.711 638.475,535.676 638.829,535.605 C 639.183,535.534 639.514,535.436 639.822,535.311 C 640.129,535.187 640.413,535.038 640.671,534.864 C 640.93,534.69 641.16,534.498 641.36,534.288 L 640.525,533.167 C 640.471,533.098 640.408,533.036 640.334,532.98 C 640.261,532.924 640.159,532.896 640.027,532.896 C 639.939,532.896 639.856,532.915 639.778,532.954 C 639.699,532.993 639.616,533.041 639.528,533.097 C 639.441,533.153 639.344,533.214 639.239,533.28 C 639.134,533.346 639.009,533.407 638.865,533.464 C 638.721,533.52 638.553,533.567 638.36,533.607 C 638.167,533.645 637.941,533.665 637.682,533.665 C 637.233,533.665 636.822,533.586 636.451,533.427 C 636.08,533.268 635.761,533.041 635.495,532.745 C 635.229,532.45 635.021,532.092 634.872,531.672 C 634.723,531.252 634.649,530.78 634.649,530.258 C 634.649,529.71 634.723,529.224 634.872,528.799 C 635.021,528.374 635.224,528.017 635.48,527.726 C 635.737,527.435 636.036,527.214 636.378,527.063 C 636.72,526.911 637.086,526.836 637.477,526.836 C 637.702,526.836 637.907,526.847 638.092,526.869 C 638.278,526.891 638.45,526.928 638.609,526.982 C 638.768,527.036 638.919,527.105 639.063,527.191 C 639.207,527.276 639.353,527.383 639.499,527.51 C 639.558,527.559 639.621,527.599 639.69,527.631 C 639.758,527.662 639.829,527.678 639.902,527.678 Z" marker-start="none" marker-end="none"/>
      <path d="M 652.295,524.918 L 650.376,524.918 C 650.161,524.918 649.984,524.968 649.845,525.068 C 649.705,525.168 649.609,525.297 649.555,525.453 L 648.925,527.315 L 644.866,527.315 L 644.236,525.453 C 644.187,525.316 644.092,525.193 643.95,525.083 C 643.808,524.973 643.635,524.918 643.43,524.918 L 641.496,524.918 L 645.628,535.595 L 648.163,535.595 L 652.295,524.918 Z M 645.437,529 L 648.354,529 L 647.372,531.879 C 647.308,532.061 647.234,532.277 647.148,532.524 C 647.063,532.772 646.979,533.04 646.895,533.329 C 646.817,533.035 646.737,532.764 646.654,532.513 C 646.571,532.264 646.493,532.047 646.419,531.864 L 645.437,529 Z" marker-start="none" marker-end="none"/>
      <path d="M 655.634,526.896 L 659.59,526.896 L 659.59,524.918 L 653.157,524.918 L 653.157,535.595 L 655.634,535.595 L 655.634,526.896 Z" marker-start="none" marker-end="none"/>
      <path d="M 666.713,533.425 C 666.639,533.307 666.562,533.219 666.482,533.161 C 666.401,533.102 666.297,533.073 666.17,533.073 C 666.058,533.073 665.937,533.108 665.808,533.179 C 665.678,533.25 665.532,533.329 665.368,533.417 C 665.204,533.505 665.018,533.585 664.808,533.655 C 664.598,533.726 664.358,533.762 664.09,533.762 C 663.626,533.762 663.28,533.663 663.053,533.465 C 662.826,533.267 662.712,533 662.712,532.663 C 662.712,532.447 662.781,532.269 662.917,532.128 C 663.054,531.986 663.234,531.864 663.456,531.761 C 663.678,531.659 663.932,531.565 664.218,531.479 C 664.504,531.394 664.795,531.298 665.093,531.193 C 665.391,531.088 665.683,530.965 665.969,530.823 C 666.255,530.682 666.509,530.501 666.731,530.281 C 666.953,530.061 667.133,529.794 667.269,529.479 C 667.406,529.164 667.475,528.784 667.475,528.339 C 667.475,527.846 667.389,527.384 667.218,526.954 C 667.047,526.524 666.799,526.15 666.474,525.83 C 666.15,525.51 665.749,525.258 665.273,525.075 C 664.797,524.892 664.256,524.8 663.65,524.8 C 663.318,524.8 662.98,524.834 662.635,524.903 C 662.291,524.971 661.957,525.067 661.635,525.192 C 661.313,525.317 661.01,525.464 660.727,525.635 C 660.443,525.806 660.197,525.997 659.987,526.207 L 660.719,527.365 C 660.773,527.453 660.849,527.524 660.946,527.577 C 661.044,527.631 661.149,527.658 661.261,527.658 C 661.408,527.658 661.556,527.612 661.705,527.519 C 661.854,527.426 662.022,527.323 662.21,527.211 C 662.398,527.099 662.614,526.996 662.859,526.903 C 663.103,526.81 663.391,526.764 663.723,526.764 C 664.173,526.764 664.522,526.863 664.771,527.061 C 665.02,527.258 665.145,527.573 665.145,528.002 C 665.145,528.252 665.076,528.454 664.939,528.611 C 664.803,528.767 664.623,528.896 664.401,528.999 C 664.179,529.102 663.926,529.192 663.643,529.27 C 663.359,529.348 663.069,529.435 662.771,529.53 C 662.473,529.625 662.182,529.743 661.899,529.882 C 661.616,530.021 661.363,530.204 661.141,530.432 C 660.918,530.659 660.739,530.942 660.602,531.282 C 660.465,531.621 660.397,532.04 660.397,532.538 C 660.397,532.939 660.477,533.33 660.639,533.711 C 660.8,534.092 661.037,534.431 661.349,534.729 C 661.662,535.027 662.045,535.266 662.5,535.444 C 662.954,535.622 663.474,535.711 664.06,535.711 C 664.388,535.711 664.706,535.686 665.016,535.634 C 665.327,535.583 665.621,535.507 665.899,535.407 C 666.178,535.307 666.438,535.187 666.68,535.048 C 666.921,534.909 667.138,534.751 667.328,534.575 L 666.713,533.425 Z" marker-start="none" marker-end="none"/>
      <path d="M 668.324,526.208 C 668.324,526.364 668.354,526.51 668.412,526.644 C 668.471,526.779 668.555,526.896 668.665,526.996 C 668.775,527.096 668.904,527.175 669.053,527.234 C 669.202,527.293 669.37,527.322 669.555,527.322 C 669.775,527.322 669.965,527.284 670.127,527.208 C 670.288,527.133 670.422,527.03 670.53,526.901 C 670.637,526.771 670.716,526.622 670.768,526.454 C 670.819,526.285 670.845,526.108 670.845,525.922 C 670.845,525.678 670.806,525.418 670.727,525.142 C 670.649,524.866 670.533,524.589 670.379,524.31 C 670.226,524.032 670.034,523.758 669.804,523.489 C 669.575,523.221 669.311,522.976 669.013,522.757 L 668.617,523.108 C 668.564,523.162 668.523,523.212 668.496,523.259 C 668.47,523.305 668.456,523.362 668.456,523.431 C 668.456,523.48 668.473,523.532 668.507,523.588 C 668.542,523.645 668.583,523.695 668.632,523.739 C 668.691,523.797 668.759,523.868 668.837,523.951 C 668.915,524.034 668.993,524.127 669.072,524.23 C 669.15,524.332 669.222,524.445 669.288,524.567 C 669.354,524.689 669.404,524.818 669.438,524.955 C 669.267,524.97 669.113,525.011 668.976,525.08 C 668.84,525.148 668.724,525.239 668.628,525.351 C 668.533,525.463 668.459,525.591 668.405,525.736 C 668.351,525.88 668.324,526.037 668.324,526.208 Z" marker-start="none" marker-end="none"/>
      <path d="M 677.698,524.918 L 675.207,524.918 L 675.207,535.597 L 677.698,535.597 L 677.698,524.918 Z" marker-start="none" marker-end="none"/>
      <path d="M 680.978,535.597 C 681.086,535.597 681.176,535.592 681.249,535.582 C 681.323,535.573 681.389,535.554 681.447,535.527 C 681.506,535.5 681.562,535.462 681.616,535.414 C 681.67,535.365 681.731,535.299 681.799,535.216 L 686.869,528.805 C 686.85,529.01 686.835,529.209 686.825,529.402 C 686.815,529.595 686.81,529.777 686.81,529.948 L 686.81,535.597 L 688.994,535.597 L 688.994,524.918 L 687.704,524.918 C 687.514,524.918 687.353,524.947 687.221,525.006 C 687.089,525.065 686.962,525.172 686.84,525.328 L 681.806,531.688 C 681.821,531.502 681.833,531.32 681.843,531.142 C 681.853,530.964 681.858,530.797 681.858,530.64 L 681.858,524.918 L 679.674,524.918 L 679.674,535.597 L 680.978,535.597 Z" marker-start="none" marker-end="none"/>
      <path d="M 697.923,527.678 C 697.982,527.678 698.04,527.667 698.099,527.645 C 698.158,527.622 698.214,527.584 698.267,527.529 L 699.249,526.474 C 698.819,525.921 698.281,525.503 697.634,525.222 C 696.987,524.941 696.221,524.8 695.337,524.8 C 694.526,524.8 693.799,524.938 693.157,525.214 C 692.515,525.49 691.97,525.871 691.523,526.357 C 691.076,526.843 690.733,527.42 690.494,528.087 C 690.254,528.754 690.135,529.478 690.135,530.259 C 690.135,531.056 690.272,531.787 690.545,532.454 C 690.819,533.121 691.201,533.696 691.692,534.18 C 692.183,534.663 692.77,535.04 693.454,535.308 C 694.138,535.577 694.892,535.711 695.718,535.711 C 696.118,535.711 696.496,535.676 696.85,535.605 C 697.204,535.534 697.535,535.436 697.843,535.311 C 698.15,535.187 698.434,535.038 698.692,534.864 C 698.951,534.69 699.181,534.498 699.381,534.288 L 698.546,533.167 C 698.492,533.098 698.429,533.036 698.355,532.98 C 698.282,532.924 698.18,532.896 698.048,532.896 C 697.96,532.896 697.877,532.915 697.799,532.954 C 697.72,532.993 697.637,533.041 697.549,533.097 C 697.462,533.153 697.365,533.214 697.26,533.28 C 697.155,533.346 697.03,533.407 696.886,533.464 C 696.742,533.52 696.574,533.567 696.381,533.607 C 696.188,533.645 695.962,533.665 695.703,533.665 C 695.254,533.665 694.843,533.586 694.472,533.427 C 694.101,533.268 693.782,533.041 693.516,532.745 C 693.25,532.45 693.042,532.092 692.893,531.672 C 692.744,531.252 692.67,530.78 692.67,530.258 C 692.67,529.71 692.744,529.224 692.893,528.799 C 693.042,528.374 693.245,528.017 693.501,527.726 C 693.758,527.435 694.057,527.214 694.399,527.063 C 694.741,526.911 695.107,526.836 695.498,526.836 C 695.723,526.836 695.928,526.847 696.113,526.869 C 696.299,526.891 696.471,526.928 696.63,526.982 C 696.789,527.036 696.94,527.105 697.084,527.191 C 697.228,527.276 697.374,527.383 697.52,527.51 C 697.579,527.559 697.642,527.599 697.711,527.631 C 697.779,527.662 697.85,527.678 697.923,527.678 Z" marker-start="none" marker-end="none"/>
      <path d="M 699.942,526.068 C 699.942,526.244 699.975,526.408 700.041,526.559 C 700.106,526.711 700.197,526.843 700.312,526.955 C 700.426,527.068 700.562,527.157 700.718,527.223 C 700.875,527.289 701.046,527.322 701.231,527.322 C 701.412,527.322 701.58,527.289 701.737,527.223 C 701.893,527.157 702.03,527.068 702.147,526.955 C 702.264,526.843 702.356,526.711 702.422,526.559 C 702.488,526.408 702.521,526.244 702.521,526.068 C 702.521,525.892 702.488,525.727 702.422,525.573 C 702.356,525.419 702.264,525.286 702.147,525.174 C 702.03,525.061 701.893,524.973 701.737,524.91 C 701.58,524.846 701.412,524.814 701.231,524.814 C 701.046,524.814 700.875,524.846 700.718,524.91 C 700.562,524.973 700.426,525.061 700.312,525.174 C 700.197,525.286 700.106,525.419 700.041,525.573 C 699.975,525.727 699.942,525.892 699.942,526.068 Z" marker-start="none" marker-end="none"/>
     </g>
    </g>
    <g id="Group_23" fill-rule="nonzero" stroke-linejoin="round" stroke-linecap="round" stroke="none" stroke-width="0.387" fill="#000000">
     <g id="Group_24">
      <path d="M 643.478,380.672 L 643.478,377.59 L 646.357,377.59 L 646.357,375.861 L 643.478,375.861 L 643.478,372.764 L 641.517,372.764 L 641.517,375.861 L 638.653,375.861 L 638.653,377.59 L 641.517,377.59 L 641.517,380.672 L 643.478,380.672 Z" marker-start="none" marker-end="none"/>
      <path d="M 648.988,373.239 L 651.167,373.239 L 651.167,378.959 C 651.167,379.24 651.175,379.533 651.19,379.839 L 649.906,378.772 C 649.823,378.705 649.74,378.657 649.657,378.628 C 649.574,378.6 649.494,378.586 649.416,378.586 C 649.281,378.586 649.161,378.615 649.054,378.675 C 648.948,378.735 648.869,378.798 648.817,378.866 L 648.054,379.878 L 651.587,382.843 L 653.58,382.843 L 653.58,373.239 L 655.447,373.239 L 655.447,371.495 L 648.988,371.495 L 648.988,373.239 Z" marker-start="none" marker-end="none"/>
     </g>
    </g>
    <g id="Group_25" fill-rule="nonzero" stroke-linejoin="round" stroke-linecap="round" stroke="none" stroke-width="0.387" fill="#000000">
     <g id="Group_26">
      <path d="M 654.858,438.79 L 654.858,435.708 L 657.737,435.708 L 657.737,433.979 L 654.858,433.979 L 654.858,430.882 L 652.897,430.882 L 652.897,433.979 L 650.033,433.979 L 650.033,435.708 L 652.897,435.708 L 652.897,438.79 L 654.858,438.79 Z" marker-start="none" marker-end="none"/>
      <path d="M 663.092,441.077 C 663.652,441.077 664.157,440.995 664.605,440.832 C 665.054,440.669 665.437,440.442 665.753,440.151 C 666.07,439.861 666.312,439.514 666.481,439.112 C 666.65,438.71 666.734,438.268 666.734,437.785 C 666.734,437.37 666.676,436.986 666.559,436.633 C 666.442,436.28 666.283,435.944 666.08,435.625 C 665.878,435.306 665.643,434.998 665.376,434.699 C 665.109,434.401 664.825,434.099 664.524,433.793 L 662.306,431.52 C 662.591,431.604 662.873,431.67 663.15,431.72 C 663.428,431.77 663.688,431.794 663.932,431.794 L 666.049,431.794 C 666.308,431.794 666.513,431.723 666.664,431.58 C 666.814,431.437 666.89,431.249 666.89,431.015 L 666.89,429.613 L 658.921,429.613 L 658.921,430.391 C 658.921,430.542 658.952,430.703 659.014,430.874 C 659.076,431.045 659.185,431.201 659.341,431.341 L 662.609,434.633 C 662.89,434.914 663.133,435.181 663.341,435.435 C 663.548,435.689 663.72,435.94 663.855,436.186 C 663.989,436.433 664.091,436.679 664.158,436.926 C 664.225,437.172 664.259,437.433 664.259,437.708 C 664.259,438.159 664.152,438.506 663.936,438.747 C 663.721,438.988 663.393,439.109 662.952,439.109 C 662.77,439.109 662.604,439.083 662.454,439.031 C 662.303,438.979 662.168,438.909 662.049,438.821 C 661.93,438.733 661.827,438.629 661.742,438.51 C 661.656,438.39 661.587,438.261 661.535,438.121 C 661.452,437.887 661.347,437.719 661.22,437.615 C 661.093,437.511 660.921,437.459 660.703,437.459 C 660.651,437.459 660.595,437.462 660.535,437.467 C 660.476,437.472 660.415,437.48 660.353,437.49 L 659.076,437.712 C 659.159,438.278 659.319,438.772 659.555,439.192 C 659.791,439.613 660.084,439.963 660.434,440.244 C 660.784,440.524 661.185,440.733 661.637,440.871 C 662.088,441.008 662.573,441.077 663.092,441.077 Z" marker-start="none" marker-end="none"/>
     </g>
    </g>
    <g id="Group_27" fill-rule="nonzero" stroke-linejoin="round" stroke-linecap="round" stroke="none" stroke-width="0.387" fill="#000000">
     <g id="Group_28">
      <path d="M 713.086,454.831 L 713.086,451.749 L 715.965,451.749 L 715.965,450.02 L 713.086,450.02 L 713.086,446.923 L 711.125,446.923 L 711.125,450.02 L 708.261,450.02 L 708.261,451.749 L 711.125,451.749 L 711.125,454.831 L 713.086,454.831 Z" marker-start="none" marker-end="none"/>
      <path d="M 718.596,447.398 L 720.775,447.398 L 720.775,453.118 C 720.775,453.399 720.783,453.692 720.798,453.998 L 719.514,452.931 C 719.431,452.864 719.348,452.816 719.265,452.787 C 719.182,452.759 719.102,452.745 719.024,452.745 C 718.889,452.745 718.769,452.774 718.662,452.834 C 718.556,452.894 718.477,452.957 718.425,453.025 L 717.662,454.037 L 721.195,457.002 L 723.188,457.002 L 723.188,447.398 L 725.055,447.398 L 725.055,445.654 L 718.596,445.654 L 718.596,447.398 Z" marker-start="none" marker-end="none"/>
     </g>
    </g>
   </g>
   <path d="M 534.069,362.971 L 534.069,547.981 C 534.069,556.378 540.884,563.194 549.281,563.194 L 734.292,563.194 C 742.689,563.194 749.504,556.378 749.504,547.981 L 749.504,362.971 C 749.504,354.574 742.689,347.758 734.292,347.758 L 549.281,347.758 C 540.884,347.758 534.069,354.574 534.069,362.971 Z M 748.795,363.58 L 748.795,547.372 C 748.795,555.714 742.025,562.485 733.683,562.485 L 549.89,562.485 C 541.548,562.485 534.778,555.714 534.778,547.372 L 534.778,363.58 C 534.778,355.238 541.548,348.467 549.89,348.467 L 733.683,348.467 C 742.025,348.467 748.795,355.238 748.795,363.58 Z" stroke-linejoin="miter" stroke-width="0.802" fill="#7f7f7f" stroke="none" marker-start="none" marker-end="none"/>
  </g>
 </g>
</svg>
