<?xml version="1.0" standalone="no"?>
<!DOCTYPE svg PUBLIC "-//W3C//DTD SVG 1.1//EN" "http://www.w3.org/Graphics/SVG/1.1/DTD/svg11.dtd">
<!--Generator: Xara Designer (www.xara.com), SVG filter version: 6.6.0.0-->
<svg fill="none" fill-rule="evenodd" stroke="black" stroke-width="0.501" stroke-linejoin="bevel" stroke-miterlimit="10" font-family="Times New Roman" font-size="16" style="font-variant-ligatures:none" xmlns:xlink="http://www.w3.org/1999/xlink" xmlns="http://www.w3.org/2000/svg" version="1.1" overflow="visible" width="215.435pt" height="215.436pt" viewBox="273.069 -298.077 215.435 215.436">
 <defs>
	</defs>
 <g id="Page background" transform="scale(1 -1)"/>
 <g id="Layer 1" transform="scale(1 -1)">
  <g id="Group">
   <g id="Group_1">
    <g id="Group_2" stroke-linejoin="miter" stroke="none" stroke-width="0.802">
     <path d="M 273.069,282.864 L 273.069,97.854 C 273.069,89.457 279.884,82.641 288.281,82.641 L 473.292,82.641 C 481.689,82.641 488.504,89.457 488.504,97.854 L 488.504,282.864 C 488.504,291.261 481.689,298.077 473.292,298.077 L 288.281,298.077 C 279.884,298.077 273.069,291.261 273.069,282.864 Z" fill="#7f7f7f" marker-start="none" marker-end="none"/>
     <path d="M 273.778,282.255 L 273.778,98.463 C 273.778,90.121 280.548,83.35 288.89,83.35 L 472.683,83.35 C 481.025,83.35 487.795,90.121 487.795,98.463 L 487.795,282.255 C 487.795,290.597 481.025,297.368 472.683,297.368 L 288.89,297.368 C 280.548,297.368 273.778,290.597 273.778,282.255 Z" marker-start="none" marker-end="none"/>
     <path d="M 273.778,282.255 L 273.778,98.463 C 273.778,90.121 280.548,83.35 288.89,83.35 L 472.683,83.35 C 481.025,83.35 487.795,90.121 487.795,98.463 L 487.795,282.255 C 487.795,290.597 481.025,297.368 472.683,297.368 L 288.89,297.368 C 280.548,297.368 273.778,290.597 273.778,282.255 Z" fill="#ffffff" marker-start="none" marker-end="none"/>
    </g>
    <g id="Group_3" stroke-linejoin="miter" stroke-linecap="round" stroke="#95afc0">
     <path d="M 288.074,228.757 L 288.074,262.649 L 391.662,262.649 L 391.662,228.757 L 288.074,228.757 Z" fill="#95afc0" stroke-width="1.738" marker-start="none" marker-end="none"/>
     <path d="M 288.074,227.414 L 288.074,237.224 C 288.074,239.795 290.158,241.872 292.72,241.872 L 387.012,241.872 C 389.574,241.872 391.662,239.795 391.662,237.224 L 391.662,227.414 C 391.662,224.838 389.574,222.76 387.012,222.76 L 292.72,222.76 C 290.158,222.76 288.074,224.838 288.074,227.414 Z" fill="#95afc0" stroke-width="1.738" marker-start="none" marker-end="none"/>
     <path d="M 288.771,256.307 L 288.771,273.952 C 288.771,278.565 292.515,282.311 297.133,282.311 L 464.179,282.311 C 468.792,282.311 472.54,278.565 472.54,273.952 L 472.54,256.307 C 472.54,251.689 468.792,247.941 464.179,247.941 L 297.133,247.941 C 292.515,247.941 288.771,251.689 288.771,256.307 Z" fill="#ffffff" stroke-width="3.13" marker-start="none" marker-end="none"/>
    </g>
    <g id="Group_4" stroke-linecap="round" stroke="none" fill="#e5e5e5">
     <path d="M 373.533,83.08 L 364.999,83.08 L 364.999,132.243 L 373.533,132.243 L 373.533,83.08 Z" stroke-width="0.103" stroke-linejoin="miter" marker-start="none" marker-end="none"/>
     <path d="M 393.765,182.685 C 380.326,170.417 373.497,153.604 373.494,136.731 L 365.015,136.731 C 365.02,155.903 372.77,175.016 388.039,188.95 C 401.6,201.324 418.677,207.425 435.7,207.42 L 435.7,198.934 C 420.718,198.941 405.691,193.572 393.765,182.685 Z" stroke-width="0.541" stroke-linejoin="round" marker-start="none" marker-end="none"/>
     <path d="M 473.653,203.193 L 470.608,201.075 L 467.555,198.953 L 467.555,198.9 L 440.278,198.9 L 440.278,207.436 L 467.555,207.436 L 470.608,205.316 L 473.653,203.193 Z" stroke-width="0.103" stroke-linejoin="miter" marker-start="none" marker-end="none"/>
    </g>
    <g id="Group_5" fill="#ffcd36" stroke-linecap="round" stroke="none">
     <path d="M 473.657,191.643 L 470.611,189.523 L 467.555,187.402 L 467.555,191.643 L 467.559,195.884 L 470.611,193.761 L 473.657,191.643 Z M 467.555,187.379 L 440.278,187.379 L 440.278,195.913 L 467.555,195.913 L 467.555,187.379 Z" stroke-width="0.103" stroke-linejoin="miter" marker-start="none" marker-end="none"/>
     <path d="M 401.387,174.331 C 390.396,164.291 384.809,150.536 384.804,136.731 L 376.323,136.731 C 376.327,152.838 382.842,168.888 395.67,180.597 C 407.057,190.991 421.4,196.111 435.7,196.108 L 435.7,187.622 C 423.443,187.632 411.151,183.237 401.387,174.331 Z" stroke-width="0.453" stroke-linejoin="round" marker-start="none" marker-end="none"/>
     <path d="M 384.836,83.08 L 376.304,83.08 L 376.304,132.243 L 384.836,132.243 L 384.836,83.08 Z" stroke-width="0.103" stroke-linejoin="miter" marker-start="none" marker-end="none"/>
    </g>
    <g id="Group_6" stroke-linecap="round" stroke="none" fill="#e5e5e5">
     <path d="M 473.657,180.327 L 470.611,178.211 L 467.555,176.09 L 467.555,180.331 L 467.559,184.574 L 470.611,182.454 L 473.657,180.327 Z M 467.555,176.081 L 440.278,176.081 L 440.278,184.616 L 467.555,184.616 L 467.555,176.081 Z" stroke-width="0.103" stroke-linejoin="miter" marker-start="none" marker-end="none"/>
     <path d="M 396.134,83.08 L 387.603,83.08 L 387.603,132.243 L 396.134,132.243 L 396.134,83.08 Z" stroke-width="0.103" stroke-linejoin="miter" marker-start="none" marker-end="none"/>
     <path d="M 409.014,165.976 C 400.462,158.169 396.122,147.464 396.116,136.731 L 387.632,136.731 C 387.635,149.773 392.908,162.763 403.297,172.242 C 412.512,180.653 424.128,184.801 435.7,184.799 L 435.7,176.317 C 426.168,176.317 416.603,172.903 409.014,165.976 Z" stroke-width="0.368" stroke-linejoin="round" marker-start="none" marker-end="none"/>
    </g>
    <g id="Group_7" fill="#e5e5e5" stroke-linecap="round" stroke="none">
     <path d="M 407.43,83.08 L 398.896,83.08 L 398.896,132.243 L 407.43,132.243 L 407.43,83.08 Z" stroke-width="0.103" stroke-linejoin="miter" marker-start="none" marker-end="none"/>
     <path d="M 416.635,157.621 C 410.528,152.043 407.428,144.405 407.425,136.731 L 398.938,136.731 C 398.947,146.701 402.98,156.64 410.918,163.883 C 417.967,170.322 426.844,173.493 435.7,173.489 L 435.7,165.001 C 428.893,165.008 422.061,162.566 416.635,157.621 Z" stroke-width="0.281" stroke-linejoin="round" marker-start="none" marker-end="none"/>
     <path d="M 473.653,169.274 L 470.608,167.142 L 467.555,165.001 L 467.555,165.001 L 440.278,165.001 L 440.278,173.54 L 467.555,173.54 L 467.555,173.54 L 470.611,171.41 L 473.653,169.274 Z" stroke-width="0.103" stroke-linejoin="miter" marker-start="none" marker-end="none"/>
    </g>
    <g id="Group_8" stroke-linejoin="miter">
     <path d="M 332.569,171.799 C 326.669,178.777 327.548,189.237 334.543,195.146 C 341.525,201.038 351.978,200.159 357.882,193.172 C 363.791,186.18 362.905,175.726 355.908,169.821 C 348.926,163.926 338.469,164.805 332.569,171.799 Z" stroke="none" fill="#000000" stroke-width="0.686" marker-start="none" marker-end="none"/>
     <path d="M 333.347,172.408 C 327.456,179.406 328.328,189.865 335.321,195.758 C 342.31,201.667 352.762,200.784 358.678,193.791 C 364.575,186.809 363.69,176.357 356.696,170.452 C 349.717,164.546 339.253,165.425 333.347,172.408 Z" stroke="#b2b2b2" stroke-width="3.752" marker-start="none" marker-end="none"/>
    </g>
    <g id="Group_9" stroke-linejoin="miter">
     <path d="M 291.884,171.786 C 285.984,178.775 286.863,189.243 293.86,195.134 C 300.843,201.045 311.297,200.162 317.199,193.174 C 323.11,186.185 322.224,175.725 315.226,169.821 C 308.243,163.922 297.784,164.805 291.884,171.786 Z" stroke="none" fill="#ffffff" stroke-width="0.689" marker-start="none" marker-end="none"/>
     <path d="M 292.664,172.421 C 286.771,179.413 287.644,189.859 294.636,195.772 C 301.627,201.656 312.082,200.784 317.995,193.796 C 323.893,186.809 323.009,176.343 316.015,170.443 C 309.034,164.544 298.569,165.422 292.664,172.421 Z" stroke="#539bc5" stroke-width="3.752" marker-start="none" marker-end="none"/>
    </g>
    <g id="Group_10" stroke-linejoin="miter">
     <path d="M 294.424,107.542 C 285.527,118.082 286.852,133.868 297.404,142.752 C 307.935,151.666 323.7,150.334 332.601,139.796 C 341.515,129.256 340.179,113.482 329.625,104.579 C 319.094,95.683 303.322,97.014 294.424,107.542 Z" stroke="none" fill="#ffffff" stroke-width="1.039" marker-start="none" marker-end="none"/>
     <path d="M 295.601,108.499 C 286.714,119.044 288.03,134.797 298.574,143.714 C 309.117,152.587 324.884,151.272 333.801,140.734 C 342.695,130.197 341.362,114.414 330.815,105.517 C 320.287,96.621 304.506,97.945 295.601,108.499 Z" stroke="#539bc5" stroke-width="5.658" marker-start="none" marker-end="none"/>
    </g>
    <g id="Group_11" stroke-linejoin="miter">
     <path d="M 426.014,107.138 C 417.117,117.678 418.442,133.464 428.994,142.348 C 439.525,151.262 455.29,149.93 464.191,139.392 C 473.105,128.852 471.769,113.078 461.215,104.175 C 450.684,95.279 434.912,96.61 426.014,107.138 Z" stroke="none" fill="#000000" stroke-width="1.039" marker-start="none" marker-end="none"/>
     <path d="M 427.191,108.095 C 418.304,118.64 419.62,134.393 430.164,143.31 C 440.707,152.183 456.474,150.868 465.391,140.33 C 474.285,129.793 472.952,114.01 462.405,105.113 C 451.877,96.217 436.096,97.541 427.191,108.095 Z" stroke="#b2b2b2" stroke-width="5.658" marker-start="none" marker-end="none"/>
    </g>
    <g id="Group_12" stroke-linejoin="miter">
     <path d="M 375.774,103.438 C 371.249,108.794 371.925,116.81 377.283,121.334 C 382.639,125.857 390.66,125.185 395.179,119.827 C 399.704,114.471 399.029,106.452 393.67,101.932 C 388.316,97.404 380.296,98.087 375.774,103.438 Z" stroke="none" fill="#ffffff" stroke-width="0.526" marker-start="none" marker-end="none"/>
     <path d="M 376.377,103.92 C 371.853,109.269 372.529,117.291 377.885,121.812 C 383.244,126.34 391.26,125.662 395.784,120.303 C 400.312,114.952 399.635,106.929 394.275,102.405 C 388.915,97.884 380.9,98.558 376.377,103.92 Z" fill="none" stroke="#539bc5" stroke-width="2.872" marker-start="none" marker-end="none"/>
    </g>
    <g id="Group_13" stroke-linejoin="miter">
     <path d="M 387.725,160.752 C 383.204,166.103 383.879,174.122 389.236,178.65 C 394.593,183.166 402.612,182.493 407.136,177.135 C 411.659,171.781 410.979,163.764 405.625,159.241 C 400.269,154.717 392.25,155.393 387.725,160.752 Z" stroke="none" fill="#ffffff" stroke-width="0.526" marker-start="none" marker-end="none"/>
     <path d="M 388.334,161.23 C 383.806,166.584 384.48,174.6 389.84,179.124 C 395.198,183.649 403.213,182.975 407.738,177.613 C 412.266,172.257 411.581,164.24 406.23,159.714 C 400.87,155.189 392.855,155.87 388.334,161.23 Z" fill="none" stroke="#539bc5" stroke-width="2.872" marker-start="none" marker-end="none"/>
    </g>
    <g id="Group_14" stroke-linejoin="miter">
     <path d="M 445.346,177.537 C 440.822,182.893 441.501,190.91 446.856,195.438 C 452.217,199.959 460.236,199.281 464.759,193.923 C 469.287,188.571 468.605,180.548 463.248,176.029 C 457.888,171.51 449.872,172.184 445.346,177.537 Z" stroke="none" fill="#ffffff" stroke-width="0.526" marker-start="none" marker-end="none"/>
     <path d="M 445.953,178.021 C 441.429,183.372 442.106,191.391 447.464,195.916 C 452.824,200.437 460.839,199.763 465.362,194.403 C 469.888,189.05 469.211,181.03 463.855,176.509 C 458.493,171.984 450.476,172.66 445.953,178.021 Z" fill="none" stroke="#539bc5" stroke-width="2.872" marker-start="none" marker-end="none"/>
    </g>
    <g id="Group_15" fill-rule="nonzero" stroke-linejoin="round" stroke-linecap="round" stroke="none" stroke-width="0.485" fill="#b2b2b2">
     <g id="Group_16">
      <path d="M 345.192,190.36 C 345.893,190.36 346.525,190.258 347.087,190.053 C 347.649,189.849 348.128,189.564 348.525,189.201 C 348.921,188.837 349.225,188.403 349.436,187.9 C 349.647,187.396 349.753,186.842 349.753,186.238 C 349.753,185.718 349.68,185.237 349.533,184.795 C 349.387,184.353 349.187,183.933 348.934,183.533 C 348.681,183.134 348.387,182.747 348.052,182.373 C 347.717,182 347.362,181.621 346.985,181.238 L 344.207,178.392 C 344.565,178.497 344.917,178.58 345.265,178.642 C 345.612,178.705 345.939,178.735 346.244,178.735 L 348.895,178.735 C 349.22,178.735 349.476,178.646 349.665,178.467 C 349.853,178.288 349.948,178.052 349.948,177.76 L 349.948,176.004 L 339.968,176.004 L 339.968,176.979 C 339.968,177.167 340.007,177.368 340.085,177.583 C 340.163,177.797 340.3,177.992 340.494,178.168 L 344.588,182.291 C 344.938,182.642 345.244,182.977 345.504,183.295 C 345.763,183.613 345.978,183.927 346.147,184.235 C 346.316,184.544 346.442,184.853 346.527,185.161 C 346.611,185.47 346.654,185.797 346.654,186.141 C 346.654,186.706 346.519,187.14 346.249,187.442 C 345.979,187.744 345.569,187.896 345.016,187.896 C 344.789,187.896 344.581,187.863 344.393,187.798 C 344.204,187.733 344.035,187.645 343.886,187.535 C 343.736,187.425 343.608,187.295 343.501,187.145 C 343.394,186.996 343.308,186.833 343.243,186.658 C 343.139,186.366 343.007,186.155 342.848,186.025 C 342.689,185.895 342.473,185.83 342.2,185.83 C 342.135,185.83 342.065,185.833 341.99,185.839 C 341.916,185.846 341.839,185.855 341.761,185.868 L 340.163,186.146 C 340.267,186.855 340.467,187.473 340.762,188 C 341.058,188.527 341.425,188.965 341.864,189.317 C 342.302,189.668 342.804,189.929 343.369,190.102 C 343.935,190.274 344.542,190.36 345.192,190.36 Z" marker-start="none" marker-end="none"/>
     </g>
    </g>
    <g id="Group_17" fill-rule="nonzero" stroke-linejoin="round" stroke-linecap="round" stroke="none" stroke-width="0.485" fill="#000000">
     <g id="Group_18">
      <path d="M 305.71,190.36 C 306.411,190.36 307.035,190.261 307.581,190.062 C 308.126,189.864 308.588,189.595 308.965,189.256 C 309.341,188.917 309.627,188.525 309.822,188.078 C 310.017,187.632 310.115,187.161 310.115,186.666 C 310.115,186.217 310.069,185.821 309.978,185.478 C 309.887,185.136 309.752,184.84 309.574,184.589 C 309.395,184.338 309.174,184.125 308.911,183.949 C 308.648,183.773 308.347,183.627 308.01,183.509 C 309.582,182.965 310.368,181.898 310.368,180.31 C 310.368,179.558 310.231,178.904 309.959,178.346 C 309.686,177.788 309.32,177.325 308.862,176.956 C 308.404,176.586 307.873,176.309 307.269,176.124 C 306.665,175.939 306.034,175.847 305.378,175.847 C 304.703,175.847 304.102,175.92 303.575,176.066 C 303.049,176.212 302.581,176.44 302.172,176.748 C 301.763,177.057 301.404,177.451 301.095,177.932 C 300.787,178.413 300.519,178.984 300.291,179.647 L 301.636,180.194 C 301.753,180.247 301.868,180.282 301.982,180.302 C 302.096,180.321 302.208,180.331 302.318,180.331 C 302.526,180.331 302.713,180.29 302.879,180.209 C 303.044,180.128 303.169,180.009 303.254,179.853 C 303.546,179.313 303.856,178.921 304.184,178.678 C 304.513,178.434 304.897,178.312 305.339,178.312 C 305.677,178.312 305.971,178.369 306.221,178.483 C 306.471,178.596 306.679,178.742 306.845,178.921 C 307.011,179.1 307.136,179.304 307.22,179.531 C 307.305,179.759 307.347,179.99 307.347,180.224 C 307.347,180.529 307.326,180.804 307.284,181.048 C 307.241,181.292 307.123,181.502 306.928,181.677 C 306.733,181.853 306.439,181.988 306.046,182.082 C 305.653,182.176 305.105,182.223 304.404,182.223 L 304.404,184.308 C 304.995,184.308 305.472,184.353 305.836,184.444 C 306.2,184.535 306.481,184.66 306.679,184.82 C 306.877,184.979 307.009,185.172 307.074,185.4 C 307.139,185.627 307.171,185.877 307.171,186.15 C 307.171,186.709 307.037,187.14 306.767,187.442 C 306.497,187.744 306.086,187.896 305.534,187.896 C 305.307,187.896 305.099,187.863 304.91,187.798 C 304.722,187.733 304.553,187.645 304.404,187.535 C 304.254,187.424 304.126,187.294 304.019,187.145 C 303.912,186.995 303.826,186.833 303.761,186.657 C 303.657,186.365 303.525,186.154 303.366,186.024 C 303.207,185.894 302.991,185.828 302.718,185.828 C 302.653,185.828 302.583,185.832 302.508,185.838 C 302.434,185.845 302.357,185.854 302.279,185.867 L 300.681,186.15 C 300.785,186.858 300.985,187.476 301.28,188.002 C 301.576,188.528 301.943,188.967 302.382,189.318 C 302.82,189.668 303.322,189.93 303.887,190.102 C 304.452,190.274 305.06,190.36 305.71,190.36 Z" marker-start="none" marker-end="none"/>
     </g>
    </g>
    <g id="Group_19" fill-rule="nonzero" stroke-linejoin="round" stroke-linecap="round" stroke="none" stroke-width="0.319" fill="#ffffff">
     <g id="Group_20">
      <path d="M 300.564,234.418 L 300.564,231.305 L 298.403,231.305 L 298.403,240.62 L 301.689,240.62 C 302.345,240.62 302.909,240.542 303.38,240.387 C 303.85,240.231 304.238,240.017 304.543,239.744 C 304.848,239.471 305.072,239.149 305.217,238.779 C 305.362,238.408 305.435,238.007 305.435,237.577 C 305.435,237.112 305.36,236.686 305.211,236.298 C 305.062,235.91 304.834,235.577 304.527,235.3 C 304.22,235.023 303.831,234.807 303.36,234.651 C 302.889,234.496 302.332,234.418 301.689,234.418 L 300.564,234.418 Z M 300.564,236.047 L 301.689,236.047 C 302.251,236.047 302.656,236.182 302.903,236.45 C 303.151,236.719 303.274,237.095 303.274,237.576 C 303.274,237.79 303.242,237.984 303.178,238.159 C 303.114,238.334 303.017,238.484 302.887,238.61 C 302.757,238.735 302.593,238.833 302.395,238.901 C 302.197,238.969 301.962,239.003 301.689,239.003 L 300.564,239.003 L 300.564,236.047 Z" marker-start="none" marker-end="none"/>
      <path d="M 308.723,234.749 L 308.723,231.303 L 306.562,231.303 L 306.562,240.617 L 309.592,240.617 C 310.265,240.617 310.84,240.548 311.315,240.409 C 311.79,240.27 312.178,240.077 312.478,239.83 C 312.779,239.582 312.997,239.29 313.133,238.953 C 313.27,238.616 313.338,238.249 313.338,237.852 C 313.338,237.549 313.298,237.263 313.217,236.994 C 313.136,236.726 313.015,236.477 312.855,236.249 C 312.696,236.02 312.5,235.817 312.267,235.637 C 312.035,235.458 311.768,235.311 311.465,235.196 C 311.61,235.124 311.745,235.034 311.871,234.928 C 311.997,234.821 312.106,234.692 312.2,234.538 L 314.182,231.303 L 312.226,231.303 C 311.864,231.303 311.604,231.439 311.446,231.712 L 309.899,234.416 C 309.831,234.536 309.751,234.621 309.659,234.672 C 309.568,234.723 309.439,234.749 309.272,234.749 L 308.723,234.749 Z M 308.723,236.238 L 309.592,236.238 C 309.886,236.238 310.137,236.275 310.343,236.35 C 310.55,236.424 310.719,236.528 310.851,236.66 C 310.983,236.792 311.079,236.946 311.139,237.123 C 311.199,237.3 311.229,237.491 311.229,237.696 C 311.229,238.105 311.095,238.425 310.829,238.655 C 310.563,238.885 310.15,239 309.592,239 L 308.723,239 L 308.723,236.238 Z" marker-start="none" marker-end="none"/>
      <path d="M 323.938,235.963 C 323.938,235.29 323.822,234.663 323.59,234.084 C 323.358,233.504 323.031,233 322.609,232.571 C 322.187,232.143 321.679,231.807 321.084,231.564 C 320.49,231.321 319.83,231.2 319.106,231.2 C 318.381,231.2 317.721,231.321 317.124,231.564 C 316.527,231.807 316.017,232.143 315.593,232.571 C 315.169,233 314.841,233.504 314.609,234.084 C 314.376,234.663 314.26,235.29 314.26,235.963 C 314.26,236.637 314.376,237.263 314.609,237.843 C 314.841,238.423 315.169,238.925 315.593,239.352 C 316.017,239.778 316.527,240.113 317.124,240.356 C 317.721,240.598 318.381,240.72 319.106,240.72 C 319.83,240.72 320.49,240.597 321.084,240.352 C 321.679,240.107 322.187,239.772 322.609,239.345 C 323.031,238.919 323.358,238.416 323.59,237.836 C 323.822,237.257 323.938,236.632 323.938,235.963 Z M 321.727,235.963 C 321.727,236.423 321.667,236.837 321.548,237.206 C 321.428,237.574 321.257,237.887 321.033,238.142 C 320.809,238.398 320.535,238.594 320.212,238.73 C 319.888,238.866 319.519,238.934 319.106,238.935 C 318.688,238.934 318.316,238.866 317.99,238.73 C 317.664,238.594 317.389,238.398 317.166,238.142 C 316.942,237.887 316.77,237.574 316.651,237.206 C 316.532,236.837 316.472,236.423 316.472,235.963 C 316.472,235.499 316.532,235.082 316.651,234.714 C 316.77,234.345 316.942,234.033 317.166,233.778 C 317.389,233.522 317.664,233.327 317.99,233.193 C 318.316,233.059 318.688,232.992 319.106,232.992 C 319.519,232.992 319.888,233.059 320.212,233.193 C 320.535,233.327 320.809,233.522 321.033,233.778 C 321.257,234.033 321.428,234.345 321.548,234.714 C 321.667,235.082 321.727,235.499 321.727,235.963 Z" marker-start="none" marker-end="none"/>
      <path d="M 333.423,235.965 C 333.423,235.291 333.307,234.67 333.074,234.101 C 332.842,233.532 332.515,233.039 332.093,232.624 C 331.671,232.208 331.163,231.884 330.569,231.652 C 329.974,231.419 329.315,231.303 328.59,231.303 L 324.972,231.303 L 324.972,240.62 L 328.59,240.62 C 329.315,240.62 329.974,240.503 330.569,240.268 C 331.163,240.034 331.671,239.71 332.093,239.296 C 332.515,238.883 332.842,238.391 333.074,237.822 C 333.307,237.253 333.423,236.634 333.423,235.965 Z M 331.211,235.965 C 331.211,236.425 331.151,236.84 331.032,237.211 C 330.913,237.582 330.741,237.896 330.517,238.154 C 330.294,238.412 330.02,238.61 329.696,238.749 C 329.372,238.887 329.004,238.956 328.59,238.956 L 327.146,238.956 L 327.146,232.967 L 328.59,232.967 C 329.004,232.967 329.372,233.036 329.696,233.174 C 330.02,233.313 330.294,233.511 330.517,233.769 C 330.741,234.027 330.913,234.341 331.032,234.712 C 331.151,235.083 331.211,235.5 331.211,235.965 Z" marker-start="none" marker-end="none"/>
      <path d="M 338.335,233.01 C 338.625,233.01 338.884,233.058 339.112,233.154 C 339.34,233.25 339.532,233.387 339.69,233.567 C 339.848,233.746 339.968,233.964 340.051,234.222 C 340.134,234.48 340.176,234.773 340.176,235.101 L 340.176,240.618 L 342.337,240.618 L 342.337,235.1 C 342.337,234.529 342.244,234.005 342.058,233.527 C 341.873,233.05 341.608,232.639 341.263,232.293 C 340.917,231.948 340.498,231.68 340.003,231.488 C 339.509,231.296 338.953,231.2 338.335,231.2 C 337.713,231.2 337.154,231.296 336.66,231.488 C 336.166,231.68 335.746,231.948 335.401,232.293 C 335.056,232.639 334.791,233.05 334.608,233.527 C 334.425,234.005 334.333,234.529 334.333,235.1 L 334.333,240.618 L 336.494,240.618 L 336.494,235.107 C 336.494,234.779 336.535,234.486 336.619,234.228 C 336.702,233.97 336.822,233.751 336.98,233.57 C 337.137,233.389 337.33,233.25 337.558,233.154 C 337.786,233.058 338.045,233.01 338.335,233.01 Z" marker-start="none" marker-end="none"/>
      <path d="M 350.002,233.711 C 350.053,233.711 350.105,233.702 350.156,233.682 C 350.207,233.662 350.256,233.629 350.303,233.581 L 351.159,232.66 C 350.784,232.178 350.314,231.814 349.75,231.568 C 349.185,231.323 348.517,231.2 347.746,231.2 C 347.038,231.2 346.404,231.32 345.844,231.561 C 345.284,231.802 344.808,232.135 344.418,232.559 C 344.029,232.983 343.729,233.486 343.52,234.068 C 343.312,234.649 343.207,235.281 343.207,235.963 C 343.207,236.658 343.326,237.296 343.565,237.878 C 343.804,238.46 344.137,238.962 344.566,239.384 C 344.994,239.806 345.506,240.134 346.103,240.368 C 346.7,240.603 347.358,240.72 348.078,240.72 C 348.428,240.72 348.757,240.689 349.066,240.627 C 349.375,240.565 349.663,240.48 349.932,240.371 C 350.2,240.262 350.448,240.132 350.673,239.98 C 350.899,239.829 351.1,239.661 351.274,239.478 L 350.546,238.5 C 350.499,238.44 350.443,238.386 350.379,238.337 C 350.315,238.288 350.226,238.263 350.111,238.263 C 350.034,238.263 349.962,238.28 349.894,238.314 C 349.825,238.348 349.753,238.39 349.676,238.439 C 349.6,238.488 349.515,238.541 349.424,238.599 C 349.332,238.656 349.223,238.71 349.098,238.759 C 348.972,238.808 348.825,238.849 348.657,238.883 C 348.488,238.917 348.291,238.934 348.065,238.935 C 347.673,238.934 347.315,238.865 346.991,238.727 C 346.668,238.588 346.389,238.39 346.157,238.132 C 345.925,237.874 345.744,237.562 345.614,237.196 C 345.484,236.829 345.419,236.418 345.419,235.962 C 345.419,235.484 345.484,235.06 345.614,234.689 C 345.744,234.319 345.921,234.006 346.144,233.753 C 346.368,233.499 346.629,233.306 346.928,233.174 C 347.226,233.042 347.545,232.976 347.886,232.976 C 348.082,232.976 348.261,232.986 348.423,233.005 C 348.585,233.024 348.735,233.057 348.874,233.104 C 349.012,233.151 349.145,233.211 349.27,233.286 C 349.396,233.361 349.523,233.453 349.651,233.564 C 349.702,233.607 349.757,233.642 349.817,233.67 C 349.877,233.697 349.938,233.711 350.002,233.711 Z" marker-start="none" marker-end="none"/>
      <path d="M 358.91,240.62 L 358.91,238.906 L 356.289,238.906 L 356.289,231.305 L 354.129,231.305 L 354.129,238.906 L 351.508,238.906 L 351.508,240.62 L 358.91,240.62 Z" marker-start="none" marker-end="none"/>
      <path d="M 362.172,231.303 L 359.999,231.303 L 359.999,240.62 L 362.172,240.62 L 362.172,231.303 Z" marker-start="none" marker-end="none"/>
      <path d="M 373.088,235.963 C 373.088,235.29 372.972,234.663 372.74,234.084 C 372.508,233.504 372.181,233 371.759,232.571 C 371.337,232.143 370.829,231.807 370.234,231.564 C 369.64,231.321 368.98,231.2 368.256,231.2 C 367.531,231.2 366.871,231.321 366.274,231.564 C 365.677,231.807 365.167,232.143 364.743,232.571 C 364.319,233 363.991,233.504 363.759,234.084 C 363.526,234.663 363.41,235.29 363.41,235.963 C 363.41,236.637 363.526,237.263 363.759,237.843 C 363.991,238.423 364.319,238.925 364.743,239.352 C 365.167,239.778 365.677,240.113 366.274,240.356 C 366.871,240.598 367.531,240.72 368.256,240.72 C 368.98,240.72 369.64,240.597 370.234,240.352 C 370.829,240.107 371.337,239.772 371.759,239.345 C 372.181,238.919 372.508,238.416 372.74,237.836 C 372.972,237.257 373.088,236.632 373.088,235.963 Z M 370.877,235.963 C 370.877,236.423 370.817,236.837 370.698,237.206 C 370.578,237.574 370.407,237.887 370.183,238.142 C 369.959,238.398 369.685,238.594 369.362,238.73 C 369.038,238.866 368.669,238.934 368.256,238.935 C 367.838,238.934 367.466,238.866 367.14,238.73 C 366.814,238.594 366.539,238.398 366.316,238.142 C 366.092,237.887 365.92,237.574 365.801,237.206 C 365.682,236.837 365.622,236.423 365.622,235.963 C 365.622,235.499 365.682,235.082 365.801,234.714 C 365.92,234.345 366.092,234.033 366.316,233.778 C 366.539,233.522 366.814,233.327 367.14,233.193 C 367.466,233.059 367.838,232.992 368.256,232.992 C 368.669,232.992 369.038,233.059 369.362,233.193 C 369.685,233.327 369.959,233.522 370.183,233.778 C 370.407,234.033 370.578,234.345 370.698,234.714 C 370.817,235.082 370.877,235.499 370.877,235.963 Z" marker-start="none" marker-end="none"/>
      <path d="M 375.26,240.62 C 375.354,240.62 375.433,240.616 375.496,240.607 C 375.56,240.599 375.618,240.583 375.669,240.559 C 375.72,240.536 375.769,240.503 375.816,240.46 C 375.863,240.417 375.916,240.36 375.976,240.288 L 380.399,234.694 C 380.382,234.873 380.37,235.047 380.361,235.215 C 380.353,235.383 380.348,235.542 380.348,235.692 L 380.348,240.62 L 382.253,240.62 L 382.253,231.303 L 381.128,231.303 C 380.962,231.303 380.821,231.329 380.706,231.38 C 380.591,231.431 380.48,231.525 380.374,231.661 L 375.982,237.21 C 375.995,237.048 376.006,236.889 376.014,236.733 C 376.023,236.578 376.027,236.432 376.027,236.295 L 376.027,231.303 L 374.122,231.303 L 374.122,240.62 L 375.26,240.62 Z" marker-start="none" marker-end="none"/>
     </g>
    </g>
    <g id="Group_21" fill-rule="nonzero" stroke-linejoin="round" stroke-linecap="round" stroke="none" stroke-width="0.365" fill="#000000">
     <g id="Group_22">
      <path d="M 339.851,262.561 C 339.91,262.561 339.968,262.55 340.027,262.528 C 340.086,262.505 340.142,262.467 340.195,262.412 L 341.177,261.357 C 340.747,260.804 340.209,260.386 339.562,260.105 C 338.915,259.824 338.149,259.683 337.265,259.683 C 336.454,259.683 335.727,259.821 335.085,260.097 C 334.443,260.373 333.898,260.754 333.451,261.24 C 333.004,261.726 332.661,262.303 332.422,262.97 C 332.182,263.637 332.063,264.361 332.063,265.142 C 332.063,265.939 332.2,266.67 332.473,267.337 C 332.747,268.004 333.129,268.579 333.62,269.063 C 334.111,269.546 334.698,269.923 335.382,270.191 C 336.066,270.46 336.82,270.594 337.646,270.594 C 338.046,270.594 338.424,270.559 338.778,270.488 C 339.132,270.417 339.463,270.319 339.771,270.194 C 340.078,270.07 340.362,269.921 340.62,269.747 C 340.879,269.573 341.109,269.381 341.309,269.171 L 340.474,268.05 C 340.42,267.981 340.357,267.919 340.283,267.863 C 340.21,267.807 340.108,267.779 339.976,267.779 C 339.888,267.779 339.805,267.798 339.727,267.837 C 339.648,267.876 339.565,267.924 339.477,267.98 C 339.39,268.036 339.293,268.097 339.188,268.163 C 339.083,268.229 338.958,268.29 338.814,268.347 C 338.67,268.403 338.502,268.45 338.309,268.49 C 338.116,268.528 337.89,268.548 337.631,268.548 C 337.182,268.548 336.771,268.469 336.4,268.31 C 336.029,268.151 335.71,267.924 335.444,267.628 C 335.178,267.333 334.97,266.975 334.821,266.555 C 334.672,266.135 334.598,265.663 334.598,265.141 C 334.598,264.593 334.672,264.107 334.821,263.682 C 334.97,263.257 335.173,262.9 335.429,262.609 C 335.686,262.318 335.985,262.097 336.327,261.946 C 336.669,261.794 337.035,261.719 337.426,261.719 C 337.651,261.719 337.856,261.73 338.041,261.752 C 338.227,261.774 338.399,261.811 338.558,261.865 C 338.717,261.919 338.868,261.988 339.012,262.074 C 339.156,262.159 339.302,262.266 339.448,262.393 C 339.507,262.442 339.57,262.482 339.639,262.514 C 339.707,262.545 339.778,262.561 339.851,262.561 Z" marker-start="none" marker-end="none"/>
      <path d="M 349.182,270.48 L 349.182,268.573 L 344.8,268.573 L 344.8,266.08 L 348.156,266.08 L 348.156,264.248 L 344.8,264.248 L 344.8,261.708 L 349.182,261.708 L 349.182,259.801 L 342.309,259.801 L 342.309,270.48 L 349.182,270.48 Z" marker-start="none" marker-end="none"/>
      <path d="M 356.047,264.649 C 356.144,264.462 356.238,264.268 356.329,264.066 C 356.419,263.865 356.506,263.658 356.589,263.446 C 356.672,263.663 356.76,263.873 356.853,264.077 C 356.945,264.281 357.041,264.479 357.138,264.671 L 359.879,270.1 C 359.927,270.194 359.977,270.266 360.029,270.318 C 360.08,270.37 360.137,270.408 360.201,270.432 C 360.264,270.457 360.336,270.469 360.417,270.469 C 360.498,270.469 360.592,270.469 360.699,270.469 L 362.589,270.469 L 362.589,259.801 L 360.406,259.801 L 360.406,265.861 C 360.406,266.155 360.421,266.473 360.45,266.815 L 357.622,261.412 C 357.534,261.244 357.416,261.117 357.267,261.03 C 357.118,260.943 356.948,260.9 356.757,260.9 L 356.42,260.9 C 356.23,260.9 356.06,260.943 355.911,261.03 C 355.762,261.117 355.644,261.244 355.556,261.412 L 352.713,266.822 C 352.733,266.654 352.747,266.486 352.757,266.32 C 352.767,266.154 352.772,266.001 352.772,265.861 L 352.772,259.801 L 350.588,259.801 L 350.588,270.469 L 352.479,270.469 C 352.586,270.469 352.68,270.469 352.761,270.469 C 352.841,270.469 352.913,270.457 352.977,270.432 C 353.04,270.408 353.098,270.37 353.149,270.318 C 353.2,270.266 353.25,270.194 353.299,270.1 L 356.047,264.649 Z" marker-start="none" marker-end="none"/>
      <path d="M 371.22,270.48 L 371.22,268.573 L 366.838,268.573 L 366.838,266.08 L 370.194,266.08 L 370.194,264.248 L 366.838,264.248 L 366.838,261.708 L 371.22,261.708 L 371.22,259.801 L 364.347,259.801 L 364.347,270.48 L 371.22,270.48 Z" marker-start="none" marker-end="none"/>
      <path d="M 373.93,270.48 C 374.038,270.48 374.128,270.475 374.201,270.465 C 374.275,270.456 374.341,270.437 374.399,270.41 C 374.458,270.383 374.514,270.345 374.568,270.297 C 374.622,270.248 374.683,270.182 374.751,270.099 L 379.821,263.688 C 379.802,263.893 379.787,264.092 379.777,264.285 C 379.767,264.478 379.762,264.66 379.762,264.831 L 379.762,270.48 L 381.946,270.48 L 381.946,259.801 L 380.656,259.801 C 380.466,259.801 380.305,259.83 380.173,259.889 C 380.041,259.948 379.914,260.055 379.792,260.211 L 374.758,266.571 C 374.773,266.385 374.785,266.203 374.795,266.025 C 374.805,265.847 374.81,265.68 374.81,265.523 L 374.81,259.801 L 372.626,259.801 L 372.626,270.48 L 373.93,270.48 Z" marker-start="none" marker-end="none"/>
      <path d="M 391.454,270.48 L 391.454,268.516 L 388.45,268.516 L 388.45,259.803 L 385.974,259.803 L 385.974,268.516 L 382.97,268.516 L 382.97,270.48 L 391.454,270.48 Z" marker-start="none" marker-end="none"/>
      <path d="M 390.783,261.091 C 390.783,261.247 390.813,261.393 390.871,261.527 C 390.93,261.662 391.014,261.779 391.124,261.879 C 391.234,261.979 391.363,262.058 391.512,262.117 C 391.661,262.176 391.829,262.205 392.014,262.205 C 392.234,262.205 392.424,262.167 392.586,262.091 C 392.747,262.016 392.881,261.913 392.989,261.784 C 393.096,261.654 393.175,261.505 393.227,261.337 C 393.278,261.168 393.304,260.991 393.304,260.805 C 393.304,260.561 393.265,260.301 393.186,260.025 C 393.108,259.749 392.992,259.472 392.838,259.193 C 392.685,258.915 392.493,258.641 392.263,258.372 C 392.034,258.104 391.77,257.859 391.472,257.64 L 391.076,257.991 C 391.023,258.045 390.982,258.095 390.955,258.142 C 390.929,258.188 390.915,258.245 390.915,258.314 C 390.915,258.363 390.932,258.415 390.966,258.471 C 391.001,258.528 391.042,258.578 391.091,258.622 C 391.15,258.68 391.218,258.751 391.296,258.834 C 391.374,258.917 391.452,259.01 391.531,259.113 C 391.609,259.215 391.681,259.328 391.747,259.45 C 391.813,259.572 391.863,259.701 391.897,259.838 C 391.726,259.853 391.572,259.894 391.435,259.963 C 391.299,260.031 391.183,260.122 391.087,260.234 C 390.992,260.346 390.918,260.474 390.864,260.619 C 390.81,260.763 390.783,260.92 390.783,261.091 Z" marker-start="none" marker-end="none"/>
      <path d="M 400.157,259.801 L 397.666,259.801 L 397.666,270.48 L 400.157,270.48 L 400.157,259.801 Z" marker-start="none" marker-end="none"/>
      <path d="M 403.437,270.48 C 403.545,270.48 403.635,270.475 403.708,270.465 C 403.782,270.456 403.848,270.437 403.906,270.41 C 403.965,270.383 404.021,270.345 404.075,270.297 C 404.129,270.248 404.19,270.182 404.258,270.099 L 409.328,263.688 C 409.309,263.893 409.294,264.092 409.284,264.285 C 409.274,264.478 409.269,264.66 409.269,264.831 L 409.269,270.48 L 411.453,270.48 L 411.453,259.801 L 410.163,259.801 C 409.973,259.801 409.812,259.83 409.68,259.889 C 409.548,259.948 409.421,260.055 409.299,260.211 L 404.265,266.571 C 404.28,266.385 404.292,266.203 404.302,266.025 C 404.312,265.847 404.317,265.68 404.317,265.523 L 404.317,259.801 L 402.133,259.801 L 402.133,270.48 L 403.437,270.48 Z" marker-start="none" marker-end="none"/>
      <path d="M 420.382,262.561 C 420.441,262.561 420.499,262.55 420.558,262.528 C 420.617,262.505 420.673,262.467 420.726,262.412 L 421.708,261.357 C 421.278,260.804 420.74,260.386 420.093,260.105 C 419.446,259.824 418.68,259.683 417.796,259.683 C 416.985,259.683 416.258,259.821 415.616,260.097 C 414.974,260.373 414.429,260.754 413.982,261.24 C 413.535,261.726 413.192,262.303 412.953,262.97 C 412.713,263.637 412.594,264.361 412.594,265.142 C 412.594,265.939 412.731,266.67 413.004,267.337 C 413.278,268.004 413.66,268.579 414.151,269.063 C 414.642,269.546 415.229,269.923 415.913,270.191 C 416.597,270.46 417.351,270.594 418.177,270.594 C 418.577,270.594 418.955,270.559 419.309,270.488 C 419.663,270.417 419.994,270.319 420.302,270.194 C 420.609,270.07 420.893,269.921 421.151,269.747 C 421.41,269.573 421.64,269.381 421.84,269.171 L 421.005,268.05 C 420.951,267.981 420.888,267.919 420.814,267.863 C 420.741,267.807 420.639,267.779 420.507,267.779 C 420.419,267.779 420.336,267.798 420.258,267.837 C 420.179,267.876 420.096,267.924 420.008,267.98 C 419.921,268.036 419.824,268.097 419.719,268.163 C 419.614,268.229 419.489,268.29 419.345,268.347 C 419.201,268.403 419.033,268.45 418.84,268.49 C 418.647,268.528 418.421,268.548 418.162,268.548 C 417.713,268.548 417.302,268.469 416.931,268.31 C 416.56,268.151 416.241,267.924 415.975,267.628 C 415.709,267.333 415.501,266.975 415.352,266.555 C 415.203,266.135 415.129,265.663 415.129,265.141 C 415.129,264.593 415.203,264.107 415.352,263.682 C 415.501,263.257 415.704,262.9 415.96,262.609 C 416.217,262.318 416.516,262.097 416.858,261.946 C 417.2,261.794 417.566,261.719 417.957,261.719 C 418.182,261.719 418.387,261.73 418.572,261.752 C 418.758,261.774 418.93,261.811 419.089,261.865 C 419.248,261.919 419.399,261.988 419.543,262.074 C 419.687,262.159 419.833,262.266 419.979,262.393 C 420.038,262.442 420.101,262.482 420.17,262.514 C 420.238,262.545 420.309,262.561 420.382,262.561 Z" marker-start="none" marker-end="none"/>
      <path d="M 422.401,260.951 C 422.401,261.127 422.434,261.291 422.5,261.442 C 422.565,261.594 422.656,261.726 422.771,261.838 C 422.885,261.951 423.021,262.04 423.177,262.106 C 423.334,262.172 423.505,262.205 423.69,262.205 C 423.871,262.205 424.039,262.172 424.196,262.106 C 424.352,262.04 424.489,261.951 424.606,261.838 C 424.723,261.726 424.815,261.594 424.881,261.442 C 424.947,261.291 424.98,261.127 424.98,260.951 C 424.98,260.775 424.947,260.61 424.881,260.456 C 424.815,260.302 424.723,260.169 424.606,260.057 C 424.489,259.944 424.352,259.856 424.196,259.793 C 424.039,259.729 423.871,259.697 423.69,259.697 C 423.505,259.697 423.334,259.729 423.177,259.793 C 423.021,259.856 422.885,259.944 422.771,260.057 C 422.656,260.169 422.565,260.302 422.5,260.456 C 422.434,260.61 422.401,260.775 422.401,260.951 Z" marker-start="none" marker-end="none"/>
     </g>
    </g>
    <g id="Group_23" fill-rule="nonzero" stroke-linejoin="round" stroke-linecap="round" stroke="none" stroke-width="0.387" fill="#000000">
     <g id="Group_24">
      <path d="M 390.284,112.114 C 390.284,111.123 390.178,110.264 389.965,109.538 C 389.752,108.811 389.458,108.209 389.082,107.732 C 388.706,107.255 388.259,106.899 387.743,106.666 C 387.227,106.432 386.668,106.316 386.066,106.316 C 385.464,106.316 384.908,106.432 384.397,106.666 C 383.886,106.899 383.444,107.255 383.07,107.732 C 382.696,108.209 382.405,108.811 382.194,109.538 C 381.984,110.264 381.879,111.123 381.879,112.114 C 381.879,113.105 381.984,113.964 382.194,114.691 C 382.405,115.417 382.696,116.019 383.07,116.496 C 383.444,116.974 383.886,117.328 384.397,117.559 C 384.908,117.79 385.464,117.905 386.066,117.905 C 386.668,117.905 387.227,117.79 387.743,117.559 C 388.259,117.328 388.706,116.974 389.082,116.496 C 389.458,116.019 389.752,115.417 389.965,114.691 C 390.178,113.964 390.284,113.105 390.284,112.114 Z M 387.794,112.114 C 387.794,112.898 387.744,113.54 387.646,114.041 C 387.547,114.542 387.416,114.935 387.253,115.22 C 387.089,115.505 386.904,115.701 386.696,115.808 C 386.489,115.914 386.279,115.967 386.066,115.967 C 385.853,115.967 385.645,115.914 385.44,115.808 C 385.235,115.701 385.053,115.505 384.895,115.22 C 384.737,114.935 384.61,114.542 384.514,114.041 C 384.418,113.54 384.37,112.898 384.37,112.114 C 384.37,111.326 384.418,110.682 384.514,110.184 C 384.61,109.686 384.737,109.293 384.895,109.005 C 385.053,108.717 385.235,108.519 385.44,108.413 C 385.645,108.307 385.853,108.254 386.066,108.254 C 386.279,108.254 386.489,108.307 386.696,108.413 C 386.904,108.519 387.089,108.717 387.253,109.005 C 387.416,109.293 387.547,109.686 387.646,110.184 C 387.744,110.682 387.794,111.326 387.794,112.114 Z" marker-start="none" marker-end="none"/>
     </g>
    </g>
    <g id="Group_25" fill-rule="nonzero" stroke-linejoin="round" stroke-linecap="round" stroke="none" stroke-width="0.387" fill="#000000">
     <g id="Group_26">
      <path d="M 393.858,173.673 L 393.858,170.591 L 396.737,170.591 L 396.737,168.862 L 393.858,168.862 L 393.858,165.765 L 391.897,165.765 L 391.897,168.862 L 389.033,168.862 L 389.033,170.591 L 391.897,170.591 L 391.897,173.673 L 393.858,173.673 Z" marker-start="none" marker-end="none"/>
      <path d="M 402.092,175.96 C 402.652,175.96 403.157,175.878 403.605,175.715 C 404.054,175.552 404.437,175.325 404.753,175.034 C 405.07,174.744 405.312,174.397 405.481,173.995 C 405.65,173.593 405.734,173.151 405.734,172.668 C 405.734,172.253 405.676,171.869 405.559,171.516 C 405.442,171.163 405.283,170.827 405.08,170.508 C 404.878,170.189 404.643,169.881 404.376,169.582 C 404.109,169.284 403.825,168.982 403.524,168.676 L 401.306,166.403 C 401.591,166.487 401.873,166.553 402.15,166.603 C 402.428,166.653 402.688,166.677 402.932,166.677 L 405.049,166.677 C 405.308,166.677 405.513,166.606 405.664,166.463 C 405.814,166.32 405.89,166.132 405.89,165.898 L 405.89,164.496 L 397.921,164.496 L 397.921,165.274 C 397.921,165.425 397.952,165.586 398.014,165.757 C 398.076,165.928 398.185,166.084 398.341,166.224 L 401.609,169.516 C 401.89,169.797 402.133,170.064 402.341,170.318 C 402.548,170.572 402.72,170.823 402.855,171.069 C 402.989,171.316 403.091,171.562 403.158,171.809 C 403.225,172.055 403.259,172.316 403.259,172.591 C 403.259,173.042 403.152,173.389 402.936,173.63 C 402.721,173.871 402.393,173.992 401.952,173.992 C 401.77,173.992 401.604,173.966 401.454,173.914 C 401.303,173.862 401.168,173.792 401.049,173.704 C 400.93,173.616 400.827,173.512 400.742,173.393 C 400.656,173.273 400.587,173.144 400.535,173.004 C 400.452,172.77 400.347,172.602 400.22,172.498 C 400.093,172.394 399.921,172.342 399.703,172.342 C 399.651,172.342 399.595,172.345 399.535,172.35 C 399.476,172.355 399.415,172.363 399.353,172.373 L 398.076,172.595 C 398.159,173.161 398.319,173.655 398.555,174.075 C 398.791,174.496 399.084,174.846 399.434,175.127 C 399.784,175.407 400.185,175.616 400.637,175.754 C 401.088,175.891 401.573,175.96 402.092,175.96 Z" marker-start="none" marker-end="none"/>
     </g>
    </g>
    <g id="Group_27" fill-rule="nonzero" stroke-linejoin="round" stroke-linecap="round" stroke="none" stroke-width="0.387" fill="#000000">
     <g id="Group_28">
      <path d="M 452.055,189.656 L 452.055,186.574 L 454.934,186.574 L 454.934,184.845 L 452.055,184.845 L 452.055,181.748 L 450.094,181.748 L 450.094,184.845 L 447.23,184.845 L 447.23,186.574 L 450.094,186.574 L 450.094,189.656 L 452.055,189.656 Z" marker-start="none" marker-end="none"/>
      <path d="M 460.289,191.943 C 460.849,191.943 461.354,191.861 461.802,191.698 C 462.251,191.535 462.634,191.308 462.95,191.017 C 463.267,190.727 463.509,190.38 463.678,189.978 C 463.847,189.576 463.931,189.134 463.931,188.651 C 463.931,188.236 463.873,187.852 463.756,187.499 C 463.639,187.146 463.48,186.81 463.277,186.491 C 463.075,186.172 462.84,185.864 462.573,185.565 C 462.306,185.267 462.022,184.965 461.721,184.659 L 459.503,182.386 C 459.788,182.47 460.07,182.536 460.347,182.586 C 460.625,182.636 460.885,182.66 461.129,182.66 L 463.246,182.66 C 463.505,182.66 463.71,182.589 463.861,182.446 C 464.011,182.303 464.087,182.115 464.087,181.881 L 464.087,180.479 L 456.118,180.479 L 456.118,181.257 C 456.118,181.408 456.149,181.569 456.211,181.74 C 456.273,181.911 456.382,182.067 456.538,182.207 L 459.806,185.499 C 460.087,185.78 460.33,186.047 460.538,186.301 C 460.745,186.555 460.917,186.806 461.052,187.052 C 461.186,187.299 461.288,187.545 461.355,187.792 C 461.422,188.038 461.456,188.299 461.456,188.574 C 461.456,189.025 461.349,189.372 461.133,189.613 C 460.918,189.854 460.59,189.975 460.149,189.975 C 459.967,189.975 459.801,189.949 459.651,189.897 C 459.5,189.845 459.365,189.775 459.246,189.687 C 459.127,189.599 459.024,189.495 458.939,189.376 C 458.853,189.256 458.784,189.127 458.732,188.987 C 458.649,188.753 458.544,188.585 458.417,188.481 C 458.29,188.377 458.118,188.325 457.9,188.325 C 457.848,188.325 457.792,188.328 457.732,188.333 C 457.673,188.338 457.612,188.346 457.55,188.356 L 456.273,188.578 C 456.356,189.144 456.516,189.638 456.752,190.058 C 456.988,190.479 457.281,190.829 457.631,191.11 C 457.981,191.39 458.382,191.599 458.834,191.737 C 459.285,191.874 459.77,191.943 460.289,191.943 Z" marker-start="none" marker-end="none"/>
     </g>
    </g>
   </g>
   <path d="M 273.069,97.854 L 273.069,282.864 C 273.069,291.261 279.884,298.077 288.281,298.077 L 473.292,298.077 C 481.689,298.077 488.504,291.261 488.504,282.864 L 488.504,97.854 C 488.504,89.457 481.689,82.641 473.292,82.641 L 288.281,82.641 C 279.884,82.641 273.069,89.457 273.069,97.854 Z M 487.795,98.463 L 487.795,282.255 C 487.795,290.597 481.025,297.368 472.683,297.368 L 288.89,297.368 C 280.548,297.368 273.778,290.597 273.778,282.255 L 273.778,98.463 C 273.778,90.121 280.548,83.35 288.89,83.35 L 472.683,83.35 C 481.025,83.35 487.795,90.121 487.795,98.463 Z" stroke-linejoin="miter" stroke-width="0.802" fill="#7f7f7f" stroke="none" marker-start="none" marker-end="none"/>
  </g>
 </g>
</svg>
