<?xml version="1.0" standalone="no"?>
<!DOCTYPE svg PUBLIC "-//W3C//DTD SVG 1.1//EN" "http://www.w3.org/Graphics/SVG/1.1/DTD/svg11.dtd">
<!--Generator: Xara Designer (www.xara.com), SVG filter version: 6.6.0.0-->
<svg fill="none" fill-rule="evenodd" stroke="black" stroke-width="0.501" stroke-linejoin="bevel" stroke-miterlimit="10" font-family="Times New Roman" font-size="16" style="font-variant-ligatures:none" xmlns:xlink="http://www.w3.org/1999/xlink" xmlns="http://www.w3.org/2000/svg" version="1.1" overflow="visible" width="37.776pt" height="37.774pt" viewBox="3590.25 -323.137 37.776 37.774">
 <defs>
	</defs>
 <g id="Grid 36x36mm" transform="scale(1 -1)"/>
 <g id="Layer 2 - grids" transform="scale(1 -1)"/>
 <g id="Layer 1" transform="scale(1 -1)">
  <path d="M 3598.18,317.214 C 3605.34,323.257 3616.06,322.349 3622.1,315.195 C 3628.14,308.042 3627.24,297.328 3620.08,291.287 C 3612.93,285.242 3602.22,286.144 3596.17,293.301 C 3590.13,300.459 3591.03,311.17 3598.18,317.214 Z" stroke-linejoin="miter" stroke="none" fill="#ffffff" stroke-width="0.702" marker-start="none" marker-end="none"/>
  <path d="M 3598.18,317.214 C 3605.35,323.258 3616.06,322.353 3622.1,315.199 C 3628.14,308.044 3627.24,297.328 3620.08,291.287 C 3612.93,285.242 3602.21,286.144 3596.17,293.307 C 3590.13,300.459 3591.03,311.17 3598.18,317.214 Z" fill="none" stroke="#55ade6" stroke-linejoin="miter" stroke-width="3.84" marker-start="none" marker-end="none"/>
  <g id="Group" stroke-linejoin="miter" stroke="none" stroke-width="0.468" fill="#000000">
   <path d="M 3598.8,302.629 L 3595.72,302.629 L 3596.47,304.459 L 3598.62,304.459 C 3598.61,305.07 3598.66,305.687 3598.74,306.298 L 3595.72,306.298 L 3596.47,308.129 L 3599.2,308.129 C 3599.66,309.513 3600.41,310.831 3601.45,311.984 C 3602.21,312.819 3603.06,313.503 3603.98,314.06 L 3603.98,314.053 L 3603.98,314.06 C 3604.09,314.129 3604.21,314.191 3604.33,314.245 C 3604.48,314.339 3604.55,314.379 3604.62,314.41 C 3604.62,314.41 3604.62,314.41 3604.62,314.41 C 3604.95,314.585 3605.28,314.729 3605.62,314.863 L 3609.61,305.218 L 3613.6,314.863 C 3613.81,314.776 3614.01,314.693 3614.22,314.602 C 3614.22,314.602 3614.22,314.61 3614.22,314.61 C 3614.25,314.593 3614.27,314.585 3614.41,314.507 C 3614.44,314.496 3614.47,314.479 3614.51,314.459 C 3614.68,314.379 3614.86,314.281 3615.14,314.113 C 3615.18,314.101 3615.21,314.078 3615.25,314.053 L 3615.25,314.06 C 3615.85,313.695 3616.44,313.269 3616.98,312.772 C 3621.46,308.732 3621.83,301.847 3617.86,297.339 L 3615.19,297.339 C 3615.63,297.677 3616.04,298.055 3616.41,298.47 C 3619.81,302.231 3619.51,308.026 3615.76,311.415 C 3615.38,311.763 3614.96,312.068 3614.54,312.342 L 3610.53,302.629 L 3608.7,302.629 L 3604.69,312.342 C 3604.01,311.911 3603.38,311.386 3602.81,310.758 C 3602.09,309.956 3601.54,309.065 3601.15,308.129 L 3604.45,308.129 L 3605.21,306.298 L 3600.6,306.298 C 3600.49,305.687 3600.44,305.07 3600.45,304.459 L 3605.96,304.459 L 3606.72,302.629 L 3600.67,302.629 C 3601.06,300.831 3602,299.138 3603.47,297.816 C 3603.66,297.649 3603.84,297.49 3604.04,297.339 L 3601.36,297.339 C 3600.01,298.875 3599.15,300.712 3598.8,302.629 Z M 3615.24,314.053 L 3615.25,314.053 L 3615.24,314.053 Z" marker-start="none" marker-end="none"/>
  </g>
 </g>
</svg>
